<?xml version="1.0" encoding="utf-8"?>
<!-- Generator: Adobe Illustrator 26.2.1, SVG Export Plug-In . SVG Version: 6.00 Build 0)  -->
<svg version="1.1" id="Ebene_1" xmlns="http://www.w3.org/2000/svg" xmlns:xlink="http://www.w3.org/1999/xlink" x="0px" y="0px"
	 width="24.3px" height="29px" viewBox="0 0 24.3 29" enable-background="new 0 0 24.3 29" xml:space="preserve">
<line fill="none" stroke="#B2B1B1" stroke-width="2.5" x1="0" y1="15" x2="24.3" y2="15"/>
<path fill="#B2B1B1" d="M15.7,6.9L15.7,6.9V4.3l-2.5,2.5C13.1,6.9,13,6.9,13,6.7V0h-1.3c-0.2,0-0.4,0.2-0.4,0.4v6.7L8.6,4.4v2.2
	c0,0.2,0.1,0.5,0.2,0.6l3.1,3.1c0.1,0.1,0.4,0.1,0.5,0L15.7,6.9z"/>
<path fill="#B2B1B1" d="M8.7,22.1L8.7,22.1v2.6l2.5-2.5c0.1-0.1,0.2-0.1,0.2,0.1V29h1.3c0.2,0,0.4-0.2,0.4-0.4v-6.7l2.7,2.7v-2.2
	c0-0.2-0.1-0.5-0.2-0.6l-3.1-3.1c-0.1-0.1-0.4-0.1-0.5,0L8.7,22.1z"/>
</svg>
