<?xml version="1.0" encoding="utf-8"?>
<!-- Generator: Adobe Illustrator 26.2.1, SVG Export Plug-In . SVG Version: 6.00 Build 0)  -->
<svg version="1.1" id="Ebene_1" xmlns="http://www.w3.org/2000/svg" xmlns:xlink="http://www.w3.org/1999/xlink" x="0px" y="0px"
	 width="29px" height="24.3px" viewBox="0 0 29 24.3" enable-background="new 0 0 29 24.3" xml:space="preserve">
<line fill="none" stroke="#B2B1B1" stroke-width="2.5" x1="15" y1="24.3" x2="15" y2="0"/>
<path fill="#B2B1B1" d="M6.9,8.6L6.9,8.6H4.3l2.5,2.5c0.1,0.1,0.1,0.2-0.1,0.2H0v1.3C0,12.8,0.2,13,0.4,13h6.7l-2.7,2.7h2.2
	c0.2,0,0.5-0.1,0.6-0.2l3.1-3.1c0.1-0.1,0.1-0.4,0-0.5L6.9,8.6z"/>
<path fill="#B2B1B1" d="M22.1,15.6L22.1,15.6h2.6l-2.5-2.5c-0.1-0.1-0.1-0.2,0.1-0.2H29v-1.3c0-0.2-0.2-0.4-0.4-0.4h-6.7l2.7-2.7
	h-2.2c-0.2,0-0.5,0.1-0.6,0.2l-3.1,3.1c-0.1,0.1-0.1,0.4,0,0.5L22.1,15.6z"/>
</svg>
