<?xml version="1.0" encoding="utf-8"?>
<!-- Generator: Adobe Illustrator 26.2.1, SVG Export Plug-In . SVG Version: 6.00 Build 0)  -->
<svg version="1.1" id="Ebene_1" xmlns="http://www.w3.org/2000/svg" xmlns:xlink="http://www.w3.org/1999/xlink" x="0px" y="0px"
	 width="27px" height="27px" viewBox="0 0 27 27" enable-background="new 0 0 27 27" xml:space="preserve">
<g>
	<line fill="none" stroke="#B2B1B1" stroke-width="0.3" stroke-miterlimit="10" x1="22.35" y1="8.45" x2="9.25" y2="8.45"/>
	<line fill="none" stroke="#B2B1B1" stroke-width="0.3" stroke-miterlimit="10" x1="22.35" y1="13.55" x2="9.25" y2="13.55"/>
	<line fill="none" stroke="#B2B1B1" stroke-width="0.3" stroke-miterlimit="10" x1="22.35" y1="18.55" x2="9.25" y2="18.55"/>
</g>
<g>
	<g enable-background="new    ">
		<path fill="#B2B1B1" d="M5.653,7.414v2.104H5.166V7.805H4.745V7.414H5.653z"/>
	</g>
	<g enable-background="new    ">
		<path fill="#B2B1B1" d="M6.414,14.138v0.396H4.823v-0.315l0.812-0.767c0.187-0.178,0.22-0.286,0.22-0.388
			c0-0.165-0.114-0.262-0.337-0.262c-0.18,0-0.333,0.069-0.436,0.21l-0.354-0.228c0.162-0.238,0.457-0.392,0.836-0.392
			c0.469,0,0.781,0.241,0.781,0.623c0,0.204-0.058,0.391-0.352,0.664l-0.484,0.457H6.414z"/>
	</g>
	<g enable-background="new    ">
		<path fill="#B2B1B1" d="M6.395,18.906c0,0.354-0.273,0.68-0.871,0.68c-0.295,0-0.599-0.081-0.803-0.226l0.189-0.373
			c0.159,0.121,0.382,0.189,0.601,0.189c0.244,0,0.394-0.099,0.394-0.271c0-0.159-0.117-0.258-0.394-0.258H5.289v-0.322l0.434-0.49
			H4.826v-0.391H6.3v0.316l-0.476,0.541C6.203,18.362,6.395,18.597,6.395,18.906z"/>
	</g>
</g>
<polygon fill="none" stroke="#B2B2B2" stroke-width="0.5" stroke-miterlimit="10" points="0.25,0.55 0.25,26.55 0.25,26.75 
	0.55,26.75 26.55,26.75 26.75,26.75 26.75,26.55 26.75,0.55 26.75,0.25 26.55,0.25 0.55,0.25 0.25,0.25 "/>
</svg>
