<?xml version="1.0" encoding="utf-8"?>
<!-- Generator: Adobe Illustrator 26.2.1, SVG Export Plug-In . SVG Version: 6.00 Build 0)  -->
<svg version="1.1" id="Ebene_1" xmlns="http://www.w3.org/2000/svg" xmlns:xlink="http://www.w3.org/1999/xlink" x="0px" y="0px"
	 width="17.628px" height="12.172px" viewBox="0 0 17.628 12.172" enable-background="new 0 0 17.628 12.172" xml:space="preserve">
<g>
	<line fill="none" stroke="#B2B1B1" stroke-width="0.3" stroke-miterlimit="10" x1="17.628" y1="1.036" x2="4.528" y2="1.036"/>
	<line fill="none" stroke="#B2B1B1" stroke-width="0.3" stroke-miterlimit="10" x1="17.628" y1="6.136" x2="4.528" y2="6.136"/>
	<line fill="none" stroke="#B2B1B1" stroke-width="0.3" stroke-miterlimit="10" x1="17.628" y1="11.136" x2="4.528" y2="11.136"/>
</g>
<g>
	<g enable-background="new    ">
		<path fill="#B2B1B1" d="M0.932,0v2.104H0.444V0.391H0.023V0H0.932z"/>
	</g>
	<g enable-background="new    ">
		<path fill="#B2B1B1" d="M1.692,6.724V7.12H0.102V6.805l0.812-0.767C1.1,5.86,1.133,5.752,1.133,5.65
			c0-0.165-0.114-0.262-0.337-0.262c-0.18,0-0.333,0.069-0.436,0.21L0.006,5.371c0.162-0.238,0.457-0.392,0.836-0.392
			c0.469,0,0.781,0.241,0.781,0.623c0,0.204-0.058,0.391-0.352,0.664L0.787,6.724H1.692z"/>
	</g>
	<g enable-background="new    ">
		<path fill="#B2B1B1" d="M1.674,11.492c0,0.354-0.273,0.68-0.871,0.68c-0.295,0-0.599-0.081-0.803-0.226l0.189-0.373
			c0.159,0.121,0.382,0.189,0.601,0.189c0.244,0,0.394-0.099,0.394-0.271c0-0.159-0.117-0.258-0.394-0.258H0.567v-0.322l0.434-0.49
			H0.104v-0.391h1.474v0.316l-0.476,0.541C1.481,10.948,1.674,11.183,1.674,11.492z"/>
	</g>
</g>
</svg>
