<?xml version="1.0" encoding="utf-8"?>
<!-- Generator: Adobe Illustrator 26.2.1, SVG Export Plug-In . SVG Version: 6.00 Build 0)  -->
<svg version="1.1" id="Ebene_1" xmlns="http://www.w3.org/2000/svg" xmlns:xlink="http://www.w3.org/1999/xlink" x="0px" y="0px"
	 width="16.6px" height="11.7px" viewBox="0 0 16.6 11.7" enable-background="new 0 0 16.6 11.7" xml:space="preserve">
<path fill="none" stroke="#B2B1B1" stroke-width="0.3" stroke-miterlimit="10" d="M16.6,11h-13 M16.6,5.9h-13 M16.6,0.7h-13"/>
<path fill="#B2B1B1" d="M1.5,6.5c0.2-0.2,0.2-0.3,0.2-0.6c0-0.1,0-0.3-0.1-0.4C1.5,5.4,1.4,5.3,1.3,5.2C1.2,5.1,1,5.1,0.9,5.1
	s-0.3,0-0.4,0.1S0.3,5.4,0.2,5.5C0.1,5.6,0.1,5.8,0.1,5.9c0,0.2,0.1,0.4,0.2,0.6c0.2,0.2,0.4,0.2,0.6,0.2C1.1,6.7,1.3,6.6,1.5,6.5"
	/>
<path fill="#B2B1B1" d="M0.9,1.8c0.5,0,0.9-0.4,0.9-0.9S1.4,0,0.9,0S0,0.4,0,0.9S0.4,1.8,0.9,1.8"/>
<path fill="#B2B1B1" d="M1.5,11.5c0.2-0.2,0.2-0.3,0.2-0.6c0-0.1,0-0.3-0.1-0.4c-0.1-0.1-0.2-0.2-0.3-0.3c-0.1-0.1-0.3-0.1-0.4-0.1
	s-0.3,0-0.4,0.1s-0.2,0.2-0.3,0.3c-0.1,0.1-0.1,0.3-0.1,0.4c0,0.2,0.1,0.4,0.2,0.6c0.2,0.2,0.4,0.2,0.6,0.2
	C1.1,11.7,1.3,11.6,1.5,11.5"/>
</svg>
