<?xml version="1.0" encoding="utf-8"?>
<!-- Generator: Adobe Illustrator 26.2.1, SVG Export Plug-In . SVG Version: 6.00 Build 0)  -->
<svg version="1.1" id="Ebene_1" xmlns="http://www.w3.org/2000/svg" xmlns:xlink="http://www.w3.org/1999/xlink" x="0px" y="0px"
     width="27px" height="27px" viewBox="0 0 27 27" enable-background="new 0 0 27 27" xml:space="preserve">
<polygon fill="none" stroke="#B2B2B2" stroke-width="0.5" stroke-miterlimit="10" points="0.2,0.5 0.2,26.5 0.2,26.8 0.5,26.8
	26.5,26.8 26.7,26.8 26.7,26.5 26.7,0.5 26.7,0.2 26.5,0.2 0.5,0.2 0.2,0.2 "/>
    <g>
	<path fill="none" stroke="#B2B1B1" stroke-miterlimit="10" d="M23.6,19H8.4 M23.6,13.5H8.4 M23.6,8.1H8.4"/>
        <g>
		<path fill="#B2B1B1" d="M5,6.1v3.8H4.3V6.7H3.4V6.1H5z"/>
	</g>
        <g>
		<path fill="#B2B1B1" d="M6.4,14.6v0.6H3.6v-0.5l1.5-1.5c0.4-0.4,0.4-0.6,0.4-0.8c0-0.4-0.2-0.6-0.7-0.6c-0.4,0-0.7,0.1-0.9,0.4
			l-0.5-0.4c0.3-0.4,0.8-0.6,1.5-0.6c0.8,0,1.4,0.4,1.4,1.1c0,0.4-0.1,0.7-0.6,1.2l-1,1H6.4z"/>
	</g>
        <g>
		<path fill="#B2B1B1" d="M6.4,19.7c0,0.6-0.5,1.2-1.5,1.2c-0.5,0-1.1-0.2-1.4-0.4l0.3-0.6c0.3,0.2,0.7,0.4,1.1,0.4
			c0.5,0,0.8-0.2,0.8-0.6c0-0.3-0.3-0.6-0.8-0.6H4.5v-0.5l0.9-1H3.6V17h2.6v0.5l-0.9,1.1C6,18.7,6.4,19.1,6.4,19.7z"/>
	</g>
</g>
</svg>
