<?xml version="1.0" encoding="utf-8"?>
<!-- Generator: Adobe Illustrator 26.2.1, SVG Export Plug-In . SVG Version: 6.00 Build 0)  -->
<svg version="1.1" id="Ebene_1" xmlns="http://www.w3.org/2000/svg" xmlns:xlink="http://www.w3.org/1999/xlink" x="0px" y="0px"
     width="27px" height="27px" viewBox="0 0 27 27" enable-background="new 0 0 27 27" xml:space="preserve">
<polygon fill="none" stroke="#B2B2B2" stroke-width="0.5" stroke-miterlimit="10" points="0.2,0.5 0.2,26.5 0.2,26.8 0.5,26.8
	26.5,26.8 26.7,26.8 26.7,26.5 26.7,0.5 26.7,0.2 26.5,0.2 0.5,0.2 0.2,0.2 "/>
    <g>
	<path fill="none" stroke="#B2B1B1" stroke-miterlimit="10" d="M23.1,19H7.9 M23.1,13.5H7.9 M23.1,8.1H7.9"/>
        <path fill="#B2B1B1" d="M5.1,9.2L5.1,9.2c-0.6,0-1.2-0.5-1.2-1.1v0c0-0.6,0.5-1.1,1.1-1.1h0c0.6,0,1.1,0.5,1.1,1.1v0
		C6.2,8.7,5.7,9.2,5.1,9.2z"/>
        <path fill="#B2B1B1" d="M5.1,14.7L5.1,14.7c-0.6,0-1.2-0.5-1.2-1.1v0c0-0.6,0.5-1.1,1.1-1.1h0c0.6,0,1.1,0.5,1.1,1.1v0
		C6.2,14.2,5.7,14.7,5.1,14.7z"/>
        <path fill="#B2B1B1" d="M5.1,20.1L5.1,20.1c-0.6,0-1.2-0.5-1.2-1.1v0c0-0.6,0.5-1.1,1.1-1.1h0c0.6,0,1.1,0.5,1.1,1.1v0
		C6.2,19.5,5.7,20.1,5.1,20.1z"/>
</g>
</svg>
