<?xml version="1.0" encoding="utf-8"?>
<!-- Generator: Adobe Illustrator 26.2.1, SVG Export Plug-In . SVG Version: 6.00 Build 0)  -->
<svg version="1.1" id="Ebene_1" xmlns="http://www.w3.org/2000/svg" xmlns:xlink="http://www.w3.org/1999/xlink" x="0px" y="0px"
	 width="27px" height="27px" viewBox="0 0 27 27" enable-background="new 0 0 27 27" xml:space="preserve">
<polygon fill="none" stroke="#B2B2B2" stroke-width="0.5" stroke-miterlimit="10" points="0.25,0.55 0.25,26.55 0.25,26.75 
	0.55,26.75 26.55,26.75 26.75,26.75 26.75,26.55 26.75,0.55 26.75,0.25 26.55,0.25 0.55,0.25 0.25,0.25 "/>
<path fill="none" stroke="#B2B1B1" stroke-width="0.3" stroke-miterlimit="10" d="M21.85,18.65h-13 M21.85,13.55h-13 M21.85,8.35
	h-13"/>
<path fill="#B2B1B1" d="M6.75,14.15c0.2-0.2,0.2-0.3,0.2-0.6c0-0.1,0-0.3-0.1-0.4c-0.1-0.1-0.2-0.2-0.3-0.3
	c-0.1-0.1-0.3-0.1-0.4-0.1s-0.3,0-0.4,0.1s-0.2,0.2-0.3,0.3c-0.1,0.1-0.1,0.3-0.1,0.4c0,0.2,0.1,0.4,0.2,0.6
	c0.2,0.2,0.4,0.2,0.6,0.2C6.35,14.35,6.55,14.25,6.75,14.15"/>
<path fill="#B2B1B1" d="M6.15,9.45c0.5,0,0.9-0.4,0.9-0.9s-0.4-0.9-0.9-0.9s-0.9,0.4-0.9,0.9S5.65,9.45,6.15,9.45"/>
<path fill="#B2B1B1" d="M6.75,19.15c0.2-0.2,0.2-0.3,0.2-0.6c0-0.1,0-0.3-0.1-0.4c-0.1-0.1-0.2-0.2-0.3-0.3
	c-0.1-0.1-0.3-0.1-0.4-0.1s-0.3,0-0.4,0.1s-0.2,0.2-0.3,0.3c-0.1,0.1-0.1,0.3-0.1,0.4c0,0.2,0.1,0.4,0.2,0.6
	c0.2,0.2,0.4,0.2,0.6,0.2C6.35,19.35,6.55,19.25,6.75,19.15"/>
</svg>
