<?xml version="1.0" encoding="utf-8"?>
<!-- Generator: Adobe Illustrator 26.2.1, SVG Export Plug-In . SVG Version: 6.00 Build 0)  -->
<svg version="1.1" id="Ebene_1" xmlns="http://www.w3.org/2000/svg" xmlns:xlink="http://www.w3.org/1999/xlink" x="0px" y="0px"
     width="27.6px" height="27.6px" viewBox="0 0 27.6 27.6" enable-background="new 0 0 27.6 27.6" xml:space="preserve">
<g>
	<path fill="none" stroke="#FEFEFE" stroke-width="0.633" stroke-miterlimit="10" d="M27.3,13.9c0,7.5-6.1,13.5-13.7,13.4
		c-7.4,0-13.4-6.1-13.3-13.5c0-7.5,6.1-13.5,13.6-13.5C21.4,0.4,27.4,6.4,27.3,13.9z"/>
    <path fill="#FFFFFF" d="M13.8,19c-2.8,0-5.2-2.3-5.2-5.2c0-2.8,2.3-5.2,5.2-5.2c2.8,0,5.2,2.3,5.2,5.2C19,16.7,16.7,19,13.8,19
		 M13.8,7.8c0,0-4.9-0.3-10,6.1c0,0,3.7,5.8,10,6c0,0,4.5,0.6,9.9-6C23.8,13.8,19.5,7.9,13.8,7.8"/>
    <path fill="#FFFFFF" d="M15.8,13.9c-1,0-1.7-0.8-1.7-1.7c0-0.7,0.4-1.3,1.1-1.6c-0.4-0.2-0.8-0.2-1.3-0.2c-0.9,0-1.8,0.4-2.4,1
		c-0.6,0.6-1,1.5-1,2.4c0,0.9,0.4,1.8,1,2.4c0.6,0.7,1.5,1,2.4,1c0.9,0,1.8-0.4,2.4-1c0.6-0.6,1-1.5,1-2.4c0-0.2,0-0.4-0.1-0.6
		C16.9,13.6,16.4,13.9,15.8,13.9"/>
    <path fill="none" stroke="#FEFEFE" stroke-width="0.633" stroke-miterlimit="10" d="M27.3,13.9c0,7.5-6.1,13.5-13.7,13.4
		c-7.4,0-13.4-6.1-13.3-13.5c0-7.5,6.1-13.5,13.6-13.5C21.4,0.4,27.4,6.4,27.3,13.9z"/>
    <path fill="#FFFFFF" d="M13.8,19c-2.8,0-5.2-2.3-5.2-5.2c0-2.8,2.3-5.2,5.2-5.2c2.8,0,5.2,2.3,5.2,5.2C19,16.7,16.7,19,13.8,19
		 M13.8,7.8c0,0-4.9-0.3-10,6.1c0,0,3.7,5.8,10,6c0,0,4.5,0.6,9.9-6C23.8,13.8,19.5,7.9,13.8,7.8"/>
    <path fill="#FFFFFF" d="M15.8,13.9c-1,0-1.7-0.8-1.7-1.7c0-0.7,0.4-1.3,1.1-1.6c-0.4-0.2-0.8-0.2-1.3-0.2c-0.9,0-1.8,0.4-2.4,1
		c-0.6,0.6-1,1.5-1,2.4c0,0.9,0.4,1.8,1,2.4c0.6,0.7,1.5,1,2.4,1c0.9,0,1.8-0.4,2.4-1c0.6-0.6,1-1.5,1-2.4c0-0.2,0-0.4-0.1-0.6
		C16.9,13.6,16.4,13.9,15.8,13.9"/>
</g>
</svg>
