<?xml version="1.0" encoding="utf-8"?>
<!-- Generator: Adobe Illustrator 26.2.1, SVG Export Plug-In . SVG Version: 6.00 Build 0)  -->
<svg version="1.1" id="Ebene_1" xmlns="http://www.w3.org/2000/svg" xmlns:xlink="http://www.w3.org/1999/xlink" x="0px" y="0px"
	 width="20.956px" height="20.951px" viewBox="0 0 20.956 20.951" enable-background="new 0 0 20.956 20.951" xml:space="preserve">
<path fill="none" stroke="#FEFEFE" stroke-width="0.633" stroke-miterlimit="10" d="M20.64,10.55
	c-0.029,5.662-4.578,10.123-10.285,10.085c-5.552-0.037-10.07-4.612-10.038-10.164C0.35,4.81,4.916,0.289,10.572,0.317
	C16.16,0.344,20.669,4.926,20.64,10.55z"/>
<path fill="#FFFFFF" d="M10.493,14.344c-2.141,0-3.877-1.735-3.877-3.877c0-2.141,1.736-3.877,3.877-3.877s3.877,1.736,3.877,3.877
	C14.37,12.609,12.634,14.344,10.493,14.344 M10.493,5.92c0,0-3.667-0.234-7.515,4.562c0,0,2.787,4.356,7.515,4.543
	c0,0,3.373,0.423,7.485-4.543C17.978,10.482,14.771,6.038,10.493,5.92"/>
<path fill="#FFFFFF" d="M11.965,10.559c-0.719,0-1.301-0.583-1.301-1.301c0-0.538,0.327-1,0.792-1.198
	c-0.302-0.121-0.627-0.184-0.963-0.184c-0.692,0-1.343,0.269-1.832,0.759c-0.489,0.489-0.759,1.14-0.759,1.832
	s0.27,1.343,0.759,1.832c0.489,0.49,1.14,0.759,1.832,0.759s1.343-0.269,1.833-0.759c0.489-0.489,0.759-1.14,0.759-1.832
	c0-0.162-0.015-0.321-0.044-0.477C12.807,10.333,12.412,10.559,11.965,10.559"/>
</svg>
