<?xml version="1.0" encoding="utf-8"?>
<!-- Generator: Adobe Illustrator 26.0.3, SVG Export Plug-In . SVG Version: 6.00 Build 0)  -->
<svg version="1.1" id="Ebene_1" xmlns="http://www.w3.org/2000/svg" xmlns:xlink="http://www.w3.org/1999/xlink" x="0px" y="0px"
	 width="69.849px" height="21px" viewBox="0 0 69.849 21" style="enable-background:new 0 0 69.849 21;" xml:space="preserve">
<style type="text/css">
	.st0{fill:none;stroke:#C5C5C5;stroke-width:3;stroke-linecap:round;stroke-linejoin:round;}
	.st1{fill:#FFAEFF;stroke:#4F4D4D;stroke-width:0.5;}
	.st2{fill:#F8F8F8;}
	.st3{fill:#0E689A;}
	.st4{fill:none;stroke:#B2B1B1;stroke-width:0.65;stroke-miterlimit:10;}
	.st5{fill:#B2B1B1;}
	.st6{fill:none;stroke:#B2B2B2;stroke-width:0.5;stroke-miterlimit:10;}
	.st7{fill:none;stroke:#B2B1B1;stroke-width:0.3;stroke-miterlimit:10;}
	.st8{fill:none;stroke:#FFFFFF;stroke-width:0.021;}
	.st9{fill:none;}
	.st10{fill:#0E6899;}
	.st11{fill:#FFFFFF;}
	.st12{fill:none;stroke:#C5C5C5;stroke-width:0.5;stroke-linecap:round;stroke-linejoin:round;}
	.st13{fill:#C5C5C5;}
	.st14{fill:none;stroke:#B2B1B1;stroke-width:0.5;}
	.st15{fill:none;stroke:#B2B1B1;stroke-width:1.2;}
	.st16{fill:#B2B2B2;}
	.st17{fill:none;stroke:#FFFFFF;stroke-width:0.001;}
	.st18{fill:none;stroke:#B2B1B1;stroke-width:1.712;}
	.st19{fill:none;stroke:#B2B1B1;stroke-width:2;}
	.st20{fill:#AD5E7A;}
	.st21{fill:none;stroke:#B2B1B1;stroke-width:0.941;}
	.st22{fill:none;stroke:#B2B1B1;stroke-width:0.941;stroke-dasharray:1.889,1.889;}
	.st23{fill:none;stroke:#B2B1B1;stroke-width:0.941;stroke-dasharray:1.754,1.754;}
	.st24{fill:none;stroke:#B2B1B1;stroke-width:0.804;}
	.st25{fill:none;stroke:#FFFFFF;stroke-width:0.804;}
	.st26{fill:none;stroke:#B2B1B1;stroke-width:2.5;}
	.st27{fill:none;stroke:#B2B1B1;stroke-width:0.941;stroke-dasharray:1.971,1.971;}
	.st28{fill:none;stroke:#B2B1B1;stroke-width:0.941;stroke-dasharray:2.006,2.006;}
	.st29{fill:none;stroke:#B2B1B1;stroke-width:0.941;stroke-dasharray:1.801,1.801;}
	.st30{fill:none;stroke:#B2B1B1;stroke-width:0.941;stroke-dasharray:2.091,2.091;}
	
		.st31{clip-path:url(#SVGID_00000112616496226503537070000010146142256337485709_);fill:none;stroke:#B2B2B2;stroke-linecap:round;stroke-linejoin:round;stroke-dasharray:0,3.009;}
	
		.st32{clip-path:url(#SVGID_00000112616496226503537070000010146142256337485709_);fill:none;stroke:#B2B2B2;stroke-linecap:round;stroke-linejoin:round;}
	.st33{fill:none;stroke:#4F4D4D;stroke-width:0.5;}
</style>
<polyline class="st0" points="1661.898,975.232 1655.648,966.232 1648.898,975.232 "/>
<circle class="st1" cx="-329.995" cy="12.483" r="12.75"/>
<rect x="-297.535" y="1.469" class="st2" width="119.902" height="21"/>
<polygon class="st3" points="-186.705,6.731 -199.705,6.731 -193.337,17.206 "/>
<g>
	<g>
		<line class="st4" x1="-73.693" y1="18.989" x2="-63.41" y2="18.989"/>
		<g>
			<path class="st5" d="M-72.406,13.764V8.589h1.3v5.122c0,2.016,0.923,2.926,2.561,2.926c1.638,0,2.574-0.91,2.574-2.926V8.589
				h1.261v5.175c0,2.639-1.443,4.029-3.848,4.029C-70.95,17.793-72.406,16.402-72.406,13.764z"/>
		</g>
	</g>
	<polygon class="st6" points="-81.802,0.789 -81.802,26.789 -81.802,27.039 -81.552,27.039 -55.552,27.039 -55.302,27.039 
		-55.302,26.789 -55.302,0.789 -55.302,0.539 -55.552,0.539 -81.552,0.539 -81.802,0.539 	"/>
</g>
<g>
	<g>
		<path class="st5" d="M-103.155,8.862h1.3l-1.82,9.101h-1.3L-103.155,8.862z"/>
	</g>
	<polygon class="st6" points="-116.666,0.413 -116.666,26.413 -116.666,26.663 -116.416,26.663 -90.416,26.663 -90.166,26.663 
		-90.166,26.413 -90.166,0.413 -90.166,0.163 -90.416,0.163 -116.416,0.163 -116.666,0.163 	"/>
</g>
<g>
	<g>
		<path class="st5" d="M-136.304,15.531c0,1.573-1.248,2.483-3.64,2.483h-4.706V8.914h4.446c2.275,0,3.445,0.949,3.445,2.366
			c0,0.91-0.468,1.612-1.209,2.002C-136.954,13.607-136.304,14.388-136.304,15.531z M-142.557,10.5v2.146h2.093
			c1.027,0,1.586-0.364,1.586-1.079s-0.559-1.066-1.586-1.066H-142.557z M-138.423,15.311c0-0.767-0.585-1.131-1.677-1.131h-2.457
			v2.249h2.457C-139.008,16.429-138.423,16.091-138.423,15.311z"/>
	</g>
	<polygon class="st6" points="-153.727,0.464 -153.727,26.464 -153.727,26.714 -153.477,26.714 -127.477,26.714 -127.227,26.714 
		-127.227,26.464 -127.227,0.464 -127.227,0.214 -127.477,0.214 -153.477,0.214 -153.727,0.214 	"/>
</g>
<path class="st7" d="M-99.539,42.418"/>
<path class="st7" d="M-102.047,43.672"/>
<path class="st7" d="M-102.047,44.926"/>
<path class="st7" d="M-102.047,46.18"/>
<path class="st7" d="M-99.539,47.434"/>
<path class="st7" d="M-99.539,48.688"/>
<path class="st7" d="M-102.047,49.942"/>
<path class="st7" d="M-102.047,52.45"/>
<path class="st7" d="M-99.539,54.958"/>
<g>
	<path class="st7" d="M-119.003,47.434"/>
	<path class="st7" d="M-119.003,42.418"/>
	<path class="st7" d="M-119.003,54.958"/>
	<path class="st7" d="M-119.003,48.688"/>
	<g>
		<path class="st7" d="M-116.941,49.942"/>
		<path class="st7" d="M-116.941,46.18"/>
		<path class="st7" d="M-116.941,44.926"/>
		<path class="st7" d="M-116.941,43.672"/>
		<line class="st7" x1="-119.379" y1="54.163" x2="-99.915" y2="54.163"/>
		<line class="st7" x1="-119.379" y1="52.887" x2="-104.485" y2="52.887"/>
		<line class="st7" x1="-119.379" y1="51.611" x2="-104.485" y2="51.611"/>
		<line class="st7" x1="-119.379" y1="50.335" x2="-104.485" y2="50.335"/>
		<line class="st7" x1="-119.379" y1="49.059" x2="-99.915" y2="49.059"/>
		<line class="st7" x1="-119.379" y1="47.783" x2="-99.915" y2="47.783"/>
		<line class="st7" x1="-119.306" y1="46.507" x2="-104.412" y2="46.507"/>
		<line class="st7" x1="-119.379" y1="45.232" x2="-99.915" y2="45.232"/>
		<line class="st7" x1="-119.379" y1="43.956" x2="-104.485" y2="43.956"/>
		<line class="st7" x1="-119.379" y1="42.679" x2="-104.485" y2="42.679"/>
		<line class="st7" x1="-119.379" y1="41.404" x2="-99.915" y2="41.404"/>
	</g>
	<polygon class="st6" points="-122.706,35.109 -122.706,61.102 -122.706,61.352 -122.456,61.352 -96.463,61.352 -96.213,61.352 
		-96.213,61.102 -96.213,35.109 -96.213,34.859 -96.463,34.859 -122.456,34.859 -122.706,34.859 	"/>
</g>
<g>
	<g>
		<line class="st7" x1="-68.659" y1="41.72" x2="-88.123" y2="41.72"/>
		<line class="st7" x1="-71.167" y1="42.997" x2="-86.061" y2="42.997"/>
		<line class="st7" x1="-71.167" y1="44.274" x2="-86.061" y2="44.274"/>
		<line class="st7" x1="-71.167" y1="45.552" x2="-86.061" y2="45.552"/>
		<line class="st7" x1="-68.659" y1="46.828" x2="-88.123" y2="46.828"/>
		<line class="st7" x1="-68.659" y1="48.105" x2="-88.123" y2="48.105"/>
		<line class="st7" x1="-71.167" y1="49.383" x2="-86.061" y2="49.383"/>
		<line class="st7" x1="-68.659" y1="50.659" x2="-88.123" y2="50.659"/>
		<line class="st7" x1="-71.167" y1="51.937" x2="-86.061" y2="51.937"/>
		<line class="st7" x1="-71.167" y1="53.214" x2="-86.061" y2="53.214"/>
		<line class="st7" x1="-68.659" y1="54.49" x2="-88.123" y2="54.49"/>
	</g>
	<polygon class="st6" points="-91.637,35.109 -91.637,61.102 -91.637,61.352 -91.387,61.352 -65.394,61.352 -65.144,61.352 
		-65.144,61.102 -65.144,35.109 -65.144,34.859 -65.394,34.859 -91.387,34.859 -91.637,34.859 	"/>
</g>
<polygon class="st6" points="-60.569,35.109 -60.569,61.102 -60.569,61.352 -60.319,61.352 -34.326,61.352 -34.076,61.352 
	-34.076,61.102 -34.076,35.109 -34.076,34.859 -34.326,34.859 -60.319,34.859 -60.569,34.859 "/>
<path class="st7" d="M-57.242,53.793"/>
<path class="st7" d="M-57.242,48.777"/>
<path class="st7" d="M-57.242,47.523"/>
<path class="st7" d="M-57.242,41.253"/>
<path class="st7" d="M-39.839,46.269"/>
<path class="st7" d="M-37.777,48.777"/>
<path class="st7" d="M-39.839,50.031"/>
<path class="st7" d="M-37.777,53.793"/>
<path class="st7" d="M-37.777,41.253"/>
<path class="st7" d="M-37.777,47.523"/>
<path class="st7" d="M-39.839,51.285"/>
<path class="st7" d="M-39.839,52.539"/>
<g>
	<path class="st7" d="M-54.922,52.217"/>
	<path class="st7" d="M-54.922,50.963"/>
	<path class="st7" d="M-54.922,49.708"/>
	<path class="st7" d="M-54.922,45.947"/>
	<path class="st7" d="M-54.922,43.439"/>
	<line class="st7" x1="-37.59" y1="41.726" x2="-57.054" y2="41.726"/>
	<line class="st7" x1="-37.59" y1="43.001" x2="-52.484" y2="43.001"/>
	<line class="st7" x1="-37.59" y1="44.277" x2="-52.484" y2="44.277"/>
	<line class="st7" x1="-37.59" y1="45.554" x2="-52.484" y2="45.554"/>
	<line class="st7" x1="-37.59" y1="46.83" x2="-57.054" y2="46.83"/>
	<line class="st7" x1="-37.59" y1="48.105" x2="-57.054" y2="48.105"/>
	<line class="st7" x1="-37.663" y1="49.381" x2="-52.557" y2="49.381"/>
	<line class="st7" x1="-37.59" y1="50.657" x2="-57.054" y2="50.657"/>
	<line class="st7" x1="-37.59" y1="51.933" x2="-52.484" y2="51.933"/>
	<line class="st7" x1="-37.59" y1="53.209" x2="-52.484" y2="53.209"/>
	<line class="st7" x1="-37.59" y1="54.485" x2="-57.054" y2="54.485"/>
</g>
<polygon class="st6" points="-153.477,35.116 -153.477,61.109 -153.477,61.359 -153.227,61.359 -127.234,61.359 -126.984,61.359 
	-126.984,61.109 -126.984,35.116 -126.984,34.866 -127.234,34.866 -153.227,34.866 -153.477,34.866 "/>
<path class="st7" d="M-130.31,42.418"/>
<path class="st7" d="M-130.31,47.434"/>
<path class="st7" d="M-130.31,48.688"/>
<path class="st7" d="M-130.31,54.958"/>
<path class="st7" d="M-147.712,49.942"/>
<path class="st7" d="M-149.775,47.434"/>
<path class="st7" d="M-147.712,46.18"/>
<path class="st7" d="M-149.775,42.418"/>
<path class="st7" d="M-149.775,54.958"/>
<path class="st7" d="M-149.775,48.688"/>
<path class="st7" d="M-147.712,44.926"/>
<path class="st7" d="M-147.712,43.672"/>
<g>
	<path class="st7" d="M-132.818,43.672"/>
	<path class="st7" d="M-132.818,44.926"/>
	<path class="st7" d="M-132.818,46.18"/>
	<path class="st7" d="M-132.818,49.942"/>
	<path class="st7" d="M-132.818,52.45"/>
	<line class="st7" x1="-150.15" y1="54.163" x2="-130.686" y2="54.163"/>
	<line class="st7" x1="-150.15" y1="52.887" x2="-130.686" y2="52.887"/>
	<line class="st7" x1="-150.15" y1="51.611" x2="-130.686" y2="51.611"/>
	<line class="st7" x1="-150.15" y1="50.335" x2="-130.686" y2="50.335"/>
	<line class="st7" x1="-150.15" y1="49.059" x2="-130.686" y2="49.059"/>
	<line class="st7" x1="-150.15" y1="47.783" x2="-130.686" y2="47.783"/>
	<line class="st7" x1="-150.077" y1="46.507" x2="-130.613" y2="46.507"/>
	<line class="st7" x1="-150.15" y1="45.232" x2="-130.686" y2="45.232"/>
	<line class="st7" x1="-150.15" y1="43.956" x2="-130.686" y2="43.956"/>
	<line class="st7" x1="-150.15" y1="42.679" x2="-130.686" y2="42.679"/>
	<line class="st7" x1="-150.15" y1="41.404" x2="-130.686" y2="41.404"/>
</g>
<path class="st5" d="M-323.034,150.264l-1.915,13.335c-0.058,0.402-0.431,0.682-0.834,0.624c-0.402-0.058-0.682-0.431-0.624-0.833
	l1.915-13.336c0.058-0.402,0.431-0.681,0.834-0.623C-323.256,149.489-322.976,149.861-323.034,150.264 M-329.851,164.339
	c-0.407,0.003-0.74-0.324-0.742-0.73l-0.106-13.472c-0.003-0.407,0.324-0.739,0.73-0.742c0.408-0.003,0.74,0.324,0.743,0.731
	l0.105,13.471C-329.118,164.004-329.445,164.336-329.851,164.339 M-333.922,164.286c-0.401,0.064-0.779-0.209-0.842-0.61
	l-2.124-13.304c-0.064-0.402,0.209-0.779,0.612-0.843c0.401-0.064,0.778,0.209,0.842,0.611l2.123,13.303
	C-333.247,163.845-333.52,164.222-333.922,164.286 M-320.139,147.878c-0.141-0.169-0.353-0.266-0.573-0.264l-18.538,0.144
	c-0.22,0.002-0.429,0.101-0.568,0.272c-0.14,0.17-0.196,0.393-0.155,0.609l3.092,16.141c0.068,0.351,0.376,0.605,0.734,0.602
	l12.497-0.098c0.356-0.002,0.66-0.258,0.724-0.608l2.949-16.188C-319.937,148.272-319.998,148.047-320.139,147.878"/>
<path class="st8" d="M-323.034,150.264l-1.915,13.335c-0.058,0.402-0.431,0.682-0.834,0.624c-0.402-0.058-0.682-0.431-0.624-0.833
	l1.915-13.336c0.058-0.402,0.431-0.681,0.834-0.623C-323.256,149.489-322.976,149.861-323.034,150.264z M-329.851,164.339
	c-0.407,0.003-0.74-0.324-0.742-0.73l-0.106-13.472c-0.003-0.407,0.324-0.739,0.73-0.742c0.408-0.003,0.74,0.324,0.743,0.731
	l0.105,13.471C-329.118,164.004-329.445,164.336-329.851,164.339z M-333.922,164.286c-0.401,0.064-0.779-0.209-0.842-0.61
	l-2.124-13.304c-0.064-0.402,0.209-0.779,0.612-0.843c0.401-0.064,0.778,0.209,0.842,0.611l2.123,13.303
	C-333.247,163.845-333.52,164.222-333.922,164.286z M-320.139,147.878c-0.141-0.169-0.353-0.266-0.573-0.264l-18.538,0.144
	c-0.22,0.002-0.429,0.101-0.568,0.272c-0.14,0.17-0.196,0.393-0.155,0.609l3.092,16.141c0.068,0.351,0.376,0.605,0.734,0.602
	l12.497-0.098c0.356-0.002,0.66-0.258,0.724-0.608l2.949-16.188C-319.937,148.272-319.998,148.047-320.139,147.878z"/>
<path class="st5" d="M-332.826,143.271L-332.826,143.271l-0.004-0.421l5.49-0.043l0.004,0.421L-332.826,143.271z M-319.089,144.681
	L-319.089,144.681l-2.025,0.016l-0.009-1.171c-0.001-0.091-0.038-0.18-0.103-0.244c-0.065-0.064-0.155-0.1-0.246-0.1l-4.467,0.035
	l-0.009-1.12c-0.002-0.184-0.077-0.363-0.209-0.492c-0.131-0.13-0.311-0.203-0.495-0.201l-6.887,0.054
	c-0.183,0.001-0.363,0.077-0.492,0.208c-0.129,0.131-0.202,0.312-0.2,0.496l0.009,1.12l-4.164,0.032
	c-0.091,0.001-0.18,0.039-0.243,0.104c-0.065,0.065-0.101,0.154-0.101,0.246l0.009,1.171l-2.197,0.017l0.017,2.225l21.829-0.17
	L-319.089,144.681z"/>
<path class="st8" d="M-332.826,143.271L-332.826,143.271l-0.004-0.421l5.49-0.043l0.004,0.421L-332.826,143.271z M-319.089,144.681
	L-319.089,144.681l-2.025,0.016l-0.009-1.171c-0.001-0.091-0.038-0.18-0.103-0.244c-0.065-0.064-0.155-0.1-0.246-0.1l-4.467,0.035
	l-0.009-1.12c-0.002-0.184-0.077-0.363-0.209-0.492c-0.131-0.13-0.311-0.203-0.495-0.201l-6.887,0.054
	c-0.183,0.001-0.363,0.077-0.492,0.208c-0.129,0.131-0.202,0.312-0.2,0.496l0.009,1.12l-4.164,0.032
	c-0.091,0.001-0.18,0.039-0.243,0.104c-0.065,0.065-0.101,0.154-0.101,0.246l0.009,1.171l-2.197,0.017l0.017,2.225l21.829-0.17
	L-319.089,144.681z"/>
<rect x="-340.929" y="141.393" class="st9" width="21.868" height="24"/>
<rect x="0" y="0.625" class="st10" width="34.924" height="19.551"/>
<g>
	<path class="st11" d="M12.977,11.038v4.238h-0.884V14.21c-0.416,0.702-1.222,1.132-2.354,1.132c-1.547,0-2.496-0.807-2.496-1.989
		c0-1.054,0.676-1.938,2.639-1.938h2.171v-0.416c0-1.17-0.663-1.807-1.938-1.807c-0.884,0-1.716,0.312-2.275,0.806L7.426,9.31
		c0.689-0.585,1.703-0.924,2.782-0.924C11.976,8.386,12.977,9.271,12.977,11.038z M12.055,13.223v-1.118H9.909
		c-1.326,0-1.755,0.52-1.755,1.222c0,0.793,0.637,1.287,1.729,1.287C10.923,14.613,11.69,14.119,12.055,13.223z"/>
	<path class="st11" d="M21.077,8.438v6.838h-0.884v-1.248c-0.481,0.832-1.365,1.313-2.458,1.313c-1.742,0-2.886-0.976-2.886-2.938
		V8.438h0.923v3.874c0,1.456,0.754,2.197,2.054,2.197c1.43,0,2.327-0.924,2.327-2.483V8.438H21.077z"/>
	<path class="st11" d="M22.376,14.496l0.416-0.728c0.546,0.429,1.469,0.767,2.431,0.767c1.3,0,1.833-0.441,1.833-1.118
		c0-1.78-4.433-0.377-4.433-3.081c0-1.118,0.962-1.95,2.704-1.95c0.884,0,1.846,0.247,2.418,0.638l-0.403,0.74
		c-0.598-0.416-1.313-0.585-2.015-0.585c-1.235,0-1.781,0.481-1.781,1.132c0,1.846,4.434,0.455,4.434,3.081
		c0,1.183-1.04,1.95-2.821,1.95C24.027,15.342,22.935,14.978,22.376,14.496z"/>
</g>
<polygon class="st6" points="0.25,0.5 0.25,20.5 0.25,20.75 0.5,20.75 69.349,20.75 69.599,20.75 69.599,20.5 69.599,0.5 
	69.599,0.25 69.349,0.25 0.5,0.25 0.25,0.25 "/>
<rect x="0" class="st9" width="69.849" height="21"/>
<rect x="-404.397" y="207.33" class="st11" width="1014" height="21"/>
<path class="st3" d="M222.764,207.33c-2.209,0-4,1.791-4,4v12.382c0,2.209,1.791,4,4,4h77.131c2.209,0,4-1.791,4-4V211.33
	c0-2.209-1.791-4-4-4H222.764z"/>
<rect x="-404.147" y="207.58" class="st12" width="1013.5" height="20.5"/>
<path class="st13" d="M593.459,210.19v1.481c0,0.397,0.187,0.771,0.505,1.009l6.367,4.762c0.258,0.194,0.258,0.583,0,0.776
	l-6.367,4.762c-0.318,0.238-0.505,0.612-0.505,1.01v1.48c0,0.41,0.467,0.644,0.795,0.399l10.111-7.563
	c0.318-0.237,0.318-0.714,0-0.952l-10.11-7.562C593.926,209.546,593.459,209.781,593.459,210.19"/>
<path class="st13" d="M-388.544,225.47v-1.481c0-0.397-0.187-0.771-0.505-1.009l-6.367-4.762c-0.258-0.194-0.258-0.583,0-0.776
	l6.367-4.762c0.318-0.238,0.505-0.612,0.505-1.01v-1.48c0-0.41-0.467-0.644-0.795-0.399l-10.111,7.563
	c-0.318,0.237-0.318,0.714,0,0.952l10.11,7.562C-389.011,226.114-388.544,225.879-388.544,225.47"/>
<rect x="-404.397" y="207.33" class="st9" width="1014" height="21"/>
<rect x="651.375" y="-37.215" class="st11" width="21" height="702.123"/>
<path class="st3" d="M651.375,376.746c0,2.209,1.791,4,4,4h12.382c2.209,0,4-1.791,4-4V298.46c0-2.209-1.791-4-4-4h-12.382
	c-2.209,0-4,1.791-4,4V376.746z"/>
<rect x="651.625" y="-36.966" class="st12" width="20.5" height="701.624"/>
<path class="st13" d="M654.235-23.68h1.481c0.397,0,0.771-0.19,1.009-0.512l4.762-6.453c0.194-0.262,0.583-0.262,0.776,0
	l4.762,6.453c0.238,0.322,0.612,0.512,1.01,0.512h1.48c0.41,0,0.644-0.474,0.399-0.806l-7.563-10.248
	c-0.237-0.322-0.714-0.322-0.952,0l-7.562,10.248C653.591-24.154,653.826-23.68,654.235-23.68"/>
<path class="st13" d="M669.515,650.572h-1.481c-0.397,0-0.771,0.19-1.009,0.512l-4.762,6.453c-0.194,0.262-0.583,0.262-0.776,0
	l-4.762-6.453c-0.238-0.322-0.612-0.512-1.01-0.512h-1.48c-0.41,0-0.644,0.474-0.399,0.806l7.563,10.248
	c0.237,0.322,0.714,0.322,0.952,0l7.562-10.248C670.159,651.046,669.924,650.572,669.515,650.572"/>
<rect x="651.375" y="-37.216" class="st9" width="21" height="702.124"/>
<g>
	<g>
		<line class="st7" x1="-69.599" y1="85.763" x2="-82.616" y2="85.763"/>
		<line class="st7" x1="-69.599" y1="75.588" x2="-82.616" y2="75.588"/>
		<line class="st7" x1="-69.599" y1="80.676" x2="-82.616" y2="80.676"/>
		<g>
			<path class="st5" d="M-86.258,74.118v2.104h-0.487v-1.714h-0.421v-0.391H-86.258z"/>
		</g>
		<g>
			<path class="st5" d="M-85.497,81.085v0.396h-1.59v-0.315l0.812-0.767c0.187-0.178,0.22-0.286,0.22-0.388
				c0-0.165-0.114-0.262-0.337-0.262c-0.18,0-0.333,0.069-0.436,0.21l-0.355-0.228c0.163-0.238,0.457-0.392,0.836-0.392
				c0.469,0,0.781,0.241,0.781,0.623c0,0.204-0.057,0.391-0.352,0.664l-0.484,0.457H-85.497z"/>
		</g>
		<g>
			<path class="st5" d="M-85.515,85.844c0,0.354-0.273,0.68-0.872,0.68c-0.295,0-0.599-0.081-0.803-0.226L-87,85.925
				c0.159,0.121,0.382,0.189,0.601,0.189c0.244,0,0.394-0.099,0.394-0.271c0-0.159-0.117-0.258-0.394-0.258h-0.223v-0.322
				l0.433-0.49h-0.896v-0.391h1.473v0.316l-0.475,0.541C-85.708,85.3-85.515,85.534-85.515,85.844z"/>
		</g>
	</g>
	<polygon class="st6" points="-91.644,67.321 -91.644,93.321 -91.644,93.571 -91.394,93.571 -65.394,93.571 -65.144,93.571 
		-65.144,93.321 -65.144,67.321 -65.144,67.071 -65.394,67.071 -91.394,67.071 -91.644,67.071 	"/>
</g>
<polygon class="st6" points="-153.477,67.321 -153.477,93.321 -153.477,93.571 -153.227,93.571 -127.227,93.571 -126.977,93.571 
	-126.977,93.321 -126.977,67.321 -126.977,67.071 -127.227,67.071 -153.227,67.071 -153.477,67.071 "/>
<g>
	<polygon class="st6" points="-123.135,67.321 -123.135,93.321 -123.135,93.571 -122.885,93.571 -96.885,93.571 -96.635,93.571 
		-96.635,93.321 -96.635,67.321 -96.635,67.071 -96.885,67.071 -122.885,67.071 -123.135,67.071 	"/>
	<path class="st7" d="M-101.603,85.445h-13.016 M-101.603,80.312h-13.016 M-101.603,75.18h-13.016"/>
	<path class="st5" d="M-116.705,80.897c0.161-0.156,0.241-0.349,0.241-0.581c0-0.15-0.037-0.288-0.11-0.414
		c-0.073-0.125-0.172-0.224-0.297-0.297c-0.126-0.073-0.264-0.11-0.415-0.11c-0.15,0-0.288,0.037-0.41,0.11
		c-0.122,0.073-0.221,0.172-0.294,0.297c-0.072,0.126-0.11,0.264-0.11,0.414c0,0.232,0.08,0.425,0.238,0.581
		c0.157,0.156,0.35,0.234,0.576,0.234C-117.059,81.131-116.866,81.053-116.705,80.897"/>
	<path class="st5" d="M-117.282,76.263c0.489,0,0.885-0.396,0.885-0.885c0-0.488-0.396-0.885-0.885-0.885
		c-0.488,0-0.885,0.397-0.885,0.885C-118.167,75.867-117.77,76.263-117.282,76.263"/>
	<path class="st5" d="M-116.705,85.914c0.161-0.156,0.241-0.349,0.241-0.581c0-0.15-0.037-0.288-0.11-0.414
		c-0.073-0.125-0.172-0.224-0.297-0.297c-0.126-0.073-0.264-0.11-0.415-0.11c-0.15,0-0.288,0.037-0.41,0.11
		c-0.122,0.073-0.221,0.172-0.294,0.297c-0.072,0.126-0.11,0.264-0.11,0.414c0,0.232,0.08,0.425,0.238,0.581
		c0.157,0.156,0.35,0.234,0.576,0.234C-117.059,86.148-116.866,86.07-116.705,85.914"/>
</g>
<path class="st7" d="M-131.945,85.453h-13.016 M-131.945,80.32h-13.016 M-131.945,75.188h-13.016"/>
<rect x="-148.509" y="74.419" class="st5" width="1.77" height="1.77"/>
<rect x="-148.509" y="79.435" class="st5" width="1.77" height="1.77"/>
<rect x="-148.509" y="84.453" class="st5" width="1.77" height="1.77"/>
<rect x="190.013" y="-0.469" class="st2" width="245" height="57.75"/>
<text transform="matrix(1 0 0 1 264.7104 25.7266)"><tspan x="0" y="0" class="st5" style="font-family:'Montserrat-Regular'; font-size:13px;">N</tspan><tspan x="10.478" y="0" class="st5" style="font-family:'Montserrat-Regular'; font-size:13px;">e</tspan><tspan x="18.135" y="0" class="st5" style="font-family:'Montserrat-Regular'; font-size:13px;">u</tspan><tspan x="26.753" y="0" class="st5" style="font-family:'Montserrat-Regular'; font-size:13px;">e </tspan><tspan x="38.011" y="0" class="st5" style="font-family:'Montserrat-Regular'; font-size:13px; letter-spacing:-1;">T</tspan><tspan x="44.381" y="0" class="st5" style="font-family:'Montserrat-Regular'; font-size:13px;">e</tspan><tspan x="51.882" y="0" class="st5" style="font-family:'Montserrat-Regular'; font-size:13px;">x</tspan><tspan x="59.097" y="0" class="st5" style="font-family:'Montserrat-Regular'; font-size:13px;">t</tspan><tspan x="64.128" y="0" class="st5" style="font-family:'Montserrat-Regular'; font-size:13px;">b</tspan><tspan x="72.942" y="0" class="st5" style="font-family:'Montserrat-Regular'; font-size:13px;">o</tspan><tspan x="80.742" y="0" class="st5" style="font-family:'Montserrat-Regular'; font-size:13px;">x </tspan></text>
<path class="st14" d="M312.513,47.49c3.707,0,6.713-3.005,6.713-6.712c0-3.708-3.006-6.713-6.713-6.713s-6.712,3.005-6.712,6.713
	C305.801,44.485,308.806,47.49,312.513,47.49z"/>
<rect x="190.013" y="-0.469" class="st9" width="245" height="57.75"/>
<line class="st15" x1="312.513" y1="37.243" x2="312.513" y2="44.312"/>
<line class="st15" x1="308.979" y1="40.809" x2="316.047" y2="40.809"/>
<path class="st14" d="M201.551,87.325c3.707,0,6.713-3.005,6.713-6.712c0-3.708-3.006-6.713-6.713-6.713s-6.712,3.005-6.712,6.713
	C194.839,84.32,197.844,87.325,201.551,87.325z"/>
<line class="st15" x1="201.551" y1="77.079" x2="201.551" y2="84.148"/>
<line class="st15" x1="198.017" y1="80.644" x2="205.085" y2="80.644"/>
<g>
	<path class="st16" d="M-294.341,102.46h-3.138v-1.85h8.544v1.85h-3.138v7.956h-2.269V102.46z"/>
	<path class="st16" d="M-287.72,100.611h2.269v9.806h-2.269V100.611z"/>
	<path class="st16" d="M-274.626,104.169c0,2.185-1.639,3.544-4.258,3.544h-1.975v2.703h-2.269v-9.806h4.244
		C-276.265,100.611-274.626,101.97-274.626,104.169z M-276.923,104.169c0-1.079-0.701-1.709-2.087-1.709h-1.849v3.403h1.849
		C-277.624,105.864-276.923,105.234-276.923,104.169z"/>
	<path class="st16" d="M-264.504,104.169c0,2.185-1.639,3.544-4.258,3.544h-1.975v2.703h-2.269v-9.806h4.244
		C-266.143,100.611-264.504,101.97-264.504,104.169z M-266.801,104.169c0-1.079-0.701-1.709-2.087-1.709h-1.849v3.403h1.849
		C-267.502,105.864-266.801,105.234-266.801,104.169z"/>
</g>
<path class="st16" d="M-330.968,96.14L-330.968,96.14c-1.054,2.474-1.96,4.602-2.889,6.784h5.729
	C-329.072,100.668-329.954,98.56-330.968,96.14 M-327.475,113.73L-327.475,113.73c-0.346-1.15-0.211-1.759,1.044-1.8
	c0.976-0.033,1.343-0.74,1.02-1.64c-0.507-1.414-1.072-2.81-1.681-4.183c-0.109-0.245-0.55-0.478-0.843-0.484
	c-2.129-0.041-4.261-0.046-6.39,0.005c-0.305,0.008-0.741,0.315-0.877,0.599c-0.558,1.155-1.057,2.342-1.512,3.542
	c-0.57,1.504-0.268,2.026,1.348,2.192c0.783,0.081,1.206,0.319,1.022,1.126c-0.056,0.243-0.355,0.61-0.547,0.613
	c-2.524,0.042-5.049,0.028-7.596,0.028c-0.214-0.956-0.321-1.631,0.868-1.885c0.569-0.122,1.219-0.609,1.515-1.117
	c0.755-1.293,1.377-2.67,1.972-4.049c2.401-5.559,4.761-11.135,7.172-16.689c0.173-0.398,0.634-0.67,0.96-1
	c0.319,0.343,0.766,0.632,0.937,1.037c2.56,6.048,5.079,12.114,7.622,18.17c0.326,0.776,0.705,1.534,1.106,2.275
	c0.507,0.939,1.332,1.389,2.379,1.595c0.265,0.052,0.519,0.638,0.586,1.013c0.032,0.175-0.39,0.621-0.611,0.624
	C-321.133,113.743-324.286,113.73-327.475,113.73"/>
<path class="st5" d="M-233.731,106.191c2.682-0.014,4.762-2.036,4.751-4.621c-0.01-2.367-2.203-4.406-4.733-4.399
	c-2.703,0.008-4.848,2.038-4.825,4.568C-238.515,104.203-236.355,106.204-233.731,106.191 M-228.176,106.204L-228.176,106.204
	c0.393-0.231,0.569-0.207,0.91,0.115c1.249,1.181,2.501,2.361,3.751,3.541c0.086,0.08,0.173,0.159,0.252,0.246
	c0.216,0.237,0.217,0.464-0.012,0.692c-0.249,0.248-0.509,0.488-0.767,0.727c-0.302,0.28-0.548,0.287-0.855,0
	c-1.177-1.103-2.348-2.211-3.522-3.318c-0.132-0.124-0.263-0.25-0.396-0.373c-0.368-0.34-0.394-0.487-0.153-0.896
	c-0.368-0.336-0.737-0.673-1.128-1.029c-1.472,1.07-3.153,1.471-5.011,1.06c-1.415-0.313-2.544-1.054-3.377-2.178
	c-1.65-2.23-1.286-5.335,0.823-7.11c2.222-1.87,5.521-1.904,7.68-0.117c2.217,1.835,2.765,5.106,0.696,7.583
	C-228.915,105.5-228.546,105.851-228.176,106.204"/>
<path class="st17" d="M-233.731,106.191c2.682-0.014,4.762-2.036,4.751-4.621c-0.01-2.367-2.203-4.406-4.733-4.399
	c-2.703,0.008-4.848,2.038-4.825,4.568C-238.515,104.203-236.355,106.204-233.731,106.191z M-228.176,106.204L-228.176,106.204
	c0.393-0.231,0.569-0.207,0.91,0.115c1.249,1.181,2.501,2.361,3.751,3.541c0.086,0.08,0.173,0.159,0.252,0.246
	c0.216,0.237,0.217,0.464-0.012,0.692c-0.249,0.248-0.509,0.488-0.767,0.727c-0.302,0.28-0.548,0.287-0.855,0
	c-1.177-1.103-2.348-2.211-3.522-3.318c-0.132-0.124-0.263-0.25-0.396-0.373c-0.368-0.34-0.394-0.487-0.153-0.896
	c-0.368-0.336-0.737-0.673-1.128-1.029c-1.472,1.07-3.153,1.471-5.011,1.06c-1.415-0.313-2.544-1.054-3.377-2.178
	c-1.65-2.23-1.286-5.335,0.823-7.11c2.222-1.87,5.521-1.904,7.68-0.117c2.217,1.835,2.765,5.106,0.696,7.583
	C-228.915,105.5-228.546,105.851-228.176,106.204z"/>
<path class="st5" d="M-170.016,96.611l2.966,2.98v-2.758c0-0.096-0.055-0.229-0.123-0.297l-3.807-3.826
	c-0.068-0.067-0.178-0.067-0.245,0l-3.93,3.949v2.758c0,0.096,0.055,0.119,0.122,0.051l2.844-2.857
	c0.068-0.068,0.122-0.046,0.122,0.05v7.829h0v2.168c0,0.096-0.055,0.118-0.123,0.05l-2.966-2.98v2.758
	c0,0.096,0.055,0.229,0.123,0.297l3.807,3.826c0.068,0.067,0.178,0.067,0.245,0l3.93-3.949v-2.758c0-0.096-0.055-0.119-0.122-0.051
	l-2.844,2.857c-0.068,0.068-0.122,0.046-0.122-0.05v-7.829h0v-2.168C-170.139,96.565-170.084,96.543-170.016,96.611z"/>
<line class="st18" x1="-206.155" y1="109.847" x2="-178.322" y2="109.847"/>
<line class="st18" x1="-206.155" y1="101.551" x2="-178.322" y2="101.551"/>
<line class="st18" x1="-206.155" y1="93.559" x2="-178.322" y2="93.559"/>
<line class="st18" x1="-191.813" y1="128.818" x2="-191.813" y2="149.818"/>
<path class="st5" d="M-184.353,142.661L-184.353,142.661h2.695l-2.603-2.569c-0.138-0.135-0.093-0.245,0.101-0.245h7.006v-1.407
	c0-0.193-0.157-0.35-0.35-0.35h-6.656c-0.194,0-0.239-0.11-0.101-0.246l2.603-2.569h-2.345c-0.193,0-0.462,0.111-0.599,0.246
	l-3.245,3.201c-0.137,0.136-0.137,0.356,0,0.492L-184.353,142.661z"/>
<path class="st5" d="M-200.124,135.45L-200.124,135.45h-2.695l2.603,2.569c0.138,0.135,0.093,0.245-0.101,0.245h-7.006v1.407
	c0,0.193,0.157,0.35,0.35,0.35h6.656c0.194,0,0.239,0.11,0.101,0.246l-2.603,2.569h2.345c0.193,0,0.462-0.111,0.599-0.246
	l3.245-3.201c0.137-0.136,0.137-0.356,0-0.492L-200.124,135.45z"/>
<line class="st19" x1="124.473" y1="9.706" x2="88.45" y2="9.706"/>
<path class="st20" d="M115.97,12.852c2.045,0,3.703-1.658,3.703-3.703s-1.658-3.703-3.703-3.703s-3.703,1.658-3.703,3.703
	S113.925,12.852,115.97,12.852"/>
<g>
	<path class="st5" d="M139.169,9.907c0,3.12-1.82,4.836-4.459,4.836c-0.91,0-1.781-0.195-2.392-0.585l0.624-1.274
		c0.494,0.325,1.092,0.442,1.729,0.442c1.716,0,2.795-1.066,2.795-3.133v-0.014c-0.546,0.638-1.417,0.949-2.431,0.949
		c-1.794,0-3.133-1.092-3.133-2.795c0-1.807,1.469-2.951,3.328-2.951C137.713,5.382,139.169,6.982,139.169,9.907z M137.206,8.243
		c0-0.858-0.676-1.534-1.885-1.534c-1.053,0-1.781,0.598-1.781,1.547s0.715,1.547,1.82,1.547
		C136.452,9.802,137.206,9.139,137.206,8.243z"/>
	<path class="st5" d="M147.034,11.818c0,1.599-1.157,2.925-3.602,2.925c-1.287,0-2.587-0.39-3.419-1.053l0.715-1.313
		c0.663,0.546,1.651,0.897,2.678,0.897c1.209,0,1.924-0.533,1.924-1.392c0-0.871-0.559-1.417-2.444-1.417h-2.197l0.468-4.953h5.343
		v1.417h-3.913l-0.195,2.106h0.871C145.955,9.036,147.034,10.206,147.034,11.818z"/>
	<path class="st5" d="M151.453,7.918c0-1.495,0.871-2.496,2.171-2.496s2.184,0.988,2.184,2.496s-0.884,2.496-2.184,2.496
		S151.453,9.413,151.453,7.918z M154.743,7.918c0-1.014-0.416-1.586-1.118-1.586c-0.676,0-1.118,0.585-1.118,1.586
		s0.442,1.586,1.118,1.586C154.326,9.503,154.743,8.931,154.743,7.918z M159.085,5.512h1.274l-6.214,9.101h-1.274L159.085,5.512z
		 M157.421,12.208c0-1.495,0.871-2.496,2.171-2.496c1.3,0,2.184,1.001,2.184,2.496s-0.884,2.496-2.184,2.496
		C158.291,14.704,157.421,13.703,157.421,12.208z M160.71,12.208c0-1.001-0.429-1.586-1.118-1.586s-1.118,0.572-1.118,1.586
		c0,1.015,0.429,1.586,1.118,1.586S160.71,13.209,160.71,12.208z"/>
</g>
<rect x="102.41" y="63.849" class="st11" width="13.149" height="16.764"/>
<polygon class="st21" points="102.41,80.613 102.41,80.613 115.559,80.613 115.559,63.849 102.41,63.849 "/>
<rect x="94.738" y="63.378" class="st9" width="21.291" height="24"/>
<line class="st22" x1="99.235" y1="71.544" x2="99.235" y2="81.931"/>
<line class="st23" x1="101.867" y1="83.82" x2="111.516" y2="83.82"/>
<path class="st21" d="M112.392,83.82h0.877 M99.235,82.876v0.944h0.877 M99.235,68.711v0.944"/>
<polyline class="st21" points="95.208,71.799 95.208,86.907 109.242,86.907 "/>
<rect x="94.738" y="63.378" class="st9" width="21.291" height="24"/>
<rect x="133.984" y="63.78" class="st11" width="14.674" height="18.705"/>
<polygon class="st24" points="133.984,82.485 133.984,82.485 148.657,82.485 148.657,63.78 133.984,63.78 "/>
<rect x="133.582" y="63.378" class="st9" width="19.884" height="24"/>
<rect x="138.391" y="68.271" class="st5" width="14.674" height="18.705"/>
<polygon class="st25" points="138.39,86.976 138.39,86.976 153.063,86.976 153.063,68.271 138.39,68.271 "/>
<rect x="133.582" y="63.378" class="st9" width="19.884" height="24"/>
<rect x="35.091" y="67.327" class="st10" width="34.924" height="19.551"/>
<text transform="matrix(1 0 0 1 42.0914 81.9781)"><tspan x="0" y="0" class="st11" style="font-family:'Montserrat-Regular'; font-size:13px;">e</tspan><tspan x="7.41" y="0" class="st11" style="font-family:'Montserrat-Regular'; font-size:13px;">i</tspan><tspan x="10.335" y="0" class="st11" style="font-family:'Montserrat-Regular'; font-size:13px;">n</tspan></text>
<polygon class="st6" points="0.083,67.202 0.083,87.202 0.083,87.452 0.333,87.452 69.182,87.452 69.432,87.452 69.432,87.202 
	69.432,67.202 69.432,66.952 69.182,66.952 0.333,66.952 0.083,66.952 "/>
<rect x="-0.167" y="66.702" class="st9" width="70.183" height="21"/>
<line class="st26" x1="141.147" y1="156.841" x2="141.147" y2="181.101"/>
<path class="st5" d="M149.244,172.659L149.244,172.659h2.592l-2.494-2.46c-0.138-0.135-0.093-0.245,0.101-0.245h6.725v-1.339
	c0-0.193-0.157-0.35-0.35-0.35h-6.725l2.743-2.705h-2.242c-0.193,0-0.462,0.11-0.599,0.245l-3.102,3.059
	c-0.137,0.135-0.137,0.355,0,0.491L149.244,172.659z"/>
<line class="st26" x1="114.202" y1="180.934" x2="114.202" y2="156.674"/>
<path class="st5" d="M106.105,165.115L106.105,165.115h-2.592l2.494,2.46c0.138,0.135,0.093,0.245-0.101,0.245h-6.725v1.339
	c0,0.193,0.157,0.35,0.35,0.35h6.725l-2.743,2.705h2.242c0.193,0,0.462-0.11,0.599-0.245l3.102-3.059
	c0.137-0.135,0.137-0.355,0-0.491L106.105,165.115z"/>
<line class="st26" x1="-75.54" y1="164.712" x2="-51.28" y2="164.712"/>
<path class="st5" d="M-59.889,156.655L-59.889,156.655v-2.592l-2.46,2.494c-0.135,0.138-0.245,0.093-0.245-0.101v-6.725h-1.339
	c-0.193,0-0.35,0.157-0.35,0.35v6.725l-2.705-2.743v2.242c0,0.193,0.11,0.462,0.245,0.599l3.059,3.102
	c0.135,0.137,0.355,0.137,0.491,0L-59.889,156.655z"/>
<path class="st5" d="M-66.821,171.807L-66.821,171.807v2.592l2.46-2.494c0.135-0.138,0.245-0.093,0.245,0.101v6.725h1.339
	c0.193,0,0.35-0.157,0.35-0.35v-6.725l2.705,2.743v-2.242c0-0.193-0.11-0.462-0.245-0.599l-3.059-3.102
	c-0.135-0.137-0.355-0.137-0.491,0L-66.821,171.807z"/>
<line class="st26" x1="-19.094" y1="177.523" x2="-19.094" y2="153.263"/>
<path class="st5" d="M-27.152,161.872L-27.152,161.872h-2.592l2.494,2.46c0.138,0.135,0.093,0.245-0.101,0.245h-6.725v1.339
	c0,0.193,0.157,0.35,0.35,0.35h6.725l-2.743,2.705h2.242c0.193,0,0.462-0.11,0.599-0.245l3.102-3.059
	c0.137-0.135,0.137-0.355,0-0.491L-27.152,161.872z"/>
<path class="st5" d="M-12,168.804L-12,168.804h2.592l-2.494-2.46c-0.138-0.135-0.093-0.245,0.101-0.245h6.725v-1.339
	c0-0.193-0.157-0.35-0.35-0.35h-6.725l2.743-2.705h-2.242c-0.193,0-0.462,0.11-0.599,0.245l-3.102,3.059
	c-0.137,0.135-0.137,0.355,0,0.491L-12,168.804z"/>
<line class="st26" x1="13.048" y1="164.996" x2="37.308" y2="164.996"/>
<path class="st5" d="M21.767,172.09L21.767,172.09v2.592l2.46-2.494c0.135-0.138,0.245-0.093,0.245,0.101v6.725h1.339
	c0.193,0,0.35-0.157,0.35-0.35v-6.725l2.705,2.743v-2.242c0-0.193-0.11-0.462-0.245-0.599l-3.059-3.102
	c-0.135-0.137-0.355-0.137-0.491,0L21.767,172.09z"/>
<line class="st26" x1="58.159" y1="176.251" x2="82.419" y2="176.251"/>
<path class="st5" d="M73.977,167.862L73.977,167.862v-2.592l-2.46,2.494c-0.135,0.138-0.245,0.093-0.245-0.101v-6.725h-1.339
	c-0.193,0-0.35,0.157-0.35,0.35v6.725l-2.705-2.743v2.242c0,0.193,0.11,0.462,0.245,0.599l3.059,3.102
	c0.135,0.137,0.355,0.137,0.491,0L73.977,167.862z"/>
<rect x="204.022" y="149.325" class="st11" width="15.769" height="20.056"/>
<line class="st27" x1="206.979" y1="169.381" x2="217.82" y2="169.381"/>
<line class="st28" x1="219.791" y1="166.373" x2="219.791" y2="151.331"/>
<line class="st27" x1="216.835" y1="149.325" x2="205.994" y2="149.325"/>
<line class="st28" x1="204.022" y1="152.333" x2="204.022" y2="167.375"/>
<path class="st21" d="M204.022,168.378v1.003h0.986 M205.008,149.325h-0.986v1.003 M219.791,150.328v-1.003h-0.985 M218.806,169.381
	h0.985v-1.003"/>
<polygon class="st11" points="192.786,179.381 192.786,179.381 208.555,179.381 208.555,159.325 192.786,159.325 "/>
<line class="st27" x1="195.743" y1="179.381" x2="206.584" y2="179.381"/>
<line class="st28" x1="208.555" y1="176.373" x2="208.555" y2="161.331"/>
<line class="st27" x1="205.599" y1="159.325" x2="194.758" y2="159.325"/>
<line class="st28" x1="192.786" y1="162.333" x2="192.786" y2="177.375"/>
<path class="st21" d="M192.786,178.378v1.003h0.986 M193.772,159.325h-0.986v1.003 M208.555,160.328v-1.003h-0.985 M207.57,179.381
	h0.985v-1.003"/>
<polygon class="st11" points="183.312,187.381 183.312,187.381 199.081,187.381 199.081,167.325 183.312,167.325 "/>
<polygon class="st21" points="183.312,187.381 183.312,187.381 199.081,187.381 199.081,167.325 183.312,167.325 "/>
<g>
	<polygon class="st11" points="257.149,173.687 257.149,173.687 272.918,173.687 272.918,153.631 257.149,153.631 	"/>
	<polygon class="st21" points="257.149,173.687 257.149,173.687 272.918,173.687 272.918,153.631 257.149,153.631 	"/>
	<line class="st29" x1="253.385" y1="162.185" x2="253.385" y2="175.689"/>
	<line class="st30" x1="256.522" y1="177.49" x2="268.025" y2="177.49"/>
	<path class="st21" d="M269.07,177.49h1.046 M253.385,176.59v0.9h1.046 M253.385,159.485v0.9"/>
</g>
<g>
	<g>
		<rect x="329.689" y="141.91" class="st11" width="15.769" height="20.056"/>
		<polygon class="st21" points="329.689,161.966 329.689,161.966 345.458,161.966 345.458,141.91 329.689,141.91 		"/>
		<polygon class="st11" points="318.452,171.966 318.452,171.966 334.221,171.966 334.221,151.91 318.452,151.91 		"/>
		<line class="st27" x1="321.409" y1="171.966" x2="332.25" y2="171.966"/>
		<line class="st28" x1="334.221" y1="168.958" x2="334.221" y2="153.916"/>
		<line class="st27" x1="331.265" y1="151.91" x2="320.424" y2="151.91"/>
		<line class="st28" x1="318.452" y1="154.919" x2="318.452" y2="169.961"/>
		<path class="st21" d="M318.452,170.963v1.003h0.986 M319.438,151.91h-0.986v1.003 M334.221,152.913v-1.003h-0.985
			 M333.236,171.966h0.985v-1.003"/>
		<polygon class="st11" points="308.979,179.966 308.979,179.966 324.748,179.966 324.748,159.91 308.979,159.91 		"/>
		<line class="st27" x1="311.936" y1="179.966" x2="322.777" y2="179.966"/>
		<line class="st28" x1="324.748" y1="176.958" x2="324.748" y2="161.916"/>
		<line class="st27" x1="321.791" y1="159.91" x2="310.95" y2="159.91"/>
		<line class="st28" x1="308.979" y1="162.919" x2="308.979" y2="177.961"/>
		<path class="st21" d="M308.979,178.963v1.003h0.986 M309.965,159.91h-0.986v1.003 M324.747,160.913v-1.003h-0.985
			 M323.763,179.966h0.985v-1.003"/>
	</g>
	<line class="st27" x1="385.102" y1="175.451" x2="395.943" y2="175.451"/>
	<line class="st28" x1="397.914" y1="172.443" x2="397.914" y2="157.401"/>
	<line class="st27" x1="394.958" y1="155.395" x2="384.117" y2="155.395"/>
	<line class="st28" x1="382.145" y1="158.404" x2="382.145" y2="173.446"/>
	<path class="st21" d="M382.145,174.449v1.003h0.986 M383.131,155.396h-0.986v1.003 M397.914,156.398v-1.003h-0.985
		 M396.929,175.451h0.985v-1.003"/>
	<polyline class="st21" points="378.381,161.25 378.381,179.255 395.112,179.255 	"/>
</g>
<g>
	<defs>
		<rect id="SVGID_1_" x="-376.893" y="269.288" width="241.682" height="1"/>
	</defs>
	<clipPath id="SVGID_00000058566951772473329030000014924025470768672138_">
		<use xlink:href="#SVGID_1_"  style="overflow:visible;"/>
	</clipPath>
	
		<line style="clip-path:url(#SVGID_00000058566951772473329030000014924025470768672138_);fill:none;stroke:#B2B2B2;stroke-linecap:round;stroke-linejoin:round;stroke-dasharray:0,3.009;" x1="-373.385" y1="269.788" x2="-137.215" y2="269.788"/>
	
		<path style="clip-path:url(#SVGID_00000058566951772473329030000014924025470768672138_);fill:none;stroke:#B2B2B2;stroke-linecap:round;stroke-linejoin:round;" d="
		M-135.711,269.788L-135.711,269.788 M-376.393,269.788L-376.393,269.788"/>
</g>
<circle class="st33" cx="-329.995" cy="48.576" r="12.75"/>
<polygon class="st3" points="-186.602,33.553 -199.602,33.553 -193.234,44.028 "/>
<polygon class="st5" points="-178.579,162.094 -189.054,168.462 -178.579,175.094 "/>
<polygon class="st5" points="-207.626,175.094 -197.151,168.726 -207.626,162.094 "/>
<polygon class="st5" points="-125.073,162.094 -135.548,168.462 -125.073,175.094 "/>
<polygon class="st5" points="-160.25,175.094 -149.775,168.726 -160.25,162.094 "/>
<rect x="0" y="33.564" class="st10" width="34.924" height="19.551"/>
<polygon class="st6" points="0.25,33.439 0.25,53.439 0.25,53.689 0.5,53.689 69.349,53.689 69.599,53.689 69.599,53.439 
	69.599,33.439 69.599,33.189 69.349,33.189 0.5,33.189 0.25,33.189 "/>
<rect x="0" y="32.939" class="st9" width="69.849" height="21"/>
<rect x="35.364" y="99.592" class="st10" width="34.924" height="19.551"/>
<polygon class="st6" points="0.356,99.467 0.356,119.467 0.356,119.717 0.606,119.717 69.455,119.717 69.705,119.717 
	69.705,119.467 69.705,99.467 69.705,99.217 69.455,99.217 0.606,99.217 0.356,99.217 "/>
<rect x="0.106" y="98.967" class="st9" width="70.183" height="21"/>
<line class="st19" x1="123.395" y1="29.493" x2="87.372" y2="29.493"/>
<path class="st20" d="M114.892,32.639c2.045,0,3.703-1.658,3.703-3.703s-1.658-3.703-3.703-3.703s-3.703,1.658-3.703,3.703
	S112.847,32.639,114.892,32.639"/>
<line class="st19" x1="431.719" y1="60.273" x2="395.696" y2="60.273"/>
<path class="st20" d="M423.216,63.419c2.045,0,3.703-1.658,3.703-3.703c0-2.045-1.658-3.703-3.703-3.703
	c-2.045,0-3.703,1.658-3.703,3.703C419.513,61.761,421.171,63.419,423.216,63.419"/>
</svg>
