<?xml version="1.0" encoding="utf-8"?>
<!-- Generator: Adobe Illustrator 26.0.3, SVG Export Plug-In . SVG Version: 6.00 Build 0)  -->
<svg version="1.1" id="Ebene_1" xmlns="http://www.w3.org/2000/svg" xmlns:xlink="http://www.w3.org/1999/xlink" x="0px" y="0px"
	 width="69.849px" height="21px" viewBox="0 0 69.849 21" style="enable-background:new 0 0 69.849 21;" xml:space="preserve">
<style type="text/css">
	.st0{fill:none;stroke:#C5C5C5;stroke-width:3;stroke-linecap:round;stroke-linejoin:round;}
	.st1{fill:#FFAEFF;stroke:#4F4D4D;stroke-width:0.5;}
	.st2{fill:#F8F8F8;}
	.st3{fill:#0E689A;}
	.st4{fill:none;stroke:#B2B1B1;stroke-width:0.65;stroke-miterlimit:10;}
	.st5{fill:#B2B1B1;}
	.st6{fill:none;stroke:#B2B2B2;stroke-width:0.5;stroke-miterlimit:10;}
	.st7{fill:none;stroke:#B2B1B1;stroke-width:0.3;stroke-miterlimit:10;}
	.st8{fill:none;stroke:#FFFFFF;stroke-width:0.021;}
	.st9{fill:none;}
	.st10{fill:#0E6899;}
	.st11{fill:#FFFFFF;}
	.st12{fill:none;stroke:#C5C5C5;stroke-width:0.5;stroke-linecap:round;stroke-linejoin:round;}
	.st13{fill:#C5C5C5;}
	.st14{fill:none;stroke:#B2B1B1;stroke-width:0.5;}
	.st15{fill:none;stroke:#B2B1B1;stroke-width:1.2;}
	.st16{fill:#B2B2B2;}
	.st17{fill:none;stroke:#FFFFFF;stroke-width:0.001;}
	.st18{fill:none;stroke:#B2B1B1;stroke-width:1.712;}
	.st19{fill:none;stroke:#B2B1B1;stroke-width:2;}
	.st20{fill:#AD5E7A;}
	.st21{fill:none;stroke:#B2B1B1;stroke-width:0.941;}
	.st22{fill:none;stroke:#B2B1B1;stroke-width:0.941;stroke-dasharray:1.889,1.889;}
	.st23{fill:none;stroke:#B2B1B1;stroke-width:0.941;stroke-dasharray:1.754,1.754;}
	.st24{fill:none;stroke:#B2B1B1;stroke-width:0.804;}
	.st25{fill:none;stroke:#FFFFFF;stroke-width:0.804;}
	.st26{fill:none;stroke:#B2B1B1;stroke-width:2.5;}
	.st27{fill:none;stroke:#B2B1B1;stroke-width:0.941;stroke-dasharray:1.971,1.971;}
	.st28{fill:none;stroke:#B2B1B1;stroke-width:0.941;stroke-dasharray:2.006,2.006;}
	.st29{fill:none;stroke:#B2B1B1;stroke-width:0.941;stroke-dasharray:1.801,1.801;}
	.st30{fill:none;stroke:#B2B1B1;stroke-width:0.941;stroke-dasharray:2.091,2.091;}
	
		.st31{clip-path:url(#SVGID_00000111879579064426589450000002537790555992964535_);fill:none;stroke:#B2B2B2;stroke-linecap:round;stroke-linejoin:round;stroke-dasharray:0,3.009;}
	
		.st32{clip-path:url(#SVGID_00000111879579064426589450000002537790555992964535_);fill:none;stroke:#B2B2B2;stroke-linecap:round;stroke-linejoin:round;}
	.st33{fill:none;stroke:#4F4D4D;stroke-width:0.5;}
</style>
<polyline class="st0" points="1661.898,942.293 1655.648,933.293 1648.898,942.293 "/>
<circle class="st1" cx="-329.995" cy="-20.455" r="12.75"/>
<rect x="-297.535" y="-31.47" class="st2" width="119.902" height="21"/>
<polygon class="st3" points="-186.705,-26.208 -199.705,-26.208 -193.337,-15.733 "/>
<g>
	<g>
		<line class="st4" x1="-73.693" y1="-13.95" x2="-63.41" y2="-13.95"/>
		<g>
			<path class="st5" d="M-72.406-19.175v-5.175h1.3v5.122c0,2.016,0.923,2.926,2.561,2.926c1.638,0,2.574-0.91,2.574-2.926v-5.122
				h1.261v5.175c0,2.639-1.443,4.029-3.848,4.029C-70.95-15.146-72.406-16.537-72.406-19.175z"/>
		</g>
	</g>
	<polygon class="st6" points="-81.802,-32.15 -81.802,-6.15 -81.802,-5.9 -81.552,-5.9 -55.552,-5.9 -55.302,-5.9 -55.302,-6.15 
		-55.302,-32.15 -55.302,-32.4 -55.552,-32.4 -81.552,-32.4 -81.802,-32.4 	"/>
</g>
<g>
	<g>
		<path class="st5" d="M-103.155-24.077h1.3l-1.82,9.101h-1.3L-103.155-24.077z"/>
	</g>
	<polygon class="st6" points="-116.666,-32.526 -116.666,-6.526 -116.666,-6.276 -116.416,-6.276 -90.416,-6.276 -90.166,-6.276 
		-90.166,-6.526 -90.166,-32.526 -90.166,-32.776 -90.416,-32.776 -116.416,-32.776 -116.666,-32.776 	"/>
</g>
<g>
	<g>
		<path class="st5" d="M-136.304-17.408c0,1.573-1.248,2.483-3.64,2.483h-4.706v-9.101h4.446c2.275,0,3.445,0.949,3.445,2.366
			c0,0.91-0.468,1.612-1.209,2.002C-136.954-19.331-136.304-18.551-136.304-17.408z M-142.557-22.439v2.146h2.093
			c1.027,0,1.586-0.364,1.586-1.079s-0.559-1.066-1.586-1.066H-142.557z M-138.423-17.628c0-0.767-0.585-1.131-1.677-1.131h-2.457
			v2.249h2.457C-139.008-16.51-138.423-16.848-138.423-17.628z"/>
	</g>
	<polygon class="st6" points="-153.727,-32.475 -153.727,-6.475 -153.727,-6.225 -153.477,-6.225 -127.477,-6.225 -127.227,-6.225 
		-127.227,-6.475 -127.227,-32.475 -127.227,-32.725 -127.477,-32.725 -153.477,-32.725 -153.727,-32.725 	"/>
</g>
<path class="st7" d="M-99.539,9.479"/>
<path class="st7" d="M-102.047,10.733"/>
<path class="st7" d="M-102.047,11.987"/>
<path class="st7" d="M-102.047,13.241"/>
<path class="st7" d="M-99.539,14.495"/>
<path class="st7" d="M-99.539,15.749"/>
<path class="st7" d="M-102.047,17.003"/>
<path class="st7" d="M-102.047,19.511"/>
<path class="st7" d="M-99.539,22.019"/>
<g>
	<path class="st7" d="M-119.003,14.495"/>
	<path class="st7" d="M-119.003,9.479"/>
	<path class="st7" d="M-119.003,22.019"/>
	<path class="st7" d="M-119.003,15.749"/>
	<g>
		<path class="st7" d="M-116.941,17.003"/>
		<path class="st7" d="M-116.941,13.241"/>
		<path class="st7" d="M-116.941,11.987"/>
		<path class="st7" d="M-116.941,10.733"/>
		<line class="st7" x1="-119.379" y1="21.224" x2="-99.915" y2="21.224"/>
		<line class="st7" x1="-119.379" y1="19.948" x2="-104.485" y2="19.948"/>
		<line class="st7" x1="-119.379" y1="18.672" x2="-104.485" y2="18.672"/>
		<line class="st7" x1="-119.379" y1="17.396" x2="-104.485" y2="17.396"/>
		<line class="st7" x1="-119.379" y1="16.12" x2="-99.915" y2="16.12"/>
		<line class="st7" x1="-119.379" y1="14.844" x2="-99.915" y2="14.844"/>
		<line class="st7" x1="-119.306" y1="13.568" x2="-104.412" y2="13.568"/>
		<line class="st7" x1="-119.379" y1="12.293" x2="-99.915" y2="12.293"/>
		<line class="st7" x1="-119.379" y1="11.017" x2="-104.485" y2="11.017"/>
		<line class="st7" x1="-119.379" y1="9.74" x2="-104.485" y2="9.74"/>
		<line class="st7" x1="-119.379" y1="8.465" x2="-99.915" y2="8.465"/>
	</g>
	<polygon class="st6" points="-122.706,2.17 -122.706,28.163 -122.706,28.413 -122.456,28.413 -96.463,28.413 -96.213,28.413 
		-96.213,28.163 -96.213,2.17 -96.213,1.92 -96.463,1.92 -122.456,1.92 -122.706,1.92 	"/>
</g>
<g>
	<g>
		<line class="st7" x1="-68.659" y1="8.782" x2="-88.123" y2="8.782"/>
		<line class="st7" x1="-71.167" y1="10.058" x2="-86.061" y2="10.058"/>
		<line class="st7" x1="-71.167" y1="11.335" x2="-86.061" y2="11.335"/>
		<line class="st7" x1="-71.167" y1="12.613" x2="-86.061" y2="12.613"/>
		<line class="st7" x1="-68.659" y1="13.889" x2="-88.123" y2="13.889"/>
		<line class="st7" x1="-68.659" y1="15.166" x2="-88.123" y2="15.166"/>
		<line class="st7" x1="-71.167" y1="16.444" x2="-86.061" y2="16.444"/>
		<line class="st7" x1="-68.659" y1="17.721" x2="-88.123" y2="17.721"/>
		<line class="st7" x1="-71.167" y1="18.998" x2="-86.061" y2="18.998"/>
		<line class="st7" x1="-71.167" y1="20.275" x2="-86.061" y2="20.275"/>
		<line class="st7" x1="-68.659" y1="21.552" x2="-88.123" y2="21.552"/>
	</g>
	<polygon class="st6" points="-91.637,2.17 -91.637,28.163 -91.637,28.413 -91.387,28.413 -65.394,28.413 -65.144,28.413 
		-65.144,28.163 -65.144,2.17 -65.144,1.92 -65.394,1.92 -91.387,1.92 -91.637,1.92 	"/>
</g>
<polygon class="st6" points="-60.569,2.17 -60.569,28.163 -60.569,28.413 -60.319,28.413 -34.326,28.413 -34.076,28.413 
	-34.076,28.163 -34.076,2.17 -34.076,1.92 -34.326,1.92 -60.319,1.92 -60.569,1.92 "/>
<path class="st7" d="M-57.242,20.854"/>
<path class="st7" d="M-57.242,15.838"/>
<path class="st7" d="M-57.242,14.584"/>
<path class="st7" d="M-57.242,8.315"/>
<path class="st7" d="M-39.839,13.33"/>
<path class="st7" d="M-37.777,15.838"/>
<path class="st7" d="M-39.839,17.092"/>
<path class="st7" d="M-37.777,20.854"/>
<path class="st7" d="M-37.777,8.315"/>
<path class="st7" d="M-37.777,14.584"/>
<path class="st7" d="M-39.839,18.346"/>
<path class="st7" d="M-39.839,19.6"/>
<g>
	<path class="st7" d="M-54.922,19.278"/>
	<path class="st7" d="M-54.922,18.024"/>
	<path class="st7" d="M-54.922,16.77"/>
	<path class="st7" d="M-54.922,13.008"/>
	<path class="st7" d="M-54.922,10.5"/>
	<line class="st7" x1="-37.59" y1="8.787" x2="-57.054" y2="8.787"/>
	<line class="st7" x1="-37.59" y1="10.062" x2="-52.484" y2="10.062"/>
	<line class="st7" x1="-37.59" y1="11.338" x2="-52.484" y2="11.338"/>
	<line class="st7" x1="-37.59" y1="12.615" x2="-52.484" y2="12.615"/>
	<line class="st7" x1="-37.59" y1="13.891" x2="-57.054" y2="13.891"/>
	<line class="st7" x1="-37.59" y1="15.167" x2="-57.054" y2="15.167"/>
	<line class="st7" x1="-37.663" y1="16.442" x2="-52.557" y2="16.442"/>
	<line class="st7" x1="-37.59" y1="17.718" x2="-57.054" y2="17.718"/>
	<line class="st7" x1="-37.59" y1="18.994" x2="-52.484" y2="18.994"/>
	<line class="st7" x1="-37.59" y1="20.271" x2="-52.484" y2="20.271"/>
	<line class="st7" x1="-37.59" y1="21.546" x2="-57.054" y2="21.546"/>
</g>
<polygon class="st6" points="-153.477,2.177 -153.477,28.17 -153.477,28.42 -153.227,28.42 -127.234,28.42 -126.984,28.42 
	-126.984,28.17 -126.984,2.177 -126.984,1.927 -127.234,1.927 -153.227,1.927 -153.477,1.927 "/>
<path class="st7" d="M-130.31,9.479"/>
<path class="st7" d="M-130.31,14.495"/>
<path class="st7" d="M-130.31,15.749"/>
<path class="st7" d="M-130.31,22.019"/>
<path class="st7" d="M-147.712,17.003"/>
<path class="st7" d="M-149.775,14.495"/>
<path class="st7" d="M-147.712,13.241"/>
<path class="st7" d="M-149.775,9.479"/>
<path class="st7" d="M-149.775,22.019"/>
<path class="st7" d="M-149.775,15.749"/>
<path class="st7" d="M-147.712,11.987"/>
<path class="st7" d="M-147.712,10.733"/>
<g>
	<path class="st7" d="M-132.818,10.733"/>
	<path class="st7" d="M-132.818,11.987"/>
	<path class="st7" d="M-132.818,13.241"/>
	<path class="st7" d="M-132.818,17.003"/>
	<path class="st7" d="M-132.818,19.511"/>
	<line class="st7" x1="-150.15" y1="21.224" x2="-130.686" y2="21.224"/>
	<line class="st7" x1="-150.15" y1="19.948" x2="-130.686" y2="19.948"/>
	<line class="st7" x1="-150.15" y1="18.672" x2="-130.686" y2="18.672"/>
	<line class="st7" x1="-150.15" y1="17.396" x2="-130.686" y2="17.396"/>
	<line class="st7" x1="-150.15" y1="16.12" x2="-130.686" y2="16.12"/>
	<line class="st7" x1="-150.15" y1="14.844" x2="-130.686" y2="14.844"/>
	<line class="st7" x1="-150.077" y1="13.568" x2="-130.613" y2="13.568"/>
	<line class="st7" x1="-150.15" y1="12.293" x2="-130.686" y2="12.293"/>
	<line class="st7" x1="-150.15" y1="11.017" x2="-130.686" y2="11.017"/>
	<line class="st7" x1="-150.15" y1="9.74" x2="-130.686" y2="9.74"/>
	<line class="st7" x1="-150.15" y1="8.465" x2="-130.686" y2="8.465"/>
</g>
<path class="st5" d="M-323.034,117.325l-1.915,13.335c-0.058,0.402-0.431,0.682-0.834,0.624c-0.402-0.058-0.682-0.431-0.624-0.833
	l1.915-13.336c0.058-0.402,0.431-0.681,0.834-0.623C-323.256,116.55-322.976,116.922-323.034,117.325 M-329.851,131.4
	c-0.407,0.003-0.74-0.324-0.742-0.73l-0.106-13.472c-0.003-0.407,0.324-0.739,0.73-0.742c0.408-0.003,0.74,0.324,0.743,0.731
	l0.105,13.471C-329.118,131.065-329.445,131.397-329.851,131.4 M-333.922,131.347c-0.401,0.064-0.779-0.209-0.842-0.61
	l-2.124-13.304c-0.064-0.402,0.209-0.779,0.612-0.843c0.401-0.064,0.778,0.209,0.842,0.611l2.123,13.303
	C-333.247,130.906-333.52,131.283-333.922,131.347 M-320.139,114.939c-0.141-0.169-0.353-0.266-0.573-0.264l-18.538,0.144
	c-0.22,0.002-0.429,0.101-0.568,0.272c-0.14,0.17-0.196,0.393-0.155,0.609l3.092,16.141c0.068,0.351,0.376,0.605,0.734,0.602
	l12.497-0.098c0.356-0.002,0.66-0.258,0.724-0.608l2.949-16.188C-319.937,115.333-319.998,115.108-320.139,114.939"/>
<path class="st8" d="M-323.034,117.325l-1.915,13.335c-0.058,0.402-0.431,0.682-0.834,0.624c-0.402-0.058-0.682-0.431-0.624-0.833
	l1.915-13.336c0.058-0.402,0.431-0.681,0.834-0.623C-323.256,116.55-322.976,116.922-323.034,117.325z M-329.851,131.4
	c-0.407,0.003-0.74-0.324-0.742-0.73l-0.106-13.472c-0.003-0.407,0.324-0.739,0.73-0.742c0.408-0.003,0.74,0.324,0.743,0.731
	l0.105,13.471C-329.118,131.065-329.445,131.397-329.851,131.4z M-333.922,131.347c-0.401,0.064-0.779-0.209-0.842-0.61
	l-2.124-13.304c-0.064-0.402,0.209-0.779,0.612-0.843c0.401-0.064,0.778,0.209,0.842,0.611l2.123,13.303
	C-333.247,130.906-333.52,131.283-333.922,131.347z M-320.139,114.939c-0.141-0.169-0.353-0.266-0.573-0.264l-18.538,0.144
	c-0.22,0.002-0.429,0.101-0.568,0.272c-0.14,0.17-0.196,0.393-0.155,0.609l3.092,16.141c0.068,0.351,0.376,0.605,0.734,0.602
	l12.497-0.098c0.356-0.002,0.66-0.258,0.724-0.608l2.949-16.188C-319.937,115.333-319.998,115.108-320.139,114.939z"/>
<path class="st5" d="M-332.826,110.332L-332.826,110.332l-0.004-0.421l5.49-0.043l0.004,0.421L-332.826,110.332z M-319.089,111.742
	L-319.089,111.742l-2.025,0.016l-0.009-1.171c-0.001-0.091-0.038-0.18-0.103-0.244c-0.065-0.064-0.155-0.1-0.246-0.1l-4.467,0.035
	l-0.009-1.12c-0.002-0.184-0.077-0.363-0.209-0.492c-0.131-0.13-0.311-0.203-0.495-0.201l-6.887,0.054
	c-0.183,0.001-0.363,0.077-0.492,0.208c-0.129,0.131-0.202,0.312-0.2,0.496l0.009,1.12l-4.164,0.032
	c-0.091,0.001-0.18,0.039-0.243,0.104c-0.065,0.065-0.101,0.154-0.101,0.246l0.009,1.171l-2.197,0.017l0.017,2.225l21.829-0.17
	L-319.089,111.742z"/>
<path class="st8" d="M-332.826,110.332L-332.826,110.332l-0.004-0.421l5.49-0.043l0.004,0.421L-332.826,110.332z M-319.089,111.742
	L-319.089,111.742l-2.025,0.016l-0.009-1.171c-0.001-0.091-0.038-0.18-0.103-0.244c-0.065-0.064-0.155-0.1-0.246-0.1l-4.467,0.035
	l-0.009-1.12c-0.002-0.184-0.077-0.363-0.209-0.492c-0.131-0.13-0.311-0.203-0.495-0.201l-6.887,0.054
	c-0.183,0.001-0.363,0.077-0.492,0.208c-0.129,0.131-0.202,0.312-0.2,0.496l0.009,1.12l-4.164,0.032
	c-0.091,0.001-0.18,0.039-0.243,0.104c-0.065,0.065-0.101,0.154-0.101,0.246l0.009,1.171l-2.197,0.017l0.017,2.225l21.829-0.17
	L-319.089,111.742z"/>
<rect x="-340.929" y="108.454" class="st9" width="21.868" height="24"/>
<rect x="0" y="-32.314" class="st10" width="34.924" height="19.551"/>
<g>
	<path class="st11" d="M12.977-21.901v4.238h-0.884v-1.066c-0.416,0.702-1.222,1.132-2.354,1.132c-1.547,0-2.496-0.807-2.496-1.989
		c0-1.054,0.676-1.938,2.639-1.938h2.171v-0.416c0-1.17-0.663-1.807-1.938-1.807c-0.884,0-1.716,0.312-2.275,0.806l-0.416-0.688
		c0.689-0.585,1.703-0.924,2.782-0.924C11.976-24.553,12.977-23.668,12.977-21.901z M12.055-19.716v-1.118H9.909
		c-1.326,0-1.755,0.52-1.755,1.222c0,0.793,0.637,1.287,1.729,1.287C10.923-18.326,11.69-18.82,12.055-19.716z"/>
	<path class="st11" d="M21.077-24.5v6.838h-0.884v-1.248c-0.481,0.832-1.365,1.313-2.458,1.313c-1.742,0-2.886-0.976-2.886-2.938
		V-24.5h0.923v3.874c0,1.456,0.754,2.197,2.054,2.197c1.43,0,2.327-0.924,2.327-2.483V-24.5H21.077z"/>
	<path class="st11" d="M22.376-18.443l0.416-0.728c0.546,0.429,1.469,0.767,2.431,0.767c1.3,0,1.833-0.441,1.833-1.118
		c0-1.78-4.433-0.377-4.433-3.081c0-1.118,0.962-1.95,2.704-1.95c0.884,0,1.846,0.247,2.418,0.638l-0.403,0.74
		c-0.598-0.416-1.313-0.585-2.015-0.585c-1.235,0-1.781,0.481-1.781,1.132c0,1.846,4.434,0.455,4.434,3.081
		c0,1.183-1.04,1.95-2.821,1.95C24.027-17.597,22.935-17.961,22.376-18.443z"/>
</g>
<polygon class="st6" points="0.25,-32.439 0.25,-12.439 0.25,-12.189 0.5,-12.189 69.349,-12.189 69.599,-12.189 69.599,-12.439 
	69.599,-32.439 69.599,-32.689 69.349,-32.689 0.5,-32.689 0.25,-32.689 "/>
<rect x="0" y="-32.939" class="st9" width="69.849" height="21"/>
<rect x="-404.397" y="174.391" class="st11" width="1014" height="21"/>
<path class="st3" d="M222.764,174.391c-2.209,0-4,1.791-4,4v12.382c0,2.209,1.791,4,4,4h77.131c2.209,0,4-1.791,4-4v-12.382
	c0-2.209-1.791-4-4-4H222.764z"/>
<rect x="-404.147" y="174.641" class="st12" width="1013.5" height="20.5"/>
<path class="st13" d="M593.459,177.251v1.481c0,0.397,0.187,0.771,0.505,1.009l6.367,4.762c0.258,0.194,0.258,0.583,0,0.776
	l-6.367,4.762c-0.318,0.238-0.505,0.612-0.505,1.01v1.48c0,0.41,0.467,0.644,0.795,0.399l10.111-7.563
	c0.318-0.237,0.318-0.714,0-0.952l-10.11-7.562C593.926,176.607,593.459,176.842,593.459,177.251"/>
<path class="st13" d="M-388.544,192.531v-1.481c0-0.397-0.187-0.771-0.505-1.009l-6.367-4.762c-0.258-0.194-0.258-0.583,0-0.776
	l6.367-4.762c0.318-0.238,0.505-0.612,0.505-1.01v-1.48c0-0.41-0.467-0.644-0.795-0.399l-10.111,7.563
	c-0.318,0.237-0.318,0.714,0,0.952l10.11,7.562C-389.011,193.175-388.544,192.94-388.544,192.531"/>
<rect x="-404.397" y="174.391" class="st9" width="1014" height="21"/>
<rect x="651.375" y="-70.154" class="st11" width="21" height="702.123"/>
<path class="st3" d="M651.375,343.807c0,2.209,1.791,4,4,4h12.382c2.209,0,4-1.791,4-4v-78.286c0-2.209-1.791-4-4-4h-12.382
	c-2.209,0-4,1.791-4,4V343.807z"/>
<rect x="651.625" y="-69.905" class="st12" width="20.5" height="701.624"/>
<path class="st13" d="M654.235-56.619h1.481c0.397,0,0.771-0.19,1.009-0.512l4.762-6.453c0.194-0.262,0.583-0.262,0.776,0
	l4.762,6.453c0.238,0.322,0.612,0.512,1.01,0.512h1.48c0.41,0,0.644-0.474,0.399-0.806l-7.563-10.248
	c-0.237-0.322-0.714-0.322-0.952,0l-7.562,10.248C653.591-57.093,653.826-56.619,654.235-56.619"/>
<path class="st13" d="M669.515,617.633h-1.481c-0.397,0-0.771,0.19-1.009,0.512l-4.762,6.453c-0.194,0.262-0.583,0.262-0.776,0
	l-4.762-6.453c-0.238-0.322-0.612-0.512-1.01-0.512h-1.48c-0.41,0-0.644,0.474-0.399,0.806l7.563,10.248
	c0.237,0.322,0.714,0.322,0.952,0l7.562-10.248C670.159,618.107,669.924,617.633,669.515,617.633"/>
<rect x="651.375" y="-70.155" class="st9" width="21" height="702.124"/>
<g>
	<g>
		<line class="st7" x1="-69.599" y1="52.825" x2="-82.616" y2="52.825"/>
		<line class="st7" x1="-69.599" y1="42.649" x2="-82.616" y2="42.649"/>
		<line class="st7" x1="-69.599" y1="47.737" x2="-82.616" y2="47.737"/>
		<g>
			<path class="st5" d="M-86.258,41.179v2.104h-0.487v-1.714h-0.421v-0.391H-86.258z"/>
		</g>
		<g>
			<path class="st5" d="M-85.497,48.146v0.396h-1.59v-0.315l0.812-0.767c0.187-0.178,0.22-0.286,0.22-0.388
				c0-0.165-0.114-0.262-0.337-0.262c-0.18,0-0.333,0.069-0.436,0.21l-0.355-0.228c0.163-0.238,0.457-0.392,0.836-0.392
				c0.469,0,0.781,0.241,0.781,0.623c0,0.204-0.057,0.391-0.352,0.664l-0.484,0.457H-85.497z"/>
		</g>
		<g>
			<path class="st5" d="M-85.515,52.905c0,0.354-0.273,0.68-0.872,0.68c-0.295,0-0.599-0.081-0.803-0.226L-87,52.986
				c0.159,0.121,0.382,0.189,0.601,0.189c0.244,0,0.394-0.099,0.394-0.271c0-0.159-0.117-0.258-0.394-0.258h-0.223v-0.322
				l0.433-0.49h-0.896v-0.391h1.473v0.316l-0.475,0.541C-85.708,52.361-85.515,52.595-85.515,52.905z"/>
		</g>
	</g>
	<polygon class="st6" points="-91.644,34.382 -91.644,60.382 -91.644,60.632 -91.394,60.632 -65.394,60.632 -65.144,60.632 
		-65.144,60.382 -65.144,34.382 -65.144,34.132 -65.394,34.132 -91.394,34.132 -91.644,34.132 	"/>
</g>
<polygon class="st6" points="-153.477,34.382 -153.477,60.382 -153.477,60.632 -153.227,60.632 -127.227,60.632 -126.977,60.632 
	-126.977,60.382 -126.977,34.382 -126.977,34.132 -127.227,34.132 -153.227,34.132 -153.477,34.132 "/>
<g>
	<polygon class="st6" points="-123.135,34.382 -123.135,60.382 -123.135,60.632 -122.885,60.632 -96.885,60.632 -96.635,60.632 
		-96.635,60.382 -96.635,34.382 -96.635,34.132 -96.885,34.132 -122.885,34.132 -123.135,34.132 	"/>
	<path class="st7" d="M-101.603,52.507h-13.016 M-101.603,47.374h-13.016 M-101.603,42.242h-13.016"/>
	<path class="st5" d="M-116.705,47.958c0.161-0.156,0.241-0.349,0.241-0.581c0-0.15-0.037-0.288-0.11-0.414
		c-0.073-0.125-0.172-0.224-0.297-0.297c-0.126-0.073-0.264-0.11-0.415-0.11c-0.15,0-0.288,0.037-0.41,0.11
		c-0.122,0.073-0.221,0.172-0.294,0.297c-0.072,0.126-0.11,0.264-0.11,0.414c0,0.232,0.08,0.425,0.238,0.581
		c0.157,0.156,0.35,0.234,0.576,0.234C-117.059,48.192-116.866,48.114-116.705,47.958"/>
	<path class="st5" d="M-117.282,43.324c0.489,0,0.885-0.396,0.885-0.885c0-0.488-0.396-0.885-0.885-0.885
		c-0.488,0-0.885,0.397-0.885,0.885C-118.167,42.928-117.77,43.324-117.282,43.324"/>
	<path class="st5" d="M-116.705,52.975c0.161-0.156,0.241-0.349,0.241-0.581c0-0.15-0.037-0.288-0.11-0.414
		c-0.073-0.125-0.172-0.224-0.297-0.297c-0.126-0.073-0.264-0.11-0.415-0.11c-0.15,0-0.288,0.037-0.41,0.11
		c-0.122,0.073-0.221,0.172-0.294,0.297c-0.072,0.126-0.11,0.264-0.11,0.414c0,0.232,0.08,0.425,0.238,0.581
		c0.157,0.156,0.35,0.234,0.576,0.234C-117.059,53.209-116.866,53.131-116.705,52.975"/>
</g>
<path class="st7" d="M-131.945,52.514h-13.016 M-131.945,47.381h-13.016 M-131.945,42.249h-13.016"/>
<rect x="-148.509" y="41.48" class="st5" width="1.77" height="1.77"/>
<rect x="-148.509" y="46.496" class="st5" width="1.77" height="1.77"/>
<rect x="-148.509" y="51.514" class="st5" width="1.77" height="1.77"/>
<rect x="190.013" y="-33.408" class="st2" width="245" height="57.75"/>
<text transform="matrix(1 0 0 1 264.7104 -7.2123)"><tspan x="0" y="0" class="st5" style="font-family:'Montserrat-Regular'; font-size:13px;">N</tspan><tspan x="10.478" y="0" class="st5" style="font-family:'Montserrat-Regular'; font-size:13px;">e</tspan><tspan x="18.135" y="0" class="st5" style="font-family:'Montserrat-Regular'; font-size:13px;">u</tspan><tspan x="26.753" y="0" class="st5" style="font-family:'Montserrat-Regular'; font-size:13px;">e </tspan><tspan x="38.011" y="0" class="st5" style="font-family:'Montserrat-Regular'; font-size:13px; letter-spacing:-1;">T</tspan><tspan x="44.381" y="0" class="st5" style="font-family:'Montserrat-Regular'; font-size:13px;">e</tspan><tspan x="51.882" y="0" class="st5" style="font-family:'Montserrat-Regular'; font-size:13px;">x</tspan><tspan x="59.097" y="0" class="st5" style="font-family:'Montserrat-Regular'; font-size:13px;">t</tspan><tspan x="64.128" y="0" class="st5" style="font-family:'Montserrat-Regular'; font-size:13px;">b</tspan><tspan x="72.942" y="0" class="st5" style="font-family:'Montserrat-Regular'; font-size:13px;">o</tspan><tspan x="80.742" y="0" class="st5" style="font-family:'Montserrat-Regular'; font-size:13px;">x </tspan></text>
<path class="st14" d="M312.513,14.551c3.707,0,6.713-3.005,6.713-6.712c0-3.708-3.006-6.713-6.713-6.713s-6.712,3.005-6.712,6.713
	C305.801,11.546,308.806,14.551,312.513,14.551z"/>
<rect x="190.013" y="-33.408" class="st9" width="245" height="57.75"/>
<line class="st15" x1="312.513" y1="4.304" x2="312.513" y2="11.373"/>
<line class="st15" x1="308.979" y1="7.87" x2="316.047" y2="7.87"/>
<path class="st14" d="M201.551,54.386c3.707,0,6.713-3.005,6.713-6.712c0-3.708-3.006-6.713-6.713-6.713s-6.712,3.005-6.712,6.713
	C194.839,51.381,197.844,54.386,201.551,54.386z"/>
<line class="st15" x1="201.551" y1="44.14" x2="201.551" y2="51.209"/>
<line class="st15" x1="198.017" y1="47.705" x2="205.085" y2="47.705"/>
<g>
	<path class="st16" d="M-294.341,69.522h-3.138v-1.85h8.544v1.85h-3.138v7.956h-2.269V69.522z"/>
	<path class="st16" d="M-287.72,67.672h2.269v9.806h-2.269V67.672z"/>
	<path class="st16" d="M-274.626,71.231c0,2.185-1.639,3.544-4.258,3.544h-1.975v2.703h-2.269v-9.806h4.244
		C-276.265,67.672-274.626,69.031-274.626,71.231z M-276.923,71.231c0-1.079-0.701-1.709-2.087-1.709h-1.849v3.403h1.849
		C-277.624,72.925-276.923,72.295-276.923,71.231z"/>
	<path class="st16" d="M-264.504,71.231c0,2.185-1.639,3.544-4.258,3.544h-1.975v2.703h-2.269v-9.806h4.244
		C-266.143,67.672-264.504,69.031-264.504,71.231z M-266.801,71.231c0-1.079-0.701-1.709-2.087-1.709h-1.849v3.403h1.849
		C-267.502,72.925-266.801,72.295-266.801,71.231z"/>
</g>
<path class="st16" d="M-330.968,63.201L-330.968,63.201c-1.054,2.474-1.96,4.602-2.889,6.784h5.729
	C-329.072,67.729-329.954,65.621-330.968,63.201 M-327.475,80.791L-327.475,80.791c-0.346-1.15-0.211-1.759,1.044-1.8
	c0.976-0.033,1.343-0.74,1.02-1.64c-0.507-1.414-1.072-2.81-1.681-4.183c-0.109-0.245-0.55-0.478-0.843-0.484
	c-2.129-0.041-4.261-0.046-6.39,0.005c-0.305,0.008-0.741,0.315-0.877,0.599c-0.558,1.155-1.057,2.342-1.512,3.542
	c-0.57,1.504-0.268,2.026,1.348,2.192c0.783,0.081,1.206,0.319,1.022,1.126c-0.056,0.243-0.355,0.61-0.547,0.613
	c-2.524,0.042-5.049,0.028-7.596,0.028c-0.214-0.956-0.321-1.631,0.868-1.885c0.569-0.122,1.219-0.609,1.515-1.117
	c0.755-1.293,1.377-2.67,1.972-4.049c2.401-5.559,4.761-11.135,7.172-16.689c0.173-0.398,0.634-0.67,0.96-1
	c0.319,0.343,0.766,0.632,0.937,1.037c2.56,6.048,5.079,12.114,7.622,18.17c0.326,0.776,0.705,1.534,1.106,2.275
	c0.507,0.939,1.332,1.389,2.379,1.595c0.265,0.052,0.519,0.638,0.586,1.013c0.032,0.175-0.39,0.621-0.611,0.624
	C-321.133,80.804-324.286,80.791-327.475,80.791"/>
<path class="st5" d="M-233.731,73.253c2.682-0.014,4.762-2.036,4.751-4.621c-0.01-2.367-2.203-4.406-4.733-4.399
	c-2.703,0.008-4.848,2.038-4.825,4.568C-238.515,71.265-236.355,73.266-233.731,73.253 M-228.176,73.266L-228.176,73.266
	c0.393-0.231,0.569-0.207,0.91,0.115c1.249,1.181,2.501,2.361,3.751,3.541c0.086,0.08,0.173,0.159,0.252,0.246
	c0.216,0.237,0.217,0.464-0.012,0.692c-0.249,0.248-0.509,0.488-0.767,0.727c-0.302,0.28-0.548,0.287-0.855,0
	c-1.177-1.103-2.348-2.211-3.522-3.318c-0.132-0.124-0.263-0.25-0.396-0.373c-0.368-0.34-0.394-0.487-0.153-0.896
	c-0.368-0.336-0.737-0.673-1.128-1.029c-1.472,1.07-3.153,1.471-5.011,1.06c-1.415-0.313-2.544-1.054-3.377-2.178
	c-1.65-2.23-1.286-5.335,0.823-7.11c2.222-1.87,5.521-1.904,7.68-0.117c2.217,1.835,2.765,5.106,0.696,7.583
	C-228.915,72.562-228.546,72.913-228.176,73.266"/>
<path class="st17" d="M-233.731,73.253c2.682-0.014,4.762-2.036,4.751-4.621c-0.01-2.367-2.203-4.406-4.733-4.399
	c-2.703,0.008-4.848,2.038-4.825,4.568C-238.515,71.265-236.355,73.266-233.731,73.253z M-228.176,73.266L-228.176,73.266
	c0.393-0.231,0.569-0.207,0.91,0.115c1.249,1.181,2.501,2.361,3.751,3.541c0.086,0.08,0.173,0.159,0.252,0.246
	c0.216,0.237,0.217,0.464-0.012,0.692c-0.249,0.248-0.509,0.488-0.767,0.727c-0.302,0.28-0.548,0.287-0.855,0
	c-1.177-1.103-2.348-2.211-3.522-3.318c-0.132-0.124-0.263-0.25-0.396-0.373c-0.368-0.34-0.394-0.487-0.153-0.896
	c-0.368-0.336-0.737-0.673-1.128-1.029c-1.472,1.07-3.153,1.471-5.011,1.06c-1.415-0.313-2.544-1.054-3.377-2.178
	c-1.65-2.23-1.286-5.335,0.823-7.11c2.222-1.87,5.521-1.904,7.68-0.117c2.217,1.835,2.765,5.106,0.696,7.583
	C-228.915,72.562-228.546,72.913-228.176,73.266z"/>
<path class="st5" d="M-170.016,63.672l2.966,2.98v-2.758c0-0.096-0.055-0.229-0.123-0.297l-3.807-3.826
	c-0.068-0.067-0.178-0.067-0.245,0l-3.93,3.949v2.758c0,0.096,0.055,0.119,0.122,0.051l2.844-2.857
	c0.068-0.068,0.122-0.046,0.122,0.05v7.829h0v2.168c0,0.096-0.055,0.118-0.123,0.05l-2.966-2.98v2.758
	c0,0.096,0.055,0.229,0.123,0.297l3.807,3.826c0.068,0.067,0.178,0.067,0.245,0l3.93-3.949v-2.758c0-0.096-0.055-0.119-0.122-0.051
	l-2.844,2.857c-0.068,0.068-0.122,0.046-0.122-0.05V65.89h0v-2.168C-170.139,63.626-170.084,63.604-170.016,63.672z"/>
<line class="st18" x1="-206.155" y1="76.908" x2="-178.322" y2="76.908"/>
<line class="st18" x1="-206.155" y1="68.612" x2="-178.322" y2="68.612"/>
<line class="st18" x1="-206.155" y1="60.62" x2="-178.322" y2="60.62"/>
<line class="st18" x1="-191.813" y1="95.88" x2="-191.813" y2="116.88"/>
<path class="st5" d="M-184.353,109.723L-184.353,109.723h2.695l-2.603-2.569c-0.138-0.135-0.093-0.245,0.101-0.245h7.006v-1.407
	c0-0.193-0.157-0.35-0.35-0.35h-6.656c-0.194,0-0.239-0.11-0.101-0.246l2.603-2.569h-2.345c-0.193,0-0.462,0.111-0.599,0.246
	l-3.245,3.201c-0.137,0.136-0.137,0.356,0,0.492L-184.353,109.723z"/>
<path class="st5" d="M-200.124,102.511L-200.124,102.511h-2.695l2.603,2.569c0.138,0.135,0.093,0.245-0.101,0.245h-7.006v1.407
	c0,0.193,0.157,0.35,0.35,0.35h6.656c0.194,0,0.239,0.11,0.101,0.246l-2.603,2.569h2.345c0.193,0,0.462-0.111,0.599-0.246
	l3.245-3.201c0.137-0.136,0.137-0.356,0-0.492L-200.124,102.511z"/>
<line class="st19" x1="124.473" y1="-23.233" x2="88.45" y2="-23.233"/>
<path class="st20" d="M115.97-20.087c2.045,0,3.703-1.658,3.703-3.703s-1.658-3.703-3.703-3.703s-3.703,1.658-3.703,3.703
	S113.925-20.087,115.97-20.087"/>
<g>
	<path class="st5" d="M139.169-23.032c0,3.12-1.82,4.836-4.459,4.836c-0.91,0-1.781-0.195-2.392-0.585l0.624-1.274
		c0.494,0.325,1.092,0.442,1.729,0.442c1.716,0,2.795-1.066,2.795-3.133v-0.014c-0.546,0.638-1.417,0.949-2.431,0.949
		c-1.794,0-3.133-1.092-3.133-2.795c0-1.807,1.469-2.951,3.328-2.951C137.713-27.557,139.169-25.957,139.169-23.032z
		 M137.206-24.696c0-0.858-0.676-1.534-1.885-1.534c-1.053,0-1.781,0.598-1.781,1.547s0.715,1.547,1.82,1.547
		C136.452-23.137,137.206-23.8,137.206-24.696z"/>
	<path class="st5" d="M147.034-21.121c0,1.599-1.157,2.925-3.602,2.925c-1.287,0-2.587-0.39-3.419-1.053l0.715-1.313
		c0.663,0.546,1.651,0.897,2.678,0.897c1.209,0,1.924-0.533,1.924-1.392c0-0.871-0.559-1.417-2.444-1.417h-2.197l0.468-4.953h5.343
		v1.417h-3.913l-0.195,2.106h0.871C145.955-23.903,147.034-22.733,147.034-21.121z"/>
	<path class="st5" d="M151.453-25.021c0-1.495,0.871-2.496,2.171-2.496s2.184,0.988,2.184,2.496s-0.884,2.496-2.184,2.496
		S151.453-23.526,151.453-25.021z M154.743-25.021c0-1.014-0.416-1.586-1.118-1.586c-0.676,0-1.118,0.585-1.118,1.586
		s0.442,1.586,1.118,1.586C154.326-23.435,154.743-24.008,154.743-25.021z M159.085-27.427h1.274l-6.214,9.101h-1.274
		L159.085-27.427z M157.421-20.731c0-1.495,0.871-2.496,2.171-2.496c1.3,0,2.184,1.001,2.184,2.496s-0.884,2.496-2.184,2.496
		C158.291-18.235,157.421-19.236,157.421-20.731z M160.71-20.731c0-1.001-0.429-1.586-1.118-1.586s-1.118,0.572-1.118,1.586
		c0,1.015,0.429,1.586,1.118,1.586S160.71-19.73,160.71-20.731z"/>
</g>
<rect x="102.41" y="30.91" class="st11" width="13.149" height="16.764"/>
<polygon class="st21" points="102.41,47.674 102.41,47.674 115.559,47.674 115.559,30.91 102.41,30.91 "/>
<rect x="94.738" y="30.439" class="st9" width="21.291" height="24"/>
<line class="st22" x1="99.235" y1="38.605" x2="99.235" y2="48.992"/>
<line class="st23" x1="101.867" y1="50.881" x2="111.516" y2="50.881"/>
<path class="st21" d="M112.392,50.881h0.877 M99.235,49.937v0.944h0.877 M99.235,35.772v0.944"/>
<polyline class="st21" points="95.208,38.86 95.208,53.968 109.242,53.968 "/>
<rect x="94.738" y="30.439" class="st9" width="21.291" height="24"/>
<rect x="133.984" y="30.841" class="st11" width="14.674" height="18.705"/>
<polygon class="st24" points="133.984,49.546 133.984,49.546 148.657,49.546 148.657,30.841 133.984,30.841 "/>
<rect x="133.582" y="30.439" class="st9" width="19.884" height="24"/>
<rect x="138.391" y="35.332" class="st5" width="14.674" height="18.705"/>
<polygon class="st25" points="138.39,54.037 138.39,54.037 153.063,54.037 153.063,35.332 138.39,35.332 "/>
<rect x="133.582" y="30.439" class="st9" width="19.884" height="24"/>
<rect x="35.091" y="34.388" class="st10" width="34.924" height="19.551"/>
<text transform="matrix(1 0 0 1 42.0914 49.0393)"><tspan x="0" y="0" class="st11" style="font-family:'Montserrat-Regular'; font-size:13px;">e</tspan><tspan x="7.41" y="0" class="st11" style="font-family:'Montserrat-Regular'; font-size:13px;">i</tspan><tspan x="10.335" y="0" class="st11" style="font-family:'Montserrat-Regular'; font-size:13px;">n</tspan></text>
<polygon class="st6" points="0.083,34.263 0.083,54.263 0.083,54.513 0.333,54.513 69.182,54.513 69.432,54.513 69.432,54.263 
	69.432,34.263 69.432,34.013 69.182,34.013 0.333,34.013 0.083,34.013 "/>
<rect x="-0.167" y="33.763" class="st9" width="70.183" height="21"/>
<line class="st26" x1="141.147" y1="123.902" x2="141.147" y2="148.162"/>
<path class="st5" d="M149.244,139.72L149.244,139.72h2.592l-2.494-2.46c-0.138-0.135-0.093-0.245,0.101-0.245h6.725v-1.339
	c0-0.193-0.157-0.35-0.35-0.35h-6.725l2.743-2.705h-2.242c-0.193,0-0.462,0.11-0.599,0.245l-3.102,3.059
	c-0.137,0.135-0.137,0.355,0,0.491L149.244,139.72z"/>
<line class="st26" x1="114.202" y1="147.995" x2="114.202" y2="123.735"/>
<path class="st5" d="M106.105,132.177L106.105,132.177h-2.592l2.494,2.46c0.138,0.135,0.093,0.245-0.101,0.245h-6.725v1.339
	c0,0.193,0.157,0.35,0.35,0.35h6.725l-2.743,2.705h2.242c0.193,0,0.462-0.11,0.599-0.245l3.102-3.059
	c0.137-0.135,0.137-0.355,0-0.491L106.105,132.177z"/>
<line class="st26" x1="-75.54" y1="131.773" x2="-51.28" y2="131.773"/>
<path class="st5" d="M-59.889,123.716L-59.889,123.716v-2.592l-2.46,2.494c-0.135,0.138-0.245,0.093-0.245-0.101v-6.725h-1.339
	c-0.193,0-0.35,0.157-0.35,0.35v6.725l-2.705-2.743v2.242c0,0.193,0.11,0.462,0.245,0.599l3.059,3.102
	c0.135,0.137,0.355,0.137,0.491,0L-59.889,123.716z"/>
<path class="st5" d="M-66.821,138.868L-66.821,138.868v2.592l2.46-2.494c0.135-0.138,0.245-0.093,0.245,0.101v6.725h1.339
	c0.193,0,0.35-0.157,0.35-0.35v-6.725l2.705,2.743v-2.242c0-0.193-0.11-0.462-0.245-0.599l-3.059-3.102
	c-0.135-0.137-0.355-0.137-0.491,0L-66.821,138.868z"/>
<line class="st26" x1="-19.094" y1="144.584" x2="-19.094" y2="120.324"/>
<path class="st5" d="M-27.152,128.933L-27.152,128.933h-2.592l2.494,2.46c0.138,0.135,0.093,0.245-0.101,0.245h-6.725v1.339
	c0,0.193,0.157,0.35,0.35,0.35h6.725l-2.743,2.705h2.242c0.193,0,0.462-0.11,0.599-0.245l3.102-3.059
	c0.137-0.135,0.137-0.355,0-0.491L-27.152,128.933z"/>
<path class="st5" d="M-12,135.865L-12,135.865h2.592l-2.494-2.46c-0.138-0.135-0.093-0.245,0.101-0.245h6.725v-1.339
	c0-0.193-0.157-0.35-0.35-0.35h-6.725l2.743-2.705h-2.242c-0.193,0-0.462,0.11-0.599,0.245l-3.102,3.059
	c-0.137,0.135-0.137,0.355,0,0.491L-12,135.865z"/>
<line class="st26" x1="13.048" y1="132.057" x2="37.308" y2="132.057"/>
<path class="st5" d="M21.767,139.151L21.767,139.151v2.592l2.46-2.494c0.135-0.138,0.245-0.093,0.245,0.101v6.725h1.339
	c0.193,0,0.35-0.157,0.35-0.35V139l2.705,2.743v-2.242c0-0.193-0.11-0.462-0.245-0.599l-3.059-3.102
	c-0.135-0.137-0.355-0.137-0.491,0L21.767,139.151z"/>
<line class="st26" x1="58.159" y1="143.312" x2="82.419" y2="143.312"/>
<path class="st5" d="M73.977,134.923L73.977,134.923v-2.592l-2.46,2.494c-0.135,0.138-0.245,0.093-0.245-0.101v-6.725h-1.339
	c-0.193,0-0.35,0.157-0.35,0.35v6.725l-2.705-2.743v2.242c0,0.193,0.11,0.462,0.245,0.599l3.059,3.102
	c0.135,0.137,0.355,0.137,0.491,0L73.977,134.923z"/>
<rect x="204.022" y="116.386" class="st11" width="15.769" height="20.056"/>
<line class="st27" x1="206.979" y1="136.442" x2="217.82" y2="136.442"/>
<line class="st28" x1="219.791" y1="133.434" x2="219.791" y2="118.392"/>
<line class="st27" x1="216.835" y1="116.386" x2="205.994" y2="116.386"/>
<line class="st28" x1="204.022" y1="119.394" x2="204.022" y2="134.436"/>
<path class="st21" d="M204.022,135.439v1.003h0.986 M205.008,116.386h-0.986v1.003 M219.791,117.389v-1.003h-0.985 M218.806,136.442
	h0.985v-1.003"/>
<polygon class="st11" points="192.786,146.442 192.786,146.442 208.555,146.442 208.555,126.386 192.786,126.386 "/>
<line class="st27" x1="195.743" y1="146.442" x2="206.584" y2="146.442"/>
<line class="st28" x1="208.555" y1="143.434" x2="208.555" y2="128.392"/>
<line class="st27" x1="205.599" y1="126.386" x2="194.758" y2="126.386"/>
<line class="st28" x1="192.786" y1="129.394" x2="192.786" y2="144.436"/>
<path class="st21" d="M192.786,145.439v1.003h0.986 M193.772,126.386h-0.986v1.003 M208.555,127.389v-1.003h-0.985 M207.57,146.442
	h0.985v-1.003"/>
<polygon class="st11" points="183.312,154.442 183.312,154.442 199.081,154.442 199.081,134.386 183.312,134.386 "/>
<polygon class="st21" points="183.312,154.442 183.312,154.442 199.081,154.442 199.081,134.386 183.312,134.386 "/>
<g>
	<polygon class="st11" points="257.149,140.748 257.149,140.748 272.918,140.748 272.918,120.692 257.149,120.692 	"/>
	<polygon class="st21" points="257.149,140.748 257.149,140.748 272.918,140.748 272.918,120.692 257.149,120.692 	"/>
	<line class="st29" x1="253.385" y1="129.246" x2="253.385" y2="142.75"/>
	<line class="st30" x1="256.522" y1="144.551" x2="268.025" y2="144.551"/>
	<path class="st21" d="M269.07,144.551h1.046 M253.385,143.651v0.9h1.046 M253.385,126.546v0.9"/>
</g>
<g>
	<g>
		<rect x="329.689" y="108.971" class="st11" width="15.769" height="20.056"/>
		<polygon class="st21" points="329.689,129.027 329.689,129.027 345.458,129.027 345.458,108.971 329.689,108.971 		"/>
		<polygon class="st11" points="318.452,139.027 318.452,139.027 334.221,139.027 334.221,118.971 318.452,118.971 		"/>
		<line class="st27" x1="321.409" y1="139.027" x2="332.25" y2="139.027"/>
		<line class="st28" x1="334.221" y1="136.019" x2="334.221" y2="120.977"/>
		<line class="st27" x1="331.265" y1="118.971" x2="320.424" y2="118.971"/>
		<line class="st28" x1="318.452" y1="121.98" x2="318.452" y2="137.022"/>
		<path class="st21" d="M318.452,138.024v1.003h0.986 M319.438,118.971h-0.986v1.003 M334.221,119.974v-1.003h-0.985
			 M333.236,139.027h0.985v-1.003"/>
		<polygon class="st11" points="308.979,147.027 308.979,147.027 324.748,147.027 324.748,126.971 308.979,126.971 		"/>
		<line class="st27" x1="311.936" y1="147.027" x2="322.777" y2="147.027"/>
		<line class="st28" x1="324.748" y1="144.019" x2="324.748" y2="128.977"/>
		<line class="st27" x1="321.791" y1="126.971" x2="310.95" y2="126.971"/>
		<line class="st28" x1="308.979" y1="129.98" x2="308.979" y2="145.022"/>
		<path class="st21" d="M308.979,146.024v1.003h0.986 M309.965,126.971h-0.986v1.003 M324.747,127.974v-1.003h-0.985
			 M323.763,147.027h0.985v-1.003"/>
	</g>
	<line class="st27" x1="385.102" y1="142.513" x2="395.943" y2="142.513"/>
	<line class="st28" x1="397.914" y1="139.504" x2="397.914" y2="124.462"/>
	<line class="st27" x1="394.958" y1="122.456" x2="384.117" y2="122.456"/>
	<line class="st28" x1="382.145" y1="125.465" x2="382.145" y2="140.507"/>
	<path class="st21" d="M382.145,141.51v1.003h0.986 M383.131,122.457h-0.986v1.003 M397.914,123.46v-1.003h-0.985 M396.929,142.513
		h0.985v-1.003"/>
	<polyline class="st21" points="378.381,128.311 378.381,146.316 395.112,146.316 	"/>
</g>
<g>
	<defs>
		<rect id="SVGID_1_" x="-376.893" y="236.349" width="241.682" height="1"/>
	</defs>
	<clipPath id="SVGID_00000099625313003443522630000010254524083978885774_">
		<use xlink:href="#SVGID_1_"  style="overflow:visible;"/>
	</clipPath>
	
		<line style="clip-path:url(#SVGID_00000099625313003443522630000010254524083978885774_);fill:none;stroke:#B2B2B2;stroke-linecap:round;stroke-linejoin:round;stroke-dasharray:0,3.009;" x1="-373.385" y1="236.849" x2="-137.215" y2="236.849"/>
	
		<path style="clip-path:url(#SVGID_00000099625313003443522630000010254524083978885774_);fill:none;stroke:#B2B2B2;stroke-linecap:round;stroke-linejoin:round;" d="
		M-135.711,236.849L-135.711,236.849 M-376.393,236.849L-376.393,236.849"/>
</g>
<circle class="st33" cx="-329.995" cy="15.637" r="12.75"/>
<polygon class="st3" points="-186.602,0.614 -199.602,0.614 -193.234,11.089 "/>
<polygon class="st5" points="-178.579,129.156 -189.054,135.524 -178.579,142.156 "/>
<polygon class="st5" points="-207.626,142.156 -197.151,135.788 -207.626,129.156 "/>
<polygon class="st5" points="-125.073,129.156 -135.548,135.524 -125.073,142.156 "/>
<polygon class="st5" points="-160.25,142.156 -149.775,135.788 -160.25,129.156 "/>
<rect x="0" y="0.625" class="st10" width="34.924" height="19.551"/>
<polygon class="st6" points="0.25,0.5 0.25,20.5 0.25,20.75 0.5,20.75 69.349,20.75 69.599,20.75 69.599,20.5 69.599,0.5 
	69.599,0.25 69.349,0.25 0.5,0.25 0.25,0.25 "/>
<rect x="0" class="st9" width="69.849" height="21"/>
<rect x="35.364" y="66.653" class="st10" width="34.924" height="19.551"/>
<polygon class="st6" points="0.356,66.528 0.356,86.528 0.356,86.778 0.606,86.778 69.455,86.778 69.705,86.778 69.705,86.528 
	69.705,66.528 69.705,66.278 69.455,66.278 0.606,66.278 0.356,66.278 "/>
<rect x="0.106" y="66.028" class="st9" width="70.183" height="21"/>
<line class="st19" x1="123.395" y1="-3.446" x2="87.372" y2="-3.446"/>
<path class="st20" d="M114.892-0.299c2.045,0,3.703-1.658,3.703-3.703s-1.658-3.703-3.703-3.703s-3.703,1.658-3.703,3.703
	S112.847-0.299,114.892-0.299"/>
<line class="st19" x1="431.719" y1="27.334" x2="395.696" y2="27.334"/>
<path class="st20" d="M423.216,30.48c2.045,0,3.703-1.658,3.703-3.703s-1.658-3.703-3.703-3.703c-2.045,0-3.703,1.658-3.703,3.703
	S421.171,30.48,423.216,30.48"/>
</svg>
