<?xml version="1.0" encoding="utf-8"?>
<!-- Generator: Adobe Illustrator 26.2.1, SVG Export Plug-In . SVG Version: 6.00 Build 0)  -->
<svg version="1.1" id="Ebene_1" xmlns="http://www.w3.org/2000/svg" xmlns:xlink="http://www.w3.org/1999/xlink" x="0px" y="0px"
	 width="15.524px" height="4.21px" viewBox="0 0 15.524 4.21" enable-background="new 0 0 15.524 4.21" xml:space="preserve">
<path fill="#FFFFFF" d="M14.31,11.019V9.291c0-0.463-0.218-0.9-0.59-1.177L6.292,2.557c-0.302-0.226-0.302-0.679,0-0.905
	l7.428-5.556c0.372-0.278,0.591-0.715,0.591-1.178V-6.81c0-0.478-0.546-0.751-0.929-0.465L1.585,1.549
	c-0.371,0.277-0.371,0.834,0,1.111l11.797,8.824C13.765,11.771,14.31,11.497,14.31,11.019"/>
<g>
	<path fill="#AC5D7A" d="M0,4.144V0.065l10.021,0.68v2.719L0,4.144z M13.528,4.21c-1.118,0-1.951-0.877-1.951-2.105
		C11.577,0.877,12.41,0,13.528,0c1.097,0,1.996,0.877,1.996,2.105C15.524,3.333,14.625,4.21,13.528,4.21z"/>
</g>
</svg>
