<?xml version="1.0" encoding="utf-8"?>
<!-- Generator: Adobe Illustrator 26.2.1, SVG Export Plug-In . SVG Version: 6.00 Build 0)  -->
<svg version="1.1" id="Ebene_1" xmlns="http://www.w3.org/2000/svg" xmlns:xlink="http://www.w3.org/1999/xlink" x="0px" y="0px"
	 width="30.2px" height="21px" viewBox="0 0 30.2 21" enable-background="new 0 0 30.2 21" xml:space="preserve">
<line fill="none" stroke="#B2B1B1" stroke-width="1.712" x1="15.5" y1="0" x2="15.5" y2="21"/>
<path fill="#B2B1B1" d="M23,13.8L23,13.8h2.7l-2.6-2.6C23,11.1,23,11,23.2,11h7V9.6c0-0.2-0.2-0.4-0.4-0.4h-6.6
	C23,9.2,23,9.1,23.1,9l2.6-2.6h-2.3c-0.2,0-0.5,0.1-0.6,0.2l-3.2,3.2c-0.1,0.1-0.1,0.4,0,0.5L23,13.8z"/>
<path fill="#B2B1B1" d="M7.2,6.6L7.2,6.6H4.5l2.6,2.6C7.2,9.3,7.2,9.4,7,9.4H0v1.4c0,0.2,0.2,0.4,0.4,0.4h6.7c0.2,0,0.2,0.1,0.1,0.2
	L4.6,14h2.3c0.2,0,0.5-0.1,0.6-0.2l3.2-3.2c0.1-0.1,0.1-0.4,0-0.5L7.2,6.6z"/>
</svg>
