<?xml version="1.0" encoding="utf-8"?>
<!-- Generator: Adobe Illustrator 26.2.1, SVG Export Plug-In . SVG Version: 6.00 Build 0)  -->
<svg version="1.1" id="Ebene_1" xmlns="http://www.w3.org/2000/svg" xmlns:xlink="http://www.w3.org/1999/xlink" x="0px" y="0px"
	 width="55.88px" height="55.939px" viewBox="0 0 55.88 55.939" enable-background="new 0 0 55.88 55.939" xml:space="preserve">
<path fill="#0F699B" d="M40.871,11.107L40.871,11.107c-0.209-2.24-0.408-4.315-0.595-6.391c-0.066-0.737-0.479-1.009-1.177-0.946
	c-0.852,0.077-1.704,0.15-2.556,0.226C26.087,4.94,15.63,5.886,5.173,6.825C3.83,6.946,3.635,7.177,3.757,8.477
	c0.332,3.54,0.646,7.083,0.967,10.624c0.405,4.462,0.817,8.923,1.209,13.386c0.066,0.762,0.407,1.126,1.184,1.049
	c0.749-0.073,1.498-0.183,2.248-0.192c0.617-0.007,0.824-0.262,0.865-0.85c0.123-1.773,0.287-3.545,0.44-5.316
	c0.431-4.975,0.843-9.951,1.304-14.923c0.208-2.242,1.69-3.525,3.849-3.342c5.759,0.488,11.515,1.019,17.272,1.528
	C35.641,10.666,38.188,10.877,40.871,11.107 M17.943,12.794c-2.238-0.139-2.279-0.126-2.427,1.21
	c-0.132,1.19-0.223,2.384-0.326,3.577c-0.575,6.611-1.137,13.224-1.728,19.834c-0.16,1.793-0.091,1.893,1.728,2.041
	c3.648,0.297,7.295,0.616,10.941,0.934c7.429,0.648,14.857,1.307,22.287,1.947c1.291,0.111,1.435-0.004,1.55-1.28
	c0.723-8.041,1.426-16.083,2.146-24.124c0.081-0.912-0.377-1.202-1.198-1.265c-2.797-0.218-5.591-0.461-8.386-0.707
	C34.182,14.229,25.833,13.49,17.943,12.794 M8.875,47.036L8.875,47.036c-0.736,0.037-1.375,0.082-2.014,0.1
	c-1.968,0.054-3.399-1.219-3.578-3.185C2.196,31.994,1.104,20.037,0.044,8.078C-0.033,7.211-0.03,6.271,0.225,5.455
	c0.399-1.276,1.44-1.984,2.777-2.107C9.882,2.711,16.765,2.1,23.646,1.477c5.008-0.453,10.015-0.912,15.023-1.364
	c0.545-0.05,1.092-0.1,1.638-0.112c1.851-0.039,3.253,1.093,3.471,2.934c0.3,2.547,0.536,5.103,0.725,7.661
	c0.054,0.725,0.332,0.897,0.99,0.943c2.32,0.163,4.636,0.381,6.953,0.583c2.355,0.205,3.598,1.583,3.416,3.957
	c-0.332,4.331-0.735,8.657-1.114,12.985c-0.585,6.679-1.174,13.357-1.763,20.036c-0.111,1.26-0.19,2.525-0.354,3.779
	c-0.264,2.018-1.636,3.194-3.669,3.048c-3.651-0.261-7.296-0.598-10.943-0.915c-6.747-0.587-13.494-1.184-20.241-1.773
	c-1.772-0.155-3.545-0.298-5.317-0.451c-2.695-0.234-3.823-1.55-3.658-4.254C8.831,48.068,8.848,47.6,8.875,47.036"/>
<path fill="#0F699B" d="M35.646,38.691L35.646,38.691c-6.132-0.54-12.265-1.073-18.395-1.628c-1.274-0.115-1.407-0.436-0.663-1.429
	c3.592-4.788,7.186-9.574,10.785-14.357c0.746-0.993,1.041-0.96,1.622,0.181c2.668,5.239,5.335,10.478,7.981,15.728
	c0.199,0.395,0.221,0.878,0.326,1.32c-0.449,0.064-0.898,0.132-1.348,0.189c-0.1,0.012-0.204-0.012-0.307-0.02
	C35.647,38.681,35.646,38.686,35.646,38.691"/>
<path fill="#0F699B" d="M46.754,39.662L46.754,39.662c-1.892-0.157-3.465-0.252-5.026-0.444c-0.37-0.046-0.849-0.339-1.024-0.657
	c-1.002-1.83-1.958-3.686-2.847-5.572c-0.149-0.316-0.034-0.944,0.202-1.22c0.799-0.934,1.714-1.768,2.57-2.654
	c0.553-0.572,0.973-0.502,1.366,0.179c1.758,3.053,3.536,6.096,5.283,9.156c0.149,0.261,0.272,0.736,0.14,0.91
	C47.237,39.598,46.802,39.643,46.754,39.662"/>
<path fill="#0F699B" d="M46.087,21.028c0.018,1.652-1.333,3.025-2.968,3.016c-1.614-0.009-2.933-1.316-2.95-2.924
	c-0.018-1.664,1.31-3.008,2.965-3.003C44.758,18.122,46.069,19.415,46.087,21.028"/>
</svg>
