<?xml version="1.0" encoding="utf-8"?>
<!-- Generator: Adobe Illustrator 26.2.1, SVG Export Plug-In . SVG Version: 6.00 Build 0)  -->
<svg version="1.1" id="Ebene_1" xmlns="http://www.w3.org/2000/svg" xmlns:xlink="http://www.w3.org/1999/xlink" x="0px" y="0px"
	 width="9.9px" height="12.4px" viewBox="0 0 9.9 12.4" enable-background="new 0 0 9.9 12.4" xml:space="preserve">
<path fill="#B2B1B1" d="M1.2,3.5L1.2,3.5V6l2.5-2.5c0.1-0.1,0.2-0.1,0.2,0.1v6.7h1.3c0.2,0,0.3-0.2,0.3-0.3V3.3L8.3,6V3.8
	c0-0.2-0.1-0.5-0.2-0.6L5,0.1C4.8,0,4.6,0,4.5,0.1L1.2,3.5z"/>
<g>
	<polygon fill="#B2B1B1" points="9.9,12.4 0,12.4 0,9.3 0.9,9.3 0.9,11.5 9,11.5 9,9.3 9.9,9.3 	"/>
</g>
</svg>
