<?xml version="1.0" encoding="utf-8"?>
<svg version="1.1" id="Ebene_1" xmlns="http://www.w3.org/2000/svg" xmlns:xlink="http://www.w3.org/1999/xlink" x="0px"
     y="0px" width="26.042px" height="26.07px" viewBox="0 0 26.042 26.07" enable-background="new 0 0 26.042 26.07"
     xml:space="preserve"><path fill="#B1B1B0" d="M19.048,5.176c-0.098-1.044-0.19-2.011-0.278-2.978c-0.031-0.344-0.223-0.471-0.548-0.441c-0.397,0.035-0.794,0.069-1.191,0.105c-4.873,0.44-9.746,0.881-14.62,1.318c-0.625,0.057-0.717,0.164-0.66,0.77C1.906,5.6,2.052,7.251,2.202,8.902c0.189,2.079,0.381,4.158,0.563,6.238c0.031,0.355,0.19,0.524,0.552,0.489c0.349-0.035,0.698-0.086,1.048-0.09c0.287-0.003,0.384-0.122,0.403-0.396c0.057-0.827,0.134-1.652,0.205-2.478c0.201-2.318,0.393-4.637,0.608-6.954c0.096-1.045,0.787-1.643,1.794-1.558c2.684,0.228,5.366,0.475,8.049,0.713C16.61,4.97,17.797,5.069,19.048,5.176 M8.363,5.962C7.32,5.898,7.3,5.904,7.231,6.526C7.17,7.081,7.128,7.637,7.079,8.193c-0.267,3.081-0.529,6.163-0.805,9.243C6.2,18.272,6.232,18.319,7.08,18.388c1.7,0.138,3.399,0.287,5.098,0.435c3.462,0.302,6.924,0.609,10.387,0.907c0.601,0.052,0.669-0.002,0.722-0.597c0.337-3.747,0.665-7.495,1-11.242c0.038-0.425-0.175-0.56-0.558-0.59c-1.303-0.101-2.606-0.214-3.908-0.329C15.93,6.631,12.039,6.287,8.363,5.962 M4.136,21.92c-0.343,0.017-0.641,0.038-0.939,0.046c-0.917,0.026-1.584-0.567-1.667-1.484C1.023,14.91,0.514,9.338,0.02,3.764C-0.015,3.36-0.014,2.922,0.105,2.542C0.291,1.947,0.776,1.617,1.399,1.56c3.206-0.297,6.414-0.582,9.621-0.872c2.334-0.211,4.667-0.425,7.001-0.636C18.275,0.029,18.53,0.006,18.784,0c0.863-0.018,1.517,0.51,1.618,1.368c0.14,1.186,0.25,2.378,0.338,3.57c0.025,0.338,0.155,0.418,0.461,0.439c1.081,0.076,2.161,0.178,3.241,0.272c1.097,0.096,1.677,0.738,1.592,1.844c-0.155,2.019-0.343,4.035-0.52,6.051c-0.272,3.113-0.547,6.225-0.821,9.338c-0.052,0.587-0.089,1.177-0.165,1.761c-0.123,0.94-0.763,1.488-1.71,1.421c-1.702-0.122-3.4-0.279-5.1-0.427c-3.144-0.274-6.288-0.552-9.433-0.826c-0.826-0.073-1.652-0.139-2.478-0.211c-1.256-0.108-1.782-0.722-1.705-1.982C4.116,22.401,4.124,22.183,4.136,21.92"/>
    <path fill="#B1B1B0"
          d="M16.613,18.032c-2.858-0.252-5.716-0.5-8.573-0.759c-0.593-0.053-0.656-0.203-0.308-0.665c1.673-2.232,3.348-4.463,5.025-6.692c0.348-0.462,0.485-0.447,0.756,0.085c1.244,2.441,2.487,4.883,3.72,7.33c0.092,0.184,0.103,0.409,0.152,0.615c-0.21,0.03-0.419,0.061-0.628,0.088c-0.047,0.006-0.096-0.006-0.143-0.009C16.613,18.027,16.613,18.03,16.613,18.032"/>
    <path fill="#B1B1B0"
          d="M21.789,18.484c-0.882-0.073-1.615-0.117-2.342-0.207c-0.173-0.021-0.396-0.158-0.477-0.306c-0.467-0.853-0.913-1.718-1.327-2.597c-0.07-0.147-0.016-0.44,0.094-0.569c0.372-0.435,0.799-0.823,1.198-1.236c0.257-0.267,0.453-0.234,0.636,0.083c0.82,1.423,1.648,2.841,2.462,4.267c0.07,0.122,0.127,0.343,0.065,0.424C22.014,18.454,21.811,18.475,21.789,18.484"/>
    <path fill="#B1B1B0"
          d="M21.479,9.8c0.009,0.77-0.621,1.41-1.383,1.406c-0.752-0.004-1.367-0.614-1.375-1.363c-0.008-0.775,0.61-1.402,1.382-1.4C20.859,8.446,21.471,9.048,21.479,9.8"/></svg>
