<?xml version="1.0" encoding="utf-8"?>
<!-- Generator: Adobe Illustrator 26.2.1, SVG Export Plug-In . SVG Version: 6.00 Build 0)  -->
<svg version="1.1" id="Ebene_1" xmlns="http://www.w3.org/2000/svg" xmlns:xlink="http://www.w3.org/1999/xlink" x="0px" y="0px"
     width="27px" height="27px" viewBox="0 0 27 27" enable-background="new 0 0 27 27" xml:space="preserve">
<polygon fill="none" stroke="#B2B2B2" stroke-width="0.5" stroke-miterlimit="10" points="0.2,0.5 0.2,26.5 0.2,26.7 0.5,26.7
	26.5,26.7 26.7,26.7 26.7,26.5 26.7,0.5 26.7,0.2 26.5,0.2 0.5,0.2 0.2,0.2 "/>
    <path fill="none" stroke="#B2B1B1" stroke-width="0.3" stroke-miterlimit="10" d="M23.4,7.8"/>
    <path fill="none" stroke="#B2B1B1" stroke-width="0.3" stroke-miterlimit="10" d="M23.4,12.8"/>
    <path fill="none" stroke="#B2B1B1" stroke-width="0.3" stroke-miterlimit="10" d="M23.4,14.1"/>
    <path fill="none" stroke="#B2B1B1" stroke-width="0.3" stroke-miterlimit="10" d="M23.4,20.3"/>
    <path fill="none" stroke="#B2B1B1" stroke-width="0.3" stroke-miterlimit="10" d="M4,12.8"/>
    <path fill="none" stroke="#B2B1B1" stroke-width="0.3" stroke-miterlimit="10" d="M4,7.8"/>
    <path fill="none" stroke="#B2B1B1" stroke-width="0.3" stroke-miterlimit="10" d="M4,20.3"/>
    <path fill="none" stroke="#B2B1B1" stroke-width="0.3" stroke-miterlimit="10" d="M4,14.1"/>
    <path fill="none" stroke="#B2B1B1" stroke-width="0.3" stroke-miterlimit="10" d="M20.9,9.1"/>
    <path fill="none" stroke="#B2B1B1" stroke-width="0.3" stroke-miterlimit="10" d="M20.9,10.3"/>
    <path fill="none" stroke="#B2B1B1" stroke-width="0.3" stroke-miterlimit="10" d="M20.9,11.6"/>
    <path fill="none" stroke="#B2B1B1" stroke-width="0.3" stroke-miterlimit="10" d="M20.9,15.3"/>
    <path fill="none" stroke="#B2B1B1" stroke-width="0.3" stroke-miterlimit="10" d="M20.9,17.8"/>
    <g>
	<path fill="none" stroke="#B2B1B1" stroke-miterlimit="10" d="M6.2,16.2"/>
        <line fill="none" stroke="#B2B1B1" stroke-miterlimit="10" x1="3.7" y1="21.1" x2="23.2" y2="21.1"/>
        <line fill="none" stroke="#B2B1B1" stroke-miterlimit="10" x1="3.8" y1="17.9" x2="23.3" y2="17.9"/>
        <line fill="none" stroke="#B2B1B1" stroke-miterlimit="10" x1="3.8" y1="14.9" x2="23.3" y2="14.9"/>
        <line fill="none" stroke="#B2B1B1" stroke-miterlimit="10" x1="3.7" y1="12.1" x2="23.2" y2="12.1"/>
        <line fill="none" stroke="#B2B1B1" stroke-miterlimit="10" x1="3.8" y1="8.9" x2="23.3" y2="8.9"/>
        <line fill="none" stroke="#B2B1B1" stroke-miterlimit="10" x1="3.8" y1="5.9" x2="23.3" y2="5.9"/>
</g>
</svg>
