<?xml version="1.0" encoding="utf-8"?>
<!-- Generator: Adobe Illustrator 26.2.1, SVG Export Plug-In . SVG Version: 6.00 Build 0)  -->
<svg version="1.1" id="Ebene_1" xmlns="http://www.w3.org/2000/svg" xmlns:xlink="http://www.w3.org/1999/xlink" x="0px" y="0px"
	 width="27px" height="27px" viewBox="0 0 27 27" enable-background="new 0 0 27 27" xml:space="preserve">
<g>
	<path fill="#B2B1B1" d="M17.75,15.55c0,1.6-1.2,2.5-3.6,2.5h-4.7v-9.1h4.4c2.3,0,3.4,0.9,3.4,2.4c0,0.9-0.5,1.6-1.2,2
		C17.05,13.65,17.75,14.35,17.75,15.55z M11.45,10.55v2.1h2.1c1,0,1.6-0.4,1.6-1.1s-0.6-1.1-1.6-1.1h-2.1V10.55z M15.55,15.35
		c0-0.8-0.6-1.1-1.7-1.1h-2.5v2.2h2.5C15.05,16.45,15.55,16.05,15.55,15.35z"/>
</g>
<polygon fill="none" stroke="#B2B2B2" stroke-width="0.5" stroke-miterlimit="10" points="0.25,0.45 0.25,26.45 0.25,26.75 
	0.55,26.75 26.55,26.75 26.75,26.75 26.75,26.45 26.75,0.45 26.75,0.25 26.55,0.25 0.55,0.25 0.25,0.25 "/>
</svg>
