<?xml version="1.0" encoding="utf-8"?>
<!-- Generator: Adobe Illustrator 26.2.1, SVG Export Plug-In . SVG Version: 6.00 Build 0)  -->
<svg version="1.1" id="Ebene_1" xmlns="http://www.w3.org/2000/svg" xmlns:xlink="http://www.w3.org/1999/xlink" x="0px" y="0px"
	 width="8.3px" height="9.1px" viewBox="0 0 8.3 9.1" enable-background="new 0 0 8.3 9.1" xml:space="preserve">
<g>
	<path fill="#B2B1B1" d="M8.3,6.6c0,1.6-1.2,2.5-3.6,2.5H0V0h4.4c2.3,0,3.4,0.9,3.4,2.4c0,0.9-0.5,1.6-1.2,2
		C7.6,4.7,8.3,5.4,8.3,6.6z M2,1.6v2.1h2.1c1,0,1.6-0.4,1.6-1.1S5.1,1.5,4.1,1.5H2V1.6z M6.1,6.4c0-0.8-0.6-1.1-1.7-1.1H1.9v2.2h2.5
		C5.6,7.5,6.1,7.1,6.1,6.4z"/>
</g>
</svg>
