<?xml version="1.0" encoding="utf-8"?>
<!-- Generator: Adobe Illustrator 26.0.3, SVG Export Plug-In . SVG Version: 6.00 Build 0)  -->
<svg version="1.1" id="Ebene_1" xmlns="http://www.w3.org/2000/svg" xmlns:xlink="http://www.w3.org/1999/xlink" x="0px" y="0px"
	 width="241.682px" height="1px" viewBox="0 0 241.682 1" style="enable-background:new 0 0 241.682 1;" xml:space="preserve">
<style type="text/css">
	.st0{fill:none;stroke:#C5C5C5;stroke-width:3;stroke-linecap:round;stroke-linejoin:round;}
	.st1{fill:#FFAEFF;stroke:#4F4D4D;stroke-width:0.5;}
	.st2{fill:#F8F8F8;}
	.st3{fill:#0E689A;}
	.st4{fill:none;stroke:#B2B1B1;stroke-width:0.65;stroke-miterlimit:10;}
	.st5{fill:#B2B1B1;}
	.st6{fill:none;stroke:#B2B2B2;stroke-width:0.5;stroke-miterlimit:10;}
	.st7{fill:none;stroke:#B2B1B1;stroke-width:0.3;stroke-miterlimit:10;}
	.st8{fill:none;stroke:#FFFFFF;stroke-width:0.021;}
	.st9{fill:none;}
	.st10{fill:#0E6899;}
	.st11{fill:#FFFFFF;}
	.st12{fill:none;stroke:#C5C5C5;stroke-width:0.5;stroke-linecap:round;stroke-linejoin:round;}
	.st13{fill:#C5C5C5;}
	.st14{fill:none;stroke:#B2B1B1;stroke-width:0.5;}
	.st15{fill:none;stroke:#B2B1B1;stroke-width:1.2;}
	.st16{fill:#B2B2B2;}
	.st17{fill:none;stroke:#FFFFFF;stroke-width:0.001;}
	.st18{fill:none;stroke:#B2B1B1;stroke-width:1.712;}
	.st19{fill:none;stroke:#B2B1B1;stroke-width:2;}
	.st20{fill:#AD5E7A;}
	.st21{fill:none;stroke:#B2B1B1;stroke-width:0.941;}
	.st22{fill:none;stroke:#B2B1B1;stroke-width:0.941;stroke-dasharray:1.889,1.889;}
	.st23{fill:none;stroke:#B2B1B1;stroke-width:0.941;stroke-dasharray:1.754,1.754;}
	.st24{fill:none;stroke:#B2B1B1;stroke-width:0.804;}
	.st25{fill:none;stroke:#FFFFFF;stroke-width:0.804;}
	.st26{fill:none;stroke:#B2B1B1;stroke-width:2.5;}
	.st27{fill:none;stroke:#B2B1B1;stroke-width:0.941;stroke-dasharray:1.971,1.971;}
	.st28{fill:none;stroke:#B2B1B1;stroke-width:0.941;stroke-dasharray:2.006,2.006;}
	.st29{fill:none;stroke:#B2B1B1;stroke-width:0.941;stroke-dasharray:1.801,1.801;}
	.st30{fill:none;stroke:#B2B1B1;stroke-width:0.941;stroke-dasharray:2.091,2.091;}
	
		.st31{clip-path:url(#SVGID_00000043450282410622083680000000329239582939410090_);fill:none;stroke:#B2B2B2;stroke-linecap:round;stroke-linejoin:round;stroke-dasharray:0,3.009;}
	
		.st32{clip-path:url(#SVGID_00000043450282410622083680000000329239582939410090_);fill:none;stroke:#B2B2B2;stroke-linecap:round;stroke-linejoin:round;}
	.st33{fill:none;stroke:#4F4D4D;stroke-width:0.5;}
</style>
<polyline class="st0" points="2038.791,705.944 2032.541,696.944 2025.791,705.944 "/>
<circle class="st1" cx="46.898" cy="-256.804" r="12.75"/>
<rect x="79.359" y="-267.819" class="st2" width="119.902" height="21"/>
<polygon class="st3" points="190.188,-262.556 177.188,-262.556 183.556,-252.081 "/>
<g>
	<g>
		<line class="st4" x1="303.2" y1="-250.299" x2="313.483" y2="-250.299"/>
		<g>
			<path class="st5" d="M304.488-255.524v-5.175h1.3v5.122c0,2.016,0.923,2.926,2.561,2.926c1.638,0,2.574-0.91,2.574-2.926v-5.122
				h1.261v5.175c0,2.639-1.443,4.029-3.848,4.029C305.944-251.495,304.488-252.885,304.488-255.524z"/>
		</g>
	</g>
	<polygon class="st6" points="295.092,-268.499 295.092,-242.499 295.092,-242.249 295.342,-242.249 321.342,-242.249 
		321.592,-242.249 321.592,-242.499 321.592,-268.499 321.592,-268.749 321.342,-268.749 295.342,-268.749 295.092,-268.749 	"/>
</g>
<g>
	<g>
		<path class="st5" d="M273.738-260.425h1.3l-1.82,9.101h-1.3L273.738-260.425z"/>
	</g>
	<polygon class="st6" points="260.228,-268.875 260.228,-242.875 260.228,-242.625 260.478,-242.625 286.478,-242.625 
		286.728,-242.625 286.728,-242.875 286.728,-268.875 286.728,-269.125 286.478,-269.125 260.478,-269.125 260.228,-269.125 	"/>
</g>
<g>
	<g>
		<path class="st5" d="M240.59-253.756c0,1.573-1.248,2.483-3.64,2.483h-4.706v-9.101h4.446c2.275,0,3.445,0.949,3.445,2.366
			c0,0.91-0.468,1.612-1.209,2.002C239.94-255.68,240.59-254.9,240.59-253.756z M234.337-258.788v2.146h2.093
			c1.027,0,1.586-0.364,1.586-1.079s-0.559-1.066-1.586-1.066H234.337z M238.47-253.977c0-0.767-0.585-1.131-1.677-1.131h-2.457
			v2.249h2.457C237.885-252.859,238.47-253.197,238.47-253.977z"/>
	</g>
	<polygon class="st6" points="223.166,-268.823 223.166,-242.823 223.166,-242.573 223.416,-242.573 249.416,-242.573 
		249.666,-242.573 249.666,-242.823 249.666,-268.823 249.666,-269.073 249.416,-269.073 223.416,-269.073 223.166,-269.073 	"/>
</g>
<path class="st7" d="M277.354-226.87"/>
<path class="st7" d="M274.846-225.616"/>
<path class="st7" d="M274.846-224.362"/>
<path class="st7" d="M274.846-223.107"/>
<path class="st7" d="M277.354-221.854"/>
<path class="st7" d="M277.354-220.6"/>
<path class="st7" d="M274.846-219.346"/>
<path class="st7" d="M274.846-216.838"/>
<path class="st7" d="M277.354-214.33"/>
<g>
	<path class="st7" d="M257.89-221.854"/>
	<path class="st7" d="M257.89-226.87"/>
	<path class="st7" d="M257.89-214.33"/>
	<path class="st7" d="M257.89-220.6"/>
	<g>
		<path class="st7" d="M259.952-219.346"/>
		<path class="st7" d="M259.952-223.107"/>
		<path class="st7" d="M259.952-224.362"/>
		<path class="st7" d="M259.952-225.616"/>
		<line class="st7" x1="257.514" y1="-215.125" x2="276.978" y2="-215.125"/>
		<line class="st7" x1="257.514" y1="-216.4" x2="272.408" y2="-216.4"/>
		<line class="st7" x1="257.514" y1="-217.676" x2="272.408" y2="-217.676"/>
		<line class="st7" x1="257.514" y1="-218.953" x2="272.408" y2="-218.953"/>
		<line class="st7" x1="257.514" y1="-220.229" x2="276.978" y2="-220.229"/>
		<line class="st7" x1="257.514" y1="-221.504" x2="276.978" y2="-221.504"/>
		<line class="st7" x1="257.588" y1="-222.78" x2="272.482" y2="-222.78"/>
		<line class="st7" x1="257.514" y1="-224.056" x2="276.978" y2="-224.056"/>
		<line class="st7" x1="257.514" y1="-225.332" x2="272.408" y2="-225.332"/>
		<line class="st7" x1="257.514" y1="-226.608" x2="272.408" y2="-226.608"/>
		<line class="st7" x1="257.514" y1="-227.884" x2="276.978" y2="-227.884"/>
	</g>
	<polygon class="st6" points="254.187,-234.179 254.187,-208.186 254.187,-207.936 254.437,-207.936 280.43,-207.936 
		280.68,-207.936 280.68,-208.186 280.68,-234.179 280.68,-234.429 280.43,-234.429 254.437,-234.429 254.187,-234.429 	"/>
</g>
<g>
	<g>
		<line class="st7" x1="308.235" y1="-227.567" x2="288.771" y2="-227.567"/>
		<line class="st7" x1="305.727" y1="-226.29" x2="290.833" y2="-226.29"/>
		<line class="st7" x1="305.727" y1="-225.014" x2="290.833" y2="-225.014"/>
		<line class="st7" x1="305.727" y1="-223.736" x2="290.833" y2="-223.736"/>
		<line class="st7" x1="308.235" y1="-222.459" x2="288.771" y2="-222.459"/>
		<line class="st7" x1="308.235" y1="-221.182" x2="288.771" y2="-221.182"/>
		<line class="st7" x1="305.727" y1="-219.905" x2="290.833" y2="-219.905"/>
		<line class="st7" x1="308.235" y1="-218.628" x2="288.771" y2="-218.628"/>
		<line class="st7" x1="305.727" y1="-217.351" x2="290.833" y2="-217.351"/>
		<line class="st7" x1="305.727" y1="-216.074" x2="290.833" y2="-216.074"/>
		<line class="st7" x1="308.235" y1="-214.797" x2="288.771" y2="-214.797"/>
	</g>
	<polygon class="st6" points="285.256,-234.179 285.256,-208.186 285.256,-207.936 285.506,-207.936 311.499,-207.936 
		311.749,-207.936 311.749,-208.186 311.749,-234.179 311.749,-234.429 311.499,-234.429 285.506,-234.429 285.256,-234.429 	"/>
</g>
<polygon class="st6" points="316.325,-234.179 316.325,-208.186 316.325,-207.936 316.575,-207.936 342.568,-207.936 
	342.818,-207.936 342.818,-208.186 342.818,-234.179 342.818,-234.429 342.568,-234.429 316.575,-234.429 316.325,-234.429 "/>
<path class="st7" d="M319.652-215.495"/>
<path class="st7" d="M319.652-220.511"/>
<path class="st7" d="M319.652-221.765"/>
<path class="st7" d="M319.652-228.034"/>
<path class="st7" d="M337.054-223.019"/>
<path class="st7" d="M339.116-220.511"/>
<path class="st7" d="M337.054-219.257"/>
<path class="st7" d="M339.116-215.495"/>
<path class="st7" d="M339.116-228.034"/>
<path class="st7" d="M339.116-221.765"/>
<path class="st7" d="M337.054-218.002"/>
<path class="st7" d="M337.054-216.749"/>
<g>
	<path class="st7" d="M321.971-217.071"/>
	<path class="st7" d="M321.971-218.325"/>
	<path class="st7" d="M321.971-219.579"/>
	<path class="st7" d="M321.971-223.341"/>
	<path class="st7" d="M321.971-225.849"/>
	<line class="st7" x1="339.303" y1="-227.562" x2="319.839" y2="-227.562"/>
	<line class="st7" x1="339.303" y1="-226.286" x2="324.409" y2="-226.286"/>
	<line class="st7" x1="339.303" y1="-225.01" x2="324.409" y2="-225.01"/>
	<line class="st7" x1="339.303" y1="-223.734" x2="324.409" y2="-223.734"/>
	<line class="st7" x1="339.303" y1="-222.458" x2="319.839" y2="-222.458"/>
	<line class="st7" x1="339.303" y1="-221.182" x2="319.839" y2="-221.182"/>
	<line class="st7" x1="339.23" y1="-219.906" x2="324.336" y2="-219.906"/>
	<line class="st7" x1="339.303" y1="-218.63" x2="319.839" y2="-218.63"/>
	<line class="st7" x1="339.303" y1="-217.355" x2="324.409" y2="-217.355"/>
	<line class="st7" x1="339.303" y1="-216.078" x2="324.409" y2="-216.078"/>
	<line class="st7" x1="339.303" y1="-214.803" x2="319.839" y2="-214.803"/>
</g>
<polygon class="st6" points="223.416,-234.172 223.416,-208.179 223.416,-207.929 223.666,-207.929 249.659,-207.929 
	249.909,-207.929 249.909,-208.179 249.909,-234.172 249.909,-234.422 249.659,-234.422 223.666,-234.422 223.416,-234.422 "/>
<path class="st7" d="M246.583-226.87"/>
<path class="st7" d="M246.583-221.854"/>
<path class="st7" d="M246.583-220.6"/>
<path class="st7" d="M246.583-214.33"/>
<path class="st7" d="M229.181-219.346"/>
<path class="st7" d="M227.119-221.854"/>
<path class="st7" d="M229.181-223.107"/>
<path class="st7" d="M227.119-226.87"/>
<path class="st7" d="M227.119-214.33"/>
<path class="st7" d="M227.119-220.6"/>
<path class="st7" d="M229.181-224.362"/>
<path class="st7" d="M229.181-225.616"/>
<g>
	<path class="st7" d="M244.075-225.616"/>
	<path class="st7" d="M244.075-224.362"/>
	<path class="st7" d="M244.075-223.107"/>
	<path class="st7" d="M244.075-219.346"/>
	<path class="st7" d="M244.075-216.838"/>
	<line class="st7" x1="226.743" y1="-215.125" x2="246.207" y2="-215.125"/>
	<line class="st7" x1="226.743" y1="-216.4" x2="246.207" y2="-216.4"/>
	<line class="st7" x1="226.743" y1="-217.676" x2="246.207" y2="-217.676"/>
	<line class="st7" x1="226.743" y1="-218.953" x2="246.207" y2="-218.953"/>
	<line class="st7" x1="226.743" y1="-220.229" x2="246.207" y2="-220.229"/>
	<line class="st7" x1="226.743" y1="-221.504" x2="246.207" y2="-221.504"/>
	<line class="st7" x1="226.816" y1="-222.78" x2="246.28" y2="-222.78"/>
	<line class="st7" x1="226.743" y1="-224.056" x2="246.207" y2="-224.056"/>
	<line class="st7" x1="226.743" y1="-225.332" x2="246.207" y2="-225.332"/>
	<line class="st7" x1="226.743" y1="-226.608" x2="246.207" y2="-226.608"/>
	<line class="st7" x1="226.743" y1="-227.884" x2="246.207" y2="-227.884"/>
</g>
<path class="st5" d="M53.86-119.024l-1.915,13.335c-0.058,0.402-0.431,0.682-0.834,0.624c-0.402-0.058-0.682-0.431-0.624-0.833
	l1.915-13.336c0.058-0.402,0.431-0.681,0.834-0.623C53.638-119.799,53.918-119.427,53.86-119.024 M47.043-104.949
	c-0.407,0.003-0.74-0.324-0.742-0.73l-0.106-13.472c-0.003-0.407,0.324-0.739,0.73-0.742c0.408-0.003,0.74,0.324,0.743,0.731
	l0.105,13.471C47.776-105.284,47.449-104.952,47.043-104.949 M42.972-105.002c-0.401,0.064-0.779-0.209-0.842-0.61l-2.124-13.304
	c-0.064-0.402,0.209-0.779,0.612-0.843c0.401-0.064,0.778,0.209,0.842,0.611l2.123,13.303
	C43.647-105.443,43.374-105.066,42.972-105.002 M56.755-121.41c-0.141-0.169-0.353-0.266-0.573-0.264l-18.538,0.144
	c-0.22,0.002-0.429,0.101-0.568,0.272c-0.14,0.17-0.196,0.393-0.155,0.609l3.092,16.141c0.068,0.351,0.376,0.605,0.734,0.602
	l12.497-0.098c0.356-0.002,0.66-0.258,0.724-0.608l2.949-16.188C56.957-121.016,56.896-121.241,56.755-121.41"/>
<path class="st8" d="M53.86-119.024l-1.915,13.335c-0.058,0.402-0.431,0.682-0.834,0.624c-0.402-0.058-0.682-0.431-0.624-0.833
	l1.915-13.336c0.058-0.402,0.431-0.681,0.834-0.623C53.638-119.799,53.918-119.427,53.86-119.024z M47.043-104.949
	c-0.407,0.003-0.74-0.324-0.742-0.73l-0.106-13.472c-0.003-0.407,0.324-0.739,0.73-0.742c0.408-0.003,0.74,0.324,0.743,0.731
	l0.105,13.471C47.776-105.284,47.449-104.952,47.043-104.949z M42.972-105.002c-0.401,0.064-0.779-0.209-0.842-0.61l-2.124-13.304
	c-0.064-0.402,0.209-0.779,0.612-0.843c0.401-0.064,0.778,0.209,0.842,0.611l2.123,13.303
	C43.647-105.443,43.374-105.066,42.972-105.002z M56.755-121.41c-0.141-0.169-0.353-0.266-0.573-0.264l-18.538,0.144
	c-0.22,0.002-0.429,0.101-0.568,0.272c-0.14,0.17-0.196,0.393-0.155,0.609l3.092,16.141c0.068,0.351,0.376,0.605,0.734,0.602
	l12.497-0.098c0.356-0.002,0.66-0.258,0.724-0.608l2.949-16.188C56.957-121.016,56.896-121.241,56.755-121.41z"/>
<path class="st5" d="M44.067-126.017L44.067-126.017l-0.004-0.421l5.49-0.043l0.004,0.421L44.067-126.017z M57.804-124.607
	L57.804-124.607l-2.025,0.016l-0.009-1.171c-0.001-0.091-0.038-0.18-0.103-0.244c-0.065-0.064-0.155-0.1-0.246-0.1l-4.467,0.035
	l-0.009-1.12c-0.002-0.184-0.077-0.363-0.209-0.492c-0.131-0.13-0.311-0.203-0.495-0.201l-6.887,0.054
	c-0.183,0.001-0.363,0.077-0.492,0.208c-0.129,0.131-0.202,0.312-0.2,0.496l0.009,1.12l-4.164,0.032
	c-0.091,0.001-0.18,0.039-0.243,0.104c-0.065,0.065-0.101,0.154-0.101,0.246l0.009,1.171l-2.197,0.017l0.017,2.225l21.829-0.17
	L57.804-124.607z"/>
<path class="st8" d="M44.067-126.017L44.067-126.017l-0.004-0.421l5.49-0.043l0.004,0.421L44.067-126.017z M57.804-124.607
	L57.804-124.607l-2.025,0.016l-0.009-1.171c-0.001-0.091-0.038-0.18-0.103-0.244c-0.065-0.064-0.155-0.1-0.246-0.1l-4.467,0.035
	l-0.009-1.12c-0.002-0.184-0.077-0.363-0.209-0.492c-0.131-0.13-0.311-0.203-0.495-0.201l-6.887,0.054
	c-0.183,0.001-0.363,0.077-0.492,0.208c-0.129,0.131-0.202,0.312-0.2,0.496l0.009,1.12l-4.164,0.032
	c-0.091,0.001-0.18,0.039-0.243,0.104c-0.065,0.065-0.101,0.154-0.101,0.246l0.009,1.171l-2.197,0.017l0.017,2.225l21.829-0.17
	L57.804-124.607z"/>
<rect x="35.964" y="-127.895" class="st9" width="21.868" height="24"/>
<rect x="376.893" y="-268.663" class="st10" width="34.924" height="19.551"/>
<g>
	<path class="st11" d="M389.871-258.25v4.238h-0.884v-1.066c-0.416,0.702-1.222,1.132-2.354,1.132c-1.547,0-2.496-0.807-2.496-1.989
		c0-1.054,0.676-1.938,2.639-1.938h2.171v-0.416c0-1.17-0.663-1.807-1.938-1.807c-0.884,0-1.716,0.312-2.275,0.806l-0.416-0.688
		c0.689-0.585,1.703-0.924,2.782-0.924C388.87-260.902,389.871-260.017,389.871-258.25z M388.948-256.065v-1.118h-2.146
		c-1.326,0-1.755,0.52-1.755,1.222c0,0.793,0.637,1.287,1.729,1.287C387.817-254.674,388.584-255.169,388.948-256.065z"/>
	<path class="st11" d="M397.97-260.849v6.838h-0.884v-1.248c-0.481,0.832-1.365,1.313-2.458,1.313c-1.742,0-2.886-0.976-2.886-2.938
		v-3.965h0.923v3.874c0,1.456,0.754,2.197,2.054,2.197c1.43,0,2.327-0.924,2.327-2.483v-3.588H397.97z"/>
	<path class="st11" d="M399.269-254.792l0.416-0.728c0.546,0.429,1.469,0.767,2.431,0.767c1.3,0,1.833-0.441,1.833-1.118
		c0-1.78-4.433-0.377-4.433-3.081c0-1.118,0.962-1.95,2.704-1.95c0.884,0,1.846,0.247,2.418,0.638l-0.403,0.74
		c-0.598-0.416-1.313-0.585-2.015-0.585c-1.235,0-1.781,0.481-1.781,1.132c0,1.846,4.434,0.455,4.434,3.081
		c0,1.183-1.04,1.95-2.821,1.95C400.921-253.946,399.828-254.31,399.269-254.792z"/>
</g>
<polygon class="st6" points="377.143,-268.788 377.143,-248.788 377.143,-248.538 377.393,-248.538 446.242,-248.538 
	446.492,-248.538 446.492,-248.788 446.492,-268.788 446.492,-269.038 446.242,-269.038 377.393,-269.038 377.143,-269.038 "/>
<rect x="376.893" y="-269.288" class="st9" width="69.849" height="21"/>
<rect x="-27.504" y="-61.958" class="st11" width="1014" height="21"/>
<path class="st3" d="M599.657-61.958c-2.209,0-4,1.791-4,4v12.382c0,2.209,1.791,4,4,4h77.131c2.209,0,4-1.791,4-4v-12.382
	c0-2.209-1.791-4-4-4H599.657z"/>
<rect x="-27.254" y="-61.708" class="st12" width="1013.5" height="20.5"/>
<path class="st13" d="M970.352-59.098v1.481c0,0.397,0.187,0.771,0.505,1.009l6.367,4.762c0.258,0.194,0.258,0.583,0,0.776
	l-6.367,4.762c-0.318,0.238-0.505,0.612-0.505,1.01v1.48c0,0.41,0.467,0.644,0.795,0.399l10.111-7.563
	c0.318-0.237,0.318-0.714,0-0.952l-10.11-7.562C970.819-59.742,970.352-59.507,970.352-59.098"/>
<path class="st13" d="M-11.651-43.818v-1.481c0-0.397-0.187-0.771-0.505-1.009l-6.367-4.762c-0.258-0.194-0.258-0.583,0-0.776
	l6.367-4.762c0.318-0.238,0.505-0.612,0.505-1.01v-1.48c0-0.41-0.467-0.644-0.795-0.399l-10.111,7.563
	c-0.318,0.237-0.318,0.714,0,0.952l10.11,7.562C-12.118-43.174-11.651-43.409-11.651-43.818"/>
<rect x="-27.504" y="-61.958" class="st9" width="1014" height="21"/>
<rect x="1028.269" y="-306.503" class="st11" width="21" height="702.123"/>
<path class="st3" d="M1028.269,107.458c0,2.209,1.791,4,4,4h12.382c2.209,0,4-1.791,4-4V29.172c0-2.209-1.791-4-4-4h-12.382
	c-2.209,0-4,1.791-4,4V107.458z"/>
<rect x="1028.519" y="-306.254" class="st12" width="20.5" height="701.624"/>
<path class="st13" d="M1031.129-292.968h1.481c0.397,0,0.771-0.19,1.009-0.512l4.762-6.453c0.194-0.262,0.583-0.262,0.776,0
	l4.762,6.453c0.238,0.322,0.612,0.512,1.01,0.512h1.48c0.41,0,0.644-0.474,0.399-0.806l-7.563-10.248
	c-0.237-0.322-0.714-0.322-0.952,0l-7.562,10.248C1030.485-293.442,1030.72-292.968,1031.129-292.968"/>
<path class="st13" d="M1046.409,381.284h-1.481c-0.397,0-0.771,0.19-1.009,0.512l-4.762,6.453c-0.194,0.262-0.583,0.262-0.776,0
	l-4.762-6.453c-0.238-0.322-0.612-0.512-1.01-0.512h-1.48c-0.41,0-0.644,0.474-0.399,0.806l7.563,10.248
	c0.237,0.322,0.714,0.322,0.952,0l7.562-10.248C1047.053,381.758,1046.818,381.284,1046.409,381.284"/>
<rect x="1028.269" y="-306.504" class="st9" width="21" height="702.124"/>
<g>
	<g>
		<line class="st7" x1="307.295" y1="-183.524" x2="294.278" y2="-183.524"/>
		<line class="st7" x1="307.295" y1="-193.7" x2="294.278" y2="-193.7"/>
		<line class="st7" x1="307.295" y1="-188.612" x2="294.278" y2="-188.612"/>
		<g>
			<path class="st5" d="M290.635-195.17v2.104h-0.487v-1.714h-0.421v-0.391H290.635z"/>
		</g>
		<g>
			<path class="st5" d="M291.396-188.203v0.396h-1.59v-0.315l0.812-0.767c0.187-0.178,0.22-0.286,0.22-0.388
				c0-0.165-0.114-0.262-0.337-0.262c-0.18,0-0.333,0.069-0.436,0.21l-0.355-0.228c0.163-0.238,0.457-0.392,0.836-0.392
				c0.469,0,0.781,0.241,0.781,0.623c0,0.204-0.057,0.391-0.352,0.664l-0.484,0.457H291.396z"/>
		</g>
		<g>
			<path class="st5" d="M291.378-183.444c0,0.354-0.273,0.68-0.872,0.68c-0.295,0-0.599-0.081-0.803-0.226l0.189-0.373
				c0.159,0.121,0.382,0.189,0.601,0.189c0.244,0,0.394-0.099,0.394-0.271c0-0.159-0.117-0.258-0.394-0.258h-0.223v-0.322
				l0.433-0.49h-0.896v-0.391h1.473v0.316l-0.475,0.541C291.186-183.988,291.378-183.753,291.378-183.444z"/>
		</g>
	</g>
	<polygon class="st6" points="285.249,-201.967 285.249,-175.967 285.249,-175.717 285.499,-175.717 311.499,-175.717 
		311.749,-175.717 311.749,-175.967 311.749,-201.967 311.749,-202.217 311.499,-202.217 285.499,-202.217 285.249,-202.217 	"/>
</g>
<polygon class="st6" points="223.416,-201.967 223.416,-175.967 223.416,-175.717 223.666,-175.717 249.666,-175.717 
	249.916,-175.717 249.916,-175.967 249.916,-201.967 249.916,-202.217 249.666,-202.217 223.666,-202.217 223.416,-202.217 "/>
<g>
	<polygon class="st6" points="253.758,-201.967 253.758,-175.967 253.758,-175.717 254.008,-175.717 280.008,-175.717 
		280.258,-175.717 280.258,-175.967 280.258,-201.967 280.258,-202.217 280.008,-202.217 254.008,-202.217 253.758,-202.217 	"/>
	<path class="st7" d="M275.29-183.842h-13.016 M275.29-188.975h-13.016 M275.29-194.107h-13.016"/>
	<path class="st5" d="M260.188-188.39c0.161-0.156,0.241-0.349,0.241-0.581c0-0.15-0.037-0.288-0.11-0.414
		c-0.073-0.125-0.172-0.224-0.297-0.297c-0.126-0.073-0.264-0.11-0.415-0.11c-0.15,0-0.288,0.037-0.41,0.11
		c-0.122,0.073-0.221,0.172-0.294,0.297c-0.072,0.126-0.11,0.264-0.11,0.414c0,0.232,0.08,0.425,0.238,0.581
		c0.157,0.156,0.35,0.234,0.576,0.234C259.834-188.156,260.027-188.234,260.188-188.39"/>
	<path class="st5" d="M259.611-193.025c0.489,0,0.885-0.396,0.885-0.885c0-0.488-0.396-0.885-0.885-0.885
		c-0.488,0-0.885,0.397-0.885,0.885C258.726-193.421,259.123-193.025,259.611-193.025"/>
	<path class="st5" d="M260.188-183.373c0.161-0.156,0.241-0.349,0.241-0.581c0-0.15-0.037-0.288-0.11-0.414
		c-0.073-0.125-0.172-0.224-0.297-0.297c-0.126-0.073-0.264-0.11-0.415-0.11c-0.15,0-0.288,0.037-0.41,0.11
		c-0.122,0.073-0.221,0.172-0.294,0.297c-0.072,0.126-0.11,0.264-0.11,0.414c0,0.232,0.08,0.425,0.238,0.581
		c0.157,0.156,0.35,0.234,0.576,0.234C259.834-183.139,260.027-183.217,260.188-183.373"/>
</g>
<path class="st7" d="M244.948-183.835h-13.016 M244.948-188.968h-13.016 M244.948-194.1h-13.016"/>
<rect x="228.384" y="-194.869" class="st5" width="1.77" height="1.77"/>
<rect x="228.384" y="-189.853" class="st5" width="1.77" height="1.77"/>
<rect x="228.384" y="-184.835" class="st5" width="1.77" height="1.77"/>
<rect x="566.906" y="-269.756" class="st2" width="245" height="57.75"/>
<g>
	<path class="st5" d="M650.691-252.662v9.101h-0.793l-5.851-7.385v7.385h-0.962v-9.101h0.793l5.863,7.385v-7.385H650.691z"/>
	<path class="st5" d="M659.323-246.694h-5.72c0.104,1.43,1.196,2.379,2.691,2.379c0.832,0,1.573-0.299,2.093-0.897l0.52,0.599
		c-0.611,0.728-1.56,1.118-2.639,1.118c-2.132,0-3.588-1.456-3.588-3.484s1.417-3.472,3.341-3.472c1.924,0,3.315,1.417,3.315,3.472
		C659.336-246.902,659.323-246.798,659.323-246.694z M653.603-247.383h4.849c-0.117-1.339-1.092-2.275-2.431-2.275
		C654.695-249.659,653.72-248.722,653.603-247.383z"/>
	<path class="st5" d="M667.188-250.399v6.838h-0.884v-1.248c-0.481,0.832-1.365,1.313-2.458,1.313c-1.742,0-2.886-0.976-2.886-2.938
		v-3.965h0.923v3.874c0,1.456,0.754,2.197,2.054,2.197c1.43,0,2.327-0.924,2.327-2.483v-3.588H667.188z"/>
	<path class="st5" d="M675.598-246.694h-5.72c0.104,1.43,1.196,2.379,2.691,2.379c0.832,0,1.573-0.299,2.093-0.897l0.52,0.599
		c-0.611,0.728-1.56,1.118-2.639,1.118c-2.132,0-3.588-1.456-3.588-3.484s1.417-3.472,3.341-3.472c1.924,0,3.315,1.417,3.315,3.472
		C675.612-246.902,675.598-246.798,675.598-246.694z M669.878-247.383h4.849c-0.117-1.339-1.092-2.275-2.431-2.275
		C670.97-249.659,669.995-248.722,669.878-247.383z"/>
	<path class="st5" d="M682.865-251.83h-3.198v-0.832h7.358v0.832h-3.198v8.269h-0.962V-251.83z"/>
	<path class="st5" d="M693.226-246.694h-5.72c0.104,1.43,1.196,2.379,2.691,2.379c0.832,0,1.573-0.299,2.093-0.897l0.52,0.599
		c-0.611,0.728-1.56,1.118-2.639,1.118c-2.132,0-3.588-1.456-3.588-3.484s1.417-3.472,3.341-3.472c1.924,0,3.315,1.417,3.315,3.472
		C693.239-246.902,693.226-246.798,693.226-246.694z M687.506-247.383h4.849c-0.117-1.339-1.092-2.275-2.431-2.275
		C688.598-249.659,687.623-248.722,687.506-247.383z"/>
	<path class="st5" d="M699.128-243.561l-2.171-2.86l-2.184,2.86h-1.04l2.704-3.51l-2.574-3.328h1.04l2.054,2.678l2.054-2.678h1.014
		l-2.574,3.328l2.73,3.51H699.128z"/>
	<path class="st5" d="M705.589-243.977c-0.364,0.325-0.91,0.481-1.443,0.481c-1.287,0-2.002-0.729-2.002-1.989v-4.135h-1.222v-0.779
		h1.222v-1.495h0.923v1.495h2.08v0.779h-2.08v4.082c0,0.807,0.416,1.248,1.183,1.248c0.377,0,0.754-0.116,1.014-0.351
		L705.589-243.977z"/>
	<path class="st5" d="M713.948-246.98c0,2.067-1.456,3.484-3.406,3.484c-1.131,0-2.08-0.494-2.639-1.417v1.352h-0.884v-9.646h0.923
		v4.108c0.572-0.884,1.508-1.353,2.6-1.353C712.492-250.452,713.948-249.047,713.948-246.98z M713.025-246.98
		c0-1.6-1.105-2.665-2.548-2.665c-1.456,0-2.548,1.065-2.548,2.665c0,1.599,1.092,2.665,2.548,2.665
		C711.92-244.315,713.025-245.381,713.025-246.98z"/>
	<path class="st5" d="M715.144-246.98c0-2.028,1.482-3.472,3.484-3.472s3.471,1.443,3.471,3.472s-1.469,3.484-3.471,3.484
		S715.144-244.952,715.144-246.98z M721.163-246.98c0-1.6-1.079-2.665-2.535-2.665s-2.548,1.065-2.548,2.665
		c0,1.599,1.092,2.665,2.548,2.665S721.163-245.381,721.163-246.98z"/>
	<path class="st5" d="M727.987-243.561l-2.171-2.86l-2.184,2.86h-1.04l2.704-3.51l-2.574-3.328h1.04l2.054,2.678l2.054-2.678h1.014
		l-2.574,3.328l2.73,3.51H727.987z"/>
</g>
<path class="st14" d="M689.406-221.798c3.707,0,6.713-3.005,6.713-6.712c0-3.708-3.006-6.713-6.713-6.713
	c-3.707,0-6.712,3.005-6.712,6.713C682.694-224.803,685.699-221.798,689.406-221.798z"/>
<rect x="566.906" y="-269.756" class="st9" width="245" height="57.75"/>
<line class="st15" x1="689.406" y1="-232.044" x2="689.406" y2="-224.975"/>
<line class="st15" x1="685.872" y1="-228.479" x2="692.94" y2="-228.479"/>
<path class="st14" d="M578.445-181.962c3.707,0,6.713-3.005,6.713-6.712c0-3.708-3.006-6.713-6.713-6.713
	c-3.707,0-6.712,3.005-6.712,6.713C571.733-184.967,574.738-181.962,578.445-181.962z"/>
<line class="st15" x1="578.445" y1="-192.209" x2="578.445" y2="-185.14"/>
<line class="st15" x1="574.911" y1="-188.643" x2="581.979" y2="-188.643"/>
<g>
	<path class="st16" d="M82.552-166.827h-3.138v-1.85h8.544v1.85h-3.138v7.956h-2.269V-166.827z"/>
	<path class="st16" d="M89.173-168.677h2.269v9.806h-2.269V-168.677z"/>
	<path class="st16" d="M102.267-165.118c0,2.185-1.639,3.544-4.258,3.544h-1.975v2.703h-2.269v-9.806h4.244
		C100.629-168.677,102.267-167.317,102.267-165.118z M99.97-165.118c0-1.079-0.701-1.709-2.087-1.709h-1.849v3.403h1.849
		C99.27-163.424,99.97-164.054,99.97-165.118z"/>
	<path class="st16" d="M112.389-165.118c0,2.185-1.639,3.544-4.258,3.544h-1.975v2.703h-2.269v-9.806h4.244
		C110.751-168.677,112.389-167.317,112.389-165.118z M110.092-165.118c0-1.079-0.701-1.709-2.087-1.709h-1.849v3.403h1.849
		C109.392-163.424,110.092-164.054,110.092-165.118z"/>
</g>
<path class="st16" d="M45.925-173.148L45.925-173.148c-1.054,2.474-1.96,4.602-2.889,6.784h5.729
	C47.821-168.62,46.939-170.728,45.925-173.148 M49.418-155.558L49.418-155.558c-0.346-1.15-0.211-1.759,1.044-1.8
	c0.976-0.033,1.343-0.74,1.02-1.64c-0.507-1.414-1.072-2.81-1.681-4.183c-0.109-0.245-0.55-0.478-0.843-0.484
	c-2.129-0.041-4.261-0.046-6.39,0.005c-0.305,0.008-0.741,0.315-0.877,0.599c-0.558,1.155-1.057,2.342-1.512,3.542
	c-0.57,1.504-0.268,2.026,1.348,2.192c0.783,0.081,1.206,0.319,1.022,1.126c-0.056,0.243-0.355,0.61-0.547,0.613
	c-2.524,0.042-5.049,0.028-7.596,0.028c-0.214-0.956-0.321-1.631,0.868-1.885c0.569-0.122,1.219-0.609,1.515-1.117
	c0.755-1.293,1.377-2.67,1.972-4.049c2.401-5.559,4.761-11.135,7.172-16.689c0.173-0.398,0.634-0.67,0.96-1
	c0.319,0.343,0.766,0.632,0.937,1.037c2.56,6.048,5.079,12.114,7.622,18.17c0.326,0.776,0.705,1.534,1.106,2.275
	c0.507,0.939,1.332,1.389,2.379,1.595c0.265,0.052,0.519,0.638,0.586,1.013c0.032,0.175-0.39,0.621-0.611,0.624
	C55.76-155.545,52.607-155.558,49.418-155.558"/>
<path class="st5" d="M143.163-163.096c2.682-0.014,4.762-2.036,4.751-4.621c-0.01-2.367-2.203-4.406-4.733-4.399
	c-2.703,0.008-4.848,2.038-4.825,4.568C138.379-165.084,140.539-163.083,143.163-163.096 M148.718-163.083L148.718-163.083
	c0.393-0.231,0.569-0.207,0.91,0.115c1.249,1.181,2.501,2.361,3.751,3.541c0.086,0.08,0.173,0.159,0.252,0.246
	c0.216,0.237,0.217,0.464-0.012,0.692c-0.249,0.248-0.509,0.488-0.767,0.727c-0.302,0.28-0.548,0.287-0.855,0
	c-1.177-1.103-2.348-2.211-3.522-3.318c-0.132-0.124-0.263-0.25-0.396-0.373c-0.368-0.34-0.394-0.487-0.153-0.896
	c-0.368-0.336-0.737-0.673-1.128-1.029c-1.472,1.07-3.153,1.471-5.011,1.06c-1.415-0.313-2.544-1.054-3.377-2.178
	c-1.65-2.23-1.286-5.335,0.823-7.11c2.222-1.87,5.521-1.904,7.68-0.117c2.217,1.835,2.765,5.106,0.696,7.583
	C147.979-163.787,148.348-163.436,148.718-163.083"/>
<path class="st17" d="M143.163-163.096c2.682-0.014,4.762-2.036,4.751-4.621c-0.01-2.367-2.203-4.406-4.733-4.399
	c-2.703,0.008-4.848,2.038-4.825,4.568C138.379-165.084,140.539-163.083,143.163-163.096z M148.718-163.083L148.718-163.083
	c0.393-0.231,0.569-0.207,0.91,0.115c1.249,1.181,2.501,2.361,3.751,3.541c0.086,0.08,0.173,0.159,0.252,0.246
	c0.216,0.237,0.217,0.464-0.012,0.692c-0.249,0.248-0.509,0.488-0.767,0.727c-0.302,0.28-0.548,0.287-0.855,0
	c-1.177-1.103-2.348-2.211-3.522-3.318c-0.132-0.124-0.263-0.25-0.396-0.373c-0.368-0.34-0.394-0.487-0.153-0.896
	c-0.368-0.336-0.737-0.673-1.128-1.029c-1.472,1.07-3.153,1.471-5.011,1.06c-1.415-0.313-2.544-1.054-3.377-2.178
	c-1.65-2.23-1.286-5.335,0.823-7.11c2.222-1.87,5.521-1.904,7.68-0.117c2.217,1.835,2.765,5.106,0.696,7.583
	C147.979-163.787,148.348-163.436,148.718-163.083z"/>
<path class="st5" d="M206.877-172.677l2.966,2.98v-2.758c0-0.096-0.055-0.229-0.123-0.297l-3.807-3.826
	c-0.068-0.067-0.178-0.067-0.245,0l-3.93,3.949v2.758c0,0.096,0.055,0.119,0.122,0.051l2.844-2.857
	c0.068-0.068,0.122-0.046,0.122,0.05v7.829h0v2.168c0,0.096-0.055,0.118-0.123,0.05l-2.966-2.98v2.758
	c0,0.096,0.055,0.229,0.123,0.297l3.807,3.826c0.068,0.067,0.178,0.067,0.245,0l3.93-3.949v-2.758c0-0.096-0.055-0.119-0.122-0.051
	l-2.844,2.857c-0.068,0.068-0.122,0.046-0.122-0.05v-7.829h0v-2.168C206.754-172.723,206.809-172.745,206.877-172.677z"/>
<line class="st18" x1="170.738" y1="-159.441" x2="198.571" y2="-159.441"/>
<line class="st18" x1="170.738" y1="-167.737" x2="198.571" y2="-167.737"/>
<line class="st18" x1="170.738" y1="-175.729" x2="198.571" y2="-175.729"/>
<line class="st18" x1="185.08" y1="-140.469" x2="185.08" y2="-119.469"/>
<path class="st5" d="M192.54-126.626L192.54-126.626h2.695l-2.603-2.569c-0.138-0.135-0.093-0.245,0.101-0.245h7.006v-1.407
	c0-0.193-0.157-0.35-0.35-0.35h-6.656c-0.194,0-0.239-0.11-0.101-0.246l2.603-2.569h-2.345c-0.193,0-0.462,0.111-0.599,0.246
	l-3.245,3.201c-0.137,0.136-0.137,0.356,0,0.492L192.54-126.626z"/>
<path class="st5" d="M176.77-133.838L176.77-133.838h-2.695l2.603,2.569c0.138,0.135,0.093,0.245-0.101,0.245h-7.006v1.407
	c0,0.193,0.157,0.35,0.35,0.35h6.656c0.194,0,0.239,0.11,0.101,0.246l-2.603,2.569h2.345c0.193,0,0.462-0.111,0.599-0.246
	l3.245-3.201c0.137-0.136,0.137-0.356,0-0.492L176.77-133.838z"/>
<line class="st19" x1="501.366" y1="-259.582" x2="465.343" y2="-259.582"/>
<path class="st20" d="M492.863-256.436c2.045,0,3.703-1.658,3.703-3.703c0-2.045-1.658-3.703-3.703-3.703
	c-2.045,0-3.703,1.658-3.703,3.703C489.16-258.094,490.818-256.436,492.863-256.436"/>
<g>
	<path class="st5" d="M516.062-259.381c0,3.12-1.82,4.836-4.459,4.836c-0.91,0-1.781-0.195-2.392-0.585l0.624-1.274
		c0.494,0.325,1.092,0.442,1.729,0.442c1.716,0,2.795-1.066,2.795-3.133v-0.014c-0.546,0.638-1.417,0.949-2.431,0.949
		c-1.794,0-3.133-1.092-3.133-2.795c0-1.807,1.469-2.951,3.328-2.951C514.606-263.905,516.062-262.306,516.062-259.381z
		 M514.099-261.045c0-0.858-0.676-1.534-1.885-1.534c-1.053,0-1.781,0.598-1.781,1.547s0.715,1.547,1.82,1.547
		C513.345-259.485,514.099-260.148,514.099-261.045z"/>
	<path class="st5" d="M523.927-257.47c0,1.599-1.157,2.925-3.602,2.925c-1.287,0-2.587-0.39-3.419-1.053l0.715-1.313
		c0.663,0.546,1.651,0.897,2.678,0.897c1.209,0,1.924-0.533,1.924-1.392c0-0.871-0.559-1.417-2.444-1.417h-2.197l0.468-4.953h5.343
		v1.417h-3.913l-0.195,2.106h0.871C522.848-260.252,523.927-259.082,523.927-257.47z"/>
	<path class="st5" d="M528.347-261.37c0-1.495,0.871-2.496,2.171-2.496s2.184,0.988,2.184,2.496s-0.884,2.496-2.184,2.496
		S528.347-259.875,528.347-261.37z M531.636-261.37c0-1.014-0.416-1.586-1.118-1.586c-0.676,0-1.118,0.585-1.118,1.586
		s0.442,1.586,1.118,1.586C531.22-259.784,531.636-260.356,531.636-261.37z M535.978-263.775h1.274l-6.214,9.101h-1.274
		L535.978-263.775z M534.314-257.08c0-1.495,0.871-2.496,2.171-2.496c1.3,0,2.184,1.001,2.184,2.496s-0.884,2.496-2.184,2.496
		C535.185-254.584,534.314-255.585,534.314-257.08z M537.603-257.08c0-1.001-0.429-1.586-1.118-1.586s-1.118,0.572-1.118,1.586
		c0,1.015,0.429,1.586,1.118,1.586S537.603-256.079,537.603-257.08z"/>
</g>
<rect x="479.304" y="-205.439" class="st11" width="13.149" height="16.764"/>
<polygon class="st21" points="479.303,-188.675 479.303,-188.675 492.452,-188.675 492.452,-205.439 479.303,-205.439 "/>
<rect x="471.632" y="-205.91" class="st9" width="21.291" height="24"/>
<line class="st22" x1="476.129" y1="-197.744" x2="476.129" y2="-187.357"/>
<line class="st23" x1="478.76" y1="-185.468" x2="488.409" y2="-185.468"/>
<path class="st21" d="M489.286-185.468h0.877 M476.129-186.412v0.944h0.877 M476.129-200.577v0.944"/>
<polyline class="st21" points="472.102,-197.488 472.102,-182.38 486.136,-182.38 "/>
<rect x="471.632" y="-205.91" class="st9" width="21.291" height="24"/>
<rect x="510.877" y="-205.508" class="st11" width="14.674" height="18.705"/>
<polygon class="st24" points="510.877,-186.803 510.877,-186.803 525.55,-186.803 525.55,-205.508 510.877,-205.508 "/>
<rect x="510.475" y="-205.91" class="st9" width="19.884" height="24"/>
<rect x="515.284" y="-201.017" class="st5" width="14.674" height="18.705"/>
<polygon class="st25" points="515.284,-182.312 515.284,-182.312 529.957,-182.312 529.957,-201.017 515.284,-201.017 "/>
<rect x="510.475" y="-205.91" class="st9" width="19.884" height="24"/>
<rect x="411.984" y="-201.961" class="st10" width="34.924" height="19.551"/>
<g>
	<path class="st11" d="M426.226-190.442h-5.72c0.104,1.43,1.196,2.379,2.691,2.379c0.832,0,1.573-0.299,2.093-0.897l0.52,0.599
		c-0.611,0.728-1.56,1.118-2.639,1.118c-2.132,0-3.588-1.456-3.588-3.484s1.417-3.472,3.341-3.472c1.924,0,3.315,1.417,3.315,3.472
		C426.239-190.65,426.226-190.547,426.226-190.442z M420.506-191.132h4.849c-0.117-1.339-1.092-2.275-2.431-2.275
		C421.598-193.407,420.623-192.471,420.506-191.132z"/>
	<path class="st11" d="M427.473-196.306c0-0.352,0.299-0.65,0.676-0.65s0.676,0.286,0.676,0.637c0,0.378-0.286,0.677-0.676,0.677
		C427.772-195.643,427.473-195.941,427.473-196.306z M427.681-194.148h0.923v6.838h-0.923V-194.148z"/>
	<path class="st11" d="M436.899-191.275v3.965h-0.923v-3.874c0-1.443-0.754-2.185-2.054-2.185c-1.469,0-2.392,0.91-2.392,2.471
		v3.588h-0.923v-6.838h0.884v1.261c0.494-0.832,1.417-1.313,2.6-1.313C435.755-194.2,436.899-193.238,436.899-191.275z"/>
</g>
<polygon class="st6" points="376.976,-202.086 376.976,-182.086 376.976,-181.836 377.226,-181.836 446.075,-181.836 
	446.325,-181.836 446.325,-182.086 446.325,-202.086 446.325,-202.336 446.075,-202.336 377.226,-202.336 376.976,-202.336 "/>
<rect x="376.726" y="-202.586" class="st9" width="70.183" height="21"/>
<line class="st26" x1="518.04" y1="-112.447" x2="518.04" y2="-88.187"/>
<path class="st5" d="M526.138-96.628L526.138-96.628h2.592l-2.494-2.46c-0.138-0.135-0.093-0.245,0.101-0.245h6.725v-1.339
	c0-0.193-0.157-0.35-0.35-0.35h-6.725l2.743-2.705h-2.242c-0.193,0-0.462,0.11-0.599,0.245l-3.102,3.059
	c-0.137,0.135-0.137,0.355,0,0.491L526.138-96.628z"/>
<line class="st26" x1="491.095" y1="-88.354" x2="491.095" y2="-112.614"/>
<path class="st5" d="M482.998-104.172L482.998-104.172h-2.592l2.494,2.46c0.138,0.135,0.093,0.245-0.101,0.245h-6.725v1.339
	c0,0.193,0.157,0.35,0.35,0.35h6.725l-2.743,2.705h2.242c0.193,0,0.462-0.11,0.599-0.245l3.102-3.059
	c0.137-0.135,0.137-0.355,0-0.491L482.998-104.172z"/>
<line class="st26" x1="301.353" y1="-104.575" x2="325.613" y2="-104.575"/>
<path class="st5" d="M317.004-112.633L317.004-112.633v-2.592l-2.46,2.494c-0.135,0.138-0.245,0.093-0.245-0.101v-6.725h-1.339
	c-0.193,0-0.35,0.157-0.35,0.35v6.725l-2.705-2.743v2.242c0,0.193,0.11,0.462,0.245,0.599l3.059,3.102
	c0.135,0.137,0.355,0.137,0.491,0L317.004-112.633z"/>
<path class="st5" d="M310.072-97.481L310.072-97.481v2.592l2.46-2.494c0.135-0.138,0.245-0.093,0.245,0.101v6.725h1.339
	c0.193,0,0.35-0.157,0.35-0.35v-6.725l2.705,2.743v-2.242c0-0.193-0.11-0.462-0.245-0.599l-3.059-3.102
	c-0.135-0.137-0.355-0.137-0.491,0L310.072-97.481z"/>
<line class="st26" x1="357.799" y1="-91.765" x2="357.799" y2="-116.025"/>
<path class="st5" d="M349.742-107.416L349.742-107.416h-2.592l2.494,2.46c0.138,0.135,0.093,0.245-0.101,0.245h-6.725v1.339
	c0,0.193,0.157,0.35,0.35,0.35h6.725l-2.743,2.705h2.242c0.193,0,0.462-0.11,0.599-0.245l3.102-3.059
	c0.137-0.135,0.137-0.355,0-0.491L349.742-107.416z"/>
<path class="st5" d="M364.894-100.484L364.894-100.484h2.592l-2.494-2.46c-0.138-0.135-0.093-0.245,0.101-0.245h6.725v-1.339
	c0-0.193-0.157-0.35-0.35-0.35h-6.725l2.743-2.705h-2.242c-0.193,0-0.462,0.11-0.599,0.245l-3.102,3.059
	c-0.137,0.135-0.137,0.355,0,0.491L364.894-100.484z"/>
<line class="st26" x1="389.941" y1="-104.292" x2="414.201" y2="-104.292"/>
<path class="st5" d="M398.66-97.198L398.66-97.198v2.592l2.46-2.494c0.135-0.138,0.245-0.093,0.245,0.101v6.725h1.339
	c0.193,0,0.35-0.157,0.35-0.35v-6.725l2.705,2.743v-2.242c0-0.193-0.11-0.462-0.245-0.599l-3.059-3.102
	c-0.135-0.137-0.355-0.137-0.491,0L398.66-97.198z"/>
<line class="st26" x1="435.052" y1="-93.037" x2="459.312" y2="-93.037"/>
<path class="st5" d="M450.871-101.426L450.871-101.426v-2.592l-2.46,2.494c-0.135,0.138-0.245,0.093-0.245-0.101v-6.725h-1.339
	c-0.193,0-0.35,0.157-0.35,0.35v6.725l-2.705-2.743v2.242c0,0.193,0.11,0.462,0.245,0.599l3.059,3.102
	c0.135,0.137,0.355,0.137,0.491,0L450.871-101.426z"/>
<rect x="580.916" y="-119.963" class="st11" width="15.769" height="20.056"/>
<line class="st27" x1="583.873" y1="-99.907" x2="594.714" y2="-99.907"/>
<line class="st28" x1="596.685" y1="-102.915" x2="596.685" y2="-117.957"/>
<line class="st27" x1="593.728" y1="-119.963" x2="582.887" y2="-119.963"/>
<line class="st28" x1="580.916" y1="-116.954" x2="580.916" y2="-101.912"/>
<path class="st21" d="M580.915-100.91v1.003h0.986 M581.901-119.963h-0.986v1.003 M596.684-118.96v-1.003h-0.985 M595.699-99.907
	h0.985v-1.003"/>
<polygon class="st11" points="569.68,-89.907 569.68,-89.907 585.449,-89.907 585.449,-109.963 569.68,-109.963 "/>
<line class="st27" x1="572.637" y1="-89.907" x2="583.478" y2="-89.907"/>
<line class="st28" x1="585.449" y1="-92.915" x2="585.449" y2="-107.957"/>
<line class="st27" x1="582.492" y1="-109.963" x2="571.651" y2="-109.963"/>
<line class="st28" x1="569.68" y1="-106.954" x2="569.68" y2="-91.912"/>
<path class="st21" d="M569.68-90.91v1.003h0.986 M570.666-109.963h-0.986v1.003 M585.449-108.96v-1.003h-0.985 M584.464-89.907
	h0.985v-1.003"/>
<polygon class="st11" points="560.206,-81.907 560.206,-81.907 575.975,-81.907 575.975,-101.963 560.206,-101.963 "/>
<polygon class="st21" points="560.206,-81.907 560.206,-81.907 575.975,-81.907 575.975,-101.963 560.206,-101.963 "/>
<g>
	<polygon class="st11" points="634.042,-95.601 634.042,-95.601 649.811,-95.601 649.811,-115.657 634.042,-115.657 	"/>
	<polygon class="st21" points="634.042,-95.601 634.042,-95.601 649.811,-95.601 649.811,-115.657 634.042,-115.657 	"/>
	<line class="st29" x1="630.278" y1="-107.102" x2="630.278" y2="-93.598"/>
	<line class="st30" x1="633.415" y1="-91.798" x2="644.918" y2="-91.798"/>
	<path class="st21" d="M645.963-91.798h1.046 M630.278-92.698v0.9h1.046 M630.278-109.803v0.9"/>
</g>
<g>
	<rect x="706.582" y="-127.378" class="st11" width="15.769" height="20.056"/>
	<polygon class="st21" points="706.582,-107.321 706.582,-107.321 722.351,-107.321 722.351,-127.377 706.582,-127.377 	"/>
	<polygon class="st11" points="695.346,-97.321 695.346,-97.321 711.115,-97.321 711.115,-117.377 695.346,-117.377 	"/>
	<line class="st27" x1="698.303" y1="-97.321" x2="709.144" y2="-97.321"/>
	<line class="st28" x1="711.115" y1="-100.33" x2="711.115" y2="-115.372"/>
	<line class="st27" x1="708.158" y1="-117.378" x2="697.317" y2="-117.378"/>
	<line class="st28" x1="695.346" y1="-114.369" x2="695.346" y2="-99.327"/>
	<path class="st21" d="M695.345-98.324v1.003h0.986 M696.331-117.377h-0.986v1.003 M711.114-116.374v-1.003h-0.985 M710.129-97.321
		h0.985v-1.003"/>
	<polygon class="st11" points="685.872,-89.321 685.872,-89.321 701.641,-89.321 701.641,-109.377 685.872,-109.377 	"/>
	<line class="st27" x1="688.829" y1="-89.321" x2="699.67" y2="-89.321"/>
	<line class="st28" x1="701.641" y1="-92.33" x2="701.641" y2="-107.372"/>
	<line class="st27" x1="698.685" y1="-109.378" x2="687.844" y2="-109.378"/>
	<line class="st28" x1="685.872" y1="-106.369" x2="685.872" y2="-91.327"/>
	<path class="st21" d="M685.872-90.324v1.003h0.986 M686.858-109.377h-0.986v1.003 M701.641-108.374v-1.003h-0.985 M700.656-89.321
		h0.985v-1.003"/>
</g>
<line class="st27" x1="761.996" y1="-93.836" x2="772.837" y2="-93.836"/>
<line class="st28" x1="774.808" y1="-96.845" x2="774.808" y2="-111.887"/>
<line class="st27" x1="771.851" y1="-113.892" x2="761.01" y2="-113.892"/>
<line class="st28" x1="759.039" y1="-110.884" x2="759.039" y2="-95.842"/>
<path class="st21" d="M759.038-94.839v1.003h0.986 M760.024-113.892h-0.986v1.003 M774.807-112.889v-1.003h-0.985 M773.822-93.836
	h0.985v-1.003"/>
<polyline class="st21" points="755.275,-108.038 755.275,-90.033 772.006,-90.033 "/>
<g>
	<defs>
		<rect id="SVGID_1_" width="241.682" height="1"/>
	</defs>
	<clipPath id="SVGID_00000139290219973908114310000005091498655695309726_">
		<use xlink:href="#SVGID_1_"  style="overflow:visible;"/>
	</clipPath>
	
		<line style="clip-path:url(#SVGID_00000139290219973908114310000005091498655695309726_);fill:none;stroke:#B2B2B2;stroke-linecap:round;stroke-linejoin:round;stroke-dasharray:0,3.009;" x1="3.509" y1="0.5" x2="239.678" y2="0.5"/>
	
		<path style="clip-path:url(#SVGID_00000139290219973908114310000005091498655695309726_);fill:none;stroke:#B2B2B2;stroke-linecap:round;stroke-linejoin:round;" d="
		M241.182,0.5L241.182,0.5 M0.5,0.5L0.5,0.5"/>
</g>
<circle class="st33" cx="46.898" cy="-220.711" r="12.75"/>
<polygon class="st3" points="190.291,-235.735 177.291,-235.735 183.659,-225.26 "/>
<polygon class="st5" points="198.314,-107.193 187.839,-100.825 198.314,-94.193 "/>
<polygon class="st5" points="169.267,-94.193 179.742,-100.561 169.267,-107.193 "/>
<polygon class="st5" points="251.821,-107.193 241.346,-100.825 251.821,-94.193 "/>
<polygon class="st5" points="216.644,-94.193 227.119,-100.561 216.644,-107.193 "/>
<rect x="376.893" y="-235.724" class="st10" width="34.924" height="19.551"/>
<polygon class="st6" points="377.143,-235.849 377.143,-215.849 377.143,-215.599 377.393,-215.599 446.242,-215.599 
	446.492,-215.599 446.492,-215.849 446.492,-235.849 446.492,-236.099 446.242,-236.099 377.393,-236.099 377.143,-236.099 "/>
<rect x="376.893" y="-236.349" class="st9" width="69.849" height="21"/>
<rect x="412.257" y="-169.695" class="st10" width="34.924" height="19.551"/>
<polygon class="st6" points="377.249,-169.82 377.249,-149.82 377.249,-149.57 377.499,-149.57 446.348,-149.57 446.598,-149.57 
	446.598,-149.82 446.598,-169.82 446.598,-170.07 446.348,-170.07 377.499,-170.07 377.249,-170.07 "/>
<rect x="376.999" y="-170.32" class="st9" width="70.183" height="21"/>
<line class="st19" x1="500.289" y1="-239.794" x2="464.266" y2="-239.794"/>
<path class="st20" d="M491.786-236.648c2.045,0,3.703-1.658,3.703-3.703s-1.658-3.703-3.703-3.703c-2.045,0-3.703,1.658-3.703,3.703
	S489.741-236.648,491.786-236.648"/>
</svg>
