<?xml version="1.0" encoding="utf-8"?>
<!-- Generator: Adobe Illustrator 26.0.3, SVG Export Plug-In . SVG Version: 6.00 Build 0)  -->
<svg version="1.1" id="Ebene_1" xmlns="http://www.w3.org/2000/svg" xmlns:xlink="http://www.w3.org/1999/xlink" x="0px" y="0px"
	 width="19.884px" height="24px" viewBox="0 0 19.884 24" style="enable-background:new 0 0 19.884 24;" xml:space="preserve">
<style type="text/css">
	.st0{fill:none;stroke:#C5C5C5;stroke-width:3;stroke-linecap:round;stroke-linejoin:round;}
	.st1{fill:#FFAEFF;stroke:#4F4D4D;stroke-width:0.5;}
	.st2{fill:#F8F8F8;}
	.st3{fill:#0E689A;}
	.st4{fill:none;stroke:#B2B1B1;stroke-width:0.65;stroke-miterlimit:10;}
	.st5{fill:#B2B1B1;}
	.st6{fill:none;stroke:#B2B2B2;stroke-width:0.5;stroke-miterlimit:10;}
	.st7{fill:none;stroke:#B2B1B1;stroke-width:0.3;stroke-miterlimit:10;}
	.st8{fill:none;stroke:#FFFFFF;stroke-width:0.021;}
	.st9{fill:none;}
	.st10{fill:#0E6899;}
	.st11{fill:#FFFFFF;}
	.st12{fill:none;stroke:#C5C5C5;stroke-width:0.5;stroke-linecap:round;stroke-linejoin:round;}
	.st13{fill:#C5C5C5;}
	.st14{fill:none;stroke:#B2B1B1;stroke-width:0.5;}
	.st15{fill:none;stroke:#B2B1B1;stroke-width:1.2;}
	.st16{fill:#B2B2B2;}
	.st17{fill:none;stroke:#FFFFFF;stroke-width:0.001;}
	.st18{fill:none;stroke:#B2B1B1;stroke-width:1.712;}
	.st19{fill:none;stroke:#B2B1B1;stroke-width:2;}
	.st20{fill:#AD5E7A;}
	.st21{fill:none;stroke:#B2B1B1;stroke-width:0.941;}
	.st22{fill:none;stroke:#B2B1B1;stroke-width:0.941;stroke-dasharray:1.889,1.889;}
	.st23{fill:none;stroke:#B2B1B1;stroke-width:0.941;stroke-dasharray:1.754,1.754;}
	.st24{fill:none;stroke:#B2B1B1;stroke-width:0.804;}
	.st25{fill:none;stroke:#FFFFFF;stroke-width:0.804;}
	.st26{fill:none;stroke:#B2B1B1;stroke-width:2.5;}
	.st27{fill:none;stroke:#B2B1B1;stroke-width:0.941;stroke-dasharray:1.971,1.971;}
	.st28{fill:none;stroke:#B2B1B1;stroke-width:0.941;stroke-dasharray:2.006,2.006;}
	.st29{fill:none;stroke:#B2B1B1;stroke-width:0.941;stroke-dasharray:1.801,1.801;}
	.st30{fill:none;stroke:#B2B1B1;stroke-width:0.941;stroke-dasharray:2.091,2.091;}
	
		.st31{clip-path:url(#SVGID_00000106108981172737464280000011780386929458852277_);fill:none;stroke:#B2B2B2;stroke-linecap:round;stroke-linejoin:round;stroke-dasharray:0,3.009;}
	
		.st32{clip-path:url(#SVGID_00000106108981172737464280000011780386929458852277_);fill:none;stroke:#B2B2B2;stroke-linecap:round;stroke-linejoin:round;}
	.st33{fill:none;stroke:#4F4D4D;stroke-width:0.5;}
</style>
<polyline class="st0" points="1528.316,911.855 1522.066,902.855 1515.316,911.855 "/>
<circle class="st1" cx="-463.577" cy="-50.894" r="12.75"/>
<rect x="-431.116" y="-61.909" class="st2" width="119.902" height="21"/>
<polygon class="st3" points="-320.287,-56.646 -333.287,-56.646 -326.919,-46.171 "/>
<g>
	<g>
		<line class="st4" x1="-207.275" y1="-44.389" x2="-196.992" y2="-44.389"/>
		<g>
			<path class="st5" d="M-205.988-49.614v-5.175h1.3v5.122c0,2.016,0.923,2.926,2.561,2.926c1.638,0,2.574-0.91,2.574-2.926v-5.122
				h1.261v5.175c0,2.639-1.443,4.029-3.848,4.029C-204.532-45.585-205.988-46.975-205.988-49.614z"/>
		</g>
	</g>
	<polygon class="st6" points="-215.383,-62.589 -215.383,-36.589 -215.383,-36.339 -215.133,-36.339 -189.133,-36.339 
		-188.883,-36.339 -188.883,-36.589 -188.883,-62.589 -188.883,-62.839 -189.133,-62.839 -215.133,-62.839 -215.383,-62.839 	"/>
</g>
<g>
	<g>
		<path class="st5" d="M-236.737-54.515h1.3l-1.82,9.101h-1.3L-236.737-54.515z"/>
	</g>
	<polygon class="st6" points="-250.247,-62.965 -250.247,-36.965 -250.247,-36.715 -249.997,-36.715 -223.997,-36.715 
		-223.747,-36.715 -223.747,-36.965 -223.747,-62.965 -223.747,-63.215 -223.997,-63.215 -249.997,-63.215 -250.247,-63.215 	"/>
</g>
<g>
	<g>
		<path class="st5" d="M-269.886-47.846c0,1.573-1.248,2.483-3.64,2.483h-4.706v-9.101h4.446c2.275,0,3.445,0.949,3.445,2.366
			c0,0.91-0.468,1.612-1.209,2.002C-270.535-49.77-269.886-48.99-269.886-47.846z M-276.138-52.878v2.146h2.093
			c1.027,0,1.586-0.364,1.586-1.079s-0.559-1.066-1.586-1.066H-276.138z M-272.005-48.067c0-0.767-0.585-1.131-1.677-1.131h-2.457
			v2.249h2.457C-272.59-46.949-272.005-47.287-272.005-48.067z"/>
	</g>
	<polygon class="st6" points="-287.309,-62.913 -287.309,-36.913 -287.309,-36.663 -287.059,-36.663 -261.059,-36.663 
		-260.809,-36.663 -260.809,-36.913 -260.809,-62.913 -260.809,-63.163 -261.059,-63.163 -287.059,-63.163 -287.309,-63.163 	"/>
</g>
<path class="st7" d="M-233.121-20.96"/>
<path class="st7" d="M-235.629-19.706"/>
<path class="st7" d="M-235.629-18.452"/>
<path class="st7" d="M-235.629-17.197"/>
<path class="st7" d="M-233.121-15.943"/>
<path class="st7" d="M-233.121-14.69"/>
<path class="st7" d="M-235.629-13.436"/>
<path class="st7" d="M-235.629-10.928"/>
<path class="st7" d="M-233.121-8.42"/>
<g>
	<path class="st7" d="M-252.585-15.943"/>
	<path class="st7" d="M-252.585-20.96"/>
	<path class="st7" d="M-252.585-8.42"/>
	<path class="st7" d="M-252.585-14.69"/>
	<g>
		<path class="st7" d="M-250.523-13.436"/>
		<path class="st7" d="M-250.523-17.197"/>
		<path class="st7" d="M-250.523-18.452"/>
		<path class="st7" d="M-250.523-19.706"/>
		<line class="st7" x1="-252.961" y1="-9.215" x2="-233.497" y2="-9.215"/>
		<line class="st7" x1="-252.961" y1="-10.49" x2="-238.067" y2="-10.49"/>
		<line class="st7" x1="-252.961" y1="-11.766" x2="-238.067" y2="-11.766"/>
		<line class="st7" x1="-252.961" y1="-13.043" x2="-238.067" y2="-13.043"/>
		<line class="st7" x1="-252.961" y1="-14.318" x2="-233.497" y2="-14.318"/>
		<line class="st7" x1="-252.961" y1="-15.594" x2="-233.497" y2="-15.594"/>
		<line class="st7" x1="-252.888" y1="-16.87" x2="-237.994" y2="-16.87"/>
		<line class="st7" x1="-252.961" y1="-18.146" x2="-233.497" y2="-18.146"/>
		<line class="st7" x1="-252.961" y1="-19.422" x2="-238.067" y2="-19.422"/>
		<line class="st7" x1="-252.961" y1="-20.698" x2="-238.067" y2="-20.698"/>
		<line class="st7" x1="-252.961" y1="-21.974" x2="-233.497" y2="-21.974"/>
	</g>
	<polygon class="st6" points="-256.288,-28.269 -256.288,-2.276 -256.288,-2.026 -256.038,-2.026 -230.045,-2.026 -229.795,-2.026 
		-229.795,-2.276 -229.795,-28.269 -229.795,-28.519 -230.045,-28.519 -256.038,-28.519 -256.288,-28.519 	"/>
</g>
<g>
	<g>
		<line class="st7" x1="-202.24" y1="-21.657" x2="-221.704" y2="-21.657"/>
		<line class="st7" x1="-204.748" y1="-20.38" x2="-219.642" y2="-20.38"/>
		<line class="st7" x1="-204.748" y1="-19.103" x2="-219.642" y2="-19.103"/>
		<line class="st7" x1="-204.748" y1="-17.826" x2="-219.642" y2="-17.826"/>
		<line class="st7" x1="-202.24" y1="-16.549" x2="-221.704" y2="-16.549"/>
		<line class="st7" x1="-202.24" y1="-15.272" x2="-221.704" y2="-15.272"/>
		<line class="st7" x1="-204.748" y1="-13.995" x2="-219.642" y2="-13.995"/>
		<line class="st7" x1="-202.24" y1="-12.718" x2="-221.704" y2="-12.718"/>
		<line class="st7" x1="-204.748" y1="-11.441" x2="-219.642" y2="-11.441"/>
		<line class="st7" x1="-204.748" y1="-10.164" x2="-219.642" y2="-10.164"/>
		<line class="st7" x1="-202.24" y1="-8.887" x2="-221.704" y2="-8.887"/>
	</g>
	<polygon class="st6" points="-225.219,-28.269 -225.219,-2.276 -225.219,-2.026 -224.969,-2.026 -198.976,-2.026 -198.726,-2.026 
		-198.726,-2.276 -198.726,-28.269 -198.726,-28.519 -198.976,-28.519 -224.969,-28.519 -225.219,-28.519 	"/>
</g>
<polygon class="st6" points="-194.15,-28.269 -194.15,-2.276 -194.15,-2.026 -193.9,-2.026 -167.907,-2.026 -167.657,-2.026 
	-167.657,-2.276 -167.657,-28.269 -167.657,-28.519 -167.907,-28.519 -193.9,-28.519 -194.15,-28.519 "/>
<path class="st7" d="M-190.823-9.585"/>
<path class="st7" d="M-190.823-14.601"/>
<path class="st7" d="M-190.823-15.855"/>
<path class="st7" d="M-190.823-22.124"/>
<path class="st7" d="M-173.421-17.108"/>
<path class="st7" d="M-171.359-14.601"/>
<path class="st7" d="M-173.421-13.347"/>
<path class="st7" d="M-171.359-9.585"/>
<path class="st7" d="M-171.359-22.124"/>
<path class="st7" d="M-171.359-15.855"/>
<path class="st7" d="M-173.421-12.092"/>
<path class="st7" d="M-173.421-10.838"/>
<g>
	<path class="st7" d="M-188.504-11.161"/>
	<path class="st7" d="M-188.504-12.415"/>
	<path class="st7" d="M-188.504-13.669"/>
	<path class="st7" d="M-188.504-17.431"/>
	<path class="st7" d="M-188.504-19.939"/>
	<line class="st7" x1="-171.172" y1="-21.652" x2="-190.636" y2="-21.652"/>
	<line class="st7" x1="-171.172" y1="-20.376" x2="-186.066" y2="-20.376"/>
	<line class="st7" x1="-171.172" y1="-19.1" x2="-186.066" y2="-19.1"/>
	<line class="st7" x1="-171.172" y1="-17.824" x2="-186.066" y2="-17.824"/>
	<line class="st7" x1="-171.172" y1="-16.548" x2="-190.636" y2="-16.548"/>
	<line class="st7" x1="-171.172" y1="-15.272" x2="-190.636" y2="-15.272"/>
	<line class="st7" x1="-171.245" y1="-13.996" x2="-186.139" y2="-13.996"/>
	<line class="st7" x1="-171.172" y1="-12.72" x2="-190.636" y2="-12.72"/>
	<line class="st7" x1="-171.172" y1="-11.445" x2="-186.066" y2="-11.445"/>
	<line class="st7" x1="-171.172" y1="-10.168" x2="-186.066" y2="-10.168"/>
	<line class="st7" x1="-171.172" y1="-8.893" x2="-190.636" y2="-8.893"/>
</g>
<polygon class="st6" points="-287.059,-28.262 -287.059,-2.269 -287.059,-2.019 -286.809,-2.019 -260.816,-2.019 -260.566,-2.019 
	-260.566,-2.269 -260.566,-28.262 -260.566,-28.512 -260.816,-28.512 -286.809,-28.512 -287.059,-28.512 "/>
<path class="st7" d="M-263.892-20.96"/>
<path class="st7" d="M-263.892-15.943"/>
<path class="st7" d="M-263.892-14.69"/>
<path class="st7" d="M-263.892-8.42"/>
<path class="st7" d="M-281.294-13.436"/>
<path class="st7" d="M-283.356-15.943"/>
<path class="st7" d="M-281.294-17.197"/>
<path class="st7" d="M-283.356-20.96"/>
<path class="st7" d="M-283.356-8.42"/>
<path class="st7" d="M-283.356-14.69"/>
<path class="st7" d="M-281.294-18.452"/>
<path class="st7" d="M-281.294-19.706"/>
<g>
	<path class="st7" d="M-266.4-19.706"/>
	<path class="st7" d="M-266.4-18.452"/>
	<path class="st7" d="M-266.4-17.197"/>
	<path class="st7" d="M-266.4-13.436"/>
	<path class="st7" d="M-266.4-10.928"/>
	<line class="st7" x1="-283.732" y1="-9.215" x2="-264.268" y2="-9.215"/>
	<line class="st7" x1="-283.732" y1="-10.49" x2="-264.268" y2="-10.49"/>
	<line class="st7" x1="-283.732" y1="-11.766" x2="-264.268" y2="-11.766"/>
	<line class="st7" x1="-283.732" y1="-13.043" x2="-264.268" y2="-13.043"/>
	<line class="st7" x1="-283.732" y1="-14.318" x2="-264.268" y2="-14.318"/>
	<line class="st7" x1="-283.732" y1="-15.594" x2="-264.268" y2="-15.594"/>
	<line class="st7" x1="-283.659" y1="-16.87" x2="-264.195" y2="-16.87"/>
	<line class="st7" x1="-283.732" y1="-18.146" x2="-264.268" y2="-18.146"/>
	<line class="st7" x1="-283.732" y1="-19.422" x2="-264.268" y2="-19.422"/>
	<line class="st7" x1="-283.732" y1="-20.698" x2="-264.268" y2="-20.698"/>
	<line class="st7" x1="-283.732" y1="-21.974" x2="-264.268" y2="-21.974"/>
</g>
<path class="st5" d="M-456.615,86.886l-1.915,13.335c-0.058,0.402-0.431,0.682-0.834,0.624c-0.402-0.058-0.682-0.431-0.624-0.833
	l1.915-13.336c0.058-0.402,0.431-0.681,0.834-0.623C-456.837,86.111-456.557,86.483-456.615,86.886 M-463.432,100.961
	c-0.407,0.003-0.74-0.324-0.742-0.73l-0.106-13.472c-0.003-0.407,0.324-0.739,0.73-0.742c0.408-0.003,0.74,0.324,0.743,0.731
	l0.105,13.471C-462.699,100.626-463.026,100.958-463.432,100.961 M-467.503,100.908c-0.401,0.064-0.779-0.209-0.842-0.61
	l-2.124-13.304c-0.064-0.402,0.209-0.779,0.612-0.843c0.401-0.064,0.778,0.209,0.842,0.611l2.123,13.303
	C-466.828,100.467-467.101,100.844-467.503,100.908 M-453.72,84.5c-0.141-0.169-0.353-0.266-0.573-0.264l-18.538,0.144
	c-0.22,0.002-0.429,0.101-0.568,0.272c-0.14,0.17-0.196,0.393-0.155,0.609l3.092,16.141c0.068,0.351,0.376,0.605,0.734,0.602
	l12.497-0.098c0.356-0.002,0.66-0.258,0.724-0.608l2.949-16.188C-453.518,84.894-453.579,84.669-453.72,84.5"/>
<path class="st8" d="M-456.615,86.886l-1.915,13.335c-0.058,0.402-0.431,0.682-0.834,0.624c-0.402-0.058-0.682-0.431-0.624-0.833
	l1.915-13.336c0.058-0.402,0.431-0.681,0.834-0.623C-456.837,86.111-456.557,86.483-456.615,86.886z M-463.432,100.961
	c-0.407,0.003-0.74-0.324-0.742-0.73l-0.106-13.472c-0.003-0.407,0.324-0.739,0.73-0.742c0.408-0.003,0.74,0.324,0.743,0.731
	l0.105,13.471C-462.699,100.626-463.026,100.958-463.432,100.961z M-467.503,100.908c-0.401,0.064-0.779-0.209-0.842-0.61
	l-2.124-13.304c-0.064-0.402,0.209-0.779,0.612-0.843c0.401-0.064,0.778,0.209,0.842,0.611l2.123,13.303
	C-466.828,100.467-467.101,100.844-467.503,100.908z M-453.72,84.5c-0.141-0.169-0.353-0.266-0.573-0.264l-18.538,0.144
	c-0.22,0.002-0.429,0.101-0.568,0.272c-0.14,0.17-0.196,0.393-0.155,0.609l3.092,16.141c0.068,0.351,0.376,0.605,0.734,0.602
	l12.497-0.098c0.356-0.002,0.66-0.258,0.724-0.608l2.949-16.188C-453.518,84.894-453.579,84.669-453.72,84.5z"/>
<path class="st5" d="M-466.408,79.893L-466.408,79.893l-0.004-0.421l5.49-0.043l0.004,0.421L-466.408,79.893z M-452.671,81.303
	L-452.671,81.303l-2.025,0.016l-0.009-1.171c-0.001-0.091-0.038-0.18-0.103-0.244c-0.065-0.064-0.155-0.1-0.246-0.1l-4.467,0.035
	l-0.009-1.12c-0.002-0.184-0.077-0.363-0.209-0.492c-0.131-0.13-0.311-0.203-0.495-0.201l-6.887,0.054
	c-0.183,0.001-0.363,0.077-0.492,0.208c-0.129,0.131-0.202,0.312-0.2,0.496l0.009,1.12l-4.164,0.032
	c-0.091,0.001-0.18,0.039-0.243,0.104c-0.065,0.065-0.101,0.154-0.101,0.246l0.009,1.171l-2.197,0.017l0.017,2.225l21.829-0.17
	L-452.671,81.303z"/>
<path class="st8" d="M-466.408,79.893L-466.408,79.893l-0.004-0.421l5.49-0.043l0.004,0.421L-466.408,79.893z M-452.671,81.303
	L-452.671,81.303l-2.025,0.016l-0.009-1.171c-0.001-0.091-0.038-0.18-0.103-0.244c-0.065-0.064-0.155-0.1-0.246-0.1l-4.467,0.035
	l-0.009-1.12c-0.002-0.184-0.077-0.363-0.209-0.492c-0.131-0.13-0.311-0.203-0.495-0.201l-6.887,0.054
	c-0.183,0.001-0.363,0.077-0.492,0.208c-0.129,0.131-0.202,0.312-0.2,0.496l0.009,1.12l-4.164,0.032
	c-0.091,0.001-0.18,0.039-0.243,0.104c-0.065,0.065-0.101,0.154-0.101,0.246l0.009,1.171l-2.197,0.017l0.017,2.225l21.829-0.17
	L-452.671,81.303z"/>
<rect x="-474.511" y="78.015" class="st9" width="21.868" height="24"/>
<rect x="-133.582" y="-62.753" class="st10" width="34.924" height="19.551"/>
<g>
	<path class="st11" d="M-120.604-52.34v4.238h-0.884v-1.066c-0.416,0.702-1.222,1.132-2.354,1.132c-1.547,0-2.496-0.807-2.496-1.989
		c0-1.054,0.676-1.938,2.639-1.938h2.171v-0.416c0-1.17-0.663-1.807-1.938-1.807c-0.884,0-1.716,0.312-2.275,0.806l-0.416-0.688
		c0.689-0.585,1.703-0.924,2.782-0.924C-121.605-54.992-120.604-54.107-120.604-52.34z M-121.527-50.155v-1.118h-2.146
		c-1.326,0-1.755,0.52-1.755,1.222c0,0.793,0.637,1.287,1.729,1.287C-122.659-48.764-121.891-49.258-121.527-50.155z"/>
	<path class="st11" d="M-112.505-54.939v6.838h-0.884v-1.248c-0.481,0.832-1.365,1.313-2.458,1.313
		c-1.742,0-2.886-0.976-2.886-2.938v-3.965h0.923v3.874c0,1.456,0.754,2.197,2.054,2.197c1.43,0,2.327-0.924,2.327-2.483v-3.588
		H-112.505z"/>
	<path class="st11" d="M-111.206-48.882l0.416-0.728c0.546,0.429,1.469,0.767,2.431,0.767c1.3,0,1.833-0.441,1.833-1.118
		c0-1.78-4.433-0.377-4.433-3.081c0-1.118,0.962-1.95,2.704-1.95c0.884,0,1.846,0.247,2.418,0.638l-0.403,0.74
		c-0.598-0.416-1.313-0.585-2.015-0.585c-1.235,0-1.781,0.481-1.781,1.132c0,1.846,4.434,0.455,4.434,3.081
		c0,1.183-1.04,1.95-2.821,1.95C-109.555-48.036-110.647-48.4-111.206-48.882z"/>
</g>
<polygon class="st6" points="-133.332,-62.878 -133.332,-42.878 -133.332,-42.628 -133.082,-42.628 -64.233,-42.628 
	-63.983,-42.628 -63.983,-42.878 -63.983,-62.878 -63.983,-63.128 -64.233,-63.128 -133.082,-63.128 -133.332,-63.128 "/>
<rect x="-133.582" y="-63.378" class="st9" width="69.849" height="21"/>
<rect x="-537.979" y="143.953" class="st11" width="1014" height="21"/>
<path class="st3" d="M89.182,143.952c-2.209,0-4,1.791-4,4v12.382c0,2.209,1.791,4,4,4h77.131c2.209,0,4-1.791,4-4v-12.382
	c0-2.209-1.791-4-4-4H89.182z"/>
<rect x="-537.729" y="144.203" class="st12" width="1013.5" height="20.5"/>
<path class="st13" d="M459.877,146.812v1.481c0,0.397,0.187,0.771,0.505,1.009l6.367,4.762c0.258,0.194,0.258,0.583,0,0.776
	l-6.367,4.762c-0.318,0.238-0.505,0.612-0.505,1.01v1.48c0,0.41,0.467,0.644,0.795,0.399l10.111-7.563
	c0.318-0.237,0.318-0.714,0-0.952l-10.11-7.562C460.344,146.168,459.877,146.403,459.877,146.812"/>
<path class="st13" d="M-522.126,162.093v-1.481c0-0.397-0.187-0.771-0.505-1.009l-6.367-4.762c-0.258-0.194-0.258-0.583,0-0.776
	l6.367-4.762c0.318-0.238,0.505-0.612,0.505-1.01v-1.48c0-0.41-0.467-0.644-0.795-0.399l-10.111,7.563
	c-0.318,0.237-0.318,0.714,0,0.952l10.11,7.562C-522.593,162.737-522.126,162.502-522.126,162.093"/>
<rect x="-537.979" y="143.953" class="st9" width="1014" height="21"/>
<rect x="517.794" y="-100.593" class="st11" width="21" height="702.123"/>
<path class="st3" d="M517.794,313.369c0,2.209,1.791,4,4,4h12.382c2.209,0,4-1.791,4-4v-78.286c0-2.209-1.791-4-4-4h-12.382
	c-2.209,0-4,1.791-4,4V313.369z"/>
<rect x="518.044" y="-100.344" class="st12" width="20.5" height="701.624"/>
<path class="st13" d="M520.654-87.058h1.481c0.397,0,0.771-0.19,1.009-0.512l4.762-6.453c0.194-0.262,0.583-0.262,0.776,0
	l4.762,6.453c0.238,0.322,0.612,0.512,1.01,0.512h1.48c0.41,0,0.644-0.474,0.399-0.806l-7.563-10.248
	c-0.237-0.322-0.714-0.322-0.952,0l-7.562,10.248C520.01-87.532,520.245-87.058,520.654-87.058"/>
<path class="st13" d="M535.934,587.194h-1.481c-0.397,0-0.771,0.19-1.009,0.512l-4.762,6.453c-0.194,0.262-0.583,0.262-0.776,0
	l-4.762-6.453c-0.238-0.322-0.612-0.512-1.01-0.512h-1.48c-0.41,0-0.644,0.474-0.399,0.806l7.563,10.248
	c0.237,0.322,0.714,0.322,0.952,0L536.332,588C536.578,587.668,536.343,587.194,535.934,587.194"/>
<rect x="517.794" y="-100.594" class="st9" width="21" height="702.124"/>
<g>
	<g>
		<line class="st7" x1="-203.181" y1="22.386" x2="-216.198" y2="22.386"/>
		<line class="st7" x1="-203.181" y1="12.21" x2="-216.198" y2="12.21"/>
		<line class="st7" x1="-203.181" y1="17.298" x2="-216.198" y2="17.298"/>
		<g>
			<path class="st5" d="M-219.84,10.74v2.104h-0.487v-1.714h-0.421V10.74H-219.84z"/>
		</g>
		<g>
			<path class="st5" d="M-219.079,17.707v0.396h-1.59v-0.315l0.812-0.767c0.187-0.178,0.22-0.286,0.22-0.388
				c0-0.165-0.114-0.262-0.337-0.262c-0.18,0-0.333,0.069-0.436,0.21l-0.355-0.228c0.163-0.238,0.457-0.392,0.836-0.392
				c0.469,0,0.781,0.241,0.781,0.623c0,0.204-0.057,0.391-0.352,0.664l-0.484,0.457H-219.079z"/>
		</g>
		<g>
			<path class="st5" d="M-219.097,22.466c0,0.354-0.273,0.68-0.872,0.68c-0.295,0-0.599-0.081-0.803-0.226l0.189-0.373
				c0.159,0.121,0.382,0.189,0.601,0.189c0.244,0,0.394-0.099,0.394-0.271c0-0.159-0.117-0.258-0.394-0.258h-0.223v-0.322
				l0.433-0.49h-0.896v-0.391h1.473v0.316l-0.475,0.541C-219.289,21.922-219.097,22.157-219.097,22.466z"/>
		</g>
	</g>
	<polygon class="st6" points="-225.226,3.943 -225.226,29.943 -225.226,30.193 -224.976,30.193 -198.976,30.193 -198.726,30.193 
		-198.726,29.943 -198.726,3.943 -198.726,3.693 -198.976,3.693 -224.976,3.693 -225.226,3.693 	"/>
</g>
<polygon class="st6" points="-287.059,3.943 -287.059,29.943 -287.059,30.193 -286.809,30.193 -260.809,30.193 -260.559,30.193 
	-260.559,29.943 -260.559,3.943 -260.559,3.693 -260.809,3.693 -286.809,3.693 -287.059,3.693 "/>
<g>
	<polygon class="st6" points="-256.717,3.943 -256.717,29.943 -256.717,30.193 -256.467,30.193 -230.467,30.193 -230.217,30.193 
		-230.217,29.943 -230.217,3.943 -230.217,3.693 -230.467,3.693 -256.467,3.693 -256.717,3.693 	"/>
	<path class="st7" d="M-235.185,22.068h-13.016 M-235.185,16.935h-13.016 M-235.185,11.803h-13.016"/>
	<path class="st5" d="M-250.287,17.52c0.161-0.156,0.241-0.349,0.241-0.581c0-0.15-0.037-0.288-0.11-0.414
		c-0.073-0.125-0.172-0.224-0.297-0.297c-0.126-0.073-0.264-0.11-0.415-0.11c-0.15,0-0.288,0.037-0.41,0.11
		s-0.221,0.172-0.294,0.297c-0.072,0.126-0.11,0.264-0.11,0.414c0,0.232,0.08,0.425,0.238,0.581c0.157,0.156,0.35,0.234,0.576,0.234
		C-250.641,17.754-250.448,17.676-250.287,17.52"/>
	<path class="st5" d="M-250.864,12.885c0.489,0,0.885-0.396,0.885-0.885c0-0.488-0.396-0.885-0.885-0.885
		c-0.488,0-0.885,0.397-0.885,0.885C-251.749,12.489-251.352,12.885-250.864,12.885"/>
	<path class="st5" d="M-250.287,22.537c0.161-0.156,0.241-0.349,0.241-0.581c0-0.15-0.037-0.288-0.11-0.414
		c-0.073-0.125-0.172-0.224-0.297-0.297c-0.126-0.073-0.264-0.11-0.415-0.11c-0.15,0-0.288,0.037-0.41,0.11
		s-0.221,0.172-0.294,0.297c-0.072,0.126-0.11,0.264-0.11,0.414c0,0.232,0.08,0.425,0.238,0.581c0.157,0.156,0.35,0.234,0.576,0.234
		C-250.641,22.771-250.448,22.693-250.287,22.537"/>
</g>
<path class="st7" d="M-265.527,22.075h-13.016 M-265.527,16.942h-13.016 M-265.527,11.81h-13.016"/>
<rect x="-282.091" y="11.041" class="st5" width="1.77" height="1.77"/>
<rect x="-282.091" y="16.057" class="st5" width="1.77" height="1.77"/>
<rect x="-282.091" y="21.075" class="st5" width="1.77" height="1.77"/>
<rect x="56.431" y="-63.846" class="st2" width="245" height="57.75"/>
<text transform="matrix(1 0 0 1 131.1287 -37.651)"><tspan x="0" y="0" class="st5" style="font-family:'Montserrat-Regular'; font-size:13px;">N</tspan><tspan x="10.478" y="0" class="st5" style="font-family:'Montserrat-Regular'; font-size:13px;">e</tspan><tspan x="18.135" y="0" class="st5" style="font-family:'Montserrat-Regular'; font-size:13px;">u</tspan><tspan x="26.753" y="0" class="st5" style="font-family:'Montserrat-Regular'; font-size:13px;">e </tspan><tspan x="38.011" y="0" class="st5" style="font-family:'Montserrat-Regular'; font-size:13px; letter-spacing:-1;">T</tspan><tspan x="44.381" y="0" class="st5" style="font-family:'Montserrat-Regular'; font-size:13px;">e</tspan><tspan x="51.882" y="0" class="st5" style="font-family:'Montserrat-Regular'; font-size:13px;">x</tspan><tspan x="59.097" y="0" class="st5" style="font-family:'Montserrat-Regular'; font-size:13px;">t</tspan><tspan x="64.128" y="0" class="st5" style="font-family:'Montserrat-Regular'; font-size:13px;">b</tspan><tspan x="72.942" y="0" class="st5" style="font-family:'Montserrat-Regular'; font-size:13px;">o</tspan><tspan x="80.742" y="0" class="st5" style="font-family:'Montserrat-Regular'; font-size:13px;">x </tspan></text>
<path class="st14" d="M178.931-15.888c3.707,0,6.713-3.005,6.713-6.712c0-3.708-3.006-6.713-6.713-6.713s-6.712,3.005-6.712,6.713
	C172.219-18.893,175.224-15.888,178.931-15.888z"/>
<rect x="56.431" y="-63.846" class="st9" width="245" height="57.75"/>
<line class="st15" x1="178.931" y1="-26.134" x2="178.931" y2="-19.065"/>
<line class="st15" x1="175.397" y1="-22.569" x2="182.465" y2="-22.569"/>
<path class="st14" d="M67.97,23.948c3.707,0,6.713-3.005,6.713-6.712c0-3.708-3.006-6.713-6.713-6.713
	c-3.707,0-6.712,3.005-6.712,6.713C61.258,20.943,64.263,23.948,67.97,23.948z"/>
<line class="st15" x1="67.97" y1="13.701" x2="67.97" y2="20.77"/>
<line class="st15" x1="64.435" y1="17.267" x2="71.503" y2="17.267"/>
<g>
	<path class="st16" d="M-427.923,39.083h-3.138v-1.85h8.544v1.85h-3.138v7.956h-2.269V39.083z"/>
	<path class="st16" d="M-421.302,37.233h2.269v9.806h-2.269V37.233z"/>
	<path class="st16" d="M-408.208,40.792c0,2.185-1.639,3.544-4.258,3.544h-1.975v2.703h-2.269v-9.806h4.244
		C-409.847,37.233-408.208,38.593-408.208,40.792z M-410.505,40.792c0-1.079-0.701-1.709-2.087-1.709h-1.849v3.403h1.849
		C-411.205,42.486-410.505,41.856-410.505,40.792z"/>
	<path class="st16" d="M-398.086,40.792c0,2.185-1.639,3.544-4.258,3.544h-1.975v2.703h-2.269v-9.806h4.244
		C-399.724,37.233-398.086,38.593-398.086,40.792z M-400.383,40.792c0-1.079-0.701-1.709-2.087-1.709h-1.849v3.403h1.849
		C-401.083,42.486-400.383,41.856-400.383,40.792z"/>
</g>
<path class="st16" d="M-464.55,32.762L-464.55,32.762c-1.054,2.474-1.96,4.602-2.889,6.784h5.729
	C-462.654,37.29-463.536,35.182-464.55,32.762 M-461.057,50.352L-461.057,50.352c-0.346-1.15-0.211-1.759,1.044-1.8
	c0.976-0.033,1.343-0.74,1.02-1.64c-0.507-1.414-1.072-2.81-1.681-4.183c-0.109-0.245-0.55-0.478-0.843-0.484
	c-2.129-0.041-4.261-0.046-6.39,0.005c-0.305,0.008-0.741,0.315-0.877,0.599c-0.558,1.155-1.057,2.342-1.512,3.542
	c-0.57,1.504-0.268,2.026,1.348,2.192c0.783,0.081,1.206,0.319,1.022,1.126c-0.056,0.243-0.355,0.61-0.547,0.613
	c-2.524,0.042-5.049,0.028-7.596,0.028c-0.214-0.956-0.321-1.631,0.868-1.885c0.569-0.122,1.219-0.609,1.515-1.117
	c0.755-1.293,1.377-2.67,1.972-4.049c2.401-5.559,4.761-11.135,7.172-16.689c0.173-0.398,0.634-0.67,0.96-1
	c0.319,0.343,0.766,0.632,0.937,1.037c2.56,6.048,5.079,12.114,7.622,18.17c0.326,0.776,0.705,1.534,1.106,2.275
	c0.507,0.939,1.332,1.389,2.379,1.595c0.265,0.052,0.519,0.638,0.586,1.013c0.032,0.175-0.39,0.621-0.611,0.624
	C-454.715,50.365-457.868,50.352-461.057,50.352"/>
<path class="st5" d="M-367.312,42.814c2.682-0.014,4.762-2.036,4.751-4.621c-0.01-2.367-2.203-4.406-4.733-4.399
	c-2.703,0.008-4.848,2.038-4.825,4.568C-372.096,40.826-369.936,42.827-367.312,42.814 M-361.757,42.827L-361.757,42.827
	c0.393-0.231,0.569-0.207,0.91,0.115c1.249,1.181,2.501,2.361,3.751,3.541c0.086,0.08,0.173,0.159,0.252,0.246
	c0.216,0.237,0.217,0.464-0.012,0.692c-0.249,0.248-0.509,0.488-0.767,0.727c-0.302,0.28-0.548,0.287-0.855,0
	c-1.177-1.103-2.348-2.211-3.522-3.318c-0.132-0.124-0.263-0.25-0.396-0.373c-0.368-0.34-0.394-0.487-0.153-0.896
	c-0.368-0.336-0.737-0.673-1.128-1.029c-1.472,1.07-3.153,1.471-5.011,1.06c-1.415-0.313-2.544-1.054-3.377-2.178
	c-1.65-2.23-1.286-5.335,0.823-7.11c2.222-1.87,5.521-1.904,7.68-0.117c2.217,1.835,2.765,5.106,0.696,7.583
	C-362.496,42.123-362.127,42.474-361.757,42.827"/>
<path class="st17" d="M-367.312,42.814c2.682-0.014,4.762-2.036,4.751-4.621c-0.01-2.367-2.203-4.406-4.733-4.399
	c-2.703,0.008-4.848,2.038-4.825,4.568C-372.096,40.826-369.936,42.827-367.312,42.814z M-361.757,42.827L-361.757,42.827
	c0.393-0.231,0.569-0.207,0.91,0.115c1.249,1.181,2.501,2.361,3.751,3.541c0.086,0.08,0.173,0.159,0.252,0.246
	c0.216,0.237,0.217,0.464-0.012,0.692c-0.249,0.248-0.509,0.488-0.767,0.727c-0.302,0.28-0.548,0.287-0.855,0
	c-1.177-1.103-2.348-2.211-3.522-3.318c-0.132-0.124-0.263-0.25-0.396-0.373c-0.368-0.34-0.394-0.487-0.153-0.896
	c-0.368-0.336-0.737-0.673-1.128-1.029c-1.472,1.07-3.153,1.471-5.011,1.06c-1.415-0.313-2.544-1.054-3.377-2.178
	c-1.65-2.23-1.286-5.335,0.823-7.11c2.222-1.87,5.521-1.904,7.68-0.117c2.217,1.835,2.765,5.106,0.696,7.583
	C-362.496,42.123-362.127,42.474-361.757,42.827z"/>
<path class="st5" d="M-303.598,33.233l2.966,2.98v-2.758c0-0.096-0.055-0.229-0.123-0.297l-3.807-3.826
	c-0.068-0.067-0.178-0.067-0.245,0l-3.93,3.949v2.758c0,0.096,0.055,0.119,0.122,0.051l2.844-2.857
	c0.068-0.068,0.122-0.046,0.122,0.05v7.829h0v2.168c0,0.096-0.055,0.118-0.123,0.05l-2.966-2.98v2.758
	c0,0.096,0.055,0.229,0.123,0.297l3.807,3.826c0.068,0.067,0.178,0.067,0.245,0l3.93-3.949v-2.758c0-0.096-0.055-0.119-0.122-0.051
	l-2.844,2.857c-0.068,0.068-0.122,0.046-0.122-0.05v-7.829h0v-2.168C-303.721,33.187-303.666,33.165-303.598,33.233z"/>
<line class="st18" x1="-339.737" y1="46.469" x2="-311.904" y2="46.469"/>
<line class="st18" x1="-339.737" y1="38.174" x2="-311.904" y2="38.174"/>
<line class="st18" x1="-339.737" y1="30.181" x2="-311.904" y2="30.181"/>
<line class="st18" x1="-325.395" y1="65.441" x2="-325.395" y2="86.441"/>
<path class="st5" d="M-317.935,79.284L-317.935,79.284h2.695l-2.603-2.569c-0.138-0.135-0.093-0.245,0.101-0.245h7.006v-1.407
	c0-0.193-0.157-0.35-0.35-0.35h-6.656c-0.194,0-0.239-0.11-0.101-0.246l2.603-2.569h-2.345c-0.193,0-0.462,0.111-0.599,0.246
	l-3.245,3.201c-0.137,0.136-0.137,0.356,0,0.492L-317.935,79.284z"/>
<path class="st5" d="M-333.705,72.072L-333.705,72.072h-2.695l2.603,2.569c0.138,0.135,0.093,0.245-0.101,0.245h-7.006v1.407
	c0,0.193,0.157,0.35,0.35,0.35h6.656c0.194,0,0.239,0.11,0.101,0.246l-2.603,2.569h2.345c0.193,0,0.462-0.111,0.599-0.246
	l3.245-3.201c0.137-0.136,0.137-0.356,0-0.492L-333.705,72.072z"/>
<line class="st19" x1="-9.109" y1="-53.672" x2="-45.132" y2="-53.672"/>
<path class="st20" d="M-17.612-50.526c2.045,0,3.703-1.658,3.703-3.703c0-2.045-1.658-3.703-3.703-3.703s-3.703,1.658-3.703,3.703
	C-21.315-52.184-19.657-50.526-17.612-50.526"/>
<g>
	<path class="st5" d="M5.587-53.471c0,3.12-1.82,4.836-4.459,4.836c-0.91,0-1.781-0.195-2.392-0.585l0.624-1.274
		c0.494,0.325,1.092,0.442,1.729,0.442c1.716,0,2.795-1.066,2.795-3.133v-0.014c-0.546,0.638-1.417,0.949-2.431,0.949
		c-1.794,0-3.133-1.092-3.133-2.795c0-1.807,1.469-2.951,3.328-2.951C4.131-57.995,5.587-56.396,5.587-53.471z M3.624-55.135
		c0-0.858-0.676-1.534-1.885-1.534c-1.053,0-1.781,0.598-1.781,1.547s0.715,1.547,1.82,1.547C2.87-53.575,3.624-54.238,3.624-55.135
		z"/>
	<path class="st5" d="M13.452-51.56c0,1.599-1.157,2.925-3.602,2.925c-1.287,0-2.587-0.39-3.419-1.053l0.715-1.313
		c0.663,0.546,1.651,0.897,2.678,0.897c1.209,0,1.924-0.533,1.924-1.392c0-0.871-0.559-1.417-2.444-1.417H7.108l0.468-4.953h5.343
		v1.417H9.006l-0.195,2.106h0.871C12.373-54.342,13.452-53.172,13.452-51.56z"/>
	<path class="st5" d="M17.872-55.46c0-1.495,0.871-2.496,2.171-2.496s2.184,0.988,2.184,2.496s-0.884,2.496-2.184,2.496
		S17.872-53.965,17.872-55.46z M21.161-55.46c0-1.014-0.416-1.586-1.118-1.586c-0.676,0-1.118,0.585-1.118,1.586
		s0.442,1.586,1.118,1.586C20.745-53.874,21.161-54.446,21.161-55.46z M25.503-57.865h1.274l-6.214,9.101h-1.274L25.503-57.865z
		 M23.839-51.17c0-1.495,0.871-2.496,2.171-2.496c1.3,0,2.184,1.001,2.184,2.496s-0.884,2.496-2.184,2.496
		C24.71-48.674,23.839-49.675,23.839-51.17z M27.128-51.17c0-1.001-0.429-1.586-1.118-1.586s-1.118,0.572-1.118,1.586
		c0,1.015,0.429,1.586,1.118,1.586S27.128-50.169,27.128-51.17z"/>
</g>
<rect x="-31.172" y="0.471" class="st11" width="13.149" height="16.764"/>
<polygon class="st21" points="-31.172,17.235 -31.172,17.235 -18.023,17.235 -18.023,0.471 -31.172,0.471 "/>
<rect x="-38.844" y="0" class="st9" width="21.291" height="24"/>
<line class="st22" x1="-34.346" y1="8.166" x2="-34.346" y2="18.553"/>
<line class="st23" x1="-31.715" y1="20.442" x2="-22.066" y2="20.442"/>
<path class="st21" d="M-21.189,20.442h0.877 M-34.346,19.498v0.944h0.877 M-34.346,5.333v0.944"/>
<polyline class="st21" points="-38.373,8.422 -38.373,23.53 -24.339,23.53 "/>
<rect x="-38.844" y="0" class="st9" width="21.291" height="24"/>
<rect x="0.402" y="0.402" class="st11" width="14.674" height="18.705"/>
<polygon class="st24" points="0.402,19.107 0.402,19.107 15.075,19.107 15.075,0.402 0.402,0.402 "/>
<rect y="0" class="st9" width="19.884" height="24"/>
<rect x="4.809" y="4.893" class="st5" width="14.674" height="18.705"/>
<polygon class="st25" points="4.809,23.598 4.809,23.598 19.482,23.598 19.482,4.893 4.809,4.893 "/>
<rect y="0" class="st9" width="19.884" height="24"/>
<rect x="-98.491" y="3.949" class="st10" width="34.924" height="19.551"/>
<text transform="matrix(1 0 0 1 -91.4903 18.6005)"><tspan x="0" y="0" class="st11" style="font-family:'Montserrat-Regular'; font-size:13px;">e</tspan><tspan x="7.41" y="0" class="st11" style="font-family:'Montserrat-Regular'; font-size:13px;">i</tspan><tspan x="10.335" y="0" class="st11" style="font-family:'Montserrat-Regular'; font-size:13px;">n</tspan></text>
<polygon class="st6" points="-133.499,3.824 -133.499,23.824 -133.499,24.074 -133.249,24.074 -64.4,24.074 -64.15,24.074 
	-64.15,23.824 -64.15,3.824 -64.15,3.574 -64.4,3.574 -133.249,3.574 -133.499,3.574 "/>
<rect x="-133.749" y="3.324" class="st9" width="70.183" height="21"/>
<line class="st26" x1="7.565" y1="93.463" x2="7.565" y2="117.723"/>
<path class="st5" d="M15.663,109.282L15.663,109.282h2.592l-2.494-2.46c-0.138-0.135-0.093-0.245,0.101-0.245h6.725v-1.339
	c0-0.193-0.157-0.35-0.35-0.35h-6.725l2.743-2.705h-2.242c-0.193,0-0.462,0.11-0.599,0.245l-3.102,3.059
	c-0.137,0.135-0.137,0.355,0,0.491L15.663,109.282z"/>
<line class="st26" x1="-19.38" y1="117.556" x2="-19.38" y2="93.296"/>
<path class="st5" d="M-27.477,101.738L-27.477,101.738h-2.592l2.494,2.46c0.138,0.135,0.093,0.245-0.101,0.245h-6.725v1.339
	c0,0.193,0.157,0.35,0.35,0.35h6.725l-2.743,2.705h2.242c0.193,0,0.462-0.11,0.599-0.245l3.102-3.059
	c0.137-0.135,0.137-0.355,0-0.491L-27.477,101.738z"/>
<line class="st26" x1="-209.122" y1="101.335" x2="-184.862" y2="101.335"/>
<path class="st5" d="M-193.471,93.277L-193.471,93.277v-2.592l-2.46,2.494c-0.135,0.138-0.245,0.093-0.245-0.101v-6.725h-1.339
	c-0.193,0-0.35,0.157-0.35,0.35v6.725l-2.705-2.743v2.242c0,0.193,0.11,0.462,0.245,0.599l3.059,3.102
	c0.135,0.137,0.355,0.137,0.491,0L-193.471,93.277z"/>
<path class="st5" d="M-200.403,108.429L-200.403,108.429v2.592l2.46-2.494c0.135-0.138,0.245-0.093,0.245,0.101v6.725h1.339
	c0.193,0,0.35-0.157,0.35-0.35v-6.725l2.705,2.743v-2.242c0-0.193-0.11-0.462-0.245-0.599l-3.059-3.102
	c-0.135-0.137-0.355-0.137-0.491,0L-200.403,108.429z"/>
<line class="st26" x1="-152.676" y1="114.145" x2="-152.676" y2="89.885"/>
<path class="st5" d="M-160.733,98.494L-160.733,98.494h-2.592l2.494,2.46c0.138,0.135,0.093,0.245-0.101,0.245h-6.725v1.339
	c0,0.193,0.157,0.35,0.35,0.35h6.725l-2.743,2.705h2.242c0.193,0,0.462-0.11,0.599-0.245l3.102-3.059
	c0.137-0.135,0.137-0.355,0-0.491L-160.733,98.494z"/>
<path class="st5" d="M-145.581,105.426L-145.581,105.426h2.592l-2.494-2.46c-0.138-0.135-0.093-0.245,0.101-0.245h6.725v-1.339
	c0-0.193-0.157-0.35-0.35-0.35h-6.725l2.743-2.705h-2.242c-0.193,0-0.462,0.11-0.599,0.245l-3.102,3.059
	c-0.137,0.135-0.137,0.355,0,0.491L-145.581,105.426z"/>
<line class="st26" x1="-120.534" y1="101.618" x2="-96.274" y2="101.618"/>
<path class="st5" d="M-111.815,108.712L-111.815,108.712v2.592l2.46-2.494c0.135-0.138,0.245-0.093,0.245,0.101v6.725h1.339
	c0.193,0,0.35-0.157,0.35-0.35v-6.725l2.705,2.743v-2.242c0-0.193-0.11-0.462-0.245-0.599l-3.059-3.102
	c-0.135-0.137-0.355-0.137-0.491,0L-111.815,108.712z"/>
<line class="st26" x1="-75.423" y1="112.873" x2="-51.163" y2="112.873"/>
<path class="st5" d="M-59.605,104.485L-59.605,104.485v-2.592l-2.46,2.494c-0.135,0.138-0.245,0.093-0.245-0.101v-6.725h-1.339
	c-0.193,0-0.35,0.157-0.35,0.35v6.725l-2.705-2.743v2.242c0,0.193,0.11,0.462,0.245,0.599l3.059,3.102
	c0.135,0.137,0.355,0.137,0.491,0L-59.605,104.485z"/>
<rect x="70.441" y="85.947" class="st11" width="15.769" height="20.056"/>
<line class="st27" x1="73.398" y1="106.003" x2="84.239" y2="106.003"/>
<line class="st28" x1="86.21" y1="102.995" x2="86.21" y2="87.953"/>
<line class="st27" x1="83.253" y1="85.947" x2="72.412" y2="85.947"/>
<line class="st28" x1="70.441" y1="88.956" x2="70.441" y2="103.998"/>
<path class="st21" d="M70.44,105v1.003h0.986 M71.426,85.947H70.44v1.003 M86.209,86.95v-1.003h-0.985 M85.224,106.003h0.985V105"/>
<polygon class="st11" points="59.205,116.003 59.205,116.003 74.974,116.003 74.974,95.947 59.205,95.947 "/>
<line class="st27" x1="62.162" y1="116.003" x2="73.003" y2="116.003"/>
<line class="st28" x1="74.974" y1="112.995" x2="74.974" y2="97.953"/>
<line class="st27" x1="72.017" y1="95.947" x2="61.176" y2="95.947"/>
<line class="st28" x1="59.205" y1="98.956" x2="59.205" y2="113.998"/>
<path class="st21" d="M59.204,115v1.003h0.986 M60.19,95.947h-0.986v1.003 M74.973,96.95v-1.003h-0.985 M73.988,116.003h0.985V115"
	/>
<polygon class="st11" points="49.731,124.003 49.731,124.003 65.5,124.003 65.5,103.947 49.731,103.947 "/>
<polygon class="st21" points="49.731,124.003 49.731,124.003 65.5,124.003 65.5,103.947 49.731,103.947 "/>
<g>
	<polygon class="st11" points="123.567,110.309 123.567,110.309 139.336,110.309 139.336,90.253 123.567,90.253 	"/>
	<polygon class="st21" points="123.567,110.309 123.567,110.309 139.336,110.309 139.336,90.253 123.567,90.253 	"/>
	<line class="st29" x1="119.803" y1="98.808" x2="119.803" y2="112.312"/>
	<line class="st30" x1="122.94" y1="114.112" x2="134.443" y2="114.112"/>
	<path class="st21" d="M135.488,114.112h1.046 M119.803,113.212v0.9h1.046 M119.803,96.107v0.9"/>
</g>
<g>
	<g>
		<rect x="196.107" y="78.532" class="st11" width="15.769" height="20.056"/>
		<polygon class="st21" points="196.107,98.589 196.107,98.589 211.876,98.589 211.876,78.533 196.107,78.533 		"/>
		<polygon class="st11" points="184.871,108.589 184.871,108.589 200.64,108.589 200.64,88.533 184.871,88.533 		"/>
		<line class="st27" x1="187.828" y1="108.589" x2="198.669" y2="108.589"/>
		<line class="st28" x1="200.64" y1="105.58" x2="200.64" y2="90.538"/>
		<line class="st27" x1="197.683" y1="88.533" x2="186.842" y2="88.533"/>
		<line class="st28" x1="184.871" y1="91.541" x2="184.871" y2="106.583"/>
		<path class="st21" d="M184.87,107.586v1.003h0.986 M185.856,88.533h-0.986v1.003 M200.639,89.536v-1.003h-0.985 M199.654,108.589
			h0.985v-1.003"/>
		<polygon class="st11" points="175.397,116.589 175.397,116.589 191.166,116.589 191.166,96.533 175.397,96.533 		"/>
		<line class="st27" x1="178.354" y1="116.589" x2="189.195" y2="116.589"/>
		<line class="st28" x1="191.166" y1="113.58" x2="191.166" y2="98.538"/>
		<line class="st27" x1="188.21" y1="96.533" x2="177.369" y2="96.533"/>
		<line class="st28" x1="175.397" y1="99.541" x2="175.397" y2="114.583"/>
		<path class="st21" d="M175.397,115.586v1.003h0.986 M176.383,96.533h-0.986v1.003 M191.166,97.536v-1.003h-0.985 M190.181,116.589
			h0.985v-1.003"/>
	</g>
	<line class="st27" x1="251.521" y1="112.074" x2="262.362" y2="112.074"/>
	<line class="st28" x1="264.333" y1="109.065" x2="264.333" y2="94.023"/>
	<line class="st27" x1="261.376" y1="92.018" x2="250.535" y2="92.018"/>
	<line class="st28" x1="248.564" y1="95.026" x2="248.564" y2="110.068"/>
	<path class="st21" d="M248.563,111.071v1.003h0.986 M249.549,92.018h-0.986v1.003 M264.332,93.021v-1.003h-0.985 M263.347,112.074
		h0.985v-1.003"/>
	<polyline class="st21" points="244.799,97.872 244.799,115.877 261.53,115.877 	"/>
</g>
<g>
	<defs>
		<rect id="SVGID_1_" x="-510.475" y="205.91" width="241.682" height="1"/>
	</defs>
	<clipPath id="SVGID_00000024679920690922853720000002472245154716445366_">
		<use xlink:href="#SVGID_1_"  style="overflow:visible;"/>
	</clipPath>
	
		<line style="clip-path:url(#SVGID_00000024679920690922853720000002472245154716445366_);fill:none;stroke:#B2B2B2;stroke-linecap:round;stroke-linejoin:round;stroke-dasharray:0,3.009;" x1="-506.967" y1="206.41" x2="-270.797" y2="206.41"/>
	
		<path style="clip-path:url(#SVGID_00000024679920690922853720000002472245154716445366_);fill:none;stroke:#B2B2B2;stroke-linecap:round;stroke-linejoin:round;" d="
		M-269.293,206.41L-269.293,206.41 M-509.975,206.41L-509.975,206.41"/>
</g>
<circle class="st33" cx="-463.577" cy="-14.801" r="12.75"/>
<polygon class="st3" points="-320.184,-29.825 -333.184,-29.825 -326.816,-19.35 "/>
<polygon class="st5" points="-312.161,98.717 -322.636,105.085 -312.161,111.717 "/>
<polygon class="st5" points="-341.208,111.717 -330.733,105.349 -341.208,98.717 "/>
<polygon class="st5" points="-258.655,98.717 -269.13,105.085 -258.655,111.717 "/>
<polygon class="st5" points="-293.831,111.717 -283.356,105.349 -293.831,98.717 "/>
<rect x="-133.582" y="-29.814" class="st10" width="34.924" height="19.551"/>
<polygon class="st6" points="-133.332,-29.939 -133.332,-9.939 -133.332,-9.689 -133.082,-9.689 -64.233,-9.689 -63.983,-9.689 
	-63.983,-9.939 -63.983,-29.939 -63.983,-30.189 -64.233,-30.189 -133.082,-30.189 -133.332,-30.189 "/>
<rect x="-133.582" y="-30.439" class="st9" width="69.849" height="21"/>
<rect x="-98.218" y="36.215" class="st10" width="34.924" height="19.551"/>
<polygon class="st6" points="-133.226,36.09 -133.226,56.09 -133.226,56.34 -132.976,56.34 -64.127,56.34 -63.877,56.34 
	-63.877,56.09 -63.877,36.09 -63.877,35.84 -64.127,35.84 -132.976,35.84 -133.226,35.84 "/>
<rect x="-133.476" y="35.59" class="st9" width="70.183" height="21"/>
<line class="st19" x1="-10.187" y1="-33.884" x2="-46.21" y2="-33.884"/>
<path class="st20" d="M-18.69-30.738c2.045,0,3.703-1.658,3.703-3.703s-1.658-3.703-3.703-3.703s-3.703,1.658-3.703,3.703
	S-20.735-30.738-18.69-30.738"/>
<line class="st19" x1="298.138" y1="-3.105" x2="262.115" y2="-3.105"/>
<path class="st20" d="M289.635,0.041c2.045,0,3.703-1.658,3.703-3.703s-1.658-3.703-3.703-3.703c-2.045,0-3.703,1.658-3.703,3.703
	S287.59,0.041,289.635,0.041"/>
</svg>
