<?xml version="1.0" encoding="utf-8"?>
<!-- Generator: Adobe Illustrator 26.0.3, SVG Export Plug-In . SVG Version: 6.00 Build 0)  -->
<svg version="1.1" id="Ebene_1" xmlns="http://www.w3.org/2000/svg" xmlns:xlink="http://www.w3.org/1999/xlink" x="0px" y="0px"
	 width="37.42px" height="38.997px" viewBox="0 0 37.42 38.997" style="enable-background:new 0 0 37.42 38.997;"
	 xml:space="preserve">
<style type="text/css">
	.st0{fill:none;stroke:#C5C5C5;stroke-width:3;stroke-linecap:round;stroke-linejoin:round;}
	.st1{fill:#FFAEFF;stroke:#4F4D4D;stroke-width:0.5;}
	.st2{fill:#F8F8F8;}
	.st3{fill:#0E689A;}
	.st4{fill:none;stroke:#B2B1B1;stroke-width:0.65;stroke-miterlimit:10;}
	.st5{fill:#B2B1B1;}
	.st6{fill:none;stroke:#B2B2B2;stroke-width:0.5;stroke-miterlimit:10;}
	.st7{fill:none;stroke:#B2B1B1;stroke-width:0.3;stroke-miterlimit:10;}
	.st8{fill:none;stroke:#FFFFFF;stroke-width:0.021;}
	.st9{fill:none;}
	.st10{fill:#0E6899;}
	.st11{fill:#FFFFFF;}
	.st12{fill:none;stroke:#C5C5C5;stroke-width:0.5;stroke-linecap:round;stroke-linejoin:round;}
	.st13{fill:#C5C5C5;}
	.st14{fill:none;stroke:#B2B1B1;stroke-width:0.5;}
	.st15{fill:none;stroke:#B2B1B1;stroke-width:1.2;}
	.st16{fill:#B2B2B2;}
	.st17{fill:none;stroke:#FFFFFF;stroke-width:0.001;}
	.st18{fill:none;stroke:#B2B1B1;stroke-width:1.712;}
	.st19{fill:none;stroke:#B2B1B1;stroke-width:2;}
	.st20{fill:#AD5E7A;}
	.st21{fill:none;stroke:#B2B1B1;stroke-width:0.941;}
	.st22{fill:none;stroke:#B2B1B1;stroke-width:0.941;stroke-dasharray:1.889,1.889;}
	.st23{fill:none;stroke:#B2B1B1;stroke-width:0.941;stroke-dasharray:1.754,1.754;}
	.st24{fill:none;stroke:#B2B1B1;stroke-width:0.804;}
	.st25{fill:none;stroke:#FFFFFF;stroke-width:0.804;}
	.st26{fill:none;stroke:#B2B1B1;stroke-width:2.5;}
	.st27{fill:none;stroke:#B2B1B1;stroke-width:0.941;stroke-dasharray:1.971,1.971;}
	.st28{fill:none;stroke:#B2B1B1;stroke-width:0.941;stroke-dasharray:2.006,2.006;}
	.st29{fill:none;stroke:#B2B1B1;stroke-width:0.941;stroke-dasharray:1.801,1.801;}
	.st30{fill:none;stroke:#B2B1B1;stroke-width:0.941;stroke-dasharray:2.091,2.091;}
	
		.st31{clip-path:url(#SVGID_00000119115457556329163880000004034695410995112124_);fill:none;stroke:#B2B2B2;stroke-linecap:round;stroke-linejoin:round;stroke-dasharray:0,3.009;}
	
		.st32{clip-path:url(#SVGID_00000119115457556329163880000004034695410995112124_);fill:none;stroke:#B2B2B2;stroke-linecap:round;stroke-linejoin:round;}
	.st33{fill:none;stroke:#4F4D4D;stroke-width:0.5;}
</style>
<polyline class="st0" points="1353.39,833.792 1347.14,824.792 1340.39,833.792 "/>
<circle class="st1" cx="-638.503" cy="-128.956" r="12.75"/>
<rect x="-606.043" y="-139.971" class="st2" width="119.902" height="21"/>
<polygon class="st3" points="-495.213,-134.708 -508.213,-134.708 -501.845,-124.233 "/>
<g>
	<g>
		<line class="st4" x1="-382.201" y1="-122.451" x2="-371.918" y2="-122.451"/>
		<g>
			<path class="st5" d="M-380.914-127.676v-5.175h1.3v5.122c0,2.016,0.923,2.926,2.561,2.926c1.638,0,2.574-0.91,2.574-2.926v-5.122
				h1.261v5.175c0,2.639-1.443,4.029-3.848,4.029C-379.458-123.647-380.914-125.037-380.914-127.676z"/>
		</g>
	</g>
	<polygon class="st6" points="-390.31,-140.651 -390.31,-114.651 -390.31,-114.401 -390.06,-114.401 -364.06,-114.401 
		-363.81,-114.401 -363.81,-114.651 -363.81,-140.651 -363.81,-140.901 -364.06,-140.901 -390.06,-140.901 -390.31,-140.901 	"/>
</g>
<g>
	<g>
		<path class="st5" d="M-411.663-132.577h1.3l-1.82,9.101h-1.3L-411.663-132.577z"/>
	</g>
	<polygon class="st6" points="-425.174,-141.027 -425.174,-115.027 -425.174,-114.777 -424.924,-114.777 -398.924,-114.777 
		-398.674,-114.777 -398.674,-115.027 -398.674,-141.027 -398.674,-141.277 -398.924,-141.277 -424.924,-141.277 -425.174,-141.277 
			"/>
</g>
<g>
	<g>
		<path class="st5" d="M-444.812-125.908c0,1.573-1.248,2.483-3.64,2.483h-4.706v-9.101h4.446c2.275,0,3.445,0.949,3.445,2.366
			c0,0.91-0.468,1.612-1.209,2.002C-445.462-127.832-444.812-127.052-444.812-125.908z M-451.065-130.94v2.146h2.093
			c1.027,0,1.586-0.364,1.586-1.079s-0.559-1.066-1.586-1.066H-451.065z M-446.931-126.129c0-0.767-0.585-1.131-1.677-1.131h-2.457
			v2.249h2.457C-447.516-125.011-446.931-125.349-446.931-126.129z"/>
	</g>
	<polygon class="st6" points="-462.235,-140.975 -462.235,-114.975 -462.235,-114.725 -461.985,-114.725 -435.985,-114.725 
		-435.735,-114.725 -435.735,-114.975 -435.735,-140.975 -435.735,-141.225 -435.985,-141.225 -461.985,-141.225 -462.235,-141.225 
			"/>
</g>
<path class="st7" d="M-408.047-99.022"/>
<path class="st7" d="M-410.555-97.768"/>
<path class="st7" d="M-410.555-96.514"/>
<path class="st7" d="M-410.555-95.259"/>
<path class="st7" d="M-408.047-94.006"/>
<path class="st7" d="M-408.047-92.752"/>
<path class="st7" d="M-410.555-91.498"/>
<path class="st7" d="M-410.555-88.99"/>
<path class="st7" d="M-408.047-86.482"/>
<g>
	<path class="st7" d="M-427.511-94.006"/>
	<path class="st7" d="M-427.511-99.022"/>
	<path class="st7" d="M-427.511-86.482"/>
	<path class="st7" d="M-427.511-92.752"/>
	<g>
		<path class="st7" d="M-425.449-91.498"/>
		<path class="st7" d="M-425.449-95.259"/>
		<path class="st7" d="M-425.449-96.514"/>
		<path class="st7" d="M-425.449-97.768"/>
		<line class="st7" x1="-427.887" y1="-87.277" x2="-408.423" y2="-87.277"/>
		<line class="st7" x1="-427.887" y1="-88.552" x2="-412.993" y2="-88.552"/>
		<line class="st7" x1="-427.887" y1="-89.828" x2="-412.993" y2="-89.828"/>
		<line class="st7" x1="-427.887" y1="-91.105" x2="-412.993" y2="-91.105"/>
		<line class="st7" x1="-427.887" y1="-92.381" x2="-408.423" y2="-92.381"/>
		<line class="st7" x1="-427.887" y1="-93.656" x2="-408.423" y2="-93.656"/>
		<line class="st7" x1="-427.814" y1="-94.932" x2="-412.92" y2="-94.932"/>
		<line class="st7" x1="-427.887" y1="-96.208" x2="-408.423" y2="-96.208"/>
		<line class="st7" x1="-427.887" y1="-97.484" x2="-412.993" y2="-97.484"/>
		<line class="st7" x1="-427.887" y1="-98.76" x2="-412.993" y2="-98.76"/>
		<line class="st7" x1="-427.887" y1="-100.036" x2="-408.423" y2="-100.036"/>
	</g>
	<polygon class="st6" points="-431.214,-106.331 -431.214,-80.338 -431.214,-80.088 -430.964,-80.088 -404.971,-80.088 
		-404.721,-80.088 -404.721,-80.338 -404.721,-106.331 -404.721,-106.581 -404.971,-106.581 -430.964,-106.581 -431.214,-106.581 	
		"/>
</g>
<g>
	<g>
		<line class="st7" x1="-377.167" y1="-99.719" x2="-396.631" y2="-99.719"/>
		<line class="st7" x1="-379.675" y1="-98.442" x2="-394.569" y2="-98.442"/>
		<line class="st7" x1="-379.675" y1="-97.166" x2="-394.569" y2="-97.166"/>
		<line class="st7" x1="-379.675" y1="-95.888" x2="-394.569" y2="-95.888"/>
		<line class="st7" x1="-377.167" y1="-94.611" x2="-396.631" y2="-94.611"/>
		<line class="st7" x1="-377.167" y1="-93.334" x2="-396.631" y2="-93.334"/>
		<line class="st7" x1="-379.675" y1="-92.057" x2="-394.569" y2="-92.057"/>
		<line class="st7" x1="-377.167" y1="-90.78" x2="-396.631" y2="-90.78"/>
		<line class="st7" x1="-379.675" y1="-89.503" x2="-394.569" y2="-89.503"/>
		<line class="st7" x1="-379.675" y1="-88.226" x2="-394.569" y2="-88.226"/>
		<line class="st7" x1="-377.167" y1="-86.949" x2="-396.631" y2="-86.949"/>
	</g>
	<polygon class="st6" points="-400.145,-106.331 -400.145,-80.338 -400.145,-80.088 -399.895,-80.088 -373.902,-80.088 
		-373.652,-80.088 -373.652,-80.338 -373.652,-106.331 -373.652,-106.581 -373.902,-106.581 -399.895,-106.581 -400.145,-106.581 	
		"/>
</g>
<polygon class="st6" points="-369.077,-106.331 -369.077,-80.338 -369.077,-80.088 -368.827,-80.088 -342.834,-80.088 
	-342.584,-80.088 -342.584,-80.338 -342.584,-106.331 -342.584,-106.581 -342.834,-106.581 -368.827,-106.581 -369.077,-106.581 "/>
<path class="st7" d="M-365.75-87.647"/>
<path class="st7" d="M-365.75-92.663"/>
<path class="st7" d="M-365.75-93.917"/>
<path class="st7" d="M-365.75-100.186"/>
<path class="st7" d="M-348.347-95.171"/>
<path class="st7" d="M-346.285-92.663"/>
<path class="st7" d="M-348.347-91.409"/>
<path class="st7" d="M-346.285-87.647"/>
<path class="st7" d="M-346.285-100.186"/>
<path class="st7" d="M-346.285-93.917"/>
<path class="st7" d="M-348.347-90.154"/>
<path class="st7" d="M-348.347-88.901"/>
<g>
	<path class="st7" d="M-363.43-89.223"/>
	<path class="st7" d="M-363.43-90.477"/>
	<path class="st7" d="M-363.43-91.731"/>
	<path class="st7" d="M-363.43-95.493"/>
	<path class="st7" d="M-363.43-98.001"/>
	<line class="st7" x1="-346.098" y1="-99.714" x2="-365.562" y2="-99.714"/>
	<line class="st7" x1="-346.098" y1="-98.438" x2="-360.992" y2="-98.438"/>
	<line class="st7" x1="-346.098" y1="-97.162" x2="-360.992" y2="-97.162"/>
	<line class="st7" x1="-346.098" y1="-95.886" x2="-360.992" y2="-95.886"/>
	<line class="st7" x1="-346.098" y1="-94.61" x2="-365.562" y2="-94.61"/>
	<line class="st7" x1="-346.098" y1="-93.334" x2="-365.562" y2="-93.334"/>
	<line class="st7" x1="-346.171" y1="-92.058" x2="-361.065" y2="-92.058"/>
	<line class="st7" x1="-346.098" y1="-90.783" x2="-365.562" y2="-90.783"/>
	<line class="st7" x1="-346.098" y1="-89.507" x2="-360.992" y2="-89.507"/>
	<line class="st7" x1="-346.098" y1="-88.23" x2="-360.992" y2="-88.23"/>
	<line class="st7" x1="-346.098" y1="-86.955" x2="-365.562" y2="-86.955"/>
</g>
<polygon class="st6" points="-461.985,-106.324 -461.985,-80.331 -461.985,-80.081 -461.735,-80.081 -435.742,-80.081 
	-435.492,-80.081 -435.492,-80.331 -435.492,-106.324 -435.492,-106.574 -435.742,-106.574 -461.735,-106.574 -461.985,-106.574 "/>
<path class="st7" d="M-438.818-99.022"/>
<path class="st7" d="M-438.818-94.006"/>
<path class="st7" d="M-438.818-92.752"/>
<path class="st7" d="M-438.818-86.482"/>
<path class="st7" d="M-456.22-91.498"/>
<path class="st7" d="M-458.283-94.006"/>
<path class="st7" d="M-456.22-95.259"/>
<path class="st7" d="M-458.283-99.022"/>
<path class="st7" d="M-458.283-86.482"/>
<path class="st7" d="M-458.283-92.752"/>
<path class="st7" d="M-456.22-96.514"/>
<path class="st7" d="M-456.22-97.768"/>
<g>
	<path class="st7" d="M-441.326-97.768"/>
	<path class="st7" d="M-441.326-96.514"/>
	<path class="st7" d="M-441.326-95.259"/>
	<path class="st7" d="M-441.326-91.498"/>
	<path class="st7" d="M-441.326-88.99"/>
	<line class="st7" x1="-458.658" y1="-87.277" x2="-439.194" y2="-87.277"/>
	<line class="st7" x1="-458.658" y1="-88.552" x2="-439.194" y2="-88.552"/>
	<line class="st7" x1="-458.658" y1="-89.828" x2="-439.194" y2="-89.828"/>
	<line class="st7" x1="-458.658" y1="-91.105" x2="-439.194" y2="-91.105"/>
	<line class="st7" x1="-458.658" y1="-92.381" x2="-439.194" y2="-92.381"/>
	<line class="st7" x1="-458.658" y1="-93.656" x2="-439.194" y2="-93.656"/>
	<line class="st7" x1="-458.585" y1="-94.932" x2="-439.121" y2="-94.932"/>
	<line class="st7" x1="-458.658" y1="-96.208" x2="-439.194" y2="-96.208"/>
	<line class="st7" x1="-458.658" y1="-97.484" x2="-439.194" y2="-97.484"/>
	<line class="st7" x1="-458.658" y1="-98.76" x2="-439.194" y2="-98.76"/>
	<line class="st7" x1="-458.658" y1="-100.036" x2="-439.194" y2="-100.036"/>
</g>
<path class="st5" d="M-631.542,8.824l-1.915,13.335c-0.058,0.402-0.431,0.682-0.834,0.624c-0.402-0.058-0.682-0.431-0.624-0.833
	L-633,8.614c0.058-0.402,0.431-0.681,0.834-0.623C-631.764,8.049-631.484,8.421-631.542,8.824 M-638.359,22.899
	c-0.407,0.003-0.74-0.324-0.742-0.73l-0.106-13.472c-0.003-0.407,0.324-0.739,0.73-0.742c0.408-0.003,0.74,0.324,0.743,0.731
	l0.105,13.471C-637.626,22.564-637.953,22.896-638.359,22.899 M-642.43,22.846c-0.401,0.064-0.779-0.209-0.842-0.61l-2.124-13.304
	c-0.064-0.402,0.209-0.779,0.612-0.843c0.401-0.064,0.778,0.209,0.842,0.611l2.123,13.303
	C-641.755,22.405-642.028,22.782-642.43,22.846 M-628.647,6.438c-0.141-0.169-0.353-0.266-0.573-0.264l-18.538,0.144
	c-0.22,0.002-0.429,0.101-0.568,0.272c-0.14,0.17-0.196,0.393-0.155,0.609l3.092,16.141c0.068,0.351,0.376,0.605,0.734,0.602
	l12.497-0.098c0.356-0.002,0.66-0.258,0.724-0.608l2.949-16.188C-628.445,6.832-628.506,6.607-628.647,6.438"/>
<path class="st8" d="M-631.542,8.824l-1.915,13.335c-0.058,0.402-0.431,0.682-0.834,0.624c-0.402-0.058-0.682-0.431-0.624-0.833
	L-633,8.614c0.058-0.402,0.431-0.681,0.834-0.623C-631.764,8.049-631.484,8.421-631.542,8.824z M-638.359,22.899
	c-0.407,0.003-0.74-0.324-0.742-0.73l-0.106-13.472c-0.003-0.407,0.324-0.739,0.73-0.742c0.408-0.003,0.74,0.324,0.743,0.731
	l0.105,13.471C-637.626,22.564-637.953,22.896-638.359,22.899z M-642.43,22.846c-0.401,0.064-0.779-0.209-0.842-0.61l-2.124-13.304
	c-0.064-0.402,0.209-0.779,0.612-0.843c0.401-0.064,0.778,0.209,0.842,0.611l2.123,13.303
	C-641.755,22.405-642.028,22.782-642.43,22.846z M-628.647,6.438c-0.141-0.169-0.353-0.266-0.573-0.264l-18.538,0.144
	c-0.22,0.002-0.429,0.101-0.568,0.272c-0.14,0.17-0.196,0.393-0.155,0.609l3.092,16.141c0.068,0.351,0.376,0.605,0.734,0.602
	l12.497-0.098c0.356-0.002,0.66-0.258,0.724-0.608l2.949-16.188C-628.445,6.832-628.506,6.607-628.647,6.438z"/>
<path class="st5" d="M-641.334,1.831L-641.334,1.831l-0.004-0.421l5.49-0.043l0.004,0.421L-641.334,1.831z M-627.597,3.241
	L-627.597,3.241l-2.025,0.016l-0.009-1.171c-0.001-0.091-0.038-0.18-0.103-0.244c-0.065-0.064-0.155-0.1-0.246-0.1l-4.467,0.035
	l-0.009-1.12c-0.002-0.184-0.077-0.363-0.209-0.492c-0.131-0.13-0.311-0.203-0.495-0.201l-6.887,0.054
	c-0.183,0.001-0.363,0.077-0.492,0.208c-0.129,0.131-0.202,0.312-0.2,0.496l0.009,1.12l-4.164,0.032
	c-0.091,0.001-0.18,0.039-0.243,0.104c-0.065,0.065-0.101,0.154-0.101,0.246l0.009,1.171l-2.197,0.017l0.017,2.225l21.829-0.17
	L-627.597,3.241z"/>
<path class="st8" d="M-641.334,1.831L-641.334,1.831l-0.004-0.421l5.49-0.043l0.004,0.421L-641.334,1.831z M-627.597,3.241
	L-627.597,3.241l-2.025,0.016l-0.009-1.171c-0.001-0.091-0.038-0.18-0.103-0.244c-0.065-0.064-0.155-0.1-0.246-0.1l-4.467,0.035
	l-0.009-1.12c-0.002-0.184-0.077-0.363-0.209-0.492c-0.131-0.13-0.311-0.203-0.495-0.201l-6.887,0.054
	c-0.183,0.001-0.363,0.077-0.492,0.208c-0.129,0.131-0.202,0.312-0.2,0.496l0.009,1.12l-4.164,0.032
	c-0.091,0.001-0.18,0.039-0.243,0.104c-0.065,0.065-0.101,0.154-0.101,0.246l0.009,1.171l-2.197,0.017l0.017,2.225l21.829-0.17
	L-627.597,3.241z"/>
<rect x="-649.437" y="-0.047" class="st9" width="21.868" height="24"/>
<rect x="-308.508" y="-140.815" class="st10" width="34.924" height="19.551"/>
<g>
	<path class="st11" d="M-295.531-130.402v4.238h-0.884v-1.066c-0.416,0.702-1.222,1.132-2.354,1.132
		c-1.547,0-2.496-0.807-2.496-1.989c0-1.054,0.676-1.938,2.639-1.938h2.171v-0.416c0-1.17-0.663-1.807-1.938-1.807
		c-0.884,0-1.716,0.312-2.275,0.806l-0.416-0.688c0.689-0.585,1.703-0.924,2.782-0.924
		C-296.532-133.054-295.531-132.169-295.531-130.402z M-296.453-128.217v-1.118h-2.146c-1.326,0-1.755,0.52-1.755,1.222
		c0,0.793,0.637,1.287,1.729,1.287C-297.585-126.826-296.818-127.321-296.453-128.217z"/>
	<path class="st11" d="M-287.431-133.001v6.838h-0.884v-1.248c-0.481,0.832-1.365,1.313-2.458,1.313
		c-1.742,0-2.886-0.976-2.886-2.938v-3.965h0.923v3.874c0,1.456,0.754,2.197,2.054,2.197c1.43,0,2.327-0.924,2.327-2.483v-3.588
		H-287.431z"/>
	<path class="st11" d="M-286.132-126.944l0.416-0.728c0.546,0.429,1.469,0.767,2.431,0.767c1.3,0,1.833-0.441,1.833-1.118
		c0-1.78-4.433-0.377-4.433-3.081c0-1.118,0.962-1.95,2.704-1.95c0.884,0,1.846,0.247,2.418,0.638l-0.403,0.74
		c-0.598-0.416-1.313-0.585-2.015-0.585c-1.235,0-1.781,0.481-1.781,1.132c0,1.846,4.434,0.455,4.434,3.081
		c0,1.183-1.04,1.95-2.821,1.95C-284.481-126.098-285.573-126.462-286.132-126.944z"/>
</g>
<polygon class="st6" points="-308.258,-140.94 -308.258,-120.94 -308.258,-120.69 -308.008,-120.69 -239.159,-120.69 
	-238.909,-120.69 -238.909,-120.94 -238.909,-140.94 -238.909,-141.19 -239.159,-141.19 -308.008,-141.19 -308.258,-141.19 "/>
<rect x="-308.508" y="-141.44" class="st9" width="69.849" height="21"/>
<rect x="-712.905" y="65.89" class="st11" width="1014" height="21"/>
<path class="st3" d="M-85.744,65.89c-2.209,0-4,1.791-4,4v12.382c0,2.209,1.791,4,4,4h77.131c2.209,0,4-1.791,4-4V69.89
	c0-2.209-1.791-4-4-4H-85.744z"/>
<rect x="-712.655" y="66.14" class="st12" width="1013.5" height="20.5"/>
<path class="st13" d="M284.951,68.75v1.481c0,0.397,0.187,0.771,0.505,1.009l6.367,4.762c0.258,0.194,0.258,0.583,0,0.776
	l-6.367,4.762c-0.318,0.238-0.505,0.612-0.505,1.01v1.48c0,0.41,0.467,0.644,0.795,0.399l10.111-7.563
	c0.318-0.237,0.318-0.714,0-0.952l-10.11-7.562C285.418,68.106,284.951,68.341,284.951,68.75"/>
<path class="st13" d="M-697.052,84.03v-1.481c0-0.397-0.187-0.771-0.505-1.009l-6.367-4.762c-0.258-0.194-0.258-0.583,0-0.776
	l6.367-4.762c0.318-0.238,0.505-0.612,0.505-1.01v-1.48c0-0.41-0.467-0.644-0.795-0.399l-10.111,7.563
	c-0.318,0.237-0.318,0.714,0,0.952l10.11,7.562C-697.519,84.674-697.052,84.439-697.052,84.03"/>
<rect x="-712.905" y="65.89" class="st9" width="1014" height="21"/>
<rect x="342.867" y="-178.655" class="st11" width="21" height="702.123"/>
<path class="st3" d="M342.867,235.306c0,2.209,1.791,4,4,4h12.382c2.209,0,4-1.791,4-4V157.02c0-2.209-1.791-4-4-4h-12.382
	c-2.209,0-4,1.791-4,4V235.306z"/>
<rect x="343.117" y="-178.406" class="st12" width="20.5" height="701.624"/>
<path class="st13" d="M345.727-165.12h1.481c0.397,0,0.771-0.19,1.009-0.512l4.762-6.453c0.194-0.262,0.583-0.262,0.776,0
	l4.762,6.453c0.238,0.322,0.612,0.512,1.01,0.512h1.48c0.41,0,0.644-0.474,0.399-0.806l-7.563-10.248
	c-0.237-0.322-0.714-0.322-0.952,0l-7.562,10.248C345.083-165.594,345.318-165.12,345.727-165.12"/>
<path class="st13" d="M361.007,509.132h-1.481c-0.397,0-0.771,0.19-1.009,0.512l-4.762,6.453c-0.194,0.262-0.583,0.262-0.776,0
	l-4.762-6.453c-0.238-0.322-0.612-0.512-1.01-0.512h-1.48c-0.41,0-0.644,0.474-0.399,0.806l7.563,10.248
	c0.237,0.322,0.714,0.322,0.952,0l7.562-10.248C361.651,509.606,361.416,509.132,361.007,509.132"/>
<rect x="342.867" y="-178.656" class="st9" width="21" height="702.124"/>
<g>
	<g>
		<line class="st7" x1="-378.107" y1="-55.676" x2="-391.124" y2="-55.676"/>
		<line class="st7" x1="-378.107" y1="-65.852" x2="-391.124" y2="-65.852"/>
		<line class="st7" x1="-378.107" y1="-60.764" x2="-391.124" y2="-60.764"/>
		<g>
			<path class="st5" d="M-394.766-67.322v2.104h-0.487v-1.714h-0.421v-0.391H-394.766z"/>
		</g>
		<g>
			<path class="st5" d="M-394.005-60.355v0.396h-1.59v-0.315l0.812-0.767c0.187-0.178,0.22-0.286,0.22-0.388
				c0-0.165-0.114-0.262-0.337-0.262c-0.18,0-0.333,0.069-0.436,0.21l-0.355-0.228c0.163-0.238,0.457-0.392,0.836-0.392
				c0.469,0,0.781,0.241,0.781,0.623c0,0.204-0.057,0.391-0.352,0.664l-0.484,0.457H-394.005z"/>
		</g>
		<g>
			<path class="st5" d="M-394.023-55.596c0,0.354-0.273,0.68-0.872,0.68c-0.295,0-0.599-0.081-0.803-0.226l0.189-0.373
				c0.159,0.121,0.382,0.189,0.601,0.189c0.244,0,0.394-0.099,0.394-0.271c0-0.159-0.117-0.258-0.394-0.258h-0.223v-0.322
				l0.433-0.49h-0.896v-0.391h1.473v0.316l-0.475,0.541C-394.216-56.14-394.023-55.905-394.023-55.596z"/>
		</g>
	</g>
	<polygon class="st6" points="-400.152,-74.119 -400.152,-48.119 -400.152,-47.869 -399.902,-47.869 -373.902,-47.869 
		-373.652,-47.869 -373.652,-48.119 -373.652,-74.119 -373.652,-74.369 -373.902,-74.369 -399.902,-74.369 -400.152,-74.369 	"/>
</g>
<polygon class="st6" points="-461.985,-74.119 -461.985,-48.119 -461.985,-47.869 -461.735,-47.869 -435.735,-47.869 
	-435.485,-47.869 -435.485,-48.119 -435.485,-74.119 -435.485,-74.369 -435.735,-74.369 -461.735,-74.369 -461.985,-74.369 "/>
<g>
	<polygon class="st6" points="-431.643,-74.119 -431.643,-48.119 -431.643,-47.869 -431.393,-47.869 -405.393,-47.869 
		-405.143,-47.869 -405.143,-48.119 -405.143,-74.119 -405.143,-74.369 -405.393,-74.369 -431.393,-74.369 -431.643,-74.369 	"/>
	<path class="st7" d="M-410.111-55.994h-13.016 M-410.111-61.127h-13.016 M-410.111-66.259h-13.016"/>
	<path class="st5" d="M-425.213-60.542c0.161-0.156,0.241-0.349,0.241-0.581c0-0.15-0.037-0.288-0.11-0.414
		c-0.073-0.125-0.172-0.224-0.297-0.297c-0.126-0.073-0.264-0.11-0.415-0.11c-0.15,0-0.288,0.037-0.41,0.11
		c-0.122,0.073-0.221,0.172-0.294,0.297c-0.072,0.126-0.11,0.264-0.11,0.414c0,0.232,0.08,0.425,0.238,0.581
		c0.157,0.156,0.35,0.234,0.576,0.234C-425.567-60.308-425.374-60.386-425.213-60.542"/>
	<path class="st5" d="M-425.79-65.177c0.489,0,0.885-0.396,0.885-0.885c0-0.488-0.396-0.885-0.885-0.885
		c-0.488,0-0.885,0.397-0.885,0.885C-426.675-65.573-426.278-65.177-425.79-65.177"/>
	<path class="st5" d="M-425.213-55.525c0.161-0.156,0.241-0.349,0.241-0.581c0-0.15-0.037-0.288-0.11-0.414
		c-0.073-0.125-0.172-0.224-0.297-0.297c-0.126-0.073-0.264-0.11-0.415-0.11c-0.15,0-0.288,0.037-0.41,0.11
		c-0.122,0.073-0.221,0.172-0.294,0.297c-0.072,0.126-0.11,0.264-0.11,0.414c0,0.232,0.08,0.425,0.238,0.581
		c0.157,0.156,0.35,0.234,0.576,0.234C-425.567-55.291-425.374-55.369-425.213-55.525"/>
</g>
<path class="st7" d="M-440.453-55.987h-13.016 M-440.453-61.12h-13.016 M-440.453-66.252h-13.016"/>
<rect x="-457.017" y="-67.021" class="st5" width="1.77" height="1.77"/>
<rect x="-457.017" y="-62.005" class="st5" width="1.77" height="1.77"/>
<rect x="-457.017" y="-56.987" class="st5" width="1.77" height="1.77"/>
<rect x="-118.495" y="-141.908" class="st2" width="245" height="57.75"/>
<text transform="matrix(1 0 0 1 -43.7975 -115.7131)"><tspan x="0" y="0" class="st5" style="font-family:'Montserrat-Regular'; font-size:13px;">N</tspan><tspan x="10.478" y="0" class="st5" style="font-family:'Montserrat-Regular'; font-size:13px;">e</tspan><tspan x="18.135" y="0" class="st5" style="font-family:'Montserrat-Regular'; font-size:13px;">u</tspan><tspan x="26.753" y="0" class="st5" style="font-family:'Montserrat-Regular'; font-size:13px;">e </tspan><tspan x="38.011" y="0" class="st5" style="font-family:'Montserrat-Regular'; font-size:13px; letter-spacing:-1;">T</tspan><tspan x="44.381" y="0" class="st5" style="font-family:'Montserrat-Regular'; font-size:13px;">e</tspan><tspan x="51.882" y="0" class="st5" style="font-family:'Montserrat-Regular'; font-size:13px;">x</tspan><tspan x="59.097" y="0" class="st5" style="font-family:'Montserrat-Regular'; font-size:13px;">t</tspan><tspan x="64.128" y="0" class="st5" style="font-family:'Montserrat-Regular'; font-size:13px;">b</tspan><tspan x="72.942" y="0" class="st5" style="font-family:'Montserrat-Regular'; font-size:13px;">o</tspan><tspan x="80.742" y="0" class="st5" style="font-family:'Montserrat-Regular'; font-size:13px;">x </tspan></text>
<path class="st14" d="M4.005-93.95c3.707,0,6.713-3.005,6.713-6.712c0-3.708-3.006-6.713-6.713-6.713
	c-3.707,0-6.712,3.005-6.712,6.713C-2.707-96.955,0.298-93.95,4.005-93.95z"/>
<rect x="-118.495" y="-141.908" class="st9" width="245" height="57.75"/>
<line class="st15" x1="4.005" y1="-104.197" x2="4.005" y2="-97.128"/>
<line class="st15" x1="0.47" y1="-100.631" x2="7.538" y2="-100.631"/>
<path class="st14" d="M-106.957-54.115c3.707,0,6.713-3.005,6.713-6.712c0-3.708-3.006-6.713-6.713-6.713
	c-3.707,0-6.712,3.005-6.712,6.713C-113.669-57.12-110.664-54.115-106.957-54.115z"/>
<line class="st15" x1="-106.957" y1="-64.361" x2="-106.957" y2="-57.292"/>
<line class="st15" x1="-110.491" y1="-60.796" x2="-103.423" y2="-60.796"/>
<g>
	<path class="st16" d="M-602.849-38.979h-3.138v-1.85h8.544v1.85h-3.138v7.956h-2.269V-38.979z"/>
	<path class="st16" d="M-596.228-40.829h2.269v9.806h-2.269V-40.829z"/>
	<path class="st16" d="M-583.134-37.27c0,2.185-1.639,3.544-4.258,3.544h-1.975v2.703h-2.269v-9.806h4.244
		C-584.773-40.829-583.134-39.47-583.134-37.27z M-585.431-37.27c0-1.079-0.701-1.709-2.087-1.709h-1.849v3.403h1.849
		C-586.132-35.576-585.431-36.206-585.431-37.27z"/>
	<path class="st16" d="M-573.012-37.27c0,2.185-1.639,3.544-4.258,3.544h-1.975v2.703h-2.269v-9.806h4.244
		C-574.651-40.829-573.012-39.47-573.012-37.27z M-575.309-37.27c0-1.079-0.701-1.709-2.087-1.709h-1.849v3.403h1.849
		C-576.01-35.576-575.309-36.206-575.309-37.27z"/>
</g>
<path class="st16" d="M-639.476-45.3L-639.476-45.3c-1.054,2.474-1.96,4.602-2.889,6.784h5.729
	C-637.58-40.772-638.462-42.88-639.476-45.3 M-635.983-27.71L-635.983-27.71c-0.346-1.15-0.211-1.759,1.044-1.8
	c0.976-0.033,1.343-0.74,1.02-1.64c-0.507-1.414-1.072-2.81-1.681-4.183c-0.109-0.245-0.55-0.478-0.843-0.484
	c-2.129-0.041-4.261-0.046-6.39,0.005c-0.305,0.008-0.741,0.315-0.877,0.599c-0.558,1.155-1.057,2.342-1.512,3.542
	c-0.57,1.504-0.268,2.026,1.348,2.192c0.783,0.081,1.206,0.319,1.022,1.126c-0.056,0.243-0.355,0.61-0.547,0.613
	c-2.524,0.042-5.049,0.028-7.596,0.028c-0.214-0.956-0.321-1.631,0.868-1.885c0.569-0.122,1.219-0.609,1.515-1.117
	c0.755-1.293,1.377-2.67,1.972-4.049c2.401-5.559,4.761-11.135,7.172-16.689c0.173-0.398,0.634-0.67,0.96-1
	c0.319,0.343,0.766,0.632,0.937,1.037c2.56,6.048,5.079,12.114,7.622,18.17c0.326,0.776,0.705,1.534,1.106,2.275
	c0.507,0.939,1.332,1.389,2.379,1.595c0.265,0.052,0.519,0.638,0.586,1.013c0.032,0.175-0.39,0.621-0.611,0.624
	C-629.641-27.697-632.794-27.71-635.983-27.71"/>
<path class="st5" d="M-542.239-35.248c2.682-0.014,4.762-2.036,4.751-4.621c-0.01-2.367-2.203-4.406-4.733-4.399
	c-2.703,0.008-4.848,2.038-4.825,4.568C-547.023-37.236-544.863-35.235-542.239-35.248 M-536.684-35.235L-536.684-35.235
	c0.393-0.231,0.569-0.207,0.91,0.115c1.249,1.181,2.501,2.361,3.751,3.541c0.086,0.08,0.173,0.159,0.252,0.246
	c0.216,0.237,0.217,0.464-0.012,0.692c-0.249,0.248-0.509,0.488-0.767,0.727c-0.302,0.28-0.548,0.287-0.855,0
	c-1.177-1.103-2.348-2.211-3.522-3.318c-0.132-0.124-0.263-0.25-0.396-0.373c-0.368-0.34-0.394-0.487-0.153-0.896
	c-0.368-0.336-0.737-0.673-1.128-1.029c-1.472,1.07-3.153,1.471-5.011,1.06c-1.415-0.313-2.544-1.054-3.377-2.178
	c-1.65-2.23-1.286-5.335,0.823-7.11c2.222-1.87,5.521-1.904,7.68-0.117c2.217,1.835,2.765,5.106,0.696,7.583
	C-537.423-35.939-537.054-35.588-536.684-35.235"/>
<path class="st17" d="M-542.239-35.248c2.682-0.014,4.762-2.036,4.751-4.621c-0.01-2.367-2.203-4.406-4.733-4.399
	c-2.703,0.008-4.848,2.038-4.825,4.568C-547.023-37.236-544.863-35.235-542.239-35.248z M-536.684-35.235L-536.684-35.235
	c0.393-0.231,0.569-0.207,0.91,0.115c1.249,1.181,2.501,2.361,3.751,3.541c0.086,0.08,0.173,0.159,0.252,0.246
	c0.216,0.237,0.217,0.464-0.012,0.692c-0.249,0.248-0.509,0.488-0.767,0.727c-0.302,0.28-0.548,0.287-0.855,0
	c-1.177-1.103-2.348-2.211-3.522-3.318c-0.132-0.124-0.263-0.25-0.396-0.373c-0.368-0.34-0.394-0.487-0.153-0.896
	c-0.368-0.336-0.737-0.673-1.128-1.029c-1.472,1.07-3.153,1.471-5.011,1.06c-1.415-0.313-2.544-1.054-3.377-2.178
	c-1.65-2.23-1.286-5.335,0.823-7.11c2.222-1.87,5.521-1.904,7.68-0.117c2.217,1.835,2.765,5.106,0.696,7.583
	C-537.423-35.939-537.054-35.588-536.684-35.235z"/>
<path class="st5" d="M-478.524-44.829l2.966,2.98v-2.758c0-0.096-0.055-0.229-0.123-0.297l-3.807-3.826
	c-0.068-0.067-0.178-0.067-0.245,0l-3.93,3.949v2.758c0,0.096,0.055,0.119,0.122,0.051l2.844-2.857
	c0.068-0.068,0.122-0.046,0.122,0.05v7.829h0v2.168c0,0.096-0.055,0.118-0.123,0.05l-2.966-2.98v2.758
	c0,0.096,0.055,0.229,0.123,0.297l3.807,3.826c0.068,0.067,0.178,0.067,0.245,0l3.93-3.949v-2.758c0-0.096-0.055-0.119-0.122-0.051
	l-2.844,2.857c-0.068,0.068-0.122,0.046-0.122-0.05v-7.829h0v-2.168C-478.647-44.875-478.592-44.897-478.524-44.829z"/>
<line class="st18" x1="-514.663" y1="-31.593" x2="-486.83" y2="-31.593"/>
<line class="st18" x1="-514.663" y1="-39.889" x2="-486.83" y2="-39.889"/>
<line class="st18" x1="-514.663" y1="-47.881" x2="-486.83" y2="-47.881"/>
<line class="st18" x1="-500.321" y1="-12.621" x2="-500.321" y2="8.379"/>
<path class="st5" d="M-492.861,1.222L-492.861,1.222h2.695l-2.603-2.569c-0.138-0.135-0.093-0.245,0.101-0.245h7.006v-1.407
	c0-0.193-0.157-0.35-0.35-0.35h-6.656c-0.194,0-0.239-0.11-0.101-0.246l2.603-2.569h-2.345c-0.193,0-0.462,0.111-0.599,0.246
	l-3.245,3.201c-0.137,0.136-0.137,0.356,0,0.492L-492.861,1.222z"/>
<path class="st5" d="M-508.632-5.99L-508.632-5.99h-2.695l2.603,2.569c0.138,0.135,0.093,0.245-0.101,0.245h-7.006v1.407
	c0,0.193,0.157,0.35,0.35,0.35h6.656c0.194,0,0.239,0.11,0.101,0.246l-2.603,2.569h2.345c0.193,0,0.462-0.111,0.599-0.246
	l3.245-3.201c0.137-0.136,0.137-0.356,0-0.492L-508.632-5.99z"/>
<line class="st19" x1="-184.035" y1="-131.734" x2="-220.058" y2="-131.734"/>
<path class="st20" d="M-192.538-128.588c2.045,0,3.703-1.658,3.703-3.703s-1.658-3.703-3.703-3.703s-3.703,1.658-3.703,3.703
	S-194.583-128.588-192.538-128.588"/>
<g>
	<path class="st5" d="M-169.339-131.533c0,3.12-1.82,4.836-4.459,4.836c-0.91,0-1.781-0.195-2.392-0.585l0.624-1.274
		c0.494,0.325,1.092,0.442,1.729,0.442c1.716,0,2.795-1.066,2.795-3.133v-0.014c-0.546,0.638-1.417,0.949-2.431,0.949
		c-1.794,0-3.133-1.092-3.133-2.795c0-1.807,1.469-2.951,3.328-2.951C-170.795-136.057-169.339-134.458-169.339-131.533z
		 M-171.302-133.197c0-0.858-0.676-1.534-1.885-1.534c-1.053,0-1.781,0.598-1.781,1.547s0.715,1.547,1.82,1.547
		C-172.056-131.637-171.302-132.301-171.302-133.197z"/>
	<path class="st5" d="M-161.474-129.622c0,1.599-1.157,2.925-3.602,2.925c-1.287,0-2.587-0.39-3.419-1.053l0.715-1.313
		c0.663,0.546,1.651,0.897,2.678,0.897c1.209,0,1.924-0.533,1.924-1.392c0-0.871-0.559-1.417-2.444-1.417h-2.197l0.468-4.953h5.343
		v1.417h-3.913l-0.195,2.106h0.871C-162.553-132.404-161.474-131.234-161.474-129.622z"/>
	<path class="st5" d="M-157.055-133.522c0-1.495,0.871-2.496,2.171-2.496s2.184,0.988,2.184,2.496s-0.884,2.496-2.184,2.496
		S-157.055-132.027-157.055-133.522z M-153.766-133.522c0-1.014-0.416-1.586-1.118-1.586c-0.676,0-1.118,0.585-1.118,1.586
		s0.442,1.586,1.118,1.586C-154.182-131.936-153.766-132.509-153.766-133.522z M-149.423-135.927h1.274l-6.214,9.101h-1.274
		L-149.423-135.927z M-151.087-129.232c0-1.495,0.871-2.496,2.171-2.496c1.3,0,2.184,1.001,2.184,2.496s-0.884,2.496-2.184,2.496
		C-150.217-126.736-151.087-127.737-151.087-129.232z M-147.798-129.232c0-1.001-0.429-1.586-1.118-1.586s-1.118,0.572-1.118,1.586
		c0,1.015,0.429,1.586,1.118,1.586S-147.798-128.231-147.798-129.232z"/>
</g>
<rect x="-206.098" y="-77.591" class="st11" width="13.149" height="16.764"/>
<polygon class="st21" points="-206.098,-60.827 -206.098,-60.827 -192.949,-60.827 -192.949,-77.591 -206.098,-77.591 "/>
<rect x="-213.77" y="-78.062" class="st9" width="21.291" height="24"/>
<line class="st22" x1="-209.273" y1="-69.896" x2="-209.273" y2="-59.509"/>
<line class="st23" x1="-206.641" y1="-57.62" x2="-196.992" y2="-57.62"/>
<path class="st21" d="M-196.116-57.62h0.877 M-209.273-58.564v0.944h0.877 M-209.273-72.729v0.944"/>
<polyline class="st21" points="-213.3,-69.64 -213.3,-54.532 -199.266,-54.532 "/>
<rect x="-213.77" y="-78.062" class="st9" width="21.291" height="24"/>
<rect x="-174.524" y="-77.66" class="st11" width="14.674" height="18.705"/>
<polygon class="st24" points="-174.524,-58.955 -174.524,-58.955 -159.851,-58.955 -159.851,-77.66 -174.524,-77.66 "/>
<rect x="-174.926" y="-78.062" class="st9" width="19.884" height="24"/>
<rect x="-170.117" y="-73.169" class="st5" width="14.674" height="18.705"/>
<polygon class="st25" points="-170.118,-54.464 -170.118,-54.464 -155.445,-54.464 -155.445,-73.169 -170.118,-73.169 "/>
<rect x="-174.926" y="-78.062" class="st9" width="19.884" height="24"/>
<rect x="-273.417" y="-74.113" class="st10" width="34.924" height="19.551"/>
<g>
	<path class="st11" d="M-259.176-62.595h-5.72c0.104,1.43,1.196,2.379,2.691,2.379c0.832,0,1.573-0.299,2.093-0.897l0.52,0.599
		c-0.611,0.728-1.56,1.118-2.639,1.118c-2.132,0-3.588-1.456-3.588-3.484c0-2.028,1.417-3.472,3.341-3.472
		c1.924,0,3.315,1.417,3.315,3.472C-259.162-62.803-259.176-62.699-259.176-62.595z M-264.896-63.284h4.849
		c-0.117-1.339-1.092-2.275-2.431-2.275C-263.804-65.559-264.779-64.623-264.896-63.284z"/>
	<path class="st11" d="M-257.928-68.458c0-0.352,0.299-0.65,0.676-0.65s0.676,0.286,0.676,0.637c0,0.378-0.286,0.677-0.676,0.677
		C-257.629-67.795-257.928-68.094-257.928-68.458z M-257.72-66.3h0.923v6.838h-0.923V-66.3z"/>
	<path class="st11" d="M-248.503-63.427v3.965h-0.923v-3.874c0-1.443-0.754-2.185-2.054-2.185c-1.469,0-2.392,0.91-2.392,2.471
		v3.588h-0.923V-66.3h0.884v1.261c0.494-0.832,1.417-1.313,2.6-1.313C-249.647-66.352-248.503-65.39-248.503-63.427z"/>
</g>
<polygon class="st6" points="-308.425,-74.238 -308.425,-54.238 -308.425,-53.988 -308.175,-53.988 -239.326,-53.988 
	-239.076,-53.988 -239.076,-54.238 -239.076,-74.238 -239.076,-74.488 -239.326,-74.488 -308.175,-74.488 -308.425,-74.488 "/>
<rect x="-308.675" y="-74.738" class="st9" width="70.183" height="21"/>
<line class="st26" x1="-167.361" y1="15.401" x2="-167.361" y2="39.661"/>
<path class="st5" d="M-159.264,31.22L-159.264,31.22h2.592l-2.494-2.46c-0.138-0.135-0.093-0.245,0.101-0.245h6.725v-1.339
	c0-0.193-0.157-0.35-0.35-0.35h-6.725l2.743-2.705h-2.242c-0.193,0-0.462,0.11-0.599,0.245l-3.102,3.059
	c-0.137,0.135-0.137,0.355,0,0.491L-159.264,31.22z"/>
<line class="st26" x1="-194.306" y1="39.494" x2="-194.306" y2="15.234"/>
<path class="st5" d="M-202.403,23.676L-202.403,23.676h-2.592l2.494,2.46c0.138,0.135,0.093,0.245-0.101,0.245h-6.725v1.339
	c0,0.193,0.157,0.35,0.35,0.35h6.725l-2.743,2.705h2.242c0.193,0,0.462-0.11,0.599-0.245l3.102-3.059
	c0.137-0.135,0.137-0.355,0-0.491L-202.403,23.676z"/>
<line class="st26" x1="-384.048" y1="23.273" x2="-359.788" y2="23.273"/>
<path class="st5" d="M-368.397,15.215L-368.397,15.215v-2.592l-2.46,2.494c-0.135,0.138-0.245,0.093-0.245-0.101V8.291h-1.339
	c-0.193,0-0.35,0.157-0.35,0.35v6.725l-2.705-2.743v2.242c0,0.193,0.11,0.462,0.245,0.599l3.059,3.102
	c0.135,0.137,0.355,0.137,0.491,0L-368.397,15.215z"/>
<path class="st5" d="M-375.329,30.367L-375.329,30.367v2.592l2.46-2.494c0.135-0.138,0.245-0.093,0.245,0.101v6.725h1.339
	c0.193,0,0.35-0.157,0.35-0.35v-6.725l2.705,2.743v-2.242c0-0.193-0.11-0.462-0.245-0.599l-3.059-3.102
	c-0.135-0.137-0.355-0.137-0.491,0L-375.329,30.367z"/>
<line class="st26" x1="-327.602" y1="36.083" x2="-327.602" y2="11.823"/>
<path class="st5" d="M-335.66,20.432L-335.66,20.432h-2.592l2.494,2.46c0.138,0.135,0.093,0.245-0.101,0.245h-6.725v1.339
	c0,0.193,0.157,0.35,0.35,0.35h6.725l-2.743,2.705h2.242c0.193,0,0.462-0.11,0.599-0.245l3.102-3.059
	c0.137-0.135,0.137-0.355,0-0.491L-335.66,20.432z"/>
<path class="st5" d="M-320.508,27.364L-320.508,27.364h2.592l-2.494-2.46c-0.138-0.135-0.093-0.245,0.101-0.245h6.725V23.32
	c0-0.193-0.157-0.35-0.35-0.35h-6.725l2.743-2.705h-2.242c-0.193,0-0.462,0.11-0.599,0.245l-3.102,3.059
	c-0.137,0.135-0.137,0.355,0,0.491L-320.508,27.364z"/>
<line class="st26" x1="-295.46" y1="23.556" x2="-271.2" y2="23.556"/>
<path class="st5" d="M-286.741,30.65L-286.741,30.65v2.592l2.46-2.494c0.135-0.138,0.245-0.093,0.245,0.101v6.725h1.339
	c0.193,0,0.35-0.157,0.35-0.35v-6.725l2.705,2.743V31c0-0.193-0.11-0.462-0.245-0.599l-3.059-3.102
	c-0.135-0.137-0.355-0.137-0.491,0L-286.741,30.65z"/>
<line class="st26" x1="-250.349" y1="34.811" x2="-226.089" y2="34.811"/>
<path class="st5" d="M-234.531,26.422L-234.531,26.422V23.83l-2.46,2.494c-0.135,0.138-0.245,0.093-0.245-0.101v-6.725h-1.339
	c-0.193,0-0.35,0.157-0.35,0.35v6.725l-2.705-2.743v2.242c0,0.193,0.11,0.462,0.245,0.599l3.059,3.102
	c0.135,0.137,0.355,0.137,0.491,0L-234.531,26.422z"/>
<rect x="-104.486" y="7.885" class="st11" width="15.769" height="20.056"/>
<line class="st27" x1="-101.529" y1="27.941" x2="-90.688" y2="27.941"/>
<line class="st28" x1="-88.717" y1="24.933" x2="-88.717" y2="9.891"/>
<line class="st27" x1="-91.673" y1="7.885" x2="-102.514" y2="7.885"/>
<line class="st28" x1="-104.486" y1="10.894" x2="-104.486" y2="25.936"/>
<path class="st21" d="M-104.486,26.938v1.003h0.986 M-103.5,7.885h-0.986v1.003 M-88.717,8.888V7.885h-0.985 M-89.702,27.941h0.985
	v-1.003"/>
<polygon class="st11" points="-115.722,37.941 -115.722,37.941 -99.953,37.941 -99.953,17.885 -115.722,17.885 "/>
<line class="st27" x1="-112.765" y1="37.941" x2="-101.924" y2="37.941"/>
<line class="st28" x1="-99.953" y1="34.933" x2="-99.953" y2="19.891"/>
<line class="st27" x1="-102.909" y1="17.885" x2="-113.75" y2="17.885"/>
<line class="st28" x1="-115.722" y1="20.894" x2="-115.722" y2="35.936"/>
<path class="st21" d="M-115.722,36.938v1.003h0.986 M-114.736,17.885h-0.986v1.003 M-99.953,18.888v-1.003h-0.985 M-100.938,37.941
	h0.985v-1.003"/>
<polygon class="st11" points="-125.196,45.941 -125.196,45.941 -109.427,45.941 -109.427,25.885 -125.196,25.885 "/>
<polygon class="st21" points="-125.196,45.941 -125.196,45.941 -109.427,45.941 -109.427,25.885 -125.196,25.885 "/>
<g>
	<polygon class="st11" points="-51.359,32.247 -51.359,32.247 -35.59,32.247 -35.59,12.191 -51.359,12.191 	"/>
	<polygon class="st21" points="-51.359,32.247 -51.359,32.247 -35.59,32.247 -35.59,12.191 -51.359,12.191 	"/>
	<line class="st29" x1="-55.123" y1="20.746" x2="-55.123" y2="34.25"/>
	<line class="st30" x1="-51.986" y1="36.05" x2="-40.483" y2="36.05"/>
	<path class="st21" d="M-39.438,36.05h1.046 M-55.123,35.15v0.9h1.046 M-55.123,18.045v0.9"/>
</g>
<g>
	<rect x="21.181" y="0.47" class="st11" width="15.769" height="20.056"/>
	<polygon class="st21" points="21.181,20.527 21.181,20.527 36.95,20.527 36.95,0.47 21.181,0.47 	"/>
	<polygon class="st11" points="9.944,30.526 9.944,30.526 25.713,30.526 25.713,10.47 9.944,10.47 	"/>
	<line class="st27" x1="12.901" y1="30.526" x2="23.742" y2="30.526"/>
	<line class="st28" x1="25.713" y1="27.518" x2="25.713" y2="12.476"/>
	<line class="st27" x1="22.757" y1="10.47" x2="11.916" y2="10.47"/>
	<line class="st28" x1="9.944" y1="13.479" x2="9.944" y2="28.521"/>
	<path class="st21" d="M9.944,29.523v1.003h0.986 M10.93,10.47H9.944v1.003 M25.713,11.474V10.47h-0.985 M24.728,30.526h0.985
		v-1.003"/>
	<polygon class="st11" points="0.471,38.526 0.471,38.526 16.24,38.526 16.24,18.471 0.471,18.471 	"/>
	<line class="st27" x1="3.428" y1="38.526" x2="14.269" y2="38.526"/>
	<line class="st28" x1="16.24" y1="35.518" x2="16.24" y2="20.476"/>
	<line class="st27" x1="13.283" y1="18.47" x2="2.442" y2="18.47"/>
	<line class="st28" x1="0.471" y1="21.479" x2="0.471" y2="36.521"/>
	<path class="st21" d="M0.47,37.523v1.003h0.986 M1.457,18.471H0.47v1.003 M16.239,19.474v-1.003h-0.985 M15.255,38.526h0.985
		v-1.003"/>
</g>
<line class="st27" x1="76.594" y1="34.012" x2="87.435" y2="34.012"/>
<line class="st28" x1="89.406" y1="31.003" x2="89.406" y2="15.961"/>
<line class="st27" x1="86.45" y1="13.956" x2="75.609" y2="13.956"/>
<line class="st28" x1="73.637" y1="16.964" x2="73.637" y2="32.006"/>
<path class="st21" d="M73.637,33.009v1.003h0.986 M74.623,13.956h-0.986v1.003 M89.406,14.959v-1.003h-0.985 M88.421,34.012h0.985
	v-1.003"/>
<polyline class="st21" points="69.873,19.81 69.873,37.815 86.604,37.815 "/>
<g>
	<defs>
		<rect id="SVGID_1_" x="-685.401" y="127.848" width="241.682" height="1"/>
	</defs>
	<clipPath id="SVGID_00000057827575562870212000000016920794399406933923_">
		<use xlink:href="#SVGID_1_"  style="overflow:visible;"/>
	</clipPath>
	
		<line style="clip-path:url(#SVGID_00000057827575562870212000000016920794399406933923_);fill:none;stroke:#B2B2B2;stroke-linecap:round;stroke-linejoin:round;stroke-dasharray:0,3.009;" x1="-681.893" y1="128.348" x2="-445.723" y2="128.348"/>
	
		<path style="clip-path:url(#SVGID_00000057827575562870212000000016920794399406933923_);fill:none;stroke:#B2B2B2;stroke-linecap:round;stroke-linejoin:round;" d="
		M-444.219,128.348L-444.219,128.348 M-684.901,128.348L-684.901,128.348"/>
</g>
<circle class="st33" cx="-638.503" cy="-92.864" r="12.75"/>
<polygon class="st3" points="-495.11,-107.887 -508.11,-107.887 -501.742,-97.412 "/>
<polygon class="st5" points="-487.087,20.655 -497.562,27.023 -487.087,33.655 "/>
<polygon class="st5" points="-516.134,33.655 -505.659,27.287 -516.134,20.655 "/>
<polygon class="st5" points="-433.581,20.655 -444.056,27.023 -433.581,33.655 "/>
<polygon class="st5" points="-468.758,33.655 -458.283,27.287 -468.758,20.655 "/>
<rect x="-308.508" y="-107.876" class="st10" width="34.924" height="19.551"/>
<polygon class="st6" points="-308.258,-108.001 -308.258,-88.001 -308.258,-87.751 -308.008,-87.751 -239.159,-87.751 
	-238.909,-87.751 -238.909,-88.001 -238.909,-108.001 -238.909,-108.251 -239.159,-108.251 -308.008,-108.251 -308.258,-108.251 "/>
<rect x="-308.508" y="-108.501" class="st9" width="69.849" height="21"/>
<rect x="-273.144" y="-41.847" class="st10" width="34.924" height="19.551"/>
<polygon class="st6" points="-308.152,-41.972 -308.152,-21.972 -308.152,-21.722 -307.902,-21.722 -239.053,-21.722 
	-238.803,-21.722 -238.803,-21.972 -238.803,-41.972 -238.803,-42.222 -239.053,-42.222 -307.902,-42.222 -308.152,-42.222 "/>
<rect x="-308.402" y="-42.472" class="st9" width="70.183" height="21"/>
<line class="st19" x1="-185.113" y1="-111.946" x2="-221.136" y2="-111.946"/>
<path class="st20" d="M-193.616-108.8c2.045,0,3.703-1.658,3.703-3.703s-1.658-3.703-3.703-3.703s-3.703,1.658-3.703,3.703
	S-195.661-108.8-193.616-108.8"/>
<line class="st19" x1="123.211" y1="-81.167" x2="87.188" y2="-81.167"/>
<path class="st20" d="M114.708-78.021c2.045,0,3.703-1.658,3.703-3.703c0-2.045-1.658-3.703-3.703-3.703s-3.703,1.658-3.703,3.703
	C111.005-79.679,112.663-78.021,114.708-78.021"/>
</svg>
