<?xml version="1.0" encoding="utf-8"?>
<!-- Generator: Adobe Illustrator 26.0.3, SVG Export Plug-In . SVG Version: 6.00 Build 0)  -->
<svg version="1.1" id="Ebene_1" xmlns="http://www.w3.org/2000/svg" xmlns:xlink="http://www.w3.org/1999/xlink" x="0px" y="0px"
	 width="20.474px" height="24.8px" viewBox="0 0 20.474 24.8" style="enable-background:new 0 0 20.474 24.8;" xml:space="preserve"
	>
<style type="text/css">
	.st0{fill:none;stroke:#C5C5C5;stroke-width:3;stroke-linecap:round;stroke-linejoin:round;}
	.st1{fill:#FFAEFF;stroke:#4F4D4D;stroke-width:0.5;}
	.st2{fill:#F8F8F8;}
	.st3{fill:#0E689A;}
	.st4{fill:none;stroke:#B2B1B1;stroke-width:0.65;stroke-miterlimit:10;}
	.st5{fill:#B2B1B1;}
	.st6{fill:none;stroke:#B2B2B2;stroke-width:0.5;stroke-miterlimit:10;}
	.st7{fill:none;stroke:#B2B1B1;stroke-width:0.3;stroke-miterlimit:10;}
	.st8{fill:none;stroke:#FFFFFF;stroke-width:0.021;}
	.st9{fill:none;}
	.st10{fill:#0E6899;}
	.st11{fill:#FFFFFF;}
	.st12{fill:none;stroke:#C5C5C5;stroke-width:0.5;stroke-linecap:round;stroke-linejoin:round;}
	.st13{fill:#C5C5C5;}
	.st14{fill:none;stroke:#B2B1B1;stroke-width:0.5;}
	.st15{fill:none;stroke:#B2B1B1;stroke-width:1.2;}
	.st16{fill:#B2B2B2;}
	.st17{fill:none;stroke:#FFFFFF;stroke-width:0.001;}
	.st18{fill:none;stroke:#B2B1B1;stroke-width:1.712;}
	.st19{fill:none;stroke:#B2B1B1;stroke-width:2;}
	.st20{fill:#AD5E7A;}
	.st21{fill:none;stroke:#B2B1B1;stroke-width:0.941;}
	.st22{fill:none;stroke:#B2B1B1;stroke-width:0.941;stroke-dasharray:1.889,1.889;}
	.st23{fill:none;stroke:#B2B1B1;stroke-width:0.941;stroke-dasharray:1.754,1.754;}
	.st24{fill:none;stroke:#B2B1B1;stroke-width:0.804;}
	.st25{fill:none;stroke:#FFFFFF;stroke-width:0.804;}
	.st26{fill:none;stroke:#B2B1B1;stroke-width:2.5;}
	.st27{fill:none;stroke:#B2B1B1;stroke-width:0.941;stroke-dasharray:1.971,1.971;}
	.st28{fill:none;stroke:#B2B1B1;stroke-width:0.941;stroke-dasharray:2.006,2.006;}
	.st29{fill:none;stroke:#B2B1B1;stroke-width:0.941;stroke-dasharray:1.801,1.801;}
	.st30{fill:none;stroke:#B2B1B1;stroke-width:0.941;stroke-dasharray:2.091,2.091;}
	
		.st31{clip-path:url(#SVGID_00000126310917661198696680000006744280901671229569_);fill:none;stroke:#B2B2B2;stroke-linecap:round;stroke-linejoin:round;stroke-dasharray:0,3.009;}
	
		.st32{clip-path:url(#SVGID_00000126310917661198696680000006744280901671229569_);fill:none;stroke:#B2B2B2;stroke-linecap:round;stroke-linejoin:round;}
	.st33{fill:none;stroke:#4F4D4D;stroke-width:0.5;}
</style>
<polyline class="st0" points="1408.984,822.072 1402.734,813.072 1395.984,822.072 "/>
<circle class="st1" cx="-582.91" cy="-140.677" r="12.75"/>
<rect x="-550.449" y="-151.691" class="st2" width="119.902" height="21"/>
<polygon class="st3" points="-439.62,-146.429 -452.62,-146.429 -446.252,-135.954 "/>
<g>
	<g>
		<line class="st4" x1="-326.607" y1="-134.171" x2="-316.324" y2="-134.171"/>
		<g>
			<path class="st5" d="M-325.32-139.396v-5.175h1.3v5.122c0,2.016,0.923,2.926,2.561,2.926c1.638,0,2.574-0.91,2.574-2.926v-5.122
				h1.261v5.175c0,2.639-1.443,4.029-3.848,4.029C-323.864-135.367-325.32-136.758-325.32-139.396z"/>
		</g>
	</g>
	<polygon class="st6" points="-334.716,-152.371 -334.716,-126.371 -334.716,-126.121 -334.466,-126.121 -308.466,-126.121 
		-308.216,-126.121 -308.216,-126.371 -308.216,-152.371 -308.216,-152.621 -308.466,-152.621 -334.466,-152.621 -334.716,-152.621 
			"/>
</g>
<g>
	<g>
		<path class="st5" d="M-356.07-144.298h1.3l-1.82,9.101h-1.3L-356.07-144.298z"/>
	</g>
	<polygon class="st6" points="-369.58,-152.747 -369.58,-126.747 -369.58,-126.497 -369.33,-126.497 -343.33,-126.497 
		-343.08,-126.497 -343.08,-126.747 -343.08,-152.747 -343.08,-152.997 -343.33,-152.997 -369.33,-152.997 -369.58,-152.997 	"/>
</g>
<g>
	<g>
		<path class="st5" d="M-389.218-137.629c0,1.573-1.248,2.483-3.64,2.483h-4.706v-9.101h4.446c2.275,0,3.445,0.949,3.445,2.366
			c0,0.91-0.468,1.612-1.209,2.002C-389.868-139.553-389.218-138.772-389.218-137.629z M-395.471-142.66v2.146h2.093
			c1.027,0,1.586-0.364,1.586-1.079s-0.559-1.066-1.586-1.066H-395.471z M-391.337-137.849c0-0.767-0.585-1.131-1.677-1.131h-2.457
			v2.249h2.457C-391.922-136.731-391.337-137.069-391.337-137.849z"/>
	</g>
	<polygon class="st6" points="-406.641,-152.696 -406.641,-126.696 -406.641,-126.446 -406.391,-126.446 -380.391,-126.446 
		-380.141,-126.446 -380.141,-126.696 -380.141,-152.696 -380.141,-152.946 -380.391,-152.946 -406.391,-152.946 -406.641,-152.946 
			"/>
</g>
<path class="st7" d="M-352.453-110.742"/>
<path class="st7" d="M-354.961-109.488"/>
<path class="st7" d="M-354.961-108.234"/>
<path class="st7" d="M-354.961-106.98"/>
<path class="st7" d="M-352.453-105.726"/>
<path class="st7" d="M-352.453-104.472"/>
<path class="st7" d="M-354.961-103.218"/>
<path class="st7" d="M-354.961-100.71"/>
<path class="st7" d="M-352.453-98.202"/>
<g>
	<path class="st7" d="M-371.918-105.726"/>
	<path class="st7" d="M-371.918-110.742"/>
	<path class="st7" d="M-371.918-98.202"/>
	<path class="st7" d="M-371.918-104.472"/>
	<g>
		<path class="st7" d="M-369.856-103.218"/>
		<path class="st7" d="M-369.856-106.98"/>
		<path class="st7" d="M-369.856-108.234"/>
		<path class="st7" d="M-369.856-109.488"/>
		<line class="st7" x1="-372.293" y1="-98.997" x2="-352.829" y2="-98.997"/>
		<line class="st7" x1="-372.293" y1="-100.273" x2="-357.399" y2="-100.273"/>
		<line class="st7" x1="-372.293" y1="-101.549" x2="-357.399" y2="-101.549"/>
		<line class="st7" x1="-372.293" y1="-102.825" x2="-357.399" y2="-102.825"/>
		<line class="st7" x1="-372.293" y1="-104.101" x2="-352.829" y2="-104.101"/>
		<line class="st7" x1="-372.293" y1="-105.377" x2="-352.829" y2="-105.377"/>
		<line class="st7" x1="-372.22" y1="-106.653" x2="-357.326" y2="-106.653"/>
		<line class="st7" x1="-372.293" y1="-107.928" x2="-352.829" y2="-107.928"/>
		<line class="st7" x1="-372.293" y1="-109.204" x2="-357.399" y2="-109.204"/>
		<line class="st7" x1="-372.293" y1="-110.481" x2="-357.399" y2="-110.481"/>
		<line class="st7" x1="-372.293" y1="-111.756" x2="-352.829" y2="-111.756"/>
	</g>
	<polygon class="st6" points="-375.62,-118.051 -375.62,-92.058 -375.62,-91.808 -375.37,-91.808 -349.377,-91.808 
		-349.127,-91.808 -349.127,-92.058 -349.127,-118.051 -349.127,-118.301 -349.377,-118.301 -375.37,-118.301 -375.62,-118.301 	"/>
</g>
<g>
	<g>
		<line class="st7" x1="-321.573" y1="-111.44" x2="-341.037" y2="-111.44"/>
		<line class="st7" x1="-324.081" y1="-110.163" x2="-338.975" y2="-110.163"/>
		<line class="st7" x1="-324.081" y1="-108.886" x2="-338.975" y2="-108.886"/>
		<line class="st7" x1="-324.081" y1="-107.608" x2="-338.975" y2="-107.608"/>
		<line class="st7" x1="-321.573" y1="-106.332" x2="-341.037" y2="-106.332"/>
		<line class="st7" x1="-321.573" y1="-105.055" x2="-341.037" y2="-105.055"/>
		<line class="st7" x1="-324.081" y1="-103.777" x2="-338.975" y2="-103.777"/>
		<line class="st7" x1="-321.573" y1="-102.501" x2="-341.037" y2="-102.501"/>
		<line class="st7" x1="-324.081" y1="-101.223" x2="-338.975" y2="-101.223"/>
		<line class="st7" x1="-324.081" y1="-99.946" x2="-338.975" y2="-99.946"/>
		<line class="st7" x1="-321.573" y1="-98.67" x2="-341.037" y2="-98.67"/>
	</g>
	<polygon class="st6" points="-344.551,-118.051 -344.551,-92.058 -344.551,-91.808 -344.301,-91.808 -318.308,-91.808 
		-318.058,-91.808 -318.058,-92.058 -318.058,-118.051 -318.058,-118.301 -318.308,-118.301 -344.301,-118.301 -344.551,-118.301 	
		"/>
</g>
<polygon class="st6" points="-313.483,-118.051 -313.483,-92.058 -313.483,-91.808 -313.233,-91.808 -287.24,-91.808 
	-286.99,-91.808 -286.99,-92.058 -286.99,-118.051 -286.99,-118.301 -287.24,-118.301 -313.233,-118.301 -313.483,-118.301 "/>
<path class="st7" d="M-310.156-99.367"/>
<path class="st7" d="M-310.156-104.383"/>
<path class="st7" d="M-310.156-105.637"/>
<path class="st7" d="M-310.156-111.907"/>
<path class="st7" d="M-292.754-106.891"/>
<path class="st7" d="M-290.692-104.383"/>
<path class="st7" d="M-292.754-103.129"/>
<path class="st7" d="M-290.692-99.367"/>
<path class="st7" d="M-290.692-111.907"/>
<path class="st7" d="M-290.692-105.637"/>
<path class="st7" d="M-292.754-101.875"/>
<path class="st7" d="M-292.754-100.621"/>
<g>
	<path class="st7" d="M-307.836-100.943"/>
	<path class="st7" d="M-307.836-102.197"/>
	<path class="st7" d="M-307.836-103.452"/>
	<path class="st7" d="M-307.836-107.213"/>
	<path class="st7" d="M-307.836-109.721"/>
	<line class="st7" x1="-290.504" y1="-111.434" x2="-309.968" y2="-111.434"/>
	<line class="st7" x1="-290.504" y1="-110.159" x2="-305.398" y2="-110.159"/>
	<line class="st7" x1="-290.504" y1="-108.883" x2="-305.398" y2="-108.883"/>
	<line class="st7" x1="-290.504" y1="-107.606" x2="-305.398" y2="-107.606"/>
	<line class="st7" x1="-290.504" y1="-106.33" x2="-309.968" y2="-106.33"/>
	<line class="st7" x1="-290.504" y1="-105.055" x2="-309.968" y2="-105.055"/>
	<line class="st7" x1="-290.578" y1="-103.779" x2="-305.472" y2="-103.779"/>
	<line class="st7" x1="-290.504" y1="-102.503" x2="-309.968" y2="-102.503"/>
	<line class="st7" x1="-290.504" y1="-101.227" x2="-305.398" y2="-101.227"/>
	<line class="st7" x1="-290.504" y1="-99.951" x2="-305.398" y2="-99.951"/>
	<line class="st7" x1="-290.504" y1="-98.675" x2="-309.968" y2="-98.675"/>
</g>
<polygon class="st6" points="-406.391,-118.044 -406.391,-92.051 -406.391,-91.801 -406.141,-91.801 -380.148,-91.801 
	-379.898,-91.801 -379.898,-92.051 -379.898,-118.044 -379.898,-118.294 -380.148,-118.294 -406.141,-118.294 -406.391,-118.294 "/>
<path class="st7" d="M-383.225-110.742"/>
<path class="st7" d="M-383.225-105.726"/>
<path class="st7" d="M-383.225-104.472"/>
<path class="st7" d="M-383.225-98.202"/>
<path class="st7" d="M-400.627-103.218"/>
<path class="st7" d="M-402.689-105.726"/>
<path class="st7" d="M-400.627-106.98"/>
<path class="st7" d="M-402.689-110.742"/>
<path class="st7" d="M-402.689-98.202"/>
<path class="st7" d="M-402.689-104.472"/>
<path class="st7" d="M-400.627-108.234"/>
<path class="st7" d="M-400.627-109.488"/>
<g>
	<path class="st7" d="M-385.732-109.488"/>
	<path class="st7" d="M-385.732-108.234"/>
	<path class="st7" d="M-385.732-106.98"/>
	<path class="st7" d="M-385.732-103.218"/>
	<path class="st7" d="M-385.732-100.71"/>
	<line class="st7" x1="-403.064" y1="-98.997" x2="-383.6" y2="-98.997"/>
	<line class="st7" x1="-403.064" y1="-100.273" x2="-383.6" y2="-100.273"/>
	<line class="st7" x1="-403.064" y1="-101.549" x2="-383.6" y2="-101.549"/>
	<line class="st7" x1="-403.064" y1="-102.825" x2="-383.6" y2="-102.825"/>
	<line class="st7" x1="-403.064" y1="-104.101" x2="-383.6" y2="-104.101"/>
	<line class="st7" x1="-403.064" y1="-105.377" x2="-383.6" y2="-105.377"/>
	<line class="st7" x1="-402.991" y1="-106.653" x2="-383.527" y2="-106.653"/>
	<line class="st7" x1="-403.064" y1="-107.928" x2="-383.6" y2="-107.928"/>
	<line class="st7" x1="-403.064" y1="-109.204" x2="-383.6" y2="-109.204"/>
	<line class="st7" x1="-403.064" y1="-110.481" x2="-383.6" y2="-110.481"/>
	<line class="st7" x1="-403.064" y1="-111.756" x2="-383.6" y2="-111.756"/>
</g>
<path class="st5" d="M-575.948-2.896l-1.915,13.335c-0.058,0.402-0.431,0.682-0.834,0.624c-0.402-0.058-0.682-0.431-0.624-0.833
	l1.915-13.336c0.058-0.402,0.431-0.681,0.834-0.623C-576.17-3.671-575.89-3.299-575.948-2.896 M-582.765,11.179
	c-0.407,0.003-0.74-0.324-0.742-0.73l-0.106-13.472c-0.003-0.407,0.324-0.739,0.73-0.742c0.408-0.003,0.74,0.324,0.743,0.731
	l0.105,13.471C-582.032,10.844-582.359,11.176-582.765,11.179 M-586.836,11.126c-0.401,0.064-0.779-0.209-0.842-0.61l-2.124-13.304
	c-0.064-0.402,0.209-0.779,0.612-0.843c0.401-0.064,0.778,0.209,0.842,0.611l2.123,13.303
	C-586.161,10.685-586.434,11.062-586.836,11.126 M-573.053-5.282c-0.141-0.169-0.353-0.266-0.573-0.264l-18.538,0.144
	c-0.22,0.002-0.429,0.101-0.568,0.272c-0.14,0.17-0.196,0.393-0.155,0.609l3.092,16.141c0.068,0.351,0.376,0.605,0.734,0.602
	l12.497-0.098c0.356-0.002,0.66-0.258,0.724-0.608l2.949-16.188C-572.851-4.888-572.912-5.113-573.053-5.282"/>
<path class="st8" d="M-575.948-2.896l-1.915,13.335c-0.058,0.402-0.431,0.682-0.834,0.624c-0.402-0.058-0.682-0.431-0.624-0.833
	l1.915-13.336c0.058-0.402,0.431-0.681,0.834-0.623C-576.17-3.671-575.89-3.299-575.948-2.896z M-582.765,11.179
	c-0.407,0.003-0.74-0.324-0.742-0.73l-0.106-13.472c-0.003-0.407,0.324-0.739,0.73-0.742c0.408-0.003,0.74,0.324,0.743,0.731
	l0.105,13.471C-582.032,10.844-582.359,11.176-582.765,11.179z M-586.836,11.126c-0.401,0.064-0.779-0.209-0.842-0.61l-2.124-13.304
	c-0.064-0.402,0.209-0.779,0.612-0.843c0.401-0.064,0.778,0.209,0.842,0.611l2.123,13.303
	C-586.161,10.685-586.434,11.062-586.836,11.126z M-573.053-5.282c-0.141-0.169-0.353-0.266-0.573-0.264l-18.538,0.144
	c-0.22,0.002-0.429,0.101-0.568,0.272c-0.14,0.17-0.196,0.393-0.155,0.609l3.092,16.141c0.068,0.351,0.376,0.605,0.734,0.602
	l12.497-0.098c0.356-0.002,0.66-0.258,0.724-0.608l2.949-16.188C-572.851-4.888-572.912-5.113-573.053-5.282z"/>
<path class="st5" d="M-585.741-9.889L-585.741-9.889l-0.004-0.421l5.49-0.043l0.004,0.421L-585.741-9.889z M-572.004-8.479
	L-572.004-8.479l-2.025,0.016l-0.009-1.171c-0.001-0.091-0.038-0.18-0.103-0.244c-0.065-0.064-0.155-0.1-0.246-0.1l-4.467,0.035
	l-0.009-1.12c-0.002-0.184-0.077-0.363-0.209-0.492c-0.131-0.13-0.311-0.203-0.495-0.201l-6.887,0.054
	c-0.183,0.001-0.363,0.077-0.492,0.208s-0.202,0.312-0.2,0.496l0.009,1.12l-4.164,0.032c-0.091,0.001-0.18,0.039-0.243,0.104
	c-0.065,0.065-0.101,0.154-0.101,0.246l0.009,1.171l-2.197,0.017l0.017,2.225l21.829-0.17L-572.004-8.479z"/>
<path class="st8" d="M-585.741-9.889L-585.741-9.889l-0.004-0.421l5.49-0.043l0.004,0.421L-585.741-9.889z M-572.004-8.479
	L-572.004-8.479l-2.025,0.016l-0.009-1.171c-0.001-0.091-0.038-0.18-0.103-0.244c-0.065-0.064-0.155-0.1-0.246-0.1l-4.467,0.035
	l-0.009-1.12c-0.002-0.184-0.077-0.363-0.209-0.492c-0.131-0.13-0.311-0.203-0.495-0.201l-6.887,0.054
	c-0.183,0.001-0.363,0.077-0.492,0.208s-0.202,0.312-0.2,0.496l0.009,1.12l-4.164,0.032c-0.091,0.001-0.18,0.039-0.243,0.104
	c-0.065,0.065-0.101,0.154-0.101,0.246l0.009,1.171l-2.197,0.017l0.017,2.225l21.829-0.17L-572.004-8.479z"/>
<rect x="-593.844" y="-11.767" class="st9" width="21.868" height="24"/>
<rect x="-252.914" y="-152.535" class="st10" width="34.924" height="19.551"/>
<g>
	<path class="st11" d="M-239.937-142.122v4.238h-0.884v-1.066c-0.416,0.702-1.222,1.132-2.354,1.132
		c-1.547,0-2.496-0.807-2.496-1.989c0-1.054,0.676-1.938,2.639-1.938h2.171v-0.416c0-1.17-0.663-1.807-1.938-1.807
		c-0.884,0-1.716,0.312-2.275,0.806l-0.416-0.688c0.689-0.585,1.703-0.924,2.782-0.924
		C-240.938-144.774-239.937-143.89-239.937-142.122z M-240.86-139.937v-1.118h-2.146c-1.326,0-1.755,0.52-1.755,1.222
		c0,0.793,0.637,1.287,1.729,1.287C-241.991-138.547-241.224-139.041-240.86-139.937z"/>
	<path class="st11" d="M-231.838-144.722v6.838h-0.884v-1.248c-0.481,0.832-1.365,1.313-2.458,1.313
		c-1.742,0-2.886-0.976-2.886-2.938v-3.965h0.923v3.874c0,1.456,0.754,2.197,2.054,2.197c1.43,0,2.327-0.924,2.327-2.483v-3.588
		H-231.838z"/>
	<path class="st11" d="M-230.538-138.664l0.416-0.728c0.546,0.429,1.469,0.767,2.431,0.767c1.3,0,1.833-0.441,1.833-1.118
		c0-1.78-4.433-0.377-4.433-3.081c0-1.118,0.962-1.95,2.704-1.95c0.884,0,1.846,0.247,2.418,0.638l-0.403,0.74
		c-0.598-0.416-1.313-0.585-2.015-0.585c-1.235,0-1.781,0.481-1.781,1.132c0,1.846,4.434,0.455,4.434,3.081
		c0,1.183-1.04,1.95-2.821,1.95C-228.887-137.818-229.979-138.182-230.538-138.664z"/>
</g>
<polygon class="st6" points="-252.664,-152.66 -252.664,-132.66 -252.664,-132.41 -252.414,-132.41 -183.565,-132.41 
	-183.315,-132.41 -183.315,-132.66 -183.315,-152.66 -183.315,-152.91 -183.565,-152.91 -252.414,-152.91 -252.664,-152.91 "/>
<rect x="-252.914" y="-153.16" class="st9" width="69.849" height="21"/>
<rect x="-657.311" y="54.17" class="st11" width="1014" height="21"/>
<path class="st3" d="M-30.15,54.17c-2.209,0-4,1.791-4,4v12.382c0,2.209,1.791,4,4,4h77.131c2.209,0,4-1.791,4-4V58.17
	c0-2.209-1.791-4-4-4H-30.15z"/>
<rect x="-657.061" y="54.42" class="st12" width="1013.5" height="20.5"/>
<path class="st13" d="M340.544,57.03v1.481c0,0.397,0.187,0.771,0.505,1.009l6.367,4.762c0.258,0.194,0.258,0.583,0,0.776
	l-6.367,4.762c-0.318,0.238-0.505,0.612-0.505,1.01v1.48c0,0.41,0.467,0.644,0.795,0.399l10.111-7.563
	c0.318-0.237,0.318-0.714,0-0.952l-10.11-7.562C341.011,56.386,340.544,56.621,340.544,57.03"/>
<path class="st13" d="M-641.459,72.31v-1.481c0-0.397-0.187-0.771-0.505-1.009l-6.367-4.762c-0.258-0.194-0.258-0.583,0-0.776
	l6.367-4.762c0.318-0.238,0.505-0.612,0.505-1.01v-1.48c0-0.41-0.467-0.644-0.795-0.399l-10.111,7.563
	c-0.318,0.237-0.318,0.714,0,0.952l10.11,7.562C-641.926,72.954-641.459,72.719-641.459,72.31"/>
<rect x="-657.311" y="54.17" class="st9" width="1014" height="21"/>
<rect x="398.461" y="-190.375" class="st11" width="21" height="702.123"/>
<path class="st3" d="M398.461,223.586c0,2.209,1.791,4,4,4h12.382c2.209,0,4-1.791,4-4V145.3c0-2.209-1.791-4-4-4h-12.382
	c-2.209,0-4,1.791-4,4V223.586z"/>
<rect x="398.711" y="-190.126" class="st12" width="20.5" height="701.624"/>
<path class="st13" d="M401.321-176.84h1.481c0.397,0,0.771-0.19,1.009-0.512l4.762-6.453c0.194-0.262,0.583-0.262,0.776,0
	l4.762,6.453c0.238,0.322,0.612,0.512,1.01,0.512h1.48c0.41,0,0.644-0.474,0.399-0.806l-7.563-10.248
	c-0.237-0.322-0.714-0.322-0.952,0l-7.562,10.248C400.677-177.314,400.912-176.84,401.321-176.84"/>
<path class="st13" d="M416.601,497.412h-1.481c-0.397,0-0.771,0.19-1.009,0.512l-4.762,6.453c-0.194,0.262-0.583,0.262-0.776,0
	l-4.762-6.453c-0.238-0.322-0.612-0.512-1.01-0.512h-1.48c-0.41,0-0.644,0.474-0.399,0.806l7.563,10.248
	c0.237,0.322,0.714,0.322,0.952,0l7.562-10.248C417.245,497.886,417.01,497.412,416.601,497.412"/>
<rect x="398.461" y="-190.376" class="st9" width="21" height="702.124"/>
<g>
	<g>
		<line class="st7" x1="-322.513" y1="-67.397" x2="-335.53" y2="-67.397"/>
		<line class="st7" x1="-322.513" y1="-77.572" x2="-335.53" y2="-77.572"/>
		<line class="st7" x1="-322.513" y1="-72.484" x2="-335.53" y2="-72.484"/>
		<g>
			<path class="st5" d="M-339.172-79.043v2.104h-0.487v-1.714h-0.421v-0.391H-339.172z"/>
		</g>
		<g>
			<path class="st5" d="M-338.411-72.075v0.396h-1.59v-0.315l0.812-0.767c0.187-0.178,0.22-0.286,0.22-0.388
				c0-0.165-0.114-0.262-0.337-0.262c-0.18,0-0.333,0.069-0.436,0.21l-0.355-0.228c0.163-0.238,0.457-0.392,0.836-0.392
				c0.469,0,0.781,0.241,0.781,0.623c0,0.204-0.057,0.391-0.352,0.664l-0.484,0.457H-338.411z"/>
		</g>
		<g>
			<path class="st5" d="M-338.43-67.316c0,0.354-0.273,0.68-0.872,0.68c-0.295,0-0.599-0.081-0.803-0.226l0.189-0.373
				c0.159,0.121,0.382,0.189,0.601,0.189c0.244,0,0.394-0.099,0.394-0.271c0-0.159-0.117-0.258-0.394-0.258h-0.223v-0.322
				l0.433-0.49h-0.896v-0.391h1.473v0.316l-0.475,0.541C-338.622-67.86-338.43-67.626-338.43-67.316z"/>
		</g>
	</g>
	<polygon class="st6" points="-344.558,-85.84 -344.558,-59.84 -344.558,-59.59 -344.308,-59.59 -318.308,-59.59 -318.058,-59.59 
		-318.058,-59.84 -318.058,-85.84 -318.058,-86.09 -318.308,-86.09 -344.308,-86.09 -344.558,-86.09 	"/>
</g>
<polygon class="st6" points="-406.391,-85.84 -406.391,-59.84 -406.391,-59.59 -406.141,-59.59 -380.141,-59.59 -379.891,-59.59 
	-379.891,-59.84 -379.891,-85.84 -379.891,-86.09 -380.141,-86.09 -406.141,-86.09 -406.391,-86.09 "/>
<g>
	<polygon class="st6" points="-376.05,-85.84 -376.05,-59.84 -376.05,-59.59 -375.8,-59.59 -349.8,-59.59 -349.55,-59.59 
		-349.55,-59.84 -349.55,-85.84 -349.55,-86.09 -349.8,-86.09 -375.8,-86.09 -376.05,-86.09 	"/>
	<path class="st7" d="M-354.517-67.715h-13.016 M-354.517-72.848h-13.016 M-354.517-77.98h-13.016"/>
	<path class="st5" d="M-369.62-72.263c0.161-0.156,0.241-0.349,0.241-0.581c0-0.15-0.037-0.288-0.11-0.414
		c-0.073-0.125-0.172-0.224-0.297-0.297c-0.126-0.073-0.264-0.11-0.415-0.11c-0.15,0-0.288,0.037-0.41,0.11
		c-0.122,0.073-0.221,0.172-0.294,0.297c-0.072,0.126-0.11,0.264-0.11,0.414c0,0.232,0.08,0.425,0.238,0.581
		c0.157,0.156,0.35,0.234,0.576,0.234C-369.974-72.029-369.781-72.107-369.62-72.263"/>
	<path class="st5" d="M-370.197-76.897c0.489,0,0.885-0.396,0.885-0.885c0-0.488-0.396-0.885-0.885-0.885
		c-0.488,0-0.885,0.397-0.885,0.885C-371.082-77.293-370.685-76.897-370.197-76.897"/>
	<path class="st5" d="M-369.62-67.246c0.161-0.156,0.241-0.349,0.241-0.581c0-0.15-0.037-0.288-0.11-0.414
		c-0.073-0.125-0.172-0.224-0.297-0.297c-0.126-0.073-0.264-0.11-0.415-0.11c-0.15,0-0.288,0.037-0.41,0.11
		c-0.122,0.073-0.221,0.172-0.294,0.297c-0.072,0.126-0.11,0.264-0.11,0.414c0,0.232,0.08,0.425,0.238,0.581
		c0.157,0.156,0.35,0.234,0.576,0.234C-369.974-67.012-369.781-67.09-369.62-67.246"/>
</g>
<path class="st7" d="M-384.859-67.707h-13.016 M-384.859-72.84h-13.016 M-384.859-77.972h-13.016"/>
<rect x="-401.423" y="-78.742" class="st5" width="1.77" height="1.77"/>
<rect x="-401.423" y="-73.726" class="st5" width="1.77" height="1.77"/>
<rect x="-401.423" y="-68.708" class="st5" width="1.77" height="1.77"/>
<rect x="-62.902" y="-153.629" class="st2" width="245" height="57.75"/>
<text transform="matrix(1 0 0 1 11.7962 -127.4334)"><tspan x="0" y="0" class="st5" style="font-family:'Montserrat-Regular'; font-size:13px;">N</tspan><tspan x="10.478" y="0" class="st5" style="font-family:'Montserrat-Regular'; font-size:13px;">e</tspan><tspan x="18.135" y="0" class="st5" style="font-family:'Montserrat-Regular'; font-size:13px;">u</tspan><tspan x="26.753" y="0" class="st5" style="font-family:'Montserrat-Regular'; font-size:13px;">e </tspan><tspan x="38.011" y="0" class="st5" style="font-family:'Montserrat-Regular'; font-size:13px; letter-spacing:-1;">T</tspan><tspan x="44.381" y="0" class="st5" style="font-family:'Montserrat-Regular'; font-size:13px;">e</tspan><tspan x="51.882" y="0" class="st5" style="font-family:'Montserrat-Regular'; font-size:13px;">x</tspan><tspan x="59.097" y="0" class="st5" style="font-family:'Montserrat-Regular'; font-size:13px;">t</tspan><tspan x="64.128" y="0" class="st5" style="font-family:'Montserrat-Regular'; font-size:13px;">b</tspan><tspan x="72.942" y="0" class="st5" style="font-family:'Montserrat-Regular'; font-size:13px;">o</tspan><tspan x="80.742" y="0" class="st5" style="font-family:'Montserrat-Regular'; font-size:13px;">x </tspan></text>
<path class="st14" d="M59.598-105.67c3.707,0,6.713-3.005,6.713-6.712c0-3.708-3.006-6.713-6.713-6.713
	c-3.707,0-6.712,3.005-6.712,6.713C52.886-108.675,55.891-105.67,59.598-105.67z"/>
<rect x="-62.902" y="-153.629" class="st9" width="245" height="57.75"/>
<line class="st15" x1="59.598" y1="-115.917" x2="59.598" y2="-108.848"/>
<line class="st15" x1="56.064" y1="-112.351" x2="63.132" y2="-112.351"/>
<path class="st14" d="M-51.363-65.835c3.707,0,6.713-3.005,6.713-6.712c0-3.708-3.006-6.713-6.713-6.713
	c-3.707,0-6.712,3.005-6.712,6.713C-58.075-68.84-55.07-65.835-51.363-65.835z"/>
<line class="st15" x1="-51.363" y1="-76.081" x2="-51.363" y2="-69.012"/>
<line class="st15" x1="-54.897" y1="-72.516" x2="-47.829" y2="-72.516"/>
<g>
	<path class="st16" d="M-547.255-50.7h-3.138v-1.85h8.544v1.85h-3.138v7.956h-2.269V-50.7z"/>
	<path class="st16" d="M-540.635-52.549h2.269v9.806h-2.269V-52.549z"/>
	<path class="st16" d="M-527.54-48.991c0,2.185-1.639,3.544-4.258,3.544h-1.975v2.703h-2.269v-9.806h4.244
		C-529.179-52.549-527.54-51.19-527.54-48.991z M-529.837-48.991c0-1.079-0.701-1.709-2.087-1.709h-1.849v3.403h1.849
		C-530.538-47.296-529.837-47.926-529.837-48.991z"/>
	<path class="st16" d="M-517.418-48.991c0,2.185-1.639,3.544-4.258,3.544h-1.975v2.703h-2.269v-9.806h4.244
		C-519.057-52.549-517.418-51.19-517.418-48.991z M-519.715-48.991c0-1.079-0.701-1.709-2.087-1.709h-1.849v3.403h1.849
		C-520.416-47.296-519.715-47.926-519.715-48.991z"/>
</g>
<path class="st16" d="M-583.883-57.02L-583.883-57.02c-1.054,2.474-1.96,4.602-2.889,6.784h5.729
	C-581.987-52.492-582.869-54.6-583.883-57.02 M-580.39-39.43L-580.39-39.43c-0.346-1.15-0.211-1.759,1.044-1.8
	c0.976-0.033,1.343-0.74,1.02-1.64c-0.507-1.414-1.072-2.81-1.681-4.183c-0.109-0.245-0.55-0.478-0.843-0.484
	c-2.129-0.041-4.261-0.046-6.39,0.005c-0.305,0.008-0.741,0.315-0.877,0.599c-0.558,1.155-1.057,2.342-1.512,3.542
	c-0.57,1.504-0.268,2.026,1.348,2.192c0.783,0.081,1.206,0.319,1.022,1.126c-0.056,0.243-0.355,0.61-0.547,0.613
	c-2.524,0.042-5.049,0.028-7.596,0.028c-0.214-0.956-0.321-1.631,0.868-1.885c0.569-0.122,1.219-0.609,1.515-1.117
	c0.755-1.293,1.377-2.67,1.972-4.049c2.401-5.559,4.761-11.135,7.172-16.689c0.173-0.398,0.634-0.67,0.96-1
	c0.319,0.343,0.766,0.632,0.937,1.037c2.56,6.048,5.079,12.114,7.622,18.17c0.326,0.776,0.705,1.534,1.106,2.275
	c0.507,0.939,1.332,1.389,2.379,1.595c0.265,0.052,0.519,0.638,0.586,1.013c0.032,0.175-0.39,0.621-0.611,0.624
	C-574.048-39.417-577.201-39.43-580.39-39.43"/>
<path class="st5" d="M-486.645-46.969c2.682-0.014,4.762-2.036,4.751-4.621c-0.01-2.367-2.203-4.406-4.733-4.399
	c-2.703,0.008-4.848,2.038-4.825,4.568C-491.429-48.957-489.269-46.956-486.645-46.969 M-481.09-46.956L-481.09-46.956
	c0.393-0.231,0.569-0.207,0.91,0.115c1.249,1.181,2.501,2.361,3.751,3.541c0.086,0.08,0.173,0.159,0.252,0.246
	c0.216,0.237,0.217,0.464-0.012,0.692c-0.249,0.248-0.509,0.488-0.767,0.727c-0.302,0.28-0.548,0.287-0.855,0
	c-1.177-1.103-2.348-2.211-3.522-3.318c-0.132-0.124-0.263-0.25-0.396-0.373c-0.368-0.34-0.394-0.487-0.153-0.896
	c-0.368-0.336-0.737-0.673-1.128-1.029c-1.472,1.07-3.153,1.471-5.011,1.06c-1.415-0.313-2.544-1.054-3.377-2.178
	c-1.65-2.23-1.286-5.335,0.823-7.11c2.222-1.87,5.521-1.904,7.68-0.117c2.217,1.835,2.765,5.106,0.696,7.583
	C-481.829-47.66-481.46-47.309-481.09-46.956"/>
<path class="st17" d="M-486.645-46.969c2.682-0.014,4.762-2.036,4.751-4.621c-0.01-2.367-2.203-4.406-4.733-4.399
	c-2.703,0.008-4.848,2.038-4.825,4.568C-491.429-48.957-489.269-46.956-486.645-46.969z M-481.09-46.956L-481.09-46.956
	c0.393-0.231,0.569-0.207,0.91,0.115c1.249,1.181,2.501,2.361,3.751,3.541c0.086,0.08,0.173,0.159,0.252,0.246
	c0.216,0.237,0.217,0.464-0.012,0.692c-0.249,0.248-0.509,0.488-0.767,0.727c-0.302,0.28-0.548,0.287-0.855,0
	c-1.177-1.103-2.348-2.211-3.522-3.318c-0.132-0.124-0.263-0.25-0.396-0.373c-0.368-0.34-0.394-0.487-0.153-0.896
	c-0.368-0.336-0.737-0.673-1.128-1.029c-1.472,1.07-3.153,1.471-5.011,1.06c-1.415-0.313-2.544-1.054-3.377-2.178
	c-1.65-2.23-1.286-5.335,0.823-7.11c2.222-1.87,5.521-1.904,7.68-0.117c2.217,1.835,2.765,5.106,0.696,7.583
	C-481.829-47.66-481.46-47.309-481.09-46.956z"/>
<path class="st5" d="M-422.93-56.549l2.966,2.98v-2.758c0-0.096-0.055-0.229-0.123-0.297l-3.807-3.826
	c-0.068-0.067-0.178-0.067-0.245,0l-3.93,3.949v2.758c0,0.096,0.055,0.119,0.122,0.051l2.844-2.857
	c0.068-0.068,0.122-0.046,0.122,0.05v7.829h0v2.168c0,0.096-0.055,0.118-0.123,0.05l-2.966-2.98v2.758
	c0,0.096,0.055,0.229,0.123,0.297l3.807,3.826c0.068,0.067,0.178,0.067,0.245,0l3.93-3.949v-2.758c0-0.096-0.055-0.119-0.122-0.051
	l-2.844,2.857c-0.068,0.068-0.122,0.046-0.122-0.05v-7.829h0v-2.168C-423.053-56.595-422.998-56.617-422.93-56.549z"/>
<line class="st18" x1="-459.069" y1="-43.313" x2="-431.236" y2="-43.313"/>
<line class="st18" x1="-459.069" y1="-51.609" x2="-431.236" y2="-51.609"/>
<line class="st18" x1="-459.069" y1="-59.601" x2="-431.236" y2="-59.601"/>
<line class="st18" x1="-444.728" y1="-24.342" x2="-444.728" y2="-3.342"/>
<path class="st5" d="M-437.268-10.499L-437.268-10.499h2.695l-2.603-2.569c-0.138-0.135-0.093-0.245,0.101-0.245h7.006v-1.407
	c0-0.193-0.157-0.35-0.35-0.35h-6.656c-0.194,0-0.239-0.11-0.101-0.246l2.603-2.569h-2.345c-0.193,0-0.462,0.111-0.599,0.246
	l-3.245,3.201c-0.137,0.136-0.137,0.356,0,0.492L-437.268-10.499z"/>
<path class="st5" d="M-453.038-17.71L-453.038-17.71h-2.695l2.603,2.569c0.138,0.135,0.093,0.245-0.101,0.245h-7.006v1.407
	c0,0.193,0.157,0.35,0.35,0.35h6.656c0.194,0,0.239,0.11,0.101,0.246l-2.603,2.569h2.345c0.193,0,0.462-0.111,0.599-0.246
	l3.245-3.201c0.137-0.136,0.137-0.356,0-0.492L-453.038-17.71z"/>
<line class="st19" x1="-128.441" y1="-143.454" x2="-164.464" y2="-143.454"/>
<path class="st20" d="M-136.944-140.308c2.045,0,3.703-1.658,3.703-3.703s-1.658-3.703-3.703-3.703s-3.703,1.658-3.703,3.703
	S-138.989-140.308-136.944-140.308"/>
<g>
	<path class="st5" d="M-113.746-143.253c0,3.12-1.82,4.836-4.459,4.836c-0.91,0-1.781-0.195-2.392-0.585l0.624-1.274
		c0.494,0.325,1.092,0.442,1.729,0.442c1.716,0,2.795-1.066,2.795-3.133v-0.014c-0.546,0.638-1.417,0.949-2.431,0.949
		c-1.794,0-3.133-1.092-3.133-2.795c0-1.807,1.469-2.951,3.328-2.951C-115.202-147.778-113.746-146.178-113.746-143.253z
		 M-115.708-144.917c0-0.858-0.676-1.534-1.885-1.534c-1.053,0-1.781,0.598-1.781,1.547s0.715,1.547,1.82,1.547
		C-116.462-143.358-115.708-144.021-115.708-144.917z"/>
	<path class="st5" d="M-105.88-141.342c0,1.599-1.157,2.925-3.602,2.925c-1.287,0-2.587-0.39-3.419-1.053l0.715-1.313
		c0.663,0.546,1.651,0.897,2.678,0.897c1.209,0,1.924-0.533,1.924-1.392c0-0.871-0.559-1.417-2.444-1.417h-2.197l0.468-4.953h5.343
		v1.417h-3.913l-0.195,2.106h0.871C-106.959-144.124-105.88-142.954-105.88-141.342z"/>
	<path class="st5" d="M-101.461-145.242c0-1.495,0.871-2.496,2.171-2.496s2.184,0.988,2.184,2.496s-0.884,2.496-2.184,2.496
		S-101.461-143.747-101.461-145.242z M-98.172-145.242c0-1.014-0.416-1.586-1.118-1.586c-0.676,0-1.118,0.585-1.118,1.586
		s0.442,1.586,1.118,1.586C-98.588-143.657-98.172-144.229-98.172-145.242z M-93.83-147.648h1.274l-6.214,9.101h-1.274
		L-93.83-147.648z M-95.494-140.952c0-1.495,0.871-2.496,2.171-2.496c1.3,0,2.184,1.001,2.184,2.496s-0.884,2.496-2.184,2.496
		C-94.623-138.456-95.494-139.457-95.494-140.952z M-92.205-140.952c0-1.001-0.429-1.586-1.118-1.586s-1.118,0.572-1.118,1.586
		c0,1.015,0.429,1.586,1.118,1.586S-92.205-139.951-92.205-140.952z"/>
</g>
<rect x="-150.504" y="-89.311" class="st11" width="13.149" height="16.764"/>
<polygon class="st21" points="-150.505,-72.547 -150.505,-72.547 -137.356,-72.547 -137.356,-89.311 -150.505,-89.311 "/>
<rect x="-158.176" y="-89.782" class="st9" width="21.291" height="24"/>
<line class="st22" x1="-153.679" y1="-81.616" x2="-153.679" y2="-71.229"/>
<line class="st23" x1="-151.047" y1="-69.34" x2="-141.398" y2="-69.34"/>
<path class="st21" d="M-140.522-69.34h0.877 M-153.679-70.284v0.944h0.877 M-153.679-84.449v0.944"/>
<polyline class="st21" points="-157.706,-81.361 -157.706,-66.253 -143.672,-66.253 "/>
<rect x="-158.176" y="-89.782" class="st9" width="21.291" height="24"/>
<rect x="-118.931" y="-89.38" class="st11" width="14.674" height="18.705"/>
<polygon class="st24" points="-118.93,-70.675 -118.93,-70.675 -104.257,-70.675 -104.257,-89.38 -118.93,-89.38 "/>
<rect x="-119.333" y="-89.782" class="st9" width="19.884" height="24"/>
<rect x="-114.524" y="-84.889" class="st5" width="14.674" height="18.705"/>
<polygon class="st25" points="-114.524,-66.184 -114.524,-66.184 -99.851,-66.184 -99.851,-84.889 -114.524,-84.889 "/>
<rect x="-119.333" y="-89.782" class="st9" width="19.884" height="24"/>
<rect x="-217.823" y="-85.833" class="st10" width="34.924" height="19.551"/>
<g>
	<path class="st11" d="M-203.582-74.315h-5.72c0.104,1.43,1.196,2.379,2.691,2.379c0.832,0,1.573-0.299,2.093-0.897l0.52,0.599
		c-0.611,0.728-1.56,1.118-2.639,1.118c-2.132,0-3.588-1.456-3.588-3.484s1.417-3.472,3.341-3.472c1.924,0,3.315,1.417,3.315,3.472
		C-203.569-74.523-203.582-74.419-203.582-74.315z M-209.302-75.004h4.849c-0.117-1.339-1.092-2.275-2.431-2.275
		C-208.21-77.28-209.185-76.343-209.302-75.004z"/>
	<path class="st11" d="M-202.334-80.178c0-0.352,0.299-0.65,0.676-0.65s0.676,0.286,0.676,0.637c0,0.378-0.286,0.677-0.676,0.677
		C-202.036-79.515-202.334-79.814-202.334-80.178z M-202.126-78.02h0.923v6.838h-0.923V-78.02z"/>
	<path class="st11" d="M-192.909-75.147v3.965h-0.923v-3.874c0-1.443-0.754-2.185-2.054-2.185c-1.469,0-2.392,0.91-2.392,2.471
		v3.588h-0.923v-6.838h0.884v1.261c0.494-0.832,1.417-1.313,2.6-1.313C-194.053-78.073-192.909-77.111-192.909-75.147z"/>
</g>
<polygon class="st6" points="-252.831,-85.958 -252.831,-65.958 -252.831,-65.708 -252.581,-65.708 -183.732,-65.708 
	-183.482,-65.708 -183.482,-65.958 -183.482,-85.958 -183.482,-86.208 -183.732,-86.208 -252.581,-86.208 -252.831,-86.208 "/>
<rect x="-253.081" y="-86.458" class="st9" width="70.183" height="21"/>
<line class="st26" x1="-111.767" y1="3.681" x2="-111.767" y2="27.941"/>
<path class="st5" d="M-103.67,19.499L-103.67,19.499h2.592l-2.494-2.46c-0.138-0.135-0.093-0.245,0.101-0.245h6.725v-1.339
	c0-0.193-0.157-0.35-0.35-0.35h-6.725l2.743-2.705h-2.242c-0.193,0-0.462,0.11-0.599,0.245l-3.102,3.059
	c-0.137,0.135-0.137,0.355,0,0.491L-103.67,19.499z"/>
<line class="st26" x1="-138.712" y1="27.774" x2="-138.712" y2="3.514"/>
<path class="st5" d="M-146.809,11.955L-146.809,11.955h-2.592l2.494,2.46c0.138,0.135,0.093,0.245-0.101,0.245h-6.725v1.339
	c0,0.193,0.157,0.35,0.35,0.35h6.725l-2.743,2.705h2.242c0.193,0,0.462-0.11,0.599-0.245l3.102-3.059
	c0.137-0.135,0.137-0.355,0-0.491L-146.809,11.955z"/>
<line class="st26" x1="-328.454" y1="11.552" x2="-304.194" y2="11.552"/>
<path class="st5" d="M-312.803,3.495L-312.803,3.495V0.903l-2.46,2.494c-0.135,0.138-0.245,0.093-0.245-0.101v-6.725h-1.339
	c-0.193,0-0.35,0.157-0.35,0.35v6.725l-2.705-2.743v2.242c0,0.193,0.11,0.462,0.245,0.599l3.059,3.102
	c0.135,0.137,0.355,0.137,0.491,0L-312.803,3.495z"/>
<path class="st5" d="M-319.735,18.647L-319.735,18.647v2.592l2.46-2.494c0.135-0.138,0.245-0.093,0.245,0.101v6.725h1.339
	c0.193,0,0.35-0.157,0.35-0.35v-6.725l2.705,2.743v-2.242c0-0.193-0.11-0.462-0.245-0.599l-3.059-3.102
	c-0.135-0.137-0.355-0.137-0.491,0L-319.735,18.647z"/>
<line class="st26" x1="-272.008" y1="24.363" x2="-272.008" y2="0.103"/>
<path class="st5" d="M-280.066,8.712L-280.066,8.712h-2.592l2.494,2.46c0.138,0.135,0.093,0.245-0.101,0.245h-6.725v1.339
	c0,0.193,0.157,0.35,0.35,0.35h6.725l-2.743,2.705h2.242c0.193,0,0.462-0.11,0.599-0.245l3.102-3.059
	c0.137-0.135,0.137-0.355,0-0.491L-280.066,8.712z"/>
<path class="st5" d="M-264.914,15.644L-264.914,15.644h2.592l-2.494-2.46c-0.138-0.135-0.093-0.245,0.101-0.245h6.725V11.6
	c0-0.193-0.157-0.35-0.35-0.35h-6.725l2.743-2.705h-2.242c-0.193,0-0.462,0.11-0.599,0.245l-3.102,3.059
	c-0.137,0.135-0.137,0.355,0,0.491L-264.914,15.644z"/>
<line class="st26" x1="-239.867" y1="11.836" x2="-215.607" y2="11.836"/>
<path class="st5" d="M-231.148,18.93L-231.148,18.93v2.592l2.46-2.494c0.135-0.138,0.245-0.093,0.245,0.101v6.725h1.339
	c0.193,0,0.35-0.157,0.35-0.35v-6.725l2.705,2.743V19.28c0-0.193-0.11-0.462-0.245-0.599l-3.059-3.102
	c-0.135-0.137-0.355-0.137-0.491,0L-231.148,18.93z"/>
<line class="st26" x1="-194.755" y1="23.091" x2="-170.495" y2="23.091"/>
<path class="st5" d="M-178.937,14.702L-178.937,14.702V12.11l-2.46,2.494c-0.135,0.138-0.245,0.093-0.245-0.101V7.778h-1.339
	c-0.193,0-0.35,0.157-0.35,0.35v6.725l-2.705-2.743v2.242c0,0.193,0.11,0.462,0.245,0.599l3.059,3.102
	c0.135,0.137,0.355,0.137,0.491,0L-178.937,14.702z"/>
<rect x="-48.892" y="-3.835" class="st11" width="15.769" height="20.056"/>
<line class="st27" x1="-45.935" y1="16.221" x2="-35.094" y2="16.221"/>
<line class="st28" x1="-33.123" y1="13.213" x2="-33.123" y2="-1.829"/>
<line class="st27" x1="-36.08" y1="-3.835" x2="-46.921" y2="-3.835"/>
<line class="st28" x1="-48.892" y1="-0.827" x2="-48.892" y2="14.215"/>
<path class="st21" d="M-48.892,15.218v1.003h0.986 M-47.906-3.835h-0.986v1.003 M-33.123-2.832v-1.003h-0.985 M-34.108,16.221h0.985
	v-1.003"/>
<polygon class="st11" points="-60.128,26.221 -60.128,26.221 -44.359,26.221 -44.359,6.165 -60.128,6.165 "/>
<line class="st27" x1="-57.171" y1="26.221" x2="-46.33" y2="26.221"/>
<line class="st28" x1="-44.359" y1="23.213" x2="-44.359" y2="8.171"/>
<line class="st27" x1="-47.315" y1="6.165" x2="-58.156" y2="6.165"/>
<line class="st28" x1="-60.128" y1="9.173" x2="-60.128" y2="24.215"/>
<path class="st21" d="M-60.128,25.218v1.003h0.986 M-59.142,6.165h-0.986v1.003 M-44.359,7.168V6.165h-0.985 M-45.344,26.221h0.985
	v-1.003"/>
<polygon class="st11" points="-69.602,34.221 -69.602,34.221 -53.833,34.221 -53.833,14.165 -69.602,14.165 "/>
<polygon class="st21" points="-69.602,34.221 -69.602,34.221 -53.833,34.221 -53.833,14.165 -69.602,14.165 "/>
<g>
	<polygon class="st11" points="4.235,20.527 4.235,20.527 20.004,20.527 20.004,0.47 4.235,0.47 	"/>
	<polygon class="st21" points="4.235,20.527 4.235,20.527 20.004,20.527 20.004,0.47 4.235,0.47 	"/>
	<line class="st29" x1="0.47" y1="9.025" x2="0.47" y2="22.529"/>
	<line class="st30" x1="3.608" y1="24.33" x2="15.111" y2="24.33"/>
	<path class="st21" d="M16.155,24.33h1.046 M0.47,23.43v0.9h1.046 M0.47,6.325v0.9"/>
</g>
<g>
	<g>
		<rect x="76.775" y="-11.25" class="st11" width="15.769" height="20.056"/>
		<polygon class="st21" points="76.774,8.806 76.774,8.806 92.543,8.806 92.543,-11.25 76.774,-11.25 		"/>
		<polygon class="st11" points="65.538,18.806 65.538,18.806 81.307,18.806 81.307,-1.25 65.538,-1.25 		"/>
		<line class="st27" x1="68.495" y1="18.806" x2="79.336" y2="18.806"/>
		<line class="st28" x1="81.307" y1="15.798" x2="81.307" y2="0.756"/>
		<line class="st27" x1="78.351" y1="-1.25" x2="67.51" y2="-1.25"/>
		<line class="st28" x1="65.538" y1="1.759" x2="65.538" y2="16.801"/>
		<path class="st21" d="M65.538,17.803v1.003h0.986 M66.524-1.25h-0.986v1.003 M81.307-0.247V-1.25h-0.985 M80.322,18.806h0.985
			v-1.003"/>
		<polygon class="st11" points="56.065,26.806 56.065,26.806 71.834,26.806 71.834,6.75 56.065,6.75 		"/>
		<line class="st27" x1="59.022" y1="26.806" x2="69.863" y2="26.806"/>
		<line class="st28" x1="71.834" y1="23.798" x2="71.834" y2="8.756"/>
		<line class="st27" x1="68.877" y1="6.75" x2="58.036" y2="6.75"/>
		<line class="st28" x1="56.065" y1="9.759" x2="56.065" y2="24.801"/>
		<path class="st21" d="M56.064,25.803v1.003h0.986 M57.05,6.75h-0.986v1.003 M71.833,7.753V6.75h-0.985 M70.848,26.806h0.985
			v-1.003"/>
	</g>
	<line class="st27" x1="132.188" y1="22.291" x2="143.029" y2="22.291"/>
	<line class="st28" x1="145" y1="19.283" x2="145" y2="4.241"/>
	<line class="st27" x1="142.044" y1="2.235" x2="131.203" y2="2.235"/>
	<line class="st28" x1="129.231" y1="5.244" x2="129.231" y2="20.286"/>
	<path class="st21" d="M129.231,21.288v1.003h0.986 M130.217,2.235h-0.986v1.003 M145,3.238V2.235h-0.985 M144.015,22.291H145
		v-1.003"/>
	<polyline class="st21" points="125.467,8.09 125.467,26.095 142.198,26.095 	"/>
</g>
<g>
	<defs>
		<rect id="SVGID_1_" x="-629.808" y="116.128" width="241.682" height="1"/>
	</defs>
	<clipPath id="SVGID_00000168096146616326343820000003389370427860411809_">
		<use xlink:href="#SVGID_1_"  style="overflow:visible;"/>
	</clipPath>
	
		<line style="clip-path:url(#SVGID_00000168096146616326343820000003389370427860411809_);fill:none;stroke:#B2B2B2;stroke-linecap:round;stroke-linejoin:round;stroke-dasharray:0,3.009;" x1="-626.299" y1="116.628" x2="-390.129" y2="116.628"/>
	
		<path style="clip-path:url(#SVGID_00000168096146616326343820000003389370427860411809_);fill:none;stroke:#B2B2B2;stroke-linecap:round;stroke-linejoin:round;" d="
		M-388.626,116.628L-388.626,116.628 M-629.308,116.628L-629.308,116.628"/>
</g>
<circle class="st33" cx="-582.91" cy="-104.584" r="12.75"/>
<polygon class="st3" points="-439.517,-119.607 -452.517,-119.607 -446.149,-109.132 "/>
<polygon class="st5" points="-431.493,8.934 -441.968,15.302 -431.493,21.934 "/>
<polygon class="st5" points="-460.54,21.934 -450.065,15.566 -460.54,8.934 "/>
<polygon class="st5" points="-377.987,8.934 -388.462,15.302 -377.987,21.934 "/>
<polygon class="st5" points="-413.164,21.934 -402.689,15.566 -413.164,8.934 "/>
<rect x="-252.914" y="-119.596" class="st10" width="34.924" height="19.551"/>
<polygon class="st6" points="-252.664,-119.721 -252.664,-99.721 -252.664,-99.471 -252.414,-99.471 -183.565,-99.471 
	-183.315,-99.471 -183.315,-99.721 -183.315,-119.721 -183.315,-119.971 -183.565,-119.971 -252.414,-119.971 -252.664,-119.971 "/>
<rect x="-252.914" y="-120.221" class="st9" width="69.849" height="21"/>
<rect x="-217.55" y="-53.568" class="st10" width="34.924" height="19.551"/>
<polygon class="st6" points="-252.559,-53.693 -252.559,-33.693 -252.559,-33.443 -252.309,-33.443 -183.46,-33.443 
	-183.21,-33.443 -183.21,-33.693 -183.21,-53.693 -183.21,-53.943 -183.46,-53.943 -252.309,-53.943 -252.559,-53.943 "/>
<rect x="-252.808" y="-54.193" class="st9" width="70.183" height="21"/>
<line class="st19" x1="-129.519" y1="-123.667" x2="-165.542" y2="-123.667"/>
<path class="st20" d="M-138.022-120.521c2.045,0,3.703-1.658,3.703-3.703s-1.658-3.703-3.703-3.703s-3.703,1.658-3.703,3.703
	S-140.067-120.521-138.022-120.521"/>
<line class="st19" x1="178.805" y1="-92.887" x2="142.782" y2="-92.887"/>
<path class="st20" d="M170.302-89.741c2.045,0,3.703-1.658,3.703-3.703s-1.658-3.703-3.703-3.703s-3.703,1.658-3.703,3.703
	S168.257-89.741,170.302-89.741"/>
</svg>
