<?xml version="1.0" encoding="utf-8"?>
<!-- Generator: Adobe Illustrator 26.0.3, SVG Export Plug-In . SVG Version: 6.00 Build 0)  -->
<svg version="1.1" id="Ebene_1" xmlns="http://www.w3.org/2000/svg" xmlns:xlink="http://www.w3.org/1999/xlink" x="0px" y="0px"
	 width="20.474px" height="24.8px" viewBox="0 0 20.474 24.8" style="enable-background:new 0 0 20.474 24.8;" xml:space="preserve"
	>
<style type="text/css">
	.st0{fill:none;stroke:#C5C5C5;stroke-width:3;stroke-linecap:round;stroke-linejoin:round;}
	.st1{fill:#FFAEFF;stroke:#4F4D4D;stroke-width:0.5;}
	.st2{fill:#F8F8F8;}
	.st3{fill:#0E689A;}
	.st4{fill:none;stroke:#B2B1B1;stroke-width:0.65;stroke-miterlimit:10;}
	.st5{fill:#B2B1B1;}
	.st6{fill:none;stroke:#B2B2B2;stroke-width:0.5;stroke-miterlimit:10;}
	.st7{fill:none;stroke:#B2B1B1;stroke-width:0.3;stroke-miterlimit:10;}
	.st8{fill:none;stroke:#FFFFFF;stroke-width:0.021;}
	.st9{fill:none;}
	.st10{fill:#0E6899;}
	.st11{fill:#FFFFFF;}
	.st12{fill:none;stroke:#C5C5C5;stroke-width:0.5;stroke-linecap:round;stroke-linejoin:round;}
	.st13{fill:#C5C5C5;}
	.st14{fill:none;stroke:#B2B1B1;stroke-width:0.5;}
	.st15{fill:none;stroke:#B2B1B1;stroke-width:1.2;}
	.st16{fill:#B2B2B2;}
	.st17{fill:none;stroke:#FFFFFF;stroke-width:0.001;}
	.st18{fill:none;stroke:#B2B1B1;stroke-width:1.712;}
	.st19{fill:none;stroke:#B2B1B1;stroke-width:2;}
	.st20{fill:#AD5E7A;}
	.st21{fill:none;stroke:#B2B1B1;stroke-width:0.941;}
	.st22{fill:none;stroke:#B2B1B1;stroke-width:0.941;stroke-dasharray:1.889,1.889;}
	.st23{fill:none;stroke:#B2B1B1;stroke-width:0.941;stroke-dasharray:1.754,1.754;}
	.st24{fill:none;stroke:#B2B1B1;stroke-width:0.804;}
	.st25{fill:none;stroke:#FFFFFF;stroke-width:0.804;}
	.st26{fill:none;stroke:#B2B1B1;stroke-width:2.5;}
	.st27{fill:none;stroke:#B2B1B1;stroke-width:0.941;stroke-dasharray:1.971,1.971;}
	.st28{fill:none;stroke:#B2B1B1;stroke-width:0.941;stroke-dasharray:2.006,2.006;}
	.st29{fill:none;stroke:#B2B1B1;stroke-width:0.941;stroke-dasharray:1.801,1.801;}
	.st30{fill:none;stroke:#B2B1B1;stroke-width:0.941;stroke-dasharray:2.091,2.091;}
	
		.st31{clip-path:url(#SVGID_00000111157618000934025810000004646358901707783852_);fill:none;stroke:#B2B2B2;stroke-linecap:round;stroke-linejoin:round;stroke-dasharray:0,3.009;}
	
		.st32{clip-path:url(#SVGID_00000111157618000934025810000004646358901707783852_);fill:none;stroke:#B2B2B2;stroke-linecap:round;stroke-linejoin:round;}
	.st33{fill:none;stroke:#4F4D4D;stroke-width:0.5;}
</style>
<polyline class="st0" points="1283.987,820.307 1277.737,811.307 1270.987,820.307 "/>
<circle class="st1" cx="-707.906" cy="-142.441" r="12.75"/>
<rect x="-675.445" y="-153.456" class="st2" width="119.902" height="21"/>
<polygon class="st3" points="-564.616,-148.194 -577.616,-148.194 -571.248,-137.719 "/>
<g>
	<g>
		<line class="st4" x1="-451.604" y1="-135.936" x2="-441.321" y2="-135.936"/>
		<g>
			<path class="st5" d="M-450.316-141.161v-5.175h1.3v5.122c0,2.016,0.923,2.926,2.561,2.926c1.638,0,2.574-0.91,2.574-2.926v-5.122
				h1.261v5.175c0,2.639-1.443,4.029-3.848,4.029C-448.86-137.132-450.316-138.523-450.316-141.161z"/>
		</g>
	</g>
	<polygon class="st6" points="-459.712,-154.136 -459.712,-128.136 -459.712,-127.886 -459.462,-127.886 -433.462,-127.886 
		-433.212,-127.886 -433.212,-128.136 -433.212,-154.136 -433.212,-154.386 -433.462,-154.386 -459.462,-154.386 -459.712,-154.386 
			"/>
</g>
<g>
	<g>
		<path class="st5" d="M-481.066-146.063h1.3l-1.82,9.101h-1.3L-481.066-146.063z"/>
	</g>
	<polygon class="st6" points="-494.576,-154.512 -494.576,-128.512 -494.576,-128.262 -494.326,-128.262 -468.326,-128.262 
		-468.076,-128.262 -468.076,-128.512 -468.076,-154.512 -468.076,-154.762 -468.326,-154.762 -494.326,-154.762 -494.576,-154.762 
			"/>
</g>
<g>
	<g>
		<path class="st5" d="M-514.214-139.394c0,1.573-1.248,2.483-3.64,2.483h-4.706v-9.101h4.446c2.275,0,3.445,0.949,3.445,2.366
			c0,0.91-0.468,1.612-1.209,2.002C-514.864-141.317-514.214-140.537-514.214-139.394z M-520.467-144.425v2.146h2.093
			c1.027,0,1.586-0.364,1.586-1.079s-0.559-1.066-1.586-1.066H-520.467z M-516.334-139.614c0-0.767-0.585-1.131-1.677-1.131h-2.457
			v2.249h2.457C-516.919-138.496-516.334-138.834-516.334-139.614z"/>
	</g>
	<polygon class="st6" points="-531.638,-154.461 -531.638,-128.461 -531.638,-128.211 -531.388,-128.211 -505.388,-128.211 
		-505.138,-128.211 -505.138,-128.461 -505.138,-154.461 -505.138,-154.711 -505.388,-154.711 -531.388,-154.711 -531.638,-154.711 
			"/>
</g>
<path class="st7" d="M-477.45-112.507"/>
<path class="st7" d="M-479.958-111.253"/>
<path class="st7" d="M-479.958-109.999"/>
<path class="st7" d="M-479.958-108.745"/>
<path class="st7" d="M-477.45-107.491"/>
<path class="st7" d="M-477.45-106.237"/>
<path class="st7" d="M-479.958-104.983"/>
<path class="st7" d="M-479.958-102.475"/>
<path class="st7" d="M-477.45-99.967"/>
<g>
	<path class="st7" d="M-496.914-107.491"/>
	<path class="st7" d="M-496.914-112.507"/>
	<path class="st7" d="M-496.914-99.967"/>
	<path class="st7" d="M-496.914-106.237"/>
	<g>
		<path class="st7" d="M-494.852-104.983"/>
		<path class="st7" d="M-494.852-108.745"/>
		<path class="st7" d="M-494.852-109.999"/>
		<path class="st7" d="M-494.852-111.253"/>
		<line class="st7" x1="-497.29" y1="-100.762" x2="-477.826" y2="-100.762"/>
		<line class="st7" x1="-497.29" y1="-102.038" x2="-482.396" y2="-102.038"/>
		<line class="st7" x1="-497.29" y1="-103.314" x2="-482.396" y2="-103.314"/>
		<line class="st7" x1="-497.29" y1="-104.59" x2="-482.396" y2="-104.59"/>
		<line class="st7" x1="-497.29" y1="-105.866" x2="-477.826" y2="-105.866"/>
		<line class="st7" x1="-497.29" y1="-107.142" x2="-477.826" y2="-107.142"/>
		<line class="st7" x1="-497.216" y1="-108.418" x2="-482.322" y2="-108.418"/>
		<line class="st7" x1="-497.29" y1="-109.693" x2="-477.826" y2="-109.693"/>
		<line class="st7" x1="-497.29" y1="-110.969" x2="-482.396" y2="-110.969"/>
		<line class="st7" x1="-497.29" y1="-112.246" x2="-482.396" y2="-112.246"/>
		<line class="st7" x1="-497.29" y1="-113.521" x2="-477.826" y2="-113.521"/>
	</g>
	<polygon class="st6" points="-500.617,-119.816 -500.617,-93.823 -500.617,-93.573 -500.367,-93.573 -474.374,-93.573 
		-474.124,-93.573 -474.124,-93.823 -474.124,-119.816 -474.124,-120.066 -474.374,-120.066 -500.367,-120.066 -500.617,-120.066 	
		"/>
</g>
<g>
	<g>
		<line class="st7" x1="-446.569" y1="-113.204" x2="-466.033" y2="-113.204"/>
		<line class="st7" x1="-449.077" y1="-111.928" x2="-463.971" y2="-111.928"/>
		<line class="st7" x1="-449.077" y1="-110.651" x2="-463.971" y2="-110.651"/>
		<line class="st7" x1="-449.077" y1="-109.373" x2="-463.971" y2="-109.373"/>
		<line class="st7" x1="-446.569" y1="-108.097" x2="-466.033" y2="-108.097"/>
		<line class="st7" x1="-446.569" y1="-106.82" x2="-466.033" y2="-106.82"/>
		<line class="st7" x1="-449.077" y1="-105.542" x2="-463.971" y2="-105.542"/>
		<line class="st7" x1="-446.569" y1="-104.265" x2="-466.033" y2="-104.265"/>
		<line class="st7" x1="-449.077" y1="-102.988" x2="-463.971" y2="-102.988"/>
		<line class="st7" x1="-449.077" y1="-101.711" x2="-463.971" y2="-101.711"/>
		<line class="st7" x1="-446.569" y1="-100.434" x2="-466.033" y2="-100.434"/>
	</g>
	<polygon class="st6" points="-469.548,-119.816 -469.548,-93.823 -469.548,-93.573 -469.298,-93.573 -443.305,-93.573 
		-443.055,-93.573 -443.055,-93.823 -443.055,-119.816 -443.055,-120.066 -443.305,-120.066 -469.298,-120.066 -469.548,-120.066 	
		"/>
</g>
<polygon class="st6" points="-438.479,-119.816 -438.479,-93.823 -438.479,-93.573 -438.229,-93.573 -412.236,-93.573 
	-411.986,-93.573 -411.986,-93.823 -411.986,-119.816 -411.986,-120.066 -412.236,-120.066 -438.229,-120.066 -438.479,-120.066 "/>
<path class="st7" d="M-435.152-101.132"/>
<path class="st7" d="M-435.152-106.148"/>
<path class="st7" d="M-435.152-107.402"/>
<path class="st7" d="M-435.152-113.671"/>
<path class="st7" d="M-417.75-108.656"/>
<path class="st7" d="M-415.688-106.148"/>
<path class="st7" d="M-417.75-104.894"/>
<path class="st7" d="M-415.688-101.132"/>
<path class="st7" d="M-415.688-113.671"/>
<path class="st7" d="M-415.688-107.402"/>
<path class="st7" d="M-417.75-103.64"/>
<path class="st7" d="M-417.75-102.386"/>
<g>
	<path class="st7" d="M-432.833-102.708"/>
	<path class="st7" d="M-432.833-103.962"/>
	<path class="st7" d="M-432.833-105.216"/>
	<path class="st7" d="M-432.833-108.978"/>
	<path class="st7" d="M-432.833-111.486"/>
	<line class="st7" x1="-415.501" y1="-113.199" x2="-434.965" y2="-113.199"/>
	<line class="st7" x1="-415.501" y1="-111.924" x2="-430.395" y2="-111.924"/>
	<line class="st7" x1="-415.501" y1="-110.648" x2="-430.395" y2="-110.648"/>
	<line class="st7" x1="-415.501" y1="-109.371" x2="-430.395" y2="-109.371"/>
	<line class="st7" x1="-415.501" y1="-108.095" x2="-434.965" y2="-108.095"/>
	<line class="st7" x1="-415.501" y1="-106.819" x2="-434.965" y2="-106.819"/>
	<line class="st7" x1="-415.574" y1="-105.544" x2="-430.468" y2="-105.544"/>
	<line class="st7" x1="-415.501" y1="-104.268" x2="-434.965" y2="-104.268"/>
	<line class="st7" x1="-415.501" y1="-102.992" x2="-430.395" y2="-102.992"/>
	<line class="st7" x1="-415.501" y1="-101.715" x2="-430.395" y2="-101.715"/>
	<line class="st7" x1="-415.501" y1="-100.44" x2="-434.965" y2="-100.44"/>
</g>
<polygon class="st6" points="-531.388,-119.809 -531.388,-93.816 -531.388,-93.566 -531.138,-93.566 -505.145,-93.566 
	-504.895,-93.566 -504.895,-93.816 -504.895,-119.809 -504.895,-120.059 -505.145,-120.059 -531.138,-120.059 -531.388,-120.059 "/>
<path class="st7" d="M-508.221-112.507"/>
<path class="st7" d="M-508.221-107.491"/>
<path class="st7" d="M-508.221-106.237"/>
<path class="st7" d="M-508.221-99.967"/>
<path class="st7" d="M-525.623-104.983"/>
<path class="st7" d="M-527.685-107.491"/>
<path class="st7" d="M-525.623-108.745"/>
<path class="st7" d="M-527.685-112.507"/>
<path class="st7" d="M-527.685-99.967"/>
<path class="st7" d="M-527.685-106.237"/>
<path class="st7" d="M-525.623-109.999"/>
<path class="st7" d="M-525.623-111.253"/>
<g>
	<path class="st7" d="M-510.729-111.253"/>
	<path class="st7" d="M-510.729-109.999"/>
	<path class="st7" d="M-510.729-108.745"/>
	<path class="st7" d="M-510.729-104.983"/>
	<path class="st7" d="M-510.729-102.475"/>
	<line class="st7" x1="-528.061" y1="-100.762" x2="-508.597" y2="-100.762"/>
	<line class="st7" x1="-528.061" y1="-102.038" x2="-508.597" y2="-102.038"/>
	<line class="st7" x1="-528.061" y1="-103.314" x2="-508.597" y2="-103.314"/>
	<line class="st7" x1="-528.061" y1="-104.59" x2="-508.597" y2="-104.59"/>
	<line class="st7" x1="-528.061" y1="-105.866" x2="-508.597" y2="-105.866"/>
	<line class="st7" x1="-528.061" y1="-107.142" x2="-508.597" y2="-107.142"/>
	<line class="st7" x1="-527.988" y1="-108.418" x2="-508.524" y2="-108.418"/>
	<line class="st7" x1="-528.061" y1="-109.693" x2="-508.597" y2="-109.693"/>
	<line class="st7" x1="-528.061" y1="-110.969" x2="-508.597" y2="-110.969"/>
	<line class="st7" x1="-528.061" y1="-112.246" x2="-508.597" y2="-112.246"/>
	<line class="st7" x1="-528.061" y1="-113.521" x2="-508.597" y2="-113.521"/>
</g>
<path class="st5" d="M-700.944-4.661l-1.915,13.335c-0.058,0.402-0.431,0.682-0.834,0.624c-0.402-0.058-0.682-0.431-0.624-0.833
	l1.915-13.336c0.058-0.402,0.431-0.681,0.834-0.623C-701.166-5.436-700.886-5.064-700.944-4.661 M-707.761,9.414
	c-0.407,0.003-0.74-0.324-0.742-0.73l-0.106-13.472c-0.003-0.407,0.324-0.739,0.73-0.742c0.408-0.003,0.74,0.324,0.743,0.731
	l0.105,13.471C-707.028,9.079-707.355,9.411-707.761,9.414 M-711.832,9.361c-0.401,0.064-0.779-0.209-0.842-0.61l-2.124-13.304
	c-0.064-0.402,0.209-0.779,0.612-0.843c0.401-0.064,0.778,0.209,0.842,0.611l2.123,13.303C-711.157,8.92-711.43,9.297-711.832,9.361
	 M-698.049-7.047c-0.141-0.169-0.353-0.266-0.573-0.264l-18.538,0.144c-0.22,0.002-0.429,0.101-0.568,0.272
	c-0.14,0.17-0.196,0.393-0.155,0.609l3.092,16.141c0.068,0.351,0.376,0.605,0.734,0.602l12.497-0.098
	c0.356-0.002,0.66-0.258,0.724-0.608l2.949-16.188C-697.847-6.653-697.908-6.878-698.049-7.047"/>
<path class="st8" d="M-700.944-4.661l-1.915,13.335c-0.058,0.402-0.431,0.682-0.834,0.624c-0.402-0.058-0.682-0.431-0.624-0.833
	l1.915-13.336c0.058-0.402,0.431-0.681,0.834-0.623C-701.166-5.436-700.886-5.064-700.944-4.661z M-707.761,9.414
	c-0.407,0.003-0.74-0.324-0.742-0.73l-0.106-13.472c-0.003-0.407,0.324-0.739,0.73-0.742c0.408-0.003,0.74,0.324,0.743,0.731
	l0.105,13.471C-707.028,9.079-707.355,9.411-707.761,9.414z M-711.832,9.361c-0.401,0.064-0.779-0.209-0.842-0.61l-2.124-13.304
	c-0.064-0.402,0.209-0.779,0.612-0.843c0.401-0.064,0.778,0.209,0.842,0.611l2.123,13.303C-711.157,8.92-711.43,9.297-711.832,9.361
	z M-698.049-7.047c-0.141-0.169-0.353-0.266-0.573-0.264l-18.538,0.144c-0.22,0.002-0.429,0.101-0.568,0.272
	c-0.14,0.17-0.196,0.393-0.155,0.609l3.092,16.141c0.068,0.351,0.376,0.605,0.734,0.602l12.497-0.098
	c0.356-0.002,0.66-0.258,0.724-0.608l2.949-16.188C-697.847-6.653-697.908-6.878-698.049-7.047z"/>
<path class="st5" d="M-710.737-11.654L-710.737-11.654l-0.004-0.421l5.49-0.043l0.004,0.421L-710.737-11.654z M-697-10.244
	L-697-10.244l-2.025,0.016l-0.009-1.171c-0.001-0.091-0.038-0.18-0.103-0.244c-0.065-0.064-0.155-0.1-0.246-0.1l-4.467,0.035
	l-0.009-1.12c-0.002-0.184-0.077-0.363-0.209-0.492c-0.131-0.13-0.311-0.203-0.495-0.201l-6.887,0.054
	c-0.183,0.001-0.363,0.077-0.492,0.208c-0.129,0.131-0.202,0.312-0.2,0.496l0.009,1.12l-4.164,0.032
	c-0.091,0.001-0.18,0.039-0.243,0.104c-0.065,0.065-0.101,0.154-0.101,0.246l0.009,1.171l-2.197,0.017l0.017,2.225l21.829-0.17
	L-697-10.244z"/>
<path class="st8" d="M-710.737-11.654L-710.737-11.654l-0.004-0.421l5.49-0.043l0.004,0.421L-710.737-11.654z M-697-10.244
	L-697-10.244l-2.025,0.016l-0.009-1.171c-0.001-0.091-0.038-0.18-0.103-0.244c-0.065-0.064-0.155-0.1-0.246-0.1l-4.467,0.035
	l-0.009-1.12c-0.002-0.184-0.077-0.363-0.209-0.492c-0.131-0.13-0.311-0.203-0.495-0.201l-6.887,0.054
	c-0.183,0.001-0.363,0.077-0.492,0.208c-0.129,0.131-0.202,0.312-0.2,0.496l0.009,1.12l-4.164,0.032
	c-0.091,0.001-0.18,0.039-0.243,0.104c-0.065,0.065-0.101,0.154-0.101,0.246l0.009,1.171l-2.197,0.017l0.017,2.225l21.829-0.17
	L-697-10.244z"/>
<rect x="-718.84" y="-13.532" class="st9" width="21.868" height="24"/>
<rect x="-377.911" y="-154.3" class="st10" width="34.924" height="19.551"/>
<g>
	<path class="st11" d="M-364.933-143.887v4.238h-0.884v-1.066c-0.416,0.702-1.222,1.132-2.354,1.132
		c-1.547,0-2.496-0.807-2.496-1.989c0-1.054,0.676-1.938,2.639-1.938h2.171v-0.416c0-1.17-0.663-1.807-1.938-1.807
		c-0.884,0-1.716,0.312-2.275,0.806l-0.416-0.688c0.689-0.585,1.703-0.924,2.782-0.924
		C-365.934-146.539-364.933-145.654-364.933-143.887z M-365.856-141.702v-1.118h-2.146c-1.326,0-1.755,0.52-1.755,1.222
		c0,0.793,0.637,1.287,1.729,1.287C-366.987-140.312-366.22-140.806-365.856-141.702z"/>
	<path class="st11" d="M-356.834-146.486v6.838h-0.884v-1.248c-0.481,0.832-1.365,1.313-2.458,1.313
		c-1.742,0-2.886-0.976-2.886-2.938v-3.965h0.923v3.874c0,1.456,0.754,2.197,2.054,2.197c1.43,0,2.327-0.924,2.327-2.483v-3.588
		H-356.834z"/>
	<path class="st11" d="M-355.535-140.429l0.416-0.728c0.546,0.429,1.469,0.767,2.431,0.767c1.3,0,1.833-0.441,1.833-1.118
		c0-1.78-4.433-0.377-4.433-3.081c0-1.118,0.962-1.95,2.704-1.95c0.884,0,1.846,0.247,2.418,0.638l-0.403,0.74
		c-0.598-0.416-1.313-0.585-2.015-0.585c-1.235,0-1.781,0.481-1.781,1.132c0,1.846,4.434,0.455,4.434,3.081
		c0,1.183-1.04,1.95-2.821,1.95C-353.883-139.583-354.976-139.947-355.535-140.429z"/>
</g>
<polygon class="st6" points="-377.661,-154.425 -377.661,-134.425 -377.661,-134.175 -377.411,-134.175 -308.562,-134.175 
	-308.312,-134.175 -308.312,-134.425 -308.312,-154.425 -308.312,-154.675 -308.562,-154.675 -377.411,-154.675 -377.661,-154.675 
	"/>
<rect x="-377.911" y="-154.925" class="st9" width="69.849" height="21"/>
<rect x="-782.308" y="52.405" class="st11" width="1014" height="21"/>
<path class="st3" d="M-155.147,52.405c-2.209,0-4,1.791-4,4v12.382c0,2.209,1.791,4,4,4h77.131c2.209,0,4-1.791,4-4V56.405
	c0-2.209-1.791-4-4-4H-155.147z"/>
<rect x="-782.058" y="52.655" class="st12" width="1013.5" height="20.5"/>
<path class="st13" d="M215.548,55.265v1.481c0,0.397,0.187,0.771,0.505,1.009l6.367,4.762c0.258,0.194,0.258,0.583,0,0.776
	l-6.367,4.762c-0.318,0.238-0.505,0.612-0.505,1.01v1.48c0,0.41,0.467,0.644,0.795,0.399l10.111-7.563
	c0.318-0.237,0.318-0.714,0-0.952l-10.11-7.562C216.015,54.621,215.548,54.856,215.548,55.265"/>
<path class="st13" d="M-766.455,70.545v-1.481c0-0.397-0.187-0.771-0.505-1.009l-6.367-4.762c-0.258-0.194-0.258-0.583,0-0.776
	l6.367-4.762c0.318-0.238,0.505-0.612,0.505-1.01v-1.48c0-0.41-0.467-0.644-0.795-0.399l-10.111,7.563
	c-0.318,0.237-0.318,0.714,0,0.952l10.11,7.562C-766.922,71.189-766.455,70.954-766.455,70.545"/>
<rect x="-782.308" y="52.405" class="st9" width="1014" height="21"/>
<rect x="273.465" y="-192.14" class="st11" width="21" height="702.123"/>
<path class="st3" d="M273.465,221.821c0,2.209,1.791,4,4,4h12.382c2.209,0,4-1.791,4-4v-78.286c0-2.209-1.791-4-4-4h-12.382
	c-2.209,0-4,1.791-4,4V221.821z"/>
<rect x="273.715" y="-191.891" class="st12" width="20.5" height="701.624"/>
<path class="st13" d="M276.325-178.605h1.481c0.397,0,0.771-0.19,1.009-0.512l4.762-6.453c0.194-0.262,0.583-0.262,0.776,0
	l4.762,6.453c0.238,0.322,0.612,0.512,1.01,0.512h1.48c0.41,0,0.644-0.474,0.399-0.806l-7.563-10.248
	c-0.237-0.322-0.714-0.322-0.952,0l-7.562,10.248C275.681-179.079,275.916-178.605,276.325-178.605"/>
<path class="st13" d="M291.605,495.647h-1.481c-0.397,0-0.771,0.19-1.009,0.512l-4.762,6.453c-0.194,0.262-0.583,0.262-0.776,0
	l-4.762-6.453c-0.238-0.322-0.612-0.512-1.01-0.512h-1.48c-0.41,0-0.644,0.474-0.399,0.806l7.563,10.248
	c0.237,0.322,0.714,0.322,0.952,0l7.562-10.248C292.249,496.121,292.014,495.647,291.605,495.647"/>
<rect x="273.465" y="-192.141" class="st9" width="21" height="702.124"/>
<g>
	<g>
		<line class="st7" x1="-447.509" y1="-69.161" x2="-460.526" y2="-69.161"/>
		<line class="st7" x1="-447.509" y1="-79.337" x2="-460.526" y2="-79.337"/>
		<line class="st7" x1="-447.509" y1="-74.249" x2="-460.526" y2="-74.249"/>
		<g>
			<path class="st5" d="M-464.169-80.807v2.104h-0.487v-1.714h-0.421v-0.391H-464.169z"/>
		</g>
		<g>
			<path class="st5" d="M-463.408-73.84v0.396h-1.59v-0.315l0.812-0.767c0.187-0.178,0.22-0.286,0.22-0.388
				c0-0.165-0.114-0.262-0.337-0.262c-0.18,0-0.333,0.069-0.436,0.21l-0.355-0.228c0.163-0.238,0.457-0.392,0.836-0.392
				c0.469,0,0.781,0.241,0.781,0.623c0,0.204-0.057,0.391-0.352,0.664l-0.484,0.457H-463.408z"/>
		</g>
		<g>
			<path class="st5" d="M-463.426-69.081c0,0.354-0.273,0.68-0.872,0.68c-0.295,0-0.599-0.081-0.803-0.226l0.189-0.373
				c0.159,0.121,0.382,0.189,0.601,0.189c0.244,0,0.394-0.099,0.394-0.271c0-0.159-0.117-0.258-0.394-0.258h-0.223v-0.322
				l0.433-0.49h-0.896v-0.391h1.473v0.316l-0.475,0.541C-463.618-69.625-463.426-69.391-463.426-69.081z"/>
		</g>
	</g>
	<polygon class="st6" points="-469.555,-87.604 -469.555,-61.604 -469.555,-61.354 -469.305,-61.354 -443.305,-61.354 
		-443.055,-61.354 -443.055,-61.604 -443.055,-87.604 -443.055,-87.854 -443.305,-87.854 -469.305,-87.854 -469.555,-87.854 	"/>
</g>
<polygon class="st6" points="-531.388,-87.604 -531.388,-61.604 -531.388,-61.354 -531.138,-61.354 -505.138,-61.354 
	-504.888,-61.354 -504.888,-61.604 -504.888,-87.604 -504.888,-87.854 -505.138,-87.854 -531.138,-87.854 -531.388,-87.854 "/>
<g>
	<polygon class="st6" points="-501.046,-87.604 -501.046,-61.604 -501.046,-61.354 -500.796,-61.354 -474.796,-61.354 
		-474.546,-61.354 -474.546,-61.604 -474.546,-87.604 -474.546,-87.854 -474.796,-87.854 -500.796,-87.854 -501.046,-87.854 	"/>
	<path class="st7" d="M-479.514-69.479h-13.016 M-479.514-74.612h-13.016 M-479.514-79.744h-13.016"/>
	<path class="st5" d="M-494.616-74.028c0.161-0.156,0.241-0.349,0.241-0.581c0-0.15-0.037-0.288-0.11-0.414
		c-0.073-0.125-0.172-0.224-0.297-0.297c-0.126-0.073-0.264-0.11-0.415-0.11c-0.15,0-0.288,0.037-0.41,0.11
		c-0.122,0.073-0.221,0.172-0.294,0.297c-0.072,0.126-0.11,0.264-0.11,0.414c0,0.232,0.08,0.425,0.238,0.581
		c0.157,0.156,0.35,0.234,0.576,0.234C-494.97-73.794-494.777-73.872-494.616-74.028"/>
	<path class="st5" d="M-495.193-78.662c0.489,0,0.885-0.396,0.885-0.885c0-0.488-0.396-0.885-0.885-0.885
		c-0.488,0-0.885,0.397-0.885,0.885C-496.078-79.058-495.681-78.662-495.193-78.662"/>
	<path class="st5" d="M-494.616-69.011c0.161-0.156,0.241-0.349,0.241-0.581c0-0.15-0.037-0.288-0.11-0.414
		c-0.073-0.125-0.172-0.224-0.297-0.297c-0.126-0.073-0.264-0.11-0.415-0.11c-0.15,0-0.288,0.037-0.41,0.11
		c-0.122,0.073-0.221,0.172-0.294,0.297c-0.072,0.126-0.11,0.264-0.11,0.414c0,0.232,0.08,0.425,0.238,0.581
		c0.157,0.156,0.35,0.234,0.576,0.234C-494.97-68.777-494.777-68.855-494.616-69.011"/>
</g>
<path class="st7" d="M-509.856-69.472h-13.016 M-509.856-74.605h-13.016 M-509.856-79.737h-13.016"/>
<rect x="-526.42" y="-80.506" class="st5" width="1.77" height="1.77"/>
<rect x="-526.42" y="-75.49" class="st5" width="1.77" height="1.77"/>
<rect x="-526.42" y="-70.472" class="st5" width="1.77" height="1.77"/>
<rect x="-187.898" y="-155.394" class="st2" width="245" height="57.75"/>
<text transform="matrix(1 0 0 1 -113.2002 -129.1983)"><tspan x="0" y="0" class="st5" style="font-family:'Montserrat-Regular'; font-size:13px;">N</tspan><tspan x="10.478" y="0" class="st5" style="font-family:'Montserrat-Regular'; font-size:13px;">e</tspan><tspan x="18.135" y="0" class="st5" style="font-family:'Montserrat-Regular'; font-size:13px;">u</tspan><tspan x="26.753" y="0" class="st5" style="font-family:'Montserrat-Regular'; font-size:13px;">e </tspan><tspan x="38.011" y="0" class="st5" style="font-family:'Montserrat-Regular'; font-size:13px; letter-spacing:-1;">T</tspan><tspan x="44.381" y="0" class="st5" style="font-family:'Montserrat-Regular'; font-size:13px;">e</tspan><tspan x="51.882" y="0" class="st5" style="font-family:'Montserrat-Regular'; font-size:13px;">x</tspan><tspan x="59.097" y="0" class="st5" style="font-family:'Montserrat-Regular'; font-size:13px;">t</tspan><tspan x="64.128" y="0" class="st5" style="font-family:'Montserrat-Regular'; font-size:13px;">b</tspan><tspan x="72.942" y="0" class="st5" style="font-family:'Montserrat-Regular'; font-size:13px;">o</tspan><tspan x="80.742" y="0" class="st5" style="font-family:'Montserrat-Regular'; font-size:13px;">x </tspan></text>
<path class="st14" d="M-65.398-107.435c3.707,0,6.713-3.005,6.713-6.712c0-3.708-3.006-6.713-6.713-6.713
	c-3.707,0-6.712,3.005-6.712,6.713C-72.11-110.44-69.105-107.435-65.398-107.435z"/>
<rect x="-187.898" y="-155.394" class="st9" width="245" height="57.75"/>
<line class="st15" x1="-65.398" y1="-117.682" x2="-65.398" y2="-110.613"/>
<line class="st15" x1="-68.932" y1="-114.116" x2="-61.864" y2="-114.116"/>
<path class="st14" d="M-176.359-67.6c3.707,0,6.713-3.005,6.713-6.712c0-3.708-3.006-6.713-6.713-6.713s-6.712,3.005-6.712,6.713
	C-183.071-70.605-180.066-67.6-176.359-67.6z"/>
<line class="st15" x1="-176.359" y1="-77.846" x2="-176.359" y2="-70.777"/>
<line class="st15" x1="-179.893" y1="-74.281" x2="-172.825" y2="-74.281"/>
<g>
	<path class="st16" d="M-672.252-52.464h-3.138v-1.85h8.544v1.85h-3.138v7.956h-2.269V-52.464z"/>
	<path class="st16" d="M-665.631-54.314h2.269v9.806h-2.269V-54.314z"/>
	<path class="st16" d="M-652.537-50.755c0,2.185-1.639,3.544-4.258,3.544h-1.975v2.703h-2.269v-9.806h4.244
		C-654.175-54.314-652.537-52.955-652.537-50.755z M-654.834-50.755c0-1.079-0.701-1.709-2.087-1.709h-1.849v3.403h1.849
		C-655.534-49.061-654.834-49.691-654.834-50.755z"/>
	<path class="st16" d="M-642.415-50.755c0,2.185-1.639,3.544-4.258,3.544h-1.975v2.703h-2.269v-9.806h4.244
		C-644.053-54.314-642.415-52.955-642.415-50.755z M-644.712-50.755c0-1.079-0.701-1.709-2.087-1.709h-1.849v3.403h1.849
		C-645.412-49.061-644.712-49.691-644.712-50.755z"/>
</g>
<path class="st16" d="M-708.879-58.785L-708.879-58.785c-1.054,2.474-1.96,4.602-2.889,6.784h5.729
	C-706.983-54.257-707.865-56.365-708.879-58.785 M-705.386-41.195L-705.386-41.195c-0.346-1.15-0.211-1.759,1.044-1.8
	c0.976-0.033,1.343-0.74,1.02-1.64c-0.507-1.414-1.072-2.81-1.681-4.183c-0.109-0.245-0.55-0.478-0.843-0.484
	c-2.129-0.041-4.261-0.046-6.39,0.005c-0.305,0.008-0.741,0.315-0.877,0.599c-0.558,1.155-1.057,2.342-1.512,3.542
	c-0.57,1.504-0.268,2.026,1.348,2.192c0.783,0.081,1.206,0.319,1.022,1.126c-0.056,0.243-0.355,0.61-0.547,0.613
	c-2.524,0.042-5.049,0.028-7.596,0.028c-0.214-0.956-0.321-1.631,0.868-1.885c0.569-0.122,1.219-0.609,1.515-1.117
	c0.755-1.293,1.377-2.67,1.972-4.049c2.401-5.559,4.761-11.135,7.172-16.689c0.173-0.398,0.634-0.67,0.96-1
	c0.319,0.343,0.766,0.632,0.937,1.037c2.56,6.048,5.079,12.114,7.622,18.17c0.326,0.776,0.705,1.534,1.106,2.275
	c0.507,0.939,1.332,1.389,2.379,1.595c0.265,0.052,0.519,0.638,0.586,1.013c0.032,0.175-0.39,0.621-0.611,0.624
	C-699.044-41.182-702.197-41.195-705.386-41.195"/>
<path class="st5" d="M-611.641-48.733c2.682-0.014,4.762-2.036,4.751-4.621c-0.01-2.367-2.203-4.406-4.733-4.399
	c-2.703,0.008-4.848,2.038-4.825,4.568C-616.425-50.721-614.265-48.72-611.641-48.733 M-606.086-48.72L-606.086-48.72
	c0.393-0.231,0.569-0.207,0.91,0.115c1.249,1.181,2.501,2.361,3.751,3.541c0.086,0.08,0.173,0.159,0.252,0.246
	c0.216,0.237,0.217,0.464-0.012,0.692c-0.249,0.248-0.509,0.488-0.767,0.727c-0.302,0.28-0.548,0.287-0.855,0
	c-1.177-1.103-2.348-2.211-3.522-3.318c-0.132-0.124-0.263-0.25-0.396-0.373c-0.368-0.34-0.394-0.487-0.153-0.896
	c-0.368-0.336-0.737-0.673-1.128-1.029c-1.472,1.07-3.153,1.471-5.011,1.06c-1.415-0.313-2.544-1.054-3.377-2.178
	c-1.65-2.23-1.286-5.335,0.823-7.11c2.222-1.87,5.521-1.904,7.68-0.117c2.217,1.835,2.765,5.106,0.696,7.583
	C-606.825-49.424-606.456-49.073-606.086-48.72"/>
<path class="st17" d="M-611.641-48.733c2.682-0.014,4.762-2.036,4.751-4.621c-0.01-2.367-2.203-4.406-4.733-4.399
	c-2.703,0.008-4.848,2.038-4.825,4.568C-616.425-50.721-614.265-48.72-611.641-48.733z M-606.086-48.72L-606.086-48.72
	c0.393-0.231,0.569-0.207,0.91,0.115c1.249,1.181,2.501,2.361,3.751,3.541c0.086,0.08,0.173,0.159,0.252,0.246
	c0.216,0.237,0.217,0.464-0.012,0.692c-0.249,0.248-0.509,0.488-0.767,0.727c-0.302,0.28-0.548,0.287-0.855,0
	c-1.177-1.103-2.348-2.211-3.522-3.318c-0.132-0.124-0.263-0.25-0.396-0.373c-0.368-0.34-0.394-0.487-0.153-0.896
	c-0.368-0.336-0.737-0.673-1.128-1.029c-1.472,1.07-3.153,1.471-5.011,1.06c-1.415-0.313-2.544-1.054-3.377-2.178
	c-1.65-2.23-1.286-5.335,0.823-7.11c2.222-1.87,5.521-1.904,7.68-0.117c2.217,1.835,2.765,5.106,0.696,7.583
	C-606.825-49.424-606.456-49.073-606.086-48.72z"/>
<path class="st5" d="M-547.927-58.314l2.966,2.98v-2.758c0-0.096-0.055-0.229-0.123-0.297l-3.807-3.826
	c-0.068-0.067-0.178-0.067-0.245,0l-3.93,3.949v2.758c0,0.096,0.055,0.119,0.122,0.051l2.844-2.857
	c0.068-0.068,0.122-0.046,0.122,0.05v7.829h0v2.168c0,0.096-0.055,0.118-0.123,0.05l-2.966-2.98v2.758
	c0,0.096,0.055,0.229,0.123,0.297l3.807,3.826c0.068,0.067,0.178,0.067,0.245,0l3.93-3.949v-2.758c0-0.096-0.055-0.119-0.122-0.051
	l-2.844,2.857c-0.068,0.068-0.122,0.046-0.122-0.05v-7.829h0v-2.168C-548.05-58.36-547.995-58.382-547.927-58.314z"/>
<line class="st18" x1="-584.066" y1="-45.078" x2="-556.233" y2="-45.078"/>
<line class="st18" x1="-584.066" y1="-53.374" x2="-556.233" y2="-53.374"/>
<line class="st18" x1="-584.066" y1="-61.366" x2="-556.233" y2="-61.366"/>
<line class="st18" x1="-569.724" y1="-26.106" x2="-569.724" y2="-5.106"/>
<path class="st5" d="M-562.264-12.263L-562.264-12.263h2.695l-2.603-2.569c-0.138-0.135-0.093-0.245,0.101-0.245h7.006v-1.407
	c0-0.193-0.157-0.35-0.35-0.35h-6.656c-0.194,0-0.239-0.11-0.101-0.246l2.603-2.569h-2.345c-0.193,0-0.462,0.111-0.599,0.246
	l-3.245,3.201c-0.137,0.136-0.137,0.356,0,0.492L-562.264-12.263z"/>
<path class="st5" d="M-578.034-19.475L-578.034-19.475h-2.695l2.603,2.569c0.138,0.135,0.093,0.245-0.101,0.245h-7.006v1.407
	c0,0.193,0.157,0.35,0.35,0.35h6.656c0.194,0,0.239,0.11,0.101,0.246l-2.603,2.569h2.345c0.193,0,0.462-0.111,0.599-0.246
	l3.245-3.201c0.137-0.136,0.137-0.356,0-0.492L-578.034-19.475z"/>
<line class="st19" x1="-253.438" y1="-145.219" x2="-289.461" y2="-145.219"/>
<path class="st20" d="M-261.941-142.073c2.045,0,3.703-1.658,3.703-3.703c0-2.045-1.658-3.703-3.703-3.703
	c-2.045,0-3.703,1.658-3.703,3.703C-265.644-143.731-263.986-142.073-261.941-142.073"/>
<g>
	<path class="st5" d="M-238.742-145.018c0,3.12-1.82,4.836-4.459,4.836c-0.91,0-1.781-0.195-2.392-0.585l0.624-1.274
		c0.494,0.325,1.092,0.442,1.729,0.442c1.716,0,2.795-1.066,2.795-3.133v-0.014c-0.546,0.638-1.417,0.949-2.431,0.949
		c-1.794,0-3.133-1.092-3.133-2.795c0-1.807,1.469-2.951,3.328-2.951C-240.198-149.543-238.742-147.943-238.742-145.018z
		 M-240.705-146.682c0-0.858-0.676-1.534-1.885-1.534c-1.053,0-1.781,0.598-1.781,1.547s0.715,1.547,1.82,1.547
		C-241.459-145.123-240.705-145.786-240.705-146.682z"/>
	<path class="st5" d="M-230.877-143.107c0,1.599-1.157,2.925-3.602,2.925c-1.287,0-2.587-0.39-3.419-1.053l0.715-1.313
		c0.663,0.546,1.651,0.897,2.678,0.897c1.209,0,1.924-0.533,1.924-1.392c0-0.871-0.559-1.417-2.444-1.417h-2.197l0.468-4.953h5.343
		v1.417h-3.913l-0.195,2.106h0.871C-231.956-145.889-230.877-144.719-230.877-143.107z"/>
	<path class="st5" d="M-226.457-147.007c0-1.495,0.871-2.496,2.171-2.496s2.184,0.988,2.184,2.496s-0.884,2.496-2.184,2.496
		S-226.457-145.512-226.457-147.007z M-223.168-147.007c0-1.014-0.416-1.586-1.118-1.586c-0.676,0-1.118,0.585-1.118,1.586
		s0.442,1.586,1.118,1.586C-223.584-145.421-223.168-145.994-223.168-147.007z M-218.826-149.413h1.274l-6.214,9.101h-1.274
		L-218.826-149.413z M-220.49-142.717c0-1.495,0.871-2.496,2.171-2.496c1.3,0,2.184,1.001,2.184,2.496s-0.884,2.496-2.184,2.496
		C-219.619-140.221-220.49-141.222-220.49-142.717z M-217.201-142.717c0-1.001-0.429-1.586-1.118-1.586s-1.118,0.572-1.118,1.586
		c0,1.015,0.429,1.586,1.118,1.586S-217.201-141.716-217.201-142.717z"/>
</g>
<rect x="-275.501" y="-91.076" class="st11" width="13.149" height="16.764"/>
<polygon class="st21" points="-275.501,-74.312 -275.501,-74.312 -262.352,-74.312 -262.352,-91.076 -275.501,-91.076 "/>
<rect x="-283.173" y="-91.547" class="st9" width="21.291" height="24"/>
<line class="st22" x1="-278.675" y1="-83.381" x2="-278.675" y2="-72.994"/>
<line class="st23" x1="-276.044" y1="-71.105" x2="-266.395" y2="-71.105"/>
<path class="st21" d="M-265.518-71.105h0.877 M-278.675-72.049v0.944h0.877 M-278.675-86.214v0.944"/>
<polyline class="st21" points="-282.702,-83.126 -282.702,-68.018 -268.668,-68.018 "/>
<rect x="-283.173" y="-91.547" class="st9" width="21.291" height="24"/>
<rect x="-243.927" y="-91.145" class="st11" width="14.674" height="18.705"/>
<polygon class="st24" points="-243.927,-72.44 -243.927,-72.44 -229.254,-72.44 -229.254,-91.145 -243.927,-91.145 "/>
<rect x="-244.329" y="-91.547" class="st9" width="19.884" height="24"/>
<rect x="-239.52" y="-86.654" class="st5" width="14.674" height="18.705"/>
<polygon class="st25" points="-239.52,-67.949 -239.52,-67.949 -224.847,-67.949 -224.847,-86.654 -239.52,-86.654 "/>
<rect x="-244.329" y="-91.547" class="st9" width="19.884" height="24"/>
<rect x="-342.82" y="-87.598" class="st10" width="34.924" height="19.551"/>
<g>
	<path class="st11" d="M-328.578-76.08h-5.72c0.104,1.43,1.196,2.379,2.691,2.379c0.832,0,1.573-0.299,2.093-0.897l0.52,0.599
		c-0.611,0.728-1.56,1.118-2.639,1.118c-2.132,0-3.588-1.456-3.588-3.484s1.417-3.472,3.341-3.472c1.924,0,3.315,1.417,3.315,3.472
		C-328.565-76.288-328.578-76.184-328.578-76.08z M-334.299-76.769h4.849c-0.117-1.339-1.092-2.275-2.431-2.275
		C-333.206-79.045-334.181-78.108-334.299-76.769z"/>
	<path class="st11" d="M-327.331-81.943c0-0.352,0.299-0.65,0.676-0.65s0.676,0.286,0.676,0.637c0,0.378-0.286,0.677-0.676,0.677
		C-327.032-81.28-327.331-81.579-327.331-81.943z M-327.123-79.785h0.923v6.838h-0.923V-79.785z"/>
	<path class="st11" d="M-317.905-76.912v3.965h-0.923v-3.874c0-1.443-0.754-2.185-2.054-2.185c-1.469,0-2.392,0.91-2.392,2.471
		v3.588h-0.923v-6.838h0.884v1.261c0.494-0.832,1.417-1.313,2.6-1.313C-319.049-79.837-317.905-78.876-317.905-76.912z"/>
</g>
<polygon class="st6" points="-377.828,-87.723 -377.828,-67.723 -377.828,-67.473 -377.578,-67.473 -308.729,-67.473 
	-308.479,-67.473 -308.479,-67.723 -308.479,-87.723 -308.479,-87.973 -308.729,-87.973 -377.578,-87.973 -377.828,-87.973 "/>
<rect x="-378.078" y="-88.223" class="st9" width="70.183" height="21"/>
<line class="st26" x1="-236.764" y1="1.916" x2="-236.764" y2="26.176"/>
<path class="st5" d="M-228.666,17.734L-228.666,17.734h2.592l-2.494-2.46c-0.138-0.135-0.093-0.245,0.101-0.245h6.725V13.69
	c0-0.193-0.157-0.35-0.35-0.35h-6.725l2.743-2.705h-2.242c-0.193,0-0.462,0.11-0.599,0.245l-3.102,3.059
	c-0.137,0.135-0.137,0.355,0,0.491L-228.666,17.734z"/>
<line class="st26" x1="-263.709" y1="26.009" x2="-263.709" y2="1.749"/>
<path class="st5" d="M-271.806,10.191L-271.806,10.191h-2.592l2.494,2.46c0.138,0.135,0.093,0.245-0.101,0.245h-6.725v1.339
	c0,0.193,0.157,0.35,0.35,0.35h6.725l-2.743,2.705h2.242c0.193,0,0.462-0.11,0.599-0.245l3.102-3.059
	c0.137-0.135,0.137-0.355,0-0.491L-271.806,10.191z"/>
<line class="st26" x1="-453.451" y1="9.787" x2="-429.191" y2="9.787"/>
<path class="st5" d="M-437.8,1.73L-437.8,1.73v-2.592l-2.46,2.494c-0.135,0.138-0.245,0.093-0.245-0.101v-6.725h-1.339
	c-0.193,0-0.35,0.157-0.35,0.35v6.725l-2.705-2.743V1.38c0,0.193,0.11,0.462,0.245,0.599l3.059,3.102
	c0.135,0.137,0.355,0.137,0.491,0L-437.8,1.73z"/>
<path class="st5" d="M-444.732,16.882L-444.732,16.882v2.592l2.46-2.494c0.135-0.138,0.245-0.093,0.245,0.101v6.725h1.339
	c0.193,0,0.35-0.157,0.35-0.35v-6.725l2.705,2.743v-2.242c0-0.193-0.11-0.462-0.245-0.599l-3.059-3.102
	c-0.135-0.137-0.355-0.137-0.491,0L-444.732,16.882z"/>
<line class="st26" x1="-397.005" y1="22.598" x2="-397.005" y2="-1.662"/>
<path class="st5" d="M-405.062,6.947L-405.062,6.947h-2.592l2.494,2.46c0.138,0.135,0.093,0.245-0.101,0.245h-6.725v1.339
	c0,0.193,0.157,0.35,0.35,0.35h6.725l-2.743,2.705h2.242c0.193,0,0.462-0.11,0.599-0.245l3.102-3.059
	c0.137-0.135,0.137-0.355,0-0.491L-405.062,6.947z"/>
<path class="st5" d="M-389.91,13.879L-389.91,13.879h2.592l-2.494-2.46c-0.138-0.135-0.093-0.245,0.101-0.245h6.725V9.835
	c0-0.193-0.157-0.35-0.35-0.35h-6.725l2.743-2.705h-2.242c-0.193,0-0.462,0.11-0.599,0.245l-3.102,3.059
	c-0.137,0.135-0.137,0.355,0,0.491L-389.91,13.879z"/>
<line class="st26" x1="-364.863" y1="10.071" x2="-340.603" y2="10.071"/>
<path class="st5" d="M-356.144,17.165L-356.144,17.165v2.592l2.46-2.494c0.135-0.138,0.245-0.093,0.245,0.101v6.725h1.339
	c0.193,0,0.35-0.157,0.35-0.35v-6.725l2.705,2.743v-2.242c0-0.193-0.11-0.462-0.245-0.599l-3.059-3.102
	c-0.135-0.137-0.355-0.137-0.491,0L-356.144,17.165z"/>
<line class="st26" x1="-319.752" y1="21.326" x2="-295.492" y2="21.326"/>
<path class="st5" d="M-303.933,12.937L-303.933,12.937v-2.592l-2.46,2.494c-0.135,0.138-0.245,0.093-0.245-0.101V6.013h-1.339
	c-0.193,0-0.35,0.157-0.35,0.35v6.725l-2.705-2.743v2.242c0,0.193,0.11,0.462,0.245,0.599l3.059,3.102
	c0.135,0.137,0.355,0.137,0.491,0L-303.933,12.937z"/>
<rect x="-173.888" y="-5.6" class="st11" width="15.769" height="20.056"/>
<line class="st27" x1="-170.931" y1="14.456" x2="-160.09" y2="14.456"/>
<line class="st28" x1="-158.119" y1="11.448" x2="-158.119" y2="-3.594"/>
<line class="st27" x1="-161.076" y1="-5.6" x2="-171.917" y2="-5.6"/>
<line class="st28" x1="-173.888" y1="-2.592" x2="-173.888" y2="12.45"/>
<path class="st21" d="M-173.889,13.453v1.003h0.986 M-172.903-5.6h-0.986v1.003 M-158.12-4.597V-5.6h-0.985 M-159.105,14.456h0.985
	v-1.003"/>
<polygon class="st11" points="-185.124,24.456 -185.124,24.456 -169.355,24.456 -169.355,4.4 -185.124,4.4 "/>
<line class="st27" x1="-182.167" y1="24.456" x2="-171.326" y2="24.456"/>
<line class="st28" x1="-169.355" y1="21.448" x2="-169.355" y2="6.406"/>
<line class="st27" x1="-172.312" y1="4.4" x2="-183.153" y2="4.4"/>
<line class="st28" x1="-185.124" y1="7.408" x2="-185.124" y2="22.45"/>
<path class="st21" d="M-185.125,23.453v1.003h0.986 M-184.139,4.4h-0.986v1.003 M-169.356,5.403V4.4h-0.985 M-170.34,24.456h0.985
	v-1.003"/>
<polygon class="st11" points="-194.598,32.456 -194.598,32.456 -178.829,32.456 -178.829,12.4 -194.598,12.4 "/>
<polygon class="st21" points="-194.598,32.456 -194.598,32.456 -178.829,32.456 -178.829,12.4 -194.598,12.4 "/>
<g>
	<polygon class="st11" points="-120.762,18.762 -120.762,18.762 -104.993,18.762 -104.993,-1.294 -120.762,-1.294 	"/>
	<polygon class="st21" points="-120.762,18.762 -120.762,18.762 -104.993,18.762 -104.993,-1.294 -120.762,-1.294 	"/>
	<line class="st29" x1="-124.526" y1="7.26" x2="-124.526" y2="20.764"/>
	<line class="st30" x1="-121.389" y1="22.565" x2="-109.886" y2="22.565"/>
	<path class="st21" d="M-108.841,22.565h1.046 M-124.526,21.665v0.9h1.046 M-124.526,4.56v0.9"/>
</g>
<g>
	<rect x="-48.222" y="-13.015" class="st11" width="15.769" height="20.056"/>
	<polygon class="st21" points="-48.222,7.041 -48.222,7.041 -32.453,7.041 -32.453,-13.015 -48.222,-13.015 	"/>
	<polygon class="st11" points="-59.458,17.041 -59.458,17.041 -43.689,17.041 -43.689,-3.015 -59.458,-3.015 	"/>
	<line class="st27" x1="-56.501" y1="17.041" x2="-45.66" y2="17.041"/>
	<line class="st28" x1="-43.689" y1="14.033" x2="-43.689" y2="-1.009"/>
	<line class="st27" x1="-46.646" y1="-3.015" x2="-57.487" y2="-3.015"/>
	<line class="st28" x1="-59.458" y1="-0.006" x2="-59.458" y2="15.036"/>
	<path class="st21" d="M-59.459,16.038v1.003h0.986 M-58.473-3.015h-0.986v1.003 M-43.69-2.012v-1.003h-0.985 M-44.675,17.041h0.985
		v-1.003"/>
	<polygon class="st11" points="-68.932,25.041 -68.932,25.041 -53.163,25.041 -53.163,4.985 -68.932,4.985 	"/>
	<line class="st27" x1="-65.975" y1="25.041" x2="-55.134" y2="25.041"/>
	<line class="st28" x1="-53.163" y1="22.033" x2="-53.163" y2="6.991"/>
	<line class="st27" x1="-56.119" y1="4.985" x2="-66.96" y2="4.985"/>
	<line class="st28" x1="-68.932" y1="7.994" x2="-68.932" y2="23.036"/>
	<path class="st21" d="M-68.932,24.038v1.003h0.986 M-67.946,4.985h-0.986v1.003 M-53.163,5.988V4.985h-0.985 M-54.148,25.041h0.985
		v-1.003"/>
</g>
<line class="st27" x1="7.192" y1="20.527" x2="18.033" y2="20.527"/>
<line class="st28" x1="20.004" y1="17.518" x2="20.004" y2="2.476"/>
<line class="st27" x1="17.047" y1="0.47" x2="6.206" y2="0.47"/>
<line class="st28" x1="4.235" y1="3.479" x2="4.235" y2="18.521"/>
<path class="st21" d="M4.234,19.524v1.003H5.22 M5.22,0.471H4.234v1.003 M20.003,1.474V0.471h-0.985 M19.018,20.527h0.985v-1.003"/>
<polyline class="st21" points="0.47,6.325 0.47,24.33 17.201,24.33 "/>
<g>
	<defs>
		<rect id="SVGID_1_" x="-754.804" y="114.363" width="241.682" height="1"/>
	</defs>
	<clipPath id="SVGID_00000006705310518815824420000007399966137692273799_">
		<use xlink:href="#SVGID_1_"  style="overflow:visible;"/>
	</clipPath>
	
		<line style="clip-path:url(#SVGID_00000006705310518815824420000007399966137692273799_);fill:none;stroke:#B2B2B2;stroke-linecap:round;stroke-linejoin:round;stroke-dasharray:0,3.009;" x1="-751.296" y1="114.863" x2="-515.126" y2="114.863"/>
	
		<path style="clip-path:url(#SVGID_00000006705310518815824420000007399966137692273799_);fill:none;stroke:#B2B2B2;stroke-linecap:round;stroke-linejoin:round;" d="
		M-513.622,114.863L-513.622,114.863 M-754.304,114.863L-754.304,114.863"/>
</g>
<circle class="st33" cx="-707.906" cy="-106.349" r="12.75"/>
<polygon class="st3" points="-564.513,-121.372 -577.513,-121.372 -571.145,-110.897 "/>
<polygon class="st5" points="-556.49,7.17 -566.965,13.538 -556.49,20.17 "/>
<polygon class="st5" points="-585.537,20.17 -575.062,13.802 -585.537,7.17 "/>
<polygon class="st5" points="-502.983,7.17 -513.458,13.538 -502.983,20.17 "/>
<polygon class="st5" points="-538.16,20.17 -527.685,13.802 -538.16,7.17 "/>
<rect x="-377.911" y="-121.361" class="st10" width="34.924" height="19.551"/>
<polygon class="st6" points="-377.661,-121.486 -377.661,-101.486 -377.661,-101.236 -377.411,-101.236 -308.562,-101.236 
	-308.312,-101.236 -308.312,-101.486 -308.312,-121.486 -308.312,-121.736 -308.562,-121.736 -377.411,-121.736 -377.661,-121.736 
	"/>
<rect x="-377.911" y="-121.986" class="st9" width="69.849" height="21"/>
<rect x="-342.547" y="-55.333" class="st10" width="34.924" height="19.551"/>
<polygon class="st6" points="-377.555,-55.458 -377.555,-35.458 -377.555,-35.208 -377.305,-35.208 -308.456,-35.208 
	-308.206,-35.208 -308.206,-35.458 -308.206,-55.458 -308.206,-55.708 -308.456,-55.708 -377.305,-55.708 -377.555,-55.708 "/>
<rect x="-377.805" y="-55.958" class="st9" width="70.183" height="21"/>
<line class="st19" x1="-254.516" y1="-125.432" x2="-290.539" y2="-125.432"/>
<path class="st20" d="M-263.019-122.285c2.045,0,3.703-1.658,3.703-3.703c0-2.045-1.658-3.703-3.703-3.703
	c-2.045,0-3.703,1.658-3.703,3.703C-266.722-123.943-265.064-122.285-263.019-122.285"/>
<line class="st19" x1="53.809" y1="-94.652" x2="17.786" y2="-94.652"/>
<path class="st20" d="M45.306-91.506c2.045,0,3.703-1.658,3.703-3.703s-1.658-3.703-3.703-3.703c-2.045,0-3.703,1.658-3.703,3.703
	S43.261-91.506,45.306-91.506"/>
</svg>
