<?xml version="1.0" encoding="utf-8"?>
<!-- Generator: Adobe Illustrator 26.0.3, SVG Export Plug-In . SVG Version: 6.00 Build 0)  -->
<svg version="1.1" id="Ebene_1" xmlns="http://www.w3.org/2000/svg" xmlns:xlink="http://www.w3.org/1999/xlink" x="0px" y="0px"
	 width="37.42px" height="38.997px" viewBox="0 0 37.42 38.997" style="enable-background:new 0 0 37.42 38.997;"
	 xml:space="preserve">
<style type="text/css">
	.st0{fill:none;stroke:#C5C5C5;stroke-width:3;stroke-linecap:round;stroke-linejoin:round;}
	.st1{fill:#FFAEFF;stroke:#4F4D4D;stroke-width:0.5;}
	.st2{fill:#F8F8F8;}
	.st3{fill:#0E689A;}
	.st4{fill:none;stroke:#B2B1B1;stroke-width:0.65;stroke-miterlimit:10;}
	.st5{fill:#B2B1B1;}
	.st6{fill:none;stroke:#B2B2B2;stroke-width:0.5;stroke-miterlimit:10;}
	.st7{fill:none;stroke:#B2B1B1;stroke-width:0.3;stroke-miterlimit:10;}
	.st8{fill:none;stroke:#FFFFFF;stroke-width:0.021;}
	.st9{fill:none;}
	.st10{fill:#0E6899;}
	.st11{fill:#FFFFFF;}
	.st12{fill:none;stroke:#C5C5C5;stroke-width:0.5;stroke-linecap:round;stroke-linejoin:round;}
	.st13{fill:#C5C5C5;}
	.st14{fill:none;stroke:#B2B1B1;stroke-width:0.5;}
	.st15{fill:none;stroke:#B2B1B1;stroke-width:1.2;}
	.st16{fill:#B2B2B2;}
	.st17{fill:none;stroke:#FFFFFF;stroke-width:0.001;}
	.st18{fill:none;stroke:#B2B1B1;stroke-width:1.712;}
	.st19{fill:none;stroke:#B2B1B1;stroke-width:2;}
	.st20{fill:#AD5E7A;}
	.st21{fill:none;stroke:#B2B1B1;stroke-width:0.941;}
	.st22{fill:none;stroke:#B2B1B1;stroke-width:0.941;stroke-dasharray:1.889,1.889;}
	.st23{fill:none;stroke:#B2B1B1;stroke-width:0.941;stroke-dasharray:1.754,1.754;}
	.st24{fill:none;stroke:#B2B1B1;stroke-width:0.804;}
	.st25{fill:none;stroke:#FFFFFF;stroke-width:0.804;}
	.st26{fill:none;stroke:#B2B1B1;stroke-width:2.5;}
	.st27{fill:none;stroke:#B2B1B1;stroke-width:0.941;stroke-dasharray:1.971,1.971;}
	.st28{fill:none;stroke:#B2B1B1;stroke-width:0.941;stroke-dasharray:2.006,2.006;}
	.st29{fill:none;stroke:#B2B1B1;stroke-width:0.941;stroke-dasharray:1.801,1.801;}
	.st30{fill:none;stroke:#B2B1B1;stroke-width:0.941;stroke-dasharray:2.091,2.091;}
	
		.st31{clip-path:url(#SVGID_00000176044237088197525980000010540064353627506587_);fill:none;stroke:#B2B2B2;stroke-linecap:round;stroke-linejoin:round;stroke-dasharray:0,3.009;}
	
		.st32{clip-path:url(#SVGID_00000176044237088197525980000010540064353627506587_);fill:none;stroke:#B2B2B2;stroke-linecap:round;stroke-linejoin:round;}
	.st33{fill:none;stroke:#4F4D4D;stroke-width:0.5;}
</style>
<polyline class="st0" points="1479.056,826.378 1472.806,817.378 1466.056,826.378 "/>
<circle class="st1" cx="-512.837" cy="-136.371" r="12.75"/>
<rect x="-480.376" y="-147.386" class="st2" width="119.902" height="21"/>
<polygon class="st3" points="-369.547,-142.123 -382.547,-142.123 -376.179,-131.648 "/>
<g>
	<g>
		<line class="st4" x1="-256.535" y1="-129.865" x2="-246.252" y2="-129.865"/>
		<g>
			<path class="st5" d="M-255.248-135.091v-5.175h1.3v5.122c0,2.016,0.923,2.926,2.561,2.926c1.638,0,2.574-0.91,2.574-2.926v-5.122
				h1.261v5.175c0,2.639-1.443,4.029-3.848,4.029C-253.792-131.062-255.248-132.452-255.248-135.091z"/>
		</g>
	</g>
	<polygon class="st6" points="-264.643,-148.066 -264.643,-122.066 -264.643,-121.816 -264.393,-121.816 -238.393,-121.816 
		-238.143,-121.816 -238.143,-122.066 -238.143,-148.066 -238.143,-148.316 -238.393,-148.316 -264.393,-148.316 -264.643,-148.316 
			"/>
</g>
<g>
	<g>
		<path class="st5" d="M-285.997-139.992h1.3l-1.82,9.101h-1.3L-285.997-139.992z"/>
	</g>
	<polygon class="st6" points="-299.508,-148.442 -299.508,-122.442 -299.508,-122.192 -299.258,-122.192 -273.258,-122.192 
		-273.008,-122.192 -273.008,-122.442 -273.008,-148.442 -273.008,-148.692 -273.258,-148.692 -299.258,-148.692 -299.508,-148.692 
			"/>
</g>
<g>
	<g>
		<path class="st5" d="M-319.146-133.323c0,1.573-1.248,2.483-3.64,2.483h-4.706v-9.101h4.446c2.275,0,3.445,0.949,3.445,2.366
			c0,0.91-0.468,1.612-1.209,2.002C-319.796-135.247-319.146-134.467-319.146-133.323z M-325.399-138.354v2.146h2.093
			c1.027,0,1.586-0.364,1.586-1.079s-0.559-1.066-1.586-1.066H-325.399z M-321.265-133.544c0-0.767-0.585-1.131-1.677-1.131h-2.457
			v2.249h2.457C-321.85-132.426-321.265-132.764-321.265-133.544z"/>
	</g>
	<polygon class="st6" points="-336.569,-148.39 -336.569,-122.39 -336.569,-122.14 -336.319,-122.14 -310.319,-122.14 
		-310.069,-122.14 -310.069,-122.39 -310.069,-148.39 -310.069,-148.64 -310.319,-148.64 -336.319,-148.64 -336.569,-148.64 	"/>
</g>
<path class="st7" d="M-282.381-106.436"/>
<path class="st7" d="M-284.889-105.182"/>
<path class="st7" d="M-284.889-103.929"/>
<path class="st7" d="M-284.889-102.674"/>
<path class="st7" d="M-282.381-101.42"/>
<path class="st7" d="M-282.381-100.166"/>
<path class="st7" d="M-284.889-98.912"/>
<path class="st7" d="M-284.889-96.405"/>
<path class="st7" d="M-282.381-93.897"/>
<g>
	<path class="st7" d="M-301.845-101.42"/>
	<path class="st7" d="M-301.845-106.436"/>
	<path class="st7" d="M-301.845-93.897"/>
	<path class="st7" d="M-301.845-100.166"/>
	<g>
		<path class="st7" d="M-299.783-98.912"/>
		<path class="st7" d="M-299.783-102.674"/>
		<path class="st7" d="M-299.783-103.929"/>
		<path class="st7" d="M-299.783-105.182"/>
		<line class="st7" x1="-302.221" y1="-94.692" x2="-282.757" y2="-94.692"/>
		<line class="st7" x1="-302.221" y1="-95.967" x2="-287.327" y2="-95.967"/>
		<line class="st7" x1="-302.221" y1="-97.243" x2="-287.327" y2="-97.243"/>
		<line class="st7" x1="-302.221" y1="-98.519" x2="-287.327" y2="-98.519"/>
		<line class="st7" x1="-302.221" y1="-99.795" x2="-282.757" y2="-99.795"/>
		<line class="st7" x1="-302.221" y1="-101.071" x2="-282.757" y2="-101.071"/>
		<line class="st7" x1="-302.148" y1="-102.347" x2="-287.254" y2="-102.347"/>
		<line class="st7" x1="-302.221" y1="-103.623" x2="-282.757" y2="-103.623"/>
		<line class="st7" x1="-302.221" y1="-104.899" x2="-287.327" y2="-104.899"/>
		<line class="st7" x1="-302.221" y1="-106.175" x2="-287.327" y2="-106.175"/>
		<line class="st7" x1="-302.221" y1="-107.451" x2="-282.757" y2="-107.451"/>
	</g>
	<polygon class="st6" points="-305.548,-113.745 -305.548,-87.752 -305.548,-87.502 -305.298,-87.502 -279.305,-87.502 
		-279.055,-87.502 -279.055,-87.752 -279.055,-113.745 -279.055,-113.995 -279.305,-113.995 -305.298,-113.995 -305.548,-113.995 	
		"/>
</g>
<g>
	<g>
		<line class="st7" x1="-251.501" y1="-107.134" x2="-270.965" y2="-107.134"/>
		<line class="st7" x1="-254.009" y1="-105.857" x2="-268.903" y2="-105.857"/>
		<line class="st7" x1="-254.009" y1="-104.58" x2="-268.903" y2="-104.58"/>
		<line class="st7" x1="-254.009" y1="-103.303" x2="-268.903" y2="-103.303"/>
		<line class="st7" x1="-251.501" y1="-102.026" x2="-270.965" y2="-102.026"/>
		<line class="st7" x1="-251.501" y1="-100.749" x2="-270.965" y2="-100.749"/>
		<line class="st7" x1="-254.009" y1="-99.472" x2="-268.903" y2="-99.472"/>
		<line class="st7" x1="-251.501" y1="-98.195" x2="-270.965" y2="-98.195"/>
		<line class="st7" x1="-254.009" y1="-96.918" x2="-268.903" y2="-96.918"/>
		<line class="st7" x1="-254.009" y1="-95.641" x2="-268.903" y2="-95.641"/>
		<line class="st7" x1="-251.501" y1="-94.364" x2="-270.965" y2="-94.364"/>
	</g>
	<polygon class="st6" points="-274.479,-113.745 -274.479,-87.752 -274.479,-87.502 -274.229,-87.502 -248.236,-87.502 
		-247.986,-87.502 -247.986,-87.752 -247.986,-113.745 -247.986,-113.995 -248.236,-113.995 -274.229,-113.995 -274.479,-113.995 	
		"/>
</g>
<polygon class="st6" points="-243.41,-113.745 -243.41,-87.752 -243.41,-87.502 -243.16,-87.502 -217.167,-87.502 -216.917,-87.502 
	-216.917,-87.752 -216.917,-113.745 -216.917,-113.995 -217.167,-113.995 -243.16,-113.995 -243.41,-113.995 "/>
<path class="st7" d="M-240.084-95.061"/>
<path class="st7" d="M-240.084-100.077"/>
<path class="st7" d="M-240.084-101.331"/>
<path class="st7" d="M-240.084-107.601"/>
<path class="st7" d="M-222.681-102.585"/>
<path class="st7" d="M-220.619-100.077"/>
<path class="st7" d="M-222.681-98.824"/>
<path class="st7" d="M-220.619-95.061"/>
<path class="st7" d="M-220.619-107.601"/>
<path class="st7" d="M-220.619-101.331"/>
<path class="st7" d="M-222.681-97.569"/>
<path class="st7" d="M-222.681-96.315"/>
<g>
	<path class="st7" d="M-237.764-96.638"/>
	<path class="st7" d="M-237.764-97.892"/>
	<path class="st7" d="M-237.764-99.146"/>
	<path class="st7" d="M-237.764-102.908"/>
	<path class="st7" d="M-237.764-105.416"/>
	<line class="st7" x1="-220.432" y1="-107.128" x2="-239.896" y2="-107.128"/>
	<line class="st7" x1="-220.432" y1="-105.853" x2="-235.326" y2="-105.853"/>
	<line class="st7" x1="-220.432" y1="-104.577" x2="-235.326" y2="-104.577"/>
	<line class="st7" x1="-220.432" y1="-103.301" x2="-235.326" y2="-103.301"/>
	<line class="st7" x1="-220.432" y1="-102.025" x2="-239.896" y2="-102.025"/>
	<line class="st7" x1="-220.432" y1="-100.749" x2="-239.896" y2="-100.749"/>
	<line class="st7" x1="-220.505" y1="-99.473" x2="-235.399" y2="-99.473"/>
	<line class="st7" x1="-220.432" y1="-98.197" x2="-239.896" y2="-98.197"/>
	<line class="st7" x1="-220.432" y1="-96.921" x2="-235.326" y2="-96.921"/>
	<line class="st7" x1="-220.432" y1="-95.645" x2="-235.326" y2="-95.645"/>
	<line class="st7" x1="-220.432" y1="-94.37" x2="-239.896" y2="-94.37"/>
</g>
<polygon class="st6" points="-336.319,-113.739 -336.319,-87.746 -336.319,-87.496 -336.069,-87.496 -310.076,-87.496 
	-309.826,-87.496 -309.826,-87.746 -309.826,-113.739 -309.826,-113.989 -310.076,-113.989 -336.069,-113.989 -336.319,-113.989 "/>
<path class="st7" d="M-313.152-106.436"/>
<path class="st7" d="M-313.152-101.42"/>
<path class="st7" d="M-313.152-100.166"/>
<path class="st7" d="M-313.152-93.897"/>
<path class="st7" d="M-330.554-98.912"/>
<path class="st7" d="M-332.616-101.42"/>
<path class="st7" d="M-330.554-102.674"/>
<path class="st7" d="M-332.616-106.436"/>
<path class="st7" d="M-332.616-93.897"/>
<path class="st7" d="M-332.616-100.166"/>
<path class="st7" d="M-330.554-103.929"/>
<path class="st7" d="M-330.554-105.182"/>
<g>
	<path class="st7" d="M-315.66-105.182"/>
	<path class="st7" d="M-315.66-103.929"/>
	<path class="st7" d="M-315.66-102.674"/>
	<path class="st7" d="M-315.66-98.912"/>
	<path class="st7" d="M-315.66-96.405"/>
	<line class="st7" x1="-332.992" y1="-94.692" x2="-313.528" y2="-94.692"/>
	<line class="st7" x1="-332.992" y1="-95.967" x2="-313.528" y2="-95.967"/>
	<line class="st7" x1="-332.992" y1="-97.243" x2="-313.528" y2="-97.243"/>
	<line class="st7" x1="-332.992" y1="-98.519" x2="-313.528" y2="-98.519"/>
	<line class="st7" x1="-332.992" y1="-99.795" x2="-313.528" y2="-99.795"/>
	<line class="st7" x1="-332.992" y1="-101.071" x2="-313.528" y2="-101.071"/>
	<line class="st7" x1="-332.919" y1="-102.347" x2="-313.455" y2="-102.347"/>
	<line class="st7" x1="-332.992" y1="-103.623" x2="-313.528" y2="-103.623"/>
	<line class="st7" x1="-332.992" y1="-104.899" x2="-313.528" y2="-104.899"/>
	<line class="st7" x1="-332.992" y1="-106.175" x2="-313.528" y2="-106.175"/>
	<line class="st7" x1="-332.992" y1="-107.451" x2="-313.528" y2="-107.451"/>
</g>
<path class="st5" d="M-505.876,1.41l-1.915,13.335c-0.058,0.402-0.431,0.682-0.834,0.624c-0.402-0.058-0.682-0.431-0.624-0.833
	l1.915-13.336c0.058-0.402,0.431-0.681,0.834-0.623C-506.098,0.635-505.818,1.007-505.876,1.41 M-512.693,15.485
	c-0.407,0.003-0.74-0.324-0.742-0.73l-0.106-13.472c-0.003-0.407,0.324-0.739,0.73-0.742c0.408-0.003,0.74,0.324,0.743,0.731
	l0.105,13.471C-511.96,15.15-512.287,15.482-512.693,15.485 M-516.764,15.432c-0.401,0.064-0.779-0.209-0.842-0.61l-2.124-13.304
	c-0.064-0.402,0.209-0.779,0.612-0.843c0.401-0.064,0.778,0.209,0.842,0.611l2.123,13.303
	C-516.089,14.991-516.362,15.368-516.764,15.432 M-502.981-0.976c-0.141-0.169-0.353-0.266-0.573-0.264l-18.538,0.144
	c-0.22,0.002-0.429,0.101-0.568,0.272c-0.14,0.17-0.196,0.393-0.155,0.609l3.092,16.141c0.068,0.351,0.376,0.605,0.734,0.602
	l12.497-0.098c0.356-0.002,0.66-0.258,0.724-0.608l2.949-16.188C-502.779-0.582-502.84-0.807-502.981-0.976"/>
<path class="st8" d="M-505.876,1.41l-1.915,13.335c-0.058,0.402-0.431,0.682-0.834,0.624c-0.402-0.058-0.682-0.431-0.624-0.833
	l1.915-13.336c0.058-0.402,0.431-0.681,0.834-0.623C-506.098,0.635-505.818,1.007-505.876,1.41z M-512.693,15.485
	c-0.407,0.003-0.74-0.324-0.742-0.73l-0.106-13.472c-0.003-0.407,0.324-0.739,0.73-0.742c0.408-0.003,0.74,0.324,0.743,0.731
	l0.105,13.471C-511.96,15.15-512.287,15.482-512.693,15.485z M-516.764,15.432c-0.401,0.064-0.779-0.209-0.842-0.61l-2.124-13.304
	c-0.064-0.402,0.209-0.779,0.612-0.843c0.401-0.064,0.778,0.209,0.842,0.611l2.123,13.303
	C-516.089,14.991-516.362,15.368-516.764,15.432z M-502.981-0.976c-0.141-0.169-0.353-0.266-0.573-0.264l-18.538,0.144
	c-0.22,0.002-0.429,0.101-0.568,0.272c-0.14,0.17-0.196,0.393-0.155,0.609l3.092,16.141c0.068,0.351,0.376,0.605,0.734,0.602
	l12.497-0.098c0.356-0.002,0.66-0.258,0.724-0.608l2.949-16.188C-502.779-0.582-502.84-0.807-502.981-0.976z"/>
<path class="st5" d="M-515.668-5.583L-515.668-5.583l-0.004-0.421l5.49-0.043l0.004,0.421L-515.668-5.583z M-501.931-4.173
	L-501.931-4.173l-2.025,0.016l-0.009-1.171c-0.001-0.091-0.038-0.18-0.103-0.244c-0.065-0.064-0.155-0.1-0.246-0.1l-4.467,0.035
	l-0.009-1.12c-0.002-0.184-0.077-0.363-0.209-0.492c-0.131-0.13-0.311-0.203-0.495-0.201l-6.887,0.054
	c-0.183,0.001-0.363,0.077-0.492,0.208c-0.129,0.131-0.202,0.312-0.2,0.496l0.009,1.12l-4.164,0.032
	c-0.091,0.001-0.18,0.039-0.243,0.104c-0.065,0.065-0.101,0.154-0.101,0.246l0.009,1.171l-2.197,0.017l0.017,2.225l21.829-0.17
	L-501.931-4.173z"/>
<path class="st8" d="M-515.668-5.583L-515.668-5.583l-0.004-0.421l5.49-0.043l0.004,0.421L-515.668-5.583z M-501.931-4.173
	L-501.931-4.173l-2.025,0.016l-0.009-1.171c-0.001-0.091-0.038-0.18-0.103-0.244c-0.065-0.064-0.155-0.1-0.246-0.1l-4.467,0.035
	l-0.009-1.12c-0.002-0.184-0.077-0.363-0.209-0.492c-0.131-0.13-0.311-0.203-0.495-0.201l-6.887,0.054
	c-0.183,0.001-0.363,0.077-0.492,0.208c-0.129,0.131-0.202,0.312-0.2,0.496l0.009,1.12l-4.164,0.032
	c-0.091,0.001-0.18,0.039-0.243,0.104c-0.065,0.065-0.101,0.154-0.101,0.246l0.009,1.171l-2.197,0.017l0.017,2.225l21.829-0.17
	L-501.931-4.173z"/>
<rect x="-523.771" y="-7.462" class="st9" width="21.868" height="24"/>
<rect x="-182.842" y="-148.229" class="st10" width="34.924" height="19.551"/>
<g>
	<path class="st11" d="M-169.864-137.816v4.238h-0.884v-1.066c-0.416,0.702-1.222,1.132-2.354,1.132
		c-1.547,0-2.496-0.807-2.496-1.989c0-1.054,0.676-1.938,2.639-1.938h2.171v-0.416c0-1.17-0.663-1.807-1.938-1.807
		c-0.884,0-1.716,0.312-2.275,0.806l-0.416-0.688c0.689-0.585,1.703-0.924,2.782-0.924
		C-170.865-140.469-169.864-139.584-169.864-137.816z M-170.787-135.632v-1.118h-2.146c-1.326,0-1.755,0.52-1.755,1.222
		c0,0.793,0.637,1.287,1.729,1.287C-171.919-134.241-171.152-134.735-170.787-135.632z"/>
	<path class="st11" d="M-161.765-140.416v6.838h-0.884v-1.248c-0.481,0.832-1.365,1.313-2.458,1.313
		c-1.742,0-2.886-0.976-2.886-2.938v-3.965h0.923v3.874c0,1.456,0.754,2.197,2.054,2.197c1.43,0,2.327-0.924,2.327-2.483v-3.588
		H-161.765z"/>
	<path class="st11" d="M-160.466-134.358l0.416-0.728c0.546,0.429,1.469,0.767,2.431,0.767c1.3,0,1.833-0.441,1.833-1.118
		c0-1.78-4.433-0.377-4.433-3.081c0-1.118,0.962-1.95,2.704-1.95c0.884,0,1.846,0.247,2.418,0.638l-0.403,0.74
		c-0.598-0.416-1.313-0.585-2.015-0.585c-1.235,0-1.781,0.481-1.781,1.132c0,1.846,4.434,0.455,4.434,3.081
		c0,1.183-1.04,1.95-2.821,1.95C-158.815-133.513-159.907-133.877-160.466-134.358z"/>
</g>
<polygon class="st6" points="-182.592,-148.354 -182.592,-128.354 -182.592,-128.104 -182.342,-128.104 -113.493,-128.104 
	-113.243,-128.104 -113.243,-128.354 -113.243,-148.354 -113.243,-148.604 -113.493,-148.604 -182.342,-148.604 -182.592,-148.604 
	"/>
<rect x="-182.842" y="-148.854" class="st9" width="69.849" height="21"/>
<rect x="-587.239" y="58.476" class="st11" width="1014" height="21"/>
<path class="st3" d="M39.922,58.476c-2.209,0-4,1.791-4,4v12.382c0,2.209,1.791,4,4,4h77.131c2.209,0,4-1.791,4-4V62.476
	c0-2.209-1.791-4-4-4H39.922z"/>
<rect x="-586.989" y="58.726" class="st12" width="1013.5" height="20.5"/>
<path class="st13" d="M410.617,61.336v1.481c0,0.397,0.187,0.771,0.505,1.009l6.367,4.762c0.258,0.194,0.258,0.583,0,0.776
	l-6.367,4.762c-0.318,0.238-0.505,0.612-0.505,1.01v1.48c0,0.41,0.467,0.644,0.795,0.399l10.111-7.563
	c0.318-0.237,0.318-0.714,0-0.952l-10.11-7.562C411.084,60.692,410.617,60.927,410.617,61.336"/>
<path class="st13" d="M-571.386,76.616v-1.481c0-0.397-0.187-0.771-0.505-1.009l-6.367-4.762c-0.258-0.194-0.258-0.583,0-0.776
	l6.367-4.762c0.318-0.238,0.505-0.612,0.505-1.01v-1.48c0-0.41-0.467-0.644-0.795-0.399l-10.111,7.563
	c-0.318,0.237-0.318,0.714,0,0.952l10.11,7.562C-571.853,77.26-571.386,77.025-571.386,76.616"/>
<rect x="-587.239" y="58.476" class="st9" width="1014" height="21"/>
<rect x="468.534" y="-186.07" class="st11" width="21" height="702.123"/>
<path class="st3" d="M468.534,227.892c0,2.209,1.791,4,4,4h12.382c2.209,0,4-1.791,4-4v-78.286c0-2.209-1.791-4-4-4h-12.382
	c-2.209,0-4,1.791-4,4V227.892z"/>
<rect x="468.784" y="-185.821" class="st12" width="20.5" height="701.624"/>
<path class="st13" d="M471.394-172.534h1.481c0.397,0,0.771-0.19,1.009-0.512l4.762-6.453c0.194-0.262,0.583-0.262,0.776,0
	l4.762,6.453c0.238,0.322,0.612,0.512,1.01,0.512h1.48c0.41,0,0.644-0.474,0.399-0.806l-7.563-10.248
	c-0.237-0.322-0.714-0.322-0.952,0l-7.562,10.248C470.75-173.008,470.985-172.534,471.394-172.534"/>
<path class="st13" d="M486.674,501.717h-1.481c-0.397,0-0.771,0.19-1.009,0.512l-4.762,6.453c-0.194,0.262-0.583,0.262-0.776,0
	l-4.762-6.453c-0.238-0.322-0.612-0.512-1.01-0.512h-1.48c-0.41,0-0.644,0.474-0.399,0.806l7.563,10.248
	c0.237,0.322,0.714,0.322,0.952,0l7.562-10.248C487.318,502.191,487.083,501.717,486.674,501.717"/>
<rect x="468.534" y="-186.071" class="st9" width="21" height="702.124"/>
<g>
	<g>
		<line class="st7" x1="-252.441" y1="-63.091" x2="-265.458" y2="-63.091"/>
		<line class="st7" x1="-252.441" y1="-73.267" x2="-265.458" y2="-73.267"/>
		<line class="st7" x1="-252.441" y1="-68.179" x2="-265.458" y2="-68.179"/>
		<g>
			<path class="st5" d="M-269.1-74.737v2.104h-0.487v-1.714h-0.421v-0.391H-269.1z"/>
		</g>
		<g>
			<path class="st5" d="M-268.339-67.769v0.396h-1.59v-0.315l0.812-0.767c0.187-0.178,0.22-0.286,0.22-0.388
				c0-0.165-0.114-0.262-0.337-0.262c-0.18,0-0.333,0.069-0.436,0.21l-0.355-0.228c0.163-0.238,0.457-0.392,0.836-0.392
				c0.469,0,0.781,0.241,0.781,0.623c0,0.204-0.057,0.391-0.352,0.664l-0.484,0.457H-268.339z"/>
		</g>
		<g>
			<path class="st5" d="M-268.357-63.011c0,0.354-0.273,0.68-0.872,0.68c-0.295,0-0.599-0.081-0.803-0.226l0.189-0.373
				c0.159,0.121,0.382,0.189,0.601,0.189c0.244,0,0.394-0.099,0.394-0.271c0-0.159-0.117-0.258-0.394-0.258h-0.223v-0.322
				l0.433-0.49h-0.896v-0.391h1.473v0.316l-0.475,0.541C-268.55-63.555-268.357-63.32-268.357-63.011z"/>
		</g>
	</g>
	<polygon class="st6" points="-274.486,-81.534 -274.486,-55.534 -274.486,-55.284 -274.236,-55.284 -248.236,-55.284 
		-247.986,-55.284 -247.986,-55.534 -247.986,-81.534 -247.986,-81.784 -248.236,-81.784 -274.236,-81.784 -274.486,-81.784 	"/>
</g>
<polygon class="st6" points="-336.319,-81.534 -336.319,-55.534 -336.319,-55.284 -336.069,-55.284 -310.069,-55.284 
	-309.819,-55.284 -309.819,-55.534 -309.819,-81.534 -309.819,-81.784 -310.069,-81.784 -336.069,-81.784 -336.319,-81.784 "/>
<g>
	<polygon class="st6" points="-305.977,-81.534 -305.977,-55.534 -305.977,-55.284 -305.727,-55.284 -279.727,-55.284 
		-279.477,-55.284 -279.477,-55.534 -279.477,-81.534 -279.477,-81.784 -279.727,-81.784 -305.727,-81.784 -305.977,-81.784 	"/>
	<path class="st7" d="M-284.445-63.409h-13.016 M-284.445-68.542h-13.016 M-284.445-73.674h-13.016"/>
	<path class="st5" d="M-299.547-67.957c0.161-0.156,0.241-0.349,0.241-0.581c0-0.15-0.037-0.288-0.11-0.414
		c-0.073-0.125-0.172-0.224-0.297-0.297c-0.126-0.073-0.264-0.11-0.415-0.11c-0.15,0-0.288,0.037-0.41,0.11
		c-0.122,0.073-0.221,0.172-0.294,0.297c-0.072,0.126-0.11,0.264-0.11,0.414c0,0.232,0.08,0.425,0.238,0.581
		c0.157,0.156,0.35,0.234,0.576,0.234C-299.901-67.723-299.708-67.801-299.547-67.957"/>
	<path class="st5" d="M-300.124-72.592c0.489,0,0.885-0.396,0.885-0.885c0-0.488-0.396-0.885-0.885-0.885
		c-0.488,0-0.885,0.397-0.885,0.885C-301.009-72.988-300.612-72.592-300.124-72.592"/>
	<path class="st5" d="M-299.547-62.94c0.161-0.156,0.241-0.349,0.241-0.581c0-0.15-0.037-0.288-0.11-0.414
		c-0.073-0.125-0.172-0.224-0.297-0.297c-0.126-0.073-0.264-0.11-0.415-0.11c-0.15,0-0.288,0.037-0.41,0.11
		s-0.221,0.172-0.294,0.297c-0.072,0.126-0.11,0.264-0.11,0.414c0,0.232,0.08,0.425,0.238,0.581c0.157,0.156,0.35,0.234,0.576,0.234
		C-299.901-62.706-299.708-62.784-299.547-62.94"/>
</g>
<path class="st7" d="M-314.787-63.402h-13.016 M-314.787-68.535h-13.016 M-314.787-73.667h-13.016"/>
<rect x="-331.351" y="-74.436" class="st5" width="1.77" height="1.77"/>
<rect x="-331.351" y="-69.42" class="st5" width="1.77" height="1.77"/>
<rect x="-331.351" y="-64.402" class="st5" width="1.77" height="1.77"/>
<rect x="7.171" y="-149.323" class="st2" width="245" height="57.75"/>
<text transform="matrix(1 0 0 1 81.8686 -123.1278)"><tspan x="0" y="0" class="st5" style="font-family:'Montserrat-Regular'; font-size:13px;">N</tspan><tspan x="10.478" y="0" class="st5" style="font-family:'Montserrat-Regular'; font-size:13px;">e</tspan><tspan x="18.135" y="0" class="st5" style="font-family:'Montserrat-Regular'; font-size:13px;">u</tspan><tspan x="26.753" y="0" class="st5" style="font-family:'Montserrat-Regular'; font-size:13px;">e </tspan><tspan x="38.011" y="0" class="st5" style="font-family:'Montserrat-Regular'; font-size:13px; letter-spacing:-1;">T</tspan><tspan x="44.381" y="0" class="st5" style="font-family:'Montserrat-Regular'; font-size:13px;">e</tspan><tspan x="51.882" y="0" class="st5" style="font-family:'Montserrat-Regular'; font-size:13px;">x</tspan><tspan x="59.097" y="0" class="st5" style="font-family:'Montserrat-Regular'; font-size:13px;">t</tspan><tspan x="64.128" y="0" class="st5" style="font-family:'Montserrat-Regular'; font-size:13px;">b</tspan><tspan x="72.942" y="0" class="st5" style="font-family:'Montserrat-Regular'; font-size:13px;">o</tspan><tspan x="80.742" y="0" class="st5" style="font-family:'Montserrat-Regular'; font-size:13px;">x </tspan></text>
<path class="st14" d="M129.671-101.365c3.707,0,6.713-3.005,6.713-6.712c0-3.708-3.006-6.713-6.713-6.713
	c-3.707,0-6.712,3.005-6.712,6.713C122.959-104.37,125.964-101.365,129.671-101.365z"/>
<rect x="7.171" y="-149.323" class="st9" width="245" height="57.75"/>
<line class="st15" x1="129.671" y1="-111.611" x2="129.671" y2="-104.542"/>
<line class="st15" x1="126.137" y1="-108.046" x2="133.205" y2="-108.046"/>
<path class="st14" d="M18.71-61.529c3.707,0,6.713-3.005,6.713-6.712c0-3.708-3.006-6.713-6.713-6.713
	c-3.707,0-6.712,3.005-6.712,6.713C11.998-64.534,15.003-61.529,18.71-61.529z"/>
<line class="st15" x1="18.71" y1="-71.776" x2="18.71" y2="-64.707"/>
<line class="st15" x1="15.175" y1="-68.21" x2="22.243" y2="-68.21"/>
<g>
	<path class="st16" d="M-477.183-46.394h-3.138v-1.85h8.544v1.85h-3.138v7.956h-2.269V-46.394z"/>
	<path class="st16" d="M-470.562-48.244h2.269v9.806h-2.269V-48.244z"/>
	<path class="st16" d="M-457.468-44.685c0,2.185-1.639,3.544-4.258,3.544h-1.975v2.703h-2.269v-9.806h4.244
		C-459.107-48.244-457.468-46.884-457.468-44.685z M-459.765-44.685c0-1.079-0.701-1.709-2.087-1.709h-1.849v3.403h1.849
		C-460.466-42.991-459.765-43.621-459.765-44.685z"/>
	<path class="st16" d="M-447.346-44.685c0,2.185-1.639,3.544-4.258,3.544h-1.975v2.703h-2.269v-9.806h4.244
		C-448.985-48.244-447.346-46.884-447.346-44.685z M-449.643-44.685c0-1.079-0.701-1.709-2.087-1.709h-1.849v3.403h1.849
		C-450.343-42.991-449.643-43.621-449.643-44.685z"/>
</g>
<path class="st16" d="M-513.81-52.715L-513.81-52.715c-1.054,2.474-1.96,4.602-2.889,6.784h5.729
	C-511.914-48.187-512.796-50.295-513.81-52.715 M-510.317-35.125L-510.317-35.125c-0.346-1.15-0.211-1.759,1.044-1.8
	c0.976-0.033,1.343-0.74,1.02-1.64c-0.507-1.414-1.072-2.81-1.681-4.183c-0.109-0.245-0.55-0.478-0.843-0.484
	c-2.129-0.041-4.261-0.046-6.39,0.005c-0.305,0.008-0.741,0.315-0.877,0.599c-0.558,1.155-1.057,2.342-1.512,3.542
	c-0.57,1.504-0.268,2.026,1.348,2.192c0.783,0.081,1.206,0.319,1.022,1.126c-0.056,0.243-0.355,0.61-0.547,0.613
	c-2.524,0.042-5.049,0.028-7.596,0.028c-0.214-0.956-0.321-1.631,0.868-1.885c0.569-0.122,1.219-0.609,1.515-1.117
	c0.755-1.293,1.377-2.67,1.972-4.049c2.401-5.559,4.761-11.135,7.172-16.689c0.173-0.398,0.634-0.67,0.96-1
	c0.319,0.343,0.766,0.632,0.937,1.037c2.56,6.048,5.079,12.114,7.622,18.17c0.326,0.776,0.705,1.534,1.106,2.275
	c0.507,0.939,1.332,1.389,2.379,1.595c0.265,0.052,0.519,0.638,0.586,1.013c0.032,0.175-0.39,0.621-0.611,0.624
	C-503.975-35.112-507.128-35.125-510.317-35.125"/>
<path class="st5" d="M-416.572-42.663c2.682-0.014,4.762-2.036,4.751-4.621c-0.01-2.367-2.203-4.406-4.733-4.399
	c-2.703,0.008-4.848,2.038-4.825,4.568C-421.356-44.651-419.196-42.65-416.572-42.663 M-411.017-42.65L-411.017-42.65
	c0.393-0.231,0.569-0.207,0.91,0.115c1.249,1.181,2.501,2.361,3.751,3.541c0.086,0.08,0.173,0.159,0.252,0.246
	c0.216,0.237,0.217,0.464-0.012,0.692c-0.249,0.248-0.509,0.488-0.767,0.727c-0.302,0.28-0.548,0.287-0.855,0
	c-1.177-1.103-2.348-2.211-3.522-3.318c-0.132-0.124-0.263-0.25-0.396-0.373c-0.368-0.34-0.394-0.487-0.153-0.896
	c-0.368-0.336-0.737-0.673-1.128-1.029c-1.472,1.07-3.153,1.471-5.011,1.06c-1.415-0.313-2.544-1.054-3.377-2.178
	c-1.65-2.23-1.286-5.335,0.823-7.11c2.222-1.87,5.521-1.904,7.68-0.117c2.217,1.835,2.765,5.106,0.696,7.583
	C-411.756-43.354-411.387-43.003-411.017-42.65"/>
<path class="st17" d="M-416.572-42.663c2.682-0.014,4.762-2.036,4.751-4.621c-0.01-2.367-2.203-4.406-4.733-4.399
	c-2.703,0.008-4.848,2.038-4.825,4.568C-421.356-44.651-419.196-42.65-416.572-42.663z M-411.017-42.65L-411.017-42.65
	c0.393-0.231,0.569-0.207,0.91,0.115c1.249,1.181,2.501,2.361,3.751,3.541c0.086,0.08,0.173,0.159,0.252,0.246
	c0.216,0.237,0.217,0.464-0.012,0.692c-0.249,0.248-0.509,0.488-0.767,0.727c-0.302,0.28-0.548,0.287-0.855,0
	c-1.177-1.103-2.348-2.211-3.522-3.318c-0.132-0.124-0.263-0.25-0.396-0.373c-0.368-0.34-0.394-0.487-0.153-0.896
	c-0.368-0.336-0.737-0.673-1.128-1.029c-1.472,1.07-3.153,1.471-5.011,1.06c-1.415-0.313-2.544-1.054-3.377-2.178
	c-1.65-2.23-1.286-5.335,0.823-7.11c2.222-1.87,5.521-1.904,7.68-0.117c2.217,1.835,2.765,5.106,0.696,7.583
	C-411.756-43.354-411.387-43.003-411.017-42.65z"/>
<path class="st5" d="M-352.858-52.243l2.966,2.98v-2.758c0-0.096-0.055-0.229-0.123-0.297l-3.807-3.826
	c-0.068-0.067-0.178-0.067-0.245,0l-3.93,3.949v2.758c0,0.096,0.055,0.119,0.122,0.051l2.844-2.857
	c0.068-0.068,0.122-0.046,0.122,0.05v7.829h0v2.168c0,0.096-0.055,0.118-0.123,0.05l-2.966-2.98v2.758
	c0,0.096,0.055,0.229,0.123,0.297l3.807,3.826c0.068,0.067,0.178,0.067,0.245,0l3.93-3.949v-2.758c0-0.096-0.055-0.119-0.122-0.051
	l-2.844,2.857c-0.068,0.068-0.122,0.046-0.122-0.05v-7.829h0v-2.168C-352.981-52.289-352.926-52.312-352.858-52.243z"/>
<line class="st18" x1="-388.997" y1="-39.007" x2="-361.164" y2="-39.007"/>
<line class="st18" x1="-388.997" y1="-47.303" x2="-361.164" y2="-47.303"/>
<line class="st18" x1="-388.997" y1="-55.295" x2="-361.164" y2="-55.295"/>
<line class="st18" x1="-374.655" y1="-20.036" x2="-374.655" y2="0.964"/>
<path class="st5" d="M-367.195-6.193L-367.195-6.193h2.695l-2.603-2.569c-0.138-0.135-0.093-0.245,0.101-0.245h7.006v-1.407
	c0-0.193-0.157-0.35-0.35-0.35h-6.656c-0.194,0-0.239-0.11-0.101-0.246l2.603-2.569h-2.345c-0.193,0-0.462,0.111-0.599,0.246
	l-3.245,3.201c-0.137,0.136-0.137,0.356,0,0.492L-367.195-6.193z"/>
<path class="st5" d="M-382.965-13.404L-382.965-13.404h-2.695l2.603,2.569c0.138,0.135,0.093,0.245-0.101,0.245h-7.006v1.407
	c0,0.193,0.157,0.35,0.35,0.35h6.656c0.194,0,0.239,0.11,0.101,0.246l-2.603,2.569h2.345c0.193,0,0.462-0.111,0.599-0.246
	l3.245-3.201c0.137-0.136,0.137-0.356,0-0.492L-382.965-13.404z"/>
<line class="st19" x1="-58.369" y1="-139.149" x2="-94.392" y2="-139.149"/>
<path class="st20" d="M-66.872-136.003c2.045,0,3.703-1.658,3.703-3.703s-1.658-3.703-3.703-3.703c-2.045,0-3.703,1.658-3.703,3.703
	S-68.917-136.003-66.872-136.003"/>
<g>
	<path class="st5" d="M-43.673-138.948c0,3.12-1.82,4.836-4.459,4.836c-0.91,0-1.781-0.195-2.392-0.585l0.624-1.274
		c0.494,0.325,1.092,0.442,1.729,0.442c1.716,0,2.795-1.066,2.795-3.133v-0.014c-0.546,0.638-1.417,0.949-2.431,0.949
		c-1.794,0-3.133-1.092-3.133-2.795c0-1.807,1.469-2.951,3.328-2.951C-45.129-143.472-43.673-141.872-43.673-138.948z
		 M-45.636-140.612c0-0.858-0.676-1.534-1.885-1.534c-1.053,0-1.781,0.598-1.781,1.547s0.715,1.547,1.82,1.547
		C-46.39-139.052-45.636-139.715-45.636-140.612z"/>
	<path class="st5" d="M-35.808-137.036c0,1.599-1.157,2.925-3.602,2.925c-1.287,0-2.587-0.39-3.419-1.053l0.715-1.313
		c0.663,0.546,1.651,0.897,2.678,0.897c1.209,0,1.924-0.533,1.924-1.392c0-0.871-0.559-1.417-2.444-1.417h-2.197l0.468-4.953h5.343
		v1.417h-3.913l-0.195,2.106h0.871C-36.887-139.819-35.808-138.649-35.808-137.036z"/>
	<path class="st5" d="M-31.388-140.937c0-1.495,0.871-2.496,2.171-2.496s2.184,0.988,2.184,2.496s-0.884,2.496-2.184,2.496
		S-31.388-139.442-31.388-140.937z M-28.099-140.937c0-1.014-0.416-1.586-1.118-1.586c-0.676,0-1.118,0.585-1.118,1.586
		s0.442,1.586,1.118,1.586C-28.515-139.351-28.099-139.923-28.099-140.937z M-23.757-143.342h1.274l-6.214,9.101h-1.274
		L-23.757-143.342z M-25.421-136.647c0-1.495,0.871-2.496,2.171-2.496c1.3,0,2.184,1.001,2.184,2.496s-0.884,2.496-2.184,2.496
		C-24.551-134.151-25.421-135.152-25.421-136.647z M-22.132-136.647c0-1.001-0.429-1.586-1.118-1.586s-1.118,0.572-1.118,1.586
		c0,1.015,0.429,1.586,1.118,1.586S-22.132-135.646-22.132-136.647z"/>
</g>
<rect x="-80.432" y="-85.006" class="st11" width="13.149" height="16.764"/>
<polygon class="st21" points="-80.432,-68.242 -80.432,-68.242 -67.283,-68.242 -67.283,-85.006 -80.432,-85.006 "/>
<rect x="-88.104" y="-85.477" class="st9" width="21.291" height="24"/>
<line class="st22" x1="-83.606" y1="-77.311" x2="-83.606" y2="-66.924"/>
<line class="st23" x1="-80.975" y1="-65.035" x2="-71.326" y2="-65.035"/>
<path class="st21" d="M-70.449-65.035h0.877 M-83.606-65.979v0.944h0.877 M-83.606-80.144v0.944"/>
<polyline class="st21" points="-87.633,-77.055 -87.633,-61.947 -73.599,-61.947 "/>
<rect x="-88.104" y="-85.477" class="st9" width="21.291" height="24"/>
<rect x="-48.858" y="-85.075" class="st11" width="14.674" height="18.705"/>
<polygon class="st24" points="-48.858,-66.37 -48.858,-66.37 -34.185,-66.37 -34.185,-85.075 -48.858,-85.075 "/>
<rect x="-49.26" y="-85.477" class="st9" width="19.884" height="24"/>
<rect x="-44.451" y="-80.584" class="st5" width="14.674" height="18.705"/>
<polygon class="st25" points="-44.452,-61.879 -44.452,-61.879 -29.779,-61.879 -29.779,-80.584 -44.452,-80.584 "/>
<rect x="-49.26" y="-85.477" class="st9" width="19.884" height="24"/>
<rect x="-147.751" y="-81.528" class="st10" width="34.924" height="19.551"/>
<g>
	<path class="st11" d="M-133.51-70.009h-5.72c0.104,1.43,1.196,2.379,2.691,2.379c0.832,0,1.573-0.299,2.093-0.897l0.52,0.599
		c-0.611,0.728-1.56,1.118-2.639,1.118c-2.132,0-3.588-1.456-3.588-3.484s1.417-3.472,3.341-3.472c1.924,0,3.315,1.417,3.315,3.472
		C-133.496-70.217-133.51-70.114-133.51-70.009z M-139.23-70.699h4.849c-0.117-1.339-1.092-2.275-2.431-2.275
		C-138.137-72.974-139.113-72.038-139.23-70.699z"/>
	<path class="st11" d="M-132.262-75.873c0-0.352,0.299-0.65,0.676-0.65s0.676,0.286,0.676,0.637c0,0.378-0.286,0.677-0.676,0.677
		C-131.963-75.209-132.262-75.508-132.262-75.873z M-132.054-73.714h0.923v6.838h-0.923V-73.714z"/>
	<path class="st11" d="M-122.837-70.841v3.965h-0.923v-3.874c0-1.443-0.754-2.185-2.054-2.185c-1.469,0-2.392,0.91-2.392,2.471
		v3.588h-0.923v-6.838h0.884v1.261c0.494-0.832,1.417-1.313,2.6-1.313C-123.981-73.767-122.837-72.805-122.837-70.841z"/>
</g>
<polygon class="st6" points="-182.759,-81.653 -182.759,-61.653 -182.759,-61.403 -182.509,-61.403 -113.66,-61.403 
	-113.41,-61.403 -113.41,-61.653 -113.41,-81.653 -113.41,-81.903 -113.66,-81.903 -182.509,-81.903 -182.759,-81.903 "/>
<rect x="-183.009" y="-82.153" class="st9" width="70.183" height="21"/>
<line class="st26" x1="-41.695" y1="7.986" x2="-41.695" y2="32.246"/>
<path class="st5" d="M-33.597,23.805L-33.597,23.805h2.592l-2.494-2.46c-0.138-0.135-0.093-0.245,0.101-0.245h6.725v-1.339
	c0-0.193-0.157-0.35-0.35-0.35h-6.725l2.743-2.705h-2.242c-0.193,0-0.462,0.11-0.599,0.245l-3.102,3.059
	c-0.137,0.135-0.137,0.355,0,0.491L-33.597,23.805z"/>
<line class="st26" x1="-68.64" y1="32.08" x2="-68.64" y2="7.82"/>
<path class="st5" d="M-76.737,16.261L-76.737,16.261h-2.592l2.494,2.46c0.138,0.135,0.093,0.245-0.101,0.245h-6.725v1.339
	c0,0.193,0.157,0.35,0.35,0.35h6.725l-2.743,2.705h2.242c0.193,0,0.462-0.11,0.599-0.245l3.102-3.059
	c0.137-0.135,0.137-0.355,0-0.491L-76.737,16.261z"/>
<line class="st26" x1="-258.382" y1="15.858" x2="-234.122" y2="15.858"/>
<path class="st5" d="M-242.731,7.8L-242.731,7.8V5.208l-2.46,2.494c-0.135,0.138-0.245,0.093-0.245-0.101V0.876h-1.339
	c-0.193,0-0.35,0.157-0.35,0.35v6.725l-2.705-2.743V7.45c0,0.193,0.11,0.462,0.245,0.599l3.059,3.102
	c0.135,0.137,0.355,0.137,0.491,0L-242.731,7.8z"/>
<path class="st5" d="M-249.663,22.952L-249.663,22.952v2.592l2.46-2.494c0.135-0.138,0.245-0.093,0.245,0.101v6.725h1.339
	c0.193,0,0.35-0.157,0.35-0.35v-6.725l2.705,2.743v-2.242c0-0.193-0.11-0.462-0.245-0.599l-3.059-3.102
	c-0.135-0.137-0.355-0.137-0.491,0L-249.663,22.952z"/>
<line class="st26" x1="-201.936" y1="28.668" x2="-201.936" y2="4.408"/>
<path class="st5" d="M-209.993,13.017L-209.993,13.017h-2.592l2.494,2.46c0.138,0.135,0.093,0.245-0.101,0.245h-6.725v1.339
	c0,0.193,0.157,0.35,0.35,0.35h6.725l-2.743,2.705h2.242c0.193,0,0.462-0.11,0.599-0.245l3.102-3.059
	c0.137-0.135,0.137-0.355,0-0.491L-209.993,13.017z"/>
<path class="st5" d="M-194.841,19.95L-194.841,19.95h2.592l-2.494-2.46c-0.138-0.135-0.093-0.245,0.101-0.245h6.725v-1.339
	c0-0.193-0.157-0.35-0.35-0.35h-6.725l2.743-2.705h-2.242c-0.193,0-0.462,0.11-0.599,0.245l-3.102,3.059
	c-0.137,0.135-0.137,0.355,0,0.491L-194.841,19.95z"/>
<line class="st26" x1="-169.794" y1="16.141" x2="-145.534" y2="16.141"/>
<path class="st5" d="M-161.075,23.235L-161.075,23.235v2.592l2.46-2.494c0.135-0.138,0.245-0.093,0.245,0.101v6.725h1.339
	c0.193,0,0.35-0.157,0.35-0.35v-6.725l2.705,2.743v-2.242c0-0.193-0.11-0.462-0.245-0.599l-3.059-3.102
	c-0.135-0.137-0.355-0.137-0.491,0L-161.075,23.235z"/>
<line class="st26" x1="-124.683" y1="27.396" x2="-100.423" y2="27.396"/>
<path class="st5" d="M-108.865,19.008L-108.865,19.008v-2.592l-2.46,2.494c-0.135,0.138-0.245,0.093-0.245-0.101v-6.725h-1.339
	c-0.193,0-0.35,0.157-0.35,0.35v6.725l-2.705-2.743v2.242c0,0.193,0.11,0.462,0.245,0.599l3.059,3.102
	c0.135,0.137,0.355,0.137,0.491,0L-108.865,19.008z"/>
<rect x="21.181" y="0.47" class="st11" width="15.769" height="20.056"/>
<line class="st27" x1="24.138" y1="20.527" x2="34.978" y2="20.527"/>
<line class="st28" x1="36.949" y1="17.518" x2="36.949" y2="2.476"/>
<line class="st27" x1="33.993" y1="0.47" x2="23.152" y2="0.47"/>
<line class="st28" x1="21.18" y1="3.479" x2="21.18" y2="18.521"/>
<path class="st21" d="M21.18,19.524v1.003h0.986 M22.166,0.471H21.18v1.003 M36.949,1.474V0.471h-0.985 M35.964,20.527h0.985v-1.003
	"/>
<polygon class="st11" points="9.945,30.527 9.945,30.527 25.714,30.527 25.714,10.471 9.945,10.471 "/>
<line class="st27" x1="12.902" y1="30.527" x2="23.743" y2="30.527"/>
<line class="st28" x1="25.714" y1="27.518" x2="25.714" y2="12.476"/>
<line class="st27" x1="22.757" y1="10.47" x2="11.916" y2="10.47"/>
<line class="st28" x1="9.945" y1="13.479" x2="9.945" y2="28.521"/>
<path class="st21" d="M9.944,29.524v1.003h0.986 M10.93,10.471H9.944v1.003 M25.713,11.474v-1.003h-0.985 M24.728,30.527h0.985
	v-1.003"/>
<polygon class="st11" points="0.47,38.527 0.47,38.527 16.239,38.527 16.239,18.471 0.47,18.471 "/>
<polygon class="st21" points="0.47,38.527 0.47,38.527 16.239,38.527 16.239,18.471 0.47,18.471 "/>
<g>
	<polygon class="st11" points="74.307,24.832 74.307,24.832 90.076,24.832 90.076,4.776 74.307,4.776 	"/>
	<polygon class="st21" points="74.307,24.832 74.307,24.832 90.076,24.832 90.076,4.776 74.307,4.776 	"/>
	<line class="st29" x1="70.543" y1="13.331" x2="70.543" y2="26.835"/>
	<line class="st30" x1="73.68" y1="28.636" x2="85.183" y2="28.636"/>
	<path class="st21" d="M86.228,28.635h1.046 M70.543,27.735v0.9h1.046 M70.543,10.63v0.9"/>
</g>
<g>
	<g>
		<rect x="146.847" y="-6.944" class="st11" width="15.769" height="20.056"/>
		<polygon class="st21" points="146.847,13.112 146.847,13.112 162.616,13.112 162.616,-6.944 146.847,-6.944 		"/>
		<polygon class="st11" points="135.611,23.112 135.611,23.112 151.38,23.112 151.38,3.056 135.611,3.056 		"/>
		<line class="st27" x1="138.568" y1="23.112" x2="149.409" y2="23.112"/>
		<line class="st28" x1="151.38" y1="20.103" x2="151.38" y2="5.061"/>
		<line class="st27" x1="148.423" y1="3.056" x2="137.582" y2="3.056"/>
		<line class="st28" x1="135.611" y1="6.064" x2="135.611" y2="21.106"/>
		<path class="st21" d="M135.61,22.109v1.003h0.986 M136.596,3.056h-0.986v1.003 M151.379,4.059V3.056h-0.985 M150.394,23.112h0.985
			v-1.003"/>
		<polygon class="st11" points="126.137,31.112 126.137,31.112 141.906,31.112 141.906,11.056 126.137,11.056 		"/>
		<line class="st27" x1="129.094" y1="31.112" x2="139.935" y2="31.112"/>
		<line class="st28" x1="141.906" y1="28.103" x2="141.906" y2="13.061"/>
		<line class="st27" x1="138.949" y1="11.056" x2="128.108" y2="11.056"/>
		<line class="st28" x1="126.137" y1="14.064" x2="126.137" y2="29.106"/>
		<path class="st21" d="M126.137,30.109v1.003h0.986 M127.123,11.056h-0.986v1.003 M141.906,12.059v-1.003h-0.985 M140.921,31.112
			h0.985v-1.003"/>
	</g>
	<line class="st27" x1="202.26" y1="26.597" x2="213.101" y2="26.597"/>
	<line class="st28" x1="215.073" y1="23.589" x2="215.073" y2="8.547"/>
	<line class="st27" x1="212.116" y1="6.541" x2="201.275" y2="6.541"/>
	<line class="st28" x1="199.303" y1="9.549" x2="199.303" y2="24.591"/>
	<path class="st21" d="M199.303,25.594v1.003h0.986 M200.289,6.541h-0.986v1.003 M215.072,7.544V6.541h-0.985 M214.087,26.597h0.985
		v-1.003"/>
	<polyline class="st21" points="195.539,12.395 195.539,30.4 212.27,30.4 	"/>
</g>
<g>
	<defs>
		<rect id="SVGID_1_" x="-559.735" y="120.433" width="241.682" height="1"/>
	</defs>
	<clipPath id="SVGID_00000179638696109776252350000002054842124254151591_">
		<use xlink:href="#SVGID_1_"  style="overflow:visible;"/>
	</clipPath>
	
		<line style="clip-path:url(#SVGID_00000179638696109776252350000002054842124254151591_);fill:none;stroke:#B2B2B2;stroke-linecap:round;stroke-linejoin:round;stroke-dasharray:0,3.009;" x1="-556.227" y1="120.933" x2="-320.057" y2="120.933"/>
	
		<path style="clip-path:url(#SVGID_00000179638696109776252350000002054842124254151591_);fill:none;stroke:#B2B2B2;stroke-linecap:round;stroke-linejoin:round;" d="
		M-318.553,120.933L-318.553,120.933 M-559.235,120.933L-559.235,120.933"/>
</g>
<circle class="st33" cx="-512.837" cy="-100.278" r="12.75"/>
<polygon class="st3" points="-369.444,-115.301 -382.444,-115.301 -376.076,-104.826 "/>
<polygon class="st5" points="-361.421,13.24 -371.896,19.608 -361.421,26.24 "/>
<polygon class="st5" points="-390.468,26.24 -379.993,19.872 -390.468,13.24 "/>
<polygon class="st5" points="-307.915,13.24 -318.39,19.608 -307.915,26.24 "/>
<polygon class="st5" points="-343.091,26.24 -332.616,19.872 -343.091,13.24 "/>
<rect x="-182.842" y="-115.291" class="st10" width="34.924" height="19.551"/>
<polygon class="st6" points="-182.592,-115.416 -182.592,-95.416 -182.592,-95.166 -182.342,-95.166 -113.493,-95.166 
	-113.243,-95.166 -113.243,-95.416 -113.243,-115.416 -113.243,-115.666 -113.493,-115.666 -182.342,-115.666 -182.592,-115.666 "/>
<rect x="-182.842" y="-115.916" class="st9" width="69.849" height="21"/>
<rect x="-147.478" y="-49.262" class="st10" width="34.924" height="19.551"/>
<polygon class="st6" points="-182.486,-49.387 -182.486,-29.387 -182.486,-29.137 -182.236,-29.137 -113.387,-29.137 
	-113.137,-29.137 -113.137,-29.387 -113.137,-49.387 -113.137,-49.637 -113.387,-49.637 -182.236,-49.637 -182.486,-49.637 "/>
<rect x="-182.736" y="-49.887" class="st9" width="70.183" height="21"/>
<line class="st19" x1="-59.447" y1="-119.361" x2="-95.47" y2="-119.361"/>
<path class="st20" d="M-67.95-116.215c2.045,0,3.703-1.658,3.703-3.703s-1.658-3.703-3.703-3.703c-2.045,0-3.703,1.658-3.703,3.703
	S-69.995-116.215-67.95-116.215"/>
<line class="st19" x1="248.877" y1="-88.582" x2="212.854" y2="-88.582"/>
<path class="st20" d="M240.374-85.436c2.045,0,3.703-1.658,3.703-3.703s-1.658-3.703-3.703-3.703s-3.703,1.658-3.703,3.703
	S238.329-85.436,240.374-85.436"/>
</svg>
