<?xml version="1.0" encoding="utf-8"?>
<!-- Generator: Adobe Illustrator 26.0.3, SVG Export Plug-In . SVG Version: 6.00 Build 0)  -->
<svg version="1.1" id="Ebene_1" xmlns="http://www.w3.org/2000/svg" xmlns:xlink="http://www.w3.org/1999/xlink" x="0px" y="0px"
	 width="70.183px" height="21px" viewBox="0 0 70.183 21" style="enable-background:new 0 0 70.183 21;" xml:space="preserve">
<style type="text/css">
	.st0{fill:none;stroke:#C5C5C5;stroke-width:3;stroke-linecap:round;stroke-linejoin:round;}
	.st1{fill:#FFAEFF;stroke:#4F4D4D;stroke-width:0.5;}
	.st2{fill:#F8F8F8;}
	.st3{fill:#0E689A;}
	.st4{fill:none;stroke:#B2B1B1;stroke-width:0.65;stroke-miterlimit:10;}
	.st5{fill:#B2B1B1;}
	.st6{fill:none;stroke:#B2B2B2;stroke-width:0.5;stroke-miterlimit:10;}
	.st7{fill:none;stroke:#B2B1B1;stroke-width:0.3;stroke-miterlimit:10;}
	.st8{fill:none;stroke:#FFFFFF;stroke-width:0.021;}
	.st9{fill:none;}
	.st10{fill:#0E6899;}
	.st11{fill:#FFFFFF;}
	.st12{fill:none;stroke:#C5C5C5;stroke-width:0.5;stroke-linecap:round;stroke-linejoin:round;}
	.st13{fill:#C5C5C5;}
	.st14{fill:none;stroke:#B2B1B1;stroke-width:0.5;}
	.st15{fill:none;stroke:#B2B1B1;stroke-width:1.2;}
	.st16{fill:#B2B2B2;}
	.st17{fill:none;stroke:#FFFFFF;stroke-width:0.001;}
	.st18{fill:none;stroke:#B2B1B1;stroke-width:1.712;}
	.st19{fill:none;stroke:#B2B1B1;stroke-width:2;}
	.st20{fill:#AD5E7A;}
	.st21{fill:none;stroke:#B2B1B1;stroke-width:0.941;}
	.st22{fill:none;stroke:#B2B1B1;stroke-width:0.941;stroke-dasharray:1.889,1.889;}
	.st23{fill:none;stroke:#B2B1B1;stroke-width:0.941;stroke-dasharray:1.754,1.754;}
	.st24{fill:none;stroke:#B2B1B1;stroke-width:0.804;}
	.st25{fill:none;stroke:#FFFFFF;stroke-width:0.804;}
	.st26{fill:none;stroke:#B2B1B1;stroke-width:2.5;}
	.st27{fill:none;stroke:#B2B1B1;stroke-width:0.941;stroke-dasharray:1.971,1.971;}
	.st28{fill:none;stroke:#B2B1B1;stroke-width:0.941;stroke-dasharray:2.006,2.006;}
	.st29{fill:none;stroke:#B2B1B1;stroke-width:0.941;stroke-dasharray:1.801,1.801;}
	.st30{fill:none;stroke:#B2B1B1;stroke-width:0.941;stroke-dasharray:2.091,2.091;}
	
		.st31{clip-path:url(#SVGID_00000051381305625869880270000012367853405224686465_);fill:none;stroke:#B2B2B2;stroke-linecap:round;stroke-linejoin:round;stroke-dasharray:0,3.009;}
	
		.st32{clip-path:url(#SVGID_00000051381305625869880270000012367853405224686465_);fill:none;stroke:#B2B2B2;stroke-linecap:round;stroke-linejoin:round;}
	.st33{fill:none;stroke:#4F4D4D;stroke-width:0.5;}
</style>
<polyline class="st0" points="1662.065,908.53 1655.815,899.53 1649.065,908.53 "/>
<circle class="st1" cx="-329.828" cy="-54.218" r="12.75"/>
<rect x="-297.368" y="-65.233" class="st2" width="119.902" height="21"/>
<polygon class="st3" points="-186.538,-59.971 -199.538,-59.971 -193.17,-49.496 "/>
<g>
	<g>
		<line class="st4" x1="-73.526" y1="-47.713" x2="-63.243" y2="-47.713"/>
		<g>
			<path class="st5" d="M-72.239-52.938v-5.175h1.3v5.122c0,2.016,0.923,2.926,2.561,2.926c1.638,0,2.574-0.91,2.574-2.926v-5.122
				h1.261v5.175c0,2.639-1.443,4.029-3.848,4.029C-70.783-48.909-72.239-50.3-72.239-52.938z"/>
		</g>
	</g>
	<polygon class="st6" points="-81.635,-65.913 -81.635,-39.913 -81.635,-39.663 -81.385,-39.663 -55.385,-39.663 -55.135,-39.663 
		-55.135,-39.913 -55.135,-65.913 -55.135,-66.163 -55.385,-66.163 -81.385,-66.163 -81.635,-66.163 	"/>
</g>
<g>
	<g>
		<path class="st5" d="M-102.988-57.839h1.3l-1.82,9.101h-1.3L-102.988-57.839z"/>
	</g>
	<polygon class="st6" points="-116.499,-66.289 -116.499,-40.289 -116.499,-40.039 -116.249,-40.039 -90.249,-40.039 
		-89.999,-40.039 -89.999,-40.289 -89.999,-66.289 -89.999,-66.539 -90.249,-66.539 -116.249,-66.539 -116.499,-66.539 	"/>
</g>
<g>
	<g>
		<path class="st5" d="M-136.137-51.171c0,1.573-1.248,2.483-3.64,2.483h-4.706v-9.101h4.446c2.275,0,3.445,0.949,3.445,2.366
			c0,0.91-0.468,1.612-1.209,2.002C-136.787-53.094-136.137-52.314-136.137-51.171z M-142.39-56.202v2.146h2.093
			c1.027,0,1.586-0.364,1.586-1.079s-0.559-1.066-1.586-1.066H-142.39z M-138.256-51.391c0-0.767-0.585-1.131-1.677-1.131h-2.457
			v2.249h2.457C-138.841-50.273-138.256-50.611-138.256-51.391z"/>
	</g>
	<polygon class="st6" points="-153.56,-66.237 -153.56,-40.237 -153.56,-39.987 -153.31,-39.987 -127.31,-39.987 -127.06,-39.987 
		-127.06,-40.237 -127.06,-66.237 -127.06,-66.487 -127.31,-66.487 -153.31,-66.487 -153.56,-66.487 	"/>
</g>
<path class="st7" d="M-99.372-24.284"/>
<path class="st7" d="M-101.88-23.03"/>
<path class="st7" d="M-101.88-21.776"/>
<path class="st7" d="M-101.88-20.522"/>
<path class="st7" d="M-99.372-19.268"/>
<path class="st7" d="M-99.372-18.014"/>
<path class="st7" d="M-101.88-16.76"/>
<path class="st7" d="M-101.88-14.252"/>
<path class="st7" d="M-99.372-11.744"/>
<g>
	<path class="st7" d="M-118.836-19.268"/>
	<path class="st7" d="M-118.836-24.284"/>
	<path class="st7" d="M-118.836-11.744"/>
	<path class="st7" d="M-118.836-18.014"/>
	<g>
		<path class="st7" d="M-116.774-16.76"/>
		<path class="st7" d="M-116.774-20.522"/>
		<path class="st7" d="M-116.774-21.776"/>
		<path class="st7" d="M-116.774-23.03"/>
		<line class="st7" x1="-119.212" y1="-12.539" x2="-99.748" y2="-12.539"/>
		<line class="st7" x1="-119.212" y1="-13.815" x2="-104.318" y2="-13.815"/>
		<line class="st7" x1="-119.212" y1="-15.09" x2="-104.318" y2="-15.09"/>
		<line class="st7" x1="-119.212" y1="-16.367" x2="-104.318" y2="-16.367"/>
		<line class="st7" x1="-119.212" y1="-17.643" x2="-99.748" y2="-17.643"/>
		<line class="st7" x1="-119.212" y1="-18.919" x2="-99.748" y2="-18.919"/>
		<line class="st7" x1="-119.139" y1="-20.194" x2="-104.245" y2="-20.194"/>
		<line class="st7" x1="-119.212" y1="-21.47" x2="-99.748" y2="-21.47"/>
		<line class="st7" x1="-119.212" y1="-22.746" x2="-104.318" y2="-22.746"/>
		<line class="st7" x1="-119.212" y1="-24.023" x2="-104.318" y2="-24.023"/>
		<line class="st7" x1="-119.212" y1="-25.298" x2="-99.748" y2="-25.298"/>
	</g>
	<polygon class="st6" points="-122.539,-31.593 -122.539,-5.6 -122.539,-5.35 -122.289,-5.35 -96.296,-5.35 -96.046,-5.35 
		-96.046,-5.6 -96.046,-31.593 -96.046,-31.843 -96.296,-31.843 -122.289,-31.843 -122.539,-31.843 	"/>
</g>
<g>
	<g>
		<line class="st7" x1="-68.492" y1="-24.981" x2="-87.956" y2="-24.981"/>
		<line class="st7" x1="-71" y1="-23.704" x2="-85.894" y2="-23.704"/>
		<line class="st7" x1="-71" y1="-22.428" x2="-85.894" y2="-22.428"/>
		<line class="st7" x1="-71" y1="-21.15" x2="-85.894" y2="-21.15"/>
		<line class="st7" x1="-68.492" y1="-19.873" x2="-87.956" y2="-19.873"/>
		<line class="st7" x1="-68.492" y1="-18.597" x2="-87.956" y2="-18.597"/>
		<line class="st7" x1="-71" y1="-17.319" x2="-85.894" y2="-17.319"/>
		<line class="st7" x1="-68.492" y1="-16.042" x2="-87.956" y2="-16.042"/>
		<line class="st7" x1="-71" y1="-14.765" x2="-85.894" y2="-14.765"/>
		<line class="st7" x1="-71" y1="-13.488" x2="-85.894" y2="-13.488"/>
		<line class="st7" x1="-68.492" y1="-12.211" x2="-87.956" y2="-12.211"/>
	</g>
	<polygon class="st6" points="-91.47,-31.593 -91.47,-5.6 -91.47,-5.35 -91.22,-5.35 -65.227,-5.35 -64.977,-5.35 -64.977,-5.6 
		-64.977,-31.593 -64.977,-31.843 -65.227,-31.843 -91.22,-31.843 -91.47,-31.843 	"/>
</g>
<polygon class="st6" points="-60.402,-31.593 -60.402,-5.6 -60.402,-5.35 -60.152,-5.35 -34.159,-5.35 -33.909,-5.35 -33.909,-5.6 
	-33.909,-31.593 -33.909,-31.843 -34.159,-31.843 -60.152,-31.843 -60.402,-31.843 "/>
<path class="st7" d="M-57.075-12.909"/>
<path class="st7" d="M-57.075-17.925"/>
<path class="st7" d="M-57.075-19.179"/>
<path class="st7" d="M-57.075-25.448"/>
<path class="st7" d="M-39.672-20.433"/>
<path class="st7" d="M-37.61-17.925"/>
<path class="st7" d="M-39.672-16.671"/>
<path class="st7" d="M-37.61-12.909"/>
<path class="st7" d="M-37.61-25.448"/>
<path class="st7" d="M-37.61-19.179"/>
<path class="st7" d="M-39.672-15.417"/>
<path class="st7" d="M-39.672-14.163"/>
<g>
	<path class="st7" d="M-54.755-14.485"/>
	<path class="st7" d="M-54.755-15.739"/>
	<path class="st7" d="M-54.755-16.993"/>
	<path class="st7" d="M-54.755-20.755"/>
	<path class="st7" d="M-54.755-23.263"/>
	<line class="st7" x1="-37.423" y1="-24.976" x2="-56.887" y2="-24.976"/>
	<line class="st7" x1="-37.423" y1="-23.7" x2="-52.317" y2="-23.7"/>
	<line class="st7" x1="-37.423" y1="-22.424" x2="-52.317" y2="-22.424"/>
	<line class="st7" x1="-37.423" y1="-21.148" x2="-52.317" y2="-21.148"/>
	<line class="st7" x1="-37.423" y1="-19.872" x2="-56.887" y2="-19.872"/>
	<line class="st7" x1="-37.423" y1="-18.596" x2="-56.887" y2="-18.596"/>
	<line class="st7" x1="-37.496" y1="-17.32" x2="-52.39" y2="-17.32"/>
	<line class="st7" x1="-37.423" y1="-16.045" x2="-56.887" y2="-16.045"/>
	<line class="st7" x1="-37.423" y1="-14.769" x2="-52.317" y2="-14.769"/>
	<line class="st7" x1="-37.423" y1="-13.492" x2="-52.317" y2="-13.492"/>
	<line class="st7" x1="-37.423" y1="-12.217" x2="-56.887" y2="-12.217"/>
</g>
<polygon class="st6" points="-153.31,-31.586 -153.31,-5.593 -153.31,-5.343 -153.06,-5.343 -127.067,-5.343 -126.817,-5.343 
	-126.817,-5.593 -126.817,-31.586 -126.817,-31.836 -127.067,-31.836 -153.06,-31.836 -153.31,-31.836 "/>
<path class="st7" d="M-130.143-24.284"/>
<path class="st7" d="M-130.143-19.268"/>
<path class="st7" d="M-130.143-18.014"/>
<path class="st7" d="M-130.143-11.744"/>
<path class="st7" d="M-147.545-16.76"/>
<path class="st7" d="M-149.608-19.268"/>
<path class="st7" d="M-147.545-20.522"/>
<path class="st7" d="M-149.608-24.284"/>
<path class="st7" d="M-149.608-11.744"/>
<path class="st7" d="M-149.608-18.014"/>
<path class="st7" d="M-147.545-21.776"/>
<path class="st7" d="M-147.545-23.03"/>
<g>
	<path class="st7" d="M-132.651-23.03"/>
	<path class="st7" d="M-132.651-21.776"/>
	<path class="st7" d="M-132.651-20.522"/>
	<path class="st7" d="M-132.651-16.76"/>
	<path class="st7" d="M-132.651-14.252"/>
	<line class="st7" x1="-149.983" y1="-12.539" x2="-130.519" y2="-12.539"/>
	<line class="st7" x1="-149.983" y1="-13.815" x2="-130.519" y2="-13.815"/>
	<line class="st7" x1="-149.983" y1="-15.09" x2="-130.519" y2="-15.09"/>
	<line class="st7" x1="-149.983" y1="-16.367" x2="-130.519" y2="-16.367"/>
	<line class="st7" x1="-149.983" y1="-17.643" x2="-130.519" y2="-17.643"/>
	<line class="st7" x1="-149.983" y1="-18.919" x2="-130.519" y2="-18.919"/>
	<line class="st7" x1="-149.91" y1="-20.194" x2="-130.446" y2="-20.194"/>
	<line class="st7" x1="-149.983" y1="-21.47" x2="-130.519" y2="-21.47"/>
	<line class="st7" x1="-149.983" y1="-22.746" x2="-130.519" y2="-22.746"/>
	<line class="st7" x1="-149.983" y1="-24.023" x2="-130.519" y2="-24.023"/>
	<line class="st7" x1="-149.983" y1="-25.298" x2="-130.519" y2="-25.298"/>
</g>
<path class="st5" d="M-322.867,83.562l-1.915,13.335c-0.058,0.402-0.431,0.682-0.834,0.624c-0.402-0.058-0.682-0.431-0.624-0.833
	l1.915-13.336c0.058-0.402,0.431-0.681,0.834-0.623C-323.089,82.787-322.809,83.159-322.867,83.562 M-329.684,97.637
	c-0.407,0.003-0.74-0.324-0.742-0.73l-0.106-13.472c-0.003-0.407,0.324-0.739,0.73-0.742c0.408-0.003,0.74,0.324,0.743,0.731
	l0.105,13.471C-328.951,97.302-329.278,97.634-329.684,97.637 M-333.755,97.584c-0.401,0.064-0.779-0.209-0.842-0.61l-2.124-13.304
	c-0.064-0.402,0.209-0.779,0.612-0.843c0.401-0.064,0.778,0.209,0.842,0.611l2.123,13.303
	C-333.08,97.143-333.353,97.52-333.755,97.584 M-319.972,81.176c-0.141-0.169-0.353-0.266-0.573-0.264l-18.538,0.144
	c-0.22,0.002-0.429,0.101-0.568,0.272c-0.14,0.17-0.196,0.393-0.155,0.609l3.092,16.141c0.068,0.351,0.376,0.605,0.734,0.602
	l12.497-0.098c0.356-0.002,0.66-0.258,0.724-0.608l2.949-16.188C-319.77,81.57-319.831,81.345-319.972,81.176"/>
<path class="st8" d="M-322.867,83.562l-1.915,13.335c-0.058,0.402-0.431,0.682-0.834,0.624c-0.402-0.058-0.682-0.431-0.624-0.833
	l1.915-13.336c0.058-0.402,0.431-0.681,0.834-0.623C-323.089,82.787-322.809,83.159-322.867,83.562z M-329.684,97.637
	c-0.407,0.003-0.74-0.324-0.742-0.73l-0.106-13.472c-0.003-0.407,0.324-0.739,0.73-0.742c0.408-0.003,0.74,0.324,0.743,0.731
	l0.105,13.471C-328.951,97.302-329.278,97.634-329.684,97.637z M-333.755,97.584c-0.401,0.064-0.779-0.209-0.842-0.61l-2.124-13.304
	c-0.064-0.402,0.209-0.779,0.612-0.843c0.401-0.064,0.778,0.209,0.842,0.611l2.123,13.303
	C-333.08,97.143-333.353,97.52-333.755,97.584z M-319.972,81.176c-0.141-0.169-0.353-0.266-0.573-0.264l-18.538,0.144
	c-0.22,0.002-0.429,0.101-0.568,0.272c-0.14,0.17-0.196,0.393-0.155,0.609l3.092,16.141c0.068,0.351,0.376,0.605,0.734,0.602
	l12.497-0.098c0.356-0.002,0.66-0.258,0.724-0.608l2.949-16.188C-319.77,81.57-319.831,81.345-319.972,81.176z"/>
<path class="st5" d="M-332.659,76.569L-332.659,76.569l-0.004-0.421l5.49-0.043l0.004,0.421L-332.659,76.569z M-318.922,77.979
	L-318.922,77.979l-2.025,0.016l-0.009-1.171c-0.001-0.091-0.038-0.18-0.103-0.244c-0.065-0.064-0.155-0.1-0.246-0.1l-4.467,0.035
	l-0.009-1.12c-0.002-0.184-0.077-0.363-0.209-0.492c-0.131-0.13-0.311-0.203-0.495-0.201l-6.887,0.054
	c-0.183,0.001-0.363,0.077-0.492,0.208c-0.129,0.131-0.202,0.312-0.2,0.496l0.009,1.12l-4.164,0.032
	c-0.091,0.001-0.18,0.039-0.243,0.104c-0.065,0.065-0.101,0.154-0.101,0.246l0.009,1.171l-2.197,0.017l0.017,2.225l21.829-0.17
	L-318.922,77.979z"/>
<path class="st8" d="M-332.659,76.569L-332.659,76.569l-0.004-0.421l5.49-0.043l0.004,0.421L-332.659,76.569z M-318.922,77.979
	L-318.922,77.979l-2.025,0.016l-0.009-1.171c-0.001-0.091-0.038-0.18-0.103-0.244c-0.065-0.064-0.155-0.1-0.246-0.1l-4.467,0.035
	l-0.009-1.12c-0.002-0.184-0.077-0.363-0.209-0.492c-0.131-0.13-0.311-0.203-0.495-0.201l-6.887,0.054
	c-0.183,0.001-0.363,0.077-0.492,0.208c-0.129,0.131-0.202,0.312-0.2,0.496l0.009,1.12l-4.164,0.032
	c-0.091,0.001-0.18,0.039-0.243,0.104c-0.065,0.065-0.101,0.154-0.101,0.246l0.009,1.171l-2.197,0.017l0.017,2.225l21.829-0.17
	L-318.922,77.979z"/>
<rect x="-340.762" y="74.691" class="st9" width="21.868" height="24"/>
<rect x="0.167" y="-66.077" class="st10" width="34.924" height="19.551"/>
<g>
	<path class="st11" d="M13.144-55.664v4.238h-0.884v-1.066c-0.416,0.702-1.222,1.132-2.354,1.132c-1.547,0-2.496-0.807-2.496-1.989
		c0-1.054,0.676-1.938,2.639-1.938h2.171v-0.416c0-1.17-0.663-1.807-1.938-1.807c-0.884,0-1.716,0.312-2.275,0.806l-0.416-0.688
		c0.689-0.585,1.703-0.924,2.782-0.924C12.143-58.316,13.144-57.431,13.144-55.664z M12.222-53.479v-1.118h-2.146
		c-1.326,0-1.755,0.52-1.755,1.222c0,0.793,0.637,1.287,1.729,1.287C11.09-52.089,11.857-52.583,12.222-53.479z"/>
	<path class="st11" d="M21.244-58.263v6.838H20.36v-1.248c-0.481,0.832-1.365,1.313-2.458,1.313c-1.742,0-2.886-0.976-2.886-2.938
		v-3.965h0.923v3.874c0,1.456,0.754,2.197,2.054,2.197c1.43,0,2.327-0.924,2.327-2.483v-3.588H21.244z"/>
	<path class="st11" d="M22.543-52.206l0.416-0.728c0.546,0.429,1.469,0.767,2.431,0.767c1.3,0,1.833-0.441,1.833-1.118
		c0-1.78-4.433-0.377-4.433-3.081c0-1.118,0.962-1.95,2.704-1.95c0.884,0,1.846,0.247,2.418,0.638l-0.403,0.74
		c-0.598-0.416-1.313-0.585-2.015-0.585c-1.235,0-1.781,0.481-1.781,1.132c0,1.846,4.434,0.455,4.434,3.081
		c0,1.183-1.04,1.95-2.821,1.95C24.194-51.36,23.102-51.724,22.543-52.206z"/>
</g>
<polygon class="st6" points="0.417,-66.202 0.417,-46.202 0.417,-45.952 0.667,-45.952 69.516,-45.952 69.766,-45.952 
	69.766,-46.202 69.766,-66.202 69.766,-66.452 69.516,-66.452 0.667,-66.452 0.417,-66.452 "/>
<rect x="0.167" y="-66.702" class="st9" width="69.849" height="21"/>
<rect x="-404.23" y="140.628" class="st11" width="1014" height="21"/>
<path class="st3" d="M222.931,140.628c-2.209,0-4,1.791-4,4v12.382c0,2.209,1.791,4,4,4h77.131c2.209,0,4-1.791,4-4v-12.382
	c0-2.209-1.791-4-4-4H222.931z"/>
<rect x="-403.98" y="140.878" class="st12" width="1013.5" height="20.5"/>
<path class="st13" d="M593.626,143.488v1.481c0,0.397,0.187,0.771,0.505,1.009l6.367,4.762c0.258,0.194,0.258,0.583,0,0.776
	l-6.367,4.762c-0.318,0.238-0.505,0.612-0.505,1.01v1.48c0,0.41,0.467,0.644,0.795,0.399l10.111-7.563
	c0.318-0.237,0.318-0.714,0-0.952l-10.11-7.562C594.093,142.844,593.626,143.079,593.626,143.488"/>
<path class="st13" d="M-388.377,158.768v-1.481c0-0.397-0.187-0.771-0.505-1.009l-6.367-4.762c-0.258-0.194-0.258-0.583,0-0.776
	l6.367-4.762c0.318-0.238,0.505-0.612,0.505-1.01v-1.48c0-0.41-0.467-0.644-0.795-0.399l-10.111,7.563
	c-0.318,0.237-0.318,0.714,0,0.952l10.11,7.562C-388.844,159.412-388.377,159.177-388.377,158.768"/>
<rect x="-404.23" y="140.628" class="st9" width="1014" height="21"/>
<rect x="651.542" y="-103.917" class="st11" width="21" height="702.123"/>
<path class="st3" d="M651.542,310.044c0,2.209,1.791,4,4,4h12.382c2.209,0,4-1.791,4-4v-78.286c0-2.209-1.791-4-4-4h-12.382
	c-2.209,0-4,1.791-4,4V310.044z"/>
<rect x="651.792" y="-103.668" class="st12" width="20.5" height="701.624"/>
<path class="st13" d="M654.402-90.382h1.481c0.397,0,0.771-0.19,1.009-0.512l4.762-6.453c0.194-0.262,0.583-0.262,0.776,0
	l4.762,6.453c0.238,0.322,0.612,0.512,1.01,0.512h1.48c0.41,0,0.644-0.474,0.399-0.806l-7.563-10.248
	c-0.237-0.322-0.714-0.322-0.952,0l-7.562,10.248C653.758-90.856,653.993-90.382,654.402-90.382"/>
<path class="st13" d="M669.682,583.87h-1.481c-0.397,0-0.771,0.19-1.009,0.512l-4.762,6.453c-0.194,0.262-0.583,0.262-0.776,0
	l-4.762-6.453c-0.238-0.322-0.612-0.512-1.01-0.512h-1.48c-0.41,0-0.644,0.474-0.399,0.806l7.563,10.248
	c0.237,0.322,0.714,0.322,0.952,0l7.562-10.248C670.326,584.344,670.091,583.87,669.682,583.87"/>
<rect x="651.542" y="-103.918" class="st9" width="21" height="702.124"/>
<g>
	<g>
		<line class="st7" x1="-69.432" y1="19.062" x2="-82.449" y2="19.062"/>
		<line class="st7" x1="-69.432" y1="8.886" x2="-82.449" y2="8.886"/>
		<line class="st7" x1="-69.432" y1="13.974" x2="-82.449" y2="13.974"/>
		<g>
			<path class="st5" d="M-86.091,7.416V9.52h-0.487V7.806h-0.421V7.416H-86.091z"/>
		</g>
		<g>
			<path class="st5" d="M-85.33,14.383v0.396h-1.59v-0.315l0.812-0.767c0.187-0.178,0.22-0.286,0.22-0.388
				c0-0.165-0.114-0.262-0.337-0.262c-0.18,0-0.333,0.069-0.436,0.21l-0.355-0.228c0.163-0.238,0.457-0.392,0.836-0.392
				c0.469,0,0.781,0.241,0.781,0.623c0,0.204-0.057,0.391-0.352,0.664l-0.484,0.457H-85.33z"/>
		</g>
		<g>
			<path class="st5" d="M-85.348,19.142c0,0.354-0.273,0.68-0.872,0.68c-0.295,0-0.599-0.081-0.803-0.226l0.189-0.373
				c0.159,0.121,0.382,0.189,0.601,0.189c0.244,0,0.394-0.099,0.394-0.271c0-0.159-0.117-0.258-0.394-0.258h-0.223v-0.322
				l0.433-0.49h-0.896v-0.391h1.473v0.316l-0.475,0.541C-85.541,18.598-85.348,18.832-85.348,19.142z"/>
		</g>
	</g>
	<polygon class="st6" points="-91.477,0.619 -91.477,26.619 -91.477,26.869 -91.227,26.869 -65.227,26.869 -64.977,26.869 
		-64.977,26.619 -64.977,0.619 -64.977,0.369 -65.227,0.369 -91.227,0.369 -91.477,0.369 	"/>
</g>
<polygon class="st6" points="-153.31,0.619 -153.31,26.619 -153.31,26.869 -153.06,26.869 -127.06,26.869 -126.81,26.869 
	-126.81,26.619 -126.81,0.619 -126.81,0.369 -127.06,0.369 -153.06,0.369 -153.31,0.369 "/>
<g>
	<polygon class="st6" points="-122.968,0.619 -122.968,26.619 -122.968,26.869 -122.718,26.869 -96.718,26.869 -96.468,26.869 
		-96.468,26.619 -96.468,0.619 -96.468,0.369 -96.718,0.369 -122.718,0.369 -122.968,0.369 	"/>
	<path class="st7" d="M-101.436,18.744h-13.016 M-101.436,13.611h-13.016 M-101.436,8.479h-13.016"/>
	<path class="st5" d="M-116.538,14.196c0.161-0.156,0.241-0.349,0.241-0.581c0-0.15-0.037-0.288-0.11-0.414
		c-0.073-0.125-0.172-0.224-0.297-0.297c-0.126-0.073-0.264-0.11-0.415-0.11c-0.15,0-0.288,0.037-0.41,0.11
		c-0.122,0.073-0.221,0.172-0.294,0.297c-0.072,0.126-0.11,0.264-0.11,0.414c0,0.232,0.08,0.425,0.238,0.581
		c0.157,0.156,0.35,0.234,0.576,0.234C-116.892,14.43-116.699,14.352-116.538,14.196"/>
	<path class="st5" d="M-117.115,9.561c0.489,0,0.885-0.396,0.885-0.885c0-0.488-0.396-0.885-0.885-0.885
		c-0.488,0-0.885,0.397-0.885,0.885C-118,9.165-117.603,9.561-117.115,9.561"/>
	<path class="st5" d="M-116.538,19.213c0.161-0.156,0.241-0.349,0.241-0.581c0-0.15-0.037-0.288-0.11-0.414
		c-0.073-0.125-0.172-0.224-0.297-0.297c-0.126-0.073-0.264-0.11-0.415-0.11c-0.15,0-0.288,0.037-0.41,0.11
		c-0.122,0.073-0.221,0.172-0.294,0.297c-0.072,0.126-0.11,0.264-0.11,0.414c0,0.232,0.08,0.425,0.238,0.581
		c0.157,0.156,0.35,0.234,0.576,0.234C-116.892,19.447-116.699,19.369-116.538,19.213"/>
</g>
<path class="st7" d="M-131.778,18.751h-13.016 M-131.778,13.618h-13.016 M-131.778,8.486h-13.016"/>
<rect x="-148.342" y="7.717" class="st5" width="1.77" height="1.77"/>
<rect x="-148.342" y="12.733" class="st5" width="1.77" height="1.77"/>
<rect x="-148.342" y="17.751" class="st5" width="1.77" height="1.77"/>
<rect x="190.18" y="-67.17" class="st2" width="245" height="57.75"/>
<text transform="matrix(1 0 0 1 264.8775 -40.9752)"><tspan x="0" y="0" class="st5" style="font-family:'Montserrat-Regular'; font-size:13px;">N</tspan><tspan x="10.478" y="0" class="st5" style="font-family:'Montserrat-Regular'; font-size:13px;">e</tspan><tspan x="18.135" y="0" class="st5" style="font-family:'Montserrat-Regular'; font-size:13px;">u</tspan><tspan x="26.753" y="0" class="st5" style="font-family:'Montserrat-Regular'; font-size:13px;">e </tspan><tspan x="38.011" y="0" class="st5" style="font-family:'Montserrat-Regular'; font-size:13px; letter-spacing:-1;">T</tspan><tspan x="44.381" y="0" class="st5" style="font-family:'Montserrat-Regular'; font-size:13px;">e</tspan><tspan x="51.882" y="0" class="st5" style="font-family:'Montserrat-Regular'; font-size:13px;">x</tspan><tspan x="59.097" y="0" class="st5" style="font-family:'Montserrat-Regular'; font-size:13px;">t</tspan><tspan x="64.128" y="0" class="st5" style="font-family:'Montserrat-Regular'; font-size:13px;">b</tspan><tspan x="72.942" y="0" class="st5" style="font-family:'Montserrat-Regular'; font-size:13px;">o</tspan><tspan x="80.742" y="0" class="st5" style="font-family:'Montserrat-Regular'; font-size:13px;">x </tspan></text>
<path class="st14" d="M312.68-19.212c3.707,0,6.713-3.005,6.713-6.712c0-3.708-3.006-6.713-6.713-6.713
	c-3.707,0-6.712,3.005-6.712,6.713C305.968-22.217,308.973-19.212,312.68-19.212z"/>
<rect x="190.18" y="-67.17" class="st9" width="245" height="57.75"/>
<line class="st15" x1="312.68" y1="-29.459" x2="312.68" y2="-22.39"/>
<line class="st15" x1="309.146" y1="-25.893" x2="316.214" y2="-25.893"/>
<path class="st14" d="M201.718,20.623c3.707,0,6.713-3.005,6.713-6.712c0-3.708-3.006-6.713-6.713-6.713
	c-3.707,0-6.712,3.005-6.712,6.713C195.006,17.618,198.011,20.623,201.718,20.623z"/>
<line class="st15" x1="201.718" y1="10.377" x2="201.718" y2="17.446"/>
<line class="st15" x1="198.184" y1="13.942" x2="205.252" y2="13.942"/>
<g>
	<path class="st16" d="M-294.174,35.759h-3.138v-1.85h8.544v1.85h-3.138v7.956h-2.269V35.759z"/>
	<path class="st16" d="M-287.553,33.909h2.269v9.806h-2.269V33.909z"/>
	<path class="st16" d="M-274.459,37.468c0,2.185-1.639,3.544-4.258,3.544h-1.975v2.703h-2.269v-9.806h4.244
		C-276.098,33.909-274.459,35.268-274.459,37.468z M-276.756,37.468c0-1.079-0.701-1.709-2.087-1.709h-1.849v3.403h1.849
		C-277.457,39.162-276.756,38.532-276.756,37.468z"/>
	<path class="st16" d="M-264.337,37.468c0,2.185-1.639,3.544-4.258,3.544h-1.975v2.703h-2.269v-9.806h4.244
		C-265.976,33.909-264.337,35.268-264.337,37.468z M-266.634,37.468c0-1.079-0.701-1.709-2.087-1.709h-1.849v3.403h1.849
		C-267.335,39.162-266.634,38.532-266.634,37.468z"/>
</g>
<path class="st16" d="M-330.801,29.438L-330.801,29.438c-1.054,2.474-1.96,4.602-2.889,6.784h5.729
	C-328.905,33.966-329.787,31.858-330.801,29.438 M-327.308,47.028L-327.308,47.028c-0.346-1.15-0.211-1.759,1.044-1.8
	c0.976-0.033,1.343-0.74,1.02-1.64c-0.507-1.414-1.072-2.81-1.681-4.183c-0.109-0.245-0.55-0.478-0.843-0.484
	c-2.129-0.041-4.261-0.046-6.39,0.005c-0.305,0.008-0.741,0.315-0.877,0.599c-0.558,1.155-1.057,2.342-1.512,3.542
	c-0.57,1.504-0.268,2.026,1.348,2.192c0.783,0.081,1.206,0.319,1.022,1.126c-0.056,0.243-0.355,0.61-0.547,0.613
	c-2.524,0.042-5.049,0.028-7.596,0.028c-0.214-0.956-0.321-1.631,0.868-1.885c0.569-0.122,1.219-0.609,1.515-1.117
	c0.755-1.293,1.377-2.67,1.972-4.049c2.401-5.559,4.761-11.135,7.172-16.689c0.173-0.398,0.634-0.67,0.96-1
	c0.319,0.343,0.766,0.632,0.937,1.037c2.56,6.048,5.079,12.114,7.622,18.17c0.326,0.776,0.705,1.534,1.106,2.275
	c0.507,0.939,1.332,1.389,2.379,1.595c0.265,0.052,0.519,0.638,0.586,1.013c0.032,0.175-0.39,0.621-0.611,0.624
	C-320.966,47.041-324.119,47.028-327.308,47.028"/>
<path class="st5" d="M-233.564,39.49c2.682-0.014,4.762-2.036,4.751-4.621c-0.01-2.367-2.203-4.406-4.733-4.399
	c-2.703,0.008-4.848,2.038-4.825,4.568C-238.348,37.502-236.188,39.503-233.564,39.49 M-228.009,39.503L-228.009,39.503
	c0.393-0.231,0.569-0.207,0.91,0.115c1.249,1.181,2.501,2.361,3.751,3.541c0.086,0.08,0.173,0.159,0.252,0.246
	c0.216,0.237,0.217,0.464-0.012,0.692c-0.249,0.248-0.509,0.488-0.767,0.727c-0.302,0.28-0.548,0.287-0.855,0
	c-1.177-1.103-2.348-2.211-3.522-3.318c-0.132-0.124-0.263-0.25-0.396-0.373c-0.368-0.34-0.394-0.487-0.153-0.896
	c-0.368-0.336-0.737-0.673-1.128-1.029c-1.472,1.07-3.153,1.471-5.011,1.06c-1.415-0.313-2.544-1.054-3.377-2.178
	c-1.65-2.23-1.286-5.335,0.823-7.11c2.222-1.87,5.521-1.904,7.68-0.117c2.217,1.835,2.765,5.106,0.696,7.583
	C-228.748,38.799-228.379,39.15-228.009,39.503"/>
<path class="st17" d="M-233.564,39.49c2.682-0.014,4.762-2.036,4.751-4.621c-0.01-2.367-2.203-4.406-4.733-4.399
	c-2.703,0.008-4.848,2.038-4.825,4.568C-238.348,37.502-236.188,39.503-233.564,39.49z M-228.009,39.503L-228.009,39.503
	c0.393-0.231,0.569-0.207,0.91,0.115c1.249,1.181,2.501,2.361,3.751,3.541c0.086,0.08,0.173,0.159,0.252,0.246
	c0.216,0.237,0.217,0.464-0.012,0.692c-0.249,0.248-0.509,0.488-0.767,0.727c-0.302,0.28-0.548,0.287-0.855,0
	c-1.177-1.103-2.348-2.211-3.522-3.318c-0.132-0.124-0.263-0.25-0.396-0.373c-0.368-0.34-0.394-0.487-0.153-0.896
	c-0.368-0.336-0.737-0.673-1.128-1.029c-1.472,1.07-3.153,1.471-5.011,1.06c-1.415-0.313-2.544-1.054-3.377-2.178
	c-1.65-2.23-1.286-5.335,0.823-7.11c2.222-1.87,5.521-1.904,7.68-0.117c2.217,1.835,2.765,5.106,0.696,7.583
	C-228.748,38.799-228.379,39.15-228.009,39.503z"/>
<path class="st5" d="M-169.849,29.909l2.966,2.98v-2.758c0-0.096-0.055-0.229-0.123-0.297l-3.807-3.826
	c-0.068-0.067-0.178-0.067-0.245,0l-3.93,3.949v2.758c0,0.096,0.055,0.119,0.122,0.051l2.844-2.857
	c0.068-0.068,0.122-0.046,0.122,0.05v7.829h0v2.168c0,0.096-0.055,0.118-0.123,0.05l-2.966-2.98v2.758
	c0,0.096,0.055,0.229,0.123,0.297l3.807,3.826c0.068,0.067,0.178,0.067,0.245,0l3.93-3.949V37.2c0-0.096-0.055-0.119-0.122-0.051
	l-2.844,2.857c-0.068,0.068-0.122,0.046-0.122-0.05v-7.829h0v-2.168C-169.972,29.863-169.917,29.841-169.849,29.909z"/>
<line class="st18" x1="-205.988" y1="43.145" x2="-178.155" y2="43.145"/>
<line class="st18" x1="-205.988" y1="34.849" x2="-178.155" y2="34.849"/>
<line class="st18" x1="-205.988" y1="26.857" x2="-178.155" y2="26.857"/>
<line class="st18" x1="-191.646" y1="62.117" x2="-191.646" y2="83.117"/>
<path class="st5" d="M-184.186,75.96L-184.186,75.96h2.695l-2.603-2.569c-0.138-0.135-0.093-0.245,0.101-0.245h7.006v-1.407
	c0-0.193-0.157-0.35-0.35-0.35h-6.656c-0.194,0-0.239-0.11-0.101-0.246l2.603-2.569h-2.345c-0.193,0-0.462,0.111-0.599,0.246
	l-3.245,3.201c-0.137,0.136-0.137,0.356,0,0.492L-184.186,75.96z"/>
<path class="st5" d="M-199.957,68.748L-199.957,68.748h-2.695l2.603,2.569c0.138,0.135,0.093,0.245-0.101,0.245h-7.006v1.407
	c0,0.193,0.157,0.35,0.35,0.35h6.656c0.194,0,0.239,0.11,0.101,0.246l-2.603,2.569h2.345c0.193,0,0.462-0.111,0.599-0.246
	l3.245-3.201c0.137-0.136,0.137-0.356,0-0.492L-199.957,68.748z"/>
<line class="st19" x1="124.64" y1="-56.996" x2="88.617" y2="-56.996"/>
<path class="st20" d="M116.137-53.85c2.045,0,3.703-1.658,3.703-3.703c0-2.045-1.658-3.703-3.703-3.703s-3.703,1.658-3.703,3.703
	C112.434-55.508,114.092-53.85,116.137-53.85"/>
<g>
	<path class="st5" d="M139.336-56.795c0,3.12-1.82,4.836-4.459,4.836c-0.91,0-1.781-0.195-2.392-0.585l0.624-1.274
		c0.494,0.325,1.092,0.442,1.729,0.442c1.716,0,2.795-1.066,2.795-3.133v-0.014c-0.546,0.638-1.417,0.949-2.431,0.949
		c-1.794,0-3.133-1.092-3.133-2.795c0-1.807,1.469-2.951,3.328-2.951C137.88-61.319,139.336-59.72,139.336-56.795z M137.373-58.459
		c0-0.858-0.676-1.534-1.885-1.534c-1.053,0-1.781,0.598-1.781,1.547s0.715,1.547,1.82,1.547
		C136.619-56.899,137.373-57.563,137.373-58.459z"/>
	<path class="st5" d="M147.201-54.884c0,1.599-1.157,2.925-3.602,2.925c-1.287,0-2.587-0.39-3.419-1.053l0.715-1.313
		c0.663,0.546,1.651,0.897,2.678,0.897c1.209,0,1.924-0.533,1.924-1.392c0-0.871-0.559-1.417-2.444-1.417h-2.197l0.468-4.953h5.343
		v1.417h-3.913l-0.195,2.106h0.871C146.122-57.666,147.201-56.496,147.201-54.884z"/>
	<path class="st5" d="M151.62-58.784c0-1.495,0.871-2.496,2.171-2.496s2.184,0.988,2.184,2.496s-0.884,2.496-2.184,2.496
		S151.62-57.289,151.62-58.784z M154.91-58.784c0-1.014-0.416-1.586-1.118-1.586c-0.676,0-1.118,0.585-1.118,1.586
		s0.442,1.586,1.118,1.586C154.493-57.198,154.91-57.771,154.91-58.784z M159.252-61.19h1.274l-6.214,9.101h-1.274L159.252-61.19z
		 M157.588-54.494c0-1.495,0.871-2.496,2.171-2.496c1.3,0,2.184,1.001,2.184,2.496s-0.884,2.496-2.184,2.496
		C158.458-51.998,157.588-52.999,157.588-54.494z M160.877-54.494c0-1.001-0.429-1.586-1.118-1.586s-1.118,0.572-1.118,1.586
		c0,1.015,0.429,1.586,1.118,1.586S160.877-53.493,160.877-54.494z"/>
</g>
<rect x="102.577" y="-2.853" class="st11" width="13.149" height="16.764"/>
<polygon class="st21" points="102.577,13.911 102.577,13.911 115.726,13.911 115.726,-2.853 102.577,-2.853 "/>
<rect x="94.905" y="-3.324" class="st9" width="21.291" height="24"/>
<line class="st22" x1="99.402" y1="4.842" x2="99.402" y2="15.229"/>
<line class="st23" x1="102.034" y1="17.118" x2="111.683" y2="17.118"/>
<path class="st21" d="M112.559,17.118h0.877 M99.402,16.174v0.944h0.877 M99.402,2.009v0.944"/>
<polyline class="st21" points="95.375,5.098 95.375,20.206 109.409,20.206 "/>
<rect x="94.905" y="-3.324" class="st9" width="21.291" height="24"/>
<rect x="134.151" y="-2.922" class="st11" width="14.674" height="18.705"/>
<polygon class="st24" points="134.151,15.783 134.151,15.783 148.824,15.783 148.824,-2.922 134.151,-2.922 "/>
<rect x="133.749" y="-3.324" class="st9" width="19.884" height="24"/>
<rect x="138.558" y="1.569" class="st5" width="14.674" height="18.705"/>
<polygon class="st25" points="138.557,20.274 138.557,20.274 153.23,20.274 153.23,1.569 138.557,1.569 "/>
<rect x="133.749" y="-3.324" class="st9" width="19.884" height="24"/>
<rect x="35.258" y="0.625" class="st10" width="34.924" height="19.551"/>
<g>
	<path class="st11" d="M49.499,12.143h-5.72c0.104,1.43,1.196,2.379,2.691,2.379c0.832,0,1.573-0.299,2.093-0.897l0.52,0.599
		c-0.611,0.728-1.56,1.118-2.639,1.118c-2.132,0-3.588-1.456-3.588-3.484s1.417-3.472,3.341-3.472c1.924,0,3.315,1.417,3.315,3.472
		C49.513,11.935,49.499,12.039,49.499,12.143z M43.779,11.454h4.849c-0.117-1.339-1.092-2.275-2.431-2.275
		C44.871,9.179,43.896,10.115,43.779,11.454z"/>
	<path class="st11" d="M50.747,6.28c0-0.352,0.299-0.65,0.676-0.65s0.676,0.286,0.676,0.637c0,0.378-0.286,0.677-0.676,0.677
		C51.046,6.943,50.747,6.644,50.747,6.28z M50.955,8.438h0.923v6.838h-0.923V8.438z"/>
	<path class="st11" d="M60.172,11.311v3.965h-0.923v-3.874c0-1.443-0.754-2.185-2.054-2.185c-1.469,0-2.392,0.91-2.392,2.471v3.588
		H53.88V8.438h0.884v1.261c0.494-0.832,1.417-1.313,2.6-1.313C59.028,8.386,60.172,9.348,60.172,11.311z"/>
</g>
<polygon class="st6" points="0.25,0.5 0.25,20.5 0.25,20.75 0.5,20.75 69.349,20.75 69.599,20.75 69.599,20.5 69.599,0.5 
	69.599,0.25 69.349,0.25 0.5,0.25 0.25,0.25 "/>
<rect x="0" class="st9" width="70.183" height="21"/>
<line class="st26" x1="141.314" y1="90.139" x2="141.314" y2="114.399"/>
<path class="st5" d="M149.411,105.957L149.411,105.957h2.592l-2.494-2.46c-0.138-0.135-0.093-0.245,0.101-0.245h6.725v-1.339
	c0-0.193-0.157-0.35-0.35-0.35h-6.725l2.743-2.705h-2.242c-0.193,0-0.462,0.11-0.599,0.245l-3.102,3.059
	c-0.137,0.135-0.137,0.355,0,0.491L149.411,105.957z"/>
<line class="st26" x1="114.369" y1="114.232" x2="114.369" y2="89.972"/>
<path class="st5" d="M106.272,98.414L106.272,98.414h-2.592l2.494,2.46c0.138,0.135,0.093,0.245-0.101,0.245h-6.725v1.339
	c0,0.193,0.157,0.35,0.35,0.35h6.725l-2.743,2.705h2.242c0.193,0,0.462-0.11,0.599-0.245l3.102-3.059
	c0.137-0.135,0.137-0.355,0-0.491L106.272,98.414z"/>
<line class="st26" x1="-75.373" y1="98.011" x2="-51.113" y2="98.011"/>
<path class="st5" d="M-59.722,89.953L-59.722,89.953v-2.592l-2.46,2.494c-0.135,0.138-0.245,0.093-0.245-0.101v-6.725h-1.339
	c-0.193,0-0.35,0.157-0.35,0.35v6.725l-2.705-2.743v2.242c0,0.193,0.11,0.462,0.245,0.599l3.059,3.102
	c0.135,0.137,0.355,0.137,0.491,0L-59.722,89.953z"/>
<path class="st5" d="M-66.654,105.105L-66.654,105.105v2.592l2.46-2.494c0.135-0.138,0.245-0.093,0.245,0.101v6.725h1.339
	c0.193,0,0.35-0.157,0.35-0.35v-6.725l2.705,2.743v-2.242c0-0.193-0.11-0.462-0.245-0.599l-3.059-3.102
	c-0.135-0.137-0.355-0.137-0.491,0L-66.654,105.105z"/>
<line class="st26" x1="-18.927" y1="110.821" x2="-18.927" y2="86.561"/>
<path class="st5" d="M-26.985,95.17L-26.985,95.17h-2.592l2.494,2.46c0.138,0.135,0.093,0.245-0.101,0.245h-6.725v1.339
	c0,0.193,0.157,0.35,0.35,0.35h6.725l-2.743,2.705h2.242c0.193,0,0.462-0.11,0.599-0.245l3.102-3.059
	c0.137-0.135,0.137-0.355,0-0.491L-26.985,95.17z"/>
<path class="st5" d="M-11.833,102.102L-11.833,102.102h2.592l-2.494-2.46c-0.138-0.135-0.093-0.245,0.101-0.245h6.725v-1.339
	c0-0.193-0.157-0.35-0.35-0.35h-6.725l2.743-2.705h-2.242c-0.193,0-0.462,0.11-0.599,0.245l-3.102,3.059
	c-0.137,0.135-0.137,0.355,0,0.491L-11.833,102.102z"/>
<line class="st26" x1="13.215" y1="98.294" x2="37.475" y2="98.294"/>
<path class="st5" d="M21.934,105.388L21.934,105.388v2.592l2.46-2.494c0.135-0.138,0.245-0.093,0.245,0.101v6.725h1.339
	c0.193,0,0.35-0.157,0.35-0.35v-6.725l2.705,2.743v-2.242c0-0.193-0.11-0.462-0.245-0.599l-3.059-3.102
	c-0.135-0.137-0.355-0.137-0.491,0L21.934,105.388z"/>
<line class="st26" x1="58.326" y1="109.549" x2="82.586" y2="109.549"/>
<path class="st5" d="M74.144,101.16L74.144,101.16v-2.592l-2.46,2.494c-0.135,0.138-0.245,0.093-0.245-0.101v-6.725H70.1
	c-0.193,0-0.35,0.157-0.35,0.35v6.725l-2.705-2.743v2.242c0,0.193,0.11,0.462,0.245,0.599l3.059,3.102
	c0.135,0.137,0.355,0.137,0.491,0L74.144,101.16z"/>
<rect x="204.189" y="82.623" class="st11" width="15.769" height="20.056"/>
<line class="st27" x1="207.146" y1="102.679" x2="217.987" y2="102.679"/>
<line class="st28" x1="219.958" y1="99.671" x2="219.958" y2="84.629"/>
<line class="st27" x1="217.002" y1="82.623" x2="206.161" y2="82.623"/>
<line class="st28" x1="204.189" y1="85.632" x2="204.189" y2="100.674"/>
<path class="st21" d="M204.189,101.676v1.003h0.986 M205.175,82.623h-0.986v1.003 M219.958,83.626v-1.003h-0.985 M218.973,102.679
	h0.985v-1.003"/>
<polygon class="st11" points="192.953,112.679 192.953,112.679 208.722,112.679 208.722,92.623 192.953,92.623 "/>
<line class="st27" x1="195.91" y1="112.679" x2="206.751" y2="112.679"/>
<line class="st28" x1="208.722" y1="109.671" x2="208.722" y2="94.629"/>
<line class="st27" x1="205.766" y1="92.623" x2="194.925" y2="92.623"/>
<line class="st28" x1="192.953" y1="95.632" x2="192.953" y2="110.674"/>
<path class="st21" d="M192.953,111.676v1.003h0.986 M193.939,92.623h-0.986v1.003 M208.722,93.626v-1.003h-0.985 M207.737,112.679
	h0.985v-1.003"/>
<polygon class="st11" points="183.479,120.679 183.479,120.679 199.248,120.679 199.248,100.623 183.479,100.623 "/>
<polygon class="st21" points="183.479,120.679 183.479,120.679 199.248,120.679 199.248,100.623 183.479,100.623 "/>
<g>
	<polygon class="st11" points="257.316,106.985 257.316,106.985 273.085,106.985 273.085,86.929 257.316,86.929 	"/>
	<polygon class="st21" points="257.316,106.985 257.316,106.985 273.085,106.985 273.085,86.929 257.316,86.929 	"/>
	<line class="st29" x1="253.552" y1="95.484" x2="253.552" y2="108.988"/>
	<line class="st30" x1="256.689" y1="110.788" x2="268.192" y2="110.788"/>
	<path class="st21" d="M269.237,110.788h1.046 M253.552,109.888v0.9h1.046 M253.552,92.783v0.9"/>
</g>
<g>
	<g>
		<rect x="329.856" y="75.208" class="st11" width="15.769" height="20.056"/>
		<polygon class="st21" points="329.856,95.264 329.856,95.264 345.625,95.264 345.625,75.208 329.856,75.208 		"/>
		<polygon class="st11" points="318.619,105.264 318.619,105.264 334.388,105.264 334.388,85.208 318.619,85.208 		"/>
		<line class="st27" x1="321.576" y1="105.264" x2="332.417" y2="105.264"/>
		<line class="st28" x1="334.388" y1="102.256" x2="334.388" y2="87.214"/>
		<line class="st27" x1="331.432" y1="85.208" x2="320.591" y2="85.208"/>
		<line class="st28" x1="318.619" y1="88.217" x2="318.619" y2="103.259"/>
		<path class="st21" d="M318.619,104.261v1.003h0.986 M319.605,85.208h-0.986v1.003 M334.388,86.211v-1.003h-0.985 M333.403,105.264
			h0.985v-1.003"/>
		<polygon class="st11" points="309.146,113.264 309.146,113.264 324.915,113.264 324.915,93.208 309.146,93.208 		"/>
		<line class="st27" x1="312.103" y1="113.264" x2="322.944" y2="113.264"/>
		<line class="st28" x1="324.915" y1="110.256" x2="324.915" y2="95.214"/>
		<line class="st27" x1="321.958" y1="93.208" x2="311.117" y2="93.208"/>
		<line class="st28" x1="309.146" y1="96.217" x2="309.146" y2="111.259"/>
		<path class="st21" d="M309.146,112.261v1.003h0.986 M310.132,93.208h-0.986v1.003 M324.914,94.211v-1.003h-0.985 M323.93,113.264
			h0.985v-1.003"/>
	</g>
	<line class="st27" x1="385.269" y1="108.75" x2="396.11" y2="108.75"/>
	<line class="st28" x1="398.081" y1="105.741" x2="398.081" y2="90.699"/>
	<line class="st27" x1="395.125" y1="88.694" x2="384.284" y2="88.694"/>
	<line class="st28" x1="382.312" y1="91.702" x2="382.312" y2="106.744"/>
	<path class="st21" d="M382.312,107.747v1.003h0.986 M383.298,88.694h-0.986v1.003 M398.081,89.697v-1.003h-0.985 M397.096,108.75
		h0.985v-1.003"/>
	<polyline class="st21" points="378.548,94.548 378.548,112.553 395.279,112.553 	"/>
</g>
<g>
	<defs>
		<rect id="SVGID_1_" x="-376.726" y="202.586" width="241.682" height="1"/>
	</defs>
	<clipPath id="SVGID_00000181765987814188024450000005071891987718585472_">
		<use xlink:href="#SVGID_1_"  style="overflow:visible;"/>
	</clipPath>
	
		<line style="clip-path:url(#SVGID_00000181765987814188024450000005071891987718585472_);fill:none;stroke:#B2B2B2;stroke-linecap:round;stroke-linejoin:round;stroke-dasharray:0,3.009;" x1="-373.218" y1="203.086" x2="-137.048" y2="203.086"/>
	
		<path style="clip-path:url(#SVGID_00000181765987814188024450000005071891987718585472_);fill:none;stroke:#B2B2B2;stroke-linecap:round;stroke-linejoin:round;" d="
		M-135.544,203.086L-135.544,203.086 M-376.226,203.086L-376.226,203.086"/>
</g>
<circle class="st33" cx="-329.828" cy="-18.126" r="12.75"/>
<polygon class="st3" points="-186.435,-33.149 -199.435,-33.149 -193.067,-22.674 "/>
<polygon class="st5" points="-178.412,95.393 -188.887,101.761 -178.412,108.393 "/>
<polygon class="st5" points="-207.459,108.393 -196.984,102.025 -207.459,95.393 "/>
<polygon class="st5" points="-124.906,95.393 -135.381,101.761 -124.906,108.393 "/>
<polygon class="st5" points="-160.083,108.393 -149.608,102.025 -160.083,95.393 "/>
<rect x="0.167" y="-33.138" class="st10" width="34.924" height="19.551"/>
<polygon class="st6" points="0.417,-33.263 0.417,-13.263 0.417,-13.013 0.667,-13.013 69.516,-13.013 69.766,-13.013 
	69.766,-13.263 69.766,-33.263 69.766,-33.513 69.516,-33.513 0.667,-33.513 0.417,-33.513 "/>
<rect x="0.167" y="-33.763" class="st9" width="69.849" height="21"/>
<rect x="35.531" y="32.89" class="st10" width="34.924" height="19.551"/>
<polygon class="st6" points="0.523,32.765 0.523,52.765 0.523,53.015 0.773,53.015 69.622,53.015 69.872,53.015 69.872,52.765 
	69.872,32.765 69.872,32.515 69.622,32.515 0.773,32.515 0.523,32.515 "/>
<rect x="0.273" y="32.265" class="st9" width="70.183" height="21"/>
<line class="st19" x1="123.562" y1="-37.209" x2="87.539" y2="-37.209"/>
<path class="st20" d="M115.059-34.062c2.045,0,3.703-1.658,3.703-3.703c0-2.045-1.658-3.703-3.703-3.703s-3.703,1.658-3.703,3.703
	C111.356-35.72,113.014-34.062,115.059-34.062"/>
<line class="st19" x1="431.886" y1="-6.429" x2="395.863" y2="-6.429"/>
<path class="st20" d="M423.383-3.283c2.045,0,3.703-1.658,3.703-3.703s-1.658-3.703-3.703-3.703c-2.045,0-3.703,1.658-3.703,3.703
	S421.338-3.283,423.383-3.283"/>
</svg>
