<?xml version="1.0" encoding="utf-8"?>
<!-- Generator: Adobe Illustrator 26.0.3, SVG Export Plug-In . SVG Version: 6.00 Build 0)  -->
<svg version="1.1" id="Ebene_1" xmlns="http://www.w3.org/2000/svg" xmlns:xlink="http://www.w3.org/1999/xlink" x="0px" y="0px"
	 width="70.183px" height="21px" viewBox="0 0 70.183 21" style="enable-background:new 0 0 70.183 21;" xml:space="preserve">
<style type="text/css">
	.st0{fill:none;stroke:#C5C5C5;stroke-width:3;stroke-linecap:round;stroke-linejoin:round;}
	.st1{fill:#FFAEFF;stroke:#4F4D4D;stroke-width:0.5;}
	.st2{fill:#F8F8F8;}
	.st3{fill:#0E689A;}
	.st4{fill:none;stroke:#B2B1B1;stroke-width:0.65;stroke-miterlimit:10;}
	.st5{fill:#B2B1B1;}
	.st6{fill:none;stroke:#B2B2B2;stroke-width:0.5;stroke-miterlimit:10;}
	.st7{fill:none;stroke:#B2B1B1;stroke-width:0.3;stroke-miterlimit:10;}
	.st8{fill:none;stroke:#FFFFFF;stroke-width:0.021;}
	.st9{fill:none;}
	.st10{fill:#0E6899;}
	.st11{fill:#FFFFFF;}
	.st12{fill:none;stroke:#C5C5C5;stroke-width:0.5;stroke-linecap:round;stroke-linejoin:round;}
	.st13{fill:#C5C5C5;}
	.st14{fill:none;stroke:#B2B1B1;stroke-width:0.5;}
	.st15{fill:none;stroke:#B2B1B1;stroke-width:1.2;}
	.st16{fill:#B2B2B2;}
	.st17{fill:none;stroke:#FFFFFF;stroke-width:0.001;}
	.st18{fill:none;stroke:#B2B1B1;stroke-width:1.712;}
	.st19{fill:none;stroke:#B2B1B1;stroke-width:2;}
	.st20{fill:#AD5E7A;}
	.st21{fill:none;stroke:#B2B1B1;stroke-width:0.941;}
	.st22{fill:none;stroke:#B2B1B1;stroke-width:0.941;stroke-dasharray:1.889,1.889;}
	.st23{fill:none;stroke:#B2B1B1;stroke-width:0.941;stroke-dasharray:1.754,1.754;}
	.st24{fill:none;stroke:#B2B1B1;stroke-width:0.804;}
	.st25{fill:none;stroke:#FFFFFF;stroke-width:0.804;}
	.st26{fill:none;stroke:#B2B1B1;stroke-width:2.5;}
	.st27{fill:none;stroke:#B2B1B1;stroke-width:0.941;stroke-dasharray:1.971,1.971;}
	.st28{fill:none;stroke:#B2B1B1;stroke-width:0.941;stroke-dasharray:2.006,2.006;}
	.st29{fill:none;stroke:#B2B1B1;stroke-width:0.941;stroke-dasharray:1.801,1.801;}
	.st30{fill:none;stroke:#B2B1B1;stroke-width:0.941;stroke-dasharray:2.091,2.091;}
	
		.st31{clip-path:url(#SVGID_00000000200865018423812290000004236641366292501938_);fill:none;stroke:#B2B2B2;stroke-linecap:round;stroke-linejoin:round;stroke-dasharray:0,3.009;}
	
		.st32{clip-path:url(#SVGID_00000000200865018423812290000004236641366292501938_);fill:none;stroke:#B2B2B2;stroke-linecap:round;stroke-linejoin:round;}
	.st33{fill:none;stroke:#4F4D4D;stroke-width:0.5;}
</style>
<polyline class="st0" points="1661.792,876.265 1655.542,867.265 1648.792,876.265 "/>
<circle class="st1" cx="-330.101" cy="-86.484" r="12.75"/>
<rect x="-297.64" y="-97.499" class="st2" width="119.902" height="21"/>
<polygon class="st3" points="-186.811,-92.236 -199.811,-92.236 -193.443,-81.761 "/>
<g>
	<g>
		<line class="st4" x1="-73.799" y1="-79.978" x2="-63.516" y2="-79.978"/>
		<g>
			<path class="st5" d="M-72.512-85.204v-5.175h1.3v5.122c0,2.016,0.923,2.926,2.561,2.926c1.638,0,2.574-0.91,2.574-2.926v-5.122
				h1.261v5.175c0,2.639-1.443,4.029-3.848,4.029C-71.055-81.174-72.512-82.565-72.512-85.204z"/>
		</g>
	</g>
	<polygon class="st6" points="-81.907,-98.178 -81.907,-72.178 -81.907,-71.928 -81.657,-71.928 -55.657,-71.928 -55.407,-71.928 
		-55.407,-72.178 -55.407,-98.178 -55.407,-98.428 -55.657,-98.428 -81.657,-98.428 -81.907,-98.428 	"/>
</g>
<g>
	<g>
		<path class="st5" d="M-103.261-90.105h1.3l-1.82,9.101h-1.3L-103.261-90.105z"/>
	</g>
	<polygon class="st6" points="-116.771,-98.555 -116.771,-72.555 -116.771,-72.305 -116.521,-72.305 -90.521,-72.305 
		-90.271,-72.305 -90.271,-72.555 -90.271,-98.555 -90.271,-98.805 -90.521,-98.805 -116.521,-98.805 -116.771,-98.805 	"/>
</g>
<g>
	<g>
		<path class="st5" d="M-136.41-83.436c0,1.573-1.248,2.483-3.64,2.483h-4.706v-9.101h4.446c2.275,0,3.445,0.949,3.445,2.366
			c0,0.91-0.468,1.612-1.209,2.002C-137.059-85.36-136.41-84.58-136.41-83.436z M-142.662-88.467v2.146h2.093
			c1.027,0,1.586-0.364,1.586-1.079s-0.559-1.066-1.586-1.066H-142.662z M-138.529-83.657c0-0.767-0.585-1.131-1.677-1.131h-2.457
			v2.249h2.457C-139.114-82.539-138.529-82.876-138.529-83.657z"/>
	</g>
	<polygon class="st6" points="-153.833,-98.503 -153.833,-72.503 -153.833,-72.253 -153.583,-72.253 -127.583,-72.253 
		-127.333,-72.253 -127.333,-72.503 -127.333,-98.503 -127.333,-98.753 -127.583,-98.753 -153.583,-98.753 -153.833,-98.753 	"/>
</g>
<path class="st7" d="M-99.645-56.549"/>
<path class="st7" d="M-102.153-55.295"/>
<path class="st7" d="M-102.153-54.041"/>
<path class="st7" d="M-102.153-52.787"/>
<path class="st7" d="M-99.645-51.533"/>
<path class="st7" d="M-99.645-50.279"/>
<path class="st7" d="M-102.153-49.025"/>
<path class="st7" d="M-102.153-46.518"/>
<path class="st7" d="M-99.645-44.01"/>
<g>
	<path class="st7" d="M-119.109-51.533"/>
	<path class="st7" d="M-119.109-56.549"/>
	<path class="st7" d="M-119.109-44.01"/>
	<path class="st7" d="M-119.109-50.279"/>
	<g>
		<path class="st7" d="M-117.047-49.025"/>
		<path class="st7" d="M-117.047-52.787"/>
		<path class="st7" d="M-117.047-54.041"/>
		<path class="st7" d="M-117.047-55.295"/>
		<line class="st7" x1="-119.485" y1="-44.805" x2="-100.021" y2="-44.805"/>
		<line class="st7" x1="-119.485" y1="-46.08" x2="-104.591" y2="-46.08"/>
		<line class="st7" x1="-119.485" y1="-47.356" x2="-104.591" y2="-47.356"/>
		<line class="st7" x1="-119.485" y1="-48.632" x2="-104.591" y2="-48.632"/>
		<line class="st7" x1="-119.485" y1="-49.908" x2="-100.021" y2="-49.908"/>
		<line class="st7" x1="-119.485" y1="-51.184" x2="-100.021" y2="-51.184"/>
		<line class="st7" x1="-119.411" y1="-52.46" x2="-104.518" y2="-52.46"/>
		<line class="st7" x1="-119.485" y1="-53.736" x2="-100.021" y2="-53.736"/>
		<line class="st7" x1="-119.485" y1="-55.012" x2="-104.591" y2="-55.012"/>
		<line class="st7" x1="-119.485" y1="-56.288" x2="-104.591" y2="-56.288"/>
		<line class="st7" x1="-119.485" y1="-57.563" x2="-100.021" y2="-57.563"/>
	</g>
	<polygon class="st6" points="-122.812,-63.858 -122.812,-37.865 -122.812,-37.615 -122.562,-37.615 -96.569,-37.615 
		-96.319,-37.615 -96.319,-37.865 -96.319,-63.858 -96.319,-64.108 -96.569,-64.108 -122.562,-64.108 -122.812,-64.108 	"/>
</g>
<g>
	<g>
		<line class="st7" x1="-68.764" y1="-57.247" x2="-88.228" y2="-57.247"/>
		<line class="st7" x1="-71.272" y1="-55.97" x2="-86.166" y2="-55.97"/>
		<line class="st7" x1="-71.272" y1="-54.693" x2="-86.166" y2="-54.693"/>
		<line class="st7" x1="-71.272" y1="-53.416" x2="-86.166" y2="-53.416"/>
		<line class="st7" x1="-68.764" y1="-52.139" x2="-88.228" y2="-52.139"/>
		<line class="st7" x1="-68.764" y1="-50.862" x2="-88.228" y2="-50.862"/>
		<line class="st7" x1="-71.272" y1="-49.585" x2="-86.166" y2="-49.585"/>
		<line class="st7" x1="-68.764" y1="-48.308" x2="-88.228" y2="-48.308"/>
		<line class="st7" x1="-71.272" y1="-47.031" x2="-86.166" y2="-47.031"/>
		<line class="st7" x1="-71.272" y1="-45.754" x2="-86.166" y2="-45.754"/>
		<line class="st7" x1="-68.764" y1="-44.477" x2="-88.228" y2="-44.477"/>
	</g>
	<polygon class="st6" points="-91.743,-63.858 -91.743,-37.865 -91.743,-37.615 -91.493,-37.615 -65.5,-37.615 -65.25,-37.615 
		-65.25,-37.865 -65.25,-63.858 -65.25,-64.108 -65.5,-64.108 -91.493,-64.108 -91.743,-64.108 	"/>
</g>
<polygon class="st6" points="-60.674,-63.858 -60.674,-37.865 -60.674,-37.615 -60.424,-37.615 -34.431,-37.615 -34.181,-37.615 
	-34.181,-37.865 -34.181,-63.858 -34.181,-64.108 -34.431,-64.108 -60.424,-64.108 -60.674,-64.108 "/>
<path class="st7" d="M-57.347-45.174"/>
<path class="st7" d="M-57.347-50.19"/>
<path class="st7" d="M-57.347-51.444"/>
<path class="st7" d="M-57.347-57.714"/>
<path class="st7" d="M-39.945-52.698"/>
<path class="st7" d="M-37.883-50.19"/>
<path class="st7" d="M-39.945-48.936"/>
<path class="st7" d="M-37.883-45.174"/>
<path class="st7" d="M-37.883-57.714"/>
<path class="st7" d="M-37.883-51.444"/>
<path class="st7" d="M-39.945-47.682"/>
<path class="st7" d="M-39.945-46.428"/>
<g>
	<path class="st7" d="M-55.028-46.75"/>
	<path class="st7" d="M-55.028-48.004"/>
	<path class="st7" d="M-55.028-49.259"/>
	<path class="st7" d="M-55.028-53.02"/>
	<path class="st7" d="M-55.028-55.528"/>
	<line class="st7" x1="-37.696" y1="-57.241" x2="-57.16" y2="-57.241"/>
	<line class="st7" x1="-37.696" y1="-55.966" x2="-52.59" y2="-55.966"/>
	<line class="st7" x1="-37.696" y1="-54.69" x2="-52.59" y2="-54.69"/>
	<line class="st7" x1="-37.696" y1="-53.414" x2="-52.59" y2="-53.414"/>
	<line class="st7" x1="-37.696" y1="-52.138" x2="-57.16" y2="-52.138"/>
	<line class="st7" x1="-37.696" y1="-50.862" x2="-57.16" y2="-50.862"/>
	<line class="st7" x1="-37.769" y1="-49.586" x2="-52.663" y2="-49.586"/>
	<line class="st7" x1="-37.696" y1="-48.31" x2="-57.16" y2="-48.31"/>
	<line class="st7" x1="-37.696" y1="-47.034" x2="-52.59" y2="-47.034"/>
	<line class="st7" x1="-37.696" y1="-45.758" x2="-52.59" y2="-45.758"/>
	<line class="st7" x1="-37.696" y1="-44.482" x2="-57.16" y2="-44.482"/>
</g>
<polygon class="st6" points="-153.583,-63.852 -153.583,-37.859 -153.583,-37.609 -153.333,-37.609 -127.34,-37.609 
	-127.09,-37.609 -127.09,-37.859 -127.09,-63.852 -127.09,-64.102 -127.34,-64.102 -153.333,-64.102 -153.583,-64.102 "/>
<path class="st7" d="M-130.416-56.549"/>
<path class="st7" d="M-130.416-51.533"/>
<path class="st7" d="M-130.416-50.279"/>
<path class="st7" d="M-130.416-44.01"/>
<path class="st7" d="M-147.818-49.025"/>
<path class="st7" d="M-149.88-51.533"/>
<path class="st7" d="M-147.818-52.787"/>
<path class="st7" d="M-149.88-56.549"/>
<path class="st7" d="M-149.88-44.01"/>
<path class="st7" d="M-149.88-50.279"/>
<path class="st7" d="M-147.818-54.041"/>
<path class="st7" d="M-147.818-55.295"/>
<g>
	<path class="st7" d="M-132.924-55.295"/>
	<path class="st7" d="M-132.924-54.041"/>
	<path class="st7" d="M-132.924-52.787"/>
	<path class="st7" d="M-132.924-49.025"/>
	<path class="st7" d="M-132.924-46.518"/>
	<line class="st7" x1="-150.256" y1="-44.805" x2="-130.792" y2="-44.805"/>
	<line class="st7" x1="-150.256" y1="-46.08" x2="-130.792" y2="-46.08"/>
	<line class="st7" x1="-150.256" y1="-47.356" x2="-130.792" y2="-47.356"/>
	<line class="st7" x1="-150.256" y1="-48.632" x2="-130.792" y2="-48.632"/>
	<line class="st7" x1="-150.256" y1="-49.908" x2="-130.792" y2="-49.908"/>
	<line class="st7" x1="-150.256" y1="-51.184" x2="-130.792" y2="-51.184"/>
	<line class="st7" x1="-150.183" y1="-52.46" x2="-130.719" y2="-52.46"/>
	<line class="st7" x1="-150.256" y1="-53.736" x2="-130.792" y2="-53.736"/>
	<line class="st7" x1="-150.256" y1="-55.012" x2="-130.792" y2="-55.012"/>
	<line class="st7" x1="-150.256" y1="-56.288" x2="-130.792" y2="-56.288"/>
	<line class="st7" x1="-150.256" y1="-57.563" x2="-130.792" y2="-57.563"/>
</g>
<path class="st5" d="M-323.139,51.297l-1.915,13.335c-0.058,0.402-0.431,0.682-0.834,0.624c-0.402-0.058-0.682-0.431-0.624-0.833
	l1.915-13.336c0.058-0.402,0.431-0.681,0.834-0.623C-323.361,50.522-323.081,50.894-323.139,51.297 M-329.956,65.372
	c-0.407,0.003-0.74-0.324-0.742-0.73l-0.106-13.472c-0.003-0.407,0.324-0.739,0.73-0.742c0.408-0.003,0.74,0.324,0.743,0.731
	l0.105,13.471C-329.223,65.037-329.55,65.369-329.956,65.372 M-334.027,65.319c-0.401,0.064-0.779-0.209-0.842-0.61l-2.124-13.304
	c-0.064-0.402,0.209-0.779,0.612-0.843c0.401-0.064,0.778,0.209,0.842,0.611l2.123,13.303
	C-333.352,64.878-333.625,65.255-334.027,65.319 M-320.244,48.911c-0.141-0.169-0.353-0.266-0.573-0.264l-18.538,0.144
	c-0.22,0.002-0.429,0.101-0.568,0.272c-0.14,0.17-0.196,0.393-0.155,0.609l3.092,16.141c0.068,0.351,0.376,0.605,0.734,0.602
	l12.497-0.098c0.356-0.002,0.66-0.258,0.724-0.608l2.949-16.188C-320.042,49.305-320.103,49.08-320.244,48.911"/>
<path class="st8" d="M-323.139,51.297l-1.915,13.335c-0.058,0.402-0.431,0.682-0.834,0.624c-0.402-0.058-0.682-0.431-0.624-0.833
	l1.915-13.336c0.058-0.402,0.431-0.681,0.834-0.623C-323.361,50.522-323.081,50.894-323.139,51.297z M-329.956,65.372
	c-0.407,0.003-0.74-0.324-0.742-0.73l-0.106-13.472c-0.003-0.407,0.324-0.739,0.73-0.742c0.408-0.003,0.74,0.324,0.743,0.731
	l0.105,13.471C-329.223,65.037-329.55,65.369-329.956,65.372z M-334.027,65.319c-0.401,0.064-0.779-0.209-0.842-0.61l-2.124-13.304
	c-0.064-0.402,0.209-0.779,0.612-0.843c0.401-0.064,0.778,0.209,0.842,0.611l2.123,13.303
	C-333.352,64.878-333.625,65.255-334.027,65.319z M-320.244,48.911c-0.141-0.169-0.353-0.266-0.573-0.264l-18.538,0.144
	c-0.22,0.002-0.429,0.101-0.568,0.272c-0.14,0.17-0.196,0.393-0.155,0.609l3.092,16.141c0.068,0.351,0.376,0.605,0.734,0.602
	l12.497-0.098c0.356-0.002,0.66-0.258,0.724-0.608l2.949-16.188C-320.042,49.305-320.103,49.08-320.244,48.911z"/>
<path class="st5" d="M-332.932,44.304L-332.932,44.304l-0.004-0.421l5.49-0.043l0.004,0.421L-332.932,44.304z M-319.195,45.714
	L-319.195,45.714l-2.025,0.016l-0.009-1.171c-0.001-0.091-0.038-0.18-0.103-0.244c-0.065-0.064-0.155-0.1-0.246-0.1l-4.467,0.035
	l-0.009-1.12c-0.002-0.184-0.077-0.363-0.209-0.492c-0.131-0.13-0.311-0.203-0.495-0.201l-6.887,0.054
	c-0.183,0.001-0.363,0.077-0.492,0.208s-0.202,0.312-0.2,0.496l0.009,1.12l-4.164,0.032c-0.091,0.001-0.18,0.039-0.243,0.104
	c-0.065,0.065-0.101,0.154-0.101,0.246l0.009,1.171l-2.197,0.017l0.017,2.225l21.829-0.17L-319.195,45.714z"/>
<path class="st8" d="M-332.932,44.304L-332.932,44.304l-0.004-0.421l5.49-0.043l0.004,0.421L-332.932,44.304z M-319.195,45.714
	L-319.195,45.714l-2.025,0.016l-0.009-1.171c-0.001-0.091-0.038-0.18-0.103-0.244c-0.065-0.064-0.155-0.1-0.246-0.1l-4.467,0.035
	l-0.009-1.12c-0.002-0.184-0.077-0.363-0.209-0.492c-0.131-0.13-0.311-0.203-0.495-0.201l-6.887,0.054
	c-0.183,0.001-0.363,0.077-0.492,0.208s-0.202,0.312-0.2,0.496l0.009,1.12l-4.164,0.032c-0.091,0.001-0.18,0.039-0.243,0.104
	c-0.065,0.065-0.101,0.154-0.101,0.246l0.009,1.171l-2.197,0.017l0.017,2.225l21.829-0.17L-319.195,45.714z"/>
<rect x="-341.035" y="42.426" class="st9" width="21.868" height="24"/>
<rect x="-0.106" y="-98.342" class="st10" width="34.924" height="19.551"/>
<g>
	<path class="st11" d="M12.872-87.929v4.238h-0.884v-1.066c-0.416,0.702-1.222,1.132-2.354,1.132c-1.547,0-2.496-0.807-2.496-1.989
		c0-1.054,0.676-1.938,2.639-1.938h2.171v-0.416c0-1.17-0.663-1.807-1.938-1.807c-0.884,0-1.716,0.312-2.275,0.806L7.32-89.658
		c0.689-0.585,1.703-0.924,2.782-0.924C11.871-90.582,12.872-89.697,12.872-87.929z M11.949-85.745v-1.118H9.803
		c-1.326,0-1.755,0.52-1.755,1.222c0,0.793,0.637,1.287,1.729,1.287C10.817-84.354,11.585-84.848,11.949-85.745z"/>
	<path class="st11" d="M20.971-90.529v6.838h-0.884v-1.248c-0.481,0.832-1.365,1.313-2.458,1.313c-1.742,0-2.886-0.976-2.886-2.938
		v-3.965h0.923v3.874c0,1.456,0.754,2.197,2.054,2.197c1.43,0,2.327-0.924,2.327-2.483v-3.588H20.971z"/>
	<path class="st11" d="M22.27-84.471l0.416-0.728c0.546,0.429,1.469,0.767,2.431,0.767c1.3,0,1.833-0.441,1.833-1.118
		c0-1.78-4.433-0.377-4.433-3.081c0-1.118,0.962-1.95,2.704-1.95c0.884,0,1.846,0.247,2.418,0.638l-0.403,0.74
		c-0.598-0.416-1.313-0.585-2.015-0.585c-1.235,0-1.781,0.481-1.781,1.132c0,1.846,4.434,0.455,4.434,3.081
		c0,1.183-1.04,1.95-2.821,1.95C23.921-83.625,22.829-83.99,22.27-84.471z"/>
</g>
<polygon class="st6" points="0.144,-98.467 0.144,-78.467 0.144,-78.217 0.394,-78.217 69.243,-78.217 69.493,-78.217 
	69.493,-78.467 69.493,-98.467 69.493,-98.717 69.243,-98.717 0.394,-98.717 0.144,-98.717 "/>
<rect x="-0.106" y="-98.967" class="st9" width="69.849" height="21"/>
<rect x="-404.503" y="108.363" class="st11" width="1014" height="21"/>
<path class="st3" d="M222.658,108.363c-2.209,0-4,1.791-4,4v12.382c0,2.209,1.791,4,4,4h77.131c2.209,0,4-1.791,4-4v-12.382
	c0-2.209-1.791-4-4-4H222.658z"/>
<rect x="-404.253" y="108.613" class="st12" width="1013.5" height="20.5"/>
<path class="st13" d="M593.353,111.223v1.481c0,0.397,0.187,0.771,0.505,1.009l6.367,4.762c0.258,0.194,0.258,0.583,0,0.776
	l-6.367,4.762c-0.318,0.238-0.505,0.612-0.505,1.01v1.48c0,0.41,0.467,0.644,0.795,0.399l10.111-7.563
	c0.318-0.237,0.318-0.714,0-0.952l-10.11-7.562C593.82,110.579,593.353,110.814,593.353,111.223"/>
<path class="st13" d="M-388.65,126.503v-1.481c0-0.397-0.187-0.771-0.505-1.009l-6.367-4.762c-0.258-0.194-0.258-0.583,0-0.776
	l6.367-4.762c0.318-0.238,0.505-0.612,0.505-1.01v-1.48c0-0.41-0.467-0.644-0.795-0.399l-10.111,7.563
	c-0.318,0.237-0.318,0.714,0,0.952l10.11,7.562C-389.117,127.147-388.65,126.912-388.65,126.503"/>
<rect x="-404.503" y="108.363" class="st9" width="1014" height="21"/>
<rect x="651.27" y="-136.182" class="st11" width="21" height="702.123"/>
<path class="st3" d="M651.27,277.779c0,2.209,1.791,4,4,4h12.382c2.209,0,4-1.791,4-4v-78.286c0-2.209-1.791-4-4-4H655.27
	c-2.209,0-4,1.791-4,4V277.779z"/>
<rect x="651.52" y="-135.933" class="st12" width="20.5" height="701.624"/>
<path class="st13" d="M654.13-122.647h1.481c0.397,0,0.771-0.19,1.009-0.512l4.762-6.453c0.194-0.262,0.583-0.262,0.776,0
	l4.762,6.453c0.238,0.322,0.612,0.512,1.01,0.512h1.48c0.41,0,0.644-0.474,0.399-0.806l-7.563-10.248
	c-0.237-0.322-0.714-0.322-0.952,0l-7.562,10.248C653.486-123.121,653.721-122.647,654.13-122.647"/>
<path class="st13" d="M669.41,551.604h-1.481c-0.397,0-0.771,0.19-1.009,0.512l-4.762,6.453c-0.194,0.262-0.583,0.262-0.776,0
	l-4.762-6.453c-0.238-0.322-0.612-0.512-1.01-0.512h-1.48c-0.41,0-0.644,0.474-0.399,0.806l7.563,10.248
	c0.237,0.322,0.714,0.322,0.952,0l7.562-10.248C670.054,552.078,669.819,551.604,669.41,551.604"/>
<rect x="651.27" y="-136.183" class="st9" width="21" height="702.124"/>
<g>
	<g>
		<line class="st7" x1="-69.705" y1="-13.204" x2="-82.722" y2="-13.204"/>
		<line class="st7" x1="-69.705" y1="-23.38" x2="-82.722" y2="-23.38"/>
		<line class="st7" x1="-69.705" y1="-18.292" x2="-82.722" y2="-18.292"/>
		<g>
			<path class="st5" d="M-86.364-24.85v2.104h-0.487v-1.714h-0.421v-0.391H-86.364z"/>
		</g>
		<g>
			<path class="st5" d="M-85.603-17.882v0.396h-1.59v-0.315l0.812-0.767c0.187-0.178,0.22-0.286,0.22-0.388
				c0-0.165-0.114-0.262-0.337-0.262c-0.18,0-0.333,0.069-0.436,0.21l-0.355-0.228c0.163-0.238,0.457-0.392,0.836-0.392
				c0.469,0,0.781,0.241,0.781,0.623c0,0.204-0.057,0.391-0.352,0.664l-0.484,0.457H-85.603z"/>
		</g>
		<g>
			<path class="st5" d="M-85.621-13.123c0,0.354-0.273,0.68-0.872,0.68c-0.295,0-0.599-0.081-0.803-0.226l0.189-0.373
				c0.159,0.121,0.382,0.189,0.601,0.189c0.244,0,0.394-0.099,0.394-0.271c0-0.159-0.117-0.258-0.394-0.258h-0.223v-0.322
				l0.433-0.49h-0.896v-0.391h1.473v0.316l-0.475,0.541C-85.813-13.667-85.621-13.433-85.621-13.123z"/>
		</g>
	</g>
	<polygon class="st6" points="-91.75,-31.647 -91.75,-5.647 -91.75,-5.397 -91.5,-5.397 -65.5,-5.397 -65.25,-5.397 -65.25,-5.647 
		-65.25,-31.647 -65.25,-31.897 -65.5,-31.897 -91.5,-31.897 -91.75,-31.897 	"/>
</g>
<polygon class="st6" points="-153.583,-31.647 -153.583,-5.647 -153.583,-5.397 -153.333,-5.397 -127.333,-5.397 -127.083,-5.397 
	-127.083,-5.647 -127.083,-31.647 -127.083,-31.897 -127.333,-31.897 -153.333,-31.897 -153.583,-31.897 "/>
<g>
	<polygon class="st6" points="-123.241,-31.647 -123.241,-5.647 -123.241,-5.397 -122.991,-5.397 -96.991,-5.397 -96.741,-5.397 
		-96.741,-5.647 -96.741,-31.647 -96.741,-31.897 -96.991,-31.897 -122.991,-31.897 -123.241,-31.897 	"/>
	<path class="st7" d="M-101.709-13.522h-13.016 M-101.709-18.655h-13.016 M-101.709-23.787h-13.016"/>
	<path class="st5" d="M-116.811-18.07c0.161-0.156,0.241-0.349,0.241-0.581c0-0.15-0.037-0.288-0.11-0.414
		c-0.073-0.125-0.172-0.224-0.297-0.297c-0.126-0.073-0.264-0.11-0.415-0.11c-0.15,0-0.288,0.037-0.41,0.11
		c-0.122,0.073-0.221,0.172-0.294,0.297c-0.072,0.126-0.11,0.264-0.11,0.414c0,0.232,0.08,0.425,0.238,0.581
		c0.157,0.156,0.35,0.234,0.576,0.234C-117.165-17.836-116.972-17.914-116.811-18.07"/>
	<path class="st5" d="M-117.388-22.704c0.489,0,0.885-0.396,0.885-0.885c0-0.488-0.396-0.885-0.885-0.885
		c-0.488,0-0.885,0.397-0.885,0.885C-118.273-23.1-117.876-22.704-117.388-22.704"/>
	<path class="st5" d="M-116.811-13.053c0.161-0.156,0.241-0.349,0.241-0.581c0-0.15-0.037-0.288-0.11-0.414
		c-0.073-0.125-0.172-0.224-0.297-0.297c-0.126-0.073-0.264-0.11-0.415-0.11c-0.15,0-0.288,0.037-0.41,0.11
		c-0.122,0.073-0.221,0.172-0.294,0.297c-0.072,0.126-0.11,0.264-0.11,0.414c0,0.232,0.08,0.425,0.238,0.581
		c0.157,0.156,0.35,0.234,0.576,0.234C-117.165-12.819-116.972-12.897-116.811-13.053"/>
</g>
<path class="st7" d="M-132.051-13.514h-13.016 M-132.051-18.647h-13.016 M-132.051-23.779h-13.016"/>
<rect x="-148.615" y="-24.549" class="st5" width="1.77" height="1.77"/>
<rect x="-148.615" y="-19.533" class="st5" width="1.77" height="1.77"/>
<rect x="-148.615" y="-14.515" class="st5" width="1.77" height="1.77"/>
<rect x="189.907" y="-99.436" class="st2" width="245" height="57.75"/>
<text transform="matrix(1 0 0 1 264.6047 -73.2407)"><tspan x="0" y="0" class="st5" style="font-family:'Montserrat-Regular'; font-size:13px;">N</tspan><tspan x="10.478" y="0" class="st5" style="font-family:'Montserrat-Regular'; font-size:13px;">e</tspan><tspan x="18.135" y="0" class="st5" style="font-family:'Montserrat-Regular'; font-size:13px;">u</tspan><tspan x="26.753" y="0" class="st5" style="font-family:'Montserrat-Regular'; font-size:13px;">e </tspan><tspan x="38.011" y="0" class="st5" style="font-family:'Montserrat-Regular'; font-size:13px; letter-spacing:-1;">T</tspan><tspan x="44.381" y="0" class="st5" style="font-family:'Montserrat-Regular'; font-size:13px;">e</tspan><tspan x="51.882" y="0" class="st5" style="font-family:'Montserrat-Regular'; font-size:13px;">x</tspan><tspan x="59.097" y="0" class="st5" style="font-family:'Montserrat-Regular'; font-size:13px;">t</tspan><tspan x="64.128" y="0" class="st5" style="font-family:'Montserrat-Regular'; font-size:13px;">b</tspan><tspan x="72.942" y="0" class="st5" style="font-family:'Montserrat-Regular'; font-size:13px;">o</tspan><tspan x="80.742" y="0" class="st5" style="font-family:'Montserrat-Regular'; font-size:13px;">x </tspan></text>
<path class="st14" d="M312.407-51.477c3.707,0,6.713-3.005,6.713-6.712c0-3.708-3.006-6.713-6.713-6.713s-6.712,3.005-6.712,6.713
	C305.695-54.482,308.7-51.477,312.407-51.477z"/>
<rect x="189.907" y="-99.436" class="st9" width="245" height="57.75"/>
<line class="st15" x1="312.407" y1="-61.724" x2="312.407" y2="-54.655"/>
<line class="st15" x1="308.873" y1="-58.158" x2="315.941" y2="-58.158"/>
<path class="st14" d="M201.446-11.642c3.707,0,6.713-3.005,6.713-6.712c0-3.708-3.006-6.713-6.713-6.713s-6.712,3.005-6.712,6.713
	C194.734-14.647,197.739-11.642,201.446-11.642z"/>
<line class="st15" x1="201.446" y1="-21.889" x2="201.446" y2="-14.82"/>
<line class="st15" x1="197.912" y1="-18.323" x2="204.98" y2="-18.323"/>
<g>
	<path class="st16" d="M-294.447,3.493h-3.138v-1.85h8.544v1.85h-3.138v7.956h-2.269V3.493z"/>
	<path class="st16" d="M-287.826,1.644h2.269v9.806h-2.269V1.644z"/>
	<path class="st16" d="M-274.732,5.202c0,2.185-1.639,3.544-4.258,3.544h-1.975v2.703h-2.269V1.644h4.244
		C-276.371,1.644-274.732,3.003-274.732,5.202z M-277.029,5.202c0-1.079-0.701-1.709-2.087-1.709h-1.849v3.403h1.849
		C-277.729,6.896-277.029,6.267-277.029,5.202z"/>
	<path class="st16" d="M-264.61,5.202c0,2.185-1.639,3.544-4.258,3.544h-1.975v2.703h-2.269V1.644h4.244
		C-266.248,1.644-264.61,3.003-264.61,5.202z M-266.907,5.202c0-1.079-0.701-1.709-2.087-1.709h-1.849v3.403h1.849
		C-267.607,6.896-266.907,6.267-266.907,5.202z"/>
</g>
<path class="st16" d="M-331.074-2.828L-331.074-2.828c-1.054,2.474-1.96,4.602-2.889,6.784h5.729
	C-329.178,1.7-330.06-0.408-331.074-2.828 M-327.581,14.762L-327.581,14.762c-0.346-1.15-0.211-1.759,1.044-1.8
	c0.976-0.033,1.343-0.74,1.02-1.64c-0.507-1.414-1.072-2.81-1.681-4.183c-0.109-0.245-0.55-0.478-0.843-0.484
	c-2.129-0.041-4.261-0.046-6.39,0.005c-0.305,0.008-0.741,0.315-0.877,0.599c-0.558,1.155-1.057,2.342-1.512,3.542
	c-0.57,1.504-0.268,2.026,1.348,2.192c0.783,0.081,1.206,0.319,1.022,1.126c-0.056,0.243-0.355,0.61-0.547,0.613
	c-2.524,0.042-5.049,0.028-7.596,0.028c-0.214-0.956-0.321-1.631,0.868-1.885c0.569-0.122,1.219-0.609,1.515-1.117
	c0.755-1.293,1.377-2.67,1.972-4.049c2.401-5.559,4.761-11.135,7.172-16.689c0.173-0.398,0.634-0.67,0.96-1
	c0.319,0.343,0.766,0.632,0.937,1.037c2.56,6.048,5.079,12.114,7.622,18.17c0.326,0.776,0.705,1.534,1.106,2.275
	c0.507,0.939,1.332,1.389,2.379,1.595c0.265,0.052,0.519,0.638,0.586,1.013c0.032,0.175-0.39,0.621-0.611,0.624
	C-321.239,14.775-324.392,14.762-327.581,14.762"/>
<path class="st5" d="M-233.836,7.224c2.682-0.014,4.762-2.036,4.751-4.621c-0.01-2.367-2.203-4.406-4.733-4.399
	c-2.703,0.008-4.848,2.038-4.825,4.568C-238.62,5.236-236.46,7.237-233.836,7.224 M-228.281,7.237L-228.281,7.237
	c0.393-0.231,0.569-0.207,0.91,0.115c1.249,1.181,2.501,2.361,3.751,3.541c0.086,0.08,0.173,0.159,0.252,0.246
	c0.216,0.237,0.217,0.464-0.012,0.692c-0.249,0.248-0.509,0.488-0.767,0.727c-0.302,0.28-0.548,0.287-0.855,0
	c-1.177-1.103-2.348-2.211-3.522-3.318c-0.132-0.124-0.263-0.25-0.396-0.373c-0.368-0.34-0.394-0.487-0.153-0.896
	c-0.368-0.336-0.737-0.673-1.128-1.029c-1.472,1.07-3.153,1.471-5.011,1.06c-1.415-0.313-2.544-1.054-3.377-2.178
	c-1.65-2.23-1.286-5.335,0.823-7.11c2.222-1.87,5.521-1.904,7.68-0.117c2.217,1.835,2.765,5.106,0.696,7.583
	C-229.02,6.533-228.651,6.884-228.281,7.237"/>
<path class="st17" d="M-233.836,7.224c2.682-0.014,4.762-2.036,4.751-4.621c-0.01-2.367-2.203-4.406-4.733-4.399
	c-2.703,0.008-4.848,2.038-4.825,4.568C-238.62,5.236-236.46,7.237-233.836,7.224z M-228.281,7.237L-228.281,7.237
	c0.393-0.231,0.569-0.207,0.91,0.115c1.249,1.181,2.501,2.361,3.751,3.541c0.086,0.08,0.173,0.159,0.252,0.246
	c0.216,0.237,0.217,0.464-0.012,0.692c-0.249,0.248-0.509,0.488-0.767,0.727c-0.302,0.28-0.548,0.287-0.855,0
	c-1.177-1.103-2.348-2.211-3.522-3.318c-0.132-0.124-0.263-0.25-0.396-0.373c-0.368-0.34-0.394-0.487-0.153-0.896
	c-0.368-0.336-0.737-0.673-1.128-1.029c-1.472,1.07-3.153,1.471-5.011,1.06c-1.415-0.313-2.544-1.054-3.377-2.178
	c-1.65-2.23-1.286-5.335,0.823-7.11c2.222-1.87,5.521-1.904,7.68-0.117c2.217,1.835,2.765,5.106,0.696,7.583
	C-229.02,6.533-228.651,6.884-228.281,7.237z"/>
<path class="st5" d="M-170.122-2.356l2.966,2.98v-2.758c0-0.096-0.055-0.229-0.123-0.297l-3.807-3.826
	c-0.068-0.067-0.178-0.067-0.245,0l-3.93,3.949V0.45c0,0.096,0.055,0.119,0.122,0.051l2.844-2.857
	c0.068-0.068,0.122-0.046,0.122,0.05v7.829h0v2.168c0,0.096-0.055,0.118-0.123,0.05l-2.966-2.98v2.758
	c0,0.096,0.055,0.229,0.123,0.297l3.807,3.826c0.068,0.067,0.178,0.067,0.245,0l3.93-3.949V4.935c0-0.096-0.055-0.119-0.122-0.051
	l-2.844,2.857c-0.068,0.068-0.122,0.046-0.122-0.05v-7.829h0v-2.168C-170.245-2.402-170.19-2.424-170.122-2.356z"/>
<line class="st18" x1="-206.261" y1="10.88" x2="-178.428" y2="10.88"/>
<line class="st18" x1="-206.261" y1="2.584" x2="-178.428" y2="2.584"/>
<line class="st18" x1="-206.261" y1="-5.408" x2="-178.428" y2="-5.408"/>
<line class="st18" x1="-191.919" y1="29.851" x2="-191.919" y2="50.851"/>
<path class="st5" d="M-184.459,43.694L-184.459,43.694h2.695l-2.603-2.569c-0.138-0.135-0.093-0.245,0.101-0.245h7.006v-1.407
	c0-0.193-0.157-0.35-0.35-0.35h-6.656c-0.194,0-0.239-0.11-0.101-0.246l2.603-2.569h-2.345c-0.193,0-0.462,0.111-0.599,0.246
	l-3.245,3.201c-0.137,0.136-0.137,0.356,0,0.492L-184.459,43.694z"/>
<path class="st5" d="M-200.229,36.483L-200.229,36.483h-2.695l2.603,2.569c0.138,0.135,0.093,0.245-0.101,0.245h-7.006v1.407
	c0,0.193,0.157,0.35,0.35,0.35h6.656c0.194,0,0.239,0.11,0.101,0.246l-2.603,2.569h2.345c0.193,0,0.462-0.111,0.599-0.246
	l3.245-3.201c0.137-0.136,0.137-0.356,0-0.492L-200.229,36.483z"/>
<line class="st19" x1="124.367" y1="-89.262" x2="88.344" y2="-89.262"/>
<path class="st20" d="M115.864-86.116c2.045,0,3.703-1.658,3.703-3.703c0-2.045-1.658-3.703-3.703-3.703
	c-2.045,0-3.703,1.658-3.703,3.703C112.161-87.774,113.819-86.116,115.864-86.116"/>
<g>
	<path class="st5" d="M139.063-89.06c0,3.12-1.82,4.836-4.459,4.836c-0.91,0-1.781-0.195-2.392-0.585l0.624-1.274
		c0.494,0.325,1.092,0.442,1.729,0.442c1.716,0,2.795-1.066,2.795-3.133v-0.014c-0.546,0.638-1.417,0.949-2.431,0.949
		c-1.794,0-3.133-1.092-3.133-2.795c0-1.807,1.469-2.951,3.328-2.951C137.607-93.585,139.063-91.985,139.063-89.06z M137.1-90.725
		c0-0.858-0.676-1.534-1.885-1.534c-1.053,0-1.781,0.598-1.781,1.547s0.715,1.547,1.82,1.547
		C136.346-89.165,137.1-89.828,137.1-90.725z"/>
	<path class="st5" d="M146.928-87.149c0,1.599-1.157,2.925-3.602,2.925c-1.287,0-2.587-0.39-3.419-1.053l0.715-1.313
		c0.663,0.546,1.651,0.897,2.678,0.897c1.209,0,1.924-0.533,1.924-1.392c0-0.871-0.559-1.417-2.444-1.417h-2.197l0.468-4.953h5.343
		v1.417h-3.913l-0.195,2.106h0.871C145.849-89.932,146.928-88.762,146.928-87.149z"/>
	<path class="st5" d="M151.348-91.05c0-1.495,0.871-2.496,2.171-2.496s2.184,0.988,2.184,2.496s-0.884,2.496-2.184,2.496
		S151.348-89.555,151.348-91.05z M154.637-91.05c0-1.014-0.416-1.586-1.118-1.586c-0.676,0-1.118,0.585-1.118,1.586
		s0.442,1.586,1.118,1.586C154.221-89.464,154.637-90.036,154.637-91.05z M158.979-93.455h1.274l-6.214,9.101h-1.274L158.979-93.455
		z M157.315-86.76c0-1.495,0.871-2.496,2.171-2.496c1.3,0,2.184,1.001,2.184,2.496s-0.884,2.496-2.184,2.496
		C158.186-84.264,157.315-85.265,157.315-86.76z M160.604-86.76c0-1.001-0.429-1.586-1.118-1.586s-1.118,0.572-1.118,1.586
		c0,1.015,0.429,1.586,1.118,1.586S160.604-85.759,160.604-86.76z"/>
</g>
<rect x="102.304" y="-35.118" class="st11" width="13.149" height="16.764"/>
<polygon class="st21" points="102.304,-18.355 102.304,-18.355 115.453,-18.355 115.453,-35.119 102.304,-35.119 "/>
<rect x="94.632" y="-35.589" class="st9" width="21.291" height="24"/>
<line class="st22" x1="99.13" y1="-27.423" x2="99.13" y2="-17.036"/>
<line class="st23" x1="101.761" y1="-15.147" x2="111.41" y2="-15.147"/>
<path class="st21" d="M112.287-15.147h0.877 M99.13-16.091v0.944h0.877 M99.13-30.256v0.944"/>
<polyline class="st21" points="95.103,-27.168 95.103,-12.06 109.137,-12.06 "/>
<rect x="94.632" y="-35.589" class="st9" width="21.291" height="24"/>
<rect x="133.878" y="-35.187" class="st11" width="14.674" height="18.705"/>
<polygon class="st24" points="133.878,-16.483 133.878,-16.483 148.551,-16.483 148.551,-35.188 133.878,-35.188 "/>
<rect x="133.476" y="-35.589" class="st9" width="19.884" height="24"/>
<rect x="138.285" y="-30.696" class="st5" width="14.674" height="18.705"/>
<polygon class="st25" points="138.285,-11.991 138.285,-11.991 152.958,-11.991 152.958,-30.696 138.285,-30.696 "/>
<rect x="133.476" y="-35.589" class="st9" width="19.884" height="24"/>
<rect x="34.985" y="-31.64" class="st10" width="34.924" height="19.551"/>
<g>
	<path class="st11" d="M49.227-20.122h-5.72c0.104,1.43,1.196,2.379,2.691,2.379c0.832,0,1.573-0.299,2.093-0.897l0.52,0.599
		c-0.611,0.728-1.56,1.118-2.639,1.118c-2.132,0-3.588-1.456-3.588-3.484s1.417-3.472,3.341-3.472c1.924,0,3.315,1.417,3.315,3.472
		C49.24-20.33,49.227-20.227,49.227-20.122z M43.506-20.812h4.849c-0.117-1.339-1.092-2.275-2.431-2.275
		C44.599-23.087,43.624-22.15,43.506-20.812z"/>
	<path class="st11" d="M50.474-25.985c0-0.352,0.299-0.65,0.676-0.65s0.676,0.286,0.676,0.637c0,0.378-0.286,0.677-0.676,0.677
		C50.773-25.322,50.474-25.621,50.474-25.985z M50.682-23.827h0.923v6.838h-0.923V-23.827z"/>
	<path class="st11" d="M59.9-20.954v3.965h-0.923v-3.874c0-1.443-0.754-2.185-2.054-2.185c-1.469,0-2.392,0.91-2.392,2.471v3.588
		h-0.923v-6.838h0.884v1.261c0.494-0.832,1.417-1.313,2.6-1.313C58.755-23.88,59.9-22.918,59.9-20.954z"/>
</g>
<polygon class="st6" points="-0.023,-31.765 -0.023,-11.765 -0.023,-11.515 0.227,-11.515 69.076,-11.515 69.326,-11.515 
	69.326,-11.765 69.326,-31.765 69.326,-32.015 69.076,-32.015 0.227,-32.015 -0.023,-32.015 "/>
<rect x="-0.273" y="-32.265" class="st9" width="70.183" height="21"/>
<line class="st26" x1="141.041" y1="57.874" x2="141.041" y2="82.134"/>
<path class="st5" d="M149.139,73.692L149.139,73.692h2.592l-2.494-2.46c-0.138-0.135-0.093-0.245,0.101-0.245h6.725v-1.339
	c0-0.193-0.157-0.35-0.35-0.35h-6.725l2.743-2.705h-2.242c-0.193,0-0.462,0.11-0.599,0.245l-3.102,3.059
	c-0.137,0.135-0.137,0.355,0,0.491L149.139,73.692z"/>
<line class="st26" x1="114.096" y1="81.967" x2="114.096" y2="57.707"/>
<path class="st5" d="M105.999,66.148L105.999,66.148h-2.592l2.494,2.46c0.138,0.135,0.093,0.245-0.101,0.245h-6.725v1.339
	c0,0.193,0.157,0.35,0.35,0.35h6.725l-2.743,2.705h2.242c0.193,0,0.462-0.11,0.599-0.245l3.102-3.059
	c0.137-0.135,0.137-0.355,0-0.491L105.999,66.148z"/>
<line class="st26" x1="-75.646" y1="65.745" x2="-51.386" y2="65.745"/>
<path class="st5" d="M-59.995,57.687L-59.995,57.687v-2.592l-2.46,2.494c-0.135,0.138-0.245,0.093-0.245-0.101v-6.725h-1.339
	c-0.193,0-0.35,0.157-0.35,0.35v6.725l-2.705-2.743v2.242c0,0.193,0.11,0.462,0.245,0.599l3.059,3.102
	c0.135,0.137,0.355,0.137,0.491,0L-59.995,57.687z"/>
<path class="st5" d="M-66.927,72.839L-66.927,72.839v2.592l2.46-2.494c0.135-0.138,0.245-0.093,0.245,0.101v6.725h1.339
	c0.193,0,0.35-0.157,0.35-0.35v-6.725l2.705,2.743v-2.242c0-0.193-0.11-0.462-0.245-0.599l-3.059-3.102
	c-0.135-0.137-0.355-0.137-0.491,0L-66.927,72.839z"/>
<line class="st26" x1="-19.2" y1="78.556" x2="-19.2" y2="54.296"/>
<path class="st5" d="M-27.257,62.905L-27.257,62.905h-2.592l2.494,2.46c0.138,0.135,0.093,0.245-0.101,0.245h-6.725v1.339
	c0,0.193,0.157,0.35,0.35,0.35h6.725l-2.743,2.705h2.242c0.193,0,0.462-0.11,0.599-0.245l3.102-3.059
	c0.137-0.135,0.137-0.355,0-0.491L-27.257,62.905z"/>
<path class="st5" d="M-12.105,69.837L-12.105,69.837h2.592l-2.494-2.46c-0.138-0.135-0.093-0.245,0.101-0.245h6.725v-1.339
	c0-0.193-0.157-0.35-0.35-0.35h-6.725l2.743-2.705h-2.242c-0.193,0-0.462,0.11-0.599,0.245l-3.102,3.059
	c-0.137,0.135-0.137,0.355,0,0.491L-12.105,69.837z"/>
<line class="st26" x1="12.942" y1="66.028" x2="37.202" y2="66.028"/>
<path class="st5" d="M21.661,73.123L21.661,73.123v2.592l2.46-2.494c0.135-0.138,0.245-0.093,0.245,0.101v6.725h1.339
	c0.193,0,0.35-0.157,0.35-0.35v-6.725l2.705,2.743v-2.242c0-0.193-0.11-0.462-0.245-0.599l-3.059-3.102
	c-0.135-0.137-0.355-0.137-0.491,0L21.661,73.123z"/>
<line class="st26" x1="58.053" y1="77.284" x2="82.313" y2="77.284"/>
<path class="st5" d="M73.872,68.895L73.872,68.895v-2.592l-2.46,2.494c-0.135,0.138-0.245,0.093-0.245-0.101v-6.725h-1.339
	c-0.193,0-0.35,0.157-0.35,0.35v6.725l-2.705-2.743v2.242c0,0.193,0.11,0.462,0.245,0.599l3.059,3.102
	c0.135,0.137,0.355,0.137,0.491,0L73.872,68.895z"/>
<rect x="203.917" y="50.358" class="st11" width="15.769" height="20.056"/>
<line class="st27" x1="206.874" y1="70.414" x2="217.715" y2="70.414"/>
<line class="st28" x1="219.686" y1="67.405" x2="219.686" y2="52.363"/>
<line class="st27" x1="216.729" y1="50.358" x2="205.888" y2="50.358"/>
<line class="st28" x1="203.917" y1="53.366" x2="203.917" y2="68.408"/>
<path class="st21" d="M203.916,69.411v1.003h0.986 M204.902,50.358h-0.986v1.003 M219.685,51.361v-1.003H218.7 M218.7,70.414h0.985
	v-1.003"/>
<polygon class="st11" points="192.681,80.414 192.681,80.414 208.45,80.414 208.45,60.358 192.681,60.358 "/>
<line class="st27" x1="195.638" y1="80.414" x2="206.479" y2="80.414"/>
<line class="st28" x1="208.45" y1="77.405" x2="208.45" y2="62.363"/>
<line class="st27" x1="205.493" y1="60.358" x2="194.652" y2="60.358"/>
<line class="st28" x1="192.681" y1="63.366" x2="192.681" y2="78.408"/>
<path class="st21" d="M192.68,79.411v1.003h0.986 M193.666,60.358h-0.986v1.003 M208.449,61.361v-1.003h-0.985 M207.464,80.414
	h0.985v-1.003"/>
<polygon class="st11" points="183.207,88.414 183.207,88.414 198.976,88.414 198.976,68.358 183.207,68.358 "/>
<polygon class="st21" points="183.207,88.414 183.207,88.414 198.976,88.414 198.976,68.358 183.207,68.358 "/>
<g>
	<polygon class="st11" points="257.043,74.719 257.043,74.719 272.812,74.719 272.812,54.663 257.043,54.663 	"/>
	<polygon class="st21" points="257.043,74.719 257.043,74.719 272.812,74.719 272.812,54.663 257.043,54.663 	"/>
	<line class="st29" x1="253.279" y1="63.218" x2="253.279" y2="76.722"/>
	<line class="st30" x1="256.416" y1="78.523" x2="267.919" y2="78.523"/>
	<path class="st21" d="M268.964,78.522h1.046 M253.279,77.622v0.9h1.046 M253.279,60.517v0.9"/>
</g>
<g>
	<g>
		<rect x="329.583" y="42.943" class="st11" width="15.769" height="20.056"/>
		<polygon class="st21" points="329.583,62.999 329.583,62.999 345.352,62.999 345.352,42.943 329.583,42.943 		"/>
		<polygon class="st11" points="318.347,72.999 318.347,72.999 334.116,72.999 334.116,52.943 318.347,52.943 		"/>
		<line class="st27" x1="321.304" y1="72.999" x2="332.145" y2="72.999"/>
		<line class="st28" x1="334.116" y1="69.991" x2="334.116" y2="54.949"/>
		<line class="st27" x1="331.159" y1="52.943" x2="320.318" y2="52.943"/>
		<line class="st28" x1="318.347" y1="55.951" x2="318.347" y2="70.993"/>
		<path class="st21" d="M318.346,71.996v1.003h0.986 M319.332,52.943h-0.986v1.003 M334.115,53.946v-1.003h-0.985 M333.13,72.999
			h0.985v-1.003"/>
		<polygon class="st11" points="308.873,80.999 308.873,80.999 324.642,80.999 324.642,60.943 308.873,60.943 		"/>
		<line class="st27" x1="311.83" y1="80.999" x2="322.671" y2="80.999"/>
		<line class="st28" x1="324.642" y1="77.991" x2="324.642" y2="62.949"/>
		<line class="st27" x1="321.686" y1="60.943" x2="310.845" y2="60.943"/>
		<line class="st28" x1="308.873" y1="63.951" x2="308.873" y2="78.993"/>
		<path class="st21" d="M308.873,79.996v1.003h0.986 M309.859,60.943h-0.986v1.003 M324.642,61.946v-1.003h-0.985 M323.657,80.999
			h0.985v-1.003"/>
	</g>
	<line class="st27" x1="384.997" y1="76.484" x2="395.838" y2="76.484"/>
	<line class="st28" x1="397.809" y1="73.476" x2="397.809" y2="58.434"/>
	<line class="st27" x1="394.852" y1="56.428" x2="384.011" y2="56.428"/>
	<line class="st28" x1="382.04" y1="59.437" x2="382.04" y2="74.479"/>
	<path class="st21" d="M382.039,75.481v1.003h0.986 M383.025,56.428h-0.986v1.003 M397.808,57.431v-1.003h-0.985 M396.823,76.484
		h0.985v-1.003"/>
	<polyline class="st21" points="378.275,62.282 378.275,80.287 395.006,80.287 	"/>
</g>
<g>
	<defs>
		<rect id="SVGID_1_" x="-376.999" y="170.32" width="241.682" height="1"/>
	</defs>
	<clipPath id="SVGID_00000062161629944014195070000010648876243531186877_">
		<use xlink:href="#SVGID_1_"  style="overflow:visible;"/>
	</clipPath>
	
		<line style="clip-path:url(#SVGID_00000062161629944014195070000010648876243531186877_);fill:none;stroke:#B2B2B2;stroke-linecap:round;stroke-linejoin:round;stroke-dasharray:0,3.009;" x1="-373.491" y1="170.82" x2="-137.321" y2="170.82"/>
	
		<path style="clip-path:url(#SVGID_00000062161629944014195070000010648876243531186877_);fill:none;stroke:#B2B2B2;stroke-linecap:round;stroke-linejoin:round;" d="
		M-135.817,170.82L-135.817,170.82 M-376.499,170.82L-376.499,170.82"/>
</g>
<circle class="st33" cx="-330.101" cy="-50.391" r="12.75"/>
<polygon class="st3" points="-186.708,-65.414 -199.708,-65.414 -193.34,-54.939 "/>
<polygon class="st5" points="-178.685,63.127 -189.16,69.495 -178.685,76.127 "/>
<polygon class="st5" points="-207.732,76.127 -197.257,69.759 -207.732,63.127 "/>
<polygon class="st5" points="-125.178,63.127 -135.654,69.495 -125.178,76.127 "/>
<polygon class="st5" points="-160.355,76.127 -149.88,69.759 -160.355,63.127 "/>
<rect x="-0.106" y="-65.403" class="st10" width="34.924" height="19.551"/>
<polygon class="st6" points="0.144,-65.528 0.144,-45.528 0.144,-45.278 0.394,-45.278 69.243,-45.278 69.493,-45.278 
	69.493,-45.528 69.493,-65.528 69.493,-65.778 69.243,-65.778 0.394,-65.778 0.144,-65.778 "/>
<rect x="-0.106" y="-66.028" class="st9" width="69.849" height="21"/>
<rect x="35.258" y="0.625" class="st10" width="34.924" height="19.551"/>
<polygon class="st6" points="0.25,0.5 0.25,20.5 0.25,20.75 0.5,20.75 69.349,20.75 69.599,20.75 69.599,20.5 69.599,0.5 
	69.599,0.25 69.349,0.25 0.5,0.25 0.25,0.25 "/>
<rect x="0" class="st9" width="70.183" height="21"/>
<line class="st19" x1="123.289" y1="-69.474" x2="87.266" y2="-69.474"/>
<path class="st20" d="M114.786-66.328c2.045,0,3.703-1.658,3.703-3.703s-1.658-3.703-3.703-3.703s-3.703,1.658-3.703,3.703
	S112.741-66.328,114.786-66.328"/>
<line class="st19" x1="431.614" y1="-38.695" x2="395.591" y2="-38.695"/>
<path class="st20" d="M423.111-35.548c2.045,0,3.703-1.658,3.703-3.703c0-2.045-1.658-3.703-3.703-3.703s-3.703,1.658-3.703,3.703
	C419.408-37.206,421.066-35.548,423.111-35.548"/>
</svg>
