<?xml version="1.0" encoding="utf-8"?>
<!-- Generator: Adobe Illustrator 26.0.3, SVG Export Plug-In . SVG Version: 6.00 Build 0)  -->
<svg version="1.1" id="Ebene_1" xmlns="http://www.w3.org/2000/svg" xmlns:xlink="http://www.w3.org/1999/xlink" x="0px" y="0px"
	 width="21.291px" height="24px" viewBox="0 0 21.291 24" style="enable-background:new 0 0 21.291 24;" xml:space="preserve">
<style type="text/css">
	.st0{fill:none;stroke:#C5C5C5;stroke-width:3;stroke-linecap:round;stroke-linejoin:round;}
	.st1{fill:#FFAEFF;stroke:#4F4D4D;stroke-width:0.5;}
	.st2{fill:#F8F8F8;}
	.st3{fill:#0E689A;}
	.st4{fill:none;stroke:#B2B1B1;stroke-width:0.65;stroke-miterlimit:10;}
	.st5{fill:#B2B1B1;}
	.st6{fill:none;stroke:#B2B2B2;stroke-width:0.5;stroke-miterlimit:10;}
	.st7{fill:none;stroke:#B2B1B1;stroke-width:0.3;stroke-miterlimit:10;}
	.st8{fill:none;stroke:#FFFFFF;stroke-width:0.021;}
	.st9{fill:none;}
	.st10{fill:#0E6899;}
	.st11{fill:#FFFFFF;}
	.st12{fill:none;stroke:#C5C5C5;stroke-width:0.5;stroke-linecap:round;stroke-linejoin:round;}
	.st13{fill:#C5C5C5;}
	.st14{fill:none;stroke:#B2B1B1;stroke-width:0.5;}
	.st15{fill:none;stroke:#B2B1B1;stroke-width:1.2;}
	.st16{fill:#B2B2B2;}
	.st17{fill:none;stroke:#FFFFFF;stroke-width:0.001;}
	.st18{fill:none;stroke:#B2B1B1;stroke-width:1.712;}
	.st19{fill:none;stroke:#B2B1B1;stroke-width:2;}
	.st20{fill:#AD5E7A;}
	.st21{fill:none;stroke:#B2B1B1;stroke-width:0.941;}
	.st22{fill:none;stroke:#B2B1B1;stroke-width:0.941;stroke-dasharray:1.889,1.889;}
	.st23{fill:none;stroke:#B2B1B1;stroke-width:0.941;stroke-dasharray:1.754,1.754;}
	.st24{fill:none;stroke:#B2B1B1;stroke-width:0.804;}
	.st25{fill:none;stroke:#FFFFFF;stroke-width:0.804;}
	.st26{fill:none;stroke:#B2B1B1;stroke-width:2.5;}
	.st27{fill:none;stroke:#B2B1B1;stroke-width:0.941;stroke-dasharray:1.971,1.971;}
	.st28{fill:none;stroke:#B2B1B1;stroke-width:0.941;stroke-dasharray:2.006,2.006;}
	.st29{fill:none;stroke:#B2B1B1;stroke-width:0.941;stroke-dasharray:1.801,1.801;}
	.st30{fill:none;stroke:#B2B1B1;stroke-width:0.941;stroke-dasharray:2.091,2.091;}
	
		.st31{clip-path:url(#SVGID_00000083793248345835498020000011678615547753456063_);fill:none;stroke:#B2B2B2;stroke-linecap:round;stroke-linejoin:round;stroke-dasharray:0,3.009;}
	
		.st32{clip-path:url(#SVGID_00000083793248345835498020000011678615547753456063_);fill:none;stroke:#B2B2B2;stroke-linecap:round;stroke-linejoin:round;}
	.st33{fill:none;stroke:#4F4D4D;stroke-width:0.5;}
</style>
<polyline class="st0" points="1567.16,911.854 1560.91,902.854 1554.16,911.854 "/>
<circle class="st1" cx="-424.733" cy="-50.894" r="12.75"/>
<rect x="-392.273" y="-61.909" class="st2" width="119.902" height="21"/>
<polygon class="st3" points="-281.443,-56.647 -294.443,-56.647 -288.075,-46.172 "/>
<g>
	<g>
		<line class="st4" x1="-168.431" y1="-44.389" x2="-158.148" y2="-44.389"/>
		<g>
			<path class="st5" d="M-167.144-49.614v-5.175h1.3v5.122c0,2.016,0.923,2.926,2.561,2.926c1.638,0,2.574-0.91,2.574-2.926v-5.122
				h1.261v5.175c0,2.639-1.443,4.029-3.848,4.029C-165.688-45.585-167.144-46.976-167.144-49.614z"/>
		</g>
	</g>
	<polygon class="st6" points="-176.54,-62.589 -176.54,-36.589 -176.54,-36.339 -176.29,-36.339 -150.29,-36.339 -150.04,-36.339 
		-150.04,-36.589 -150.04,-62.589 -150.04,-62.839 -150.29,-62.839 -176.29,-62.839 -176.54,-62.839 	"/>
</g>
<g>
	<g>
		<path class="st5" d="M-197.893-54.516h1.3l-1.82,9.101h-1.3L-197.893-54.516z"/>
	</g>
	<polygon class="st6" points="-211.404,-62.965 -211.404,-36.965 -211.404,-36.715 -211.154,-36.715 -185.154,-36.715 
		-184.904,-36.715 -184.904,-36.965 -184.904,-62.965 -184.904,-63.215 -185.154,-63.215 -211.154,-63.215 -211.404,-63.215 	"/>
</g>
<g>
	<g>
		<path class="st5" d="M-231.042-47.847c0,1.573-1.248,2.483-3.64,2.483h-4.706v-9.101h4.446c2.275,0,3.445,0.949,3.445,2.366
			c0,0.91-0.468,1.612-1.209,2.002C-231.692-49.77-231.042-48.99-231.042-47.847z M-237.295-52.878v2.146h2.093
			c1.027,0,1.586-0.364,1.586-1.079s-0.559-1.066-1.586-1.066H-237.295z M-233.161-48.067c0-0.767-0.585-1.131-1.677-1.131h-2.457
			v2.249h2.457C-233.746-46.949-233.161-47.287-233.161-48.067z"/>
	</g>
	<polygon class="st6" points="-248.465,-62.914 -248.465,-36.914 -248.465,-36.664 -248.215,-36.664 -222.215,-36.664 
		-221.965,-36.664 -221.965,-36.914 -221.965,-62.914 -221.965,-63.164 -222.215,-63.164 -248.215,-63.164 -248.465,-63.164 	"/>
</g>
<path class="st7" d="M-194.277-20.96"/>
<path class="st7" d="M-196.785-19.706"/>
<path class="st7" d="M-196.785-18.452"/>
<path class="st7" d="M-196.785-17.198"/>
<path class="st7" d="M-194.277-15.944"/>
<path class="st7" d="M-194.277-14.69"/>
<path class="st7" d="M-196.785-13.436"/>
<path class="st7" d="M-196.785-10.928"/>
<path class="st7" d="M-194.277-8.42"/>
<g>
	<path class="st7" d="M-213.741-15.944"/>
	<path class="st7" d="M-213.741-20.96"/>
	<path class="st7" d="M-213.741-8.42"/>
	<path class="st7" d="M-213.741-14.69"/>
	<g>
		<path class="st7" d="M-211.679-13.436"/>
		<path class="st7" d="M-211.679-17.198"/>
		<path class="st7" d="M-211.679-18.452"/>
		<path class="st7" d="M-211.679-19.706"/>
		<line class="st7" x1="-214.117" y1="-9.215" x2="-194.653" y2="-9.215"/>
		<line class="st7" x1="-214.117" y1="-10.491" x2="-199.223" y2="-10.491"/>
		<line class="st7" x1="-214.117" y1="-11.767" x2="-199.223" y2="-11.767"/>
		<line class="st7" x1="-214.117" y1="-13.043" x2="-199.223" y2="-13.043"/>
		<line class="st7" x1="-214.117" y1="-14.319" x2="-194.653" y2="-14.319"/>
		<line class="st7" x1="-214.117" y1="-15.595" x2="-194.653" y2="-15.595"/>
		<line class="st7" x1="-214.044" y1="-16.871" x2="-199.15" y2="-16.871"/>
		<line class="st7" x1="-214.117" y1="-18.146" x2="-194.653" y2="-18.146"/>
		<line class="st7" x1="-214.117" y1="-19.422" x2="-199.223" y2="-19.422"/>
		<line class="st7" x1="-214.117" y1="-20.699" x2="-199.223" y2="-20.699"/>
		<line class="st7" x1="-214.117" y1="-21.974" x2="-194.653" y2="-21.974"/>
	</g>
	<polygon class="st6" points="-217.444,-28.269 -217.444,-2.276 -217.444,-2.026 -217.194,-2.026 -191.201,-2.026 -190.951,-2.026 
		-190.951,-2.276 -190.951,-28.269 -190.951,-28.519 -191.201,-28.519 -217.194,-28.519 -217.444,-28.519 	"/>
</g>
<g>
	<g>
		<line class="st7" x1="-163.397" y1="-21.657" x2="-182.861" y2="-21.657"/>
		<line class="st7" x1="-165.905" y1="-20.381" x2="-180.799" y2="-20.381"/>
		<line class="st7" x1="-165.905" y1="-19.104" x2="-180.799" y2="-19.104"/>
		<line class="st7" x1="-165.905" y1="-17.826" x2="-180.799" y2="-17.826"/>
		<line class="st7" x1="-163.397" y1="-16.55" x2="-182.861" y2="-16.55"/>
		<line class="st7" x1="-163.397" y1="-15.273" x2="-182.861" y2="-15.273"/>
		<line class="st7" x1="-165.905" y1="-13.995" x2="-180.799" y2="-13.995"/>
		<line class="st7" x1="-163.397" y1="-12.718" x2="-182.861" y2="-12.718"/>
		<line class="st7" x1="-165.905" y1="-11.441" x2="-180.799" y2="-11.441"/>
		<line class="st7" x1="-165.905" y1="-10.164" x2="-180.799" y2="-10.164"/>
		<line class="st7" x1="-163.397" y1="-8.887" x2="-182.861" y2="-8.887"/>
	</g>
	<polygon class="st6" points="-186.375,-28.269 -186.375,-2.276 -186.375,-2.026 -186.125,-2.026 -160.132,-2.026 -159.882,-2.026 
		-159.882,-2.276 -159.882,-28.269 -159.882,-28.519 -160.132,-28.519 -186.125,-28.519 -186.375,-28.519 	"/>
</g>
<polygon class="st6" points="-155.307,-28.269 -155.307,-2.276 -155.307,-2.026 -155.057,-2.026 -129.064,-2.026 -128.814,-2.026 
	-128.814,-2.276 -128.814,-28.269 -128.814,-28.519 -129.064,-28.519 -155.057,-28.519 -155.307,-28.519 "/>
<path class="st7" d="M-151.98-9.585"/>
<path class="st7" d="M-151.98-14.601"/>
<path class="st7" d="M-151.98-15.855"/>
<path class="st7" d="M-151.98-22.124"/>
<path class="st7" d="M-134.577-17.109"/>
<path class="st7" d="M-132.515-14.601"/>
<path class="st7" d="M-134.577-13.347"/>
<path class="st7" d="M-132.515-9.585"/>
<path class="st7" d="M-132.515-22.124"/>
<path class="st7" d="M-132.515-15.855"/>
<path class="st7" d="M-134.577-12.093"/>
<path class="st7" d="M-134.577-10.839"/>
<g>
	<path class="st7" d="M-149.66-11.161"/>
	<path class="st7" d="M-149.66-12.415"/>
	<path class="st7" d="M-149.66-13.669"/>
	<path class="st7" d="M-149.66-17.431"/>
	<path class="st7" d="M-149.66-19.939"/>
	<line class="st7" x1="-132.328" y1="-21.652" x2="-151.792" y2="-21.652"/>
	<line class="st7" x1="-132.328" y1="-20.377" x2="-147.222" y2="-20.377"/>
	<line class="st7" x1="-132.328" y1="-19.101" x2="-147.222" y2="-19.101"/>
	<line class="st7" x1="-132.328" y1="-17.824" x2="-147.222" y2="-17.824"/>
	<line class="st7" x1="-132.328" y1="-16.548" x2="-151.792" y2="-16.548"/>
	<line class="st7" x1="-132.328" y1="-15.273" x2="-151.792" y2="-15.273"/>
	<line class="st7" x1="-132.401" y1="-13.997" x2="-147.295" y2="-13.997"/>
	<line class="st7" x1="-132.328" y1="-12.721" x2="-151.792" y2="-12.721"/>
	<line class="st7" x1="-132.328" y1="-11.445" x2="-147.222" y2="-11.445"/>
	<line class="st7" x1="-132.328" y1="-10.168" x2="-147.222" y2="-10.168"/>
	<line class="st7" x1="-132.328" y1="-8.893" x2="-151.792" y2="-8.893"/>
</g>
<polygon class="st6" points="-248.215,-28.262 -248.215,-2.269 -248.215,-2.019 -247.965,-2.019 -221.972,-2.019 -221.722,-2.019 
	-221.722,-2.269 -221.722,-28.262 -221.722,-28.512 -221.972,-28.512 -247.965,-28.512 -248.215,-28.512 "/>
<path class="st7" d="M-225.048-20.96"/>
<path class="st7" d="M-225.048-15.944"/>
<path class="st7" d="M-225.048-14.69"/>
<path class="st7" d="M-225.048-8.42"/>
<path class="st7" d="M-242.45-13.436"/>
<path class="st7" d="M-244.513-15.944"/>
<path class="st7" d="M-242.45-17.198"/>
<path class="st7" d="M-244.513-20.96"/>
<path class="st7" d="M-244.513-8.42"/>
<path class="st7" d="M-244.513-14.69"/>
<path class="st7" d="M-242.45-18.452"/>
<path class="st7" d="M-242.45-19.706"/>
<g>
	<path class="st7" d="M-227.556-19.706"/>
	<path class="st7" d="M-227.556-18.452"/>
	<path class="st7" d="M-227.556-17.198"/>
	<path class="st7" d="M-227.556-13.436"/>
	<path class="st7" d="M-227.556-10.928"/>
	<line class="st7" x1="-244.888" y1="-9.215" x2="-225.424" y2="-9.215"/>
	<line class="st7" x1="-244.888" y1="-10.491" x2="-225.424" y2="-10.491"/>
	<line class="st7" x1="-244.888" y1="-11.767" x2="-225.424" y2="-11.767"/>
	<line class="st7" x1="-244.888" y1="-13.043" x2="-225.424" y2="-13.043"/>
	<line class="st7" x1="-244.888" y1="-14.319" x2="-225.424" y2="-14.319"/>
	<line class="st7" x1="-244.888" y1="-15.595" x2="-225.424" y2="-15.595"/>
	<line class="st7" x1="-244.815" y1="-16.871" x2="-225.351" y2="-16.871"/>
	<line class="st7" x1="-244.888" y1="-18.146" x2="-225.424" y2="-18.146"/>
	<line class="st7" x1="-244.888" y1="-19.422" x2="-225.424" y2="-19.422"/>
	<line class="st7" x1="-244.888" y1="-20.699" x2="-225.424" y2="-20.699"/>
	<line class="st7" x1="-244.888" y1="-21.974" x2="-225.424" y2="-21.974"/>
</g>
<path class="st5" d="M-417.772,86.886l-1.915,13.335c-0.058,0.402-0.431,0.682-0.834,0.624c-0.402-0.058-0.682-0.431-0.624-0.833
	l1.915-13.336c0.058-0.402,0.431-0.681,0.834-0.623C-417.994,86.111-417.714,86.483-417.772,86.886 M-424.589,100.961
	c-0.407,0.003-0.74-0.324-0.742-0.73l-0.106-13.472c-0.003-0.407,0.324-0.739,0.73-0.742c0.408-0.003,0.74,0.324,0.743,0.731
	l0.105,13.471C-423.856,100.626-424.183,100.958-424.589,100.961 M-428.66,100.908c-0.401,0.064-0.779-0.209-0.842-0.61
	l-2.124-13.304c-0.064-0.402,0.209-0.779,0.612-0.843c0.401-0.064,0.778,0.209,0.842,0.611l2.123,13.303
	C-427.985,100.467-428.258,100.844-428.66,100.908 M-414.877,84.5c-0.141-0.169-0.353-0.266-0.573-0.264l-18.538,0.144
	c-0.22,0.002-0.429,0.101-0.568,0.272c-0.14,0.17-0.196,0.393-0.155,0.609l3.092,16.141c0.068,0.351,0.376,0.605,0.734,0.602
	l12.497-0.098c0.356-0.002,0.66-0.258,0.724-0.608l2.949-16.188C-414.675,84.894-414.736,84.669-414.877,84.5"/>
<path class="st8" d="M-417.772,86.886l-1.915,13.335c-0.058,0.402-0.431,0.682-0.834,0.624c-0.402-0.058-0.682-0.431-0.624-0.833
	l1.915-13.336c0.058-0.402,0.431-0.681,0.834-0.623C-417.994,86.111-417.714,86.483-417.772,86.886z M-424.589,100.961
	c-0.407,0.003-0.74-0.324-0.742-0.73l-0.106-13.472c-0.003-0.407,0.324-0.739,0.73-0.742c0.408-0.003,0.74,0.324,0.743,0.731
	l0.105,13.471C-423.856,100.626-424.183,100.958-424.589,100.961z M-428.66,100.908c-0.401,0.064-0.779-0.209-0.842-0.61
	l-2.124-13.304c-0.064-0.402,0.209-0.779,0.612-0.843c0.401-0.064,0.778,0.209,0.842,0.611l2.123,13.303
	C-427.985,100.467-428.258,100.844-428.66,100.908z M-414.877,84.5c-0.141-0.169-0.353-0.266-0.573-0.264l-18.538,0.144
	c-0.22,0.002-0.429,0.101-0.568,0.272c-0.14,0.17-0.196,0.393-0.155,0.609l3.092,16.141c0.068,0.351,0.376,0.605,0.734,0.602
	l12.497-0.098c0.356-0.002,0.66-0.258,0.724-0.608l2.949-16.188C-414.675,84.894-414.736,84.669-414.877,84.5z"/>
<path class="st5" d="M-427.564,79.893L-427.564,79.893l-0.004-0.421l5.49-0.043l0.004,0.421L-427.564,79.893z M-413.827,81.303
	L-413.827,81.303l-2.025,0.016l-0.009-1.171c-0.001-0.091-0.038-0.18-0.103-0.244s-0.155-0.1-0.246-0.1l-4.467,0.035l-0.009-1.12
	c-0.002-0.184-0.077-0.363-0.209-0.492c-0.131-0.13-0.311-0.203-0.495-0.201l-6.887,0.054c-0.183,0.001-0.363,0.077-0.492,0.208
	c-0.129,0.131-0.202,0.312-0.2,0.496l0.009,1.12l-4.164,0.032c-0.091,0.001-0.18,0.039-0.243,0.104
	c-0.065,0.065-0.101,0.154-0.101,0.246l0.009,1.171l-2.197,0.017l0.017,2.225l21.829-0.17L-413.827,81.303z"/>
<path class="st8" d="M-427.564,79.893L-427.564,79.893l-0.004-0.421l5.49-0.043l0.004,0.421L-427.564,79.893z M-413.827,81.303
	L-413.827,81.303l-2.025,0.016l-0.009-1.171c-0.001-0.091-0.038-0.18-0.103-0.244s-0.155-0.1-0.246-0.1l-4.467,0.035l-0.009-1.12
	c-0.002-0.184-0.077-0.363-0.209-0.492c-0.131-0.13-0.311-0.203-0.495-0.201l-6.887,0.054c-0.183,0.001-0.363,0.077-0.492,0.208
	c-0.129,0.131-0.202,0.312-0.2,0.496l0.009,1.12l-4.164,0.032c-0.091,0.001-0.18,0.039-0.243,0.104
	c-0.065,0.065-0.101,0.154-0.101,0.246l0.009,1.171l-2.197,0.017l0.017,2.225l21.829-0.17L-413.827,81.303z"/>
<rect x="-435.667" y="78.015" class="st9" width="21.868" height="24"/>
<rect x="-94.738" y="-62.753" class="st10" width="34.924" height="19.551"/>
<g>
	<path class="st11" d="M-81.761-52.34v4.238h-0.884v-1.066c-0.416,0.702-1.222,1.132-2.354,1.132c-1.547,0-2.496-0.807-2.496-1.989
		c0-1.054,0.676-1.938,2.639-1.938h2.171v-0.416c0-1.17-0.663-1.807-1.938-1.807c-0.884,0-1.716,0.312-2.275,0.806l-0.416-0.688
		c0.689-0.585,1.703-0.924,2.782-0.924C-82.762-54.992-81.761-54.107-81.761-52.34z M-82.683-50.155v-1.118h-2.146
		c-1.326,0-1.755,0.52-1.755,1.222c0,0.793,0.637,1.287,1.729,1.287C-83.815-48.765-83.048-49.259-82.683-50.155z"/>
	<path class="st11" d="M-73.661-54.939v6.838h-0.884v-1.248c-0.481,0.832-1.365,1.313-2.458,1.313c-1.742,0-2.886-0.976-2.886-2.938
		v-3.965h0.923v3.874c0,1.456,0.754,2.197,2.054,2.197c1.43,0,2.327-0.924,2.327-2.483v-3.588H-73.661z"/>
	<path class="st11" d="M-72.362-48.882l0.416-0.728c0.546,0.429,1.469,0.767,2.431,0.767c1.3,0,1.833-0.441,1.833-1.118
		c0-1.78-4.433-0.377-4.433-3.081c0-1.118,0.962-1.95,2.704-1.95c0.884,0,1.846,0.247,2.418,0.638l-0.403,0.74
		c-0.598-0.416-1.313-0.585-2.015-0.585c-1.235,0-1.781,0.481-1.781,1.132c0,1.846,4.434,0.455,4.434,3.081
		c0,1.183-1.04,1.95-2.821,1.95C-70.711-48.036-71.803-48.4-72.362-48.882z"/>
</g>
<polygon class="st6" points="-94.488,-62.878 -94.488,-42.878 -94.488,-42.628 -94.238,-42.628 -25.389,-42.628 -25.139,-42.628 
	-25.139,-42.878 -25.139,-62.878 -25.139,-63.128 -25.389,-63.128 -94.238,-63.128 -94.488,-63.128 "/>
<rect x="-94.738" y="-63.378" class="st9" width="69.849" height="21"/>
<rect x="-499.135" y="143.952" class="st11" width="1014" height="21"/>
<path class="st3" d="M128.026,143.952c-2.209,0-4,1.791-4,4v12.382c0,2.209,1.791,4,4,4h77.131c2.209,0,4-1.791,4-4v-12.382
	c0-2.209-1.791-4-4-4H128.026z"/>
<rect x="-498.885" y="144.202" class="st12" width="1013.5" height="20.5"/>
<path class="st13" d="M498.721,146.812v1.481c0,0.397,0.187,0.771,0.505,1.009l6.367,4.762c0.258,0.194,0.258,0.583,0,0.776
	l-6.367,4.762c-0.318,0.238-0.505,0.612-0.505,1.01v1.48c0,0.41,0.467,0.644,0.795,0.399l10.111-7.563
	c0.318-0.237,0.318-0.714,0-0.952l-10.11-7.562C499.188,146.168,498.721,146.403,498.721,146.812"/>
<path class="st13" d="M-483.282,162.092v-1.481c0-0.397-0.187-0.771-0.505-1.009l-6.367-4.762c-0.258-0.194-0.258-0.583,0-0.776
	l6.367-4.762c0.318-0.238,0.505-0.612,0.505-1.01v-1.48c0-0.41-0.467-0.644-0.795-0.399l-10.111,7.563
	c-0.318,0.237-0.318,0.714,0,0.952l10.11,7.562C-483.749,162.736-483.282,162.501-483.282,162.092"/>
<rect x="-499.135" y="143.952" class="st9" width="1014" height="21"/>
<rect x="556.638" y="-100.593" class="st11" width="21" height="702.123"/>
<path class="st3" d="M556.638,313.368c0,2.209,1.791,4,4,4h12.382c2.209,0,4-1.791,4-4v-78.286c0-2.209-1.791-4-4-4h-12.382
	c-2.209,0-4,1.791-4,4V313.368z"/>
<rect x="556.888" y="-100.344" class="st12" width="20.5" height="701.624"/>
<path class="st13" d="M559.497-87.058h1.481c0.397,0,0.771-0.19,1.009-0.512l4.762-6.453c0.194-0.262,0.583-0.262,0.776,0
	l4.762,6.453c0.238,0.322,0.612,0.512,1.01,0.512h1.48c0.41,0,0.644-0.474,0.399-0.806l-7.563-10.248
	c-0.237-0.322-0.714-0.322-0.952,0l-7.562,10.248C558.854-87.532,559.089-87.058,559.497-87.058"/>
<path class="st13" d="M574.777,587.194h-1.481c-0.397,0-0.771,0.19-1.009,0.512l-4.762,6.453c-0.194,0.262-0.583,0.262-0.776,0
	l-4.762-6.453c-0.238-0.322-0.612-0.512-1.01-0.512h-1.48c-0.41,0-0.644,0.474-0.399,0.806l7.563,10.248
	c0.237,0.322,0.714,0.322,0.952,0L575.175,588C575.422,587.668,575.186,587.194,574.777,587.194"/>
<rect x="556.638" y="-100.594" class="st9" width="21" height="702.124"/>
<g>
	<g>
		<line class="st7" x1="-164.337" y1="22.386" x2="-177.354" y2="22.386"/>
		<line class="st7" x1="-164.337" y1="12.21" x2="-177.354" y2="12.21"/>
		<line class="st7" x1="-164.337" y1="17.298" x2="-177.354" y2="17.298"/>
		<g>
			<path class="st5" d="M-180.996,10.74v2.104h-0.487V11.13h-0.421V10.74H-180.996z"/>
		</g>
		<g>
			<path class="st5" d="M-180.235,17.707v0.396h-1.59v-0.315l0.812-0.767c0.187-0.178,0.22-0.286,0.22-0.388
				c0-0.165-0.114-0.262-0.337-0.262c-0.18,0-0.333,0.069-0.436,0.21l-0.355-0.228c0.163-0.238,0.457-0.392,0.836-0.392
				c0.469,0,0.781,0.241,0.781,0.623c0,0.204-0.057,0.391-0.352,0.664l-0.484,0.457H-180.235z"/>
		</g>
		<g>
			<path class="st5" d="M-180.253,22.466c0,0.354-0.273,0.68-0.872,0.68c-0.295,0-0.599-0.081-0.803-0.226l0.189-0.373
				c0.159,0.121,0.382,0.189,0.601,0.189c0.244,0,0.394-0.099,0.394-0.271c0-0.159-0.117-0.258-0.394-0.258h-0.223v-0.322
				l0.433-0.49h-0.896v-0.391h1.473v0.316l-0.475,0.541C-180.446,21.922-180.253,22.156-180.253,22.466z"/>
		</g>
	</g>
	<polygon class="st6" points="-186.382,3.943 -186.382,29.943 -186.382,30.193 -186.132,30.193 -160.132,30.193 -159.882,30.193 
		-159.882,29.943 -159.882,3.943 -159.882,3.693 -160.132,3.693 -186.132,3.693 -186.382,3.693 	"/>
</g>
<polygon class="st6" points="-248.215,3.943 -248.215,29.943 -248.215,30.193 -247.965,30.193 -221.965,30.193 -221.715,30.193 
	-221.715,29.943 -221.715,3.943 -221.715,3.693 -221.965,3.693 -247.965,3.693 -248.215,3.693 "/>
<g>
	<polygon class="st6" points="-217.873,3.943 -217.873,29.943 -217.873,30.193 -217.623,30.193 -191.623,30.193 -191.373,30.193 
		-191.373,29.943 -191.373,3.943 -191.373,3.693 -191.623,3.693 -217.623,3.693 -217.873,3.693 	"/>
	<path class="st7" d="M-196.341,22.067h-13.016 M-196.341,16.934h-13.016 M-196.341,11.802h-13.016"/>
	<path class="st5" d="M-211.443,17.519c0.161-0.156,0.241-0.349,0.241-0.581c0-0.15-0.037-0.288-0.11-0.414
		c-0.073-0.125-0.172-0.224-0.297-0.297c-0.126-0.073-0.264-0.11-0.415-0.11c-0.15,0-0.288,0.037-0.41,0.11
		c-0.122,0.073-0.221,0.172-0.294,0.297c-0.072,0.126-0.11,0.264-0.11,0.414c0,0.232,0.08,0.425,0.238,0.581
		c0.157,0.156,0.35,0.234,0.576,0.234C-211.797,17.753-211.604,17.675-211.443,17.519"/>
	<path class="st5" d="M-212.02,12.885c0.489,0,0.885-0.396,0.885-0.885c0-0.488-0.396-0.885-0.885-0.885
		c-0.488,0-0.885,0.397-0.885,0.885C-212.905,12.489-212.508,12.885-212.02,12.885"/>
	<path class="st5" d="M-211.443,22.536c0.161-0.156,0.241-0.349,0.241-0.581c0-0.15-0.037-0.288-0.11-0.414
		c-0.073-0.125-0.172-0.224-0.297-0.297c-0.126-0.073-0.264-0.11-0.415-0.11c-0.15,0-0.288,0.037-0.41,0.11
		c-0.122,0.073-0.221,0.172-0.294,0.297c-0.072,0.126-0.11,0.264-0.11,0.414c0,0.232,0.08,0.425,0.238,0.581
		c0.157,0.156,0.35,0.234,0.576,0.234C-211.797,22.77-211.604,22.692-211.443,22.536"/>
</g>
<path class="st7" d="M-226.683,22.075h-13.016 M-226.683,16.942h-13.016 M-226.683,11.81h-13.016"/>
<rect x="-243.247" y="11.041" class="st5" width="1.77" height="1.77"/>
<rect x="-243.247" y="16.057" class="st5" width="1.77" height="1.77"/>
<rect x="-243.247" y="21.075" class="st5" width="1.77" height="1.77"/>
<rect x="95.275" y="-63.847" class="st2" width="245" height="57.75"/>
<text transform="matrix(1 0 0 1 169.9725 -37.6513)"><tspan x="0" y="0" class="st5" style="font-family:'Montserrat-Regular'; font-size:13px;">N</tspan><tspan x="10.478" y="0" class="st5" style="font-family:'Montserrat-Regular'; font-size:13px;">e</tspan><tspan x="18.135" y="0" class="st5" style="font-family:'Montserrat-Regular'; font-size:13px;">u</tspan><tspan x="26.753" y="0" class="st5" style="font-family:'Montserrat-Regular'; font-size:13px;">e </tspan><tspan x="38.011" y="0" class="st5" style="font-family:'Montserrat-Regular'; font-size:13px; letter-spacing:-1;">T</tspan><tspan x="44.381" y="0" class="st5" style="font-family:'Montserrat-Regular'; font-size:13px;">e</tspan><tspan x="51.882" y="0" class="st5" style="font-family:'Montserrat-Regular'; font-size:13px;">x</tspan><tspan x="59.097" y="0" class="st5" style="font-family:'Montserrat-Regular'; font-size:13px;">t</tspan><tspan x="64.128" y="0" class="st5" style="font-family:'Montserrat-Regular'; font-size:13px;">b</tspan><tspan x="72.942" y="0" class="st5" style="font-family:'Montserrat-Regular'; font-size:13px;">o</tspan><tspan x="80.742" y="0" class="st5" style="font-family:'Montserrat-Regular'; font-size:13px;">x </tspan></text>
<path class="st14" d="M217.775-15.888c3.707,0,6.713-3.005,6.713-6.712c0-3.708-3.006-6.713-6.713-6.713
	c-3.707,0-6.712,3.005-6.712,6.713C211.063-18.893,214.068-15.888,217.775-15.888z"/>
<rect x="95.275" y="-63.847" class="st9" width="245" height="57.75"/>
<line class="st15" x1="217.775" y1="-26.135" x2="217.775" y2="-19.066"/>
<line class="st15" x1="214.241" y1="-22.569" x2="221.309" y2="-22.569"/>
<path class="st14" d="M106.813,23.947c3.707,0,6.713-3.005,6.713-6.712c0-3.708-3.006-6.713-6.713-6.713
	c-3.707,0-6.712,3.005-6.712,6.713C100.101,20.942,103.106,23.947,106.813,23.947z"/>
<line class="st15" x1="106.813" y1="13.701" x2="106.813" y2="20.77"/>
<line class="st15" x1="103.279" y1="17.266" x2="110.347" y2="17.266"/>
<g>
	<path class="st16" d="M-389.079,39.083h-3.138v-1.85h8.544v1.85h-3.138v7.956h-2.269V39.083z"/>
	<path class="st16" d="M-382.458,37.233h2.269v9.806h-2.269V37.233z"/>
	<path class="st16" d="M-369.364,40.792c0,2.185-1.639,3.544-4.258,3.544h-1.975v2.703h-2.269v-9.806h4.244
		C-371.003,37.233-369.364,38.592-369.364,40.792z M-371.661,40.792c0-1.079-0.701-1.709-2.087-1.709h-1.849v3.403h1.849
		C-372.362,42.486-371.661,41.856-371.661,40.792z"/>
	<path class="st16" d="M-359.242,40.792c0,2.185-1.639,3.544-4.258,3.544h-1.975v2.703h-2.269v-9.806h4.244
		C-360.881,37.233-359.242,38.592-359.242,40.792z M-361.539,40.792c0-1.079-0.701-1.709-2.087-1.709h-1.849v3.403h1.849
		C-362.24,42.486-361.539,41.856-361.539,40.792z"/>
</g>
<path class="st16" d="M-425.706,32.762L-425.706,32.762c-1.054,2.474-1.96,4.602-2.889,6.784h5.729
	C-423.81,37.29-424.692,35.182-425.706,32.762 M-422.213,50.352L-422.213,50.352c-0.346-1.15-0.211-1.759,1.044-1.8
	c0.976-0.033,1.343-0.74,1.02-1.64c-0.507-1.414-1.072-2.81-1.681-4.183c-0.109-0.245-0.55-0.478-0.843-0.484
	c-2.129-0.041-4.261-0.046-6.39,0.005c-0.305,0.008-0.741,0.315-0.877,0.599c-0.558,1.155-1.057,2.342-1.512,3.542
	c-0.57,1.504-0.268,2.026,1.348,2.192c0.783,0.081,1.206,0.319,1.022,1.126c-0.056,0.243-0.355,0.61-0.547,0.613
	c-2.524,0.042-5.049,0.028-7.596,0.028c-0.214-0.956-0.321-1.631,0.868-1.885c0.569-0.122,1.219-0.609,1.515-1.117
	c0.755-1.293,1.377-2.67,1.972-4.049c2.401-5.559,4.761-11.135,7.172-16.689c0.173-0.398,0.634-0.67,0.96-1
	c0.319,0.343,0.766,0.632,0.937,1.037c2.56,6.048,5.079,12.114,7.622,18.17c0.326,0.776,0.705,1.534,1.106,2.275
	c0.507,0.939,1.332,1.389,2.379,1.595c0.265,0.052,0.519,0.638,0.586,1.013c0.032,0.175-0.39,0.621-0.611,0.624
	C-415.871,50.365-419.024,50.352-422.213,50.352"/>
<path class="st5" d="M-328.469,42.814c2.682-0.014,4.762-2.036,4.751-4.621c-0.01-2.367-2.203-4.406-4.733-4.399
	c-2.703,0.008-4.848,2.038-4.825,4.568C-333.253,40.826-331.092,42.827-328.469,42.814 M-322.913,42.827L-322.913,42.827
	c0.393-0.231,0.569-0.207,0.91,0.115c1.249,1.181,2.501,2.361,3.751,3.541c0.086,0.08,0.173,0.159,0.252,0.246
	c0.216,0.237,0.217,0.464-0.012,0.692c-0.249,0.248-0.509,0.488-0.767,0.727c-0.302,0.28-0.548,0.287-0.855,0
	c-1.177-1.103-2.348-2.211-3.522-3.318c-0.132-0.124-0.263-0.25-0.396-0.373c-0.368-0.34-0.394-0.487-0.153-0.896
	c-0.368-0.336-0.737-0.673-1.128-1.029c-1.472,1.07-3.153,1.471-5.011,1.06c-1.415-0.313-2.544-1.054-3.377-2.178
	c-1.65-2.23-1.286-5.335,0.823-7.11c2.222-1.87,5.521-1.904,7.68-0.117c2.217,1.835,2.765,5.106,0.696,7.583
	C-323.652,42.123-323.284,42.474-322.913,42.827"/>
<path class="st17" d="M-328.469,42.814c2.682-0.014,4.762-2.036,4.751-4.621c-0.01-2.367-2.203-4.406-4.733-4.399
	c-2.703,0.008-4.848,2.038-4.825,4.568C-333.253,40.826-331.092,42.827-328.469,42.814z M-322.913,42.827L-322.913,42.827
	c0.393-0.231,0.569-0.207,0.91,0.115c1.249,1.181,2.501,2.361,3.751,3.541c0.086,0.08,0.173,0.159,0.252,0.246
	c0.216,0.237,0.217,0.464-0.012,0.692c-0.249,0.248-0.509,0.488-0.767,0.727c-0.302,0.28-0.548,0.287-0.855,0
	c-1.177-1.103-2.348-2.211-3.522-3.318c-0.132-0.124-0.263-0.25-0.396-0.373c-0.368-0.34-0.394-0.487-0.153-0.896
	c-0.368-0.336-0.737-0.673-1.128-1.029c-1.472,1.07-3.153,1.471-5.011,1.06c-1.415-0.313-2.544-1.054-3.377-2.178
	c-1.65-2.23-1.286-5.335,0.823-7.11c2.222-1.87,5.521-1.904,7.68-0.117c2.217,1.835,2.765,5.106,0.696,7.583
	C-323.652,42.123-323.284,42.474-322.913,42.827z"/>
<path class="st5" d="M-264.754,33.233l2.966,2.98v-2.758c0-0.096-0.055-0.229-0.123-0.297l-3.807-3.826
	c-0.068-0.067-0.178-0.067-0.245,0l-3.93,3.949v2.758c0,0.096,0.055,0.119,0.122,0.051l2.844-2.857
	c0.068-0.068,0.122-0.046,0.122,0.05v7.829h0v2.168c0,0.096-0.055,0.118-0.123,0.05l-2.966-2.98v2.758
	c0,0.096,0.055,0.229,0.123,0.297l3.807,3.826c0.068,0.067,0.178,0.067,0.245,0l3.93-3.949v-2.758c0-0.096-0.055-0.119-0.122-0.051
	l-2.844,2.857c-0.068,0.068-0.122,0.046-0.122-0.05v-7.829h0v-2.168C-264.877,33.187-264.822,33.165-264.754,33.233z"/>
<line class="st18" x1="-300.893" y1="46.469" x2="-273.06" y2="46.469"/>
<line class="st18" x1="-300.893" y1="38.173" x2="-273.06" y2="38.173"/>
<line class="st18" x1="-300.893" y1="30.181" x2="-273.06" y2="30.181"/>
<line class="st18" x1="-286.551" y1="65.441" x2="-286.551" y2="86.441"/>
<path class="st5" d="M-279.091,79.284L-279.091,79.284h2.695l-2.603-2.569c-0.138-0.135-0.093-0.245,0.101-0.245h7.006v-1.407
	c0-0.193-0.157-0.35-0.35-0.35h-6.656c-0.194,0-0.239-0.11-0.101-0.246l2.603-2.569h-2.345c-0.193,0-0.462,0.111-0.599,0.246
	l-3.245,3.201c-0.137,0.136-0.137,0.356,0,0.492L-279.091,79.284z"/>
<path class="st5" d="M-294.862,72.072L-294.862,72.072h-2.695l2.603,2.569c0.138,0.135,0.093,0.245-0.101,0.245h-7.006v1.407
	c0,0.193,0.157,0.35,0.35,0.35h6.656c0.194,0,0.239,0.11,0.101,0.246l-2.603,2.569h2.345c0.193,0,0.462-0.111,0.599-0.246
	l3.245-3.201c0.137-0.136,0.137-0.356,0-0.492L-294.862,72.072z"/>
<line class="st19" x1="29.735" y1="-53.672" x2="-6.288" y2="-53.672"/>
<path class="st20" d="M21.232-50.526c2.045,0,3.703-1.658,3.703-3.703c0-2.045-1.658-3.703-3.703-3.703s-3.703,1.658-3.703,3.703
	C17.529-52.184,19.187-50.526,21.232-50.526"/>
<g>
	<path class="st5" d="M44.431-53.471c0,3.12-1.82,4.836-4.459,4.836c-0.91,0-1.781-0.195-2.392-0.585l0.624-1.274
		c0.494,0.325,1.092,0.442,1.729,0.442c1.716,0,2.795-1.066,2.795-3.133v-0.014c-0.546,0.638-1.417,0.949-2.431,0.949
		c-1.794,0-3.133-1.092-3.133-2.795c0-1.807,1.469-2.951,3.328-2.951C42.975-57.996,44.431-56.396,44.431-53.471z M42.468-55.135
		c0-0.858-0.676-1.534-1.885-1.534c-1.053,0-1.781,0.598-1.781,1.547s0.715,1.547,1.82,1.547
		C41.714-53.576,42.468-54.239,42.468-55.135z"/>
	<path class="st5" d="M52.296-51.56c0,1.599-1.157,2.925-3.602,2.925c-1.287,0-2.587-0.39-3.419-1.053l0.715-1.313
		c0.663,0.546,1.651,0.897,2.678,0.897c1.209,0,1.924-0.533,1.924-1.392c0-0.871-0.559-1.417-2.444-1.417h-2.197l0.468-4.953h5.343
		v1.417H47.85l-0.195,2.106h0.871C51.217-54.342,52.296-53.172,52.296-51.56z"/>
	<path class="st5" d="M56.715-55.46c0-1.495,0.871-2.496,2.171-2.496s2.184,0.988,2.184,2.496s-0.884,2.496-2.184,2.496
		S56.715-53.965,56.715-55.46z M60.005-55.46c0-1.014-0.416-1.586-1.118-1.586c-0.676,0-1.118,0.585-1.118,1.586
		s0.442,1.586,1.118,1.586C59.589-53.874,60.005-54.447,60.005-55.46z M64.347-57.866h1.274l-6.214,9.101h-1.274L64.347-57.866z
		 M62.683-51.17c0-1.495,0.871-2.496,2.171-2.496c1.3,0,2.184,1.001,2.184,2.496s-0.884,2.496-2.184,2.496
		C63.553-48.674,62.683-49.675,62.683-51.17z M65.972-51.17c0-1.001-0.429-1.586-1.118-1.586s-1.118,0.572-1.118,1.586
		c0,1.015,0.429,1.586,1.118,1.586S65.972-50.169,65.972-51.17z"/>
</g>
<rect x="7.672" y="0.471" class="st11" width="13.149" height="16.764"/>
<polygon class="st21" points="7.672,17.235 7.672,17.235 20.821,17.235 20.821,0.471 7.672,0.471 "/>
<rect x="0" class="st9" width="21.291" height="24"/>
<line class="st22" x1="4.497" y1="8.166" x2="4.497" y2="18.553"/>
<line class="st23" x1="7.129" y1="20.442" x2="16.778" y2="20.442"/>
<path class="st21" d="M17.654,20.442h0.877 M4.497,19.498v0.944h0.877 M4.497,5.333v0.944"/>
<polyline class="st21" points="0.47,8.421 0.47,23.529 14.505,23.529 "/>
<rect x="0" class="st9" width="21.291" height="24"/>
<rect x="39.246" y="0.402" class="st11" width="14.674" height="18.705"/>
<polygon class="st24" points="39.246,19.107 39.246,19.107 53.919,19.107 53.919,0.402 39.246,0.402 "/>
<rect x="38.844" class="st9" width="19.884" height="24"/>
<rect x="43.653" y="4.893" class="st5" width="14.674" height="18.705"/>
<polygon class="st25" points="43.652,23.598 43.652,23.598 58.325,23.598 58.325,4.893 43.652,4.893 "/>
<rect x="38.844" class="st9" width="19.884" height="24"/>
<rect x="-59.647" y="3.949" class="st10" width="34.924" height="19.551"/>
<text transform="matrix(1 0 0 1 -52.6466 18.6002)"><tspan x="0" y="0" class="st11" style="font-family:'Montserrat-Regular'; font-size:13px;">e</tspan><tspan x="7.41" y="0" class="st11" style="font-family:'Montserrat-Regular'; font-size:13px;">i</tspan><tspan x="10.335" y="0" class="st11" style="font-family:'Montserrat-Regular'; font-size:13px;">n</tspan></text>
<polygon class="st6" points="-94.655,3.824 -94.655,23.824 -94.655,24.074 -94.405,24.074 -25.556,24.074 -25.306,24.074 
	-25.306,23.824 -25.306,3.824 -25.306,3.574 -25.556,3.574 -94.405,3.574 -94.655,3.574 "/>
<rect x="-94.905" y="3.324" class="st9" width="70.183" height="21"/>
<line class="st26" x1="46.409" y1="93.463" x2="46.409" y2="117.723"/>
<path class="st5" d="M54.506,109.281L54.506,109.281h2.592l-2.494-2.46c-0.138-0.135-0.093-0.245,0.101-0.245h6.725v-1.339
	c0-0.193-0.157-0.35-0.35-0.35h-6.725l2.743-2.705h-2.242c-0.193,0-0.462,0.11-0.599,0.245l-3.102,3.059
	c-0.137,0.135-0.137,0.355,0,0.491L54.506,109.281z"/>
<line class="st26" x1="19.464" y1="117.556" x2="19.464" y2="93.296"/>
<path class="st5" d="M11.367,101.738L11.367,101.738H8.775l2.494,2.46c0.138,0.135,0.093,0.245-0.101,0.245H4.443v1.339
	c0,0.193,0.157,0.35,0.35,0.35h6.725l-2.743,2.705h2.242c0.193,0,0.462-0.11,0.599-0.245l3.102-3.059
	c0.137-0.135,0.137-0.355,0-0.491L11.367,101.738z"/>
<line class="st26" x1="-170.278" y1="101.334" x2="-146.018" y2="101.334"/>
<path class="st5" d="M-154.627,93.277L-154.627,93.277v-2.592l-2.46,2.494c-0.135,0.138-0.245,0.093-0.245-0.101v-6.725h-1.339
	c-0.193,0-0.35,0.157-0.35,0.35v6.725l-2.705-2.743v2.242c0,0.193,0.11,0.462,0.245,0.599l3.059,3.102
	c0.135,0.137,0.355,0.137,0.491,0L-154.627,93.277z"/>
<path class="st5" d="M-161.559,108.429L-161.559,108.429v2.592l2.46-2.494c0.135-0.138,0.245-0.093,0.245,0.101v6.725h1.339
	c0.193,0,0.35-0.157,0.35-0.35v-6.725l2.705,2.743v-2.242c0-0.193-0.11-0.462-0.245-0.599l-3.059-3.102
	c-0.135-0.137-0.355-0.137-0.491,0L-161.559,108.429z"/>
<line class="st26" x1="-113.832" y1="114.145" x2="-113.832" y2="89.885"/>
<path class="st5" d="M-121.89,98.494L-121.89,98.494h-2.592l2.494,2.46c0.138,0.135,0.093,0.245-0.101,0.245h-6.725v1.339
	c0,0.193,0.157,0.35,0.35,0.35h6.725l-2.743,2.705h2.242c0.193,0,0.462-0.11,0.599-0.245l3.102-3.059
	c0.137-0.135,0.137-0.355,0-0.491L-121.89,98.494z"/>
<path class="st5" d="M-106.738,105.426L-106.738,105.426h2.592l-2.494-2.46c-0.138-0.135-0.093-0.245,0.101-0.245h6.725v-1.339
	c0-0.193-0.157-0.35-0.35-0.35h-6.725l2.743-2.705h-2.242c-0.193,0-0.462,0.11-0.599,0.245l-3.102,3.059
	c-0.137,0.135-0.137,0.355,0,0.491L-106.738,105.426z"/>
<line class="st26" x1="-81.69" y1="101.618" x2="-57.43" y2="101.618"/>
<path class="st5" d="M-72.971,108.712L-72.971,108.712v2.592l2.46-2.494c0.135-0.138,0.245-0.093,0.245,0.101v6.725h1.339
	c0.193,0,0.35-0.157,0.35-0.35v-6.725l2.705,2.743v-2.242c0-0.193-0.11-0.462-0.245-0.599l-3.059-3.102
	c-0.135-0.137-0.355-0.137-0.491,0L-72.971,108.712z"/>
<line class="st26" x1="-36.579" y1="112.873" x2="-12.319" y2="112.873"/>
<path class="st5" d="M-20.761,104.484L-20.761,104.484v-2.592l-2.46,2.494c-0.135,0.138-0.245,0.093-0.245-0.101V97.56h-1.339
	c-0.193,0-0.35,0.157-0.35,0.35v6.725l-2.705-2.743v2.242c0,0.193,0.11,0.462,0.245,0.599l3.059,3.102
	c0.135,0.137,0.355,0.137,0.491,0L-20.761,104.484z"/>
<rect x="109.285" y="85.947" class="st11" width="15.769" height="20.056"/>
<line class="st27" x1="112.241" y1="106.003" x2="123.082" y2="106.003"/>
<line class="st28" x1="125.053" y1="102.995" x2="125.053" y2="87.953"/>
<line class="st27" x1="122.097" y1="85.947" x2="111.256" y2="85.947"/>
<line class="st28" x1="109.284" y1="88.955" x2="109.284" y2="103.997"/>
<path class="st21" d="M109.284,105v1.003h0.986 M110.27,85.947h-0.986v1.003 M125.053,86.95v-1.003h-0.985 M124.068,106.003h0.985
	V105"/>
<polygon class="st11" points="98.049,116.003 98.049,116.003 113.818,116.003 113.818,95.947 98.049,95.947 "/>
<line class="st27" x1="101.006" y1="116.003" x2="111.847" y2="116.003"/>
<line class="st28" x1="113.818" y1="112.995" x2="113.818" y2="97.953"/>
<line class="st27" x1="110.861" y1="95.947" x2="100.02" y2="95.947"/>
<line class="st28" x1="98.049" y1="98.955" x2="98.049" y2="113.997"/>
<path class="st21" d="M98.048,115v1.003h0.986 M99.034,95.947h-0.986v1.003 M113.817,96.95v-1.003h-0.985 M112.832,116.003h0.985
	V115"/>
<polygon class="st11" points="88.574,124.003 88.574,124.003 104.343,124.003 104.343,103.947 88.574,103.947 "/>
<polygon class="st21" points="88.574,124.003 88.574,124.003 104.343,124.003 104.343,103.947 88.574,103.947 "/>
<g>
	<polygon class="st11" points="162.411,110.309 162.411,110.309 178.18,110.309 178.18,90.253 162.411,90.253 	"/>
	<polygon class="st21" points="162.411,110.309 162.411,110.309 178.18,110.309 178.18,90.253 162.411,90.253 	"/>
	<line class="st29" x1="158.647" y1="98.807" x2="158.647" y2="112.311"/>
	<line class="st30" x1="161.784" y1="114.112" x2="173.287" y2="114.112"/>
	<path class="st21" d="M174.332,114.112h1.046 M158.647,113.212v0.9h1.046 M158.647,96.107v0.9"/>
</g>
<g>
	<g>
		<rect x="234.951" y="78.532" class="st11" width="15.769" height="20.056"/>
		<polygon class="st21" points="234.951,98.588 234.951,98.588 250.72,98.588 250.72,78.532 234.951,78.532 		"/>
		<polygon class="st11" points="223.714,108.588 223.714,108.588 239.483,108.588 239.483,88.532 223.714,88.532 		"/>
		<line class="st27" x1="226.671" y1="108.588" x2="237.512" y2="108.588"/>
		<line class="st28" x1="239.483" y1="105.58" x2="239.483" y2="90.538"/>
		<line class="st27" x1="236.527" y1="88.532" x2="225.686" y2="88.532"/>
		<line class="st28" x1="223.714" y1="91.541" x2="223.714" y2="106.583"/>
		<path class="st21" d="M223.714,107.585v1.003h0.986 M224.7,88.532h-0.986v1.003 M239.483,89.535v-1.003h-0.985 M238.498,108.588
			h0.985v-1.003"/>
		<polygon class="st11" points="214.241,116.588 214.241,116.588 230.01,116.588 230.01,96.532 214.241,96.532 		"/>
		<line class="st27" x1="217.198" y1="116.588" x2="228.039" y2="116.588"/>
		<line class="st28" x1="230.01" y1="113.58" x2="230.01" y2="98.538"/>
		<line class="st27" x1="227.053" y1="96.532" x2="216.212" y2="96.532"/>
		<line class="st28" x1="214.241" y1="99.541" x2="214.241" y2="114.583"/>
		<path class="st21" d="M214.241,115.585v1.003h0.986 M215.227,96.532h-0.986v1.003 M230.01,97.535v-1.003h-0.985 M229.025,116.588
			h0.985v-1.003"/>
	</g>
	<line class="st27" x1="290.364" y1="112.074" x2="301.205" y2="112.074"/>
	<line class="st28" x1="303.176" y1="109.065" x2="303.176" y2="94.023"/>
	<line class="st27" x1="300.22" y1="92.017" x2="289.379" y2="92.017"/>
	<line class="st28" x1="287.407" y1="95.026" x2="287.407" y2="110.068"/>
	<path class="st21" d="M287.407,111.071v1.003h0.986 M288.393,92.018h-0.986v1.003 M303.176,93.021v-1.003h-0.985 M302.191,112.074
		h0.985v-1.003"/>
	<polyline class="st21" points="283.643,97.872 283.643,115.877 300.374,115.877 	"/>
</g>
<g>
	<defs>
		<rect id="SVGID_1_" x="-471.631" y="205.91" width="241.682" height="1"/>
	</defs>
	<clipPath id="SVGID_00000101789018224319119340000007216277993697098115_">
		<use xlink:href="#SVGID_1_"  style="overflow:visible;"/>
	</clipPath>
	
		<line style="clip-path:url(#SVGID_00000101789018224319119340000007216277993697098115_);fill:none;stroke:#B2B2B2;stroke-linecap:round;stroke-linejoin:round;stroke-dasharray:0,3.009;" x1="-468.123" y1="206.41" x2="-231.953" y2="206.41"/>
	
		<path style="clip-path:url(#SVGID_00000101789018224319119340000007216277993697098115_);fill:none;stroke:#B2B2B2;stroke-linecap:round;stroke-linejoin:round;" d="
		M-230.449,206.41L-230.449,206.41 M-471.131,206.41L-471.131,206.41"/>
</g>
<circle class="st33" cx="-424.733" cy="-14.802" r="12.75"/>
<polygon class="st3" points="-281.34,-29.825 -294.34,-29.825 -287.972,-19.35 "/>
<polygon class="st5" points="-273.317,98.717 -283.792,105.085 -273.317,111.717 "/>
<polygon class="st5" points="-302.364,111.717 -291.889,105.349 -302.364,98.717 "/>
<polygon class="st5" points="-219.811,98.717 -230.286,105.085 -219.811,111.717 "/>
<polygon class="st5" points="-254.988,111.717 -244.513,105.349 -254.988,98.717 "/>
<rect x="-94.738" y="-29.814" class="st10" width="34.924" height="19.551"/>
<polygon class="st6" points="-94.488,-29.939 -94.488,-9.939 -94.488,-9.689 -94.238,-9.689 -25.389,-9.689 -25.139,-9.689 
	-25.139,-9.939 -25.139,-29.939 -25.139,-30.189 -25.389,-30.189 -94.238,-30.189 -94.488,-30.189 "/>
<rect x="-94.738" y="-30.439" class="st9" width="69.849" height="21"/>
<rect x="-59.374" y="36.214" class="st10" width="34.924" height="19.551"/>
<polygon class="st6" points="-94.382,36.089 -94.382,56.089 -94.382,56.339 -94.132,56.339 -25.283,56.339 -25.033,56.339 
	-25.033,56.089 -25.033,36.089 -25.033,35.839 -25.283,35.839 -94.132,35.839 -94.382,35.839 "/>
<rect x="-94.632" y="35.589" class="st9" width="70.183" height="21"/>
<line class="st19" x1="28.657" y1="-33.885" x2="-7.366" y2="-33.885"/>
<path class="st20" d="M20.154-30.738c2.045,0,3.703-1.658,3.703-3.703c0-2.045-1.658-3.703-3.703-3.703s-3.703,1.658-3.703,3.703
	C16.451-32.396,18.109-30.738,20.154-30.738"/>
<line class="st19" x1="336.981" y1="-3.105" x2="300.958" y2="-3.105"/>
<path class="st20" d="M328.478,0.041c2.045,0,3.703-1.658,3.703-3.703s-1.658-3.703-3.703-3.703c-2.045,0-3.703,1.658-3.703,3.703
	S326.433,0.041,328.478,0.041"/>
</svg>
