<?xml version="1.0" encoding="utf-8"?>
<!-- Generator: Adobe Illustrator 26.0.3, SVG Export Plug-In . SVG Version: 6.00 Build 0)  -->
<svg version="1.1" id="Ebene_1" xmlns="http://www.w3.org/2000/svg" xmlns:xlink="http://www.w3.org/1999/xlink" x="0px" y="0px"
	 width="16.271px" height="24.26px" viewBox="0 0 16.271 24.26" style="enable-background:new 0 0 16.271 24.26;"
	 xml:space="preserve">
<style type="text/css">
	.st0{fill:none;stroke:#C5C5C5;stroke-width:3;stroke-linecap:round;stroke-linejoin:round;}
	.st1{fill:#FFAEFF;stroke:#4F4D4D;stroke-width:0.5;}
	.st2{fill:#F8F8F8;}
	.st3{fill:#0E689A;}
	.st4{fill:none;stroke:#B2B1B1;stroke-width:0.65;stroke-miterlimit:10;}
	.st5{fill:#B2B1B1;}
	.st6{fill:none;stroke:#B2B2B2;stroke-width:0.5;stroke-miterlimit:10;}
	.st7{fill:none;stroke:#B2B1B1;stroke-width:0.3;stroke-miterlimit:10;}
	.st8{fill:none;stroke:#FFFFFF;stroke-width:0.021;}
	.st9{fill:none;}
	.st10{fill:#0E6899;}
	.st11{fill:#FFFFFF;}
	.st12{fill:none;stroke:#C5C5C5;stroke-width:0.5;stroke-linecap:round;stroke-linejoin:round;}
	.st13{fill:#C5C5C5;}
	.st14{fill:none;stroke:#B2B1B1;stroke-width:0.5;}
	.st15{fill:none;stroke:#B2B1B1;stroke-width:1.2;}
	.st16{fill:#B2B2B2;}
	.st17{fill:none;stroke:#FFFFFF;stroke-width:0.001;}
	.st18{fill:none;stroke:#B2B1B1;stroke-width:1.712;}
	.st19{fill:none;stroke:#B2B1B1;stroke-width:2;}
	.st20{fill:#AD5E7A;}
	.st21{fill:none;stroke:#B2B1B1;stroke-width:0.941;}
	.st22{fill:none;stroke:#B2B1B1;stroke-width:0.941;stroke-dasharray:1.889,1.889;}
	.st23{fill:none;stroke:#B2B1B1;stroke-width:0.941;stroke-dasharray:1.754,1.754;}
	.st24{fill:none;stroke:#B2B1B1;stroke-width:0.804;}
	.st25{fill:none;stroke:#FFFFFF;stroke-width:0.804;}
	.st26{fill:none;stroke:#B2B1B1;stroke-width:2.5;}
	.st27{fill:none;stroke:#B2B1B1;stroke-width:0.941;stroke-dasharray:1.971,1.971;}
	.st28{fill:none;stroke:#B2B1B1;stroke-width:0.941;stroke-dasharray:2.006,2.006;}
	.st29{fill:none;stroke:#B2B1B1;stroke-width:0.941;stroke-dasharray:1.801,1.801;}
	.st30{fill:none;stroke:#B2B1B1;stroke-width:0.941;stroke-dasharray:2.091,2.091;}
	
		.st31{clip-path:url(#SVGID_00000174581966463703463910000013769258708918039699_);fill:none;stroke:#B2B2B2;stroke-linecap:round;stroke-linejoin:round;stroke-dasharray:0,3.009;}
	
		.st32{clip-path:url(#SVGID_00000174581966463703463910000013769258708918039699_);fill:none;stroke:#B2B2B2;stroke-linecap:round;stroke-linejoin:round;}
	.st33{fill:none;stroke:#4F4D4D;stroke-width:0.5;}
</style>
<polyline class="st0" points="1522.001,818.391 1515.751,809.391 1509.001,818.391 "/>
<circle class="st1" cx="-469.892" cy="-144.357" r="12.75"/>
<rect x="-437.432" y="-155.372" class="st2" width="119.902" height="21"/>
<polygon class="st3" points="-326.603,-150.11 -339.603,-150.11 -333.235,-139.635 "/>
<g>
	<g>
		<line class="st4" x1="-213.59" y1="-137.852" x2="-203.307" y2="-137.852"/>
		<g>
			<path class="st5" d="M-212.303-143.077v-5.175h1.3v5.122c0,2.016,0.923,2.926,2.561,2.926c1.638,0,2.574-0.91,2.574-2.926v-5.122
				h1.261v5.175c0,2.639-1.443,4.029-3.848,4.029C-210.847-139.048-212.303-140.439-212.303-143.077z"/>
		</g>
	</g>
	<polygon class="st6" points="-221.699,-156.052 -221.699,-130.052 -221.699,-129.802 -221.449,-129.802 -195.449,-129.802 
		-195.199,-129.802 -195.199,-130.052 -195.199,-156.052 -195.199,-156.302 -195.449,-156.302 -221.449,-156.302 -221.699,-156.302 
			"/>
</g>
<g>
	<g>
		<path class="st5" d="M-243.053-147.979h1.3l-1.82,9.101h-1.3L-243.053-147.979z"/>
	</g>
	<polygon class="st6" points="-256.563,-156.428 -256.563,-130.428 -256.563,-130.178 -256.313,-130.178 -230.313,-130.178 
		-230.063,-130.178 -230.063,-130.428 -230.063,-156.428 -230.063,-156.678 -230.313,-156.678 -256.313,-156.678 -256.563,-156.678 
			"/>
</g>
<g>
	<g>
		<path class="st5" d="M-276.201-141.31c0,1.573-1.248,2.483-3.64,2.483h-4.706v-9.101h4.446c2.275,0,3.445,0.949,3.445,2.366
			c0,0.91-0.468,1.612-1.209,2.002C-276.851-143.233-276.201-142.453-276.201-141.31z M-282.454-146.341v2.146h2.093
			c1.027,0,1.586-0.364,1.586-1.079s-0.559-1.066-1.586-1.066H-282.454z M-278.32-141.53c0-0.767-0.585-1.131-1.677-1.131h-2.457
			v2.249h2.457C-278.905-140.412-278.32-140.75-278.32-141.53z"/>
	</g>
	<polygon class="st6" points="-293.624,-156.377 -293.624,-130.377 -293.624,-130.127 -293.374,-130.127 -267.374,-130.127 
		-267.124,-130.127 -267.124,-130.377 -267.124,-156.377 -267.124,-156.627 -267.374,-156.627 -293.374,-156.627 -293.624,-156.627 
			"/>
</g>
<path class="st7" d="M-239.436-114.423"/>
<path class="st7" d="M-241.944-113.169"/>
<path class="st7" d="M-241.944-111.915"/>
<path class="st7" d="M-241.944-110.661"/>
<path class="st7" d="M-239.436-109.407"/>
<path class="st7" d="M-239.436-108.153"/>
<path class="st7" d="M-241.944-106.899"/>
<path class="st7" d="M-241.944-104.391"/>
<path class="st7" d="M-239.436-101.883"/>
<g>
	<path class="st7" d="M-258.9-109.407"/>
	<path class="st7" d="M-258.9-114.423"/>
	<path class="st7" d="M-258.9-101.883"/>
	<path class="st7" d="M-258.9-108.153"/>
	<g>
		<path class="st7" d="M-256.838-106.899"/>
		<path class="st7" d="M-256.838-110.661"/>
		<path class="st7" d="M-256.838-111.915"/>
		<path class="st7" d="M-256.838-113.169"/>
		<line class="st7" x1="-259.276" y1="-102.678" x2="-239.812" y2="-102.678"/>
		<line class="st7" x1="-259.276" y1="-103.954" x2="-244.382" y2="-103.954"/>
		<line class="st7" x1="-259.276" y1="-105.23" x2="-244.382" y2="-105.23"/>
		<line class="st7" x1="-259.276" y1="-106.506" x2="-244.382" y2="-106.506"/>
		<line class="st7" x1="-259.276" y1="-107.782" x2="-239.812" y2="-107.782"/>
		<line class="st7" x1="-259.276" y1="-109.058" x2="-239.812" y2="-109.058"/>
		<line class="st7" x1="-259.203" y1="-110.334" x2="-244.309" y2="-110.334"/>
		<line class="st7" x1="-259.276" y1="-111.609" x2="-239.812" y2="-111.609"/>
		<line class="st7" x1="-259.276" y1="-112.885" x2="-244.382" y2="-112.885"/>
		<line class="st7" x1="-259.276" y1="-114.162" x2="-244.382" y2="-114.162"/>
		<line class="st7" x1="-259.276" y1="-115.437" x2="-239.812" y2="-115.437"/>
	</g>
	<polygon class="st6" points="-262.603,-121.732 -262.603,-95.739 -262.603,-95.489 -262.353,-95.489 -236.36,-95.489 
		-236.11,-95.489 -236.11,-95.739 -236.11,-121.732 -236.11,-121.982 -236.36,-121.982 -262.353,-121.982 -262.603,-121.982 	"/>
</g>
<g>
	<g>
		<line class="st7" x1="-208.556" y1="-115.12" x2="-228.02" y2="-115.12"/>
		<line class="st7" x1="-211.064" y1="-113.844" x2="-225.958" y2="-113.844"/>
		<line class="st7" x1="-211.064" y1="-112.567" x2="-225.958" y2="-112.567"/>
		<line class="st7" x1="-211.064" y1="-111.289" x2="-225.958" y2="-111.289"/>
		<line class="st7" x1="-208.556" y1="-110.013" x2="-228.02" y2="-110.013"/>
		<line class="st7" x1="-208.556" y1="-108.736" x2="-228.02" y2="-108.736"/>
		<line class="st7" x1="-211.064" y1="-107.458" x2="-225.958" y2="-107.458"/>
		<line class="st7" x1="-208.556" y1="-106.181" x2="-228.02" y2="-106.181"/>
		<line class="st7" x1="-211.064" y1="-104.904" x2="-225.958" y2="-104.904"/>
		<line class="st7" x1="-211.064" y1="-103.627" x2="-225.958" y2="-103.627"/>
		<line class="st7" x1="-208.556" y1="-102.35" x2="-228.02" y2="-102.35"/>
	</g>
	<polygon class="st6" points="-231.534,-121.732 -231.534,-95.739 -231.534,-95.489 -231.284,-95.489 -205.291,-95.489 
		-205.041,-95.489 -205.041,-95.739 -205.041,-121.732 -205.041,-121.982 -205.291,-121.982 -231.284,-121.982 -231.534,-121.982 	
		"/>
</g>
<polygon class="st6" points="-200.466,-121.732 -200.466,-95.739 -200.466,-95.489 -200.216,-95.489 -174.223,-95.489 
	-173.973,-95.489 -173.973,-95.739 -173.973,-121.732 -173.973,-121.982 -174.223,-121.982 -200.216,-121.982 -200.466,-121.982 "/>
<path class="st7" d="M-197.139-103.048"/>
<path class="st7" d="M-197.139-108.064"/>
<path class="st7" d="M-197.139-109.318"/>
<path class="st7" d="M-197.139-115.587"/>
<path class="st7" d="M-179.737-110.572"/>
<path class="st7" d="M-177.674-108.064"/>
<path class="st7" d="M-179.737-106.81"/>
<path class="st7" d="M-177.674-103.048"/>
<path class="st7" d="M-177.674-115.587"/>
<path class="st7" d="M-177.674-109.318"/>
<path class="st7" d="M-179.737-105.556"/>
<path class="st7" d="M-179.737-104.302"/>
<g>
	<path class="st7" d="M-194.819-104.624"/>
	<path class="st7" d="M-194.819-105.878"/>
	<path class="st7" d="M-194.819-107.132"/>
	<path class="st7" d="M-194.819-110.894"/>
	<path class="st7" d="M-194.819-113.402"/>
	<line class="st7" x1="-177.487" y1="-115.115" x2="-196.951" y2="-115.115"/>
	<line class="st7" x1="-177.487" y1="-113.839" x2="-192.381" y2="-113.839"/>
	<line class="st7" x1="-177.487" y1="-112.564" x2="-192.381" y2="-112.564"/>
	<line class="st7" x1="-177.487" y1="-111.287" x2="-192.381" y2="-111.287"/>
	<line class="st7" x1="-177.487" y1="-110.011" x2="-196.951" y2="-110.011"/>
	<line class="st7" x1="-177.487" y1="-108.735" x2="-196.951" y2="-108.735"/>
	<line class="st7" x1="-177.56" y1="-107.46" x2="-192.454" y2="-107.46"/>
	<line class="st7" x1="-177.487" y1="-106.184" x2="-196.951" y2="-106.184"/>
	<line class="st7" x1="-177.487" y1="-104.908" x2="-192.381" y2="-104.908"/>
	<line class="st7" x1="-177.487" y1="-103.631" x2="-192.381" y2="-103.631"/>
	<line class="st7" x1="-177.487" y1="-102.356" x2="-196.951" y2="-102.356"/>
</g>
<polygon class="st6" points="-293.374,-121.725 -293.374,-95.732 -293.374,-95.482 -293.124,-95.482 -267.131,-95.482 
	-266.881,-95.482 -266.881,-95.732 -266.881,-121.725 -266.881,-121.975 -267.131,-121.975 -293.124,-121.975 -293.374,-121.975 "/>
<path class="st7" d="M-270.207-114.423"/>
<path class="st7" d="M-270.207-109.407"/>
<path class="st7" d="M-270.207-108.153"/>
<path class="st7" d="M-270.207-101.883"/>
<path class="st7" d="M-287.609-106.899"/>
<path class="st7" d="M-289.672-109.407"/>
<path class="st7" d="M-287.609-110.661"/>
<path class="st7" d="M-289.672-114.423"/>
<path class="st7" d="M-289.672-101.883"/>
<path class="st7" d="M-289.672-108.153"/>
<path class="st7" d="M-287.609-111.915"/>
<path class="st7" d="M-287.609-113.169"/>
<g>
	<path class="st7" d="M-272.715-113.169"/>
	<path class="st7" d="M-272.715-111.915"/>
	<path class="st7" d="M-272.715-110.661"/>
	<path class="st7" d="M-272.715-106.899"/>
	<path class="st7" d="M-272.715-104.391"/>
	<line class="st7" x1="-290.047" y1="-102.678" x2="-270.583" y2="-102.678"/>
	<line class="st7" x1="-290.047" y1="-103.954" x2="-270.583" y2="-103.954"/>
	<line class="st7" x1="-290.047" y1="-105.23" x2="-270.583" y2="-105.23"/>
	<line class="st7" x1="-290.047" y1="-106.506" x2="-270.583" y2="-106.506"/>
	<line class="st7" x1="-290.047" y1="-107.782" x2="-270.583" y2="-107.782"/>
	<line class="st7" x1="-290.047" y1="-109.058" x2="-270.583" y2="-109.058"/>
	<line class="st7" x1="-289.974" y1="-110.334" x2="-270.51" y2="-110.334"/>
	<line class="st7" x1="-290.047" y1="-111.609" x2="-270.583" y2="-111.609"/>
	<line class="st7" x1="-290.047" y1="-112.885" x2="-270.583" y2="-112.885"/>
	<line class="st7" x1="-290.047" y1="-114.162" x2="-270.583" y2="-114.162"/>
	<line class="st7" x1="-290.047" y1="-115.437" x2="-270.583" y2="-115.437"/>
</g>
<path class="st5" d="M-462.931-6.577l-1.915,13.335c-0.058,0.402-0.431,0.682-0.834,0.624c-0.402-0.058-0.682-0.431-0.624-0.833
	l1.915-13.336c0.058-0.402,0.431-0.681,0.834-0.623C-463.153-7.352-462.873-6.98-462.931-6.577 M-469.748,7.498
	c-0.407,0.003-0.74-0.324-0.742-0.73l-0.106-13.472c-0.003-0.407,0.324-0.739,0.73-0.742c0.408-0.003,0.74,0.324,0.743,0.731
	l0.105,13.471C-469.015,7.163-469.342,7.495-469.748,7.498 M-473.819,7.445c-0.401,0.064-0.779-0.209-0.842-0.61l-2.124-13.304
	c-0.064-0.402,0.209-0.779,0.612-0.843c0.401-0.064,0.778,0.209,0.842,0.611l2.123,13.303
	C-473.144,7.004-473.417,7.381-473.819,7.445 M-460.036-8.963c-0.141-0.169-0.353-0.266-0.573-0.264l-18.538,0.144
	c-0.22,0.002-0.429,0.101-0.568,0.272c-0.14,0.17-0.196,0.393-0.155,0.609l3.092,16.141c0.068,0.351,0.376,0.605,0.734,0.602
	l12.497-0.098c0.356-0.002,0.66-0.258,0.724-0.608l2.949-16.188C-459.834-8.569-459.895-8.794-460.036-8.963"/>
<path class="st8" d="M-462.931-6.577l-1.915,13.335c-0.058,0.402-0.431,0.682-0.834,0.624c-0.402-0.058-0.682-0.431-0.624-0.833
	l1.915-13.336c0.058-0.402,0.431-0.681,0.834-0.623C-463.153-7.352-462.873-6.98-462.931-6.577z M-469.748,7.498
	c-0.407,0.003-0.74-0.324-0.742-0.73l-0.106-13.472c-0.003-0.407,0.324-0.739,0.73-0.742c0.408-0.003,0.74,0.324,0.743,0.731
	l0.105,13.471C-469.015,7.163-469.342,7.495-469.748,7.498z M-473.819,7.445c-0.401,0.064-0.779-0.209-0.842-0.61l-2.124-13.304
	c-0.064-0.402,0.209-0.779,0.612-0.843c0.401-0.064,0.778,0.209,0.842,0.611l2.123,13.303
	C-473.144,7.004-473.417,7.381-473.819,7.445z M-460.036-8.963c-0.141-0.169-0.353-0.266-0.573-0.264l-18.538,0.144
	c-0.22,0.002-0.429,0.101-0.568,0.272c-0.14,0.17-0.196,0.393-0.155,0.609l3.092,16.141c0.068,0.351,0.376,0.605,0.734,0.602
	l12.497-0.098c0.356-0.002,0.66-0.258,0.724-0.608l2.949-16.188C-459.834-8.569-459.895-8.794-460.036-8.963z"/>
<path class="st5" d="M-472.723-13.57L-472.723-13.57l-0.004-0.421l5.49-0.043l0.004,0.421L-472.723-13.57z M-458.986-12.16
	L-458.986-12.16l-2.025,0.016l-0.009-1.171c-0.001-0.091-0.038-0.18-0.103-0.244c-0.065-0.064-0.155-0.1-0.246-0.1l-4.467,0.035
	l-0.009-1.12c-0.002-0.184-0.077-0.363-0.209-0.492c-0.131-0.13-0.311-0.203-0.495-0.201l-6.887,0.054
	c-0.183,0.001-0.363,0.077-0.492,0.208s-0.202,0.312-0.2,0.496l0.009,1.12l-4.164,0.032c-0.091,0.001-0.18,0.039-0.243,0.104
	c-0.065,0.065-0.101,0.154-0.101,0.246l0.009,1.171l-2.197,0.017l0.017,2.225l21.829-0.17L-458.986-12.16z"/>
<path class="st8" d="M-472.723-13.57L-472.723-13.57l-0.004-0.421l5.49-0.043l0.004,0.421L-472.723-13.57z M-458.986-12.16
	L-458.986-12.16l-2.025,0.016l-0.009-1.171c-0.001-0.091-0.038-0.18-0.103-0.244c-0.065-0.064-0.155-0.1-0.246-0.1l-4.467,0.035
	l-0.009-1.12c-0.002-0.184-0.077-0.363-0.209-0.492c-0.131-0.13-0.311-0.203-0.495-0.201l-6.887,0.054
	c-0.183,0.001-0.363,0.077-0.492,0.208s-0.202,0.312-0.2,0.496l0.009,1.12l-4.164,0.032c-0.091,0.001-0.18,0.039-0.243,0.104
	c-0.065,0.065-0.101,0.154-0.101,0.246l0.009,1.171l-2.197,0.017l0.017,2.225l21.829-0.17L-458.986-12.16z"/>
<rect x="-480.826" y="-15.448" class="st9" width="21.868" height="24"/>
<rect x="-139.897" y="-156.216" class="st10" width="34.924" height="19.551"/>
<g>
	<path class="st11" d="M-126.92-145.803v4.238h-0.884v-1.066c-0.416,0.702-1.222,1.132-2.354,1.132
		c-1.547,0-2.496-0.807-2.496-1.989c0-1.054,0.676-1.938,2.639-1.938h2.171v-0.416c0-1.17-0.663-1.807-1.938-1.807
		c-0.884,0-1.716,0.312-2.275,0.806l-0.416-0.688c0.689-0.585,1.703-0.924,2.782-0.924
		C-127.921-148.455-126.92-147.57-126.92-145.803z M-127.843-143.618v-1.118h-2.146c-1.326,0-1.755,0.52-1.755,1.222
		c0,0.793,0.637,1.287,1.729,1.287C-128.974-142.228-128.207-142.722-127.843-143.618z"/>
	<path class="st11" d="M-118.821-148.402v6.838h-0.884v-1.248c-0.481,0.832-1.365,1.313-2.458,1.313
		c-1.742,0-2.886-0.976-2.886-2.938v-3.965h0.923v3.874c0,1.456,0.754,2.197,2.054,2.197c1.43,0,2.327-0.924,2.327-2.483v-3.588
		H-118.821z"/>
	<path class="st11" d="M-117.521-142.345l0.416-0.728c0.546,0.429,1.469,0.767,2.431,0.767c1.3,0,1.833-0.441,1.833-1.118
		c0-1.78-4.433-0.377-4.433-3.081c0-1.118,0.962-1.95,2.704-1.95c0.884,0,1.846,0.247,2.418,0.638l-0.403,0.74
		c-0.598-0.416-1.313-0.585-2.015-0.585c-1.235,0-1.781,0.481-1.781,1.132c0,1.846,4.434,0.455,4.434,3.081
		c0,1.183-1.04,1.95-2.821,1.95C-115.87-141.499-116.962-141.863-117.521-142.345z"/>
</g>
<polygon class="st6" points="-139.647,-156.341 -139.647,-136.341 -139.647,-136.091 -139.397,-136.091 -70.548,-136.091 
	-70.298,-136.091 -70.298,-136.341 -70.298,-156.341 -70.298,-156.591 -70.548,-156.591 -139.397,-156.591 -139.647,-156.591 "/>
<rect x="-139.897" y="-156.841" class="st9" width="69.849" height="21"/>
<rect x="-544.294" y="50.489" class="st11" width="1014" height="21"/>
<path class="st3" d="M82.867,50.489c-2.209,0-4,1.791-4,4v12.382c0,2.209,1.791,4,4,4h77.131c2.209,0,4-1.791,4-4V54.489
	c0-2.209-1.791-4-4-4H82.867z"/>
<rect x="-544.044" y="50.739" class="st12" width="1013.5" height="20.5"/>
<path class="st13" d="M453.562,53.349v1.481c0,0.397,0.187,0.771,0.505,1.009l6.367,4.762c0.258,0.194,0.258,0.583,0,0.776
	l-6.367,4.762c-0.318,0.238-0.505,0.612-0.505,1.01v1.48c0,0.41,0.467,0.644,0.795,0.399l10.111-7.563
	c0.318-0.237,0.318-0.714,0-0.952l-10.11-7.562C454.029,52.705,453.562,52.94,453.562,53.349"/>
<path class="st13" d="M-528.441,68.629v-1.481c0-0.397-0.187-0.771-0.505-1.009l-6.367-4.762c-0.258-0.194-0.258-0.583,0-0.776
	l6.367-4.762c0.318-0.238,0.505-0.612,0.505-1.01v-1.48c0-0.41-0.467-0.644-0.795-0.399l-10.111,7.563
	c-0.318,0.237-0.318,0.714,0,0.952l10.11,7.562C-528.908,69.273-528.441,69.038-528.441,68.629"/>
<rect x="-544.294" y="50.489" class="st9" width="1014" height="21"/>
<rect x="511.478" y="-194.056" class="st11" width="21" height="702.123"/>
<path class="st3" d="M511.478,219.905c0,2.209,1.791,4,4,4h12.382c2.209,0,4-1.791,4-4v-78.286c0-2.209-1.791-4-4-4h-12.382
	c-2.209,0-4,1.791-4,4V219.905z"/>
<rect x="511.728" y="-193.807" class="st12" width="20.5" height="701.624"/>
<path class="st13" d="M514.338-180.521h1.481c0.397,0,0.771-0.19,1.009-0.512l4.762-6.453c0.194-0.262,0.583-0.262,0.776,0
	l4.762,6.453c0.238,0.322,0.612,0.512,1.01,0.512h1.48c0.41,0,0.644-0.474,0.399-0.806l-7.563-10.248
	c-0.237-0.322-0.714-0.322-0.952,0l-7.562,10.248C513.694-180.995,513.929-180.521,514.338-180.521"/>
<path class="st13" d="M529.618,493.731h-1.481c-0.397,0-0.771,0.19-1.009,0.512l-4.762,6.453c-0.194,0.262-0.583,0.262-0.776,0
	l-4.762-6.453c-0.238-0.322-0.612-0.512-1.01-0.512h-1.48c-0.41,0-0.644,0.474-0.399,0.806l7.563,10.248
	c0.237,0.322,0.714,0.322,0.952,0l7.562-10.248C530.262,494.205,530.027,493.731,529.618,493.731"/>
<rect x="511.478" y="-194.057" class="st9" width="21" height="702.124"/>
<g>
	<g>
		<line class="st7" x1="-209.496" y1="-71.077" x2="-222.513" y2="-71.077"/>
		<line class="st7" x1="-209.496" y1="-81.253" x2="-222.513" y2="-81.253"/>
		<line class="st7" x1="-209.496" y1="-76.165" x2="-222.513" y2="-76.165"/>
		<g>
			<path class="st5" d="M-226.155-82.723v2.104h-0.487v-1.714h-0.421v-0.391H-226.155z"/>
		</g>
		<g>
			<path class="st5" d="M-225.394-75.756v0.396h-1.59v-0.315l0.812-0.767c0.187-0.178,0.22-0.286,0.22-0.388
				c0-0.165-0.114-0.262-0.337-0.262c-0.18,0-0.333,0.069-0.436,0.21l-0.355-0.228c0.163-0.238,0.457-0.392,0.836-0.392
				c0.469,0,0.781,0.241,0.781,0.623c0,0.204-0.057,0.391-0.352,0.664l-0.484,0.457H-225.394z"/>
		</g>
		<g>
			<path class="st5" d="M-225.412-70.997c0,0.354-0.273,0.68-0.872,0.68c-0.295,0-0.599-0.081-0.803-0.226l0.189-0.373
				c0.159,0.121,0.382,0.189,0.601,0.189c0.244,0,0.394-0.099,0.394-0.271c0-0.159-0.117-0.258-0.394-0.258h-0.223v-0.322
				l0.433-0.49h-0.896v-0.391h1.473v0.316l-0.475,0.541C-225.605-71.541-225.412-71.307-225.412-70.997z"/>
		</g>
	</g>
	<polygon class="st6" points="-231.541,-89.52 -231.541,-63.52 -231.541,-63.27 -231.291,-63.27 -205.291,-63.27 -205.041,-63.27 
		-205.041,-63.52 -205.041,-89.52 -205.041,-89.77 -205.291,-89.77 -231.291,-89.77 -231.541,-89.77 	"/>
</g>
<polygon class="st6" points="-293.374,-89.52 -293.374,-63.52 -293.374,-63.27 -293.124,-63.27 -267.124,-63.27 -266.874,-63.27 
	-266.874,-63.52 -266.874,-89.52 -266.874,-89.77 -267.124,-89.77 -293.124,-89.77 -293.374,-89.77 "/>
<g>
	<polygon class="st6" points="-263.032,-89.52 -263.032,-63.52 -263.032,-63.27 -262.782,-63.27 -236.782,-63.27 -236.532,-63.27 
		-236.532,-63.52 -236.532,-89.52 -236.532,-89.77 -236.782,-89.77 -262.782,-89.77 -263.032,-89.77 	"/>
	<path class="st7" d="M-241.5-71.395h-13.016 M-241.5-76.528h-13.016 M-241.5-81.66h-13.016"/>
	<path class="st5" d="M-256.603-75.944c0.161-0.156,0.241-0.349,0.241-0.581c0-0.15-0.037-0.288-0.11-0.414
		c-0.073-0.125-0.172-0.224-0.297-0.297c-0.126-0.073-0.264-0.11-0.415-0.11c-0.15,0-0.288,0.037-0.41,0.11
		c-0.122,0.073-0.221,0.172-0.294,0.297c-0.072,0.126-0.11,0.264-0.11,0.414c0,0.232,0.08,0.425,0.238,0.581
		c0.157,0.156,0.35,0.234,0.576,0.234C-256.957-75.71-256.764-75.788-256.603-75.944"/>
	<path class="st5" d="M-257.179-80.578c0.489,0,0.885-0.396,0.885-0.885c0-0.488-0.396-0.885-0.885-0.885
		c-0.488,0-0.885,0.397-0.885,0.885C-258.064-80.974-257.667-80.578-257.179-80.578"/>
	<path class="st5" d="M-256.603-70.927c0.161-0.156,0.241-0.349,0.241-0.581c0-0.15-0.037-0.288-0.11-0.414
		c-0.073-0.125-0.172-0.224-0.297-0.297c-0.126-0.073-0.264-0.11-0.415-0.11c-0.15,0-0.288,0.037-0.41,0.11
		c-0.122,0.073-0.221,0.172-0.294,0.297c-0.072,0.126-0.11,0.264-0.11,0.414c0,0.232,0.08,0.425,0.238,0.581
		c0.157,0.156,0.35,0.234,0.576,0.234C-256.957-70.693-256.764-70.771-256.603-70.927"/>
</g>
<path class="st7" d="M-271.842-71.388h-13.016 M-271.842-76.521h-13.016 M-271.842-81.653h-13.016"/>
<rect x="-288.406" y="-82.422" class="st5" width="1.77" height="1.77"/>
<rect x="-288.406" y="-77.406" class="st5" width="1.77" height="1.77"/>
<rect x="-288.406" y="-72.388" class="st5" width="1.77" height="1.77"/>
<rect x="50.116" y="-157.31" class="st2" width="245" height="57.75"/>
<text transform="matrix(1 0 0 1 124.8134 -131.1143)"><tspan x="0" y="0" class="st5" style="font-family:'Montserrat-Regular'; font-size:13px;">N</tspan><tspan x="10.478" y="0" class="st5" style="font-family:'Montserrat-Regular'; font-size:13px;">e</tspan><tspan x="18.135" y="0" class="st5" style="font-family:'Montserrat-Regular'; font-size:13px;">u</tspan><tspan x="26.753" y="0" class="st5" style="font-family:'Montserrat-Regular'; font-size:13px;">e </tspan><tspan x="38.011" y="0" class="st5" style="font-family:'Montserrat-Regular'; font-size:13px; letter-spacing:-1;">T</tspan><tspan x="44.381" y="0" class="st5" style="font-family:'Montserrat-Regular'; font-size:13px;">e</tspan><tspan x="51.882" y="0" class="st5" style="font-family:'Montserrat-Regular'; font-size:13px;">x</tspan><tspan x="59.097" y="0" class="st5" style="font-family:'Montserrat-Regular'; font-size:13px;">t</tspan><tspan x="64.128" y="0" class="st5" style="font-family:'Montserrat-Regular'; font-size:13px;">b</tspan><tspan x="72.942" y="0" class="st5" style="font-family:'Montserrat-Regular'; font-size:13px;">o</tspan><tspan x="80.742" y="0" class="st5" style="font-family:'Montserrat-Regular'; font-size:13px;">x </tspan></text>
<path class="st14" d="M172.616-109.351c3.707,0,6.713-3.005,6.713-6.712c0-3.708-3.006-6.713-6.713-6.713s-6.712,3.005-6.712,6.713
	C165.904-112.356,168.909-109.351,172.616-109.351z"/>
<rect x="50.116" y="-157.31" class="st9" width="245" height="57.75"/>
<line class="st15" x1="172.616" y1="-119.598" x2="172.616" y2="-112.529"/>
<line class="st15" x1="169.081" y1="-116.032" x2="176.149" y2="-116.032"/>
<path class="st14" d="M61.654-69.516c3.707,0,6.713-3.005,6.713-6.712c0-3.708-3.006-6.713-6.713-6.713
	c-3.707,0-6.712,3.005-6.712,6.713C54.942-72.521,57.947-69.516,61.654-69.516z"/>
<line class="st15" x1="61.654" y1="-79.762" x2="61.654" y2="-72.693"/>
<line class="st15" x1="58.12" y1="-76.197" x2="65.188" y2="-76.197"/>
<g>
	<path class="st16" d="M-434.238-54.38h-3.138v-1.85h8.544v1.85h-3.138v7.956h-2.269V-54.38z"/>
	<path class="st16" d="M-427.617-56.23h2.269v9.806h-2.269V-56.23z"/>
	<path class="st16" d="M-414.523-52.671c0,2.185-1.639,3.544-4.258,3.544h-1.975v2.703h-2.269v-9.806h4.244
		C-416.162-56.23-414.523-54.871-414.523-52.671z M-416.82-52.671c0-1.079-0.701-1.709-2.087-1.709h-1.849v3.403h1.849
		C-417.521-50.977-416.82-51.607-416.82-52.671z"/>
	<path class="st16" d="M-404.401-52.671c0,2.185-1.639,3.544-4.258,3.544h-1.975v2.703h-2.269v-9.806h4.244
		C-406.04-56.23-404.401-54.871-404.401-52.671z M-406.698-52.671c0-1.079-0.701-1.709-2.087-1.709h-1.849v3.403h1.849
		C-407.399-50.977-406.698-51.607-406.698-52.671z"/>
</g>
<path class="st16" d="M-470.866-60.701L-470.866-60.701c-1.054,2.474-1.96,4.602-2.889,6.784h5.729
	C-468.97-56.173-469.852-58.281-470.866-60.701 M-467.373-43.111L-467.373-43.111c-0.346-1.15-0.211-1.759,1.044-1.8
	c0.976-0.033,1.343-0.74,1.02-1.64c-0.507-1.414-1.072-2.81-1.681-4.183c-0.109-0.245-0.55-0.478-0.843-0.484
	c-2.129-0.041-4.261-0.046-6.39,0.005c-0.305,0.008-0.741,0.315-0.877,0.599c-0.558,1.155-1.057,2.342-1.512,3.542
	c-0.57,1.504-0.268,2.026,1.348,2.192c0.783,0.081,1.206,0.319,1.022,1.126c-0.056,0.243-0.355,0.61-0.547,0.613
	c-2.524,0.042-5.049,0.028-7.596,0.028c-0.214-0.956-0.321-1.631,0.868-1.885c0.569-0.122,1.219-0.609,1.515-1.117
	c0.755-1.293,1.377-2.67,1.972-4.049c2.401-5.559,4.761-11.135,7.172-16.689c0.173-0.398,0.634-0.67,0.96-1
	c0.319,0.343,0.766,0.632,0.937,1.037c2.56,6.048,5.079,12.114,7.622,18.17c0.326,0.776,0.705,1.534,1.106,2.275
	c0.507,0.939,1.332,1.389,2.379,1.595c0.265,0.052,0.519,0.638,0.586,1.013c0.032,0.175-0.39,0.621-0.611,0.624
	C-461.031-43.098-464.184-43.111-467.373-43.111"/>
<path class="st5" d="M-373.628-50.649c2.682-0.014,4.762-2.036,4.751-4.621c-0.01-2.367-2.203-4.406-4.733-4.399
	c-2.703,0.008-4.848,2.038-4.825,4.568C-378.412-52.637-376.252-50.636-373.628-50.649 M-368.073-50.636L-368.073-50.636
	c0.393-0.231,0.569-0.207,0.91,0.115c1.249,1.181,2.501,2.361,3.751,3.541c0.086,0.08,0.173,0.159,0.252,0.246
	c0.216,0.237,0.217,0.464-0.012,0.692c-0.249,0.248-0.509,0.488-0.767,0.727c-0.302,0.28-0.548,0.287-0.855,0
	c-1.177-1.103-2.348-2.211-3.522-3.318c-0.132-0.124-0.263-0.25-0.396-0.373c-0.368-0.34-0.394-0.487-0.153-0.896
	c-0.368-0.336-0.737-0.673-1.128-1.029c-1.472,1.07-3.153,1.471-5.011,1.06c-1.415-0.313-2.544-1.054-3.377-2.178
	c-1.65-2.23-1.286-5.335,0.823-7.11c2.222-1.87,5.521-1.904,7.68-0.117c2.217,1.835,2.765,5.106,0.696,7.583
	C-368.812-51.34-368.443-50.989-368.073-50.636"/>
<path class="st17" d="M-373.628-50.649c2.682-0.014,4.762-2.036,4.751-4.621c-0.01-2.367-2.203-4.406-4.733-4.399
	c-2.703,0.008-4.848,2.038-4.825,4.568C-378.412-52.637-376.252-50.636-373.628-50.649z M-368.073-50.636L-368.073-50.636
	c0.393-0.231,0.569-0.207,0.91,0.115c1.249,1.181,2.501,2.361,3.751,3.541c0.086,0.08,0.173,0.159,0.252,0.246
	c0.216,0.237,0.217,0.464-0.012,0.692c-0.249,0.248-0.509,0.488-0.767,0.727c-0.302,0.28-0.548,0.287-0.855,0
	c-1.177-1.103-2.348-2.211-3.522-3.318c-0.132-0.124-0.263-0.25-0.396-0.373c-0.368-0.34-0.394-0.487-0.153-0.896
	c-0.368-0.336-0.737-0.673-1.128-1.029c-1.472,1.07-3.153,1.471-5.011,1.06c-1.415-0.313-2.544-1.054-3.377-2.178
	c-1.65-2.23-1.286-5.335,0.823-7.11c2.222-1.87,5.521-1.904,7.68-0.117c2.217,1.835,2.765,5.106,0.696,7.583
	C-368.812-51.34-368.443-50.989-368.073-50.636z"/>
<path class="st5" d="M-309.913-60.23l2.966,2.98v-2.758c0-0.096-0.055-0.229-0.123-0.297l-3.807-3.826
	c-0.068-0.067-0.178-0.067-0.245,0l-3.93,3.949v2.758c0,0.096,0.055,0.119,0.122,0.051l2.844-2.857
	c0.068-0.068,0.122-0.046,0.122,0.05v7.829h0v2.168c0,0.096-0.055,0.118-0.123,0.05l-2.966-2.98v2.758
	c0,0.096,0.055,0.229,0.123,0.297l3.807,3.826c0.068,0.067,0.178,0.067,0.245,0l3.93-3.949v-2.758c0-0.096-0.055-0.119-0.122-0.051
	l-2.844,2.857c-0.068,0.068-0.122,0.046-0.122-0.05v-7.829h0v-2.168C-310.036-60.276-309.981-60.298-309.913-60.23z"/>
<line class="st18" x1="-346.052" y1="-46.994" x2="-318.219" y2="-46.994"/>
<line class="st18" x1="-346.052" y1="-55.29" x2="-318.219" y2="-55.29"/>
<line class="st18" x1="-346.052" y1="-63.282" x2="-318.219" y2="-63.282"/>
<line class="st18" x1="-331.71" y1="-28.022" x2="-331.71" y2="-7.022"/>
<path class="st5" d="M-324.25-14.179L-324.25-14.179h2.695l-2.603-2.569c-0.138-0.135-0.093-0.245,0.101-0.245h7.006V-18.4
	c0-0.193-0.157-0.35-0.35-0.35h-6.656c-0.194,0-0.239-0.11-0.101-0.246l2.603-2.569h-2.345c-0.193,0-0.462,0.111-0.599,0.246
	l-3.245,3.201c-0.137,0.136-0.137,0.356,0,0.492L-324.25-14.179z"/>
<path class="st5" d="M-340.021-21.391L-340.021-21.391h-2.695l2.603,2.569c0.138,0.135,0.093,0.245-0.101,0.245h-7.006v1.407
	c0,0.193,0.157,0.35,0.35,0.35h6.656c0.194,0,0.239,0.11,0.101,0.246l-2.603,2.569h2.345c0.193,0,0.462-0.111,0.599-0.246
	l3.245-3.201c0.137-0.136,0.137-0.356,0-0.492L-340.021-21.391z"/>
<line class="st19" x1="-15.424" y1="-147.135" x2="-51.447" y2="-147.135"/>
<path class="st20" d="M-23.927-143.989c2.045,0,3.703-1.658,3.703-3.703s-1.658-3.703-3.703-3.703s-3.703,1.658-3.703,3.703
	S-25.972-143.989-23.927-143.989"/>
<g>
	<path class="st5" d="M-0.728-146.934c0,3.12-1.82,4.836-4.459,4.836c-0.91,0-1.781-0.195-2.392-0.585l0.624-1.274
		c0.494,0.325,1.092,0.442,1.729,0.442c1.716,0,2.795-1.066,2.795-3.133v-0.014c-0.546,0.638-1.417,0.949-2.431,0.949
		c-1.794,0-3.133-1.092-3.133-2.795c0-1.807,1.469-2.951,3.328-2.951C-2.184-151.458-0.728-149.859-0.728-146.934z M-2.691-148.598
		c0-0.858-0.676-1.534-1.885-1.534c-1.053,0-1.781,0.598-1.781,1.547s0.715,1.547,1.82,1.547
		C-3.445-147.039-2.691-147.702-2.691-148.598z"/>
	<path class="st5" d="M7.137-145.023c0,1.599-1.157,2.925-3.602,2.925c-1.287,0-2.587-0.39-3.419-1.053l0.715-1.313
		c0.663,0.546,1.651,0.897,2.678,0.897c1.209,0,1.924-0.533,1.924-1.392c0-0.871-0.559-1.417-2.444-1.417H0.793l0.468-4.953h5.343
		v1.417H2.691l-0.195,2.106h0.871C6.058-147.805,7.137-146.635,7.137-145.023z"/>
	<path class="st5" d="M11.556-148.923c0-1.495,0.871-2.496,2.171-2.496s2.184,0.988,2.184,2.496s-0.884,2.496-2.184,2.496
		S11.556-147.428,11.556-148.923z M14.845-148.923c0-1.014-0.416-1.586-1.118-1.586c-0.676,0-1.118,0.585-1.118,1.586
		s0.442,1.586,1.118,1.586C14.429-147.337,14.845-147.91,14.845-148.923z M19.188-151.329h1.274l-6.214,9.101h-1.274L19.188-151.329
		z M17.524-144.633c0-1.495,0.871-2.496,2.171-2.496c1.3,0,2.184,1.001,2.184,2.496s-0.884,2.496-2.184,2.496
		C18.394-142.137,17.524-143.138,17.524-144.633z M20.813-144.633c0-1.001-0.429-1.586-1.118-1.586s-1.118,0.572-1.118,1.586
		c0,1.015,0.429,1.586,1.118,1.586S20.813-143.632,20.813-144.633z"/>
</g>
<rect x="-37.487" y="-92.992" class="st11" width="13.149" height="16.764"/>
<polygon class="st21" points="-37.488,-76.228 -37.488,-76.228 -24.339,-76.228 -24.339,-92.992 -37.488,-92.992 "/>
<rect x="-45.159" y="-93.463" class="st9" width="21.291" height="24"/>
<line class="st22" x1="-40.662" y1="-85.297" x2="-40.662" y2="-74.91"/>
<line class="st23" x1="-38.03" y1="-73.021" x2="-28.381" y2="-73.021"/>
<path class="st21" d="M-27.505-73.021h0.877 M-40.662-73.965v0.944h0.877 M-40.662-88.13v0.944"/>
<polyline class="st21" points="-44.689,-85.042 -44.689,-69.934 -30.655,-69.934 "/>
<rect x="-45.159" y="-93.463" class="st9" width="21.291" height="24"/>
<rect x="-5.913" y="-93.061" class="st11" width="14.674" height="18.705"/>
<polygon class="st24" points="-5.913,-74.356 -5.913,-74.356 8.76,-74.356 8.76,-93.061 -5.913,-93.061 "/>
<rect x="-6.315" y="-93.463" class="st9" width="19.884" height="24"/>
<rect x="-1.506" y="-88.57" class="st5" width="14.674" height="18.705"/>
<polygon class="st25" points="-1.507,-69.865 -1.507,-69.865 13.166,-69.865 13.166,-88.57 -1.507,-88.57 "/>
<rect x="-6.315" y="-93.463" class="st9" width="19.884" height="24"/>
<rect x="-104.806" y="-89.514" class="st10" width="34.924" height="19.551"/>
<text transform="matrix(1 0 0 1 -97.8057 -74.8627)"><tspan x="0" y="0" class="st11" style="font-family:'Montserrat-Regular'; font-size:13px;">e</tspan><tspan x="7.41" y="0" class="st11" style="font-family:'Montserrat-Regular'; font-size:13px;">i</tspan><tspan x="10.335" y="0" class="st11" style="font-family:'Montserrat-Regular'; font-size:13px;">n</tspan></text>
<polygon class="st6" points="-139.814,-89.639 -139.814,-69.639 -139.814,-69.389 -139.564,-69.389 -70.715,-69.389 
	-70.465,-69.389 -70.465,-69.639 -70.465,-89.639 -70.465,-89.889 -70.715,-89.889 -139.564,-89.889 -139.814,-89.889 "/>
<rect x="-140.064" y="-90.139" class="st9" width="70.183" height="21"/>
<line class="st26" x1="1.25" y1="0" x2="1.25" y2="24.26"/>
<path class="st5" d="M9.347,15.818L9.347,15.818h2.592l-2.494-2.46c-0.138-0.135-0.093-0.245,0.101-0.245h6.725v-1.339
	c0-0.193-0.157-0.35-0.35-0.35H9.196l2.743-2.705H9.697c-0.193,0-0.462,0.11-0.599,0.245l-3.102,3.059
	c-0.137,0.135-0.137,0.355,0,0.491L9.347,15.818z"/>
<line class="st26" x1="-25.695" y1="24.093" x2="-25.695" y2="-0.167"/>
<path class="st5" d="M-33.792,8.275L-33.792,8.275h-2.592l2.494,2.46c0.138,0.135,0.093,0.245-0.101,0.245h-6.725v1.339
	c0,0.193,0.157,0.35,0.35,0.35h6.725l-2.743,2.705h2.242c0.193,0,0.462-0.11,0.599-0.245l3.102-3.059
	c0.137-0.135,0.137-0.355,0-0.491L-33.792,8.275z"/>
<line class="st26" x1="-215.437" y1="7.871" x2="-191.177" y2="7.871"/>
<path class="st5" d="M-199.786-0.186L-199.786-0.186v-2.592l-2.46,2.494c-0.135,0.138-0.245,0.093-0.245-0.101V-7.11h-1.339
	c-0.193,0-0.35,0.157-0.35,0.35v6.725l-2.705-2.743v2.242c0,0.193,0.11,0.462,0.245,0.599l3.059,3.102
	c0.135,0.137,0.355,0.137,0.491,0L-199.786-0.186z"/>
<path class="st5" d="M-206.718,14.966L-206.718,14.966v2.592l2.46-2.494c0.135-0.138,0.245-0.093,0.245,0.101v6.725h1.339
	c0.193,0,0.35-0.157,0.35-0.35v-6.725l2.705,2.743v-2.242c0-0.193-0.11-0.462-0.245-0.599l-3.059-3.102
	c-0.135-0.137-0.355-0.137-0.491,0L-206.718,14.966z"/>
<line class="st26" x1="-158.991" y1="20.682" x2="-158.991" y2="-3.578"/>
<path class="st5" d="M-167.049,5.031L-167.049,5.031h-2.592l2.494,2.46c0.138,0.135,0.093,0.245-0.101,0.245h-6.725v1.339
	c0,0.193,0.157,0.35,0.35,0.35h6.725l-2.743,2.705h2.242c0.193,0,0.462-0.11,0.599-0.245l3.102-3.059
	c0.137-0.135,0.137-0.355,0-0.491L-167.049,5.031z"/>
<path class="st5" d="M-151.897,11.963L-151.897,11.963h2.592l-2.494-2.46c-0.138-0.135-0.093-0.245,0.101-0.245h6.725V7.919
	c0-0.193-0.157-0.35-0.35-0.35h-6.725l2.743-2.705h-2.242c-0.193,0-0.462,0.11-0.599,0.245l-3.102,3.059
	c-0.137,0.135-0.137,0.355,0,0.491L-151.897,11.963z"/>
<line class="st26" x1="-126.849" y1="8.155" x2="-102.59" y2="8.155"/>
<path class="st5" d="M-118.13,15.249L-118.13,15.249v2.592l2.46-2.494c0.135-0.138,0.245-0.093,0.245,0.101v6.725h1.339
	c0.193,0,0.35-0.157,0.35-0.35v-6.725l2.705,2.743v-2.242c0-0.193-0.11-0.462-0.245-0.599l-3.059-3.102
	c-0.135-0.137-0.355-0.137-0.491,0L-118.13,15.249z"/>
<line class="st26" x1="-81.738" y1="19.41" x2="-57.478" y2="19.41"/>
<path class="st5" d="M-65.92,11.021L-65.92,11.021V8.429l-2.46,2.494c-0.135,0.138-0.245,0.093-0.245-0.101V4.097h-1.339
	c-0.193,0-0.35,0.157-0.35,0.35v6.725l-2.705-2.743v2.242c0,0.193,0.11,0.462,0.245,0.599l3.059,3.102
	c0.135,0.137,0.355,0.137,0.491,0L-65.92,11.021z"/>
<rect x="64.125" y="-7.516" class="st11" width="15.769" height="20.056"/>
<line class="st27" x1="67.082" y1="12.54" x2="77.923" y2="12.54"/>
<line class="st28" x1="79.894" y1="9.532" x2="79.894" y2="-5.51"/>
<line class="st27" x1="76.938" y1="-7.516" x2="66.097" y2="-7.516"/>
<line class="st28" x1="64.125" y1="-4.508" x2="64.125" y2="10.534"/>
<path class="st21" d="M64.125,11.537v1.003h0.986 M65.111-7.516h-0.986v1.003 M79.894-6.513v-1.003h-0.985 M78.909,12.54h0.985
	v-1.003"/>
<polygon class="st11" points="52.889,22.54 52.889,22.54 68.658,22.54 68.658,2.484 52.889,2.484 "/>
<line class="st27" x1="55.846" y1="22.54" x2="66.687" y2="22.54"/>
<line class="st28" x1="68.658" y1="19.532" x2="68.658" y2="4.49"/>
<line class="st27" x1="65.702" y1="2.484" x2="54.861" y2="2.484"/>
<line class="st28" x1="52.889" y1="5.492" x2="52.889" y2="20.534"/>
<path class="st21" d="M52.889,21.537v1.003h0.986 M53.875,2.484h-0.986v1.003 M68.658,3.487V2.484h-0.985 M67.673,22.54h0.985
	v-1.003"/>
<polygon class="st11" points="43.415,30.54 43.415,30.54 59.184,30.54 59.184,10.484 43.415,10.484 "/>
<polygon class="st21" points="43.415,30.54 43.415,30.54 59.184,30.54 59.184,10.484 43.415,10.484 "/>
<g>
	<polygon class="st11" points="117.252,16.846 117.252,16.846 133.021,16.846 133.021,-3.21 117.252,-3.21 	"/>
	<polygon class="st21" points="117.252,16.846 117.252,16.846 133.021,16.846 133.021,-3.21 117.252,-3.21 	"/>
	<line class="st29" x1="113.488" y1="5.344" x2="113.488" y2="18.848"/>
	<line class="st30" x1="116.625" y1="20.649" x2="128.128" y2="20.649"/>
	<path class="st21" d="M129.173,20.649h1.046 M113.488,19.749v0.9h1.046 M113.488,2.644v0.9"/>
</g>
<g>
	<g>
		<rect x="189.792" y="-14.931" class="st11" width="15.769" height="20.056"/>
		<polygon class="st21" points="189.792,5.125 189.792,5.125 205.561,5.125 205.561,-14.931 189.792,-14.931 		"/>
		<polygon class="st11" points="178.555,15.125 178.555,15.125 194.324,15.125 194.324,-4.931 178.555,-4.931 		"/>
		<line class="st27" x1="181.512" y1="15.125" x2="192.353" y2="15.125"/>
		<line class="st28" x1="194.324" y1="12.117" x2="194.324" y2="-2.925"/>
		<line class="st27" x1="191.368" y1="-4.931" x2="180.527" y2="-4.931"/>
		<line class="st28" x1="178.555" y1="-1.922" x2="178.555" y2="13.12"/>
		<path class="st21" d="M178.555,14.122v1.003h0.986 M179.541-4.931h-0.986v1.003 M194.324-3.928v-1.003h-0.985 M193.339,15.125
			h0.985v-1.003"/>
		<polygon class="st11" points="169.082,23.125 169.082,23.125 184.851,23.125 184.851,3.069 169.082,3.069 		"/>
		<line class="st27" x1="172.039" y1="23.125" x2="182.88" y2="23.125"/>
		<line class="st28" x1="184.851" y1="20.117" x2="184.851" y2="5.075"/>
		<line class="st27" x1="181.894" y1="3.069" x2="171.053" y2="3.069"/>
		<line class="st28" x1="169.082" y1="6.078" x2="169.082" y2="21.12"/>
		<path class="st21" d="M169.081,22.122v1.003h0.986 M170.067,3.069h-0.986v1.003 M184.85,4.072V3.069h-0.985 M183.865,23.125h0.985
			v-1.003"/>
	</g>
	<line class="st27" x1="245.205" y1="18.611" x2="256.046" y2="18.611"/>
	<line class="st28" x1="258.017" y1="15.602" x2="258.017" y2="0.56"/>
	<line class="st27" x1="255.061" y1="-1.445" x2="244.22" y2="-1.445"/>
	<line class="st28" x1="242.248" y1="1.563" x2="242.248" y2="16.605"/>
	<path class="st21" d="M242.248,17.608v1.003h0.986 M243.234-1.445h-0.986v1.003 M258.017-0.442v-1.003h-0.985 M257.032,18.611
		h0.985v-1.003"/>
	<polyline class="st21" points="238.484,4.409 238.484,22.414 255.215,22.414 	"/>
</g>
<g>
	<defs>
		<rect id="SVGID_1_" x="-516.79" y="112.447" width="241.682" height="1"/>
	</defs>
	<clipPath id="SVGID_00000183938897731112978840000000541757054106179995_">
		<use xlink:href="#SVGID_1_"  style="overflow:visible;"/>
	</clipPath>
	
		<line style="clip-path:url(#SVGID_00000183938897731112978840000000541757054106179995_);fill:none;stroke:#B2B2B2;stroke-linecap:round;stroke-linejoin:round;stroke-dasharray:0,3.009;" x1="-513.282" y1="112.947" x2="-277.112" y2="112.947"/>
	
		<path style="clip-path:url(#SVGID_00000183938897731112978840000000541757054106179995_);fill:none;stroke:#B2B2B2;stroke-linecap:round;stroke-linejoin:round;" d="
		M-275.608,112.947L-275.608,112.947 M-516.29,112.947L-516.29,112.947"/>
</g>
<circle class="st33" cx="-469.892" cy="-108.265" r="12.75"/>
<polygon class="st3" points="-326.5,-123.288 -339.5,-123.288 -333.132,-112.813 "/>
<polygon class="st5" points="-318.476,5.254 -328.951,11.622 -318.476,18.254 "/>
<polygon class="st5" points="-347.523,18.254 -337.048,11.886 -347.523,5.254 "/>
<polygon class="st5" points="-264.97,5.254 -275.445,11.622 -264.97,18.254 "/>
<polygon class="st5" points="-300.147,18.254 -289.672,11.886 -300.147,5.254 "/>
<rect x="-139.897" y="-123.277" class="st10" width="34.924" height="19.551"/>
<polygon class="st6" points="-139.647,-123.402 -139.647,-103.402 -139.647,-103.152 -139.397,-103.152 -70.548,-103.152 
	-70.298,-103.152 -70.298,-103.402 -70.298,-123.402 -70.298,-123.652 -70.548,-123.652 -139.397,-123.652 -139.647,-123.652 "/>
<rect x="-139.897" y="-123.902" class="st9" width="69.849" height="21"/>
<rect x="-104.533" y="-57.249" class="st10" width="34.924" height="19.551"/>
<polygon class="st6" points="-139.541,-57.374 -139.541,-37.374 -139.541,-37.124 -139.291,-37.124 -70.442,-37.124 
	-70.192,-37.124 -70.192,-37.374 -70.192,-57.374 -70.192,-57.624 -70.442,-57.624 -139.291,-57.624 -139.541,-57.624 "/>
<rect x="-139.791" y="-57.874" class="st9" width="70.183" height="21"/>
<line class="st19" x1="-16.502" y1="-127.348" x2="-52.525" y2="-127.348"/>
<path class="st20" d="M-25.005-124.201c2.045,0,3.703-1.658,3.703-3.703s-1.658-3.703-3.703-3.703s-3.703,1.658-3.703,3.703
	S-27.05-124.201-25.005-124.201"/>
<line class="st19" x1="291.822" y1="-96.568" x2="255.799" y2="-96.568"/>
<path class="st20" d="M283.319-93.422c2.045,0,3.703-1.658,3.703-3.703c0-2.045-1.658-3.703-3.703-3.703
	c-2.045,0-3.703,1.658-3.703,3.703C279.616-95.08,281.274-93.422,283.319-93.422"/>
</svg>
