<?xml version="1.0" encoding="utf-8"?>
<!-- Generator: Adobe Illustrator 26.0.3, SVG Export Plug-In . SVG Version: 6.00 Build 0)  -->
<svg version="1.1" id="Ebene_1" xmlns="http://www.w3.org/2000/svg" xmlns:xlink="http://www.w3.org/1999/xlink" x="0px" y="0px"
	 width="24.26px" height="16.563px" viewBox="0 0 24.26 16.563" style="enable-background:new 0 0 24.26 16.563;"
	 xml:space="preserve">
<style type="text/css">
	.st0{fill:none;stroke:#C5C5C5;stroke-width:3;stroke-linecap:round;stroke-linejoin:round;}
	.st1{fill:#FFAEFF;stroke:#4F4D4D;stroke-width:0.5;}
	.st2{fill:#F8F8F8;}
	.st3{fill:#0E689A;}
	.st4{fill:none;stroke:#B2B1B1;stroke-width:0.65;stroke-miterlimit:10;}
	.st5{fill:#B2B1B1;}
	.st6{fill:none;stroke:#B2B2B2;stroke-width:0.5;stroke-miterlimit:10;}
	.st7{fill:none;stroke:#B2B1B1;stroke-width:0.3;stroke-miterlimit:10;}
	.st8{fill:none;stroke:#FFFFFF;stroke-width:0.021;}
	.st9{fill:none;}
	.st10{fill:#0E6899;}
	.st11{fill:#FFFFFF;}
	.st12{fill:none;stroke:#C5C5C5;stroke-width:0.5;stroke-linecap:round;stroke-linejoin:round;}
	.st13{fill:#C5C5C5;}
	.st14{fill:none;stroke:#B2B1B1;stroke-width:0.5;}
	.st15{fill:none;stroke:#B2B1B1;stroke-width:1.2;}
	.st16{fill:#B2B2B2;}
	.st17{fill:none;stroke:#FFFFFF;stroke-width:0.001;}
	.st18{fill:none;stroke:#B2B1B1;stroke-width:1.712;}
	.st19{fill:none;stroke:#B2B1B1;stroke-width:2;}
	.st20{fill:#AD5E7A;}
	.st21{fill:none;stroke:#B2B1B1;stroke-width:0.941;}
	.st22{fill:none;stroke:#B2B1B1;stroke-width:0.941;stroke-dasharray:1.889,1.889;}
	.st23{fill:none;stroke:#B2B1B1;stroke-width:0.941;stroke-dasharray:1.754,1.754;}
	.st24{fill:none;stroke:#B2B1B1;stroke-width:0.804;}
	.st25{fill:none;stroke:#FFFFFF;stroke-width:0.804;}
	.st26{fill:none;stroke:#B2B1B1;stroke-width:2.5;}
	.st27{fill:none;stroke:#B2B1B1;stroke-width:0.941;stroke-dasharray:1.971,1.971;}
	.st28{fill:none;stroke:#B2B1B1;stroke-width:0.941;stroke-dasharray:2.006,2.006;}
	.st29{fill:none;stroke:#B2B1B1;stroke-width:0.941;stroke-dasharray:1.801,1.801;}
	.st30{fill:none;stroke:#B2B1B1;stroke-width:0.941;stroke-dasharray:2.091,2.091;}
	
		.st31{clip-path:url(#SVGID_00000088095498600469232340000009832291025737256629_);fill:none;stroke:#B2B2B2;stroke-linecap:round;stroke-linejoin:round;stroke-dasharray:0,3.009;}
	
		.st32{clip-path:url(#SVGID_00000088095498600469232340000009832291025737256629_);fill:none;stroke:#B2B2B2;stroke-linecap:round;stroke-linejoin:round;}
	.st33{fill:none;stroke:#4F4D4D;stroke-width:0.5;}
</style>
<polyline class="st0" points="1603.739,814.294 1597.489,805.294 1590.739,814.294 "/>
<circle class="st1" cx="-388.154" cy="-148.455" r="12.75"/>
<rect x="-355.693" y="-159.469" class="st2" width="119.902" height="21"/>
<polygon class="st3" points="-244.864,-154.207 -257.864,-154.207 -251.496,-143.732 "/>
<g>
	<g>
		<line class="st4" x1="-131.852" y1="-141.949" x2="-121.569" y2="-141.949"/>
		<g>
			<path class="st5" d="M-130.565-147.175v-5.175h1.3v5.122c0,2.016,0.923,2.926,2.561,2.926c1.638,0,2.574-0.91,2.574-2.926v-5.122
				h1.261v5.175c0,2.639-1.443,4.029-3.848,4.029C-129.109-143.145-130.565-144.536-130.565-147.175z"/>
		</g>
	</g>
	<polygon class="st6" points="-139.96,-160.149 -139.96,-134.149 -139.96,-133.899 -139.71,-133.899 -113.71,-133.899 
		-113.46,-133.899 -113.46,-134.149 -113.46,-160.149 -113.46,-160.399 -113.71,-160.399 -139.71,-160.399 -139.96,-160.399 	"/>
</g>
<g>
	<g>
		<path class="st5" d="M-161.314-152.076h1.3l-1.82,9.101h-1.3L-161.314-152.076z"/>
	</g>
	<polygon class="st6" points="-174.825,-160.526 -174.825,-134.526 -174.825,-134.276 -174.575,-134.276 -148.575,-134.276 
		-148.325,-134.276 -148.325,-134.526 -148.325,-160.526 -148.325,-160.776 -148.575,-160.776 -174.575,-160.776 -174.825,-160.776 
			"/>
</g>
<g>
	<g>
		<path class="st5" d="M-194.463-145.407c0,1.573-1.248,2.483-3.64,2.483h-4.706v-9.101h4.446c2.275,0,3.445,0.949,3.445,2.366
			c0,0.91-0.468,1.612-1.209,2.002C-195.113-147.331-194.463-146.55-194.463-145.407z M-200.716-150.438v2.146h2.093
			c1.027,0,1.586-0.364,1.586-1.079s-0.559-1.066-1.586-1.066H-200.716z M-196.582-145.628c0-0.767-0.585-1.131-1.677-1.131h-2.457
			v2.249h2.457C-197.167-144.509-196.582-144.847-196.582-145.628z"/>
	</g>
	<polygon class="st6" points="-211.886,-160.474 -211.886,-134.474 -211.886,-134.224 -211.636,-134.224 -185.636,-134.224 
		-185.386,-134.224 -185.386,-134.474 -185.386,-160.474 -185.386,-160.724 -185.636,-160.724 -211.636,-160.724 -211.886,-160.724 
			"/>
</g>
<path class="st7" d="M-157.698-118.52"/>
<path class="st7" d="M-160.206-117.266"/>
<path class="st7" d="M-160.206-116.012"/>
<path class="st7" d="M-160.206-114.758"/>
<path class="st7" d="M-157.698-113.504"/>
<path class="st7" d="M-157.698-112.25"/>
<path class="st7" d="M-160.206-110.996"/>
<path class="st7" d="M-160.206-108.488"/>
<path class="st7" d="M-157.698-105.981"/>
<g>
	<path class="st7" d="M-177.162-113.504"/>
	<path class="st7" d="M-177.162-118.52"/>
	<path class="st7" d="M-177.162-105.981"/>
	<path class="st7" d="M-177.162-112.25"/>
	<g>
		<path class="st7" d="M-175.1-110.996"/>
		<path class="st7" d="M-175.1-114.758"/>
		<path class="st7" d="M-175.1-116.012"/>
		<path class="st7" d="M-175.1-117.266"/>
		<line class="st7" x1="-177.538" y1="-106.775" x2="-158.074" y2="-106.775"/>
		<line class="st7" x1="-177.538" y1="-108.051" x2="-162.644" y2="-108.051"/>
		<line class="st7" x1="-177.538" y1="-109.327" x2="-162.644" y2="-109.327"/>
		<line class="st7" x1="-177.538" y1="-110.603" x2="-162.644" y2="-110.603"/>
		<line class="st7" x1="-177.538" y1="-111.879" x2="-158.074" y2="-111.879"/>
		<line class="st7" x1="-177.538" y1="-113.155" x2="-158.074" y2="-113.155"/>
		<line class="st7" x1="-177.465" y1="-114.431" x2="-162.571" y2="-114.431"/>
		<line class="st7" x1="-177.538" y1="-115.707" x2="-158.074" y2="-115.707"/>
		<line class="st7" x1="-177.538" y1="-116.982" x2="-162.644" y2="-116.982"/>
		<line class="st7" x1="-177.538" y1="-118.259" x2="-162.644" y2="-118.259"/>
		<line class="st7" x1="-177.538" y1="-119.534" x2="-158.074" y2="-119.534"/>
	</g>
	<polygon class="st6" points="-180.865,-125.829 -180.865,-99.836 -180.865,-99.586 -180.615,-99.586 -154.622,-99.586 
		-154.372,-99.586 -154.372,-99.836 -154.372,-125.829 -154.372,-126.079 -154.622,-126.079 -180.615,-126.079 -180.865,-126.079 	
		"/>
</g>
<g>
	<g>
		<line class="st7" x1="-126.818" y1="-119.218" x2="-146.282" y2="-119.218"/>
		<line class="st7" x1="-129.326" y1="-117.941" x2="-144.22" y2="-117.941"/>
		<line class="st7" x1="-129.326" y1="-116.664" x2="-144.22" y2="-116.664"/>
		<line class="st7" x1="-129.326" y1="-115.387" x2="-144.22" y2="-115.387"/>
		<line class="st7" x1="-126.818" y1="-114.11" x2="-146.282" y2="-114.11"/>
		<line class="st7" x1="-126.818" y1="-112.833" x2="-146.282" y2="-112.833"/>
		<line class="st7" x1="-129.326" y1="-111.556" x2="-144.22" y2="-111.556"/>
		<line class="st7" x1="-126.818" y1="-110.279" x2="-146.282" y2="-110.279"/>
		<line class="st7" x1="-129.326" y1="-109.001" x2="-144.22" y2="-109.001"/>
		<line class="st7" x1="-129.326" y1="-107.724" x2="-144.22" y2="-107.724"/>
		<line class="st7" x1="-126.818" y1="-106.448" x2="-146.282" y2="-106.448"/>
	</g>
	<polygon class="st6" points="-149.796,-125.829 -149.796,-99.836 -149.796,-99.586 -149.546,-99.586 -123.553,-99.586 
		-123.303,-99.586 -123.303,-99.836 -123.303,-125.829 -123.303,-126.079 -123.553,-126.079 -149.546,-126.079 -149.796,-126.079 	
		"/>
</g>
<polygon class="st6" points="-118.727,-125.829 -118.727,-99.836 -118.727,-99.586 -118.477,-99.586 -92.484,-99.586 
	-92.234,-99.586 -92.234,-99.836 -92.234,-125.829 -92.234,-126.079 -92.484,-126.079 -118.477,-126.079 -118.727,-126.079 "/>
<path class="st7" d="M-115.401-107.145"/>
<path class="st7" d="M-115.401-112.161"/>
<path class="st7" d="M-115.401-113.415"/>
<path class="st7" d="M-115.401-119.685"/>
<path class="st7" d="M-97.998-114.669"/>
<path class="st7" d="M-95.936-112.161"/>
<path class="st7" d="M-97.998-110.907"/>
<path class="st7" d="M-95.936-107.145"/>
<path class="st7" d="M-95.936-119.685"/>
<path class="st7" d="M-95.936-113.415"/>
<path class="st7" d="M-97.998-109.653"/>
<path class="st7" d="M-97.998-108.399"/>
<g>
	<path class="st7" d="M-113.081-108.721"/>
	<path class="st7" d="M-113.081-109.975"/>
	<path class="st7" d="M-113.081-111.23"/>
	<path class="st7" d="M-113.081-114.991"/>
	<path class="st7" d="M-113.081-117.499"/>
	<line class="st7" x1="-95.749" y1="-119.212" x2="-115.213" y2="-119.212"/>
	<line class="st7" x1="-95.749" y1="-117.937" x2="-110.643" y2="-117.937"/>
	<line class="st7" x1="-95.749" y1="-116.661" x2="-110.643" y2="-116.661"/>
	<line class="st7" x1="-95.749" y1="-115.384" x2="-110.643" y2="-115.384"/>
	<line class="st7" x1="-95.749" y1="-114.109" x2="-115.213" y2="-114.109"/>
	<line class="st7" x1="-95.749" y1="-112.833" x2="-115.213" y2="-112.833"/>
	<line class="st7" x1="-95.822" y1="-111.557" x2="-110.716" y2="-111.557"/>
	<line class="st7" x1="-95.749" y1="-110.281" x2="-115.213" y2="-110.281"/>
	<line class="st7" x1="-95.749" y1="-109.005" x2="-110.643" y2="-109.005"/>
	<line class="st7" x1="-95.749" y1="-107.729" x2="-110.643" y2="-107.729"/>
	<line class="st7" x1="-95.749" y1="-106.453" x2="-115.213" y2="-106.453"/>
</g>
<polygon class="st6" points="-211.636,-125.823 -211.636,-99.83 -211.636,-99.58 -211.386,-99.58 -185.393,-99.58 -185.143,-99.58 
	-185.143,-99.83 -185.143,-125.823 -185.143,-126.073 -185.393,-126.073 -211.386,-126.073 -211.636,-126.073 "/>
<path class="st7" d="M-188.469-118.52"/>
<path class="st7" d="M-188.469-113.504"/>
<path class="st7" d="M-188.469-112.25"/>
<path class="st7" d="M-188.469-105.981"/>
<path class="st7" d="M-205.871-110.996"/>
<path class="st7" d="M-207.933-113.504"/>
<path class="st7" d="M-205.871-114.758"/>
<path class="st7" d="M-207.933-118.52"/>
<path class="st7" d="M-207.933-105.981"/>
<path class="st7" d="M-207.933-112.25"/>
<path class="st7" d="M-205.871-116.012"/>
<path class="st7" d="M-205.871-117.266"/>
<g>
	<path class="st7" d="M-190.977-117.266"/>
	<path class="st7" d="M-190.977-116.012"/>
	<path class="st7" d="M-190.977-114.758"/>
	<path class="st7" d="M-190.977-110.996"/>
	<path class="st7" d="M-190.977-108.488"/>
	<line class="st7" x1="-208.309" y1="-106.775" x2="-188.845" y2="-106.775"/>
	<line class="st7" x1="-208.309" y1="-108.051" x2="-188.845" y2="-108.051"/>
	<line class="st7" x1="-208.309" y1="-109.327" x2="-188.845" y2="-109.327"/>
	<line class="st7" x1="-208.309" y1="-110.603" x2="-188.845" y2="-110.603"/>
	<line class="st7" x1="-208.309" y1="-111.879" x2="-188.845" y2="-111.879"/>
	<line class="st7" x1="-208.309" y1="-113.155" x2="-188.845" y2="-113.155"/>
	<line class="st7" x1="-208.236" y1="-114.431" x2="-188.772" y2="-114.431"/>
	<line class="st7" x1="-208.309" y1="-115.707" x2="-188.845" y2="-115.707"/>
	<line class="st7" x1="-208.309" y1="-116.982" x2="-188.845" y2="-116.982"/>
	<line class="st7" x1="-208.309" y1="-118.259" x2="-188.845" y2="-118.259"/>
	<line class="st7" x1="-208.309" y1="-119.534" x2="-188.845" y2="-119.534"/>
</g>
<path class="st5" d="M-381.193-10.674l-1.915,13.335c-0.058,0.402-0.431,0.682-0.834,0.624c-0.402-0.058-0.682-0.431-0.624-0.833
	l1.915-13.336c0.058-0.402,0.431-0.681,0.834-0.623C-381.415-11.449-381.135-11.077-381.193-10.674 M-388.01,3.401
	c-0.407,0.003-0.74-0.324-0.742-0.73l-0.106-13.472c-0.003-0.407,0.324-0.739,0.73-0.742c0.408-0.003,0.74,0.324,0.743,0.731
	l0.105,13.471C-387.277,3.066-387.604,3.398-388.01,3.401 M-392.081,3.348c-0.401,0.064-0.779-0.209-0.842-0.61l-2.124-13.304
	c-0.064-0.402,0.209-0.779,0.612-0.843c0.401-0.064,0.778,0.209,0.842,0.611l2.123,13.303
	C-391.406,2.907-391.679,3.284-392.081,3.348 M-378.298-13.06c-0.141-0.169-0.353-0.266-0.573-0.264l-18.538,0.144
	c-0.22,0.002-0.429,0.101-0.568,0.272c-0.14,0.17-0.196,0.393-0.155,0.609l3.092,16.141c0.068,0.351,0.376,0.605,0.734,0.602
	l12.497-0.098c0.356-0.002,0.66-0.258,0.724-0.608l2.949-16.188C-378.096-12.666-378.157-12.891-378.298-13.06"/>
<path class="st8" d="M-381.193-10.674l-1.915,13.335c-0.058,0.402-0.431,0.682-0.834,0.624c-0.402-0.058-0.682-0.431-0.624-0.833
	l1.915-13.336c0.058-0.402,0.431-0.681,0.834-0.623C-381.415-11.449-381.135-11.077-381.193-10.674z M-388.01,3.401
	c-0.407,0.003-0.74-0.324-0.742-0.73l-0.106-13.472c-0.003-0.407,0.324-0.739,0.73-0.742c0.408-0.003,0.74,0.324,0.743,0.731
	l0.105,13.471C-387.277,3.066-387.604,3.398-388.01,3.401z M-392.081,3.348c-0.401,0.064-0.779-0.209-0.842-0.61l-2.124-13.304
	c-0.064-0.402,0.209-0.779,0.612-0.843c0.401-0.064,0.778,0.209,0.842,0.611l2.123,13.303
	C-391.406,2.907-391.679,3.284-392.081,3.348z M-378.298-13.06c-0.141-0.169-0.353-0.266-0.573-0.264l-18.538,0.144
	c-0.22,0.002-0.429,0.101-0.568,0.272c-0.14,0.17-0.196,0.393-0.155,0.609l3.092,16.141c0.068,0.351,0.376,0.605,0.734,0.602
	l12.497-0.098c0.356-0.002,0.66-0.258,0.724-0.608l2.949-16.188C-378.096-12.666-378.157-12.891-378.298-13.06z"/>
<path class="st5" d="M-390.985-17.667L-390.985-17.667l-0.004-0.421l5.49-0.043l0.004,0.421L-390.985-17.667z M-377.248-16.257
	L-377.248-16.257l-2.025,0.016l-0.009-1.171c-0.001-0.091-0.038-0.18-0.103-0.244c-0.065-0.064-0.155-0.1-0.246-0.1l-4.467,0.035
	l-0.009-1.12c-0.002-0.184-0.077-0.363-0.209-0.492c-0.131-0.13-0.311-0.203-0.495-0.201l-6.887,0.054
	c-0.183,0.001-0.363,0.077-0.492,0.208s-0.202,0.312-0.2,0.496l0.009,1.12l-4.164,0.032c-0.091,0.001-0.18,0.039-0.243,0.104
	c-0.065,0.065-0.101,0.154-0.101,0.246l0.009,1.171l-2.197,0.017l0.017,2.225l21.829-0.17L-377.248-16.257z"/>
<path class="st8" d="M-390.985-17.667L-390.985-17.667l-0.004-0.421l5.49-0.043l0.004,0.421L-390.985-17.667z M-377.248-16.257
	L-377.248-16.257l-2.025,0.016l-0.009-1.171c-0.001-0.091-0.038-0.18-0.103-0.244c-0.065-0.064-0.155-0.1-0.246-0.1l-4.467,0.035
	l-0.009-1.12c-0.002-0.184-0.077-0.363-0.209-0.492c-0.131-0.13-0.311-0.203-0.495-0.201l-6.887,0.054
	c-0.183,0.001-0.363,0.077-0.492,0.208s-0.202,0.312-0.2,0.496l0.009,1.12l-4.164,0.032c-0.091,0.001-0.18,0.039-0.243,0.104
	c-0.065,0.065-0.101,0.154-0.101,0.246l0.009,1.171l-2.197,0.017l0.017,2.225l21.829-0.17L-377.248-16.257z"/>
<rect x="-399.088" y="-19.545" class="st9" width="21.868" height="24"/>
<rect x="-58.159" y="-160.313" class="st10" width="34.924" height="19.551"/>
<g>
	<path class="st11" d="M-45.181-149.9v4.238h-0.884v-1.066c-0.416,0.702-1.222,1.132-2.354,1.132c-1.547,0-2.496-0.807-2.496-1.989
		c0-1.054,0.676-1.938,2.639-1.938h2.171v-0.416c0-1.17-0.663-1.807-1.938-1.807c-0.884,0-1.716,0.312-2.275,0.806l-0.416-0.688
		c0.689-0.585,1.703-0.924,2.782-0.924C-46.182-152.552-45.181-151.668-45.181-149.9z M-46.104-147.715v-1.118h-2.146
		c-1.326,0-1.755,0.52-1.755,1.222c0,0.793,0.637,1.287,1.729,1.287C-47.236-146.325-46.469-146.819-46.104-147.715z"/>
	<path class="st11" d="M-37.082-152.5v6.838h-0.884v-1.248c-0.481,0.832-1.365,1.313-2.458,1.313c-1.742,0-2.886-0.976-2.886-2.938
		v-3.965h0.923v3.874c0,1.456,0.754,2.197,2.054,2.197c1.43,0,2.327-0.924,2.327-2.483v-3.588H-37.082z"/>
	<path class="st11" d="M-35.783-146.442l0.416-0.728c0.546,0.429,1.469,0.767,2.431,0.767c1.3,0,1.833-0.441,1.833-1.118
		c0-1.78-4.433-0.377-4.433-3.081c0-1.118,0.962-1.95,2.704-1.95c0.884,0,1.846,0.247,2.418,0.638l-0.403,0.74
		c-0.598-0.416-1.313-0.585-2.015-0.585c-1.235,0-1.781,0.481-1.781,1.132c0,1.846,4.434,0.455,4.434,3.081
		c0,1.183-1.04,1.95-2.821,1.95C-34.132-145.596-35.224-145.961-35.783-146.442z"/>
</g>
<polygon class="st6" points="-57.909,-160.438 -57.909,-140.438 -57.909,-140.188 -57.659,-140.188 11.19,-140.188 11.44,-140.188 
	11.44,-140.438 11.44,-160.438 11.44,-160.688 11.19,-160.688 -57.659,-160.688 -57.909,-160.688 "/>
<rect x="-58.159" y="-160.938" class="st9" width="69.849" height="21"/>
<rect x="-462.556" y="46.392" class="st11" width="1014" height="21"/>
<path class="st3" d="M164.605,46.392c-2.209,0-4,1.791-4,4v12.382c0,2.209,1.791,4,4,4h77.131c2.209,0,4-1.791,4-4V50.392
	c0-2.209-1.791-4-4-4H164.605z"/>
<rect x="-462.306" y="46.642" class="st12" width="1013.5" height="20.5"/>
<path class="st13" d="M535.3,49.252v1.481c0,0.397,0.187,0.771,0.505,1.009l6.367,4.762c0.258,0.194,0.258,0.583,0,0.776
	l-6.367,4.762c-0.318,0.238-0.505,0.612-0.505,1.01v1.48c0,0.41,0.467,0.644,0.795,0.399l10.111-7.563
	c0.318-0.237,0.318-0.714,0-0.952l-10.11-7.562C535.767,48.608,535.3,48.843,535.3,49.252"/>
<path class="st13" d="M-446.703,64.532v-1.481c0-0.397-0.187-0.771-0.505-1.009l-6.367-4.762c-0.258-0.194-0.258-0.583,0-0.776
	l6.367-4.762c0.318-0.238,0.505-0.612,0.505-1.01v-1.48c0-0.41-0.467-0.644-0.795-0.399l-10.111,7.563
	c-0.318,0.237-0.318,0.714,0,0.952l10.11,7.562C-447.17,65.176-446.703,64.941-446.703,64.532"/>
<rect x="-462.556" y="46.392" class="st9" width="1014" height="21"/>
<rect x="593.217" y="-198.153" class="st11" width="21" height="702.123"/>
<path class="st3" d="M593.217,215.808c0,2.209,1.791,4,4,4h12.382c2.209,0,4-1.791,4-4v-78.286c0-2.209-1.791-4-4-4h-12.382
	c-2.209,0-4,1.791-4,4V215.808z"/>
<rect x="593.467" y="-197.904" class="st12" width="20.5" height="701.624"/>
<path class="st13" d="M596.077-184.618h1.481c0.397,0,0.771-0.19,1.009-0.512l4.762-6.453c0.194-0.262,0.583-0.262,0.776,0
	l4.762,6.453c0.238,0.322,0.612,0.512,1.01,0.512h1.48c0.41,0,0.644-0.474,0.399-0.806l-7.563-10.248
	c-0.237-0.322-0.714-0.322-0.952,0l-7.562,10.248C595.433-185.092,595.668-184.618,596.077-184.618"/>
<path class="st13" d="M611.357,489.634h-1.481c-0.397,0-0.771,0.19-1.009,0.512l-4.762,6.453c-0.194,0.262-0.583,0.262-0.776,0
	l-4.762-6.453c-0.238-0.322-0.612-0.512-1.01-0.512h-1.48c-0.41,0-0.644,0.474-0.399,0.806l7.563,10.248
	c0.237,0.322,0.714,0.322,0.952,0l7.562-10.248C612.001,490.108,611.766,489.634,611.357,489.634"/>
<rect x="593.217" y="-198.154" class="st9" width="21" height="702.124"/>
<g>
	<g>
		<line class="st7" x1="-127.758" y1="-75.175" x2="-140.775" y2="-75.175"/>
		<line class="st7" x1="-127.758" y1="-85.35" x2="-140.775" y2="-85.35"/>
		<line class="st7" x1="-127.758" y1="-80.263" x2="-140.775" y2="-80.263"/>
		<g>
			<path class="st5" d="M-144.417-86.821v2.104h-0.487v-1.714h-0.421v-0.391H-144.417z"/>
		</g>
		<g>
			<path class="st5" d="M-143.656-79.853v0.396h-1.59v-0.315l0.812-0.767c0.187-0.178,0.22-0.286,0.22-0.388
				c0-0.165-0.114-0.262-0.337-0.262c-0.18,0-0.333,0.069-0.436,0.21l-0.355-0.228c0.163-0.238,0.457-0.392,0.836-0.392
				c0.469,0,0.781,0.241,0.781,0.623c0,0.204-0.057,0.391-0.352,0.664l-0.484,0.457H-143.656z"/>
		</g>
		<g>
			<path class="st5" d="M-143.674-75.094c0,0.354-0.273,0.68-0.872,0.68c-0.295,0-0.599-0.081-0.803-0.226l0.189-0.373
				c0.159,0.121,0.382,0.189,0.601,0.189c0.244,0,0.394-0.099,0.394-0.271c0-0.159-0.117-0.258-0.394-0.258h-0.223v-0.322
				l0.433-0.49h-0.896v-0.391h1.473v0.316l-0.475,0.541C-143.866-75.638-143.674-75.404-143.674-75.094z"/>
		</g>
	</g>
	<polygon class="st6" points="-149.803,-93.618 -149.803,-67.618 -149.803,-67.368 -149.553,-67.368 -123.553,-67.368 
		-123.303,-67.368 -123.303,-67.618 -123.303,-93.618 -123.303,-93.868 -123.553,-93.868 -149.553,-93.868 -149.803,-93.868 	"/>
</g>
<polygon class="st6" points="-211.636,-93.618 -211.636,-67.618 -211.636,-67.368 -211.386,-67.368 -185.386,-67.368 
	-185.136,-67.368 -185.136,-67.618 -185.136,-93.618 -185.136,-93.868 -185.386,-93.868 -211.386,-93.868 -211.636,-93.868 "/>
<g>
	<polygon class="st6" points="-181.294,-93.618 -181.294,-67.618 -181.294,-67.368 -181.044,-67.368 -155.044,-67.368 
		-154.794,-67.368 -154.794,-67.618 -154.794,-93.618 -154.794,-93.868 -155.044,-93.868 -181.044,-93.868 -181.294,-93.868 	"/>
	<path class="st7" d="M-159.762-75.493h-13.016 M-159.762-80.626h-13.016 M-159.762-85.758h-13.016"/>
	<path class="st5" d="M-174.864-80.041c0.161-0.156,0.241-0.349,0.241-0.581c0-0.15-0.037-0.288-0.11-0.414
		c-0.073-0.125-0.172-0.224-0.297-0.297c-0.126-0.073-0.264-0.11-0.415-0.11c-0.15,0-0.288,0.037-0.41,0.11
		c-0.122,0.073-0.221,0.172-0.294,0.297c-0.072,0.126-0.11,0.264-0.11,0.414c0,0.232,0.08,0.425,0.238,0.581
		c0.157,0.156,0.35,0.234,0.576,0.234C-175.218-79.807-175.025-79.885-174.864-80.041"/>
	<path class="st5" d="M-175.441-84.675c0.489,0,0.885-0.396,0.885-0.885c0-0.488-0.396-0.885-0.885-0.885
		c-0.488,0-0.885,0.397-0.885,0.885C-176.326-85.071-175.929-84.675-175.441-84.675"/>
	<path class="st5" d="M-174.864-75.024c0.161-0.156,0.241-0.349,0.241-0.581c0-0.15-0.037-0.288-0.11-0.414
		c-0.073-0.125-0.172-0.224-0.297-0.297c-0.126-0.073-0.264-0.11-0.415-0.11c-0.15,0-0.288,0.037-0.41,0.11
		c-0.122,0.073-0.221,0.172-0.294,0.297c-0.072,0.126-0.11,0.264-0.11,0.414c0,0.232,0.08,0.425,0.238,0.581
		c0.157,0.156,0.35,0.234,0.576,0.234C-175.218-74.79-175.025-74.868-174.864-75.024"/>
</g>
<path class="st7" d="M-190.104-75.485h-13.016 M-190.104-80.618h-13.016 M-190.104-85.75h-13.016"/>
<rect x="-206.668" y="-86.52" class="st5" width="1.77" height="1.77"/>
<rect x="-206.668" y="-81.504" class="st5" width="1.77" height="1.77"/>
<rect x="-206.668" y="-76.486" class="st5" width="1.77" height="1.77"/>
<rect x="131.854" y="-161.407" class="st2" width="245" height="57.75"/>
<text transform="matrix(1 0 0 1 206.5516 -135.2115)"><tspan x="0" y="0" class="st5" style="font-family:'Montserrat-Regular'; font-size:13px;">N</tspan><tspan x="10.478" y="0" class="st5" style="font-family:'Montserrat-Regular'; font-size:13px;">e</tspan><tspan x="18.135" y="0" class="st5" style="font-family:'Montserrat-Regular'; font-size:13px;">u</tspan><tspan x="26.753" y="0" class="st5" style="font-family:'Montserrat-Regular'; font-size:13px;">e </tspan><tspan x="38.011" y="0" class="st5" style="font-family:'Montserrat-Regular'; font-size:13px; letter-spacing:-1;">T</tspan><tspan x="44.381" y="0" class="st5" style="font-family:'Montserrat-Regular'; font-size:13px;">e</tspan><tspan x="51.882" y="0" class="st5" style="font-family:'Montserrat-Regular'; font-size:13px;">x</tspan><tspan x="59.097" y="0" class="st5" style="font-family:'Montserrat-Regular'; font-size:13px;">t</tspan><tspan x="64.128" y="0" class="st5" style="font-family:'Montserrat-Regular'; font-size:13px;">b</tspan><tspan x="72.942" y="0" class="st5" style="font-family:'Montserrat-Regular'; font-size:13px;">o</tspan><tspan x="80.742" y="0" class="st5" style="font-family:'Montserrat-Regular'; font-size:13px;">x </tspan></text>
<path class="st14" d="M254.354-113.448c3.707,0,6.713-3.005,6.713-6.712c0-3.708-3.006-6.713-6.713-6.713s-6.712,3.005-6.712,6.713
	C247.642-116.453,250.647-113.448,254.354-113.448z"/>
<rect x="131.854" y="-161.407" class="st9" width="245" height="57.75"/>
<line class="st15" x1="254.354" y1="-123.695" x2="254.354" y2="-116.626"/>
<line class="st15" x1="250.82" y1="-120.129" x2="257.888" y2="-120.129"/>
<path class="st14" d="M143.393-73.613c3.707,0,6.713-3.005,6.713-6.712c0-3.708-3.006-6.713-6.713-6.713s-6.712,3.005-6.712,6.713
	C136.681-76.618,139.686-73.613,143.393-73.613z"/>
<line class="st15" x1="143.393" y1="-83.86" x2="143.393" y2="-76.791"/>
<line class="st15" x1="139.858" y1="-80.294" x2="146.926" y2="-80.294"/>
<g>
	<path class="st16" d="M-352.5-58.478h-3.138v-1.85h8.544v1.85h-3.138v7.956h-2.269V-58.478z"/>
	<path class="st16" d="M-345.879-60.327h2.269v9.806h-2.269V-60.327z"/>
	<path class="st16" d="M-332.785-56.769c0,2.185-1.639,3.544-4.258,3.544h-1.975v2.703h-2.269v-9.806h4.244
		C-334.424-60.327-332.785-58.968-332.785-56.769z M-335.082-56.769c0-1.079-0.701-1.709-2.087-1.709h-1.849v3.403h1.849
		C-335.783-55.074-335.082-55.704-335.082-56.769z"/>
	<path class="st16" d="M-322.663-56.769c0,2.185-1.639,3.544-4.258,3.544h-1.975v2.703h-2.269v-9.806h4.244
		C-324.302-60.327-322.663-58.968-322.663-56.769z M-324.96-56.769c0-1.079-0.701-1.709-2.087-1.709h-1.849v3.403h1.849
		C-325.66-55.074-324.96-55.704-324.96-56.769z"/>
</g>
<path class="st16" d="M-389.127-64.799L-389.127-64.799c-1.054,2.474-1.96,4.602-2.889,6.784h5.729
	C-387.231-60.271-388.113-62.379-389.127-64.799 M-385.634-47.209L-385.634-47.209c-0.346-1.15-0.211-1.759,1.044-1.8
	c0.976-0.033,1.343-0.74,1.02-1.64c-0.507-1.414-1.072-2.81-1.681-4.183c-0.109-0.245-0.55-0.478-0.843-0.484
	c-2.129-0.041-4.261-0.046-6.39,0.005c-0.305,0.008-0.741,0.315-0.877,0.599c-0.558,1.155-1.057,2.342-1.512,3.542
	c-0.57,1.504-0.268,2.026,1.348,2.192c0.783,0.081,1.206,0.319,1.022,1.126c-0.056,0.243-0.355,0.61-0.547,0.613
	c-2.524,0.042-5.049,0.028-7.596,0.028c-0.214-0.956-0.321-1.631,0.868-1.885c0.569-0.122,1.219-0.609,1.515-1.117
	c0.755-1.293,1.377-2.67,1.972-4.049c2.401-5.559,4.761-11.135,7.172-16.689c0.173-0.398,0.634-0.67,0.96-1
	c0.319,0.343,0.766,0.632,0.937,1.037c2.56,6.048,5.079,12.114,7.622,18.17c0.326,0.776,0.705,1.534,1.106,2.275
	c0.507,0.939,1.332,1.389,2.379,1.595c0.265,0.052,0.519,0.638,0.586,1.013c0.032,0.175-0.39,0.621-0.611,0.624
	C-379.292-47.196-382.445-47.209-385.634-47.209"/>
<path class="st5" d="M-291.889-54.747c2.682-0.014,4.762-2.036,4.751-4.621c-0.01-2.367-2.203-4.406-4.733-4.399
	c-2.703,0.008-4.848,2.038-4.825,4.568C-296.673-56.735-294.513-54.734-291.889-54.747 M-286.334-54.734L-286.334-54.734
	c0.393-0.231,0.569-0.207,0.91,0.115c1.249,1.181,2.501,2.361,3.751,3.541c0.086,0.08,0.173,0.159,0.252,0.246
	c0.216,0.237,0.217,0.464-0.012,0.692c-0.249,0.248-0.509,0.488-0.767,0.727c-0.302,0.28-0.548,0.287-0.855,0
	c-1.177-1.103-2.348-2.211-3.522-3.318c-0.132-0.124-0.263-0.25-0.396-0.373c-0.368-0.34-0.394-0.487-0.153-0.896
	c-0.368-0.336-0.737-0.673-1.128-1.029c-1.472,1.07-3.153,1.471-5.011,1.06c-1.415-0.313-2.544-1.054-3.377-2.178
	c-1.65-2.23-1.286-5.335,0.823-7.11c2.222-1.87,5.521-1.904,7.68-0.117c2.217,1.835,2.765,5.106,0.696,7.583
	C-287.073-55.438-286.704-55.087-286.334-54.734"/>
<path class="st17" d="M-291.889-54.747c2.682-0.014,4.762-2.036,4.751-4.621c-0.01-2.367-2.203-4.406-4.733-4.399
	c-2.703,0.008-4.848,2.038-4.825,4.568C-296.673-56.735-294.513-54.734-291.889-54.747z M-286.334-54.734L-286.334-54.734
	c0.393-0.231,0.569-0.207,0.91,0.115c1.249,1.181,2.501,2.361,3.751,3.541c0.086,0.08,0.173,0.159,0.252,0.246
	c0.216,0.237,0.217,0.464-0.012,0.692c-0.249,0.248-0.509,0.488-0.767,0.727c-0.302,0.28-0.548,0.287-0.855,0
	c-1.177-1.103-2.348-2.211-3.522-3.318c-0.132-0.124-0.263-0.25-0.396-0.373c-0.368-0.34-0.394-0.487-0.153-0.896
	c-0.368-0.336-0.737-0.673-1.128-1.029c-1.472,1.07-3.153,1.471-5.011,1.06c-1.415-0.313-2.544-1.054-3.377-2.178
	c-1.65-2.23-1.286-5.335,0.823-7.11c2.222-1.87,5.521-1.904,7.68-0.117c2.217,1.835,2.765,5.106,0.696,7.583
	C-287.073-55.438-286.704-55.087-286.334-54.734z"/>
<path class="st5" d="M-228.175-64.327l2.966,2.98v-2.758c0-0.096-0.055-0.229-0.123-0.297l-3.807-3.826
	c-0.068-0.067-0.178-0.067-0.245,0l-3.93,3.949v2.758c0,0.096,0.055,0.119,0.122,0.051l2.844-2.857
	c0.068-0.068,0.122-0.046,0.122,0.05v7.829h0v2.168c0,0.096-0.055,0.118-0.123,0.05l-2.966-2.98v2.758
	c0,0.096,0.055,0.229,0.123,0.297l3.807,3.826c0.068,0.067,0.178,0.067,0.245,0l3.93-3.949v-2.758c0-0.096-0.055-0.119-0.122-0.051
	l-2.844,2.857c-0.068,0.068-0.122,0.046-0.122-0.05v-7.829h0v-2.168C-228.298-64.373-228.243-64.395-228.175-64.327z"/>
<line class="st18" x1="-264.314" y1="-51.091" x2="-236.481" y2="-51.091"/>
<line class="st18" x1="-264.314" y1="-59.387" x2="-236.481" y2="-59.387"/>
<line class="st18" x1="-264.314" y1="-67.379" x2="-236.481" y2="-67.379"/>
<line class="st18" x1="-249.972" y1="-32.12" x2="-249.972" y2="-11.12"/>
<path class="st5" d="M-242.512-18.277L-242.512-18.277h2.695l-2.603-2.569c-0.138-0.135-0.093-0.245,0.101-0.245h7.006v-1.407
	c0-0.193-0.157-0.35-0.35-0.35h-6.656c-0.194,0-0.239-0.11-0.101-0.246l2.603-2.569h-2.345c-0.193,0-0.462,0.111-0.599,0.246
	l-3.245,3.201c-0.137,0.136-0.137,0.356,0,0.492L-242.512-18.277z"/>
<path class="st5" d="M-258.282-25.488L-258.282-25.488h-2.695l2.603,2.569c0.138,0.135,0.093,0.245-0.101,0.245h-7.006v1.407
	c0,0.193,0.157,0.35,0.35,0.35h6.656c0.194,0,0.239,0.11,0.101,0.246l-2.603,2.569h2.345c0.193,0,0.462-0.111,0.599-0.246
	l3.245-3.201c0.137-0.136,0.137-0.356,0-0.492L-258.282-25.488z"/>
<line class="st19" x1="66.314" y1="-151.233" x2="30.291" y2="-151.233"/>
<path class="st20" d="M57.811-148.086c2.045,0,3.703-1.658,3.703-3.703s-1.658-3.703-3.703-3.703c-2.045,0-3.703,1.658-3.703,3.703
	S55.766-148.086,57.811-148.086"/>
<g>
	<path class="st5" d="M81.01-151.031c0,3.12-1.82,4.836-4.459,4.836c-0.91,0-1.781-0.195-2.392-0.585l0.624-1.274
		c0.494,0.325,1.092,0.442,1.729,0.442c1.716,0,2.795-1.066,2.795-3.133v-0.014c-0.546,0.638-1.417,0.949-2.431,0.949
		c-1.794,0-3.133-1.092-3.133-2.795c0-1.807,1.469-2.951,3.328-2.951C79.554-155.556,81.01-153.956,81.01-151.031z M79.047-152.695
		c0-0.858-0.676-1.534-1.885-1.534c-1.053,0-1.781,0.598-1.781,1.547s0.715,1.547,1.82,1.547
		C78.293-151.136,79.047-151.799,79.047-152.695z"/>
	<path class="st5" d="M88.875-149.12c0,1.599-1.157,2.925-3.602,2.925c-1.287,0-2.587-0.39-3.419-1.053l0.715-1.313
		c0.663,0.546,1.651,0.897,2.678,0.897c1.209,0,1.924-0.533,1.924-1.392c0-0.871-0.559-1.417-2.444-1.417h-2.197l0.468-4.953h5.343
		v1.417h-3.913l-0.195,2.106h0.871C87.796-151.902,88.875-150.732,88.875-149.12z"/>
	<path class="st5" d="M93.295-153.021c0-1.495,0.871-2.496,2.171-2.496s2.184,0.988,2.184,2.496s-0.884,2.496-2.184,2.496
		S93.295-151.525,93.295-153.021z M96.584-153.021c0-1.014-0.416-1.586-1.118-1.586c-0.676,0-1.118,0.585-1.118,1.586
		s0.442,1.586,1.118,1.586C96.168-151.435,96.584-152.007,96.584-153.021z M100.926-155.426h1.274l-6.214,9.101h-1.274
		L100.926-155.426z M99.262-148.731c0-1.495,0.871-2.496,2.171-2.496c1.3,0,2.184,1.001,2.184,2.496s-0.884,2.496-2.184,2.496
		C100.132-146.234,99.262-147.235,99.262-148.731z M102.551-148.731c0-1.001-0.429-1.586-1.118-1.586s-1.118,0.572-1.118,1.586
		c0,1.015,0.429,1.586,1.118,1.586S102.551-147.73,102.551-148.731z"/>
</g>
<rect x="44.251" y="-97.089" class="st11" width="13.149" height="16.764"/>
<polygon class="st21" points="44.251,-80.325 44.251,-80.325 57.4,-80.325 57.4,-97.089 44.251,-97.089 "/>
<rect x="36.579" y="-97.56" class="st9" width="21.291" height="24"/>
<line class="st22" x1="41.077" y1="-89.394" x2="41.077" y2="-79.007"/>
<line class="st23" x1="43.708" y1="-77.118" x2="53.357" y2="-77.118"/>
<path class="st21" d="M54.234-77.118h0.877 M41.077-78.062v0.944h0.877 M41.077-92.227v0.944"/>
<polyline class="st21" points="37.05,-89.139 37.05,-74.031 51.084,-74.031 "/>
<rect x="36.579" y="-97.56" class="st9" width="21.291" height="24"/>
<rect x="75.825" y="-97.158" class="st11" width="14.674" height="18.705"/>
<polygon class="st24" points="75.825,-78.454 75.825,-78.454 90.498,-78.454 90.498,-97.159 75.825,-97.159 "/>
<rect x="75.423" y="-97.56" class="st9" width="19.884" height="24"/>
<rect x="80.232" y="-92.667" class="st5" width="14.674" height="18.705"/>
<polygon class="st25" points="80.232,-73.962 80.232,-73.962 94.905,-73.962 94.905,-92.667 80.232,-92.667 "/>
<rect x="75.423" y="-97.56" class="st9" width="19.884" height="24"/>
<rect x="-23.068" y="-93.611" class="st10" width="34.924" height="19.551"/>
<text transform="matrix(1 0 0 1 -16.0674 -78.96)"><tspan x="0" y="0" class="st11" style="font-family:'Montserrat-Regular'; font-size:13px;">e</tspan><tspan x="7.41" y="0" class="st11" style="font-family:'Montserrat-Regular'; font-size:13px;">i</tspan><tspan x="10.335" y="0" class="st11" style="font-family:'Montserrat-Regular'; font-size:13px;">n</tspan></text>
<polygon class="st6" points="-58.076,-93.736 -58.076,-73.736 -58.076,-73.486 -57.826,-73.486 11.023,-73.486 11.273,-73.486 
	11.273,-73.736 11.273,-93.736 11.273,-93.986 11.023,-93.986 -57.826,-93.986 -58.076,-93.986 "/>
<rect x="-58.326" y="-94.236" class="st9" width="70.183" height="21"/>
<line class="st26" x1="82.988" y1="-4.097" x2="82.988" y2="20.163"/>
<path class="st5" d="M91.086,11.721L91.086,11.721h2.592l-2.494-2.46c-0.138-0.135-0.093-0.245,0.101-0.245h6.725V7.677
	c0-0.193-0.157-0.35-0.35-0.35h-6.725l2.743-2.705h-2.242c-0.193,0-0.462,0.11-0.599,0.245l-3.102,3.059
	c-0.137,0.135-0.137,0.355,0,0.491L91.086,11.721z"/>
<line class="st26" x1="56.043" y1="19.996" x2="56.043" y2="-4.264"/>
<path class="st5" d="M47.946,4.177L47.946,4.177h-2.592l2.494,2.46c0.138,0.135,0.093,0.245-0.101,0.245h-6.725v1.339
	c0,0.193,0.157,0.35,0.35,0.35h6.725l-2.743,2.705h2.242c0.193,0,0.462-0.11,0.599-0.245l3.102-3.059
	c0.137-0.135,0.137-0.355,0-0.491L47.946,4.177z"/>
<line class="st26" x1="-133.699" y1="3.774" x2="-109.439" y2="3.774"/>
<path class="st5" d="M-118.048-4.283L-118.048-4.283v-2.592l-2.46,2.494c-0.135,0.138-0.245,0.093-0.245-0.101v-6.725h-1.339
	c-0.193,0-0.35,0.157-0.35,0.35v6.725l-2.705-2.743v2.242c0,0.193,0.11,0.462,0.245,0.599l3.059,3.102
	c0.135,0.137,0.355,0.137,0.491,0L-118.048-4.283z"/>
<path class="st5" d="M-124.98,10.869L-124.98,10.869v2.592l2.46-2.494c0.135-0.138,0.245-0.093,0.245,0.101v6.725h1.339
	c0.193,0,0.35-0.157,0.35-0.35v-6.725l2.705,2.743v-2.242c0-0.193-0.11-0.462-0.245-0.599l-3.059-3.102
	c-0.135-0.137-0.355-0.137-0.491,0L-124.98,10.869z"/>
<line class="st26" x1="-77.253" y1="16.585" x2="-77.253" y2="-7.675"/>
<path class="st5" d="M-85.31,0.934L-85.31,0.934h-2.592l2.494,2.46c0.138,0.135,0.093,0.245-0.101,0.245h-6.725v1.339
	c0,0.193,0.157,0.35,0.35,0.35h6.725l-2.743,2.705h2.242c0.193,0,0.462-0.11,0.599-0.245l3.102-3.059
	c0.137-0.135,0.137-0.355,0-0.491L-85.31,0.934z"/>
<path class="st5" d="M-70.158,7.866L-70.158,7.866h2.592l-2.494-2.46c-0.138-0.135-0.093-0.245,0.101-0.245h6.725V3.822
	c0-0.193-0.157-0.35-0.35-0.35h-6.725l2.743-2.705h-2.242c-0.193,0-0.462,0.11-0.599,0.245l-3.102,3.059
	c-0.137,0.135-0.137,0.355,0,0.491L-70.158,7.866z"/>
<line class="st26" x1="-45.111" y1="4.058" x2="-20.851" y2="4.058"/>
<path class="st5" d="M-36.392,11.152L-36.392,11.152v2.592l2.46-2.494c0.135-0.138,0.245-0.093,0.245,0.101v6.725h1.339
	c0.193,0,0.35-0.157,0.35-0.35v-6.725l2.705,2.743v-2.242c0-0.193-0.11-0.462-0.245-0.599l-3.059-3.102
	c-0.135-0.137-0.355-0.137-0.491,0L-36.392,11.152z"/>
<line class="st26" x1="0" y1="15.313" x2="24.26" y2="15.313"/>
<path class="st5" d="M15.818,6.924L15.818,6.924V4.332l-2.46,2.494c-0.135,0.138-0.245,0.093-0.245-0.101V0h-1.339
	c-0.193,0-0.35,0.157-0.35,0.35v6.725L8.719,4.332v2.242c0,0.193,0.11,0.462,0.245,0.599l3.059,3.102
	c0.135,0.137,0.355,0.137,0.491,0L15.818,6.924z"/>
<rect x="145.864" y="-11.613" class="st11" width="15.769" height="20.056"/>
<line class="st27" x1="148.821" y1="8.443" x2="159.662" y2="8.443"/>
<line class="st28" x1="161.633" y1="5.435" x2="161.633" y2="-9.607"/>
<line class="st27" x1="158.676" y1="-11.613" x2="147.835" y2="-11.613"/>
<line class="st28" x1="145.863" y1="-8.605" x2="145.863" y2="6.437"/>
<path class="st21" d="M145.863,7.44v1.003h0.986 M146.849-11.613h-0.986v1.003 M161.632-10.61v-1.003h-0.985 M160.647,8.443h0.985
	V7.44"/>
<polygon class="st11" points="134.628,18.443 134.628,18.443 150.397,18.443 150.397,-1.613 134.628,-1.613 "/>
<line class="st27" x1="137.585" y1="18.443" x2="148.426" y2="18.443"/>
<line class="st28" x1="150.397" y1="15.435" x2="150.397" y2="0.393"/>
<line class="st27" x1="147.44" y1="-1.613" x2="136.599" y2="-1.613"/>
<line class="st28" x1="134.628" y1="1.395" x2="134.628" y2="16.437"/>
<path class="st21" d="M134.627,17.44v1.003h0.986 M135.613-1.613h-0.986v1.003 M150.396-0.61v-1.003h-0.985 M149.411,18.443h0.985
	V17.44"/>
<polygon class="st11" points="125.154,26.443 125.154,26.443 140.923,26.443 140.923,6.387 125.154,6.387 "/>
<polygon class="st21" points="125.154,26.443 125.154,26.443 140.923,26.443 140.923,6.387 125.154,6.387 "/>
<g>
	<polygon class="st11" points="198.99,12.748 198.99,12.748 214.759,12.748 214.759,-7.308 198.99,-7.308 	"/>
	<polygon class="st21" points="198.99,12.748 198.99,12.748 214.759,12.748 214.759,-7.308 198.99,-7.308 	"/>
	<line class="st29" x1="195.226" y1="1.247" x2="195.226" y2="14.751"/>
	<line class="st30" x1="198.363" y1="16.552" x2="209.866" y2="16.552"/>
	<path class="st21" d="M210.911,16.551h1.046 M195.226,15.651v0.9h1.046 M195.226-1.454v0.9"/>
</g>
<g>
	<g>
		<rect x="271.53" y="-19.028" class="st11" width="15.769" height="20.056"/>
		<polygon class="st21" points="271.53,1.028 271.53,1.028 287.299,1.028 287.299,-19.028 271.53,-19.028 		"/>
		<polygon class="st11" points="260.294,11.028 260.294,11.028 276.063,11.028 276.063,-9.028 260.294,-9.028 		"/>
		<line class="st27" x1="263.251" y1="11.028" x2="274.092" y2="11.028"/>
		<line class="st28" x1="276.063" y1="8.02" x2="276.063" y2="-7.022"/>
		<line class="st27" x1="273.106" y1="-9.028" x2="262.265" y2="-9.028"/>
		<line class="st28" x1="260.294" y1="-6.02" x2="260.294" y2="9.022"/>
		<path class="st21" d="M260.293,10.025v1.003h0.986 M261.279-9.028h-0.986v1.003 M276.062-8.025v-1.003h-0.985 M275.077,11.028
			h0.985v-1.003"/>
		<polygon class="st11" points="250.82,19.028 250.82,19.028 266.589,19.028 266.589,-1.028 250.82,-1.028 		"/>
		<line class="st27" x1="253.777" y1="19.028" x2="264.618" y2="19.028"/>
		<line class="st28" x1="266.589" y1="16.02" x2="266.589" y2="0.978"/>
		<line class="st27" x1="263.632" y1="-1.028" x2="252.791" y2="-1.028"/>
		<line class="st28" x1="250.82" y1="1.98" x2="250.82" y2="17.022"/>
		<path class="st21" d="M250.82,18.025v1.003h0.986 M251.806-1.028h-0.986v1.003 M266.589-0.025v-1.003h-0.985 M265.604,19.028
			h0.985v-1.003"/>
	</g>
	<line class="st27" x1="326.944" y1="14.513" x2="337.785" y2="14.513"/>
	<line class="st28" x1="339.756" y1="11.505" x2="339.756" y2="-3.537"/>
	<line class="st27" x1="336.799" y1="-5.543" x2="325.958" y2="-5.543"/>
	<line class="st28" x1="323.987" y1="-2.534" x2="323.987" y2="12.508"/>
	<path class="st21" d="M323.986,13.51v1.003h0.986 M324.972-5.543h-0.986v1.003 M339.755-4.54v-1.003h-0.985 M338.77,14.513h0.985
		V13.51"/>
	<polyline class="st21" points="320.222,0.312 320.222,18.317 336.953,18.317 	"/>
</g>
<g>
	<defs>
		<rect id="SVGID_1_" x="-435.052" y="108.35" width="241.682" height="1"/>
	</defs>
	<clipPath id="SVGID_00000163048609991739468140000011345267705356439181_">
		<use xlink:href="#SVGID_1_"  style="overflow:visible;"/>
	</clipPath>
	
		<line style="clip-path:url(#SVGID_00000163048609991739468140000011345267705356439181_);fill:none;stroke:#B2B2B2;stroke-linecap:round;stroke-linejoin:round;stroke-dasharray:0,3.009;" x1="-431.544" y1="108.85" x2="-195.374" y2="108.85"/>
	
		<path style="clip-path:url(#SVGID_00000163048609991739468140000011345267705356439181_);fill:none;stroke:#B2B2B2;stroke-linecap:round;stroke-linejoin:round;" d="
		M-193.87,108.85L-193.87,108.85 M-434.552,108.85L-434.552,108.85"/>
</g>
<circle class="st33" cx="-388.154" cy="-112.362" r="12.75"/>
<polygon class="st3" points="-244.761,-127.385 -257.761,-127.385 -251.393,-116.91 "/>
<polygon class="st5" points="-236.738,1.156 -247.213,7.524 -236.738,14.156 "/>
<polygon class="st5" points="-265.785,14.156 -255.31,7.788 -265.785,1.156 "/>
<polygon class="st5" points="-183.232,1.156 -193.707,7.524 -183.232,14.156 "/>
<polygon class="st5" points="-218.408,14.156 -207.933,7.788 -218.408,1.156 "/>
<rect x="-58.159" y="-127.374" class="st10" width="34.924" height="19.551"/>
<polygon class="st6" points="-57.909,-127.499 -57.909,-107.499 -57.909,-107.249 -57.659,-107.249 11.19,-107.249 11.44,-107.249 
	11.44,-107.499 11.44,-127.499 11.44,-127.749 11.19,-127.749 -57.659,-127.749 -57.909,-127.749 "/>
<rect x="-58.159" y="-127.999" class="st9" width="69.849" height="21"/>
<rect x="-22.795" y="-61.346" class="st10" width="34.924" height="19.551"/>
<polygon class="st6" points="-57.803,-61.471 -57.803,-41.471 -57.803,-41.221 -57.553,-41.221 11.296,-41.221 11.546,-41.221 
	11.546,-41.471 11.546,-61.471 11.546,-61.721 11.296,-61.721 -57.553,-61.721 -57.803,-61.721 "/>
<rect x="-58.053" y="-61.971" class="st9" width="70.183" height="21"/>
<line class="st19" x1="65.236" y1="-131.445" x2="29.213" y2="-131.445"/>
<path class="st20" d="M56.733-128.299c2.045,0,3.703-1.658,3.703-3.703c0-2.045-1.658-3.703-3.703-3.703
	c-2.045,0-3.703,1.658-3.703,3.703C53.03-129.957,54.688-128.299,56.733-128.299"/>
<line class="st19" x1="373.56" y1="-100.665" x2="337.538" y2="-100.665"/>
<path class="st20" d="M365.057-97.519c2.045,0,3.703-1.658,3.703-3.703s-1.658-3.703-3.703-3.703s-3.703,1.658-3.703,3.703
	S363.012-97.519,365.057-97.519"/>
</svg>
