<?xml version="1.0" encoding="utf-8"?>
<!-- Generator: Adobe Illustrator 26.0.3, SVG Export Plug-In . SVG Version: 6.00 Build 0)  -->
<svg version="1.1" id="Ebene_1" xmlns="http://www.w3.org/2000/svg" xmlns:xlink="http://www.w3.org/1999/xlink" x="0px" y="0px"
	 width="29px" height="24.26px" viewBox="0 0 29 24.26" style="enable-background:new 0 0 29 24.26;" xml:space="preserve">
<style type="text/css">
	.st0{fill:none;stroke:#C5C5C5;stroke-width:3;stroke-linecap:round;stroke-linejoin:round;}
	.st1{fill:#FFAEFF;stroke:#4F4D4D;stroke-width:0.5;}
	.st2{fill:#F8F8F8;}
	.st3{fill:#0E689A;}
	.st4{fill:none;stroke:#B2B1B1;stroke-width:0.65;stroke-miterlimit:10;}
	.st5{fill:#B2B1B1;}
	.st6{fill:none;stroke:#B2B2B2;stroke-width:0.5;stroke-miterlimit:10;}
	.st7{fill:none;stroke:#B2B1B1;stroke-width:0.3;stroke-miterlimit:10;}
	.st8{fill:none;stroke:#FFFFFF;stroke-width:0.021;}
	.st9{fill:none;}
	.st10{fill:#0E6899;}
	.st11{fill:#FFFFFF;}
	.st12{fill:none;stroke:#C5C5C5;stroke-width:0.5;stroke-linecap:round;stroke-linejoin:round;}
	.st13{fill:#C5C5C5;}
	.st14{fill:none;stroke:#B2B1B1;stroke-width:0.5;}
	.st15{fill:none;stroke:#B2B1B1;stroke-width:1.2;}
	.st16{fill:#B2B2B2;}
	.st17{fill:none;stroke:#FFFFFF;stroke-width:0.001;}
	.st18{fill:none;stroke:#B2B1B1;stroke-width:1.712;}
	.st19{fill:none;stroke:#B2B1B1;stroke-width:2;}
	.st20{fill:#AD5E7A;}
	.st21{fill:none;stroke:#B2B1B1;stroke-width:0.941;}
	.st22{fill:none;stroke:#B2B1B1;stroke-width:0.941;stroke-dasharray:1.889,1.889;}
	.st23{fill:none;stroke:#B2B1B1;stroke-width:0.941;stroke-dasharray:1.754,1.754;}
	.st24{fill:none;stroke:#B2B1B1;stroke-width:0.804;}
	.st25{fill:none;stroke:#FFFFFF;stroke-width:0.804;}
	.st26{fill:none;stroke:#B2B1B1;stroke-width:2.5;}
	.st27{fill:none;stroke:#B2B1B1;stroke-width:0.941;stroke-dasharray:1.971,1.971;}
	.st28{fill:none;stroke:#B2B1B1;stroke-width:0.941;stroke-dasharray:2.006,2.006;}
	.st29{fill:none;stroke:#B2B1B1;stroke-width:0.941;stroke-dasharray:1.801,1.801;}
	.st30{fill:none;stroke:#B2B1B1;stroke-width:0.941;stroke-dasharray:2.091,2.091;}
	
		.st31{clip-path:url(#SVGID_00000084503763024084667330000010590018236021884548_);fill:none;stroke:#B2B2B2;stroke-linecap:round;stroke-linejoin:round;stroke-dasharray:0,3.009;}
	
		.st32{clip-path:url(#SVGID_00000084503763024084667330000010590018236021884548_);fill:none;stroke:#B2B2B2;stroke-linecap:round;stroke-linejoin:round;}
	.st33{fill:none;stroke:#4F4D4D;stroke-width:0.5;}
</style>
<polyline class="st0" points="1695.973,821.969 1689.723,812.969 1682.973,821.969 "/>
<circle class="st1" cx="-295.92" cy="-140.779" r="12.75"/>
<rect x="-263.459" y="-151.794" class="st2" width="119.902" height="21"/>
<polygon class="st3" points="-152.63,-146.532 -165.63,-146.532 -159.262,-136.057 "/>
<g>
	<g>
		<line class="st4" x1="-39.618" y1="-134.274" x2="-29.335" y2="-134.274"/>
		<g>
			<path class="st5" d="M-38.33-139.499v-5.175h1.3v5.122c0,2.016,0.923,2.926,2.561,2.926c1.638,0,2.574-0.91,2.574-2.926v-5.122
				h1.261v5.175c0,2.639-1.443,4.029-3.848,4.029C-36.874-135.47-38.33-136.861-38.33-139.499z"/>
		</g>
	</g>
	<polygon class="st6" points="-47.726,-152.474 -47.726,-126.474 -47.726,-126.224 -47.476,-126.224 -21.476,-126.224 
		-21.226,-126.224 -21.226,-126.474 -21.226,-152.474 -21.226,-152.724 -21.476,-152.724 -47.476,-152.724 -47.726,-152.724 	"/>
</g>
<g>
	<g>
		<path class="st5" d="M-69.08-144.401h1.3l-1.82,9.101h-1.3L-69.08-144.401z"/>
	</g>
	<polygon class="st6" points="-82.59,-152.85 -82.59,-126.85 -82.59,-126.6 -82.34,-126.6 -56.34,-126.6 -56.09,-126.6 
		-56.09,-126.85 -56.09,-152.85 -56.09,-153.1 -56.34,-153.1 -82.34,-153.1 -82.59,-153.1 	"/>
</g>
<g>
	<g>
		<path class="st5" d="M-102.228-137.732c0,1.573-1.248,2.483-3.64,2.483h-4.706v-9.101h4.446c2.275,0,3.445,0.949,3.445,2.366
			c0,0.91-0.468,1.612-1.209,2.002C-102.878-139.655-102.228-138.875-102.228-137.732z M-108.481-142.763v2.146h2.093
			c1.027,0,1.586-0.364,1.586-1.079s-0.559-1.066-1.586-1.066H-108.481z M-104.347-137.952c0-0.767-0.585-1.131-1.677-1.131h-2.457
			v2.249h2.457C-104.932-136.834-104.347-137.172-104.347-137.952z"/>
	</g>
	<polygon class="st6" points="-119.651,-152.799 -119.651,-126.799 -119.651,-126.549 -119.401,-126.549 -93.401,-126.549 
		-93.151,-126.549 -93.151,-126.799 -93.151,-152.799 -93.151,-153.049 -93.401,-153.049 -119.401,-153.049 -119.651,-153.049 	"/>
</g>
<path class="st7" d="M-65.464-110.845"/>
<path class="st7" d="M-67.971-109.591"/>
<path class="st7" d="M-67.971-108.337"/>
<path class="st7" d="M-67.971-107.083"/>
<path class="st7" d="M-65.464-105.829"/>
<path class="st7" d="M-65.464-104.575"/>
<path class="st7" d="M-67.971-103.321"/>
<path class="st7" d="M-67.971-100.813"/>
<path class="st7" d="M-65.464-98.305"/>
<g>
	<path class="st7" d="M-84.928-105.829"/>
	<path class="st7" d="M-84.928-110.845"/>
	<path class="st7" d="M-84.928-98.305"/>
	<path class="st7" d="M-84.928-104.575"/>
	<g>
		<path class="st7" d="M-82.866-103.321"/>
		<path class="st7" d="M-82.866-107.083"/>
		<path class="st7" d="M-82.866-108.337"/>
		<path class="st7" d="M-82.866-109.591"/>
		<line class="st7" x1="-85.303" y1="-99.1" x2="-65.839" y2="-99.1"/>
		<line class="st7" x1="-85.303" y1="-100.376" x2="-70.409" y2="-100.376"/>
		<line class="st7" x1="-85.303" y1="-101.652" x2="-70.409" y2="-101.652"/>
		<line class="st7" x1="-85.303" y1="-102.928" x2="-70.409" y2="-102.928"/>
		<line class="st7" x1="-85.303" y1="-104.204" x2="-65.839" y2="-104.204"/>
		<line class="st7" x1="-85.303" y1="-105.48" x2="-65.839" y2="-105.48"/>
		<line class="st7" x1="-85.23" y1="-106.756" x2="-70.336" y2="-106.756"/>
		<line class="st7" x1="-85.303" y1="-108.031" x2="-65.839" y2="-108.031"/>
		<line class="st7" x1="-85.303" y1="-109.307" x2="-70.409" y2="-109.307"/>
		<line class="st7" x1="-85.303" y1="-110.584" x2="-70.409" y2="-110.584"/>
		<line class="st7" x1="-85.303" y1="-111.859" x2="-65.839" y2="-111.859"/>
	</g>
	<polygon class="st6" points="-88.63,-118.154 -88.63,-92.161 -88.63,-91.911 -88.38,-91.911 -62.387,-91.911 -62.137,-91.911 
		-62.137,-92.161 -62.137,-118.154 -62.137,-118.404 -62.387,-118.404 -88.38,-118.404 -88.63,-118.404 	"/>
</g>
<g>
	<g>
		<line class="st7" x1="-34.583" y1="-111.542" x2="-54.047" y2="-111.542"/>
		<line class="st7" x1="-37.091" y1="-110.266" x2="-51.985" y2="-110.266"/>
		<line class="st7" x1="-37.091" y1="-108.989" x2="-51.985" y2="-108.989"/>
		<line class="st7" x1="-37.091" y1="-107.711" x2="-51.985" y2="-107.711"/>
		<line class="st7" x1="-34.583" y1="-106.435" x2="-54.047" y2="-106.435"/>
		<line class="st7" x1="-34.583" y1="-105.158" x2="-54.047" y2="-105.158"/>
		<line class="st7" x1="-37.091" y1="-103.88" x2="-51.985" y2="-103.88"/>
		<line class="st7" x1="-34.583" y1="-102.603" x2="-54.047" y2="-102.603"/>
		<line class="st7" x1="-37.091" y1="-101.326" x2="-51.985" y2="-101.326"/>
		<line class="st7" x1="-37.091" y1="-100.049" x2="-51.985" y2="-100.049"/>
		<line class="st7" x1="-34.583" y1="-98.772" x2="-54.047" y2="-98.772"/>
	</g>
	<polygon class="st6" points="-57.562,-118.154 -57.562,-92.161 -57.562,-91.911 -57.312,-91.911 -31.319,-91.911 -31.069,-91.911 
		-31.069,-92.161 -31.069,-118.154 -31.069,-118.404 -31.319,-118.404 -57.312,-118.404 -57.562,-118.404 	"/>
</g>
<polygon class="st6" points="-26.493,-118.154 -26.493,-92.161 -26.493,-91.911 -26.243,-91.911 -0.25,-91.911 0,-91.911 0,-92.161 
	0,-118.154 0,-118.404 -0.25,-118.404 -26.243,-118.404 -26.493,-118.404 "/>
<path class="st7" d="M-23.166-99.47"/>
<path class="st7" d="M-23.166-104.486"/>
<path class="st7" d="M-23.166-105.74"/>
<path class="st7" d="M-23.166-112.009"/>
<path class="st7" d="M-5.764-106.994"/>
<path class="st7" d="M-3.702-104.486"/>
<path class="st7" d="M-5.764-103.232"/>
<path class="st7" d="M-3.702-99.47"/>
<path class="st7" d="M-3.702-112.009"/>
<path class="st7" d="M-3.702-105.74"/>
<path class="st7" d="M-5.764-101.978"/>
<path class="st7" d="M-5.764-100.724"/>
<g>
	<path class="st7" d="M-20.846-101.046"/>
	<path class="st7" d="M-20.846-102.3"/>
	<path class="st7" d="M-20.846-103.554"/>
	<path class="st7" d="M-20.846-107.316"/>
	<path class="st7" d="M-20.846-109.824"/>
	<line class="st7" x1="-3.514" y1="-111.537" x2="-22.979" y2="-111.537"/>
	<line class="st7" x1="-3.514" y1="-110.261" x2="-18.409" y2="-110.261"/>
	<line class="st7" x1="-3.514" y1="-108.986" x2="-18.409" y2="-108.986"/>
	<line class="st7" x1="-3.514" y1="-107.709" x2="-18.409" y2="-107.709"/>
	<line class="st7" x1="-3.514" y1="-106.433" x2="-22.979" y2="-106.433"/>
	<line class="st7" x1="-3.514" y1="-105.157" x2="-22.979" y2="-105.157"/>
	<line class="st7" x1="-3.588" y1="-103.882" x2="-18.482" y2="-103.882"/>
	<line class="st7" x1="-3.514" y1="-102.606" x2="-22.979" y2="-102.606"/>
	<line class="st7" x1="-3.514" y1="-101.33" x2="-18.409" y2="-101.33"/>
	<line class="st7" x1="-3.514" y1="-100.053" x2="-18.409" y2="-100.053"/>
	<line class="st7" x1="-3.514" y1="-98.778" x2="-22.979" y2="-98.778"/>
</g>
<polygon class="st6" points="-119.401,-118.147 -119.401,-92.154 -119.401,-91.904 -119.151,-91.904 -93.158,-91.904 
	-92.908,-91.904 -92.908,-92.154 -92.908,-118.147 -92.908,-118.397 -93.158,-118.397 -119.151,-118.397 -119.401,-118.397 "/>
<path class="st7" d="M-96.235-110.845"/>
<path class="st7" d="M-96.235-105.829"/>
<path class="st7" d="M-96.235-104.575"/>
<path class="st7" d="M-96.235-98.305"/>
<path class="st7" d="M-113.637-103.321"/>
<path class="st7" d="M-115.699-105.829"/>
<path class="st7" d="M-113.637-107.083"/>
<path class="st7" d="M-115.699-110.845"/>
<path class="st7" d="M-115.699-98.305"/>
<path class="st7" d="M-115.699-104.575"/>
<path class="st7" d="M-113.637-108.337"/>
<path class="st7" d="M-113.637-109.591"/>
<g>
	<path class="st7" d="M-98.743-109.591"/>
	<path class="st7" d="M-98.743-108.337"/>
	<path class="st7" d="M-98.743-107.083"/>
	<path class="st7" d="M-98.743-103.321"/>
	<path class="st7" d="M-98.743-100.813"/>
	<line class="st7" x1="-116.075" y1="-99.1" x2="-96.611" y2="-99.1"/>
	<line class="st7" x1="-116.075" y1="-100.376" x2="-96.611" y2="-100.376"/>
	<line class="st7" x1="-116.075" y1="-101.652" x2="-96.611" y2="-101.652"/>
	<line class="st7" x1="-116.075" y1="-102.928" x2="-96.611" y2="-102.928"/>
	<line class="st7" x1="-116.075" y1="-104.204" x2="-96.611" y2="-104.204"/>
	<line class="st7" x1="-116.075" y1="-105.48" x2="-96.611" y2="-105.48"/>
	<line class="st7" x1="-116.001" y1="-106.756" x2="-96.537" y2="-106.756"/>
	<line class="st7" x1="-116.075" y1="-108.031" x2="-96.611" y2="-108.031"/>
	<line class="st7" x1="-116.075" y1="-109.307" x2="-96.611" y2="-109.307"/>
	<line class="st7" x1="-116.075" y1="-110.584" x2="-96.611" y2="-110.584"/>
	<line class="st7" x1="-116.075" y1="-111.859" x2="-96.611" y2="-111.859"/>
</g>
<path class="st5" d="M-288.958-2.999l-1.915,13.335c-0.058,0.402-0.431,0.682-0.834,0.624c-0.402-0.058-0.682-0.431-0.624-0.833
	l1.915-13.336c0.058-0.402,0.431-0.681,0.834-0.623C-289.18-3.774-288.9-3.402-288.958-2.999 M-295.775,11.076
	c-0.407,0.003-0.74-0.324-0.742-0.73l-0.106-13.472c-0.003-0.407,0.324-0.739,0.73-0.742c0.408-0.003,0.74,0.324,0.743,0.731
	l0.105,13.471C-295.042,10.741-295.369,11.073-295.775,11.076 M-299.846,11.023c-0.401,0.064-0.779-0.209-0.842-0.61l-2.124-13.304
	c-0.064-0.402,0.209-0.779,0.612-0.843c0.401-0.064,0.778,0.209,0.842,0.611l2.123,13.303
	C-299.171,10.582-299.444,10.959-299.846,11.023 M-286.063-5.385c-0.141-0.169-0.353-0.266-0.573-0.264l-18.538,0.144
	c-0.22,0.002-0.429,0.101-0.568,0.272c-0.14,0.17-0.196,0.393-0.155,0.609l3.092,16.141c0.068,0.351,0.376,0.605,0.734,0.602
	l12.497-0.098c0.356-0.002,0.66-0.258,0.724-0.608l2.949-16.188C-285.861-4.991-285.922-5.216-286.063-5.385"/>
<path class="st8" d="M-288.958-2.999l-1.915,13.335c-0.058,0.402-0.431,0.682-0.834,0.624c-0.402-0.058-0.682-0.431-0.624-0.833
	l1.915-13.336c0.058-0.402,0.431-0.681,0.834-0.623C-289.18-3.774-288.9-3.402-288.958-2.999z M-295.775,11.076
	c-0.407,0.003-0.74-0.324-0.742-0.73l-0.106-13.472c-0.003-0.407,0.324-0.739,0.73-0.742c0.408-0.003,0.74,0.324,0.743,0.731
	l0.105,13.471C-295.042,10.741-295.369,11.073-295.775,11.076z M-299.846,11.023c-0.401,0.064-0.779-0.209-0.842-0.61l-2.124-13.304
	c-0.064-0.402,0.209-0.779,0.612-0.843c0.401-0.064,0.778,0.209,0.842,0.611l2.123,13.303
	C-299.171,10.582-299.444,10.959-299.846,11.023z M-286.063-5.385c-0.141-0.169-0.353-0.266-0.573-0.264l-18.538,0.144
	c-0.22,0.002-0.429,0.101-0.568,0.272c-0.14,0.17-0.196,0.393-0.155,0.609l3.092,16.141c0.068,0.351,0.376,0.605,0.734,0.602
	l12.497-0.098c0.356-0.002,0.66-0.258,0.724-0.608l2.949-16.188C-285.861-4.991-285.922-5.216-286.063-5.385z"/>
<path class="st5" d="M-298.751-9.992L-298.751-9.992l-0.004-0.421l5.49-0.043l0.004,0.421L-298.751-9.992z M-285.014-8.582
	L-285.014-8.582l-2.025,0.016l-0.009-1.171c-0.001-0.091-0.038-0.18-0.103-0.244c-0.065-0.064-0.155-0.1-0.246-0.1l-4.467,0.035
	l-0.009-1.12c-0.002-0.184-0.077-0.363-0.209-0.492c-0.131-0.13-0.311-0.203-0.495-0.201l-6.887,0.054
	c-0.183,0.001-0.363,0.077-0.492,0.208s-0.202,0.312-0.2,0.496l0.009,1.12l-4.164,0.032c-0.091,0.001-0.18,0.039-0.243,0.104
	c-0.065,0.065-0.101,0.154-0.101,0.246l0.009,1.171l-2.197,0.017l0.017,2.225l21.829-0.17L-285.014-8.582z"/>
<path class="st8" d="M-298.751-9.992L-298.751-9.992l-0.004-0.421l5.49-0.043l0.004,0.421L-298.751-9.992z M-285.014-8.582
	L-285.014-8.582l-2.025,0.016l-0.009-1.171c-0.001-0.091-0.038-0.18-0.103-0.244c-0.065-0.064-0.155-0.1-0.246-0.1l-4.467,0.035
	l-0.009-1.12c-0.002-0.184-0.077-0.363-0.209-0.492c-0.131-0.13-0.311-0.203-0.495-0.201l-6.887,0.054
	c-0.183,0.001-0.363,0.077-0.492,0.208s-0.202,0.312-0.2,0.496l0.009,1.12l-4.164,0.032c-0.091,0.001-0.18,0.039-0.243,0.104
	c-0.065,0.065-0.101,0.154-0.101,0.246l0.009,1.171l-2.197,0.017l0.017,2.225l21.829-0.17L-285.014-8.582z"/>
<rect x="-306.854" y="-11.87" class="st9" width="21.868" height="24"/>
<rect x="34.076" y="-152.638" class="st10" width="34.924" height="19.551"/>
<g>
	<path class="st11" d="M47.053-142.225v4.238h-0.884v-1.066c-0.416,0.702-1.222,1.132-2.354,1.132c-1.547,0-2.496-0.807-2.496-1.989
		c0-1.054,0.676-1.938,2.639-1.938h2.171v-0.416c0-1.17-0.663-1.807-1.938-1.807c-0.884,0-1.716,0.312-2.275,0.806l-0.416-0.688
		c0.689-0.585,1.703-0.924,2.782-0.924C46.052-144.877,47.053-143.992,47.053-142.225z M46.13-140.04v-1.118h-2.146
		c-1.326,0-1.755,0.52-1.755,1.222c0,0.793,0.637,1.287,1.729,1.287C44.999-138.65,45.766-139.144,46.13-140.04z"/>
	<path class="st11" d="M55.152-144.824v6.838h-0.884v-1.248c-0.481,0.832-1.365,1.313-2.458,1.313c-1.742,0-2.886-0.976-2.886-2.938
		v-3.965h0.923v3.874c0,1.456,0.754,2.197,2.054,2.197c1.43,0,2.327-0.924,2.327-2.483v-3.588H55.152z"/>
	<path class="st11" d="M56.451-138.767l0.416-0.728c0.546,0.429,1.469,0.767,2.431,0.767c1.3,0,1.833-0.441,1.833-1.118
		c0-1.78-4.433-0.377-4.433-3.081c0-1.118,0.962-1.95,2.704-1.95c0.884,0,1.846,0.247,2.418,0.638l-0.403,0.74
		c-0.598-0.416-1.313-0.585-2.015-0.585c-1.235,0-1.781,0.481-1.781,1.132c0,1.846,4.434,0.455,4.434,3.081
		c0,1.183-1.04,1.95-2.821,1.95C58.103-137.921,57.011-138.285,56.451-138.767z"/>
</g>
<polygon class="st6" points="34.326,-152.763 34.326,-132.763 34.326,-132.513 34.576,-132.513 103.425,-132.513 103.675,-132.513 
	103.675,-132.763 103.675,-152.763 103.675,-153.013 103.425,-153.013 34.576,-153.013 34.326,-153.013 "/>
<rect x="34.076" y="-153.263" class="st9" width="69.849" height="21"/>
<rect x="-370.321" y="54.067" class="st11" width="1014" height="21"/>
<path class="st3" d="M256.84,54.067c-2.209,0-4,1.791-4,4v12.382c0,2.209,1.791,4,4,4h77.131c2.209,0,4-1.791,4-4V58.067
	c0-2.209-1.791-4-4-4H256.84z"/>
<rect x="-370.071" y="54.317" class="st12" width="1013.5" height="20.5"/>
<path class="st13" d="M627.534,56.927v1.481c0,0.397,0.187,0.771,0.505,1.009l6.367,4.762c0.258,0.194,0.258,0.583,0,0.776
	l-6.367,4.762c-0.318,0.238-0.505,0.612-0.505,1.01v1.48c0,0.41,0.467,0.644,0.795,0.399l10.111-7.563
	c0.318-0.237,0.318-0.714,0-0.952l-10.11-7.562C628.001,56.283,627.534,56.518,627.534,56.927"/>
<path class="st13" d="M-354.469,72.207v-1.481c0-0.397-0.187-0.771-0.505-1.009l-6.367-4.762c-0.258-0.194-0.258-0.583,0-0.776
	l6.367-4.762c0.318-0.238,0.505-0.612,0.505-1.01v-1.48c0-0.41-0.467-0.644-0.795-0.399l-10.111,7.563
	c-0.318,0.237-0.318,0.714,0,0.952l10.11,7.562C-354.936,72.851-354.469,72.616-354.469,72.207"/>
<rect x="-370.321" y="54.067" class="st9" width="1014" height="21"/>
<rect x="685.451" y="-190.478" class="st11" width="21" height="702.123"/>
<path class="st3" d="M685.451,223.483c0,2.209,1.791,4,4,4h12.382c2.209,0,4-1.791,4-4v-78.286c0-2.209-1.791-4-4-4h-12.382
	c-2.209,0-4,1.791-4,4V223.483z"/>
<rect x="685.701" y="-190.229" class="st12" width="20.5" height="701.624"/>
<path class="st13" d="M688.311-176.943h1.481c0.397,0,0.771-0.19,1.009-0.512l4.762-6.453c0.194-0.262,0.583-0.262,0.776,0
	l4.762,6.453c0.238,0.322,0.612,0.512,1.01,0.512h1.48c0.41,0,0.644-0.474,0.399-0.806l-7.563-10.248
	c-0.237-0.322-0.714-0.322-0.952,0l-7.562,10.248C687.667-177.417,687.902-176.943,688.311-176.943"/>
<path class="st13" d="M703.591,497.309h-1.481c-0.397,0-0.771,0.19-1.009,0.512l-4.762,6.453c-0.194,0.262-0.583,0.262-0.776,0
	l-4.762-6.453c-0.238-0.322-0.612-0.512-1.01-0.512h-1.48c-0.41,0-0.644,0.474-0.399,0.806l7.563,10.248
	c0.237,0.322,0.714,0.322,0.952,0l7.562-10.248C704.235,497.783,704,497.309,703.591,497.309"/>
<rect x="685.451" y="-190.479" class="st9" width="21" height="702.124"/>
<g>
	<g>
		<line class="st7" x1="-35.523" y1="-67.499" x2="-48.54" y2="-67.499"/>
		<line class="st7" x1="-35.523" y1="-77.675" x2="-48.54" y2="-77.675"/>
		<line class="st7" x1="-35.523" y1="-72.587" x2="-48.54" y2="-72.587"/>
		<g>
			<path class="st5" d="M-52.182-79.145v2.104h-0.487v-1.714h-0.421v-0.391H-52.182z"/>
		</g>
		<g>
			<path class="st5" d="M-51.422-72.178v0.396h-1.59v-0.315l0.812-0.767c0.187-0.178,0.22-0.286,0.22-0.388
				c0-0.165-0.114-0.262-0.337-0.262c-0.18,0-0.333,0.069-0.436,0.21l-0.355-0.228c0.163-0.238,0.457-0.392,0.836-0.392
				c0.469,0,0.781,0.241,0.781,0.623c0,0.204-0.057,0.391-0.352,0.664l-0.484,0.457H-51.422z"/>
		</g>
		<g>
			<path class="st5" d="M-51.44-67.419c0,0.354-0.273,0.68-0.872,0.68c-0.295,0-0.599-0.081-0.803-0.226l0.189-0.373
				c0.159,0.121,0.382,0.189,0.601,0.189c0.244,0,0.394-0.099,0.394-0.271c0-0.159-0.117-0.258-0.394-0.258h-0.223v-0.322
				l0.433-0.49h-0.896v-0.391h1.473v0.316l-0.475,0.541C-51.632-67.963-51.44-67.729-51.44-67.419z"/>
		</g>
	</g>
	<polygon class="st6" points="-57.569,-85.942 -57.569,-59.942 -57.569,-59.692 -57.319,-59.692 -31.319,-59.692 -31.069,-59.692 
		-31.069,-59.942 -31.069,-85.942 -31.069,-86.192 -31.319,-86.192 -57.319,-86.192 -57.569,-86.192 	"/>
</g>
<polygon class="st6" points="-119.401,-85.942 -119.401,-59.942 -119.401,-59.692 -119.151,-59.692 -93.151,-59.692 
	-92.901,-59.692 -92.901,-59.942 -92.901,-85.942 -92.901,-86.192 -93.151,-86.192 -119.151,-86.192 -119.401,-86.192 "/>
<g>
	<polygon class="st6" points="-89.06,-85.942 -89.06,-59.942 -89.06,-59.692 -88.81,-59.692 -62.81,-59.692 -62.56,-59.692 
		-62.56,-59.942 -62.56,-85.942 -62.56,-86.192 -62.81,-86.192 -88.81,-86.192 -89.06,-86.192 	"/>
	<path class="st7" d="M-67.528-67.817h-13.016 M-67.528-72.95h-13.016 M-67.528-78.082h-13.016"/>
	<path class="st5" d="M-82.63-72.366c0.161-0.156,0.241-0.349,0.241-0.581c0-0.15-0.037-0.288-0.11-0.414
		c-0.073-0.125-0.172-0.224-0.297-0.297c-0.126-0.073-0.264-0.11-0.415-0.11c-0.15,0-0.288,0.037-0.41,0.11
		c-0.122,0.073-0.221,0.172-0.294,0.297c-0.072,0.126-0.11,0.264-0.11,0.414c0,0.232,0.08,0.425,0.238,0.581
		c0.157,0.156,0.35,0.234,0.576,0.234C-82.984-72.132-82.791-72.21-82.63-72.366"/>
	<path class="st5" d="M-83.207-77c0.489,0,0.885-0.396,0.885-0.885c0-0.488-0.396-0.885-0.885-0.885
		c-0.488,0-0.885,0.397-0.885,0.885C-84.092-77.396-83.695-77-83.207-77"/>
	<path class="st5" d="M-82.63-67.349c0.161-0.156,0.241-0.349,0.241-0.581c0-0.15-0.037-0.288-0.11-0.414
		c-0.073-0.125-0.172-0.224-0.297-0.297c-0.126-0.073-0.264-0.11-0.415-0.11c-0.15,0-0.288,0.037-0.41,0.11
		c-0.122,0.073-0.221,0.172-0.294,0.297c-0.072,0.126-0.11,0.264-0.11,0.414c0,0.232,0.08,0.425,0.238,0.581
		c0.157,0.156,0.35,0.234,0.576,0.234C-82.984-67.115-82.791-67.193-82.63-67.349"/>
</g>
<path class="st7" d="M-97.869-67.81h-13.016 M-97.869-72.943h-13.016 M-97.869-78.075h-13.016"/>
<rect x="-114.433" y="-78.844" class="st5" width="1.77" height="1.77"/>
<rect x="-114.433" y="-73.828" class="st5" width="1.77" height="1.77"/>
<rect x="-114.433" y="-68.81" class="st5" width="1.77" height="1.77"/>
<rect x="224.088" y="-153.732" class="st2" width="245" height="57.75"/>
<text transform="matrix(1 0 0 1 298.786 -127.5363)"><tspan x="0" y="0" class="st5" style="font-family:'Montserrat-Regular'; font-size:13px;">N</tspan><tspan x="10.478" y="0" class="st5" style="font-family:'Montserrat-Regular'; font-size:13px;">e</tspan><tspan x="18.135" y="0" class="st5" style="font-family:'Montserrat-Regular'; font-size:13px;">u</tspan><tspan x="26.753" y="0" class="st5" style="font-family:'Montserrat-Regular'; font-size:13px;">e </tspan><tspan x="38.011" y="0" class="st5" style="font-family:'Montserrat-Regular'; font-size:13px; letter-spacing:-1;">T</tspan><tspan x="44.381" y="0" class="st5" style="font-family:'Montserrat-Regular'; font-size:13px;">e</tspan><tspan x="51.882" y="0" class="st5" style="font-family:'Montserrat-Regular'; font-size:13px;">x</tspan><tspan x="59.097" y="0" class="st5" style="font-family:'Montserrat-Regular'; font-size:13px;">t</tspan><tspan x="64.128" y="0" class="st5" style="font-family:'Montserrat-Regular'; font-size:13px;">b</tspan><tspan x="72.942" y="0" class="st5" style="font-family:'Montserrat-Regular'; font-size:13px;">o</tspan><tspan x="80.742" y="0" class="st5" style="font-family:'Montserrat-Regular'; font-size:13px;">x </tspan></text>
<path class="st14" d="M346.588-105.773c3.707,0,6.713-3.005,6.713-6.712c0-3.708-3.006-6.713-6.713-6.713s-6.712,3.005-6.712,6.713
	C339.876-108.778,342.881-105.773,346.588-105.773z"/>
<rect x="224.088" y="-153.732" class="st9" width="245" height="57.75"/>
<line class="st15" x1="346.588" y1="-116.02" x2="346.588" y2="-108.951"/>
<line class="st15" x1="343.054" y1="-112.454" x2="350.122" y2="-112.454"/>
<path class="st14" d="M235.627-65.938c3.707,0,6.713-3.005,6.713-6.712c0-3.708-3.006-6.713-6.713-6.713
	c-3.707,0-6.712,3.005-6.712,6.713C228.915-68.943,231.92-65.938,235.627-65.938z"/>
<line class="st15" x1="235.627" y1="-76.184" x2="235.627" y2="-69.115"/>
<line class="st15" x1="232.093" y1="-72.619" x2="239.161" y2="-72.619"/>
<g>
	<path class="st16" d="M-260.265-50.802h-3.138v-1.85h8.544v1.85h-3.138v7.956h-2.269V-50.802z"/>
	<path class="st16" d="M-253.645-52.652h2.269v9.806h-2.269V-52.652z"/>
	<path class="st16" d="M-240.551-49.093c0,2.185-1.639,3.544-4.258,3.544h-1.975v2.703h-2.269v-9.806h4.244
		C-242.189-52.652-240.551-51.293-240.551-49.093z M-242.847-49.093c0-1.079-0.701-1.709-2.087-1.709h-1.849v3.403h1.849
		C-243.548-47.399-242.847-48.029-242.847-49.093z"/>
	<path class="st16" d="M-230.428-49.093c0,2.185-1.639,3.544-4.258,3.544h-1.975v2.703h-2.269v-9.806h4.244
		C-232.067-52.652-230.428-51.293-230.428-49.093z M-232.725-49.093c0-1.079-0.701-1.709-2.087-1.709h-1.849v3.403h1.849
		C-233.426-47.399-232.725-48.029-232.725-49.093z"/>
</g>
<path class="st16" d="M-296.893-57.123L-296.893-57.123c-1.054,2.474-1.96,4.602-2.889,6.784h5.729
	C-294.997-52.595-295.879-54.703-296.893-57.123 M-293.4-39.533L-293.4-39.533c-0.346-1.15-0.211-1.759,1.044-1.8
	c0.976-0.033,1.343-0.74,1.02-1.64c-0.507-1.414-1.072-2.81-1.681-4.183c-0.109-0.245-0.55-0.478-0.843-0.484
	c-2.129-0.041-4.261-0.046-6.39,0.005c-0.305,0.008-0.741,0.315-0.877,0.599c-0.558,1.155-1.057,2.342-1.512,3.542
	c-0.57,1.504-0.268,2.026,1.348,2.192c0.783,0.081,1.206,0.319,1.022,1.126c-0.056,0.243-0.355,0.61-0.547,0.613
	c-2.524,0.042-5.049,0.028-7.596,0.028c-0.214-0.956-0.321-1.631,0.868-1.885c0.569-0.122,1.219-0.609,1.515-1.117
	c0.755-1.293,1.377-2.67,1.972-4.049c2.401-5.559,4.761-11.135,7.172-16.689c0.173-0.398,0.634-0.67,0.96-1
	c0.319,0.343,0.766,0.632,0.937,1.037c2.56,6.048,5.079,12.114,7.622,18.17c0.326,0.776,0.705,1.534,1.106,2.275
	c0.507,0.939,1.332,1.389,2.379,1.595c0.265,0.052,0.519,0.638,0.586,1.013c0.032,0.175-0.39,0.621-0.611,0.624
	C-287.058-39.52-290.211-39.533-293.4-39.533"/>
<path class="st5" d="M-199.655-47.071c2.682-0.014,4.762-2.036,4.751-4.621c-0.01-2.367-2.203-4.406-4.733-4.399
	c-2.703,0.008-4.848,2.038-4.825,4.568C-204.439-49.059-202.279-47.058-199.655-47.071 M-194.1-47.058L-194.1-47.058
	c0.393-0.231,0.569-0.207,0.91,0.115c1.249,1.181,2.501,2.361,3.751,3.541c0.086,0.08,0.173,0.159,0.252,0.246
	c0.216,0.237,0.217,0.464-0.012,0.692c-0.249,0.248-0.509,0.488-0.767,0.727c-0.302,0.28-0.548,0.287-0.855,0
	c-1.177-1.103-2.348-2.211-3.522-3.318c-0.132-0.124-0.263-0.25-0.396-0.373c-0.368-0.34-0.394-0.487-0.153-0.896
	c-0.368-0.336-0.737-0.673-1.128-1.029c-1.472,1.07-3.153,1.471-5.011,1.06c-1.415-0.313-2.544-1.054-3.377-2.178
	c-1.65-2.23-1.286-5.335,0.823-7.11c2.222-1.87,5.521-1.904,7.68-0.117c2.217,1.835,2.765,5.106,0.696,7.583
	C-194.839-47.762-194.47-47.411-194.1-47.058"/>
<path class="st17" d="M-199.655-47.071c2.682-0.014,4.762-2.036,4.751-4.621c-0.01-2.367-2.203-4.406-4.733-4.399
	c-2.703,0.008-4.848,2.038-4.825,4.568C-204.439-49.059-202.279-47.058-199.655-47.071z M-194.1-47.058L-194.1-47.058
	c0.393-0.231,0.569-0.207,0.91,0.115c1.249,1.181,2.501,2.361,3.751,3.541c0.086,0.08,0.173,0.159,0.252,0.246
	c0.216,0.237,0.217,0.464-0.012,0.692c-0.249,0.248-0.509,0.488-0.767,0.727c-0.302,0.28-0.548,0.287-0.855,0
	c-1.177-1.103-2.348-2.211-3.522-3.318c-0.132-0.124-0.263-0.25-0.396-0.373c-0.368-0.34-0.394-0.487-0.153-0.896
	c-0.368-0.336-0.737-0.673-1.128-1.029c-1.472,1.07-3.153,1.471-5.011,1.06c-1.415-0.313-2.544-1.054-3.377-2.178
	c-1.65-2.23-1.286-5.335,0.823-7.11c2.222-1.87,5.521-1.904,7.68-0.117c2.217,1.835,2.765,5.106,0.696,7.583
	C-194.839-47.762-194.47-47.411-194.1-47.058z"/>
<path class="st5" d="M-135.94-56.652l2.966,2.98v-2.758c0-0.096-0.055-0.229-0.123-0.297l-3.807-3.826
	c-0.068-0.067-0.178-0.067-0.245,0l-3.93,3.949v2.758c0,0.096,0.055,0.119,0.122,0.051l2.844-2.857
	c0.068-0.068,0.122-0.046,0.122,0.05v7.829h0v2.168c0,0.096-0.055,0.118-0.123,0.05l-2.966-2.98v2.758
	c0,0.096,0.055,0.229,0.123,0.297l3.807,3.826c0.068,0.067,0.178,0.067,0.245,0l3.93-3.949v-2.758c0-0.096-0.055-0.119-0.122-0.051
	l-2.844,2.857c-0.068,0.068-0.122,0.046-0.122-0.05v-7.829h0v-2.168C-136.063-56.698-136.008-56.72-135.94-56.652z"/>
<line class="st18" x1="-172.079" y1="-43.416" x2="-144.246" y2="-43.416"/>
<line class="st18" x1="-172.079" y1="-51.712" x2="-144.246" y2="-51.712"/>
<line class="st18" x1="-172.079" y1="-59.704" x2="-144.246" y2="-59.704"/>
<line class="st18" x1="-157.738" y1="-24.444" x2="-157.738" y2="-3.444"/>
<path class="st5" d="M-150.278-10.601L-150.278-10.601h2.695l-2.603-2.569c-0.138-0.135-0.093-0.245,0.101-0.245h7.006v-1.407
	c0-0.193-0.157-0.35-0.35-0.35h-6.656c-0.194,0-0.239-0.11-0.101-0.246l2.603-2.569h-2.345c-0.193,0-0.462,0.111-0.599,0.246
	l-3.245,3.201c-0.137,0.136-0.137,0.356,0,0.492L-150.278-10.601z"/>
<path class="st5" d="M-166.048-17.813L-166.048-17.813h-2.695l2.603,2.569c0.138,0.135,0.093,0.245-0.101,0.245h-7.006v1.407
	c0,0.193,0.157,0.35,0.35,0.35h6.656c0.194,0,0.239,0.11,0.101,0.246l-2.603,2.569h2.345c0.193,0,0.462-0.111,0.599-0.246
	l3.245-3.201c0.137-0.136,0.137-0.356,0-0.492L-166.048-17.813z"/>
<line class="st19" x1="158.548" y1="-143.557" x2="122.525" y2="-143.557"/>
<path class="st20" d="M150.045-140.411c2.045,0,3.703-1.658,3.703-3.703s-1.658-3.703-3.703-3.703c-2.045,0-3.703,1.658-3.703,3.703
	S148-140.411,150.045-140.411"/>
<g>
	<path class="st5" d="M173.244-143.356c0,3.12-1.82,4.836-4.459,4.836c-0.91,0-1.781-0.195-2.392-0.585l0.624-1.274
		c0.494,0.325,1.092,0.442,1.729,0.442c1.716,0,2.795-1.066,2.795-3.133v-0.014c-0.546,0.638-1.417,0.949-2.431,0.949
		c-1.794,0-3.133-1.092-3.133-2.795c0-1.807,1.469-2.951,3.328-2.951C171.788-147.88,173.244-146.281,173.244-143.356z
		 M171.281-145.02c0-0.858-0.676-1.534-1.885-1.534c-1.053,0-1.781,0.598-1.781,1.547s0.715,1.547,1.82,1.547
		C170.528-143.461,171.281-144.124,171.281-145.02z"/>
	<path class="st5" d="M181.11-141.445c0,1.599-1.157,2.925-3.602,2.925c-1.287,0-2.587-0.39-3.419-1.053l0.715-1.313
		c0.663,0.546,1.651,0.897,2.678,0.897c1.209,0,1.924-0.533,1.924-1.392c0-0.871-0.559-1.417-2.444-1.417h-2.197l0.468-4.953h5.343
		v1.417h-3.913l-0.195,2.106h0.871C180.03-144.227,181.11-143.057,181.11-141.445z"/>
	<path class="st5" d="M185.529-145.345c0-1.495,0.871-2.496,2.171-2.496s2.184,0.988,2.184,2.496s-0.884,2.496-2.184,2.496
		S185.529-143.85,185.529-145.345z M188.818-145.345c0-1.014-0.416-1.586-1.118-1.586c-0.676,0-1.118,0.585-1.118,1.586
		s0.442,1.586,1.118,1.586C188.402-143.759,188.818-144.332,188.818-145.345z M193.16-147.751h1.274l-6.214,9.101h-1.274
		L193.16-147.751z M191.496-141.055c0-1.495,0.871-2.496,2.171-2.496c1.3,0,2.184,1.001,2.184,2.496s-0.884,2.496-2.184,2.496
		C192.367-138.559,191.496-139.56,191.496-141.055z M194.785-141.055c0-1.001-0.429-1.586-1.118-1.586s-1.118,0.572-1.118,1.586
		c0,1.015,0.429,1.586,1.118,1.586S194.785-140.054,194.785-141.055z"/>
</g>
<rect x="136.486" y="-89.414" class="st11" width="13.149" height="16.764"/>
<polygon class="st21" points="136.485,-72.65 136.485,-72.65 149.634,-72.65 149.634,-89.414 136.485,-89.414 "/>
<rect x="128.814" y="-89.885" class="st9" width="21.291" height="24"/>
<line class="st22" x1="133.311" y1="-81.719" x2="133.311" y2="-71.332"/>
<line class="st23" x1="135.943" y1="-69.443" x2="145.592" y2="-69.443"/>
<path class="st21" d="M146.468-69.443h0.877 M133.311-70.387v0.944h0.877 M133.311-84.552v0.944"/>
<polyline class="st21" points="129.284,-81.464 129.284,-66.356 143.318,-66.356 "/>
<rect x="128.814" y="-89.885" class="st9" width="21.291" height="24"/>
<rect x="168.059" y="-89.483" class="st11" width="14.674" height="18.705"/>
<polygon class="st24" points="168.06,-70.778 168.06,-70.778 182.733,-70.778 182.733,-89.483 168.06,-89.483 "/>
<rect x="167.657" y="-89.885" class="st9" width="19.884" height="24"/>
<rect x="172.466" y="-84.992" class="st5" width="14.674" height="18.705"/>
<polygon class="st25" points="172.466,-66.287 172.466,-66.287 187.139,-66.287 187.139,-84.992 172.466,-84.992 "/>
<rect x="167.657" y="-89.885" class="st9" width="19.884" height="24"/>
<rect x="69.167" y="-85.936" class="st10" width="34.924" height="19.551"/>
<text transform="matrix(1 0 0 1 76.167 -71.2847)"><tspan x="0" y="0" class="st11" style="font-family:'Montserrat-Regular'; font-size:13px;">e</tspan><tspan x="7.41" y="0" class="st11" style="font-family:'Montserrat-Regular'; font-size:13px;">i</tspan><tspan x="10.335" y="0" class="st11" style="font-family:'Montserrat-Regular'; font-size:13px;">n</tspan></text>
<polygon class="st6" points="34.159,-86.061 34.159,-66.061 34.159,-65.811 34.409,-65.811 103.258,-65.811 103.508,-65.811 
	103.508,-66.061 103.508,-86.061 103.508,-86.311 103.258,-86.311 34.409,-86.311 34.159,-86.311 "/>
<rect x="33.909" y="-86.561" class="st9" width="70.183" height="21"/>
<line class="st26" x1="175.223" y1="3.578" x2="175.223" y2="27.838"/>
<path class="st5" d="M183.32,19.396L183.32,19.396h2.592l-2.494-2.46c-0.138-0.135-0.093-0.245,0.101-0.245h6.725v-1.339
	c0-0.193-0.157-0.35-0.35-0.35h-6.725l2.743-2.705h-2.242c-0.193,0-0.462,0.11-0.599,0.245l-3.102,3.059
	c-0.137,0.135-0.137,0.355,0,0.491L183.32,19.396z"/>
<line class="st26" x1="148.277" y1="27.671" x2="148.277" y2="3.411"/>
<path class="st5" d="M140.181,11.853L140.181,11.853h-2.592l2.494,2.46c0.138,0.135,0.093,0.245-0.101,0.245h-6.725v1.339
	c0,0.193,0.157,0.35,0.35,0.35h6.725l-2.743,2.705h2.242c0.193,0,0.462-0.11,0.599-0.245l3.102-3.059
	c0.137-0.135,0.137-0.355,0-0.491L140.181,11.853z"/>
<line class="st26" x1="-41.465" y1="11.45" x2="-17.205" y2="11.45"/>
<path class="st5" d="M-25.813,3.392L-25.813,3.392V0.8l-2.46,2.494c-0.135,0.138-0.245,0.093-0.245-0.101v-6.725h-1.339
	c-0.193,0-0.35,0.157-0.35,0.35v6.725L-32.912,0.8v2.242c0,0.193,0.11,0.462,0.245,0.599l3.059,3.102
	c0.135,0.137,0.355,0.137,0.491,0L-25.813,3.392z"/>
<path class="st5" d="M-32.746,18.544L-32.746,18.544v2.592l2.46-2.494c0.135-0.138,0.245-0.093,0.245,0.101v6.725h1.339
	c0.193,0,0.35-0.157,0.35-0.35v-6.725l2.705,2.743v-2.242c0-0.193-0.11-0.462-0.245-0.599l-3.059-3.102
	c-0.135-0.137-0.355-0.137-0.491,0L-32.746,18.544z"/>
<line class="st26" x1="14.982" y1="24.26" x2="14.982" y2="0"/>
<path class="st5" d="M6.924,8.609L6.924,8.609H4.332l2.494,2.46c0.138,0.135,0.093,0.245-0.101,0.245H0v1.339
	c0,0.193,0.157,0.35,0.35,0.35h6.725l-2.743,2.705h2.242c0.193,0,0.462-0.11,0.599-0.245l3.102-3.059
	c0.137-0.135,0.137-0.355,0-0.491L6.924,8.609z"/>
<path class="st5" d="M22.076,15.541L22.076,15.541h2.592l-2.494-2.46c-0.138-0.135-0.093-0.245,0.101-0.245H29v-1.339
	c0-0.193-0.157-0.35-0.35-0.35h-6.725l2.743-2.705h-2.242c-0.193,0-0.462,0.11-0.599,0.245l-3.102,3.059
	c-0.137,0.135-0.137,0.355,0,0.491L22.076,15.541z"/>
<line class="st26" x1="47.123" y1="11.733" x2="71.383" y2="11.733"/>
<path class="st5" d="M55.842,18.827L55.842,18.827v2.592l2.46-2.494c0.135-0.138,0.245-0.093,0.245,0.101v6.725h1.339
	c0.193,0,0.35-0.157,0.35-0.35v-6.725l2.705,2.743v-2.242c0-0.193-0.11-0.462-0.245-0.599l-3.059-3.102
	c-0.135-0.137-0.355-0.137-0.491,0L55.842,18.827z"/>
<line class="st26" x1="92.234" y1="22.988" x2="116.494" y2="22.988"/>
<path class="st5" d="M108.053,14.599L108.053,14.599v-2.592l-2.46,2.494c-0.135,0.138-0.245,0.093-0.245-0.101V7.675h-1.339
	c-0.193,0-0.35,0.157-0.35,0.35v6.725l-2.705-2.743v2.242c0,0.193,0.11,0.462,0.245,0.599l3.059,3.102
	c0.135,0.137,0.355,0.137,0.491,0L108.053,14.599z"/>
<rect x="238.098" y="-3.938" class="st11" width="15.769" height="20.056"/>
<line class="st27" x1="241.055" y1="16.118" x2="251.896" y2="16.118"/>
<line class="st28" x1="253.867" y1="13.11" x2="253.867" y2="-1.932"/>
<line class="st27" x1="250.91" y1="-3.938" x2="240.069" y2="-3.938"/>
<line class="st28" x1="238.098" y1="-0.93" x2="238.098" y2="14.112"/>
<path class="st21" d="M238.098,15.115v1.003h0.986 M239.084-3.938h-0.986v1.003 M253.867-2.935v-1.003h-0.985 M252.882,16.118h0.985
	v-1.003"/>
<polygon class="st11" points="226.862,26.118 226.862,26.118 242.631,26.118 242.631,6.062 226.862,6.062 "/>
<line class="st27" x1="229.819" y1="26.118" x2="240.66" y2="26.118"/>
<line class="st28" x1="242.631" y1="23.11" x2="242.631" y2="8.068"/>
<line class="st27" x1="239.675" y1="6.062" x2="228.834" y2="6.062"/>
<line class="st28" x1="226.862" y1="9.07" x2="226.862" y2="24.112"/>
<path class="st21" d="M226.862,25.115v1.003h0.986 M227.848,6.062h-0.986v1.003 M242.631,7.065V6.062h-0.985 M241.646,26.118h0.985
	v-1.003"/>
<polygon class="st11" points="217.388,34.118 217.388,34.118 233.157,34.118 233.157,14.062 217.388,14.062 "/>
<polygon class="st21" points="217.388,34.118 217.388,34.118 233.157,34.118 233.157,14.062 217.388,14.062 "/>
<g>
	<polygon class="st11" points="291.224,20.424 291.224,20.424 306.993,20.424 306.993,0.368 291.224,0.368 	"/>
	<polygon class="st21" points="291.224,20.424 291.224,20.424 306.993,20.424 306.993,0.368 291.224,0.368 	"/>
	<line class="st29" x1="287.46" y1="8.922" x2="287.46" y2="22.426"/>
	<line class="st30" x1="290.597" y1="24.227" x2="302.1" y2="24.227"/>
	<path class="st21" d="M303.145,24.227h1.046 M287.46,23.327v0.9h1.046 M287.46,6.222v0.9"/>
</g>
<g>
	<g>
		<rect x="363.764" y="-11.353" class="st11" width="15.769" height="20.056"/>
		<polygon class="st21" points="363.764,8.703 363.764,8.703 379.533,8.703 379.533,-11.353 363.764,-11.353 		"/>
		<polygon class="st11" points="352.528,18.703 352.528,18.703 368.297,18.703 368.297,-1.353 352.528,-1.353 		"/>
		<line class="st27" x1="355.485" y1="18.703" x2="366.326" y2="18.703"/>
		<line class="st28" x1="368.297" y1="15.695" x2="368.297" y2="0.653"/>
		<line class="st27" x1="365.34" y1="-1.353" x2="354.499" y2="-1.353"/>
		<line class="st28" x1="352.528" y1="1.656" x2="352.528" y2="16.698"/>
		<path class="st21" d="M352.528,17.7v1.003h0.986 M353.514-1.353h-0.986v1.003 M368.297-0.35v-1.003h-0.985 M367.312,18.703h0.985
			V17.7"/>
		<polygon class="st11" points="343.054,26.703 343.054,26.703 358.823,26.703 358.823,6.647 343.054,6.647 		"/>
		<line class="st27" x1="346.011" y1="26.703" x2="356.852" y2="26.703"/>
		<line class="st28" x1="358.823" y1="23.695" x2="358.823" y2="8.653"/>
		<line class="st27" x1="355.867" y1="6.647" x2="345.026" y2="6.647"/>
		<line class="st28" x1="343.054" y1="9.656" x2="343.054" y2="24.698"/>
		<path class="st21" d="M343.054,25.7v1.003h0.986 M344.04,6.647h-0.986V7.65 M358.823,7.65V6.647h-0.985 M357.838,26.703h0.985
			V25.7"/>
	</g>
	<line class="st27" x1="419.178" y1="22.189" x2="430.019" y2="22.189"/>
	<line class="st28" x1="431.99" y1="19.18" x2="431.99" y2="4.138"/>
	<line class="st27" x1="429.033" y1="2.133" x2="418.192" y2="2.133"/>
	<line class="st28" x1="416.221" y1="5.141" x2="416.221" y2="20.183"/>
	<path class="st21" d="M416.221,21.186v1.003h0.986 M417.207,2.133h-0.986v1.003 M431.99,3.136V2.133h-0.985 M431.005,22.189h0.985
		v-1.003"/>
	<polyline class="st21" points="412.457,7.987 412.457,25.992 429.188,25.992 	"/>
</g>
<g>
	<defs>
		<rect id="SVGID_1_" x="-342.818" y="116.025" width="241.682" height="1"/>
	</defs>
	<clipPath id="SVGID_00000153663743235889750230000014236750435980499854_">
		<use xlink:href="#SVGID_1_"  style="overflow:visible;"/>
	</clipPath>
	
		<line style="clip-path:url(#SVGID_00000153663743235889750230000014236750435980499854_);fill:none;stroke:#B2B2B2;stroke-linecap:round;stroke-linejoin:round;stroke-dasharray:0,3.009;" x1="-339.309" y1="116.525" x2="-103.139" y2="116.525"/>
	
		<path style="clip-path:url(#SVGID_00000153663743235889750230000014236750435980499854_);fill:none;stroke:#B2B2B2;stroke-linecap:round;stroke-linejoin:round;" d="
		M-101.636,116.525L-101.636,116.525 M-342.318,116.525L-342.318,116.525"/>
</g>
<circle class="st33" cx="-295.92" cy="-104.687" r="12.75"/>
<polygon class="st3" points="-152.527,-119.71 -165.527,-119.71 -159.159,-109.235 "/>
<polygon class="st5" points="-144.503,8.832 -154.978,15.2 -144.503,21.832 "/>
<polygon class="st5" points="-173.55,21.832 -163.075,15.464 -173.55,8.832 "/>
<polygon class="st5" points="-90.997,8.832 -101.472,15.2 -90.997,21.832 "/>
<polygon class="st5" points="-126.174,21.832 -115.699,15.464 -126.174,8.832 "/>
<rect x="34.076" y="-119.699" class="st10" width="34.924" height="19.551"/>
<polygon class="st6" points="34.326,-119.824 34.326,-99.824 34.326,-99.574 34.576,-99.574 103.425,-99.574 103.675,-99.574 
	103.675,-99.824 103.675,-119.824 103.675,-120.074 103.425,-120.074 34.576,-120.074 34.326,-120.074 "/>
<rect x="34.076" y="-120.324" class="st9" width="69.849" height="21"/>
<rect x="69.439" y="-53.671" class="st10" width="34.924" height="19.551"/>
<polygon class="st6" points="34.431,-53.796 34.431,-33.796 34.431,-33.546 34.681,-33.546 103.53,-33.546 103.78,-33.546 
	103.78,-33.796 103.78,-53.796 103.78,-54.046 103.53,-54.046 34.681,-54.046 34.431,-54.046 "/>
<rect x="34.181" y="-54.296" class="st9" width="70.183" height="21"/>
<line class="st19" x1="157.471" y1="-123.77" x2="121.448" y2="-123.77"/>
<path class="st20" d="M148.968-120.623c2.045,0,3.703-1.658,3.703-3.703c0-2.045-1.658-3.703-3.703-3.703
	c-2.045,0-3.703,1.658-3.703,3.703C145.265-122.281,146.923-120.623,148.968-120.623"/>
<line class="st19" x1="465.795" y1="-92.99" x2="429.772" y2="-92.99"/>
<path class="st20" d="M457.292-89.844c2.045,0,3.703-1.658,3.703-3.703s-1.658-3.703-3.703-3.703s-3.703,1.658-3.703,3.703
	S455.247-89.844,457.292-89.844"/>
</svg>
