<?xml version="1.0" encoding="utf-8"?>
<!-- Generator: Adobe Illustrator 26.4.1, SVG Export Plug-In . SVG Version: 6.00 Build 0)  -->
<svg version="1.1" id="Ebene_1" xmlns="http://www.w3.org/2000/svg" xmlns:xlink="http://www.w3.org/1999/xlink" x="0px" y="0px"
	 width="26px" height="26px" viewBox="0 0 26 26" style="enable-background:new 0 0 26 26;" xml:space="preserve">
<style type="text/css">
	.st0{fill:#B1B1B0;}
</style>
<path class="st0" d="M12.2,22.3c-0.3,0.9-1.3,1.4-2.2,1C9,23,8.6,22,8.9,21.1c0.3-0.9,1.3-1.4,2.2-1C12.1,20.4,12.5,21.4,12.2,22.3
	 M7.8,9.6c-0.3,0.9-1.3,1.4-2.2,1c-0.9-0.3-1.4-1.3-1.1-2.2c0.3-0.9,1.3-1.4,2.2-1C7.7,7.7,8.2,8.7,7.8,9.6 M7.7,19.6
	c-0.3,0.9-1.3,1.4-2.2,1s-1.4-1.3-1.1-2.2c0.3-0.9,1.3-1.4,2.2-1C7.5,17.7,8,18.7,7.7,19.6 M3.6,15.7c-0.9-0.3-1.4-1.3-1.1-2.2
	c0.3-0.9,1.3-1.4,2.2-1c0.9,0.3,1.4,1.3,1.1,2.2C5.6,15.6,4.6,16.1,3.6,15.7 M9.3,6c0.3-0.9,1.3-1.4,2.2-1c0.9,0.3,1.4,1.3,1.1,2.2
	c-0.3,0.9-1.3,1.4-2.2,1C9.5,7.9,9,6.9,9.3,6 M20.5,16.1c-1.3,0.5-2.5-0.8-2.1-2.1c0.2-0.9,0.8-1.7,1.2-3.2c0.1-0.4,0.2-0.9,0.2-1.4
	l-0.5,0.7c-0.1,0.1-0.2,0.2-0.4,0.3c0,0.2-0.1,0.3-0.2,0.4l-1,0.9c-0.1,0-0.1,0.1-0.2,0.1c0,0.5-0.1,1.8-1.1,2.9
	c-1.2,1.2-3,1.9-5.6,1.9c-0.1,0-0.2,0-0.2,0c-0.2,0-0.4-0.1-0.5-0.2c-0.1-0.1-0.2-0.3-0.3-0.4c-0.1-0.4,0.1-0.7,0.5-0.9
	c0.1,0,1.4-0.6,1.7-2.3c0.2-0.9,0.7-1.7,1.5-2.2c0.5-0.4,1.1-0.6,1.7-0.7c0-0.1,0.1-0.2,0.1-0.2l0.7-1.1c0.1-0.1,0.2-0.2,0.4-0.3
	c0-0.2,0.1-0.3,0.2-0.4l1.9-2c-0.2-0.2-0.3-0.4-0.5-0.6C15,2.4,8.3,0.8,3.8,6c-5.4,6.2-3.6,12.9-0.1,16.6c2.6,2.7,7.8,3.9,10.9,3.3
	c3.1-0.6,6.4-2.8,8.4-6.5C24.5,16.9,22.8,15.3,20.5,16.1"/>
<path class="st0" d="M16.9,11.7c0-0.1,0-0.1-0.1-0.1l-1.2-1c0,0-0.1-0.1-0.1-0.1c-1-0.1-2.7,0.8-3.1,2.5c-0.4,2-2,2.7-2,2.7
	c-0.1,0-0.2,0.1-0.1,0.3c0,0.1,0,0.1,0.1,0.1c0,0,0.1,0.1,0.1,0.1c2.5,0,4.4-0.5,5.4-1.7C17,13.2,16.9,11.7,16.9,11.7"/>
<path class="st0" d="M17,8.8l1.2,1c0.1,0.1,0.2,0.1,0.3,0.1c0.1,0,0.2-0.1,0.3-0.2l6.9-8.6c0.1-0.2,0.1-0.4-0.1-0.6l-0.5-0.5
	c-0.2-0.1-0.4-0.1-0.6,0L17,8.2c-0.1,0.1-0.1,0.2-0.1,0.3C16.9,8.6,16.9,8.7,17,8.8"/>
<path class="st0" d="M15.6,10c-0.1,0.1,0,0.2,0,0.3l1.2,1c0.1,0.1,0.2,0.1,0.3,0l1-0.9c0,0,0.1-0.1,0.1-0.2s0-0.1-0.1-0.2l-1.5-1.2
	c-0.1,0-0.1-0.1-0.2-0.1c-0.1,0-0.1,0-0.2,0.1L15.6,10z"/>
</svg>
