<?xml version="1.0" encoding="utf-8"?>
<!-- Generator: Adobe Illustrator 26.0.3, SVG Export Plug-In . SVG Version: 6.00 Build 0)  -->
<svg version="1.1" id="Ebene_1" xmlns="http://www.w3.org/2000/svg" xmlns:xlink="http://www.w3.org/1999/xlink" x="0px" y="0px"
	 width="24.26px" height="29px" viewBox="0 0 24.26 29" style="enable-background:new 0 0 24.26 29;" xml:space="preserve">
<style type="text/css">
	.st0{fill:none;stroke:#C5C5C5;stroke-width:3;stroke-linecap:round;stroke-linejoin:round;}
	.st1{fill:#FFAEFF;stroke:#4F4D4D;stroke-width:0.5;}
	.st2{fill:#F8F8F8;}
	.st3{fill:#0E689A;}
	.st4{fill:none;stroke:#B2B1B1;stroke-width:0.65;stroke-miterlimit:10;}
	.st5{fill:#B2B1B1;}
	.st6{fill:none;stroke:#B2B2B2;stroke-width:0.5;stroke-miterlimit:10;}
	.st7{fill:none;stroke:#B2B1B1;stroke-width:0.3;stroke-miterlimit:10;}
	.st8{fill:none;stroke:#FFFFFF;stroke-width:0.021;}
	.st9{fill:none;}
	.st10{fill:#0E6899;}
	.st11{fill:#FFFFFF;}
	.st12{fill:none;stroke:#C5C5C5;stroke-width:0.5;stroke-linecap:round;stroke-linejoin:round;}
	.st13{fill:#C5C5C5;}
	.st14{fill:none;stroke:#B2B1B1;stroke-width:0.5;}
	.st15{fill:none;stroke:#B2B1B1;stroke-width:1.2;}
	.st16{fill:#B2B2B2;}
	.st17{fill:none;stroke:#FFFFFF;stroke-width:0.001;}
	.st18{fill:none;stroke:#B2B1B1;stroke-width:1.712;}
	.st19{fill:none;stroke:#B2B1B1;stroke-width:2;}
	.st20{fill:#AD5E7A;}
	.st21{fill:none;stroke:#B2B1B1;stroke-width:0.941;}
	.st22{fill:none;stroke:#B2B1B1;stroke-width:0.941;stroke-dasharray:1.889,1.889;}
	.st23{fill:none;stroke:#B2B1B1;stroke-width:0.941;stroke-dasharray:1.754,1.754;}
	.st24{fill:none;stroke:#B2B1B1;stroke-width:0.804;}
	.st25{fill:none;stroke:#FFFFFF;stroke-width:0.804;}
	.st26{fill:none;stroke:#B2B1B1;stroke-width:2.5;}
	.st27{fill:none;stroke:#B2B1B1;stroke-width:0.941;stroke-dasharray:1.971,1.971;}
	.st28{fill:none;stroke:#B2B1B1;stroke-width:0.941;stroke-dasharray:2.006,2.006;}
	.st29{fill:none;stroke:#B2B1B1;stroke-width:0.941;stroke-dasharray:1.801,1.801;}
	.st30{fill:none;stroke:#B2B1B1;stroke-width:0.941;stroke-dasharray:2.091,2.091;}
	
		.st31{clip-path:url(#SVGID_00000108311489765784953170000015316696493943195272_);fill:none;stroke:#B2B2B2;stroke-linecap:round;stroke-linejoin:round;stroke-dasharray:0,3.009;}
	
		.st32{clip-path:url(#SVGID_00000108311489765784953170000015316696493943195272_);fill:none;stroke:#B2B2B2;stroke-linecap:round;stroke-linejoin:round;}
	.st33{fill:none;stroke:#4F4D4D;stroke-width:0.5;}
</style>
<polyline class="st0" points="1737.438,825.501 1731.188,816.501 1724.438,825.501 "/>
<circle class="st1" cx="-254.455" cy="-137.247" r="12.75"/>
<rect x="-221.994" y="-148.262" class="st2" width="119.902" height="21"/>
<polygon class="st3" points="-111.165,-142.999 -124.165,-142.999 -117.797,-132.524 "/>
<g>
	<g>
		<line class="st4" x1="1.847" y1="-130.742" x2="12.13" y2="-130.742"/>
		<g>
			<path class="st5" d="M3.134-135.967v-5.175h1.3v5.122c0,2.016,0.923,2.926,2.561,2.926c1.638,0,2.574-0.91,2.574-2.926v-5.122
				h1.261v5.175c0,2.639-1.443,4.029-3.848,4.029C4.59-131.938,3.134-133.328,3.134-135.967z"/>
		</g>
	</g>
	<polygon class="st6" points="-6.261,-148.942 -6.261,-122.942 -6.261,-122.692 -6.011,-122.692 19.988,-122.692 20.238,-122.692 
		20.238,-122.942 20.238,-148.942 20.238,-149.192 19.988,-149.192 -6.011,-149.192 -6.261,-149.192 	"/>
</g>
<g>
	<g>
		<path class="st5" d="M-27.615-140.868h1.3l-1.82,9.101h-1.3L-27.615-140.868z"/>
	</g>
	<polygon class="st6" points="-41.126,-149.318 -41.126,-123.318 -41.126,-123.068 -40.876,-123.068 -14.876,-123.068 
		-14.626,-123.068 -14.626,-123.318 -14.626,-149.318 -14.626,-149.568 -14.876,-149.568 -40.876,-149.568 -41.126,-149.568 	"/>
</g>
<g>
	<g>
		<path class="st5" d="M-60.764-134.199c0,1.573-1.248,2.483-3.64,2.483h-4.706v-9.101h4.446c2.275,0,3.445,0.949,3.445,2.366
			c0,0.91-0.468,1.612-1.209,2.002C-61.414-136.123-60.764-135.343-60.764-134.199z M-67.017-139.231v2.146h2.093
			c1.027,0,1.586-0.364,1.586-1.079s-0.559-1.066-1.586-1.066H-67.017z M-62.883-134.42c0-0.767-0.585-1.131-1.677-1.131h-2.457
			v2.249h2.457C-63.468-133.302-62.883-133.64-62.883-134.42z"/>
	</g>
	<polygon class="st6" points="-78.187,-149.266 -78.187,-123.266 -78.187,-123.016 -77.937,-123.016 -51.937,-123.016 
		-51.687,-123.016 -51.687,-123.266 -51.687,-149.266 -51.687,-149.516 -51.937,-149.516 -77.937,-149.516 -78.187,-149.516 	"/>
</g>
<path class="st7" d="M-23.999-107.313"/>
<path class="st7" d="M-26.507-106.059"/>
<path class="st7" d="M-26.507-104.805"/>
<path class="st7" d="M-26.507-103.55"/>
<path class="st7" d="M-23.999-102.297"/>
<path class="st7" d="M-23.999-101.043"/>
<path class="st7" d="M-26.507-99.789"/>
<path class="st7" d="M-26.507-97.281"/>
<path class="st7" d="M-23.999-94.773"/>
<g>
	<path class="st7" d="M-43.463-102.297"/>
	<path class="st7" d="M-43.463-107.313"/>
	<path class="st7" d="M-43.463-94.773"/>
	<path class="st7" d="M-43.463-101.043"/>
	<g>
		<path class="st7" d="M-41.401-99.789"/>
		<path class="st7" d="M-41.401-103.55"/>
		<path class="st7" d="M-41.401-104.805"/>
		<path class="st7" d="M-41.401-106.059"/>
		<line class="st7" x1="-43.839" y1="-95.568" x2="-24.375" y2="-95.568"/>
		<line class="st7" x1="-43.839" y1="-96.843" x2="-28.945" y2="-96.843"/>
		<line class="st7" x1="-43.839" y1="-98.119" x2="-28.945" y2="-98.119"/>
		<line class="st7" x1="-43.839" y1="-99.396" x2="-28.945" y2="-99.396"/>
		<line class="st7" x1="-43.839" y1="-100.672" x2="-24.375" y2="-100.672"/>
		<line class="st7" x1="-43.839" y1="-101.947" x2="-24.375" y2="-101.947"/>
		<line class="st7" x1="-43.766" y1="-103.223" x2="-28.872" y2="-103.223"/>
		<line class="st7" x1="-43.839" y1="-104.499" x2="-24.375" y2="-104.499"/>
		<line class="st7" x1="-43.839" y1="-105.775" x2="-28.945" y2="-105.775"/>
		<line class="st7" x1="-43.839" y1="-107.051" x2="-28.945" y2="-107.051"/>
		<line class="st7" x1="-43.839" y1="-108.327" x2="-24.375" y2="-108.327"/>
	</g>
	<polygon class="st6" points="-47.166,-114.622 -47.166,-88.629 -47.166,-88.379 -46.916,-88.379 -20.923,-88.379 -20.673,-88.379 
		-20.673,-88.629 -20.673,-114.622 -20.673,-114.872 -20.923,-114.872 -46.916,-114.872 -47.166,-114.872 	"/>
</g>
<g>
	<g>
		<line class="st7" x1="6.881" y1="-108.01" x2="-12.583" y2="-108.01"/>
		<line class="st7" x1="4.373" y1="-106.733" x2="-10.521" y2="-106.733"/>
		<line class="st7" x1="4.373" y1="-105.457" x2="-10.521" y2="-105.457"/>
		<line class="st7" x1="4.373" y1="-104.179" x2="-10.521" y2="-104.179"/>
		<line class="st7" x1="6.881" y1="-102.902" x2="-12.583" y2="-102.902"/>
		<line class="st7" x1="6.881" y1="-101.625" x2="-12.583" y2="-101.625"/>
		<line class="st7" x1="4.373" y1="-100.348" x2="-10.521" y2="-100.348"/>
		<line class="st7" x1="6.881" y1="-99.071" x2="-12.583" y2="-99.071"/>
		<line class="st7" x1="4.373" y1="-97.794" x2="-10.521" y2="-97.794"/>
		<line class="st7" x1="4.373" y1="-96.517" x2="-10.521" y2="-96.517"/>
		<line class="st7" x1="6.881" y1="-95.24" x2="-12.583" y2="-95.24"/>
	</g>
	<polygon class="st6" points="-16.097,-114.622 -16.097,-88.629 -16.097,-88.379 -15.847,-88.379 10.146,-88.379 10.396,-88.379 
		10.396,-88.629 10.396,-114.622 10.396,-114.872 10.146,-114.872 -15.847,-114.872 -16.097,-114.872 	"/>
</g>
<polygon class="st6" points="14.972,-114.622 14.972,-88.629 14.972,-88.379 15.222,-88.379 41.215,-88.379 41.465,-88.379 
	41.465,-88.629 41.465,-114.622 41.465,-114.872 41.215,-114.872 15.222,-114.872 14.972,-114.872 "/>
<path class="st7" d="M18.298-95.938"/>
<path class="st7" d="M18.298-100.954"/>
<path class="st7" d="M18.298-102.208"/>
<path class="st7" d="M18.298-108.477"/>
<path class="st7" d="M35.701-103.462"/>
<path class="st7" d="M37.763-100.954"/>
<path class="st7" d="M35.701-99.7"/>
<path class="st7" d="M37.763-95.938"/>
<path class="st7" d="M37.763-108.477"/>
<path class="st7" d="M37.763-102.208"/>
<path class="st7" d="M35.701-98.445"/>
<path class="st7" d="M35.701-97.192"/>
<g>
	<path class="st7" d="M20.618-97.514"/>
	<path class="st7" d="M20.618-98.768"/>
	<path class="st7" d="M20.618-100.022"/>
	<path class="st7" d="M20.618-103.784"/>
	<path class="st7" d="M20.618-106.292"/>
	<line class="st7" x1="37.95" y1="-108.005" x2="18.486" y2="-108.005"/>
	<line class="st7" x1="37.95" y1="-106.729" x2="23.056" y2="-106.729"/>
	<line class="st7" x1="37.95" y1="-105.453" x2="23.056" y2="-105.453"/>
	<line class="st7" x1="37.95" y1="-104.177" x2="23.056" y2="-104.177"/>
	<line class="st7" x1="37.95" y1="-102.901" x2="18.486" y2="-102.901"/>
	<line class="st7" x1="37.95" y1="-101.625" x2="18.486" y2="-101.625"/>
	<line class="st7" x1="37.877" y1="-100.349" x2="22.983" y2="-100.349"/>
	<line class="st7" x1="37.95" y1="-99.073" x2="18.486" y2="-99.073"/>
	<line class="st7" x1="37.95" y1="-97.798" x2="23.056" y2="-97.798"/>
	<line class="st7" x1="37.95" y1="-96.521" x2="23.056" y2="-96.521"/>
	<line class="st7" x1="37.95" y1="-95.246" x2="18.486" y2="-95.246"/>
</g>
<polygon class="st6" points="-77.937,-114.615 -77.937,-88.622 -77.937,-88.372 -77.687,-88.372 -51.694,-88.372 -51.444,-88.372 
	-51.444,-88.622 -51.444,-114.615 -51.444,-114.865 -51.694,-114.865 -77.687,-114.865 -77.937,-114.865 "/>
<path class="st7" d="M-54.77-107.313"/>
<path class="st7" d="M-54.77-102.297"/>
<path class="st7" d="M-54.77-101.043"/>
<path class="st7" d="M-54.77-94.773"/>
<path class="st7" d="M-72.172-99.789"/>
<path class="st7" d="M-74.234-102.297"/>
<path class="st7" d="M-72.172-103.55"/>
<path class="st7" d="M-74.234-107.313"/>
<path class="st7" d="M-74.234-94.773"/>
<path class="st7" d="M-74.234-101.043"/>
<path class="st7" d="M-72.172-104.805"/>
<path class="st7" d="M-72.172-106.059"/>
<g>
	<path class="st7" d="M-57.278-106.059"/>
	<path class="st7" d="M-57.278-104.805"/>
	<path class="st7" d="M-57.278-103.55"/>
	<path class="st7" d="M-57.278-99.789"/>
	<path class="st7" d="M-57.278-97.281"/>
	<line class="st7" x1="-74.61" y1="-95.568" x2="-55.146" y2="-95.568"/>
	<line class="st7" x1="-74.61" y1="-96.843" x2="-55.146" y2="-96.843"/>
	<line class="st7" x1="-74.61" y1="-98.119" x2="-55.146" y2="-98.119"/>
	<line class="st7" x1="-74.61" y1="-99.396" x2="-55.146" y2="-99.396"/>
	<line class="st7" x1="-74.61" y1="-100.672" x2="-55.146" y2="-100.672"/>
	<line class="st7" x1="-74.61" y1="-101.947" x2="-55.146" y2="-101.947"/>
	<line class="st7" x1="-74.537" y1="-103.223" x2="-55.073" y2="-103.223"/>
	<line class="st7" x1="-74.61" y1="-104.499" x2="-55.146" y2="-104.499"/>
	<line class="st7" x1="-74.61" y1="-105.775" x2="-55.146" y2="-105.775"/>
	<line class="st7" x1="-74.61" y1="-107.051" x2="-55.146" y2="-107.051"/>
	<line class="st7" x1="-74.61" y1="-108.327" x2="-55.146" y2="-108.327"/>
</g>
<path class="st5" d="M-247.494,0.533l-1.915,13.335c-0.058,0.402-0.431,0.682-0.834,0.624c-0.402-0.058-0.682-0.431-0.624-0.833
	l1.915-13.336c0.058-0.402,0.431-0.681,0.834-0.623C-247.716-0.242-247.436,0.13-247.494,0.533 M-254.311,14.608
	c-0.407,0.003-0.74-0.324-0.742-0.73l-0.106-13.472c-0.003-0.407,0.324-0.739,0.73-0.742c0.408-0.003,0.74,0.324,0.743,0.731
	l0.105,13.471C-253.578,14.273-253.905,14.605-254.311,14.608 M-258.382,14.555c-0.401,0.064-0.779-0.209-0.842-0.61l-2.124-13.304
	c-0.064-0.402,0.209-0.779,0.612-0.843c0.401-0.064,0.778,0.209,0.842,0.611l2.123,13.303
	C-257.707,14.114-257.98,14.491-258.382,14.555 M-244.599-1.853c-0.141-0.169-0.353-0.266-0.573-0.264l-18.538,0.144
	c-0.22,0.002-0.429,0.101-0.568,0.272c-0.14,0.17-0.196,0.393-0.155,0.609l3.092,16.141c0.068,0.351,0.376,0.605,0.734,0.602
	l12.497-0.098c0.356-0.002,0.66-0.258,0.724-0.608l2.949-16.188C-244.397-1.459-244.458-1.684-244.599-1.853"/>
<path class="st8" d="M-247.494,0.533l-1.915,13.335c-0.058,0.402-0.431,0.682-0.834,0.624c-0.402-0.058-0.682-0.431-0.624-0.833
	l1.915-13.336c0.058-0.402,0.431-0.681,0.834-0.623C-247.716-0.242-247.436,0.13-247.494,0.533z M-254.311,14.608
	c-0.407,0.003-0.74-0.324-0.742-0.73l-0.106-13.472c-0.003-0.407,0.324-0.739,0.73-0.742c0.408-0.003,0.74,0.324,0.743,0.731
	l0.105,13.471C-253.578,14.273-253.905,14.605-254.311,14.608z M-258.382,14.555c-0.401,0.064-0.779-0.209-0.842-0.61l-2.124-13.304
	c-0.064-0.402,0.209-0.779,0.612-0.843c0.401-0.064,0.778,0.209,0.842,0.611l2.123,13.303
	C-257.707,14.114-257.98,14.491-258.382,14.555z M-244.599-1.853c-0.141-0.169-0.353-0.266-0.573-0.264l-18.538,0.144
	c-0.22,0.002-0.429,0.101-0.568,0.272c-0.14,0.17-0.196,0.393-0.155,0.609l3.092,16.141c0.068,0.351,0.376,0.605,0.734,0.602
	l12.497-0.098c0.356-0.002,0.66-0.258,0.724-0.608l2.949-16.188C-244.397-1.459-244.458-1.684-244.599-1.853z"/>
<path class="st5" d="M-257.286-6.46L-257.286-6.46l-0.004-0.421l5.49-0.043l0.004,0.421L-257.286-6.46z M-243.549-5.05
	L-243.549-5.05l-2.025,0.016l-0.009-1.171c-0.001-0.091-0.038-0.18-0.103-0.244c-0.065-0.064-0.155-0.1-0.246-0.1l-4.467,0.035
	l-0.009-1.12c-0.002-0.184-0.077-0.363-0.209-0.492c-0.131-0.13-0.311-0.203-0.495-0.201l-6.887,0.054
	c-0.183,0.001-0.363,0.077-0.492,0.208c-0.129,0.131-0.202,0.312-0.2,0.496l0.009,1.12l-4.164,0.032
	c-0.091,0.001-0.18,0.039-0.243,0.104c-0.065,0.065-0.101,0.154-0.101,0.246l0.009,1.171l-2.197,0.017l0.017,2.225l21.829-0.17
	L-243.549-5.05z"/>
<path class="st8" d="M-257.286-6.46L-257.286-6.46l-0.004-0.421l5.49-0.043l0.004,0.421L-257.286-6.46z M-243.549-5.05
	L-243.549-5.05l-2.025,0.016l-0.009-1.171c-0.001-0.091-0.038-0.18-0.103-0.244c-0.065-0.064-0.155-0.1-0.246-0.1l-4.467,0.035
	l-0.009-1.12c-0.002-0.184-0.077-0.363-0.209-0.492c-0.131-0.13-0.311-0.203-0.495-0.201l-6.887,0.054
	c-0.183,0.001-0.363,0.077-0.492,0.208c-0.129,0.131-0.202,0.312-0.2,0.496l0.009,1.12l-4.164,0.032
	c-0.091,0.001-0.18,0.039-0.243,0.104c-0.065,0.065-0.101,0.154-0.101,0.246l0.009,1.171l-2.197,0.017l0.017,2.225l21.829-0.17
	L-243.549-5.05z"/>
<rect x="-265.389" y="-8.338" class="st9" width="21.868" height="24"/>
<rect x="75.54" y="-149.106" class="st10" width="34.924" height="19.551"/>
<g>
	<path class="st11" d="M88.518-138.693v4.238h-0.884v-1.066c-0.416,0.702-1.222,1.132-2.354,1.132c-1.547,0-2.496-0.807-2.496-1.989
		c0-1.054,0.676-1.938,2.639-1.938h2.171v-0.416c0-1.17-0.663-1.807-1.938-1.807c-0.884,0-1.716,0.312-2.275,0.806l-0.416-0.688
		c0.689-0.585,1.703-0.924,2.782-0.924C87.517-141.345,88.518-140.46,88.518-138.693z M87.595-136.508v-1.118h-2.146
		c-1.326,0-1.755,0.52-1.755,1.222c0,0.793,0.637,1.287,1.729,1.287C86.463-135.117,87.23-135.612,87.595-136.508z"/>
	<path class="st11" d="M96.617-141.292v6.838h-0.884v-1.248c-0.481,0.832-1.365,1.313-2.458,1.313c-1.742,0-2.886-0.976-2.886-2.938
		v-3.965h0.923v3.874c0,1.456,0.754,2.197,2.054,2.197c1.43,0,2.327-0.924,2.327-2.483v-3.588H96.617z"/>
	<path class="st11" d="M97.916-135.235l0.416-0.728c0.546,0.429,1.469,0.767,2.431,0.767c1.3,0,1.833-0.441,1.833-1.118
		c0-1.78-4.433-0.377-4.433-3.081c0-1.118,0.962-1.95,2.704-1.95c0.884,0,1.846,0.247,2.418,0.638l-0.403,0.74
		c-0.598-0.416-1.313-0.585-2.015-0.585c-1.235,0-1.781,0.481-1.781,1.132c0,1.846,4.434,0.455,4.434,3.081
		c0,1.183-1.04,1.95-2.821,1.95C99.567-134.389,98.475-134.753,97.916-135.235z"/>
</g>
<polygon class="st6" points="75.79,-149.231 75.79,-129.231 75.79,-128.981 76.04,-128.981 144.889,-128.981 145.139,-128.981 
	145.139,-129.231 145.139,-149.231 145.139,-149.481 144.889,-149.481 76.04,-149.481 75.79,-149.481 "/>
<rect x="75.54" y="-149.731" class="st9" width="69.849" height="21"/>
<rect x="-328.857" y="57.599" class="st11" width="1014" height="21"/>
<path class="st3" d="M298.304,57.599c-2.209,0-4,1.791-4,4v12.382c0,2.209,1.791,4,4,4h77.131c2.209,0,4-1.791,4-4V61.599
	c0-2.209-1.791-4-4-4H298.304z"/>
<rect x="-328.607" y="57.849" class="st12" width="1013.5" height="20.5"/>
<path class="st13" d="M668.999,60.459v1.481c0,0.397,0.187,0.771,0.505,1.009l6.367,4.762c0.258,0.194,0.258,0.583,0,0.776
	l-6.367,4.762c-0.318,0.238-0.505,0.612-0.505,1.01v1.48c0,0.41,0.467,0.644,0.795,0.399l10.111-7.563
	c0.318-0.237,0.318-0.714,0-0.952l-10.11-7.562C669.466,59.815,668.999,60.05,668.999,60.459"/>
<path class="st13" d="M-313.004,75.739v-1.481c0-0.397-0.187-0.771-0.505-1.009l-6.367-4.762c-0.258-0.194-0.258-0.583,0-0.776
	l6.367-4.762c0.318-0.238,0.505-0.612,0.505-1.01v-1.48c0-0.41-0.467-0.644-0.795-0.399l-10.111,7.563
	c-0.318,0.237-0.318,0.714,0,0.952l10.11,7.562C-313.471,76.383-313.004,76.148-313.004,75.739"/>
<rect x="-328.857" y="57.599" class="st9" width="1014" height="21"/>
<rect x="726.916" y="-186.946" class="st11" width="21" height="702.123"/>
<path class="st3" d="M726.916,227.015c0,2.209,1.791,4,4,4h12.382c2.209,0,4-1.791,4-4v-78.286c0-2.209-1.791-4-4-4h-12.382
	c-2.209,0-4,1.791-4,4V227.015z"/>
<rect x="727.166" y="-186.697" class="st12" width="20.5" height="701.624"/>
<path class="st13" d="M729.776-173.411h1.481c0.397,0,0.771-0.19,1.009-0.512l4.762-6.453c0.194-0.262,0.583-0.262,0.776,0
	l4.762,6.453c0.238,0.322,0.612,0.512,1.01,0.512h1.48c0.41,0,0.644-0.474,0.399-0.806l-7.563-10.248
	c-0.237-0.322-0.714-0.322-0.952,0l-7.562,10.248C729.132-173.885,729.367-173.411,729.776-173.411"/>
<path class="st13" d="M745.056,500.841h-1.481c-0.397,0-0.771,0.19-1.009,0.512l-4.762,6.453c-0.194,0.262-0.583,0.262-0.776,0
	l-4.762-6.453c-0.238-0.322-0.612-0.512-1.01-0.512h-1.48c-0.41,0-0.644,0.474-0.399,0.806l7.563,10.248
	c0.237,0.322,0.714,0.322,0.952,0l7.562-10.248C745.7,501.315,745.465,500.841,745.056,500.841"/>
<rect x="726.916" y="-186.947" class="st9" width="21" height="702.124"/>
<g>
	<g>
		<line class="st7" x1="5.941" y1="-63.967" x2="-7.076" y2="-63.967"/>
		<line class="st7" x1="5.941" y1="-74.143" x2="-7.076" y2="-74.143"/>
		<line class="st7" x1="5.941" y1="-69.055" x2="-7.076" y2="-69.055"/>
		<g>
			<path class="st5" d="M-10.718-75.613v2.104h-0.487v-1.714h-0.421v-0.391H-10.718z"/>
		</g>
		<g>
			<path class="st5" d="M-9.957-68.646v0.396h-1.59v-0.315l0.812-0.767c0.187-0.178,0.22-0.286,0.22-0.388
				c0-0.165-0.114-0.262-0.337-0.262c-0.18,0-0.333,0.069-0.436,0.21l-0.355-0.228c0.163-0.238,0.457-0.392,0.836-0.392
				c0.469,0,0.781,0.241,0.781,0.623c0,0.204-0.057,0.391-0.352,0.664l-0.484,0.457H-9.957z"/>
		</g>
		<g>
			<path class="st5" d="M-9.975-63.887c0,0.354-0.273,0.68-0.872,0.68c-0.295,0-0.599-0.081-0.803-0.226l0.189-0.373
				c0.159,0.121,0.382,0.189,0.601,0.189c0.244,0,0.394-0.099,0.394-0.271c0-0.159-0.117-0.258-0.394-0.258h-0.223v-0.322
				l0.433-0.49h-0.896v-0.391h1.473v0.316l-0.475,0.541C-10.168-64.431-9.975-64.196-9.975-63.887z"/>
		</g>
	</g>
	<polygon class="st6" points="-16.104,-82.41 -16.104,-56.41 -16.104,-56.16 -15.854,-56.16 10.146,-56.16 10.396,-56.16 
		10.396,-56.41 10.396,-82.41 10.396,-82.66 10.146,-82.66 -15.854,-82.66 -16.104,-82.66 	"/>
</g>
<polygon class="st6" points="-77.937,-82.41 -77.937,-56.41 -77.937,-56.16 -77.687,-56.16 -51.687,-56.16 -51.437,-56.16 
	-51.437,-56.41 -51.437,-82.41 -51.437,-82.66 -51.687,-82.66 -77.687,-82.66 -77.937,-82.66 "/>
<g>
	<polygon class="st6" points="-47.595,-82.41 -47.595,-56.41 -47.595,-56.16 -47.345,-56.16 -21.345,-56.16 -21.095,-56.16 
		-21.095,-56.41 -21.095,-82.41 -21.095,-82.66 -21.345,-82.66 -47.345,-82.66 -47.595,-82.66 	"/>
	<path class="st7" d="M-26.063-64.285h-13.016 M-26.063-69.418h-13.016 M-26.063-74.55h-13.016"/>
	<path class="st5" d="M-41.165-68.833c0.161-0.156,0.241-0.349,0.241-0.581c0-0.15-0.037-0.288-0.11-0.414
		c-0.073-0.125-0.172-0.224-0.297-0.297c-0.126-0.073-0.264-0.11-0.415-0.11c-0.15,0-0.288,0.037-0.41,0.11
		c-0.122,0.073-0.221,0.172-0.294,0.297c-0.072,0.126-0.11,0.264-0.11,0.414c0,0.232,0.08,0.425,0.238,0.581
		c0.157,0.156,0.35,0.234,0.576,0.234C-41.519-68.599-41.326-68.677-41.165-68.833"/>
	<path class="st5" d="M-41.742-73.468c0.489,0,0.885-0.396,0.885-0.885c0-0.488-0.396-0.885-0.885-0.885
		c-0.488,0-0.885,0.397-0.885,0.885C-42.627-73.864-42.23-73.468-41.742-73.468"/>
	<path class="st5" d="M-41.165-63.816c0.161-0.156,0.241-0.349,0.241-0.581c0-0.15-0.037-0.288-0.11-0.414
		c-0.073-0.125-0.172-0.224-0.297-0.297c-0.126-0.073-0.264-0.11-0.415-0.11c-0.15,0-0.288,0.037-0.41,0.11
		c-0.122,0.073-0.221,0.172-0.294,0.297c-0.072,0.126-0.11,0.264-0.11,0.414c0,0.232,0.08,0.425,0.238,0.581
		c0.157,0.156,0.35,0.234,0.576,0.234C-41.519-63.582-41.326-63.66-41.165-63.816"/>
</g>
<path class="st7" d="M-56.405-64.278h-13.016 M-56.405-69.411h-13.016 M-56.405-74.543h-13.016"/>
<rect x="-72.969" y="-75.312" class="st5" width="1.77" height="1.77"/>
<rect x="-72.969" y="-70.296" class="st5" width="1.77" height="1.77"/>
<rect x="-72.969" y="-65.278" class="st5" width="1.77" height="1.77"/>
<rect x="265.553" y="-150.199" class="st2" width="245" height="57.75"/>
<text transform="matrix(1 0 0 1 340.2506 -124.0041)"><tspan x="0" y="0" class="st5" style="font-family:'Montserrat-Regular'; font-size:13px;">N</tspan><tspan x="10.478" y="0" class="st5" style="font-family:'Montserrat-Regular'; font-size:13px;">e</tspan><tspan x="18.135" y="0" class="st5" style="font-family:'Montserrat-Regular'; font-size:13px;">u</tspan><tspan x="26.753" y="0" class="st5" style="font-family:'Montserrat-Regular'; font-size:13px;">e </tspan><tspan x="38.011" y="0" class="st5" style="font-family:'Montserrat-Regular'; font-size:13px; letter-spacing:-1;">T</tspan><tspan x="44.381" y="0" class="st5" style="font-family:'Montserrat-Regular'; font-size:13px;">e</tspan><tspan x="51.882" y="0" class="st5" style="font-family:'Montserrat-Regular'; font-size:13px;">x</tspan><tspan x="59.097" y="0" class="st5" style="font-family:'Montserrat-Regular'; font-size:13px;">t</tspan><tspan x="64.128" y="0" class="st5" style="font-family:'Montserrat-Regular'; font-size:13px;">b</tspan><tspan x="72.942" y="0" class="st5" style="font-family:'Montserrat-Regular'; font-size:13px;">o</tspan><tspan x="80.742" y="0" class="st5" style="font-family:'Montserrat-Regular'; font-size:13px;">x </tspan></text>
<path class="st14" d="M388.053-102.241c3.707,0,6.713-3.005,6.713-6.712c0-3.708-3.006-6.713-6.713-6.713s-6.712,3.005-6.712,6.713
	C381.341-105.246,384.346-102.241,388.053-102.241z"/>
<rect x="265.553" y="-150.199" class="st9" width="245" height="57.75"/>
<line class="st15" x1="388.053" y1="-112.487" x2="388.053" y2="-105.418"/>
<line class="st15" x1="384.519" y1="-108.922" x2="391.587" y2="-108.922"/>
<path class="st14" d="M277.092-62.405c3.707,0,6.713-3.005,6.713-6.712c0-3.708-3.006-6.713-6.713-6.713s-6.712,3.005-6.712,6.713
	C270.38-65.41,273.385-62.405,277.092-62.405z"/>
<line class="st15" x1="277.092" y1="-72.652" x2="277.092" y2="-65.583"/>
<line class="st15" x1="273.557" y1="-69.086" x2="280.625" y2="-69.086"/>
<g>
	<path class="st16" d="M-218.801-47.27h-3.138v-1.85h8.544v1.85h-3.138v7.956h-2.269V-47.27z"/>
	<path class="st16" d="M-212.18-49.12h2.269v9.806h-2.269V-49.12z"/>
	<path class="st16" d="M-199.086-45.561c0,2.185-1.639,3.544-4.258,3.544h-1.975v2.703h-2.269v-9.806h4.244
		C-200.725-49.12-199.086-47.76-199.086-45.561z M-201.383-45.561c0-1.079-0.701-1.709-2.087-1.709h-1.849v3.403h1.849
		C-202.084-43.867-201.383-44.497-201.383-45.561z"/>
	<path class="st16" d="M-188.964-45.561c0,2.185-1.639,3.544-4.258,3.544h-1.975v2.703h-2.269v-9.806h4.244
		C-190.603-49.12-188.964-47.76-188.964-45.561z M-191.261-45.561c0-1.079-0.701-1.709-2.087-1.709h-1.849v3.403h1.849
		C-191.961-43.867-191.261-44.497-191.261-45.561z"/>
</g>
<path class="st16" d="M-255.428-53.591L-255.428-53.591c-1.054,2.474-1.96,4.602-2.889,6.784h5.729
	C-253.532-49.063-254.414-51.171-255.428-53.591 M-251.935-36.001L-251.935-36.001c-0.346-1.15-0.211-1.759,1.044-1.8
	c0.976-0.033,1.343-0.74,1.02-1.64c-0.507-1.414-1.072-2.81-1.681-4.183c-0.109-0.245-0.55-0.478-0.843-0.484
	c-2.129-0.041-4.261-0.046-6.39,0.005c-0.305,0.008-0.741,0.315-0.877,0.599c-0.558,1.155-1.057,2.342-1.512,3.542
	c-0.57,1.504-0.268,2.026,1.348,2.192c0.783,0.081,1.206,0.319,1.022,1.126c-0.056,0.243-0.355,0.61-0.547,0.613
	c-2.524,0.042-5.049,0.028-7.596,0.028c-0.214-0.956-0.321-1.631,0.868-1.885c0.569-0.122,1.219-0.609,1.515-1.117
	c0.755-1.293,1.377-2.67,1.972-4.049c2.401-5.559,4.761-11.135,7.172-16.689c0.173-0.398,0.634-0.67,0.96-1
	c0.319,0.343,0.766,0.632,0.937,1.037c2.56,6.048,5.079,12.114,7.622,18.17c0.326,0.776,0.705,1.534,1.106,2.275
	c0.507,0.939,1.332,1.389,2.379,1.595c0.265,0.052,0.519,0.638,0.586,1.013c0.032,0.175-0.39,0.621-0.611,0.624
	C-245.593-35.988-248.746-36.001-251.935-36.001"/>
<path class="st5" d="M-158.19-43.539c2.682-0.014,4.762-2.036,4.751-4.621c-0.01-2.367-2.203-4.406-4.733-4.399
	c-2.703,0.008-4.848,2.038-4.825,4.568C-162.974-45.527-160.814-43.526-158.19-43.539 M-152.635-43.526L-152.635-43.526
	c0.393-0.231,0.569-0.207,0.91,0.115c1.249,1.181,2.501,2.361,3.751,3.541c0.086,0.08,0.173,0.159,0.252,0.246
	c0.216,0.237,0.217,0.464-0.012,0.692c-0.249,0.248-0.509,0.488-0.767,0.727c-0.302,0.28-0.548,0.287-0.855,0
	c-1.177-1.103-2.348-2.211-3.522-3.318c-0.132-0.124-0.263-0.25-0.396-0.373c-0.368-0.34-0.394-0.487-0.153-0.896
	c-0.368-0.336-0.737-0.673-1.128-1.029c-1.472,1.07-3.153,1.471-5.011,1.06c-1.415-0.313-2.544-1.054-3.377-2.178
	c-1.65-2.23-1.286-5.335,0.823-7.11c2.222-1.87,5.521-1.904,7.68-0.117c2.217,1.835,2.765,5.106,0.696,7.583
	C-153.374-44.23-153.005-43.879-152.635-43.526"/>
<path class="st17" d="M-158.19-43.539c2.682-0.014,4.762-2.036,4.751-4.621c-0.01-2.367-2.203-4.406-4.733-4.399
	c-2.703,0.008-4.848,2.038-4.825,4.568C-162.974-45.527-160.814-43.526-158.19-43.539z M-152.635-43.526L-152.635-43.526
	c0.393-0.231,0.569-0.207,0.91,0.115c1.249,1.181,2.501,2.361,3.751,3.541c0.086,0.08,0.173,0.159,0.252,0.246
	c0.216,0.237,0.217,0.464-0.012,0.692c-0.249,0.248-0.509,0.488-0.767,0.727c-0.302,0.28-0.548,0.287-0.855,0
	c-1.177-1.103-2.348-2.211-3.522-3.318c-0.132-0.124-0.263-0.25-0.396-0.373c-0.368-0.34-0.394-0.487-0.153-0.896
	c-0.368-0.336-0.737-0.673-1.128-1.029c-1.472,1.07-3.153,1.471-5.011,1.06c-1.415-0.313-2.544-1.054-3.377-2.178
	c-1.65-2.23-1.286-5.335,0.823-7.11c2.222-1.87,5.521-1.904,7.68-0.117c2.217,1.835,2.765,5.106,0.696,7.583
	C-153.374-44.23-153.005-43.879-152.635-43.526z"/>
<path class="st5" d="M-94.476-53.12l2.966,2.98v-2.758c0-0.096-0.055-0.229-0.123-0.297l-3.807-3.826
	c-0.068-0.067-0.178-0.067-0.245,0l-3.93,3.949v2.758c0,0.096,0.055,0.119,0.122,0.051l2.844-2.857
	c0.068-0.068,0.122-0.046,0.122,0.05v7.829h0v2.168c0,0.096-0.055,0.118-0.123,0.05l-2.966-2.98v2.758
	c0,0.096,0.055,0.229,0.123,0.297l3.807,3.826c0.068,0.067,0.178,0.067,0.245,0l3.93-3.949v-2.758c0-0.096-0.055-0.119-0.122-0.051
	l-2.844,2.857c-0.068,0.068-0.122,0.046-0.122-0.05v-7.829h0v-2.168C-94.599-53.166-94.544-53.188-94.476-53.12z"/>
<line class="st18" x1="-130.615" y1="-39.884" x2="-102.782" y2="-39.884"/>
<line class="st18" x1="-130.615" y1="-48.18" x2="-102.782" y2="-48.18"/>
<line class="st18" x1="-130.615" y1="-56.172" x2="-102.782" y2="-56.172"/>
<line class="st18" x1="-116.273" y1="-20.912" x2="-116.273" y2="0.088"/>
<path class="st5" d="M-108.813-7.069L-108.813-7.069h2.695l-2.603-2.569c-0.138-0.135-0.093-0.245,0.101-0.245h7.006v-1.407
	c0-0.193-0.157-0.35-0.35-0.35h-6.656c-0.194,0-0.239-0.11-0.101-0.246l2.603-2.569h-2.345c-0.193,0-0.462,0.111-0.599,0.246
	l-3.245,3.201c-0.137,0.136-0.137,0.356,0,0.492L-108.813-7.069z"/>
<path class="st5" d="M-124.583-14.281L-124.583-14.281h-2.695l2.603,2.569c0.138,0.135,0.093,0.245-0.101,0.245h-7.006v1.407
	c0,0.193,0.157,0.35,0.35,0.35h6.656c0.194,0,0.239,0.11,0.101,0.246l-2.603,2.569h2.345c0.193,0,0.462-0.111,0.599-0.246
	l3.245-3.201c0.137-0.136,0.137-0.356,0-0.492L-124.583-14.281z"/>
<line class="st19" x1="200.013" y1="-140.025" x2="163.99" y2="-140.025"/>
<path class="st20" d="M191.51-136.879c2.045,0,3.703-1.658,3.703-3.703s-1.658-3.703-3.703-3.703c-2.045,0-3.703,1.658-3.703,3.703
	S189.465-136.879,191.51-136.879"/>
<g>
	<path class="st5" d="M214.709-139.824c0,3.12-1.82,4.836-4.459,4.836c-0.91,0-1.781-0.195-2.392-0.585l0.624-1.274
		c0.494,0.325,1.092,0.442,1.729,0.442c1.716,0,2.795-1.066,2.795-3.133v-0.014c-0.546,0.638-1.417,0.949-2.431,0.949
		c-1.794,0-3.133-1.092-3.133-2.795c0-1.807,1.469-2.951,3.328-2.951C213.253-144.348,214.709-142.749,214.709-139.824z
		 M212.746-141.488c0-0.858-0.676-1.534-1.885-1.534c-1.053,0-1.781,0.598-1.781,1.547s0.715,1.547,1.82,1.547
		C211.992-139.928,212.746-140.591,212.746-141.488z"/>
	<path class="st5" d="M222.574-137.913c0,1.599-1.157,2.925-3.602,2.925c-1.287,0-2.587-0.39-3.419-1.053l0.715-1.313
		c0.663,0.546,1.651,0.897,2.678,0.897c1.209,0,1.924-0.533,1.924-1.392c0-0.871-0.559-1.417-2.444-1.417h-2.197l0.468-4.953h5.343
		v1.417h-3.913l-0.195,2.106h0.871C221.495-140.695,222.574-139.525,222.574-137.913z"/>
	<path class="st5" d="M226.994-141.813c0-1.495,0.871-2.496,2.171-2.496s2.184,0.988,2.184,2.496s-0.884,2.496-2.184,2.496
		S226.994-140.318,226.994-141.813z M230.283-141.813c0-1.014-0.416-1.586-1.118-1.586c-0.676,0-1.118,0.585-1.118,1.586
		s0.442,1.586,1.118,1.586C229.867-140.227,230.283-140.799,230.283-141.813z M234.625-144.218h1.274l-6.214,9.101h-1.274
		L234.625-144.218z M232.961-137.523c0-1.495,0.871-2.496,2.171-2.496c1.3,0,2.184,1.001,2.184,2.496s-0.884,2.496-2.184,2.496
		C233.831-135.027,232.961-136.028,232.961-137.523z M236.25-137.523c0-1.001-0.429-1.586-1.118-1.586s-1.118,0.572-1.118,1.586
		c0,1.015,0.429,1.586,1.118,1.586S236.25-136.522,236.25-137.523z"/>
</g>
<rect x="177.95" y="-85.882" class="st11" width="13.149" height="16.764"/>
<polygon class="st21" points="177.95,-69.118 177.95,-69.118 191.099,-69.118 191.099,-85.882 177.95,-85.882 "/>
<rect x="170.278" y="-86.353" class="st9" width="21.291" height="24"/>
<line class="st22" x1="174.776" y1="-78.187" x2="174.776" y2="-67.8"/>
<line class="st23" x1="177.407" y1="-65.911" x2="187.056" y2="-65.911"/>
<path class="st21" d="M187.933-65.911h0.877 M174.776-66.855v0.944h0.877 M174.776-81.02v0.944"/>
<polyline class="st21" points="170.749,-77.931 170.749,-62.823 184.783,-62.823 "/>
<rect x="170.278" y="-86.353" class="st9" width="21.291" height="24"/>
<rect x="209.524" y="-85.951" class="st11" width="14.674" height="18.705"/>
<polygon class="st24" points="209.524,-67.246 209.524,-67.246 224.197,-67.246 224.197,-85.951 209.524,-85.951 "/>
<rect x="209.122" y="-86.353" class="st9" width="19.884" height="24"/>
<rect x="213.931" y="-81.46" class="st5" width="14.674" height="18.705"/>
<polygon class="st25" points="213.93,-62.755 213.93,-62.755 228.603,-62.755 228.603,-81.46 213.93,-81.46 "/>
<rect x="209.122" y="-86.353" class="st9" width="19.884" height="24"/>
<rect x="110.631" y="-82.404" class="st10" width="34.924" height="19.551"/>
<text transform="matrix(1 0 0 1 117.6315 -67.7525)"><tspan x="0" y="0" class="st11" style="font-family:'Montserrat-Regular'; font-size:13px;">e</tspan><tspan x="7.41" y="0" class="st11" style="font-family:'Montserrat-Regular'; font-size:13px;">i</tspan><tspan x="10.335" y="0" class="st11" style="font-family:'Montserrat-Regular'; font-size:13px;">n</tspan></text>
<polygon class="st6" points="75.623,-82.529 75.623,-62.529 75.623,-62.279 75.873,-62.279 144.722,-62.279 144.972,-62.279 
	144.972,-62.529 144.972,-82.529 144.972,-82.779 144.722,-82.779 75.873,-82.779 75.623,-82.779 "/>
<rect x="75.373" y="-83.029" class="st9" width="70.183" height="21"/>
<line class="st26" x1="216.687" y1="7.11" x2="216.687" y2="31.37"/>
<path class="st5" d="M224.785,22.929L224.785,22.929h2.592l-2.494-2.46c-0.138-0.135-0.093-0.245,0.101-0.245h6.725v-1.339
	c0-0.193-0.157-0.35-0.35-0.35h-6.725l2.743-2.705h-2.242c-0.193,0-0.462,0.11-0.599,0.245l-3.102,3.059
	c-0.137,0.135-0.137,0.355,0,0.491L224.785,22.929z"/>
<line class="st26" x1="189.742" y1="31.203" x2="189.742" y2="6.943"/>
<path class="st5" d="M181.645,15.385L181.645,15.385h-2.592l2.494,2.46c0.138,0.135,0.093,0.245-0.101,0.245h-6.725v1.339
	c0,0.193,0.157,0.35,0.35,0.35h6.725l-2.743,2.705h2.242c0.193,0,0.462-0.11,0.599-0.245l3.102-3.059
	c0.137-0.135,0.137-0.355,0-0.491L181.645,15.385z"/>
<line class="st26" x1="0" y1="14.982" x2="24.26" y2="14.982"/>
<path class="st5" d="M15.651,6.924L15.651,6.924V4.332l-2.46,2.494c-0.135,0.138-0.245,0.093-0.245-0.101V0h-1.339
	c-0.193,0-0.35,0.157-0.35,0.35v6.725L8.552,4.332v2.242c0,0.193,0.11,0.462,0.245,0.599l3.059,3.102
	c0.135,0.137,0.355,0.137,0.491,0L15.651,6.924z"/>
<path class="st5" d="M8.719,22.076L8.719,22.076v2.592l2.46-2.494c0.135-0.138,0.245-0.093,0.245,0.101V29h1.339
	c0.193,0,0.35-0.157,0.35-0.35v-6.725l2.705,2.743v-2.242c0-0.193-0.11-0.462-0.245-0.599l-3.059-3.102
	c-0.135-0.137-0.355-0.137-0.491,0L8.719,22.076z"/>
<line class="st26" x1="56.446" y1="27.792" x2="56.446" y2="3.532"/>
<path class="st5" d="M48.389,12.141L48.389,12.141h-2.592l2.494,2.46c0.138,0.135,0.093,0.245-0.101,0.245h-6.725v1.339
	c0,0.193,0.157,0.35,0.35,0.35h6.725l-2.743,2.705h2.242c0.193,0,0.462-0.11,0.599-0.245l3.102-3.059
	c0.137-0.135,0.137-0.355,0-0.491L48.389,12.141z"/>
<path class="st5" d="M63.541,19.073L63.541,19.073h2.592l-2.494-2.46c-0.138-0.135-0.093-0.245,0.101-0.245h6.725v-1.339
	c0-0.193-0.157-0.35-0.35-0.35H63.39l2.743-2.705h-2.242c-0.193,0-0.462,0.11-0.599,0.245l-3.102,3.059
	c-0.137,0.135-0.137,0.355,0,0.491L63.541,19.073z"/>
<line class="st26" x1="88.588" y1="15.265" x2="112.848" y2="15.265"/>
<path class="st5" d="M97.307,22.359L97.307,22.359v2.592l2.46-2.494c0.135-0.138,0.245-0.093,0.245,0.101v6.725h1.339
	c0.193,0,0.35-0.157,0.35-0.35v-6.725l2.705,2.743v-2.242c0-0.193-0.11-0.462-0.245-0.599l-3.059-3.102
	c-0.135-0.137-0.355-0.137-0.491,0L97.307,22.359z"/>
<line class="st26" x1="133.699" y1="26.52" x2="157.959" y2="26.52"/>
<path class="st5" d="M149.517,18.131L149.517,18.131v-2.592l-2.46,2.494c-0.135,0.138-0.245,0.093-0.245-0.101v-6.725h-1.339
	c-0.193,0-0.35,0.157-0.35,0.35v6.725l-2.705-2.743v2.242c0,0.193,0.11,0.462,0.245,0.599l3.059,3.102
	c0.135,0.137,0.355,0.137,0.491,0L149.517,18.131z"/>
<rect x="279.563" y="-0.406" class="st11" width="15.769" height="20.056"/>
<line class="st27" x1="282.52" y1="19.65" x2="293.361" y2="19.65"/>
<line class="st28" x1="295.331" y1="16.642" x2="295.331" y2="1.6"/>
<line class="st27" x1="292.375" y1="-0.406" x2="281.534" y2="-0.406"/>
<line class="st28" x1="279.562" y1="2.603" x2="279.562" y2="17.645"/>
<path class="st21" d="M279.562,18.647v1.003h0.986 M280.548-0.406h-0.986v1.003 M295.331,0.597v-1.003h-0.985 M294.346,19.65h0.985
	v-1.003"/>
<polygon class="st11" points="268.327,29.65 268.327,29.65 284.096,29.65 284.096,9.594 268.327,9.594 "/>
<line class="st27" x1="271.284" y1="29.65" x2="282.125" y2="29.65"/>
<line class="st28" x1="284.096" y1="26.642" x2="284.096" y2="11.6"/>
<line class="st27" x1="281.139" y1="9.594" x2="270.298" y2="9.594"/>
<line class="st28" x1="268.327" y1="12.603" x2="268.327" y2="27.645"/>
<path class="st21" d="M268.326,28.647v1.003h0.986 M269.312,9.594h-0.986v1.003 M284.095,10.597V9.594h-0.985 M283.11,29.65h0.985
	v-1.003"/>
<polygon class="st11" points="258.853,37.65 258.853,37.65 274.621,37.65 274.621,17.594 258.853,17.594 "/>
<polygon class="st21" points="258.853,37.65 258.853,37.65 274.621,37.65 274.621,17.594 258.853,17.594 "/>
<g>
	<polygon class="st11" points="332.689,23.956 332.689,23.956 348.458,23.956 348.458,3.9 332.689,3.9 	"/>
	<polygon class="st21" points="332.689,23.956 332.689,23.956 348.458,23.956 348.458,3.9 332.689,3.9 	"/>
	<line class="st29" x1="328.925" y1="12.455" x2="328.925" y2="25.959"/>
	<line class="st30" x1="332.062" y1="27.759" x2="343.565" y2="27.759"/>
	<path class="st21" d="M344.61,27.759h1.046 M328.925,26.859v0.9h1.046 M328.925,9.754v0.9"/>
</g>
<g>
	<g>
		<rect x="405.229" y="-7.821" class="st11" width="15.769" height="20.056"/>
		<polygon class="st21" points="405.229,12.236 405.229,12.236 420.998,12.236 420.998,-7.82 405.229,-7.82 		"/>
		<polygon class="st11" points="393.993,22.236 393.993,22.236 409.762,22.236 409.762,2.18 393.993,2.18 		"/>
		<line class="st27" x1="396.95" y1="22.236" x2="407.791" y2="22.236"/>
		<line class="st28" x1="409.762" y1="19.227" x2="409.762" y2="4.185"/>
		<line class="st27" x1="406.805" y1="2.179" x2="395.964" y2="2.179"/>
		<line class="st28" x1="393.993" y1="5.188" x2="393.993" y2="20.23"/>
		<path class="st21" d="M393.992,21.233v1.003h0.986 M394.978,2.18h-0.986v1.003 M409.761,3.183V2.18h-0.985 M408.776,22.236h0.985
			v-1.003"/>
		<polygon class="st11" points="384.519,30.236 384.519,30.236 400.288,30.236 400.288,10.18 384.519,10.18 		"/>
		<line class="st27" x1="387.476" y1="30.236" x2="398.317" y2="30.236"/>
		<line class="st28" x1="400.288" y1="27.227" x2="400.288" y2="12.185"/>
		<line class="st27" x1="397.331" y1="10.179" x2="386.49" y2="10.179"/>
		<line class="st28" x1="384.519" y1="13.188" x2="384.519" y2="28.23"/>
		<path class="st21" d="M384.519,29.233v1.003h0.986 M385.505,10.18h-0.986v1.003 M400.288,11.183V10.18h-0.985 M399.303,30.236
			h0.985v-1.003"/>
	</g>
	<line class="st27" x1="460.642" y1="25.721" x2="471.483" y2="25.721"/>
	<line class="st28" x1="473.454" y1="22.712" x2="473.454" y2="7.67"/>
	<line class="st27" x1="470.498" y1="5.665" x2="459.657" y2="5.665"/>
	<line class="st28" x1="457.685" y1="8.673" x2="457.685" y2="23.715"/>
	<path class="st21" d="M457.685,24.718v1.003h0.986 M458.671,5.665h-0.986v1.003 M473.454,6.668V5.665h-0.985 M472.469,25.721h0.985
		v-1.003"/>
	<polyline class="st21" points="453.921,11.519 453.921,29.524 470.652,29.524 	"/>
</g>
<g>
	<defs>
		<rect id="SVGID_1_" x="-301.353" y="119.557" width="241.682" height="1"/>
	</defs>
	<clipPath id="SVGID_00000034088944569751645390000008831084997580011705_">
		<use xlink:href="#SVGID_1_"  style="overflow:visible;"/>
	</clipPath>
	
		<line style="clip-path:url(#SVGID_00000034088944569751645390000008831084997580011705_);fill:none;stroke:#B2B2B2;stroke-linecap:round;stroke-linejoin:round;stroke-dasharray:0,3.009;" x1="-297.845" y1="120.057" x2="-61.675" y2="120.057"/>
	
		<path style="clip-path:url(#SVGID_00000034088944569751645390000008831084997580011705_);fill:none;stroke:#B2B2B2;stroke-linecap:round;stroke-linejoin:round;" d="
		M-60.171,120.057L-60.171,120.057 M-300.853,120.057L-300.853,120.057"/>
</g>
<circle class="st33" cx="-254.455" cy="-101.154" r="12.75"/>
<polygon class="st3" points="-111.062,-116.178 -124.062,-116.178 -117.694,-105.703 "/>
<polygon class="st5" points="-103.039,12.364 -113.514,18.732 -103.039,25.364 "/>
<polygon class="st5" points="-132.086,25.364 -121.611,18.996 -132.086,12.364 "/>
<polygon class="st5" points="-49.533,12.364 -60.008,18.732 -49.533,25.364 "/>
<polygon class="st5" points="-84.709,25.364 -74.234,18.996 -84.709,12.364 "/>
<rect x="75.54" y="-116.167" class="st10" width="34.924" height="19.551"/>
<polygon class="st6" points="75.79,-116.292 75.79,-96.292 75.79,-96.042 76.04,-96.042 144.889,-96.042 145.139,-96.042 
	145.139,-96.292 145.139,-116.292 145.139,-116.542 144.889,-116.542 76.04,-116.542 75.79,-116.542 "/>
<rect x="75.54" y="-116.792" class="st9" width="69.849" height="21"/>
<rect x="110.904" y="-50.138" class="st10" width="34.924" height="19.551"/>
<polygon class="st6" points="75.896,-50.263 75.896,-30.263 75.896,-30.013 76.146,-30.013 144.995,-30.013 145.245,-30.013 
	145.245,-30.263 145.245,-50.263 145.245,-50.513 144.995,-50.513 76.146,-50.513 75.896,-50.513 "/>
<rect x="75.646" y="-50.763" class="st9" width="70.183" height="21"/>
<line class="st19" x1="198.935" y1="-120.237" x2="162.912" y2="-120.237"/>
<path class="st20" d="M190.432-117.091c2.045,0,3.703-1.658,3.703-3.703c0-2.045-1.658-3.703-3.703-3.703s-3.703,1.658-3.703,3.703
	C186.729-118.749,188.387-117.091,190.432-117.091"/>
<line class="st19" x1="507.259" y1="-89.458" x2="471.236" y2="-89.458"/>
<path class="st20" d="M498.756-86.312c2.045,0,3.703-1.658,3.703-3.703s-1.658-3.703-3.703-3.703c-2.045,0-3.703,1.658-3.703,3.703
	S496.711-86.312,498.756-86.312"/>
</svg>
