<?xml version="1.0" encoding="utf-8"?>
<!-- Generator: Adobe Illustrator 26.0.3, SVG Export Plug-In . SVG Version: 6.00 Build 0)  -->
<svg version="1.1" id="Ebene_1" xmlns="http://www.w3.org/2000/svg" xmlns:xlink="http://www.w3.org/1999/xlink" x="0px" y="0px"
	 width="24.26px" height="15.268px" viewBox="0 0 24.26 15.268" style="enable-background:new 0 0 24.26 15.268;"
	 xml:space="preserve">
<style type="text/css">
	.st0{fill:none;stroke:#C5C5C5;stroke-width:3;stroke-linecap:round;stroke-linejoin:round;}
	.st1{fill:#FFAEFF;stroke:#4F4D4D;stroke-width:0.5;}
	.st2{fill:#F8F8F8;}
	.st3{fill:#0E689A;}
	.st4{fill:none;stroke:#B2B1B1;stroke-width:0.65;stroke-miterlimit:10;}
	.st5{fill:#B2B1B1;}
	.st6{fill:none;stroke:#B2B2B2;stroke-width:0.5;stroke-miterlimit:10;}
	.st7{fill:none;stroke:#B2B1B1;stroke-width:0.3;stroke-miterlimit:10;}
	.st8{fill:none;stroke:#FFFFFF;stroke-width:0.021;}
	.st9{fill:none;}
	.st10{fill:#0E6899;}
	.st11{fill:#FFFFFF;}
	.st12{fill:none;stroke:#C5C5C5;stroke-width:0.5;stroke-linecap:round;stroke-linejoin:round;}
	.st13{fill:#C5C5C5;}
	.st14{fill:none;stroke:#B2B1B1;stroke-width:0.5;}
	.st15{fill:none;stroke:#B2B1B1;stroke-width:1.2;}
	.st16{fill:#B2B2B2;}
	.st17{fill:none;stroke:#FFFFFF;stroke-width:0.001;}
	.st18{fill:none;stroke:#B2B1B1;stroke-width:1.712;}
	.st19{fill:none;stroke:#B2B1B1;stroke-width:2;}
	.st20{fill:#AD5E7A;}
	.st21{fill:none;stroke:#B2B1B1;stroke-width:0.941;}
	.st22{fill:none;stroke:#B2B1B1;stroke-width:0.941;stroke-dasharray:1.889,1.889;}
	.st23{fill:none;stroke:#B2B1B1;stroke-width:0.941;stroke-dasharray:1.754,1.754;}
	.st24{fill:none;stroke:#B2B1B1;stroke-width:0.804;}
	.st25{fill:none;stroke:#FFFFFF;stroke-width:0.804;}
	.st26{fill:none;stroke:#B2B1B1;stroke-width:2.5;}
	.st27{fill:none;stroke:#B2B1B1;stroke-width:0.941;stroke-dasharray:1.971,1.971;}
	.st28{fill:none;stroke:#B2B1B1;stroke-width:0.941;stroke-dasharray:2.006,2.006;}
	.st29{fill:none;stroke:#B2B1B1;stroke-width:0.941;stroke-dasharray:1.801,1.801;}
	.st30{fill:none;stroke:#B2B1B1;stroke-width:0.941;stroke-dasharray:2.091,2.091;}
	
		.st31{clip-path:url(#SVGID_00000042726881864953250120000001516210222273932211_);fill:none;stroke:#B2B2B2;stroke-linecap:round;stroke-linejoin:round;stroke-dasharray:0,3.009;}
	
		.st32{clip-path:url(#SVGID_00000042726881864953250120000001516210222273932211_);fill:none;stroke:#B2B2B2;stroke-linecap:round;stroke-linejoin:round;}
	.st33{fill:none;stroke:#4F4D4D;stroke-width:0.5;}
</style>
<polyline class="st0" points="1648.85,811.486 1642.6,802.486 1635.85,811.486 "/>
<circle class="st1" cx="-343.043" cy="-151.262" r="12.75"/>
<rect x="-310.582" y="-162.277" class="st2" width="119.902" height="21"/>
<polygon class="st3" points="-199.753,-157.014 -212.753,-157.014 -206.385,-146.539 "/>
<g>
	<g>
		<line class="st4" x1="-86.741" y1="-144.757" x2="-76.458" y2="-144.757"/>
		<g>
			<path class="st5" d="M-85.453-149.982v-5.175h1.3v5.122c0,2.016,0.923,2.926,2.561,2.926c1.638,0,2.574-0.91,2.574-2.926v-5.122
				h1.261v5.175c0,2.639-1.443,4.029-3.848,4.029C-83.997-145.953-85.453-147.343-85.453-149.982z"/>
		</g>
	</g>
	<polygon class="st6" points="-94.849,-162.957 -94.849,-136.957 -94.849,-136.707 -94.599,-136.707 -68.599,-136.707 
		-68.349,-136.707 -68.349,-136.957 -68.349,-162.957 -68.349,-163.207 -68.599,-163.207 -94.599,-163.207 -94.849,-163.207 	"/>
</g>
<g>
	<g>
		<path class="st5" d="M-116.203-154.883h1.3l-1.82,9.101h-1.3L-116.203-154.883z"/>
	</g>
	<polygon class="st6" points="-129.713,-163.333 -129.713,-137.333 -129.713,-137.083 -129.463,-137.083 -103.463,-137.083 
		-103.213,-137.083 -103.213,-137.333 -103.213,-163.333 -103.213,-163.583 -103.463,-163.583 -129.463,-163.583 -129.713,-163.583 
			"/>
</g>
<g>
	<g>
		<path class="st5" d="M-149.351-148.214c0,1.573-1.248,2.483-3.64,2.483h-4.706v-9.101h4.446c2.275,0,3.445,0.949,3.445,2.366
			c0,0.91-0.468,1.612-1.209,2.002C-150.001-150.138-149.351-149.358-149.351-148.214z M-155.604-153.246v2.146h2.093
			c1.027,0,1.586-0.364,1.586-1.079s-0.559-1.066-1.586-1.066H-155.604z M-151.471-148.435c0-0.767-0.585-1.131-1.677-1.131h-2.457
			v2.249h2.457C-152.055-147.317-151.471-147.655-151.471-148.435z"/>
	</g>
	<polygon class="st6" points="-166.774,-163.281 -166.774,-137.281 -166.774,-137.031 -166.524,-137.031 -140.524,-137.031 
		-140.274,-137.031 -140.274,-137.281 -140.274,-163.281 -140.274,-163.531 -140.524,-163.531 -166.524,-163.531 -166.774,-163.531 
			"/>
</g>
<path class="st7" d="M-112.587-121.328"/>
<path class="st7" d="M-115.095-120.074"/>
<path class="st7" d="M-115.095-118.82"/>
<path class="st7" d="M-115.095-117.565"/>
<path class="st7" d="M-112.587-116.312"/>
<path class="st7" d="M-112.587-115.058"/>
<path class="st7" d="M-115.095-113.804"/>
<path class="st7" d="M-115.095-111.296"/>
<path class="st7" d="M-112.587-108.788"/>
<g>
	<path class="st7" d="M-132.051-116.312"/>
	<path class="st7" d="M-132.051-121.328"/>
	<path class="st7" d="M-132.051-108.788"/>
	<path class="st7" d="M-132.051-115.058"/>
	<g>
		<path class="st7" d="M-129.989-113.804"/>
		<path class="st7" d="M-129.989-117.565"/>
		<path class="st7" d="M-129.989-118.82"/>
		<path class="st7" d="M-129.989-120.074"/>
		<line class="st7" x1="-132.427" y1="-109.583" x2="-112.963" y2="-109.583"/>
		<line class="st7" x1="-132.427" y1="-110.858" x2="-117.533" y2="-110.858"/>
		<line class="st7" x1="-132.427" y1="-112.134" x2="-117.533" y2="-112.134"/>
		<line class="st7" x1="-132.427" y1="-113.411" x2="-117.533" y2="-113.411"/>
		<line class="st7" x1="-132.427" y1="-114.687" x2="-112.963" y2="-114.687"/>
		<line class="st7" x1="-132.427" y1="-115.962" x2="-112.963" y2="-115.962"/>
		<line class="st7" x1="-132.353" y1="-117.238" x2="-117.459" y2="-117.238"/>
		<line class="st7" x1="-132.427" y1="-118.514" x2="-112.963" y2="-118.514"/>
		<line class="st7" x1="-132.427" y1="-119.79" x2="-117.533" y2="-119.79"/>
		<line class="st7" x1="-132.427" y1="-121.066" x2="-117.533" y2="-121.066"/>
		<line class="st7" x1="-132.427" y1="-122.342" x2="-112.963" y2="-122.342"/>
	</g>
	<polygon class="st6" points="-135.753,-128.637 -135.753,-102.644 -135.753,-102.394 -135.503,-102.394 -109.51,-102.394 
		-109.26,-102.394 -109.26,-102.644 -109.26,-128.637 -109.26,-128.887 -109.51,-128.887 -135.503,-128.887 -135.753,-128.887 	"/>
</g>
<g>
	<g>
		<line class="st7" x1="-81.706" y1="-122.025" x2="-101.17" y2="-122.025"/>
		<line class="st7" x1="-84.214" y1="-120.748" x2="-99.108" y2="-120.748"/>
		<line class="st7" x1="-84.214" y1="-119.472" x2="-99.108" y2="-119.472"/>
		<line class="st7" x1="-84.214" y1="-118.194" x2="-99.108" y2="-118.194"/>
		<line class="st7" x1="-81.706" y1="-116.917" x2="-101.17" y2="-116.917"/>
		<line class="st7" x1="-81.706" y1="-115.64" x2="-101.17" y2="-115.64"/>
		<line class="st7" x1="-84.214" y1="-114.363" x2="-99.108" y2="-114.363"/>
		<line class="st7" x1="-81.706" y1="-113.086" x2="-101.17" y2="-113.086"/>
		<line class="st7" x1="-84.214" y1="-111.809" x2="-99.108" y2="-111.809"/>
		<line class="st7" x1="-84.214" y1="-110.532" x2="-99.108" y2="-110.532"/>
		<line class="st7" x1="-81.706" y1="-109.255" x2="-101.17" y2="-109.255"/>
	</g>
	<polygon class="st6" points="-104.685,-128.637 -104.685,-102.644 -104.685,-102.394 -104.435,-102.394 -78.442,-102.394 
		-78.192,-102.394 -78.192,-102.644 -78.192,-128.637 -78.192,-128.887 -78.442,-128.887 -104.435,-128.887 -104.685,-128.887 	"/>
</g>
<polygon class="st6" points="-73.616,-128.637 -73.616,-102.644 -73.616,-102.394 -73.366,-102.394 -47.373,-102.394 
	-47.123,-102.394 -47.123,-102.644 -47.123,-128.637 -47.123,-128.887 -47.373,-128.887 -73.366,-128.887 -73.616,-128.887 "/>
<path class="st7" d="M-70.289-109.953"/>
<path class="st7" d="M-70.289-114.969"/>
<path class="st7" d="M-70.289-116.223"/>
<path class="st7" d="M-70.289-122.492"/>
<path class="st7" d="M-52.887-117.477"/>
<path class="st7" d="M-50.825-114.969"/>
<path class="st7" d="M-52.887-113.715"/>
<path class="st7" d="M-50.825-109.953"/>
<path class="st7" d="M-50.825-122.492"/>
<path class="st7" d="M-50.825-116.223"/>
<path class="st7" d="M-52.887-112.46"/>
<path class="st7" d="M-52.887-111.207"/>
<g>
	<path class="st7" d="M-67.97-111.529"/>
	<path class="st7" d="M-67.97-112.783"/>
	<path class="st7" d="M-67.97-114.037"/>
	<path class="st7" d="M-67.97-117.799"/>
	<path class="st7" d="M-67.97-120.307"/>
	<line class="st7" x1="-50.638" y1="-122.02" x2="-70.102" y2="-122.02"/>
	<line class="st7" x1="-50.638" y1="-120.744" x2="-65.532" y2="-120.744"/>
	<line class="st7" x1="-50.638" y1="-119.468" x2="-65.532" y2="-119.468"/>
	<line class="st7" x1="-50.638" y1="-118.192" x2="-65.532" y2="-118.192"/>
	<line class="st7" x1="-50.638" y1="-116.916" x2="-70.102" y2="-116.916"/>
	<line class="st7" x1="-50.638" y1="-115.64" x2="-70.102" y2="-115.64"/>
	<line class="st7" x1="-50.711" y1="-114.364" x2="-65.605" y2="-114.364"/>
	<line class="st7" x1="-50.638" y1="-113.088" x2="-70.102" y2="-113.088"/>
	<line class="st7" x1="-50.638" y1="-111.813" x2="-65.532" y2="-111.813"/>
	<line class="st7" x1="-50.638" y1="-110.536" x2="-65.532" y2="-110.536"/>
	<line class="st7" x1="-50.638" y1="-109.261" x2="-70.102" y2="-109.261"/>
</g>
<polygon class="st6" points="-166.524,-128.63 -166.524,-102.637 -166.524,-102.387 -166.274,-102.387 -140.281,-102.387 
	-140.031,-102.387 -140.031,-102.637 -140.031,-128.63 -140.031,-128.88 -140.281,-128.88 -166.274,-128.88 -166.524,-128.88 "/>
<path class="st7" d="M-143.358-121.328"/>
<path class="st7" d="M-143.358-116.312"/>
<path class="st7" d="M-143.358-115.058"/>
<path class="st7" d="M-143.358-108.788"/>
<path class="st7" d="M-160.76-113.804"/>
<path class="st7" d="M-162.822-116.312"/>
<path class="st7" d="M-160.76-117.565"/>
<path class="st7" d="M-162.822-121.328"/>
<path class="st7" d="M-162.822-108.788"/>
<path class="st7" d="M-162.822-115.058"/>
<path class="st7" d="M-160.76-118.82"/>
<path class="st7" d="M-160.76-120.074"/>
<g>
	<path class="st7" d="M-145.866-120.074"/>
	<path class="st7" d="M-145.866-118.82"/>
	<path class="st7" d="M-145.866-117.565"/>
	<path class="st7" d="M-145.866-113.804"/>
	<path class="st7" d="M-145.866-111.296"/>
	<line class="st7" x1="-163.198" y1="-109.583" x2="-143.734" y2="-109.583"/>
	<line class="st7" x1="-163.198" y1="-110.858" x2="-143.734" y2="-110.858"/>
	<line class="st7" x1="-163.198" y1="-112.134" x2="-143.734" y2="-112.134"/>
	<line class="st7" x1="-163.198" y1="-113.411" x2="-143.734" y2="-113.411"/>
	<line class="st7" x1="-163.198" y1="-114.687" x2="-143.734" y2="-114.687"/>
	<line class="st7" x1="-163.198" y1="-115.962" x2="-143.734" y2="-115.962"/>
	<line class="st7" x1="-163.125" y1="-117.238" x2="-143.661" y2="-117.238"/>
	<line class="st7" x1="-163.198" y1="-118.514" x2="-143.734" y2="-118.514"/>
	<line class="st7" x1="-163.198" y1="-119.79" x2="-143.734" y2="-119.79"/>
	<line class="st7" x1="-163.198" y1="-121.066" x2="-143.734" y2="-121.066"/>
	<line class="st7" x1="-163.198" y1="-122.342" x2="-143.734" y2="-122.342"/>
</g>
<path class="st5" d="M-336.081-13.482l-1.915,13.335c-0.058,0.402-0.431,0.682-0.834,0.624c-0.402-0.058-0.682-0.431-0.624-0.833
	l1.915-13.336c0.058-0.402,0.431-0.681,0.834-0.623C-336.303-14.257-336.023-13.885-336.081-13.482 M-342.898,0.593
	c-0.407,0.003-0.74-0.324-0.742-0.73l-0.106-13.472c-0.003-0.407,0.324-0.739,0.73-0.742c0.408-0.003,0.74,0.324,0.743,0.731
	l0.105,13.471C-342.165,0.258-342.492,0.59-342.898,0.593 M-346.969,0.54c-0.401,0.064-0.779-0.209-0.842-0.61l-2.124-13.304
	c-0.064-0.402,0.209-0.779,0.612-0.843c0.401-0.064,0.778,0.209,0.842,0.611l2.123,13.303
	C-346.294,0.099-346.567,0.476-346.969,0.54 M-333.186-15.868c-0.141-0.169-0.353-0.266-0.573-0.264l-18.538,0.144
	c-0.22,0.002-0.429,0.101-0.568,0.272c-0.14,0.17-0.196,0.393-0.155,0.609l3.092,16.141c0.068,0.351,0.376,0.605,0.734,0.602
	l12.497-0.098c0.356-0.002,0.66-0.258,0.724-0.608l2.949-16.188C-332.984-15.474-333.045-15.699-333.186-15.868"/>
<path class="st8" d="M-336.081-13.482l-1.915,13.335c-0.058,0.402-0.431,0.682-0.834,0.624c-0.402-0.058-0.682-0.431-0.624-0.833
	l1.915-13.336c0.058-0.402,0.431-0.681,0.834-0.623C-336.303-14.257-336.023-13.885-336.081-13.482z M-342.898,0.593
	c-0.407,0.003-0.74-0.324-0.742-0.73l-0.106-13.472c-0.003-0.407,0.324-0.739,0.73-0.742c0.408-0.003,0.74,0.324,0.743,0.731
	l0.105,13.471C-342.165,0.258-342.492,0.59-342.898,0.593z M-346.969,0.54c-0.401,0.064-0.779-0.209-0.842-0.61l-2.124-13.304
	c-0.064-0.402,0.209-0.779,0.612-0.843c0.401-0.064,0.778,0.209,0.842,0.611l2.123,13.303
	C-346.294,0.099-346.567,0.476-346.969,0.54z M-333.186-15.868c-0.141-0.169-0.353-0.266-0.573-0.264l-18.538,0.144
	c-0.22,0.002-0.429,0.101-0.568,0.272c-0.14,0.17-0.196,0.393-0.155,0.609l3.092,16.141c0.068,0.351,0.376,0.605,0.734,0.602
	l12.497-0.098c0.356-0.002,0.66-0.258,0.724-0.608l2.949-16.188C-332.984-15.474-333.045-15.699-333.186-15.868z"/>
<path class="st5" d="M-345.874-20.475L-345.874-20.475l-0.004-0.421l5.49-0.043l0.004,0.421L-345.874-20.475z M-332.137-19.065
	L-332.137-19.065l-2.025,0.016l-0.009-1.171c-0.001-0.091-0.038-0.18-0.103-0.244c-0.065-0.064-0.155-0.1-0.246-0.1l-4.467,0.035
	l-0.009-1.12c-0.002-0.184-0.077-0.363-0.209-0.492c-0.131-0.13-0.311-0.203-0.495-0.201l-6.887,0.054
	c-0.183,0.001-0.363,0.077-0.492,0.208s-0.202,0.312-0.2,0.496l0.009,1.12l-4.164,0.032c-0.091,0.001-0.18,0.039-0.243,0.104
	c-0.065,0.065-0.101,0.154-0.101,0.246l0.009,1.171l-2.197,0.017l0.017,2.225l21.829-0.17L-332.137-19.065z"/>
<path class="st8" d="M-345.874-20.475L-345.874-20.475l-0.004-0.421l5.49-0.043l0.004,0.421L-345.874-20.475z M-332.137-19.065
	L-332.137-19.065l-2.025,0.016l-0.009-1.171c-0.001-0.091-0.038-0.18-0.103-0.244c-0.065-0.064-0.155-0.1-0.246-0.1l-4.467,0.035
	l-0.009-1.12c-0.002-0.184-0.077-0.363-0.209-0.492c-0.131-0.13-0.311-0.203-0.495-0.201l-6.887,0.054
	c-0.183,0.001-0.363,0.077-0.492,0.208s-0.202,0.312-0.2,0.496l0.009,1.12l-4.164,0.032c-0.091,0.001-0.18,0.039-0.243,0.104
	c-0.065,0.065-0.101,0.154-0.101,0.246l0.009,1.171l-2.197,0.017l0.017,2.225l21.829-0.17L-332.137-19.065z"/>
<rect x="-353.977" y="-22.353" class="st9" width="21.868" height="24"/>
<rect x="-13.048" y="-163.121" class="st10" width="34.924" height="19.551"/>
<g>
	<path class="st11" d="M-0.07-152.708v4.238h-0.884v-1.066c-0.416,0.702-1.222,1.132-2.354,1.132c-1.547,0-2.496-0.807-2.496-1.989
		c0-1.054,0.676-1.938,2.639-1.938h2.171v-0.416c0-1.17-0.663-1.807-1.938-1.807c-0.884,0-1.716,0.312-2.275,0.806l-0.416-0.688
		c0.689-0.585,1.703-0.924,2.782-0.924C-1.071-155.36-0.07-154.475-0.07-152.708z M-0.993-150.523v-1.118h-2.146
		c-1.326,0-1.755,0.52-1.755,1.222c0,0.793,0.637,1.287,1.729,1.287C-2.124-149.132-1.357-149.627-0.993-150.523z"/>
	<path class="st11" d="M8.029-155.307v6.838H7.145v-1.248c-0.481,0.832-1.365,1.313-2.458,1.313c-1.742,0-2.886-0.976-2.886-2.938
		v-3.965h0.923v3.874c0,1.456,0.754,2.197,2.054,2.197c1.43,0,2.327-0.924,2.327-2.483v-3.588H8.029z"/>
	<path class="st11" d="M9.328-149.25l0.416-0.728c0.546,0.429,1.469,0.767,2.431,0.767c1.3,0,1.833-0.441,1.833-1.118
		c0-1.78-4.433-0.377-4.433-3.081c0-1.118,0.962-1.95,2.704-1.95c0.884,0,1.846,0.247,2.418,0.638l-0.403,0.74
		c-0.598-0.416-1.313-0.585-2.015-0.585c-1.235,0-1.781,0.481-1.781,1.132c0,1.846,4.434,0.455,4.434,3.081
		c0,1.183-1.04,1.95-2.821,1.95C10.98-148.404,9.887-148.768,9.328-149.25z"/>
</g>
<polygon class="st6" points="-12.798,-163.246 -12.798,-143.246 -12.798,-142.996 -12.548,-142.996 56.301,-142.996 
	56.551,-142.996 56.551,-143.246 56.551,-163.246 56.551,-163.496 56.301,-163.496 -12.548,-163.496 -12.798,-163.496 "/>
<rect x="-13.048" y="-163.746" class="st9" width="69.849" height="21"/>
<rect x="-417.445" y="43.584" class="st11" width="1014" height="21"/>
<path class="st3" d="M209.716,43.584c-2.209,0-4,1.791-4,4v12.382c0,2.209,1.791,4,4,4h77.131c2.209,0,4-1.791,4-4V47.584
	c0-2.209-1.791-4-4-4H209.716z"/>
<rect x="-417.195" y="43.834" class="st12" width="1013.5" height="20.5"/>
<path class="st13" d="M580.411,46.444v1.481c0,0.397,0.187,0.771,0.505,1.009l6.367,4.762c0.258,0.194,0.258,0.583,0,0.776
	l-6.367,4.762c-0.318,0.238-0.505,0.612-0.505,1.01v1.48c0,0.41,0.467,0.644,0.795,0.399l10.111-7.563
	c0.318-0.237,0.318-0.714,0-0.952l-10.11-7.562C580.878,45.8,580.411,46.035,580.411,46.444"/>
<path class="st13" d="M-401.592,61.724v-1.481c0-0.397-0.187-0.771-0.505-1.009l-6.367-4.762c-0.258-0.194-0.258-0.583,0-0.776
	l6.367-4.762c0.318-0.238,0.505-0.612,0.505-1.01v-1.48c0-0.41-0.467-0.644-0.795-0.399l-10.111,7.563
	c-0.318,0.237-0.318,0.714,0,0.952l10.11,7.562C-402.059,62.368-401.592,62.133-401.592,61.724"/>
<rect x="-417.445" y="43.584" class="st9" width="1014" height="21"/>
<rect x="638.328" y="-200.961" class="st11" width="21" height="702.123"/>
<path class="st3" d="M638.328,213c0,2.209,1.791,4,4,4h12.382c2.209,0,4-1.791,4-4v-78.286c0-2.209-1.791-4-4-4h-12.382
	c-2.209,0-4,1.791-4,4V213z"/>
<rect x="638.578" y="-200.712" class="st12" width="20.5" height="701.624"/>
<path class="st13" d="M641.188-187.426h1.481c0.397,0,0.771-0.19,1.009-0.512l4.762-6.453c0.194-0.262,0.583-0.262,0.776,0
	l4.762,6.453c0.238,0.322,0.612,0.512,1.01,0.512h1.48c0.41,0,0.644-0.474,0.399-0.806l-7.563-10.248
	c-0.237-0.322-0.714-0.322-0.952,0l-7.562,10.248C640.544-187.9,640.779-187.426,641.188-187.426"/>
<path class="st13" d="M656.468,486.826h-1.481c-0.397,0-0.771,0.19-1.009,0.512l-4.762,6.453c-0.194,0.262-0.583,0.262-0.776,0
	l-4.762-6.453c-0.238-0.322-0.612-0.512-1.01-0.512h-1.48c-0.41,0-0.644,0.474-0.399,0.806l7.563,10.248
	c0.237,0.322,0.714,0.322,0.952,0l7.562-10.248C657.112,487.3,656.877,486.826,656.468,486.826"/>
<rect x="638.328" y="-200.962" class="st9" width="21" height="702.124"/>
<g>
	<g>
		<line class="st7" x1="-82.646" y1="-77.982" x2="-95.663" y2="-77.982"/>
		<line class="st7" x1="-82.646" y1="-88.158" x2="-95.663" y2="-88.158"/>
		<line class="st7" x1="-82.646" y1="-83.07" x2="-95.663" y2="-83.07"/>
		<g>
			<path class="st5" d="M-99.306-89.628v2.104h-0.487v-1.714h-0.421v-0.391H-99.306z"/>
		</g>
		<g>
			<path class="st5" d="M-98.545-82.661v0.396h-1.59v-0.315l0.812-0.767c0.187-0.178,0.22-0.286,0.22-0.388
				c0-0.165-0.114-0.262-0.337-0.262c-0.18,0-0.333,0.069-0.436,0.21l-0.355-0.228c0.163-0.238,0.457-0.392,0.836-0.392
				c0.469,0,0.781,0.241,0.781,0.623c0,0.204-0.057,0.391-0.352,0.664l-0.484,0.457H-98.545z"/>
		</g>
		<g>
			<path class="st5" d="M-98.563-77.902c0,0.354-0.273,0.68-0.872,0.68c-0.295,0-0.599-0.081-0.803-0.226l0.189-0.373
				c0.159,0.121,0.382,0.189,0.601,0.189c0.244,0,0.394-0.099,0.394-0.271c0-0.159-0.117-0.258-0.394-0.258h-0.223v-0.322
				l0.433-0.49h-0.896v-0.391h1.473v0.316l-0.475,0.541C-98.755-78.446-98.563-78.211-98.563-77.902z"/>
		</g>
	</g>
	<polygon class="st6" points="-104.692,-96.425 -104.692,-70.425 -104.692,-70.175 -104.442,-70.175 -78.442,-70.175 
		-78.192,-70.175 -78.192,-70.425 -78.192,-96.425 -78.192,-96.675 -78.442,-96.675 -104.442,-96.675 -104.692,-96.675 	"/>
</g>
<polygon class="st6" points="-166.524,-96.425 -166.524,-70.425 -166.524,-70.175 -166.274,-70.175 -140.274,-70.175 
	-140.024,-70.175 -140.024,-70.425 -140.024,-96.425 -140.024,-96.675 -140.274,-96.675 -166.274,-96.675 -166.524,-96.675 "/>
<g>
	<polygon class="st6" points="-136.183,-96.425 -136.183,-70.425 -136.183,-70.175 -135.933,-70.175 -109.933,-70.175 
		-109.683,-70.175 -109.683,-70.425 -109.683,-96.425 -109.683,-96.675 -109.933,-96.675 -135.933,-96.675 -136.183,-96.675 	"/>
	<path class="st7" d="M-114.651-78.3h-13.016 M-114.651-83.433h-13.016 M-114.651-88.565h-13.016"/>
	<path class="st5" d="M-129.753-82.848c0.161-0.156,0.241-0.349,0.241-0.581c0-0.15-0.037-0.288-0.11-0.414
		c-0.073-0.125-0.172-0.224-0.297-0.297c-0.126-0.073-0.264-0.11-0.415-0.11c-0.15,0-0.288,0.037-0.41,0.11
		c-0.122,0.073-0.221,0.172-0.294,0.297c-0.072,0.126-0.11,0.264-0.11,0.414c0,0.232,0.08,0.425,0.238,0.581
		c0.157,0.156,0.35,0.234,0.576,0.234C-130.107-82.614-129.914-82.692-129.753-82.848"/>
	<path class="st5" d="M-130.33-87.483c0.489,0,0.885-0.396,0.885-0.885c0-0.488-0.396-0.885-0.885-0.885
		c-0.488,0-0.885,0.397-0.885,0.885C-131.215-87.879-130.818-87.483-130.33-87.483"/>
	<path class="st5" d="M-129.753-77.831c0.161-0.156,0.241-0.349,0.241-0.581c0-0.15-0.037-0.288-0.11-0.414
		c-0.073-0.125-0.172-0.224-0.297-0.297c-0.126-0.073-0.264-0.11-0.415-0.11c-0.15,0-0.288,0.037-0.41,0.11
		s-0.221,0.172-0.294,0.297c-0.072,0.126-0.11,0.264-0.11,0.414c0,0.232,0.08,0.425,0.238,0.581c0.157,0.156,0.35,0.234,0.576,0.234
		C-130.107-77.597-129.914-77.675-129.753-77.831"/>
</g>
<path class="st7" d="M-144.992-78.293h-13.016 M-144.992-83.426h-13.016 M-144.992-88.558h-13.016"/>
<rect x="-161.557" y="-89.327" class="st5" width="1.77" height="1.77"/>
<rect x="-161.557" y="-84.311" class="st5" width="1.77" height="1.77"/>
<rect x="-161.557" y="-79.293" class="st5" width="1.77" height="1.77"/>
<rect x="176.965" y="-164.214" class="st2" width="245" height="57.75"/>
<text transform="matrix(1 0 0 1 251.6629 -138.019)"><tspan x="0" y="0" class="st5" style="font-family:'Montserrat-Regular'; font-size:13px;">N</tspan><tspan x="10.478" y="0" class="st5" style="font-family:'Montserrat-Regular'; font-size:13px;">e</tspan><tspan x="18.135" y="0" class="st5" style="font-family:'Montserrat-Regular'; font-size:13px;">u</tspan><tspan x="26.753" y="0" class="st5" style="font-family:'Montserrat-Regular'; font-size:13px;">e </tspan><tspan x="38.011" y="0" class="st5" style="font-family:'Montserrat-Regular'; font-size:13px; letter-spacing:-1;">T</tspan><tspan x="44.381" y="0" class="st5" style="font-family:'Montserrat-Regular'; font-size:13px;">e</tspan><tspan x="51.882" y="0" class="st5" style="font-family:'Montserrat-Regular'; font-size:13px;">x</tspan><tspan x="59.097" y="0" class="st5" style="font-family:'Montserrat-Regular'; font-size:13px;">t</tspan><tspan x="64.128" y="0" class="st5" style="font-family:'Montserrat-Regular'; font-size:13px;">b</tspan><tspan x="72.942" y="0" class="st5" style="font-family:'Montserrat-Regular'; font-size:13px;">o</tspan><tspan x="80.742" y="0" class="st5" style="font-family:'Montserrat-Regular'; font-size:13px;">x </tspan></text>
<path class="st14" d="M299.465-116.256c3.707,0,6.713-3.005,6.713-6.712c0-3.708-3.006-6.713-6.713-6.713
	c-3.707,0-6.712,3.005-6.712,6.713C292.753-119.261,295.758-116.256,299.465-116.256z"/>
<rect x="176.965" y="-164.214" class="st9" width="245" height="57.75"/>
<line class="st15" x1="299.465" y1="-126.502" x2="299.465" y2="-119.433"/>
<line class="st15" x1="295.931" y1="-122.937" x2="302.999" y2="-122.937"/>
<path class="st14" d="M188.504-76.42c3.707,0,6.713-3.005,6.713-6.712c0-3.708-3.006-6.713-6.713-6.713s-6.712,3.005-6.712,6.713
	C181.792-79.425,184.797-76.42,188.504-76.42z"/>
<line class="st15" x1="188.504" y1="-86.667" x2="188.504" y2="-79.598"/>
<line class="st15" x1="184.97" y1="-83.101" x2="192.038" y2="-83.101"/>
<g>
	<path class="st16" d="M-307.389-61.285h-3.138v-1.85h8.544v1.85h-3.138v7.956h-2.269V-61.285z"/>
	<path class="st16" d="M-300.768-63.135h2.269v9.806h-2.269V-63.135z"/>
	<path class="st16" d="M-287.674-59.576c0,2.185-1.639,3.544-4.258,3.544h-1.975v2.703h-2.269v-9.806h4.244
		C-289.312-63.135-287.674-61.775-287.674-59.576z M-289.971-59.576c0-1.079-0.701-1.709-2.087-1.709h-1.849v3.403h1.849
		C-290.671-57.882-289.971-58.512-289.971-59.576z"/>
	<path class="st16" d="M-277.552-59.576c0,2.185-1.639,3.544-4.258,3.544h-1.975v2.703h-2.269v-9.806h4.244
		C-279.19-63.135-277.552-61.775-277.552-59.576z M-279.849-59.576c0-1.079-0.701-1.709-2.087-1.709h-1.849v3.403h1.849
		C-280.549-57.882-279.849-58.512-279.849-59.576z"/>
</g>
<path class="st16" d="M-344.016-67.606L-344.016-67.606c-1.054,2.474-1.96,4.602-2.889,6.784h5.729
	C-342.12-63.078-343.002-65.186-344.016-67.606 M-340.523-50.016L-340.523-50.016c-0.346-1.15-0.211-1.759,1.044-1.8
	c0.976-0.033,1.343-0.74,1.02-1.64c-0.507-1.414-1.072-2.81-1.681-4.183c-0.109-0.245-0.55-0.478-0.843-0.484
	c-2.129-0.041-4.261-0.046-6.39,0.005c-0.305,0.008-0.741,0.315-0.877,0.599c-0.558,1.155-1.057,2.342-1.512,3.542
	c-0.57,1.504-0.268,2.026,1.348,2.192c0.783,0.081,1.206,0.319,1.022,1.126c-0.056,0.243-0.355,0.61-0.547,0.613
	c-2.524,0.042-5.049,0.028-7.596,0.028c-0.214-0.956-0.321-1.631,0.868-1.885c0.569-0.122,1.219-0.609,1.515-1.117
	c0.755-1.293,1.377-2.67,1.972-4.049c2.401-5.559,4.761-11.135,7.172-16.689c0.173-0.398,0.634-0.67,0.96-1
	c0.319,0.343,0.766,0.632,0.937,1.037c2.56,6.048,5.079,12.114,7.622,18.17c0.326,0.776,0.705,1.534,1.106,2.275
	c0.507,0.939,1.332,1.389,2.379,1.595c0.265,0.052,0.519,0.638,0.586,1.013c0.032,0.175-0.39,0.621-0.611,0.624
	C-334.181-50.003-337.334-50.016-340.523-50.016"/>
<path class="st5" d="M-246.778-57.554c2.682-0.014,4.762-2.036,4.751-4.621c-0.01-2.367-2.203-4.406-4.733-4.399
	c-2.703,0.008-4.848,2.038-4.825,4.568C-251.562-59.542-249.402-57.541-246.778-57.554 M-241.223-57.541L-241.223-57.541
	c0.393-0.231,0.569-0.207,0.91,0.115c1.249,1.181,2.501,2.361,3.751,3.541c0.086,0.08,0.173,0.159,0.252,0.246
	c0.216,0.237,0.217,0.464-0.012,0.692c-0.249,0.248-0.509,0.488-0.767,0.727c-0.302,0.28-0.548,0.287-0.855,0
	c-1.177-1.103-2.348-2.211-3.522-3.318c-0.132-0.124-0.263-0.25-0.396-0.373c-0.368-0.34-0.394-0.487-0.153-0.896
	c-0.368-0.336-0.737-0.673-1.128-1.029c-1.472,1.07-3.153,1.471-5.011,1.06c-1.415-0.313-2.544-1.054-3.377-2.178
	c-1.65-2.23-1.286-5.335,0.823-7.11c2.222-1.87,5.521-1.904,7.68-0.117c2.217,1.835,2.765,5.106,0.696,7.583
	C-241.962-58.245-241.593-57.894-241.223-57.541"/>
<path class="st17" d="M-246.778-57.554c2.682-0.014,4.762-2.036,4.751-4.621c-0.01-2.367-2.203-4.406-4.733-4.399
	c-2.703,0.008-4.848,2.038-4.825,4.568C-251.562-59.542-249.402-57.541-246.778-57.554z M-241.223-57.541L-241.223-57.541
	c0.393-0.231,0.569-0.207,0.91,0.115c1.249,1.181,2.501,2.361,3.751,3.541c0.086,0.08,0.173,0.159,0.252,0.246
	c0.216,0.237,0.217,0.464-0.012,0.692c-0.249,0.248-0.509,0.488-0.767,0.727c-0.302,0.28-0.548,0.287-0.855,0
	c-1.177-1.103-2.348-2.211-3.522-3.318c-0.132-0.124-0.263-0.25-0.396-0.373c-0.368-0.34-0.394-0.487-0.153-0.896
	c-0.368-0.336-0.737-0.673-1.128-1.029c-1.472,1.07-3.153,1.471-5.011,1.06c-1.415-0.313-2.544-1.054-3.377-2.178
	c-1.65-2.23-1.286-5.335,0.823-7.11c2.222-1.87,5.521-1.904,7.68-0.117c2.217,1.835,2.765,5.106,0.696,7.583
	C-241.962-58.245-241.593-57.894-241.223-57.541z"/>
<path class="st5" d="M-183.064-67.135l2.966,2.98v-2.758c0-0.096-0.055-0.229-0.123-0.297l-3.807-3.826
	c-0.068-0.067-0.178-0.067-0.245,0l-3.93,3.949v2.758c0,0.096,0.055,0.119,0.122,0.051l2.844-2.857
	c0.068-0.068,0.122-0.046,0.122,0.05v7.829h0v2.168c0,0.096-0.055,0.118-0.123,0.05l-2.966-2.98v2.758
	c0,0.096,0.055,0.229,0.123,0.297l3.807,3.826c0.068,0.067,0.178,0.067,0.245,0l3.93-3.949v-2.758c0-0.096-0.055-0.119-0.122-0.051
	l-2.844,2.857c-0.068,0.068-0.122,0.046-0.122-0.05v-7.829h0v-2.168C-183.187-67.181-183.132-67.203-183.064-67.135z"/>
<line class="st18" x1="-219.203" y1="-53.899" x2="-191.37" y2="-53.899"/>
<line class="st18" x1="-219.203" y1="-62.195" x2="-191.37" y2="-62.195"/>
<line class="st18" x1="-219.203" y1="-70.187" x2="-191.37" y2="-70.187"/>
<line class="st18" x1="-204.861" y1="-34.927" x2="-204.861" y2="-13.927"/>
<path class="st5" d="M-197.401-21.084L-197.401-21.084h2.695l-2.603-2.569c-0.138-0.135-0.093-0.245,0.101-0.245h7.006v-1.407
	c0-0.193-0.157-0.35-0.35-0.35h-6.656c-0.194,0-0.239-0.11-0.101-0.246l2.603-2.569h-2.345c-0.193,0-0.462,0.111-0.599,0.246
	l-3.245,3.201c-0.137,0.136-0.137,0.356,0,0.492L-197.401-21.084z"/>
<path class="st5" d="M-213.171-28.296L-213.171-28.296h-2.695l2.603,2.569c0.138,0.135,0.093,0.245-0.101,0.245h-7.006v1.407
	c0,0.193,0.157,0.35,0.35,0.35h6.656c0.194,0,0.239,0.11,0.101,0.246l-2.603,2.569h2.345c0.193,0,0.462-0.111,0.599-0.246
	l3.245-3.201c0.137-0.136,0.137-0.356,0-0.492L-213.171-28.296z"/>
<line class="st19" x1="111.425" y1="-154.04" x2="75.402" y2="-154.04"/>
<path class="st20" d="M102.922-150.894c2.045,0,3.703-1.658,3.703-3.703s-1.658-3.703-3.703-3.703s-3.703,1.658-3.703,3.703
	S100.877-150.894,102.922-150.894"/>
<g>
	<path class="st5" d="M126.121-153.839c0,3.12-1.82,4.836-4.459,4.836c-0.91,0-1.781-0.195-2.392-0.585l0.624-1.274
		c0.494,0.325,1.092,0.442,1.729,0.442c1.716,0,2.795-1.066,2.795-3.133v-0.014c-0.546,0.638-1.417,0.949-2.431,0.949
		c-1.794,0-3.133-1.092-3.133-2.795c0-1.807,1.469-2.951,3.328-2.951C124.665-158.363,126.121-156.764,126.121-153.839z
		 M124.158-155.503c0-0.858-0.676-1.534-1.885-1.534c-1.053,0-1.781,0.598-1.781,1.547s0.715,1.547,1.82,1.547
		C123.404-153.943,124.158-154.606,124.158-155.503z"/>
	<path class="st5" d="M133.986-151.928c0,1.599-1.157,2.925-3.602,2.925c-1.287,0-2.587-0.39-3.419-1.053l0.715-1.313
		c0.663,0.546,1.651,0.897,2.678,0.897c1.209,0,1.924-0.533,1.924-1.392c0-0.871-0.559-1.417-2.444-1.417h-2.197l0.468-4.953h5.343
		v1.417h-3.913l-0.195,2.106h0.871C132.907-154.71,133.986-153.54,133.986-151.928z"/>
	<path class="st5" d="M138.406-155.828c0-1.495,0.871-2.496,2.171-2.496s2.184,0.988,2.184,2.496s-0.884,2.496-2.184,2.496
		S138.406-154.333,138.406-155.828z M141.695-155.828c0-1.014-0.416-1.586-1.118-1.586c-0.676,0-1.118,0.585-1.118,1.586
		s0.442,1.586,1.118,1.586C141.279-154.242,141.695-154.814,141.695-155.828z M146.037-158.233h1.274l-6.214,9.101h-1.274
		L146.037-158.233z M144.373-151.538c0-1.495,0.871-2.496,2.171-2.496c1.3,0,2.184,1.001,2.184,2.496s-0.884,2.496-2.184,2.496
		C145.244-149.042,144.373-150.043,144.373-151.538z M147.662-151.538c0-1.001-0.429-1.586-1.118-1.586s-1.118,0.572-1.118,1.586
		c0,1.015,0.429,1.586,1.118,1.586S147.662-150.537,147.662-151.538z"/>
</g>
<rect x="89.363" y="-99.897" class="st11" width="13.149" height="16.764"/>
<polygon class="st21" points="89.362,-83.133 89.362,-83.133 102.511,-83.133 102.511,-99.897 89.362,-99.897 "/>
<rect x="81.691" y="-100.368" class="st9" width="21.291" height="24"/>
<line class="st22" x1="86.188" y1="-92.202" x2="86.188" y2="-81.815"/>
<line class="st23" x1="88.819" y1="-79.926" x2="98.468" y2="-79.926"/>
<path class="st21" d="M99.345-79.926h0.877 M86.188-80.87v0.944h0.877 M86.188-95.035v0.944"/>
<polyline class="st21" points="82.161,-91.946 82.161,-76.838 96.195,-76.838 "/>
<rect x="81.691" y="-100.368" class="st9" width="21.291" height="24"/>
<rect x="120.936" y="-99.966" class="st11" width="14.674" height="18.705"/>
<polygon class="st24" points="120.936,-81.261 120.936,-81.261 135.609,-81.261 135.609,-99.966 120.936,-99.966 "/>
<rect x="120.534" y="-100.368" class="st9" width="19.884" height="24"/>
<rect x="125.343" y="-95.475" class="st5" width="14.674" height="18.705"/>
<polygon class="st25" points="125.343,-76.77 125.343,-76.77 140.016,-76.77 140.016,-95.475 125.343,-95.475 "/>
<rect x="120.534" y="-100.368" class="st9" width="19.884" height="24"/>
<rect x="22.043" y="-96.419" class="st10" width="34.924" height="19.551"/>
<text transform="matrix(1 0 0 1 29.0438 -81.7675)"><tspan x="0" y="0" class="st11" style="font-family:'Montserrat-Regular'; font-size:13px;">e</tspan><tspan x="7.41" y="0" class="st11" style="font-family:'Montserrat-Regular'; font-size:13px;">i</tspan><tspan x="10.335" y="0" class="st11" style="font-family:'Montserrat-Regular'; font-size:13px;">n</tspan></text>
<polygon class="st6" points="-12.965,-96.544 -12.965,-76.544 -12.965,-76.294 -12.715,-76.294 56.134,-76.294 56.384,-76.294 
	56.384,-76.544 56.384,-96.544 56.384,-96.794 56.134,-96.794 -12.715,-96.794 -12.965,-96.794 "/>
<rect x="-13.215" y="-97.044" class="st9" width="70.183" height="21"/>
<line class="st26" x1="128.1" y1="-6.905" x2="128.1" y2="17.355"/>
<path class="st5" d="M136.197,8.914L136.197,8.914h2.592l-2.494-2.46c-0.138-0.135-0.093-0.245,0.101-0.245h6.725V4.87
	c0-0.193-0.157-0.35-0.35-0.35h-6.725l2.743-2.705h-2.242c-0.193,0-0.462,0.11-0.599,0.245l-3.102,3.059
	c-0.137,0.135-0.137,0.355,0,0.491L136.197,8.914z"/>
<line class="st26" x1="101.154" y1="17.188" x2="101.154" y2="-7.072"/>
<path class="st5" d="M93.057,1.37L93.057,1.37h-2.592l2.494,2.46c0.138,0.135,0.093,0.245-0.101,0.245h-6.725v1.339
	c0,0.193,0.157,0.35,0.35,0.35h6.725l-2.743,2.705h2.242c0.193,0,0.462-0.11,0.599-0.245l3.102-3.059
	c0.137-0.135,0.137-0.355,0-0.491L93.057,1.37z"/>
<line class="st26" x1="-88.588" y1="0.967" x2="-64.328" y2="0.967"/>
<path class="st5" d="M-72.937-7.091L-72.937-7.091v-2.592l-2.46,2.494c-0.135,0.138-0.245,0.093-0.245-0.101v-6.725h-1.339
	c-0.193,0-0.35,0.157-0.35,0.35v6.725l-2.705-2.743v2.242c0,0.193,0.11,0.462,0.245,0.599l3.059,3.102
	c0.135,0.137,0.355,0.137,0.491,0L-72.937-7.091z"/>
<path class="st5" d="M-79.869,8.061L-79.869,8.061v2.592l2.46-2.494c0.135-0.138,0.245-0.093,0.245,0.101v6.725h1.339
	c0.193,0,0.35-0.157,0.35-0.35V7.91l2.705,2.743V8.411c0-0.193-0.11-0.462-0.245-0.599l-3.059-3.102
	c-0.135-0.137-0.355-0.137-0.491,0L-79.869,8.061z"/>
<line class="st26" x1="-32.141" y1="13.777" x2="-32.141" y2="-10.483"/>
<path class="st5" d="M-40.199-1.874L-40.199-1.874h-2.592l2.494,2.46c0.138,0.135,0.093,0.245-0.101,0.245h-6.725V2.17
	c0,0.193,0.157,0.35,0.35,0.35h6.725l-2.743,2.705h2.242c0.193,0,0.462-0.11,0.599-0.245l3.102-3.059
	c0.137-0.135,0.137-0.355,0-0.491L-40.199-1.874z"/>
<path class="st5" d="M-25.047,5.058L-25.047,5.058h2.592l-2.494-2.46c-0.138-0.135-0.093-0.245,0.101-0.245h6.725V1.014
	c0-0.193-0.157-0.35-0.35-0.35h-6.725l2.743-2.705h-2.242c-0.193,0-0.462,0.11-0.599,0.245l-3.102,3.059
	c-0.137,0.135-0.137,0.355,0,0.491L-25.047,5.058z"/>
<line class="st26" x1="0" y1="1.25" x2="24.26" y2="1.25"/>
<path class="st5" d="M8.719,8.344L8.719,8.344v2.592l2.46-2.494c0.135-0.138,0.245-0.093,0.245,0.101v6.725h1.339
	c0.193,0,0.35-0.157,0.35-0.35V8.193l2.705,2.743V8.694c0-0.193-0.11-0.462-0.245-0.599l-3.059-3.102
	c-0.135-0.137-0.355-0.137-0.491,0L8.719,8.344z"/>
<line class="st26" x1="45.111" y1="12.505" x2="69.371" y2="12.505"/>
<path class="st5" d="M60.93,4.116L60.93,4.116V1.524l-2.46,2.494c-0.135,0.138-0.245,0.093-0.245-0.101v-6.725h-1.339
	c-0.193,0-0.35,0.157-0.35,0.35v6.725l-2.705-2.743v2.242c0,0.193,0.11,0.462,0.245,0.599l3.059,3.102
	c0.135,0.137,0.355,0.137,0.491,0L60.93,4.116z"/>
<rect x="190.975" y="-14.421" class="st11" width="15.769" height="20.056"/>
<line class="st27" x1="193.932" y1="5.635" x2="204.773" y2="5.635"/>
<line class="st28" x1="206.744" y1="2.627" x2="206.744" y2="-12.415"/>
<line class="st27" x1="203.787" y1="-14.421" x2="192.946" y2="-14.421"/>
<line class="st28" x1="190.975" y1="-11.412" x2="190.975" y2="3.63"/>
<path class="st21" d="M190.974,4.632v1.003h0.986 M191.96-14.421h-0.986v1.003 M206.743-13.418v-1.003h-0.985 M205.758,5.635h0.985
	V4.632"/>
<polygon class="st11" points="179.739,15.635 179.739,15.635 195.508,15.635 195.508,-4.421 179.739,-4.421 "/>
<line class="st27" x1="182.696" y1="15.635" x2="193.537" y2="15.635"/>
<line class="st28" x1="195.508" y1="12.627" x2="195.508" y2="-2.415"/>
<line class="st27" x1="192.551" y1="-4.421" x2="181.71" y2="-4.421"/>
<line class="st28" x1="179.739" y1="-1.412" x2="179.739" y2="13.63"/>
<path class="st21" d="M179.739,14.632v1.003h0.986 M180.725-4.421h-0.986v1.003 M195.508-3.418v-1.003h-0.985 M194.523,15.635h0.985
	v-1.003"/>
<polygon class="st11" points="170.265,23.635 170.265,23.635 186.034,23.635 186.034,3.579 170.265,3.579 "/>
<polygon class="st21" points="170.265,23.635 170.265,23.635 186.034,23.635 186.034,3.579 170.265,3.579 "/>
<g>
	<polygon class="st11" points="244.101,9.941 244.101,9.941 259.87,9.941 259.87,-10.115 244.101,-10.115 	"/>
	<polygon class="st21" points="244.101,9.941 244.101,9.941 259.87,9.941 259.87,-10.115 244.101,-10.115 	"/>
	<line class="st29" x1="240.337" y1="-1.56" x2="240.337" y2="11.944"/>
	<line class="st30" x1="243.474" y1="13.744" x2="254.977" y2="13.744"/>
	<path class="st21" d="M256.022,13.744h1.046 M240.337,12.844v0.9h1.046 M240.337-4.261v0.9"/>
</g>
<g>
	<g>
		<rect x="316.641" y="-21.836" class="st11" width="15.769" height="20.056"/>
		<polygon class="st21" points="316.641,-1.779 316.641,-1.779 332.41,-1.779 332.41,-21.835 316.641,-21.835 		"/>
		<polygon class="st11" points="305.405,8.221 305.405,8.221 321.174,8.221 321.174,-11.835 305.405,-11.835 		"/>
		<line class="st27" x1="308.362" y1="8.221" x2="319.203" y2="8.221"/>
		<line class="st28" x1="321.174" y1="5.212" x2="321.174" y2="-9.83"/>
		<line class="st27" x1="318.217" y1="-11.836" x2="307.376" y2="-11.836"/>
		<line class="st28" x1="305.405" y1="-8.827" x2="305.405" y2="6.215"/>
		<path class="st21" d="M305.405,7.218v1.003h0.986 M306.391-11.835h-0.986v1.003 M321.173-10.832v-1.003h-0.985 M320.189,8.221
			h0.985V7.218"/>
		<polygon class="st11" points="295.931,16.221 295.931,16.221 311.7,16.221 311.7,-3.835 295.931,-3.835 		"/>
		<line class="st27" x1="298.888" y1="16.221" x2="309.729" y2="16.221"/>
		<line class="st28" x1="311.7" y1="13.212" x2="311.7" y2="-1.83"/>
		<line class="st27" x1="308.744" y1="-3.836" x2="297.903" y2="-3.836"/>
		<line class="st28" x1="295.931" y1="-0.827" x2="295.931" y2="14.215"/>
		<path class="st21" d="M295.931,15.218v1.003h0.986 M296.917-3.835h-0.986v1.003 M311.7-2.832v-1.003h-0.985 M310.715,16.221h0.985
			v-1.003"/>
	</g>
	<line class="st27" x1="372.055" y1="11.706" x2="382.896" y2="11.706"/>
	<line class="st28" x1="384.867" y1="8.697" x2="384.867" y2="-6.345"/>
	<line class="st27" x1="381.91" y1="-8.35" x2="371.069" y2="-8.35"/>
	<line class="st28" x1="369.098" y1="-5.342" x2="369.098" y2="9.7"/>
	<path class="st21" d="M369.097,10.703v1.003h0.986 M370.083-8.35h-0.986v1.003 M384.866-7.347V-8.35h-0.985 M383.881,11.706h0.985
		v-1.003"/>
	<polyline class="st21" points="365.334,-2.496 365.334,15.509 382.065,15.509 	"/>
</g>
<g>
	<defs>
		<rect id="SVGID_1_" x="-389.941" y="105.542" width="241.682" height="1"/>
	</defs>
	<clipPath id="SVGID_00000098181856718653979270000004475250922298855867_">
		<use xlink:href="#SVGID_1_"  style="overflow:visible;"/>
	</clipPath>
	
		<line style="clip-path:url(#SVGID_00000098181856718653979270000004475250922298855867_);fill:none;stroke:#B2B2B2;stroke-linecap:round;stroke-linejoin:round;stroke-dasharray:0,3.009;" x1="-386.432" y1="106.042" x2="-150.262" y2="106.042"/>
	
		<path style="clip-path:url(#SVGID_00000098181856718653979270000004475250922298855867_);fill:none;stroke:#B2B2B2;stroke-linecap:round;stroke-linejoin:round;" d="
		M-148.759,106.042L-148.759,106.042 M-389.441,106.042L-389.441,106.042"/>
</g>
<circle class="st33" cx="-343.043" cy="-115.169" r="12.75"/>
<polygon class="st3" points="-199.65,-130.193 -212.65,-130.193 -206.282,-119.718 "/>
<polygon class="st5" points="-191.627,-1.651 -202.102,4.717 -191.627,11.349 "/>
<polygon class="st5" points="-220.674,11.349 -210.199,4.981 -220.674,-1.651 "/>
<polygon class="st5" points="-138.12,-1.651 -148.595,4.717 -138.12,11.349 "/>
<polygon class="st5" points="-173.297,11.349 -162.822,4.981 -173.297,-1.651 "/>
<rect x="-13.048" y="-130.182" class="st10" width="34.924" height="19.551"/>
<polygon class="st6" points="-12.798,-130.307 -12.798,-110.307 -12.798,-110.057 -12.548,-110.057 56.301,-110.057 
	56.551,-110.057 56.551,-110.307 56.551,-130.307 56.551,-130.557 56.301,-130.557 -12.548,-130.557 -12.798,-130.557 "/>
<rect x="-13.048" y="-130.807" class="st9" width="69.849" height="21"/>
<rect x="22.316" y="-64.153" class="st10" width="34.924" height="19.551"/>
<polygon class="st6" points="-12.692,-64.278 -12.692,-44.278 -12.692,-44.028 -12.442,-44.028 56.407,-44.028 56.657,-44.028 
	56.657,-44.278 56.657,-64.278 56.657,-64.528 56.407,-64.528 -12.442,-64.528 -12.692,-64.528 "/>
<rect x="-12.942" y="-64.778" class="st9" width="70.183" height="21"/>
<line class="st19" x1="110.348" y1="-134.252" x2="74.325" y2="-134.252"/>
<path class="st20" d="M101.845-131.106c2.045,0,3.703-1.658,3.703-3.703c0-2.045-1.658-3.703-3.703-3.703
	c-2.045,0-3.703,1.658-3.703,3.703C98.142-132.764,99.8-131.106,101.845-131.106"/>
<line class="st19" x1="418.672" y1="-103.473" x2="382.649" y2="-103.473"/>
<path class="st20" d="M410.169-100.327c2.045,0,3.703-1.658,3.703-3.703s-1.658-3.703-3.703-3.703c-2.045,0-3.703,1.658-3.703,3.703
	S408.124-100.327,410.169-100.327"/>
</svg>
