<?xml version="1.0" encoding="utf-8"?>
<!-- Generator: Adobe Illustrator 26.2.1, SVG Export Plug-In . SVG Version: 6.00 Build 0)  -->
<svg version="1.1" id="Ebene_1" xmlns="http://www.w3.org/2000/svg" xmlns:xlink="http://www.w3.org/1999/xlink" x="0px" y="0px"
	 width="26.521px" height="27.688px" viewBox="0 0 26.521 27.688" enable-background="new 0 0 26.521 27.688" xml:space="preserve">
<path fill="#B1B1B0" d="M12.351,23.73c-0.344,0.953-1.395,1.447-2.348,1.103S8.556,23.437,8.9,22.484
	c0.344-0.953,1.396-1.446,2.349-1.102C12.201,21.726,12.695,22.777,12.351,23.73 M7.784,10.236
	c-0.344,0.953-1.395,1.446-2.348,1.102C4.483,10.994,3.989,9.943,4.333,8.99c0.344-0.953,1.396-1.447,2.349-1.103
	S8.128,9.283,7.784,10.236 M7.616,20.866c-0.344,0.953-1.395,1.447-2.348,1.103s-1.447-1.396-1.103-2.349
	c0.344-0.953,1.396-1.446,2.349-1.102C7.467,18.862,7.96,19.913,7.616,20.866 M3.394,16.726c-0.953-0.344-1.447-1.395-1.103-2.348
	c0.344-0.953,1.396-1.447,2.349-1.103s1.446,1.396,1.102,2.349C5.398,16.577,4.347,17.07,3.394,16.726 M9.324,6.385
	c0.344-0.953,1.396-1.447,2.349-1.102c0.953,0.344,1.446,1.395,1.102,2.348c-0.344,0.953-1.395,1.447-2.348,1.102
	C9.474,8.389,8.98,7.338,9.324,6.385 M21.063,17.107c-1.355,0.483-2.575-0.887-2.245-2.284c0.224-0.949,0.85-1.814,1.215-3.366
	c0.107-0.456,0.204-0.941,0.235-1.455l-0.561,0.716c-0.11,0.141-0.255,0.249-0.418,0.316c-0.03,0.177-0.118,0.342-0.251,0.466
	l-1.028,0.956c-0.052,0.049-0.11,0.089-0.17,0.121c0.011,0.558-0.09,1.909-1.186,3.118c-1.204,1.328-3.175,2.001-5.861,2.001
	c-0.085,0-0.171,0-0.257-0.002c-0.19-0.003-0.375-0.072-0.521-0.195c-0.141-0.12-0.239-0.286-0.275-0.468
	c-0.076-0.377,0.125-0.763,0.477-0.918c0.057-0.025,1.414-0.649,1.787-2.451c0.193-0.933,0.744-1.774,1.552-2.367
	c0.556-0.409,1.196-0.669,1.787-0.739c0.022-0.092,0.06-0.182,0.115-0.265l0.777-1.169c0.101-0.151,0.248-0.263,0.417-0.322
	c0.04-0.171,0.123-0.332,0.243-0.464l1.982-2.166c-0.162-0.193-0.341-0.388-0.54-0.587C15.303,2.549,8.306,0.829,3.574,6.357
	c-5.621,6.567-3.8,13.726-0.093,17.665c2.711,2.88,8.158,4.149,11.426,3.499c3.269-0.65,6.713-2.971,8.839-6.874
	C25.209,17.961,23.412,16.27,21.063,17.107"/>
<path fill="#B1B1B0" d="M17.247,12.397c-0.007-0.061-0.037-0.118-0.084-0.158l-1.251-1.059c-0.039-0.034-0.089-0.054-0.14-0.057
	c-1.091-0.076-2.835,0.899-3.199,2.657c-0.434,2.099-2.053,2.836-2.122,2.866c-0.105,0.046-0.164,0.159-0.141,0.271
	c0.011,0.055,0.041,0.103,0.081,0.138c0.042,0.035,0.096,0.057,0.154,0.058c2.643,0.041,4.553-0.568,5.677-1.809
	C17.414,13.989,17.254,12.461,17.247,12.397"/>
<path fill="#B1B1B0" d="M17.365,9.372l1.243,1.053c0.093,0.078,0.214,0.116,0.335,0.104c0.12-0.012,0.231-0.074,0.306-0.169
	l7.176-9.158c0.149-0.19,0.121-0.461-0.063-0.617l-0.565-0.479c-0.184-0.155-0.456-0.138-0.618,0.04L17.324,8.73
	c-0.081,0.089-0.124,0.209-0.116,0.33C17.216,9.18,17.273,9.294,17.365,9.372"/>
<path fill="#B1B1B0" d="M15.942,10.614c-0.068,0.103-0.049,0.241,0.045,0.321l1.303,1.103c0.094,0.08,0.233,0.077,0.323-0.007
	l1.028-0.957c0.051-0.047,0.079-0.114,0.078-0.183c-0.002-0.07-0.033-0.135-0.086-0.18l-1.554-1.316
	c-0.053-0.045-0.122-0.066-0.191-0.056s-0.13,0.049-0.169,0.106L15.942,10.614z"/>
</svg>
