<?xml version="1.0" encoding="utf-8"?>
<!-- Generator: Adobe Illustrator 26.0.3, SVG Export Plug-In . SVG Version: 6.00 Build 0)  -->
<svg version="1.1" id="Ebene_1" xmlns="http://www.w3.org/2000/svg" xmlns:xlink="http://www.w3.org/1999/xlink" x="0px" y="0px"
	 width="16.271px" height="24.26px" viewBox="0 0 16.271 24.26" style="enable-background:new 0 0 16.271 24.26;"
	 xml:space="preserve">
<style type="text/css">
	.st0{fill:none;stroke:#C5C5C5;stroke-width:3;stroke-linecap:round;stroke-linejoin:round;}
	.st1{fill:#FFAEFF;stroke:#4F4D4D;stroke-width:0.5;}
	.st2{fill:#F8F8F8;}
	.st3{fill:#0E689A;}
	.st4{fill:none;stroke:#B2B1B1;stroke-width:0.65;stroke-miterlimit:10;}
	.st5{fill:#B2B1B1;}
	.st6{fill:none;stroke:#B2B2B2;stroke-width:0.5;stroke-miterlimit:10;}
	.st7{fill:none;stroke:#B2B1B1;stroke-width:0.3;stroke-miterlimit:10;}
	.st8{fill:none;stroke:#FFFFFF;stroke-width:0.021;}
	.st9{fill:none;}
	.st10{fill:#0E6899;}
	.st11{fill:#FFFFFF;}
	.st12{fill:none;stroke:#C5C5C5;stroke-width:0.5;stroke-linecap:round;stroke-linejoin:round;}
	.st13{fill:#C5C5C5;}
	.st14{fill:none;stroke:#B2B1B1;stroke-width:0.5;}
	.st15{fill:none;stroke:#B2B1B1;stroke-width:1.2;}
	.st16{fill:#B2B2B2;}
	.st17{fill:none;stroke:#FFFFFF;stroke-width:0.001;}
	.st18{fill:none;stroke:#B2B1B1;stroke-width:1.712;}
	.st19{fill:none;stroke:#B2B1B1;stroke-width:2;}
	.st20{fill:#AD5E7A;}
	.st21{fill:none;stroke:#B2B1B1;stroke-width:0.941;}
	.st22{fill:none;stroke:#B2B1B1;stroke-width:0.941;stroke-dasharray:1.889,1.889;}
	.st23{fill:none;stroke:#B2B1B1;stroke-width:0.941;stroke-dasharray:1.754,1.754;}
	.st24{fill:none;stroke:#B2B1B1;stroke-width:0.804;}
	.st25{fill:none;stroke:#FFFFFF;stroke-width:0.804;}
	.st26{fill:none;stroke:#B2B1B1;stroke-width:2.5;}
	.st27{fill:none;stroke:#B2B1B1;stroke-width:0.941;stroke-dasharray:1.971,1.971;}
	.st28{fill:none;stroke:#B2B1B1;stroke-width:0.941;stroke-dasharray:2.006,2.006;}
	.st29{fill:none;stroke:#B2B1B1;stroke-width:0.941;stroke-dasharray:1.801,1.801;}
	.st30{fill:none;stroke:#B2B1B1;stroke-width:0.941;stroke-dasharray:2.091,2.091;}
	
		.st31{clip-path:url(#SVGID_00000064325887799370406040000002271170706216971199_);fill:none;stroke:#B2B2B2;stroke-linecap:round;stroke-linejoin:round;stroke-dasharray:0,3.009;}
	
		.st32{clip-path:url(#SVGID_00000064325887799370406040000002271170706216971199_);fill:none;stroke:#B2B2B2;stroke-linecap:round;stroke-linejoin:round;}
	.st33{fill:none;stroke:#4F4D4D;stroke-width:0.5;}
</style>
<polyline class="st0" points="1562.717,818.558 1556.467,809.558 1549.717,818.558 "/>
<circle class="st1" cx="-429.176" cy="-144.191" r="12.75"/>
<rect x="-396.716" y="-155.205" class="st2" width="119.902" height="21"/>
<polygon class="st3" points="-285.886,-149.943 -298.886,-149.943 -292.518,-139.468 "/>
<g>
	<g>
		<line class="st4" x1="-172.874" y1="-137.685" x2="-162.591" y2="-137.685"/>
		<g>
			<path class="st5" d="M-171.587-142.91v-5.175h1.3v5.122c0,2.016,0.923,2.926,2.561,2.926c1.638,0,2.574-0.91,2.574-2.926v-5.122
				h1.261v5.175c0,2.639-1.443,4.029-3.848,4.029C-170.131-138.881-171.587-140.272-171.587-142.91z"/>
		</g>
	</g>
	<polygon class="st6" points="-180.983,-155.885 -180.983,-129.885 -180.983,-129.635 -180.733,-129.635 -154.733,-129.635 
		-154.483,-129.635 -154.483,-129.885 -154.483,-155.885 -154.483,-156.135 -154.733,-156.135 -180.733,-156.135 -180.983,-156.135 
			"/>
</g>
<g>
	<g>
		<path class="st5" d="M-202.337-147.812h1.3l-1.82,9.101h-1.3L-202.337-147.812z"/>
	</g>
	<polygon class="st6" points="-215.847,-156.261 -215.847,-130.261 -215.847,-130.011 -215.597,-130.011 -189.597,-130.011 
		-189.347,-130.011 -189.347,-130.261 -189.347,-156.261 -189.347,-156.511 -189.597,-156.511 -215.597,-156.511 -215.847,-156.511 
			"/>
</g>
<g>
	<g>
		<path class="st5" d="M-235.485-141.143c0,1.573-1.248,2.483-3.64,2.483h-4.706v-9.101h4.446c2.275,0,3.445,0.949,3.445,2.366
			c0,0.91-0.468,1.612-1.209,2.002C-236.135-143.067-235.485-142.286-235.485-141.143z M-241.738-146.174v2.146h2.093
			c1.027,0,1.586-0.364,1.586-1.079s-0.559-1.066-1.586-1.066H-241.738z M-237.604-141.363c0-0.767-0.585-1.131-1.677-1.131h-2.457
			v2.249h2.457C-238.189-140.245-237.604-140.583-237.604-141.363z"/>
	</g>
	<polygon class="st6" points="-252.908,-156.21 -252.908,-130.21 -252.908,-129.96 -252.658,-129.96 -226.658,-129.96 
		-226.408,-129.96 -226.408,-130.21 -226.408,-156.21 -226.408,-156.46 -226.658,-156.46 -252.658,-156.46 -252.908,-156.46 	"/>
</g>
<path class="st7" d="M-198.72-114.256"/>
<path class="st7" d="M-201.228-113.002"/>
<path class="st7" d="M-201.228-111.748"/>
<path class="st7" d="M-201.228-110.494"/>
<path class="st7" d="M-198.72-109.24"/>
<path class="st7" d="M-198.72-107.986"/>
<path class="st7" d="M-201.228-106.732"/>
<path class="st7" d="M-201.228-104.224"/>
<path class="st7" d="M-198.72-101.716"/>
<g>
	<path class="st7" d="M-218.184-109.24"/>
	<path class="st7" d="M-218.184-114.256"/>
	<path class="st7" d="M-218.184-101.716"/>
	<path class="st7" d="M-218.184-107.986"/>
	<g>
		<path class="st7" d="M-216.122-106.732"/>
		<path class="st7" d="M-216.122-110.494"/>
		<path class="st7" d="M-216.122-111.748"/>
		<path class="st7" d="M-216.122-113.002"/>
		<line class="st7" x1="-218.56" y1="-102.511" x2="-199.096" y2="-102.511"/>
		<line class="st7" x1="-218.56" y1="-103.787" x2="-203.666" y2="-103.787"/>
		<line class="st7" x1="-218.56" y1="-105.063" x2="-203.666" y2="-105.063"/>
		<line class="st7" x1="-218.56" y1="-106.339" x2="-203.666" y2="-106.339"/>
		<line class="st7" x1="-218.56" y1="-107.615" x2="-199.096" y2="-107.615"/>
		<line class="st7" x1="-218.56" y1="-108.891" x2="-199.096" y2="-108.891"/>
		<line class="st7" x1="-218.487" y1="-110.167" x2="-203.593" y2="-110.167"/>
		<line class="st7" x1="-218.56" y1="-111.442" x2="-199.096" y2="-111.442"/>
		<line class="st7" x1="-218.56" y1="-112.718" x2="-203.666" y2="-112.718"/>
		<line class="st7" x1="-218.56" y1="-113.995" x2="-203.666" y2="-113.995"/>
		<line class="st7" x1="-218.56" y1="-115.27" x2="-199.096" y2="-115.27"/>
	</g>
	<polygon class="st6" points="-221.887,-121.565 -221.887,-95.572 -221.887,-95.322 -221.637,-95.322 -195.644,-95.322 
		-195.394,-95.322 -195.394,-95.572 -195.394,-121.565 -195.394,-121.815 -195.644,-121.815 -221.637,-121.815 -221.887,-121.815 	
		"/>
</g>
<g>
	<g>
		<line class="st7" x1="-167.84" y1="-114.954" x2="-187.304" y2="-114.954"/>
		<line class="st7" x1="-170.348" y1="-113.677" x2="-185.242" y2="-113.677"/>
		<line class="st7" x1="-170.348" y1="-112.4" x2="-185.242" y2="-112.4"/>
		<line class="st7" x1="-170.348" y1="-111.122" x2="-185.242" y2="-111.122"/>
		<line class="st7" x1="-167.84" y1="-109.846" x2="-187.304" y2="-109.846"/>
		<line class="st7" x1="-167.84" y1="-108.569" x2="-187.304" y2="-108.569"/>
		<line class="st7" x1="-170.348" y1="-107.291" x2="-185.242" y2="-107.291"/>
		<line class="st7" x1="-167.84" y1="-106.015" x2="-187.304" y2="-106.015"/>
		<line class="st7" x1="-170.348" y1="-104.737" x2="-185.242" y2="-104.737"/>
		<line class="st7" x1="-170.348" y1="-103.46" x2="-185.242" y2="-103.46"/>
		<line class="st7" x1="-167.84" y1="-102.184" x2="-187.304" y2="-102.184"/>
	</g>
	<polygon class="st6" points="-190.818,-121.565 -190.818,-95.572 -190.818,-95.322 -190.568,-95.322 -164.575,-95.322 
		-164.325,-95.322 -164.325,-95.572 -164.325,-121.565 -164.325,-121.815 -164.575,-121.815 -190.568,-121.815 -190.818,-121.815 	
		"/>
</g>
<polygon class="st6" points="-159.75,-121.565 -159.75,-95.572 -159.75,-95.322 -159.5,-95.322 -133.507,-95.322 -133.257,-95.322 
	-133.257,-95.572 -133.257,-121.565 -133.257,-121.815 -133.507,-121.815 -159.5,-121.815 -159.75,-121.815 "/>
<path class="st7" d="M-156.423-102.881"/>
<path class="st7" d="M-156.423-107.897"/>
<path class="st7" d="M-156.423-109.151"/>
<path class="st7" d="M-156.423-115.421"/>
<path class="st7" d="M-139.02-110.405"/>
<path class="st7" d="M-136.958-107.897"/>
<path class="st7" d="M-139.02-106.643"/>
<path class="st7" d="M-136.958-102.881"/>
<path class="st7" d="M-136.958-115.421"/>
<path class="st7" d="M-136.958-109.151"/>
<path class="st7" d="M-139.02-105.389"/>
<path class="st7" d="M-139.02-104.135"/>
<g>
	<path class="st7" d="M-154.103-104.457"/>
	<path class="st7" d="M-154.103-105.711"/>
	<path class="st7" d="M-154.103-106.965"/>
	<path class="st7" d="M-154.103-110.727"/>
	<path class="st7" d="M-154.103-113.235"/>
	<line class="st7" x1="-136.771" y1="-114.948" x2="-156.235" y2="-114.948"/>
	<line class="st7" x1="-136.771" y1="-113.673" x2="-151.665" y2="-113.673"/>
	<line class="st7" x1="-136.771" y1="-112.397" x2="-151.665" y2="-112.397"/>
	<line class="st7" x1="-136.771" y1="-111.12" x2="-151.665" y2="-111.12"/>
	<line class="st7" x1="-136.771" y1="-109.844" x2="-156.235" y2="-109.844"/>
	<line class="st7" x1="-136.771" y1="-108.569" x2="-156.235" y2="-108.569"/>
	<line class="st7" x1="-136.844" y1="-107.293" x2="-151.738" y2="-107.293"/>
	<line class="st7" x1="-136.771" y1="-106.017" x2="-156.235" y2="-106.017"/>
	<line class="st7" x1="-136.771" y1="-104.741" x2="-151.665" y2="-104.741"/>
	<line class="st7" x1="-136.771" y1="-103.464" x2="-151.665" y2="-103.464"/>
	<line class="st7" x1="-136.771" y1="-102.189" x2="-156.235" y2="-102.189"/>
</g>
<polygon class="st6" points="-252.658,-121.558 -252.658,-95.565 -252.658,-95.315 -252.408,-95.315 -226.415,-95.315 
	-226.165,-95.315 -226.165,-95.565 -226.165,-121.558 -226.165,-121.808 -226.415,-121.808 -252.408,-121.808 -252.658,-121.808 "/>
<path class="st7" d="M-229.491-114.256"/>
<path class="st7" d="M-229.491-109.24"/>
<path class="st7" d="M-229.491-107.986"/>
<path class="st7" d="M-229.491-101.716"/>
<path class="st7" d="M-246.893-106.732"/>
<path class="st7" d="M-248.956-109.24"/>
<path class="st7" d="M-246.893-110.494"/>
<path class="st7" d="M-248.956-114.256"/>
<path class="st7" d="M-248.956-101.716"/>
<path class="st7" d="M-248.956-107.986"/>
<path class="st7" d="M-246.893-111.748"/>
<path class="st7" d="M-246.893-113.002"/>
<g>
	<path class="st7" d="M-231.999-113.002"/>
	<path class="st7" d="M-231.999-111.748"/>
	<path class="st7" d="M-231.999-110.494"/>
	<path class="st7" d="M-231.999-106.732"/>
	<path class="st7" d="M-231.999-104.224"/>
	<line class="st7" x1="-249.331" y1="-102.511" x2="-229.867" y2="-102.511"/>
	<line class="st7" x1="-249.331" y1="-103.787" x2="-229.867" y2="-103.787"/>
	<line class="st7" x1="-249.331" y1="-105.063" x2="-229.867" y2="-105.063"/>
	<line class="st7" x1="-249.331" y1="-106.339" x2="-229.867" y2="-106.339"/>
	<line class="st7" x1="-249.331" y1="-107.615" x2="-229.867" y2="-107.615"/>
	<line class="st7" x1="-249.331" y1="-108.891" x2="-229.867" y2="-108.891"/>
	<line class="st7" x1="-249.258" y1="-110.167" x2="-229.794" y2="-110.167"/>
	<line class="st7" x1="-249.331" y1="-111.442" x2="-229.867" y2="-111.442"/>
	<line class="st7" x1="-249.331" y1="-112.718" x2="-229.867" y2="-112.718"/>
	<line class="st7" x1="-249.331" y1="-113.995" x2="-229.867" y2="-113.995"/>
	<line class="st7" x1="-249.331" y1="-115.27" x2="-229.867" y2="-115.27"/>
</g>
<path class="st5" d="M-422.215-6.41l-1.915,13.335c-0.058,0.402-0.431,0.682-0.834,0.624c-0.402-0.058-0.682-0.431-0.624-0.833
	l1.915-13.336c0.058-0.402,0.431-0.681,0.834-0.623C-422.437-7.185-422.157-6.813-422.215-6.41 M-429.032,7.665
	c-0.407,0.003-0.74-0.324-0.742-0.73l-0.106-13.472c-0.003-0.407,0.324-0.739,0.73-0.742c0.408-0.003,0.74,0.324,0.743,0.731
	l0.105,13.471C-428.299,7.33-428.626,7.662-429.032,7.665 M-433.103,7.612c-0.401,0.064-0.779-0.209-0.842-0.61l-2.124-13.304
	c-0.064-0.402,0.209-0.779,0.612-0.843c0.401-0.064,0.778,0.209,0.842,0.611l2.123,13.303
	C-432.428,7.171-432.701,7.548-433.103,7.612 M-419.32-8.796c-0.141-0.169-0.353-0.266-0.573-0.264l-18.538,0.144
	c-0.22,0.002-0.429,0.101-0.568,0.272c-0.14,0.17-0.196,0.393-0.155,0.609l3.092,16.141c0.068,0.351,0.376,0.605,0.734,0.602
	l12.497-0.098c0.356-0.002,0.66-0.258,0.724-0.608l2.949-16.188C-419.118-8.402-419.179-8.627-419.32-8.796"/>
<path class="st8" d="M-422.215-6.41l-1.915,13.335c-0.058,0.402-0.431,0.682-0.834,0.624c-0.402-0.058-0.682-0.431-0.624-0.833
	l1.915-13.336c0.058-0.402,0.431-0.681,0.834-0.623C-422.437-7.185-422.157-6.813-422.215-6.41z M-429.032,7.665
	c-0.407,0.003-0.74-0.324-0.742-0.73l-0.106-13.472c-0.003-0.407,0.324-0.739,0.73-0.742c0.408-0.003,0.74,0.324,0.743,0.731
	l0.105,13.471C-428.299,7.33-428.626,7.662-429.032,7.665z M-433.103,7.612c-0.401,0.064-0.779-0.209-0.842-0.61l-2.124-13.304
	c-0.064-0.402,0.209-0.779,0.612-0.843c0.401-0.064,0.778,0.209,0.842,0.611l2.123,13.303
	C-432.428,7.171-432.701,7.548-433.103,7.612z M-419.32-8.796c-0.141-0.169-0.353-0.266-0.573-0.264l-18.538,0.144
	c-0.22,0.002-0.429,0.101-0.568,0.272c-0.14,0.17-0.196,0.393-0.155,0.609l3.092,16.141c0.068,0.351,0.376,0.605,0.734,0.602
	l12.497-0.098c0.356-0.002,0.66-0.258,0.724-0.608l2.949-16.188C-419.118-8.402-419.179-8.627-419.32-8.796z"/>
<path class="st5" d="M-432.007-13.403L-432.007-13.403l-0.004-0.421l5.49-0.043l0.004,0.421L-432.007-13.403z M-418.27-11.993
	L-418.27-11.993l-2.025,0.016l-0.009-1.171c-0.001-0.091-0.038-0.18-0.103-0.244c-0.065-0.064-0.155-0.1-0.246-0.1l-4.467,0.035
	l-0.009-1.12c-0.002-0.184-0.077-0.363-0.209-0.492c-0.131-0.13-0.311-0.203-0.495-0.201l-6.887,0.054
	c-0.183,0.001-0.363,0.077-0.492,0.208s-0.202,0.312-0.2,0.496l0.009,1.12l-4.164,0.032c-0.091,0.001-0.18,0.039-0.243,0.104
	c-0.065,0.065-0.101,0.154-0.101,0.246l0.009,1.171l-2.197,0.017l0.017,2.225l21.829-0.17L-418.27-11.993z"/>
<path class="st8" d="M-432.007-13.403L-432.007-13.403l-0.004-0.421l5.49-0.043l0.004,0.421L-432.007-13.403z M-418.27-11.993
	L-418.27-11.993l-2.025,0.016l-0.009-1.171c-0.001-0.091-0.038-0.18-0.103-0.244c-0.065-0.064-0.155-0.1-0.246-0.1l-4.467,0.035
	l-0.009-1.12c-0.002-0.184-0.077-0.363-0.209-0.492c-0.131-0.13-0.311-0.203-0.495-0.201l-6.887,0.054
	c-0.183,0.001-0.363,0.077-0.492,0.208s-0.202,0.312-0.2,0.496l0.009,1.12l-4.164,0.032c-0.091,0.001-0.18,0.039-0.243,0.104
	c-0.065,0.065-0.101,0.154-0.101,0.246l0.009,1.171l-2.197,0.017l0.017,2.225l21.829-0.17L-418.27-11.993z"/>
<rect x="-440.11" y="-15.281" class="st9" width="21.868" height="24"/>
<rect x="-99.181" y="-156.049" class="st10" width="34.924" height="19.551"/>
<g>
	<path class="st11" d="M-86.204-145.636v4.238h-0.884v-1.066c-0.416,0.702-1.222,1.132-2.354,1.132
		c-1.547,0-2.496-0.807-2.496-1.989c0-1.054,0.676-1.938,2.639-1.938h2.171v-0.416c0-1.17-0.663-1.807-1.938-1.807
		c-0.884,0-1.716,0.312-2.275,0.806l-0.416-0.688c0.689-0.585,1.703-0.924,2.782-0.924
		C-87.205-148.288-86.204-147.403-86.204-145.636z M-87.126-143.451v-1.118h-2.146c-1.326,0-1.755,0.52-1.755,1.222
		c0,0.793,0.637,1.287,1.729,1.287C-88.258-142.061-87.491-142.555-87.126-143.451z"/>
	<path class="st11" d="M-78.104-148.235v6.838h-0.884v-1.248c-0.481,0.832-1.365,1.313-2.458,1.313
		c-1.742,0-2.886-0.976-2.886-2.938v-3.965h0.923v3.874c0,1.456,0.754,2.197,2.054,2.197c1.43,0,2.327-0.924,2.327-2.483v-3.588
		H-78.104z"/>
	<path class="st11" d="M-76.805-142.178l0.416-0.728c0.546,0.429,1.469,0.767,2.431,0.767c1.3,0,1.833-0.441,1.833-1.118
		c0-1.78-4.433-0.377-4.433-3.081c0-1.118,0.962-1.95,2.704-1.95c0.884,0,1.846,0.247,2.418,0.638l-0.403,0.74
		c-0.598-0.416-1.313-0.585-2.015-0.585c-1.235,0-1.781,0.481-1.781,1.132c0,1.846,4.434,0.455,4.434,3.081
		c0,1.183-1.04,1.95-2.821,1.95C-75.154-141.332-76.246-141.696-76.805-142.178z"/>
</g>
<polygon class="st6" points="-98.931,-156.174 -98.931,-136.174 -98.931,-135.924 -98.681,-135.924 -29.832,-135.924 
	-29.582,-135.924 -29.582,-136.174 -29.582,-156.174 -29.582,-156.424 -29.832,-156.424 -98.681,-156.424 -98.931,-156.424 "/>
<rect x="-99.181" y="-156.674" class="st9" width="69.849" height="21"/>
<rect x="-503.578" y="50.656" class="st11" width="1014" height="21"/>
<path class="st3" d="M123.583,50.656c-2.209,0-4,1.791-4,4v12.382c0,2.209,1.791,4,4,4h77.131c2.209,0,4-1.791,4-4V54.656
	c0-2.209-1.791-4-4-4H123.583z"/>
<rect x="-503.328" y="50.906" class="st12" width="1013.5" height="20.5"/>
<path class="st13" d="M494.278,53.516v1.481c0,0.397,0.187,0.771,0.505,1.009l6.367,4.762c0.258,0.194,0.258,0.583,0,0.776
	l-6.367,4.762c-0.318,0.238-0.505,0.612-0.505,1.01v1.48c0,0.41,0.467,0.644,0.795,0.399l10.111-7.563
	c0.318-0.237,0.318-0.714,0-0.952l-10.11-7.562C494.745,52.872,494.278,53.107,494.278,53.516"/>
<path class="st13" d="M-487.725,68.796v-1.481c0-0.397-0.187-0.771-0.505-1.009l-6.367-4.762c-0.258-0.194-0.258-0.583,0-0.776
	l6.367-4.762c0.318-0.238,0.505-0.612,0.505-1.01v-1.48c0-0.41-0.467-0.644-0.795-0.399l-10.111,7.563
	c-0.318,0.237-0.318,0.714,0,0.952l10.11,7.562C-488.192,69.44-487.725,69.205-487.725,68.796"/>
<rect x="-503.578" y="50.656" class="st9" width="1014" height="21"/>
<rect x="552.194" y="-193.889" class="st11" width="21" height="702.123"/>
<path class="st3" d="M552.194,220.072c0,2.209,1.791,4,4,4h12.382c2.209,0,4-1.791,4-4v-78.286c0-2.209-1.791-4-4-4h-12.382
	c-2.209,0-4,1.791-4,4V220.072z"/>
<rect x="552.444" y="-193.64" class="st12" width="20.5" height="701.624"/>
<path class="st13" d="M555.054-180.354h1.481c0.397,0,0.771-0.19,1.009-0.512l4.762-6.453c0.194-0.262,0.583-0.262,0.776,0
	l4.762,6.453c0.238,0.322,0.612,0.512,1.01,0.512h1.48c0.41,0,0.644-0.474,0.399-0.806l-7.563-10.248
	c-0.237-0.322-0.714-0.322-0.952,0l-7.562,10.248C554.41-180.828,554.645-180.354,555.054-180.354"/>
<path class="st13" d="M570.334,493.898h-1.481c-0.397,0-0.771,0.19-1.009,0.512l-4.762,6.453c-0.194,0.262-0.583,0.262-0.776,0
	l-4.762-6.453c-0.238-0.322-0.612-0.512-1.01-0.512h-1.48c-0.41,0-0.644,0.474-0.399,0.806l7.563,10.248
	c0.237,0.322,0.714,0.322,0.952,0l7.562-10.248C570.978,494.372,570.743,493.898,570.334,493.898"/>
<rect x="552.194" y="-193.89" class="st9" width="21" height="702.124"/>
<g>
	<g>
		<line class="st7" x1="-168.78" y1="-70.911" x2="-181.797" y2="-70.911"/>
		<line class="st7" x1="-168.78" y1="-81.086" x2="-181.797" y2="-81.086"/>
		<line class="st7" x1="-168.78" y1="-75.998" x2="-181.797" y2="-75.998"/>
		<g>
			<path class="st5" d="M-185.439-82.556v2.104h-0.487v-1.714h-0.421v-0.391H-185.439z"/>
		</g>
		<g>
			<path class="st5" d="M-184.678-75.589v0.396h-1.59v-0.315l0.812-0.767c0.187-0.178,0.22-0.286,0.22-0.388
				c0-0.165-0.114-0.262-0.337-0.262c-0.18,0-0.333,0.069-0.436,0.21l-0.355-0.228c0.163-0.238,0.457-0.392,0.836-0.392
				c0.469,0,0.781,0.241,0.781,0.623c0,0.204-0.057,0.391-0.352,0.664l-0.484,0.457H-184.678z"/>
		</g>
		<g>
			<path class="st5" d="M-184.696-70.83c0,0.354-0.273,0.68-0.872,0.68c-0.295,0-0.599-0.081-0.803-0.226l0.189-0.373
				c0.159,0.121,0.382,0.189,0.601,0.189c0.244,0,0.394-0.099,0.394-0.271c0-0.159-0.117-0.258-0.394-0.258h-0.223v-0.322
				l0.433-0.49h-0.896v-0.391h1.473v0.316l-0.475,0.541C-184.889-71.374-184.696-71.14-184.696-70.83z"/>
		</g>
	</g>
	<polygon class="st6" points="-190.825,-89.353 -190.825,-63.353 -190.825,-63.103 -190.575,-63.103 -164.575,-63.103 
		-164.325,-63.103 -164.325,-63.353 -164.325,-89.353 -164.325,-89.603 -164.575,-89.603 -190.575,-89.603 -190.825,-89.603 	"/>
</g>
<polygon class="st6" points="-252.658,-89.353 -252.658,-63.353 -252.658,-63.103 -252.408,-63.103 -226.408,-63.103 
	-226.158,-63.103 -226.158,-63.353 -226.158,-89.353 -226.158,-89.603 -226.408,-89.603 -252.408,-89.603 -252.658,-89.603 "/>
<g>
	<polygon class="st6" points="-222.316,-89.353 -222.316,-63.353 -222.316,-63.103 -222.066,-63.103 -196.066,-63.103 
		-195.816,-63.103 -195.816,-63.353 -195.816,-89.353 -195.816,-89.603 -196.066,-89.603 -222.066,-89.603 -222.316,-89.603 	"/>
	<path class="st7" d="M-200.784-71.229H-213.8 M-200.784-76.362H-213.8 M-200.784-81.494H-213.8"/>
	<path class="st5" d="M-215.886-75.777c0.161-0.156,0.241-0.349,0.241-0.581c0-0.15-0.037-0.288-0.11-0.414
		c-0.073-0.125-0.172-0.224-0.297-0.297c-0.126-0.073-0.264-0.11-0.415-0.11c-0.15,0-0.288,0.037-0.41,0.11
		c-0.122,0.073-0.221,0.172-0.294,0.297c-0.072,0.126-0.11,0.264-0.11,0.414c0,0.232,0.08,0.425,0.238,0.581
		c0.157,0.156,0.35,0.234,0.576,0.234C-216.24-75.543-216.048-75.621-215.886-75.777"/>
	<path class="st5" d="M-216.463-80.411c0.489,0,0.885-0.396,0.885-0.885c0-0.488-0.396-0.885-0.885-0.885
		c-0.488,0-0.885,0.397-0.885,0.885C-217.348-80.807-216.951-80.411-216.463-80.411"/>
	<path class="st5" d="M-215.886-70.76c0.161-0.156,0.241-0.349,0.241-0.581c0-0.15-0.037-0.288-0.11-0.414
		c-0.073-0.125-0.172-0.224-0.297-0.297c-0.126-0.073-0.264-0.11-0.415-0.11c-0.15,0-0.288,0.037-0.41,0.11
		c-0.122,0.073-0.221,0.172-0.294,0.297c-0.072,0.126-0.11,0.264-0.11,0.414c0,0.232,0.08,0.425,0.238,0.581
		c0.157,0.156,0.35,0.234,0.576,0.234C-216.24-70.526-216.048-70.604-215.886-70.76"/>
</g>
<path class="st7" d="M-231.126-71.221h-13.016 M-231.126-76.354h-13.016 M-231.126-81.486h-13.016"/>
<rect x="-247.69" y="-82.255" class="st5" width="1.77" height="1.77"/>
<rect x="-247.69" y="-77.239" class="st5" width="1.77" height="1.77"/>
<rect x="-247.69" y="-72.221" class="st5" width="1.77" height="1.77"/>
<rect x="90.832" y="-157.143" class="st2" width="245" height="57.75"/>
<text transform="matrix(1 0 0 1 165.5294 -130.9473)"><tspan x="0" y="0" class="st5" style="font-family:'Montserrat-Regular'; font-size:13px;">N</tspan><tspan x="10.478" y="0" class="st5" style="font-family:'Montserrat-Regular'; font-size:13px;">e</tspan><tspan x="18.135" y="0" class="st5" style="font-family:'Montserrat-Regular'; font-size:13px;">u</tspan><tspan x="26.753" y="0" class="st5" style="font-family:'Montserrat-Regular'; font-size:13px;">e </tspan><tspan x="38.011" y="0" class="st5" style="font-family:'Montserrat-Regular'; font-size:13px; letter-spacing:-1;">T</tspan><tspan x="44.381" y="0" class="st5" style="font-family:'Montserrat-Regular'; font-size:13px;">e</tspan><tspan x="51.882" y="0" class="st5" style="font-family:'Montserrat-Regular'; font-size:13px;">x</tspan><tspan x="59.097" y="0" class="st5" style="font-family:'Montserrat-Regular'; font-size:13px;">t</tspan><tspan x="64.128" y="0" class="st5" style="font-family:'Montserrat-Regular'; font-size:13px;">b</tspan><tspan x="72.942" y="0" class="st5" style="font-family:'Montserrat-Regular'; font-size:13px;">o</tspan><tspan x="80.742" y="0" class="st5" style="font-family:'Montserrat-Regular'; font-size:13px;">x </tspan></text>
<path class="st14" d="M213.332-109.184c3.707,0,6.713-3.005,6.713-6.712c0-3.708-3.006-6.713-6.713-6.713s-6.712,3.005-6.712,6.713
	C206.62-112.189,209.625-109.184,213.332-109.184z"/>
<rect x="90.832" y="-157.143" class="st9" width="245" height="57.75"/>
<line class="st15" x1="213.332" y1="-119.431" x2="213.332" y2="-112.362"/>
<line class="st15" x1="209.797" y1="-115.865" x2="216.865" y2="-115.865"/>
<path class="st14" d="M102.37-69.349c3.707,0,6.713-3.005,6.713-6.712c0-3.708-3.006-6.713-6.713-6.713
	c-3.707,0-6.712,3.005-6.712,6.713C95.658-72.354,98.663-69.349,102.37-69.349z"/>
<line class="st15" x1="102.37" y1="-79.595" x2="102.37" y2="-72.526"/>
<line class="st15" x1="98.836" y1="-76.03" x2="105.904" y2="-76.03"/>
<g>
	<path class="st16" d="M-393.522-54.214h-3.138v-1.85h8.544v1.85h-3.138v7.956h-2.269V-54.214z"/>
	<path class="st16" d="M-386.901-56.063h2.269v9.806h-2.269V-56.063z"/>
	<path class="st16" d="M-373.807-52.505c0,2.185-1.639,3.544-4.258,3.544h-1.975v2.703h-2.269v-9.806h4.244
		C-375.446-56.063-373.807-54.704-373.807-52.505z M-376.104-52.505c0-1.079-0.701-1.709-2.087-1.709h-1.849v3.403h1.849
		C-376.805-50.81-376.104-51.44-376.104-52.505z"/>
	<path class="st16" d="M-363.685-52.505c0,2.185-1.639,3.544-4.258,3.544h-1.975v2.703h-2.269v-9.806h4.244
		C-365.324-56.063-363.685-54.704-363.685-52.505z M-365.982-52.505c0-1.079-0.701-1.709-2.087-1.709h-1.849v3.403h1.849
		C-366.683-50.81-365.982-51.44-365.982-52.505z"/>
</g>
<path class="st16" d="M-430.149-60.534L-430.149-60.534c-1.054,2.474-1.96,4.602-2.889,6.784h5.729
	C-428.253-56.006-429.135-58.114-430.149-60.534 M-426.656-42.944L-426.656-42.944c-0.346-1.15-0.211-1.759,1.044-1.8
	c0.976-0.033,1.343-0.74,1.02-1.64c-0.507-1.414-1.072-2.81-1.681-4.183c-0.109-0.245-0.55-0.478-0.843-0.484
	c-2.129-0.041-4.261-0.046-6.39,0.005c-0.305,0.008-0.741,0.315-0.877,0.599c-0.558,1.155-1.057,2.342-1.512,3.542
	c-0.57,1.504-0.268,2.026,1.348,2.192c0.783,0.081,1.206,0.319,1.022,1.126c-0.056,0.243-0.355,0.61-0.547,0.613
	c-2.524,0.042-5.049,0.028-7.596,0.028c-0.214-0.956-0.321-1.631,0.868-1.885c0.569-0.122,1.219-0.609,1.515-1.117
	c0.755-1.293,1.377-2.67,1.972-4.049c2.401-5.559,4.761-11.135,7.172-16.689c0.173-0.398,0.634-0.67,0.96-1
	c0.319,0.343,0.766,0.632,0.937,1.037c2.56,6.048,5.079,12.114,7.622,18.17c0.326,0.776,0.705,1.534,1.106,2.275
	c0.507,0.939,1.332,1.389,2.379,1.595c0.265,0.052,0.519,0.638,0.586,1.013c0.032,0.175-0.39,0.621-0.611,0.624
	C-420.314-42.931-423.467-42.944-426.656-42.944"/>
<path class="st5" d="M-332.912-50.483c2.682-0.014,4.762-2.036,4.751-4.621c-0.01-2.367-2.203-4.406-4.733-4.399
	c-2.703,0.008-4.848,2.038-4.825,4.568C-337.696-52.471-335.536-50.47-332.912-50.483 M-327.357-50.47L-327.357-50.47
	c0.393-0.231,0.569-0.207,0.91,0.115c1.249,1.181,2.501,2.361,3.751,3.541c0.086,0.08,0.173,0.159,0.252,0.246
	c0.216,0.237,0.217,0.464-0.012,0.692c-0.249,0.248-0.509,0.488-0.767,0.727c-0.302,0.28-0.548,0.287-0.855,0
	c-1.177-1.103-2.348-2.211-3.522-3.318c-0.132-0.124-0.263-0.25-0.396-0.373c-0.368-0.34-0.394-0.487-0.153-0.896
	c-0.368-0.336-0.737-0.673-1.128-1.029c-1.472,1.07-3.153,1.471-5.011,1.06c-1.415-0.313-2.544-1.054-3.377-2.178
	c-1.65-2.23-1.286-5.335,0.823-7.11c2.222-1.87,5.521-1.904,7.68-0.117c2.217,1.835,2.765,5.106,0.696,7.583
	C-328.096-51.174-327.727-50.823-327.357-50.47"/>
<path class="st17" d="M-332.912-50.483c2.682-0.014,4.762-2.036,4.751-4.621c-0.01-2.367-2.203-4.406-4.733-4.399
	c-2.703,0.008-4.848,2.038-4.825,4.568C-337.696-52.471-335.536-50.47-332.912-50.483z M-327.357-50.47L-327.357-50.47
	c0.393-0.231,0.569-0.207,0.91,0.115c1.249,1.181,2.501,2.361,3.751,3.541c0.086,0.08,0.173,0.159,0.252,0.246
	c0.216,0.237,0.217,0.464-0.012,0.692c-0.249,0.248-0.509,0.488-0.767,0.727c-0.302,0.28-0.548,0.287-0.855,0
	c-1.177-1.103-2.348-2.211-3.522-3.318c-0.132-0.124-0.263-0.25-0.396-0.373c-0.368-0.34-0.394-0.487-0.153-0.896
	c-0.368-0.336-0.737-0.673-1.128-1.029c-1.472,1.07-3.153,1.471-5.011,1.06c-1.415-0.313-2.544-1.054-3.377-2.178
	c-1.65-2.23-1.286-5.335,0.823-7.11c2.222-1.87,5.521-1.904,7.68-0.117c2.217,1.835,2.765,5.106,0.696,7.583
	C-328.096-51.174-327.727-50.823-327.357-50.47z"/>
<path class="st5" d="M-269.197-60.063l2.966,2.98v-2.758c0-0.096-0.055-0.229-0.123-0.297l-3.807-3.826
	c-0.068-0.067-0.178-0.067-0.245,0l-3.93,3.949v2.758c0,0.096,0.055,0.119,0.122,0.051l2.844-2.857
	c0.068-0.068,0.122-0.046,0.122,0.05v7.829h0v2.168c0,0.096-0.055,0.118-0.123,0.05l-2.966-2.98v2.758
	c0,0.096,0.055,0.229,0.123,0.297l3.807,3.826c0.068,0.067,0.178,0.067,0.245,0l3.93-3.949v-2.758c0-0.096-0.055-0.119-0.122-0.051
	l-2.844,2.857c-0.068,0.068-0.122,0.046-0.122-0.05v-7.829h0v-2.168C-269.32-60.109-269.265-60.131-269.197-60.063z"/>
<line class="st18" x1="-305.336" y1="-46.827" x2="-277.503" y2="-46.827"/>
<line class="st18" x1="-305.336" y1="-55.123" x2="-277.503" y2="-55.123"/>
<line class="st18" x1="-305.336" y1="-63.115" x2="-277.503" y2="-63.115"/>
<line class="st18" x1="-290.994" y1="-27.855" x2="-290.994" y2="-6.855"/>
<path class="st5" d="M-283.534-14.012L-283.534-14.012h2.695l-2.603-2.569c-0.138-0.135-0.093-0.245,0.101-0.245h7.006v-1.407
	c0-0.193-0.157-0.35-0.35-0.35h-6.656c-0.194,0-0.239-0.11-0.101-0.246l2.603-2.569h-2.345c-0.193,0-0.462,0.111-0.599,0.246
	l-3.245,3.201c-0.137,0.136-0.137,0.356,0,0.492L-283.534-14.012z"/>
<path class="st5" d="M-299.305-21.224L-299.305-21.224H-302l2.603,2.569c0.138,0.135,0.093,0.245-0.101,0.245h-7.006v1.407
	c0,0.193,0.157,0.35,0.35,0.35h6.656c0.194,0,0.239,0.11,0.101,0.246L-302-13.838h2.345c0.193,0,0.462-0.111,0.599-0.246
	l3.245-3.201c0.137-0.136,0.137-0.356,0-0.492L-299.305-21.224z"/>
<line class="st19" x1="25.292" y1="-146.968" x2="-10.731" y2="-146.968"/>
<path class="st20" d="M16.789-143.822c2.045,0,3.703-1.658,3.703-3.703s-1.658-3.703-3.703-3.703s-3.703,1.658-3.703,3.703
	S14.744-143.822,16.789-143.822"/>
<g>
	<path class="st5" d="M39.988-146.767c0,3.12-1.82,4.836-4.459,4.836c-0.91,0-1.781-0.195-2.392-0.585l0.624-1.274
		c0.494,0.325,1.092,0.442,1.729,0.442c1.716,0,2.795-1.066,2.795-3.133v-0.014c-0.546,0.638-1.417,0.949-2.431,0.949
		c-1.794,0-3.133-1.092-3.133-2.795c0-1.807,1.469-2.951,3.328-2.951C38.532-151.292,39.988-149.692,39.988-146.767z
		 M38.025-148.431c0-0.858-0.676-1.534-1.885-1.534c-1.053,0-1.781,0.598-1.781,1.547s0.715,1.547,1.82,1.547
		C37.271-146.872,38.025-147.535,38.025-148.431z"/>
	<path class="st5" d="M47.853-144.856c0,1.599-1.157,2.925-3.602,2.925c-1.287,0-2.587-0.39-3.419-1.053l0.715-1.313
		c0.663,0.546,1.651,0.897,2.678,0.897c1.209,0,1.924-0.533,1.924-1.392c0-0.871-0.559-1.417-2.444-1.417h-2.197l0.468-4.953h5.343
		v1.417h-3.913l-0.195,2.106h0.871C46.774-147.638,47.853-146.468,47.853-144.856z"/>
	<path class="st5" d="M52.272-148.756c0-1.495,0.871-2.496,2.171-2.496s2.184,0.988,2.184,2.496s-0.884,2.496-2.184,2.496
		S52.272-147.261,52.272-148.756z M55.561-148.756c0-1.014-0.416-1.586-1.118-1.586c-0.676,0-1.118,0.585-1.118,1.586
		s0.442,1.586,1.118,1.586C55.145-147.17,55.561-147.743,55.561-148.756z M59.904-151.162h1.274l-6.214,9.101h-1.274L59.904-151.162
		z M58.24-144.466c0-1.495,0.871-2.496,2.171-2.496c1.3,0,2.184,1.001,2.184,2.496s-0.884,2.496-2.184,2.496
		C59.11-141.97,58.24-142.971,58.24-144.466z M61.529-144.466c0-1.001-0.429-1.586-1.118-1.586s-1.118,0.572-1.118,1.586
		c0,1.015,0.429,1.586,1.118,1.586S61.529-143.465,61.529-144.466z"/>
</g>
<rect x="3.229" y="-92.825" class="st11" width="13.149" height="16.764"/>
<polygon class="st21" points="3.229,-76.061 3.229,-76.061 16.378,-76.061 16.378,-92.825 3.229,-92.825 "/>
<rect x="-4.443" y="-93.296" class="st9" width="21.291" height="24"/>
<line class="st22" x1="0.054" y1="-85.13" x2="0.054" y2="-74.743"/>
<line class="st23" x1="2.686" y1="-72.854" x2="12.335" y2="-72.854"/>
<path class="st21" d="M13.211-72.854h0.877 M0.054-73.798v0.944h0.877 M0.054-87.963v0.944"/>
<polyline class="st21" points="-3.973,-84.875 -3.973,-69.767 10.061,-69.767 "/>
<rect x="-4.443" y="-93.296" class="st9" width="21.291" height="24"/>
<rect x="34.803" y="-92.894" class="st11" width="14.674" height="18.705"/>
<polygon class="st24" points="34.803,-74.189 34.803,-74.189 49.476,-74.189 49.476,-92.894 34.803,-92.894 "/>
<rect x="34.401" y="-93.296" class="st9" width="19.884" height="24"/>
<rect x="39.21" y="-88.403" class="st5" width="14.674" height="18.705"/>
<polygon class="st25" points="39.209,-69.698 39.209,-69.698 53.882,-69.698 53.882,-88.403 39.209,-88.403 "/>
<rect x="34.401" y="-93.296" class="st9" width="19.884" height="24"/>
<rect x="-64.09" y="-89.347" class="st10" width="34.924" height="19.551"/>
<text transform="matrix(1 0 0 1 -57.0896 -74.6958)"><tspan x="0" y="0" class="st11" style="font-family:'Montserrat-Regular'; font-size:13px;">e</tspan><tspan x="7.41" y="0" class="st11" style="font-family:'Montserrat-Regular'; font-size:13px;">i</tspan><tspan x="10.335" y="0" class="st11" style="font-family:'Montserrat-Regular'; font-size:13px;">n</tspan></text>
<polygon class="st6" points="-99.098,-89.472 -99.098,-69.472 -99.098,-69.222 -98.848,-69.222 -29.999,-69.222 -29.749,-69.222 
	-29.749,-69.472 -29.749,-89.472 -29.749,-89.722 -29.999,-89.722 -98.848,-89.722 -99.098,-89.722 "/>
<rect x="-99.348" y="-89.972" class="st9" width="70.183" height="21"/>
<line class="st26" x1="41.966" y1="0.167" x2="41.966" y2="24.427"/>
<path class="st5" d="M50.063,15.985L50.063,15.985h2.592l-2.494-2.46c-0.138-0.135-0.093-0.245,0.101-0.245h6.725v-1.339
	c0-0.193-0.157-0.35-0.35-0.35h-6.725l2.743-2.705h-2.242c-0.193,0-0.462,0.11-0.599,0.245l-3.102,3.059
	c-0.137,0.135-0.137,0.355,0,0.491L50.063,15.985z"/>
<line class="st26" x1="15.021" y1="24.26" x2="15.021" y2="0"/>
<path class="st5" d="M6.924,8.441L6.924,8.441H4.332l2.494,2.46c0.138,0.135,0.093,0.245-0.101,0.245H0v1.339
	c0,0.193,0.157,0.35,0.35,0.35h6.725l-2.743,2.705h2.242c0.193,0,0.462-0.11,0.599-0.245l3.102-3.059
	c0.137-0.135,0.137-0.355,0-0.491L6.924,8.441z"/>
<line class="st26" x1="-174.721" y1="8.038" x2="-150.461" y2="8.038"/>
<path class="st5" d="M-159.07-0.019L-159.07-0.019v-2.592l-2.46,2.494c-0.135,0.138-0.245,0.093-0.245-0.101v-6.725h-1.339
	c-0.193,0-0.35,0.157-0.35,0.35v6.725l-2.705-2.743v2.242c0,0.193,0.11,0.462,0.245,0.599l3.059,3.102
	c0.135,0.137,0.355,0.137,0.491,0L-159.07-0.019z"/>
<path class="st5" d="M-166.002,15.133L-166.002,15.133v2.592l2.46-2.494c0.135-0.138,0.245-0.093,0.245,0.101v6.725h1.339
	c0.193,0,0.35-0.157,0.35-0.35v-6.725l2.705,2.743v-2.242c0-0.193-0.11-0.462-0.245-0.599l-3.059-3.102
	c-0.135-0.137-0.355-0.137-0.491,0L-166.002,15.133z"/>
<line class="st26" x1="-118.275" y1="20.849" x2="-118.275" y2="-3.411"/>
<path class="st5" d="M-126.333,5.198L-126.333,5.198h-2.592l2.494,2.46c0.138,0.135,0.093,0.245-0.101,0.245h-6.725v1.339
	c0,0.193,0.157,0.35,0.35,0.35h6.725l-2.743,2.705h2.242c0.193,0,0.462-0.11,0.599-0.245l3.102-3.059
	c0.137-0.135,0.137-0.355,0-0.491L-126.333,5.198z"/>
<path class="st5" d="M-111.181,12.13L-111.181,12.13h2.592l-2.494-2.46c-0.138-0.135-0.093-0.245,0.101-0.245h6.725V8.086
	c0-0.193-0.157-0.35-0.35-0.35h-6.725l2.743-2.705h-2.242c-0.193,0-0.462,0.11-0.599,0.245l-3.102,3.059
	c-0.137,0.135-0.137,0.355,0,0.491L-111.181,12.13z"/>
<line class="st26" x1="-86.133" y1="8.322" x2="-61.873" y2="8.322"/>
<path class="st5" d="M-77.414,15.416L-77.414,15.416v2.592l2.46-2.494c0.135-0.138,0.245-0.093,0.245,0.101v6.725h1.339
	c0.193,0,0.35-0.157,0.35-0.35v-6.725l2.705,2.743v-2.242c0-0.193-0.11-0.462-0.245-0.599l-3.059-3.102
	c-0.135-0.137-0.355-0.137-0.491,0L-77.414,15.416z"/>
<line class="st26" x1="-41.022" y1="19.577" x2="-16.762" y2="19.577"/>
<path class="st5" d="M-25.204,11.188L-25.204,11.188V8.596l-2.46,2.494c-0.135,0.138-0.245,0.093-0.245-0.101V4.264h-1.339
	c-0.193,0-0.35,0.157-0.35,0.35v6.725l-2.705-2.743v2.242c0,0.193,0.11,0.462,0.245,0.599l3.059,3.102
	c0.135,0.137,0.355,0.137,0.491,0L-25.204,11.188z"/>
<rect x="104.841" y="-7.349" class="st11" width="15.769" height="20.056"/>
<line class="st27" x1="107.798" y1="12.707" x2="118.639" y2="12.707"/>
<line class="st28" x1="120.61" y1="9.699" x2="120.61" y2="-5.343"/>
<line class="st27" x1="117.654" y1="-7.349" x2="106.813" y2="-7.349"/>
<line class="st28" x1="104.841" y1="-4.341" x2="104.841" y2="10.701"/>
<path class="st21" d="M104.841,11.704v1.003h0.986 M105.827-7.349h-0.986v1.003 M120.61-6.346v-1.003h-0.985 M119.625,12.707h0.985
	v-1.003"/>
<polygon class="st11" points="93.605,22.707 93.605,22.707 109.374,22.707 109.374,2.651 93.605,2.651 "/>
<line class="st27" x1="96.562" y1="22.707" x2="107.403" y2="22.707"/>
<line class="st28" x1="109.374" y1="19.699" x2="109.374" y2="4.657"/>
<line class="st27" x1="106.418" y1="2.651" x2="95.577" y2="2.651"/>
<line class="st28" x1="93.605" y1="5.659" x2="93.605" y2="20.701"/>
<path class="st21" d="M93.605,21.704v1.003h0.986 M94.591,2.651h-0.986v1.003 M109.374,3.654V2.651h-0.985 M108.389,22.707h0.985
	v-1.003"/>
<polygon class="st11" points="84.131,30.707 84.131,30.707 99.9,30.707 99.9,10.651 84.131,10.651 "/>
<polygon class="st21" points="84.131,30.707 84.131,30.707 99.9,30.707 99.9,10.651 84.131,10.651 "/>
<g>
	<polygon class="st11" points="157.968,17.013 157.968,17.013 173.737,17.013 173.737,-3.043 157.968,-3.043 	"/>
	<polygon class="st21" points="157.968,17.013 157.968,17.013 173.737,17.013 173.737,-3.043 157.968,-3.043 	"/>
	<line class="st29" x1="154.204" y1="5.511" x2="154.204" y2="19.015"/>
	<line class="st30" x1="157.341" y1="20.816" x2="168.844" y2="20.816"/>
	<path class="st21" d="M169.889,20.816h1.046 M154.204,19.916v0.9h1.046 M154.204,2.811v0.9"/>
</g>
<g>
	<g>
		<rect x="230.508" y="-14.764" class="st11" width="15.769" height="20.056"/>
		<polygon class="st21" points="230.508,5.292 230.508,5.292 246.277,5.292 246.277,-14.764 230.508,-14.764 		"/>
		<polygon class="st11" points="219.271,15.292 219.271,15.292 235.04,15.292 235.04,-4.764 219.271,-4.764 		"/>
		<line class="st27" x1="222.228" y1="15.292" x2="233.069" y2="15.292"/>
		<line class="st28" x1="235.04" y1="12.284" x2="235.04" y2="-2.758"/>
		<line class="st27" x1="232.084" y1="-4.764" x2="221.243" y2="-4.764"/>
		<line class="st28" x1="219.271" y1="-1.755" x2="219.271" y2="13.287"/>
		<path class="st21" d="M219.271,14.289v1.003h0.986 M220.257-4.764h-0.986v1.003 M235.04-3.761v-1.003h-0.985 M234.055,15.292
			h0.985v-1.003"/>
		<polygon class="st11" points="209.798,23.292 209.798,23.292 225.567,23.292 225.567,3.236 209.798,3.236 		"/>
		<line class="st27" x1="212.755" y1="23.292" x2="223.596" y2="23.292"/>
		<line class="st28" x1="225.567" y1="20.284" x2="225.567" y2="5.242"/>
		<line class="st27" x1="222.61" y1="3.236" x2="211.769" y2="3.236"/>
		<line class="st28" x1="209.798" y1="6.245" x2="209.798" y2="21.287"/>
		<path class="st21" d="M209.797,22.289v1.003h0.986 M210.783,3.236h-0.986v1.003 M225.566,4.239V3.236h-0.985 M224.581,23.292
			h0.985v-1.003"/>
	</g>
	<line class="st27" x1="285.921" y1="18.778" x2="296.762" y2="18.778"/>
	<line class="st28" x1="298.733" y1="15.769" x2="298.733" y2="0.727"/>
	<line class="st27" x1="295.777" y1="-1.279" x2="284.936" y2="-1.279"/>
	<line class="st28" x1="282.964" y1="1.73" x2="282.964" y2="16.772"/>
	<path class="st21" d="M282.964,17.775v1.003h0.986 M283.95-1.278h-0.986v1.003 M298.733-0.275v-1.003h-0.985 M297.748,18.778h0.985
		v-1.003"/>
	<polyline class="st21" points="279.2,4.576 279.2,22.581 295.931,22.581 	"/>
</g>
<g>
	<defs>
		<rect id="SVGID_1_" x="-476.074" y="112.614" width="241.682" height="1"/>
	</defs>
	<clipPath id="SVGID_00000155865509376423848850000004819376653668612273_">
		<use xlink:href="#SVGID_1_"  style="overflow:visible;"/>
	</clipPath>
	
		<line style="clip-path:url(#SVGID_00000155865509376423848850000004819376653668612273_);fill:none;stroke:#B2B2B2;stroke-linecap:round;stroke-linejoin:round;stroke-dasharray:0,3.009;" x1="-472.566" y1="113.114" x2="-236.396" y2="113.114"/>
	
		<path style="clip-path:url(#SVGID_00000155865509376423848850000004819376653668612273_);fill:none;stroke:#B2B2B2;stroke-linecap:round;stroke-linejoin:round;" d="
		M-234.892,113.114L-234.892,113.114 M-475.574,113.114L-475.574,113.114"/>
</g>
<circle class="st33" cx="-429.176" cy="-108.098" r="12.75"/>
<polygon class="st3" points="-285.783,-123.121 -298.783,-123.121 -292.415,-112.646 "/>
<polygon class="st5" points="-277.76,5.421 -288.235,11.789 -277.76,18.421 "/>
<polygon class="st5" points="-306.807,18.421 -296.332,12.053 -306.807,5.421 "/>
<polygon class="st5" points="-224.254,5.421 -234.729,11.789 -224.254,18.421 "/>
<polygon class="st5" points="-259.431,18.421 -248.956,12.053 -259.431,5.421 "/>
<rect x="-99.181" y="-123.11" class="st10" width="34.924" height="19.551"/>
<polygon class="st6" points="-98.931,-123.235 -98.931,-103.235 -98.931,-102.985 -98.681,-102.985 -29.832,-102.985 
	-29.582,-102.985 -29.582,-103.235 -29.582,-123.235 -29.582,-123.485 -29.832,-123.485 -98.681,-123.485 -98.931,-123.485 "/>
<rect x="-99.181" y="-123.735" class="st9" width="69.849" height="21"/>
<rect x="-63.817" y="-57.082" class="st10" width="34.924" height="19.551"/>
<polygon class="st6" points="-98.825,-57.207 -98.825,-37.207 -98.825,-36.957 -98.575,-36.957 -29.726,-36.957 -29.476,-36.957 
	-29.476,-37.207 -29.476,-57.207 -29.476,-57.457 -29.726,-57.457 -98.575,-57.457 -98.825,-57.457 "/>
<rect x="-99.075" y="-57.707" class="st9" width="70.183" height="21"/>
<line class="st19" x1="24.214" y1="-127.181" x2="-11.809" y2="-127.181"/>
<path class="st20" d="M15.711-124.035c2.045,0,3.703-1.658,3.703-3.703s-1.658-3.703-3.703-3.703s-3.703,1.658-3.703,3.703
	S13.666-124.035,15.711-124.035"/>
<line class="st19" x1="332.538" y1="-96.401" x2="296.515" y2="-96.401"/>
<path class="st20" d="M324.035-93.255c2.045,0,3.703-1.658,3.703-3.703c0-2.045-1.658-3.703-3.703-3.703
	c-2.045,0-3.703,1.658-3.703,3.703C320.332-94.913,321.99-93.255,324.035-93.255"/>
</svg>
