<?xml version="1.0" encoding="utf-8"?>
<!-- Generator: Adobe Illustrator 26.0.3, SVG Export Plug-In . SVG Version: 6.00 Build 0)  -->
<svg version="1.1" id="Ebene_1" xmlns="http://www.w3.org/2000/svg" xmlns:xlink="http://www.w3.org/1999/xlink" x="0px" y="0px"
	 width="29.047px" height="13px" viewBox="0 0 29.047 13" style="enable-background:new 0 0 29.047 13;" xml:space="preserve">
<style type="text/css">
	.st0{fill:none;stroke:#C5C5C5;stroke-width:3;stroke-linecap:round;stroke-linejoin:round;}
	.st1{fill:#FFAEFF;stroke:#4F4D4D;stroke-width:0.5;}
	.st2{fill:#F8F8F8;}
	.st3{fill:#0E689A;}
	.st4{fill:none;stroke:#B2B1B1;stroke-width:0.65;stroke-miterlimit:10;}
	.st5{fill:#B2B1B1;}
	.st6{fill:none;stroke:#B2B2B2;stroke-width:0.5;stroke-miterlimit:10;}
	.st7{fill:none;stroke:#B2B1B1;stroke-width:0.3;stroke-miterlimit:10;}
	.st8{fill:none;stroke:#FFFFFF;stroke-width:0.021;}
	.st9{fill:none;}
	.st10{fill:#0E6899;}
	.st11{fill:#FFFFFF;}
	.st12{fill:none;stroke:#C5C5C5;stroke-width:0.5;stroke-linecap:round;stroke-linejoin:round;}
	.st13{fill:#C5C5C5;}
	.st14{fill:none;stroke:#B2B1B1;stroke-width:0.5;}
	.st15{fill:none;stroke:#B2B1B1;stroke-width:1.2;}
	.st16{fill:#B2B2B2;}
	.st17{fill:none;stroke:#FFFFFF;stroke-width:0.001;}
	.st18{fill:none;stroke:#B2B1B1;stroke-width:1.712;}
	.st19{fill:none;stroke:#B2B1B1;stroke-width:2;}
	.st20{fill:#AD5E7A;}
	.st21{fill:none;stroke:#B2B1B1;stroke-width:0.941;}
	.st22{fill:none;stroke:#B2B1B1;stroke-width:0.941;stroke-dasharray:1.889,1.889;}
	.st23{fill:none;stroke:#B2B1B1;stroke-width:0.941;stroke-dasharray:1.754,1.754;}
	.st24{fill:none;stroke:#B2B1B1;stroke-width:0.804;}
	.st25{fill:none;stroke:#FFFFFF;stroke-width:0.804;}
	.st26{fill:none;stroke:#B2B1B1;stroke-width:2.5;}
	.st27{fill:none;stroke:#B2B1B1;stroke-width:0.941;stroke-dasharray:1.971,1.971;}
	.st28{fill:none;stroke:#B2B1B1;stroke-width:0.941;stroke-dasharray:2.006,2.006;}
	.st29{fill:none;stroke:#B2B1B1;stroke-width:0.941;stroke-dasharray:1.801,1.801;}
	.st30{fill:none;stroke:#B2B1B1;stroke-width:0.941;stroke-dasharray:2.091,2.091;}
	
		.st31{clip-path:url(#SVGID_00000168104533914357938840000011352849576361756062_);fill:none;stroke:#B2B2B2;stroke-linecap:round;stroke-linejoin:round;stroke-dasharray:0,3.009;}
	
		.st32{clip-path:url(#SVGID_00000168104533914357938840000011352849576361756062_);fill:none;stroke:#B2B2B2;stroke-linecap:round;stroke-linejoin:round;}
	.st33{fill:none;stroke:#4F4D4D;stroke-width:0.5;}
</style>
<polyline class="st0" points="1869.524,813.138 1863.274,804.138 1856.524,813.138 "/>
<circle class="st1" cx="-122.369" cy="-149.611" r="12.75"/>
<rect x="-89.909" y="-160.626" class="st2" width="119.902" height="21"/>
<polygon class="st3" points="20.92,-155.363 7.92,-155.363 14.288,-144.888 "/>
<g>
	<g>
		<line class="st4" x1="133.933" y1="-143.105" x2="144.216" y2="-143.105"/>
		<g>
			<path class="st5" d="M135.22-148.331v-5.175h1.3v5.122c0,2.016,0.923,2.926,2.561,2.926c1.638,0,2.574-0.91,2.574-2.926v-5.122
				h1.261v5.175c0,2.639-1.443,4.029-3.848,4.029C136.676-144.302,135.22-145.692,135.22-148.331z"/>
		</g>
	</g>
	<polygon class="st6" points="125.824,-161.306 125.824,-135.306 125.824,-135.056 126.074,-135.056 152.074,-135.056 
		152.324,-135.056 152.324,-135.306 152.324,-161.306 152.324,-161.556 152.074,-161.556 126.074,-161.556 125.824,-161.556 	"/>
</g>
<g>
	<g>
		<path class="st5" d="M104.47-153.232h1.3l-1.82,9.101h-1.3L104.47-153.232z"/>
	</g>
	<polygon class="st6" points="90.96,-161.682 90.96,-135.682 90.96,-135.432 91.21,-135.432 117.21,-135.432 117.46,-135.432 
		117.46,-135.682 117.46,-161.682 117.46,-161.932 117.21,-161.932 91.21,-161.932 90.96,-161.932 	"/>
</g>
<g>
	<g>
		<path class="st5" d="M71.322-146.563c0,1.573-1.248,2.483-3.64,2.483h-4.706v-9.101h4.446c2.275,0,3.445,0.949,3.445,2.366
			c0,0.91-0.468,1.612-1.209,2.002C70.672-148.487,71.322-147.707,71.322-146.563z M65.069-151.594v2.146h2.093
			c1.027,0,1.586-0.364,1.586-1.079s-0.559-1.066-1.586-1.066H65.069z M69.203-146.784c0-0.767-0.585-1.131-1.677-1.131h-2.457
			v2.249h2.457C68.618-145.666,69.203-146.004,69.203-146.784z"/>
	</g>
	<polygon class="st6" points="53.899,-161.63 53.899,-135.63 53.899,-135.38 54.149,-135.38 80.149,-135.38 80.399,-135.38 
		80.399,-135.63 80.399,-161.63 80.399,-161.88 80.149,-161.88 54.149,-161.88 53.899,-161.88 	"/>
</g>
<path class="st7" d="M108.087-119.676"/>
<path class="st7" d="M105.579-118.423"/>
<path class="st7" d="M105.579-117.169"/>
<path class="st7" d="M105.579-115.914"/>
<path class="st7" d="M108.087-114.66"/>
<path class="st7" d="M108.087-113.406"/>
<path class="st7" d="M105.579-112.153"/>
<path class="st7" d="M105.579-109.645"/>
<path class="st7" d="M108.087-107.137"/>
<g>
	<path class="st7" d="M88.623-114.66"/>
	<path class="st7" d="M88.623-119.676"/>
	<path class="st7" d="M88.623-107.137"/>
	<path class="st7" d="M88.623-113.406"/>
	<g>
		<path class="st7" d="M90.685-112.153"/>
		<path class="st7" d="M90.685-115.914"/>
		<path class="st7" d="M90.685-117.169"/>
		<path class="st7" d="M90.685-118.423"/>
		<line class="st7" x1="88.247" y1="-107.932" x2="107.711" y2="-107.932"/>
		<line class="st7" x1="88.247" y1="-109.207" x2="103.141" y2="-109.207"/>
		<line class="st7" x1="88.247" y1="-110.483" x2="103.141" y2="-110.483"/>
		<line class="st7" x1="88.247" y1="-111.759" x2="103.141" y2="-111.759"/>
		<line class="st7" x1="88.247" y1="-113.035" x2="107.711" y2="-113.035"/>
		<line class="st7" x1="88.247" y1="-114.311" x2="107.711" y2="-114.311"/>
		<line class="st7" x1="88.32" y1="-115.587" x2="103.214" y2="-115.587"/>
		<line class="st7" x1="88.247" y1="-116.863" x2="107.711" y2="-116.863"/>
		<line class="st7" x1="88.247" y1="-118.139" x2="103.141" y2="-118.139"/>
		<line class="st7" x1="88.247" y1="-119.415" x2="103.141" y2="-119.415"/>
		<line class="st7" x1="88.247" y1="-120.691" x2="107.711" y2="-120.691"/>
	</g>
	<polygon class="st6" points="84.92,-126.986 84.92,-100.993 84.92,-100.743 85.17,-100.743 111.163,-100.743 111.413,-100.743 
		111.413,-100.993 111.413,-126.986 111.413,-127.236 111.163,-127.236 85.17,-127.236 84.92,-127.236 	"/>
</g>
<g>
	<g>
		<line class="st7" x1="138.967" y1="-120.374" x2="119.503" y2="-120.374"/>
		<line class="st7" x1="136.459" y1="-119.097" x2="121.565" y2="-119.097"/>
		<line class="st7" x1="136.459" y1="-117.82" x2="121.565" y2="-117.82"/>
		<line class="st7" x1="136.459" y1="-116.543" x2="121.565" y2="-116.543"/>
		<line class="st7" x1="138.967" y1="-115.266" x2="119.503" y2="-115.266"/>
		<line class="st7" x1="138.967" y1="-113.989" x2="119.503" y2="-113.989"/>
		<line class="st7" x1="136.459" y1="-112.712" x2="121.565" y2="-112.712"/>
		<line class="st7" x1="138.967" y1="-111.435" x2="119.503" y2="-111.435"/>
		<line class="st7" x1="136.459" y1="-110.158" x2="121.565" y2="-110.158"/>
		<line class="st7" x1="136.459" y1="-108.881" x2="121.565" y2="-108.881"/>
		<line class="st7" x1="138.967" y1="-107.604" x2="119.503" y2="-107.604"/>
	</g>
	<polygon class="st6" points="115.989,-126.986 115.989,-100.993 115.989,-100.743 116.239,-100.743 142.232,-100.743 
		142.482,-100.743 142.482,-100.993 142.482,-126.986 142.482,-127.236 142.232,-127.236 116.239,-127.236 115.989,-127.236 	"/>
</g>
<polygon class="st6" points="147.057,-126.986 147.057,-100.993 147.057,-100.743 147.307,-100.743 173.3,-100.743 173.55,-100.743 
	173.55,-100.993 173.55,-126.986 173.55,-127.236 173.3,-127.236 147.307,-127.236 147.057,-127.236 "/>
<path class="st7" d="M150.384-108.301"/>
<path class="st7" d="M150.384-113.318"/>
<path class="st7" d="M150.384-114.571"/>
<path class="st7" d="M150.384-120.841"/>
<path class="st7" d="M167.786-115.825"/>
<path class="st7" d="M169.849-113.318"/>
<path class="st7" d="M167.786-112.064"/>
<path class="st7" d="M169.849-108.301"/>
<path class="st7" d="M169.849-120.841"/>
<path class="st7" d="M169.849-114.571"/>
<path class="st7" d="M167.786-110.809"/>
<path class="st7" d="M167.786-109.555"/>
<g>
	<path class="st7" d="M152.704-109.878"/>
	<path class="st7" d="M152.704-111.132"/>
	<path class="st7" d="M152.704-112.386"/>
	<path class="st7" d="M152.704-116.148"/>
	<path class="st7" d="M152.704-118.656"/>
	<line class="st7" x1="170.036" y1="-120.368" x2="150.572" y2="-120.368"/>
	<line class="st7" x1="170.036" y1="-119.093" x2="155.142" y2="-119.093"/>
	<line class="st7" x1="170.036" y1="-117.817" x2="155.142" y2="-117.817"/>
	<line class="st7" x1="170.036" y1="-116.541" x2="155.142" y2="-116.541"/>
	<line class="st7" x1="170.036" y1="-115.265" x2="150.572" y2="-115.265"/>
	<line class="st7" x1="170.036" y1="-113.989" x2="150.572" y2="-113.989"/>
	<line class="st7" x1="169.963" y1="-112.713" x2="155.069" y2="-112.713"/>
	<line class="st7" x1="170.036" y1="-111.437" x2="150.572" y2="-111.437"/>
	<line class="st7" x1="170.036" y1="-110.161" x2="155.142" y2="-110.161"/>
	<line class="st7" x1="170.036" y1="-108.885" x2="155.142" y2="-108.885"/>
	<line class="st7" x1="170.036" y1="-107.61" x2="150.572" y2="-107.61"/>
</g>
<polygon class="st6" points="54.149,-126.979 54.149,-100.986 54.149,-100.736 54.399,-100.736 80.392,-100.736 80.642,-100.736 
	80.642,-100.986 80.642,-126.979 80.642,-127.229 80.392,-127.229 54.399,-127.229 54.149,-127.229 "/>
<path class="st7" d="M77.316-119.676"/>
<path class="st7" d="M77.316-114.66"/>
<path class="st7" d="M77.316-113.406"/>
<path class="st7" d="M77.316-107.137"/>
<path class="st7" d="M59.914-112.153"/>
<path class="st7" d="M57.851-114.66"/>
<path class="st7" d="M59.914-115.914"/>
<path class="st7" d="M57.851-119.676"/>
<path class="st7" d="M57.851-107.137"/>
<path class="st7" d="M57.851-113.406"/>
<path class="st7" d="M59.914-117.169"/>
<path class="st7" d="M59.914-118.423"/>
<g>
	<path class="st7" d="M74.808-118.423"/>
	<path class="st7" d="M74.808-117.169"/>
	<path class="st7" d="M74.808-115.914"/>
	<path class="st7" d="M74.808-112.153"/>
	<path class="st7" d="M74.808-109.645"/>
	<line class="st7" x1="57.476" y1="-107.932" x2="76.94" y2="-107.932"/>
	<line class="st7" x1="57.476" y1="-109.207" x2="76.94" y2="-109.207"/>
	<line class="st7" x1="57.476" y1="-110.483" x2="76.94" y2="-110.483"/>
	<line class="st7" x1="57.476" y1="-111.759" x2="76.94" y2="-111.759"/>
	<line class="st7" x1="57.476" y1="-113.035" x2="76.94" y2="-113.035"/>
	<line class="st7" x1="57.476" y1="-114.311" x2="76.94" y2="-114.311"/>
	<line class="st7" x1="57.549" y1="-115.587" x2="77.013" y2="-115.587"/>
	<line class="st7" x1="57.476" y1="-116.863" x2="76.94" y2="-116.863"/>
	<line class="st7" x1="57.476" y1="-118.139" x2="76.94" y2="-118.139"/>
	<line class="st7" x1="57.476" y1="-119.415" x2="76.94" y2="-119.415"/>
	<line class="st7" x1="57.476" y1="-120.691" x2="76.94" y2="-120.691"/>
</g>
<path class="st5" d="M-115.408-11.83l-1.915,13.335c-0.058,0.402-0.431,0.682-0.834,0.624c-0.402-0.058-0.682-0.431-0.624-0.833
	l1.915-13.336c0.058-0.402,0.431-0.681,0.834-0.623C-115.63-12.605-115.35-12.233-115.408-11.83 M-122.225,2.245
	c-0.407,0.003-0.74-0.324-0.742-0.73l-0.106-13.472c-0.003-0.407,0.324-0.739,0.73-0.742c0.408-0.003,0.74,0.324,0.743,0.731
	l0.105,13.471C-121.492,1.91-121.819,2.242-122.225,2.245 M-126.296,2.192c-0.401,0.064-0.779-0.209-0.842-0.61l-2.124-13.304
	c-0.064-0.402,0.209-0.779,0.612-0.843c0.401-0.064,0.778,0.209,0.842,0.611l2.123,13.303
	C-125.621,1.751-125.894,2.128-126.296,2.192 M-112.513-14.216c-0.141-0.169-0.353-0.266-0.573-0.264l-18.538,0.144
	c-0.22,0.002-0.429,0.101-0.568,0.272c-0.14,0.17-0.196,0.393-0.155,0.609l3.092,16.141c0.068,0.351,0.376,0.605,0.734,0.602
	l12.497-0.098c0.356-0.002,0.66-0.258,0.724-0.608l2.949-16.188C-112.311-13.822-112.372-14.047-112.513-14.216"/>
<path class="st8" d="M-115.408-11.83l-1.915,13.335c-0.058,0.402-0.431,0.682-0.834,0.624c-0.402-0.058-0.682-0.431-0.624-0.833
	l1.915-13.336c0.058-0.402,0.431-0.681,0.834-0.623C-115.63-12.605-115.35-12.233-115.408-11.83z M-122.225,2.245
	c-0.407,0.003-0.74-0.324-0.742-0.73l-0.106-13.472c-0.003-0.407,0.324-0.739,0.73-0.742c0.408-0.003,0.74,0.324,0.743,0.731
	l0.105,13.471C-121.492,1.91-121.819,2.242-122.225,2.245z M-126.296,2.192c-0.401,0.064-0.779-0.209-0.842-0.61l-2.124-13.304
	c-0.064-0.402,0.209-0.779,0.612-0.843c0.401-0.064,0.778,0.209,0.842,0.611l2.123,13.303
	C-125.621,1.751-125.894,2.128-126.296,2.192z M-112.513-14.216c-0.141-0.169-0.353-0.266-0.573-0.264l-18.538,0.144
	c-0.22,0.002-0.429,0.101-0.568,0.272c-0.14,0.17-0.196,0.393-0.155,0.609l3.092,16.141c0.068,0.351,0.376,0.605,0.734,0.602
	l12.497-0.098c0.356-0.002,0.66-0.258,0.724-0.608l2.949-16.188C-112.311-13.822-112.372-14.047-112.513-14.216z"/>
<path class="st5" d="M-125.2-18.824L-125.2-18.824l-0.004-0.421l5.49-0.043l0.004,0.421L-125.2-18.824z M-111.463-17.414
	L-111.463-17.414l-2.025,0.016l-0.009-1.171c-0.001-0.091-0.038-0.18-0.103-0.244c-0.065-0.064-0.155-0.1-0.246-0.1l-4.467,0.035
	l-0.009-1.12c-0.002-0.184-0.077-0.363-0.209-0.492c-0.131-0.13-0.311-0.203-0.495-0.201l-6.887,0.054
	c-0.183,0.001-0.363,0.077-0.492,0.208c-0.129,0.131-0.202,0.312-0.2,0.496l0.009,1.12l-4.164,0.032
	c-0.091,0.001-0.18,0.039-0.243,0.104c-0.065,0.065-0.101,0.154-0.101,0.246l0.009,1.171l-2.197,0.017l0.017,2.225l21.829-0.17
	L-111.463-17.414z"/>
<path class="st8" d="M-125.2-18.824L-125.2-18.824l-0.004-0.421l5.49-0.043l0.004,0.421L-125.2-18.824z M-111.463-17.414
	L-111.463-17.414l-2.025,0.016l-0.009-1.171c-0.001-0.091-0.038-0.18-0.103-0.244c-0.065-0.064-0.155-0.1-0.246-0.1l-4.467,0.035
	l-0.009-1.12c-0.002-0.184-0.077-0.363-0.209-0.492c-0.131-0.13-0.311-0.203-0.495-0.201l-6.887,0.054
	c-0.183,0.001-0.363,0.077-0.492,0.208c-0.129,0.131-0.202,0.312-0.2,0.496l0.009,1.12l-4.164,0.032
	c-0.091,0.001-0.18,0.039-0.243,0.104c-0.065,0.065-0.101,0.154-0.101,0.246l0.009,1.171l-2.197,0.017l0.017,2.225l21.829-0.17
	L-111.463-17.414z"/>
<rect x="-133.303" y="-20.702" class="st9" width="21.868" height="24"/>
<rect x="207.626" y="-161.469" class="st10" width="34.924" height="19.551"/>
<g>
	<path class="st11" d="M220.603-151.056v4.238h-0.884v-1.066c-0.416,0.702-1.222,1.132-2.354,1.132
		c-1.547,0-2.496-0.807-2.496-1.989c0-1.054,0.676-1.938,2.639-1.938h2.171v-0.416c0-1.17-0.663-1.807-1.938-1.807
		c-0.884,0-1.716,0.312-2.275,0.806l-0.416-0.688c0.689-0.585,1.703-0.924,2.782-0.924
		C219.602-153.709,220.603-152.824,220.603-151.056z M219.68-148.872v-1.118h-2.146c-1.326,0-1.755,0.52-1.755,1.222
		c0,0.793,0.637,1.287,1.729,1.287C218.549-147.481,219.316-147.975,219.68-148.872z"/>
	<path class="st11" d="M228.702-153.656v6.838h-0.884v-1.248c-0.481,0.832-1.365,1.313-2.458,1.313
		c-1.742,0-2.886-0.976-2.886-2.938v-3.965h0.923v3.874c0,1.456,0.754,2.197,2.054,2.197c1.43,0,2.327-0.924,2.327-2.483v-3.588
		H228.702z"/>
	<path class="st11" d="M230.002-147.598l0.416-0.728c0.546,0.429,1.469,0.767,2.431,0.767c1.3,0,1.833-0.441,1.833-1.118
		c0-1.78-4.433-0.377-4.433-3.081c0-1.118,0.962-1.95,2.704-1.95c0.884,0,1.846,0.247,2.418,0.638l-0.403,0.74
		c-0.598-0.416-1.313-0.585-2.015-0.585c-1.235,0-1.781,0.481-1.781,1.132c0,1.846,4.434,0.455,4.434,3.081
		c0,1.183-1.04,1.95-2.821,1.95C231.653-146.753,230.561-147.117,230.002-147.598z"/>
</g>
<polygon class="st6" points="207.876,-161.594 207.876,-141.594 207.876,-141.344 208.126,-141.344 276.975,-141.344 
	277.225,-141.344 277.225,-141.594 277.225,-161.594 277.225,-161.844 276.975,-161.844 208.126,-161.844 207.876,-161.844 "/>
<rect x="207.626" y="-162.094" class="st9" width="69.849" height="21"/>
<rect x="-196.771" y="45.236" class="st11" width="1014" height="21"/>
<path class="st3" d="M430.39,45.236c-2.209,0-4,1.791-4,4v12.382c0,2.209,1.791,4,4,4h77.131c2.209,0,4-1.791,4-4V49.236
	c0-2.209-1.791-4-4-4H430.39z"/>
<rect x="-196.521" y="45.486" class="st12" width="1013.5" height="20.5"/>
<path class="st13" d="M801.085,48.096v1.481c0,0.397,0.187,0.771,0.505,1.009l6.367,4.762c0.258,0.194,0.258,0.583,0,0.776
	l-6.367,4.762c-0.318,0.238-0.505,0.612-0.505,1.01v1.48c0,0.41,0.467,0.644,0.795,0.399l10.111-7.563
	c0.318-0.237,0.318-0.714,0-0.952l-10.11-7.562C801.552,47.452,801.085,47.687,801.085,48.096"/>
<path class="st13" d="M-180.918,63.376v-1.481c0-0.397-0.187-0.771-0.505-1.009l-6.367-4.762c-0.258-0.194-0.258-0.583,0-0.776
	l6.367-4.762c0.318-0.238,0.505-0.612,0.505-1.01v-1.48c0-0.41-0.467-0.644-0.795-0.399l-10.111,7.563
	c-0.318,0.237-0.318,0.714,0,0.952l10.11,7.562C-181.385,64.02-180.918,63.785-180.918,63.376"/>
<rect x="-196.771" y="45.236" class="st9" width="1014" height="21"/>
<rect x="859.001" y="-199.31" class="st11" width="21" height="702.123"/>
<path class="st3" d="M859.001,214.652c0,2.209,1.791,4,4,4h12.382c2.209,0,4-1.791,4-4v-78.286c0-2.209-1.791-4-4-4h-12.382
	c-2.209,0-4,1.791-4,4V214.652z"/>
<rect x="859.251" y="-199.061" class="st12" width="20.5" height="701.624"/>
<path class="st13" d="M861.861-185.775h1.481c0.397,0,0.771-0.19,1.009-0.512l4.762-6.453c0.194-0.262,0.583-0.262,0.776,0
	l4.762,6.453c0.238,0.322,0.612,0.512,1.01,0.512h1.48c0.41,0,0.644-0.474,0.399-0.806l-7.563-10.248
	c-0.237-0.322-0.714-0.322-0.952,0l-7.562,10.248C861.217-186.249,861.452-185.775,861.861-185.775"/>
<path class="st13" d="M877.141,488.477h-1.481c-0.397,0-0.771,0.19-1.009,0.512l-4.762,6.453c-0.194,0.262-0.583,0.262-0.776,0
	l-4.762-6.453c-0.238-0.322-0.612-0.512-1.01-0.512h-1.48c-0.41,0-0.644,0.474-0.399,0.806l7.563,10.248
	c0.237,0.322,0.714,0.322,0.952,0l7.562-10.248C877.785,488.951,877.55,488.477,877.141,488.477"/>
<rect x="859.001" y="-199.311" class="st9" width="21" height="702.124"/>
<g>
	<g>
		<line class="st7" x1="138.027" y1="-76.331" x2="125.01" y2="-76.331"/>
		<line class="st7" x1="138.027" y1="-86.507" x2="125.01" y2="-86.507"/>
		<line class="st7" x1="138.027" y1="-81.419" x2="125.01" y2="-81.419"/>
		<g>
			<path class="st5" d="M121.368-87.977v2.104h-0.487v-1.714h-0.421v-0.391H121.368z"/>
		</g>
		<g>
			<path class="st5" d="M122.129-81.009v0.396h-1.59v-0.315l0.812-0.767c0.187-0.178,0.22-0.286,0.22-0.388
				c0-0.165-0.114-0.262-0.337-0.262c-0.18,0-0.333,0.069-0.436,0.21l-0.355-0.228c0.163-0.238,0.457-0.392,0.836-0.392
				c0.469,0,0.781,0.241,0.781,0.623c0,0.204-0.057,0.391-0.352,0.664l-0.484,0.457H122.129z"/>
		</g>
		<g>
			<path class="st5" d="M122.111-76.251c0,0.354-0.273,0.68-0.872,0.68c-0.295,0-0.599-0.081-0.803-0.226l0.189-0.373
				c0.159,0.121,0.382,0.189,0.601,0.189c0.244,0,0.394-0.099,0.394-0.271c0-0.159-0.117-0.258-0.394-0.258h-0.223v-0.322
				l0.433-0.49h-0.896v-0.391h1.473v0.316l-0.475,0.541C121.918-76.795,122.111-76.56,122.111-76.251z"/>
		</g>
	</g>
	<polygon class="st6" points="115.982,-94.774 115.982,-68.774 115.982,-68.524 116.232,-68.524 142.232,-68.524 142.482,-68.524 
		142.482,-68.774 142.482,-94.774 142.482,-95.024 142.232,-95.024 116.232,-95.024 115.982,-95.024 	"/>
</g>
<polygon class="st6" points="54.149,-94.774 54.149,-68.774 54.149,-68.524 54.399,-68.524 80.399,-68.524 80.649,-68.524 
	80.649,-68.774 80.649,-94.774 80.649,-95.024 80.399,-95.024 54.399,-95.024 54.149,-95.024 "/>
<g>
	<polygon class="st6" points="84.491,-94.774 84.491,-68.774 84.491,-68.524 84.741,-68.524 110.741,-68.524 110.991,-68.524 
		110.991,-68.774 110.991,-94.774 110.991,-95.024 110.741,-95.024 84.741,-95.024 84.491,-95.024 	"/>
	<path class="st7" d="M106.023-76.649H93.007 M106.023-81.782H93.007 M106.023-86.914H93.007"/>
	<path class="st5" d="M90.92-81.197c0.161-0.156,0.241-0.349,0.241-0.581c0-0.15-0.037-0.288-0.11-0.414
		c-0.073-0.125-0.172-0.224-0.297-0.297c-0.126-0.073-0.264-0.11-0.415-0.11c-0.15,0-0.288,0.037-0.41,0.11
		s-0.221,0.172-0.294,0.297c-0.072,0.126-0.11,0.264-0.11,0.414c0,0.232,0.08,0.425,0.238,0.581c0.157,0.156,0.35,0.234,0.576,0.234
		C90.566-80.963,90.759-81.041,90.92-81.197"/>
	<path class="st5" d="M90.344-85.832c0.489,0,0.885-0.396,0.885-0.885c0-0.488-0.396-0.885-0.885-0.885
		c-0.488,0-0.885,0.397-0.885,0.885C89.459-86.228,89.856-85.832,90.344-85.832"/>
	<path class="st5" d="M90.92-76.18c0.161-0.156,0.241-0.349,0.241-0.581c0-0.15-0.037-0.288-0.11-0.414
		c-0.073-0.125-0.172-0.224-0.297-0.297c-0.126-0.073-0.264-0.11-0.415-0.11c-0.15,0-0.288,0.037-0.41,0.11
		s-0.221,0.172-0.294,0.297c-0.072,0.126-0.11,0.264-0.11,0.414c0,0.232,0.08,0.425,0.238,0.581c0.157,0.156,0.35,0.234,0.576,0.234
		C90.566-75.946,90.759-76.024,90.92-76.18"/>
</g>
<path class="st7" d="M75.681-76.642H62.665 M75.681-81.775H62.665 M75.681-86.907H62.665"/>
<rect x="59.117" y="-87.676" class="st5" width="1.77" height="1.77"/>
<rect x="59.117" y="-82.66" class="st5" width="1.77" height="1.77"/>
<rect x="59.117" y="-77.642" class="st5" width="1.77" height="1.77"/>
<rect x="397.639" y="-162.563" class="st2" width="245" height="57.75"/>
<text transform="matrix(1 0 0 1 472.3364 -136.3679)"><tspan x="0" y="0" class="st5" style="font-family:'Montserrat-Regular'; font-size:13px;">N</tspan><tspan x="10.478" y="0" class="st5" style="font-family:'Montserrat-Regular'; font-size:13px;">e</tspan><tspan x="18.135" y="0" class="st5" style="font-family:'Montserrat-Regular'; font-size:13px;">u</tspan><tspan x="26.753" y="0" class="st5" style="font-family:'Montserrat-Regular'; font-size:13px;">e </tspan><tspan x="38.011" y="0" class="st5" style="font-family:'Montserrat-Regular'; font-size:13px; letter-spacing:-1;">T</tspan><tspan x="44.381" y="0" class="st5" style="font-family:'Montserrat-Regular'; font-size:13px;">e</tspan><tspan x="51.882" y="0" class="st5" style="font-family:'Montserrat-Regular'; font-size:13px;">x</tspan><tspan x="59.097" y="0" class="st5" style="font-family:'Montserrat-Regular'; font-size:13px;">t</tspan><tspan x="64.128" y="0" class="st5" style="font-family:'Montserrat-Regular'; font-size:13px;">b</tspan><tspan x="72.942" y="0" class="st5" style="font-family:'Montserrat-Regular'; font-size:13px;">o</tspan><tspan x="80.742" y="0" class="st5" style="font-family:'Montserrat-Regular'; font-size:13px;">x </tspan></text>
<path class="st14" d="M520.139-114.605c3.707,0,6.713-3.005,6.713-6.712c0-3.708-3.006-6.713-6.713-6.713s-6.712,3.005-6.712,6.713
	C513.427-117.61,516.432-114.605,520.139-114.605z"/>
<rect x="397.639" y="-162.563" class="st9" width="245" height="57.75"/>
<line class="st15" x1="520.139" y1="-124.851" x2="520.139" y2="-117.782"/>
<line class="st15" x1="516.604" y1="-121.286" x2="523.672" y2="-121.286"/>
<path class="st14" d="M409.177-74.769c3.707,0,6.713-3.005,6.713-6.712c0-3.708-3.006-6.713-6.713-6.713s-6.712,3.005-6.712,6.713
	C402.465-77.774,405.47-74.769,409.177-74.769z"/>
<line class="st15" x1="409.177" y1="-85.016" x2="409.177" y2="-77.947"/>
<line class="st15" x1="405.643" y1="-81.45" x2="412.711" y2="-81.45"/>
<g>
	<path class="st16" d="M-86.715-59.634h-3.138v-1.85h8.544v1.85h-3.138v7.956h-2.269V-59.634z"/>
	<path class="st16" d="M-80.094-61.484h2.269v9.806h-2.269V-61.484z"/>
	<path class="st16" d="M-67-57.925c0,2.185-1.639,3.544-4.258,3.544h-1.975v2.703h-2.269v-9.806h4.244
		C-68.639-61.484-67-60.124-67-57.925z M-69.297-57.925c0-1.079-0.701-1.709-2.087-1.709h-1.849v3.403h1.849
		C-69.998-56.231-69.297-56.861-69.297-57.925z"/>
	<path class="st16" d="M-56.878-57.925c0,2.185-1.639,3.544-4.258,3.544h-1.975v2.703h-2.269v-9.806h4.244
		C-58.517-61.484-56.878-60.124-56.878-57.925z M-59.175-57.925c0-1.079-0.701-1.709-2.087-1.709h-1.849v3.403h1.849
		C-59.876-56.231-59.175-56.861-59.175-57.925z"/>
</g>
<path class="st16" d="M-123.343-65.955L-123.343-65.955c-1.054,2.474-1.96,4.602-2.889,6.784h5.729
	C-121.447-61.427-122.329-63.535-123.343-65.955 M-119.85-48.365L-119.85-48.365c-0.346-1.15-0.211-1.759,1.044-1.8
	c0.976-0.033,1.343-0.74,1.02-1.64c-0.507-1.414-1.072-2.81-1.681-4.183c-0.109-0.245-0.55-0.478-0.843-0.484
	c-2.129-0.041-4.261-0.046-6.39,0.005c-0.305,0.008-0.741,0.315-0.877,0.599c-0.558,1.155-1.057,2.342-1.512,3.542
	c-0.57,1.504-0.268,2.026,1.348,2.192c0.783,0.081,1.206,0.319,1.022,1.126c-0.056,0.243-0.355,0.61-0.547,0.613
	c-2.524,0.042-5.049,0.028-7.596,0.028c-0.214-0.956-0.321-1.631,0.868-1.885c0.569-0.122,1.219-0.609,1.515-1.117
	c0.755-1.293,1.377-2.67,1.972-4.049c2.401-5.559,4.761-11.135,7.172-16.689c0.173-0.398,0.634-0.67,0.96-1
	c0.319,0.343,0.766,0.632,0.937,1.037c2.56,6.048,5.079,12.114,7.622,18.17c0.326,0.776,0.705,1.534,1.106,2.275
	c0.507,0.939,1.332,1.389,2.379,1.595c0.265,0.052,0.519,0.638,0.586,1.013c0.032,0.175-0.39,0.621-0.611,0.624
	C-113.508-48.352-116.661-48.365-119.85-48.365"/>
<path class="st5" d="M-26.105-55.903c2.682-0.014,4.762-2.036,4.751-4.621c-0.01-2.367-2.203-4.406-4.733-4.399
	c-2.703,0.008-4.848,2.038-4.825,4.568C-30.889-57.891-28.729-55.89-26.105-55.903 M-20.55-55.89L-20.55-55.89
	c0.393-0.231,0.569-0.207,0.91,0.115c1.249,1.181,2.501,2.361,3.751,3.541c0.086,0.08,0.173,0.159,0.252,0.246
	c0.216,0.237,0.217,0.464-0.012,0.692c-0.249,0.248-0.509,0.488-0.767,0.727c-0.302,0.28-0.548,0.287-0.855,0
	c-1.177-1.103-2.348-2.211-3.522-3.318c-0.132-0.124-0.263-0.25-0.396-0.373c-0.368-0.34-0.394-0.487-0.153-0.896
	c-0.368-0.336-0.737-0.673-1.128-1.029c-1.472,1.07-3.153,1.471-5.011,1.06c-1.415-0.313-2.544-1.054-3.377-2.178
	c-1.65-2.23-1.286-5.335,0.823-7.11c2.222-1.87,5.521-1.904,7.68-0.117c2.217,1.835,2.765,5.106,0.696,7.583
	C-21.289-56.594-20.92-56.243-20.55-55.89"/>
<path class="st17" d="M-26.105-55.903c2.682-0.014,4.762-2.036,4.751-4.621c-0.01-2.367-2.203-4.406-4.733-4.399
	c-2.703,0.008-4.848,2.038-4.825,4.568C-30.889-57.891-28.729-55.89-26.105-55.903z M-20.55-55.89L-20.55-55.89
	c0.393-0.231,0.569-0.207,0.91,0.115c1.249,1.181,2.501,2.361,3.751,3.541c0.086,0.08,0.173,0.159,0.252,0.246
	c0.216,0.237,0.217,0.464-0.012,0.692c-0.249,0.248-0.509,0.488-0.767,0.727c-0.302,0.28-0.548,0.287-0.855,0
	c-1.177-1.103-2.348-2.211-3.522-3.318c-0.132-0.124-0.263-0.25-0.396-0.373c-0.368-0.34-0.394-0.487-0.153-0.896
	c-0.368-0.336-0.737-0.673-1.128-1.029c-1.472,1.07-3.153,1.471-5.011,1.06c-1.415-0.313-2.544-1.054-3.377-2.178
	c-1.65-2.23-1.286-5.335,0.823-7.11c2.222-1.87,5.521-1.904,7.68-0.117c2.217,1.835,2.765,5.106,0.696,7.583
	C-21.289-56.594-20.92-56.243-20.55-55.89z"/>
<path class="st5" d="M37.61-65.484l2.966,2.98v-2.758c0-0.096-0.055-0.229-0.123-0.297l-3.807-3.826
	c-0.068-0.067-0.178-0.067-0.245,0l-3.93,3.949v2.758c0,0.096,0.055,0.119,0.122,0.051l2.844-2.857
	c0.068-0.068,0.122-0.046,0.122,0.05v7.829h0v2.168c0,0.096-0.055,0.118-0.123,0.05l-2.966-2.98v2.758
	c0,0.096,0.055,0.229,0.123,0.297l3.807,3.826c0.068,0.067,0.178,0.067,0.245,0l3.93-3.949v-2.758c0-0.096-0.055-0.119-0.122-0.051
	l-2.844,2.857c-0.068,0.068-0.122,0.046-0.122-0.05v-7.829h0v-2.168C37.487-65.53,37.542-65.552,37.61-65.484z"/>
<line class="st18" x1="1.471" y1="-52.247" x2="29.304" y2="-52.247"/>
<line class="st18" x1="1.471" y1="-60.543" x2="29.304" y2="-60.543"/>
<line class="st18" x1="1.471" y1="-68.536" x2="29.304" y2="-68.536"/>
<line class="st18" x1="15.813" y1="-33.276" x2="15.813" y2="-12.276"/>
<path class="st5" d="M23.273-19.433L23.273-19.433h2.695l-2.603-2.569c-0.138-0.135-0.093-0.245,0.101-0.245h7.006v-1.407
	c0-0.193-0.157-0.35-0.35-0.35h-6.656c-0.194,0-0.239-0.11-0.101-0.246l2.603-2.569h-2.345c-0.193,0-0.462,0.111-0.599,0.246
	l-3.245,3.201c-0.137,0.136-0.137,0.356,0,0.492L23.273-19.433z"/>
<path class="st5" d="M7.502-26.644L7.502-26.644H4.807l2.603,2.569c0.138,0.135,0.093,0.245-0.101,0.245H0.303v1.407
	c0,0.193,0.157,0.35,0.35,0.35h6.656c0.194,0,0.239,0.11,0.101,0.246l-2.603,2.569h2.345c0.193,0,0.462-0.111,0.599-0.246
	l3.245-3.201c0.137-0.136,0.137-0.356,0-0.492L7.502-26.644z"/>
<line class="st19" x1="332.099" y1="-152.389" x2="296.076" y2="-152.389"/>
<path class="st20" d="M323.596-149.243c2.045,0,3.703-1.658,3.703-3.703c0-2.045-1.658-3.703-3.703-3.703
	c-2.045,0-3.703,1.658-3.703,3.703C319.893-150.901,321.551-149.243,323.596-149.243"/>
<g>
	<path class="st5" d="M346.795-152.188c0,3.12-1.82,4.836-4.459,4.836c-0.91,0-1.781-0.195-2.392-0.585l0.624-1.274
		c0.494,0.325,1.092,0.442,1.729,0.442c1.716,0,2.795-1.066,2.795-3.133v-0.014c-0.546,0.638-1.417,0.949-2.431,0.949
		c-1.794,0-3.133-1.092-3.133-2.795c0-1.807,1.469-2.951,3.328-2.951C345.339-156.712,346.795-155.112,346.795-152.188z
		 M344.832-153.852c0-0.858-0.676-1.534-1.885-1.534c-1.053,0-1.781,0.598-1.781,1.547s0.715,1.547,1.82,1.547
		C344.078-152.292,344.832-152.955,344.832-153.852z"/>
	<path class="st5" d="M354.66-150.277c0,1.599-1.157,2.925-3.602,2.925c-1.287,0-2.587-0.39-3.419-1.053l0.715-1.313
		c0.663,0.546,1.651,0.897,2.678,0.897c1.209,0,1.924-0.533,1.924-1.392c0-0.871-0.559-1.417-2.444-1.417h-2.197l0.468-4.953h5.343
		v1.417h-3.913l-0.195,2.106h0.871C353.581-153.059,354.66-151.889,354.66-150.277z"/>
	<path class="st5" d="M359.079-154.177c0-1.495,0.871-2.496,2.171-2.496s2.184,0.988,2.184,2.496s-0.884,2.496-2.184,2.496
		S359.079-152.682,359.079-154.177z M362.368-154.177c0-1.014-0.416-1.586-1.118-1.586c-0.676,0-1.118,0.585-1.118,1.586
		s0.442,1.586,1.118,1.586C361.952-152.591,362.368-153.163,362.368-154.177z M366.711-156.582h1.274l-6.214,9.101h-1.274
		L366.711-156.582z M365.047-149.887c0-1.495,0.871-2.496,2.171-2.496c1.3,0,2.184,1.001,2.184,2.496s-0.884,2.496-2.184,2.496
		C365.917-147.391,365.047-148.392,365.047-149.887z M368.336-149.887c0-1.001-0.429-1.586-1.118-1.586s-1.118,0.572-1.118,1.586
		c0,1.015,0.429,1.586,1.118,1.586S368.336-148.886,368.336-149.887z"/>
</g>
<rect x="310.036" y="-98.246" class="st11" width="13.149" height="16.764"/>
<polygon class="st21" points="310.035,-81.482 310.035,-81.482 323.184,-81.482 323.184,-98.246 310.035,-98.246 "/>
<rect x="302.364" y="-98.717" class="st9" width="21.291" height="24"/>
<line class="st22" x1="306.861" y1="-90.551" x2="306.861" y2="-80.164"/>
<line class="st23" x1="309.493" y1="-78.275" x2="319.142" y2="-78.275"/>
<path class="st21" d="M320.018-78.275h0.877 M306.861-79.219v0.944h0.877 M306.861-93.384v0.944"/>
<polyline class="st21" points="302.834,-90.295 302.834,-75.187 316.868,-75.187 "/>
<rect x="302.364" y="-98.717" class="st9" width="21.291" height="24"/>
<rect x="341.61" y="-98.315" class="st11" width="14.674" height="18.705"/>
<polygon class="st24" points="341.61,-79.61 341.61,-79.61 356.283,-79.61 356.283,-98.315 341.61,-98.315 "/>
<rect x="341.208" y="-98.717" class="st9" width="19.884" height="24"/>
<rect x="346.017" y="-93.824" class="st5" width="14.674" height="18.705"/>
<polygon class="st25" points="346.016,-75.119 346.016,-75.119 360.689,-75.119 360.689,-93.824 346.016,-93.824 "/>
<rect x="341.208" y="-98.717" class="st9" width="19.884" height="24"/>
<rect x="242.717" y="-94.768" class="st10" width="34.924" height="19.551"/>
<text transform="matrix(1 0 0 1 249.7173 -80.1163)"><tspan x="0" y="0" class="st11" style="font-family:'Montserrat-Regular'; font-size:13px;">e</tspan><tspan x="7.41" y="0" class="st11" style="font-family:'Montserrat-Regular'; font-size:13px;">i</tspan><tspan x="10.335" y="0" class="st11" style="font-family:'Montserrat-Regular'; font-size:13px;">n</tspan></text>
<polygon class="st6" points="207.709,-94.893 207.709,-74.893 207.709,-74.643 207.959,-74.643 276.808,-74.643 277.058,-74.643 
	277.058,-74.893 277.058,-94.893 277.058,-95.143 276.808,-95.143 207.959,-95.143 207.709,-95.143 "/>
<rect x="207.459" y="-95.393" class="st9" width="70.183" height="21"/>
<line class="st26" x1="348.773" y1="-5.254" x2="348.773" y2="19.006"/>
<path class="st5" d="M356.87,10.565L356.87,10.565h2.592l-2.494-2.46c-0.138-0.135-0.093-0.245,0.101-0.245h6.725V6.521
	c0-0.193-0.157-0.35-0.35-0.35h-6.725l2.743-2.705h-2.242c-0.193,0-0.462,0.11-0.599,0.245l-3.102,3.059
	c-0.137,0.135-0.137,0.355,0,0.491L356.87,10.565z"/>
<line class="st26" x1="321.828" y1="18.839" x2="321.828" y2="-5.421"/>
<path class="st5" d="M313.731,3.021L313.731,3.021h-2.592l2.494,2.46c0.138,0.135,0.093,0.245-0.101,0.245h-6.725v1.339
	c0,0.193,0.157,0.35,0.35,0.35h6.725l-2.743,2.705h2.242c0.193,0,0.462-0.11,0.599-0.245l3.102-3.059
	c0.137-0.135,0.137-0.355,0-0.491L313.731,3.021z"/>
<line class="st26" x1="132.086" y1="2.618" x2="156.346" y2="2.618"/>
<path class="st5" d="M147.737-5.44L147.737-5.44v-2.592l-2.46,2.494c-0.135,0.138-0.245,0.093-0.245-0.101v-6.725h-1.339
	c-0.193,0-0.35,0.157-0.35,0.35v6.725l-2.705-2.743v2.242c0,0.193,0.11,0.462,0.245,0.599l3.059,3.102
	c0.135,0.137,0.355,0.137,0.491,0L147.737-5.44z"/>
<path class="st5" d="M140.805,9.712L140.805,9.712v2.592l2.46-2.494c0.135-0.138,0.245-0.093,0.245,0.101v6.725h1.339
	c0.193,0,0.35-0.157,0.35-0.35V9.561l2.705,2.743v-2.242c0-0.193-0.11-0.462-0.245-0.599L144.6,6.361
	c-0.135-0.137-0.355-0.137-0.491,0L140.805,9.712z"/>
<line class="st26" x1="188.532" y1="15.428" x2="188.532" y2="-8.832"/>
<path class="st5" d="M180.474-0.223L180.474-0.223h-2.592l2.494,2.46c0.138,0.135,0.093,0.245-0.101,0.245h-6.725v1.339
	c0,0.193,0.157,0.35,0.35,0.35h6.725l-2.743,2.705h2.242c0.193,0,0.462-0.11,0.599-0.245l3.102-3.059
	c0.137-0.135,0.137-0.355,0-0.491L180.474-0.223z"/>
<path class="st5" d="M195.626,6.709L195.626,6.709h2.592l-2.494-2.46c-0.138-0.135-0.093-0.245,0.101-0.245h6.725V2.665
	c0-0.193-0.157-0.35-0.35-0.35h-6.725l2.743-2.705h-2.242c-0.193,0-0.462,0.11-0.599,0.245l-3.102,3.059
	c-0.137,0.135-0.137,0.355,0,0.491L195.626,6.709z"/>
<line class="st26" x1="220.674" y1="2.901" x2="244.934" y2="2.901"/>
<path class="st5" d="M229.393,9.995L229.393,9.995v2.592l2.46-2.494c0.135-0.138,0.245-0.093,0.245,0.101v6.725h1.339
	c0.193,0,0.35-0.157,0.35-0.35V9.844l2.705,2.743v-2.242c0-0.193-0.11-0.462-0.245-0.599l-3.059-3.102
	c-0.135-0.137-0.355-0.137-0.491,0L229.393,9.995z"/>
<line class="st26" x1="265.785" y1="14.156" x2="290.045" y2="14.156"/>
<path class="st5" d="M281.603,5.768L281.603,5.768V3.176l-2.46,2.494c-0.135,0.138-0.245,0.093-0.245-0.101v-6.725h-1.339
	c-0.193,0-0.35,0.157-0.35,0.35v6.725l-2.705-2.743v2.242c0,0.193,0.11,0.462,0.245,0.599l3.059,3.102
	c0.135,0.137,0.355,0.137,0.491,0L281.603,5.768z"/>
<rect x="411.648" y="-12.77" class="st11" width="15.769" height="20.056"/>
<line class="st27" x1="414.605" y1="7.287" x2="425.446" y2="7.287"/>
<line class="st28" x1="427.417" y1="4.278" x2="427.417" y2="-10.764"/>
<line class="st27" x1="424.461" y1="-12.77" x2="413.62" y2="-12.77"/>
<line class="st28" x1="411.648" y1="-9.761" x2="411.648" y2="5.281"/>
<path class="st21" d="M411.648,6.284v1.003h0.986 M412.634-12.769h-0.986v1.003 M427.417-11.766v-1.003h-0.985 M426.432,7.287h0.985
	V6.284"/>
<polygon class="st11" points="400.412,17.287 400.412,17.287 416.181,17.287 416.181,-2.769 400.412,-2.769 "/>
<line class="st27" x1="403.369" y1="17.287" x2="414.21" y2="17.287"/>
<line class="st28" x1="416.181" y1="14.278" x2="416.181" y2="-0.764"/>
<line class="st27" x1="413.225" y1="-2.77" x2="402.384" y2="-2.77"/>
<line class="st28" x1="400.412" y1="0.239" x2="400.412" y2="15.281"/>
<path class="st21" d="M400.412,16.284v1.003h0.986 M401.398-2.769h-0.986v1.003 M416.181-1.766v-1.003h-0.985 M415.196,17.287h0.985
	v-1.003"/>
<polygon class="st11" points="390.938,25.287 390.938,25.287 406.707,25.287 406.707,5.231 390.938,5.231 "/>
<polygon class="st21" points="390.938,25.287 390.938,25.287 406.707,25.287 406.707,5.231 390.938,5.231 "/>
<g>
	<polygon class="st11" points="464.775,11.592 464.775,11.592 480.544,11.592 480.544,-8.464 464.775,-8.464 	"/>
	<polygon class="st21" points="464.775,11.592 464.775,11.592 480.544,11.592 480.544,-8.464 464.775,-8.464 	"/>
	<line class="st29" x1="461.011" y1="0.091" x2="461.011" y2="13.595"/>
	<line class="st30" x1="464.148" y1="15.396" x2="475.651" y2="15.396"/>
	<path class="st21" d="M476.696,15.395h1.046 M461.011,14.495v0.9h1.046 M461.011-2.61v0.9"/>
</g>
<g>
	<g>
		<rect x="537.315" y="-20.184" class="st11" width="15.769" height="20.056"/>
		<polygon class="st21" points="537.315,-0.128 537.315,-0.128 553.084,-0.128 553.084,-20.184 537.315,-20.184 		"/>
		<polygon class="st11" points="526.078,9.872 526.078,9.872 541.847,9.872 541.847,-10.184 526.078,-10.184 		"/>
		<line class="st27" x1="529.035" y1="9.872" x2="539.876" y2="9.872"/>
		<line class="st28" x1="541.847" y1="6.863" x2="541.847" y2="-8.179"/>
		<line class="st27" x1="538.891" y1="-10.184" x2="528.05" y2="-10.184"/>
		<line class="st28" x1="526.078" y1="-7.176" x2="526.078" y2="7.866"/>
		<path class="st21" d="M526.078,8.869v1.003h0.986 M527.064-10.184h-0.986v1.003 M541.847-9.181v-1.003h-0.985 M540.862,9.872
			h0.985V8.869"/>
		<polygon class="st11" points="516.605,17.872 516.605,17.872 532.374,17.872 532.374,-2.184 516.605,-2.184 		"/>
		<line class="st27" x1="519.562" y1="17.872" x2="530.403" y2="17.872"/>
		<line class="st28" x1="532.374" y1="14.863" x2="532.374" y2="-0.179"/>
		<line class="st27" x1="529.417" y1="-2.184" x2="518.576" y2="-2.184"/>
		<line class="st28" x1="516.605" y1="0.824" x2="516.605" y2="15.866"/>
		<path class="st21" d="M516.604,16.869v1.003h0.986 M517.59-2.184h-0.986v1.003 M532.373-1.181v-1.003h-0.985 M531.388,17.872
			h0.985v-1.003"/>
	</g>
	<line class="st27" x1="592.728" y1="13.357" x2="603.569" y2="13.357"/>
	<line class="st28" x1="605.54" y1="10.349" x2="605.54" y2="-4.693"/>
	<line class="st27" x1="602.584" y1="-6.699" x2="591.743" y2="-6.699"/>
	<line class="st28" x1="589.771" y1="-3.691" x2="589.771" y2="11.351"/>
	<path class="st21" d="M589.771,12.354v1.003h0.986 M590.757-6.699h-0.986v1.003 M605.54-5.696v-1.003h-0.985 M604.555,13.357h0.985
		v-1.003"/>
	<polyline class="st21" points="586.007,-0.845 586.007,17.16 602.738,17.16 	"/>
</g>
<g>
	<defs>
		<rect id="SVGID_1_" x="-169.267" y="107.193" width="241.682" height="1"/>
	</defs>
	<clipPath id="SVGID_00000127037418928060346330000011511980732888520074_">
		<use xlink:href="#SVGID_1_"  style="overflow:visible;"/>
	</clipPath>
	
		<line style="clip-path:url(#SVGID_00000127037418928060346330000011511980732888520074_);fill:none;stroke:#B2B2B2;stroke-linecap:round;stroke-linejoin:round;stroke-dasharray:0,3.009;" x1="-165.759" y1="107.693" x2="70.411" y2="107.693"/>
	
		<path style="clip-path:url(#SVGID_00000127037418928060346330000011511980732888520074_);fill:none;stroke:#B2B2B2;stroke-linecap:round;stroke-linejoin:round;" d="
		M71.915,107.693L71.915,107.693 M-168.767,107.693L-168.767,107.693"/>
</g>
<circle class="st33" cx="-122.369" cy="-113.518" r="12.75"/>
<polygon class="st3" points="21.023,-128.541 8.023,-128.541 14.391,-118.066 "/>
<polygon class="st5" points="29.047,0 18.572,6.368 29.047,13 "/>
<polygon class="st5" points="0,13 10.475,6.632 0,0 "/>
<polygon class="st5" points="82.553,0 72.078,6.368 82.553,13 "/>
<polygon class="st5" points="47.376,13 57.851,6.632 47.376,0 "/>
<rect x="207.626" y="-128.531" class="st10" width="34.924" height="19.551"/>
<polygon class="st6" points="207.876,-128.656 207.876,-108.656 207.876,-108.406 208.126,-108.406 276.975,-108.406 
	277.225,-108.406 277.225,-108.656 277.225,-128.656 277.225,-128.906 276.975,-128.906 208.126,-128.906 207.876,-128.906 "/>
<rect x="207.626" y="-129.156" class="st9" width="69.849" height="21"/>
<rect x="242.99" y="-62.502" class="st10" width="34.924" height="19.551"/>
<polygon class="st6" points="207.982,-62.627 207.982,-42.627 207.982,-42.377 208.232,-42.377 277.081,-42.377 277.331,-42.377 
	277.331,-42.627 277.331,-62.627 277.331,-62.877 277.081,-62.877 208.232,-62.877 207.982,-62.877 "/>
<rect x="207.732" y="-63.127" class="st9" width="70.183" height="21"/>
<line class="st19" x1="331.021" y1="-132.601" x2="294.998" y2="-132.601"/>
<path class="st20" d="M322.518-129.455c2.045,0,3.703-1.658,3.703-3.703s-1.658-3.703-3.703-3.703c-2.045,0-3.703,1.658-3.703,3.703
	S320.473-129.455,322.518-129.455"/>
<line class="st19" x1="639.345" y1="-101.822" x2="603.322" y2="-101.822"/>
<path class="st20" d="M630.842-98.676c2.045,0,3.703-1.658,3.703-3.703s-1.658-3.703-3.703-3.703s-3.703,1.658-3.703,3.703
	S628.797-98.676,630.842-98.676"/>
</svg>
