<?xml version="1.0" encoding="utf-8"?>
<!-- Generator: Adobe Illustrator 26.2.1, SVG Export Plug-In . SVG Version: 6.00 Build 0)  -->
<svg version="1.1" id="Ebene_1" xmlns="http://www.w3.org/2000/svg" xmlns:xlink="http://www.w3.org/1999/xlink" x="0px" y="0px"
	 width="55.233px" height="57.666px" viewBox="0 0 55.233 57.666" enable-background="new 0 0 55.233 57.666" xml:space="preserve">
<path fill="#0F699B" d="M25.723,49.424c-0.717,1.985-2.906,3.013-4.891,2.296c-1.985-0.716-3.013-2.906-2.296-4.891
	c0.716-1.984,2.906-3.012,4.891-2.296C25.411,45.25,26.439,47.44,25.723,49.424 M16.212,21.319
	c-0.717,1.985-2.906,3.013-4.891,2.296c-1.985-0.716-3.013-2.906-2.296-4.891c0.716-1.984,2.906-3.012,4.891-2.296
	C15.901,17.145,16.928,19.335,16.212,21.319 M15.862,43.459c-0.716,1.985-2.906,3.013-4.891,2.296s-3.013-2.906-2.296-4.891
	s2.906-3.013,4.891-2.296C15.551,39.284,16.579,41.474,15.862,43.459 M7.068,34.837c-1.985-0.717-3.013-2.907-2.296-4.891
	c0.717-1.985,2.906-3.013,4.891-2.296c1.985,0.716,3.013,2.906,2.296,4.891C11.243,34.525,9.053,35.553,7.068,34.837 M19.419,13.3
	c0.717-1.985,2.907-3.013,4.891-2.296c1.985,0.716,3.013,2.906,2.296,4.891c-0.716,1.984-2.906,3.012-4.891,2.296
	C19.731,17.474,18.703,15.284,19.419,13.3 M43.867,35.63c-2.823,1.006-5.363-1.847-4.676-4.758c0.467-1.975,1.772-3.776,2.531-7.009
	c0.223-0.95,0.426-1.96,0.489-3.03l-1.169,1.492c-0.229,0.292-0.531,0.517-0.87,0.657c-0.063,0.369-0.245,0.711-0.523,0.97
	l-2.14,1.992c-0.109,0.101-0.229,0.184-0.354,0.252c0.023,1.162-0.189,3.974-2.471,6.493c-2.507,2.767-6.612,4.168-12.207,4.168
	c-0.177,0-0.354-0.001-0.534-0.004c-0.397-0.006-0.782-0.151-1.084-0.407c-0.295-0.249-0.499-0.595-0.575-0.974
	c-0.157-0.786,0.261-1.59,0.995-1.912c0.117-0.052,2.944-1.352,3.72-5.105c0.402-1.943,1.55-3.694,3.233-4.93
	c1.158-0.851,2.491-1.393,3.722-1.538c0.046-0.192,0.124-0.379,0.24-0.552l1.618-2.434c0.21-0.315,0.516-0.549,0.868-0.671
	c0.083-0.358,0.256-0.693,0.506-0.966l4.128-4.512c-0.338-0.402-0.711-0.809-1.124-1.222c-6.319-6.319-20.891-9.901-30.746,1.612
	C-4.264,26.918-0.47,41.828,7.25,50.031c5.645,5.999,16.989,8.641,23.797,7.288c6.807-1.354,13.979-6.187,18.408-14.316
	C52.503,37.409,48.759,33.886,43.867,35.63"/>
<path fill="#0F699B" d="M35.92,25.82c-0.015-0.128-0.078-0.246-0.176-0.329l-2.604-2.206c-0.082-0.07-0.185-0.111-0.293-0.119
	c-2.271-0.157-5.903,1.872-6.661,5.534c-0.905,4.372-4.277,5.907-4.42,5.97c-0.218,0.095-0.34,0.33-0.294,0.564
	c0.024,0.115,0.085,0.215,0.17,0.287c0.087,0.074,0.199,0.118,0.32,0.12c5.504,0.086,9.483-1.181,11.824-3.766
	C36.268,29.136,35.935,25.954,35.92,25.82"/>
<path fill="#0F699B" d="M36.165,19.519l2.59,2.194c0.192,0.162,0.445,0.241,0.695,0.216c0.251-0.026,0.483-0.154,0.638-0.352
	L55.034,2.503c0.31-0.396,0.252-0.959-0.131-1.284l-1.178-0.997c-0.383-0.325-0.948-0.289-1.287,0.082L36.08,18.182
	c-0.17,0.185-0.258,0.435-0.242,0.686S35.973,19.356,36.165,19.519"/>
<path fill="#0F699B" d="M33.202,22.106c-0.143,0.214-0.102,0.501,0.094,0.668l2.714,2.298c0.196,0.166,0.485,0.159,0.673-0.015
	l2.141-1.992c0.106-0.099,0.164-0.238,0.161-0.383c-0.003-0.145-0.068-0.281-0.179-0.375l-3.235-2.741
	c-0.111-0.093-0.256-0.135-0.399-0.115c-0.143,0.02-0.271,0.101-0.351,0.221L33.202,22.106z"/>
</svg>
