<?xml version="1.0" encoding="utf-8"?>
<!-- Generator: Adobe Illustrator 26.0.3, SVG Export Plug-In . SVG Version: 6.00 Build 0)  -->
<svg version="1.1" id="Ebene_1" xmlns="http://www.w3.org/2000/svg" xmlns:xlink="http://www.w3.org/1999/xlink" x="0px" y="0px"
	 width="10.475px" height="13px" viewBox="0 0 10.475 13" style="enable-background:new 0 0 10.475 13;" xml:space="preserve">
<style type="text/css">
	.st0{fill:none;stroke:#C5C5C5;stroke-width:3;stroke-linecap:round;stroke-linejoin:round;}
	.st1{fill:#FFAEFF;stroke:#4F4D4D;stroke-width:0.5;}
	.st2{fill:#F8F8F8;}
	.st3{fill:#0E689A;}
	.st4{fill:none;stroke:#B2B1B1;stroke-width:0.65;stroke-miterlimit:10;}
	.st5{fill:#B2B1B1;}
	.st6{fill:none;stroke:#B2B2B2;stroke-width:0.5;stroke-miterlimit:10;}
	.st7{fill:none;stroke:#B2B1B1;stroke-width:0.3;stroke-miterlimit:10;}
	.st8{fill:none;stroke:#FFFFFF;stroke-width:0.021;}
	.st9{fill:none;}
	.st10{fill:#0E6899;}
	.st11{fill:#FFFFFF;}
	.st12{fill:none;stroke:#C5C5C5;stroke-width:0.5;stroke-linecap:round;stroke-linejoin:round;}
	.st13{fill:#C5C5C5;}
	.st14{fill:none;stroke:#B2B1B1;stroke-width:0.5;}
	.st15{fill:none;stroke:#B2B1B1;stroke-width:1.2;}
	.st16{fill:#B2B2B2;}
	.st17{fill:none;stroke:#FFFFFF;stroke-width:0.001;}
	.st18{fill:none;stroke:#B2B1B1;stroke-width:1.712;}
	.st19{fill:none;stroke:#B2B1B1;stroke-width:2;}
	.st20{fill:#AD5E7A;}
	.st21{fill:none;stroke:#B2B1B1;stroke-width:0.941;}
	.st22{fill:none;stroke:#B2B1B1;stroke-width:0.941;stroke-dasharray:1.889,1.889;}
	.st23{fill:none;stroke:#B2B1B1;stroke-width:0.941;stroke-dasharray:1.754,1.754;}
	.st24{fill:none;stroke:#B2B1B1;stroke-width:0.804;}
	.st25{fill:none;stroke:#FFFFFF;stroke-width:0.804;}
	.st26{fill:none;stroke:#B2B1B1;stroke-width:2.5;}
	.st27{fill:none;stroke:#B2B1B1;stroke-width:0.941;stroke-dasharray:1.971,1.971;}
	.st28{fill:none;stroke:#B2B1B1;stroke-width:0.941;stroke-dasharray:2.006,2.006;}
	.st29{fill:none;stroke:#B2B1B1;stroke-width:0.941;stroke-dasharray:1.801,1.801;}
	.st30{fill:none;stroke:#B2B1B1;stroke-width:0.941;stroke-dasharray:2.091,2.091;}
	
		.st31{clip-path:url(#SVGID_00000147222015541718721230000017261042534733959833_);fill:none;stroke:#B2B2B2;stroke-linecap:round;stroke-linejoin:round;stroke-dasharray:0,3.009;}
	
		.st32{clip-path:url(#SVGID_00000147222015541718721230000017261042534733959833_);fill:none;stroke:#B2B2B2;stroke-linecap:round;stroke-linejoin:round;}
	.st33{fill:none;stroke:#4F4D4D;stroke-width:0.5;}
</style>
<polyline class="st0" points="1797.446,813.138 1791.196,804.138 1784.446,813.138 "/>
<circle class="st1" cx="-194.448" cy="-149.611" r="12.75"/>
<rect x="-161.987" y="-160.626" class="st2" width="119.902" height="21"/>
<polygon class="st3" points="-51.158,-155.363 -64.158,-155.363 -57.79,-144.888 "/>
<g>
	<g>
		<line class="st4" x1="61.855" y1="-143.105" x2="72.138" y2="-143.105"/>
		<g>
			<path class="st5" d="M63.142-148.331v-5.175h1.3v5.122c0,2.016,0.923,2.926,2.561,2.926c1.638,0,2.574-0.91,2.574-2.926v-5.122
				h1.261v5.175c0,2.639-1.443,4.029-3.848,4.029C64.598-144.302,63.142-145.692,63.142-148.331z"/>
		</g>
	</g>
	<polygon class="st6" points="53.746,-161.306 53.746,-135.306 53.746,-135.056 53.996,-135.056 79.996,-135.056 80.246,-135.056 
		80.246,-135.306 80.246,-161.306 80.246,-161.556 79.996,-161.556 53.996,-161.556 53.746,-161.556 	"/>
</g>
<g>
	<g>
		<path class="st5" d="M32.392-153.232h1.3l-1.82,9.101h-1.3L32.392-153.232z"/>
	</g>
	<polygon class="st6" points="18.882,-161.682 18.882,-135.682 18.882,-135.432 19.132,-135.432 45.132,-135.432 45.382,-135.432 
		45.382,-135.682 45.382,-161.682 45.382,-161.932 45.132,-161.932 19.132,-161.932 18.882,-161.932 	"/>
</g>
<g>
	<g>
		<path class="st5" d="M-0.756-146.563c0,1.573-1.248,2.483-3.64,2.483h-4.706v-9.101h4.446c2.275,0,3.445,0.949,3.445,2.366
			c0,0.91-0.468,1.612-1.209,2.002C-1.406-148.487-0.756-147.707-0.756-146.563z M-7.009-151.594v2.146h2.093
			c1.027,0,1.586-0.364,1.586-1.079s-0.559-1.066-1.586-1.066H-7.009z M-2.875-146.784c0-0.767-0.585-1.131-1.677-1.131h-2.457
			v2.249h2.457C-3.46-145.666-2.875-146.004-2.875-146.784z"/>
	</g>
	<polygon class="st6" points="-18.179,-161.63 -18.179,-135.63 -18.179,-135.38 -17.929,-135.38 8.071,-135.38 8.321,-135.38 
		8.321,-135.63 8.321,-161.63 8.321,-161.88 8.071,-161.88 -17.929,-161.88 -18.179,-161.88 	"/>
</g>
<path class="st7" d="M36.009-119.676"/>
<path class="st7" d="M33.501-118.423"/>
<path class="st7" d="M33.501-117.169"/>
<path class="st7" d="M33.501-115.914"/>
<path class="st7" d="M36.009-114.66"/>
<path class="st7" d="M36.009-113.406"/>
<path class="st7" d="M33.501-112.153"/>
<path class="st7" d="M33.501-109.645"/>
<path class="st7" d="M36.009-107.137"/>
<g>
	<path class="st7" d="M16.544-114.66"/>
	<path class="st7" d="M16.544-119.676"/>
	<path class="st7" d="M16.544-107.137"/>
	<path class="st7" d="M16.544-113.406"/>
	<g>
		<path class="st7" d="M18.606-112.153"/>
		<path class="st7" d="M18.606-115.914"/>
		<path class="st7" d="M18.606-117.169"/>
		<path class="st7" d="M18.606-118.423"/>
		<line class="st7" x1="16.169" y1="-107.932" x2="35.633" y2="-107.932"/>
		<line class="st7" x1="16.169" y1="-109.207" x2="31.063" y2="-109.207"/>
		<line class="st7" x1="16.169" y1="-110.483" x2="31.063" y2="-110.483"/>
		<line class="st7" x1="16.169" y1="-111.759" x2="31.063" y2="-111.759"/>
		<line class="st7" x1="16.169" y1="-113.035" x2="35.633" y2="-113.035"/>
		<line class="st7" x1="16.169" y1="-114.311" x2="35.633" y2="-114.311"/>
		<line class="st7" x1="16.242" y1="-115.587" x2="31.136" y2="-115.587"/>
		<line class="st7" x1="16.169" y1="-116.863" x2="35.633" y2="-116.863"/>
		<line class="st7" x1="16.169" y1="-118.139" x2="31.063" y2="-118.139"/>
		<line class="st7" x1="16.169" y1="-119.415" x2="31.063" y2="-119.415"/>
		<line class="st7" x1="16.169" y1="-120.691" x2="35.633" y2="-120.691"/>
	</g>
	<polygon class="st6" points="12.842,-126.986 12.842,-100.993 12.842,-100.743 13.092,-100.743 39.085,-100.743 39.335,-100.743 
		39.335,-100.993 39.335,-126.986 39.335,-127.236 39.085,-127.236 13.092,-127.236 12.842,-127.236 	"/>
</g>
<g>
	<g>
		<line class="st7" x1="66.889" y1="-120.374" x2="47.425" y2="-120.374"/>
		<line class="st7" x1="64.381" y1="-119.097" x2="49.487" y2="-119.097"/>
		<line class="st7" x1="64.381" y1="-117.82" x2="49.487" y2="-117.82"/>
		<line class="st7" x1="64.381" y1="-116.543" x2="49.487" y2="-116.543"/>
		<line class="st7" x1="66.889" y1="-115.266" x2="47.425" y2="-115.266"/>
		<line class="st7" x1="66.889" y1="-113.989" x2="47.425" y2="-113.989"/>
		<line class="st7" x1="64.381" y1="-112.712" x2="49.487" y2="-112.712"/>
		<line class="st7" x1="66.889" y1="-111.435" x2="47.425" y2="-111.435"/>
		<line class="st7" x1="64.381" y1="-110.158" x2="49.487" y2="-110.158"/>
		<line class="st7" x1="64.381" y1="-108.881" x2="49.487" y2="-108.881"/>
		<line class="st7" x1="66.889" y1="-107.604" x2="47.425" y2="-107.604"/>
	</g>
	<polygon class="st6" points="43.911,-126.986 43.911,-100.993 43.911,-100.743 44.161,-100.743 70.154,-100.743 70.404,-100.743 
		70.404,-100.993 70.404,-126.986 70.404,-127.236 70.154,-127.236 44.161,-127.236 43.911,-127.236 	"/>
</g>
<polygon class="st6" points="74.979,-126.986 74.979,-100.993 74.979,-100.743 75.229,-100.743 101.222,-100.743 101.472,-100.743 
	101.472,-100.993 101.472,-126.986 101.472,-127.236 101.222,-127.236 75.229,-127.236 74.979,-127.236 "/>
<path class="st7" d="M78.306-108.301"/>
<path class="st7" d="M78.306-113.318"/>
<path class="st7" d="M78.306-114.571"/>
<path class="st7" d="M78.306-120.841"/>
<path class="st7" d="M95.708-115.825"/>
<path class="st7" d="M97.77-113.318"/>
<path class="st7" d="M95.708-112.064"/>
<path class="st7" d="M97.77-108.301"/>
<path class="st7" d="M97.77-120.841"/>
<path class="st7" d="M97.77-114.571"/>
<path class="st7" d="M95.708-110.809"/>
<path class="st7" d="M95.708-109.555"/>
<g>
	<path class="st7" d="M80.626-109.878"/>
	<path class="st7" d="M80.626-111.132"/>
	<path class="st7" d="M80.626-112.386"/>
	<path class="st7" d="M80.626-116.148"/>
	<path class="st7" d="M80.626-118.656"/>
	<line class="st7" x1="97.958" y1="-120.368" x2="78.494" y2="-120.368"/>
	<line class="st7" x1="97.958" y1="-119.093" x2="83.064" y2="-119.093"/>
	<line class="st7" x1="97.958" y1="-117.817" x2="83.064" y2="-117.817"/>
	<line class="st7" x1="97.958" y1="-116.541" x2="83.064" y2="-116.541"/>
	<line class="st7" x1="97.958" y1="-115.265" x2="78.494" y2="-115.265"/>
	<line class="st7" x1="97.958" y1="-113.989" x2="78.494" y2="-113.989"/>
	<line class="st7" x1="97.884" y1="-112.713" x2="82.99" y2="-112.713"/>
	<line class="st7" x1="97.958" y1="-111.437" x2="78.494" y2="-111.437"/>
	<line class="st7" x1="97.958" y1="-110.161" x2="83.064" y2="-110.161"/>
	<line class="st7" x1="97.958" y1="-108.885" x2="83.064" y2="-108.885"/>
	<line class="st7" x1="97.958" y1="-107.61" x2="78.494" y2="-107.61"/>
</g>
<polygon class="st6" points="-17.929,-126.979 -17.929,-100.986 -17.929,-100.736 -17.679,-100.736 8.314,-100.736 8.564,-100.736 
	8.564,-100.986 8.564,-126.979 8.564,-127.229 8.314,-127.229 -17.679,-127.229 -17.929,-127.229 "/>
<path class="st7" d="M5.238-119.676"/>
<path class="st7" d="M5.238-114.66"/>
<path class="st7" d="M5.238-113.406"/>
<path class="st7" d="M5.238-107.137"/>
<path class="st7" d="M-12.165-112.153"/>
<path class="st7" d="M-14.227-114.66"/>
<path class="st7" d="M-12.165-115.914"/>
<path class="st7" d="M-14.227-119.676"/>
<path class="st7" d="M-14.227-107.137"/>
<path class="st7" d="M-14.227-113.406"/>
<path class="st7" d="M-12.165-117.169"/>
<path class="st7" d="M-12.165-118.423"/>
<g>
	<path class="st7" d="M2.73-118.423"/>
	<path class="st7" d="M2.73-117.169"/>
	<path class="st7" d="M2.73-115.914"/>
	<path class="st7" d="M2.73-112.153"/>
	<path class="st7" d="M2.73-109.645"/>
	<line class="st7" x1="-14.602" y1="-107.932" x2="4.862" y2="-107.932"/>
	<line class="st7" x1="-14.602" y1="-109.207" x2="4.862" y2="-109.207"/>
	<line class="st7" x1="-14.602" y1="-110.483" x2="4.862" y2="-110.483"/>
	<line class="st7" x1="-14.602" y1="-111.759" x2="4.862" y2="-111.759"/>
	<line class="st7" x1="-14.602" y1="-113.035" x2="4.862" y2="-113.035"/>
	<line class="st7" x1="-14.602" y1="-114.311" x2="4.862" y2="-114.311"/>
	<line class="st7" x1="-14.529" y1="-115.587" x2="4.935" y2="-115.587"/>
	<line class="st7" x1="-14.602" y1="-116.863" x2="4.862" y2="-116.863"/>
	<line class="st7" x1="-14.602" y1="-118.139" x2="4.862" y2="-118.139"/>
	<line class="st7" x1="-14.602" y1="-119.415" x2="4.862" y2="-119.415"/>
	<line class="st7" x1="-14.602" y1="-120.691" x2="4.862" y2="-120.691"/>
</g>
<path class="st5" d="M-187.486-11.83l-1.915,13.335c-0.058,0.402-0.431,0.682-0.834,0.624c-0.402-0.058-0.682-0.431-0.624-0.833
	l1.915-13.336c0.058-0.402,0.431-0.681,0.834-0.623C-187.708-12.605-187.428-12.233-187.486-11.83 M-194.303,2.245
	c-0.407,0.003-0.74-0.324-0.742-0.73l-0.106-13.472c-0.003-0.407,0.324-0.739,0.73-0.742c0.408-0.003,0.74,0.324,0.743,0.731
	l0.105,13.471C-193.57,1.91-193.897,2.242-194.303,2.245 M-198.374,2.192c-0.401,0.064-0.779-0.209-0.842-0.61l-2.124-13.304
	c-0.064-0.402,0.209-0.779,0.612-0.843c0.401-0.064,0.778,0.209,0.842,0.611l2.123,13.303
	C-197.699,1.751-197.972,2.128-198.374,2.192 M-184.591-14.216c-0.141-0.169-0.353-0.266-0.573-0.264l-18.538,0.144
	c-0.22,0.002-0.429,0.101-0.568,0.272c-0.14,0.17-0.196,0.393-0.155,0.609l3.092,16.141c0.068,0.351,0.376,0.605,0.734,0.602
	l12.497-0.098c0.356-0.002,0.66-0.258,0.724-0.608l2.949-16.188C-184.389-13.822-184.45-14.047-184.591-14.216"/>
<path class="st8" d="M-187.486-11.83l-1.915,13.335c-0.058,0.402-0.431,0.682-0.834,0.624c-0.402-0.058-0.682-0.431-0.624-0.833
	l1.915-13.336c0.058-0.402,0.431-0.681,0.834-0.623C-187.708-12.605-187.428-12.233-187.486-11.83z M-194.303,2.245
	c-0.407,0.003-0.74-0.324-0.742-0.73l-0.106-13.472c-0.003-0.407,0.324-0.739,0.73-0.742c0.408-0.003,0.74,0.324,0.743,0.731
	l0.105,13.471C-193.57,1.91-193.897,2.242-194.303,2.245z M-198.374,2.192c-0.401,0.064-0.779-0.209-0.842-0.61l-2.124-13.304
	c-0.064-0.402,0.209-0.779,0.612-0.843c0.401-0.064,0.778,0.209,0.842,0.611l2.123,13.303
	C-197.699,1.751-197.972,2.128-198.374,2.192z M-184.591-14.216c-0.141-0.169-0.353-0.266-0.573-0.264l-18.538,0.144
	c-0.22,0.002-0.429,0.101-0.568,0.272c-0.14,0.17-0.196,0.393-0.155,0.609l3.092,16.141c0.068,0.351,0.376,0.605,0.734,0.602
	l12.497-0.098c0.356-0.002,0.66-0.258,0.724-0.608l2.949-16.188C-184.389-13.822-184.45-14.047-184.591-14.216z"/>
<path class="st5" d="M-197.279-18.824L-197.279-18.824l-0.004-0.421l5.49-0.043l0.004,0.421L-197.279-18.824z M-183.542-17.414
	L-183.542-17.414l-2.025,0.016l-0.009-1.171c-0.001-0.091-0.038-0.18-0.103-0.244c-0.065-0.064-0.155-0.1-0.246-0.1l-4.467,0.035
	l-0.009-1.12c-0.002-0.184-0.077-0.363-0.209-0.492c-0.131-0.13-0.311-0.203-0.495-0.201l-6.887,0.054
	c-0.183,0.001-0.363,0.077-0.492,0.208s-0.202,0.312-0.2,0.496l0.009,1.12l-4.164,0.032c-0.091,0.001-0.18,0.039-0.243,0.104
	c-0.065,0.065-0.101,0.154-0.101,0.246l0.009,1.171l-2.197,0.017l0.017,2.225l21.829-0.17L-183.542-17.414z"/>
<path class="st8" d="M-197.279-18.824L-197.279-18.824l-0.004-0.421l5.49-0.043l0.004,0.421L-197.279-18.824z M-183.542-17.414
	L-183.542-17.414l-2.025,0.016l-0.009-1.171c-0.001-0.091-0.038-0.18-0.103-0.244c-0.065-0.064-0.155-0.1-0.246-0.1l-4.467,0.035
	l-0.009-1.12c-0.002-0.184-0.077-0.363-0.209-0.492c-0.131-0.13-0.311-0.203-0.495-0.201l-6.887,0.054
	c-0.183,0.001-0.363,0.077-0.492,0.208s-0.202,0.312-0.2,0.496l0.009,1.12l-4.164,0.032c-0.091,0.001-0.18,0.039-0.243,0.104
	c-0.065,0.065-0.101,0.154-0.101,0.246l0.009,1.171l-2.197,0.017l0.017,2.225l21.829-0.17L-183.542-17.414z"/>
<rect x="-205.382" y="-20.702" class="st9" width="21.868" height="24"/>
<rect x="135.548" y="-161.469" class="st10" width="34.924" height="19.551"/>
<g>
	<path class="st11" d="M148.525-151.056v4.238h-0.884v-1.066c-0.416,0.702-1.222,1.132-2.354,1.132
		c-1.547,0-2.496-0.807-2.496-1.989c0-1.054,0.676-1.938,2.639-1.938h2.171v-0.416c0-1.17-0.663-1.807-1.938-1.807
		c-0.884,0-1.716,0.312-2.275,0.806l-0.416-0.688c0.689-0.585,1.703-0.924,2.782-0.924
		C147.524-153.709,148.525-152.824,148.525-151.056z M147.602-148.872v-1.118h-2.146c-1.326,0-1.755,0.52-1.755,1.222
		c0,0.793,0.637,1.287,1.729,1.287C146.471-147.481,147.238-147.975,147.602-148.872z"/>
	<path class="st11" d="M156.624-153.656v6.838h-0.884v-1.248c-0.481,0.832-1.365,1.313-2.458,1.313
		c-1.742,0-2.886-0.976-2.886-2.938v-3.965h0.923v3.874c0,1.456,0.754,2.197,2.054,2.197c1.43,0,2.327-0.924,2.327-2.483v-3.588
		H156.624z"/>
	<path class="st11" d="M157.924-147.598l0.416-0.728c0.546,0.429,1.469,0.767,2.431,0.767c1.3,0,1.833-0.441,1.833-1.118
		c0-1.78-4.433-0.377-4.433-3.081c0-1.118,0.962-1.95,2.704-1.95c0.884,0,1.846,0.247,2.418,0.638l-0.403,0.74
		c-0.598-0.416-1.313-0.585-2.015-0.585c-1.235,0-1.781,0.481-1.781,1.132c0,1.846,4.434,0.455,4.434,3.081
		c0,1.183-1.04,1.95-2.821,1.95C159.575-146.753,158.483-147.117,157.924-147.598z"/>
</g>
<polygon class="st6" points="135.798,-161.594 135.798,-141.594 135.798,-141.344 136.048,-141.344 204.897,-141.344 
	205.147,-141.344 205.147,-141.594 205.147,-161.594 205.147,-161.844 204.897,-161.844 136.048,-161.844 135.798,-161.844 "/>
<rect x="135.548" y="-162.094" class="st9" width="69.849" height="21"/>
<rect x="-268.849" y="45.236" class="st11" width="1014" height="21"/>
<path class="st3" d="M358.312,45.236c-2.209,0-4,1.791-4,4v12.382c0,2.209,1.791,4,4,4h77.131c2.209,0,4-1.791,4-4V49.236
	c0-2.209-1.791-4-4-4H358.312z"/>
<rect x="-268.599" y="45.486" class="st12" width="1013.5" height="20.5"/>
<path class="st13" d="M729.006,48.096v1.481c0,0.397,0.187,0.771,0.505,1.009l6.367,4.762c0.258,0.194,0.258,0.583,0,0.776
	l-6.367,4.762c-0.318,0.238-0.505,0.612-0.505,1.01v1.48c0,0.41,0.467,0.644,0.795,0.399l10.111-7.563
	c0.318-0.237,0.318-0.714,0-0.952l-10.11-7.562C729.473,47.452,729.006,47.687,729.006,48.096"/>
<path class="st13" d="M-252.996,63.376v-1.481c0-0.397-0.187-0.771-0.505-1.009l-6.367-4.762c-0.258-0.194-0.258-0.583,0-0.776
	l6.367-4.762c0.318-0.238,0.505-0.612,0.505-1.01v-1.48c0-0.41-0.467-0.644-0.795-0.399l-10.111,7.563
	c-0.318,0.237-0.318,0.714,0,0.952l10.11,7.562C-253.463,64.02-252.996,63.785-252.996,63.376"/>
<rect x="-268.849" y="45.236" class="st9" width="1014" height="21"/>
<rect x="786.923" y="-199.31" class="st11" width="21" height="702.123"/>
<path class="st3" d="M786.923,214.652c0,2.209,1.791,4,4,4h12.382c2.209,0,4-1.791,4-4v-78.286c0-2.209-1.791-4-4-4h-12.382
	c-2.209,0-4,1.791-4,4V214.652z"/>
<rect x="787.173" y="-199.061" class="st12" width="20.5" height="701.624"/>
<path class="st13" d="M789.783-185.775h1.481c0.397,0,0.771-0.19,1.009-0.512l4.762-6.453c0.194-0.262,0.583-0.262,0.776,0
	l4.762,6.453c0.238,0.322,0.612,0.512,1.01,0.512h1.48c0.41,0,0.644-0.474,0.399-0.806l-7.563-10.248
	c-0.237-0.322-0.714-0.322-0.952,0l-7.562,10.248C789.139-186.249,789.374-185.775,789.783-185.775"/>
<path class="st13" d="M805.063,488.477h-1.481c-0.397,0-0.771,0.19-1.009,0.512l-4.762,6.453c-0.194,0.262-0.583,0.262-0.776,0
	l-4.762-6.453c-0.238-0.322-0.612-0.512-1.01-0.512h-1.48c-0.41,0-0.644,0.474-0.399,0.806l7.563,10.248
	c0.237,0.322,0.714,0.322,0.952,0l7.562-10.248C805.707,488.951,805.472,488.477,805.063,488.477"/>
<rect x="786.923" y="-199.311" class="st9" width="21" height="702.124"/>
<g>
	<g>
		<line class="st7" x1="65.949" y1="-76.331" x2="52.932" y2="-76.331"/>
		<line class="st7" x1="65.949" y1="-86.507" x2="52.932" y2="-86.507"/>
		<line class="st7" x1="65.949" y1="-81.419" x2="52.932" y2="-81.419"/>
		<g>
			<path class="st5" d="M49.29-87.977v2.104h-0.487v-1.714h-0.421v-0.391H49.29z"/>
		</g>
		<g>
			<path class="st5" d="M50.051-81.009v0.396h-1.59v-0.315l0.812-0.767c0.187-0.178,0.22-0.286,0.22-0.388
				c0-0.165-0.114-0.262-0.337-0.262c-0.18,0-0.333,0.069-0.436,0.21l-0.355-0.228c0.163-0.238,0.457-0.392,0.836-0.392
				c0.469,0,0.781,0.241,0.781,0.623c0,0.204-0.057,0.391-0.352,0.664l-0.484,0.457H50.051z"/>
		</g>
		<g>
			<path class="st5" d="M50.033-76.251c0,0.354-0.273,0.68-0.872,0.68c-0.295,0-0.599-0.081-0.803-0.226l0.189-0.373
				c0.159,0.121,0.382,0.189,0.601,0.189c0.244,0,0.394-0.099,0.394-0.271c0-0.159-0.117-0.258-0.394-0.258h-0.223v-0.322
				l0.433-0.49h-0.896v-0.391h1.473v0.316l-0.475,0.541C49.84-76.795,50.033-76.56,50.033-76.251z"/>
		</g>
	</g>
	<polygon class="st6" points="43.904,-94.774 43.904,-68.774 43.904,-68.524 44.154,-68.524 70.154,-68.524 70.404,-68.524 
		70.404,-68.774 70.404,-94.774 70.404,-95.024 70.154,-95.024 44.154,-95.024 43.904,-95.024 	"/>
</g>
<polygon class="st6" points="-17.929,-94.774 -17.929,-68.774 -17.929,-68.524 -17.679,-68.524 8.321,-68.524 8.571,-68.524 
	8.571,-68.774 8.571,-94.774 8.571,-95.024 8.321,-95.024 -17.679,-95.024 -17.929,-95.024 "/>
<g>
	<polygon class="st6" points="12.413,-94.774 12.413,-68.774 12.413,-68.524 12.663,-68.524 38.662,-68.524 38.912,-68.524 
		38.912,-68.774 38.912,-94.774 38.912,-95.024 38.662,-95.024 12.663,-95.024 12.413,-95.024 	"/>
	<path class="st7" d="M33.945-76.649H20.929 M33.945-81.782H20.929 M33.945-86.914H20.929"/>
	<path class="st5" d="M18.842-81.197c0.161-0.156,0.241-0.349,0.241-0.581c0-0.15-0.037-0.288-0.11-0.414
		c-0.073-0.125-0.172-0.224-0.297-0.297c-0.126-0.073-0.264-0.11-0.415-0.11c-0.15,0-0.288,0.037-0.41,0.11
		c-0.122,0.073-0.221,0.172-0.294,0.297c-0.072,0.126-0.11,0.264-0.11,0.414c0,0.232,0.08,0.425,0.238,0.581
		c0.157,0.156,0.35,0.234,0.576,0.234C18.488-80.963,18.681-81.041,18.842-81.197"/>
	<path class="st5" d="M18.265-85.832c0.489,0,0.885-0.396,0.885-0.885c0-0.488-0.396-0.885-0.885-0.885
		c-0.488,0-0.885,0.397-0.885,0.885C17.38-86.228,17.777-85.832,18.265-85.832"/>
	<path class="st5" d="M18.842-76.18c0.161-0.156,0.241-0.349,0.241-0.581c0-0.15-0.037-0.288-0.11-0.414
		c-0.073-0.125-0.172-0.224-0.297-0.297c-0.126-0.073-0.264-0.11-0.415-0.11c-0.15,0-0.288,0.037-0.41,0.11
		c-0.122,0.073-0.221,0.172-0.294,0.297c-0.072,0.126-0.11,0.264-0.11,0.414c0,0.232,0.08,0.425,0.238,0.581
		c0.157,0.156,0.35,0.234,0.576,0.234C18.488-75.946,18.681-76.024,18.842-76.18"/>
</g>
<path class="st7" d="M3.603-76.642H-9.413 M3.603-81.775H-9.413 M3.603-86.907H-9.413"/>
<rect x="-12.961" y="-87.676" class="st5" width="1.77" height="1.77"/>
<rect x="-12.961" y="-82.66" class="st5" width="1.77" height="1.77"/>
<rect x="-12.961" y="-77.642" class="st5" width="1.77" height="1.77"/>
<rect x="325.56" y="-162.563" class="st2" width="245" height="57.75"/>
<text transform="matrix(1 0 0 1 400.2582 -136.3679)"><tspan x="0" y="0" class="st5" style="font-family:'Montserrat-Regular'; font-size:13px;">N</tspan><tspan x="10.478" y="0" class="st5" style="font-family:'Montserrat-Regular'; font-size:13px;">e</tspan><tspan x="18.135" y="0" class="st5" style="font-family:'Montserrat-Regular'; font-size:13px;">u</tspan><tspan x="26.753" y="0" class="st5" style="font-family:'Montserrat-Regular'; font-size:13px;">e </tspan><tspan x="38.011" y="0" class="st5" style="font-family:'Montserrat-Regular'; font-size:13px; letter-spacing:-1;">T</tspan><tspan x="44.381" y="0" class="st5" style="font-family:'Montserrat-Regular'; font-size:13px;">e</tspan><tspan x="51.882" y="0" class="st5" style="font-family:'Montserrat-Regular'; font-size:13px;">x</tspan><tspan x="59.097" y="0" class="st5" style="font-family:'Montserrat-Regular'; font-size:13px;">t</tspan><tspan x="64.128" y="0" class="st5" style="font-family:'Montserrat-Regular'; font-size:13px;">b</tspan><tspan x="72.942" y="0" class="st5" style="font-family:'Montserrat-Regular'; font-size:13px;">o</tspan><tspan x="80.742" y="0" class="st5" style="font-family:'Montserrat-Regular'; font-size:13px;">x </tspan></text>
<path class="st14" d="M448.06-114.605c3.707,0,6.713-3.005,6.713-6.712c0-3.708-3.006-6.713-6.713-6.713s-6.712,3.005-6.712,6.713
	C441.348-117.61,444.353-114.605,448.06-114.605z"/>
<rect x="325.56" y="-162.563" class="st9" width="245" height="57.75"/>
<line class="st15" x1="448.06" y1="-124.851" x2="448.06" y2="-117.782"/>
<line class="st15" x1="444.526" y1="-121.286" x2="451.594" y2="-121.286"/>
<path class="st14" d="M337.099-74.769c3.707,0,6.713-3.005,6.713-6.712c0-3.708-3.006-6.713-6.713-6.713s-6.712,3.005-6.712,6.713
	C330.387-77.774,333.392-74.769,337.099-74.769z"/>
<line class="st15" x1="337.099" y1="-85.016" x2="337.099" y2="-77.947"/>
<line class="st15" x1="333.565" y1="-81.45" x2="340.633" y2="-81.45"/>
<g>
	<path class="st16" d="M-158.793-59.634h-3.138v-1.85h8.544v1.85h-3.138v7.956h-2.269V-59.634z"/>
	<path class="st16" d="M-152.173-61.484h2.269v9.806h-2.269V-61.484z"/>
	<path class="st16" d="M-139.078-57.925c0,2.185-1.639,3.544-4.258,3.544h-1.975v2.703h-2.269v-9.806h4.244
		C-140.717-61.484-139.078-60.124-139.078-57.925z M-141.375-57.925c0-1.079-0.701-1.709-2.087-1.709h-1.849v3.403h1.849
		C-142.076-56.231-141.375-56.861-141.375-57.925z"/>
	<path class="st16" d="M-128.956-57.925c0,2.185-1.639,3.544-4.258,3.544h-1.975v2.703h-2.269v-9.806h4.244
		C-130.595-61.484-128.956-60.124-128.956-57.925z M-131.253-57.925c0-1.079-0.701-1.709-2.087-1.709h-1.849v3.403h1.849
		C-131.954-56.231-131.253-56.861-131.253-57.925z"/>
</g>
<path class="st16" d="M-195.421-65.955L-195.421-65.955c-1.054,2.474-1.96,4.602-2.889,6.784h5.729
	C-193.525-61.427-194.407-63.535-195.421-65.955 M-191.928-48.365L-191.928-48.365c-0.346-1.15-0.211-1.759,1.044-1.8
	c0.976-0.033,1.343-0.74,1.02-1.64c-0.507-1.414-1.072-2.81-1.681-4.183c-0.109-0.245-0.55-0.478-0.843-0.484
	c-2.129-0.041-4.261-0.046-6.39,0.005c-0.305,0.008-0.741,0.315-0.877,0.599c-0.558,1.155-1.057,2.342-1.512,3.542
	c-0.57,1.504-0.268,2.026,1.348,2.192c0.783,0.081,1.206,0.319,1.022,1.126c-0.056,0.243-0.355,0.61-0.547,0.613
	c-2.524,0.042-5.049,0.028-7.596,0.028c-0.214-0.956-0.321-1.631,0.868-1.885c0.569-0.122,1.219-0.609,1.515-1.117
	c0.755-1.293,1.377-2.67,1.972-4.049c2.401-5.559,4.761-11.135,7.172-16.689c0.173-0.398,0.634-0.67,0.96-1
	c0.319,0.343,0.766,0.632,0.937,1.037c2.56,6.048,5.079,12.114,7.622,18.17c0.326,0.776,0.705,1.534,1.106,2.275
	c0.507,0.939,1.332,1.389,2.379,1.595c0.265,0.052,0.519,0.638,0.586,1.013c0.032,0.175-0.39,0.621-0.611,0.624
	C-185.586-48.352-188.739-48.365-191.928-48.365"/>
<path class="st5" d="M-98.183-55.903c2.682-0.014,4.762-2.036,4.751-4.621c-0.01-2.367-2.203-4.406-4.733-4.399
	c-2.703,0.008-4.848,2.038-4.825,4.568C-102.967-57.891-100.807-55.89-98.183-55.903 M-92.628-55.89L-92.628-55.89
	c0.393-0.231,0.569-0.207,0.91,0.115c1.249,1.181,2.501,2.361,3.751,3.541c0.086,0.08,0.173,0.159,0.252,0.246
	c0.216,0.237,0.217,0.464-0.012,0.692c-0.249,0.248-0.509,0.488-0.767,0.727c-0.302,0.28-0.548,0.287-0.855,0
	c-1.177-1.103-2.348-2.211-3.522-3.318c-0.132-0.124-0.263-0.25-0.396-0.373c-0.368-0.34-0.394-0.487-0.153-0.896
	c-0.368-0.336-0.737-0.673-1.128-1.029c-1.472,1.07-3.153,1.471-5.011,1.06c-1.415-0.313-2.544-1.054-3.377-2.178
	c-1.65-2.23-1.286-5.335,0.823-7.11c2.222-1.87,5.521-1.904,7.68-0.117c2.217,1.835,2.765,5.106,0.696,7.583
	C-93.367-56.594-92.998-56.243-92.628-55.89"/>
<path class="st17" d="M-98.183-55.903c2.682-0.014,4.762-2.036,4.751-4.621c-0.01-2.367-2.203-4.406-4.733-4.399
	c-2.703,0.008-4.848,2.038-4.825,4.568C-102.967-57.891-100.807-55.89-98.183-55.903z M-92.628-55.89L-92.628-55.89
	c0.393-0.231,0.569-0.207,0.91,0.115c1.249,1.181,2.501,2.361,3.751,3.541c0.086,0.08,0.173,0.159,0.252,0.246
	c0.216,0.237,0.217,0.464-0.012,0.692c-0.249,0.248-0.509,0.488-0.767,0.727c-0.302,0.28-0.548,0.287-0.855,0
	c-1.177-1.103-2.348-2.211-3.522-3.318c-0.132-0.124-0.263-0.25-0.396-0.373c-0.368-0.34-0.394-0.487-0.153-0.896
	c-0.368-0.336-0.737-0.673-1.128-1.029c-1.472,1.07-3.153,1.471-5.011,1.06c-1.415-0.313-2.544-1.054-3.377-2.178
	c-1.65-2.23-1.286-5.335,0.823-7.11c2.222-1.87,5.521-1.904,7.68-0.117c2.217,1.835,2.765,5.106,0.696,7.583
	C-93.367-56.594-92.998-56.243-92.628-55.89z"/>
<path class="st5" d="M-34.468-65.484l2.966,2.98v-2.758c0-0.096-0.055-0.229-0.123-0.297l-3.807-3.826
	c-0.068-0.067-0.178-0.067-0.245,0l-3.93,3.949v2.758c0,0.096,0.055,0.119,0.122,0.051l2.844-2.857
	c0.068-0.068,0.122-0.046,0.122,0.05v7.829h0v2.168c0,0.096-0.055,0.118-0.123,0.05l-2.966-2.98v2.758
	c0,0.096,0.055,0.229,0.123,0.297l3.807,3.826c0.068,0.067,0.178,0.067,0.245,0l3.93-3.949v-2.758c0-0.096-0.055-0.119-0.122-0.051
	l-2.844,2.857c-0.068,0.068-0.122,0.046-0.122-0.05v-7.829h0v-2.168C-34.591-65.53-34.536-65.552-34.468-65.484z"/>
<line class="st18" x1="-70.607" y1="-52.247" x2="-42.774" y2="-52.247"/>
<line class="st18" x1="-70.607" y1="-60.543" x2="-42.774" y2="-60.543"/>
<line class="st18" x1="-70.607" y1="-68.536" x2="-42.774" y2="-68.536"/>
<line class="st18" x1="-56.266" y1="-33.276" x2="-56.266" y2="-12.276"/>
<path class="st5" d="M-48.806-19.433L-48.806-19.433h2.695l-2.603-2.569c-0.138-0.135-0.093-0.245,0.101-0.245h7.006v-1.407
	c0-0.193-0.157-0.35-0.35-0.35h-6.656c-0.194,0-0.239-0.11-0.101-0.246l2.603-2.569h-2.345c-0.193,0-0.462,0.111-0.599,0.246
	l-3.245,3.201c-0.137,0.136-0.137,0.356,0,0.492L-48.806-19.433z"/>
<path class="st5" d="M-64.576-26.644L-64.576-26.644h-2.695l2.603,2.569c0.138,0.135,0.093,0.245-0.101,0.245h-7.006v1.407
	c0,0.193,0.157,0.35,0.35,0.35h6.656c0.194,0,0.239,0.11,0.101,0.246l-2.603,2.569h2.345c0.193,0,0.462-0.111,0.599-0.246
	l3.245-3.201c0.137-0.136,0.137-0.356,0-0.492L-64.576-26.644z"/>
<line class="st19" x1="260.021" y1="-152.389" x2="223.998" y2="-152.389"/>
<path class="st20" d="M251.518-149.243c2.045,0,3.703-1.658,3.703-3.703c0-2.045-1.658-3.703-3.703-3.703
	c-2.045,0-3.703,1.658-3.703,3.703C247.815-150.901,249.473-149.243,251.518-149.243"/>
<g>
	<path class="st5" d="M274.717-152.188c0,3.12-1.82,4.836-4.459,4.836c-0.91,0-1.781-0.195-2.392-0.585l0.624-1.274
		c0.494,0.325,1.092,0.442,1.729,0.442c1.716,0,2.795-1.066,2.795-3.133v-0.014c-0.546,0.638-1.417,0.949-2.431,0.949
		c-1.794,0-3.133-1.092-3.133-2.795c0-1.807,1.469-2.951,3.328-2.951C273.26-156.712,274.717-155.112,274.717-152.188z
		 M272.754-153.852c0-0.858-0.676-1.534-1.885-1.534c-1.053,0-1.781,0.598-1.781,1.547s0.715,1.547,1.82,1.547
		C272-152.292,272.754-152.955,272.754-153.852z"/>
	<path class="st5" d="M282.582-150.277c0,1.599-1.157,2.925-3.602,2.925c-1.287,0-2.587-0.39-3.419-1.053l0.715-1.313
		c0.663,0.546,1.651,0.897,2.678,0.897c1.209,0,1.924-0.533,1.924-1.392c0-0.871-0.559-1.417-2.444-1.417h-2.197l0.468-4.953h5.343
		v1.417h-3.913l-0.195,2.106h0.871C281.503-153.059,282.582-151.889,282.582-150.277z"/>
	<path class="st5" d="M287.001-154.177c0-1.495,0.871-2.496,2.171-2.496s2.184,0.988,2.184,2.496s-0.884,2.496-2.184,2.496
		S287.001-152.682,287.001-154.177z M290.29-154.177c0-1.014-0.416-1.586-1.118-1.586c-0.676,0-1.118,0.585-1.118,1.586
		s0.442,1.586,1.118,1.586C289.874-152.591,290.29-153.163,290.29-154.177z M294.633-156.582h1.274l-6.214,9.101h-1.274
		L294.633-156.582z M292.969-149.887c0-1.495,0.871-2.496,2.171-2.496c1.3,0,2.184,1.001,2.184,2.496s-0.884,2.496-2.184,2.496
		C293.839-147.391,292.969-148.392,292.969-149.887z M296.258-149.887c0-1.001-0.429-1.586-1.118-1.586s-1.118,0.572-1.118,1.586
		c0,1.015,0.429,1.586,1.118,1.586S296.258-148.886,296.258-149.887z"/>
</g>
<rect x="237.958" y="-98.246" class="st11" width="13.149" height="16.764"/>
<polygon class="st21" points="237.957,-81.482 237.957,-81.482 251.106,-81.482 251.106,-98.246 237.957,-98.246 "/>
<rect x="230.286" y="-98.717" class="st9" width="21.291" height="24"/>
<line class="st22" x1="234.783" y1="-90.551" x2="234.783" y2="-80.164"/>
<line class="st23" x1="237.415" y1="-78.275" x2="247.064" y2="-78.275"/>
<path class="st21" d="M247.94-78.275h0.877 M234.783-79.219v0.944h0.877 M234.783-93.384v0.944"/>
<polyline class="st21" points="230.756,-90.295 230.756,-75.187 244.79,-75.187 "/>
<rect x="230.286" y="-98.717" class="st9" width="21.291" height="24"/>
<rect x="269.532" y="-98.315" class="st11" width="14.674" height="18.705"/>
<polygon class="st24" points="269.532,-79.61 269.532,-79.61 284.205,-79.61 284.205,-98.315 269.532,-98.315 "/>
<rect x="269.13" y="-98.717" class="st9" width="19.884" height="24"/>
<rect x="273.939" y="-93.824" class="st5" width="14.674" height="18.705"/>
<polygon class="st25" points="273.938,-75.119 273.938,-75.119 288.611,-75.119 288.611,-93.824 273.938,-93.824 "/>
<rect x="269.13" y="-98.717" class="st9" width="19.884" height="24"/>
<rect x="170.639" y="-94.768" class="st10" width="34.924" height="19.551"/>
<text transform="matrix(1 0 0 1 177.6392 -80.1163)"><tspan x="0" y="0" class="st11" style="font-family:'Montserrat-Regular'; font-size:13px;">e</tspan><tspan x="7.41" y="0" class="st11" style="font-family:'Montserrat-Regular'; font-size:13px;">i</tspan><tspan x="10.335" y="0" class="st11" style="font-family:'Montserrat-Regular'; font-size:13px;">n</tspan></text>
<polygon class="st6" points="135.631,-94.893 135.631,-74.893 135.631,-74.643 135.881,-74.643 204.73,-74.643 204.98,-74.643 
	204.98,-74.893 204.98,-94.893 204.98,-95.143 204.73,-95.143 135.881,-95.143 135.631,-95.143 "/>
<rect x="135.381" y="-95.393" class="st9" width="70.183" height="21"/>
<line class="st26" x1="276.695" y1="-5.254" x2="276.695" y2="19.006"/>
<path class="st5" d="M284.792,10.565L284.792,10.565h2.592l-2.494-2.46c-0.138-0.135-0.093-0.245,0.101-0.245h6.725V6.521
	c0-0.193-0.157-0.35-0.35-0.35h-6.725l2.743-2.705h-2.242c-0.193,0-0.462,0.11-0.599,0.245l-3.102,3.059
	c-0.137,0.135-0.137,0.355,0,0.491L284.792,10.565z"/>
<line class="st26" x1="249.75" y1="18.839" x2="249.75" y2="-5.421"/>
<path class="st5" d="M241.653,3.021L241.653,3.021h-2.592l2.494,2.46c0.138,0.135,0.093,0.245-0.101,0.245h-6.725v1.339
	c0,0.193,0.157,0.35,0.35,0.35h6.725l-2.743,2.705h2.242c0.193,0,0.462-0.11,0.599-0.245l3.102-3.059
	c0.137-0.135,0.137-0.355,0-0.491L241.653,3.021z"/>
<line class="st26" x1="60.008" y1="2.618" x2="84.268" y2="2.618"/>
<path class="st5" d="M75.659-5.44L75.659-5.44v-2.592l-2.46,2.494c-0.135,0.138-0.245,0.093-0.245-0.101v-6.725h-1.339
	c-0.193,0-0.35,0.157-0.35,0.35v6.725L68.56-8.032v2.242c0,0.193,0.11,0.462,0.245,0.599l3.059,3.102
	c0.135,0.137,0.355,0.137,0.491,0L75.659-5.44z"/>
<path class="st5" d="M68.727,9.712L68.727,9.712v2.592l2.46-2.494c0.135-0.138,0.245-0.093,0.245,0.101v6.725h1.339
	c0.193,0,0.35-0.157,0.35-0.35V9.561l2.705,2.743v-2.242c0-0.193-0.11-0.462-0.245-0.599l-3.059-3.102
	c-0.135-0.137-0.355-0.137-0.491,0L68.727,9.712z"/>
<line class="st26" x1="116.454" y1="15.428" x2="116.454" y2="-8.832"/>
<path class="st5" d="M108.396-0.223L108.396-0.223h-2.592l2.494,2.46c0.138,0.135,0.093,0.245-0.101,0.245h-6.725v1.339
	c0,0.193,0.157,0.35,0.35,0.35h6.725l-2.743,2.705h2.242c0.193,0,0.462-0.11,0.599-0.245l3.102-3.059
	c0.137-0.135,0.137-0.355,0-0.491L108.396-0.223z"/>
<path class="st5" d="M123.548,6.709L123.548,6.709h2.592l-2.494-2.46c-0.138-0.135-0.093-0.245,0.101-0.245h6.725V2.665
	c0-0.193-0.157-0.35-0.35-0.35h-6.725l2.743-2.705h-2.242c-0.193,0-0.462,0.11-0.599,0.245l-3.102,3.059
	c-0.137,0.135-0.137,0.355,0,0.491L123.548,6.709z"/>
<line class="st26" x1="148.595" y1="2.901" x2="172.855" y2="2.901"/>
<path class="st5" d="M157.314,9.995L157.314,9.995v2.592l2.46-2.494c0.135-0.138,0.245-0.093,0.245,0.101v6.725h1.339
	c0.193,0,0.35-0.157,0.35-0.35V9.844l2.705,2.743v-2.242c0-0.193-0.11-0.462-0.245-0.599l-3.059-3.102
	c-0.135-0.137-0.355-0.137-0.491,0L157.314,9.995z"/>
<line class="st26" x1="193.707" y1="14.156" x2="217.967" y2="14.156"/>
<path class="st5" d="M209.525,5.768L209.525,5.768V3.176l-2.46,2.494c-0.135,0.138-0.245,0.093-0.245-0.101v-6.725h-1.339
	c-0.193,0-0.35,0.157-0.35,0.35v6.725l-2.705-2.743v2.242c0,0.193,0.11,0.462,0.245,0.599l3.059,3.102
	c0.135,0.137,0.355,0.137,0.491,0L209.525,5.768z"/>
<rect x="339.57" y="-12.77" class="st11" width="15.769" height="20.056"/>
<line class="st27" x1="342.527" y1="7.287" x2="353.368" y2="7.287"/>
<line class="st28" x1="355.339" y1="4.278" x2="355.339" y2="-10.764"/>
<line class="st27" x1="352.383" y1="-12.77" x2="341.542" y2="-12.77"/>
<line class="st28" x1="339.57" y1="-9.761" x2="339.57" y2="5.281"/>
<path class="st21" d="M339.57,6.284v1.003h0.986 M340.556-12.769h-0.986v1.003 M355.339-11.766v-1.003h-0.985 M354.354,7.287h0.985
	V6.284"/>
<polygon class="st11" points="328.334,17.287 328.334,17.287 344.103,17.287 344.103,-2.769 328.334,-2.769 "/>
<line class="st27" x1="331.291" y1="17.287" x2="342.132" y2="17.287"/>
<line class="st28" x1="344.103" y1="14.278" x2="344.103" y2="-0.764"/>
<line class="st27" x1="341.147" y1="-2.77" x2="330.306" y2="-2.77"/>
<line class="st28" x1="328.334" y1="0.239" x2="328.334" y2="15.281"/>
<path class="st21" d="M328.334,16.284v1.003h0.986 M329.32-2.769h-0.986v1.003 M344.103-1.766v-1.003h-0.985 M343.118,17.287h0.985
	v-1.003"/>
<polygon class="st11" points="318.86,25.287 318.86,25.287 334.629,25.287 334.629,5.231 318.86,5.231 "/>
<polygon class="st21" points="318.86,25.287 318.86,25.287 334.629,25.287 334.629,5.231 318.86,5.231 "/>
<g>
	<polygon class="st11" points="392.697,11.592 392.697,11.592 408.466,11.592 408.466,-8.464 392.697,-8.464 	"/>
	<polygon class="st21" points="392.697,11.592 392.697,11.592 408.466,11.592 408.466,-8.464 392.697,-8.464 	"/>
	<line class="st29" x1="388.933" y1="0.091" x2="388.933" y2="13.595"/>
	<line class="st30" x1="392.07" y1="15.396" x2="403.573" y2="15.396"/>
	<path class="st21" d="M404.618,15.395h1.046 M388.933,14.495v0.9h1.046 M388.933-2.61v0.9"/>
</g>
<g>
	<g>
		<rect x="465.237" y="-20.184" class="st11" width="15.769" height="20.056"/>
		<polygon class="st21" points="465.236,-0.128 465.236,-0.128 481.005,-0.128 481.005,-20.184 465.236,-20.184 		"/>
		<polygon class="st11" points="454,9.872 454,9.872 469.769,9.872 469.769,-10.184 454,-10.184 		"/>
		<line class="st27" x1="456.957" y1="9.872" x2="467.798" y2="9.872"/>
		<line class="st28" x1="469.769" y1="6.863" x2="469.769" y2="-8.179"/>
		<line class="st27" x1="466.813" y1="-10.184" x2="455.972" y2="-10.184"/>
		<line class="st28" x1="454" y1="-7.176" x2="454" y2="7.866"/>
		<path class="st21" d="M454,8.869v1.003h0.986 M454.986-10.184H454v1.003 M469.769-9.181v-1.003h-0.985 M468.784,9.872h0.985V8.869
			"/>
		<polygon class="st11" points="444.527,17.872 444.527,17.872 460.296,17.872 460.296,-2.184 444.527,-2.184 		"/>
		<line class="st27" x1="447.484" y1="17.872" x2="458.325" y2="17.872"/>
		<line class="st28" x1="460.296" y1="14.863" x2="460.296" y2="-0.179"/>
		<line class="st27" x1="457.339" y1="-2.184" x2="446.498" y2="-2.184"/>
		<line class="st28" x1="444.527" y1="0.824" x2="444.527" y2="15.866"/>
		<path class="st21" d="M444.526,16.869v1.003h0.986 M445.512-2.184h-0.986v1.003 M460.295-1.181v-1.003h-0.985 M459.31,17.872
			h0.985v-1.003"/>
	</g>
	<line class="st27" x1="520.65" y1="13.357" x2="531.491" y2="13.357"/>
	<line class="st28" x1="533.462" y1="10.349" x2="533.462" y2="-4.693"/>
	<line class="st27" x1="530.506" y1="-6.699" x2="519.665" y2="-6.699"/>
	<line class="st28" x1="517.693" y1="-3.691" x2="517.693" y2="11.351"/>
	<path class="st21" d="M517.693,12.354v1.003h0.986 M518.679-6.699h-0.986v1.003 M533.462-5.696v-1.003h-0.985 M532.477,13.357
		h0.985v-1.003"/>
	<polyline class="st21" points="513.929,-0.845 513.929,17.16 530.66,17.16 	"/>
</g>
<g>
	<defs>
		<rect id="SVGID_1_" x="-241.346" y="107.193" width="241.682" height="1"/>
	</defs>
	<clipPath id="SVGID_00000129190915457008691110000004942259751313566345_">
		<use xlink:href="#SVGID_1_"  style="overflow:visible;"/>
	</clipPath>
	
		<line style="clip-path:url(#SVGID_00000129190915457008691110000004942259751313566345_);fill:none;stroke:#B2B2B2;stroke-linecap:round;stroke-linejoin:round;stroke-dasharray:0,3.009;" x1="-237.837" y1="107.693" x2="-1.667" y2="107.693"/>
	
		<path style="clip-path:url(#SVGID_00000129190915457008691110000004942259751313566345_);fill:none;stroke:#B2B2B2;stroke-linecap:round;stroke-linejoin:round;" d="
		M-0.164,107.693L-0.164,107.693 M-240.846,107.693L-240.846,107.693"/>
</g>
<circle class="st33" cx="-194.448" cy="-113.518" r="12.75"/>
<polygon class="st3" points="-51.055,-128.541 -64.055,-128.541 -57.687,-118.066 "/>
<polygon class="st5" points="-43.031,0 -53.506,6.368 -43.031,13 "/>
<polygon class="st5" points="-72.078,13 -61.603,6.632 -72.078,0 "/>
<polygon class="st5" points="10.475,0 0,6.368 10.475,13 "/>
<polygon class="st5" points="-24.702,13 -14.227,6.632 -24.702,0 "/>
<rect x="135.548" y="-128.531" class="st10" width="34.924" height="19.551"/>
<polygon class="st6" points="135.798,-128.656 135.798,-108.656 135.798,-108.406 136.048,-108.406 204.897,-108.406 
	205.147,-108.406 205.147,-108.656 205.147,-128.656 205.147,-128.906 204.897,-128.906 136.048,-128.906 135.798,-128.906 "/>
<rect x="135.548" y="-129.156" class="st9" width="69.849" height="21"/>
<rect x="170.912" y="-62.502" class="st10" width="34.924" height="19.551"/>
<polygon class="st6" points="135.904,-62.627 135.904,-42.627 135.904,-42.377 136.154,-42.377 205.002,-42.377 205.252,-42.377 
	205.252,-42.627 205.252,-62.627 205.252,-62.877 205.002,-62.877 136.154,-62.877 135.904,-62.877 "/>
<rect x="135.654" y="-63.127" class="st9" width="70.183" height="21"/>
<line class="st19" x1="258.943" y1="-132.601" x2="222.92" y2="-132.601"/>
<path class="st20" d="M250.44-129.455c2.045,0,3.703-1.658,3.703-3.703s-1.658-3.703-3.703-3.703c-2.045,0-3.703,1.658-3.703,3.703
	S248.395-129.455,250.44-129.455"/>
<line class="st19" x1="567.267" y1="-101.822" x2="531.244" y2="-101.822"/>
<path class="st20" d="M558.764-98.676c2.045,0,3.703-1.658,3.703-3.703s-1.658-3.703-3.703-3.703s-3.703,1.658-3.703,3.703
	S556.719-98.676,558.764-98.676"/>
</svg>
