<?xml version="1.0" encoding="utf-8"?>
<!-- Generator: Adobe Illustrator 26.0.3, SVG Export Plug-In . SVG Version: 6.00 Build 0)  -->
<svg version="1.1" id="Ebene_1" xmlns="http://www.w3.org/2000/svg" xmlns:xlink="http://www.w3.org/1999/xlink" x="0px" y="0px"
	 width="10.475px" height="13px" viewBox="0 0 10.475 13" style="enable-background:new 0 0 10.475 13;" xml:space="preserve">
<style type="text/css">
	.st0{fill:none;stroke:#C5C5C5;stroke-width:3;stroke-linecap:round;stroke-linejoin:round;}
	.st1{fill:#FFAEFF;stroke:#4F4D4D;stroke-width:0.5;}
	.st2{fill:#F8F8F8;}
	.st3{fill:#0E689A;}
	.st4{fill:none;stroke:#B2B1B1;stroke-width:0.65;stroke-miterlimit:10;}
	.st5{fill:#B2B1B1;}
	.st6{fill:none;stroke:#B2B2B2;stroke-width:0.5;stroke-miterlimit:10;}
	.st7{fill:none;stroke:#B2B1B1;stroke-width:0.3;stroke-miterlimit:10;}
	.st8{fill:none;stroke:#FFFFFF;stroke-width:0.021;}
	.st9{fill:none;}
	.st10{fill:#0E6899;}
	.st11{fill:#FFFFFF;}
	.st12{fill:none;stroke:#C5C5C5;stroke-width:0.5;stroke-linecap:round;stroke-linejoin:round;}
	.st13{fill:#C5C5C5;}
	.st14{fill:none;stroke:#B2B1B1;stroke-width:0.5;}
	.st15{fill:none;stroke:#B2B1B1;stroke-width:1.2;}
	.st16{fill:#B2B2B2;}
	.st17{fill:none;stroke:#FFFFFF;stroke-width:0.001;}
	.st18{fill:none;stroke:#B2B1B1;stroke-width:1.712;}
	.st19{fill:none;stroke:#B2B1B1;stroke-width:2;}
	.st20{fill:#AD5E7A;}
	.st21{fill:none;stroke:#B2B1B1;stroke-width:0.941;}
	.st22{fill:none;stroke:#B2B1B1;stroke-width:0.941;stroke-dasharray:1.889,1.889;}
	.st23{fill:none;stroke:#B2B1B1;stroke-width:0.941;stroke-dasharray:1.754,1.754;}
	.st24{fill:none;stroke:#B2B1B1;stroke-width:0.804;}
	.st25{fill:none;stroke:#FFFFFF;stroke-width:0.804;}
	.st26{fill:none;stroke:#B2B1B1;stroke-width:2.5;}
	.st27{fill:none;stroke:#B2B1B1;stroke-width:0.941;stroke-dasharray:1.971,1.971;}
	.st28{fill:none;stroke:#B2B1B1;stroke-width:0.941;stroke-dasharray:2.006,2.006;}
	.st29{fill:none;stroke:#B2B1B1;stroke-width:0.941;stroke-dasharray:1.801,1.801;}
	.st30{fill:none;stroke:#B2B1B1;stroke-width:0.941;stroke-dasharray:2.091,2.091;}
	
		.st31{clip-path:url(#SVGID_00000040567976842293683990000002681566578843925123_);fill:none;stroke:#B2B2B2;stroke-linecap:round;stroke-linejoin:round;stroke-dasharray:0,3.009;}
	
		.st32{clip-path:url(#SVGID_00000040567976842293683990000002681566578843925123_);fill:none;stroke:#B2B2B2;stroke-linecap:round;stroke-linejoin:round;}
	.st33{fill:none;stroke:#4F4D4D;stroke-width:0.5;}
</style>
<polyline class="st0" points="1822.147,813.138 1815.897,804.138 1809.147,813.138 "/>
<circle class="st1" cx="-169.746" cy="-149.611" r="12.75"/>
<rect x="-137.285" y="-160.626" class="st2" width="119.902" height="21"/>
<polygon class="st3" points="-26.456,-155.363 -39.456,-155.363 -33.088,-144.888 "/>
<g>
	<g>
		<line class="st4" x1="86.556" y1="-143.105" x2="96.839" y2="-143.105"/>
		<g>
			<path class="st5" d="M87.844-148.331v-5.175h1.3v5.122c0,2.016,0.923,2.926,2.561,2.926c1.638,0,2.574-0.91,2.574-2.926v-5.122
				h1.261v5.175c0,2.639-1.443,4.029-3.848,4.029C89.3-144.302,87.844-145.692,87.844-148.331z"/>
		</g>
	</g>
	<polygon class="st6" points="78.448,-161.306 78.448,-135.306 78.448,-135.056 78.698,-135.056 104.698,-135.056 104.948,-135.056 
		104.948,-135.306 104.948,-161.306 104.948,-161.556 104.698,-161.556 78.698,-161.556 78.448,-161.556 	"/>
</g>
<g>
	<g>
		<path class="st5" d="M57.094-153.232h1.3l-1.82,9.101h-1.3L57.094-153.232z"/>
	</g>
	<polygon class="st6" points="43.584,-161.682 43.584,-135.682 43.584,-135.432 43.834,-135.432 69.834,-135.432 70.084,-135.432 
		70.084,-135.682 70.084,-161.682 70.084,-161.932 69.834,-161.932 43.834,-161.932 43.584,-161.932 	"/>
</g>
<g>
	<g>
		<path class="st5" d="M23.946-146.563c0,1.573-1.248,2.483-3.64,2.483H15.6v-9.101h4.446c2.275,0,3.445,0.949,3.445,2.366
			c0,0.91-0.468,1.612-1.209,2.002C23.296-148.487,23.946-147.707,23.946-146.563z M17.693-151.594v2.146h2.093
			c1.027,0,1.586-0.364,1.586-1.079s-0.559-1.066-1.586-1.066H17.693z M21.827-146.784c0-0.767-0.585-1.131-1.677-1.131h-2.457
			v2.249h2.457C21.242-145.666,21.827-146.004,21.827-146.784z"/>
	</g>
	<polygon class="st6" points="6.523,-161.63 6.523,-135.63 6.523,-135.38 6.773,-135.38 32.773,-135.38 33.023,-135.38 
		33.023,-135.63 33.023,-161.63 33.023,-161.88 32.773,-161.88 6.773,-161.88 6.523,-161.88 	"/>
</g>
<path class="st7" d="M60.711-119.676"/>
<path class="st7" d="M58.203-118.423"/>
<path class="st7" d="M58.203-117.169"/>
<path class="st7" d="M58.203-115.914"/>
<path class="st7" d="M60.711-114.66"/>
<path class="st7" d="M60.711-113.406"/>
<path class="st7" d="M58.203-112.153"/>
<path class="st7" d="M58.203-109.645"/>
<path class="st7" d="M60.711-107.137"/>
<g>
	<path class="st7" d="M41.246-114.66"/>
	<path class="st7" d="M41.246-119.676"/>
	<path class="st7" d="M41.246-107.137"/>
	<path class="st7" d="M41.246-113.406"/>
	<g>
		<path class="st7" d="M43.308-112.153"/>
		<path class="st7" d="M43.308-115.914"/>
		<path class="st7" d="M43.308-117.169"/>
		<path class="st7" d="M43.308-118.423"/>
		<line class="st7" x1="40.871" y1="-107.932" x2="60.335" y2="-107.932"/>
		<line class="st7" x1="40.871" y1="-109.207" x2="55.765" y2="-109.207"/>
		<line class="st7" x1="40.871" y1="-110.483" x2="55.765" y2="-110.483"/>
		<line class="st7" x1="40.871" y1="-111.759" x2="55.765" y2="-111.759"/>
		<line class="st7" x1="40.871" y1="-113.035" x2="60.335" y2="-113.035"/>
		<line class="st7" x1="40.871" y1="-114.311" x2="60.335" y2="-114.311"/>
		<line class="st7" x1="40.944" y1="-115.587" x2="55.838" y2="-115.587"/>
		<line class="st7" x1="40.871" y1="-116.863" x2="60.335" y2="-116.863"/>
		<line class="st7" x1="40.871" y1="-118.139" x2="55.765" y2="-118.139"/>
		<line class="st7" x1="40.871" y1="-119.415" x2="55.765" y2="-119.415"/>
		<line class="st7" x1="40.871" y1="-120.691" x2="60.335" y2="-120.691"/>
	</g>
	<polygon class="st6" points="37.544,-126.986 37.544,-100.993 37.544,-100.743 37.794,-100.743 63.787,-100.743 64.037,-100.743 
		64.037,-100.993 64.037,-126.986 64.037,-127.236 63.787,-127.236 37.794,-127.236 37.544,-127.236 	"/>
</g>
<g>
	<g>
		<line class="st7" x1="91.591" y1="-120.374" x2="72.127" y2="-120.374"/>
		<line class="st7" x1="89.083" y1="-119.097" x2="74.189" y2="-119.097"/>
		<line class="st7" x1="89.083" y1="-117.82" x2="74.189" y2="-117.82"/>
		<line class="st7" x1="89.083" y1="-116.543" x2="74.189" y2="-116.543"/>
		<line class="st7" x1="91.591" y1="-115.266" x2="72.127" y2="-115.266"/>
		<line class="st7" x1="91.591" y1="-113.989" x2="72.127" y2="-113.989"/>
		<line class="st7" x1="89.083" y1="-112.712" x2="74.189" y2="-112.712"/>
		<line class="st7" x1="91.591" y1="-111.435" x2="72.127" y2="-111.435"/>
		<line class="st7" x1="89.083" y1="-110.158" x2="74.189" y2="-110.158"/>
		<line class="st7" x1="89.083" y1="-108.881" x2="74.189" y2="-108.881"/>
		<line class="st7" x1="91.591" y1="-107.604" x2="72.127" y2="-107.604"/>
	</g>
	<polygon class="st6" points="68.612,-126.986 68.612,-100.993 68.612,-100.743 68.862,-100.743 94.855,-100.743 95.105,-100.743 
		95.105,-100.993 95.105,-126.986 95.105,-127.236 94.855,-127.236 68.862,-127.236 68.612,-127.236 	"/>
</g>
<polygon class="st6" points="99.681,-126.986 99.681,-100.993 99.681,-100.743 99.931,-100.743 125.924,-100.743 126.174,-100.743 
	126.174,-100.993 126.174,-126.986 126.174,-127.236 125.924,-127.236 99.931,-127.236 99.681,-127.236 "/>
<path class="st7" d="M103.008-108.301"/>
<path class="st7" d="M103.008-113.318"/>
<path class="st7" d="M103.008-114.571"/>
<path class="st7" d="M103.008-120.841"/>
<path class="st7" d="M120.41-115.825"/>
<path class="st7" d="M122.472-113.318"/>
<path class="st7" d="M120.41-112.064"/>
<path class="st7" d="M122.472-108.301"/>
<path class="st7" d="M122.472-120.841"/>
<path class="st7" d="M122.472-114.571"/>
<path class="st7" d="M120.41-110.809"/>
<path class="st7" d="M120.41-109.555"/>
<g>
	<path class="st7" d="M105.327-109.878"/>
	<path class="st7" d="M105.327-111.132"/>
	<path class="st7" d="M105.327-112.386"/>
	<path class="st7" d="M105.327-116.148"/>
	<path class="st7" d="M105.327-118.656"/>
	<line class="st7" x1="122.66" y1="-120.368" x2="103.195" y2="-120.368"/>
	<line class="st7" x1="122.66" y1="-119.093" x2="107.765" y2="-119.093"/>
	<line class="st7" x1="122.66" y1="-117.817" x2="107.765" y2="-117.817"/>
	<line class="st7" x1="122.66" y1="-116.541" x2="107.765" y2="-116.541"/>
	<line class="st7" x1="122.66" y1="-115.265" x2="103.195" y2="-115.265"/>
	<line class="st7" x1="122.66" y1="-113.989" x2="103.195" y2="-113.989"/>
	<line class="st7" x1="122.586" y1="-112.713" x2="107.692" y2="-112.713"/>
	<line class="st7" x1="122.66" y1="-111.437" x2="103.195" y2="-111.437"/>
	<line class="st7" x1="122.66" y1="-110.161" x2="107.765" y2="-110.161"/>
	<line class="st7" x1="122.66" y1="-108.885" x2="107.765" y2="-108.885"/>
	<line class="st7" x1="122.66" y1="-107.61" x2="103.195" y2="-107.61"/>
</g>
<polygon class="st6" points="6.773,-126.979 6.773,-100.986 6.773,-100.736 7.023,-100.736 33.016,-100.736 33.266,-100.736 
	33.266,-100.986 33.266,-126.979 33.266,-127.229 33.016,-127.229 7.023,-127.229 6.773,-127.229 "/>
<path class="st7" d="M29.939-119.676"/>
<path class="st7" d="M29.939-114.66"/>
<path class="st7" d="M29.939-113.406"/>
<path class="st7" d="M29.939-107.137"/>
<path class="st7" d="M12.537-112.153"/>
<path class="st7" d="M10.475-114.66"/>
<path class="st7" d="M12.537-115.914"/>
<path class="st7" d="M10.475-119.676"/>
<path class="st7" d="M10.475-107.137"/>
<path class="st7" d="M10.475-113.406"/>
<path class="st7" d="M12.537-117.169"/>
<path class="st7" d="M12.537-118.423"/>
<g>
	<path class="st7" d="M27.431-118.423"/>
	<path class="st7" d="M27.431-117.169"/>
	<path class="st7" d="M27.431-115.914"/>
	<path class="st7" d="M27.431-112.153"/>
	<path class="st7" d="M27.431-109.645"/>
	<line class="st7" x1="10.099" y1="-107.932" x2="29.563" y2="-107.932"/>
	<line class="st7" x1="10.099" y1="-109.207" x2="29.563" y2="-109.207"/>
	<line class="st7" x1="10.099" y1="-110.483" x2="29.563" y2="-110.483"/>
	<line class="st7" x1="10.099" y1="-111.759" x2="29.563" y2="-111.759"/>
	<line class="st7" x1="10.099" y1="-113.035" x2="29.563" y2="-113.035"/>
	<line class="st7" x1="10.099" y1="-114.311" x2="29.563" y2="-114.311"/>
	<line class="st7" x1="10.173" y1="-115.587" x2="29.637" y2="-115.587"/>
	<line class="st7" x1="10.099" y1="-116.863" x2="29.563" y2="-116.863"/>
	<line class="st7" x1="10.099" y1="-118.139" x2="29.563" y2="-118.139"/>
	<line class="st7" x1="10.099" y1="-119.415" x2="29.563" y2="-119.415"/>
	<line class="st7" x1="10.099" y1="-120.691" x2="29.563" y2="-120.691"/>
</g>
<path class="st5" d="M-162.784-11.83l-1.915,13.335c-0.058,0.402-0.431,0.682-0.834,0.624c-0.402-0.058-0.682-0.431-0.624-0.833
	l1.915-13.336c0.058-0.402,0.431-0.681,0.834-0.623C-163.006-12.605-162.726-12.233-162.784-11.83 M-169.601,2.245
	c-0.407,0.003-0.74-0.324-0.742-0.73l-0.106-13.472c-0.003-0.407,0.324-0.739,0.73-0.742c0.408-0.003,0.74,0.324,0.743,0.731
	l0.105,13.471C-168.868,1.91-169.195,2.242-169.601,2.245 M-173.672,2.192c-0.401,0.064-0.779-0.209-0.842-0.61l-2.124-13.304
	c-0.064-0.402,0.209-0.779,0.612-0.843c0.401-0.064,0.778,0.209,0.842,0.611l2.123,13.303
	C-172.997,1.751-173.27,2.128-173.672,2.192 M-159.889-14.216c-0.141-0.169-0.353-0.266-0.573-0.264L-179-14.336
	c-0.22,0.002-0.429,0.101-0.568,0.272c-0.14,0.17-0.196,0.393-0.155,0.609l3.092,16.141c0.068,0.351,0.376,0.605,0.734,0.602
	L-163.4,3.19c0.356-0.002,0.66-0.258,0.724-0.608l2.949-16.188C-159.687-13.822-159.748-14.047-159.889-14.216"/>
<path class="st8" d="M-162.784-11.83l-1.915,13.335c-0.058,0.402-0.431,0.682-0.834,0.624c-0.402-0.058-0.682-0.431-0.624-0.833
	l1.915-13.336c0.058-0.402,0.431-0.681,0.834-0.623C-163.006-12.605-162.726-12.233-162.784-11.83z M-169.601,2.245
	c-0.407,0.003-0.74-0.324-0.742-0.73l-0.106-13.472c-0.003-0.407,0.324-0.739,0.73-0.742c0.408-0.003,0.74,0.324,0.743,0.731
	l0.105,13.471C-168.868,1.91-169.195,2.242-169.601,2.245z M-173.672,2.192c-0.401,0.064-0.779-0.209-0.842-0.61l-2.124-13.304
	c-0.064-0.402,0.209-0.779,0.612-0.843c0.401-0.064,0.778,0.209,0.842,0.611l2.123,13.303
	C-172.997,1.751-173.27,2.128-173.672,2.192z M-159.889-14.216c-0.141-0.169-0.353-0.266-0.573-0.264L-179-14.336
	c-0.22,0.002-0.429,0.101-0.568,0.272c-0.14,0.17-0.196,0.393-0.155,0.609l3.092,16.141c0.068,0.351,0.376,0.605,0.734,0.602
	L-163.4,3.19c0.356-0.002,0.66-0.258,0.724-0.608l2.949-16.188C-159.687-13.822-159.748-14.047-159.889-14.216z"/>
<path class="st5" d="M-172.577-18.824L-172.577-18.824l-0.004-0.421l5.49-0.043l0.004,0.421L-172.577-18.824z M-158.84-17.414
	L-158.84-17.414l-2.025,0.016l-0.009-1.171c-0.001-0.091-0.038-0.18-0.103-0.244c-0.065-0.064-0.155-0.1-0.246-0.1l-4.467,0.035
	l-0.009-1.12c-0.002-0.184-0.077-0.363-0.209-0.492c-0.131-0.13-0.311-0.203-0.495-0.201l-6.887,0.054
	c-0.183,0.001-0.363,0.077-0.492,0.208s-0.202,0.312-0.2,0.496l0.009,1.12l-4.164,0.032c-0.091,0.001-0.18,0.039-0.243,0.104
	c-0.065,0.065-0.101,0.154-0.101,0.246l0.009,1.171l-2.197,0.017l0.017,2.225l21.829-0.17L-158.84-17.414z"/>
<path class="st8" d="M-172.577-18.824L-172.577-18.824l-0.004-0.421l5.49-0.043l0.004,0.421L-172.577-18.824z M-158.84-17.414
	L-158.84-17.414l-2.025,0.016l-0.009-1.171c-0.001-0.091-0.038-0.18-0.103-0.244c-0.065-0.064-0.155-0.1-0.246-0.1l-4.467,0.035
	l-0.009-1.12c-0.002-0.184-0.077-0.363-0.209-0.492c-0.131-0.13-0.311-0.203-0.495-0.201l-6.887,0.054
	c-0.183,0.001-0.363,0.077-0.492,0.208s-0.202,0.312-0.2,0.496l0.009,1.12l-4.164,0.032c-0.091,0.001-0.18,0.039-0.243,0.104
	c-0.065,0.065-0.101,0.154-0.101,0.246l0.009,1.171l-2.197,0.017l0.017,2.225l21.829-0.17L-158.84-17.414z"/>
<rect x="-180.68" y="-20.702" class="st9" width="21.868" height="24"/>
<rect x="160.25" y="-161.469" class="st10" width="34.924" height="19.551"/>
<g>
	<path class="st11" d="M173.227-151.056v4.238h-0.884v-1.066c-0.416,0.702-1.222,1.132-2.354,1.132
		c-1.547,0-2.496-0.807-2.496-1.989c0-1.054,0.676-1.938,2.639-1.938h2.171v-0.416c0-1.17-0.663-1.807-1.938-1.807
		c-0.884,0-1.716,0.312-2.275,0.806l-0.416-0.688c0.689-0.585,1.703-0.924,2.782-0.924
		C172.226-153.709,173.227-152.824,173.227-151.056z M172.304-148.872v-1.118h-2.146c-1.326,0-1.755,0.52-1.755,1.222
		c0,0.793,0.637,1.287,1.729,1.287C171.173-147.481,171.94-147.975,172.304-148.872z"/>
	<path class="st11" d="M181.326-153.656v6.838h-0.884v-1.248c-0.481,0.832-1.365,1.313-2.458,1.313
		c-1.742,0-2.886-0.976-2.886-2.938v-3.965h0.923v3.874c0,1.456,0.754,2.197,2.054,2.197c1.43,0,2.327-0.924,2.327-2.483v-3.588
		H181.326z"/>
	<path class="st11" d="M182.625-147.598l0.416-0.728c0.546,0.429,1.469,0.767,2.431,0.767c1.3,0,1.833-0.441,1.833-1.118
		c0-1.78-4.433-0.377-4.433-3.081c0-1.118,0.962-1.95,2.704-1.95c0.884,0,1.846,0.247,2.418,0.638l-0.403,0.74
		c-0.598-0.416-1.313-0.585-2.015-0.585c-1.235,0-1.781,0.481-1.781,1.132c0,1.846,4.434,0.455,4.434,3.081
		c0,1.183-1.04,1.95-2.821,1.95C184.277-146.753,183.184-147.117,182.625-147.598z"/>
</g>
<polygon class="st6" points="160.5,-161.594 160.5,-141.594 160.5,-141.344 160.75,-141.344 229.599,-141.344 229.849,-141.344 
	229.849,-141.594 229.849,-161.594 229.849,-161.844 229.599,-161.844 160.75,-161.844 160.5,-161.844 "/>
<rect x="160.25" y="-162.094" class="st9" width="69.849" height="21"/>
<rect x="-244.147" y="45.236" class="st11" width="1014" height="21"/>
<path class="st3" d="M383.014,45.236c-2.209,0-4,1.791-4,4v12.382c0,2.209,1.791,4,4,4h77.131c2.209,0,4-1.791,4-4V49.236
	c0-2.209-1.791-4-4-4H383.014z"/>
<rect x="-243.897" y="45.486" class="st12" width="1013.5" height="20.5"/>
<path class="st13" d="M753.708,48.096v1.481c0,0.397,0.187,0.771,0.505,1.009l6.367,4.762c0.258,0.194,0.258,0.583,0,0.776
	l-6.367,4.762c-0.318,0.238-0.505,0.612-0.505,1.01v1.48c0,0.41,0.467,0.644,0.795,0.399l10.111-7.563
	c0.318-0.237,0.318-0.714,0-0.952l-10.11-7.562C754.175,47.452,753.708,47.687,753.708,48.096"/>
<path class="st13" d="M-228.295,63.376v-1.481c0-0.397-0.187-0.771-0.505-1.009l-6.367-4.762c-0.258-0.194-0.258-0.583,0-0.776
	l6.367-4.762c0.318-0.238,0.505-0.612,0.505-1.01v-1.48c0-0.41-0.467-0.644-0.795-0.399l-10.111,7.563
	c-0.318,0.237-0.318,0.714,0,0.952l10.11,7.562C-228.762,64.02-228.295,63.785-228.295,63.376"/>
<rect x="-244.147" y="45.236" class="st9" width="1014" height="21"/>
<rect x="811.625" y="-199.31" class="st11" width="21" height="702.123"/>
<path class="st3" d="M811.625,214.652c0,2.209,1.791,4,4,4h12.382c2.209,0,4-1.791,4-4v-78.286c0-2.209-1.791-4-4-4h-12.382
	c-2.209,0-4,1.791-4,4V214.652z"/>
<rect x="811.875" y="-199.061" class="st12" width="20.5" height="701.624"/>
<path class="st13" d="M814.485-185.775h1.481c0.397,0,0.771-0.19,1.009-0.512l4.762-6.453c0.194-0.262,0.583-0.262,0.776,0
	l4.762,6.453c0.238,0.322,0.612,0.512,1.01,0.512h1.48c0.41,0,0.644-0.474,0.399-0.806l-7.563-10.248
	c-0.237-0.322-0.714-0.322-0.952,0l-7.562,10.248C813.841-186.249,814.076-185.775,814.485-185.775"/>
<path class="st13" d="M829.765,488.477h-1.481c-0.397,0-0.771,0.19-1.009,0.512l-4.762,6.453c-0.194,0.262-0.583,0.262-0.776,0
	l-4.762-6.453c-0.238-0.322-0.612-0.512-1.01-0.512h-1.48c-0.41,0-0.644,0.474-0.399,0.806l7.563,10.248
	c0.237,0.322,0.714,0.322,0.952,0l7.562-10.248C830.409,488.951,830.174,488.477,829.765,488.477"/>
<rect x="811.625" y="-199.311" class="st9" width="21" height="702.124"/>
<g>
	<g>
		<line class="st7" x1="90.651" y1="-76.331" x2="77.634" y2="-76.331"/>
		<line class="st7" x1="90.651" y1="-86.507" x2="77.634" y2="-86.507"/>
		<line class="st7" x1="90.651" y1="-81.419" x2="77.634" y2="-81.419"/>
		<g>
			<path class="st5" d="M73.992-87.977v2.104h-0.487v-1.714h-0.421v-0.391H73.992z"/>
		</g>
		<g>
			<path class="st5" d="M74.752-81.009v0.396h-1.59v-0.315l0.812-0.767c0.187-0.178,0.22-0.286,0.22-0.388
				c0-0.165-0.114-0.262-0.337-0.262c-0.18,0-0.333,0.069-0.436,0.21l-0.355-0.228c0.163-0.238,0.457-0.392,0.836-0.392
				c0.469,0,0.781,0.241,0.781,0.623c0,0.204-0.057,0.391-0.352,0.664l-0.484,0.457H74.752z"/>
		</g>
		<g>
			<path class="st5" d="M74.734-76.251c0,0.354-0.273,0.68-0.872,0.68c-0.295,0-0.599-0.081-0.803-0.226l0.189-0.373
				c0.159,0.121,0.382,0.189,0.601,0.189c0.244,0,0.394-0.099,0.394-0.271c0-0.159-0.117-0.258-0.394-0.258h-0.223v-0.322
				l0.433-0.49h-0.896v-0.391h1.473v0.316l-0.475,0.541C74.542-76.795,74.734-76.56,74.734-76.251z"/>
		</g>
	</g>
	<polygon class="st6" points="68.605,-94.774 68.605,-68.774 68.605,-68.524 68.855,-68.524 94.855,-68.524 95.105,-68.524 
		95.105,-68.774 95.105,-94.774 95.105,-95.024 94.855,-95.024 68.855,-95.024 68.605,-95.024 	"/>
</g>
<polygon class="st6" points="6.773,-94.774 6.773,-68.774 6.773,-68.524 7.023,-68.524 33.023,-68.524 33.273,-68.524 
	33.273,-68.774 33.273,-94.774 33.273,-95.024 33.023,-95.024 7.023,-95.024 6.773,-95.024 "/>
<g>
	<polygon class="st6" points="37.114,-94.774 37.114,-68.774 37.114,-68.524 37.364,-68.524 63.364,-68.524 63.614,-68.524 
		63.614,-68.774 63.614,-94.774 63.614,-95.024 63.364,-95.024 37.364,-95.024 37.114,-95.024 	"/>
	<path class="st7" d="M58.646-76.649H45.63 M58.646-81.782H45.63 M58.646-86.914H45.63"/>
	<path class="st5" d="M43.544-81.197c0.161-0.156,0.241-0.349,0.241-0.581c0-0.15-0.037-0.288-0.11-0.414
		c-0.073-0.125-0.172-0.224-0.297-0.297c-0.126-0.073-0.264-0.11-0.415-0.11c-0.15,0-0.288,0.037-0.41,0.11
		c-0.122,0.073-0.221,0.172-0.294,0.297c-0.072,0.126-0.11,0.264-0.11,0.414c0,0.232,0.08,0.425,0.238,0.581
		c0.157,0.156,0.35,0.234,0.576,0.234C43.19-80.963,43.383-81.041,43.544-81.197"/>
	<path class="st5" d="M42.967-85.832c0.489,0,0.885-0.396,0.885-0.885c0-0.488-0.396-0.885-0.885-0.885
		c-0.488,0-0.885,0.397-0.885,0.885C42.082-86.228,42.479-85.832,42.967-85.832"/>
	<path class="st5" d="M43.544-76.18c0.161-0.156,0.241-0.349,0.241-0.581c0-0.15-0.037-0.288-0.11-0.414
		c-0.073-0.125-0.172-0.224-0.297-0.297c-0.126-0.073-0.264-0.11-0.415-0.11c-0.15,0-0.288,0.037-0.41,0.11
		c-0.122,0.073-0.221,0.172-0.294,0.297c-0.072,0.126-0.11,0.264-0.11,0.414c0,0.232,0.08,0.425,0.238,0.581
		c0.157,0.156,0.35,0.234,0.576,0.234C43.19-75.946,43.383-76.024,43.544-76.18"/>
</g>
<path class="st7" d="M28.305-76.642H15.289 M28.305-81.775H15.289 M28.305-86.907H15.289"/>
<rect x="11.741" y="-87.676" class="st5" width="1.77" height="1.77"/>
<rect x="11.741" y="-82.66" class="st5" width="1.77" height="1.77"/>
<rect x="11.741" y="-77.642" class="st5" width="1.77" height="1.77"/>
<rect x="350.262" y="-162.563" class="st2" width="245" height="57.75"/>
<text transform="matrix(1 0 0 1 424.96 -136.3679)"><tspan x="0" y="0" class="st5" style="font-family:'Montserrat-Regular'; font-size:13px;">N</tspan><tspan x="10.478" y="0" class="st5" style="font-family:'Montserrat-Regular'; font-size:13px;">e</tspan><tspan x="18.135" y="0" class="st5" style="font-family:'Montserrat-Regular'; font-size:13px;">u</tspan><tspan x="26.753" y="0" class="st5" style="font-family:'Montserrat-Regular'; font-size:13px;">e </tspan><tspan x="38.011" y="0" class="st5" style="font-family:'Montserrat-Regular'; font-size:13px; letter-spacing:-1;">T</tspan><tspan x="44.381" y="0" class="st5" style="font-family:'Montserrat-Regular'; font-size:13px;">e</tspan><tspan x="51.882" y="0" class="st5" style="font-family:'Montserrat-Regular'; font-size:13px;">x</tspan><tspan x="59.097" y="0" class="st5" style="font-family:'Montserrat-Regular'; font-size:13px;">t</tspan><tspan x="64.128" y="0" class="st5" style="font-family:'Montserrat-Regular'; font-size:13px;">b</tspan><tspan x="72.942" y="0" class="st5" style="font-family:'Montserrat-Regular'; font-size:13px;">o</tspan><tspan x="80.742" y="0" class="st5" style="font-family:'Montserrat-Regular'; font-size:13px;">x </tspan></text>
<path class="st14" d="M472.762-114.605c3.707,0,6.713-3.005,6.713-6.712c0-3.708-3.006-6.713-6.713-6.713s-6.712,3.005-6.712,6.713
	C466.05-117.61,469.055-114.605,472.762-114.605z"/>
<rect x="350.262" y="-162.563" class="st9" width="245" height="57.75"/>
<line class="st15" x1="472.762" y1="-124.851" x2="472.762" y2="-117.782"/>
<line class="st15" x1="469.228" y1="-121.286" x2="476.296" y2="-121.286"/>
<path class="st14" d="M361.801-74.769c3.707,0,6.713-3.005,6.713-6.712c0-3.708-3.006-6.713-6.713-6.713
	c-3.707,0-6.712,3.005-6.712,6.713C355.089-77.774,358.094-74.769,361.801-74.769z"/>
<line class="st15" x1="361.801" y1="-85.016" x2="361.801" y2="-77.947"/>
<line class="st15" x1="358.267" y1="-81.45" x2="365.335" y2="-81.45"/>
<g>
	<path class="st16" d="M-134.091-59.634h-3.138v-1.85h8.544v1.85h-3.138v7.956h-2.269V-59.634z"/>
	<path class="st16" d="M-127.471-61.484h2.269v9.806h-2.269V-61.484z"/>
	<path class="st16" d="M-114.377-57.925c0,2.185-1.639,3.544-4.258,3.544h-1.975v2.703h-2.269v-9.806h4.244
		C-116.015-61.484-114.377-60.124-114.377-57.925z M-116.673-57.925c0-1.079-0.701-1.709-2.087-1.709h-1.849v3.403h1.849
		C-117.374-56.231-116.673-56.861-116.673-57.925z"/>
	<path class="st16" d="M-104.254-57.925c0,2.185-1.639,3.544-4.258,3.544h-1.975v2.703h-2.269v-9.806h4.244
		C-105.893-61.484-104.254-60.124-104.254-57.925z M-106.551-57.925c0-1.079-0.701-1.709-2.087-1.709h-1.849v3.403h1.849
		C-107.252-56.231-106.551-56.861-106.551-57.925z"/>
</g>
<path class="st16" d="M-170.719-65.955L-170.719-65.955c-1.054,2.474-1.96,4.602-2.889,6.784h5.729
	C-168.823-61.427-169.705-63.535-170.719-65.955 M-167.226-48.365L-167.226-48.365c-0.346-1.15-0.211-1.759,1.044-1.8
	c0.976-0.033,1.343-0.74,1.02-1.64c-0.507-1.414-1.072-2.81-1.681-4.183c-0.109-0.245-0.55-0.478-0.843-0.484
	c-2.129-0.041-4.261-0.046-6.39,0.005c-0.305,0.008-0.741,0.315-0.877,0.599c-0.558,1.155-1.057,2.342-1.512,3.542
	c-0.57,1.504-0.268,2.026,1.348,2.192c0.783,0.081,1.206,0.319,1.022,1.126c-0.056,0.243-0.355,0.61-0.547,0.613
	c-2.524,0.042-5.049,0.028-7.596,0.028c-0.214-0.956-0.321-1.631,0.868-1.885c0.569-0.122,1.219-0.609,1.515-1.117
	c0.755-1.293,1.377-2.67,1.972-4.049c2.401-5.559,4.761-11.135,7.172-16.689c0.173-0.398,0.634-0.67,0.96-1
	c0.319,0.343,0.766,0.632,0.937,1.037c2.56,6.048,5.079,12.114,7.622,18.17c0.326,0.776,0.705,1.534,1.106,2.275
	c0.507,0.939,1.332,1.389,2.379,1.595c0.265,0.052,0.519,0.638,0.586,1.013c0.032,0.175-0.39,0.621-0.611,0.624
	C-160.884-48.352-164.037-48.365-167.226-48.365"/>
<path class="st5" d="M-73.481-55.903c2.682-0.014,4.762-2.036,4.751-4.621c-0.01-2.367-2.203-4.406-4.733-4.399
	c-2.703,0.008-4.848,2.038-4.825,4.568C-78.265-57.891-76.105-55.89-73.481-55.903 M-67.926-55.89L-67.926-55.89
	c0.393-0.231,0.569-0.207,0.91,0.115c1.249,1.181,2.501,2.361,3.751,3.541c0.086,0.08,0.173,0.159,0.252,0.246
	c0.216,0.237,0.217,0.464-0.012,0.692c-0.249,0.248-0.509,0.488-0.767,0.727c-0.302,0.28-0.548,0.287-0.855,0
	c-1.177-1.103-2.348-2.211-3.522-3.318c-0.132-0.124-0.263-0.25-0.396-0.373c-0.368-0.34-0.394-0.487-0.153-0.896
	c-0.368-0.336-0.737-0.673-1.128-1.029c-1.472,1.07-3.153,1.471-5.011,1.06c-1.415-0.313-2.544-1.054-3.377-2.178
	c-1.65-2.23-1.286-5.335,0.823-7.11c2.222-1.87,5.521-1.904,7.68-0.117c2.217,1.835,2.765,5.106,0.696,7.583
	C-68.665-56.594-68.296-56.243-67.926-55.89"/>
<path class="st17" d="M-73.481-55.903c2.682-0.014,4.762-2.036,4.751-4.621c-0.01-2.367-2.203-4.406-4.733-4.399
	c-2.703,0.008-4.848,2.038-4.825,4.568C-78.265-57.891-76.105-55.89-73.481-55.903z M-67.926-55.89L-67.926-55.89
	c0.393-0.231,0.569-0.207,0.91,0.115c1.249,1.181,2.501,2.361,3.751,3.541c0.086,0.08,0.173,0.159,0.252,0.246
	c0.216,0.237,0.217,0.464-0.012,0.692c-0.249,0.248-0.509,0.488-0.767,0.727c-0.302,0.28-0.548,0.287-0.855,0
	c-1.177-1.103-2.348-2.211-3.522-3.318c-0.132-0.124-0.263-0.25-0.396-0.373c-0.368-0.34-0.394-0.487-0.153-0.896
	c-0.368-0.336-0.737-0.673-1.128-1.029c-1.472,1.07-3.153,1.471-5.011,1.06c-1.415-0.313-2.544-1.054-3.377-2.178
	c-1.65-2.23-1.286-5.335,0.823-7.11c2.222-1.87,5.521-1.904,7.68-0.117c2.217,1.835,2.765,5.106,0.696,7.583
	C-68.665-56.594-68.296-56.243-67.926-55.89z"/>
<path class="st5" d="M-9.766-65.484l2.966,2.98v-2.758c0-0.096-0.055-0.229-0.123-0.297l-3.807-3.826
	c-0.068-0.067-0.178-0.067-0.245,0l-3.93,3.949v2.758c0,0.096,0.055,0.119,0.122,0.051l2.844-2.857
	c0.068-0.068,0.122-0.046,0.122,0.05v7.829h0v2.168c0,0.096-0.055,0.118-0.123,0.05l-2.966-2.98v2.758
	c0,0.096,0.055,0.229,0.123,0.297l3.807,3.826c0.068,0.067,0.178,0.067,0.245,0l3.93-3.949v-2.758c0-0.096-0.055-0.119-0.122-0.051
	l-2.844,2.857c-0.068,0.068-0.122,0.046-0.122-0.05v-7.829h0v-2.168C-9.889-65.53-9.834-65.552-9.766-65.484z"/>
<line class="st18" x1="-45.905" y1="-52.247" x2="-18.072" y2="-52.247"/>
<line class="st18" x1="-45.905" y1="-60.543" x2="-18.072" y2="-60.543"/>
<line class="st18" x1="-45.905" y1="-68.536" x2="-18.072" y2="-68.536"/>
<line class="st18" x1="-31.564" y1="-33.276" x2="-31.564" y2="-12.276"/>
<path class="st5" d="M-24.104-19.433L-24.104-19.433h2.695l-2.603-2.569c-0.138-0.135-0.093-0.245,0.101-0.245h7.006v-1.407
	c0-0.193-0.157-0.35-0.35-0.35h-6.656c-0.194,0-0.239-0.11-0.101-0.246l2.603-2.569h-2.345c-0.193,0-0.462,0.111-0.599,0.246
	l-3.245,3.201c-0.137,0.136-0.137,0.356,0,0.492L-24.104-19.433z"/>
<path class="st5" d="M-39.874-26.644L-39.874-26.644h-2.695l2.603,2.569c0.138,0.135,0.093,0.245-0.101,0.245h-7.006v1.407
	c0,0.193,0.157,0.35,0.35,0.35h6.656c0.194,0,0.239,0.11,0.101,0.246l-2.603,2.569h2.345c0.193,0,0.462-0.111,0.599-0.246
	l3.245-3.201c0.137-0.136,0.137-0.356,0-0.492L-39.874-26.644z"/>
<line class="st19" x1="284.722" y1="-152.389" x2="248.699" y2="-152.389"/>
<path class="st20" d="M276.219-149.243c2.045,0,3.703-1.658,3.703-3.703c0-2.045-1.658-3.703-3.703-3.703
	c-2.045,0-3.703,1.658-3.703,3.703C272.516-150.901,274.174-149.243,276.219-149.243"/>
<g>
	<path class="st5" d="M299.418-152.188c0,3.12-1.82,4.836-4.459,4.836c-0.91,0-1.781-0.195-2.392-0.585l0.624-1.274
		c0.494,0.325,1.092,0.442,1.729,0.442c1.716,0,2.795-1.066,2.795-3.133v-0.014c-0.546,0.638-1.417,0.949-2.431,0.949
		c-1.794,0-3.133-1.092-3.133-2.795c0-1.807,1.469-2.951,3.328-2.951C297.962-156.712,299.418-155.112,299.418-152.188z
		 M297.455-153.852c0-0.858-0.676-1.534-1.885-1.534c-1.053,0-1.781,0.598-1.781,1.547s0.715,1.547,1.82,1.547
		C296.702-152.292,297.455-152.955,297.455-153.852z"/>
	<path class="st5" d="M307.284-150.277c0,1.599-1.157,2.925-3.602,2.925c-1.287,0-2.587-0.39-3.419-1.053l0.715-1.313
		c0.663,0.546,1.651,0.897,2.678,0.897c1.209,0,1.924-0.533,1.924-1.392c0-0.871-0.559-1.417-2.444-1.417h-2.197l0.468-4.953h5.343
		v1.417h-3.913l-0.195,2.106h0.871C306.204-153.059,307.284-151.889,307.284-150.277z"/>
	<path class="st5" d="M311.703-154.177c0-1.495,0.871-2.496,2.171-2.496s2.184,0.988,2.184,2.496s-0.884,2.496-2.184,2.496
		S311.703-152.682,311.703-154.177z M314.992-154.177c0-1.014-0.416-1.586-1.118-1.586c-0.676,0-1.118,0.585-1.118,1.586
		s0.442,1.586,1.118,1.586C314.576-152.591,314.992-153.163,314.992-154.177z M319.334-156.582h1.274l-6.214,9.101h-1.274
		L319.334-156.582z M317.67-149.887c0-1.495,0.871-2.496,2.171-2.496c1.3,0,2.184,1.001,2.184,2.496s-0.884,2.496-2.184,2.496
		C318.541-147.391,317.67-148.392,317.67-149.887z M320.959-149.887c0-1.001-0.429-1.586-1.118-1.586s-1.118,0.572-1.118,1.586
		c0,1.015,0.429,1.586,1.118,1.586S320.959-148.886,320.959-149.887z"/>
</g>
<rect x="262.66" y="-98.246" class="st11" width="13.149" height="16.764"/>
<polygon class="st21" points="262.659,-81.482 262.659,-81.482 275.808,-81.482 275.808,-98.246 262.659,-98.246 "/>
<rect x="254.988" y="-98.717" class="st9" width="21.291" height="24"/>
<line class="st22" x1="259.485" y1="-90.551" x2="259.485" y2="-80.164"/>
<line class="st23" x1="262.117" y1="-78.275" x2="271.766" y2="-78.275"/>
<path class="st21" d="M272.642-78.275h0.877 M259.485-79.219v0.944h0.877 M259.485-93.384v0.944"/>
<polyline class="st21" points="255.458,-90.295 255.458,-75.187 269.492,-75.187 "/>
<rect x="254.988" y="-98.717" class="st9" width="21.291" height="24"/>
<rect x="294.233" y="-98.315" class="st11" width="14.674" height="18.705"/>
<polygon class="st24" points="294.234,-79.61 294.234,-79.61 308.907,-79.61 308.907,-98.315 294.234,-98.315 "/>
<rect x="293.831" y="-98.717" class="st9" width="19.884" height="24"/>
<rect x="298.64" y="-93.824" class="st5" width="14.674" height="18.705"/>
<polygon class="st25" points="298.64,-75.119 298.64,-75.119 313.313,-75.119 313.313,-93.824 298.64,-93.824 "/>
<rect x="293.831" y="-98.717" class="st9" width="19.884" height="24"/>
<rect x="195.341" y="-94.768" class="st10" width="34.924" height="19.551"/>
<text transform="matrix(1 0 0 1 202.341 -80.1163)"><tspan x="0" y="0" class="st11" style="font-family:'Montserrat-Regular'; font-size:13px;">e</tspan><tspan x="7.41" y="0" class="st11" style="font-family:'Montserrat-Regular'; font-size:13px;">i</tspan><tspan x="10.335" y="0" class="st11" style="font-family:'Montserrat-Regular'; font-size:13px;">n</tspan></text>
<polygon class="st6" points="160.333,-94.893 160.333,-74.893 160.333,-74.643 160.583,-74.643 229.432,-74.643 229.682,-74.643 
	229.682,-74.893 229.682,-94.893 229.682,-95.143 229.432,-95.143 160.583,-95.143 160.333,-95.143 "/>
<rect x="160.083" y="-95.393" class="st9" width="70.183" height="21"/>
<line class="st26" x1="301.397" y1="-5.254" x2="301.397" y2="19.006"/>
<path class="st5" d="M309.494,10.565L309.494,10.565h2.592l-2.494-2.46c-0.138-0.135-0.093-0.245,0.101-0.245h6.725V6.521
	c0-0.193-0.157-0.35-0.35-0.35h-6.725l2.743-2.705h-2.242c-0.193,0-0.462,0.11-0.599,0.245l-3.102,3.059
	c-0.137,0.135-0.137,0.355,0,0.491L309.494,10.565z"/>
<line class="st26" x1="274.452" y1="18.839" x2="274.452" y2="-5.421"/>
<path class="st5" d="M266.355,3.021L266.355,3.021h-2.592l2.494,2.46c0.138,0.135,0.093,0.245-0.101,0.245h-6.725v1.339
	c0,0.193,0.157,0.35,0.35,0.35h6.725l-2.743,2.705h2.242c0.193,0,0.462-0.11,0.599-0.245l3.102-3.059
	c0.137-0.135,0.137-0.355,0-0.491L266.355,3.021z"/>
<line class="st26" x1="84.709" y1="2.618" x2="108.969" y2="2.618"/>
<path class="st5" d="M100.361-5.44L100.361-5.44v-2.592l-2.46,2.494c-0.135,0.138-0.245,0.093-0.245-0.101v-6.725h-1.339
	c-0.193,0-0.35,0.157-0.35,0.35v6.725l-2.705-2.743v2.242c0,0.193,0.11,0.462,0.245,0.599l3.059,3.102
	c0.135,0.137,0.355,0.137,0.491,0L100.361-5.44z"/>
<path class="st5" d="M93.428,9.712L93.428,9.712v2.592l2.46-2.494c0.135-0.138,0.245-0.093,0.245,0.101v6.725h1.339
	c0.193,0,0.35-0.157,0.35-0.35V9.561l2.705,2.743v-2.242c0-0.193-0.11-0.462-0.245-0.599l-3.059-3.102
	c-0.135-0.137-0.355-0.137-0.491,0L93.428,9.712z"/>
<line class="st26" x1="141.156" y1="15.428" x2="141.156" y2="-8.832"/>
<path class="st5" d="M133.098-0.223L133.098-0.223h-2.592L133,2.237c0.138,0.135,0.093,0.245-0.101,0.245h-6.725v1.339
	c0,0.193,0.157,0.35,0.35,0.35h6.725l-2.743,2.705h2.242c0.193,0,0.462-0.11,0.599-0.245l3.102-3.059
	c0.137-0.135,0.137-0.355,0-0.491L133.098-0.223z"/>
<path class="st5" d="M148.25,6.709L148.25,6.709h2.592l-2.494-2.46c-0.138-0.135-0.093-0.245,0.101-0.245h6.725V2.665
	c0-0.193-0.157-0.35-0.35-0.35h-6.725l2.743-2.705H148.6c-0.193,0-0.462,0.11-0.599,0.245l-3.102,3.059
	c-0.137,0.135-0.137,0.355,0,0.491L148.25,6.709z"/>
<line class="st26" x1="173.297" y1="2.901" x2="197.557" y2="2.901"/>
<path class="st5" d="M182.016,9.995L182.016,9.995v2.592l2.46-2.494c0.135-0.138,0.245-0.093,0.245,0.101v6.725h1.339
	c0.193,0,0.35-0.157,0.35-0.35V9.844l2.705,2.743v-2.242c0-0.193-0.11-0.462-0.245-0.599l-3.059-3.102
	c-0.135-0.137-0.355-0.137-0.491,0L182.016,9.995z"/>
<line class="st26" x1="218.408" y1="14.156" x2="242.668" y2="14.156"/>
<path class="st5" d="M234.227,5.768L234.227,5.768V3.176l-2.46,2.494c-0.135,0.138-0.245,0.093-0.245-0.101v-6.725h-1.339
	c-0.193,0-0.35,0.157-0.35,0.35v6.725l-2.705-2.743v2.242c0,0.193,0.11,0.462,0.245,0.599l3.059,3.102
	c0.135,0.137,0.355,0.137,0.491,0L234.227,5.768z"/>
<rect x="364.272" y="-12.77" class="st11" width="15.769" height="20.056"/>
<line class="st27" x1="367.229" y1="7.287" x2="378.07" y2="7.287"/>
<line class="st28" x1="380.041" y1="4.278" x2="380.041" y2="-10.764"/>
<line class="st27" x1="377.084" y1="-12.77" x2="366.243" y2="-12.77"/>
<line class="st28" x1="364.272" y1="-9.761" x2="364.272" y2="5.281"/>
<path class="st21" d="M364.272,6.284v1.003h0.986 M365.258-12.769h-0.986v1.003 M380.041-11.766v-1.003h-0.985 M379.056,7.287h0.985
	V6.284"/>
<polygon class="st11" points="353.036,17.287 353.036,17.287 368.805,17.287 368.805,-2.769 353.036,-2.769 "/>
<line class="st27" x1="355.993" y1="17.287" x2="366.834" y2="17.287"/>
<line class="st28" x1="368.805" y1="14.278" x2="368.805" y2="-0.764"/>
<line class="st27" x1="365.849" y1="-2.77" x2="355.008" y2="-2.77"/>
<line class="st28" x1="353.036" y1="0.239" x2="353.036" y2="15.281"/>
<path class="st21" d="M353.036,16.284v1.003h0.986 M354.022-2.769h-0.986v1.003 M368.805-1.766v-1.003h-0.985 M367.82,17.287h0.985
	v-1.003"/>
<polygon class="st11" points="343.562,25.287 343.562,25.287 359.331,25.287 359.331,5.231 343.562,5.231 "/>
<polygon class="st21" points="343.562,25.287 343.562,25.287 359.331,25.287 359.331,5.231 343.562,5.231 "/>
<g>
	<polygon class="st11" points="417.398,11.592 417.398,11.592 433.167,11.592 433.167,-8.464 417.398,-8.464 	"/>
	<polygon class="st21" points="417.398,11.592 417.398,11.592 433.167,11.592 433.167,-8.464 417.398,-8.464 	"/>
	<line class="st29" x1="413.634" y1="0.091" x2="413.634" y2="13.595"/>
	<line class="st30" x1="416.771" y1="15.396" x2="428.274" y2="15.396"/>
	<path class="st21" d="M429.319,15.395h1.046 M413.634,14.495v0.9h1.046 M413.634-2.61v0.9"/>
</g>
<g>
	<g>
		<rect x="489.938" y="-20.184" class="st11" width="15.769" height="20.056"/>
		<polygon class="st21" points="489.938,-0.128 489.938,-0.128 505.707,-0.128 505.707,-20.184 489.938,-20.184 		"/>
		<polygon class="st11" points="478.702,9.872 478.702,9.872 494.471,9.872 494.471,-10.184 478.702,-10.184 		"/>
		<line class="st27" x1="481.659" y1="9.872" x2="492.5" y2="9.872"/>
		<line class="st28" x1="494.471" y1="6.863" x2="494.471" y2="-8.179"/>
		<line class="st27" x1="491.514" y1="-10.184" x2="480.673" y2="-10.184"/>
		<line class="st28" x1="478.702" y1="-7.176" x2="478.702" y2="7.866"/>
		<path class="st21" d="M478.702,8.869v1.003h0.986 M479.688-10.184h-0.986v1.003 M494.471-9.181v-1.003h-0.985 M493.486,9.872
			h0.985V8.869"/>
		<polygon class="st11" points="469.228,17.872 469.228,17.872 484.997,17.872 484.997,-2.184 469.228,-2.184 		"/>
		<line class="st27" x1="472.185" y1="17.872" x2="483.026" y2="17.872"/>
		<line class="st28" x1="484.997" y1="14.863" x2="484.997" y2="-0.179"/>
		<line class="st27" x1="482.041" y1="-2.184" x2="471.2" y2="-2.184"/>
		<line class="st28" x1="469.228" y1="0.824" x2="469.228" y2="15.866"/>
		<path class="st21" d="M469.228,16.869v1.003h0.986 M470.214-2.184h-0.986v1.003 M484.997-1.181v-1.003h-0.985 M484.012,17.872
			h0.985v-1.003"/>
	</g>
	<line class="st27" x1="545.352" y1="13.357" x2="556.193" y2="13.357"/>
	<line class="st28" x1="558.164" y1="10.349" x2="558.164" y2="-4.693"/>
	<line class="st27" x1="555.207" y1="-6.699" x2="544.366" y2="-6.699"/>
	<line class="st28" x1="542.395" y1="-3.691" x2="542.395" y2="11.351"/>
	<path class="st21" d="M542.395,12.354v1.003h0.986 M543.381-6.699h-0.986v1.003 M558.164-5.696v-1.003h-0.985 M557.179,13.357
		h0.985v-1.003"/>
	<polyline class="st21" points="538.631,-0.845 538.631,17.16 555.362,17.16 	"/>
</g>
<g>
	<defs>
		<rect id="SVGID_1_" x="-216.644" y="107.193" width="241.682" height="1"/>
	</defs>
	<clipPath id="SVGID_00000005261246015106912700000011173735851253833629_">
		<use xlink:href="#SVGID_1_"  style="overflow:visible;"/>
	</clipPath>
	
		<line style="clip-path:url(#SVGID_00000005261246015106912700000011173735851253833629_);fill:none;stroke:#B2B2B2;stroke-linecap:round;stroke-linejoin:round;stroke-dasharray:0,3.009;" x1="-213.135" y1="107.693" x2="23.035" y2="107.693"/>
	
		<path style="clip-path:url(#SVGID_00000005261246015106912700000011173735851253833629_);fill:none;stroke:#B2B2B2;stroke-linecap:round;stroke-linejoin:round;" d="
		M24.538,107.693L24.538,107.693 M-216.144,107.693L-216.144,107.693"/>
</g>
<circle class="st33" cx="-169.746" cy="-113.518" r="12.75"/>
<polygon class="st3" points="-26.353,-128.541 -39.353,-128.541 -32.985,-118.066 "/>
<polygon class="st5" points="-18.329,0 -28.804,6.368 -18.329,13 "/>
<polygon class="st5" points="-47.376,13 -36.901,6.632 -47.376,0 "/>
<polygon class="st5" points="35.177,0 24.702,6.368 35.177,13 "/>
<polygon class="st5" points="0,13 10.475,6.632 0,0 "/>
<rect x="160.25" y="-128.531" class="st10" width="34.924" height="19.551"/>
<polygon class="st6" points="160.5,-128.656 160.5,-108.656 160.5,-108.406 160.75,-108.406 229.599,-108.406 229.849,-108.406 
	229.849,-108.656 229.849,-128.656 229.849,-128.906 229.599,-128.906 160.75,-128.906 160.5,-128.906 "/>
<rect x="160.25" y="-129.156" class="st9" width="69.849" height="21"/>
<rect x="195.613" y="-62.502" class="st10" width="34.924" height="19.551"/>
<polygon class="st6" points="160.605,-62.627 160.605,-42.627 160.605,-42.377 160.855,-42.377 229.704,-42.377 229.954,-42.377 
	229.954,-42.627 229.954,-62.627 229.954,-62.877 229.704,-62.877 160.855,-62.877 160.605,-62.877 "/>
<rect x="160.355" y="-63.127" class="st9" width="70.183" height="21"/>
<line class="st19" x1="283.645" y1="-132.601" x2="247.622" y2="-132.601"/>
<path class="st20" d="M275.142-129.455c2.045,0,3.703-1.658,3.703-3.703s-1.658-3.703-3.703-3.703c-2.045,0-3.703,1.658-3.703,3.703
	S273.097-129.455,275.142-129.455"/>
<line class="st19" x1="591.969" y1="-101.822" x2="555.946" y2="-101.822"/>
<path class="st20" d="M583.466-98.676c2.045,0,3.703-1.658,3.703-3.703s-1.658-3.703-3.703-3.703c-2.045,0-3.703,1.658-3.703,3.703
	S581.421-98.676,583.466-98.676"/>
</svg>
