<?xml version="1.0" encoding="utf-8"?>
<!-- Generator: Adobe Illustrator 26.0.3, SVG Export Plug-In . SVG Version: 6.00 Build 0)  -->
<svg version="1.1" id="Ebene_1" xmlns="http://www.w3.org/2000/svg" xmlns:xlink="http://www.w3.org/1999/xlink" x="0px" y="0px"
	 width="15px" height="15px" viewBox="0 0 15 15" style="enable-background:new 0 0 15 15;" xml:space="preserve">
<style type="text/css">
	.st0{fill:none;stroke:#B2B2B2;stroke-width:0.5;}
	.st1{fill:none;stroke:#B2B2B2;stroke-width:1.2;}
	.st2{fill:#F8F8F8;}
	.st3{fill:none;stroke:#AD5E7A;stroke-miterlimit:10;}
	.st4{fill:#AD5E7A;}
	.st5{fill:none;}
	.st6{fill:#B2B2B2;}
	.st7{fill:#FFFFFF;}
	.st8{fill:#F5F5F5;}
	.st9{fill:#F0EDED;}
	.st10{fill:#E8E8E8;}
	.st11{fill:#E3E3E3;}
	.st12{fill:#DBDBDB;}
	.st13{fill:#D6D6D6;}
	.st14{fill:#D1D1D1;}
	.st15{fill:#C7C7C7;}
	.st16{fill:#BDBDBD;}
	.st17{fill:#B8B5B5;}
	.st18{fill:#0E689A;}
	.st19{fill:#00AC63;}
	.st20{fill:none;stroke:#4F4D4D;stroke-width:0.505;}
	.st21{fill:#8FB77C;}
	.st22{fill:none;stroke:#FFFFFF;stroke-linecap:round;stroke-linejoin:round;}
</style>
<path class="st0" d="M-13.081,15c3.707,0,6.713-3.005,6.713-6.712c0-3.708-3.006-6.713-6.713-6.713
	c-3.707,0-6.712,3.005-6.712,6.713C-19.793,11.995-16.788,15-13.081,15z"/>
<line class="st1" x1="-13.081" y1="4.753" x2="-13.081" y2="11.822"/>
<line class="st1" x1="-16.615" y1="8.319" x2="-9.547" y2="8.319"/>
<rect x="-20.796" y="29.066" class="st2" width="85.334" height="57.717"/>
<rect x="-20.796" y="29.065" class="st3" width="85.334" height="57.718"/>
<path class="st2" d="M29.433,50.622c0.008-0.986-0.776-1.778-1.758-1.778c-0.949,0-1.743,0.78-1.766,1.732
	c-0.023,0.973,0.766,1.787,1.744,1.801C28.635,52.391,29.425,51.612,29.433,50.622 M29.245,61.473c0.483,0,0.967,0.016,1.448-0.008
	c0.17-0.009,0.412-0.068,0.481-0.185c0.064-0.112-0.008-0.364-0.1-0.498c-1.216-1.757-2.448-3.503-3.671-5.255
	c-0.26-0.372-0.501-0.357-0.775-0.018c-0.455,0.563-0.907,1.13-1.388,1.671c-0.268,0.301-0.256,0.554-0.043,0.873
	c0.402,0.601,0.843,1.19,1.147,1.841C26.936,61.162,27.762,61.893,29.245,61.473 M18.847,61.467c1.898,0,3.796,0.005,5.694-0.009
	c0.201-0.001,0.468-0.062,0.58-0.197c0.074-0.09-0.03-0.39-0.129-0.55c-1.913-3.095-3.835-6.184-5.759-9.271
	c-0.303-0.486-0.507-0.479-0.817,0.019c-1.913,3.074-3.825,6.149-5.726,9.23c-0.105,0.17-0.182,0.433-0.123,0.601
	c0.038,0.108,0.347,0.168,0.535,0.169C15.017,61.471,16.932,61.467,18.847,61.467 M21.898,47.007c3.35,0,6.701-0.001,10.051,0.001
	c0.743,0,0.847,0.101,0.847,0.83c0.001,4.749,0.001,9.498,0,14.247c0,0.767-0.126,0.889-0.91,0.889c-6.683,0-13.367,0.001-20.05,0
	c-0.791,0-0.888-0.1-0.888-0.896c-0.001-4.732-0.001-9.464,0-14.196c0-0.804,0.073-0.875,0.899-0.875
	C15.197,47.007,18.548,47.007,21.898,47.007"/>
<path class="st4" d="M21.898,47.007c-3.35,0-6.7-0.001-10.051,0c-0.826,0-0.899,0.071-0.899,0.875c0,4.732,0,9.464,0,14.195
	c0,0.797,0.098,0.897,0.888,0.897c6.684,0,13.367,0,20.05,0c0.784,0,0.91-0.122,0.91-0.889c0.001-4.749,0.001-9.499,0-14.248
	c0-0.728-0.104-0.829-0.847-0.83C28.599,47.007,25.248,47.007,21.898,47.007 M8.763,57.929c0-3.627-0.001-7.253,0-10.88
	c0.001-1.433,0.802-2.245,2.246-2.245c7.253-0.004,14.506-0.004,21.76,0.001c1.393,0.001,2.209,0.835,2.21,2.238
	c0.002,7.253,0.002,14.506,0,21.759c0,1.43-0.818,2.244-2.257,2.245c-7.236,0.002-14.472,0.002-21.708,0
	c-1.449-0.001-2.25-0.801-2.25-2.238C8.762,65.182,8.763,61.556,8.763,57.929"/>
<path class="st4" d="M18.847,61.467c-1.915,0-3.83,0.005-5.745-0.007c-0.188-0.001-0.498-0.061-0.535-0.169
	c-0.059-0.168,0.018-0.431,0.122-0.601c1.901-3.082,3.814-6.156,5.727-9.231c0.31-0.498,0.514-0.504,0.816-0.019
	c1.924,3.087,3.847,6.176,5.759,9.271c0.099,0.16,0.203,0.46,0.129,0.55c-0.112,0.136-0.378,0.196-0.58,0.198
	C22.643,61.473,20.745,61.467,18.847,61.467"/>
<path class="st4" d="M29.246,61.473L29.246,61.473c-1.483,0.419-2.309-0.311-2.902-1.58c-0.303-0.65-0.745-1.239-1.147-1.84
	c-0.213-0.32-0.225-0.572,0.043-0.874c0.481-0.54,0.933-1.107,1.388-1.67c0.275-0.339,0.515-0.355,0.775,0.018
	c1.223,1.752,2.455,3.498,3.671,5.255c0.093,0.134,0.165,0.385,0.1,0.497c-0.068,0.118-0.31,0.177-0.48,0.186
	C30.212,61.488,29.729,61.473,29.246,61.473"/>
<path class="st4" d="M29.433,50.623c-0.008,0.989-0.798,1.768-1.78,1.755c-0.978-0.014-1.766-0.829-1.743-1.801
	c0.022-0.952,0.817-1.732,1.765-1.732C28.658,48.845,29.441,49.637,29.433,50.623"/>
<rect x="-21.296" y="28.565" class="st5" width="86.334" height="58.718"/>
<path class="st6" d="M31.662,3.52c0,0.353-0.286,0.639-0.639,0.639c-0.353,0-0.639-0.286-0.639-0.639V0.845
	c0-0.353,0.286-0.639,0.639-0.639c0.353,0,0.639,0.286,0.639,0.639V3.52z"/>
<path class="st7" d="M34.341,1.132c-0.221,0-0.436,0.115-0.554,0.32l-1.338,2.317c-0.176,0.305-0.071,0.696,0.234,0.873
	c0.101,0.058,0.211,0.085,0.319,0.085c0.221,0,0.436-0.114,0.554-0.319l1.338-2.317c0.177-0.306,0.072-0.697-0.234-0.873
	C34.559,1.16,34.449,1.132,34.341,1.132"/>
<path class="st8" d="M34.753,6.125c-0.306,0.176-0.697,0.072-0.873-0.234c-0.177-0.306-0.072-0.697,0.234-0.873l2.317-1.338
	c0.306-0.176,0.697-0.072,0.873,0.234c0.177,0.306,0.072,0.697-0.234,0.873L34.753,6.125z"/>
<path class="st9" d="M34.932,8.21c-0.353,0-0.639-0.286-0.639-0.639c0-0.353,0.286-0.639,0.639-0.64l2.675,0.001
	c0.353,0,0.64,0.286,0.64,0.639c0,0.353-0.287,0.639-0.64,0.639H34.932z"/>
<path class="st10" d="M34.043,10.105c-0.306-0.176-0.41-0.567-0.234-0.873c0.177-0.306,0.568-0.411,0.873-0.234l2.317,1.338
	c0.306,0.176,0.411,0.567,0.234,0.873c-0.176,0.306-0.567,0.41-0.873,0.234L34.043,10.105z"/>
<path class="st11" d="M32.327,11.302c-0.176-0.306-0.072-0.697,0.234-0.873c0.306-0.177,0.697-0.072,0.873,0.234l1.338,2.317
	c0.176,0.305,0.072,0.696-0.234,0.873c-0.306,0.176-0.697,0.071-0.873-0.234L32.327,11.302z"/>
<path class="st12" d="M30.242,11.48c0-0.353,0.286-0.639,0.639-0.639c0.353,0,0.639,0.286,0.639,0.639v2.675
	c0,0.353-0.286,0.639-0.639,0.639c-0.353,0-0.639-0.286-0.639-0.639V11.48z"/>
<path class="st13" d="M28.347,10.592c0.176-0.306,0.567-0.41,0.873-0.234c0.306,0.177,0.41,0.568,0.234,0.873l-1.338,2.317
	c-0.176,0.306-0.567,0.411-0.873,0.234c-0.306-0.176-0.41-0.568-0.234-0.873L28.347,10.592z"/>
<path class="st14" d="M27.15,8.875c0.306-0.176,0.697-0.072,0.873,0.234c0.177,0.306,0.072,0.697-0.234,0.873l-2.317,1.338
	c-0.306,0.176-0.696,0.072-0.873-0.234c-0.176-0.306-0.071-0.697,0.234-0.873L27.15,8.875z"/>
<path class="st15" d="M26.972,6.79c0.353,0,0.639,0.286,0.639,0.639c0,0.353-0.287,0.64-0.639,0.64h-2.676
	c-0.352,0-0.639-0.287-0.639-0.64c0-0.353,0.287-0.639,0.639-0.639H26.972z"/>
<path class="st16" d="M27.86,4.895c0.306,0.177,0.411,0.568,0.234,0.873c-0.176,0.306-0.568,0.411-0.873,0.234l-2.317-1.337
	c-0.306-0.177-0.41-0.568-0.234-0.874c0.177-0.305,0.568-0.41,0.873-0.234L27.86,4.895z"/>
<path class="st17" d="M29.576,3.698c0.177,0.306,0.072,0.697-0.234,0.873c-0.305,0.177-0.696,0.072-0.873-0.234L27.132,2.02
	c-0.177-0.305-0.072-0.696,0.233-0.873c0.306-0.176,0.697-0.072,0.874,0.234L29.576,3.698z"/>
<rect x="23.657" y="0.206" class="st5" width="14.589" height="14.589"/>
<path class="st18" d="M67.406,1.709h-1.728c-0.463,0-0.9,0.218-1.177,0.59l-5.557,7.428c-0.226,0.302-0.679,0.302-0.905,0
	l-5.556-7.428c-0.278-0.372-0.715-0.591-1.178-0.591h-1.728c-0.478,0-0.751,0.546-0.465,0.929l8.824,11.797
	c0.277,0.371,0.834,0.371,1.111,0l8.824-11.797C68.092,2.125,67.884,1.709,67.406,1.709"/>
<rect x="48.995" y="1.709" class="st5" width="18.963" height="13.003"/>
<path class="st19" d="M89.861,20.659c6.488,0,11.747-5.259,11.747-11.747S96.349-2.836,89.861-2.836S78.114,2.424,78.114,8.912
	S83.373,20.659,89.861,20.659"/>
<path class="st20" d="M89.861,20.659c6.488,0,11.747-5.259,11.747-11.747S96.349-2.836,89.861-2.836S78.114,2.424,78.114,8.912
	S83.373,20.659,89.861,20.659z"/>
<rect x="77.861" y="-3.088" class="st5" width="24" height="24"/>
<rect class="st21" width="15" height="15"/>
<path class="st22" d="M1.824,7.422c0.084,0.1,5.03,4.288,5.03,4.288l6.323-8.42"/>
</svg>
