<?xml version="1.0" encoding="utf-8"?>
<!-- Generator: Adobe Illustrator 26.2.1, SVG Export Plug-In . SVG Version: 6.00 Build 0)  -->
<svg version="1.1" id="Ebene_1" xmlns="http://www.w3.org/2000/svg" xmlns:xlink="http://www.w3.org/1999/xlink" x="0px" y="0px"
	 width="9px" height="9px" viewBox="0 0 9 9" enable-background="new 0 0 9 9" xml:space="preserve">
<polygon fill="#0E689A" points="0,9 0,9 9,9 9,0 0,0 "/>
<path fill="#FFFFFF" d="M8,1.9H7.3C7.1,1.9,6.9,2,6.8,2.1L4.6,5C4.5,5.1,4.3,5.1,4.2,5L2,2.1C1.9,2,1.7,1.9,1.5,1.9H0.8
	c-0.2,0-0.3,0.2-0.2,0.4l3.5,4.6C4.2,7,4.4,7,4.5,6.9L8,2.3C8.3,2.1,8.2,1.9,8,1.9"/>
</svg>
