<?xml version="1.0" encoding="utf-8"?>
<!-- Generator: Adobe Illustrator 26.2.1, SVG Export Plug-In . SVG Version: 6.00 Build 0)  -->
<svg version="1.1" id="Ebene_1" xmlns="http://www.w3.org/2000/svg" xmlns:xlink="http://www.w3.org/1999/xlink" x="0px" y="0px"
     width="22.9px" height="27.6px" viewBox="0 0 22.9 27.6" enable-background="new 0 0 22.9 27.6" xml:space="preserve">
<g>
	<g>
		<polyline fill="none" stroke="#B2B1B1" stroke-width="1.4" points="4.8,21.7 4.8,22.7 5.8,22.7 		"/>

        <line fill="none" stroke="#B2B1B1" stroke-width="1.4" stroke-dasharray="1.3935,1.3935,1.3935,1.3935" x1="7.2" y1="22.7" x2="12.1" y2="22.7"/>

        <line fill="none" stroke="#B2B1B1" stroke-width="1.4" stroke-dasharray="1.3935,1.3935,1.3935,1.3935,1.3935,1.3935" x1="12.8" y1="22.7" x2="20.5" y2="22.7"/>
        <polyline fill="none" stroke="#B2B1B1" stroke-width="1.4" points="21.2,22.7 22.2,22.7 22.2,21.7 		"/>

        <line fill="none" stroke="#B2B1B1" stroke-width="1.4" stroke-dasharray="1.8218,1.8218,1.8218,1.8218" x1="22.2" y1="19.9" x2="22.2" y2="13.5"/>

        <line fill="none" stroke="#B2B1B1" stroke-width="1.4" stroke-dasharray="1.8218,1.8218,1.8218,1.8218,1.8218,1.8218" x1="22.2" y1="12.6" x2="22.2" y2="2.6"/>
        <polyline fill="none" stroke="#B2B1B1" stroke-width="1.4" points="22.2,1.7 22.2,0.7 21.2,0.7 		"/>

        <line fill="none" stroke="#B2B1B1" stroke-width="1.4" stroke-dasharray="1.3935,1.3935,1.3935,1.3935" x1="19.8" y1="0.7" x2="14.9" y2="0.7"/>

        <line fill="none" stroke="#B2B1B1" stroke-width="1.4" stroke-dasharray="1.3935,1.3935,1.3935,1.3935,1.3935,1.3935" x1="14.2" y1="0.7" x2="6.5" y2="0.7"/>
        <polyline fill="none" stroke="#B2B1B1" stroke-width="1.4" points="5.8,0.7 4.8,0.7 4.8,1.7 		"/>

        <line fill="none" stroke="#B2B1B1" stroke-width="1.4" stroke-dasharray="1.8218,1.8218,1.8218,1.8218" x1="4.8" y1="3.5" x2="4.8" y2="9.9"/>

        <line fill="none" stroke="#B2B1B1" stroke-width="1.4" stroke-dasharray="1.8218,1.8218,1.8218,1.8218,1.8218,1.8218" x1="4.8" y1="10.8" x2="4.8" y2="20.8"/>
	</g>
</g>
    <polyline fill="none" stroke="#B2B1B1" stroke-width="1.4" points="19.1,26.9 0.7,26.9 0.7,7.1 "/>
</svg>
