<?xml version="1.0" encoding="utf-8"?>
<!-- Generator: Adobe Illustrator 26.2.1, SVG Export Plug-In . SVG Version: 6.00 Build 0)  -->
<svg version="1.1" id="Ebene_1" xmlns="http://www.w3.org/2000/svg" xmlns:xlink="http://www.w3.org/1999/xlink" x="0px" y="0px"
	 width="37.441px" height="38.941px" viewBox="0 0 37.441 38.941" enable-background="new 0 0 37.441 38.941" xml:space="preserve">
<g>
	<rect x="21.271" y="0.47" fill="#FFFFFF" width="15.8" height="20.1"/>
	<polygon fill="none" stroke="#B2B1B1" stroke-width="0.941" points="21.271,20.471 21.271,20.471 36.971,20.471 36.971,0.47 
		21.271,0.47 	"/>
	<polygon fill="#FFFFFF" points="9.97,30.471 9.97,30.471 25.771,30.471 25.771,10.47 9.97,10.47 	"/>
	
		<line fill="none" stroke="#B2B1B1" stroke-width="0.941" stroke-dasharray="1.971,1.971" x1="12.97" y1="30.471" x2="23.771" y2="30.471"/>
	
		<line fill="none" stroke="#B2B1B1" stroke-width="0.941" stroke-dasharray="2.006,2.006" x1="25.771" y1="27.471" x2="25.771" y2="12.47"/>
	
		<line fill="none" stroke="#B2B1B1" stroke-width="0.941" stroke-dasharray="1.971,1.971" x1="22.771" y1="10.47" x2="11.97" y2="10.47"/>
	
		<line fill="none" stroke="#B2B1B1" stroke-width="0.941" stroke-dasharray="2.006,2.006" x1="9.97" y1="13.47" x2="9.97" y2="28.471"/>
	<path fill="none" stroke="#B2B1B1" stroke-width="0.941" d="M9.97,29.471v1h1 M10.97,10.47h-1v1 M25.771,11.47v-1h-1
		 M24.771,30.471h1v-1"/>
	<polygon fill="#FFFFFF" points="0.47,38.471 0.47,38.471 16.271,38.471 16.271,18.471 0.47,18.471 	"/>
	
		<line fill="none" stroke="#B2B1B1" stroke-width="0.941" stroke-dasharray="1.971,1.971" x1="3.47" y1="38.471" x2="14.271" y2="38.471"/>
	
		<line fill="none" stroke="#B2B1B1" stroke-width="0.941" stroke-dasharray="2.006,2.006" x1="16.271" y1="35.471" x2="16.271" y2="20.471"/>
	
		<line fill="none" stroke="#B2B1B1" stroke-width="0.941" stroke-dasharray="1.971,1.971" x1="13.371" y1="18.471" x2="2.47" y2="18.471"/>
	
		<line fill="none" stroke="#B2B1B1" stroke-width="0.941" stroke-dasharray="2.006,2.006" x1="0.47" y1="21.471" x2="0.47" y2="36.471"/>
	<path fill="none" stroke="#B2B1B1" stroke-width="0.941" d="M0.47,37.471v1h1 M1.47,18.471h-1v1 M16.271,19.471v-1h-1
		 M15.271,38.471h1v-1"/>
</g>
</svg>
