<?xml version="1.0" encoding="utf-8"?>
<!-- Generator: Adobe Illustrator 26.2.1, SVG Export Plug-In . SVG Version: 6.00 Build 0)  -->
<svg version="1.1" id="Ebene_1" xmlns="http://www.w3.org/2000/svg" xmlns:xlink="http://www.w3.org/1999/xlink" x="0px" y="0px"
     width="38.7px" height="39.8px" viewBox="0 0 38.7 39.8" enable-background="new 0 0 38.7 39.8" xml:space="preserve">
<polygon fill="#FFFFFF" stroke="#B2B1B1" stroke-width="1.4" points="19.3,24.5 19.3,24.5 38,24.5 38,0.7 19.3,0.7 "/>
    <g>
	<polygon fill="#FFFFFF" points="8.4,32.4 8.4,32.4 27.1,32.4 27.1,8.6 8.4,8.6 	"/>
        <g>
		<polyline fill="none" stroke="#B2B1B1" stroke-width="1.4" points="8.4,31.4 8.4,32.4 9.4,32.4 		"/>

            <line fill="none" stroke="#B2B1B1" stroke-width="1.4" stroke-dasharray="1.5185,1.5185,1.5185,1.5185" x1="10.9" y1="32.4" x2="16.2" y2="32.4"/>

            <line fill="none" stroke="#B2B1B1" stroke-width="1.4" stroke-dasharray="1.5185,1.5185,1.5185,1.5185,1.5185,1.5185" x1="17" y1="32.4" x2="25.3" y2="32.4"/>
            <polyline fill="none" stroke="#B2B1B1" stroke-width="1.4" points="26.1,32.4 27.1,32.4 27.1,31.4 		"/>

            <line fill="none" stroke="#B2B1B1" stroke-width="1.4" stroke-dasharray="1.9808,1.9808,1.9808,1.9808" x1="27.1" y1="29.4" x2="27.1" y2="22.5"/>

            <line fill="none" stroke="#B2B1B1" stroke-width="1.4" stroke-dasharray="1.9808,1.9808,1.9808,1.9808,1.9808,1.9808" x1="27.1" y1="21.5" x2="27.1" y2="10.6"/>
            <polyline fill="none" stroke="#B2B1B1" stroke-width="1.4" points="27.1,9.6 27.1,8.6 26.1,8.6 		"/>

            <line fill="none" stroke="#B2B1B1" stroke-width="1.4" stroke-dasharray="1.5185,1.5185,1.5185,1.5185" x1="24.5" y1="8.6" x2="19.2" y2="8.6"/>

            <line fill="none" stroke="#B2B1B1" stroke-width="1.4" stroke-dasharray="1.5185,1.5185,1.5185,1.5185,1.5185,1.5185" x1="18.5" y1="8.6" x2="10.1" y2="8.6"/>
            <polyline fill="none" stroke="#B2B1B1" stroke-width="1.4" points="9.4,8.6 8.4,8.6 8.4,9.6 		"/>

            <line fill="none" stroke="#B2B1B1" stroke-width="1.4" stroke-dasharray="1.9808,1.9808,1.9808,1.9808" x1="8.4" y1="11.6" x2="8.4" y2="18.5"/>

            <line fill="none" stroke="#B2B1B1" stroke-width="1.4" stroke-dasharray="1.9808,1.9808,1.9808,1.9808,1.9808,1.9808" x1="8.4" y1="19.5" x2="8.4" y2="30.4"/>
	</g>
</g>
    <polygon fill="#FFFFFF" stroke="#B2B1B1" stroke-width="1.4" stroke-dasharray="2,2,2,2,2,2" points="0.7,39.1 0.7,39.1 18,39.1
	18,17.1 0.7,17.1 "/>
</svg>
