<?xml version="1.0" encoding="utf-8"?>
<!-- Generator: Adobe Illustrator 26.0.3, SVG Export Plug-In . SVG Version: 6.00 Build 0)  -->
<svg version="1.1" id="Ebene_1" xmlns="http://www.w3.org/2000/svg" xmlns:xlink="http://www.w3.org/1999/xlink" x="0px" y="0px"
	 width="13.925px" height="13.925px" viewBox="0 0 13.925 13.925" style="enable-background:new 0 0 13.925 13.925;"
	 xml:space="preserve">
<style type="text/css">
	.st0{fill:none;stroke:#C5C5C5;stroke-width:3;stroke-linecap:round;stroke-linejoin:round;}
	.st1{fill:#FFAEFF;stroke:#4F4D4D;stroke-width:0.5;}
	.st2{fill:#F8F8F8;}
	.st3{fill:#0E689A;}
	.st4{fill:none;stroke:#B2B1B1;stroke-width:0.65;stroke-miterlimit:10;}
	.st5{fill:#B2B1B1;}
	.st6{fill:none;stroke:#B2B2B2;stroke-width:0.5;stroke-miterlimit:10;}
	.st7{fill:none;stroke:#B2B1B1;stroke-width:0.3;stroke-miterlimit:10;}
	.st8{fill:none;stroke:#FFFFFF;stroke-width:0.021;}
	.st9{fill:none;}
	.st10{fill:#0E6899;}
	.st11{fill:#FFFFFF;}
	.st12{fill:none;stroke:#C5C5C5;stroke-width:0.5;stroke-linecap:round;stroke-linejoin:round;}
	.st13{fill:#C5C5C5;}
	.st14{fill:none;stroke:#B2B1B1;stroke-width:0.5;}
	.st15{fill:none;stroke:#B2B1B1;stroke-width:1.2;}
	.st16{fill:#B2B2B2;}
	.st17{fill:none;stroke:#FFFFFF;stroke-width:0.001;}
	.st18{fill:none;stroke:#B2B1B1;stroke-width:1.712;}
	.st19{fill:none;stroke:#B2B1B1;stroke-width:2;}
	.st20{fill:#AD5E7A;}
	.st21{fill:none;stroke:#B2B1B1;stroke-width:0.941;}
	.st22{fill:none;stroke:#B2B1B1;stroke-width:0.941;stroke-dasharray:1.889,1.889;}
	.st23{fill:none;stroke:#B2B1B1;stroke-width:0.941;stroke-dasharray:1.754,1.754;}
	.st24{fill:none;stroke:#B2B1B1;stroke-width:0.804;}
	.st25{fill:none;stroke:#FFFFFF;stroke-width:0.804;}
	.st26{fill:none;stroke:#B2B1B1;stroke-width:2.5;}
	.st27{fill:none;stroke:#B2B1B1;stroke-width:0.941;stroke-dasharray:1.971,1.971;}
	.st28{fill:none;stroke:#B2B1B1;stroke-width:0.941;stroke-dasharray:2.006,2.006;}
	.st29{fill:none;stroke:#B2B1B1;stroke-width:0.941;stroke-dasharray:1.801,1.801;}
	.st30{fill:none;stroke:#B2B1B1;stroke-width:0.941;stroke-dasharray:2.091,2.091;}
	
		.st31{clip-path:url(#SVGID_00000025441411572321346880000015382472227053527447_);fill:none;stroke:#B2B2B2;stroke-linecap:round;stroke-linejoin:round;stroke-dasharray:0,3.009;}
	
		.st32{clip-path:url(#SVGID_00000025441411572321346880000015382472227053527447_);fill:none;stroke:#B2B2B2;stroke-linecap:round;stroke-linejoin:round;}
	.st33{fill:none;stroke:#4F4D4D;stroke-width:0.5;}
</style>
<polyline class="st0" points="1467.308,901.582 1461.058,892.582 1454.308,901.582 "/>
<circle class="st1" cx="-524.585" cy="-61.167" r="12.75"/>
<rect x="-492.124" y="-72.182" class="st2" width="119.902" height="21"/>
<polygon class="st3" points="-381.295,-66.919 -394.295,-66.919 -387.927,-56.444 "/>
<g>
	<g>
		<line class="st4" x1="-268.283" y1="-54.661" x2="-258" y2="-54.661"/>
		<g>
			<path class="st5" d="M-266.995-59.887v-5.175h1.3v5.122c0,2.016,0.923,2.926,2.561,2.926c1.638,0,2.574-0.91,2.574-2.926v-5.122
				h1.261v5.175c0,2.639-1.443,4.029-3.848,4.029C-265.539-55.857-266.995-57.248-266.995-59.887z"/>
		</g>
	</g>
	<polygon class="st6" points="-276.391,-72.861 -276.391,-46.861 -276.391,-46.611 -276.141,-46.611 -250.141,-46.611 
		-249.891,-46.611 -249.891,-46.861 -249.891,-72.861 -249.891,-73.111 -250.141,-73.111 -276.141,-73.111 -276.391,-73.111 	"/>
</g>
<g>
	<g>
		<path class="st5" d="M-297.745-64.788h1.3l-1.82,9.101h-1.3L-297.745-64.788z"/>
	</g>
	<polygon class="st6" points="-311.255,-73.238 -311.255,-47.238 -311.255,-46.988 -311.005,-46.988 -285.005,-46.988 
		-284.755,-46.988 -284.755,-47.238 -284.755,-73.238 -284.755,-73.488 -285.005,-73.488 -311.005,-73.488 -311.255,-73.488 	"/>
</g>
<g>
	<g>
		<path class="st5" d="M-330.893-58.119c0,1.573-1.248,2.483-3.64,2.483h-4.706v-9.101h4.446c2.275,0,3.445,0.949,3.445,2.366
			c0,0.91-0.468,1.612-1.209,2.002C-331.543-60.043-330.893-59.263-330.893-58.119z M-337.146-63.15v2.146h2.093
			c1.027,0,1.586-0.364,1.586-1.079s-0.559-1.066-1.586-1.066H-337.146z M-333.012-58.34c0-0.767-0.585-1.131-1.677-1.131h-2.457
			v2.249h2.457C-333.597-57.222-333.012-57.559-333.012-58.34z"/>
	</g>
	<polygon class="st6" points="-348.316,-73.186 -348.316,-47.186 -348.316,-46.936 -348.066,-46.936 -322.066,-46.936 
		-321.816,-46.936 -321.816,-47.186 -321.816,-73.186 -321.816,-73.436 -322.066,-73.436 -348.066,-73.436 -348.316,-73.436 	"/>
</g>
<path class="st7" d="M-294.129-31.232"/>
<path class="st7" d="M-296.636-29.978"/>
<path class="st7" d="M-296.636-28.724"/>
<path class="st7" d="M-296.636-27.47"/>
<path class="st7" d="M-294.129-26.216"/>
<path class="st7" d="M-294.129-24.962"/>
<path class="st7" d="M-296.636-23.708"/>
<path class="st7" d="M-296.636-21.2"/>
<path class="st7" d="M-294.129-18.693"/>
<g>
	<path class="st7" d="M-313.593-26.216"/>
	<path class="st7" d="M-313.593-31.232"/>
	<path class="st7" d="M-313.593-18.693"/>
	<path class="st7" d="M-313.593-24.962"/>
	<g>
		<path class="st7" d="M-311.531-23.708"/>
		<path class="st7" d="M-311.531-27.47"/>
		<path class="st7" d="M-311.531-28.724"/>
		<path class="st7" d="M-311.531-29.978"/>
		<line class="st7" x1="-313.968" y1="-19.488" x2="-294.504" y2="-19.488"/>
		<line class="st7" x1="-313.968" y1="-20.763" x2="-299.074" y2="-20.763"/>
		<line class="st7" x1="-313.968" y1="-22.039" x2="-299.074" y2="-22.039"/>
		<line class="st7" x1="-313.968" y1="-23.315" x2="-299.074" y2="-23.315"/>
		<line class="st7" x1="-313.968" y1="-24.591" x2="-294.504" y2="-24.591"/>
		<line class="st7" x1="-313.968" y1="-25.867" x2="-294.504" y2="-25.867"/>
		<line class="st7" x1="-313.895" y1="-27.143" x2="-299.001" y2="-27.143"/>
		<line class="st7" x1="-313.968" y1="-28.419" x2="-294.504" y2="-28.419"/>
		<line class="st7" x1="-313.968" y1="-29.695" x2="-299.074" y2="-29.695"/>
		<line class="st7" x1="-313.968" y1="-30.971" x2="-299.074" y2="-30.971"/>
		<line class="st7" x1="-313.968" y1="-32.246" x2="-294.504" y2="-32.246"/>
	</g>
	<polygon class="st6" points="-317.295,-38.541 -317.295,-12.548 -317.295,-12.298 -317.045,-12.298 -291.052,-12.298 
		-290.802,-12.298 -290.802,-12.548 -290.802,-38.541 -290.802,-38.791 -291.052,-38.791 -317.045,-38.791 -317.295,-38.791 	"/>
</g>
<g>
	<g>
		<line class="st7" x1="-263.248" y1="-31.93" x2="-282.712" y2="-31.93"/>
		<line class="st7" x1="-265.756" y1="-30.653" x2="-280.65" y2="-30.653"/>
		<line class="st7" x1="-265.756" y1="-29.376" x2="-280.65" y2="-29.376"/>
		<line class="st7" x1="-265.756" y1="-28.099" x2="-280.65" y2="-28.099"/>
		<line class="st7" x1="-263.248" y1="-26.822" x2="-282.712" y2="-26.822"/>
		<line class="st7" x1="-263.248" y1="-25.545" x2="-282.712" y2="-25.545"/>
		<line class="st7" x1="-265.756" y1="-24.268" x2="-280.65" y2="-24.268"/>
		<line class="st7" x1="-263.248" y1="-22.991" x2="-282.712" y2="-22.991"/>
		<line class="st7" x1="-265.756" y1="-21.713" x2="-280.65" y2="-21.713"/>
		<line class="st7" x1="-265.756" y1="-20.437" x2="-280.65" y2="-20.437"/>
		<line class="st7" x1="-263.248" y1="-19.16" x2="-282.712" y2="-19.16"/>
	</g>
	<polygon class="st6" points="-286.227,-38.541 -286.227,-12.548 -286.227,-12.298 -285.977,-12.298 -259.984,-12.298 
		-259.734,-12.298 -259.734,-12.548 -259.734,-38.541 -259.734,-38.791 -259.984,-38.791 -285.977,-38.791 -286.227,-38.791 	"/>
</g>
<polygon class="st6" points="-255.158,-38.541 -255.158,-12.548 -255.158,-12.298 -254.908,-12.298 -228.915,-12.298 
	-228.665,-12.298 -228.665,-12.548 -228.665,-38.541 -228.665,-38.791 -228.915,-38.791 -254.908,-38.791 -255.158,-38.791 "/>
<path class="st7" d="M-251.831-19.857"/>
<path class="st7" d="M-251.831-24.873"/>
<path class="st7" d="M-251.831-26.127"/>
<path class="st7" d="M-251.831-32.397"/>
<path class="st7" d="M-234.429-27.381"/>
<path class="st7" d="M-232.367-24.873"/>
<path class="st7" d="M-234.429-23.619"/>
<path class="st7" d="M-232.367-19.857"/>
<path class="st7" d="M-232.367-32.397"/>
<path class="st7" d="M-232.367-26.127"/>
<path class="st7" d="M-234.429-22.365"/>
<path class="st7" d="M-234.429-21.111"/>
<g>
	<path class="st7" d="M-249.512-21.433"/>
	<path class="st7" d="M-249.512-22.687"/>
	<path class="st7" d="M-249.512-23.942"/>
	<path class="st7" d="M-249.512-27.703"/>
	<path class="st7" d="M-249.512-30.211"/>
	<line class="st7" x1="-232.18" y1="-31.924" x2="-251.644" y2="-31.924"/>
	<line class="st7" x1="-232.18" y1="-30.649" x2="-247.074" y2="-30.649"/>
	<line class="st7" x1="-232.18" y1="-29.373" x2="-247.074" y2="-29.373"/>
	<line class="st7" x1="-232.18" y1="-28.097" x2="-247.074" y2="-28.097"/>
	<line class="st7" x1="-232.18" y1="-26.821" x2="-251.644" y2="-26.821"/>
	<line class="st7" x1="-232.18" y1="-25.545" x2="-251.644" y2="-25.545"/>
	<line class="st7" x1="-232.253" y1="-24.269" x2="-247.147" y2="-24.269"/>
	<line class="st7" x1="-232.18" y1="-22.993" x2="-251.644" y2="-22.993"/>
	<line class="st7" x1="-232.18" y1="-21.717" x2="-247.074" y2="-21.717"/>
	<line class="st7" x1="-232.18" y1="-20.441" x2="-247.074" y2="-20.441"/>
	<line class="st7" x1="-232.18" y1="-19.165" x2="-251.644" y2="-19.165"/>
</g>
<polygon class="st6" points="-348.066,-38.535 -348.066,-12.542 -348.066,-12.292 -347.816,-12.292 -321.823,-12.292 
	-321.573,-12.292 -321.573,-12.542 -321.573,-38.535 -321.573,-38.785 -321.823,-38.785 -347.816,-38.785 -348.066,-38.785 "/>
<path class="st7" d="M-324.9-31.232"/>
<path class="st7" d="M-324.9-26.216"/>
<path class="st7" d="M-324.9-24.962"/>
<path class="st7" d="M-324.9-18.693"/>
<path class="st7" d="M-342.302-23.708"/>
<path class="st7" d="M-344.364-26.216"/>
<path class="st7" d="M-342.302-27.47"/>
<path class="st7" d="M-344.364-31.232"/>
<path class="st7" d="M-344.364-18.693"/>
<path class="st7" d="M-344.364-24.962"/>
<path class="st7" d="M-342.302-28.724"/>
<path class="st7" d="M-342.302-29.978"/>
<g>
	<path class="st7" d="M-327.408-29.978"/>
	<path class="st7" d="M-327.408-28.724"/>
	<path class="st7" d="M-327.408-27.47"/>
	<path class="st7" d="M-327.408-23.708"/>
	<path class="st7" d="M-327.408-21.2"/>
	<line class="st7" x1="-344.74" y1="-19.488" x2="-325.276" y2="-19.488"/>
	<line class="st7" x1="-344.74" y1="-20.763" x2="-325.276" y2="-20.763"/>
	<line class="st7" x1="-344.74" y1="-22.039" x2="-325.276" y2="-22.039"/>
	<line class="st7" x1="-344.74" y1="-23.315" x2="-325.276" y2="-23.315"/>
	<line class="st7" x1="-344.74" y1="-24.591" x2="-325.276" y2="-24.591"/>
	<line class="st7" x1="-344.74" y1="-25.867" x2="-325.276" y2="-25.867"/>
	<line class="st7" x1="-344.666" y1="-27.143" x2="-325.202" y2="-27.143"/>
	<line class="st7" x1="-344.74" y1="-28.419" x2="-325.276" y2="-28.419"/>
	<line class="st7" x1="-344.74" y1="-29.695" x2="-325.276" y2="-29.695"/>
	<line class="st7" x1="-344.74" y1="-30.971" x2="-325.276" y2="-30.971"/>
	<line class="st7" x1="-344.74" y1="-32.246" x2="-325.276" y2="-32.246"/>
</g>
<path class="st5" d="M-517.623,76.614l-1.915,13.335c-0.058,0.402-0.431,0.682-0.834,0.624c-0.402-0.058-0.682-0.431-0.624-0.833
	l1.915-13.336c0.058-0.402,0.431-0.681,0.834-0.623C-517.845,75.839-517.565,76.211-517.623,76.614 M-524.44,90.689
	c-0.407,0.003-0.74-0.324-0.742-0.73l-0.106-13.472c-0.003-0.407,0.324-0.739,0.73-0.742c0.408-0.003,0.74,0.324,0.743,0.731
	l0.105,13.471C-523.707,90.354-524.034,90.686-524.44,90.689 M-528.511,90.636c-0.401,0.064-0.779-0.209-0.842-0.61l-2.124-13.304
	c-0.064-0.402,0.209-0.779,0.612-0.843c0.401-0.064,0.778,0.209,0.842,0.611l2.123,13.303
	C-527.836,90.195-528.109,90.572-528.511,90.636 M-514.728,74.228c-0.141-0.169-0.353-0.266-0.573-0.264l-18.538,0.144
	c-0.22,0.002-0.429,0.101-0.568,0.272c-0.14,0.17-0.196,0.393-0.155,0.609l3.092,16.141c0.068,0.351,0.376,0.605,0.734,0.602
	l12.497-0.098c0.356-0.002,0.66-0.258,0.724-0.608l2.949-16.188C-514.526,74.622-514.587,74.397-514.728,74.228"/>
<path class="st8" d="M-517.623,76.614l-1.915,13.335c-0.058,0.402-0.431,0.682-0.834,0.624c-0.402-0.058-0.682-0.431-0.624-0.833
	l1.915-13.336c0.058-0.402,0.431-0.681,0.834-0.623C-517.845,75.839-517.565,76.211-517.623,76.614z M-524.44,90.689
	c-0.407,0.003-0.74-0.324-0.742-0.73l-0.106-13.472c-0.003-0.407,0.324-0.739,0.73-0.742c0.408-0.003,0.74,0.324,0.743,0.731
	l0.105,13.471C-523.707,90.354-524.034,90.686-524.44,90.689z M-528.511,90.636c-0.401,0.064-0.779-0.209-0.842-0.61l-2.124-13.304
	c-0.064-0.402,0.209-0.779,0.612-0.843c0.401-0.064,0.778,0.209,0.842,0.611l2.123,13.303
	C-527.836,90.195-528.109,90.572-528.511,90.636z M-514.728,74.228c-0.141-0.169-0.353-0.266-0.573-0.264l-18.538,0.144
	c-0.22,0.002-0.429,0.101-0.568,0.272c-0.14,0.17-0.196,0.393-0.155,0.609l3.092,16.141c0.068,0.351,0.376,0.605,0.734,0.602
	l12.497-0.098c0.356-0.002,0.66-0.258,0.724-0.608l2.949-16.188C-514.526,74.622-514.587,74.397-514.728,74.228z"/>
<path class="st5" d="M-527.416,69.621L-527.416,69.621l-0.004-0.421l5.49-0.043l0.004,0.421L-527.416,69.621z M-513.679,71.031
	L-513.679,71.031l-2.025,0.016l-0.009-1.171c-0.001-0.091-0.038-0.18-0.103-0.244s-0.155-0.1-0.246-0.1l-4.467,0.035l-0.009-1.12
	c-0.002-0.184-0.077-0.363-0.209-0.492c-0.131-0.13-0.311-0.203-0.495-0.201l-6.887,0.054c-0.183,0.001-0.363,0.077-0.492,0.208
	c-0.129,0.131-0.202,0.312-0.2,0.496l0.009,1.12l-4.164,0.032c-0.091,0.001-0.18,0.039-0.243,0.104
	c-0.065,0.065-0.101,0.154-0.101,0.246l0.009,1.171l-2.197,0.017l0.017,2.225l21.829-0.17L-513.679,71.031z"/>
<path class="st8" d="M-527.416,69.621L-527.416,69.621l-0.004-0.421l5.49-0.043l0.004,0.421L-527.416,69.621z M-513.679,71.031
	L-513.679,71.031l-2.025,0.016l-0.009-1.171c-0.001-0.091-0.038-0.18-0.103-0.244s-0.155-0.1-0.246-0.1l-4.467,0.035l-0.009-1.12
	c-0.002-0.184-0.077-0.363-0.209-0.492c-0.131-0.13-0.311-0.203-0.495-0.201l-6.887,0.054c-0.183,0.001-0.363,0.077-0.492,0.208
	c-0.129,0.131-0.202,0.312-0.2,0.496l0.009,1.12l-4.164,0.032c-0.091,0.001-0.18,0.039-0.243,0.104
	c-0.065,0.065-0.101,0.154-0.101,0.246l0.009,1.171l-2.197,0.017l0.017,2.225l21.829-0.17L-513.679,71.031z"/>
<rect x="-535.519" y="67.743" class="st9" width="21.868" height="24"/>
<rect x="-194.589" y="-73.025" class="st10" width="34.924" height="19.551"/>
<g>
	<path class="st11" d="M-181.612-62.612v4.238h-0.884v-1.066c-0.416,0.702-1.222,1.132-2.354,1.132
		c-1.547,0-2.496-0.807-2.496-1.989c0-1.054,0.676-1.938,2.639-1.938h2.171v-0.416c0-1.17-0.663-1.807-1.938-1.807
		c-0.884,0-1.716,0.312-2.275,0.806l-0.416-0.688c0.689-0.585,1.703-0.924,2.782-0.924
		C-182.613-65.264-181.612-64.38-181.612-62.612z M-182.535-60.428v-1.118h-2.146c-1.326,0-1.755,0.52-1.755,1.222
		c0,0.793,0.637,1.287,1.729,1.287C-183.666-59.037-182.899-59.531-182.535-60.428z"/>
	<path class="st11" d="M-173.513-65.212v6.838h-0.884v-1.248c-0.481,0.832-1.365,1.313-2.458,1.313
		c-1.742,0-2.886-0.976-2.886-2.938v-3.965h0.923v3.874c0,1.456,0.754,2.197,2.054,2.197c1.43,0,2.327-0.924,2.327-2.483v-3.588
		H-173.513z"/>
	<path class="st11" d="M-172.214-59.154l0.416-0.728c0.546,0.429,1.469,0.767,2.431,0.767c1.3,0,1.833-0.441,1.833-1.118
		c0-1.78-4.433-0.377-4.433-3.081c0-1.118,0.962-1.95,2.704-1.95c0.884,0,1.846,0.247,2.418,0.638l-0.403,0.74
		c-0.598-0.416-1.313-0.585-2.015-0.585c-1.235,0-1.781,0.481-1.781,1.132c0,1.846,4.434,0.455,4.434,3.081
		c0,1.183-1.04,1.95-2.821,1.95C-170.562-58.308-171.655-58.673-172.214-59.154z"/>
</g>
<polygon class="st6" points="-194.339,-73.15 -194.339,-53.15 -194.339,-52.9 -194.089,-52.9 -125.24,-52.9 -124.99,-52.9 
	-124.99,-53.15 -124.99,-73.15 -124.99,-73.4 -125.24,-73.4 -194.089,-73.4 -194.339,-73.4 "/>
<rect x="-194.589" y="-73.65" class="st9" width="69.849" height="21"/>
<rect x="-598.987" y="133.68" class="st11" width="1014" height="21"/>
<path class="st3" d="M28.175,133.68c-2.209,0-4,1.791-4,4v12.382c0,2.209,1.791,4,4,4h77.131c2.209,0,4-1.791,4-4V137.68
	c0-2.209-1.791-4-4-4H28.175z"/>
<rect x="-598.737" y="133.93" class="st12" width="1013.5" height="20.5"/>
<path class="st13" d="M398.869,136.54v1.481c0,0.397,0.187,0.771,0.505,1.009l6.367,4.762c0.258,0.194,0.258,0.583,0,0.776
	l-6.367,4.762c-0.318,0.238-0.505,0.612-0.505,1.01v1.48c0,0.41,0.467,0.644,0.795,0.399l10.111-7.563
	c0.318-0.237,0.318-0.714,0-0.952l-10.11-7.562C399.336,135.896,398.869,136.131,398.869,136.54"/>
<path class="st13" d="M-583.134,151.82v-1.481c0-0.397-0.187-0.771-0.505-1.009l-6.367-4.762c-0.258-0.194-0.258-0.583,0-0.776
	l6.367-4.762c0.318-0.238,0.505-0.612,0.505-1.01v-1.48c0-0.41-0.467-0.644-0.795-0.399l-10.111,7.563
	c-0.318,0.237-0.318,0.714,0,0.952l10.11,7.562C-583.601,152.464-583.134,152.229-583.134,151.82"/>
<rect x="-598.987" y="133.68" class="st9" width="1014" height="21"/>
<rect x="456.786" y="-110.865" class="st11" width="21" height="702.123"/>
<path class="st3" d="M456.786,303.096c0,2.209,1.791,4,4,4h12.382c2.209,0,4-1.791,4-4V224.81c0-2.209-1.791-4-4-4h-12.382
	c-2.209,0-4,1.791-4,4V303.096z"/>
<rect x="457.036" y="-110.616" class="st12" width="20.5" height="701.624"/>
<path class="st13" d="M459.646-97.33h1.481c0.397,0,0.771-0.19,1.009-0.512l4.762-6.453c0.194-0.262,0.583-0.262,0.776,0
	l4.762,6.453c0.238,0.322,0.612,0.512,1.01,0.512h1.48c0.41,0,0.644-0.474,0.399-0.806l-7.563-10.248
	c-0.237-0.322-0.714-0.322-0.952,0l-7.562,10.248C459.002-97.804,459.237-97.33,459.646-97.33"/>
<path class="st13" d="M474.926,576.922h-1.481c-0.397,0-0.771,0.19-1.009,0.512l-4.762,6.453c-0.194,0.262-0.583,0.262-0.776,0
	l-4.762-6.453c-0.238-0.322-0.612-0.512-1.01-0.512h-1.48c-0.41,0-0.644,0.474-0.399,0.806l7.563,10.248
	c0.237,0.322,0.714,0.322,0.952,0l7.562-10.248C475.57,577.396,475.335,576.922,474.926,576.922"/>
<rect x="456.786" y="-110.866" class="st9" width="21" height="702.124"/>
<g>
	<g>
		<line class="st7" x1="-264.188" y1="12.113" x2="-277.205" y2="12.113"/>
		<line class="st7" x1="-264.188" y1="1.937" x2="-277.205" y2="1.937"/>
		<line class="st7" x1="-264.188" y1="7.025" x2="-277.205" y2="7.025"/>
		<g>
			<path class="st5" d="M-280.847,0.467v2.104h-0.487V0.858h-0.421V0.467H-280.847z"/>
		</g>
		<g>
			<path class="st5" d="M-280.087,7.435v0.396h-1.59V7.516l0.812-0.767c0.187-0.178,0.22-0.286,0.22-0.388
				c0-0.165-0.114-0.262-0.337-0.262c-0.18,0-0.333,0.069-0.436,0.21l-0.355-0.228c0.163-0.238,0.457-0.392,0.836-0.392
				c0.469,0,0.781,0.241,0.781,0.623c0,0.204-0.057,0.391-0.352,0.664l-0.484,0.457H-280.087z"/>
		</g>
		<g>
			<path class="st5" d="M-280.105,12.194c0,0.354-0.273,0.68-0.872,0.68c-0.295,0-0.599-0.081-0.803-0.226l0.189-0.373
				c0.159,0.121,0.382,0.189,0.601,0.189c0.244,0,0.394-0.099,0.394-0.271c0-0.159-0.117-0.258-0.394-0.258h-0.223v-0.322
				l0.433-0.49h-0.896v-0.391h1.473v0.316l-0.475,0.541C-280.297,11.65-280.105,11.884-280.105,12.194z"/>
		</g>
	</g>
	<polygon class="st6" points="-286.234,-6.33 -286.234,19.67 -286.234,19.92 -285.984,19.92 -259.984,19.92 -259.734,19.92 
		-259.734,19.67 -259.734,-6.33 -259.734,-6.58 -259.984,-6.58 -285.984,-6.58 -286.234,-6.58 	"/>
</g>
<polygon class="st6" points="-348.066,-6.33 -348.066,19.67 -348.066,19.92 -347.816,19.92 -321.816,19.92 -321.566,19.92 
	-321.566,19.67 -321.566,-6.33 -321.566,-6.58 -321.816,-6.58 -347.816,-6.58 -348.066,-6.58 "/>
<g>
	<polygon class="st6" points="-317.725,-6.33 -317.725,19.67 -317.725,19.92 -317.475,19.92 -291.475,19.92 -291.225,19.92 
		-291.225,19.67 -291.225,-6.33 -291.225,-6.58 -291.475,-6.58 -317.475,-6.58 -317.725,-6.58 	"/>
	<path class="st7" d="M-296.193,11.795h-13.016 M-296.193,6.662h-13.016 M-296.193,1.53h-13.016"/>
	<path class="st5" d="M-311.295,7.247c0.161-0.156,0.241-0.349,0.241-0.581c0-0.15-0.037-0.288-0.11-0.414
		c-0.073-0.125-0.172-0.224-0.297-0.297c-0.126-0.073-0.264-0.11-0.415-0.11c-0.15,0-0.288,0.037-0.41,0.11
		c-0.122,0.073-0.221,0.172-0.294,0.297c-0.072,0.126-0.11,0.264-0.11,0.414c0,0.232,0.08,0.425,0.238,0.581
		c0.157,0.156,0.35,0.234,0.576,0.234C-311.649,7.481-311.456,7.403-311.295,7.247"/>
	<path class="st5" d="M-311.872,2.613c0.489,0,0.885-0.396,0.885-0.885c0-0.488-0.396-0.885-0.885-0.885
		c-0.488,0-0.885,0.397-0.885,0.885C-312.757,2.217-312.36,2.613-311.872,2.613"/>
	<path class="st5" d="M-311.295,12.264c0.161-0.156,0.241-0.349,0.241-0.581c0-0.15-0.037-0.288-0.11-0.414
		c-0.073-0.125-0.172-0.224-0.297-0.297c-0.126-0.073-0.264-0.11-0.415-0.11c-0.15,0-0.288,0.037-0.41,0.11
		c-0.122,0.073-0.221,0.172-0.294,0.297c-0.072,0.126-0.11,0.264-0.11,0.414c0,0.232,0.08,0.425,0.238,0.581
		c0.157,0.156,0.35,0.234,0.576,0.234C-311.649,12.498-311.456,12.42-311.295,12.264"/>
</g>
<path class="st7" d="M-326.534,11.803h-13.016 M-326.534,6.67h-13.016 M-326.534,1.538h-13.016"/>
<rect x="-343.098" y="0.768" class="st5" width="1.77" height="1.77"/>
<rect x="-343.098" y="5.784" class="st5" width="1.77" height="1.77"/>
<rect x="-343.098" y="10.802" class="st5" width="1.77" height="1.77"/>
<rect x="-4.577" y="-74.119" class="st2" width="245" height="57.75"/>
<text transform="matrix(1 0 0 1 70.121 -47.9236)"><tspan x="0" y="0" class="st5" style="font-family:'Montserrat-Regular'; font-size:13px;">N</tspan><tspan x="10.478" y="0" class="st5" style="font-family:'Montserrat-Regular'; font-size:13px;">e</tspan><tspan x="18.135" y="0" class="st5" style="font-family:'Montserrat-Regular'; font-size:13px;">u</tspan><tspan x="26.753" y="0" class="st5" style="font-family:'Montserrat-Regular'; font-size:13px;">e </tspan><tspan x="38.011" y="0" class="st5" style="font-family:'Montserrat-Regular'; font-size:13px; letter-spacing:-1;">T</tspan><tspan x="44.381" y="0" class="st5" style="font-family:'Montserrat-Regular'; font-size:13px;">e</tspan><tspan x="51.882" y="0" class="st5" style="font-family:'Montserrat-Regular'; font-size:13px;">x</tspan><tspan x="59.097" y="0" class="st5" style="font-family:'Montserrat-Regular'; font-size:13px;">t</tspan><tspan x="64.128" y="0" class="st5" style="font-family:'Montserrat-Regular'; font-size:13px;">b</tspan><tspan x="72.942" y="0" class="st5" style="font-family:'Montserrat-Regular'; font-size:13px;">o</tspan><tspan x="80.742" y="0" class="st5" style="font-family:'Montserrat-Regular'; font-size:13px;">x </tspan></text>
<path class="st14" d="M117.923-26.16c3.707,0,6.713-3.005,6.713-6.712c0-3.708-3.006-6.713-6.713-6.713
	c-3.707,0-6.712,3.005-6.712,6.713C111.211-29.165,114.216-26.16,117.923-26.16z"/>
<rect x="-4.577" y="-74.119" class="st9" width="245" height="57.75"/>
<line class="st15" x1="117.923" y1="-36.407" x2="117.923" y2="-29.338"/>
<line class="st15" x1="114.389" y1="-32.841" x2="121.457" y2="-32.841"/>
<path class="st14" d="M6.962,13.675c3.707,0,6.713-3.005,6.713-6.712c0-3.708-3.006-6.713-6.713-6.713
	c-3.707,0-6.712,3.005-6.712,6.713C0.25,10.67,3.255,13.675,6.962,13.675z"/>
<line class="st15" x1="6.962" y1="3.428" x2="6.962" y2="10.497"/>
<line class="st15" x1="3.428" y1="6.994" x2="10.496" y2="6.994"/>
<g>
	<path class="st16" d="M-488.93,28.81h-3.138v-1.85h8.544v1.85h-3.138v7.956h-2.269V28.81z"/>
	<path class="st16" d="M-482.31,26.961h2.269v9.806h-2.269V26.961z"/>
	<path class="st16" d="M-469.216,30.519c0,2.185-1.639,3.544-4.258,3.544h-1.975v2.703h-2.269v-9.806h4.244
		C-470.854,26.961-469.216,28.32-469.216,30.519z M-471.512,30.519c0-1.079-0.701-1.709-2.087-1.709h-1.849v3.403h1.849
		C-472.213,32.214-471.512,31.584-471.512,30.519z"/>
	<path class="st16" d="M-459.093,30.519c0,2.185-1.639,3.544-4.258,3.544h-1.975v2.703h-2.269v-9.806h4.244
		C-460.732,26.961-459.093,28.32-459.093,30.519z M-461.39,30.519c0-1.079-0.701-1.709-2.087-1.709h-1.849v3.403h1.849
		C-462.091,32.214-461.39,31.584-461.39,30.519z"/>
</g>
<path class="st16" d="M-525.558,22.489L-525.558,22.489c-1.054,2.474-1.96,4.602-2.889,6.784h5.729
	C-523.662,27.017-524.544,24.909-525.558,22.489 M-522.065,40.079L-522.065,40.079c-0.346-1.15-0.211-1.759,1.044-1.8
	c0.976-0.033,1.343-0.74,1.02-1.64c-0.507-1.414-1.072-2.81-1.681-4.183c-0.109-0.245-0.55-0.478-0.843-0.484
	c-2.129-0.041-4.261-0.046-6.39,0.005c-0.305,0.008-0.741,0.315-0.877,0.599c-0.558,1.155-1.057,2.342-1.512,3.542
	c-0.57,1.504-0.268,2.026,1.348,2.192c0.783,0.081,1.206,0.319,1.022,1.126c-0.056,0.243-0.355,0.61-0.547,0.613
	c-2.524,0.042-5.049,0.028-7.596,0.028c-0.214-0.956-0.321-1.631,0.868-1.885c0.569-0.122,1.219-0.609,1.515-1.117
	c0.755-1.293,1.377-2.67,1.972-4.049c2.401-5.559,4.761-11.135,7.172-16.689c0.173-0.398,0.634-0.67,0.96-1
	c0.319,0.343,0.766,0.632,0.937,1.037c2.56,6.048,5.079,12.114,7.622,18.17c0.326,0.776,0.705,1.534,1.106,2.275
	c0.507,0.939,1.332,1.389,2.379,1.595c0.265,0.052,0.519,0.638,0.586,1.013c0.032,0.175-0.39,0.621-0.611,0.624
	C-515.723,40.092-518.876,40.079-522.065,40.079"/>
<path class="st5" d="M-428.32,32.541c2.682-0.014,4.762-2.036,4.751-4.621c-0.01-2.367-2.203-4.406-4.733-4.399
	c-2.703,0.008-4.848,2.038-4.825,4.568C-433.104,30.553-430.944,32.554-428.32,32.541 M-422.765,32.554L-422.765,32.554
	c0.393-0.231,0.569-0.207,0.91,0.115c1.249,1.181,2.501,2.361,3.751,3.541c0.086,0.08,0.173,0.159,0.252,0.246
	c0.216,0.237,0.217,0.464-0.012,0.692c-0.249,0.248-0.509,0.488-0.767,0.727c-0.302,0.28-0.548,0.287-0.855,0
	c-1.177-1.103-2.348-2.211-3.522-3.318c-0.132-0.124-0.263-0.25-0.396-0.373c-0.368-0.34-0.394-0.487-0.153-0.896
	c-0.368-0.336-0.737-0.673-1.128-1.029c-1.472,1.07-3.153,1.471-5.011,1.06c-1.415-0.313-2.544-1.054-3.377-2.178
	c-1.65-2.23-1.286-5.335,0.823-7.11c2.222-1.87,5.521-1.904,7.68-0.117c2.217,1.835,2.765,5.106,0.696,7.583
	C-423.504,31.85-423.135,32.201-422.765,32.554"/>
<path class="st17" d="M-428.32,32.541c2.682-0.014,4.762-2.036,4.751-4.621c-0.01-2.367-2.203-4.406-4.733-4.399
	c-2.703,0.008-4.848,2.038-4.825,4.568C-433.104,30.553-430.944,32.554-428.32,32.541z M-422.765,32.554L-422.765,32.554
	c0.393-0.231,0.569-0.207,0.91,0.115c1.249,1.181,2.501,2.361,3.751,3.541c0.086,0.08,0.173,0.159,0.252,0.246
	c0.216,0.237,0.217,0.464-0.012,0.692c-0.249,0.248-0.509,0.488-0.767,0.727c-0.302,0.28-0.548,0.287-0.855,0
	c-1.177-1.103-2.348-2.211-3.522-3.318c-0.132-0.124-0.263-0.25-0.396-0.373c-0.368-0.34-0.394-0.487-0.153-0.896
	c-0.368-0.336-0.737-0.673-1.128-1.029c-1.472,1.07-3.153,1.471-5.011,1.06c-1.415-0.313-2.544-1.054-3.377-2.178
	c-1.65-2.23-1.286-5.335,0.823-7.11c2.222-1.87,5.521-1.904,7.68-0.117c2.217,1.835,2.765,5.106,0.696,7.583
	C-423.504,31.85-423.135,32.201-422.765,32.554z"/>
<path class="st5" d="M-364.605,22.961l2.966,2.98v-2.758c0-0.096-0.055-0.229-0.123-0.297l-3.807-3.826
	c-0.068-0.067-0.178-0.067-0.245,0l-3.93,3.949v2.758c0,0.096,0.055,0.119,0.122,0.051l2.844-2.857
	c0.068-0.068,0.122-0.046,0.122,0.05v7.829h0v2.168c0,0.096-0.055,0.118-0.123,0.05l-2.966-2.98v2.758
	c0,0.096,0.055,0.229,0.123,0.297l3.807,3.826c0.068,0.067,0.178,0.067,0.245,0l3.93-3.949v-2.758c0-0.096-0.055-0.119-0.122-0.051
	l-2.844,2.857c-0.068,0.068-0.122,0.046-0.122-0.05v-7.829h0v-2.168C-364.728,22.915-364.673,22.893-364.605,22.961z"/>
<line class="st18" x1="-400.744" y1="36.197" x2="-372.911" y2="36.197"/>
<line class="st18" x1="-400.744" y1="27.901" x2="-372.911" y2="27.901"/>
<line class="st18" x1="-400.744" y1="19.909" x2="-372.911" y2="19.909"/>
<line class="st18" x1="-386.403" y1="55.168" x2="-386.403" y2="76.168"/>
<path class="st5" d="M-378.943,69.011L-378.943,69.011h2.695l-2.603-2.569c-0.138-0.135-0.093-0.245,0.101-0.245h7.006V64.79
	c0-0.193-0.157-0.35-0.35-0.35h-6.656c-0.194,0-0.239-0.11-0.101-0.246l2.603-2.569h-2.345c-0.193,0-0.462,0.111-0.599,0.246
	l-3.245,3.201c-0.137,0.136-0.137,0.356,0,0.492L-378.943,69.011z"/>
<path class="st5" d="M-394.713,61.8L-394.713,61.8h-2.695l2.603,2.569c0.138,0.135,0.093,0.245-0.101,0.245h-7.006v1.407
	c0,0.193,0.157,0.35,0.35,0.35h6.656c0.194,0,0.239,0.11,0.101,0.246l-2.603,2.569h2.345c0.193,0,0.462-0.111,0.599-0.246
	l3.245-3.201c0.137-0.136,0.137-0.356,0-0.492L-394.713,61.8z"/>
<line class="st19" x1="-70.117" y1="-63.945" x2="-106.14" y2="-63.945"/>
<path class="st20" d="M-78.62-60.798c2.045,0,3.703-1.658,3.703-3.703c0-2.045-1.658-3.703-3.703-3.703s-3.703,1.658-3.703,3.703
	C-82.323-62.456-80.665-60.798-78.62-60.798"/>
<g>
	<path class="st5" d="M-55.421-63.743c0,3.12-1.82,4.836-4.459,4.836c-0.91,0-1.781-0.195-2.392-0.585l0.624-1.274
		c0.494,0.325,1.092,0.442,1.729,0.442c1.716,0,2.795-1.066,2.795-3.133v-0.014c-0.546,0.638-1.417,0.949-2.431,0.949
		c-1.794,0-3.133-1.092-3.133-2.795c0-1.807,1.469-2.951,3.328-2.951C-56.877-68.268-55.421-66.668-55.421-63.743z M-57.384-65.407
		c0-0.858-0.676-1.534-1.885-1.534c-1.053,0-1.781,0.598-1.781,1.547s0.715,1.547,1.82,1.547
		C-58.137-63.848-57.384-64.511-57.384-65.407z"/>
	<path class="st5" d="M-47.555-61.832c0,1.599-1.157,2.925-3.602,2.925c-1.287,0-2.587-0.39-3.419-1.053l0.715-1.313
		c0.663,0.546,1.651,0.897,2.678,0.897c1.209,0,1.924-0.533,1.924-1.392c0-0.871-0.559-1.417-2.444-1.417H-53.9l0.468-4.953h5.343
		v1.417h-3.913l-0.195,2.106h0.871C-48.635-64.615-47.555-63.445-47.555-61.832z"/>
	<path class="st5" d="M-43.136-65.733c0-1.495,0.871-2.496,2.171-2.496s2.184,0.988,2.184,2.496s-0.884,2.496-2.184,2.496
		S-43.136-64.238-43.136-65.733z M-39.847-65.733c0-1.014-0.416-1.586-1.118-1.586c-0.676,0-1.118,0.585-1.118,1.586
		s0.442,1.586,1.118,1.586C-40.263-64.147-39.847-64.719-39.847-65.733z M-35.505-68.138h1.274l-6.214,9.101h-1.274L-35.505-68.138z
		 M-37.169-61.443c0-1.495,0.871-2.496,2.171-2.496c1.3,0,2.184,1.001,2.184,2.496s-0.884,2.496-2.184,2.496
		C-36.298-58.947-37.169-59.948-37.169-61.443z M-33.88-61.443c0-1.001-0.429-1.586-1.118-1.586s-1.118,0.572-1.118,1.586
		c0,1.015,0.429,1.586,1.118,1.586S-33.88-60.442-33.88-61.443z"/>
</g>
<rect x="-92.179" y="-9.801" class="st11" width="13.149" height="16.764"/>
<polygon class="st21" points="-92.18,6.962 -92.18,6.962 -79.031,6.962 -79.031,-9.802 -92.18,-9.802 "/>
<rect x="-99.851" y="-10.272" class="st9" width="21.291" height="24"/>
<line class="st22" x1="-95.354" y1="-2.106" x2="-95.354" y2="8.281"/>
<line class="st23" x1="-92.722" y1="10.17" x2="-83.073" y2="10.17"/>
<path class="st21" d="M-82.197,10.17h0.877 M-95.354,9.226v0.944h0.877 M-95.354-4.939v0.944"/>
<polyline class="st21" points="-99.381,-1.851 -99.381,13.257 -85.347,13.257 "/>
<rect x="-99.851" y="-10.272" class="st9" width="21.291" height="24"/>
<rect x="-60.606" y="-9.87" class="st11" width="14.674" height="18.705"/>
<polygon class="st24" points="-60.605,8.834 -60.605,8.834 -45.932,8.834 -45.932,-9.871 -60.605,-9.871 "/>
<rect x="-61.008" y="-10.272" class="st9" width="19.884" height="24"/>
<rect x="-56.199" y="-5.379" class="st5" width="14.674" height="18.705"/>
<polygon class="st25" points="-56.199,13.326 -56.199,13.326 -41.526,13.326 -41.526,-5.379 -56.199,-5.379 "/>
<rect x="-61.008" y="-10.272" class="st9" width="19.884" height="24"/>
<rect x="-159.498" y="-6.323" class="st10" width="34.924" height="19.551"/>
<text transform="matrix(1 0 0 1 -152.498 8.3279)"><tspan x="0" y="0" class="st11" style="font-family:'Montserrat-Regular'; font-size:13px;">e</tspan><tspan x="7.41" y="0" class="st11" style="font-family:'Montserrat-Regular'; font-size:13px;">i</tspan><tspan x="10.335" y="0" class="st11" style="font-family:'Montserrat-Regular'; font-size:13px;">n</tspan></text>
<polygon class="st6" points="-194.506,-6.448 -194.506,13.552 -194.506,13.802 -194.256,13.802 -125.407,13.802 -125.157,13.802 
	-125.157,13.552 -125.157,-6.448 -125.157,-6.698 -125.407,-6.698 -194.256,-6.698 -194.506,-6.698 "/>
<rect x="-194.756" y="-6.948" class="st9" width="70.183" height="21"/>
<line class="st26" x1="-53.442" y1="83.191" x2="-53.442" y2="107.451"/>
<path class="st5" d="M-45.345,99.009L-45.345,99.009h2.592l-2.494-2.46c-0.138-0.135-0.093-0.245,0.101-0.245h6.725v-1.339
	c0-0.193-0.157-0.35-0.35-0.35h-6.725l2.743-2.705h-2.242c-0.193,0-0.462,0.11-0.599,0.245l-3.102,3.059
	c-0.137,0.135-0.137,0.355,0,0.491L-45.345,99.009z"/>
<line class="st26" x1="-80.388" y1="107.284" x2="-80.388" y2="83.024"/>
<path class="st5" d="M-88.484,91.465L-88.484,91.465h-2.592l2.494,2.46c0.138,0.135,0.093,0.245-0.101,0.245h-6.725v1.339
	c0,0.193,0.157,0.35,0.35,0.35h6.725l-2.743,2.705h2.242c0.193,0,0.462-0.11,0.599-0.245l3.102-3.059
	c0.137-0.135,0.137-0.355,0-0.491L-88.484,91.465z"/>
<line class="st26" x1="-270.13" y1="91.062" x2="-245.87" y2="91.062"/>
<path class="st5" d="M-254.478,83.004L-254.478,83.004v-2.592l-2.46,2.494c-0.135,0.138-0.245,0.093-0.245-0.101V76.08h-1.339
	c-0.193,0-0.35,0.157-0.35,0.35v6.725l-2.705-2.743v2.242c0,0.193,0.11,0.462,0.245,0.599l3.059,3.102
	c0.135,0.137,0.355,0.137,0.491,0L-254.478,83.004z"/>
<path class="st5" d="M-261.411,98.156L-261.411,98.156v2.592l2.46-2.494c0.135-0.138,0.245-0.093,0.245,0.101v6.725h1.339
	c0.193,0,0.35-0.157,0.35-0.35v-6.725l2.705,2.743v-2.242c0-0.193-0.11-0.462-0.245-0.599l-3.059-3.102
	c-0.135-0.137-0.355-0.137-0.491,0L-261.411,98.156z"/>
<line class="st26" x1="-213.683" y1="103.873" x2="-213.683" y2="79.613"/>
<path class="st5" d="M-221.741,88.222L-221.741,88.222h-2.592l2.494,2.46c0.138,0.135,0.093,0.245-0.101,0.245h-6.725v1.339
	c0,0.193,0.157,0.35,0.35,0.35h6.725l-2.743,2.705h2.242c0.193,0,0.462-0.11,0.599-0.245l3.102-3.059
	c0.137-0.135,0.137-0.355,0-0.491L-221.741,88.222z"/>
<path class="st5" d="M-206.589,95.154L-206.589,95.154h2.592l-2.494-2.46c-0.138-0.135-0.093-0.245,0.101-0.245h6.725V91.11
	c0-0.193-0.157-0.35-0.35-0.35h-6.725l2.743-2.705h-2.242c-0.193,0-0.462,0.11-0.599,0.245l-3.102,3.059
	c-0.137,0.135-0.137,0.355,0,0.491L-206.589,95.154z"/>
<line class="st26" x1="-181.542" y1="91.345" x2="-157.282" y2="91.345"/>
<path class="st5" d="M-172.823,98.44L-172.823,98.44v2.592l2.46-2.494c0.135-0.138,0.245-0.093,0.245,0.101v6.725h1.339
	c0.193,0,0.35-0.157,0.35-0.35v-6.725l2.705,2.743V98.79c0-0.193-0.11-0.462-0.245-0.599l-3.059-3.102
	c-0.135-0.137-0.355-0.137-0.491,0L-172.823,98.44z"/>
<line class="st26" x1="-136.431" y1="102.601" x2="-112.171" y2="102.601"/>
<path class="st5" d="M-120.612,94.212L-120.612,94.212V91.62l-2.46,2.494c-0.135,0.138-0.245,0.093-0.245-0.101v-6.725h-1.339
	c-0.193,0-0.35,0.157-0.35,0.35v6.725l-2.705-2.743v2.242c0,0.193,0.11,0.462,0.245,0.599l3.059,3.102
	c0.135,0.137,0.355,0.137,0.491,0L-120.612,94.212z"/>
<rect x="9.433" y="75.675" class="st11" width="15.769" height="20.056"/>
<line class="st27" x1="12.39" y1="95.731" x2="23.231" y2="95.731"/>
<line class="st28" x1="25.202" y1="92.722" x2="25.202" y2="77.68"/>
<line class="st27" x1="22.245" y1="75.675" x2="11.404" y2="75.675"/>
<line class="st28" x1="9.433" y1="78.683" x2="9.433" y2="93.725"/>
<path class="st21" d="M9.433,94.728v1.003h0.986 M10.419,75.675H9.433v1.003 M25.202,76.678v-1.003h-0.985 M24.217,95.731h0.985
	v-1.003"/>
<polygon class="st11" points="-1.803,105.731 -1.803,105.731 13.966,105.731 13.966,85.675 -1.803,85.675 "/>
<line class="st27" x1="1.154" y1="105.731" x2="11.995" y2="105.731"/>
<line class="st28" x1="13.966" y1="102.722" x2="13.966" y2="87.68"/>
<line class="st27" x1="11.01" y1="85.675" x2="0.169" y2="85.675"/>
<line class="st28" x1="-1.803" y1="88.683" x2="-1.803" y2="103.725"/>
<path class="st21" d="M-1.803,104.728v1.003h0.986 M-0.817,85.675h-0.986v1.003 M13.966,86.678v-1.003h-0.985 M12.981,105.731h0.985
	v-1.003"/>
<polygon class="st11" points="-11.277,113.731 -11.277,113.731 4.492,113.731 4.492,93.675 -11.277,93.675 "/>
<polygon class="st21" points="-11.277,113.731 -11.277,113.731 4.492,113.731 4.492,93.675 -11.277,93.675 "/>
<g>
	<polygon class="st11" points="62.559,100.036 62.559,100.036 78.328,100.036 78.328,79.98 62.559,79.98 	"/>
	<polygon class="st21" points="62.559,100.036 62.559,100.036 78.328,100.036 78.328,79.98 62.559,79.98 	"/>
	<line class="st29" x1="58.795" y1="88.535" x2="58.795" y2="102.039"/>
	<line class="st30" x1="61.932" y1="103.84" x2="73.435" y2="103.84"/>
	<path class="st21" d="M74.48,103.839h1.046 M58.795,102.939v0.9h1.046 M58.795,85.834v0.9"/>
</g>
<g>
	<g>
		<rect x="135.099" y="68.26" class="st11" width="15.769" height="20.056"/>
		<polygon class="st21" points="135.099,88.316 135.099,88.316 150.868,88.316 150.868,68.26 135.099,68.26 		"/>
		<polygon class="st11" points="123.863,98.316 123.863,98.316 139.632,98.316 139.632,78.26 123.863,78.26 		"/>
		<line class="st27" x1="126.82" y1="98.316" x2="137.661" y2="98.316"/>
		<line class="st28" x1="139.632" y1="95.308" x2="139.632" y2="80.266"/>
		<line class="st27" x1="136.675" y1="78.26" x2="125.834" y2="78.26"/>
		<line class="st28" x1="123.863" y1="81.268" x2="123.863" y2="96.31"/>
		<path class="st21" d="M123.863,97.313v1.003h0.986 M124.849,78.26h-0.986v1.003 M139.632,79.263V78.26h-0.985 M138.647,98.316
			h0.985v-1.003"/>
		<polygon class="st11" points="114.389,106.316 114.389,106.316 130.158,106.316 130.158,86.26 114.389,86.26 		"/>
		<line class="st27" x1="117.346" y1="106.316" x2="128.187" y2="106.316"/>
		<line class="st28" x1="130.158" y1="103.308" x2="130.158" y2="88.266"/>
		<line class="st27" x1="127.202" y1="86.26" x2="116.361" y2="86.26"/>
		<line class="st28" x1="114.389" y1="89.268" x2="114.389" y2="104.31"/>
		<path class="st21" d="M114.389,105.313v1.003h0.986 M115.375,86.26h-0.986v1.003 M130.158,87.263V86.26h-0.985 M129.173,106.316
			h0.985v-1.003"/>
	</g>
	<line class="st27" x1="190.513" y1="101.801" x2="201.354" y2="101.801"/>
	<line class="st28" x1="203.325" y1="98.793" x2="203.325" y2="83.751"/>
	<line class="st27" x1="200.368" y1="81.745" x2="189.527" y2="81.745"/>
	<line class="st28" x1="187.556" y1="84.754" x2="187.556" y2="99.796"/>
	<path class="st21" d="M187.556,100.798v1.003h0.986 M188.542,81.745h-0.986v1.003 M203.325,82.748v-1.003h-0.985 M202.34,101.801
		h0.985v-1.003"/>
	<polyline class="st21" points="183.792,87.599 183.792,105.604 200.523,105.604 	"/>
</g>
<g>
	<defs>
		<rect id="SVGID_1_" x="-571.483" y="195.637" width="241.682" height="1"/>
	</defs>
	<clipPath id="SVGID_00000157302401614584856320000012433707838535171486_">
		<use xlink:href="#SVGID_1_"  style="overflow:visible;"/>
	</clipPath>
	
		<line style="clip-path:url(#SVGID_00000157302401614584856320000012433707838535171486_);fill:none;stroke:#B2B2B2;stroke-linecap:round;stroke-linejoin:round;stroke-dasharray:0,3.009;" x1="-567.974" y1="196.137" x2="-331.804" y2="196.137"/>
	
		<path style="clip-path:url(#SVGID_00000157302401614584856320000012433707838535171486_);fill:none;stroke:#B2B2B2;stroke-linecap:round;stroke-linejoin:round;" d="
		M-330.301,196.137L-330.301,196.137 M-570.983,196.137L-570.983,196.137"/>
</g>
<circle class="st33" cx="-524.585" cy="-25.074" r="12.75"/>
<polygon class="st3" points="-381.192,-40.097 -394.192,-40.097 -387.824,-29.622 "/>
<polygon class="st5" points="-373.168,88.444 -383.643,94.812 -373.168,101.444 "/>
<polygon class="st5" points="-402.215,101.444 -391.74,95.076 -402.215,88.444 "/>
<polygon class="st5" points="-319.662,88.444 -330.137,94.812 -319.662,101.444 "/>
<polygon class="st5" points="-354.839,101.444 -344.364,95.076 -354.839,88.444 "/>
<rect x="-194.589" y="-40.086" class="st10" width="34.924" height="19.551"/>
<polygon class="st6" points="-194.339,-40.211 -194.339,-20.211 -194.339,-19.961 -194.089,-19.961 -125.24,-19.961 
	-124.99,-19.961 -124.99,-20.211 -124.99,-40.211 -124.99,-40.461 -125.24,-40.461 -194.089,-40.461 -194.339,-40.461 "/>
<rect x="-194.589" y="-40.711" class="st9" width="69.849" height="21"/>
<rect x="-159.226" y="25.942" class="st10" width="34.924" height="19.551"/>
<polygon class="st6" points="-194.234,25.817 -194.234,45.817 -194.234,46.067 -193.984,46.067 -125.135,46.067 -124.885,46.067 
	-124.885,45.817 -124.885,25.817 -124.885,25.567 -125.135,25.567 -193.984,25.567 -194.234,25.567 "/>
<rect x="-194.484" y="25.317" class="st9" width="70.183" height="21"/>
<line class="st19" x1="-71.194" y1="-44.157" x2="-107.217" y2="-44.157"/>
<path class="st20" d="M-79.697-41.011c2.045,0,3.703-1.658,3.703-3.703c0-2.045-1.658-3.703-3.703-3.703s-3.703,1.658-3.703,3.703
	C-83.4-42.669-81.742-41.011-79.697-41.011"/>
<line class="st19" x1="237.13" y1="-13.378" x2="201.107" y2="-13.378"/>
<path class="st20" d="M228.627-10.231c2.045,0,3.703-1.658,3.703-3.703s-1.658-3.703-3.703-3.703s-3.703,1.658-3.703,3.703
	S226.582-10.231,228.627-10.231"/>
</svg>
