<?xml version="1.0" encoding="utf-8"?>
<!-- Generator: Adobe Illustrator 26.2.1, SVG Export Plug-In . SVG Version: 6.00 Build 0)  -->
<svg version="1.1" id="Ebene_1" xmlns="http://www.w3.org/2000/svg" xmlns:xlink="http://www.w3.org/1999/xlink" x="0px" y="0px"
	 width="9px" height="9px" viewBox="0 0 9 9" enable-background="new 0 0 9 9" xml:space="preserve">
<polygon fill="#0E689A" points="9,0 9,0 0,0 0,9 9,9 "/>
<path fill="#FFFFFF" d="M1,7h0.7c0.2,0,0.4-0.1,0.5-0.2l2.2-2.9c0.1-0.1,0.3-0.1,0.4,0L7,6.8C7.1,6.9,7.3,7,7.5,7h0.7
	c0.2,0,0.3-0.2,0.2-0.4L4.9,2C4.8,1.9,4.6,1.9,4.5,2L1,6.6C0.7,6.8,0.8,7,1,7"/>
</svg>
