<?xml version="1.0" encoding="utf-8"?>
<!-- Generator: Adobe Illustrator 26.2.1, SVG Export Plug-In . SVG Version: 6.00 Build 0)  -->
<svg version="1.1" id="Ebene_1" xmlns="http://www.w3.org/2000/svg" xmlns:xlink="http://www.w3.org/1999/xlink" x="0px" y="0px"
	 width="9px" height="19px" viewBox="0 0 9 19" enable-background="new 0 0 9 19" xml:space="preserve">
<polygon fill="#0E689A" points="0,19 0,19 9,19 9,10 0,10 "/>
<path fill="#FFFFFF" d="M8,11.9H7.3c-0.2,0-0.4,0.1-0.5,0.2L4.6,15c-0.1,0.1-0.3,0.1-0.4,0L2,12.1c-0.1-0.1-0.3-0.2-0.5-0.2H0.8
	c-0.2,0-0.3,0.2-0.2,0.4l3.5,4.6c0.1,0.1,0.3,0.1,0.4,0L8,12.3C8.3,12.1,8.2,11.9,8,11.9"/>
<polygon fill="#0E689A" points="9,0 9,0 0,0 0,9 9,9 "/>
<path fill="#FFFFFF" d="M1,7h0.7c0.2,0,0.4-0.1,0.5-0.2l2.2-2.9c0.1-0.1,0.3-0.1,0.4,0L7,6.8C7.1,6.9,7.3,7,7.5,7h0.7
	c0.2,0,0.3-0.2,0.2-0.4L4.9,2C4.8,1.9,4.6,1.9,4.5,2L1,6.6C0.7,6.8,0.8,7,1,7"/>
</svg>
