<?xml version="1.0" encoding="utf-8"?>
<!-- Generator: Adobe Illustrator 26.3.1, SVG Export Plug-In . SVG Version: 6.00 Build 0)  -->
<svg version="1.1" id="Ebene_1" xmlns="http://www.w3.org/2000/svg" xmlns:xlink="http://www.w3.org/1999/xlink" x="0px" y="0px"
	 width="14.59px" height="14.59px" viewBox="0 0 14.59 14.59" style="enable-background:new 0 0 14.59 14.59;" xml:space="preserve"
	>
<style type="text/css">
	.st0{fill:#B2B2B2;}
	.st1{fill:#FFFFFF;}
	.st2{fill:#F5F5F5;}
	.st3{fill:#F0EDED;}
	.st4{fill:#E8E8E8;}
	.st5{fill:#E3E3E3;}
	.st6{fill:#DBDBDB;}
	.st7{fill:#D6D6D6;}
	.st8{fill:#D1D1D1;}
	.st9{fill:#C7C7C7;}
	.st10{fill:#BDBDBD;}
	.st11{fill:#B8B5B5;}
</style>
<path class="st0" d="M8.005,3.314c0,0.353-0.286,0.639-0.639,0.639c-0.353,0-0.639-0.286-0.639-0.639V0.639
	C6.727,0.286,7.013,0,7.366,0c0.353,0,0.639,0.286,0.639,0.639V3.314z"/>
<path class="st1" d="M10.685,0.927c-0.221,0-0.436,0.115-0.554,0.32L8.793,3.564C8.617,3.869,8.722,4.26,9.027,4.437
	c0.101,0.058,0.211,0.085,0.319,0.085c0.221,0,0.436-0.114,0.554-0.319l1.338-2.317c0.177-0.306,0.072-0.697-0.234-0.873
	C10.903,0.955,10.793,0.927,10.685,0.927"/>
<path class="st2" d="M11.097,5.92c-0.306,0.176-0.697,0.072-0.873-0.234c-0.177-0.306-0.072-0.697,0.234-0.873l2.317-1.338
	c0.306-0.176,0.697-0.072,0.873,0.234c0.177,0.306,0.072,0.697-0.234,0.873L11.097,5.92z"/>
<path class="st3" d="M11.275,8.005c-0.353,0-0.639-0.286-0.639-0.639s0.286-0.639,0.639-0.64l2.675,0.001
	c0.353,0,0.64,0.286,0.64,0.639s-0.287,0.639-0.64,0.639H11.275z"/>
<path class="st4" d="M10.387,9.9c-0.306-0.176-0.41-0.567-0.234-0.873c0.177-0.306,0.568-0.411,0.873-0.234l2.317,1.338
	c0.306,0.176,0.411,0.567,0.234,0.873c-0.176,0.306-0.567,0.41-0.873,0.234L10.387,9.9z"/>
<path class="st5" d="M8.67,11.097c-0.176-0.306-0.072-0.697,0.234-0.873c0.306-0.177,0.697-0.072,0.873,0.234l1.338,2.317
	c0.176,0.305,0.072,0.696-0.234,0.873c-0.306,0.176-0.697,0.071-0.873-0.234L8.67,11.097z"/>
<path class="st6" d="M6.585,11.276c0-0.353,0.286-0.639,0.639-0.639c0.353,0,0.639,0.286,0.639,0.639v2.675
	c0,0.353-0.286,0.639-0.639,0.639c-0.353,0-0.639-0.286-0.639-0.639V11.276z"/>
<path class="st7" d="M4.69,10.387c0.176-0.306,0.567-0.41,0.873-0.234c0.306,0.177,0.41,0.568,0.234,0.873l-1.338,2.317
	c-0.176,0.306-0.567,0.411-0.873,0.234c-0.306-0.176-0.41-0.568-0.234-0.873L4.69,10.387z"/>
<path class="st8" d="M3.493,8.67C3.799,8.494,4.19,8.598,4.366,8.904C4.543,9.21,4.438,9.601,4.132,9.777l-2.317,1.338
	c-0.306,0.176-0.696,0.072-0.873-0.234c-0.176-0.306-0.071-0.697,0.234-0.873L3.493,8.67z"/>
<path class="st9" d="M3.315,6.585c0.353,0,0.639,0.286,0.639,0.639c0,0.353-0.287,0.64-0.639,0.64H0.639
	C0.287,7.864,0,7.577,0,7.224c0-0.353,0.287-0.639,0.639-0.639H3.315z"/>
<path class="st10" d="M4.203,4.69c0.306,0.177,0.411,0.568,0.234,0.873C4.261,5.869,3.869,5.974,3.564,5.797L1.247,4.46
	c-0.306-0.177-0.41-0.568-0.234-0.874C1.19,3.28,1.581,3.175,1.886,3.351L4.203,4.69z"/>
<path class="st11" d="M5.92,3.493C6.097,3.799,5.992,4.19,5.686,4.366C5.381,4.543,4.99,4.438,4.813,4.132L3.476,1.814
	C3.299,1.509,3.404,1.118,3.709,0.941c0.306-0.176,0.697-0.072,0.874,0.234L5.92,3.493z"/>
</svg>
