<?xml version="1.0" encoding="utf-8"?>
<!-- Generator: Adobe Illustrator 26.2.1, SVG Export Plug-In . SVG Version: 6.00 Build 0)  -->
<svg version="1.1" id="Ebene_1" xmlns="http://www.w3.org/2000/svg" xmlns:xlink="http://www.w3.org/1999/xlink" x="0px" y="0px"
	 width="1286.7px" height="40.8px" viewBox="0 0 1286.7 40.8" enable-background="new 0 0 1286.7 40.8" xml:space="preserve">
<g>
	<rect x="3.8" fill="#B2B2B2" width="0.3" height="13.8"/>
	<rect x="6.6" fill="#B2B2B2" width="0.3" height="13.8"/>
	<rect x="9.5" fill="#B2B2B2" width="0.3" height="13.8"/>
	<rect x="12.3" fill="#B2B2B2" width="0.3" height="13.8"/>
	<rect x="15.1" fill="#B2B2B2" width="0.3" height="13.8"/>
	<rect x="18" fill="#B2B2B2" width="0.3" height="13.8"/>
	<rect x="20.8" fill="#B2B2B2" width="0.3" height="13.8"/>
	<rect x="23.6" fill="#B2B2B2" width="0.3" height="13.8"/>
	<rect x="26.5" fill="#B2B2B2" width="0.3" height="13.8"/>
	<rect x="29.3" fill="#B2B2B2" width="0.3" height="13.8"/>
	<rect x="32.1" fill="#B2B2B2" width="0.3" height="13.8"/>
	<rect x="35" fill="#B2B2B2" width="0.3" height="13.8"/>
	<rect x="37.8" fill="#B2B2B2" width="0.3" height="13.8"/>
	<rect x="40.6" fill="#B2B2B2" width="0.3" height="13.8"/>
	<rect x="43.5" fill="#B2B2B2" width="0.3" height="13.8"/>
	<rect x="46.3" fill="#B2B2B2" width="0.3" height="13.8"/>
	<rect x="49.1" fill="#B2B2B2" width="0.3" height="13.8"/>
	<rect x="52" fill="#B2B2B2" width="0.3" height="13.8"/>
	<rect x="54.8" fill="#B2B2B2" width="0.3" height="13.8"/>
	<rect x="57.6" fill="#B2B2B2" width="0.3" height="13.8"/>
	<rect x="60.5" fill="#B2B2B2" width="0.3" height="13.8"/>
	<rect x="63.3" fill="#B2B2B2" width="0.3" height="13.8"/>
	<rect x="66.1" fill="#B2B2B2" width="0.3" height="13.8"/>
	<rect x="69" fill="#B2B2B2" width="0.3" height="13.8"/>
	<rect x="71.8" fill="#B2B2B2" width="0.3" height="13.8"/>
	<rect x="74.6" fill="#B2B2B2" width="0.3" height="13.8"/>
	<rect x="77.5" fill="#B2B2B2" width="0.3" height="13.8"/>
	<rect x="80.3" fill="#B2B2B2" width="0.3" height="13.8"/>
	<rect x="83.2" fill="#B2B2B2" width="0.3" height="13.8"/>
	<rect x="86" fill="#B2B2B2" width="0.3" height="13.8"/>
	<rect x="88.8" fill="#B2B2B2" width="0.3" height="13.8"/>
	<rect x="91.7" fill="#B2B2B2" width="0.3" height="13.8"/>
	<rect x="94.5" fill="#B2B2B2" width="0.3" height="13.8"/>
	<rect x="97.3" fill="#B2B2B2" width="0.3" height="13.8"/>
	<rect x="100.2" fill="#B2B2B2" width="0.3" height="13.8"/>
	<rect x="103" fill="#B2B2B2" width="0.3" height="13.8"/>
	<rect x="105.8" fill="#B2B2B2" width="0.3" height="13.8"/>
	<rect x="108.7" fill="#B2B2B2" width="0.3" height="13.8"/>
	<rect x="111.5" fill="#B2B2B2" width="0.3" height="13.8"/>
	<rect x="114.3" fill="#B2B2B2" width="0.3" height="13.8"/>
	<rect x="117.2" fill="#B2B2B2" width="0.3" height="13.8"/>
	<rect x="120" fill="#B2B2B2" width="0.3" height="13.8"/>
	<rect x="122.8" fill="#B2B2B2" width="0.3" height="13.8"/>
	<rect x="125.7" fill="#B2B2B2" width="0.3" height="13.8"/>
	<rect x="128.5" fill="#B2B2B2" width="0.3" height="13.8"/>
	<rect x="131.3" fill="#B2B2B2" width="0.3" height="13.8"/>
	<rect x="134.2" fill="#B2B2B2" width="0.3" height="13.8"/>
	<rect x="137" fill="#B2B2B2" width="0.3" height="13.8"/>
	<rect x="139.8" fill="#B2B2B2" width="0.3" height="13.8"/>
	<rect x="142.7" fill="#B2B2B2" width="0.3" height="13.8"/>
	<rect x="145.5" fill="#B2B2B2" width="0.3" height="13.8"/>
	<rect x="148.3" fill="#B2B2B2" width="0.3" height="13.8"/>
	<rect x="151.2" fill="#B2B2B2" width="0.3" height="13.8"/>
	<rect x="154" fill="#B2B2B2" width="0.3" height="13.8"/>
	<rect x="156.9" fill="#B2B2B2" width="0.3" height="13.8"/>
	<rect x="159.7" fill="#B2B2B2" width="0.3" height="13.8"/>
	<rect x="162.5" fill="#B2B2B2" width="0.3" height="13.8"/>
	<rect x="165.4" fill="#B2B2B2" width="0.3" height="13.8"/>
	<rect x="168.2" fill="#B2B2B2" width="0.3" height="13.8"/>
	<rect x="171" fill="#B2B2B2" width="0.3" height="13.8"/>
	<rect x="173.9" fill="#B2B2B2" width="0.3" height="13.8"/>
	<rect x="176.7" fill="#B2B2B2" width="0.3" height="13.8"/>
	<rect x="179.5" fill="#B2B2B2" width="0.3" height="13.8"/>
	<rect x="182.4" fill="#B2B2B2" width="0.3" height="13.8"/>
	<rect x="185.2" fill="#B2B2B2" width="0.3" height="13.8"/>
	<rect x="188" fill="#B2B2B2" width="0.3" height="13.8"/>
	<rect x="190.9" fill="#B2B2B2" width="0.3" height="13.8"/>
	<rect x="193.7" fill="#B2B2B2" width="0.3" height="13.8"/>
	<rect x="196.5" fill="#B2B2B2" width="0.3" height="13.8"/>
	<rect x="199.4" fill="#B2B2B2" width="0.3" height="13.8"/>
	<rect x="202.2" fill="#B2B2B2" width="0.3" height="13.8"/>
	<rect x="205" fill="#B2B2B2" width="0.3" height="13.8"/>
	<rect x="207.9" fill="#B2B2B2" width="0.3" height="13.8"/>
	<rect x="210.7" fill="#B2B2B2" width="0.3" height="13.8"/>
	<rect x="213.5" fill="#B2B2B2" width="0.3" height="13.8"/>
	<rect x="216.4" fill="#B2B2B2" width="0.3" height="13.8"/>
	<rect x="219.2" fill="#B2B2B2" width="0.3" height="13.8"/>
	<rect x="222" fill="#B2B2B2" width="0.3" height="13.8"/>
	<rect x="224.9" fill="#B2B2B2" width="0.3" height="13.8"/>
	<rect x="227.7" fill="#B2B2B2" width="0.3" height="13.8"/>
	<rect x="230.6" fill="#B2B2B2" width="0.3" height="13.8"/>
	<rect x="233.4" fill="#B2B2B2" width="0.3" height="13.8"/>
	<rect x="236.2" fill="#B2B2B2" width="0.3" height="13.8"/>
	<rect x="239.1" fill="#B2B2B2" width="0.3" height="13.8"/>
	<rect x="241.9" fill="#B2B2B2" width="0.3" height="13.8"/>
	<rect x="244.7" fill="#B2B2B2" width="0.3" height="13.8"/>
	<rect x="247.6" fill="#B2B2B2" width="0.3" height="13.8"/>
	<rect x="250.4" fill="#B2B2B2" width="0.3" height="13.8"/>
	<rect x="253.2" fill="#B2B2B2" width="0.3" height="13.8"/>
	<rect x="256.1" fill="#B2B2B2" width="0.3" height="13.8"/>
	<rect x="258.9" fill="#B2B2B2" width="0.3" height="13.8"/>
	<rect x="261.7" fill="#B2B2B2" width="0.3" height="13.8"/>
	<rect x="264.6" fill="#B2B2B2" width="0.3" height="13.8"/>
	<rect x="267.4" fill="#B2B2B2" width="0.3" height="13.8"/>
	<rect x="270.2" fill="#B2B2B2" width="0.3" height="13.8"/>
	<rect x="273.1" fill="#B2B2B2" width="0.3" height="13.8"/>
	<rect x="275.9" fill="#B2B2B2" width="0.3" height="13.8"/>
	<rect x="278.7" fill="#B2B2B2" width="0.3" height="13.8"/>
	<rect x="281.6" fill="#B2B2B2" width="0.3" height="13.8"/>
	<rect x="284.4" fill="#B2B2B2" width="0.3" height="13.8"/>
	<rect x="287.2" fill="#B2B2B2" width="0.3" height="13.8"/>
	<rect x="290.1" fill="#B2B2B2" width="0.3" height="13.8"/>
	<rect x="292.9" fill="#B2B2B2" width="0.3" height="13.8"/>
	<rect x="295.8" fill="#B2B2B2" width="0.3" height="13.8"/>
	<rect x="298.6" fill="#B2B2B2" width="0.3" height="13.8"/>
	<rect x="301.4" fill="#B2B2B2" width="0.3" height="13.8"/>
	<rect x="304.3" fill="#B2B2B2" width="0.3" height="13.8"/>
	<rect x="307.1" fill="#B2B2B2" width="0.3" height="13.8"/>
	<rect x="309.9" fill="#B2B2B2" width="0.3" height="13.8"/>
	<rect x="312.8" fill="#B2B2B2" width="0.3" height="13.8"/>
	<rect x="315.6" fill="#B2B2B2" width="0.3" height="13.8"/>
	<rect x="318.4" fill="#B2B2B2" width="0.3" height="13.8"/>
	<rect x="321.3" fill="#B2B2B2" width="0.3" height="13.8"/>
	<rect x="324.1" fill="#B2B2B2" width="0.3" height="13.8"/>
	<rect x="326.9" fill="#B2B2B2" width="0.3" height="13.8"/>
	<rect x="329.8" fill="#B2B2B2" width="0.3" height="13.8"/>
	<rect x="332.6" fill="#B2B2B2" width="0.3" height="13.8"/>
	<rect x="335.4" fill="#B2B2B2" width="0.3" height="13.8"/>
	<rect x="338.3" fill="#B2B2B2" width="0.3" height="13.8"/>
	<rect x="341.1" fill="#B2B2B2" width="0.3" height="13.8"/>
	<rect x="343.9" fill="#B2B2B2" width="0.3" height="13.8"/>
	<rect x="346.8" fill="#B2B2B2" width="0.3" height="13.8"/>
	<rect x="349.6" fill="#B2B2B2" width="0.3" height="13.8"/>
	<rect x="352.4" fill="#B2B2B2" width="0.3" height="13.8"/>
	<rect x="355.3" fill="#B2B2B2" width="0.3" height="13.8"/>
	<rect x="358.1" fill="#B2B2B2" width="0.3" height="13.8"/>
	<rect x="360.9" fill="#B2B2B2" width="0.3" height="13.8"/>
	<rect x="363.8" fill="#B2B2B2" width="0.3" height="13.8"/>
	<rect x="366.6" fill="#B2B2B2" width="0.3" height="13.8"/>
	<rect x="369.5" fill="#B2B2B2" width="0.3" height="13.8"/>
	<rect x="372.3" fill="#B2B2B2" width="0.3" height="13.8"/>
	<rect x="375.1" fill="#B2B2B2" width="0.3" height="13.8"/>
	<rect x="378" fill="#B2B2B2" width="0.3" height="13.8"/>
	<rect x="380.8" fill="#B2B2B2" width="0.3" height="13.8"/>
	<rect x="383.6" fill="#B2B2B2" width="0.3" height="13.8"/>
	<rect x="386.5" fill="#B2B2B2" width="0.3" height="13.8"/>
	<rect x="389.3" fill="#B2B2B2" width="0.3" height="13.8"/>
	<rect x="392.1" fill="#B2B2B2" width="0.3" height="13.8"/>
	<rect x="395" fill="#B2B2B2" width="0.3" height="13.8"/>
	<rect x="397.8" fill="#B2B2B2" width="0.3" height="13.8"/>
	<rect x="400.6" fill="#B2B2B2" width="0.3" height="13.8"/>
	<rect x="403.5" fill="#B2B2B2" width="0.3" height="13.8"/>
	<rect x="406.3" fill="#B2B2B2" width="0.3" height="13.8"/>
	<rect x="409.1" fill="#B2B2B2" width="0.3" height="13.8"/>
	<rect x="412" fill="#B2B2B2" width="0.3" height="13.8"/>
	<rect x="414.8" fill="#B2B2B2" width="0.3" height="13.8"/>
	<rect x="417.6" fill="#B2B2B2" width="0.3" height="13.8"/>
	<rect x="420.5" fill="#B2B2B2" width="0.3" height="13.8"/>
	<rect x="423.3" fill="#B2B2B2" width="0.3" height="13.8"/>
	<rect x="426.1" fill="#B2B2B2" width="0.3" height="13.8"/>
	<rect x="429" fill="#B2B2B2" width="0.3" height="13.8"/>
	<rect x="431.8" fill="#B2B2B2" width="0.3" height="13.8"/>
	<rect x="434.6" fill="#B2B2B2" width="0.3" height="13.8"/>
	<rect x="437.5" fill="#B2B2B2" width="0.3" height="13.8"/>
	<rect x="440.3" fill="#B2B2B2" width="0.3" height="13.8"/>
	<rect x="443.2" fill="#B2B2B2" width="0.3" height="13.8"/>
	<rect x="446" fill="#B2B2B2" width="0.3" height="13.8"/>
	<rect x="448.8" fill="#B2B2B2" width="0.3" height="13.8"/>
	<rect x="451.7" fill="#B2B2B2" width="0.3" height="13.8"/>
	<rect x="454.5" fill="#B2B2B2" width="0.3" height="13.8"/>
	<rect x="457.3" fill="#B2B2B2" width="0.3" height="13.8"/>
	<rect x="460.2" fill="#B2B2B2" width="0.3" height="13.8"/>
	<rect x="463" fill="#B2B2B2" width="0.3" height="13.8"/>
	<rect x="465.8" fill="#B2B2B2" width="0.3" height="13.8"/>
	<rect x="468.7" fill="#B2B2B2" width="0.3" height="13.8"/>
	<rect x="471.5" fill="#B2B2B2" width="0.3" height="13.8"/>
	<rect x="474.3" fill="#B2B2B2" width="0.3" height="13.8"/>
	<rect x="477.2" fill="#B2B2B2" width="0.3" height="13.8"/>
	<rect x="480" fill="#B2B2B2" width="0.3" height="13.8"/>
	<rect x="482.8" fill="#B2B2B2" width="0.3" height="13.8"/>
	<rect x="485.7" fill="#B2B2B2" width="0.3" height="13.8"/>
	<rect x="488.5" fill="#B2B2B2" width="0.3" height="13.8"/>
	<rect x="491.3" fill="#B2B2B2" width="0.3" height="13.8"/>
	<rect x="494.2" fill="#B2B2B2" width="0.3" height="13.8"/>
	<rect x="497" fill="#B2B2B2" width="0.3" height="13.8"/>
	<rect x="499.8" fill="#B2B2B2" width="0.3" height="13.8"/>
	<rect x="502.7" fill="#B2B2B2" width="0.3" height="13.8"/>
	<rect x="505.5" fill="#B2B2B2" width="0.3" height="13.8"/>
	<rect x="508.3" fill="#B2B2B2" width="0.3" height="13.8"/>
	<rect x="511.2" fill="#B2B2B2" width="0.3" height="13.8"/>
	<rect x="514" fill="#B2B2B2" width="0.3" height="13.8"/>
	<rect x="516.9" fill="#B2B2B2" width="0.3" height="13.8"/>
	<rect x="519.7" fill="#B2B2B2" width="0.3" height="13.8"/>
	<rect x="522.5" fill="#B2B2B2" width="0.3" height="13.8"/>
	<rect x="525.4" fill="#B2B2B2" width="0.3" height="13.8"/>
	<rect x="528.2" fill="#B2B2B2" width="0.3" height="13.8"/>
	<rect x="531" fill="#B2B2B2" width="0.3" height="13.8"/>
	<rect x="533.9" fill="#B2B2B2" width="0.3" height="13.8"/>
	<rect x="536.7" fill="#B2B2B2" width="0.3" height="13.8"/>
	<rect x="539.5" fill="#B2B2B2" width="0.3" height="13.8"/>
	<rect x="542.4" fill="#B2B2B2" width="0.3" height="13.8"/>
	<rect x="545.2" fill="#B2B2B2" width="0.3" height="13.8"/>
	<rect x="548" fill="#B2B2B2" width="0.3" height="13.8"/>
	<rect x="550.9" fill="#B2B2B2" width="0.3" height="13.8"/>
	<rect x="553.7" fill="#B2B2B2" width="0.3" height="13.8"/>
	<rect x="556.5" fill="#B2B2B2" width="0.3" height="13.8"/>
	<rect x="559.4" fill="#B2B2B2" width="0.3" height="13.8"/>
	<rect x="562.2" fill="#B2B2B2" width="0.3" height="13.8"/>
	<rect x="565" fill="#B2B2B2" width="0.3" height="13.8"/>
	<rect x="567.9" fill="#B2B2B2" width="0.3" height="13.8"/>
	<rect x="570.7" fill="#B2B2B2" width="0.3" height="13.8"/>
	<rect x="573.5" fill="#B2B2B2" width="0.3" height="13.8"/>
	<rect x="576.4" fill="#B2B2B2" width="0.3" height="13.8"/>
	<rect x="579.2" fill="#B2B2B2" width="0.3" height="13.8"/>
	<rect x="582.1" fill="#B2B2B2" width="0.3" height="13.8"/>
	<rect x="584.9" fill="#B2B2B2" width="0.3" height="13.8"/>
	<rect x="587.7" fill="#B2B2B2" width="0.3" height="13.8"/>
	<rect x="590.6" fill="#B2B2B2" width="0.3" height="13.8"/>
	<rect x="593.4" fill="#B2B2B2" width="0.3" height="13.8"/>
	<rect x="596.2" fill="#B2B2B2" width="0.3" height="13.8"/>
	<rect x="599.1" fill="#B2B2B2" width="0.3" height="13.8"/>
	<rect x="601.9" fill="#B2B2B2" width="0.3" height="13.8"/>
	<rect x="604.7" fill="#B2B2B2" width="0.3" height="13.8"/>
	<rect x="607.6" fill="#B2B2B2" width="0.3" height="13.8"/>
	<rect x="610.4" fill="#B2B2B2" width="0.3" height="13.8"/>
	<rect x="613.2" fill="#B2B2B2" width="0.3" height="13.8"/>
	<rect x="616.1" fill="#B2B2B2" width="0.3" height="13.8"/>
	<rect x="618.9" fill="#B2B2B2" width="0.3" height="13.8"/>
	<rect x="621.7" fill="#B2B2B2" width="0.3" height="13.8"/>
	<rect x="624.6" fill="#B2B2B2" width="0.3" height="13.8"/>
	<rect x="627.4" fill="#B2B2B2" width="0.3" height="13.8"/>
	<rect x="630.2" fill="#B2B2B2" width="0.3" height="13.8"/>
	<rect x="633.1" fill="#B2B2B2" width="0.3" height="13.8"/>
	<rect x="635.9" fill="#B2B2B2" width="0.3" height="13.8"/>
	<rect x="638.7" fill="#B2B2B2" width="0.3" height="13.8"/>
	<rect x="641.6" fill="#B2B2B2" width="0.3" height="13.8"/>
	<rect x="644.4" fill="#B2B2B2" width="0.3" height="13.8"/>
	<rect x="647.2" fill="#B2B2B2" width="0.3" height="13.8"/>
	<rect x="650.1" fill="#B2B2B2" width="0.3" height="13.8"/>
	<rect x="652.9" fill="#B2B2B2" width="0.3" height="13.8"/>
	<rect x="655.8" fill="#B2B2B2" width="0.3" height="13.8"/>
	<rect x="658.6" fill="#B2B2B2" width="0.3" height="13.8"/>
	<rect x="661.4" fill="#B2B2B2" width="0.3" height="13.8"/>
	<rect x="664.3" fill="#B2B2B2" width="0.3" height="13.8"/>
	<rect x="667.1" fill="#B2B2B2" width="0.3" height="13.8"/>
	<rect x="669.9" fill="#B2B2B2" width="0.3" height="13.8"/>
	<rect x="672.8" fill="#B2B2B2" width="0.3" height="13.8"/>
	<rect x="675.6" fill="#B2B2B2" width="0.3" height="13.8"/>
	<rect x="678.4" fill="#B2B2B2" width="0.3" height="13.8"/>
	<rect x="681.3" fill="#B2B2B2" width="0.3" height="13.8"/>
	<rect x="684.1" fill="#B2B2B2" width="0.3" height="13.8"/>
	<rect x="686.9" fill="#B2B2B2" width="0.3" height="13.8"/>
	<rect x="689.8" fill="#B2B2B2" width="0.3" height="13.8"/>
	<rect x="692.6" fill="#B2B2B2" width="0.3" height="13.8"/>
	<rect x="695.4" fill="#B2B2B2" width="0.3" height="13.8"/>
	<rect x="698.3" fill="#B2B2B2" width="0.3" height="13.8"/>
	<rect x="701.1" fill="#B2B2B2" width="0.3" height="13.8"/>
	<rect x="703.9" fill="#B2B2B2" width="0.3" height="13.8"/>
	<rect x="706.8" fill="#B2B2B2" width="0.3" height="13.8"/>
	<rect x="709.6" fill="#B2B2B2" width="0.3" height="13.8"/>
	<rect x="712.4" fill="#B2B2B2" width="0.3" height="13.8"/>
	<rect x="715.3" fill="#B2B2B2" width="0.3" height="13.8"/>
	<rect x="718.1" fill="#B2B2B2" width="0.3" height="13.8"/>
	<rect x="720.9" fill="#B2B2B2" width="0.3" height="13.8"/>
	<rect x="723.8" fill="#B2B2B2" width="0.3" height="13.8"/>
	<rect x="726.6" fill="#B2B2B2" width="0.3" height="13.8"/>
	<rect x="729.5" fill="#B2B2B2" width="0.3" height="13.8"/>
	<rect x="732.3" fill="#B2B2B2" width="0.3" height="13.8"/>
	<rect x="735.1" fill="#B2B2B2" width="0.3" height="13.8"/>
	<rect x="738" fill="#B2B2B2" width="0.3" height="13.8"/>
	<rect x="740.8" fill="#B2B2B2" width="0.3" height="13.8"/>
	<rect x="743.6" fill="#B2B2B2" width="0.3" height="13.8"/>
	<rect x="746.5" fill="#B2B2B2" width="0.3" height="13.8"/>
	<rect x="749.3" fill="#B2B2B2" width="0.3" height="13.8"/>
	<rect x="752.1" fill="#B2B2B2" width="0.3" height="13.8"/>
	<rect x="755" fill="#B2B2B2" width="0.3" height="13.8"/>
	<rect x="757.8" fill="#B2B2B2" width="0.3" height="13.8"/>
	<rect x="760.6" fill="#B2B2B2" width="0.3" height="13.8"/>
	<rect x="763.5" fill="#B2B2B2" width="0.3" height="13.8"/>
	<rect x="766.3" fill="#B2B2B2" width="0.3" height="13.8"/>
	<rect x="769.1" fill="#B2B2B2" width="0.3" height="13.8"/>
	<rect x="772" fill="#B2B2B2" width="0.3" height="13.8"/>
	<rect x="774.8" fill="#B2B2B2" width="0.3" height="13.8"/>
	<rect x="777.6" fill="#B2B2B2" width="0.3" height="13.8"/>
	<rect x="780.5" fill="#B2B2B2" width="0.3" height="13.8"/>
	<rect x="783.3" fill="#B2B2B2" width="0.3" height="13.8"/>
	<rect x="786.1" fill="#B2B2B2" width="0.3" height="13.8"/>
	<rect x="789" fill="#B2B2B2" width="0.3" height="13.8"/>
	<rect x="791.8" fill="#B2B2B2" width="0.3" height="13.8"/>
	<rect x="794.6" fill="#B2B2B2" width="0.3" height="13.8"/>
	<rect x="797.5" fill="#B2B2B2" width="0.3" height="13.8"/>
	<rect x="800.3" fill="#B2B2B2" width="0.3" height="13.8"/>
	<rect x="803.2" fill="#B2B2B2" width="0.3" height="13.8"/>
	<rect x="806" fill="#B2B2B2" width="0.3" height="13.8"/>
	<rect x="808.8" fill="#B2B2B2" width="0.3" height="13.8"/>
	<rect x="811.7" fill="#B2B2B2" width="0.3" height="13.8"/>
	<rect x="814.5" fill="#B2B2B2" width="0.3" height="13.8"/>
	<rect x="817.3" fill="#B2B2B2" width="0.3" height="13.8"/>
	<rect x="820.2" fill="#B2B2B2" width="0.3" height="13.8"/>
	<rect x="823" fill="#B2B2B2" width="0.3" height="13.8"/>
	<rect x="825.8" fill="#B2B2B2" width="0.3" height="13.8"/>
	<rect x="828.7" fill="#B2B2B2" width="0.3" height="13.8"/>
	<rect x="831.5" fill="#B2B2B2" width="0.3" height="13.8"/>
	<rect x="834.3" fill="#B2B2B2" width="0.3" height="13.8"/>
	<rect x="837.2" fill="#B2B2B2" width="0.3" height="13.8"/>
	<rect x="840" fill="#B2B2B2" width="0.3" height="13.8"/>
	<rect x="842.8" fill="#B2B2B2" width="0.3" height="13.8"/>
	<rect x="845.7" fill="#B2B2B2" width="0.3" height="13.8"/>
	<rect x="848.5" fill="#B2B2B2" width="0.3" height="13.8"/>
	<rect x="851.3" fill="#B2B2B2" width="0.3" height="13.8"/>
	<rect x="854.2" fill="#B2B2B2" width="0.3" height="13.8"/>
	<rect x="857" fill="#B2B2B2" width="0.3" height="13.8"/>
	<rect x="859.8" fill="#B2B2B2" width="0.3" height="13.8"/>
	<rect x="862.7" fill="#B2B2B2" width="0.3" height="13.8"/>
	<rect x="865.5" fill="#B2B2B2" width="0.3" height="13.8"/>
	<rect x="868.3" fill="#B2B2B2" width="0.3" height="13.8"/>
	<rect x="871.2" fill="#B2B2B2" width="0.3" height="13.8"/>
	<rect x="874" fill="#B2B2B2" width="0.3" height="13.8"/>
	<rect x="876.9" fill="#B2B2B2" width="0.3" height="13.8"/>
	<rect x="879.7" fill="#B2B2B2" width="0.3" height="13.8"/>
	<rect x="882.5" fill="#B2B2B2" width="0.3" height="13.8"/>
	<rect x="885.4" fill="#B2B2B2" width="0.3" height="13.8"/>
	<rect x="888.2" fill="#B2B2B2" width="0.3" height="13.8"/>
	<rect x="891" fill="#B2B2B2" width="0.3" height="13.8"/>
	<rect x="893.9" fill="#B2B2B2" width="0.3" height="13.8"/>
	<rect x="896.7" fill="#B2B2B2" width="0.3" height="13.8"/>
	<rect x="899.5" fill="#B2B2B2" width="0.3" height="13.8"/>
	<rect x="902.4" fill="#B2B2B2" width="0.3" height="13.8"/>
	<rect x="905.2" fill="#B2B2B2" width="0.3" height="13.8"/>
	<rect x="908" fill="#B2B2B2" width="0.3" height="13.8"/>
	<rect x="910.9" fill="#B2B2B2" width="0.3" height="13.8"/>
	<rect x="913.7" fill="#B2B2B2" width="0.3" height="13.8"/>
	<rect x="916.5" fill="#B2B2B2" width="0.3" height="13.8"/>
	<rect x="919.4" fill="#B2B2B2" width="0.3" height="13.8"/>
	<rect x="922.2" fill="#B2B2B2" width="0.3" height="13.8"/>
	<rect x="925" fill="#B2B2B2" width="0.3" height="13.8"/>
	<rect x="927.9" fill="#B2B2B2" width="0.3" height="13.8"/>
	<rect x="930.7" fill="#B2B2B2" width="0.3" height="13.8"/>
	<rect x="933.5" fill="#B2B2B2" width="0.3" height="13.8"/>
	<rect x="936.4" fill="#B2B2B2" width="0.3" height="13.8"/>
	<rect x="939.2" fill="#B2B2B2" width="0.3" height="13.8"/>
	<rect x="942.1" fill="#B2B2B2" width="0.3" height="13.8"/>
	<rect x="944.9" fill="#B2B2B2" width="0.3" height="13.8"/>
	<rect x="947.7" fill="#B2B2B2" width="0.3" height="13.8"/>
	<rect x="950.6" fill="#B2B2B2" width="0.3" height="13.8"/>
	<rect x="953.4" fill="#B2B2B2" width="0.3" height="13.8"/>
	<rect x="956.2" fill="#B2B2B2" width="0.3" height="13.8"/>
	<rect x="959.1" fill="#B2B2B2" width="0.3" height="13.8"/>
	<rect x="961.9" fill="#B2B2B2" width="0.3" height="13.8"/>
	<rect x="964.7" fill="#B2B2B2" width="0.3" height="13.8"/>
	<rect x="967.6" fill="#B2B2B2" width="0.3" height="13.8"/>
	<rect x="970.4" fill="#B2B2B2" width="0.3" height="13.8"/>
	<rect x="973.2" fill="#B2B2B2" width="0.3" height="13.8"/>
	<rect x="976.1" fill="#B2B2B2" width="0.3" height="13.8"/>
	<rect x="978.9" fill="#B2B2B2" width="0.3" height="13.8"/>
	<rect x="981.7" fill="#B2B2B2" width="0.3" height="13.8"/>
	<rect x="984.6" fill="#B2B2B2" width="0.3" height="13.8"/>
	<rect x="987.4" fill="#B2B2B2" width="0.3" height="13.8"/>
	<rect x="990.2" fill="#B2B2B2" width="0.3" height="13.8"/>
	<rect x="993.1" fill="#B2B2B2" width="0.3" height="13.8"/>
	<rect x="995.9" fill="#B2B2B2" width="0.3" height="13.8"/>
	<rect x="998.7" fill="#B2B2B2" width="0.3" height="13.8"/>
	<rect x="1001.6" fill="#B2B2B2" width="0.3" height="13.8"/>
	<rect x="1004.4" fill="#B2B2B2" width="0.3" height="13.8"/>
	<rect x="1007.2" fill="#B2B2B2" width="0.3" height="13.8"/>
	<rect x="1010.1" fill="#B2B2B2" width="0.3" height="13.8"/>
	<rect x="1012.9" fill="#B2B2B2" width="0.3" height="13.8"/>
	<rect x="1015.8" fill="#B2B2B2" width="0.3" height="13.8"/>
	<rect x="1018.6" fill="#B2B2B2" width="0.3" height="13.8"/>
	<rect x="1021.4" fill="#B2B2B2" width="0.3" height="13.8"/>
	<rect x="1024.3" fill="#B2B2B2" width="0.3" height="13.8"/>
	<rect x="1027.1" fill="#B2B2B2" width="0.3" height="13.8"/>
	<rect x="1029.9" fill="#B2B2B2" width="0.3" height="13.8"/>
	<rect x="1032.8" fill="#B2B2B2" width="0.3" height="13.8"/>
	<rect x="1035.6" fill="#B2B2B2" width="0.3" height="13.8"/>
	<rect x="1038.4" fill="#B2B2B2" width="0.3" height="13.8"/>
	<rect x="1041.3" fill="#B2B2B2" width="0.3" height="13.8"/>
	<rect x="1044.1" fill="#B2B2B2" width="0.3" height="13.8"/>
	<rect x="1046.9" fill="#B2B2B2" width="0.3" height="13.8"/>
	<rect x="1049.8" fill="#B2B2B2" width="0.3" height="13.8"/>
	<rect x="1052.6" fill="#B2B2B2" width="0.3" height="13.8"/>
	<rect x="1055.4" fill="#B2B2B2" width="0.3" height="13.8"/>
	<rect x="1058.3" fill="#B2B2B2" width="0.3" height="13.8"/>
	<rect x="1061.1" fill="#B2B2B2" width="0.3" height="13.8"/>
	<rect x="1063.9" fill="#B2B2B2" width="0.3" height="13.8"/>
	<rect x="1066.8" fill="#B2B2B2" width="0.3" height="13.8"/>
	<rect x="1069.6" fill="#B2B2B2" width="0.3" height="13.8"/>
	<rect x="1072.4" fill="#B2B2B2" width="0.3" height="13.8"/>
	<rect x="1075.3" fill="#B2B2B2" width="0.3" height="13.8"/>
	<rect x="1078.1" fill="#B2B2B2" width="0.3" height="13.8"/>
	<rect x="1080.9" fill="#B2B2B2" width="0.3" height="13.8"/>
	<rect x="1083.8" fill="#B2B2B2" width="0.3" height="13.8"/>
	<rect x="1086.6" fill="#B2B2B2" width="0.3" height="13.8"/>
	<rect x="1089.5" fill="#B2B2B2" width="0.3" height="13.8"/>
	<rect x="1092.3" fill="#B2B2B2" width="0.3" height="13.8"/>
	<rect x="1095.1" fill="#B2B2B2" width="0.3" height="13.8"/>
	<path fill="#B2B2B2" d="M1098.1,0v13.8V0z"/>
	<rect x="1098" fill="#B2B2B2" width="0.3" height="13.8"/>
	<path fill="#B2B2B2" d="M1100.9,0v13.8V0z"/>
	<rect x="1100.8" fill="#B2B2B2" width="0.3" height="13.8"/>
	<path fill="#B2B2B2" d="M1103.8,0v13.8V0z"/>
	<rect x="1103.6" fill="#B2B2B2" width="0.3" height="13.8"/>
	<path fill="#B2B2B2" d="M1106.6,0v13.8V0z"/>
	<rect x="1106.5" fill="#B2B2B2" width="0.3" height="13.8"/>
	<path fill="#B2B2B2" d="M1109.4,0v13.8V0z"/>
	<rect x="1109.3" fill="#B2B2B2" width="0.3" height="13.8"/>
	<path fill="#B2B2B2" d="M1112.3,0v13.8V0z"/>
	<rect x="1112.1" fill="#B2B2B2" width="0.3" height="13.8"/>
	<path fill="#B2B2B2" d="M1115.1,0v13.8V0z"/>
	<rect x="1115" fill="#B2B2B2" width="0.3" height="13.8"/>
	<path fill="#B2B2B2" d="M1117.9,0v13.8V0z"/>
	<rect x="1117.8" fill="#B2B2B2" width="0.3" height="13.8"/>
	<path fill="#B2B2B2" d="M1120.8,0v13.8V0z"/>
	<rect x="1120.6" fill="#B2B2B2" width="0.3" height="13.8"/>
	<path fill="#B2B2B2" d="M1123.6,0v13.8V0z"/>
	<rect x="1123.5" fill="#B2B2B2" width="0.3" height="13.8"/>
	<path fill="#B2B2B2" d="M1126.4,0v13.8V0z"/>
	<rect x="1126.3" fill="#B2B2B2" width="0.3" height="13.8"/>
	<path fill="#B2B2B2" d="M1129.3,0v13.8V0z"/>
	<rect x="1129.1" fill="#B2B2B2" width="0.3" height="13.8"/>
	<path fill="#B2B2B2" d="M1132.1,0v13.8V0z"/>
	<rect x="1132" fill="#B2B2B2" width="0.3" height="13.8"/>
	<path fill="#B2B2B2" d="M1134.9,0v13.8V0z"/>
	<rect x="1134.8" fill="#B2B2B2" width="0.3" height="13.8"/>
	<path fill="#B2B2B2" d="M1137.8,0v13.8V0z"/>
	<rect x="1137.6" fill="#B2B2B2" width="0.3" height="13.8"/>
	<path fill="#B2B2B2" d="M1140.6,0v13.8V0z"/>
	<rect x="1140.5" fill="#B2B2B2" width="0.3" height="13.8"/>
	<path fill="#B2B2B2" d="M1143.5,0v13.8V0z"/>
	<rect x="1143.3" fill="#B2B2B2" width="0.3" height="13.8"/>
	<path fill="#B2B2B2" d="M1146.3,0v13.8V0z"/>
	<rect x="1146.1" fill="#B2B2B2" width="0.3" height="13.8"/>
	<path fill="#B2B2B2" d="M1149.1,0v13.8V0z"/>
	<rect x="1149" fill="#B2B2B2" width="0.3" height="13.8"/>
	<path fill="#B2B2B2" d="M1152,0v13.8V0z"/>
	<rect x="1151.8" fill="#B2B2B2" width="0.3" height="13.8"/>
	<path fill="#B2B2B2" d="M1154.8,0v13.8V0z"/>
	<rect x="1154.6" fill="#B2B2B2" width="0.3" height="13.8"/>
	<path fill="#B2B2B2" d="M1157.6,0v13.8V0z"/>
	<rect x="1157.5" fill="#B2B2B2" width="0.3" height="13.8"/>
	<path fill="#B2B2B2" d="M1160.5,0v13.8V0z"/>
	<rect x="1160.3" fill="#B2B2B2" width="0.3" height="13.8"/>
	<path fill="#B2B2B2" d="M1163.3,0v13.8V0z"/>
	<rect x="1163.2" fill="#B2B2B2" width="0.3" height="13.8"/>
	<path fill="#B2B2B2" d="M1166.1,0v13.8V0z"/>
	<rect x="1166" fill="#B2B2B2" width="0.3" height="13.8"/>
	<path fill="#B2B2B2" d="M1169,0v13.8V0z"/>
	<rect x="1168.8" fill="#B2B2B2" width="0.3" height="13.8"/>
	<path fill="#B2B2B2" d="M1171.8,0v13.8V0z"/>
	<rect x="1171.7" fill="#B2B2B2" width="0.3" height="13.8"/>
	<path fill="#B2B2B2" d="M1174.6,0v13.8V0z"/>
	<rect x="1174.5" fill="#B2B2B2" width="0.3" height="13.8"/>
	<path fill="#B2B2B2" d="M1177.5,0v13.8V0z"/>
	<rect x="1177.3" fill="#B2B2B2" width="0.3" height="13.8"/>
	<path fill="#B2B2B2" d="M1180.3,0v13.8V0z"/>
	<rect x="1180.2" fill="#B2B2B2" width="0.3" height="13.8"/>
	<path fill="#B2B2B2" d="M1183.1,0v13.8V0z"/>
	<rect x="1183" fill="#B2B2B2" width="0.3" height="13.8"/>
	<path fill="#B2B2B2" d="M1186,0v13.8V0z"/>
	<rect x="1185.8" fill="#B2B2B2" width="0.3" height="13.8"/>
	<path fill="#B2B2B2" d="M1188.8,0v13.8V0z"/>
	<rect x="1188.7" fill="#B2B2B2" width="0.3" height="13.8"/>
	<path fill="#B2B2B2" d="M1191.6,0v13.8V0z"/>
	<rect x="1191.5" fill="#B2B2B2" width="0.3" height="13.8"/>
	<path fill="#B2B2B2" d="M1194.5,0v13.8V0z"/>
	<rect x="1194.3" fill="#B2B2B2" width="0.3" height="13.8"/>
	<path fill="#B2B2B2" d="M1197.3,0v13.8V0z"/>
	<rect x="1197.2" fill="#B2B2B2" width="0.3" height="13.8"/>
	<path fill="#B2B2B2" d="M1200.1,0v13.8V0z"/>
	<rect x="1200" fill="#B2B2B2" width="0.3" height="13.8"/>
	<path fill="#B2B2B2" d="M1203,0v13.8V0z"/>
	<rect x="1202.8" fill="#B2B2B2" width="0.3" height="13.8"/>
	<path fill="#B2B2B2" d="M1205.8,0v13.8V0z"/>
	<rect x="1205.7" fill="#B2B2B2" width="0.3" height="13.8"/>
	<path fill="#B2B2B2" d="M1208.6,0v13.8V0z"/>
	<rect x="1208.5" fill="#B2B2B2" width="0.3" height="13.8"/>
	<path fill="#B2B2B2" d="M1211.5,0v13.8V0z"/>
	<rect x="1211.3" fill="#B2B2B2" width="0.3" height="13.8"/>
	<path fill="#B2B2B2" d="M1214.3,0v13.8V0z"/>
	<rect x="1214.2" fill="#B2B2B2" width="0.3" height="13.8"/>
	<path fill="#B2B2B2" d="M1217.2,0v13.8V0z"/>
	<rect x="1217" fill="#B2B2B2" width="0.3" height="13.8"/>
	<path fill="#B2B2B2" d="M1220,0v13.8V0z"/>
	<rect x="1219.8" fill="#B2B2B2" width="0.3" height="13.8"/>
	<path fill="#B2B2B2" d="M1222.8,0v13.8V0z"/>
	<rect x="1222.7" fill="#B2B2B2" width="0.3" height="13.8"/>
	<path fill="#B2B2B2" d="M1225.7,0v13.8V0z"/>
	<rect x="1225.5" fill="#B2B2B2" width="0.3" height="13.8"/>
	<path fill="#B2B2B2" d="M1228.5,0v13.8V0z"/>
	<rect x="1228.3" fill="#B2B2B2" width="0.3" height="13.8"/>
	<path fill="#B2B2B2" d="M1231.3,0v13.8V0z"/>
	<rect x="1231.2" fill="#B2B2B2" width="0.3" height="13.8"/>
	<path fill="#B2B2B2" d="M1234.2,0v13.8V0z"/>
	<rect x="1234" fill="#B2B2B2" width="0.3" height="13.8"/>
	<path fill="#B2B2B2" d="M1237,0v13.8V0z"/>
	<rect x="1236.9" fill="#B2B2B2" width="0.3" height="13.8"/>
	<path fill="#B2B2B2" d="M1239.8,0v13.8V0z"/>
	<rect x="1239.7" fill="#B2B2B2" width="0.3" height="13.8"/>
	<path fill="#B2B2B2" d="M1242.7,0v13.8V0z"/>
	<rect x="1242.5" fill="#B2B2B2" width="0.3" height="13.8"/>
	<path fill="#B2B2B2" d="M1245.5,0v13.8V0z"/>
	<rect x="1245.4" fill="#B2B2B2" width="0.3" height="13.8"/>
	<path fill="#B2B2B2" d="M1248.3,0v13.8V0z"/>
	<rect x="1248.2" fill="#B2B2B2" width="0.3" height="13.8"/>
	<path fill="#B2B2B2" d="M1251.2,0v13.8V0z"/>
	<rect x="1251" fill="#B2B2B2" width="0.3" height="13.8"/>
	<path fill="#B2B2B2" d="M1254,0v13.8V0z"/>
	<rect x="1253.9" fill="#B2B2B2" width="0.3" height="13.8"/>
	<path fill="#B2B2B2" d="M1256.8,0v13.8V0z"/>
	<rect x="1256.7" fill="#B2B2B2" width="0.3" height="13.8"/>
	<path fill="#B2B2B2" d="M1259.7,0v13.8V0z"/>
	<rect x="1259.5" fill="#B2B2B2" width="0.3" height="13.8"/>
	<path fill="#B2B2B2" d="M1262.5,0v13.8V0z"/>
	<rect x="1262.4" fill="#B2B2B2" width="0.3" height="13.8"/>
	<path fill="#B2B2B2" d="M1265.3,0v13.8V0z"/>
	<rect x="1265.2" fill="#B2B2B2" width="0.3" height="13.8"/>
	<path fill="#B2B2B2" d="M1268.2,0v13.8V0z"/>
	<rect x="1268" fill="#B2B2B2" width="0.3" height="13.8"/>
	<path fill="#B2B2B2" d="M1271,0v13.8V0z"/>
	<rect x="1270.9" fill="#B2B2B2" width="0.3" height="13.8"/>
	<path fill="#B2B2B2" d="M1273.8,0v13.8V0z"/>
	<rect x="1273.7" fill="#B2B2B2" width="0.3" height="13.8"/>
	<path fill="#B2B2B2" d="M1276.7,0v13.8V0z"/>
	<rect x="1276.5" fill="#B2B2B2" width="0.3" height="13.8"/>
	<rect x="3.8" fill="#B2B2B2" width="0.3" height="19.4"/>
	<rect x="18" fill="#B2B2B2" width="0.3" height="19.4"/>
	<rect x="32.1" fill="#B2B2B2" width="0.3" height="19.4"/>
	<rect x="46.3" fill="#B2B2B2" width="0.3" height="19.4"/>
	<rect x="60.5" fill="#B2B2B2" width="0.3" height="19.4"/>
	<rect x="74.6" fill="#B2B2B2" width="0.3" height="19.4"/>
	<rect x="88.8" fill="#B2B2B2" width="0.3" height="19.4"/>
	<rect x="103" fill="#B2B2B2" width="0.3" height="19.4"/>
	<rect x="117.2" fill="#B2B2B2" width="0.3" height="19.4"/>
	<rect x="131.3" fill="#B2B2B2" width="0.3" height="19.4"/>
	<rect x="145.5" fill="#B2B2B2" width="0.3" height="19.4"/>
	<rect x="159.7" fill="#B2B2B2" width="0.3" height="19.4"/>
	<rect x="173.9" fill="#B2B2B2" width="0.3" height="19.4"/>
	<rect x="188" fill="#B2B2B2" width="0.3" height="19.4"/>
	<rect x="202.2" fill="#B2B2B2" width="0.3" height="19.4"/>
	<rect x="216.4" fill="#B2B2B2" width="0.3" height="19.4"/>
	<rect x="230.6" fill="#B2B2B2" width="0.3" height="19.4"/>
	<rect x="244.7" fill="#B2B2B2" width="0.3" height="19.4"/>
	<rect x="258.9" fill="#B2B2B2" width="0.3" height="19.4"/>
	<rect x="273.1" fill="#B2B2B2" width="0.3" height="19.4"/>
	<rect x="287.2" fill="#B2B2B2" width="0.3" height="19.4"/>
	<rect x="301.4" fill="#B2B2B2" width="0.3" height="19.4"/>
	<rect x="315.6" fill="#B2B2B2" width="0.3" height="19.4"/>
	<rect x="329.8" fill="#B2B2B2" width="0.3" height="19.4"/>
	<rect x="343.9" fill="#B2B2B2" width="0.3" height="19.4"/>
	<rect x="358.1" fill="#B2B2B2" width="0.3" height="19.4"/>
	<rect x="372.3" fill="#B2B2B2" width="0.3" height="19.4"/>
	<rect x="386.5" fill="#B2B2B2" width="0.3" height="19.4"/>
	<rect x="400.6" fill="#B2B2B2" width="0.3" height="19.4"/>
	<rect x="414.8" fill="#B2B2B2" width="0.3" height="19.4"/>
	<rect x="429" fill="#B2B2B2" width="0.3" height="19.4"/>
	<rect x="443.2" fill="#B2B2B2" width="0.3" height="19.4"/>
	<rect x="457.3" fill="#B2B2B2" width="0.3" height="19.4"/>
	<rect x="471.5" fill="#B2B2B2" width="0.3" height="19.4"/>
	<rect x="485.7" fill="#B2B2B2" width="0.3" height="19.4"/>
	<rect x="499.8" fill="#B2B2B2" width="0.3" height="19.4"/>
	<rect x="514" fill="#B2B2B2" width="0.3" height="19.4"/>
	<rect x="528.2" fill="#B2B2B2" width="0.3" height="19.4"/>
	<rect x="542.4" fill="#B2B2B2" width="0.3" height="19.4"/>
	<rect x="556.5" fill="#B2B2B2" width="0.3" height="19.4"/>
	<rect x="570.7" fill="#B2B2B2" width="0.3" height="19.4"/>
	<rect x="584.9" fill="#B2B2B2" width="0.3" height="19.4"/>
	<rect x="599.1" fill="#B2B2B2" width="0.3" height="19.4"/>
	<rect x="613.2" fill="#B2B2B2" width="0.3" height="19.4"/>
	<rect x="627.4" fill="#B2B2B2" width="0.3" height="19.4"/>
	<rect x="641.6" fill="#B2B2B2" width="0.3" height="19.4"/>
	<rect x="655.8" fill="#B2B2B2" width="0.3" height="19.4"/>
	<rect x="669.9" fill="#B2B2B2" width="0.3" height="19.4"/>
	<rect x="684.1" fill="#B2B2B2" width="0.3" height="19.4"/>
	<rect x="698.3" fill="#B2B2B2" width="0.3" height="19.4"/>
	<rect x="712.4" fill="#B2B2B2" width="0.3" height="19.4"/>
	<rect x="726.6" fill="#B2B2B2" width="0.3" height="19.4"/>
	<rect x="740.8" fill="#B2B2B2" width="0.3" height="19.4"/>
	<rect x="755" fill="#B2B2B2" width="0.3" height="19.4"/>
	<rect x="769.1" fill="#B2B2B2" width="0.3" height="19.4"/>
	<rect x="783.3" fill="#B2B2B2" width="0.3" height="19.4"/>
	<rect x="797.5" fill="#B2B2B2" width="0.3" height="19.4"/>
	<rect x="811.7" fill="#B2B2B2" width="0.3" height="19.4"/>
	<rect x="825.8" fill="#B2B2B2" width="0.3" height="19.4"/>
	<rect x="840" fill="#B2B2B2" width="0.3" height="19.4"/>
	<rect x="854.2" fill="#B2B2B2" width="0.3" height="19.4"/>
	<rect x="868.3" fill="#B2B2B2" width="0.3" height="19.4"/>
	<rect x="882.5" fill="#B2B2B2" width="0.3" height="19.4"/>
	<rect x="896.7" fill="#B2B2B2" width="0.3" height="19.4"/>
	<rect x="910.9" fill="#B2B2B2" width="0.3" height="19.4"/>
	<rect x="925" fill="#B2B2B2" width="0.3" height="19.4"/>
	<rect x="939.2" fill="#B2B2B2" width="0.3" height="19.4"/>
	<rect x="953.4" fill="#B2B2B2" width="0.3" height="19.4"/>
	<rect x="967.6" fill="#B2B2B2" width="0.3" height="19.4"/>
	<rect x="981.7" fill="#B2B2B2" width="0.3" height="19.4"/>
	<rect x="995.9" fill="#B2B2B2" width="0.3" height="19.4"/>
	<rect x="1010.1" fill="#B2B2B2" width="0.3" height="19.4"/>
	<rect x="1024.3" fill="#B2B2B2" width="0.3" height="19.4"/>
	<rect x="1038.4" fill="#B2B2B2" width="0.3" height="19.4"/>
	<rect x="1052.6" fill="#B2B2B2" width="0.3" height="19.4"/>
	<rect x="1066.8" fill="#B2B2B2" width="0.3" height="19.4"/>
	<rect x="1080.9" fill="#B2B2B2" width="0.3" height="19.4"/>
	<rect x="1095.1" fill="#B2B2B2" width="0.3" height="19.4"/>
	<rect x="1109.3" fill="#B2B2B2" width="0.3" height="19.4"/>
	<rect x="1123.5" fill="#B2B2B2" width="0.3" height="19.4"/>
	<rect x="1137.6" fill="#B2B2B2" width="0.3" height="19.4"/>
	<rect x="1151.8" fill="#B2B2B2" width="0.3" height="19.4"/>
	<rect x="1166" fill="#B2B2B2" width="0.3" height="19.4"/>
	<rect x="1180.2" fill="#B2B2B2" width="0.3" height="19.4"/>
	<rect x="1194.3" fill="#B2B2B2" width="0.3" height="19.4"/>
	<rect x="1208.5" fill="#B2B2B2" width="0.3" height="19.4"/>
	<rect x="1222.7" fill="#B2B2B2" width="0.3" height="19.4"/>
	<rect x="1236.9" fill="#B2B2B2" width="0.3" height="19.4"/>
	<rect x="1251" fill="#B2B2B2" width="0.3" height="19.4"/>
	<rect x="1265.2" fill="#B2B2B2" width="0.3" height="19.4"/>
	<rect x="3.8" fill="#B2B2B2" width="0.3" height="24.8"/>
	<rect x="32.1" fill="#B2B2B2" width="0.3" height="33.2"/>
	<rect x="60.5" fill="#B2B2B2" width="0.3" height="33.2"/>
	<rect x="88.8" fill="#B2B2B2" width="0.3" height="33.2"/>
	<rect x="117.2" fill="#B2B2B2" width="0.3" height="33.2"/>
	<rect x="145.5" fill="#B2B2B2" width="0.3" height="33.2"/>
	<rect x="173.9" fill="#B2B2B2" width="0.3" height="33.2"/>
	<rect x="202.2" fill="#B2B2B2" width="0.3" height="33.2"/>
	<rect x="230.6" fill="#B2B2B2" width="0.3" height="33.2"/>
	<rect x="258.9" fill="#B2B2B2" width="0.3" height="33.2"/>
	<rect x="287.2" fill="#B2B2B2" width="0.3" height="33.2"/>
	<rect x="315.6" fill="#B2B2B2" width="0.3" height="33.2"/>
	<rect x="343.9" fill="#B2B2B2" width="0.3" height="33.2"/>
	<rect x="372.3" fill="#B2B2B2" width="0.3" height="33.2"/>
	<rect x="400.6" fill="#B2B2B2" width="0.3" height="33.2"/>
	<rect x="429" fill="#B2B2B2" width="0.3" height="33.2"/>
	<rect x="457.3" fill="#B2B2B2" width="0.3" height="33.2"/>
	<rect x="485.7" fill="#B2B2B2" width="0.3" height="24.8"/>
	<rect x="514" fill="#B2B2B2" width="0.3" height="24.8"/>
	<rect x="542.4" fill="#B2B2B2" width="0.3" height="24.8"/>
	<rect x="570.7" fill="#B2B2B2" width="0.3" height="24.8"/>
	<rect x="599.1" fill="#B2B2B2" width="0.3" height="24.8"/>
	<rect x="627.4" fill="#B2B2B2" width="0.3" height="24.8"/>
	<rect x="655.8" fill="#B2B2B2" width="0.3" height="24.8"/>
	<rect x="684.1" fill="#B2B2B2" width="0.3" height="24.8"/>
	<rect x="712.4" fill="#B2B2B2" width="0.3" height="24.8"/>
	<rect x="740.8" fill="#B2B2B2" width="0.3" height="24.8"/>
	<rect x="769.1" fill="#B2B2B2" width="0.3" height="24.8"/>
	<rect x="797.5" fill="#B2B2B2" width="0.3" height="24.8"/>
	<rect x="825.8" fill="#B2B2B2" width="0.3" height="24.8"/>
	<rect x="854.2" fill="#B2B2B2" width="0.3" height="24.8"/>
	<rect x="882.5" fill="#B2B2B2" width="0.3" height="24.8"/>
	<rect x="910.9" fill="#B2B2B2" width="0.3" height="24.8"/>
	<rect x="939.2" fill="#B2B2B2" width="0.3" height="24.8"/>
	<rect x="967.6" fill="#B2B2B2" width="0.3" height="24.8"/>
	<rect x="995.9" fill="#B2B2B2" width="0.3" height="24.8"/>
	<rect x="1024.3" fill="#B2B2B2" width="0.3" height="24.8"/>
	<rect x="1052.6" fill="#B2B2B2" width="0.3" height="24.8"/>
	<rect x="1080.9" fill="#B2B2B2" width="0.3" height="24.8"/>
	<rect x="1109.3" fill="#B2B2B2" width="0.3" height="24.8"/>
	<rect x="1137.6" fill="#B2B2B2" width="0.3" height="24.8"/>
	<rect x="1166" fill="#B2B2B2" width="0.3" height="24.8"/>
	<rect x="1194.3" fill="#B2B2B2" width="0.3" height="24.8"/>
	<rect x="1222.7" fill="#B2B2B2" width="0.3" height="24.8"/>
	<rect x="1251" fill="#B2B2B2" width="0.3" height="24.8"/>
	<rect x="1279.4" fill="#B2B2B2" width="0.3" height="24.8"/>
	<path fill="#B2B2B2" d="M63.9,38.7v1.2h-6.8c0-0.3,0-0.6,0.1-0.9c0.2-0.5,0.4-0.9,0.8-1.4c0.4-0.4,0.9-1,1.7-1.6
		c1.1-0.9,1.9-1.6,2.3-2.2c0.4-0.5,0.6-1,0.6-1.5s-0.2-0.9-0.5-1.3c-0.4-0.3-0.8-0.5-1.4-0.5s-1.1,0.2-1.5,0.5s-0.6,0.9-0.6,1.5
		l-1.3-0.1c0.1-1,0.4-1.7,1-2.2s1.4-0.8,2.3-0.8c1,0,1.8,0.3,2.3,0.8c0.6,0.5,0.9,1.2,0.9,2c0,0.4-0.1,0.8-0.3,1.2
		c-0.2,0.4-0.4,0.8-0.8,1.3c-0.4,0.4-1,1-1.9,1.8c-0.8,0.6-1.2,1.1-1.5,1.3c-0.2,0.2-0.4,0.5-0.5,0.7L63.9,38.7L63.9,38.7z"/>
	<path fill="#B2B2B2" d="M85.6,37.1l1.3-0.2c0.1,0.7,0.4,1.2,0.7,1.5s0.8,0.5,1.3,0.5c0.6,0,1.1-0.2,1.5-0.6s0.6-0.9,0.6-1.5
		s-0.2-1.1-0.6-1.4C90,35,89.5,34.8,89,34.8c-0.2,0-0.5,0-0.9,0.1l0.1-1.1c0.1,0,0.2,0,0.2,0c0.5,0,1-0.1,1.5-0.4
		c0.4-0.3,0.6-0.7,0.6-1.3c0-0.5-0.2-0.8-0.5-1.2c-0.3-0.3-0.7-0.5-1.2-0.5s-0.9,0.2-1.2,0.5s-0.5,0.8-0.6,1.4l-1.3-0.2
		c0.2-0.8,0.5-1.5,1.1-2c0.5-0.5,1.2-0.7,2-0.7c0.6,0,1.1,0.1,1.6,0.4c0.5,0.2,0.8,0.6,1.1,1s0.4,0.9,0.4,1.3s-0.1,0.8-0.4,1.2
		c-0.2,0.4-0.6,0.7-1.1,0.9c0.6,0.1,1.1,0.4,1.4,0.9c0.3,0.4,0.5,1,0.5,1.7c0,0.9-0.3,1.7-1,2.3c-0.7,0.6-1.5,0.9-2.5,0.9
		c-0.9,0-1.7-0.3-2.2-0.8C86,38.6,85.7,38,85.6,37.1"/>
	<path fill="#B2B2B2" d="M118,36.3v-4.6l-3.2,4.6H118z M118,39.9v-2.5h-4.5v-1.2l4.7-6.7h1v6.7h1.4v1.2h-1.4v2.5H118z"/>
	<path fill="#B2B2B2" d="M142.3,37l1.3-0.1c0.1,0.6,0.3,1.1,0.7,1.5c0.4,0.3,0.8,0.5,1.3,0.5c0.6,0,1.1-0.2,1.5-0.7s0.6-1.1,0.6-1.8
		c0-0.7-0.2-1.3-0.6-1.7c-0.4-0.4-0.9-0.6-1.6-0.6c-0.4,0-0.8,0.1-1.1,0.3c-0.3,0.2-0.6,0.4-0.8,0.7l-1.2-0.2l1-5.3h5.1v1.2h-4.1
		l-0.6,2.8c0.6-0.4,1.3-0.6,1.9-0.6c0.9,0,1.7,0.3,2.3,0.9s0.9,1.4,0.9,2.4c0,0.9-0.3,1.7-0.8,2.4c-0.7,0.8-1.6,1.2-2.7,1.2
		c-0.9,0-1.7-0.3-2.3-0.8S142.3,37.9,142.3,37"/>
	<path fill="#B2B2B2" d="M172,36.5c0,0.4,0.1,0.9,0.3,1.2c0.2,0.4,0.4,0.7,0.8,0.9c0.3,0.2,0.7,0.3,1,0.3c0.5,0,1-0.2,1.4-0.6
		s0.6-1,0.6-1.8c0-0.7-0.2-1.3-0.6-1.7c-0.4-0.4-0.9-0.6-1.4-0.6c-0.6,0-1.1,0.2-1.5,0.6C172.2,35.3,172,35.8,172,36.5 M177.2,32
		l-1.3,0.1c-0.1-0.5-0.3-0.9-0.5-1.1c-0.3-0.4-0.8-0.5-1.3-0.5c-0.4,0-0.8,0.1-1.1,0.3c-0.4,0.3-0.7,0.7-0.9,1.3s-0.3,1.3-0.4,2.4
		c0.3-0.5,0.7-0.8,1.1-1c0.4-0.2,0.9-0.3,1.4-0.3c0.8,0,1.6,0.3,2.1,0.9c0.6,0.6,0.9,1.4,0.9,2.4c0,0.6-0.1,1.2-0.4,1.8
		c-0.3,0.6-0.7,1-1.1,1.3c-0.5,0.3-1,0.4-1.7,0.4c-1.1,0-1.9-0.4-2.6-1.2c-0.7-0.8-1-2.1-1-3.8c0-2,0.4-3.4,1.1-4.3
		c0.6-0.8,1.5-1.2,2.6-1.2c0.8,0,1.5,0.2,2,0.7C176.7,30.6,177.1,31.2,177.2,32"/>
	<path fill="#B2B2B2" d="M199,30.9v-1.2h6.7v1c-0.7,0.7-1.3,1.6-1.9,2.8c-0.6,1.2-1.1,2.3-1.5,3.6c-0.3,0.9-0.4,1.8-0.5,2.8h-1.3
		c0-0.8,0.2-1.8,0.5-2.9s0.7-2.3,1.3-3.3c0.6-1.1,1.2-2,1.8-2.7C204.1,30.9,199,30.9,199,30.9z"/>
	<path fill="#B2B2B2" d="M229,32.1c0,0.5,0.2,0.9,0.5,1.2c0.3,0.3,0.7,0.5,1.2,0.5s0.9-0.2,1.2-0.5c0.3-0.3,0.5-0.7,0.5-1.1
		c0-0.5-0.2-0.9-0.5-1.2c-0.3-0.3-0.7-0.5-1.2-0.5s-0.9,0.2-1.2,0.5S229,31.7,229,32.1 M228.6,36.8c0,0.4,0.1,0.7,0.3,1
		c0.2,0.3,0.4,0.6,0.8,0.8c0.3,0.2,0.7,0.3,1.1,0.3c0.6,0,1.1-0.2,1.5-0.6s0.6-0.9,0.6-1.5s-0.2-1.1-0.6-1.5s-0.9-0.6-1.5-0.6
		s-1.1,0.2-1.5,0.6S228.6,36.3,228.6,36.8 M229.2,34.2c-0.5-0.2-0.9-0.5-1.2-0.8c-0.3-0.4-0.4-0.8-0.4-1.3c0-0.7,0.3-1.4,0.8-1.9
		s1.3-0.8,2.1-0.8c0.9,0,1.6,0.3,2.2,0.8c0.5,0.5,0.8,1.2,0.8,1.9c0,0.5-0.1,0.9-0.4,1.2c-0.2,0.4-0.6,0.6-1.1,0.8
		c0.6,0.2,1.1,0.5,1.4,1s0.5,1,0.5,1.6c0,0.9-0.3,1.6-0.9,2.2s-1.4,0.9-2.5,0.9s-1.8-0.3-2.5-0.9c-0.6-0.6-0.9-1.4-0.9-2.2
		c0-0.7,0.2-1.2,0.5-1.7C228.1,34.7,228.6,34.4,229.2,34.2"/>
	<path fill="#B2B2B2" d="M261,32.9c0-0.7-0.2-1.3-0.6-1.7c-0.4-0.4-0.9-0.6-1.4-0.6c-0.6,0-1,0.2-1.5,0.7c-0.4,0.5-0.6,1.1-0.6,1.8
		c0,0.7,0.2,1.2,0.6,1.6s0.9,0.6,1.5,0.6s1.1-0.2,1.4-0.6C260.8,34.2,261,33.6,261,32.9 M255.8,37.4l1.2-0.1c0.1,0.6,0.3,1,0.6,1.2
		c0.3,0.3,0.7,0.4,1.1,0.4s0.7-0.1,1-0.3c0.3-0.2,0.5-0.4,0.7-0.7s0.3-0.7,0.5-1.2c0.1-0.5,0.2-1,0.2-1.5c0-0.1,0-0.1,0-0.3
		c-0.3,0.4-0.6,0.7-1,1c-0.4,0.2-0.9,0.4-1.4,0.4c-0.9,0-1.6-0.3-2.2-0.9s-0.9-1.4-0.9-2.4s0.3-1.9,0.9-2.5s1.4-1,2.3-1
		c0.7,0,1.3,0.2,1.8,0.5c0.6,0.4,1,0.9,1.3,1.5c0.3,0.7,0.4,1.6,0.4,2.9s-0.1,2.4-0.4,3.1c-0.3,0.8-0.7,1.4-1.3,1.8s-1.2,0.6-2,0.6
		s-1.5-0.2-2-0.7C256.2,38.9,255.9,38.2,255.8,37.4"/>
	<path fill="#B2B2B2" d="M313.6,39.9h-1.3v-8c-0.3,0.3-0.7,0.6-1.2,0.9s-0.9,0.5-1.3,0.7v-1.2c0.7-0.3,1.3-0.7,1.9-1.2
		c0.5-0.5,0.9-0.9,1.1-1.4h0.8V39.9L313.6,39.9z"/>
	<path fill="#B2B2B2" d="M320.6,39.9h-1.3v-8c-0.3,0.3-0.7,0.6-1.2,0.9s-0.9,0.5-1.3,0.7v-1.2c0.7-0.3,1.3-0.7,1.9-1.2
		c0.5-0.5,0.9-0.9,1.1-1.4h0.8V39.9L320.6,39.9z"/>
	<path fill="#B2B2B2" d="M341.4,39.9h-1.3v-8c-0.3,0.3-0.7,0.6-1.2,0.9s-0.9,0.5-1.3,0.7v-1.2c0.7-0.3,1.3-0.7,1.9-1.2
		c0.5-0.5,0.9-0.9,1.1-1.4h0.8V39.9z"/>
	<path fill="#B2B2B2" d="M351.3,38.7v1.2h-6.8c0-0.3,0-0.6,0.1-0.9c0.2-0.5,0.5-0.9,0.8-1.4c0.4-0.4,0.9-1,1.7-1.6
		c1.1-0.9,1.9-1.6,2.3-2.2c0.4-0.5,0.6-1,0.6-1.5s-0.2-0.9-0.5-1.3c-0.4-0.3-0.8-0.5-1.4-0.5s-1.1,0.2-1.5,0.5
		c-0.4,0.4-0.5,0.9-0.6,1.5l-1.3-0.1c0.1-1,0.4-1.7,1-2.2s1.4-0.8,2.3-0.8c1,0,1.8,0.3,2.3,0.8c0.6,0.5,0.9,1.2,0.9,2
		c0,0.4-0.1,0.8-0.3,1.2c-0.2,0.4-0.4,0.8-0.8,1.3c-0.4,0.4-1,1-1.9,1.8c-0.8,0.6-1.2,1.1-1.5,1.3c-0.2,0.2-0.4,0.5-0.5,0.7
		L351.3,38.7L351.3,38.7z"/>
	<path fill="#B2B2B2" d="M369.8,39.8h-1.3v-8c-0.3,0.3-0.7,0.6-1.2,0.9s-0.9,0.5-1.3,0.7v-1.2c0.7-0.3,1.3-0.7,1.9-1.2
		s0.9-0.9,1.1-1.4h0.8V39.8L369.8,39.8z"/>
	<path fill="#B2B2B2" d="M373,37.1l1.3-0.2c0.1,0.7,0.4,1.2,0.7,1.5c0.4,0.3,0.8,0.5,1.3,0.5c0.6,0,1.1-0.2,1.5-0.6s0.6-0.9,0.6-1.5
		s-0.2-1.1-0.6-1.4c-0.4-0.4-0.9-0.6-1.4-0.6c-0.2,0-0.5,0-0.9,0.1l0.1-1.1c0.1,0,0.2,0,0.2,0c0.5,0,1-0.1,1.5-0.4
		c0.4-0.3,0.6-0.7,0.6-1.3c0-0.5-0.2-0.8-0.5-1.2c-0.3-0.3-0.7-0.5-1.2-0.5s-0.9,0.2-1.2,0.5c-0.3,0.3-0.5,0.8-0.6,1.4l-1.3-0.2
		c0.2-0.8,0.5-1.5,1.1-2c0.5-0.5,1.2-0.7,2-0.7c0.6,0,1.1,0.1,1.6,0.4s0.8,0.6,1.1,1c0.3,0.4,0.4,0.9,0.4,1.3s-0.1,0.8-0.4,1.2
		c-0.2,0.4-0.6,0.7-1.1,0.9c0.6,0.1,1.1,0.4,1.4,0.9c0.3,0.4,0.5,1,0.5,1.7c0,0.9-0.3,1.7-1,2.3c-0.7,0.6-1.5,0.9-2.5,0.9
		c-0.9,0-1.7-0.3-2.2-0.8C373.5,38.6,373.1,38,373,37.1"/>
	<path fill="#B2B2B2" d="M398.1,39.9h-1.2v-8c-0.3,0.3-0.7,0.6-1.2,0.9s-0.9,0.5-1.3,0.7v-1.2c0.7-0.3,1.3-0.7,1.9-1.2
		c0.5-0.5,0.9-0.9,1.1-1.4h0.8L398.1,39.9L398.1,39.9z"/>
	<path fill="#B2B2B2" d="M405.4,36.3v-4.6l-3.2,4.6H405.4z M405.4,39.9v-2.5h-4.5v-1.2l4.7-6.7h1v6.7h1.4v1.2h-1.4v2.5H405.4z"/>
	<path fill="#B2B2B2" d="M426.5,39.8h-1.3v-8c-0.3,0.3-0.7,0.6-1.2,0.9s-0.9,0.5-1.3,0.7v-1.2c0.7-0.3,1.3-0.7,1.9-1.2
		c0.5-0.5,0.9-0.9,1.1-1.4h0.8V39.8L426.5,39.8z"/>
	<path fill="#B2B2B2" d="M429.7,37.1L431,37c0.1,0.6,0.3,1.1,0.7,1.5c0.4,0.3,0.8,0.5,1.3,0.5c0.6,0,1.1-0.2,1.5-0.7
		s0.6-1.1,0.6-1.8c0-0.7-0.2-1.3-0.6-1.7c-0.4-0.4-0.9-0.6-1.6-0.6c-0.4,0-0.8,0.1-1.1,0.3c-0.3,0.2-0.6,0.4-0.8,0.7l-1.2-0.2l1-5.3
		h5.1v1.2h-4l-0.6,2.8c0.6-0.4,1.3-0.6,1.9-0.6c0.9,0,1.7,0.3,2.3,0.9c0.6,0.6,0.9,1.4,0.9,2.4c0,0.9-0.3,1.7-0.8,2.4
		c-0.7,0.8-1.6,1.2-2.7,1.2c-0.9,0-1.7-0.3-2.3-0.8C430.1,38.7,429.8,38,429.7,37.1"/>
	<path fill="#B2B2B2" d="M454.8,39.8h-1.3v-8c-0.3,0.3-0.7,0.6-1.2,0.9s-0.9,0.5-1.3,0.7v-1.2c0.7-0.3,1.3-0.7,1.9-1.2
		c0.5-0.5,0.9-0.9,1.1-1.4h0.8V39.8L454.8,39.8z"/>
	<path fill="#B2B2B2" d="M459.5,36.5c0,0.4,0.1,0.9,0.3,1.2c0.2,0.4,0.4,0.7,0.8,0.9c0.3,0.2,0.7,0.3,1,0.3c0.5,0,1-0.2,1.4-0.6
		s0.6-1,0.6-1.8c0-0.7-0.2-1.3-0.6-1.7c-0.4-0.4-0.9-0.6-1.4-0.6c-0.6,0-1.1,0.2-1.5,0.6C459.7,35.3,459.5,35.8,459.5,36.5
		 M464.6,32l-1.3,0.1c-0.1-0.5-0.3-0.9-0.5-1.1c-0.3-0.4-0.8-0.5-1.3-0.5c-0.4,0-0.8,0.1-1.1,0.3c-0.4,0.3-0.7,0.7-0.9,1.3
		c-0.2,0.6-0.3,1.3-0.4,2.4c0.3-0.5,0.7-0.8,1.1-1s0.9-0.3,1.4-0.3c0.8,0,1.6,0.3,2.1,0.9c0.6,0.6,0.9,1.4,0.9,2.4
		c0,0.6-0.1,1.2-0.4,1.8c-0.3,0.6-0.7,1-1.1,1.3c-0.5,0.3-1,0.4-1.7,0.4c-1.1,0-1.9-0.4-2.6-1.2c-0.7-0.8-1-2.1-1-3.8
		c0-2,0.4-3.4,1.1-4.3c0.6-0.8,1.5-1.2,2.6-1.2c0.8,0,1.5,0.2,2,0.7C464.2,30.6,464.5,31.2,464.6,32"/>
	<path fill="#B2B2B2" d="M483.2,39.9h-1.3v-8c-0.3,0.3-0.7,0.6-1.2,0.9s-0.9,0.5-1.3,0.7v-1.2c0.7-0.3,1.3-0.7,1.9-1.2
		c0.5-0.5,0.9-0.9,1.1-1.4h0.8V39.9z"/>
	<path fill="#B2B2B2" d="M486.5,31v-1.2h6.7v1c-0.7,0.7-1.3,1.6-1.9,2.8c-0.6,1.2-1.1,2.3-1.5,3.6c-0.3,0.9-0.4,1.8-0.5,2.8h-1.4
		c0-0.8,0.2-1.8,0.5-2.9s0.7-2.3,1.3-3.3c0.6-1.1,1.2-2,1.8-2.7C491.5,31,486.5,31,486.5,31z"/>
	<path fill="#B2B2B2" d="M511.5,39.8h-1.3v-8c-0.3,0.3-0.7,0.6-1.2,0.9s-0.9,0.5-1.3,0.7v-1.2c0.7-0.3,1.3-0.7,1.9-1.2
		c0.5-0.5,0.9-0.9,1.1-1.4h0.8V39.8z"/>
	<path fill="#B2B2B2" d="M516.4,32.1c0,0.5,0.2,0.9,0.5,1.2c0.3,0.3,0.7,0.5,1.2,0.5s0.9-0.2,1.2-0.5s0.5-0.7,0.5-1.1
		c0-0.5-0.2-0.9-0.5-1.2c-0.3-0.3-0.7-0.5-1.2-0.5s-0.9,0.2-1.2,0.5C516.6,31.3,516.4,31.7,516.4,32.1 M516,36.8
		c0,0.4,0.1,0.7,0.3,1s0.4,0.6,0.8,0.8s0.7,0.3,1.1,0.3c0.6,0,1.1-0.2,1.5-0.6s0.6-0.9,0.6-1.5s-0.2-1.1-0.6-1.5
		c-0.4-0.4-0.9-0.6-1.5-0.6s-1.1,0.2-1.5,0.6C516.2,35.8,516,36.3,516,36.8 M516.7,34.2c-0.5-0.2-0.9-0.5-1.2-0.8
		c-0.3-0.4-0.4-0.8-0.4-1.3c0-0.7,0.3-1.4,0.8-1.9s1.3-0.8,2.1-0.8c0.9,0,1.6,0.3,2.2,0.8c0.5,0.5,0.8,1.2,0.8,1.9
		c0,0.5-0.1,0.9-0.4,1.2c-0.3,0.4-0.6,0.6-1.1,0.8c0.6,0.2,1.1,0.5,1.4,1c0.3,0.5,0.5,1,0.5,1.6c0,0.9-0.3,1.6-0.9,2.2
		s-1.4,0.9-2.5,0.9s-1.8-0.3-2.5-0.9c-0.6-0.6-0.9-1.4-0.9-2.2c0-0.7,0.2-1.2,0.5-1.7C515.6,34.7,516.1,34.4,516.7,34.2"/>
	<path fill="#B2B2B2" d="M539.9,39.8h-1.3v-8c-0.3,0.3-0.7,0.6-1.2,0.9s-0.9,0.5-1.3,0.7v-1.2c0.7-0.3,1.3-0.7,1.9-1.2
		c0.5-0.5,0.9-0.9,1.1-1.4h0.8V39.8L539.9,39.8z"/>
	<path fill="#B2B2B2" d="M548.5,32.9c0-0.7-0.2-1.3-0.6-1.7c-0.4-0.4-0.8-0.6-1.4-0.6c-0.6,0-1,0.2-1.5,0.7
		c-0.4,0.5-0.6,1.1-0.6,1.8c0,0.7,0.2,1.2,0.6,1.6c0.4,0.4,0.9,0.6,1.5,0.6s1.1-0.2,1.4-0.6C548.3,34.2,548.5,33.6,548.5,32.9
		 M543.3,37.4l1.2-0.1c0.1,0.6,0.3,1,0.6,1.2c0.3,0.3,0.7,0.4,1.1,0.4c0.4,0,0.7-0.1,1-0.3c0.3-0.2,0.5-0.4,0.7-0.7s0.3-0.7,0.5-1.2
		c0.1-0.5,0.2-1,0.2-1.5c0-0.1,0-0.1,0-0.3c-0.3,0.4-0.6,0.7-1,1c-0.4,0.2-0.9,0.4-1.4,0.4c-0.9,0-1.6-0.3-2.2-0.9
		c-0.6-0.6-0.9-1.4-0.9-2.4s0.3-1.9,0.9-2.5c0.6-0.6,1.4-1,2.3-1c0.7,0,1.3,0.2,1.8,0.5c0.6,0.4,1,0.9,1.3,1.5
		c0.3,0.7,0.4,1.6,0.4,2.9s-0.1,2.4-0.4,3.1c-0.3,0.8-0.7,1.4-1.3,1.8s-1.2,0.6-2,0.6s-1.5-0.2-2-0.7
		C543.7,38.9,543.4,38.2,543.3,37.4"/>
	<path fill="#B2B2B2" d="M570,38.5v2.2h-8.1c0.1-0.8,0.3-1.6,0.8-2.3c0.4-0.7,1.3-1.7,2.6-2.9c1-1,1.7-1.6,1.9-2
		c0.3-0.5,0.5-0.9,0.5-1.4s-0.1-0.9-0.4-1.2c-0.3-0.3-0.7-0.4-1.1-0.4c-0.5,0-0.9,0.1-1.1,0.4c-0.3,0.3-0.4,0.8-0.5,1.4l-2.3-0.2
		c0.1-1.3,0.6-2.2,1.3-2.7c0.7-0.6,1.6-0.8,2.7-0.8c1.2,0,2.1,0.3,2.8,1c0.7,0.6,1,1.4,1,2.4c0,0.5-0.1,1.1-0.3,1.5
		c-0.2,0.5-0.5,1-0.9,1.5c-0.3,0.4-0.8,0.9-1.5,1.5c-0.7,0.7-1.2,1.1-1.4,1.3c-0.2,0.2-0.4,0.4-0.5,0.6
		C565.4,38.5,570,38.5,570,38.5z"/>
	<path fill="#B2B2B2" d="M575.5,30.5c-0.3,0-0.5,0.1-0.7,0.3c-0.2,0.2-0.4,0.5-0.5,1c-0.2,0.6-0.2,1.6-0.2,3s0.1,2.4,0.2,2.9
		s0.3,0.9,0.5,1.1s0.5,0.3,0.7,0.3c0.3,0,0.5-0.1,0.7-0.3c0.2-0.2,0.4-0.5,0.5-1c0.2-0.6,0.2-1.6,0.2-3s-0.1-2.4-0.2-2.9
		c-0.1-0.5-0.3-0.9-0.5-1.1S575.7,30.5,575.5,30.5 M575.5,28.6c1.2,0,2.1,0.4,2.7,1.2c0.8,1,1.2,2.6,1.2,4.9s-0.4,3.9-1.2,4.9
		c-0.7,0.8-1.6,1.2-2.7,1.2c-1.2,0-2.1-0.4-2.8-1.3s-1.1-2.5-1.1-4.8s0.4-3.9,1.2-4.9C573.4,29,574.3,28.6,575.5,28.6"/>
	<path fill="#B2B2B2" d="M284.7,40.7h-2.3V32c-0.8,0.8-1.8,1.4-3,1.7v-2.1c0.6-0.2,1.3-0.6,2-1.1s1.2-1.2,1.5-1.9h1.9L284.7,40.7
		L284.7,40.7z"/>
	<path fill="#B2B2B2" d="M292,30.5c-0.3,0-0.5,0.1-0.7,0.3c-0.2,0.2-0.4,0.5-0.5,1c-0.2,0.6-0.2,1.6-0.2,3s0.1,2.4,0.2,2.9
		s0.3,0.9,0.5,1.1s0.5,0.3,0.7,0.3c0.3,0,0.5-0.1,0.7-0.3c0.2-0.2,0.4-0.5,0.5-1c0.2-0.6,0.2-1.6,0.2-3s-0.1-2.4-0.2-2.9
		s-0.3-0.9-0.5-1.1C292.5,30.6,292.3,30.5,292,30.5 M292,28.6c1.2,0,2.1,0.4,2.7,1.2c0.8,1,1.2,2.6,1.2,4.9s-0.4,3.9-1.2,4.9
		c-0.7,0.8-1.6,1.2-2.7,1.2c-1.2,0-2.1-0.4-2.8-1.3c-0.7-0.9-1.1-2.5-1.1-4.8s0.4-3.9,1.2-4.9C289.9,29,290.8,28.6,292,28.6"/>
	<path fill="#B2B2B2" d="M3.9,30.5c-0.3,0-0.5,0.1-0.7,0.3s-0.4,0.5-0.5,1c-0.2,0.6-0.2,1.6-0.2,3s0.1,2.4,0.2,2.9
		c0.1,0.5,0.3,0.9,0.5,1.1s0.5,0.3,0.7,0.3c0.3,0,0.5-0.1,0.7-0.3c0.2-0.2,0.4-0.5,0.5-1c0.2-0.6,0.2-1.6,0.2-3s-0.1-2.4-0.2-2.9
		C5,31.4,4.8,31,4.6,30.8S4.1,30.5,3.9,30.5 M3.9,28.6c1.2,0,2.1,0.4,2.7,1.2c0.8,1,1.2,2.6,1.2,4.9s-0.4,3.9-1.2,4.9
		c-0.7,0.8-1.6,1.2-2.7,1.2c-1.2,0-2.1-0.4-2.8-1.3S0,37,0,34.7s0.4-3.9,1.2-4.9C1.8,29,2.7,28.6,3.9,28.6"/>
	<path fill="#B2B2B2" d="M598.4,38.7v1.2h-6.8c0-0.3,0-0.6,0.1-0.9c0.2-0.5,0.5-0.9,0.8-1.4c0.4-0.4,0.9-1,1.7-1.6
		c1.1-0.9,1.9-1.6,2.3-2.2c0.4-0.5,0.6-1,0.6-1.5s-0.2-0.9-0.5-1.3c-0.4-0.3-0.8-0.5-1.4-0.5c-0.6,0-1.1,0.2-1.5,0.5
		s-0.5,0.9-0.6,1.5l-1.3-0.1c0.1-1,0.4-1.7,1-2.2s1.4-0.8,2.3-0.8c1,0,1.8,0.3,2.3,0.8c0.6,0.5,0.9,1.2,0.9,2c0,0.4-0.1,0.8-0.3,1.2
		c-0.2,0.4-0.4,0.8-0.8,1.3c-0.4,0.4-1,1-1.9,1.8c-0.8,0.6-1.2,1.1-1.5,1.3c-0.2,0.2-0.4,0.5-0.5,0.7L598.4,38.7L598.4,38.7z"/>
	<path fill="#B2B2B2" d="M604.6,39.9h-1.3v-8c-0.3,0.3-0.7,0.6-1.2,0.9s-0.9,0.5-1.3,0.7v-1.2c0.7-0.3,1.3-0.7,1.9-1.2
		c0.5-0.5,0.9-0.9,1.1-1.4h0.8V39.9L604.6,39.9z"/>
	<path fill="#B2B2B2" d="M626.8,38.7v1.2H620c0-0.3,0-0.6,0.1-0.9c0.2-0.5,0.5-0.9,0.8-1.4c0.4-0.4,0.9-1,1.7-1.6
		c1.1-0.9,1.9-1.6,2.3-2.2c0.4-0.5,0.6-1,0.6-1.5s-0.2-0.9-0.5-1.3c-0.4-0.3-0.8-0.5-1.4-0.5c-0.6,0-1.1,0.2-1.5,0.5
		s-0.5,0.9-0.6,1.5l-1.3-0.1c0.1-1,0.4-1.7,1-2.2s1.4-0.8,2.3-0.8c1,0,1.8,0.3,2.3,0.8s0.9,1.2,0.9,2c0,0.4-0.1,0.8-0.3,1.2
		c-0.2,0.4-0.4,0.8-0.8,1.3c-0.4,0.4-1,1-1.9,1.8c-0.8,0.6-1.2,1.1-1.5,1.3c-0.2,0.2-0.4,0.5-0.5,0.7L626.8,38.7L626.8,38.7z"/>
	<path fill="#B2B2B2" d="M634.8,38.7v1.2H628c0-0.3,0-0.6,0.1-0.9c0.2-0.5,0.5-0.9,0.8-1.4c0.4-0.4,0.9-1,1.7-1.6
		c1.1-0.9,1.9-1.6,2.3-2.2c0.4-0.5,0.6-1,0.6-1.5s-0.2-0.9-0.5-1.3c-0.4-0.3-0.8-0.5-1.4-0.5c-0.6,0-1.1,0.2-1.5,0.5
		s-0.5,0.9-0.6,1.5l-1.3-0.1c0.1-1,0.4-1.7,1-2.2s1.4-0.8,2.3-0.8c1,0,1.8,0.3,2.3,0.8c0.6,0.5,0.9,1.2,0.9,2c0,0.4-0.1,0.8-0.3,1.2
		c-0.2,0.4-0.4,0.8-0.8,1.3c-0.4,0.4-1,1-1.9,1.8c-0.8,0.6-1.2,1.1-1.5,1.3c-0.2,0.2-0.4,0.5-0.5,0.7L634.8,38.7L634.8,38.7z"/>
	<path fill="#B2B2B2" d="M655.1,38.6v1.2h-6.8c0-0.3,0-0.6,0.1-0.9c0.2-0.5,0.5-0.9,0.8-1.4c0.4-0.4,0.9-1,1.7-1.6
		c1.1-0.9,1.9-1.6,2.3-2.2c0.4-0.5,0.6-1,0.6-1.5s-0.2-0.9-0.5-1.3c-0.4-0.3-0.8-0.5-1.4-0.5c-0.6,0-1.1,0.2-1.5,0.5
		s-0.5,0.9-0.6,1.5l-1.3-0.1c0.1-1,0.4-1.7,1-2.2s1.4-0.8,2.3-0.8c1,0,1.8,0.3,2.3,0.8s0.9,1.2,0.9,2c0,0.4-0.1,0.8-0.3,1.2
		c-0.2,0.4-0.4,0.8-0.8,1.3c-0.4,0.4-1,1-1.9,1.8c-0.8,0.6-1.2,1.1-1.5,1.3c-0.2,0.2-0.4,0.5-0.5,0.7L655.1,38.6L655.1,38.6z"/>
	<path fill="#B2B2B2" d="M656.5,37.1l1.3-0.2c0.1,0.7,0.4,1.2,0.7,1.5s0.8,0.5,1.3,0.5c0.6,0,1.1-0.2,1.5-0.6s0.6-0.9,0.6-1.5
		s-0.2-1.1-0.6-1.4c-0.4-0.4-0.9-0.6-1.4-0.6c-0.2,0-0.5,0-0.9,0.1l0.1-1.1c0.1,0,0.2,0,0.2,0c0.5,0,1-0.1,1.5-0.4
		c0.4-0.3,0.6-0.7,0.6-1.3c0-0.5-0.2-0.8-0.5-1.2c-0.3-0.3-0.7-0.5-1.2-0.5s-0.9,0.2-1.2,0.5s-0.5,0.8-0.6,1.4l-1.3-0.2
		c0.2-0.8,0.5-1.5,1.1-2c0.5-0.5,1.2-0.7,2-0.7c0.6,0,1.1,0.1,1.6,0.4c0.5,0.2,0.8,0.6,1.1,1c0.2,0.4,0.4,0.9,0.4,1.3
		s-0.1,0.8-0.4,1.2c-0.2,0.4-0.6,0.7-1.1,0.9c0.6,0.1,1.1,0.4,1.4,0.9c0.3,0.4,0.5,1,0.5,1.7c0,0.9-0.3,1.7-1,2.3
		c-0.7,0.6-1.5,0.9-2.5,0.9c-0.9,0-1.7-0.3-2.2-0.8C656.9,38.6,656.6,38,656.5,37.1"/>
	<path fill="#B2B2B2" d="M683.5,38.7v1.2h-6.8c0-0.3,0-0.6,0.1-0.9c0.2-0.5,0.5-0.9,0.8-1.4c0.4-0.4,0.9-1,1.7-1.6
		c1.1-0.9,1.9-1.6,2.3-2.2c0.4-0.5,0.6-1,0.6-1.5s-0.2-0.9-0.5-1.3c-0.4-0.3-0.8-0.5-1.4-0.5c-0.6,0-1.1,0.2-1.5,0.5
		c-0.4,0.4-0.5,0.9-0.6,1.5l-1.3-0.1c0.1-1,0.4-1.7,1-2.2s1.4-0.8,2.3-0.8c1,0,1.8,0.3,2.3,0.8c0.6,0.5,0.9,1.2,0.9,2
		c0,0.4-0.1,0.8-0.3,1.2c-0.2,0.4-0.4,0.8-0.8,1.3c-0.4,0.4-1,1-1.9,1.8c-0.8,0.6-1.2,1.1-1.5,1.3c-0.2,0.2-0.4,0.5-0.5,0.7
		L683.5,38.7L683.5,38.7z"/>
	<path fill="#B2B2B2" d="M688.9,36.3v-4.6l-3.2,4.6H688.9z M688.9,39.9v-2.5h-4.5v-1.2l4.7-6.7h1v6.7h1.4v1.2h-1.4v2.5H688.9z"/>
	<path fill="#B2B2B2" d="M711.8,38.6v1.2H705c0-0.3,0-0.6,0.1-0.9c0.2-0.5,0.5-0.9,0.8-1.4c0.4-0.4,0.9-1,1.7-1.6
		c1.1-0.9,1.9-1.6,2.3-2.2c0.4-0.5,0.6-1,0.6-1.5s-0.2-0.9-0.5-1.3s-0.8-0.5-1.4-0.5c-0.6,0-1.1,0.2-1.5,0.5
		c-0.4,0.4-0.6,0.9-0.6,1.5l-1.3-0.1c0.1-1,0.4-1.7,1-2.2s1.4-0.8,2.3-0.8c1,0,1.8,0.3,2.3,0.8c0.6,0.5,0.9,1.2,0.9,2
		c0,0.4-0.1,0.8-0.3,1.2c-0.2,0.4-0.4,0.8-0.8,1.3c-0.4,0.4-1,1-1.9,1.8c-0.8,0.6-1.2,1.1-1.5,1.3c-0.2,0.2-0.4,0.5-0.5,0.7
		L711.8,38.6L711.8,38.6z"/>
	<path fill="#B2B2B2" d="M713.2,37.1l1.3-0.1c0.1,0.6,0.3,1.1,0.7,1.5c0.4,0.3,0.8,0.5,1.3,0.5c0.6,0,1.1-0.2,1.5-0.7
		s0.6-1.1,0.6-1.8c0-0.7-0.2-1.3-0.6-1.7c-0.4-0.4-0.9-0.6-1.6-0.6c-0.4,0-0.8,0.1-1.1,0.3c-0.3,0.2-0.6,0.4-0.8,0.7l-1.2-0.2l1-5.3
		h5.1v1.2h-4.1l-0.6,2.8c0.6-0.4,1.3-0.6,1.9-0.6c0.9,0,1.7,0.3,2.3,0.9s0.9,1.4,0.9,2.4c0,0.9-0.3,1.7-0.8,2.4
		c-0.7,0.8-1.6,1.2-2.7,1.2c-0.9,0-1.7-0.3-2.3-0.8C713.6,38.7,713.3,38,713.2,37.1"/>
	<path fill="#B2B2B2" d="M740.2,38.6v1.2h-6.8c0-0.3,0-0.6,0.1-0.9c0.2-0.5,0.5-0.9,0.8-1.4c0.4-0.4,0.9-1,1.7-1.6
		c1.1-0.9,1.9-1.6,2.3-2.2c0.4-0.5,0.6-1,0.6-1.5s-0.2-0.9-0.5-1.3s-0.8-0.5-1.4-0.5c-0.6,0-1.1,0.2-1.5,0.5
		c-0.4,0.4-0.5,0.9-0.6,1.5l-1.3-0.1c0.1-1,0.4-1.7,1-2.2s1.4-0.8,2.3-0.8c1,0,1.8,0.3,2.3,0.8c0.6,0.5,0.9,1.2,0.9,2
		c0,0.4-0.1,0.8-0.3,1.2c-0.2,0.4-0.4,0.8-0.8,1.3c-0.4,0.4-1,1-1.9,1.8c-0.8,0.6-1.2,1.1-1.5,1.3c-0.2,0.2-0.4,0.5-0.5,0.7
		L740.2,38.6L740.2,38.6z"/>
	<path fill="#B2B2B2" d="M742.9,36.5c0,0.4,0.1,0.9,0.3,1.2s0.4,0.7,0.8,0.9c0.3,0.2,0.7,0.3,1,0.3c0.5,0,1-0.2,1.4-0.6
		s0.6-1,0.6-1.8c0-0.7-0.2-1.3-0.6-1.7c-0.4-0.4-0.9-0.6-1.4-0.6c-0.6,0-1.1,0.2-1.5,0.6C743.1,35.3,742.9,35.8,742.9,36.5
		 M748.1,32l-1.3,0.1c-0.1-0.5-0.3-0.9-0.5-1.1c-0.3-0.4-0.8-0.5-1.3-0.5c-0.4,0-0.8,0.1-1.1,0.3c-0.4,0.3-0.7,0.7-0.9,1.3
		c-0.2,0.6-0.3,1.3-0.4,2.4c0.3-0.5,0.7-0.8,1.1-1c0.4-0.2,0.9-0.3,1.4-0.3c0.8,0,1.6,0.3,2.2,0.9c0.6,0.6,0.9,1.4,0.9,2.4
		c0,0.6-0.1,1.2-0.4,1.8c-0.3,0.6-0.7,1-1.1,1.3c-0.5,0.3-1,0.4-1.7,0.4c-1.1,0-1.9-0.4-2.6-1.2c-0.7-0.8-1-2.1-1-3.8
		c0-2,0.4-3.4,1.1-4.3c0.6-0.8,1.5-1.2,2.6-1.2c0.8,0,1.5,0.2,2,0.7C747.7,30.6,748,31.2,748.1,32"/>
	<path fill="#B2B2B2" d="M768.5,38.7v1.2h-6.8c0-0.3,0-0.6,0.1-0.9c0.2-0.5,0.5-0.9,0.8-1.4c0.4-0.4,0.9-1,1.7-1.6
		c1.1-0.9,1.9-1.6,2.3-2.2c0.4-0.5,0.6-1,0.6-1.5s-0.2-0.9-0.5-1.3c-0.4-0.3-0.8-0.5-1.4-0.5c-0.6,0-1.1,0.2-1.5,0.5
		c-0.4,0.4-0.5,0.9-0.6,1.5l-1.3-0.1c0.1-1,0.4-1.7,1-2.2s1.4-0.8,2.3-0.8c1,0,1.8,0.3,2.3,0.8c0.6,0.5,0.9,1.2,0.9,2
		c0,0.4-0.1,0.8-0.3,1.2c-0.2,0.4-0.4,0.8-0.8,1.3c-0.4,0.4-1,1-1.9,1.8c-0.8,0.6-1.2,1.1-1.5,1.3c-0.2,0.2-0.4,0.5-0.5,0.7
		L768.5,38.7L768.5,38.7z"/>
	<path fill="#B2B2B2" d="M770,31v-1.2h6.7v1c-0.7,0.7-1.3,1.6-1.9,2.8c-0.6,1.2-1.1,2.3-1.5,3.6c-0.3,0.9-0.4,1.8-0.5,2.8h-1.3
		c0-0.8,0.2-1.8,0.5-2.9s0.7-2.3,1.3-3.3c0.6-1.1,1.2-2,1.8-2.7C775,31,770,31,770,31z"/>
	<path fill="#B2B2B2" d="M796.9,38.6v1.2h-6.8c0-0.3,0-0.6,0.1-0.9c0.2-0.5,0.5-0.9,0.8-1.4c0.4-0.4,0.9-1,1.7-1.6
		c1.1-0.9,1.9-1.6,2.3-2.2c0.4-0.5,0.6-1,0.6-1.5s-0.2-0.9-0.5-1.3s-0.8-0.5-1.4-0.5c-0.6,0-1.1,0.2-1.5,0.5s-0.5,0.9-0.6,1.5
		l-1.3-0.1c0.1-1,0.4-1.7,1-2.2s1.4-0.8,2.3-0.8c1,0,1.8,0.3,2.3,0.8c0.6,0.5,0.9,1.2,0.9,2c0,0.4-0.1,0.8-0.3,1.2
		c-0.2,0.4-0.4,0.8-0.8,1.3c-0.4,0.4-1,1-1.9,1.8c-0.8,0.6-1.2,1.1-1.5,1.3c-0.2,0.2-0.4,0.5-0.5,0.7L796.9,38.6L796.9,38.6z"/>
	<path fill="#B2B2B2" d="M799.9,32.1c0,0.5,0.2,0.9,0.5,1.2c0.3,0.3,0.7,0.5,1.2,0.5s0.9-0.2,1.2-0.5s0.5-0.7,0.5-1.1
		c0-0.5-0.2-0.9-0.5-1.2s-0.7-0.5-1.2-0.5s-0.9,0.2-1.2,0.5C800.1,31.3,799.9,31.7,799.9,32.1 M799.5,36.8c0,0.4,0.1,0.7,0.3,1
		s0.4,0.6,0.8,0.8s0.7,0.3,1.1,0.3c0.6,0,1.1-0.2,1.5-0.6s0.6-0.9,0.6-1.5s-0.2-1.1-0.6-1.5c-0.4-0.4-0.9-0.6-1.5-0.6
		s-1.1,0.2-1.5,0.6C799.7,35.8,799.5,36.3,799.5,36.8 M800.2,34.2c-0.5-0.2-0.9-0.5-1.2-0.8c-0.3-0.4-0.4-0.8-0.4-1.3
		c0-0.7,0.3-1.4,0.8-1.9s1.3-0.8,2.1-0.8c0.9,0,1.6,0.3,2.2,0.8c0.5,0.5,0.8,1.2,0.8,1.9c0,0.5-0.1,0.9-0.4,1.2
		c-0.3,0.4-0.6,0.6-1.1,0.8c0.6,0.2,1.1,0.5,1.4,1c0.3,0.5,0.5,1,0.5,1.6c0,0.9-0.3,1.6-0.9,2.2c-0.6,0.6-1.4,0.9-2.5,0.9
		c-1,0-1.8-0.3-2.5-0.9c-0.6-0.6-0.9-1.4-0.9-2.2c0-0.7,0.2-1.2,0.5-1.7C799.1,34.7,799.5,34.4,800.2,34.2"/>
	<path fill="#B2B2B2" d="M825.2,38.6v1.2h-6.8c0-0.3,0-0.6,0.1-0.9c0.2-0.5,0.5-0.9,0.8-1.4c0.4-0.4,0.9-1,1.7-1.6
		c1.1-0.9,1.9-1.6,2.3-2.2c0.4-0.5,0.6-1,0.6-1.5s-0.2-0.9-0.5-1.3c-0.4-0.3-0.8-0.5-1.4-0.5c-0.6,0-1.1,0.2-1.5,0.5
		s-0.5,0.9-0.6,1.5l-1.3-0.1c0.1-1,0.4-1.7,1-2.2s1.4-0.8,2.3-0.8c1,0,1.8,0.3,2.3,0.8c0.6,0.5,0.9,1.2,0.9,2c0,0.4-0.1,0.8-0.3,1.2
		c-0.2,0.4-0.4,0.8-0.8,1.3c-0.4,0.4-1,1-1.9,1.8c-0.8,0.6-1.2,1.1-1.5,1.3c-0.2,0.2-0.4,0.5-0.5,0.7L825.2,38.6L825.2,38.6z"/>
	<path fill="#B2B2B2" d="M831.9,32.9c0-0.7-0.2-1.3-0.6-1.7c-0.4-0.4-0.9-0.6-1.4-0.6c-0.6,0-1,0.2-1.5,0.7
		c-0.4,0.5-0.6,1.1-0.6,1.8c0,0.7,0.2,1.2,0.6,1.6c0.4,0.4,0.9,0.6,1.5,0.6s1.1-0.2,1.4-0.6C831.7,34.2,831.9,33.6,831.9,32.9
		 M826.8,37.4l1.2-0.1c0.1,0.6,0.3,1,0.6,1.2c0.3,0.3,0.7,0.4,1.1,0.4c0.4,0,0.7-0.1,1-0.3c0.3-0.2,0.5-0.4,0.7-0.7
		c0.2-0.3,0.3-0.7,0.5-1.2c0.1-0.5,0.2-1,0.2-1.5c0-0.1,0-0.1,0-0.3c-0.3,0.4-0.6,0.7-1,1s-0.9,0.4-1.4,0.4c-0.9,0-1.6-0.3-2.2-0.9
		c-0.6-0.6-0.9-1.4-0.9-2.4s0.3-1.9,0.9-2.5c0.6-0.6,1.4-1,2.3-1c0.7,0,1.3,0.2,1.8,0.5c0.6,0.4,1,0.9,1.3,1.5
		c0.3,0.7,0.4,1.6,0.4,2.9s-0.1,2.4-0.4,3.1c-0.3,0.8-0.7,1.4-1.3,1.8s-1.2,0.6-2,0.6s-1.5-0.2-2-0.7
		C827.2,38.9,826.9,38.2,826.8,37.4"/>
	<path fill="#B2B2B2" d="M845.6,37.5l2.2-0.3c0.1,0.6,0.3,1,0.6,1.3s0.7,0.4,1.1,0.4c0.5,0,0.9-0.2,1.2-0.5s0.5-0.8,0.5-1.5
		c0-0.6-0.2-1-0.5-1.4c-0.3-0.3-0.7-0.5-1.1-0.5c-0.3,0-0.6,0.1-1.1,0.2l0.3-1.9c0.6,0,1.1-0.1,1.4-0.4c0.3-0.3,0.5-0.7,0.5-1.1
		s-0.1-0.7-0.4-1c-0.2-0.2-0.6-0.4-1-0.4s-0.7,0.1-1,0.4s-0.4,0.7-0.5,1.2l-2.1-0.4c0.1-0.7,0.4-1.3,0.7-1.7c0.3-0.4,0.7-0.8,1.2-1
		s1.1-0.4,1.8-0.4c1.1,0,2,0.4,2.7,1.1c0.6,0.6,0.8,1.3,0.8,2c0,1.1-0.6,1.9-1.7,2.5c0.7,0.1,1.2,0.5,1.7,1c0.4,0.5,0.6,1.1,0.6,1.9
		c0,1.1-0.4,2-1.2,2.7s-1.7,1.1-2.9,1.1c-1.1,0-2-0.3-2.7-0.9C846.1,39.3,845.7,38.5,845.6,37.5"/>
	<path fill="#B2B2B2" d="M858.9,30.5c-0.3,0-0.5,0.1-0.7,0.3c-0.2,0.2-0.4,0.5-0.5,1c-0.2,0.6-0.2,1.6-0.2,3s0.1,2.4,0.2,2.9
		s0.3,0.9,0.5,1.1s0.5,0.3,0.7,0.3c0.3,0,0.5-0.1,0.7-0.3c0.2-0.2,0.4-0.5,0.5-1c0.2-0.6,0.2-1.6,0.2-3s-0.1-2.4-0.2-2.9
		c-0.1-0.5-0.3-0.9-0.5-1.1S859.2,30.5,858.9,30.5 M858.9,28.6c1.2,0,2.1,0.4,2.7,1.2c0.8,1,1.2,2.6,1.2,4.9s-0.4,3.9-1.2,4.9
		c-0.7,0.8-1.6,1.2-2.7,1.2c-1.2,0-2.1-0.4-2.8-1.3S855,37,855,34.7s0.4-3.9,1.2-4.9C856.8,29,857.8,28.6,858.9,28.6"/>
	<path fill="#B2B2B2" d="M875.3,37.1l1.3-0.2c0.1,0.7,0.4,1.2,0.7,1.5s0.8,0.5,1.3,0.5c0.6,0,1.1-0.2,1.5-0.6s0.6-0.9,0.6-1.5
		s-0.2-1.1-0.6-1.4c-0.4-0.4-0.9-0.6-1.4-0.6c-0.2,0-0.5,0-0.9,0.1l0.1-1.1c0.1,0,0.2,0,0.2,0c0.5,0,1-0.1,1.5-0.4
		c0.4-0.3,0.6-0.7,0.6-1.3c0-0.5-0.2-0.8-0.5-1.2c-0.3-0.3-0.7-0.5-1.2-0.5s-0.9,0.2-1.2,0.5s-0.5,0.8-0.6,1.4l-1.3-0.2
		c0.2-0.8,0.5-1.5,1.1-2c0.5-0.5,1.2-0.7,2-0.7c0.6,0,1.1,0.1,1.6,0.4s0.8,0.6,1.1,1c0.2,0.4,0.4,0.9,0.4,1.3s-0.1,0.8-0.4,1.2
		c-0.2,0.4-0.6,0.7-1.1,0.9c0.6,0.1,1.1,0.4,1.4,0.9c0.3,0.4,0.5,1,0.5,1.7c0,0.9-0.3,1.7-1,2.3c-0.7,0.6-1.5,0.9-2.5,0.9
		c-0.9,0-1.7-0.3-2.3-0.8C875.7,38.7,875.4,38,875.3,37.1"/>
	<path fill="#B2B2B2" d="M888,39.8h-1.3v-8.1c-0.3,0.3-0.7,0.6-1.2,0.9s-0.9,0.5-1.3,0.7v-1.2c0.7-0.3,1.3-0.7,1.9-1.2
		c0.5-0.5,0.9-0.9,1.1-1.4h0.8V39.8L888,39.8z"/>
	<path fill="#B2B2B2" d="M903.6,37.1l1.3-0.2c0.1,0.7,0.4,1.2,0.7,1.5s0.8,0.5,1.3,0.5c0.6,0,1.1-0.2,1.5-0.6s0.6-0.9,0.6-1.5
		s-0.2-1.1-0.6-1.4c-0.4-0.4-0.9-0.6-1.4-0.6c-0.2,0-0.5,0-0.9,0.1l0.1-1.1c0.1,0,0.2,0,0.2,0c0.5,0,1-0.1,1.5-0.4
		c0.4-0.3,0.6-0.7,0.6-1.3c0-0.5-0.2-0.8-0.5-1.2c-0.3-0.3-0.7-0.5-1.2-0.5s-0.9,0.2-1.2,0.5s-0.5,0.8-0.6,1.4l-1.3-0.2
		c0.2-0.8,0.5-1.5,1.1-2c0.5-0.5,1.2-0.7,2-0.7c0.6,0,1.1,0.1,1.6,0.4s0.8,0.6,1.1,1c0.2,0.4,0.4,0.9,0.4,1.3s-0.1,0.8-0.4,1.2
		c-0.2,0.4-0.6,0.7-1.1,0.9c0.6,0.1,1.1,0.4,1.4,0.9c0.3,0.4,0.5,1,0.5,1.7c0,0.9-0.3,1.7-1,2.3c-0.7,0.6-1.5,0.9-2.5,0.9
		c-0.9,0-1.7-0.3-2.3-0.8C904,38.7,903.7,38,903.6,37.1"/>
	<path fill="#B2B2B2" d="M918.2,38.6v1.2h-6.8c0-0.3,0-0.6,0.1-0.9c0.2-0.5,0.5-0.9,0.8-1.4c0.4-0.4,0.9-1,1.7-1.6
		c1.1-0.9,1.9-1.6,2.3-2.2c0.4-0.5,0.6-1,0.6-1.5s-0.2-0.9-0.5-1.3s-0.8-0.5-1.4-0.5c-0.6,0-1.1,0.2-1.5,0.5
		c-0.4,0.4-0.5,0.9-0.6,1.5l-1.3-0.1c0.1-1,0.4-1.7,1-2.2s1.4-0.8,2.3-0.8c1,0,1.8,0.3,2.3,0.8c0.6,0.5,0.9,1.2,0.9,2
		c0,0.4-0.1,0.8-0.3,1.2s-0.4,0.8-0.8,1.3c-0.4,0.4-1,1-1.9,1.8c-0.8,0.6-1.2,1.1-1.5,1.3c-0.2,0.2-0.4,0.5-0.5,0.7L918.2,38.6
		L918.2,38.6z"/>
	<path fill="#B2B2B2" d="M932,37.1l1.3-0.2c0.1,0.7,0.4,1.2,0.7,1.5s0.8,0.5,1.3,0.5c0.6,0,1.1-0.2,1.5-0.6s0.6-0.9,0.6-1.5
		s-0.2-1.1-0.6-1.4c-0.4-0.4-0.9-0.6-1.4-0.6c-0.2,0-0.5,0-0.9,0.1l0.1-1.1c0.1,0,0.2,0,0.2,0c0.5,0,1-0.1,1.5-0.4
		c0.4-0.3,0.6-0.7,0.6-1.3c0-0.5-0.2-0.8-0.5-1.2c-0.3-0.3-0.7-0.5-1.2-0.5s-0.9,0.2-1.2,0.5s-0.5,0.8-0.6,1.4l-1.3-0.2
		c0.2-0.8,0.5-1.5,1.1-2c0.5-0.5,1.2-0.7,2-0.7c0.6,0,1.1,0.1,1.6,0.4s0.8,0.6,1.1,1s0.4,0.9,0.4,1.3s-0.1,0.8-0.4,1.2
		c-0.2,0.4-0.6,0.7-1.1,0.9c0.6,0.1,1.1,0.4,1.4,0.9c0.3,0.4,0.5,1,0.5,1.7c0,0.9-0.3,1.7-1,2.3c-0.7,0.6-1.5,0.9-2.5,0.9
		c-0.9,0-1.7-0.3-2.2-0.8C932.4,38.7,932,38,932,37.1"/>
	<path fill="#B2B2B2" d="M940,37.1l1.3-0.2c0.1,0.7,0.4,1.2,0.7,1.5s0.8,0.5,1.3,0.5c0.6,0,1.1-0.2,1.5-0.6s0.6-0.9,0.6-1.5
		s-0.2-1.1-0.6-1.4c-0.4-0.4-0.9-0.6-1.4-0.6c-0.2,0-0.5,0-0.9,0.1l0.1-1.1c0.1,0,0.2,0,0.2,0c0.5,0,1-0.1,1.5-0.4
		c0.4-0.3,0.6-0.7,0.6-1.3c0-0.5-0.2-0.8-0.5-1.2c-0.3-0.3-0.7-0.5-1.2-0.5s-0.9,0.2-1.2,0.5s-0.5,0.8-0.6,1.4l-1.3-0.2
		c0.2-0.8,0.5-1.5,1.1-2c0.5-0.5,1.2-0.7,2-0.7c0.6,0,1.1,0.1,1.6,0.4c0.5,0.2,0.8,0.6,1.1,1c0.2,0.4,0.4,0.9,0.4,1.3
		s-0.1,0.8-0.4,1.2c-0.2,0.4-0.6,0.7-1.1,0.9c0.6,0.1,1.1,0.4,1.4,0.9c0.3,0.4,0.5,1,0.5,1.7c0,0.9-0.3,1.7-1,2.3
		c-0.7,0.6-1.5,0.9-2.5,0.9c-0.9,0-1.7-0.3-2.3-0.8C940.4,38.7,940,38,940,37.1"/>
	<path fill="#B2B2B2" d="M960.3,37.1l1.3-0.2c0.1,0.7,0.4,1.2,0.7,1.5s0.8,0.5,1.3,0.5c0.6,0,1.1-0.2,1.5-0.6s0.6-0.9,0.6-1.5
		s-0.2-1.1-0.6-1.4c-0.4-0.4-0.9-0.6-1.4-0.6c-0.2,0-0.5,0-0.9,0.1l0.1-1.1c0.1,0,0.2,0,0.2,0c0.5,0,1-0.1,1.5-0.4
		c0.4-0.3,0.6-0.7,0.6-1.3c0-0.5-0.2-0.8-0.5-1.2c-0.3-0.3-0.7-0.5-1.2-0.5s-0.9,0.2-1.2,0.5s-0.5,0.8-0.6,1.4l-1.3-0.2
		c0.2-0.8,0.5-1.5,1.1-2c0.5-0.5,1.2-0.7,2-0.7c0.6,0,1.1,0.1,1.6,0.4s0.8,0.6,1.1,1c0.2,0.4,0.4,0.9,0.4,1.3s-0.1,0.8-0.4,1.2
		s-0.6,0.7-1.1,0.9c0.6,0.1,1.1,0.4,1.4,0.9c0.3,0.4,0.5,1,0.5,1.7c0,0.9-0.3,1.7-1,2.3c-0.7,0.6-1.5,0.9-2.5,0.9
		c-0.9,0-1.7-0.3-2.3-0.8C960.7,38.7,960.4,38,960.3,37.1"/>
	<path fill="#B2B2B2" d="M972.4,36.2v-4.6l-3.2,4.6H972.4z M972.4,39.8v-2.5h-4.5v-1.2l4.7-6.7h1v6.7h1.4v1.2h-1.4v2.5H972.4z"/>
	<path fill="#B2B2B2" d="M988.7,37.1l1.3-0.2c0.1,0.7,0.4,1.2,0.7,1.5c0.3,0.3,0.8,0.5,1.3,0.5c0.6,0,1.1-0.2,1.5-0.6
		s0.6-0.9,0.6-1.5s-0.2-1.1-0.6-1.4s-0.9-0.6-1.4-0.6c-0.2,0-0.5,0-0.9,0.1l0.1-1.1c0.1,0,0.2,0,0.2,0c0.5,0,1-0.1,1.5-0.4
		c0.4-0.3,0.6-0.7,0.6-1.3c0-0.5-0.2-0.8-0.5-1.2c-0.3-0.3-0.7-0.5-1.2-0.5s-0.9,0.2-1.2,0.5s-0.5,0.8-0.6,1.4l-1.3-0.2
		c0.2-0.8,0.5-1.5,1.1-2c0.5-0.5,1.2-0.7,2-0.7c0.6,0,1.1,0.1,1.6,0.4s0.8,0.6,1.1,1c0.2,0.4,0.4,0.9,0.4,1.3s-0.1,0.8-0.4,1.2
		c-0.2,0.4-0.6,0.7-1.1,0.9c0.6,0.1,1.1,0.4,1.4,0.9c0.3,0.4,0.5,1,0.5,1.7c0,0.9-0.3,1.7-1,2.3s-1.5,0.9-2.5,0.9
		c-0.9,0-1.7-0.3-2.2-0.8C989.1,38.7,988.7,38,988.7,37.1"/>
	<path fill="#B2B2B2" d="M996.6,37.1l1.3-0.1c0.1,0.6,0.3,1.1,0.7,1.5c0.4,0.3,0.8,0.5,1.3,0.5c0.6,0,1.1-0.2,1.5-0.7
		s0.6-1.1,0.6-1.8c0-0.7-0.2-1.3-0.6-1.7c-0.4-0.4-0.9-0.6-1.6-0.6c-0.4,0-0.8,0.1-1.1,0.3c-0.3,0.2-0.6,0.4-0.8,0.7l-1.2-0.2l1-5.3
		h5.1v1.2h-4.1l-0.6,2.8c0.6-0.4,1.3-0.6,1.9-0.6c0.9,0,1.7,0.3,2.3,0.9c0.6,0.6,0.9,1.4,0.9,2.4c0,0.9-0.3,1.7-0.8,2.4
		c-0.7,0.8-1.6,1.2-2.7,1.2c-0.9,0-1.7-0.3-2.3-0.8C997.1,38.7,996.7,38,996.6,37.1"/>
	<path fill="#B2B2B2" d="M1017,37.1l1.3-0.2c0.1,0.7,0.4,1.2,0.7,1.5c0.3,0.3,0.8,0.5,1.3,0.5c0.6,0,1.1-0.2,1.5-0.6
		s0.6-0.9,0.6-1.5s-0.2-1.1-0.6-1.4s-0.9-0.6-1.4-0.6c-0.2,0-0.5,0-0.9,0.1l0.1-1.1c0.1,0,0.2,0,0.2,0c0.5,0,1-0.1,1.5-0.4
		c0.4-0.3,0.6-0.7,0.6-1.3c0-0.5-0.2-0.8-0.5-1.2c-0.3-0.3-0.7-0.5-1.2-0.5s-0.9,0.2-1.2,0.5s-0.5,0.8-0.6,1.4l-1.3-0.2
		c0.2-0.8,0.5-1.5,1.1-2c0.5-0.5,1.2-0.7,2-0.7c0.6,0,1.1,0.1,1.6,0.4s0.8,0.6,1.1,1c0.2,0.4,0.4,0.9,0.4,1.3s-0.1,0.8-0.4,1.2
		c-0.2,0.4-0.6,0.7-1.1,0.9c0.6,0.1,1.1,0.4,1.4,0.9c0.3,0.4,0.5,1,0.5,1.7c0,0.9-0.3,1.7-1,2.3s-1.5,0.9-2.5,0.9
		c-0.9,0-1.7-0.3-2.3-0.8C1017.4,38.7,1017.1,38,1017,37.1"/>
	<path fill="#B2B2B2" d="M1026.4,36.5c0,0.4,0.1,0.9,0.3,1.2c0.2,0.4,0.4,0.7,0.8,0.9c0.3,0.2,0.7,0.3,1,0.3c0.5,0,1-0.2,1.4-0.6
		s0.6-1,0.6-1.8c0-0.7-0.2-1.3-0.6-1.7c-0.4-0.4-0.9-0.6-1.4-0.6c-0.6,0-1.1,0.2-1.5,0.6C1026.6,35.3,1026.4,35.8,1026.4,36.5
		 M1031.5,32l-1.3,0.1c-0.1-0.5-0.3-0.9-0.5-1.1c-0.3-0.4-0.8-0.5-1.3-0.5c-0.4,0-0.8,0.1-1.1,0.3c-0.4,0.3-0.7,0.7-0.9,1.3
		s-0.3,1.3-0.4,2.4c0.3-0.5,0.7-0.8,1.1-1s0.9-0.3,1.4-0.3c0.8,0,1.6,0.3,2.2,0.9s0.9,1.4,0.9,2.4c0,0.6-0.1,1.2-0.4,1.8
		c-0.3,0.6-0.7,1-1.1,1.3c-0.5,0.3-1,0.4-1.7,0.4c-1.1,0-1.9-0.4-2.6-1.2c-0.7-0.8-1-2.1-1-3.8c0-2,0.4-3.4,1.1-4.3
		c0.6-0.8,1.5-1.2,2.6-1.2c0.8,0,1.5,0.2,2,0.7C1031.1,30.6,1031.4,31.2,1031.5,32"/>
	<path fill="#B2B2B2" d="M1045.3,37.1l1.3-0.2c0.1,0.7,0.4,1.2,0.7,1.5c0.3,0.3,0.8,0.5,1.3,0.5c0.6,0,1.1-0.2,1.5-0.6
		s0.6-0.9,0.6-1.5s-0.2-1.1-0.6-1.4s-0.9-0.6-1.4-0.6c-0.2,0-0.5,0-0.9,0.1l0.1-1.1c0.1,0,0.2,0,0.2,0c0.5,0,1-0.1,1.5-0.4
		c0.4-0.3,0.6-0.7,0.6-1.3c0-0.5-0.2-0.8-0.5-1.2c-0.3-0.3-0.7-0.5-1.2-0.5s-0.9,0.2-1.2,0.5s-0.5,0.8-0.6,1.4l-1.3-0.2
		c0.2-0.8,0.5-1.5,1.1-2c0.5-0.5,1.2-0.7,2-0.7c0.6,0,1.1,0.1,1.6,0.4s0.8,0.6,1.1,1c0.2,0.4,0.4,0.9,0.4,1.3s-0.1,0.8-0.4,1.2
		c-0.2,0.4-0.6,0.7-1.1,0.9c0.6,0.1,1.1,0.4,1.4,0.9c0.3,0.4,0.5,1,0.5,1.7c0,0.9-0.3,1.7-1,2.3s-1.5,0.9-2.5,0.9
		c-0.9,0-1.7-0.3-2.3-0.8C1045.8,38.7,1045.4,38,1045.3,37.1"/>
	<path fill="#B2B2B2" d="M1053.4,30.9v-1.2h6.7v1c-0.7,0.7-1.3,1.6-1.9,2.8c-0.6,1.2-1.1,2.3-1.5,3.6c-0.3,0.9-0.4,1.8-0.5,2.8h-1.3
		c0-0.8,0.2-1.8,0.5-2.9s0.7-2.3,1.3-3.3c0.6-1.1,1.2-2,1.8-2.7C1058.5,30.9,1053.4,30.9,1053.4,30.9z"/>
	<path fill="#B2B2B2" d="M1073.7,37.1l1.3-0.2c0.1,0.7,0.4,1.2,0.7,1.5c0.3,0.3,0.8,0.5,1.3,0.5c0.6,0,1.1-0.2,1.5-0.6
		s0.6-0.9,0.6-1.5s-0.2-1.1-0.6-1.4c-0.4-0.4-0.9-0.6-1.4-0.6c-0.2,0-0.5,0-0.9,0.1l0.1-1.1c0.1,0,0.2,0,0.2,0c0.5,0,1-0.1,1.5-0.4
		c0.4-0.3,0.6-0.7,0.6-1.3c0-0.5-0.2-0.8-0.5-1.2c-0.3-0.3-0.7-0.5-1.2-0.5s-0.9,0.2-1.2,0.5c-0.3,0.3-0.5,0.8-0.6,1.4l-1.3-0.2
		c0.2-0.8,0.5-1.5,1.1-2c0.5-0.5,1.2-0.7,2-0.7c0.6,0,1.1,0.1,1.6,0.4c0.5,0.2,0.8,0.6,1.1,1s0.4,0.9,0.4,1.3s-0.1,0.8-0.4,1.2
		c-0.2,0.4-0.6,0.7-1.1,0.9c0.6,0.1,1.1,0.4,1.4,0.9c0.3,0.4,0.5,1,0.5,1.7c0,0.9-0.3,1.7-1,2.3c-0.7,0.6-1.5,0.9-2.5,0.9
		c-0.9,0-1.7-0.3-2.2-0.8S1073.8,38,1073.7,37.1"/>
	<path fill="#B2B2B2" d="M1083.4,32.1c0,0.5,0.2,0.9,0.5,1.2c0.3,0.3,0.7,0.5,1.2,0.5s0.9-0.2,1.2-0.5c0.3-0.3,0.5-0.7,0.5-1.1
		c0-0.5-0.2-0.9-0.5-1.2c-0.3-0.3-0.7-0.5-1.2-0.5s-0.9,0.2-1.2,0.5C1083.5,31.3,1083.4,31.7,1083.4,32.1 M1083,36.8
		c0,0.4,0.1,0.7,0.3,1c0.2,0.3,0.4,0.6,0.8,0.8c0.3,0.2,0.7,0.3,1.1,0.3c0.6,0,1.1-0.2,1.5-0.6s0.6-0.9,0.6-1.5s-0.2-1.1-0.6-1.5
		s-0.9-0.6-1.5-0.6s-1.1,0.2-1.5,0.6C1083.2,35.8,1083,36.3,1083,36.8 M1083.6,34.2c-0.5-0.2-0.9-0.5-1.2-0.8
		c-0.3-0.4-0.4-0.8-0.4-1.3c0-0.7,0.3-1.4,0.8-1.9s1.3-0.8,2.1-0.8c0.9,0,1.6,0.3,2.2,0.8c0.5,0.5,0.8,1.2,0.8,1.9
		c0,0.5-0.1,0.9-0.4,1.2c-0.2,0.4-0.6,0.6-1.1,0.8c0.6,0.2,1.1,0.5,1.4,1s0.5,1,0.5,1.6c0,0.9-0.3,1.6-0.9,2.2s-1.4,0.9-2.5,0.9
		c-1,0-1.8-0.3-2.5-0.9c-0.6-0.6-0.9-1.4-0.9-2.2c0-0.7,0.2-1.2,0.5-1.7C1082.5,34.7,1083,34.4,1083.6,34.2"/>
	<path fill="#B2B2B2" d="M1102,37.1l1.3-0.2c0.1,0.7,0.4,1.2,0.7,1.5c0.3,0.3,0.8,0.5,1.3,0.5c0.6,0,1.1-0.2,1.5-0.6
		s0.6-0.9,0.6-1.5s-0.2-1.1-0.6-1.4s-0.9-0.6-1.4-0.6c-0.2,0-0.5,0-0.9,0.1l0.1-1.1c0.1,0,0.2,0,0.2,0c0.5,0,1-0.1,1.5-0.4
		c0.4-0.3,0.6-0.7,0.6-1.3c0-0.5-0.2-0.8-0.5-1.2c-0.3-0.3-0.7-0.5-1.2-0.5s-0.9,0.2-1.2,0.5s-0.5,0.8-0.6,1.4l-1.3-0.2
		c0.2-0.8,0.5-1.5,1.1-2c0.5-0.5,1.2-0.7,2-0.7c0.6,0,1.1,0.1,1.6,0.4s0.8,0.6,1.1,1c0.2,0.4,0.4,0.9,0.4,1.3s-0.1,0.8-0.4,1.2
		c-0.2,0.4-0.6,0.7-1.1,0.9c0.6,0.1,1.1,0.4,1.4,0.9c0.3,0.4,0.5,1,0.5,1.7c0,0.9-0.3,1.7-1,2.3s-1.5,0.9-2.5,0.9
		c-0.9,0-1.7-0.3-2.3-0.8C1102.5,38.7,1102.1,38,1102,37.1"/>
	<path fill="#B2B2B2" d="M1115.4,32.9c0-0.7-0.2-1.3-0.6-1.7c-0.4-0.4-0.9-0.6-1.4-0.6c-0.6,0-1.1,0.2-1.5,0.7s-0.6,1.1-0.6,1.8
		c0,0.7,0.2,1.2,0.6,1.6s0.9,0.6,1.5,0.6s1.1-0.2,1.4-0.6C1115.2,34.2,1115.4,33.6,1115.4,32.9 M1110.2,37.4l1.2-0.1
		c0.1,0.6,0.3,1,0.6,1.2c0.3,0.3,0.7,0.4,1.1,0.4s0.7-0.1,1-0.3c0.3-0.2,0.5-0.4,0.7-0.7s0.3-0.7,0.5-1.2c0.1-0.5,0.2-1,0.2-1.5
		c0-0.1,0-0.1,0-0.3c-0.3,0.4-0.6,0.7-1,1s-0.9,0.4-1.4,0.4c-0.9,0-1.6-0.3-2.2-0.9S1110,34,1110,33s0.3-1.9,0.9-2.5s1.4-1,2.3-1
		c0.7,0,1.3,0.2,1.8,0.5c0.6,0.4,1,0.9,1.3,1.5c0.3,0.7,0.4,1.6,0.4,2.9s-0.1,2.4-0.4,3.1s-0.7,1.4-1.3,1.8c-0.6,0.4-1.2,0.6-2,0.6
		s-1.5-0.2-2-0.7C1110.6,38.9,1110.3,38.2,1110.2,37.4"/>
	<path fill="#B2B2B2" d="M1133.7,36.2v-4.1l-2.8,4.1H1133.7z M1133.7,40.7v-2.4h-4.9v-2l5.2-7.6h1.9v7.6h1.5v2h-1.5v2.4H1133.7z"/>
	<path fill="#B2B2B2" d="M1142.4,30.5c-0.3,0-0.5,0.1-0.7,0.3c-0.2,0.2-0.4,0.5-0.5,1c-0.2,0.6-0.2,1.6-0.2,3s0.1,2.4,0.2,2.9
		s0.3,0.9,0.5,1.1s0.5,0.3,0.7,0.3c0.3,0,0.5-0.1,0.7-0.3c0.2-0.2,0.4-0.5,0.5-1c0.2-0.6,0.2-1.6,0.2-3s-0.1-2.4-0.2-2.9
		s-0.3-0.9-0.5-1.1C1142.9,30.6,1142.7,30.5,1142.4,30.5 M1142.4,28.6c1.2,0,2.1,0.4,2.7,1.2c0.8,1,1.2,2.6,1.2,4.9
		s-0.4,3.9-1.2,4.9c-0.7,0.8-1.6,1.2-2.7,1.2c-1.2,0-2.1-0.4-2.8-1.3c-0.7-0.9-1.1-2.5-1.1-4.8s0.4-3.9,1.2-4.9
		C1140.3,29,1141.2,28.6,1142.4,28.6"/>
	<path fill="#B2B2B2" d="M1162.8,36.3v-4.6l-3.2,4.6H1162.8z M1162.8,39.9v-2.5h-4.5v-1.2l4.7-6.7h1v6.7h1.4v1.2h-1.4v2.5H1162.8z"
		/>
	<path fill="#B2B2B2" d="M1171.5,39.9h-1.3v-8.1c-0.3,0.3-0.7,0.6-1.2,0.9s-0.9,0.5-1.3,0.7v-1.2c0.7-0.3,1.3-0.7,1.9-1.2
		c0.5-0.5,0.9-0.9,1.1-1.4h0.8V39.9z"/>
	<path fill="#B2B2B2" d="M1191.1,36.3v-4.6l-3.2,4.6H1191.1z M1191.1,39.9v-2.5h-4.5v-1.2l4.7-6.7h1v6.7h1.4v1.2h-1.4v2.5H1191.1z"
		/>
	<path fill="#B2B2B2" d="M1201.7,38.7v1.2h-6.8c0-0.3,0-0.6,0.1-0.9c0.2-0.5,0.5-0.9,0.8-1.4c0.4-0.4,0.9-1,1.7-1.6
		c1.1-0.9,1.9-1.6,2.3-2.2s0.6-1,0.6-1.5s-0.2-0.9-0.5-1.3s-0.8-0.5-1.4-0.5s-1.1,0.2-1.5,0.5c-0.4,0.4-0.6,0.9-0.6,1.5l-1.3-0.1
		c0.1-1,0.4-1.7,1-2.2s1.4-0.8,2.3-0.8c1,0,1.8,0.3,2.3,0.8c0.6,0.5,0.9,1.2,0.9,2c0,0.4-0.1,0.8-0.3,1.2c-0.2,0.4-0.4,0.8-0.8,1.3
		c-0.4,0.4-1,1-1.9,1.8c-0.8,0.6-1.2,1.1-1.5,1.3c-0.2,0.2-0.4,0.5-0.5,0.7L1201.7,38.7L1201.7,38.7z"/>
	<path fill="#B2B2B2" d="M1219.5,36.2v-4.6l-3.2,4.6H1219.5z M1219.5,39.8v-2.5h-4.5v-1.2l4.7-6.7h1v6.7h1.4v1.2h-1.4v2.5H1219.5z"
		/>
	<path fill="#B2B2B2" d="M1223.4,37.1l1.3-0.2c0.1,0.7,0.4,1.2,0.7,1.5c0.3,0.3,0.8,0.5,1.3,0.5c0.6,0,1.1-0.2,1.5-0.6
		s0.6-0.9,0.6-1.5s-0.2-1.1-0.6-1.4s-0.9-0.6-1.4-0.6c-0.2,0-0.5,0-0.9,0.1l0.1-1.1c0.1,0,0.2,0,0.2,0c0.5,0,1-0.1,1.5-0.4
		c0.4-0.3,0.6-0.7,0.6-1.3c0-0.5-0.2-0.8-0.5-1.2c-0.3-0.3-0.7-0.5-1.2-0.5s-0.9,0.2-1.2,0.5s-0.5,0.8-0.6,1.4l-1.3-0.2
		c0.2-0.8,0.5-1.5,1.1-2c0.5-0.5,1.2-0.7,2-0.7c0.6,0,1.1,0.1,1.6,0.4s0.8,0.6,1.1,1c0.2,0.4,0.4,0.9,0.4,1.3s-0.1,0.8-0.4,1.2
		c-0.2,0.4-0.6,0.7-1.1,0.9c0.6,0.1,1.1,0.4,1.4,0.9c0.3,0.4,0.5,1,0.5,1.7c0,0.9-0.3,1.7-1,2.3s-1.5,0.9-2.5,0.9
		c-0.9,0-1.7-0.3-2.2-0.8C1223.8,38.7,1223.5,38,1223.4,37.1"/>
	<path fill="#B2B2B2" d="M1247.8,36.3v-4.6l-3.2,4.6H1247.8z M1247.8,39.9v-2.5h-4.5v-1.2l4.7-6.7h1v6.7h1.4v1.2h-1.4v2.5H1247.8z"
		/>
	<path fill="#B2B2B2" d="M1255.8,36.3v-4.6l-3.2,4.6H1255.8z M1255.8,39.9v-2.5h-4.5v-1.2l4.7-6.7h1v6.7h1.4v1.2h-1.4v2.5H1255.8z"
		/>
	<path fill="#B2B2B2" d="M1276.2,36.2v-4.6l-3.2,4.6H1276.2z M1276.2,39.8v-2.5h-4.5v-1.2l4.7-6.7h1v6.7h1.4v1.2h-1.4v2.5H1276.2z"
		/>
	<path fill="#B2B2B2" d="M1280.1,37.1l1.3-0.1c0.1,0.6,0.3,1.1,0.7,1.5c0.4,0.3,0.8,0.5,1.3,0.5c0.6,0,1.1-0.2,1.5-0.7
		s0.6-1.1,0.6-1.8c0-0.7-0.2-1.3-0.6-1.7c-0.4-0.4-0.9-0.6-1.6-0.6c-0.4,0-0.8,0.1-1.1,0.3c-0.3,0.2-0.6,0.4-0.8,0.7l-1.2-0.2l1-5.3
		h5.1v1.2h-4.1l-0.6,2.8c0.6-0.4,1.3-0.6,1.9-0.6c0.9,0,1.7,0.3,2.3,0.9c0.6,0.6,0.9,1.4,0.9,2.4c0,0.9-0.3,1.7-0.8,2.4
		c-0.7,0.8-1.6,1.2-2.7,1.2c-0.9,0-1.7-0.3-2.3-0.8C1280.5,38.7,1280.2,38,1280.1,37.1"/>
	<path fill="#B2B2B2" d="M33.6,39.9h-1.3v-8c-0.3,0.3-0.7,0.6-1.2,0.9s-0.9,0.5-1.3,0.7v-1.2c0.7-0.3,1.3-0.7,1.9-1.2
		c0.5-0.5,0.9-0.9,1.1-1.4h0.8V39.9z"/>
</g>
</svg>
