<?xml version="1.0" encoding="utf-8"?>
<!-- Generator: Adobe Illustrator 26.2.1, SVG Export Plug-In . SVG Version: 6.00 Build 0)  -->
<svg version="1.1" id="Ebene_1" xmlns="http://www.w3.org/2000/svg" xmlns:xlink="http://www.w3.org/1999/xlink" x="0px" y="0px"
	 width="40.8px" height="719.8px" viewBox="0 0 40.8 719.8" enable-background="new 0 0 40.8 719.8" xml:space="preserve">
<g>
	<rect x="27" y="3.8" fill="#B2B2B2" width="13.8" height="0.3"/>
	<rect x="27" y="6.7" fill="#B2B2B2" width="13.8" height="0.3"/>
	<rect x="27" y="9.5" fill="#B2B2B2" width="13.8" height="0.3"/>
	<rect x="27" y="12.4" fill="#B2B2B2" width="13.8" height="0.3"/>
	<rect x="27" y="15.2" fill="#B2B2B2" width="13.8" height="0.3"/>
	<rect x="27" y="18" fill="#B2B2B2" width="13.8" height="0.3"/>
	<rect x="27" y="20.9" fill="#B2B2B2" width="13.8" height="0.3"/>
	<rect x="27" y="23.7" fill="#B2B2B2" width="13.8" height="0.3"/>
	<rect x="27" y="26.5" fill="#B2B2B2" width="13.8" height="0.3"/>
	<rect x="27" y="29.4" fill="#B2B2B2" width="13.8" height="0.3"/>
	<rect x="27" y="32.2" fill="#B2B2B2" width="13.8" height="0.3"/>
	<rect x="27" y="35" fill="#B2B2B2" width="13.8" height="0.3"/>
	<rect x="27" y="37.9" fill="#B2B2B2" width="13.8" height="0.3"/>
	<rect x="27" y="40.7" fill="#B2B2B2" width="13.8" height="0.3"/>
	<rect x="27" y="43.5" fill="#B2B2B2" width="13.8" height="0.3"/>
	<rect x="27" y="46.4" fill="#B2B2B2" width="13.8" height="0.3"/>
	<rect x="27" y="49.2" fill="#B2B2B2" width="13.8" height="0.3"/>
	<rect x="27" y="52" fill="#B2B2B2" width="13.8" height="0.3"/>
	<rect x="27" y="54.9" fill="#B2B2B2" width="13.8" height="0.3"/>
	<rect x="27" y="57.7" fill="#B2B2B2" width="13.8" height="0.3"/>
	<rect x="27" y="60.5" fill="#B2B2B2" width="13.8" height="0.3"/>
	<rect x="27" y="63.4" fill="#B2B2B2" width="13.8" height="0.3"/>
	<rect x="27" y="66.2" fill="#B2B2B2" width="13.8" height="0.3"/>
	<rect x="27" y="69" fill="#B2B2B2" width="13.8" height="0.3"/>
	<rect x="27" y="71.9" fill="#B2B2B2" width="13.8" height="0.3"/>
	<rect x="27" y="74.7" fill="#B2B2B2" width="13.8" height="0.3"/>
	<rect x="27" y="77.5" fill="#B2B2B2" width="13.8" height="0.3"/>
	<rect x="27" y="80.4" fill="#B2B2B2" width="13.8" height="0.3"/>
	<rect x="27" y="83.2" fill="#B2B2B2" width="13.8" height="0.3"/>
	<rect x="27" y="86.1" fill="#B2B2B2" width="13.8" height="0.3"/>
	<rect x="27" y="88.9" fill="#B2B2B2" width="13.8" height="0.3"/>
	<rect x="27" y="91.7" fill="#B2B2B2" width="13.8" height="0.3"/>
	<rect x="27" y="94.6" fill="#B2B2B2" width="13.8" height="0.3"/>
	<rect x="27" y="97.4" fill="#B2B2B2" width="13.8" height="0.3"/>
	<rect x="27" y="100.2" fill="#B2B2B2" width="13.8" height="0.3"/>
	<rect x="27" y="103.1" fill="#B2B2B2" width="13.8" height="0.3"/>
	<rect x="27" y="105.9" fill="#B2B2B2" width="13.8" height="0.3"/>
	<rect x="27" y="108.7" fill="#B2B2B2" width="13.8" height="0.3"/>
	<rect x="27" y="111.6" fill="#B2B2B2" width="13.8" height="0.3"/>
	<rect x="27" y="114.4" fill="#B2B2B2" width="13.8" height="0.3"/>
	<rect x="27" y="117.2" fill="#B2B2B2" width="13.8" height="0.3"/>
	<rect x="27" y="120.1" fill="#B2B2B2" width="13.8" height="0.3"/>
	<rect x="27" y="122.9" fill="#B2B2B2" width="13.8" height="0.3"/>
	<rect x="27" y="125.7" fill="#B2B2B2" width="13.8" height="0.3"/>
	<rect x="27" y="128.6" fill="#B2B2B2" width="13.8" height="0.3"/>
	<rect x="27" y="131.4" fill="#B2B2B2" width="13.8" height="0.3"/>
	<rect x="27" y="134.2" fill="#B2B2B2" width="13.8" height="0.3"/>
	<rect x="27" y="137.1" fill="#B2B2B2" width="13.8" height="0.3"/>
	<rect x="27" y="139.9" fill="#B2B2B2" width="13.8" height="0.3"/>
	<rect x="27" y="142.7" fill="#B2B2B2" width="13.8" height="0.3"/>
	<rect x="27" y="145.6" fill="#B2B2B2" width="13.8" height="0.3"/>
	<rect x="27" y="148.4" fill="#B2B2B2" width="13.8" height="0.3"/>
	<rect x="27" y="151.2" fill="#B2B2B2" width="13.8" height="0.3"/>
	<rect x="27" y="154.1" fill="#B2B2B2" width="13.8" height="0.3"/>
	<rect x="27" y="156.9" fill="#B2B2B2" width="13.8" height="0.3"/>
	<rect x="27" y="159.8" fill="#B2B2B2" width="13.8" height="0.3"/>
	<rect x="27" y="162.6" fill="#B2B2B2" width="13.8" height="0.3"/>
	<rect x="27" y="165.4" fill="#B2B2B2" width="13.8" height="0.3"/>
	<rect x="27" y="168.3" fill="#B2B2B2" width="13.8" height="0.3"/>
	<rect x="27" y="171.1" fill="#B2B2B2" width="13.8" height="0.3"/>
	<rect x="27" y="173.9" fill="#B2B2B2" width="13.8" height="0.3"/>
	<rect x="27" y="176.8" fill="#B2B2B2" width="13.8" height="0.3"/>
	<rect x="27" y="179.6" fill="#B2B2B2" width="13.8" height="0.3"/>
	<rect x="27" y="182.4" fill="#B2B2B2" width="13.8" height="0.3"/>
	<rect x="27" y="185.3" fill="#B2B2B2" width="13.8" height="0.3"/>
	<rect x="27" y="188.1" fill="#B2B2B2" width="13.8" height="0.3"/>
	<rect x="27" y="190.9" fill="#B2B2B2" width="13.8" height="0.3"/>
	<rect x="27" y="193.8" fill="#B2B2B2" width="13.8" height="0.3"/>
	<rect x="27" y="196.6" fill="#B2B2B2" width="13.8" height="0.3"/>
	<rect x="27" y="199.4" fill="#B2B2B2" width="13.8" height="0.3"/>
	<rect x="27" y="202.3" fill="#B2B2B2" width="13.8" height="0.3"/>
	<rect x="27" y="205.1" fill="#B2B2B2" width="13.8" height="0.3"/>
	<rect x="27" y="207.9" fill="#B2B2B2" width="13.8" height="0.3"/>
	<rect x="27" y="210.8" fill="#B2B2B2" width="13.8" height="0.3"/>
	<rect x="27" y="213.6" fill="#B2B2B2" width="13.8" height="0.3"/>
	<rect x="27" y="216.4" fill="#B2B2B2" width="13.8" height="0.3"/>
	<rect x="27" y="219.3" fill="#B2B2B2" width="13.8" height="0.3"/>
	<rect x="27" y="222.1" fill="#B2B2B2" width="13.8" height="0.3"/>
	<rect x="27" y="224.9" fill="#B2B2B2" width="13.8" height="0.3"/>
	<rect x="27" y="227.8" fill="#B2B2B2" width="13.8" height="0.3"/>
	<rect x="27" y="230.6" fill="#B2B2B2" width="13.8" height="0.3"/>
	<rect x="27" y="233.5" fill="#B2B2B2" width="13.8" height="0.3"/>
	<rect x="27" y="236.3" fill="#B2B2B2" width="13.8" height="0.3"/>
	<rect x="27" y="239.1" fill="#B2B2B2" width="13.8" height="0.3"/>
	<rect x="27" y="242" fill="#B2B2B2" width="13.8" height="0.3"/>
	<rect x="27" y="244.8" fill="#B2B2B2" width="13.8" height="0.3"/>
	<rect x="27" y="247.6" fill="#B2B2B2" width="13.8" height="0.3"/>
	<rect x="27" y="250.5" fill="#B2B2B2" width="13.8" height="0.3"/>
	<rect x="27" y="253.3" fill="#B2B2B2" width="13.8" height="0.3"/>
	<rect x="27" y="256.1" fill="#B2B2B2" width="13.8" height="0.3"/>
	<rect x="27" y="259" fill="#B2B2B2" width="13.8" height="0.3"/>
	<rect x="27" y="261.8" fill="#B2B2B2" width="13.8" height="0.3"/>
	<rect x="27" y="264.6" fill="#B2B2B2" width="13.8" height="0.3"/>
	<rect x="27" y="267.5" fill="#B2B2B2" width="13.8" height="0.3"/>
	<rect x="27" y="270.3" fill="#B2B2B2" width="13.8" height="0.3"/>
	<rect x="27" y="273.1" fill="#B2B2B2" width="13.8" height="0.3"/>
	<rect x="27" y="276" fill="#B2B2B2" width="13.8" height="0.3"/>
	<rect x="27" y="278.8" fill="#B2B2B2" width="13.8" height="0.3"/>
	<rect x="27" y="281.6" fill="#B2B2B2" width="13.8" height="0.3"/>
	<rect x="27" y="284.5" fill="#B2B2B2" width="13.8" height="0.3"/>
	<rect x="27" y="287.3" fill="#B2B2B2" width="13.8" height="0.3"/>
	<rect x="27" y="290.1" fill="#B2B2B2" width="13.8" height="0.3"/>
	<rect x="27" y="293" fill="#B2B2B2" width="13.8" height="0.3"/>
	<rect x="27" y="295.8" fill="#B2B2B2" width="13.8" height="0.3"/>
	<rect x="27" y="298.7" fill="#B2B2B2" width="13.8" height="0.3"/>
	<rect x="27" y="301.5" fill="#B2B2B2" width="13.8" height="0.3"/>
	<rect x="27" y="304.3" fill="#B2B2B2" width="13.8" height="0.3"/>
	<rect x="27" y="307.2" fill="#B2B2B2" width="13.8" height="0.3"/>
	<rect x="27" y="310" fill="#B2B2B2" width="13.8" height="0.3"/>
	<rect x="27" y="312.8" fill="#B2B2B2" width="13.8" height="0.3"/>
	<rect x="27" y="315.7" fill="#B2B2B2" width="13.8" height="0.3"/>
	<rect x="27" y="318.5" fill="#B2B2B2" width="13.8" height="0.3"/>
	<rect x="27" y="321.3" fill="#B2B2B2" width="13.8" height="0.3"/>
	<rect x="27" y="324.2" fill="#B2B2B2" width="13.8" height="0.3"/>
	<rect x="27" y="327" fill="#B2B2B2" width="13.8" height="0.3"/>
	<rect x="27" y="329.8" fill="#B2B2B2" width="13.8" height="0.3"/>
	<rect x="27" y="332.7" fill="#B2B2B2" width="13.8" height="0.3"/>
	<rect x="27" y="335.5" fill="#B2B2B2" width="13.8" height="0.3"/>
	<rect x="27" y="338.3" fill="#B2B2B2" width="13.8" height="0.3"/>
	<rect x="27" y="341.2" fill="#B2B2B2" width="13.8" height="0.3"/>
	<rect x="27" y="344" fill="#B2B2B2" width="13.8" height="0.3"/>
	<rect x="27" y="346.8" fill="#B2B2B2" width="13.8" height="0.3"/>
	<rect x="27" y="349.7" fill="#B2B2B2" width="13.8" height="0.3"/>
	<rect x="27" y="352.5" fill="#B2B2B2" width="13.8" height="0.3"/>
	<rect x="27" y="355.3" fill="#B2B2B2" width="13.8" height="0.3"/>
	<rect x="27" y="358.2" fill="#B2B2B2" width="13.8" height="0.3"/>
	<rect x="27" y="361" fill="#B2B2B2" width="13.8" height="0.3"/>
	<rect x="27" y="363.8" fill="#B2B2B2" width="13.8" height="0.3"/>
	<rect x="27" y="366.7" fill="#B2B2B2" width="13.8" height="0.3"/>
	<rect x="27" y="369.5" fill="#B2B2B2" width="13.8" height="0.3"/>
	<rect x="27" y="372.4" fill="#B2B2B2" width="13.8" height="0.3"/>
	<rect x="27" y="375.2" fill="#B2B2B2" width="13.8" height="0.3"/>
	<rect x="27" y="378" fill="#B2B2B2" width="13.8" height="0.3"/>
	<rect x="27" y="380.9" fill="#B2B2B2" width="13.8" height="0.3"/>
	<rect x="27" y="383.7" fill="#B2B2B2" width="13.8" height="0.3"/>
	<rect x="27" y="386.5" fill="#B2B2B2" width="13.8" height="0.3"/>
	<rect x="27" y="389.4" fill="#B2B2B2" width="13.8" height="0.3"/>
	<rect x="27" y="392.2" fill="#B2B2B2" width="13.8" height="0.3"/>
	<rect x="27" y="395" fill="#B2B2B2" width="13.8" height="0.3"/>
	<rect x="27" y="397.9" fill="#B2B2B2" width="13.8" height="0.3"/>
	<rect x="27" y="400.7" fill="#B2B2B2" width="13.8" height="0.3"/>
	<rect x="27" y="403.5" fill="#B2B2B2" width="13.8" height="0.3"/>
	<rect x="27" y="406.4" fill="#B2B2B2" width="13.8" height="0.3"/>
	<rect x="27" y="409.2" fill="#B2B2B2" width="13.8" height="0.3"/>
	<rect x="27" y="412" fill="#B2B2B2" width="13.8" height="0.3"/>
	<rect x="27" y="414.9" fill="#B2B2B2" width="13.8" height="0.3"/>
	<rect x="27" y="417.7" fill="#B2B2B2" width="13.8" height="0.3"/>
	<rect x="27" y="420.5" fill="#B2B2B2" width="13.8" height="0.3"/>
	<rect x="27" y="423.4" fill="#B2B2B2" width="13.8" height="0.3"/>
	<rect x="27" y="426.2" fill="#B2B2B2" width="13.8" height="0.3"/>
	<rect x="27" y="429" fill="#B2B2B2" width="13.8" height="0.3"/>
	<rect x="27" y="431.9" fill="#B2B2B2" width="13.8" height="0.3"/>
	<rect x="27" y="434.7" fill="#B2B2B2" width="13.8" height="0.3"/>
	<rect x="27" y="437.5" fill="#B2B2B2" width="13.8" height="0.3"/>
	<rect x="27" y="440.4" fill="#B2B2B2" width="13.8" height="0.3"/>
	<rect x="27" y="443.2" fill="#B2B2B2" width="13.8" height="0.3"/>
	<rect x="27" y="446.1" fill="#B2B2B2" width="13.8" height="0.3"/>
	<rect x="27" y="448.9" fill="#B2B2B2" width="13.8" height="0.3"/>
	<rect x="27" y="451.7" fill="#B2B2B2" width="13.8" height="0.3"/>
	<rect x="27" y="454.6" fill="#B2B2B2" width="13.8" height="0.3"/>
	<rect x="27" y="457.4" fill="#B2B2B2" width="13.8" height="0.3"/>
	<rect x="27" y="460.2" fill="#B2B2B2" width="13.8" height="0.3"/>
	<rect x="27" y="463.1" fill="#B2B2B2" width="13.8" height="0.3"/>
	<rect x="27" y="465.9" fill="#B2B2B2" width="13.8" height="0.3"/>
	<rect x="27" y="468.7" fill="#B2B2B2" width="13.8" height="0.3"/>
	<rect x="27" y="471.6" fill="#B2B2B2" width="13.8" height="0.3"/>
	<rect x="27" y="474.4" fill="#B2B2B2" width="13.8" height="0.3"/>
	<rect x="27" y="477.2" fill="#B2B2B2" width="13.8" height="0.3"/>
	<rect x="27" y="480.1" fill="#B2B2B2" width="13.8" height="0.3"/>
	<rect x="27" y="482.9" fill="#B2B2B2" width="13.8" height="0.3"/>
	<rect x="27" y="485.7" fill="#B2B2B2" width="13.8" height="0.3"/>
	<rect x="27" y="488.6" fill="#B2B2B2" width="13.8" height="0.3"/>
	<rect x="27" y="491.4" fill="#B2B2B2" width="13.8" height="0.3"/>
	<rect x="27" y="494.2" fill="#B2B2B2" width="13.8" height="0.3"/>
	<rect x="27" y="497.1" fill="#B2B2B2" width="13.8" height="0.3"/>
	<rect x="27" y="499.9" fill="#B2B2B2" width="13.8" height="0.3"/>
	<rect x="27" y="502.7" fill="#B2B2B2" width="13.8" height="0.3"/>
	<rect x="27" y="505.6" fill="#B2B2B2" width="13.8" height="0.3"/>
	<rect x="27" y="508.4" fill="#B2B2B2" width="13.8" height="0.3"/>
	<rect x="27" y="511.2" fill="#B2B2B2" width="13.8" height="0.3"/>
	<rect x="27" y="514.1" fill="#B2B2B2" width="13.8" height="0.3"/>
	<rect x="27" y="516.9" fill="#B2B2B2" width="13.8" height="0.3"/>
	<rect x="27" y="519.8" fill="#B2B2B2" width="13.8" height="0.3"/>
	<rect x="27" y="522.6" fill="#B2B2B2" width="13.8" height="0.3"/>
	<rect x="27" y="525.4" fill="#B2B2B2" width="13.8" height="0.3"/>
	<rect x="27" y="528.3" fill="#B2B2B2" width="13.8" height="0.3"/>
	<rect x="27" y="531.1" fill="#B2B2B2" width="13.8" height="0.3"/>
	<rect x="27" y="533.9" fill="#B2B2B2" width="13.8" height="0.3"/>
	<rect x="27" y="536.8" fill="#B2B2B2" width="13.8" height="0.3"/>
	<rect x="27" y="539.6" fill="#B2B2B2" width="13.8" height="0.3"/>
	<rect x="27" y="542.4" fill="#B2B2B2" width="13.8" height="0.3"/>
	<rect x="27" y="545.3" fill="#B2B2B2" width="13.8" height="0.3"/>
	<rect x="27" y="548.1" fill="#B2B2B2" width="13.8" height="0.3"/>
	<rect x="27" y="550.9" fill="#B2B2B2" width="13.8" height="0.3"/>
	<rect x="27" y="553.8" fill="#B2B2B2" width="13.8" height="0.3"/>
	<rect x="27" y="556.6" fill="#B2B2B2" width="13.8" height="0.3"/>
	<rect x="27" y="559.4" fill="#B2B2B2" width="13.8" height="0.3"/>
	<rect x="27" y="562.3" fill="#B2B2B2" width="13.8" height="0.3"/>
	<rect x="27" y="565.1" fill="#B2B2B2" width="13.8" height="0.3"/>
	<rect x="27" y="567.9" fill="#B2B2B2" width="13.8" height="0.3"/>
	<rect x="27" y="570.8" fill="#B2B2B2" width="13.8" height="0.3"/>
	<rect x="27" y="573.6" fill="#B2B2B2" width="13.8" height="0.3"/>
	<rect x="27" y="576.4" fill="#B2B2B2" width="13.8" height="0.3"/>
	<rect x="27" y="579.3" fill="#B2B2B2" width="13.8" height="0.3"/>
	<rect x="27" y="582.1" fill="#B2B2B2" width="13.8" height="0.3"/>
	<rect x="27" y="584.9" fill="#B2B2B2" width="13.8" height="0.3"/>
	<rect x="27" y="587.8" fill="#B2B2B2" width="13.8" height="0.3"/>
	<rect x="27" y="590.6" fill="#B2B2B2" width="13.8" height="0.3"/>
	<rect x="27" y="593.5" fill="#B2B2B2" width="13.8" height="0.3"/>
	<rect x="27" y="596.3" fill="#B2B2B2" width="13.8" height="0.3"/>
	<rect x="27" y="599.1" fill="#B2B2B2" width="13.8" height="0.3"/>
	<rect x="27" y="602" fill="#B2B2B2" width="13.8" height="0.3"/>
	<rect x="27" y="604.8" fill="#B2B2B2" width="13.8" height="0.3"/>
	<rect x="27" y="607.6" fill="#B2B2B2" width="13.8" height="0.3"/>
	<rect x="27" y="610.5" fill="#B2B2B2" width="13.8" height="0.3"/>
	<rect x="27" y="613.3" fill="#B2B2B2" width="13.8" height="0.3"/>
	<rect x="27" y="616.1" fill="#B2B2B2" width="13.8" height="0.3"/>
	<rect x="27" y="619" fill="#B2B2B2" width="13.8" height="0.3"/>
	<rect x="27" y="621.8" fill="#B2B2B2" width="13.8" height="0.3"/>
	<rect x="27" y="624.6" fill="#B2B2B2" width="13.8" height="0.3"/>
	<rect x="27" y="627.5" fill="#B2B2B2" width="13.8" height="0.3"/>
	<rect x="27" y="630.3" fill="#B2B2B2" width="13.8" height="0.3"/>
	<rect x="27" y="633.1" fill="#B2B2B2" width="13.8" height="0.3"/>
	<rect x="27" y="636" fill="#B2B2B2" width="13.8" height="0.3"/>
	<rect x="27" y="638.8" fill="#B2B2B2" width="13.8" height="0.3"/>
	<rect x="27" y="641.6" fill="#B2B2B2" width="13.8" height="0.3"/>
	<rect x="27" y="644.5" fill="#B2B2B2" width="13.8" height="0.3"/>
	<rect x="27" y="647.3" fill="#B2B2B2" width="13.8" height="0.3"/>
	<rect x="27" y="650.1" fill="#B2B2B2" width="13.8" height="0.3"/>
	<rect x="27" y="653" fill="#B2B2B2" width="13.8" height="0.3"/>
	<rect x="27" y="655.8" fill="#B2B2B2" width="13.8" height="0.3"/>
	<rect x="27" y="658.7" fill="#B2B2B2" width="13.8" height="0.3"/>
	<rect x="27" y="661.5" fill="#B2B2B2" width="13.8" height="0.3"/>
	<rect x="27" y="664.3" fill="#B2B2B2" width="13.8" height="0.3"/>
	<rect x="27" y="667.2" fill="#B2B2B2" width="13.8" height="0.3"/>
	<rect x="27" y="670" fill="#B2B2B2" width="13.8" height="0.3"/>
	<rect x="27" y="672.8" fill="#B2B2B2" width="13.8" height="0.3"/>
	<rect x="27" y="675.7" fill="#B2B2B2" width="13.8" height="0.3"/>
	<rect x="27" y="678.5" fill="#B2B2B2" width="13.8" height="0.3"/>
	<rect x="27" y="681.3" fill="#B2B2B2" width="13.8" height="0.3"/>
	<rect x="27" y="684.2" fill="#B2B2B2" width="13.8" height="0.3"/>
	<rect x="27" y="687" fill="#B2B2B2" width="13.8" height="0.3"/>
	<rect x="27" y="689.8" fill="#B2B2B2" width="13.8" height="0.3"/>
	<rect x="27" y="692.7" fill="#B2B2B2" width="13.8" height="0.3"/>
	<rect x="27" y="695.5" fill="#B2B2B2" width="13.8" height="0.3"/>
	<rect x="27" y="698.3" fill="#B2B2B2" width="13.8" height="0.3"/>
	<rect x="27" y="701.2" fill="#B2B2B2" width="13.8" height="0.3"/>
	<rect x="27" y="704" fill="#B2B2B2" width="13.8" height="0.3"/>
	<rect x="27" y="706.8" fill="#B2B2B2" width="13.8" height="0.3"/>
	<rect x="27" y="709.7" fill="#B2B2B2" width="13.8" height="0.3"/>
	<rect x="27" y="712.5" fill="#B2B2B2" width="13.8" height="0.3"/>
	<rect x="21.4" y="3.8" fill="#B2B2B2" width="19.4" height="0.3"/>
	<rect x="21.4" y="18" fill="#B2B2B2" width="19.4" height="0.3"/>
	<rect x="21.4" y="32.2" fill="#B2B2B2" width="19.4" height="0.3"/>
	<rect x="21.4" y="46.4" fill="#B2B2B2" width="19.4" height="0.3"/>
	<rect x="21.4" y="60.5" fill="#B2B2B2" width="19.4" height="0.3"/>
	<rect x="21.4" y="74.7" fill="#B2B2B2" width="19.4" height="0.3"/>
	<rect x="21.4" y="88.9" fill="#B2B2B2" width="19.4" height="0.3"/>
	<rect x="21.4" y="103.1" fill="#B2B2B2" width="19.4" height="0.3"/>
	<rect x="21.4" y="117.2" fill="#B2B2B2" width="19.4" height="0.3"/>
	<rect x="21.4" y="131.4" fill="#B2B2B2" width="19.4" height="0.3"/>
	<rect x="21.4" y="145.6" fill="#B2B2B2" width="19.4" height="0.3"/>
	<rect x="21.4" y="159.8" fill="#B2B2B2" width="19.4" height="0.3"/>
	<rect x="21.4" y="173.9" fill="#B2B2B2" width="19.4" height="0.3"/>
	<rect x="21.4" y="188.1" fill="#B2B2B2" width="19.4" height="0.3"/>
	<rect x="21.4" y="202.3" fill="#B2B2B2" width="19.4" height="0.3"/>
	<rect x="21.4" y="216.4" fill="#B2B2B2" width="19.4" height="0.3"/>
	<rect x="21.4" y="230.6" fill="#B2B2B2" width="19.4" height="0.3"/>
	<rect x="21.4" y="244.8" fill="#B2B2B2" width="19.4" height="0.3"/>
	<rect x="21.4" y="259" fill="#B2B2B2" width="19.4" height="0.3"/>
	<rect x="21.4" y="273.1" fill="#B2B2B2" width="19.4" height="0.3"/>
	<rect x="21.4" y="287.3" fill="#B2B2B2" width="19.4" height="0.3"/>
	<rect x="21.4" y="301.5" fill="#B2B2B2" width="19.4" height="0.3"/>
	<rect x="21.4" y="315.7" fill="#B2B2B2" width="19.4" height="0.3"/>
	<rect x="21.4" y="329.8" fill="#B2B2B2" width="19.4" height="0.3"/>
	<rect x="21.4" y="344" fill="#B2B2B2" width="19.4" height="0.3"/>
	<rect x="21.4" y="358.2" fill="#B2B2B2" width="19.4" height="0.3"/>
	<rect x="21.4" y="372.4" fill="#B2B2B2" width="19.4" height="0.3"/>
	<rect x="21.4" y="386.5" fill="#B2B2B2" width="19.4" height="0.3"/>
	<rect x="21.4" y="400.7" fill="#B2B2B2" width="19.4" height="0.3"/>
	<rect x="21.4" y="414.9" fill="#B2B2B2" width="19.4" height="0.3"/>
	<rect x="21.4" y="429" fill="#B2B2B2" width="19.4" height="0.3"/>
	<rect x="21.4" y="443.2" fill="#B2B2B2" width="19.4" height="0.3"/>
	<rect x="21.4" y="457.4" fill="#B2B2B2" width="19.4" height="0.3"/>
	<rect x="21.4" y="471.6" fill="#B2B2B2" width="19.4" height="0.3"/>
	<rect x="21.4" y="485.7" fill="#B2B2B2" width="19.4" height="0.3"/>
	<rect x="21.4" y="499.9" fill="#B2B2B2" width="19.4" height="0.3"/>
	<rect x="21.4" y="514.1" fill="#B2B2B2" width="19.4" height="0.3"/>
	<rect x="21.4" y="528.3" fill="#B2B2B2" width="19.4" height="0.3"/>
	<rect x="21.4" y="542.4" fill="#B2B2B2" width="19.4" height="0.3"/>
	<rect x="21.4" y="556.6" fill="#B2B2B2" width="19.4" height="0.3"/>
	<rect x="21.4" y="570.8" fill="#B2B2B2" width="19.4" height="0.3"/>
	<rect x="21.4" y="584.9" fill="#B2B2B2" width="19.4" height="0.3"/>
	<rect x="21.4" y="599.1" fill="#B2B2B2" width="19.4" height="0.3"/>
	<rect x="21.4" y="613.3" fill="#B2B2B2" width="19.4" height="0.3"/>
	<rect x="21.4" y="627.5" fill="#B2B2B2" width="19.4" height="0.3"/>
	<rect x="21.4" y="641.6" fill="#B2B2B2" width="19.4" height="0.3"/>
	<rect x="21.4" y="655.8" fill="#B2B2B2" width="19.4" height="0.3"/>
	<rect x="21.4" y="670" fill="#B2B2B2" width="19.4" height="0.3"/>
	<rect x="21.4" y="684.2" fill="#B2B2B2" width="19.4" height="0.3"/>
	<rect x="21.4" y="698.3" fill="#B2B2B2" width="19.4" height="0.3"/>
	<rect x="21.4" y="712.5" fill="#B2B2B2" width="19.4" height="0.3"/>
	<rect x="16" y="3.8" fill="#B2B2B2" width="24.8" height="0.3"/>
	<rect x="7.6" y="32.2" fill="#B2B2B2" width="33.2" height="0.3"/>
	<rect x="7.6" y="60.5" fill="#B2B2B2" width="33.2" height="0.3"/>
	<rect x="7.6" y="88.9" fill="#B2B2B2" width="33.2" height="0.3"/>
	<rect x="7.6" y="117.2" fill="#B2B2B2" width="33.2" height="0.3"/>
	<rect x="7.6" y="145.6" fill="#B2B2B2" width="33.2" height="0.3"/>
	<rect x="7.6" y="173.9" fill="#B2B2B2" width="33.2" height="0.3"/>
	<rect x="7.6" y="202.3" fill="#B2B2B2" width="33.2" height="0.3"/>
	<rect x="7.6" y="230.6" fill="#B2B2B2" width="33.2" height="0.3"/>
	<rect x="7.6" y="259" fill="#B2B2B2" width="33.2" height="0.3"/>
	<rect x="7.6" y="287.3" fill="#B2B2B2" width="33.2" height="0.3"/>
	<rect x="7.6" y="315.7" fill="#B2B2B2" width="33.2" height="0.3"/>
	<rect x="7.6" y="344" fill="#B2B2B2" width="33.2" height="0.3"/>
	<rect x="7.6" y="372.4" fill="#B2B2B2" width="33.2" height="0.3"/>
	<rect x="7.6" y="400.7" fill="#B2B2B2" width="33.2" height="0.3"/>
	<rect x="7.6" y="429" fill="#B2B2B2" width="33.2" height="0.3"/>
	<rect x="7.6" y="457.4" fill="#B2B2B2" width="33.2" height="0.3"/>
	<rect x="16" y="485.7" fill="#B2B2B2" width="24.8" height="0.3"/>
	<rect x="16" y="514.1" fill="#B2B2B2" width="24.8" height="0.3"/>
	<rect x="16" y="542.4" fill="#B2B2B2" width="24.8" height="0.3"/>
	<rect x="16" y="570.8" fill="#B2B2B2" width="24.8" height="0.3"/>
	<rect x="16" y="599.1" fill="#B2B2B2" width="24.8" height="0.3"/>
	<rect x="16" y="627.5" fill="#B2B2B2" width="24.8" height="0.3"/>
	<rect x="16" y="655.8" fill="#B2B2B2" width="24.8" height="0.3"/>
	<rect x="16" y="684.2" fill="#B2B2B2" width="24.8" height="0.3"/>
	<rect x="16" y="712.5" fill="#B2B2B2" width="24.8" height="0.3"/>
	<path fill="#B2B2B2" d="M2.1,63.9H0.9v-6.8c0.3,0,0.6,0,0.9,0.1c0.5,0.2,0.9,0.4,1.4,0.8c0.4,0.4,1,0.9,1.6,1.7
		C5.7,60.8,6.4,61.6,7,62c0.5,0.4,1,0.6,1.5,0.6s0.9-0.2,1.3-0.5s0.5-0.8,0.5-1.4s-0.2-1.1-0.5-1.5s-0.9-0.6-1.5-0.6l0.1-1.3
		c1,0.1,1.7,0.4,2.2,1s0.8,1.4,0.8,2.3c0,1-0.3,1.8-0.8,2.3c-0.5,0.6-1.2,0.9-2,0.9c-0.4,0-0.8-0.1-1.2-0.3
		c-0.4-0.2-0.8-0.4-1.3-0.8c-0.4-0.4-1-1-1.8-1.9C3.7,60,3.2,59.6,3,59.3c-0.2-0.2-0.5-0.4-0.7-0.5v5.1H2.1z"/>
	<path fill="#B2B2B2" d="M3.7,85.6l0.2,1.3c-0.7,0.1-1.2,0.4-1.5,0.7s-0.5,0.8-0.5,1.3c0,0.6,0.2,1.1,0.6,1.5S3.4,91,4,91
		s1.1-0.2,1.4-0.6C5.8,90,6,89.5,6,89c0-0.2,0-0.5-0.1-0.9L7,88.2c0,0.1,0,0.2,0,0.2c0,0.5,0.1,1,0.4,1.5c0.3,0.4,0.7,0.6,1.3,0.6
		c0.5,0,0.8-0.2,1.2-0.5c0.3-0.3,0.5-0.7,0.5-1.2s-0.2-0.9-0.5-1.2S9.1,87.1,8.5,87l0.2-1.3c0.8,0.2,1.5,0.5,2,1.1
		c0.5,0.5,0.7,1.2,0.7,2c0,0.6-0.1,1.1-0.4,1.6c-0.2,0.5-0.6,0.8-1,1.1c-0.4,0.2-0.9,0.4-1.3,0.4s-0.8-0.1-1.2-0.4
		c-0.4-0.2-0.7-0.6-0.9-1.1c-0.1,0.6-0.4,1.1-0.9,1.4c-0.4,0.3-1,0.5-1.7,0.5c-0.9,0-1.7-0.3-2.3-1c-0.6-0.7-0.9-1.5-0.9-2.5
		c0-0.9,0.3-1.7,0.8-2.2C2.1,86.1,2.8,85.7,3.7,85.6"/>
	<path fill="#B2B2B2" d="M4.5,118h4.6l-4.6-3.2V118z M0.9,118h2.5v-4.5h1.2l6.7,4.7v1H4.6v1.4H3.4v-1.4H0.9V118z"/>
	<path fill="#B2B2B2" d="M3.8,142.3l0.1,1.3c-0.6,0.1-1.1,0.3-1.5,0.7c-0.3,0.4-0.5,0.8-0.5,1.3c0,0.6,0.2,1.1,0.7,1.5
		s1.1,0.6,1.8,0.6c0.7,0,1.3-0.2,1.7-0.6c0.4-0.4,0.6-0.9,0.6-1.6c0-0.4-0.1-0.8-0.3-1.1c-0.2-0.3-0.4-0.6-0.7-0.8l0.2-1.2l5.3,1
		v5.1H10v-4.1l-2.8-0.6c0.4,0.6,0.6,1.3,0.6,1.9c0,0.9-0.3,1.7-0.9,2.3s-1.4,0.9-2.4,0.9c-0.9,0-1.7-0.3-2.4-0.8
		c-0.8-0.7-1.2-1.6-1.2-2.7c0-0.9,0.3-1.7,0.8-2.3C2.2,142.7,2.9,142.4,3.8,142.3"/>
	<path fill="#B2B2B2" d="M4.3,172.1c-0.4,0-0.9,0.1-1.2,0.3c-0.4,0.2-0.7,0.4-0.9,0.8s-0.3,0.7-0.3,1c0,0.5,0.2,1,0.6,1.4
		s1,0.6,1.8,0.6c0.7,0,1.3-0.2,1.7-0.6c0.4-0.4,0.6-0.9,0.6-1.4c0-0.6-0.2-1.1-0.6-1.5C5.5,172.3,5,172.1,4.3,172.1 M8.7,177.2
		l-0.1-1.3c0.5-0.1,0.9-0.3,1.1-0.5c0.4-0.3,0.5-0.8,0.5-1.3c0-0.4-0.1-0.8-0.3-1.1c-0.3-0.4-0.7-0.7-1.3-0.9s-1.3-0.3-2.4-0.4
		c0.5,0.3,0.8,0.7,1,1.1c0.2,0.4,0.3,0.9,0.3,1.4c0,0.8-0.3,1.6-0.9,2.1c-0.6,0.6-1.4,0.9-2.4,0.9c-0.6,0-1.2-0.1-1.8-0.4
		c-0.6-0.3-1-0.7-1.3-1.1c-0.3-0.5-0.4-1-0.4-1.7c0-1.1,0.4-1.9,1.2-2.6c0.8-0.7,2.1-1,3.8-1c2,0,3.4,0.4,4.3,1.1
		c0.8,0.6,1.2,1.5,1.2,2.6c0,0.8-0.2,1.5-0.7,2C10.2,176.8,9.5,177.1,8.7,177.2"/>
	<path fill="#B2B2B2" d="M9.9,199.1h1.2v6.7h-1c-0.7-0.7-1.6-1.3-2.8-1.9c-1.2-0.6-2.3-1.1-3.6-1.5c-0.9-0.3-1.8-0.4-2.8-0.5v-1.3
		c0.8,0,1.8,0.2,2.9,0.5s2.3,0.7,3.3,1.3c1.1,0.6,2,1.2,2.7,1.8v-5.1H9.9z"/>
	<path fill="#B2B2B2" d="M8.7,229c-0.5,0-0.9,0.2-1.2,0.5c-0.3,0.3-0.5,0.7-0.5,1.2s0.2,0.9,0.5,1.2c0.3,0.3,0.7,0.5,1.1,0.5
		c0.5,0,0.9-0.2,1.2-0.5c0.3-0.3,0.5-0.7,0.5-1.2s-0.2-0.9-0.5-1.2S9.1,229,8.7,229 M3.9,228.6c-0.4,0-0.7,0.1-1,0.3
		c-0.3,0.2-0.6,0.4-0.8,0.8c-0.2,0.3-0.3,0.7-0.3,1.1c0,0.6,0.2,1.1,0.6,1.5s0.9,0.6,1.5,0.6s1.1-0.2,1.5-0.6s0.6-0.9,0.6-1.5
		s-0.2-1.1-0.6-1.5C5,228.8,4.5,228.6,3.9,228.6 M6.6,229.3c0.2-0.5,0.5-0.9,0.8-1.2c0.4-0.3,0.8-0.4,1.3-0.4c0.7,0,1.4,0.3,1.9,0.8
		s0.8,1.3,0.8,2.1c0,0.9-0.3,1.6-0.8,2.2c-0.5,0.5-1.2,0.8-1.9,0.8c-0.5,0-0.9-0.1-1.2-0.4c-0.4-0.3-0.6-0.6-0.8-1.1
		c-0.2,0.6-0.5,1.1-1,1.4s-1,0.5-1.6,0.5c-0.9,0-1.6-0.3-2.2-0.9S1,231.7,1,230.6s0.3-1.8,0.9-2.5c0.6-0.6,1.4-0.9,2.2-0.9
		c0.7,0,1.2,0.2,1.7,0.5C6.1,228.2,6.4,228.7,6.6,229.3"/>
	<path fill="#B2B2B2" d="M7.9,261.1c0.7,0,1.3-0.2,1.7-0.6c0.4-0.4,0.6-0.9,0.6-1.4c0-0.6-0.2-1-0.7-1.5C9,257.2,8.4,257,7.7,257
		c-0.7,0-1.2,0.2-1.6,0.6c-0.4,0.4-0.6,0.9-0.6,1.5c0,0.6,0.2,1.1,0.6,1.4C6.6,260.9,7.2,261.1,7.9,261.1 M3.4,255.9l0.1,1.2
		c-0.6,0.1-1,0.3-1.2,0.6c-0.3,0.3-0.4,0.7-0.4,1.1c0,0.4,0.1,0.7,0.3,1c0.2,0.3,0.4,0.5,0.7,0.7s0.7,0.3,1.2,0.5
		c0.5,0.1,1,0.2,1.5,0.2c0.1,0,0.1,0,0.3,0c-0.4-0.3-0.7-0.6-1-1c-0.3-0.4-0.4-0.9-0.4-1.4c0-0.9,0.3-1.6,0.9-2.2
		c0.6-0.6,1.4-0.9,2.4-0.9s1.9,0.3,2.5,0.9c0.6,0.6,1,1.4,1,2.3c0,0.7-0.2,1.3-0.5,1.8c-0.4,0.6-0.9,1-1.5,1.3
		c-0.7,0.3-1.6,0.4-2.9,0.4S4,262.3,3.3,262c-0.8-0.3-1.4-0.7-1.8-1.3s-0.6-1.2-0.6-2s0.2-1.5,0.7-2C1.9,256.3,2.5,256,3.4,255.9"/>
	<path fill="#B2B2B2" d="M0.9,313.7v-1.3h8c-0.3-0.3-0.6-0.7-0.9-1.2s-0.5-0.9-0.7-1.3h1.2c0.3,0.7,0.7,1.3,1.2,1.9
		c0.5,0.5,0.9,0.9,1.4,1.1v0.8H0.9L0.9,313.7z"/>
	<path fill="#B2B2B2" d="M0.9,320.6v-1.3h8c-0.3-0.3-0.6-0.7-0.9-1.2s-0.5-0.9-0.7-1.3h1.2c0.3,0.7,0.7,1.3,1.2,1.9
		c0.5,0.6,0.9,0.9,1.4,1.1v0.8H0.9L0.9,320.6z"/>
	<path fill="#B2B2B2" d="M0.9,341.5v-1.3h8c-0.3-0.3-0.6-0.7-0.9-1.2s-0.5-0.9-0.7-1.3h1.2c0.3,0.7,0.7,1.3,1.2,1.9
		c0.5,0.5,0.9,0.9,1.4,1.1v0.8H0.9L0.9,341.5z"/>
	<path fill="#B2B2B2" d="M2.1,351.4H0.9v-6.8c0.3,0,0.6,0,0.9,0.1c0.5,0.2,0.9,0.5,1.4,0.8c0.4,0.4,1,0.9,1.6,1.7
		c0.9,1.1,1.6,1.9,2.2,2.3c0.5,0.4,1,0.6,1.5,0.6s0.9-0.2,1.3-0.5s0.5-0.8,0.5-1.4c0-0.6-0.2-1.1-0.5-1.5c-0.4-0.4-0.9-0.5-1.5-0.6
		l0.1-1.3c1,0.1,1.7,0.4,2.2,1c0.5,0.6,0.8,1.4,0.8,2.3c0,1-0.3,1.8-0.8,2.3c-0.5,0.6-1.2,0.9-2,0.9c-0.4,0-0.8-0.1-1.2-0.3
		c-0.4-0.2-0.8-0.4-1.3-0.8c-0.4-0.4-1-1-1.8-1.9c-0.6-0.8-1.1-1.2-1.3-1.5c-0.2-0.2-0.5-0.4-0.7-0.5v5.1H2.1z"/>
	<path fill="#B2B2B2" d="M1,369.9v-1.3h8c-0.3-0.3-0.6-0.7-0.9-1.2s-0.5-0.9-0.7-1.3h1.2c0.3,0.7,0.7,1.3,1.2,1.9
		c0.5,0.5,0.9,0.9,1.4,1.1v0.8H1L1,369.9z"/>
	<path fill="#B2B2B2" d="M3.7,373.1l0.2,1.3c-0.7,0.1-1.2,0.4-1.5,0.7s-0.5,0.8-0.5,1.3c0,0.6,0.2,1.1,0.6,1.5
		c0.4,0.4,0.9,0.6,1.5,0.6s1.1-0.2,1.4-0.6c0.4-0.4,0.6-0.9,0.6-1.4c0-0.2,0-0.5-0.1-0.9l1.1,0.1c0,0.1,0,0.2,0,0.2
		c0,0.5,0.1,1,0.4,1.5c0.3,0.4,0.7,0.6,1.3,0.6c0.5,0,0.8-0.2,1.2-0.5c0.3-0.3,0.5-0.7,0.5-1.2s-0.2-0.9-0.5-1.2
		c-0.3-0.3-0.8-0.5-1.4-0.6l0.2-1.3c0.8,0.2,1.5,0.5,2,1.1c0.5,0.5,0.7,1.2,0.7,2c0,0.6-0.1,1.1-0.4,1.5c-0.2,0.5-0.6,0.8-1,1.1
		c-0.4,0.2-0.9,0.4-1.3,0.4s-0.8-0.1-1.2-0.4c-0.4-0.2-0.7-0.6-0.9-1.1c-0.1,0.6-0.4,1.1-0.9,1.4c-0.4,0.3-1,0.5-1.7,0.5
		c-0.9,0-1.7-0.3-2.3-1c-0.6-0.7-0.9-1.5-0.9-2.5c0-0.9,0.3-1.7,0.8-2.2C2.1,373.5,2.8,373.2,3.7,373.1"/>
	<path fill="#B2B2B2" d="M0.9,398.2v-1.3h8c-0.3-0.3-0.6-0.7-0.9-1.2s-0.5-0.9-0.7-1.3h1.2c0.3,0.7,0.7,1.3,1.2,1.9
		c0.5,0.5,0.9,0.9,1.4,1.1v0.8H0.9L0.9,398.2z"/>
	<path fill="#B2B2B2" d="M4.5,405.5h4.6l-4.6-3.2V405.5z M0.9,405.5h2.5V401h1.2l6.7,4.7v1H4.6v1.4H3.4v-1.4H0.9V405.5z"/>
	<path fill="#B2B2B2" d="M1,426.5v-1.3h8c-0.3-0.3-0.6-0.7-0.9-1.2s-0.5-0.9-0.7-1.3h1.2c0.3,0.7,0.7,1.3,1.2,1.9
		c0.5,0.5,0.9,0.9,1.4,1.1v0.8H1L1,426.5z"/>
	<path fill="#B2B2B2" d="M3.7,429.8l0.1,1.3c-0.6,0.1-1.1,0.3-1.5,0.7c-0.3,0.4-0.5,0.8-0.5,1.3c0,0.6,0.2,1.1,0.7,1.5
		c0.5,0.4,1.1,0.6,1.8,0.6c0.7,0,1.3-0.2,1.7-0.6c0.4-0.4,0.6-0.9,0.6-1.6c0-0.4-0.1-0.8-0.3-1.1c-0.2-0.3-0.4-0.6-0.7-0.8l0.2-1.2
		l5.3,1v5.1H9.9v-4.1l-2.8-0.6c0.4,0.6,0.6,1.3,0.6,1.9c0,0.9-0.3,1.7-0.9,2.3c-0.6,0.6-1.4,0.9-2.4,0.9c-0.9,0-1.7-0.3-2.4-0.8
		c-0.8-0.7-1.2-1.6-1.2-2.7c0-0.9,0.3-1.7,0.8-2.3C2.1,430.2,2.8,429.9,3.7,429.8"/>
	<path fill="#B2B2B2" d="M1,454.9v-1.3h8c-0.3-0.3-0.6-0.7-0.9-1.2s-0.5-0.9-0.7-1.3h1.2c0.3,0.7,0.7,1.3,1.2,1.9
		c0.5,0.5,0.9,0.9,1.4,1.1v0.8H1L1,454.9z"/>
	<path fill="#B2B2B2" d="M4.3,459.5c-0.4,0-0.9,0.1-1.2,0.3c-0.4,0.2-0.7,0.4-0.9,0.8c-0.2,0.4-0.3,0.7-0.3,1c0,0.5,0.2,1,0.6,1.4
		c0.4,0.4,1,0.6,1.8,0.6c0.7,0,1.3-0.2,1.7-0.6c0.4-0.4,0.6-0.9,0.6-1.4c0-0.6-0.2-1.1-0.6-1.5C5.5,459.7,5,459.5,4.3,459.5
		 M8.7,464.7l-0.1-1.3c0.5-0.1,0.9-0.3,1.1-0.5c0.4-0.3,0.5-0.8,0.5-1.3c0-0.4-0.1-0.8-0.3-1.1c-0.3-0.4-0.7-0.7-1.3-0.9
		c-0.6-0.2-1.3-0.3-2.4-0.4c0.5,0.3,0.8,0.7,1,1.1c0.2,0.4,0.3,0.9,0.3,1.4c0,0.8-0.3,1.6-0.9,2.2c-0.6,0.6-1.4,0.9-2.4,0.9
		c-0.6,0-1.2-0.1-1.8-0.4c-0.6-0.3-1-0.7-1.3-1.1c-0.3-0.5-0.4-1-0.4-1.7c0-1.1,0.4-1.9,1.2-2.6c0.8-0.7,2.1-1,3.8-1
		c2,0,3.4,0.4,4.3,1.1c0.8,0.6,1.2,1.5,1.2,2.6c0,0.8-0.2,1.5-0.7,2C10.2,464.3,9.5,464.6,8.7,464.7"/>
	<path fill="#B2B2B2" d="M0.9,483.2v-1.3h8c-0.3-0.3-0.6-0.7-0.9-1.2s-0.5-0.9-0.7-1.3h1.2c0.3,0.7,0.7,1.3,1.2,1.9
		c0.5,0.5,0.9,0.9,1.4,1.1v0.8H0.9z"/>
	<path fill="#B2B2B2" d="M9.8,486.6H11v6.7h-1c-0.7-0.7-1.6-1.3-2.8-1.9c-1.2-0.6-2.3-1.1-3.6-1.5c-0.9-0.3-1.8-0.4-2.8-0.5v-1.3
		c0.8,0,1.8,0.2,2.9,0.5s2.3,0.7,3.3,1.3c1.1,0.6,2,1.2,2.7,1.8v-5.1H9.8z"/>
	<path fill="#B2B2B2" d="M1,511.6v-1.3h8c-0.3-0.3-0.6-0.7-0.9-1.2s-0.5-0.9-0.7-1.3h1.2c0.3,0.7,0.7,1.3,1.2,1.9s0.9,0.9,1.4,1.1
		v0.8H1z"/>
	<path fill="#B2B2B2" d="M8.7,516.5c-0.5,0-0.9,0.2-1.2,0.5c-0.3,0.3-0.5,0.7-0.5,1.2s0.2,0.9,0.5,1.2s0.7,0.5,1.1,0.5
		c0.5,0,0.9-0.2,1.2-0.5c0.3-0.3,0.5-0.7,0.5-1.2s-0.2-0.9-0.5-1.2C9.5,516.7,9.1,516.5,8.7,516.5 M3.9,516.1c-0.4,0-0.7,0.1-1,0.3
		s-0.6,0.4-0.8,0.8c-0.2,0.3-0.3,0.7-0.3,1.1c0,0.6,0.2,1.1,0.6,1.5s0.9,0.6,1.5,0.6s1.1-0.2,1.5-0.6c0.4-0.4,0.6-0.9,0.6-1.5
		s-0.2-1.1-0.6-1.5C5,516.3,4.5,516.1,3.9,516.1 M6.6,516.8c0.2-0.5,0.5-0.9,0.8-1.2c0.4-0.3,0.8-0.4,1.3-0.4c0.7,0,1.4,0.3,1.9,0.8
		s0.8,1.3,0.8,2.1c0,0.9-0.3,1.6-0.8,2.2c-0.5,0.5-1.2,0.8-1.9,0.8c-0.5,0-0.9-0.1-1.2-0.4c-0.4-0.2-0.6-0.6-0.8-1.1
		c-0.2,0.6-0.5,1.1-1,1.4c-0.5,0.3-1,0.5-1.6,0.5c-0.9,0-1.6-0.3-2.2-0.9C1.3,520,1,519.2,1,518.1s0.3-1.8,0.9-2.5
		c0.6-0.6,1.4-0.9,2.2-0.9c0.7,0,1.2,0.2,1.7,0.5C6.1,515.7,6.4,516.1,6.6,516.8"/>
	<path fill="#B2B2B2" d="M1,539.9v-1.2h8c-0.3-0.3-0.6-0.7-0.9-1.2s-0.5-0.9-0.7-1.3h1.2c0.3,0.7,0.7,1.3,1.2,1.9s0.9,0.9,1.4,1.1
		v0.8H1V539.9z"/>
	<path fill="#B2B2B2" d="M7.9,548.5c0.7,0,1.3-0.2,1.7-0.6c0.4-0.4,0.6-0.8,0.6-1.4c0-0.6-0.2-1-0.7-1.5c-0.5-0.4-1.1-0.6-1.8-0.6
		c-0.7,0-1.2,0.2-1.6,0.6c-0.4,0.4-0.6,0.9-0.6,1.5s0.2,1.1,0.6,1.4C6.6,548.3,7.2,548.5,7.9,548.5 M3.4,543.4l0.1,1.2
		c-0.6,0.1-1,0.3-1.2,0.6c-0.3,0.3-0.4,0.7-0.4,1.1c0,0.4,0.1,0.7,0.3,1c0.2,0.3,0.4,0.5,0.7,0.7s0.7,0.3,1.2,0.5s1,0.2,1.5,0.2
		c0.1,0,0.1,0,0.3,0c-0.4-0.3-0.7-0.6-1-1c-0.2-0.4-0.4-0.9-0.4-1.4c0-0.9,0.3-1.6,0.9-2.2c0.6-0.6,1.4-0.9,2.4-0.9s1.9,0.3,2.5,0.9
		c0.6,0.6,1,1.4,1,2.3c0,0.7-0.2,1.3-0.5,1.8c-0.4,0.6-0.9,1-1.5,1.3c-0.7,0.3-1.6,0.4-2.9,0.4s-2.4-0.1-3.1-0.4
		c-0.8-0.3-1.4-0.7-1.8-1.3s-0.6-1.2-0.6-2s0.2-1.5,0.7-2C1.9,543.8,2.5,543.5,3.4,543.4"/>
	<path fill="#B2B2B2" d="M2.3,570.1H0.2V562c0.8,0.1,1.6,0.3,2.3,0.8c0.7,0.4,1.7,1.3,2.9,2.6c1,1,1.6,1.7,2,1.9
		c0.5,0.3,0.9,0.5,1.4,0.5s0.9-0.1,1.2-0.4c0.3-0.3,0.4-0.7,0.4-1.1c0-0.5-0.1-0.9-0.4-1.1c-0.3-0.3-0.8-0.4-1.4-0.5l0.2-2.3
		c1.3,0.1,2.2,0.6,2.7,1.3c0.6,0.7,0.8,1.6,0.8,2.7c0,1.2-0.3,2.1-1,2.8s-1.4,1-2.4,1c-0.5,0-1.1-0.1-1.5-0.3
		c-0.5-0.2-1-0.5-1.5-0.9c-0.4-0.3-0.9-0.8-1.5-1.5c-0.7-0.7-1.1-1.2-1.3-1.4c-0.2-0.2-0.4-0.3-0.6-0.5v4.5H2.3z"/>
	<path fill="#B2B2B2" d="M10.3,575.5c0-0.3-0.1-0.5-0.3-0.7c-0.2-0.2-0.5-0.4-1-0.5c-0.6-0.2-1.6-0.2-3-0.2s-2.4,0.1-2.9,0.2
		c-0.5,0.1-0.9,0.3-1.1,0.5s-0.3,0.5-0.3,0.7c0,0.3,0.1,0.5,0.3,0.7c0.2,0.2,0.5,0.4,1,0.5c0.6,0.2,1.6,0.2,3,0.2s2.4-0.1,2.9-0.2
		c0.5-0.1,0.9-0.3,1.1-0.5C10.2,576,10.3,575.8,10.3,575.5 M12.2,575.5c0,1.2-0.4,2.1-1.2,2.7c-1,0.8-2.6,1.2-4.9,1.2
		s-3.9-0.4-4.9-1.2c-0.8-0.6-1.2-1.6-1.2-2.7c0-1.2,0.4-2.1,1.3-2.8s2.5-1.1,4.8-1.1s3.9,0.4,4.9,1.2
		C11.8,573.4,12.2,574.4,12.2,575.5"/>
	<path fill="#B2B2B2" d="M0.1,284.7v-2.3h8.7c-0.8-0.8-1.4-1.8-1.7-3h2.1c0.2,0.6,0.6,1.3,1.1,2s1.2,1.2,1.9,1.5v1.9L0.1,284.7
		L0.1,284.7z"/>
	<path fill="#B2B2B2" d="M10.3,292.1c0-0.3-0.1-0.5-0.3-0.7c-0.2-0.2-0.5-0.4-1-0.5c-0.6-0.2-1.6-0.2-3-0.2s-2.4,0.1-2.9,0.2
		c-0.5,0.1-0.9,0.3-1.1,0.5s-0.3,0.5-0.3,0.7c0,0.3,0.1,0.5,0.3,0.7c0.2,0.2,0.5,0.4,1,0.5c0.6,0.2,1.6,0.2,3,0.2s2.4-0.1,2.9-0.2
		c0.5-0.1,0.9-0.3,1.1-0.5C10.2,292.6,10.3,292.3,10.3,292.1 M12.2,292.1c0,1.2-0.4,2.1-1.2,2.7c-1,0.8-2.6,1.2-4.9,1.2
		s-3.9-0.4-4.9-1.2c-0.8-0.6-1.2-1.6-1.2-2.7c0-1.2,0.4-2.1,1.3-2.8s2.5-1.1,4.8-1.1s3.9,0.4,4.9,1.2
		C11.8,290,12.2,290.9,12.2,292.1"/>
	<path fill="#B2B2B2" d="M10.3,3.9c0-0.3-0.1-0.5-0.3-0.7S9.5,2.8,9,2.7C8.4,2.5,7.4,2.5,6,2.5S3.6,2.6,3.1,2.7C2.6,2.8,2.2,3,2,3.2
		S1.7,3.7,1.7,3.9c0,0.3,0.1,0.5,0.3,0.7C2.2,4.8,2.5,5,3,5.1c0.6,0.2,1.6,0.2,3,0.2s2.4-0.1,2.9-0.2C9.4,5,9.8,4.8,10,4.6
		S10.3,4.2,10.3,3.9 M12.2,3.9c0,1.2-0.4,2.1-1.2,2.7c-1,0.8-2.6,1.2-4.9,1.2S2.2,7.4,1.2,6.6C0.4,5.9,0,5,0,3.9
		c0-1.2,0.4-2.1,1.3-2.8S3.8,0,6.1,0S10,0.4,11,1.2C11.8,1.9,12.2,2.8,12.2,3.9"/>
	<path fill="#B2B2B2" d="M2.1,598.5H0.9v-6.8c0.3,0,0.6,0,0.9,0.1c0.5,0.2,0.9,0.5,1.4,0.8s1,0.9,1.6,1.7c0.9,1.1,1.6,1.9,2.2,2.3
		c0.5,0.4,1,0.6,1.5,0.6s0.9-0.2,1.3-0.5s0.5-0.8,0.5-1.4c0-0.6-0.2-1.1-0.5-1.5c-0.4-0.4-0.9-0.5-1.5-0.6l0.1-1.3
		c1,0.1,1.7,0.4,2.2,1s0.8,1.4,0.8,2.3c0,1-0.3,1.8-0.8,2.3c-0.5,0.6-1.2,0.9-2,0.9c-0.4,0-0.8-0.1-1.2-0.3
		c-0.4-0.2-0.8-0.4-1.3-0.8c-0.4-0.4-1-1-1.8-1.9c-0.6-0.8-1.1-1.2-1.3-1.5c-0.2-0.2-0.5-0.4-0.7-0.5v5.1H2.1z"/>
	<path fill="#B2B2B2" d="M0.9,604.6v-1.3h8c-0.3-0.3-0.6-0.7-0.9-1.2s-0.5-0.9-0.7-1.3h1.2c0.3,0.7,0.7,1.3,1.2,1.9
		c0.5,0.5,0.9,0.9,1.4,1.1v0.8H0.9z"/>
	<path fill="#B2B2B2" d="M2.1,626.9H0.9v-6.8c0.3,0,0.6,0,0.9,0.1c0.5,0.2,0.9,0.5,1.4,0.8c0.4,0.4,1,0.9,1.6,1.7
		c0.9,1.1,1.6,1.9,2.2,2.3c0.5,0.4,1,0.6,1.5,0.6s0.9-0.2,1.3-0.5s0.5-0.8,0.5-1.4c0-0.6-0.2-1.1-0.5-1.5c-0.4-0.4-0.9-0.5-1.5-0.6
		l0.1-1.3c1,0.1,1.7,0.4,2.2,1s0.8,1.4,0.8,2.3c0,1-0.3,1.8-0.8,2.3s-1.2,0.9-2,0.9c-0.4,0-0.8-0.1-1.2-0.3
		c-0.4-0.2-0.8-0.4-1.3-0.8c-0.4-0.4-1-1-1.8-1.9c-0.6-0.8-1.1-1.2-1.3-1.5c-0.2-0.2-0.5-0.4-0.7-0.5v5.1H2.1z"/>
	<path fill="#B2B2B2" d="M2.1,634.8H0.9V628c0.3,0,0.6,0,0.9,0.1c0.5,0.2,0.9,0.5,1.4,0.8s1,0.9,1.6,1.7c0.9,1.1,1.6,1.9,2.2,2.3
		c0.5,0.4,1,0.6,1.5,0.6s0.9-0.2,1.3-0.5s0.5-0.8,0.5-1.4c0-0.6-0.2-1.1-0.5-1.5c-0.4-0.4-0.9-0.5-1.5-0.6l0.1-1.3
		c1,0.1,1.7,0.4,2.2,1s0.8,1.4,0.8,2.3c0,1-0.3,1.8-0.8,2.3c-0.5,0.6-1.2,0.9-2,0.9c-0.4,0-0.8-0.1-1.2-0.3
		c-0.4-0.2-0.8-0.4-1.3-0.8c-0.4-0.4-1-1-1.8-1.9c-0.6-0.8-1.1-1.2-1.3-1.5c-0.2-0.2-0.5-0.4-0.7-0.5v5.1H2.1z"/>
	<path fill="#B2B2B2" d="M2.2,655.2H1v-6.8c0.3,0,0.6,0,0.9,0.1c0.5,0.2,0.9,0.5,1.4,0.8c0.4,0.4,1,0.9,1.6,1.7
		c0.9,1.1,1.6,1.9,2.2,2.3c0.5,0.4,1,0.6,1.5,0.6s0.9-0.2,1.3-0.5s0.5-0.8,0.5-1.4c0-0.6-0.2-1.1-0.5-1.5c-0.4-0.4-0.9-0.5-1.5-0.6
		l0.1-1.3c1,0.1,1.7,0.4,2.2,1s0.8,1.4,0.8,2.3c0,1-0.3,1.8-0.8,2.3s-1.2,0.9-2,0.9c-0.4,0-0.8-0.1-1.2-0.3
		c-0.4-0.2-0.8-0.4-1.3-0.8c-0.4-0.4-1-1-1.8-1.9c-0.6-0.8-1.1-1.2-1.3-1.5c-0.2-0.2-0.5-0.4-0.7-0.5v5.1H2.2z"/>
	<path fill="#B2B2B2" d="M3.7,656.6l0.2,1.3c-0.7,0.1-1.2,0.4-1.5,0.7s-0.5,0.8-0.5,1.3c0,0.6,0.2,1.1,0.6,1.5S3.4,662,4,662
		s1.1-0.2,1.4-0.6C5.8,661,6,660.5,6,660c0-0.2,0-0.5-0.1-0.9l1.1,0.1c0,0.1,0,0.2,0,0.2c0,0.5,0.1,1,0.4,1.5
		c0.3,0.4,0.7,0.6,1.3,0.6c0.5,0,0.8-0.2,1.2-0.5c0.3-0.3,0.5-0.7,0.5-1.2s-0.2-0.9-0.5-1.2s-0.8-0.5-1.4-0.6l0.2-1.3
		c0.8,0.2,1.5,0.5,2,1.1c0.5,0.5,0.7,1.2,0.7,2c0,0.6-0.1,1.1-0.4,1.6c-0.2,0.5-0.6,0.8-1,1.1c-0.4,0.2-0.9,0.4-1.3,0.4
		s-0.8-0.1-1.2-0.4c-0.4-0.2-0.7-0.6-0.9-1.1c-0.1,0.6-0.4,1.1-0.9,1.4c-0.4,0.3-1,0.5-1.7,0.5c-0.9,0-1.7-0.3-2.3-1
		c-0.6-0.7-0.9-1.5-0.9-2.5c0-0.9,0.3-1.7,0.8-2.2S2.8,656.6,3.7,656.6"/>
	<path fill="#B2B2B2" d="M2.1,683.5H0.9v-6.8c0.3,0,0.6,0,0.9,0.1c0.5,0.2,0.9,0.5,1.4,0.8c0.4,0.4,1,0.9,1.6,1.7
		c0.9,1.1,1.6,1.9,2.2,2.3c0.5,0.4,1,0.6,1.5,0.6s0.9-0.2,1.3-0.5s0.5-0.8,0.5-1.4c0-0.6-0.2-1.1-0.5-1.5c-0.4-0.4-0.9-0.5-1.5-0.6
		l0.1-1.3c1,0.1,1.7,0.4,2.2,1s0.8,1.4,0.8,2.3c0,1-0.3,1.8-0.8,2.3s-1.2,0.9-2,0.9c-0.4,0-0.8-0.1-1.2-0.3
		c-0.4-0.2-0.8-0.4-1.3-0.8c-0.4-0.4-1-1-1.8-1.9c-0.6-0.8-1.1-1.2-1.3-1.5c-0.2-0.2-0.5-0.4-0.7-0.5v5.1H2.1z"/>
	<path fill="#B2B2B2" d="M4.5,688.9h4.6l-4.6-3.2V688.9z M0.9,688.9h2.5v-4.5h1.2l6.7,4.7v1H4.6v1.4H3.4v-1.4H0.9V688.9z"/>
	<path fill="#B2B2B2" d="M2.2,711.9H1v-6.8c0.3,0,0.6,0,0.9,0.1c0.5,0.2,0.9,0.5,1.4,0.8s1,0.9,1.6,1.7c0.9,1.1,1.6,1.9,2.2,2.3
		c0.5,0.4,1,0.6,1.5,0.6s0.9-0.2,1.3-0.5s0.5-0.8,0.5-1.4c0-0.6-0.2-1.1-0.5-1.5c-0.4-0.4-0.9-0.5-1.5-0.6l0.1-1.3
		c1,0.1,1.7,0.4,2.2,1s0.8,1.4,0.8,2.3c0,1-0.3,1.8-0.8,2.3c-0.5,0.6-1.2,0.9-2,0.9c-0.4,0-0.8-0.1-1.2-0.3
		c-0.4-0.2-0.8-0.4-1.3-0.8c-0.4-0.4-1-1-1.8-1.9c-0.6-0.8-1.1-1.2-1.3-1.5c-0.2-0.2-0.5-0.4-0.7-0.5v5.1H2.2z"/>
	<path fill="#B2B2B2" d="M3.7,713.2l0.1,1.3c-0.6,0.1-1.1,0.3-1.5,0.7c-0.3,0.4-0.5,0.8-0.5,1.3c0,0.6,0.2,1.1,0.7,1.5
		s1.1,0.6,1.8,0.6c0.7,0,1.3-0.2,1.7-0.6c0.4-0.4,0.6-0.9,0.6-1.6c0-0.4-0.1-0.8-0.3-1.1c-0.2-0.3-0.4-0.6-0.7-0.8l0.2-1.2l5.3,1
		v5.1H9.9v-4.1l-2.8-0.6c0.4,0.6,0.6,1.3,0.6,1.9c0,0.9-0.3,1.7-0.9,2.3s-1.4,0.9-2.4,0.9c-0.9,0-1.7-0.3-2.4-0.8
		c-0.8-0.7-1.2-1.6-1.2-2.7c0-0.9,0.3-1.7,0.8-2.3C2.1,713.7,2.8,713.3,3.7,713.2"/>
	<path fill="#B2B2B2" d="M0.9,33.7v-1.3h8c-0.3-0.3-0.6-0.7-0.9-1.2s-0.5-0.9-0.7-1.3h1.2c0.3,0.7,0.7,1.3,1.2,1.9
		c0.5,0.5,0.9,0.9,1.4,1.1v0.8H0.9z"/>
</g>
</svg>
