<?xml version="1.0" encoding="utf-8"?>
<!-- Generator: Adobe Illustrator 26.2.1, SVG Export Plug-In . SVG Version: 6.00 Build 0)  -->
<svg version="1.1" id="Ebene_1" xmlns="http://www.w3.org/2000/svg" xmlns:xlink="http://www.w3.org/1999/xlink" x="0px" y="0px"
	 width="26.9px" height="27px" viewBox="0 0 26.9 27" enable-background="new 0 0 26.9 27" xml:space="preserve">
<path fill="none" stroke="#B2B1B1" stroke-width="0.3" stroke-miterlimit="10" d="M23.35,7.85"/>
<path fill="none" stroke="#B2B1B1" stroke-width="0.3" stroke-miterlimit="10" d="M20.85,9.05"/>
<path fill="none" stroke="#B2B1B1" stroke-width="0.3" stroke-miterlimit="10" d="M20.85,10.35"/>
<path fill="none" stroke="#B2B1B1" stroke-width="0.3" stroke-miterlimit="10" d="M20.85,11.55"/>
<path fill="none" stroke="#B2B1B1" stroke-width="0.3" stroke-miterlimit="10" d="M23.35,12.85"/>
<path fill="none" stroke="#B2B1B1" stroke-width="0.3" stroke-miterlimit="10" d="M23.35,14.05"/>
<path fill="none" stroke="#B2B1B1" stroke-width="0.3" stroke-miterlimit="10" d="M20.85,15.35"/>
<path fill="none" stroke="#B2B1B1" stroke-width="0.3" stroke-miterlimit="10" d="M20.85,17.85"/>
<path fill="none" stroke="#B2B1B1" stroke-width="0.3" stroke-miterlimit="10" d="M23.35,20.35"/>
<path fill="none" stroke="#B2B1B1" stroke-width="0.3" stroke-miterlimit="10" d="M3.95,12.85"/>
<path fill="none" stroke="#B2B1B1" stroke-width="0.3" stroke-miterlimit="10" d="M3.95,7.85"/>
<path fill="none" stroke="#B2B1B1" stroke-width="0.3" stroke-miterlimit="10" d="M3.95,20.35"/>
<path fill="none" stroke="#B2B1B1" stroke-width="0.3" stroke-miterlimit="10" d="M3.95,14.05"/>
<g>
	<path fill="none" stroke="#B2B1B1" stroke-width="0.3" stroke-miterlimit="10" d="M5.95,15.35"/>
	<path fill="none" stroke="#B2B1B1" stroke-width="0.3" stroke-miterlimit="10" d="M5.95,11.55"/>
	<path fill="none" stroke="#B2B1B1" stroke-width="0.3" stroke-miterlimit="10" d="M5.95,10.35"/>
	<path fill="none" stroke="#B2B1B1" stroke-width="0.3" stroke-miterlimit="10" d="M5.95,9.05"/>
	<line fill="none" stroke="#B2B1B1" stroke-width="0.3" stroke-miterlimit="10" x1="3.55" y1="19.55" x2="22.95" y2="19.55"/>
	<line fill="none" stroke="#B2B1B1" stroke-width="0.3" stroke-miterlimit="10" x1="3.55" y1="18.25" x2="18.45" y2="18.25"/>
	<line fill="none" stroke="#B2B1B1" stroke-width="0.3" stroke-miterlimit="10" x1="3.55" y1="17.05" x2="18.45" y2="17.05"/>
	<line fill="none" stroke="#B2B1B1" stroke-width="0.3" stroke-miterlimit="10" x1="3.55" y1="15.75" x2="18.45" y2="15.75"/>
	<line fill="none" stroke="#B2B1B1" stroke-width="0.3" stroke-miterlimit="10" x1="3.55" y1="14.45" x2="22.95" y2="14.45"/>
	<line fill="none" stroke="#B2B1B1" stroke-width="0.3" stroke-miterlimit="10" x1="3.55" y1="13.15" x2="22.95" y2="13.15"/>
	<line fill="none" stroke="#B2B1B1" stroke-width="0.3" stroke-miterlimit="10" x1="3.65" y1="11.95" x2="18.55" y2="11.95"/>
	<line fill="none" stroke="#B2B1B1" stroke-width="0.3" stroke-miterlimit="10" x1="3.55" y1="10.65" x2="22.95" y2="10.65"/>
	<line fill="none" stroke="#B2B1B1" stroke-width="0.3" stroke-miterlimit="10" x1="3.55" y1="9.35" x2="18.45" y2="9.35"/>
	<line fill="none" stroke="#B2B1B1" stroke-width="0.3" stroke-miterlimit="10" x1="3.55" y1="8.05" x2="18.45" y2="8.05"/>
	<line fill="none" stroke="#B2B1B1" stroke-width="0.3" stroke-miterlimit="10" x1="3.55" y1="6.85" x2="22.95" y2="6.85"/>
</g>
<polygon fill="none" stroke="#B2B2B2" stroke-width="0.5" stroke-miterlimit="10" points="0.25,0.55 0.25,26.55 0.25,26.75 
	0.45,26.75 26.45,26.75 26.65,26.75 26.65,26.55 26.65,0.55 26.65,0.25 26.45,0.25 0.45,0.25 0.25,0.25 "/>
</svg>
