<?xml version="1.0" encoding="utf-8"?>
<!-- Generator: Adobe Illustrator 26.2.1, SVG Export Plug-In . SVG Version: 6.00 Build 0)  -->
<svg version="1.1" id="Ebene_1" xmlns="http://www.w3.org/2000/svg" xmlns:xlink="http://www.w3.org/1999/xlink" x="0px" y="0px"
	 width="21.911px" height="24.01px" viewBox="0 0 21.911 24.01" enable-background="new 0 0 21.911 24.01" xml:space="preserve">
<path fill="#B2B1B1" d="M17.9,8.91L16,22.21c-0.1,0.4-0.4,0.7-0.8,0.6c-0.4-0.1-0.7-0.4-0.6-0.8l1.9-13.3c0.1-0.4,0.4-0.7,0.8-0.6
	C17.7,8.111,18,8.51,17.9,8.91 M11.1,23.01c-0.4,0-0.7-0.3-0.7-0.7l-0.1-13.5c0-0.4,0.3-0.7,0.7-0.7c0.4,0,0.7,0.3,0.7,0.7l0.1,13.5
	C11.8,22.71,11.5,23.01,11.1,23.01 M7,22.91c-0.4,0.1-0.8-0.2-0.8-0.6L4.1,9.01c-0.1-0.4,0.2-0.8,0.6-0.8c0.4-0.1,0.8,0.2,0.8,0.6
	l2.1,13.3C7.7,22.51,7.4,22.91,7,22.91 M20.8,6.51c-0.1-0.2-0.4-0.3-0.6-0.3l-18.5,0.1c-0.2,0-0.4,0.1-0.6,0.3
	c-0.1,0.2-0.2,0.4-0.2,0.6l3.1,16.1c0.1,0.4,0.4,0.6,0.7,0.6l12.5-0.1c0.4,0,0.7-0.3,0.7-0.6l2.9-16.2C21,6.91,21,6.71,20.8,6.51"/>
<path fill="none" stroke="#FFFFFF" stroke-width="0.021" d="M17.9,8.91L16,22.21c-0.1,0.4-0.4,0.7-0.8,0.6c-0.4-0.1-0.7-0.4-0.6-0.8
	l1.9-13.3c0.1-0.4,0.4-0.7,0.8-0.6C17.7,8.111,18,8.51,17.9,8.91z M11.1,23.01c-0.4,0-0.7-0.3-0.7-0.7l-0.1-13.5
	c0-0.4,0.3-0.7,0.7-0.7c0.4,0,0.7,0.3,0.7,0.7l0.1,13.5C11.8,22.71,11.5,23.01,11.1,23.01z M7,22.91c-0.4,0.1-0.8-0.2-0.8-0.6
	L4.1,9.01c-0.1-0.4,0.2-0.8,0.6-0.8c0.4-0.1,0.8,0.2,0.8,0.6l2.1,13.3C7.7,22.51,7.4,22.91,7,22.91z M20.8,6.51
	c-0.1-0.2-0.4-0.3-0.6-0.3l-18.5,0.1c-0.2,0-0.4,0.1-0.6,0.3c-0.1,0.2-0.2,0.4-0.2,0.6l3.1,16.1c0.1,0.4,0.4,0.6,0.7,0.6l12.5-0.1
	c0.4,0,0.7-0.3,0.7-0.6l2.9-16.2C21,6.91,21,6.71,20.8,6.51z"/>
<path fill="#B2B1B1" d="M8.1,1.91L8.1,1.91v-0.4h5.5v0.4H8.1z M21.9,3.311L21.9,3.311h-2v-1.2c0-0.1,0-0.2-0.1-0.2
	c-0.1-0.1-0.2-0.1-0.2-0.1h-4.5v-1.1c0-0.2-0.1-0.4-0.2-0.5s-0.3-0.2-0.5-0.2l-6.9,0.1c-0.2,0-0.4,0.1-0.5,0.2s-0.2,0.3-0.2,0.5v1.1
	H2.6c-0.1,0-0.2,0-0.2,0.1c-0.1,0.1-0.1,0.2-0.1,0.2v1.2H0.1v2.2l21.8-0.2L21.9,3.311z"/>
<path fill="none" stroke="#FFFFFF" stroke-width="0.021" d="M8.1,1.91L8.1,1.91v-0.4h5.5v0.4H8.1z M21.9,3.311L21.9,3.311h-2v-1.2
	c0-0.1,0-0.2-0.1-0.2c-0.1-0.1-0.2-0.1-0.2-0.1h-4.5v-1.1c0-0.2-0.1-0.4-0.2-0.5s-0.3-0.2-0.5-0.2l-6.9,0.1c-0.2,0-0.4,0.1-0.5,0.2
	s-0.2,0.3-0.2,0.5v1.1H2.6c-0.1,0-0.2,0-0.2,0.1c-0.1,0.1-0.1,0.2-0.1,0.2v1.2H0.1v2.2l21.8-0.2L21.9,3.311z"/>
<rect y="0.01" fill="none" width="21.9" height="24"/>
</svg>
