<?xml version="1.0" encoding="utf-8"?>
<!-- Generator: Adobe Illustrator 26.2.1, SVG Export Plug-In . SVG Version: 6.00 Build 0)  -->
<svg version="1.1" id="Ebene_1" xmlns="http://www.w3.org/2000/svg" xmlns:xlink="http://www.w3.org/1999/xlink" x="0px" y="0px"
	 width="164.938px" height="128.192px" viewBox="0 0 164.938 128.192" enable-background="new 0 0 164.938 128.192"
	 xml:space="preserve">
<g>
	<path fill="#F2E400" d="M31.078,115.745c-0.426,0.213-1.279,0.426-2.371,0.426c-2.53,0-4.435-1.598-4.435-4.542
		c0-2.809,1.905-4.714,4.688-4.714c1.119,0,1.825,0.24,2.131,0.4l-0.279,0.945c-0.44-0.213-1.066-0.372-1.812-0.372
		c-2.104,0-3.502,1.345-3.502,3.702c0,2.197,1.265,3.609,3.449,3.609c0.706,0,1.425-0.147,1.891-0.373L31.078,115.745z"/>
	<path fill="#F2E400" d="M36.354,111.27L36.354,111.27h1.185c1.239,0,2.024-0.679,2.024-1.704c0-1.159-0.839-1.665-2.064-1.678
		c-0.559,0-0.959,0.053-1.145,0.106V111.27z M35.195,107.182L35.195,107.182c0.586-0.12,1.425-0.186,2.224-0.186
		c1.239,0,2.038,0.226,2.597,0.732c0.453,0.399,0.706,1.012,0.706,1.704c0,1.186-0.746,1.972-1.691,2.292v0.039
		c0.692,0.24,1.105,0.88,1.318,1.811c0.293,1.252,0.506,2.118,0.693,2.464h-1.199c-0.147-0.252-0.346-1.025-0.599-2.144
		c-0.267-1.238-0.746-1.705-1.798-1.744h-1.092v3.888h-1.159V107.182z"/>
	<polygon fill="#62B12F" points="49.675,111.829 49.675,111.829 46.186,111.829 46.186,115.066 50.074,115.066 50.074,116.038 
		45.027,116.038 45.027,107.061 49.875,107.061 49.875,108.033 46.186,108.033 46.186,110.871 49.675,110.871 	"/>
	<path fill="#62B12F" d="M58.701,112.31L58.701,112.31l-0.856-2.584c-0.195-0.586-0.325-1.119-0.455-1.638h-0.025
		c-0.13,0.532-0.273,1.079-0.442,1.624l-0.856,2.598H58.701z M55.833,113.215L55.833,113.215l-0.908,2.823h-1.169l2.973-8.976h1.362
		l2.985,8.976h-1.207l-0.934-2.823H55.833z"/>
	<polygon fill="#A34E97" points="65.74,108.047 65.74,108.047 63.01,108.047 63.01,107.061 69.655,107.061 69.655,108.047 
		66.912,108.047 66.912,116.038 65.74,116.038 	"/>
	<polygon fill="#A34E97" points="74.479,107.062 74.479,107.062 74.479,116.038 73.32,116.038 73.32,107.062 	"/>
	<path fill="#007DC1" d="M81.061,116.038L81.061,116.038l-2.852-8.976h1.219l1.361,4.421c0.376,1.212,0.7,2.305,0.933,3.357h0.026
		c0.246-1.04,0.609-2.171,0.998-3.343l1.478-4.435h1.206l-3.125,8.976H81.061z"/>
	<polygon fill="#007DC1" points="93.914,111.829 93.914,111.829 90.425,111.829 90.425,115.066 94.314,115.066 94.314,116.038 
		89.266,116.038 89.266,107.061 94.114,107.061 94.114,108.033 90.425,108.033 90.425,110.871 93.914,110.871 	"/>
	<polygon fill="#1D1D1C" points="103.972,107.062 103.972,107.062 105.131,107.062 105.131,115.066 108.966,115.066 
		108.966,116.038 103.972,116.038 	"/>
	<path fill="#1D1D1C" d="M113.111,111.603c0,1.918,1.039,3.636,2.863,3.636c1.838,0,2.877-1.691,2.877-3.729
		c0-1.784-0.932-3.649-2.864-3.649C114.069,107.861,113.111,109.632,113.111,111.603 M120.076,111.457
		c0,3.089-1.878,4.728-4.169,4.728c-2.37,0-4.035-1.838-4.035-4.555c0-2.85,1.771-4.715,4.168-4.715
		C118.491,106.915,120.076,108.793,120.076,111.457"/>
	<path fill="#1D1D1C" d="M131.079,115.638L131.079,115.638c-0.519,0.187-1.545,0.493-2.757,0.493c-1.359,0-2.477-0.346-3.356-1.186
		c-0.772-0.745-1.252-1.944-1.252-3.342c0.013-2.677,1.851-4.635,4.861-4.635c1.039,0,1.851,0.227,2.238,0.413l-0.281,0.946
		c-0.479-0.213-1.078-0.387-1.984-0.387c-2.183,0-3.609,1.359-3.609,3.61c0,2.277,1.372,3.622,3.463,3.622
		c0.759,0,1.278-0.106,1.545-0.24v-2.677h-1.825v-0.932h2.957V115.638z"/>
	<path fill="#1D1D1C" d="M136.223,111.603c0,1.918,1.039,3.636,2.863,3.636c1.838,0,2.877-1.691,2.877-3.729
		c0-1.784-0.932-3.649-2.864-3.649C137.181,107.861,136.223,109.632,136.223,111.603 M143.188,111.457
		c0,3.089-1.878,4.728-4.169,4.728c-2.37,0-4.035-1.838-4.035-4.555c0-2.85,1.771-4.715,4.169-4.715
		C141.603,106.915,143.188,108.793,143.188,111.457"/>
	<polygon fill="#C999AB" points="50.035,123.446 50.035,123.446 50.638,123.446 50.638,127.609 52.633,127.609 52.633,128.115 
		50.035,128.115 	"/>
	<path fill="#C999AB" d="M56.172,125.809c0,0.997,0.54,1.891,1.489,1.891c0.956,0,1.497-0.879,1.497-1.939
		c0-0.929-0.485-1.899-1.49-1.899C56.671,123.862,56.172,124.784,56.172,125.809 M59.795,125.733c0,1.607-0.977,2.459-2.168,2.459
		c-1.233,0-2.099-0.956-2.099-2.369c0-1.483,0.921-2.452,2.168-2.452C58.971,123.371,59.795,124.347,59.795,125.733"/>
	<path fill="#C999AB" d="M63.952,125.636L63.952,125.636h0.616c0.644,0,1.053-0.354,1.053-0.887c0-0.603-0.436-0.866-1.074-0.873
		c-0.291,0-0.498,0.028-0.595,0.056V125.636z M63.349,123.509L63.349,123.509c0.305-0.062,0.741-0.097,1.157-0.097
		c0.644,0,1.06,0.118,1.351,0.381c0.235,0.208,0.367,0.527,0.367,0.887c0,0.617-0.388,1.025-0.88,1.191v0.021
		c0.36,0.125,0.575,0.457,0.686,0.942c0.152,0.652,0.263,1.102,0.36,1.282h-0.623c-0.077-0.132-0.181-0.534-0.312-1.115
		c-0.139-0.645-0.388-0.887-0.935-0.908h-0.568v2.023h-0.603V123.509z"/>
	<polygon fill="#C999AB" points="72.264,125.927 72.264,125.927 70.449,125.927 70.449,127.61 72.472,127.61 72.472,128.116 
		69.846,128.116 69.846,123.447 72.368,123.447 72.368,123.953 70.449,123.953 70.449,125.429 72.264,125.429 	"/>
	<path fill="#C999AB" d="M79.96,126.065c-0.035-0.651-0.076-1.434-0.069-2.015h-0.021c-0.159,0.547-0.353,1.128-0.589,1.773
		l-0.824,2.265h-0.457l-0.755-2.224c-0.222-0.658-0.409-1.26-0.541-1.814H76.69c-0.014,0.581-0.049,1.364-0.091,2.064l-0.124,2.002
		H75.9l0.325-4.669h0.769l0.797,2.258c0.194,0.575,0.353,1.087,0.471,1.572h0.021c0.118-0.47,0.284-0.983,0.492-1.572l0.831-2.258
		h0.769l0.291,4.669h-0.589L79.96,126.065z"/>
	<rect x="88.605" y="123.447" fill="#C999AB" width="0.602" height="4.669"/>
	<path fill="#C999AB" d="M93.633,125.753c0.132,0.035,0.298,0.049,0.499,0.049c0.727,0,1.171-0.353,1.171-0.998
		c0-0.616-0.436-0.914-1.101-0.914c-0.264,0-0.464,0.02-0.569,0.049V125.753z M93.031,123.502L93.031,123.502
		c0.291-0.048,0.672-0.09,1.157-0.09c0.596,0,1.032,0.138,1.309,0.388c0.257,0.221,0.408,0.561,0.408,0.976
		c0,0.423-0.124,0.755-0.36,0.998c-0.318,0.34-0.838,0.512-1.426,0.512c-0.181,0-0.347-0.006-0.486-0.041v1.87h-0.602V123.502z"/>
	<path fill="#C999AB" d="M99.403,127.382c0.27,0.166,0.665,0.305,1.081,0.305c0.616,0,0.976-0.326,0.976-0.797
		c0-0.436-0.249-0.686-0.879-0.928c-0.762-0.27-1.234-0.665-1.234-1.323c0-0.728,0.603-1.268,1.511-1.268
		c0.478,0,0.824,0.111,1.032,0.228l-0.166,0.492c-0.153-0.083-0.464-0.222-0.887-0.222c-0.637,0-0.88,0.382-0.88,0.7
		c0,0.437,0.284,0.651,0.929,0.901c0.789,0.305,1.191,0.686,1.191,1.372c0,0.72-0.533,1.343-1.635,1.343
		c-0.45,0-0.942-0.131-1.191-0.297L99.403,127.382z"/>
	<path fill="#C999AB" d="M106.275,123.446L106.275,123.446v2.764c0,1.046,0.464,1.489,1.088,1.489c0.692,0,1.135-0.456,1.135-1.489
		v-2.764h0.61v2.723c0,1.434-0.755,2.022-1.766,2.022c-0.956,0-1.677-0.547-1.677-1.995v-2.75H106.275z"/>
	<path fill="#C999AB" d="M116.859,126.065c-0.034-0.651-0.076-1.434-0.069-2.015h-0.021c-0.159,0.547-0.353,1.128-0.589,1.773
		l-0.824,2.265h-0.457l-0.755-2.224c-0.222-0.658-0.409-1.26-0.541-1.814h-0.013c-0.014,0.581-0.049,1.364-0.09,2.064l-0.125,2.002
		H112.8l0.326-4.669h0.769l0.796,2.258c0.194,0.575,0.353,1.087,0.471,1.572h0.021c0.118-0.47,0.284-0.983,0.492-1.572l0.831-2.258
		h0.769l0.291,4.669h-0.589L116.859,126.065z"/>
	<polygon fill="#FFB600" points="102.415,68.122 102.415,68.122 78.089,92.582 102.415,92.582 126.741,92.582 	"/>
	<polygon fill="#D80E15" points="42.607,0.805 42.607,0.805 22.296,21.25 42.607,21.25 62.918,21.25 	"/>
	<polygon fill="#204999" points="66.933,65.884 96.42,65.884 102.669,59.596 135.451,92.583 164.938,92.583 102.669,29.924 	"/>
	<polygon fill="#6BC5D8" points="49.697,0 70.784,21.251 0,92.582 29.822,92.582 68.476,92.582 89.563,71.331 50.909,71.331 
		100.606,21.251 121.694,0 	"/>
</g>
</svg>
