<?xml version="1.0" encoding="utf-8"?>
<!-- Generator: Adobe Illustrator 26.2.1, SVG Export Plug-In . SVG Version: 6.00 Build 0)  -->
<svg version="1.1" id="Ebene_1" xmlns="http://www.w3.org/2000/svg" xmlns:xlink="http://www.w3.org/1999/xlink" x="0px" y="0px"
	 width="9px" height="11.7px" viewBox="0 0 9 11.7" enable-background="new 0 0 9 11.7" xml:space="preserve">
<path fill="#AD5E7A" d="M0,0v9h4.1v2.7h1V9H9V0H0z M7.4,6.5C7.4,6.6,7.4,6.6,7.4,6.5C6.6,7.3,5.6,7.6,4.6,7.4l0.1-0.8
	c0.7,0.1,1.5-0.1,2.1-0.7c0.5-0.5,0.7-1.3,0.6-2C7.2,3.2,6.7,2.6,6,2.3C5.3,2,4.5,2.1,3.8,2.6c-0.6,0.4-1,1.1-1,1.8l1.1-1L4.5,4
	l-2,2l-2-2l0.6-0.6l1,1c0-0.9,0.5-1.8,1.3-2.4s1.9-0.7,2.9-0.4c1,0.3,1.7,1.2,1.9,2.1C8.4,4.8,8.1,5.8,7.4,6.5z"/>
</svg>
