<?xml version="1.0" encoding="utf-8"?>
<!-- Generator: Adobe Illustrator 26.2.1, SVG Export Plug-In . SVG Version: 6.00 Build 0)  -->
<svg version="1.1" id="Ebene_1" xmlns="http://www.w3.org/2000/svg" xmlns:xlink="http://www.w3.org/1999/xlink" x="0px" y="0px"
	 width="19.7px" height="13.35px" viewBox="0 0 19.7 13.35" enable-background="new 0 0 19.7 13.35" xml:space="preserve">
<path fill="none" stroke="#B2B1B1" stroke-width="0.3" stroke-miterlimit="10" d="M0,12.5"/>
<path fill="none" stroke="#B2B1B1" stroke-width="0.3" stroke-miterlimit="10" d="M0,7.5"/>
<path fill="none" stroke="#B2B1B1" stroke-width="0.3" stroke-miterlimit="10" d="M0,6.3"/>
<path fill="none" stroke="#B2B1B1" stroke-width="0.3" stroke-miterlimit="10" d="M0,0"/>
<path fill="none" stroke="#B2B1B1" stroke-width="0.3" stroke-miterlimit="10" d="M17.4,5"/>
<path fill="none" stroke="#B2B1B1" stroke-width="0.3" stroke-miterlimit="10" d="M19.5,7.5"/>
<path fill="none" stroke="#B2B1B1" stroke-width="0.3" stroke-miterlimit="10" d="M17.4,8.8"/>
<path fill="none" stroke="#B2B1B1" stroke-width="0.3" stroke-miterlimit="10" d="M19.5,12.5"/>
<path fill="none" stroke="#B2B1B1" stroke-width="0.3" stroke-miterlimit="10" d="M19.5,0"/>
<path fill="none" stroke="#B2B1B1" stroke-width="0.3" stroke-miterlimit="10" d="M19.5,6.3"/>
<path fill="none" stroke="#B2B1B1" stroke-width="0.3" stroke-miterlimit="10" d="M17.4,10"/>
<path fill="none" stroke="#B2B1B1" stroke-width="0.3" stroke-miterlimit="10" d="M17.4,11.3"/>
<g>
	<path fill="none" stroke="#B2B1B1" stroke-width="0.3" stroke-miterlimit="10" d="M2.3,11"/>
	<path fill="none" stroke="#B2B1B1" stroke-width="0.3" stroke-miterlimit="10" d="M2.3,9.7"/>
	<path fill="none" stroke="#B2B1B1" stroke-width="0.3" stroke-miterlimit="10" d="M2.3,8.5"/>
	<path fill="none" stroke="#B2B1B1" stroke-width="0.3" stroke-miterlimit="10" d="M2.3,4.7"/>
	<path fill="none" stroke="#B2B1B1" stroke-width="0.3" stroke-miterlimit="10" d="M2.3,2.2"/>
	<line fill="none" stroke="#B2B1B1" stroke-width="0.3" stroke-miterlimit="10" x1="19.7" y1="0.5" x2="0.2" y2="0.5"/>
	<line fill="none" stroke="#B2B1B1" stroke-width="0.3" stroke-miterlimit="10" x1="19.7" y1="1.8" x2="4.8" y2="1.8"/>
	<line fill="none" stroke="#B2B1B1" stroke-width="0.3" stroke-miterlimit="10" x1="19.7" y1="3" x2="4.8" y2="3"/>
	<line fill="none" stroke="#B2B1B1" stroke-width="0.3" stroke-miterlimit="10" x1="19.7" y1="4.3" x2="4.8" y2="4.3"/>
	<line fill="none" stroke="#B2B1B1" stroke-width="0.3" stroke-miterlimit="10" x1="19.7" y1="5.6" x2="0.2" y2="5.6"/>
	<line fill="none" stroke="#B2B1B1" stroke-width="0.3" stroke-miterlimit="10" x1="19.7" y1="6.9" x2="0.2" y2="6.9"/>
	<line fill="none" stroke="#B2B1B1" stroke-width="0.3" stroke-miterlimit="10" x1="19.6" y1="8.1" x2="4.7" y2="8.1"/>
	<line fill="none" stroke="#B2B1B1" stroke-width="0.3" stroke-miterlimit="10" x1="19.7" y1="9.4" x2="0.2" y2="9.4"/>
	<line fill="none" stroke="#B2B1B1" stroke-width="0.3" stroke-miterlimit="10" x1="19.7" y1="10.7" x2="4.8" y2="10.7"/>
	<line fill="none" stroke="#B2B1B1" stroke-width="0.3" stroke-miterlimit="10" x1="19.7" y1="12" x2="4.8" y2="12"/>
	<line fill="none" stroke="#B2B1B1" stroke-width="0.3" stroke-miterlimit="10" x1="19.7" y1="13.2" x2="0.2" y2="13.2"/>
</g>
</svg>
