<?xml version="1.0" encoding="utf-8"?>
<!-- Generator: Adobe Illustrator 26.5.0, SVG Export Plug-In . SVG Version: 6.00 Build 0)  -->
<svg version="1.1" id="Ebene_1" xmlns="http://www.w3.org/2000/svg" xmlns:xlink="http://www.w3.org/1999/xlink" x="0px" y="0px"
	 width="27px" height="27px" viewBox="0 0 27 27" style="enable-background:new 0 0 27 27;" xml:space="preserve">
<polyline style="fill:none;stroke:#C5C5C5;stroke-width:3;stroke-linecap:round;stroke-linejoin:round;" points="1815.6,908.4 
	1809.4,899.4 1802.6,908.4 "/>
<circle style="fill:#FFAEFF;stroke:#4F4D4D;stroke-width:0.5;" cx="-176.3" cy="-54.3" r="12.8"/>
<rect x="-143.8" y="-65.4" style="fill:#F8F8F8;" width="119.9" height="21"/>
<polygon style="fill:#0E689A;" points="-33,-60.1 -46,-60.1 -39.6,-49.6 "/>
<g>
	<g>
		<line style="fill:none;stroke:#B2B1B1;stroke-width:0.65;stroke-miterlimit:10;" x1="80" y1="-47.8" x2="90.3" y2="-47.8"/>
		<g>
			<path style="fill:#B2B1B1;" d="M81.3-53.1v-5.2h1.3v5.1c0,2,0.9,2.9,2.6,2.9s2.6-0.9,2.6-2.9v-5.1H89v5.2c0,2.6-1.4,4-3.8,4
				C82.8-49,81.3-50.4,81.3-53.1z"/>
		</g>
	</g>
	<polygon style="fill:none;stroke:#B2B2B2;stroke-width:0.5;stroke-miterlimit:10;" points="71.9,-66 71.9,-40 71.9,-39.8 
		72.2,-39.8 98.2,-39.8 98.4,-39.8 98.4,-40 98.4,-66 98.4,-66.3 98.2,-66.3 72.2,-66.3 71.9,-66.3 	"/>
</g>
<g>
	<g>
		<path style="fill:#B2B1B1;" d="M50.6-58h1.3l-1.8,9.1h-1.3L50.6-58z"/>
	</g>
	<polygon style="fill:none;stroke:#B2B2B2;stroke-width:0.5;stroke-miterlimit:10;" points="37.1,-66.4 37.1,-40.4 37.1,-40.2 
		37.3,-40.2 63.3,-40.2 63.6,-40.2 63.6,-40.4 63.6,-66.4 63.6,-66.7 63.3,-66.7 37.3,-66.7 37.1,-66.7 	"/>
</g>
<g>
	<g>
		<path style="fill:#B2B1B1;" d="M17.4-51.3c0,1.6-1.2,2.5-3.6,2.5H9.1v-9.1h4.4c2.3,0,3.4,0.9,3.4,2.4c0,0.9-0.5,1.6-1.2,2
			C16.8-53.2,17.4-52.4,17.4-51.3z M11.2-56.3v2.1h2.1c1,0,1.6-0.4,1.6-1.1s-0.6-1.1-1.6-1.1L11.2-56.3L11.2-56.3z M15.3-51.5
			c0-0.8-0.6-1.1-1.7-1.1h-2.5v2.2h2.5C14.7-50.4,15.3-50.7,15.3-51.5z"/>
	</g>
	<polygon style="fill:none;stroke:#B2B2B2;stroke-width:0.5;stroke-miterlimit:10;" points="0,-66.4 0,-40.4 0,-40.1 0.2,-40.1 
		26.2,-40.1 26.5,-40.1 26.5,-40.4 26.5,-66.4 26.5,-66.6 26.2,-66.6 0.2,-66.6 0,-66.6 	"/>
</g>
<path style="fill:none;stroke:#B2B1B1;stroke-width:0.3;stroke-miterlimit:10;" d="M54.2-24.4"/>
<path style="fill:none;stroke:#B2B1B1;stroke-width:0.3;stroke-miterlimit:10;" d="M51.7-23.1"/>
<path style="fill:none;stroke:#B2B1B1;stroke-width:0.3;stroke-miterlimit:10;" d="M51.7-21.9"/>
<path style="fill:none;stroke:#B2B1B1;stroke-width:0.3;stroke-miterlimit:10;" d="M51.7-20.6"/>
<path style="fill:none;stroke:#B2B1B1;stroke-width:0.3;stroke-miterlimit:10;" d="M54.2-19.4"/>
<path style="fill:none;stroke:#B2B1B1;stroke-width:0.3;stroke-miterlimit:10;" d="M54.2-18.1"/>
<path style="fill:none;stroke:#B2B1B1;stroke-width:0.3;stroke-miterlimit:10;" d="M51.7-16.9"/>
<path style="fill:none;stroke:#B2B1B1;stroke-width:0.3;stroke-miterlimit:10;" d="M51.7-14.4"/>
<path style="fill:none;stroke:#B2B1B1;stroke-width:0.3;stroke-miterlimit:10;" d="M54.2-11.9"/>
<g>
	<path style="fill:none;stroke:#B2B1B1;stroke-width:0.3;stroke-miterlimit:10;" d="M34.7-19.4"/>
	<path style="fill:none;stroke:#B2B1B1;stroke-width:0.3;stroke-miterlimit:10;" d="M34.7-24.4"/>
	<path style="fill:none;stroke:#B2B1B1;stroke-width:0.3;stroke-miterlimit:10;" d="M34.7-11.9"/>
	<path style="fill:none;stroke:#B2B1B1;stroke-width:0.3;stroke-miterlimit:10;" d="M34.7-18.1"/>
	<g>
		<path style="fill:none;stroke:#B2B1B1;stroke-width:0.3;stroke-miterlimit:10;" d="M36.8-16.9"/>
		<path style="fill:none;stroke:#B2B1B1;stroke-width:0.3;stroke-miterlimit:10;" d="M36.8-20.6"/>
		<path style="fill:none;stroke:#B2B1B1;stroke-width:0.3;stroke-miterlimit:10;" d="M36.8-21.9"/>
		<path style="fill:none;stroke:#B2B1B1;stroke-width:0.3;stroke-miterlimit:10;" d="M36.8-23.1"/>
		<line style="fill:none;stroke:#B2B1B1;stroke-width:0.3;stroke-miterlimit:10;" x1="34.3" y1="-12.7" x2="53.8" y2="-12.7"/>
		<line style="fill:none;stroke:#B2B1B1;stroke-width:0.3;stroke-miterlimit:10;" x1="34.3" y1="-13.9" x2="49.2" y2="-13.9"/>
		<line style="fill:none;stroke:#B2B1B1;stroke-width:0.3;stroke-miterlimit:10;" x1="34.3" y1="-15.2" x2="49.2" y2="-15.2"/>
		<line style="fill:none;stroke:#B2B1B1;stroke-width:0.3;stroke-miterlimit:10;" x1="34.3" y1="-16.5" x2="49.2" y2="-16.5"/>
		<line style="fill:none;stroke:#B2B1B1;stroke-width:0.3;stroke-miterlimit:10;" x1="34.3" y1="-17.8" x2="53.8" y2="-17.8"/>
		<line style="fill:none;stroke:#B2B1B1;stroke-width:0.3;stroke-miterlimit:10;" x1="34.3" y1="-19" x2="53.8" y2="-19"/>
		<line style="fill:none;stroke:#B2B1B1;stroke-width:0.3;stroke-miterlimit:10;" x1="34.4" y1="-20.3" x2="49.3" y2="-20.3"/>
		<line style="fill:none;stroke:#B2B1B1;stroke-width:0.3;stroke-miterlimit:10;" x1="34.3" y1="-21.6" x2="53.8" y2="-21.6"/>
		<line style="fill:none;stroke:#B2B1B1;stroke-width:0.3;stroke-miterlimit:10;" x1="34.3" y1="-22.9" x2="49.2" y2="-22.9"/>
		<line style="fill:none;stroke:#B2B1B1;stroke-width:0.3;stroke-miterlimit:10;" x1="34.3" y1="-24.1" x2="49.2" y2="-24.1"/>
		<line style="fill:none;stroke:#B2B1B1;stroke-width:0.3;stroke-miterlimit:10;" x1="34.3" y1="-25.4" x2="53.8" y2="-25.4"/>
	</g>
	<polygon style="fill:none;stroke:#B2B2B2;stroke-width:0.5;stroke-miterlimit:10;" points="31,-31.7 31,-5.7 31,-5.5 31.3,-5.5 
		57.3,-5.5 57.5,-5.5 57.5,-5.7 57.5,-31.7 57.5,-32 57.3,-32 31.3,-32 31,-32 	"/>
</g>
<g>
	<g>
		<line style="fill:none;stroke:#B2B1B1;stroke-width:0.3;stroke-miterlimit:10;" x1="85.1" y1="-25.1" x2="65.6" y2="-25.1"/>
		<line style="fill:none;stroke:#B2B1B1;stroke-width:0.3;stroke-miterlimit:10;" x1="82.6" y1="-23.8" x2="67.7" y2="-23.8"/>
		<line style="fill:none;stroke:#B2B1B1;stroke-width:0.3;stroke-miterlimit:10;" x1="82.6" y1="-22.5" x2="67.7" y2="-22.5"/>
		<line style="fill:none;stroke:#B2B1B1;stroke-width:0.3;stroke-miterlimit:10;" x1="82.6" y1="-21.3" x2="67.7" y2="-21.3"/>
		<line style="fill:none;stroke:#B2B1B1;stroke-width:0.3;stroke-miterlimit:10;" x1="85.1" y1="-20" x2="65.6" y2="-20"/>
		<line style="fill:none;stroke:#B2B1B1;stroke-width:0.3;stroke-miterlimit:10;" x1="85.1" y1="-18.7" x2="65.6" y2="-18.7"/>
		<line style="fill:none;stroke:#B2B1B1;stroke-width:0.3;stroke-miterlimit:10;" x1="82.6" y1="-17.4" x2="67.7" y2="-17.4"/>
		<line style="fill:none;stroke:#B2B1B1;stroke-width:0.3;stroke-miterlimit:10;" x1="85.1" y1="-16.2" x2="65.6" y2="-16.2"/>
		<line style="fill:none;stroke:#B2B1B1;stroke-width:0.3;stroke-miterlimit:10;" x1="82.6" y1="-14.9" x2="67.7" y2="-14.9"/>
		<line style="fill:none;stroke:#B2B1B1;stroke-width:0.3;stroke-miterlimit:10;" x1="82.6" y1="-13.6" x2="67.7" y2="-13.6"/>
		<line style="fill:none;stroke:#B2B1B1;stroke-width:0.3;stroke-miterlimit:10;" x1="85.1" y1="-12.3" x2="65.6" y2="-12.3"/>
	</g>
	<polygon style="fill:none;stroke:#B2B2B2;stroke-width:0.5;stroke-miterlimit:10;" points="62.1,-31.7 62.1,-5.7 62.1,-5.5 
		62.3,-5.5 88.3,-5.5 88.6,-5.5 88.6,-5.7 88.6,-31.7 88.6,-32 88.3,-32 62.3,-32 62.1,-32 	"/>
</g>
<polygon style="fill:none;stroke:#B2B2B2;stroke-width:0.5;stroke-miterlimit:10;" points="93.2,-31.7 93.2,-5.7 93.2,-5.5 
	93.4,-5.5 119.4,-5.5 119.7,-5.5 119.7,-5.7 119.7,-31.7 119.7,-32 119.4,-32 93.4,-32 93.2,-32 "/>
<path style="fill:none;stroke:#B2B1B1;stroke-width:0.3;stroke-miterlimit:10;" d="M96.5-13"/>
<path style="fill:none;stroke:#B2B1B1;stroke-width:0.3;stroke-miterlimit:10;" d="M96.5-18"/>
<path style="fill:none;stroke:#B2B1B1;stroke-width:0.3;stroke-miterlimit:10;" d="M96.5-19.3"/>
<path style="fill:none;stroke:#B2B1B1;stroke-width:0.3;stroke-miterlimit:10;" d="M96.5-25.6"/>
<path style="fill:none;stroke:#B2B1B1;stroke-width:0.3;stroke-miterlimit:10;" d="M113.9-20.6"/>
<path style="fill:none;stroke:#B2B1B1;stroke-width:0.3;stroke-miterlimit:10;" d="M115.9-18"/>
<path style="fill:none;stroke:#B2B1B1;stroke-width:0.3;stroke-miterlimit:10;" d="M113.9-16.8"/>
<path style="fill:none;stroke:#B2B1B1;stroke-width:0.3;stroke-miterlimit:10;" d="M115.9-13"/>
<path style="fill:none;stroke:#B2B1B1;stroke-width:0.3;stroke-miterlimit:10;" d="M115.9-25.6"/>
<path style="fill:none;stroke:#B2B1B1;stroke-width:0.3;stroke-miterlimit:10;" d="M115.9-19.3"/>
<path style="fill:none;stroke:#B2B1B1;stroke-width:0.3;stroke-miterlimit:10;" d="M113.9-15.5"/>
<path style="fill:none;stroke:#B2B1B1;stroke-width:0.3;stroke-miterlimit:10;" d="M113.9-14.3"/>
<g>
	<path style="fill:none;stroke:#B2B1B1;stroke-width:0.3;stroke-miterlimit:10;" d="M98.8-14.6"/>
	<path style="fill:none;stroke:#B2B1B1;stroke-width:0.3;stroke-miterlimit:10;" d="M98.8-15.9"/>
	<path style="fill:none;stroke:#B2B1B1;stroke-width:0.3;stroke-miterlimit:10;" d="M98.8-17.1"/>
	<path style="fill:none;stroke:#B2B1B1;stroke-width:0.3;stroke-miterlimit:10;" d="M98.8-20.9"/>
	<path style="fill:none;stroke:#B2B1B1;stroke-width:0.3;stroke-miterlimit:10;" d="M98.8-23.4"/>
	<line style="fill:none;stroke:#B2B1B1;stroke-width:0.3;stroke-miterlimit:10;" x1="116.1" y1="-25.1" x2="96.7" y2="-25.1"/>
	<line style="fill:none;stroke:#B2B1B1;stroke-width:0.3;stroke-miterlimit:10;" x1="116.1" y1="-23.8" x2="101.2" y2="-23.8"/>
	<line style="fill:none;stroke:#B2B1B1;stroke-width:0.3;stroke-miterlimit:10;" x1="116.1" y1="-22.5" x2="101.2" y2="-22.5"/>
	<line style="fill:none;stroke:#B2B1B1;stroke-width:0.3;stroke-miterlimit:10;" x1="116.1" y1="-21.3" x2="101.2" y2="-21.3"/>
	<line style="fill:none;stroke:#B2B1B1;stroke-width:0.3;stroke-miterlimit:10;" x1="116.1" y1="-20" x2="96.7" y2="-20"/>
	<line style="fill:none;stroke:#B2B1B1;stroke-width:0.3;stroke-miterlimit:10;" x1="116.1" y1="-18.7" x2="96.7" y2="-18.7"/>
	<line style="fill:none;stroke:#B2B1B1;stroke-width:0.3;stroke-miterlimit:10;" x1="116.1" y1="-17.4" x2="101.2" y2="-17.4"/>
	<line style="fill:none;stroke:#B2B1B1;stroke-width:0.3;stroke-miterlimit:10;" x1="116.1" y1="-16.2" x2="96.7" y2="-16.2"/>
	<line style="fill:none;stroke:#B2B1B1;stroke-width:0.3;stroke-miterlimit:10;" x1="116.1" y1="-14.9" x2="101.2" y2="-14.9"/>
	<line style="fill:none;stroke:#B2B1B1;stroke-width:0.3;stroke-miterlimit:10;" x1="116.1" y1="-13.6" x2="101.2" y2="-13.6"/>
	<line style="fill:none;stroke:#B2B1B1;stroke-width:0.3;stroke-miterlimit:10;" x1="116.1" y1="-12.3" x2="96.7" y2="-12.3"/>
</g>
<polygon style="fill:none;stroke:#B2B2B2;stroke-width:0.5;stroke-miterlimit:10;" points="0.2,-31.7 0.2,-5.7 0.2,-5.5 0.5,-5.5 
	26.5,-5.5 26.7,-5.5 26.7,-5.7 26.7,-31.7 26.7,-32 26.5,-32 0.5,-32 0.2,-32 "/>
<path style="fill:none;stroke:#B2B1B1;stroke-width:0.3;stroke-miterlimit:10;" d="M23.4-24.4"/>
<path style="fill:none;stroke:#B2B1B1;stroke-width:0.3;stroke-miterlimit:10;" d="M23.4-19.4"/>
<path style="fill:none;stroke:#B2B1B1;stroke-width:0.3;stroke-miterlimit:10;" d="M23.4-18.1"/>
<path style="fill:none;stroke:#B2B1B1;stroke-width:0.3;stroke-miterlimit:10;" d="M23.4-11.9"/>
<path style="fill:none;stroke:#B2B1B1;stroke-width:0.3;stroke-miterlimit:10;" d="M6-16.9"/>
<path style="fill:none;stroke:#B2B1B1;stroke-width:0.3;stroke-miterlimit:10;" d="M4-19.4"/>
<path style="fill:none;stroke:#B2B1B1;stroke-width:0.3;stroke-miterlimit:10;" d="M6-20.6"/>
<path style="fill:none;stroke:#B2B1B1;stroke-width:0.3;stroke-miterlimit:10;" d="M4-24.4"/>
<path style="fill:none;stroke:#B2B1B1;stroke-width:0.3;stroke-miterlimit:10;" d="M4-11.9"/>
<path style="fill:none;stroke:#B2B1B1;stroke-width:0.3;stroke-miterlimit:10;" d="M4-18.1"/>
<path style="fill:none;stroke:#B2B1B1;stroke-width:0.3;stroke-miterlimit:10;" d="M6-21.9"/>
<path style="fill:none;stroke:#B2B1B1;stroke-width:0.3;stroke-miterlimit:10;" d="M6-23.1"/>
<g>
	<path style="fill:none;stroke:#B2B1B1;stroke-width:0.3;stroke-miterlimit:10;" d="M20.9-23.1"/>
	<path style="fill:none;stroke:#B2B1B1;stroke-width:0.3;stroke-miterlimit:10;" d="M20.9-21.9"/>
	<path style="fill:none;stroke:#B2B1B1;stroke-width:0.3;stroke-miterlimit:10;" d="M20.9-20.6"/>
	<path style="fill:none;stroke:#B2B1B1;stroke-width:0.3;stroke-miterlimit:10;" d="M20.9-16.9"/>
	<path style="fill:none;stroke:#B2B1B1;stroke-width:0.3;stroke-miterlimit:10;" d="M20.9-14.4"/>
	<line style="fill:none;stroke:#B2B1B1;stroke-width:0.3;stroke-miterlimit:10;" x1="3.6" y1="-12.7" x2="23" y2="-12.7"/>
	<line style="fill:none;stroke:#B2B1B1;stroke-width:0.3;stroke-miterlimit:10;" x1="3.6" y1="-13.9" x2="23" y2="-13.9"/>
	<line style="fill:none;stroke:#B2B1B1;stroke-width:0.3;stroke-miterlimit:10;" x1="3.6" y1="-15.2" x2="23" y2="-15.2"/>
	<line style="fill:none;stroke:#B2B1B1;stroke-width:0.3;stroke-miterlimit:10;" x1="3.6" y1="-16.5" x2="23" y2="-16.5"/>
	<line style="fill:none;stroke:#B2B1B1;stroke-width:0.3;stroke-miterlimit:10;" x1="3.6" y1="-17.8" x2="23" y2="-17.8"/>
	<line style="fill:none;stroke:#B2B1B1;stroke-width:0.3;stroke-miterlimit:10;" x1="3.6" y1="-19" x2="23" y2="-19"/>
	<line style="fill:none;stroke:#B2B1B1;stroke-width:0.3;stroke-miterlimit:10;" x1="3.7" y1="-20.3" x2="23.1" y2="-20.3"/>
	<line style="fill:none;stroke:#B2B1B1;stroke-width:0.3;stroke-miterlimit:10;" x1="3.6" y1="-21.6" x2="23" y2="-21.6"/>
	<line style="fill:none;stroke:#B2B1B1;stroke-width:0.3;stroke-miterlimit:10;" x1="3.6" y1="-22.9" x2="23" y2="-22.9"/>
	<line style="fill:none;stroke:#B2B1B1;stroke-width:0.3;stroke-miterlimit:10;" x1="3.6" y1="-24.1" x2="23" y2="-24.1"/>
	<line style="fill:none;stroke:#B2B1B1;stroke-width:0.3;stroke-miterlimit:10;" x1="3.6" y1="-25.4" x2="23" y2="-25.4"/>
</g>
<path style="fill:#B2B1B1;" d="M-169.3,83.4l-1.9,13.3c-0.1,0.4-0.4,0.7-0.8,0.6c-0.4-0.1-0.7-0.4-0.6-0.8l1.9-13.3
	c0.1-0.4,0.4-0.7,0.8-0.6C-169.5,82.7-169.2,83-169.3,83.4 M-176.1,97.5c-0.4,0-0.7-0.3-0.7-0.7l-0.1-13.5c0-0.4,0.3-0.7,0.7-0.7
	c0.4,0,0.7,0.3,0.7,0.7l0.1,13.5C-175.4,97.2-175.7,97.5-176.1,97.5 M-180.2,97.5c-0.4,0.1-0.8-0.2-0.8-0.6l-2.1-13.3
	c-0.1-0.4,0.2-0.8,0.6-0.8c0.4-0.1,0.8,0.2,0.8,0.6l2.1,13.3C-179.5,97-179.8,97.4-180.2,97.5 M-166.4,81.1
	c-0.1-0.2-0.4-0.3-0.6-0.3l-18.5,0.1c-0.2,0-0.4,0.1-0.6,0.3c-0.1,0.2-0.2,0.4-0.2,0.6l3.1,16.1c0.1,0.4,0.4,0.6,0.7,0.6l12.5-0.1
	c0.4,0,0.7-0.3,0.7-0.6l2.9-16.2C-166.2,81.5-166.3,81.2-166.4,81.1"/>
<path style="fill:none;stroke:#FFFFFF;stroke-width:2.100000e-02;" d="M-169.3,83.4l-1.9,13.3c-0.1,0.4-0.4,0.7-0.8,0.6
	c-0.4-0.1-0.7-0.4-0.6-0.8l1.9-13.3c0.1-0.4,0.4-0.7,0.8-0.6C-169.5,82.7-169.2,83-169.3,83.4z M-176.1,97.5c-0.4,0-0.7-0.3-0.7-0.7
	l-0.1-13.5c0-0.4,0.3-0.7,0.7-0.7c0.4,0,0.7,0.3,0.7,0.7l0.1,13.5C-175.4,97.2-175.7,97.5-176.1,97.5z M-180.2,97.5
	c-0.4,0.1-0.8-0.2-0.8-0.6l-2.1-13.3c-0.1-0.4,0.2-0.8,0.6-0.8c0.4-0.1,0.8,0.2,0.8,0.6l2.1,13.3C-179.5,97-179.8,97.4-180.2,97.5z
	 M-166.4,81.1c-0.1-0.2-0.4-0.3-0.6-0.3l-18.5,0.1c-0.2,0-0.4,0.1-0.6,0.3c-0.1,0.2-0.2,0.4-0.2,0.6l3.1,16.1
	c0.1,0.4,0.4,0.6,0.7,0.6l12.5-0.1c0.4,0,0.7-0.3,0.7-0.6l2.9-16.2C-166.2,81.5-166.3,81.2-166.4,81.1z"/>
<path style="fill:#B2B1B1;" d="M-179.1,76.4L-179.1,76.4l0-0.4l5.5,0l0,0.4L-179.1,76.4z M-165.4,77.9L-165.4,77.9l-2,0l0-1.2
	c0-0.1,0-0.2-0.1-0.2s-0.2-0.1-0.2-0.1l-4.5,0l0-1.1c0-0.2-0.1-0.4-0.2-0.5c-0.1-0.1-0.3-0.2-0.5-0.2l-6.9,0.1
	c-0.2,0-0.4,0.1-0.5,0.2s-0.2,0.3-0.2,0.5l0,1.1l-4.2,0c-0.1,0-0.2,0-0.2,0.1c-0.1,0.1-0.1,0.2-0.1,0.2l0,1.2l-2.2,0l0,2.2l21.8-0.2
	L-165.4,77.9z"/>
<path style="fill:none;stroke:#FFFFFF;stroke-width:2.100000e-02;" d="M-179.1,76.4L-179.1,76.4l0-0.4l5.5,0l0,0.4L-179.1,76.4z
	 M-165.4,77.9L-165.4,77.9l-2,0l0-1.2c0-0.1,0-0.2-0.1-0.2s-0.2-0.1-0.2-0.1l-4.5,0l0-1.1c0-0.2-0.1-0.4-0.2-0.5
	c-0.1-0.1-0.3-0.2-0.5-0.2l-6.9,0.1c-0.2,0-0.4,0.1-0.5,0.2s-0.2,0.3-0.2,0.5l0,1.1l-4.2,0c-0.1,0-0.2,0-0.2,0.1
	c-0.1,0.1-0.1,0.2-0.1,0.2l0,1.2l-2.2,0l0,2.2l21.8-0.2L-165.4,77.9z"/>
<rect x="-187.2" y="74.6" style="fill:none;" width="21.9" height="24"/>
<rect x="153.7" y="-66.2" style="fill:#0E6899;" width="34.9" height="19.6"/>
<g>
	<path style="fill:#FFFFFF;" d="M166.7-55.8v4.2h-0.9v-1.1c-0.4,0.7-1.2,1.1-2.4,1.1c-1.5,0-2.5-0.8-2.5-2c0-1.1,0.7-1.9,2.6-1.9
		h2.2v-0.4c0-1.2-0.7-1.8-1.9-1.8c-0.9,0-1.7,0.3-2.3,0.8l-0.4-0.7c0.7-0.6,1.7-0.9,2.8-0.9C165.7-58.4,166.7-57.5,166.7-55.8z
		 M165.8-53.6v-1.1h-2.1c-1.3,0-1.8,0.5-1.8,1.2c0,0.8,0.6,1.3,1.7,1.3C164.6-52.2,165.4-52.7,165.8-53.6z"/>
	<path style="fill:#FFFFFF;" d="M174.8-58.4v6.8h-0.9v-1.2c-0.5,0.8-1.4,1.3-2.5,1.3c-1.7,0-2.9-1-2.9-2.9v-4h0.9v3.9
		c0,1.5,0.8,2.2,2.1,2.2c1.4,0,2.3-0.9,2.3-2.5v-3.6C173.9-58.4,174.8-58.4,174.8-58.4z"/>
	<path style="fill:#FFFFFF;" d="M176.1-52.3l0.4-0.7c0.5,0.4,1.5,0.8,2.4,0.8c1.3,0,1.8-0.4,1.8-1.1c0-1.8-4.4-0.4-4.4-3.1
		c0-1.1,1-2,2.7-2c0.9,0,1.8,0.2,2.4,0.6l-0.4,0.7c-0.6-0.4-1.3-0.6-2-0.6c-1.2,0-1.8,0.5-1.8,1.1c0,1.8,4.4,0.5,4.4,3.1
		c0,1.2-1,2-2.8,2C177.8-51.5,176.7-51.8,176.1-52.3z"/>
</g>
<polygon style="fill:none;stroke:#B2B2B2;stroke-width:0.5;stroke-miterlimit:10;" points="154,-66.3 154,-46.3 154,-46.1 
	154.2,-46.1 223.1,-46.1 223.3,-46.1 223.3,-46.3 223.3,-66.3 223.3,-66.6 223.1,-66.6 154.2,-66.6 154,-66.6 "/>
<rect x="153.7" y="-66.8" style="fill:none;" width="69.8" height="21"/>
<rect x="-250.7" y="140.5" style="fill:#FFFFFF;" width="1014" height="21"/>
<path style="fill:#0E689A;" d="M376.5,140.5c-2.2,0-4,1.8-4,4v12.4c0,2.2,1.8,4,4,4h77.1c2.2,0,4-1.8,4-4v-12.4c0-2.2-1.8-4-4-4
	H376.5z"/>
<rect x="-250.4" y="140.8" style="fill:none;stroke:#C5C5C5;stroke-width:0.5;stroke-linecap:round;stroke-linejoin:round;" width="1013.5" height="20.5"/>
<path style="fill:#C5C5C5;" d="M747.2,143.4v1.5c0,0.4,0.2,0.8,0.5,1l6.4,4.8c0.3,0.2,0.3,0.6,0,0.8l-6.4,4.8
	c-0.3,0.2-0.5,0.6-0.5,1v1.5c0,0.4,0.5,0.6,0.8,0.4l10.1-7.6c0.3-0.2,0.3-0.7,0-1L748,143C747.7,142.7,747.2,143,747.2,143.4"/>
<path style="fill:#C5C5C5;" d="M-234.8,158.6v-1.5c0-0.4-0.2-0.8-0.5-1l-6.4-4.8c-0.3-0.2-0.3-0.6,0-0.8l6.4-4.8
	c0.3-0.2,0.5-0.6,0.5-1v-1.5c0-0.4-0.5-0.6-0.8-0.4l-10.1,7.6c-0.3,0.2-0.3,0.7,0,1l10.1,7.6C-235.3,159.3-234.8,159.1-234.8,158.6"
	/>
<rect x="-250.7" y="140.5" style="fill:none;" width="1014" height="21"/>
<rect x="805.1" y="-104" style="fill:#FFFFFF;" width="21" height="702.1"/>
<path style="fill:#0E689A;" d="M805.1,309.9c0,2.2,1.8,4,4,4h12.4c2.2,0,4-1.8,4-4v-78.3c0-2.2-1.8-4-4-4h-12.4c-2.2,0-4,1.8-4,4
	V309.9z"/>
<rect x="805.4" y="-103.8" style="fill:none;stroke:#C5C5C5;stroke-width:0.5;stroke-linecap:round;stroke-linejoin:round;" width="20.5" height="701.6"/>
<path style="fill:#C5C5C5;" d="M808-90.5h1.5c0.4,0,0.8-0.2,1-0.5l4.8-6.5c0.2-0.3,0.6-0.3,0.8,0l4.8,6.5c0.2,0.3,0.6,0.5,1,0.5h1.5
	c0.4,0,0.6-0.5,0.4-0.8l-7.6-10.2c-0.2-0.3-0.7-0.3-1,0l-7.6,10.2C807.3-91,807.6-90.5,808-90.5"/>
<path style="fill:#C5C5C5;" d="M823.2,583.8h-1.5c-0.4,0-0.8,0.2-1,0.5l-4.8,6.5c-0.2,0.3-0.6,0.3-0.8,0l-4.8-6.5
	c-0.2-0.3-0.6-0.5-1-0.5H808c-0.4,0-0.6,0.5-0.4,0.8l7.6,10.2c0.2,0.3,0.7,0.3,1,0l7.6-10.2C823.9,584.2,823.7,583.8,823.2,583.8"/>
<rect x="805.1" y="-104" style="fill:none;" width="21" height="702.1"/>
<line style="fill:none;stroke:#B2B1B1;stroke-width:0.3;stroke-miterlimit:10;" x1="84.1" y1="8.1" x2="71.1" y2="8.1"/>
<line style="fill:none;stroke:#B2B1B1;stroke-width:0.3;stroke-miterlimit:10;" x1="84.1" y1="13.2" x2="71.1" y2="13.2"/>
<line style="fill:none;stroke:#B2B1B1;stroke-width:0.3;stroke-miterlimit:10;" x1="84.1" y1="18.3" x2="71.1" y2="18.3"/>
<text transform="matrix(1 0 0 1 66.5388 7.959)" style="fill:#B2B1B1; font-family:'Montserrat-Bold'; font-size:3px;">1</text>
<text transform="matrix(1 0 0 1 66.5388 12.9746)" style="fill:#B2B1B1; font-family:'Montserrat-Bold'; font-size:3px;">2</text>
<text transform="matrix(1 0 0 1 66.5388 17.9902)" style="fill:#B2B1B1; font-family:'Montserrat-Bold'; font-size:3px;">3</text>
<polygon style="fill:none;stroke:#B2B2B2;stroke-width:0.5;stroke-miterlimit:10;" points="62.1,0.5 62.1,26.5 62.1,26.8 62.3,26.8 
	88.3,26.8 88.6,26.8 88.6,26.5 88.6,0.5 88.6,0.3 88.3,0.3 62.3,0.3 62.1,0.3 "/>
<polygon style="fill:none;stroke:#B2B2B2;stroke-width:0.5;stroke-miterlimit:10;" points="30.6,0.5 30.6,26.5 30.6,26.8 30.8,26.8 
	56.8,26.8 57.1,26.8 57.1,26.5 57.1,0.5 57.1,0.3 56.8,0.3 30.8,0.3 30.6,0.3 "/>
<polygon style="fill:none;stroke:#AD5E7A;stroke-width:0.5;stroke-miterlimit:10;" points="0.2,0.5 0.2,26.5 0.2,26.8 0.5,26.8 
	26.5,26.8 26.8,26.8 26.8,26.5 26.8,0.5 26.8,0.3 26.5,0.3 0.5,0.3 0.2,0.3 "/>
<path style="fill:none;stroke:#B2B1B1;stroke-width:0.3;stroke-miterlimit:10;" d="M52.1,18.6h-13 M52.1,13.5h-13 M52.1,8.4h-13"/>
<path style="fill:#B2B1B1;" d="M37,14.1c0.2-0.2,0.2-0.3,0.2-0.6c0-0.1,0-0.3-0.1-0.4c-0.1-0.1-0.2-0.2-0.3-0.3
	c-0.1-0.1-0.3-0.1-0.4-0.1c-0.2,0-0.3,0-0.4,0.1s-0.2,0.2-0.3,0.3c-0.1,0.1-0.1,0.3-0.1,0.4c0,0.2,0.1,0.4,0.2,0.6
	c0.2,0.2,0.3,0.2,0.6,0.2C36.7,14.3,36.9,14.2,37,14.1"/>
<path style="fill:#B2B1B1;" d="M36.4,9.4c0.5,0,0.9-0.4,0.9-0.9c0-0.5-0.4-0.9-0.9-0.9c-0.5,0-0.9,0.4-0.9,0.9
	C35.6,9,36,9.4,36.4,9.4"/>
<path style="fill:#B2B1B1;" d="M37,19.1c0.2-0.2,0.2-0.3,0.2-0.6c0-0.1,0-0.3-0.1-0.4c-0.1-0.1-0.2-0.2-0.3-0.3
	c-0.1-0.1-0.3-0.1-0.4-0.1c-0.2,0-0.3,0-0.4,0.1s-0.2,0.2-0.3,0.3c-0.1,0.1-0.1,0.3-0.1,0.4c0,0.2,0.1,0.4,0.2,0.6
	c0.2,0.2,0.3,0.2,0.6,0.2C36.7,19.3,36.9,19.3,37,19.1"/>
<path style="fill:none;stroke:#B2B1B1;stroke-width:0.3;stroke-miterlimit:10;" d="M21.8,18.6h-13 M21.8,13.5h-13 M21.8,8.4h-13"/>
<rect x="5.2" y="7.6" style="fill:#B2B1B1;" width="1.8" height="1.8"/>
<rect x="5.2" y="12.6" style="fill:#B2B1B1;" width="1.8" height="1.8"/>
<rect x="5.2" y="17.6" style="fill:#B2B1B1;" width="1.8" height="1.8"/>
<rect x="343.7" y="-67.3" style="fill:#F8F8F8;" width="245" height="57.8"/>
<text transform="matrix(1 0 0 1 418.4373 -41.0939)" style="fill:#B2B1B1; font-family:'Montserrat-Regular'; font-size:13px;">N</text>
<text transform="matrix(1 0 0 1 428.9153 -41.0939)" style="fill:#B2B1B1; font-family:'Montserrat-Regular'; font-size:13px;">e</text>
<text transform="matrix(1 0 0 1 436.5723 -41.0939)" style="fill:#B2B1B1; font-family:'Montserrat-Regular'; font-size:13px;">u</text>
<text transform="matrix(1 0 0 1 445.1903 -41.0939)" style="fill:#B2B1B1; font-family:'Montserrat-Regular'; font-size:13px;">e </text>
<text transform="matrix(1 0 0 1 456.4483 -41.0939)" style="fill:#B2B1B1; font-family:'Montserrat-Regular'; font-size:13px;">T</text>
<text transform="matrix(1 0 0 1 462.8183 -41.0939)" style="fill:#B2B1B1; font-family:'Montserrat-Regular'; font-size:13px;">e</text>
<text transform="matrix(1 0 0 1 470.3193 -41.0939)" style="fill:#B2B1B1; font-family:'Montserrat-Regular'; font-size:13px;">x</text>
<text transform="matrix(1 0 0 1 477.5343 -41.0939)" style="fill:#B2B1B1; font-family:'Montserrat-Regular'; font-size:13px;">t</text>
<text transform="matrix(1 0 0 1 482.5653 -41.0939)" style="fill:#B2B1B1; font-family:'Montserrat-Regular'; font-size:13px;">b</text>
<text transform="matrix(1 0 0 1 491.3793 -41.0939)" style="fill:#B2B1B1; font-family:'Montserrat-Regular'; font-size:13px;">o</text>
<text transform="matrix(1 0 0 1 499.1793 -41.0939)" style="fill:#B2B1B1; font-family:'Montserrat-Regular'; font-size:13px;">x </text>
<path style="fill:none;stroke:#B2B1B1;stroke-width:0.5;" d="M466.2-19.3c3.7,0,6.7-3,6.7-6.7c0-3.7-3-6.7-6.7-6.7s-6.7,3-6.7,6.7
	C459.5-22.3,462.5-19.3,466.2-19.3z"/>
<rect x="343.7" y="-67.3" style="fill:none;" width="245" height="57.8"/>
<line style="fill:none;stroke:#B2B1B1;stroke-width:1.2;" x1="466.2" y1="-29.6" x2="466.2" y2="-22.5"/>
<line style="fill:none;stroke:#B2B1B1;stroke-width:1.2;" x1="462.7" y1="-26" x2="469.8" y2="-26"/>
<path style="fill:none;stroke:#B2B1B1;stroke-width:0.5;" d="M355.3,20.5c3.7,0,6.7-3,6.7-6.7c0-3.7-3-6.7-6.7-6.7s-6.7,3-6.7,6.7
	C348.6,17.5,351.6,20.5,355.3,20.5z"/>
<line style="fill:none;stroke:#B2B1B1;stroke-width:1.2;" x1="355.3" y1="10.3" x2="355.3" y2="17.3"/>
<line style="fill:none;stroke:#B2B1B1;stroke-width:1.2;" x1="351.7" y1="13.8" x2="358.8" y2="13.8"/>
<g>
	<path style="fill:#B2B2B2;" d="M-140.6,35.6h-3.1v-1.8h8.5v1.8h-3.1v8h-2.3L-140.6,35.6L-140.6,35.6z"/>
	<path style="fill:#B2B2B2;" d="M-134,33.8h2.3v9.8h-2.3V33.8z"/>
	<path style="fill:#B2B2B2;" d="M-120.9,37.3c0,2.2-1.6,3.5-4.3,3.5h-2v2.7h-2.3v-9.8h4.2C-122.5,33.8-120.9,35.2-120.9,37.3z
		 M-123.2,37.3c0-1.1-0.7-1.7-2.1-1.7h-1.8V39h1.8C-123.9,39-123.2,38.4-123.2,37.3z"/>
	<path style="fill:#B2B2B2;" d="M-110.8,37.3c0,2.2-1.6,3.5-4.3,3.5h-2v2.7h-2.3v-9.8h4.2C-112.4,33.8-110.8,35.2-110.8,37.3z
		 M-113.1,37.3c0-1.1-0.7-1.7-2.1-1.7h-1.8V39h1.8C-113.8,39-113.1,38.4-113.1,37.3z"/>
</g>
<path style="fill:#B2B2B2;" d="M-177.2,29.3L-177.2,29.3c-1.1,2.5-2,4.6-2.9,6.8h5.7C-175.3,33.8-176.2,31.7-177.2,29.3
	 M-173.7,46.9L-173.7,46.9c-0.3-1.2-0.2-1.8,1-1.8c1,0,1.3-0.7,1-1.6c-0.5-1.4-1.1-2.8-1.7-4.2c-0.1-0.2-0.6-0.5-0.8-0.5
	c-2.1,0-4.3,0-6.4,0c-0.3,0-0.7,0.3-0.9,0.6c-0.6,1.2-1.1,2.3-1.5,3.5c-0.6,1.5-0.3,2,1.3,2.2c0.8,0.1,1.2,0.3,1,1.1
	c-0.1,0.2-0.4,0.6-0.5,0.6c-2.5,0-5,0-7.6,0c-0.2-1-0.3-1.6,0.9-1.9c0.6-0.1,1.2-0.6,1.5-1.1c0.8-1.3,1.4-2.7,2-4
	c2.4-5.6,4.8-11.1,7.2-16.7c0.2-0.4,0.6-0.7,1-1c0.3,0.3,0.8,0.6,0.9,1c2.6,6,5.1,12.1,7.6,18.2c0.3,0.8,0.7,1.5,1.1,2.3
	c0.5,0.9,1.3,1.4,2.4,1.6c0.3,0.1,0.5,0.6,0.6,1c0,0.2-0.4,0.6-0.6,0.6C-167.4,46.9-170.6,46.9-173.7,46.9"/>
<path style="fill:#B2B1B1;" d="M-80,39.4c2.7,0,4.8-2,4.8-4.6c0-2.4-2.2-4.4-4.7-4.4c-2.7,0-4.8,2-4.8,4.6
	C-84.8,37.4-82.6,39.4-80,39.4 M-74.4,39.4L-74.4,39.4c0.4-0.2,0.6-0.2,0.9,0.1c1.2,1.2,2.5,2.4,3.8,3.5c0.1,0.1,0.2,0.2,0.3,0.2
	c0.2,0.2,0.2,0.5,0,0.7c-0.2,0.2-0.5,0.5-0.8,0.7c-0.3,0.3-0.5,0.3-0.9,0c-1.2-1.1-2.3-2.2-3.5-3.3c-0.1-0.1-0.3-0.2-0.4-0.4
	c-0.4-0.3-0.4-0.5-0.2-0.9c-0.4-0.3-0.7-0.7-1.1-1c-1.5,1.1-3.2,1.5-5,1.1c-1.4-0.3-2.5-1.1-3.4-2.2c-1.7-2.2-1.3-5.3,0.8-7.1
	c2.2-1.9,5.5-1.9,7.7-0.1c2.2,1.8,2.8,5.1,0.7,7.6C-75.2,38.7-74.8,39-74.4,39.4"/>
<path style="fill:none;stroke:#FFFFFF;stroke-width:1.000000e-03;" d="M-80,39.4c2.7,0,4.8-2,4.8-4.6c0-2.4-2.2-4.4-4.7-4.4
	c-2.7,0-4.8,2-4.8,4.6C-84.8,37.4-82.6,39.4-80,39.4z M-74.4,39.4L-74.4,39.4c0.4-0.2,0.6-0.2,0.9,0.1c1.2,1.2,2.5,2.4,3.8,3.5
	c0.1,0.1,0.2,0.2,0.3,0.2c0.2,0.2,0.2,0.5,0,0.7c-0.2,0.2-0.5,0.5-0.8,0.7c-0.3,0.3-0.5,0.3-0.9,0c-1.2-1.1-2.3-2.2-3.5-3.3
	c-0.1-0.1-0.3-0.2-0.4-0.4c-0.4-0.3-0.4-0.5-0.2-0.9c-0.4-0.3-0.7-0.7-1.1-1c-1.5,1.1-3.2,1.5-5,1.1c-1.4-0.3-2.5-1.1-3.4-2.2
	c-1.7-2.2-1.3-5.3,0.8-7.1c2.2-1.9,5.5-1.9,7.7-0.1c2.2,1.8,2.8,5.1,0.7,7.6C-75.2,38.7-74.8,39-74.4,39.4z"/>
<path style="fill:#B2B1B1;" d="M-16.3,29.8l3,3V30c0-0.1-0.1-0.2-0.1-0.3l-3.8-3.8c-0.1-0.1-0.2-0.1-0.2,0l-3.9,3.9v2.8
	c0,0.1,0.1,0.1,0.1,0.1l2.8-2.9c0.1-0.1,0.1,0,0.1,0v7.8l0,0v2.2c0,0.1-0.1,0.1-0.1,0l-3-3v2.8c0,0.1,0.1,0.2,0.1,0.3l3.8,3.8
	c0.1,0.1,0.2,0.1,0.2,0l3.9-3.9v-2.8c0-0.1-0.1-0.1-0.1-0.1l-2.8,2.9c-0.1,0.1-0.1,0-0.1,0V32l0,0v-2.2
	C-16.4,29.7-16.4,29.7-16.3,29.8z"/>
<line style="fill:none;stroke:#B2B1B1;stroke-width:1.712;" x1="-52.4" y1="43" x2="-24.6" y2="43"/>
<line style="fill:none;stroke:#B2B1B1;stroke-width:1.712;" x1="-52.4" y1="34.7" x2="-24.6" y2="34.7"/>
<line style="fill:none;stroke:#B2B1B1;stroke-width:1.712;" x1="-52.4" y1="26.7" x2="-24.6" y2="26.7"/>
<line style="fill:none;stroke:#B2B1B1;stroke-width:1.712;" x1="-38.1" y1="62" x2="-38.1" y2="83"/>
<path style="fill:#B2B1B1;" d="M-30.6,75.8L-30.6,75.8h2.7l-2.6-2.6c-0.1-0.1-0.1-0.2,0.1-0.2h7v-1.4c0-0.2-0.2-0.3-0.4-0.3h-6.7
	c-0.2,0-0.2-0.1-0.1-0.2l2.6-2.6h-2.3c-0.2,0-0.5,0.1-0.6,0.2l-3.2,3.2c-0.1,0.1-0.1,0.4,0,0.5L-30.6,75.8z"/>
<path style="fill:#B2B1B1;" d="M-46.4,68.6L-46.4,68.6h-2.7l2.6,2.6c0.1,0.1,0.1,0.2-0.1,0.2h-7v1.4c0,0.2,0.2,0.3,0.3,0.3h6.7
	c0.2,0,0.2,0.1,0.1,0.2l-2.6,2.6h2.3c0.2,0,0.5-0.1,0.6-0.2l3.2-3.2c0.1-0.1,0.1-0.4,0-0.5L-46.4,68.6z"/>
<line style="fill:none;stroke:#B2B1B1;stroke-width:2;" x1="278.2" y1="-57.1" x2="242.2" y2="-57.1"/>
<path style="fill:#AD5E7A;" d="M269.7-54c2,0,3.7-1.7,3.7-3.7c0-2-1.7-3.7-3.7-3.7s-3.7,1.7-3.7,3.7C266-55.6,267.7-54,269.7-54"/>
<g>
	<path style="fill:#B2B1B1;" d="M292.9-56.9c0,3.1-1.8,4.8-4.5,4.8c-0.9,0-1.8-0.2-2.4-0.6l0.6-1.3c0.5,0.3,1.1,0.4,1.7,0.4
		c1.7,0,2.8-1.1,2.8-3.1v0c-0.5,0.6-1.4,0.9-2.4,0.9c-1.8,0-3.1-1.1-3.1-2.8c0-1.8,1.5-3,3.3-3C291.4-61.4,292.9-59.8,292.9-56.9z
		 M290.9-58.6c0-0.9-0.7-1.5-1.9-1.5c-1.1,0-1.8,0.6-1.8,1.5s0.7,1.5,1.8,1.5C290.2-57,290.9-57.7,290.9-58.6z"/>
	<path style="fill:#B2B1B1;" d="M300.8-55c0,1.6-1.2,2.9-3.6,2.9c-1.3,0-2.6-0.4-3.4-1.1l0.7-1.3c0.7,0.5,1.7,0.9,2.7,0.9
		c1.2,0,1.9-0.5,1.9-1.4c0-0.9-0.6-1.4-2.4-1.4h-2.2l0.5-5h5.3v1.4h-3.9l-0.2,2.1h0.9C299.7-57.8,300.8-56.6,300.8-55z"/>
	<path style="fill:#B2B1B1;" d="M305.2-58.9c0-1.5,0.9-2.5,2.2-2.5s2.2,1,2.2,2.5s-0.9,2.5-2.2,2.5S305.2-57.4,305.2-58.9z
		 M308.5-58.9c0-1-0.4-1.6-1.1-1.6c-0.7,0-1.1,0.6-1.1,1.6s0.4,1.6,1.1,1.6C308.1-57.3,308.5-57.9,308.5-58.9z M312.8-61.3h1.3
		l-6.2,9.1h-1.3L312.8-61.3z M311.1-54.6c0-1.5,0.9-2.5,2.2-2.5s2.2,1,2.2,2.5s-0.9,2.5-2.2,2.5C312-52.1,311.1-53.1,311.1-54.6z
		 M314.4-54.6c0-1-0.4-1.6-1.1-1.6s-1.1,0.6-1.1,1.6c0,1,0.4,1.6,1.1,1.6S314.4-53.6,314.4-54.6z"/>
</g>
<rect x="256.1" y="-3" style="fill:#FFFFFF;" width="13.1" height="16.8"/>
<polygon style="fill:none;stroke:#B2B1B1;stroke-width:0.941;" points="256.1,13.8 256.1,13.8 269.3,13.8 269.3,-3 256.1,-3 "/>
<rect x="248.5" y="-3.4" style="fill:none;" width="21.3" height="24"/>
<line style="fill:none;stroke:#B2B1B1;stroke-width:0.941;stroke-dasharray:1.889,1.889;" x1="253" y1="4.7" x2="253" y2="15.1"/>
<line style="fill:none;stroke:#B2B1B1;stroke-width:0.941;stroke-dasharray:1.754,1.754;" x1="255.6" y1="17" x2="265.2" y2="17"/>
<path style="fill:none;stroke:#B2B1B1;stroke-width:0.941;" d="M266.1,17h0.9 M253,16.1V17h0.9 M253,1.9v0.9"/>
<polyline style="fill:none;stroke:#B2B1B1;stroke-width:0.941;" points="248.9,5 248.9,20.1 263,20.1 "/>
<rect x="248.5" y="-3.4" style="fill:none;" width="21.3" height="24"/>
<rect x="287.7" y="-3" style="fill:#FFFFFF;" width="14.7" height="18.7"/>
<polygon style="fill:none;stroke:#B2B1B1;stroke-width:0.804;" points="287.7,15.7 287.7,15.7 302.4,15.7 302.4,-3 287.7,-3 "/>
<rect x="287.3" y="-3.4" style="fill:none;" width="19.9" height="24"/>
<rect x="292.1" y="1.5" style="fill:#B2B1B1;" width="14.7" height="18.7"/>
<polygon style="fill:none;stroke:#FFFFFF;stroke-width:0.804;" points="292.1,20.2 292.1,20.2 306.8,20.2 306.8,1.5 292.1,1.5 "/>
<rect x="287.3" y="-3.4" style="fill:none;" width="19.9" height="24"/>
<rect x="188.8" y="0.5" style="fill:#0E6899;" width="34.9" height="19.6"/>
<text transform="matrix(1 0 0 1 195.8183 15.1576)" style="fill:#FFFFFF; font-family:'Montserrat-Regular'; font-size:13px;">e</text>
<text transform="matrix(1 0 0 1 203.2283 15.1576)" style="fill:#FFFFFF; font-family:'Montserrat-Regular'; font-size:13px;">i</text>
<text transform="matrix(1 0 0 1 206.1533 15.1576)" style="fill:#FFFFFF; font-family:'Montserrat-Regular'; font-size:13px;">n</text>
<polygon style="fill:none;stroke:#B2B2B2;stroke-width:0.5;stroke-miterlimit:10;" points="153.8,0.4 153.8,20.4 153.8,20.6 
	154.1,20.6 222.9,20.6 223.2,20.6 223.2,20.4 223.2,0.4 223.2,0.1 222.9,0.1 154.1,0.1 153.8,0.1 "/>
<rect x="153.6" y="-0.1" style="fill:none;" width="70.2" height="21"/>
<line style="fill:none;stroke:#B2B1B1;stroke-width:2.5;" x1="294.9" y1="90" x2="294.9" y2="114.3"/>
<path style="fill:#B2B1B1;" d="M303,105.8L303,105.8h2.6l-2.5-2.5c-0.1-0.1-0.1-0.2,0.1-0.2h6.7v-1.3c0-0.2-0.2-0.3-0.4-0.3h-6.7
	l2.7-2.7h-2.2c-0.2,0-0.5,0.1-0.6,0.2l-3.1,3.1c-0.1,0.1-0.1,0.4,0,0.5L303,105.8z"/>
<line style="fill:none;stroke:#B2B1B1;stroke-width:2.5;" x1="267.9" y1="114.1" x2="267.9" y2="89.9"/>
<path style="fill:#B2B1B1;" d="M259.8,98.3L259.8,98.3h-2.6l2.5,2.5c0.1,0.1,0.1,0.2-0.1,0.2h-6.7v1.3c0,0.2,0.2,0.3,0.4,0.3h6.7
	l-2.7,2.7h2.2c0.2,0,0.5-0.1,0.6-0.2l3.1-3.1c0.1-0.1,0.1-0.4,0-0.5L259.8,98.3z"/>
<line style="fill:none;stroke:#B2B1B1;stroke-width:2.5;" x1="78.2" y1="97.9" x2="102.4" y2="97.9"/>
<path style="fill:#B2B1B1;" d="M93.8,89.8L93.8,89.8v-2.6l-2.5,2.5c-0.1,0.1-0.2,0.1-0.2-0.1v-6.7h-1.3c-0.2,0-0.3,0.2-0.3,0.3V90
	l-2.7-2.7v2.2c0,0.2,0.1,0.5,0.2,0.6l3.1,3.1c0.1,0.1,0.4,0.1,0.5,0L93.8,89.8z"/>
<path style="fill:#B2B1B1;" d="M86.9,105L86.9,105v2.6l2.5-2.5c0.1-0.1,0.2-0.1,0.2,0.1v6.7h1.3c0.2,0,0.3-0.2,0.3-0.3v-6.7l2.7,2.7
	v-2.2c0-0.2-0.1-0.5-0.2-0.6l-3.1-3.1c-0.1-0.1-0.4-0.1-0.5,0L86.9,105z"/>
<line style="fill:none;stroke:#B2B1B1;stroke-width:2.5;" x1="134.6" y1="110.7" x2="134.6" y2="86.4"/>
<path style="fill:#B2B1B1;" d="M126.6,95.1L126.6,95.1H124l2.5,2.5c0.1,0.1,0.1,0.2-0.1,0.2h-6.7v1.3c0,0.2,0.2,0.3,0.3,0.3h6.7
	l-2.7,2.7h2.2c0.2,0,0.5-0.1,0.6-0.2l3.1-3.1c0.1-0.1,0.1-0.4,0-0.5L126.6,95.1z"/>
<path style="fill:#B2B1B1;" d="M141.7,102L141.7,102h2.6l-2.5-2.5c-0.1-0.1-0.1-0.2,0.1-0.2h6.7v-1.3c0-0.2-0.2-0.3-0.4-0.3h-6.7
	l2.7-2.7h-2.2c-0.2,0-0.5,0.1-0.6,0.2l-3.1,3.1c-0.1,0.1-0.1,0.4,0,0.5L141.7,102z"/>
<line style="fill:none;stroke:#B2B1B1;stroke-width:2.5;" x1="166.8" y1="98.2" x2="191" y2="98.2"/>
<path style="fill:#B2B1B1;" d="M175.5,105.3L175.5,105.3v2.6l2.5-2.5c0.1-0.1,0.2-0.1,0.2,0.1v6.7h1.3c0.2,0,0.4-0.2,0.4-0.3v-6.7
	l2.7,2.7v-2.2c0-0.2-0.1-0.5-0.2-0.6l-3.1-3.1c-0.1-0.1-0.4-0.1-0.5,0L175.5,105.3z"/>
<line style="fill:none;stroke:#B2B1B1;stroke-width:2.5;" x1="211.9" y1="109.4" x2="236.1" y2="109.4"/>
<path style="fill:#B2B1B1;" d="M227.7,101L227.7,101v-2.6l-2.5,2.5c-0.1,0.1-0.2,0.1-0.2-0.1v-6.7h-1.3c-0.2,0-0.4,0.2-0.4,0.3v6.7
	l-2.7-2.7v2.2c0,0.2,0.1,0.5,0.2,0.6l3.1,3.1c0.1,0.1,0.4,0.1,0.5,0L227.7,101z"/>
<rect x="357.7" y="82.5" style="fill:#FFFFFF;" width="15.8" height="20.1"/>
<line style="fill:none;stroke:#B2B1B1;stroke-width:0.941;stroke-dasharray:1.971,1.971;" x1="360.7" y1="102.6" x2="371.5" y2="102.6"/>
<line style="fill:none;stroke:#B2B1B1;stroke-width:0.941;stroke-dasharray:2.006,2.006;" x1="373.5" y1="99.6" x2="373.5" y2="84.5"/>
<line style="fill:none;stroke:#B2B1B1;stroke-width:0.941;stroke-dasharray:1.971,1.971;" x1="370.6" y1="82.5" x2="359.7" y2="82.5"/>
<line style="fill:none;stroke:#B2B1B1;stroke-width:0.941;stroke-dasharray:2.006,2.006;" x1="357.7" y1="85.5" x2="357.7" y2="100.6"/>
<path style="fill:none;stroke:#B2B1B1;stroke-width:0.941;" d="M357.7,101.6v1h1 M358.7,82.5h-1v1 M373.5,83.5v-1h-1 M372.5,102.6h1
	v-1"/>
<polygon style="fill:#FFFFFF;" points="346.5,112.6 346.5,112.6 362.3,112.6 362.3,92.5 346.5,92.5 "/>
<line style="fill:none;stroke:#B2B1B1;stroke-width:0.941;stroke-dasharray:1.971,1.971;" x1="349.5" y1="112.6" x2="360.3" y2="112.6"/>
<line style="fill:none;stroke:#B2B1B1;stroke-width:0.941;stroke-dasharray:2.006,2.006;" x1="362.3" y1="109.6" x2="362.3" y2="94.5"/>
<line style="fill:none;stroke:#B2B1B1;stroke-width:0.941;stroke-dasharray:1.971,1.971;" x1="359.3" y1="92.5" x2="348.5" y2="92.5"/>
<line style="fill:none;stroke:#B2B1B1;stroke-width:0.941;stroke-dasharray:2.006,2.006;" x1="346.5" y1="95.5" x2="346.5" y2="110.6"/>
<path style="fill:none;stroke:#B2B1B1;stroke-width:0.941;" d="M346.5,111.6v1h1 M347.5,92.5h-1v1 M362.3,93.5v-1h-1 M361.3,112.6h1
	v-1"/>
<polygon style="fill:#FFFFFF;" points="337,120.6 337,120.6 352.8,120.6 352.8,100.5 337,100.5 "/>
<polygon style="fill:none;stroke:#B2B1B1;stroke-width:0.941;" points="337,120.6 337,120.6 352.8,120.6 352.8,100.5 337,100.5 "/>
<g>
	<polygon style="fill:#FFFFFF;" points="410.9,106.9 410.9,106.9 426.6,106.9 426.6,86.8 410.9,86.8 	"/>
	<polygon style="fill:none;stroke:#B2B1B1;stroke-width:0.941;" points="410.9,106.9 410.9,106.9 426.6,106.9 426.6,86.8 
		410.9,86.8 	"/>
	
		<line style="fill:none;stroke:#B2B1B1;stroke-width:0.941;stroke-dasharray:1.801,1.801;" x1="407.1" y1="95.4" x2="407.1" y2="108.9"/>
	
		<line style="fill:none;stroke:#B2B1B1;stroke-width:0.941;stroke-dasharray:2.091,2.091;" x1="410.2" y1="110.7" x2="421.8" y2="110.7"/>
	<path style="fill:none;stroke:#B2B1B1;stroke-width:0.941;" d="M422.8,110.7h1 M407.1,109.8v0.9h1 M407.1,92.7v0.9"/>
</g>
<g>
	<g>
		<rect x="483.4" y="75.1" style="fill:#FFFFFF;" width="15.8" height="20.1"/>
		<polygon style="fill:none;stroke:#B2B1B1;stroke-width:0.941;" points="483.4,95.1 483.4,95.1 499.2,95.1 499.2,75.1 483.4,75.1 
					"/>
		<polygon style="fill:#FFFFFF;" points="472.2,105.1 472.2,105.1 487.9,105.1 487.9,85.1 472.2,85.1 		"/>
		
			<line style="fill:none;stroke:#B2B1B1;stroke-width:0.941;stroke-dasharray:1.971,1.971;" x1="475.1" y1="105.1" x2="486" y2="105.1"/>
		
			<line style="fill:none;stroke:#B2B1B1;stroke-width:0.941;stroke-dasharray:2.006,2.006;" x1="487.9" y1="102.1" x2="487.9" y2="87.1"/>
		
			<line style="fill:none;stroke:#B2B1B1;stroke-width:0.941;stroke-dasharray:1.971,1.971;" x1="485" y1="85.1" x2="474.2" y2="85.1"/>
		
			<line style="fill:none;stroke:#B2B1B1;stroke-width:0.941;stroke-dasharray:2.006,2.006;" x1="472.2" y1="88.1" x2="472.2" y2="103.1"/>
		<path style="fill:none;stroke:#B2B1B1;stroke-width:0.941;" d="M472.2,104.1v1h1 M473.2,85.1h-1v1 M487.9,86.1v-1h-1 M487,105.1h1
			v-1"/>
		<polygon style="fill:#FFFFFF;" points="462.7,113.1 462.7,113.1 478.5,113.1 478.5,93.1 462.7,93.1 		"/>
		
			<line style="fill:none;stroke:#B2B1B1;stroke-width:0.941;stroke-dasharray:1.971,1.971;" x1="465.7" y1="113.1" x2="476.5" y2="113.1"/>
		
			<line style="fill:none;stroke:#B2B1B1;stroke-width:0.941;stroke-dasharray:2.006,2.006;" x1="478.5" y1="110.1" x2="478.5" y2="95.1"/>
		
			<line style="fill:none;stroke:#B2B1B1;stroke-width:0.941;stroke-dasharray:1.971,1.971;" x1="475.5" y1="93.1" x2="464.7" y2="93.1"/>
		
			<line style="fill:none;stroke:#B2B1B1;stroke-width:0.941;stroke-dasharray:2.006,2.006;" x1="462.7" y1="96.1" x2="462.7" y2="111.1"/>
		<path style="fill:none;stroke:#B2B1B1;stroke-width:0.941;" d="M462.7,112.1v1h1 M463.7,93.1h-1v1 M478.5,94.1v-1h-1 M477.5,113.1
			h1v-1"/>
	</g>
	
		<line style="fill:none;stroke:#B2B1B1;stroke-width:0.941;stroke-dasharray:1.971,1.971;" x1="538.8" y1="108.6" x2="549.7" y2="108.6"/>
	
		<line style="fill:none;stroke:#B2B1B1;stroke-width:0.941;stroke-dasharray:2.006,2.006;" x1="551.6" y1="105.6" x2="551.6" y2="90.6"/>
	
		<line style="fill:none;stroke:#B2B1B1;stroke-width:0.941;stroke-dasharray:1.971,1.971;" x1="548.7" y1="88.6" x2="537.8" y2="88.6"/>
	
		<line style="fill:none;stroke:#B2B1B1;stroke-width:0.941;stroke-dasharray:2.006,2.006;" x1="535.9" y1="91.6" x2="535.9" y2="106.6"/>
	<path style="fill:none;stroke:#B2B1B1;stroke-width:0.941;" d="M535.9,107.6v1h1 M536.9,88.6h-1v1 M551.6,89.6v-1h-1 M550.7,108.6
		h1v-1"/>
	<polyline style="fill:none;stroke:#B2B1B1;stroke-width:0.941;" points="532.1,94.4 532.1,112.4 548.8,112.4 	"/>
</g>
<g>
	<g>
		<defs>
			<rect id="SVGID_1_" x="-223.2" y="202.5" width="241.7" height="1"/>
		</defs>
		<clipPath id="SVGID_00000090980370026486345680000017529651472016082050_">
			<use xlink:href="#SVGID_1_"  style="overflow:visible;"/>
		</clipPath>
		
			<line style="clip-path:url(#SVGID_00000090980370026486345680000017529651472016082050_);fill:none;stroke:#B2B2B2;stroke-linecap:round;stroke-linejoin:round;stroke-dasharray:0,3.009;" x1="-219.7" y1="203" x2="16.5" y2="203"/>
	</g>
	<g>
		<defs>
			<rect id="SVGID_00000167357343919320285550000015201534161046731696_" x="-223.2" y="202.5" width="241.7" height="1"/>
		</defs>
		<clipPath id="SVGID_00000102514805027278472100000013108014140917514389_">
			<use xlink:href="#SVGID_00000167357343919320285550000015201534161046731696_"  style="overflow:visible;"/>
		</clipPath>
		
			<path style="clip-path:url(#SVGID_00000102514805027278472100000013108014140917514389_);fill:none;stroke:#B2B2B2;stroke-linecap:round;stroke-linejoin:round;" d="
			M18,203L18,203 M-222.7,203L-222.7,203"/>
	</g>
</g>
<circle style="fill:none;stroke:#4F4D4D;stroke-width:0.5;" cx="-176.3" cy="-18.2" r="12.8"/>
<polygon style="fill:#0E689A;" points="-32.9,-33.3 -45.9,-33.3 -39.5,-22.8 "/>
<polygon style="fill:#B2B1B1;" points="-24.9,95.3 -35.3,101.6 -24.9,108.3 "/>
<polygon style="fill:#B2B1B1;" points="-53.9,108.3 -43.4,101.9 -53.9,95.3 "/>
<polygon style="fill:#B2B1B1;" points="28.7,95.3 18.2,101.6 28.7,108.3 "/>
<polygon style="fill:#B2B1B1;" points="-6.5,108.3 4,101.9 -6.5,95.3 "/>
<rect x="153.7" y="-33.3" style="fill:#0E6899;" width="34.9" height="19.6"/>
<polygon style="fill:none;stroke:#B2B2B2;stroke-width:0.5;stroke-miterlimit:10;" points="154,-33.4 154,-13.4 154,-13.1 
	154.2,-13.1 223.1,-13.1 223.3,-13.1 223.3,-13.4 223.3,-33.4 223.3,-33.6 223.1,-33.6 154.2,-33.6 154,-33.6 "/>
<rect x="153.7" y="-33.9" style="fill:none;" width="69.8" height="21"/>
<rect x="189.1" y="32.8" style="fill:#0E6899;" width="34.9" height="19.6"/>
<polygon style="fill:none;stroke:#B2B2B2;stroke-width:0.5;stroke-miterlimit:10;" points="154.1,32.6 154.1,52.6 154.1,52.9 
	154.3,52.9 223.2,52.9 223.4,52.9 223.4,52.6 223.4,32.6 223.4,32.4 223.2,32.4 154.3,32.4 154.1,32.4 "/>
<rect x="153.8" y="32.1" style="fill:none;" width="70.2" height="21"/>
<line style="fill:none;stroke:#B2B1B1;stroke-width:2;" x1="277.1" y1="-37.3" x2="241.1" y2="-37.3"/>
<path style="fill:#AD5E7A;" d="M268.6-34.2c2,0,3.7-1.7,3.7-3.7c0-2-1.7-3.7-3.7-3.7s-3.7,1.7-3.7,3.7S266.6-34.2,268.6-34.2"/>
<line style="fill:none;stroke:#B2B1B1;stroke-width:2;" x1="585.4" y1="-6.5" x2="549.4" y2="-6.5"/>
<path style="fill:#AD5E7A;" d="M576.9-3.4c2,0,3.7-1.7,3.7-3.7s-1.7-3.7-3.7-3.7s-3.7,1.7-3.7,3.7S574.9-3.4,576.9-3.4"/>
</svg>
