<?xml version="1.0" encoding="utf-8"?>
<!-- Generator: Adobe Illustrator 26.5.0, SVG Export Plug-In . SVG Version: 6.00 Build 0)  -->
<svg version="1.1" id="Ebene_1" xmlns="http://www.w3.org/2000/svg" xmlns:xlink="http://www.w3.org/1999/xlink" x="0px" y="0px"
	 width="27px" height="27px" viewBox="0 0 27 27" style="enable-background:new 0 0 27 27;" xml:space="preserve">
<polyline style="fill:none;stroke:#C5C5C5;stroke-width:3;stroke-linecap:round;stroke-linejoin:round;" points="1815.6,940.6 
	1809.4,931.6 1802.6,940.6 "/>
<circle style="fill:#FFAEFF;stroke:#4F4D4D;stroke-width:0.5;" cx="-176.3" cy="-22.1" r="12.8"/>
<rect x="-143.8" y="-33.1" style="fill:#F8F8F8;" width="119.9" height="21"/>
<polygon style="fill:#0E689A;" points="-33,-27.9 -46,-27.9 -39.6,-17.4 "/>
<g>
	<g>
		<line style="fill:none;stroke:#B2B1B1;stroke-width:0.65;stroke-miterlimit:10;" x1="80" y1="-15.6" x2="90.3" y2="-15.6"/>
		<g>
			<path style="fill:#B2B1B1;" d="M81.3-20.9V-26h1.3v5.1c0,2,0.9,2.9,2.6,2.9s2.6-0.9,2.6-2.9V-26H89v5.2c0,2.6-1.4,4-3.8,4
				C82.8-16.8,81.3-18.2,81.3-20.9z"/>
		</g>
	</g>
	<polygon style="fill:none;stroke:#B2B2B2;stroke-width:0.5;stroke-miterlimit:10;" points="71.9,-33.8 71.9,-7.8 71.9,-7.6 
		72.2,-7.6 98.2,-7.6 98.4,-7.6 98.4,-7.8 98.4,-33.8 98.4,-34.1 98.2,-34.1 72.2,-34.1 71.9,-34.1 	"/>
</g>
<g>
	<g>
		<path style="fill:#B2B1B1;" d="M50.6-25.8h1.3l-1.8,9.1h-1.3L50.6-25.8z"/>
	</g>
	<polygon style="fill:none;stroke:#B2B2B2;stroke-width:0.5;stroke-miterlimit:10;" points="37.1,-34.2 37.1,-8.2 37.1,-8 37.3,-8 
		63.3,-8 63.6,-8 63.6,-8.2 63.6,-34.2 63.6,-34.5 63.3,-34.5 37.3,-34.5 37.1,-34.5 	"/>
</g>
<g>
	<g>
		<path style="fill:#B2B1B1;" d="M17.4-19.1c0,1.6-1.2,2.5-3.6,2.5H9.1v-9.1h4.4c2.3,0,3.4,0.9,3.4,2.4c0,0.9-0.5,1.6-1.2,2
			C16.8-21,17.4-20.2,17.4-19.1z M11.2-24.1v2.1h2.1c1,0,1.6-0.4,1.6-1.1s-0.6-1.1-1.6-1.1L11.2-24.1L11.2-24.1z M15.3-19.3
			c0-0.8-0.6-1.1-1.7-1.1h-2.5v2.2h2.5C14.7-18.2,15.3-18.5,15.3-19.3z"/>
	</g>
	<polygon style="fill:none;stroke:#B2B2B2;stroke-width:0.5;stroke-miterlimit:10;" points="0,-34.2 0,-8.2 0,-7.9 0.2,-7.9 
		26.2,-7.9 26.5,-7.9 26.5,-8.2 26.5,-34.2 26.5,-34.4 26.2,-34.4 0.2,-34.4 0,-34.4 	"/>
</g>
<path style="fill:none;stroke:#B2B1B1;stroke-width:0.3;stroke-miterlimit:10;" d="M54.2,7.8"/>
<path style="fill:none;stroke:#B2B1B1;stroke-width:0.3;stroke-miterlimit:10;" d="M51.7,9.1"/>
<path style="fill:none;stroke:#B2B1B1;stroke-width:0.3;stroke-miterlimit:10;" d="M51.7,10.3"/>
<path style="fill:none;stroke:#B2B1B1;stroke-width:0.3;stroke-miterlimit:10;" d="M51.7,11.6"/>
<path style="fill:none;stroke:#B2B1B1;stroke-width:0.3;stroke-miterlimit:10;" d="M54.2,12.8"/>
<path style="fill:none;stroke:#B2B1B1;stroke-width:0.3;stroke-miterlimit:10;" d="M54.2,14.1"/>
<path style="fill:none;stroke:#B2B1B1;stroke-width:0.3;stroke-miterlimit:10;" d="M51.7,15.3"/>
<path style="fill:none;stroke:#B2B1B1;stroke-width:0.3;stroke-miterlimit:10;" d="M51.7,17.8"/>
<path style="fill:none;stroke:#B2B1B1;stroke-width:0.3;stroke-miterlimit:10;" d="M54.2,20.3"/>
<path style="fill:none;stroke:#B2B1B1;stroke-width:0.3;stroke-miterlimit:10;" d="M34.7,12.8"/>
<path style="fill:none;stroke:#B2B1B1;stroke-width:0.3;stroke-miterlimit:10;" d="M34.7,7.8"/>
<path style="fill:none;stroke:#B2B1B1;stroke-width:0.3;stroke-miterlimit:10;" d="M34.7,20.3"/>
<path style="fill:none;stroke:#B2B1B1;stroke-width:0.3;stroke-miterlimit:10;" d="M34.7,14.1"/>
<g>
	<path style="fill:none;stroke:#B2B1B1;stroke-width:0.3;stroke-miterlimit:10;" d="M36.8,15.3"/>
	<path style="fill:none;stroke:#B2B1B1;stroke-width:0.3;stroke-miterlimit:10;" d="M36.8,11.6"/>
	<path style="fill:none;stroke:#B2B1B1;stroke-width:0.3;stroke-miterlimit:10;" d="M36.8,10.3"/>
	<path style="fill:none;stroke:#B2B1B1;stroke-width:0.3;stroke-miterlimit:10;" d="M36.8,9.1"/>
	<line style="fill:none;stroke:#B2B1B1;stroke-width:0.3;stroke-miterlimit:10;" x1="34.3" y1="19.5" x2="53.8" y2="19.5"/>
	<line style="fill:none;stroke:#B2B1B1;stroke-width:0.3;stroke-miterlimit:10;" x1="34.3" y1="18.3" x2="49.2" y2="18.3"/>
	<line style="fill:none;stroke:#B2B1B1;stroke-width:0.3;stroke-miterlimit:10;" x1="34.3" y1="17" x2="49.2" y2="17"/>
	<line style="fill:none;stroke:#B2B1B1;stroke-width:0.3;stroke-miterlimit:10;" x1="34.3" y1="15.7" x2="49.2" y2="15.7"/>
	<line style="fill:none;stroke:#B2B1B1;stroke-width:0.3;stroke-miterlimit:10;" x1="34.3" y1="14.4" x2="53.8" y2="14.4"/>
	<line style="fill:none;stroke:#B2B1B1;stroke-width:0.3;stroke-miterlimit:10;" x1="34.3" y1="13.2" x2="53.8" y2="13.2"/>
	<line style="fill:none;stroke:#B2B1B1;stroke-width:0.3;stroke-miterlimit:10;" x1="34.4" y1="11.9" x2="49.3" y2="11.9"/>
	<line style="fill:none;stroke:#B2B1B1;stroke-width:0.3;stroke-miterlimit:10;" x1="34.3" y1="10.6" x2="53.8" y2="10.6"/>
	<line style="fill:none;stroke:#B2B1B1;stroke-width:0.3;stroke-miterlimit:10;" x1="34.3" y1="9.3" x2="49.2" y2="9.3"/>
	<line style="fill:none;stroke:#B2B1B1;stroke-width:0.3;stroke-miterlimit:10;" x1="34.3" y1="8.1" x2="49.2" y2="8.1"/>
	<line style="fill:none;stroke:#B2B1B1;stroke-width:0.3;stroke-miterlimit:10;" x1="34.3" y1="6.8" x2="53.8" y2="6.8"/>
</g>
<polygon style="fill:none;stroke:#B2B2B2;stroke-width:0.5;stroke-miterlimit:10;" points="31,0.5 31,26.5 31,26.7 31.3,26.7 
	57.3,26.7 57.5,26.7 57.5,26.5 57.5,0.5 57.5,0.2 57.3,0.2 31.3,0.2 31,0.2 "/>
<g>
	<line style="fill:none;stroke:#B2B1B1;stroke-width:0.3;stroke-miterlimit:10;" x1="85.1" y1="7.1" x2="65.6" y2="7.1"/>
	<line style="fill:none;stroke:#B2B1B1;stroke-width:0.3;stroke-miterlimit:10;" x1="82.6" y1="8.4" x2="67.7" y2="8.4"/>
	<line style="fill:none;stroke:#B2B1B1;stroke-width:0.3;stroke-miterlimit:10;" x1="82.6" y1="9.7" x2="67.7" y2="9.7"/>
	<line style="fill:none;stroke:#B2B1B1;stroke-width:0.3;stroke-miterlimit:10;" x1="82.6" y1="10.9" x2="67.7" y2="10.9"/>
	<line style="fill:none;stroke:#B2B1B1;stroke-width:0.3;stroke-miterlimit:10;" x1="85.1" y1="12.2" x2="65.6" y2="12.2"/>
	<line style="fill:none;stroke:#B2B1B1;stroke-width:0.3;stroke-miterlimit:10;" x1="85.1" y1="13.5" x2="65.6" y2="13.5"/>
	<line style="fill:none;stroke:#B2B1B1;stroke-width:0.3;stroke-miterlimit:10;" x1="82.6" y1="14.8" x2="67.7" y2="14.8"/>
	<line style="fill:none;stroke:#B2B1B1;stroke-width:0.3;stroke-miterlimit:10;" x1="85.1" y1="16" x2="65.6" y2="16"/>
	<line style="fill:none;stroke:#B2B1B1;stroke-width:0.3;stroke-miterlimit:10;" x1="82.6" y1="17.3" x2="67.7" y2="17.3"/>
	<line style="fill:none;stroke:#B2B1B1;stroke-width:0.3;stroke-miterlimit:10;" x1="82.6" y1="18.6" x2="67.7" y2="18.6"/>
	<line style="fill:none;stroke:#B2B1B1;stroke-width:0.3;stroke-miterlimit:10;" x1="85.1" y1="19.9" x2="65.6" y2="19.9"/>
</g>
<polygon style="fill:none;stroke:#B2B2B2;stroke-width:0.5;stroke-miterlimit:10;" points="62.1,0.5 62.1,26.5 62.1,26.7 62.3,26.7 
	88.3,26.7 88.6,26.7 88.6,26.5 88.6,0.5 88.6,0.2 88.3,0.2 62.3,0.2 62.1,0.2 "/>
<polygon style="fill:none;stroke:#B2B2B2;stroke-width:0.5;stroke-miterlimit:10;" points="93.2,0.5 93.2,26.5 93.2,26.7 93.4,26.7 
	119.4,26.7 119.7,26.7 119.7,26.5 119.7,0.5 119.7,0.2 119.4,0.2 93.4,0.2 93.2,0.2 "/>
<path style="fill:none;stroke:#B2B1B1;stroke-width:0.3;stroke-miterlimit:10;" d="M96.5,19.2"/>
<path style="fill:none;stroke:#B2B1B1;stroke-width:0.3;stroke-miterlimit:10;" d="M96.5,14.2"/>
<path style="fill:none;stroke:#B2B1B1;stroke-width:0.3;stroke-miterlimit:10;" d="M96.5,12.9"/>
<path style="fill:none;stroke:#B2B1B1;stroke-width:0.3;stroke-miterlimit:10;" d="M96.5,6.6"/>
<path style="fill:none;stroke:#B2B1B1;stroke-width:0.3;stroke-miterlimit:10;" d="M113.9,11.7"/>
<path style="fill:none;stroke:#B2B1B1;stroke-width:0.3;stroke-miterlimit:10;" d="M115.9,14.2"/>
<path style="fill:none;stroke:#B2B1B1;stroke-width:0.3;stroke-miterlimit:10;" d="M113.9,15.4"/>
<path style="fill:none;stroke:#B2B1B1;stroke-width:0.3;stroke-miterlimit:10;" d="M115.9,19.2"/>
<path style="fill:none;stroke:#B2B1B1;stroke-width:0.3;stroke-miterlimit:10;" d="M115.9,6.6"/>
<path style="fill:none;stroke:#B2B1B1;stroke-width:0.3;stroke-miterlimit:10;" d="M115.9,12.9"/>
<path style="fill:none;stroke:#B2B1B1;stroke-width:0.3;stroke-miterlimit:10;" d="M113.9,16.7"/>
<path style="fill:none;stroke:#B2B1B1;stroke-width:0.3;stroke-miterlimit:10;" d="M113.9,17.9"/>
<g>
	<path style="fill:none;stroke:#B2B1B1;stroke-width:0.3;stroke-miterlimit:10;" d="M98.8,17.6"/>
	<path style="fill:none;stroke:#B2B1B1;stroke-width:0.3;stroke-miterlimit:10;" d="M98.8,16.3"/>
	<path style="fill:none;stroke:#B2B1B1;stroke-width:0.3;stroke-miterlimit:10;" d="M98.8,15.1"/>
	<path style="fill:none;stroke:#B2B1B1;stroke-width:0.3;stroke-miterlimit:10;" d="M98.8,11.3"/>
	<path style="fill:none;stroke:#B2B1B1;stroke-width:0.3;stroke-miterlimit:10;" d="M98.8,8.8"/>
	<line style="fill:none;stroke:#B2B1B1;stroke-width:0.3;stroke-miterlimit:10;" x1="116.1" y1="7.1" x2="96.7" y2="7.1"/>
	<line style="fill:none;stroke:#B2B1B1;stroke-width:0.3;stroke-miterlimit:10;" x1="116.1" y1="8.4" x2="101.2" y2="8.4"/>
	<line style="fill:none;stroke:#B2B1B1;stroke-width:0.3;stroke-miterlimit:10;" x1="116.1" y1="9.7" x2="101.2" y2="9.7"/>
	<line style="fill:none;stroke:#B2B1B1;stroke-width:0.3;stroke-miterlimit:10;" x1="116.1" y1="10.9" x2="101.2" y2="10.9"/>
	<line style="fill:none;stroke:#B2B1B1;stroke-width:0.3;stroke-miterlimit:10;" x1="116.1" y1="12.2" x2="96.7" y2="12.2"/>
	<line style="fill:none;stroke:#B2B1B1;stroke-width:0.3;stroke-miterlimit:10;" x1="116.1" y1="13.5" x2="96.7" y2="13.5"/>
	<line style="fill:none;stroke:#B2B1B1;stroke-width:0.3;stroke-miterlimit:10;" x1="116.1" y1="14.8" x2="101.2" y2="14.8"/>
	<line style="fill:none;stroke:#B2B1B1;stroke-width:0.3;stroke-miterlimit:10;" x1="116.1" y1="16" x2="96.7" y2="16"/>
	<line style="fill:none;stroke:#B2B1B1;stroke-width:0.3;stroke-miterlimit:10;" x1="116.1" y1="17.3" x2="101.2" y2="17.3"/>
	<line style="fill:none;stroke:#B2B1B1;stroke-width:0.3;stroke-miterlimit:10;" x1="116.1" y1="18.6" x2="101.2" y2="18.6"/>
	<line style="fill:none;stroke:#B2B1B1;stroke-width:0.3;stroke-miterlimit:10;" x1="116.1" y1="19.9" x2="96.7" y2="19.9"/>
</g>
<polygon style="fill:none;stroke:#AD5E7A;stroke-width:0.5;stroke-miterlimit:10;" points="0.2,0.5 0.2,26.5 0.2,26.7 0.5,26.7 
	26.5,26.7 26.7,26.7 26.7,26.5 26.7,0.5 26.7,0.3 26.5,0.3 0.5,0.3 0.2,0.3 "/>
<path style="fill:none;stroke:#B2B1B1;stroke-width:0.3;stroke-miterlimit:10;" d="M23.4,7.8"/>
<path style="fill:none;stroke:#B2B1B1;stroke-width:0.3;stroke-miterlimit:10;" d="M23.4,12.8"/>
<path style="fill:none;stroke:#B2B1B1;stroke-width:0.3;stroke-miterlimit:10;" d="M23.4,14.1"/>
<path style="fill:none;stroke:#B2B1B1;stroke-width:0.3;stroke-miterlimit:10;" d="M23.4,20.3"/>
<path style="fill:none;stroke:#B2B1B1;stroke-width:0.3;stroke-miterlimit:10;" d="M6,15.3"/>
<path style="fill:none;stroke:#B2B1B1;stroke-width:0.3;stroke-miterlimit:10;" d="M4,12.8"/>
<path style="fill:none;stroke:#B2B1B1;stroke-width:0.3;stroke-miterlimit:10;" d="M6,11.6"/>
<path style="fill:none;stroke:#B2B1B1;stroke-width:0.3;stroke-miterlimit:10;" d="M4,7.8"/>
<path style="fill:none;stroke:#B2B1B1;stroke-width:0.3;stroke-miterlimit:10;" d="M4,20.3"/>
<path style="fill:none;stroke:#B2B1B1;stroke-width:0.3;stroke-miterlimit:10;" d="M4,14.1"/>
<path style="fill:none;stroke:#B2B1B1;stroke-width:0.3;stroke-miterlimit:10;" d="M6,10.3"/>
<path style="fill:none;stroke:#B2B1B1;stroke-width:0.3;stroke-miterlimit:10;" d="M6,9.1"/>
<g>
	<path style="fill:none;stroke:#B2B1B1;stroke-width:0.3;stroke-miterlimit:10;" d="M20.9,9.1"/>
	<path style="fill:none;stroke:#B2B1B1;stroke-width:0.3;stroke-miterlimit:10;" d="M20.9,10.3"/>
	<path style="fill:none;stroke:#B2B1B1;stroke-width:0.3;stroke-miterlimit:10;" d="M20.9,11.6"/>
	<path style="fill:none;stroke:#B2B1B1;stroke-width:0.3;stroke-miterlimit:10;" d="M20.9,15.3"/>
	<path style="fill:none;stroke:#B2B1B1;stroke-width:0.3;stroke-miterlimit:10;" d="M20.9,17.8"/>
	<line style="fill:none;stroke:#B2B1B1;stroke-width:0.3;stroke-miterlimit:10;" x1="3.6" y1="19.5" x2="23" y2="19.5"/>
	<line style="fill:none;stroke:#B2B1B1;stroke-width:0.3;stroke-miterlimit:10;" x1="3.6" y1="18.3" x2="23" y2="18.3"/>
	<line style="fill:none;stroke:#B2B1B1;stroke-width:0.3;stroke-miterlimit:10;" x1="3.6" y1="17" x2="23" y2="17"/>
	<line style="fill:none;stroke:#B2B1B1;stroke-width:0.3;stroke-miterlimit:10;" x1="3.6" y1="15.7" x2="23" y2="15.7"/>
	<line style="fill:none;stroke:#B2B1B1;stroke-width:0.3;stroke-miterlimit:10;" x1="3.6" y1="14.4" x2="23" y2="14.4"/>
	<line style="fill:none;stroke:#B2B1B1;stroke-width:0.3;stroke-miterlimit:10;" x1="3.6" y1="13.2" x2="23" y2="13.2"/>
	<line style="fill:none;stroke:#B2B1B1;stroke-width:0.3;stroke-miterlimit:10;" x1="3.7" y1="11.9" x2="23.1" y2="11.9"/>
	<line style="fill:none;stroke:#B2B1B1;stroke-width:0.3;stroke-miterlimit:10;" x1="3.6" y1="10.6" x2="23" y2="10.6"/>
	<line style="fill:none;stroke:#B2B1B1;stroke-width:0.3;stroke-miterlimit:10;" x1="3.6" y1="9.3" x2="23" y2="9.3"/>
	<line style="fill:none;stroke:#B2B1B1;stroke-width:0.3;stroke-miterlimit:10;" x1="3.6" y1="8.1" x2="23" y2="8.1"/>
	<line style="fill:none;stroke:#B2B1B1;stroke-width:0.3;stroke-miterlimit:10;" x1="3.6" y1="6.8" x2="23" y2="6.8"/>
</g>
<path style="fill:#B2B1B1;" d="M-169.3,115.6l-1.9,13.3c-0.1,0.4-0.4,0.7-0.8,0.6c-0.4-0.1-0.7-0.4-0.6-0.8l1.9-13.3
	c0.1-0.4,0.4-0.7,0.8-0.6C-169.5,114.9-169.2,115.2-169.3,115.6 M-176.1,129.7c-0.4,0-0.7-0.3-0.7-0.7l-0.1-13.5
	c0-0.4,0.3-0.7,0.7-0.7c0.4,0,0.7,0.3,0.7,0.7l0.1,13.5C-175.4,129.4-175.7,129.7-176.1,129.7 M-180.2,129.7
	c-0.4,0.1-0.8-0.2-0.8-0.6l-2.1-13.3c-0.1-0.4,0.2-0.8,0.6-0.8c0.4-0.1,0.8,0.2,0.8,0.6l2.1,13.3
	C-179.5,129.2-179.8,129.6-180.2,129.7 M-166.4,113.3c-0.1-0.2-0.4-0.3-0.6-0.3l-18.5,0.1c-0.2,0-0.4,0.1-0.6,0.3
	c-0.1,0.2-0.2,0.4-0.2,0.6l3.1,16.1c0.1,0.4,0.4,0.6,0.7,0.6l12.5-0.1c0.4,0,0.7-0.3,0.7-0.6l2.9-16.2
	C-166.2,113.7-166.3,113.4-166.4,113.3"/>
<path style="fill:none;stroke:#FFFFFF;stroke-width:2.100000e-02;" d="M-169.3,115.6l-1.9,13.3c-0.1,0.4-0.4,0.7-0.8,0.6
	c-0.4-0.1-0.7-0.4-0.6-0.8l1.9-13.3c0.1-0.4,0.4-0.7,0.8-0.6C-169.5,114.9-169.2,115.2-169.3,115.6z M-176.1,129.7
	c-0.4,0-0.7-0.3-0.7-0.7l-0.1-13.5c0-0.4,0.3-0.7,0.7-0.7c0.4,0,0.7,0.3,0.7,0.7l0.1,13.5C-175.4,129.4-175.7,129.7-176.1,129.7z
	 M-180.2,129.7c-0.4,0.1-0.8-0.2-0.8-0.6l-2.1-13.3c-0.1-0.4,0.2-0.8,0.6-0.8c0.4-0.1,0.8,0.2,0.8,0.6l2.1,13.3
	C-179.5,129.2-179.8,129.6-180.2,129.7z M-166.4,113.3c-0.1-0.2-0.4-0.3-0.6-0.3l-18.5,0.1c-0.2,0-0.4,0.1-0.6,0.3
	c-0.1,0.2-0.2,0.4-0.2,0.6l3.1,16.1c0.1,0.4,0.4,0.6,0.7,0.6l12.5-0.1c0.4,0,0.7-0.3,0.7-0.6l2.9-16.2
	C-166.2,113.7-166.3,113.4-166.4,113.3z"/>
<path style="fill:#B2B1B1;" d="M-179.1,108.7L-179.1,108.7l0-0.4l5.5,0l0,0.4L-179.1,108.7z M-165.4,110.1L-165.4,110.1l-2,0l0-1.2
	c0-0.1,0-0.2-0.1-0.2s-0.2-0.1-0.2-0.1l-4.5,0l0-1.1c0-0.2-0.1-0.4-0.2-0.5c-0.1-0.1-0.3-0.2-0.5-0.2l-6.9,0.1
	c-0.2,0-0.4,0.1-0.5,0.2s-0.2,0.3-0.2,0.5l0,1.1l-4.2,0c-0.1,0-0.2,0-0.2,0.1c-0.1,0.1-0.1,0.2-0.1,0.2l0,1.2l-2.2,0l0,2.2l21.8-0.2
	L-165.4,110.1z"/>
<path style="fill:none;stroke:#FFFFFF;stroke-width:2.100000e-02;" d="M-179.1,108.7L-179.1,108.7l0-0.4l5.5,0l0,0.4L-179.1,108.7z
	 M-165.4,110.1L-165.4,110.1l-2,0l0-1.2c0-0.1,0-0.2-0.1-0.2s-0.2-0.1-0.2-0.1l-4.5,0l0-1.1c0-0.2-0.1-0.4-0.2-0.5
	c-0.1-0.1-0.3-0.2-0.5-0.2l-6.9,0.1c-0.2,0-0.4,0.1-0.5,0.2s-0.2,0.3-0.2,0.5l0,1.1l-4.2,0c-0.1,0-0.2,0-0.2,0.1
	c-0.1,0.1-0.1,0.2-0.1,0.2l0,1.2l-2.2,0l0,2.2l21.8-0.2L-165.4,110.1z"/>
<rect x="-187.2" y="106.8" style="fill:none;" width="21.9" height="24"/>
<rect x="153.7" y="-34" style="fill:#0E6899;" width="34.9" height="19.6"/>
<g>
	<path style="fill:#FFFFFF;" d="M166.7-23.6v4.2h-0.9v-1.1c-0.4,0.7-1.2,1.1-2.4,1.1c-1.5,0-2.5-0.8-2.5-2c0-1.1,0.7-1.9,2.6-1.9
		h2.2v-0.4c0-1.2-0.7-1.8-1.9-1.8c-0.9,0-1.7,0.3-2.3,0.8l-0.4-0.7c0.7-0.6,1.7-0.9,2.8-0.9C165.7-26.2,166.7-25.3,166.7-23.6z
		 M165.8-21.4v-1.1h-2.1c-1.3,0-1.8,0.5-1.8,1.2c0,0.8,0.6,1.3,1.7,1.3C164.6-20,165.4-20.5,165.8-21.4z"/>
	<path style="fill:#FFFFFF;" d="M174.8-26.2v6.8h-0.9v-1.2c-0.5,0.8-1.4,1.3-2.5,1.3c-1.7,0-2.9-1-2.9-2.9v-4h0.9v3.9
		c0,1.5,0.8,2.2,2.1,2.2c1.4,0,2.3-0.9,2.3-2.5v-3.6C173.9-26.2,174.8-26.2,174.8-26.2z"/>
	<path style="fill:#FFFFFF;" d="M176.1-20.1l0.4-0.7c0.5,0.4,1.5,0.8,2.4,0.8c1.3,0,1.8-0.4,1.8-1.1c0-1.8-4.4-0.4-4.4-3.1
		c0-1.1,1-2,2.7-2c0.9,0,1.8,0.2,2.4,0.6l-0.4,0.7c-0.6-0.4-1.3-0.6-2-0.6c-1.2,0-1.8,0.5-1.8,1.1c0,1.8,4.4,0.5,4.4,3.1
		c0,1.2-1,2-2.8,2C177.8-19.3,176.7-19.6,176.1-20.1z"/>
</g>
<polygon style="fill:none;stroke:#B2B2B2;stroke-width:0.5;stroke-miterlimit:10;" points="154,-34.1 154,-14.1 154,-13.9 
	154.2,-13.9 223.1,-13.9 223.3,-13.9 223.3,-14.1 223.3,-34.1 223.3,-34.4 223.1,-34.4 154.2,-34.4 154,-34.4 "/>
<rect x="153.7" y="-34.6" style="fill:none;" width="69.8" height="21"/>
<rect x="-250.7" y="172.7" style="fill:#FFFFFF;" width="1014" height="21"/>
<path style="fill:#0E689A;" d="M376.5,172.7c-2.2,0-4,1.8-4,4v12.4c0,2.2,1.8,4,4,4h77.1c2.2,0,4-1.8,4-4v-12.4c0-2.2-1.8-4-4-4
	H376.5z"/>
<rect x="-250.4" y="173" style="fill:none;stroke:#C5C5C5;stroke-width:0.5;stroke-linecap:round;stroke-linejoin:round;" width="1013.5" height="20.5"/>
<path style="fill:#C5C5C5;" d="M747.2,175.6v1.5c0,0.4,0.2,0.8,0.5,1l6.4,4.8c0.3,0.2,0.3,0.6,0,0.8l-6.4,4.8
	c-0.3,0.2-0.5,0.6-0.5,1v1.5c0,0.4,0.5,0.6,0.8,0.4l10.1-7.6c0.3-0.2,0.3-0.7,0-1l-10.1-7.6C747.7,174.9,747.2,175.2,747.2,175.6"/>
<path style="fill:#C5C5C5;" d="M-234.8,190.9v-1.5c0-0.4-0.2-0.8-0.5-1l-6.4-4.8c-0.3-0.2-0.3-0.6,0-0.8l6.4-4.8
	c0.3-0.2,0.5-0.6,0.5-1v-1.5c0-0.4-0.5-0.6-0.8-0.4l-10.1,7.6c-0.3,0.2-0.3,0.7,0,1l10.1,7.6C-235.3,191.5-234.8,191.3-234.8,190.9"
	/>
<rect x="-250.7" y="172.7" style="fill:none;" width="1014" height="21"/>
<rect x="805.1" y="-71.8" style="fill:#FFFFFF;" width="21" height="702.1"/>
<path style="fill:#0E689A;" d="M805.1,342.1c0,2.2,1.8,4,4,4h12.4c2.2,0,4-1.8,4-4v-78.3c0-2.2-1.8-4-4-4h-12.4c-2.2,0-4,1.8-4,4
	V342.1z"/>
<rect x="805.4" y="-71.6" style="fill:none;stroke:#C5C5C5;stroke-width:0.5;stroke-linecap:round;stroke-linejoin:round;" width="20.5" height="701.6"/>
<path style="fill:#C5C5C5;" d="M808-58.3h1.5c0.4,0,0.8-0.2,1-0.5l4.8-6.5c0.2-0.3,0.6-0.3,0.8,0l4.8,6.5c0.2,0.3,0.6,0.5,1,0.5h1.5
	c0.4,0,0.6-0.5,0.4-0.8l-7.6-10.2c-0.2-0.3-0.7-0.3-1,0l-7.6,10.2C807.3-58.8,807.6-58.3,808-58.3"/>
<path style="fill:#C5C5C5;" d="M823.2,616h-1.5c-0.4,0-0.8,0.2-1,0.5l-4.8,6.5c-0.2,0.3-0.6,0.3-0.8,0l-4.8-6.5
	c-0.2-0.3-0.6-0.5-1-0.5H808c-0.4,0-0.6,0.5-0.4,0.8l7.6,10.2c0.2,0.3,0.7,0.3,1,0l7.6-10.2C823.9,616.4,823.7,616,823.2,616"/>
<rect x="805.1" y="-71.8" style="fill:none;" width="21" height="702.1"/>
<line style="fill:none;stroke:#B2B1B1;stroke-width:0.3;stroke-miterlimit:10;" x1="84.1" y1="40.3" x2="71.1" y2="40.3"/>
<line style="fill:none;stroke:#B2B1B1;stroke-width:0.3;stroke-miterlimit:10;" x1="84.1" y1="45.4" x2="71.1" y2="45.4"/>
<line style="fill:none;stroke:#B2B1B1;stroke-width:0.3;stroke-miterlimit:10;" x1="84.1" y1="50.5" x2="71.1" y2="50.5"/>
<text transform="matrix(1 0 0 1 66.5388 40.1639)" style="fill:#B2B1B1; font-family:'Montserrat-Bold'; font-size:3px;">1</text>
<text transform="matrix(1 0 0 1 66.5388 45.1796)" style="fill:#B2B1B1; font-family:'Montserrat-Bold'; font-size:3px;">2</text>
<text transform="matrix(1 0 0 1 66.5388 50.1952)" style="fill:#B2B1B1; font-family:'Montserrat-Bold'; font-size:3px;">3</text>
<polygon style="fill:none;stroke:#B2B2B2;stroke-width:0.5;stroke-miterlimit:10;" points="62.1,32.7 62.1,58.7 62.1,59 62.3,59 
	88.3,59 88.6,59 88.6,58.7 88.6,32.7 88.6,32.5 88.3,32.5 62.3,32.5 62.1,32.5 "/>
<polygon style="fill:none;stroke:#B2B2B2;stroke-width:0.5;stroke-miterlimit:10;" points="30.6,32.7 30.6,58.7 30.6,59 30.8,59 
	56.8,59 57.1,59 57.1,58.7 57.1,32.7 57.1,32.5 56.8,32.5 30.8,32.5 30.6,32.5 "/>
<polygon style="fill:none;stroke:#B2B2B2;stroke-width:0.5;stroke-miterlimit:10;" points="0.2,32.7 0.2,58.7 0.2,59 0.5,59 
	26.5,59 26.8,59 26.8,58.7 26.8,32.7 26.8,32.5 26.5,32.5 0.5,32.5 0.2,32.5 "/>
<path style="fill:none;stroke:#B2B1B1;stroke-width:0.3;stroke-miterlimit:10;" d="M52.1,50.8h-13 M52.1,45.7h-13 M52.1,40.6h-13"/>
<path style="fill:#B2B1B1;" d="M37,46.3c0.2-0.2,0.2-0.3,0.2-0.6c0-0.2,0-0.3-0.1-0.4c-0.1-0.1-0.2-0.2-0.3-0.3
	c-0.1-0.1-0.3-0.1-0.4-0.1c-0.2,0-0.3,0-0.4,0.1s-0.2,0.2-0.3,0.3c-0.1,0.1-0.1,0.3-0.1,0.4c0,0.2,0.1,0.4,0.2,0.6
	c0.2,0.2,0.3,0.2,0.6,0.2C36.7,46.5,36.9,46.4,37,46.3"/>
<path style="fill:#B2B1B1;" d="M36.4,41.6c0.5,0,0.9-0.4,0.9-0.9c0-0.5-0.4-0.9-0.9-0.9c-0.5,0-0.9,0.4-0.9,0.9
	C35.6,41.3,36,41.6,36.4,41.6"/>
<path style="fill:#B2B1B1;" d="M37,51.3c0.2-0.2,0.2-0.3,0.2-0.6c0-0.2,0-0.3-0.1-0.4c-0.1-0.1-0.2-0.2-0.3-0.3
	c-0.1-0.1-0.3-0.1-0.4-0.1c-0.2,0-0.3,0-0.4,0.1s-0.2,0.2-0.3,0.3c-0.1,0.1-0.1,0.3-0.1,0.4c0,0.2,0.1,0.4,0.2,0.6
	c0.2,0.2,0.3,0.2,0.6,0.2C36.7,51.5,36.9,51.5,37,51.3"/>
<path style="fill:none;stroke:#B2B1B1;stroke-width:0.3;stroke-miterlimit:10;" d="M21.8,50.8h-13 M21.8,45.7h-13 M21.8,40.6h-13"/>
<rect x="5.2" y="39.8" style="fill:#B2B1B1;" width="1.8" height="1.8"/>
<rect x="5.2" y="44.8" style="fill:#B2B1B1;" width="1.8" height="1.8"/>
<rect x="5.2" y="49.8" style="fill:#B2B1B1;" width="1.8" height="1.8"/>
<rect x="343.7" y="-35.1" style="fill:#F8F8F8;" width="245" height="57.8"/>
<text transform="matrix(1 0 0 1 418.4373 -8.8889)" style="fill:#B2B1B1; font-family:'Montserrat-Regular'; font-size:13px;">N</text>
<text transform="matrix(1 0 0 1 428.9153 -8.8889)" style="fill:#B2B1B1; font-family:'Montserrat-Regular'; font-size:13px;">e</text>
<text transform="matrix(1 0 0 1 436.5723 -8.8889)" style="fill:#B2B1B1; font-family:'Montserrat-Regular'; font-size:13px;">u</text>
<text transform="matrix(1 0 0 1 445.1903 -8.8889)" style="fill:#B2B1B1; font-family:'Montserrat-Regular'; font-size:13px;">e </text>
<text transform="matrix(1 0 0 1 456.4483 -8.8889)" style="fill:#B2B1B1; font-family:'Montserrat-Regular'; font-size:13px;">T</text>
<text transform="matrix(1 0 0 1 462.8183 -8.8889)" style="fill:#B2B1B1; font-family:'Montserrat-Regular'; font-size:13px;">e</text>
<text transform="matrix(1 0 0 1 470.3193 -8.8889)" style="fill:#B2B1B1; font-family:'Montserrat-Regular'; font-size:13px;">x</text>
<text transform="matrix(1 0 0 1 477.5343 -8.8889)" style="fill:#B2B1B1; font-family:'Montserrat-Regular'; font-size:13px;">t</text>
<text transform="matrix(1 0 0 1 482.5653 -8.8889)" style="fill:#B2B1B1; font-family:'Montserrat-Regular'; font-size:13px;">b</text>
<text transform="matrix(1 0 0 1 491.3793 -8.8889)" style="fill:#B2B1B1; font-family:'Montserrat-Regular'; font-size:13px;">o</text>
<text transform="matrix(1 0 0 1 499.1793 -8.8889)" style="fill:#B2B1B1; font-family:'Montserrat-Regular'; font-size:13px;">x </text>
<path style="fill:none;stroke:#B2B1B1;stroke-width:0.5;" d="M466.2,12.9c3.7,0,6.7-3,6.7-6.7c0-3.7-3-6.7-6.7-6.7s-6.7,3-6.7,6.7
	C459.5,9.9,462.5,12.9,466.2,12.9z"/>
<rect x="343.7" y="-35.1" style="fill:none;" width="245" height="57.8"/>
<line style="fill:none;stroke:#B2B1B1;stroke-width:1.2;" x1="466.2" y1="2.6" x2="466.2" y2="9.7"/>
<line style="fill:none;stroke:#B2B1B1;stroke-width:1.2;" x1="462.7" y1="6.2" x2="469.8" y2="6.2"/>
<path style="fill:none;stroke:#B2B1B1;stroke-width:0.5;" d="M355.3,52.7c3.7,0,6.7-3,6.7-6.7c0-3.7-3-6.7-6.7-6.7s-6.7,3-6.7,6.7
	C348.6,49.7,351.6,52.7,355.3,52.7z"/>
<line style="fill:none;stroke:#B2B1B1;stroke-width:1.2;" x1="355.3" y1="42.5" x2="355.3" y2="49.5"/>
<line style="fill:none;stroke:#B2B1B1;stroke-width:1.2;" x1="351.7" y1="46" x2="358.8" y2="46"/>
<g>
	<path style="fill:#B2B2B2;" d="M-140.6,67.8h-3.1V66h8.5v1.8h-3.1v8h-2.3L-140.6,67.8L-140.6,67.8z"/>
	<path style="fill:#B2B2B2;" d="M-134,66h2.3v9.8h-2.3V66z"/>
	<path style="fill:#B2B2B2;" d="M-120.9,69.6c0,2.2-1.6,3.5-4.3,3.5h-2v2.7h-2.3V66h4.2C-122.5,66-120.9,67.4-120.9,69.6z
		 M-123.2,69.6c0-1.1-0.7-1.7-2.1-1.7h-1.8v3.4h1.8C-123.9,71.2-123.2,70.6-123.2,69.6z"/>
	<path style="fill:#B2B2B2;" d="M-110.8,69.6c0,2.2-1.6,3.5-4.3,3.5h-2v2.7h-2.3V66h4.2C-112.4,66-110.8,67.4-110.8,69.6z
		 M-113.1,69.6c0-1.1-0.7-1.7-2.1-1.7h-1.8v3.4h1.8C-113.8,71.2-113.1,70.6-113.1,69.6z"/>
</g>
<path style="fill:#B2B2B2;" d="M-177.2,61.5L-177.2,61.5c-1.1,2.5-2,4.6-2.9,6.8h5.7C-175.3,66.1-176.2,63.9-177.2,61.5
	 M-173.7,79.1L-173.7,79.1c-0.3-1.2-0.2-1.8,1-1.8c1,0,1.3-0.7,1-1.6c-0.5-1.4-1.1-2.8-1.7-4.2c-0.1-0.2-0.6-0.5-0.8-0.5
	c-2.1,0-4.3,0-6.4,0c-0.3,0-0.7,0.3-0.9,0.6c-0.6,1.2-1.1,2.3-1.5,3.5c-0.6,1.5-0.3,2,1.3,2.2c0.8,0.1,1.2,0.3,1,1.1
	c-0.1,0.2-0.4,0.6-0.5,0.6c-2.5,0-5,0-7.6,0c-0.2-1-0.3-1.6,0.9-1.9c0.6-0.1,1.2-0.6,1.5-1.1c0.8-1.3,1.4-2.7,2-4
	c2.4-5.6,4.8-11.1,7.2-16.7c0.2-0.4,0.6-0.7,1-1c0.3,0.3,0.8,0.6,0.9,1c2.6,6,5.1,12.1,7.6,18.2c0.3,0.8,0.7,1.5,1.1,2.3
	c0.5,0.9,1.3,1.4,2.4,1.6c0.3,0.1,0.5,0.6,0.6,1c0,0.2-0.4,0.6-0.6,0.6C-167.4,79.1-170.6,79.1-173.7,79.1"/>
<path style="fill:#B2B1B1;" d="M-80,71.6c2.7,0,4.8-2,4.8-4.6c0-2.4-2.2-4.4-4.7-4.4c-2.7,0-4.8,2-4.8,4.6
	C-84.8,69.6-82.6,71.6-80,71.6 M-74.4,71.6L-74.4,71.6c0.4-0.2,0.6-0.2,0.9,0.1c1.2,1.2,2.5,2.4,3.8,3.5c0.1,0.1,0.2,0.2,0.3,0.2
	c0.2,0.2,0.2,0.5,0,0.7c-0.2,0.2-0.5,0.5-0.8,0.7c-0.3,0.3-0.5,0.3-0.9,0c-1.2-1.1-2.3-2.2-3.5-3.3c-0.1-0.1-0.3-0.2-0.4-0.4
	c-0.4-0.3-0.4-0.5-0.2-0.9c-0.4-0.3-0.7-0.7-1.1-1c-1.5,1.1-3.2,1.5-5,1.1c-1.4-0.3-2.5-1.1-3.4-2.2c-1.7-2.2-1.3-5.3,0.8-7.1
	c2.2-1.9,5.5-1.9,7.7-0.1c2.2,1.8,2.8,5.1,0.7,7.6C-75.2,70.9-74.8,71.2-74.4,71.6"/>
<path style="fill:none;stroke:#FFFFFF;stroke-width:1.000000e-03;" d="M-80,71.6c2.7,0,4.8-2,4.8-4.6c0-2.4-2.2-4.4-4.7-4.4
	c-2.7,0-4.8,2-4.8,4.6C-84.8,69.6-82.6,71.6-80,71.6z M-74.4,71.6L-74.4,71.6c0.4-0.2,0.6-0.2,0.9,0.1c1.2,1.2,2.5,2.4,3.8,3.5
	c0.1,0.1,0.2,0.2,0.3,0.2c0.2,0.2,0.2,0.5,0,0.7c-0.2,0.2-0.5,0.5-0.8,0.7c-0.3,0.3-0.5,0.3-0.9,0c-1.2-1.1-2.3-2.2-3.5-3.3
	c-0.1-0.1-0.3-0.2-0.4-0.4c-0.4-0.3-0.4-0.5-0.2-0.9c-0.4-0.3-0.7-0.7-1.1-1c-1.5,1.1-3.2,1.5-5,1.1c-1.4-0.3-2.5-1.1-3.4-2.2
	c-1.7-2.2-1.3-5.3,0.8-7.1c2.2-1.9,5.5-1.9,7.7-0.1c2.2,1.8,2.8,5.1,0.7,7.6C-75.2,70.9-74.8,71.2-74.4,71.6z"/>
<path style="fill:#B2B1B1;" d="M-16.3,62l3,3v-2.8c0-0.1-0.1-0.2-0.1-0.3l-3.8-3.8c-0.1-0.1-0.2-0.1-0.2,0l-3.9,3.9v2.8
	c0,0.1,0.1,0.1,0.1,0.1l2.8-2.9c0.1-0.1,0.1,0,0.1,0v7.8l0,0V72c0,0.1-0.1,0.1-0.1,0.1l-3-3v2.8c0,0.1,0.1,0.2,0.1,0.3l3.8,3.8
	c0.1,0.1,0.2,0.1,0.2,0l3.9-3.9v-2.8c0-0.1-0.1-0.1-0.1-0.1l-2.8,2.9c-0.1,0.1-0.1,0-0.1-0.1v-7.8l0,0V62
	C-16.4,61.9-16.4,61.9-16.3,62z"/>
<line style="fill:none;stroke:#B2B1B1;stroke-width:1.712;" x1="-52.4" y1="75.2" x2="-24.6" y2="75.2"/>
<line style="fill:none;stroke:#B2B1B1;stroke-width:1.712;" x1="-52.4" y1="66.9" x2="-24.6" y2="66.9"/>
<line style="fill:none;stroke:#B2B1B1;stroke-width:1.712;" x1="-52.4" y1="58.9" x2="-24.6" y2="58.9"/>
<line style="fill:none;stroke:#B2B1B1;stroke-width:1.712;" x1="-38.1" y1="94.2" x2="-38.1" y2="115.2"/>
<path style="fill:#B2B1B1;" d="M-30.6,108L-30.6,108h2.7l-2.6-2.6c-0.1-0.1-0.1-0.2,0.1-0.2h7v-1.4c0-0.2-0.2-0.3-0.4-0.3h-6.7
	c-0.2,0-0.2-0.1-0.1-0.2l2.6-2.6h-2.3c-0.2,0-0.5,0.1-0.6,0.2l-3.2,3.2c-0.1,0.1-0.1,0.4,0,0.5L-30.6,108z"/>
<path style="fill:#B2B1B1;" d="M-46.4,100.8L-46.4,100.8h-2.7l2.6,2.6c0.1,0.1,0.1,0.2-0.1,0.2h-7v1.4c0,0.2,0.2,0.3,0.3,0.3h6.7
	c0.2,0,0.2,0.1,0.1,0.2l-2.6,2.6h2.3c0.2,0,0.5-0.1,0.6-0.2l3.2-3.2c0.1-0.1,0.1-0.4,0-0.5L-46.4,100.8z"/>
<line style="fill:none;stroke:#B2B1B1;stroke-width:2;" x1="278.2" y1="-24.9" x2="242.2" y2="-24.9"/>
<path style="fill:#AD5E7A;" d="M269.7-21.8c2,0,3.7-1.7,3.7-3.7s-1.7-3.7-3.7-3.7s-3.7,1.7-3.7,3.7S267.7-21.8,269.7-21.8"/>
<g>
	<path style="fill:#B2B1B1;" d="M292.9-24.7c0,3.1-1.8,4.8-4.5,4.8c-0.9,0-1.8-0.2-2.4-0.6l0.6-1.3c0.5,0.3,1.1,0.4,1.7,0.4
		c1.7,0,2.8-1.1,2.8-3.1v0c-0.5,0.6-1.4,0.9-2.4,0.9c-1.8,0-3.1-1.1-3.1-2.8c0-1.8,1.5-3,3.3-3C291.4-29.2,292.9-27.6,292.9-24.7z
		 M290.9-26.4c0-0.9-0.7-1.5-1.9-1.5c-1.1,0-1.8,0.6-1.8,1.5s0.7,1.5,1.8,1.5C290.2-24.8,290.9-25.5,290.9-26.4z"/>
	<path style="fill:#B2B1B1;" d="M300.8-22.8c0,1.6-1.2,2.9-3.6,2.9c-1.3,0-2.6-0.4-3.4-1.1l0.7-1.3c0.7,0.5,1.7,0.9,2.7,0.9
		c1.2,0,1.9-0.5,1.9-1.4c0-0.9-0.6-1.4-2.4-1.4h-2.2l0.5-5h5.3v1.4h-3.9l-0.2,2.1h0.9C299.7-25.6,300.8-24.4,300.8-22.8z"/>
	<path style="fill:#B2B1B1;" d="M305.2-26.7c0-1.5,0.9-2.5,2.2-2.5s2.2,1,2.2,2.5s-0.9,2.5-2.2,2.5S305.2-25.2,305.2-26.7z
		 M308.5-26.7c0-1-0.4-1.6-1.1-1.6c-0.7,0-1.1,0.6-1.1,1.6s0.4,1.6,1.1,1.6C308.1-25.1,308.5-25.7,308.5-26.7z M312.8-29.1h1.3
		l-6.2,9.1h-1.3L312.8-29.1z M311.1-22.4c0-1.5,0.9-2.5,2.2-2.5s2.2,1,2.2,2.5s-0.9,2.5-2.2,2.5C312-19.9,311.1-20.9,311.1-22.4z
		 M314.4-22.4c0-1-0.4-1.6-1.1-1.6s-1.1,0.6-1.1,1.6c0,1,0.4,1.6,1.1,1.6S314.4-21.4,314.4-22.4z"/>
</g>
<rect x="256.1" y="29.2" style="fill:#FFFFFF;" width="13.1" height="16.8"/>
<polygon style="fill:none;stroke:#B2B1B1;stroke-width:0.941;" points="256.1,46 256.1,46 269.3,46 269.3,29.2 256.1,29.2 "/>
<rect x="248.5" y="28.8" style="fill:none;" width="21.3" height="24"/>
<line style="fill:none;stroke:#B2B1B1;stroke-width:0.941;stroke-dasharray:1.889,1.889;" x1="253" y1="36.9" x2="253" y2="47.3"/>
<line style="fill:none;stroke:#B2B1B1;stroke-width:0.941;stroke-dasharray:1.754,1.754;" x1="255.6" y1="49.2" x2="265.2" y2="49.2"/>
<path style="fill:none;stroke:#B2B1B1;stroke-width:0.941;" d="M266.1,49.2h0.9 M253,48.3v0.9h0.9 M253,34.1V35"/>
<polyline style="fill:none;stroke:#B2B1B1;stroke-width:0.941;" points="248.9,37.2 248.9,52.3 263,52.3 "/>
<rect x="248.5" y="28.8" style="fill:none;" width="21.3" height="24"/>
<rect x="287.7" y="29.2" style="fill:#FFFFFF;" width="14.7" height="18.7"/>
<polygon style="fill:none;stroke:#B2B1B1;stroke-width:0.804;" points="287.7,47.9 287.7,47.9 302.4,47.9 302.4,29.2 287.7,29.2 "/>
<rect x="287.3" y="28.8" style="fill:none;" width="19.9" height="24"/>
<rect x="292.1" y="33.7" style="fill:#B2B1B1;" width="14.7" height="18.7"/>
<polygon style="fill:none;stroke:#FFFFFF;stroke-width:0.804;" points="292.1,52.4 292.1,52.4 306.8,52.4 306.8,33.7 292.1,33.7 "/>
<rect x="287.3" y="28.8" style="fill:none;" width="19.9" height="24"/>
<rect x="188.8" y="32.7" style="fill:#0E6899;" width="34.9" height="19.6"/>
<text transform="matrix(1 0 0 1 195.8183 47.3626)" style="fill:#FFFFFF; font-family:'Montserrat-Regular'; font-size:13px;">e</text>
<text transform="matrix(1 0 0 1 203.2283 47.3626)" style="fill:#FFFFFF; font-family:'Montserrat-Regular'; font-size:13px;">i</text>
<text transform="matrix(1 0 0 1 206.1533 47.3626)" style="fill:#FFFFFF; font-family:'Montserrat-Regular'; font-size:13px;">n</text>
<polygon style="fill:none;stroke:#B2B2B2;stroke-width:0.5;stroke-miterlimit:10;" points="153.8,32.6 153.8,52.6 153.8,52.8 
	154.1,52.8 222.9,52.8 223.2,52.8 223.2,52.6 223.2,32.6 223.2,32.3 222.9,32.3 154.1,32.3 153.8,32.3 "/>
<rect x="153.6" y="32.1" style="fill:none;" width="70.2" height="21"/>
<line style="fill:none;stroke:#B2B1B1;stroke-width:2.5;" x1="294.9" y1="122.2" x2="294.9" y2="146.5"/>
<path style="fill:#B2B1B1;" d="M303,138L303,138h2.6l-2.5-2.5c-0.1-0.1-0.1-0.2,0.1-0.2h6.7V134c0-0.2-0.2-0.4-0.4-0.4h-6.7l2.7-2.7
	h-2.2c-0.2,0-0.5,0.1-0.6,0.2l-3.1,3.1c-0.1,0.1-0.1,0.4,0,0.5L303,138z"/>
<line style="fill:none;stroke:#B2B1B1;stroke-width:2.5;" x1="267.9" y1="146.3" x2="267.9" y2="122.1"/>
<path style="fill:#B2B1B1;" d="M259.8,130.5L259.8,130.5h-2.6l2.5,2.5c0.1,0.1,0.1,0.2-0.1,0.2h-6.7v1.3c0,0.2,0.2,0.4,0.4,0.4h6.7
	l-2.7,2.7h2.2c0.2,0,0.5-0.1,0.6-0.2l3.1-3.1c0.1-0.1,0.1-0.4,0-0.5L259.8,130.5z"/>
<line style="fill:none;stroke:#B2B1B1;stroke-width:2.5;" x1="78.2" y1="130.1" x2="102.4" y2="130.1"/>
<path style="fill:#B2B1B1;" d="M93.8,122L93.8,122v-2.6l-2.5,2.5c-0.1,0.1-0.2,0.1-0.2-0.1v-6.7h-1.3c-0.2,0-0.3,0.2-0.3,0.3v6.7
	l-2.7-2.7v2.2c0,0.2,0.1,0.5,0.2,0.6l3.1,3.1c0.1,0.1,0.4,0.1,0.5,0L93.8,122z"/>
<path style="fill:#B2B1B1;" d="M86.9,137.2L86.9,137.2v2.6l2.5-2.5c0.1-0.1,0.2-0.1,0.2,0.1v6.7h1.3c0.2,0,0.3-0.2,0.3-0.4V137
	l2.7,2.7v-2.2c0-0.2-0.1-0.5-0.2-0.6l-3.1-3.1c-0.1-0.1-0.4-0.1-0.5,0L86.9,137.2z"/>
<line style="fill:none;stroke:#B2B1B1;stroke-width:2.5;" x1="134.6" y1="142.9" x2="134.6" y2="118.6"/>
<path style="fill:#B2B1B1;" d="M126.6,127.3L126.6,127.3H124l2.5,2.5c0.1,0.1,0.1,0.2-0.1,0.2h-6.7v1.3c0,0.2,0.2,0.4,0.3,0.4h6.7
	l-2.7,2.7h2.2c0.2,0,0.5-0.1,0.6-0.2l3.1-3.1c0.1-0.1,0.1-0.4,0-0.5L126.6,127.3z"/>
<path style="fill:#B2B1B1;" d="M141.7,134.2L141.7,134.2h2.6l-2.5-2.5c-0.1-0.1-0.1-0.2,0.1-0.2h6.7v-1.3c0-0.2-0.2-0.4-0.4-0.4
	h-6.7l2.7-2.7h-2.2c-0.2,0-0.5,0.1-0.6,0.2l-3.1,3.1c-0.1,0.1-0.1,0.4,0,0.5L141.7,134.2z"/>
<line style="fill:none;stroke:#B2B1B1;stroke-width:2.5;" x1="166.8" y1="130.4" x2="191" y2="130.4"/>
<path style="fill:#B2B1B1;" d="M175.5,137.5L175.5,137.5v2.6l2.5-2.5c0.1-0.1,0.2-0.1,0.2,0.1v6.7h1.3c0.2,0,0.4-0.2,0.4-0.4v-6.7
	l2.7,2.7v-2.2c0-0.2-0.1-0.5-0.2-0.6l-3.1-3.1c-0.1-0.1-0.4-0.1-0.5,0L175.5,137.5z"/>
<line style="fill:none;stroke:#B2B1B1;stroke-width:2.5;" x1="211.9" y1="141.6" x2="236.1" y2="141.6"/>
<path style="fill:#B2B1B1;" d="M227.7,133.2L227.7,133.2v-2.6l-2.5,2.5c-0.1,0.1-0.2,0.1-0.2-0.1v-6.7h-1.3c-0.2,0-0.4,0.2-0.4,0.3
	v6.7l-2.7-2.7v2.2c0,0.2,0.1,0.5,0.2,0.6l3.1,3.1c0.1,0.1,0.4,0.1,0.5,0L227.7,133.2z"/>
<rect x="357.7" y="114.7" style="fill:#FFFFFF;" width="15.8" height="20.1"/>
<line style="fill:none;stroke:#B2B1B1;stroke-width:0.941;stroke-dasharray:1.971,1.971;" x1="360.7" y1="134.8" x2="371.5" y2="134.8"/>
<line style="fill:none;stroke:#B2B1B1;stroke-width:0.941;stroke-dasharray:2.006,2.006;" x1="373.5" y1="131.8" x2="373.5" y2="116.7"/>
<line style="fill:none;stroke:#B2B1B1;stroke-width:0.941;stroke-dasharray:1.971,1.971;" x1="370.6" y1="114.7" x2="359.7" y2="114.7"/>
<line style="fill:none;stroke:#B2B1B1;stroke-width:0.941;stroke-dasharray:2.006,2.006;" x1="357.7" y1="117.7" x2="357.7" y2="132.8"/>
<path style="fill:none;stroke:#B2B1B1;stroke-width:0.941;" d="M357.7,133.8v1h1 M358.7,114.7h-1v1 M373.5,115.7v-1h-1 M372.5,134.8
	h1v-1"/>
<polygon style="fill:#FFFFFF;" points="346.5,144.8 346.5,144.8 362.3,144.8 362.3,124.7 346.5,124.7 "/>
<line style="fill:none;stroke:#B2B1B1;stroke-width:0.941;stroke-dasharray:1.971,1.971;" x1="349.5" y1="144.8" x2="360.3" y2="144.8"/>
<line style="fill:none;stroke:#B2B1B1;stroke-width:0.941;stroke-dasharray:2.006,2.006;" x1="362.3" y1="141.8" x2="362.3" y2="126.7"/>
<line style="fill:none;stroke:#B2B1B1;stroke-width:0.941;stroke-dasharray:1.971,1.971;" x1="359.3" y1="124.7" x2="348.5" y2="124.7"/>
<line style="fill:none;stroke:#B2B1B1;stroke-width:0.941;stroke-dasharray:2.006,2.006;" x1="346.5" y1="127.7" x2="346.5" y2="142.8"/>
<path style="fill:none;stroke:#B2B1B1;stroke-width:0.941;" d="M346.5,143.8v1h1 M347.5,124.7h-1v1 M362.3,125.7v-1h-1 M361.3,144.8
	h1v-1"/>
<polygon style="fill:#FFFFFF;" points="337,152.8 337,152.8 352.8,152.8 352.8,132.7 337,132.7 "/>
<polygon style="fill:none;stroke:#B2B1B1;stroke-width:0.941;" points="337,152.8 337,152.8 352.8,152.8 352.8,132.7 337,132.7 "/>
<g>
	<polygon style="fill:#FFFFFF;" points="410.9,139.1 410.9,139.1 426.6,139.1 426.6,119 410.9,119 	"/>
	<polygon style="fill:none;stroke:#B2B1B1;stroke-width:0.941;" points="410.9,139.1 410.9,139.1 426.6,139.1 426.6,119 410.9,119 	
		"/>
	
		<line style="fill:none;stroke:#B2B1B1;stroke-width:0.941;stroke-dasharray:1.801,1.801;" x1="407.1" y1="127.6" x2="407.1" y2="141.1"/>
	
		<line style="fill:none;stroke:#B2B1B1;stroke-width:0.941;stroke-dasharray:2.091,2.091;" x1="410.2" y1="142.9" x2="421.8" y2="142.9"/>
	<path style="fill:none;stroke:#B2B1B1;stroke-width:0.941;" d="M422.8,142.9h1 M407.1,142v0.9h1 M407.1,124.9v0.9"/>
</g>
<g>
	<g>
		<rect x="483.4" y="107.3" style="fill:#FFFFFF;" width="15.8" height="20.1"/>
		<polygon style="fill:none;stroke:#B2B1B1;stroke-width:0.941;" points="483.4,127.4 483.4,127.4 499.2,127.4 499.2,107.3 
			483.4,107.3 		"/>
		<polygon style="fill:#FFFFFF;" points="472.2,137.4 472.2,137.4 487.9,137.4 487.9,117.3 472.2,117.3 		"/>
		
			<line style="fill:none;stroke:#B2B1B1;stroke-width:0.941;stroke-dasharray:1.971,1.971;" x1="475.1" y1="137.4" x2="486" y2="137.4"/>
		
			<line style="fill:none;stroke:#B2B1B1;stroke-width:0.941;stroke-dasharray:2.006,2.006;" x1="487.9" y1="134.3" x2="487.9" y2="119.3"/>
		
			<line style="fill:none;stroke:#B2B1B1;stroke-width:0.941;stroke-dasharray:1.971,1.971;" x1="485" y1="117.3" x2="474.2" y2="117.3"/>
		
			<line style="fill:none;stroke:#B2B1B1;stroke-width:0.941;stroke-dasharray:2.006,2.006;" x1="472.2" y1="120.3" x2="472.2" y2="135.3"/>
		<path style="fill:none;stroke:#B2B1B1;stroke-width:0.941;" d="M472.2,136.3v1h1 M473.2,117.3h-1v1 M487.9,118.3v-1h-1 M487,137.4
			h1v-1"/>
		<polygon style="fill:#FFFFFF;" points="462.7,145.4 462.7,145.4 478.5,145.4 478.5,125.3 462.7,125.3 		"/>
		
			<line style="fill:none;stroke:#B2B1B1;stroke-width:0.941;stroke-dasharray:1.971,1.971;" x1="465.7" y1="145.4" x2="476.5" y2="145.4"/>
		
			<line style="fill:none;stroke:#B2B1B1;stroke-width:0.941;stroke-dasharray:2.006,2.006;" x1="478.5" y1="142.3" x2="478.5" y2="127.3"/>
		
			<line style="fill:none;stroke:#B2B1B1;stroke-width:0.941;stroke-dasharray:1.971,1.971;" x1="475.5" y1="125.3" x2="464.7" y2="125.3"/>
		
			<line style="fill:none;stroke:#B2B1B1;stroke-width:0.941;stroke-dasharray:2.006,2.006;" x1="462.7" y1="128.3" x2="462.7" y2="143.3"/>
		<path style="fill:none;stroke:#B2B1B1;stroke-width:0.941;" d="M462.7,144.3v1h1 M463.7,125.3h-1v1 M478.5,126.3v-1h-1
			 M477.5,145.4h1v-1"/>
	</g>
	
		<line style="fill:none;stroke:#B2B1B1;stroke-width:0.941;stroke-dasharray:1.971,1.971;" x1="538.8" y1="140.8" x2="549.7" y2="140.8"/>
	
		<line style="fill:none;stroke:#B2B1B1;stroke-width:0.941;stroke-dasharray:2.006,2.006;" x1="551.6" y1="137.8" x2="551.6" y2="122.8"/>
	
		<line style="fill:none;stroke:#B2B1B1;stroke-width:0.941;stroke-dasharray:1.971,1.971;" x1="548.7" y1="120.8" x2="537.8" y2="120.8"/>
	
		<line style="fill:none;stroke:#B2B1B1;stroke-width:0.941;stroke-dasharray:2.006,2.006;" x1="535.9" y1="123.8" x2="535.9" y2="138.8"/>
	<path style="fill:none;stroke:#B2B1B1;stroke-width:0.941;" d="M535.9,139.8v1h1 M536.9,120.8h-1v1 M551.6,121.8v-1h-1
		 M550.7,140.8h1v-1"/>
	<polyline style="fill:none;stroke:#B2B1B1;stroke-width:0.941;" points="532.1,126.6 532.1,144.6 548.8,144.6 	"/>
</g>
<g>
	<g>
		<defs>
			<rect id="SVGID_1_" x="-223.2" y="234.7" width="241.7" height="1"/>
		</defs>
		<clipPath id="SVGID_00000020365862718144333690000012839128503055253921_">
			<use xlink:href="#SVGID_1_"  style="overflow:visible;"/>
		</clipPath>
		
			<line style="clip-path:url(#SVGID_00000020365862718144333690000012839128503055253921_);fill:none;stroke:#B2B2B2;stroke-linecap:round;stroke-linejoin:round;stroke-dasharray:0,3.009;" x1="-219.7" y1="235.2" x2="16.5" y2="235.2"/>
	</g>
	<g>
		<defs>
			<rect id="SVGID_00000160184951319327787530000002374188964024862599_" x="-223.2" y="234.7" width="241.7" height="1"/>
		</defs>
		<clipPath id="SVGID_00000036213273448808715240000005754609769682258073_">
			<use xlink:href="#SVGID_00000160184951319327787530000002374188964024862599_"  style="overflow:visible;"/>
		</clipPath>
		
			<path style="clip-path:url(#SVGID_00000036213273448808715240000005754609769682258073_);fill:none;stroke:#B2B2B2;stroke-linecap:round;stroke-linejoin:round;" d="
			M18,235.2L18,235.2 M-222.7,235.2L-222.7,235.2"/>
	</g>
</g>
<circle style="fill:none;stroke:#4F4D4D;stroke-width:0.5;" cx="-176.3" cy="14" r="12.8"/>
<polygon style="fill:#0E689A;" points="-32.9,-1.1 -45.9,-1.1 -39.5,9.4 "/>
<polygon style="fill:#B2B1B1;" points="-24.9,127.5 -35.3,133.8 -24.9,140.5 "/>
<polygon style="fill:#B2B1B1;" points="-53.9,140.5 -43.4,134.1 -53.9,127.5 "/>
<polygon style="fill:#B2B1B1;" points="28.7,127.5 18.2,133.8 28.7,140.5 "/>
<polygon style="fill:#B2B1B1;" points="-6.5,140.5 4,134.1 -6.5,127.5 "/>
<rect x="153.7" y="-1.1" style="fill:#0E6899;" width="34.9" height="19.6"/>
<polygon style="fill:none;stroke:#B2B2B2;stroke-width:0.5;stroke-miterlimit:10;" points="154,-1.2 154,18.8 154,19.1 154.2,19.1 
	223.1,19.1 223.3,19.1 223.3,18.8 223.3,-1.2 223.3,-1.4 223.1,-1.4 154.2,-1.4 154,-1.4 "/>
<rect x="153.7" y="-1.7" style="fill:none;" width="69.8" height="21"/>
<rect x="189.1" y="65" style="fill:#0E6899;" width="34.9" height="19.6"/>
<polygon style="fill:none;stroke:#B2B2B2;stroke-width:0.5;stroke-miterlimit:10;" points="154.1,64.9 154.1,84.9 154.1,85.1 
	154.3,85.1 223.2,85.1 223.4,85.1 223.4,84.9 223.4,64.9 223.4,64.6 223.2,64.6 154.3,64.6 154.1,64.6 "/>
<rect x="153.8" y="64.4" style="fill:none;" width="70.2" height="21"/>
<line style="fill:none;stroke:#B2B1B1;stroke-width:2;" x1="277.1" y1="-5.1" x2="241.1" y2="-5.1"/>
<path style="fill:#AD5E7A;" d="M268.6-2c2,0,3.7-1.7,3.7-3.7s-1.7-3.7-3.7-3.7s-3.7,1.7-3.7,3.7S266.6-2,268.6-2"/>
<line style="fill:none;stroke:#B2B1B1;stroke-width:2;" x1="585.4" y1="25.7" x2="549.4" y2="25.7"/>
<path style="fill:#AD5E7A;" d="M576.9,28.8c2,0,3.7-1.7,3.7-3.7s-1.7-3.7-3.7-3.7s-3.7,1.7-3.7,3.7S574.9,28.8,576.9,28.8"/>
</svg>
