<?xml version="1.0" encoding="utf-8"?>
<!-- Generator: Adobe Illustrator 26.5.0, SVG Export Plug-In . SVG Version: 6.00 Build 0)  -->
<svg version="1.1" id="Ebene_1" xmlns="http://www.w3.org/2000/svg" x="0px" y="0px"
     width="27px" height="27px" viewBox="0 0 27 27" style="enable-background:new 0 0 27 27;" xml:space="preserve">
<polyline style="fill:none;stroke:#C5C5C5;stroke-width:3;stroke-linecap:round;stroke-linejoin:round;" points="1815.6,908.4
	1809.4,899.4 1802.6,908.4 "/>
<path style="fill:none;stroke:#B2B1B1;stroke-width:0.3;stroke-miterlimit:10;" d="M23.4-18.1"/>
<path style="fill:none;stroke:#B2B1B1;stroke-width:0.3;stroke-miterlimit:10;" d="M23.4-11.9"/>
<path style="fill:none;stroke:#B2B1B1;stroke-width:0.3;stroke-miterlimit:10;" d="M6-16.9"/>
<path style="fill:none;stroke:#B2B1B1;stroke-width:0.3;stroke-miterlimit:10;" d="M4-11.9"/>
<path style="fill:none;stroke:#B2B1B1;stroke-width:0.3;stroke-miterlimit:10;" d="M4-18.1"/>
<path style="fill:#0E689A;" d="M805.1,309.9c0,2.2,1.8,4,4,4h12.4c2.2,0,4-1.8,4-4v-78.3c0-2.2-1.8-4-4-4h-12.4c-2.2,0-4,1.8-4,4
	V309.9z"/>
<path style="fill:#C5C5C5;" d="M823.2,583.8h-1.5c-0.4,0-0.8,0.2-1,0.5l-4.8,6.5c-0.2,0.3-0.6,0.3-0.8,0l-4.8-6.5
	c-0.2-0.3-0.6-0.5-1-0.5H808c-0.4,0-0.6,0.5-0.4,0.8l7.6,10.2c0.2,0.3,0.7,0.3,1,0l7.6-10.2C823.9,584.2,823.7,583.8,823.2,583.8"/>
<polygon style="fill:none;stroke:#AD5E7A;stroke-width:0.5;stroke-miterlimit:10;" points="0.2,0.5 0.2,26.5 0.2,26.8 0.5,26.8
	26.5,26.8 26.8,26.8 26.8,26.5 26.8,0.5 26.8,0.3 26.5,0.3 0.5,0.3 0.2,0.3 "/>
<g>
	<rect x="8.5" y="19.1" style="fill:#B2B1B1;" width="15.3" height="0.8"/>
	<rect x="8.5" y="13.4" style="fill:#B2B1B1;" width="15.3" height="0.8"/>
</g>
<rect x="8.5" y="7.7" style="fill:#B2B1B1;" width="15.3" height="0.8"/>
<g>
	<path style="fill:#B2B1B1;" d="M6.4,8.8H4.6L4.3,9.6H3.6l1.6-3.5h0.6l1.6,3.5H6.7L6.4,8.8z M6.2,8.3L5.5,6.8L4.9,8.3H6.2z"/>
</g>
<g>
	<path style="fill:#B2B1B1;" d="M7.2,14.4c0,0.6-0.5,1-1.4,1H4.1v-3.5h1.6c0.8,0,1.3,0.4,1.3,0.9c0,0.4-0.2,0.6-0.5,0.8
		C7,13.6,7.2,13.9,7.2,14.4z M4.8,12.3v1h0.9c0.5,0,0.7-0.2,0.7-0.5c0-0.3-0.3-0.5-0.7-0.5L4.8,12.3L4.8,12.3z M6.6,14.3
		c0-0.4-0.3-0.5-0.8-0.5H4.8v1h1.1C6.3,14.8,6.6,14.7,6.6,14.3z"/>
</g>
<g>
	<path style="fill:#B2B1B1;" d="M3.9,19c0-1,0.8-1.8,1.9-1.8c0.6,0,1.1,0.2,1.4,0.6l-0.4,0.4c-0.3-0.3-0.6-0.4-0.9-0.4
		c-0.7,0-1.3,0.5-1.3,1.2s0.5,1.2,1.3,1.2c0.4,0,0.7-0.1,0.9-0.4l0.4,0.4c-0.3,0.4-0.8,0.6-1.4,0.6C4.7,20.8,3.9,20,3.9,19z"/>
</g>
</svg>
