<?xml version="1.0" encoding="utf-8"?>
<!-- Generator: Adobe Illustrator 27.0.0, SVG Export Plug-In . SVG Version: 6.00 Build 0)  -->
<svg version="1.1" id="Ebene_1" xmlns="http://www.w3.org/2000/svg" x="0px" y="0px"
     width="27px" height="27px" viewBox="0 0 27 27" style="enable-background:new 0 0 27 27;" xml:space="preserve">
<path style="fill:none;stroke:#B2B1B1;stroke-width:0.3;stroke-miterlimit:10;" d="M20.9,9.1"/>
    <path style="fill:none;stroke:#B2B1B1;stroke-width:0.3;stroke-miterlimit:10;" d="M20.9,10.3"/>
    <path style="fill:none;stroke:#B2B1B1;stroke-width:0.3;stroke-miterlimit:10;" d="M20.9,11.6"/>
    <path style="fill:none;stroke:#B2B1B1;stroke-width:0.3;stroke-miterlimit:10;" d="M20.9,15.3"/>
    <path style="fill:none;stroke:#B2B1B1;stroke-width:0.3;stroke-miterlimit:10;" d="M20.9,17.8"/>
    <polygon style="fill:none;stroke:#AD5E7A;stroke-width:0.5;stroke-miterlimit:10;" points="0.2,0.5 0.2,26.5 0.2,26.7 0.5,26.7
	26.5,26.7 26.7,26.7 26.7,26.5 26.7,0.5 26.7,0.2 26.5,0.2 0.5,0.2 0.2,0.2 "/>
    <g>
	<rect x="8.336" y="20.6" style="fill:#B2B1B1;" width="14.8" height="1"/>
</g>
    <g>
	<rect x="3.8" y="17.4" style="fill:#B2B1B1;" width="19.5" height="1"/>
</g>
    <g>
	<rect x="8.436" y="14.4" style="fill:#B2B1B1;" width="14.8" height="1"/>
</g>
    <g>
	<rect x="3.7" y="11.6" style="fill:#B2B1B1;" width="19.5" height="1"/>
</g>
    <g>
	<rect x="8.436" y="8.4" style="fill:#B2B1B1;" width="14.8" height="1"/>
</g>
    <g>
	<rect x="3.8" y="5.4" style="fill:#B2B1B1;" width="19.5" height="1"/>
</g>
</svg>
