<?xml version="1.0" encoding="utf-8"?>
<!-- Generator: Adobe Illustrator 26.5.0, SVG Export Plug-In . SVG Version: 6.00 Build 0)  -->
<svg version="1.1" id="Ebene_1" xmlns="http://www.w3.org/2000/svg" x="0px" y="0px"
     width="27px" height="27px" viewBox="0 0 27 27" style="enable-background:new 0 0 27 27;" xml:space="preserve">
<style type="text/css">
	.st0{fill:none;stroke:#AD5E7A;stroke-width:0.5;stroke-miterlimit:10;}
	.st1{fill:#B2B1B1;}
</style>
    <polygon class="st0" points="0.2,0.5 0.2,26.5 0.2,26.8 0.5,26.8 26.5,26.8 26.8,26.8 26.8,26.5 26.8,0.5 26.8,0.3 26.5,0.3
	0.5,0.3 0.2,0.3 "/>
    <g>
	<rect x="8.5" y="19.1" class="st1" width="15.3" height="0.8"/>
        <rect x="8.5" y="13.4" class="st1" width="15.3" height="0.8"/>
</g>
    <rect x="8.5" y="7.7" class="st1" width="15.3" height="0.8"/>
    <g>
	<path class="st1" d="M6.2,6.1v3.5H5.3V6.8H4.7V6.1H6.2z"/>
</g>
    <g>
	<path class="st1" d="M6.7,14.8v0.6H4.2v-0.5l1.3-1.3c0.3-0.3,0.3-0.5,0.3-0.6c0-0.3-0.2-0.5-0.5-0.5c-0.3,0-0.5,0.2-0.6,0.3
		l-0.6-0.3c0.3-0.3,0.8-0.6,1.3-0.6c0.8,0,1.3,0.3,1.3,0.9c0,0.3-0.2,0.6-0.6,1.1l-0.8,0.8H6.7L6.7,14.8z"/>
</g>
    <g>
	<path class="st1" d="M6.9,19.6c0,0.7-0.5,1.2-1.5,1.2c-0.5,0-1-0.2-1.4-0.3l0.3-0.7c0.3,0.2,0.7,0.3,1,0.3c0.3,0,0.7-0.2,0.7-0.5
		c0-0.3-0.2-0.5-0.7-0.5H5v-0.5l0.7-0.7H4.1v-0.7h2.6v0.5l-0.9,0.9C6.5,18.7,6.9,19.1,6.9,19.6z"/>
</g>
</svg>
