<?xml version="1.0" encoding="utf-8"?>
<!-- Generator: Adobe Illustrator 27.0.0, SVG Export Plug-In . SVG Version: 6.00 Build 0)  -->
<svg version="1.1" id="Ebene_1" xmlns="http://www.w3.org/2000/svg" x="0px" y="0px"
     width="27px" height="27px" viewBox="0 0 27 27" style="enable-background:new 0 0 27 27;" xml:space="preserve">
<g>
	<g>
		<line style="fill:none;stroke:#B2B1B1;stroke-width:0.3;stroke-miterlimit:10;" x1="22.3" y1="18.9" x2="9.3" y2="18.9"/>
        <line style="fill:none;stroke:#B2B1B1;stroke-width:0.3;stroke-miterlimit:10;" x1="22.3" y1="8.8" x2="9.3" y2="8.8"/>
        <line style="fill:none;stroke:#B2B1B1;stroke-width:0.3;stroke-miterlimit:10;" x1="22.3" y1="13.9" x2="9.3" y2="13.9"/>
        <g>
			<path style="fill:#B2B1B1;" d="M5.6,7.3v2.1H5.1V7.7H4.7V7.3H5.6z"/>
		</g>
        <g>
			<path style="fill:#B2B1B1;" d="M6.4,14.3v0.4H4.8v-0.3l0.8-0.8c0.2-0.2,0.2-0.3,0.2-0.4c0-0.2-0.1-0.3-0.3-0.3
				c-0.2,0-0.3,0.1-0.4,0.2l-0.4-0.2c0.2-0.2,0.5-0.4,0.8-0.4c0.5,0,0.8,0.2,0.8,0.6c0,0.2-0.1,0.4-0.4,0.7l-0.5,0.5H6.4L6.4,14.3z"
            />
		</g>
        <g>
			<path style="fill:#B2B1B1;" d="M6.4,19c0,0.4-0.3,0.7-0.9,0.7c-0.3,0-0.6-0.1-0.8-0.2l0.2-0.4c0.2,0.1,0.4,0.2,0.6,0.2
				s0.4-0.1,0.4-0.3c0-0.2-0.1-0.3-0.4-0.3H5.3v-0.3L5.7,18H4.8v-0.4h1.5v0.3l-0.5,0.5C6.2,18.5,6.4,18.7,6.4,19z"/>
		</g>
	</g>
    <polygon style="fill:none;stroke:#AD5E7A;stroke-width:0.5;stroke-miterlimit:10;" points="0.2,0.5 0.2,26.5 0.2,26.8 0.5,26.8
		26.5,26.8 26.8,26.8 26.8,26.5 26.8,0.5 26.8,0.3 26.5,0.3 0.5,0.3 0.2,0.3 	"/>
</g>
</svg>
