<?xml version="1.0" encoding="utf-8"?>
<!-- Generator: Adobe Illustrator 26.5.0, SVG Export Plug-In . SVG Version: 6.00 Build 0)  -->
<svg version="1.1" id="Ebene_1" xmlns="http://www.w3.org/2000/svg" xmlns:xlink="http://www.w3.org/1999/xlink" x="0px" y="0px"
	 width="27px" height="27px" viewBox="0 0 27 27" style="enable-background:new 0 0 27 27;" xml:space="preserve">
<polyline style="fill:none;stroke:#C5C5C5;stroke-width:3;stroke-linecap:round;stroke-linejoin:round;" points="1785.3,908.4 
	1779,899.4 1772.3,908.4 "/>
<circle style="fill:#FFAEFF;stroke:#4F4D4D;stroke-width:0.5;" cx="-206.6" cy="-54.3" r="12.8"/>
<rect x="-174.1" y="-65.4" style="fill:#F8F8F8;" width="119.9" height="21"/>
<polygon style="fill:#0E689A;" points="-63.3,-60.1 -76.3,-60.1 -70,-49.6 "/>
<g>
	<g>
		<line style="fill:none;stroke:#B2B1B1;stroke-width:0.65;stroke-miterlimit:10;" x1="49.7" y1="-47.8" x2="60" y2="-47.8"/>
		<g>
			<path style="fill:#B2B1B1;" d="M51-53.1v-5.2h1.3v5.1c0,2,0.9,2.9,2.6,2.9s2.6-0.9,2.6-2.9v-5.1h1.3v5.2c0,2.6-1.4,4-3.8,4
				C52.4-49,51-50.4,51-53.1z"/>
		</g>
	</g>
	<polygon style="fill:none;stroke:#B2B2B2;stroke-width:0.5;stroke-miterlimit:10;" points="41.6,-66 41.6,-40 41.6,-39.8 
		41.8,-39.8 67.8,-39.8 68.1,-39.8 68.1,-40 68.1,-66 68.1,-66.3 67.8,-66.3 41.8,-66.3 41.6,-66.3 	"/>
</g>
<g>
	<g>
		<path style="fill:#B2B1B1;" d="M20.2-58h1.3l-1.8,9.1h-1.3L20.2-58z"/>
	</g>
	<polygon style="fill:none;stroke:#B2B2B2;stroke-width:0.5;stroke-miterlimit:10;" points="6.7,-66.4 6.7,-40.4 6.7,-40.2 7,-40.2 
		33,-40.2 33.2,-40.2 33.2,-40.4 33.2,-66.4 33.2,-66.7 33,-66.7 7,-66.7 6.7,-66.7 	"/>
</g>
<g>
	<g>
		<path style="fill:#B2B1B1;" d="M-12.9-51.3c0,1.6-1.2,2.5-3.6,2.5h-4.7v-9.1h4.4c2.3,0,3.4,0.9,3.4,2.4c0,0.9-0.5,1.6-1.2,2
			C-13.6-53.2-12.9-52.4-12.9-51.3z M-19.2-56.3v2.1h2.1c1,0,1.6-0.4,1.6-1.1s-0.6-1.1-1.6-1.1L-19.2-56.3L-19.2-56.3z M-15-51.5
			c0-0.8-0.6-1.1-1.7-1.1h-2.5v2.2h2.5C-15.6-50.4-15-50.7-15-51.5z"/>
	</g>
	<polygon style="fill:none;stroke:#B2B2B2;stroke-width:0.5;stroke-miterlimit:10;" points="-30.3,-66.4 -30.3,-40.4 -30.3,-40.1 
		-30.1,-40.1 -4.1,-40.1 -3.8,-40.1 -3.8,-40.4 -3.8,-66.4 -3.8,-66.6 -4.1,-66.6 -30.1,-66.6 -30.3,-66.6 	"/>
</g>
<path style="fill:none;stroke:#B2B1B1;stroke-width:0.3;stroke-miterlimit:10;" d="M23.8-24.4"/>
<path style="fill:none;stroke:#B2B1B1;stroke-width:0.3;stroke-miterlimit:10;" d="M21.3-23.1"/>
<path style="fill:none;stroke:#B2B1B1;stroke-width:0.3;stroke-miterlimit:10;" d="M21.3-21.9"/>
<path style="fill:none;stroke:#B2B1B1;stroke-width:0.3;stroke-miterlimit:10;" d="M21.3-20.6"/>
<path style="fill:none;stroke:#B2B1B1;stroke-width:0.3;stroke-miterlimit:10;" d="M23.8-19.4"/>
<path style="fill:none;stroke:#B2B1B1;stroke-width:0.3;stroke-miterlimit:10;" d="M23.8-18.1"/>
<path style="fill:none;stroke:#B2B1B1;stroke-width:0.3;stroke-miterlimit:10;" d="M21.3-16.9"/>
<path style="fill:none;stroke:#B2B1B1;stroke-width:0.3;stroke-miterlimit:10;" d="M21.3-14.4"/>
<path style="fill:none;stroke:#B2B1B1;stroke-width:0.3;stroke-miterlimit:10;" d="M23.8-11.9"/>
<g>
	<path style="fill:none;stroke:#B2B1B1;stroke-width:0.3;stroke-miterlimit:10;" d="M4.4-19.4"/>
	<path style="fill:none;stroke:#B2B1B1;stroke-width:0.3;stroke-miterlimit:10;" d="M4.4-24.4"/>
	<path style="fill:none;stroke:#B2B1B1;stroke-width:0.3;stroke-miterlimit:10;" d="M4.4-11.9"/>
	<path style="fill:none;stroke:#B2B1B1;stroke-width:0.3;stroke-miterlimit:10;" d="M4.4-18.1"/>
	<g>
		<path style="fill:none;stroke:#B2B1B1;stroke-width:0.3;stroke-miterlimit:10;" d="M6.4-16.9"/>
		<path style="fill:none;stroke:#B2B1B1;stroke-width:0.3;stroke-miterlimit:10;" d="M6.4-20.6"/>
		<path style="fill:none;stroke:#B2B1B1;stroke-width:0.3;stroke-miterlimit:10;" d="M6.4-21.9"/>
		<path style="fill:none;stroke:#B2B1B1;stroke-width:0.3;stroke-miterlimit:10;" d="M6.4-23.1"/>
		<line style="fill:none;stroke:#B2B1B1;stroke-width:0.3;stroke-miterlimit:10;" x1="4" y1="-12.7" x2="23.5" y2="-12.7"/>
		<line style="fill:none;stroke:#B2B1B1;stroke-width:0.3;stroke-miterlimit:10;" x1="4" y1="-13.9" x2="18.9" y2="-13.9"/>
		<line style="fill:none;stroke:#B2B1B1;stroke-width:0.3;stroke-miterlimit:10;" x1="4" y1="-15.2" x2="18.9" y2="-15.2"/>
		<line style="fill:none;stroke:#B2B1B1;stroke-width:0.3;stroke-miterlimit:10;" x1="4" y1="-16.5" x2="18.9" y2="-16.5"/>
		<line style="fill:none;stroke:#B2B1B1;stroke-width:0.3;stroke-miterlimit:10;" x1="4" y1="-17.8" x2="23.5" y2="-17.8"/>
		<line style="fill:none;stroke:#B2B1B1;stroke-width:0.3;stroke-miterlimit:10;" x1="4" y1="-19" x2="23.5" y2="-19"/>
		<line style="fill:none;stroke:#B2B1B1;stroke-width:0.3;stroke-miterlimit:10;" x1="4.1" y1="-20.3" x2="19" y2="-20.3"/>
		<line style="fill:none;stroke:#B2B1B1;stroke-width:0.3;stroke-miterlimit:10;" x1="4" y1="-21.6" x2="23.5" y2="-21.6"/>
		<line style="fill:none;stroke:#B2B1B1;stroke-width:0.3;stroke-miterlimit:10;" x1="4" y1="-22.9" x2="18.9" y2="-22.9"/>
		<line style="fill:none;stroke:#B2B1B1;stroke-width:0.3;stroke-miterlimit:10;" x1="4" y1="-24.1" x2="18.9" y2="-24.1"/>
		<line style="fill:none;stroke:#B2B1B1;stroke-width:0.3;stroke-miterlimit:10;" x1="4" y1="-25.4" x2="23.5" y2="-25.4"/>
	</g>
	<polygon style="fill:none;stroke:#B2B2B2;stroke-width:0.5;stroke-miterlimit:10;" points="0.7,-31.7 0.7,-5.7 0.7,-5.5 0.9,-5.5 
		26.9,-5.5 27.2,-5.5 27.2,-5.7 27.2,-31.7 27.2,-32 26.9,-32 0.9,-32 0.7,-32 	"/>
</g>
<g>
	<g>
		<line style="fill:none;stroke:#B2B1B1;stroke-width:0.3;stroke-miterlimit:10;" x1="54.7" y1="-25.1" x2="35.3" y2="-25.1"/>
		<line style="fill:none;stroke:#B2B1B1;stroke-width:0.3;stroke-miterlimit:10;" x1="52.2" y1="-23.8" x2="37.3" y2="-23.8"/>
		<line style="fill:none;stroke:#B2B1B1;stroke-width:0.3;stroke-miterlimit:10;" x1="52.2" y1="-22.5" x2="37.3" y2="-22.5"/>
		<line style="fill:none;stroke:#B2B1B1;stroke-width:0.3;stroke-miterlimit:10;" x1="52.2" y1="-21.3" x2="37.3" y2="-21.3"/>
		<line style="fill:none;stroke:#B2B1B1;stroke-width:0.3;stroke-miterlimit:10;" x1="54.7" y1="-20" x2="35.3" y2="-20"/>
		<line style="fill:none;stroke:#B2B1B1;stroke-width:0.3;stroke-miterlimit:10;" x1="54.7" y1="-18.7" x2="35.3" y2="-18.7"/>
		<line style="fill:none;stroke:#B2B1B1;stroke-width:0.3;stroke-miterlimit:10;" x1="52.2" y1="-17.4" x2="37.3" y2="-17.4"/>
		<line style="fill:none;stroke:#B2B1B1;stroke-width:0.3;stroke-miterlimit:10;" x1="54.7" y1="-16.2" x2="35.3" y2="-16.2"/>
		<line style="fill:none;stroke:#B2B1B1;stroke-width:0.3;stroke-miterlimit:10;" x1="52.2" y1="-14.9" x2="37.3" y2="-14.9"/>
		<line style="fill:none;stroke:#B2B1B1;stroke-width:0.3;stroke-miterlimit:10;" x1="52.2" y1="-13.6" x2="37.3" y2="-13.6"/>
		<line style="fill:none;stroke:#B2B1B1;stroke-width:0.3;stroke-miterlimit:10;" x1="54.7" y1="-12.3" x2="35.3" y2="-12.3"/>
	</g>
	<polygon style="fill:none;stroke:#B2B2B2;stroke-width:0.5;stroke-miterlimit:10;" points="31.7,-31.7 31.7,-5.7 31.7,-5.5 
		32,-5.5 58,-5.5 58.2,-5.5 58.2,-5.7 58.2,-31.7 58.2,-32 58,-32 32,-32 31.7,-32 	"/>
</g>
<polygon style="fill:none;stroke:#B2B2B2;stroke-width:0.5;stroke-miterlimit:10;" points="62.8,-31.7 62.8,-5.7 62.8,-5.5 
	63.1,-5.5 89.1,-5.5 89.3,-5.5 89.3,-5.7 89.3,-31.7 89.3,-32 89.1,-32 63.1,-32 62.8,-32 "/>
<path style="fill:none;stroke:#B2B1B1;stroke-width:0.3;stroke-miterlimit:10;" d="M66.1-13"/>
<path style="fill:none;stroke:#B2B1B1;stroke-width:0.3;stroke-miterlimit:10;" d="M66.1-18"/>
<path style="fill:none;stroke:#B2B1B1;stroke-width:0.3;stroke-miterlimit:10;" d="M66.1-19.3"/>
<path style="fill:none;stroke:#B2B1B1;stroke-width:0.3;stroke-miterlimit:10;" d="M66.1-25.6"/>
<path style="fill:none;stroke:#B2B1B1;stroke-width:0.3;stroke-miterlimit:10;" d="M83.5-20.6"/>
<path style="fill:none;stroke:#B2B1B1;stroke-width:0.3;stroke-miterlimit:10;" d="M85.6-18"/>
<path style="fill:none;stroke:#B2B1B1;stroke-width:0.3;stroke-miterlimit:10;" d="M83.5-16.8"/>
<path style="fill:none;stroke:#B2B1B1;stroke-width:0.3;stroke-miterlimit:10;" d="M85.6-13"/>
<path style="fill:none;stroke:#B2B1B1;stroke-width:0.3;stroke-miterlimit:10;" d="M85.6-25.6"/>
<path style="fill:none;stroke:#B2B1B1;stroke-width:0.3;stroke-miterlimit:10;" d="M85.6-19.3"/>
<path style="fill:none;stroke:#B2B1B1;stroke-width:0.3;stroke-miterlimit:10;" d="M83.5-15.5"/>
<path style="fill:none;stroke:#B2B1B1;stroke-width:0.3;stroke-miterlimit:10;" d="M83.5-14.3"/>
<g>
	<path style="fill:none;stroke:#B2B1B1;stroke-width:0.3;stroke-miterlimit:10;" d="M68.5-14.6"/>
	<path style="fill:none;stroke:#B2B1B1;stroke-width:0.3;stroke-miterlimit:10;" d="M68.5-15.9"/>
	<path style="fill:none;stroke:#B2B1B1;stroke-width:0.3;stroke-miterlimit:10;" d="M68.5-17.1"/>
	<path style="fill:none;stroke:#B2B1B1;stroke-width:0.3;stroke-miterlimit:10;" d="M68.5-20.9"/>
	<path style="fill:none;stroke:#B2B1B1;stroke-width:0.3;stroke-miterlimit:10;" d="M68.5-23.4"/>
	<line style="fill:none;stroke:#B2B1B1;stroke-width:0.3;stroke-miterlimit:10;" x1="85.8" y1="-25.1" x2="66.3" y2="-25.1"/>
	<line style="fill:none;stroke:#B2B1B1;stroke-width:0.3;stroke-miterlimit:10;" x1="85.8" y1="-23.8" x2="70.9" y2="-23.8"/>
	<line style="fill:none;stroke:#B2B1B1;stroke-width:0.3;stroke-miterlimit:10;" x1="85.8" y1="-22.5" x2="70.9" y2="-22.5"/>
	<line style="fill:none;stroke:#B2B1B1;stroke-width:0.3;stroke-miterlimit:10;" x1="85.8" y1="-21.3" x2="70.9" y2="-21.3"/>
	<line style="fill:none;stroke:#B2B1B1;stroke-width:0.3;stroke-miterlimit:10;" x1="85.8" y1="-20" x2="66.3" y2="-20"/>
	<line style="fill:none;stroke:#B2B1B1;stroke-width:0.3;stroke-miterlimit:10;" x1="85.8" y1="-18.7" x2="66.3" y2="-18.7"/>
	<line style="fill:none;stroke:#B2B1B1;stroke-width:0.3;stroke-miterlimit:10;" x1="85.7" y1="-17.4" x2="70.8" y2="-17.4"/>
	<line style="fill:none;stroke:#B2B1B1;stroke-width:0.3;stroke-miterlimit:10;" x1="85.8" y1="-16.2" x2="66.3" y2="-16.2"/>
	<line style="fill:none;stroke:#B2B1B1;stroke-width:0.3;stroke-miterlimit:10;" x1="85.8" y1="-14.9" x2="70.9" y2="-14.9"/>
	<line style="fill:none;stroke:#B2B1B1;stroke-width:0.3;stroke-miterlimit:10;" x1="85.8" y1="-13.6" x2="70.9" y2="-13.6"/>
	<line style="fill:none;stroke:#B2B1B1;stroke-width:0.3;stroke-miterlimit:10;" x1="85.8" y1="-12.3" x2="66.3" y2="-12.3"/>
</g>
<polygon style="fill:none;stroke:#B2B2B2;stroke-width:0.5;stroke-miterlimit:10;" points="-30.1,-31.7 -30.1,-5.7 -30.1,-5.5 
	-29.8,-5.5 -3.8,-5.5 -3.6,-5.5 -3.6,-5.7 -3.6,-31.7 -3.6,-32 -3.8,-32 -29.8,-32 -30.1,-32 "/>
<path style="fill:none;stroke:#B2B1B1;stroke-width:0.3;stroke-miterlimit:10;" d="M-6.9-24.4"/>
<path style="fill:none;stroke:#B2B1B1;stroke-width:0.3;stroke-miterlimit:10;" d="M-6.9-19.4"/>
<path style="fill:none;stroke:#B2B1B1;stroke-width:0.3;stroke-miterlimit:10;" d="M-6.9-18.1"/>
<path style="fill:none;stroke:#B2B1B1;stroke-width:0.3;stroke-miterlimit:10;" d="M-6.9-11.9"/>
<path style="fill:none;stroke:#B2B1B1;stroke-width:0.3;stroke-miterlimit:10;" d="M-24.3-16.9"/>
<path style="fill:none;stroke:#B2B1B1;stroke-width:0.3;stroke-miterlimit:10;" d="M-26.4-19.4"/>
<path style="fill:none;stroke:#B2B1B1;stroke-width:0.3;stroke-miterlimit:10;" d="M-24.3-20.6"/>
<path style="fill:none;stroke:#B2B1B1;stroke-width:0.3;stroke-miterlimit:10;" d="M-26.4-24.4"/>
<path style="fill:none;stroke:#B2B1B1;stroke-width:0.3;stroke-miterlimit:10;" d="M-26.4-11.9"/>
<path style="fill:none;stroke:#B2B1B1;stroke-width:0.3;stroke-miterlimit:10;" d="M-26.4-18.1"/>
<path style="fill:none;stroke:#B2B1B1;stroke-width:0.3;stroke-miterlimit:10;" d="M-24.3-21.9"/>
<path style="fill:none;stroke:#B2B1B1;stroke-width:0.3;stroke-miterlimit:10;" d="M-24.3-23.1"/>
<g>
	<path style="fill:none;stroke:#B2B1B1;stroke-width:0.3;stroke-miterlimit:10;" d="M-9.4-23.1"/>
	<path style="fill:none;stroke:#B2B1B1;stroke-width:0.3;stroke-miterlimit:10;" d="M-9.4-21.9"/>
	<path style="fill:none;stroke:#B2B1B1;stroke-width:0.3;stroke-miterlimit:10;" d="M-9.4-20.6"/>
	<path style="fill:none;stroke:#B2B1B1;stroke-width:0.3;stroke-miterlimit:10;" d="M-9.4-16.9"/>
	<path style="fill:none;stroke:#B2B1B1;stroke-width:0.3;stroke-miterlimit:10;" d="M-9.4-14.4"/>
	<line style="fill:none;stroke:#B2B1B1;stroke-width:0.3;stroke-miterlimit:10;" x1="-26.8" y1="-12.7" x2="-7.3" y2="-12.7"/>
	<line style="fill:none;stroke:#B2B1B1;stroke-width:0.3;stroke-miterlimit:10;" x1="-26.8" y1="-13.9" x2="-7.3" y2="-13.9"/>
	<line style="fill:none;stroke:#B2B1B1;stroke-width:0.3;stroke-miterlimit:10;" x1="-26.8" y1="-15.2" x2="-7.3" y2="-15.2"/>
	<line style="fill:none;stroke:#B2B1B1;stroke-width:0.3;stroke-miterlimit:10;" x1="-26.8" y1="-16.5" x2="-7.3" y2="-16.5"/>
	<line style="fill:none;stroke:#B2B1B1;stroke-width:0.3;stroke-miterlimit:10;" x1="-26.8" y1="-17.8" x2="-7.3" y2="-17.8"/>
	<line style="fill:none;stroke:#B2B1B1;stroke-width:0.3;stroke-miterlimit:10;" x1="-26.8" y1="-19" x2="-7.3" y2="-19"/>
	<line style="fill:none;stroke:#B2B1B1;stroke-width:0.3;stroke-miterlimit:10;" x1="-26.7" y1="-20.3" x2="-7.2" y2="-20.3"/>
	<line style="fill:none;stroke:#B2B1B1;stroke-width:0.3;stroke-miterlimit:10;" x1="-26.8" y1="-21.6" x2="-7.3" y2="-21.6"/>
	<line style="fill:none;stroke:#B2B1B1;stroke-width:0.3;stroke-miterlimit:10;" x1="-26.8" y1="-22.9" x2="-7.3" y2="-22.9"/>
	<line style="fill:none;stroke:#B2B1B1;stroke-width:0.3;stroke-miterlimit:10;" x1="-26.8" y1="-24.1" x2="-7.3" y2="-24.1"/>
	<line style="fill:none;stroke:#B2B1B1;stroke-width:0.3;stroke-miterlimit:10;" x1="-26.8" y1="-25.4" x2="-7.3" y2="-25.4"/>
</g>
<path style="fill:#B2B1B1;" d="M-199.6,83.4l-1.9,13.3c-0.1,0.4-0.4,0.7-0.8,0.6c-0.4-0.1-0.7-0.4-0.6-0.8l1.9-13.3
	c0.1-0.4,0.4-0.7,0.8-0.6C-199.9,82.7-199.6,83-199.6,83.4 M-206.5,97.5c-0.4,0-0.7-0.3-0.7-0.7l-0.1-13.5c0-0.4,0.3-0.7,0.7-0.7
	c0.4,0,0.7,0.3,0.7,0.7l0.1,13.5C-205.7,97.2-206.1,97.5-206.5,97.5 M-210.5,97.5c-0.4,0.1-0.8-0.2-0.8-0.6l-2.1-13.3
	c-0.1-0.4,0.2-0.8,0.6-0.8c0.4-0.1,0.8,0.2,0.8,0.6l2.1,13.3C-209.9,97-210.1,97.4-210.5,97.5 M-196.8,81.1
	c-0.1-0.2-0.4-0.3-0.6-0.3l-18.5,0.1c-0.2,0-0.4,0.1-0.6,0.3c-0.1,0.2-0.2,0.4-0.2,0.6l3.1,16.1c0.1,0.4,0.4,0.6,0.7,0.6l12.5-0.1
	c0.4,0,0.7-0.3,0.7-0.6l2.9-16.2C-196.6,81.5-196.6,81.2-196.8,81.1"/>
<path style="fill:none;stroke:#FFFFFF;stroke-width:2.100000e-02;" d="M-199.6,83.4l-1.9,13.3c-0.1,0.4-0.4,0.7-0.8,0.6
	c-0.4-0.1-0.7-0.4-0.6-0.8l1.9-13.3c0.1-0.4,0.4-0.7,0.8-0.6C-199.9,82.7-199.6,83-199.6,83.4z M-206.5,97.5c-0.4,0-0.7-0.3-0.7-0.7
	l-0.1-13.5c0-0.4,0.3-0.7,0.7-0.7c0.4,0,0.7,0.3,0.7,0.7l0.1,13.5C-205.7,97.2-206.1,97.5-206.5,97.5z M-210.5,97.5
	c-0.4,0.1-0.8-0.2-0.8-0.6l-2.1-13.3c-0.1-0.4,0.2-0.8,0.6-0.8c0.4-0.1,0.8,0.2,0.8,0.6l2.1,13.3C-209.9,97-210.1,97.4-210.5,97.5z
	 M-196.8,81.1c-0.1-0.2-0.4-0.3-0.6-0.3l-18.5,0.1c-0.2,0-0.4,0.1-0.6,0.3c-0.1,0.2-0.2,0.4-0.2,0.6l3.1,16.1
	c0.1,0.4,0.4,0.6,0.7,0.6l12.5-0.1c0.4,0,0.7-0.3,0.7-0.6l2.9-16.2C-196.6,81.5-196.6,81.2-196.8,81.1z"/>
<path style="fill:#B2B1B1;" d="M-209.4,76.4L-209.4,76.4l0-0.4l5.5,0l0,0.4L-209.4,76.4z M-195.7,77.9L-195.7,77.9l-2,0l0-1.2
	c0-0.1,0-0.2-0.1-0.2s-0.2-0.1-0.2-0.1l-4.5,0l0-1.1c0-0.2-0.1-0.4-0.2-0.5c-0.1-0.1-0.3-0.2-0.5-0.2l-6.9,0.1
	c-0.2,0-0.4,0.1-0.5,0.2s-0.2,0.3-0.2,0.5l0,1.1l-4.2,0c-0.1,0-0.2,0-0.2,0.1c-0.1,0.1-0.1,0.2-0.1,0.2l0,1.2l-2.2,0l0,2.2l21.8-0.2
	L-195.7,77.9z"/>
<path style="fill:none;stroke:#FFFFFF;stroke-width:2.100000e-02;" d="M-209.4,76.4L-209.4,76.4l0-0.4l5.5,0l0,0.4L-209.4,76.4z
	 M-195.7,77.9L-195.7,77.9l-2,0l0-1.2c0-0.1,0-0.2-0.1-0.2s-0.2-0.1-0.2-0.1l-4.5,0l0-1.1c0-0.2-0.1-0.4-0.2-0.5
	c-0.1-0.1-0.3-0.2-0.5-0.2l-6.9,0.1c-0.2,0-0.4,0.1-0.5,0.2s-0.2,0.3-0.2,0.5l0,1.1l-4.2,0c-0.1,0-0.2,0-0.2,0.1
	c-0.1,0.1-0.1,0.2-0.1,0.2l0,1.2l-2.2,0l0,2.2l21.8-0.2L-195.7,77.9z"/>
<rect x="-217.5" y="74.6" style="fill:none;" width="21.9" height="24"/>
<rect x="123.4" y="-66.2" style="fill:#0E6899;" width="34.9" height="19.6"/>
<g>
	<path style="fill:#FFFFFF;" d="M136.4-55.8v4.2h-0.9v-1.1c-0.4,0.7-1.2,1.1-2.4,1.1c-1.5,0-2.5-0.8-2.5-2c0-1.1,0.7-1.9,2.6-1.9
		h2.2v-0.4c0-1.2-0.7-1.8-1.9-1.8c-0.9,0-1.7,0.3-2.3,0.8l-0.4-0.7c0.7-0.6,1.7-0.9,2.8-0.9C135.4-58.4,136.4-57.5,136.4-55.8z
		 M135.4-53.6v-1.1h-2.1c-1.3,0-1.8,0.5-1.8,1.2c0,0.8,0.6,1.3,1.7,1.3C134.3-52.2,135.1-52.7,135.4-53.6z"/>
	<path style="fill:#FFFFFF;" d="M144.5-58.4v6.8h-0.9v-1.2c-0.5,0.8-1.4,1.3-2.5,1.3c-1.7,0-2.9-1-2.9-2.9v-4h0.9v3.9
		c0,1.5,0.8,2.2,2.1,2.2c1.4,0,2.3-0.9,2.3-2.5v-3.6C143.5-58.4,144.5-58.4,144.5-58.4z"/>
	<path style="fill:#FFFFFF;" d="M145.8-52.3l0.4-0.7c0.5,0.4,1.5,0.8,2.4,0.8c1.3,0,1.8-0.4,1.8-1.1c0-1.8-4.4-0.4-4.4-3.1
		c0-1.1,1-2,2.7-2c0.9,0,1.8,0.2,2.4,0.6l-0.4,0.7c-0.6-0.4-1.3-0.6-2-0.6c-1.2,0-1.8,0.5-1.8,1.1c0,1.8,4.4,0.5,4.4,3.1
		c0,1.2-1,2-2.8,2C147.4-51.5,146.3-51.8,145.8-52.3z"/>
</g>
<polygon style="fill:none;stroke:#B2B2B2;stroke-width:0.5;stroke-miterlimit:10;" points="123.6,-66.3 123.6,-46.3 123.6,-46.1 
	123.9,-46.1 192.7,-46.1 193,-46.1 193,-46.3 193,-66.3 193,-66.6 192.7,-66.6 123.9,-66.6 123.6,-66.6 "/>
<rect x="123.4" y="-66.8" style="fill:none;" width="69.8" height="21"/>
<rect x="-281" y="140.5" style="fill:#FFFFFF;" width="1014" height="21"/>
<path style="fill:#0E689A;" d="M346.1,140.5c-2.2,0-4,1.8-4,4v12.4c0,2.2,1.8,4,4,4h77.1c2.2,0,4-1.8,4-4v-12.4c0-2.2-1.8-4-4-4
	H346.1z"/>
<rect x="-280.8" y="140.8" style="fill:none;stroke:#C5C5C5;stroke-width:0.5;stroke-linecap:round;stroke-linejoin:round;" width="1013.5" height="20.5"/>
<path style="fill:#C5C5C5;" d="M716.8,143.4v1.5c0,0.4,0.2,0.8,0.5,1l6.4,4.8c0.3,0.2,0.3,0.6,0,0.8l-6.4,4.8
	c-0.3,0.2-0.5,0.6-0.5,1v1.5c0,0.4,0.5,0.6,0.8,0.4l10.1-7.6c0.3-0.2,0.3-0.7,0-1l-10.1-7.6C717.3,142.7,716.8,143,716.8,143.4"/>
<path style="fill:#C5C5C5;" d="M-265.2,158.6v-1.5c0-0.4-0.2-0.8-0.5-1l-6.4-4.8c-0.3-0.2-0.3-0.6,0-0.8l6.4-4.8
	c0.3-0.2,0.5-0.6,0.5-1v-1.5c0-0.4-0.5-0.6-0.8-0.4l-10.1,7.6c-0.3,0.2-0.3,0.7,0,1l10.1,7.6C-265.6,159.3-265.2,159.1-265.2,158.6"
	/>
<rect x="-281" y="140.5" style="fill:none;" width="1014" height="21"/>
<rect x="774.8" y="-104" style="fill:#FFFFFF;" width="21" height="702.1"/>
<path style="fill:#0E689A;" d="M774.8,309.9c0,2.2,1.8,4,4,4h12.4c2.2,0,4-1.8,4-4v-78.3c0-2.2-1.8-4-4-4h-12.4c-2.2,0-4,1.8-4,4
	V309.9z"/>
<rect x="775" y="-103.8" style="fill:none;stroke:#C5C5C5;stroke-width:0.5;stroke-linecap:round;stroke-linejoin:round;" width="20.5" height="701.6"/>
<path style="fill:#C5C5C5;" d="M777.6-90.5h1.5c0.4,0,0.8-0.2,1-0.5l4.8-6.5c0.2-0.3,0.6-0.3,0.8,0l4.8,6.5c0.2,0.3,0.6,0.5,1,0.5
	h1.5c0.4,0,0.6-0.5,0.4-0.8l-7.6-10.2c-0.2-0.3-0.7-0.3-1,0l-7.6,10.2C777-91,777.2-90.5,777.6-90.5"/>
<path style="fill:#C5C5C5;" d="M792.9,583.8h-1.5c-0.4,0-0.8,0.2-1,0.5l-4.8,6.5c-0.2,0.3-0.6,0.3-0.8,0l-4.8-6.5
	c-0.2-0.3-0.6-0.5-1-0.5h-1.5c-0.4,0-0.6,0.5-0.4,0.8l7.6,10.2c0.2,0.3,0.7,0.3,1,0l7.6-10.2C793.5,584.2,793.3,583.8,792.9,583.8"
	/>
<rect x="774.8" y="-104" style="fill:none;" width="21" height="702.1"/>
<line style="fill:none;stroke:#B2B1B1;stroke-width:0.3;stroke-miterlimit:10;" x1="53.8" y1="8.1" x2="40.8" y2="8.1"/>
<line style="fill:none;stroke:#B2B1B1;stroke-width:0.3;stroke-miterlimit:10;" x1="53.8" y1="13.2" x2="40.8" y2="13.2"/>
<line style="fill:none;stroke:#B2B1B1;stroke-width:0.3;stroke-miterlimit:10;" x1="53.8" y1="18.3" x2="40.8" y2="18.3"/>
<text transform="matrix(1 0 0 1 36.1972 7.959)" style="fill:#B2B1B1; font-family:'Montserrat-Bold'; font-size:3px;">1</text>
<text transform="matrix(1 0 0 1 36.1972 12.9746)" style="fill:#B2B1B1; font-family:'Montserrat-Bold'; font-size:3px;">2</text>
<text transform="matrix(1 0 0 1 36.1972 17.9902)" style="fill:#B2B1B1; font-family:'Montserrat-Bold'; font-size:3px;">3</text>
<polygon style="fill:none;stroke:#B2B2B2;stroke-width:0.5;stroke-miterlimit:10;" points="31.7,0.5 31.7,26.5 31.7,26.8 32,26.8 
	58,26.8 58.2,26.8 58.2,26.5 58.2,0.5 58.2,0.3 58,0.3 32,0.3 31.7,0.3 "/>
<polygon style="fill:none;stroke:#B2B2B2;stroke-width:0.5;stroke-miterlimit:10;" points="-30.1,0.5 -30.1,26.5 -30.1,26.8 
	-29.8,26.8 -3.8,26.8 -3.6,26.8 -3.6,26.5 -3.6,0.5 -3.6,0.3 -3.8,0.3 -29.8,0.3 -30.1,0.3 "/>
<g>
	<polygon style="fill:none;stroke:#AD5E7A;stroke-width:0.5;stroke-miterlimit:10;" points="0.2,0.5 0.2,26.5 0.2,26.8 0.5,26.8 
		26.5,26.8 26.8,26.8 26.8,26.5 26.8,0.5 26.8,0.3 26.5,0.3 0.5,0.3 0.2,0.3 	"/>
	<path style="fill:none;stroke:#B2B1B1;stroke-width:0.3;stroke-miterlimit:10;" d="M21.8,18.6h-13 M21.8,13.5h-13 M21.8,8.4h-13"/>
	<path style="fill:#B2B1B1;" d="M6.7,14.1c0.2-0.2,0.2-0.3,0.2-0.6c0-0.1,0-0.3-0.1-0.4c-0.1-0.1-0.2-0.2-0.3-0.3
		c-0.1-0.1-0.3-0.1-0.4-0.1c-0.2,0-0.3,0-0.4,0.1c-0.1,0.1-0.2,0.2-0.3,0.3c-0.1,0.1-0.1,0.3-0.1,0.4c0,0.2,0.1,0.4,0.2,0.6
		c0.2,0.2,0.3,0.2,0.6,0.2C6.3,14.3,6.5,14.2,6.7,14.1"/>
	<path style="fill:#B2B1B1;" d="M6.1,9.4C6.6,9.4,7,9,7,8.6c0-0.5-0.4-0.9-0.9-0.9c-0.5,0-0.9,0.4-0.9,0.9C5.2,9,5.6,9.4,6.1,9.4"/>
	<path style="fill:#B2B1B1;" d="M6.7,19.1c0.2-0.2,0.2-0.3,0.2-0.6c0-0.1,0-0.3-0.1-0.4c-0.1-0.1-0.2-0.2-0.3-0.3
		c-0.1-0.1-0.3-0.1-0.4-0.1c-0.2,0-0.3,0-0.4,0.1c-0.1,0.1-0.2,0.2-0.3,0.3c-0.1,0.1-0.1,0.3-0.1,0.4c0,0.2,0.1,0.4,0.2,0.6
		c0.2,0.2,0.3,0.2,0.6,0.2C6.3,19.3,6.5,19.3,6.7,19.1"/>
</g>
<path style="fill:none;stroke:#B2B1B1;stroke-width:0.3;stroke-miterlimit:10;" d="M-8.6,18.6h-13 M-8.6,13.5h-13 M-8.6,8.4h-13"/>
<rect x="-25.1" y="7.6" style="fill:#B2B1B1;" width="1.8" height="1.8"/>
<rect x="-25.1" y="12.6" style="fill:#B2B1B1;" width="1.8" height="1.8"/>
<rect x="-25.1" y="17.6" style="fill:#B2B1B1;" width="1.8" height="1.8"/>
<rect x="313.4" y="-67.3" style="fill:#F8F8F8;" width="245" height="57.8"/>
<text transform="matrix(1 0 0 1 388.0957 -41.0939)" style="fill:#B2B1B1; font-family:'Montserrat-Regular'; font-size:13px;">N</text>
<text transform="matrix(1 0 0 1 398.5737 -41.0939)" style="fill:#B2B1B1; font-family:'Montserrat-Regular'; font-size:13px;">e</text>
<text transform="matrix(1 0 0 1 406.2307 -41.0939)" style="fill:#B2B1B1; font-family:'Montserrat-Regular'; font-size:13px;">u</text>
<text transform="matrix(1 0 0 1 414.8487 -41.0939)" style="fill:#B2B1B1; font-family:'Montserrat-Regular'; font-size:13px;">e </text>
<text transform="matrix(1 0 0 1 426.1067 -41.0939)" style="fill:#B2B1B1; font-family:'Montserrat-Regular'; font-size:13px;">T</text>
<text transform="matrix(1 0 0 1 432.4767 -41.0939)" style="fill:#B2B1B1; font-family:'Montserrat-Regular'; font-size:13px;">e</text>
<text transform="matrix(1 0 0 1 439.9777 -41.0939)" style="fill:#B2B1B1; font-family:'Montserrat-Regular'; font-size:13px;">x</text>
<text transform="matrix(1 0 0 1 447.1927 -41.0939)" style="fill:#B2B1B1; font-family:'Montserrat-Regular'; font-size:13px;">t</text>
<text transform="matrix(1 0 0 1 452.2237 -41.0939)" style="fill:#B2B1B1; font-family:'Montserrat-Regular'; font-size:13px;">b</text>
<text transform="matrix(1 0 0 1 461.0377 -41.0939)" style="fill:#B2B1B1; font-family:'Montserrat-Regular'; font-size:13px;">o</text>
<text transform="matrix(1 0 0 1 468.8377 -41.0939)" style="fill:#B2B1B1; font-family:'Montserrat-Regular'; font-size:13px;">x </text>
<path style="fill:none;stroke:#B2B1B1;stroke-width:0.5;" d="M435.9-19.3c3.7,0,6.7-3,6.7-6.7c0-3.7-3-6.7-6.7-6.7s-6.7,3-6.7,6.7
	C429.2-22.3,432.2-19.3,435.9-19.3z"/>
<rect x="313.4" y="-67.3" style="fill:none;" width="245" height="57.8"/>
<line style="fill:none;stroke:#B2B1B1;stroke-width:1.2;" x1="435.9" y1="-29.6" x2="435.9" y2="-22.5"/>
<line style="fill:none;stroke:#B2B1B1;stroke-width:1.2;" x1="432.4" y1="-26" x2="439.4" y2="-26"/>
<path style="fill:none;stroke:#B2B1B1;stroke-width:0.5;" d="M324.9,20.5c3.7,0,6.7-3,6.7-6.7c0-3.7-3-6.7-6.7-6.7s-6.7,3-6.7,6.7
	C318.2,17.5,321.2,20.5,324.9,20.5z"/>
<line style="fill:none;stroke:#B2B1B1;stroke-width:1.2;" x1="324.9" y1="10.3" x2="324.9" y2="17.3"/>
<line style="fill:none;stroke:#B2B1B1;stroke-width:1.2;" x1="321.4" y1="13.8" x2="328.5" y2="13.8"/>
<g>
	<path style="fill:#B2B2B2;" d="M-171,35.6h-3.1v-1.8h8.5v1.8h-3.1v8h-2.3L-171,35.6L-171,35.6z"/>
	<path style="fill:#B2B2B2;" d="M-164.3,33.8h2.3v9.8h-2.3V33.8z"/>
	<path style="fill:#B2B2B2;" d="M-151.2,37.3c0,2.2-1.6,3.5-4.3,3.5h-2v2.7h-2.3v-9.8h4.2C-152.9,33.8-151.2,35.2-151.2,37.3z
		 M-153.5,37.3c0-1.1-0.7-1.7-2.1-1.7h-1.8V39h1.8C-154.2,39-153.5,38.4-153.5,37.3z"/>
	<path style="fill:#B2B2B2;" d="M-141.1,37.3c0,2.2-1.6,3.5-4.3,3.5h-2v2.7h-2.3v-9.8h4.2C-142.8,33.8-141.1,35.2-141.1,37.3z
		 M-143.4,37.3c0-1.1-0.7-1.7-2.1-1.7h-1.8V39h1.8C-144.1,39-143.4,38.4-143.4,37.3z"/>
</g>
<path style="fill:#B2B2B2;" d="M-207.6,29.3L-207.6,29.3c-1.1,2.5-2,4.6-2.9,6.8h5.7C-205.7,33.8-206.6,31.7-207.6,29.3
	 M-204.1,46.9L-204.1,46.9c-0.3-1.2-0.2-1.8,1-1.8c1,0,1.3-0.7,1-1.6c-0.5-1.4-1.1-2.8-1.7-4.2c-0.1-0.2-0.6-0.5-0.8-0.5
	c-2.1,0-4.3,0-6.4,0c-0.3,0-0.7,0.3-0.9,0.6c-0.6,1.2-1.1,2.3-1.5,3.5c-0.6,1.5-0.3,2,1.3,2.2c0.8,0.1,1.2,0.3,1,1.1
	c-0.1,0.2-0.4,0.6-0.5,0.6c-2.5,0-5,0-7.6,0c-0.2-1-0.3-1.6,0.9-1.9c0.6-0.1,1.2-0.6,1.5-1.1c0.8-1.3,1.4-2.7,2-4
	c2.4-5.6,4.8-11.1,7.2-16.7c0.2-0.4,0.6-0.7,1-1c0.3,0.3,0.8,0.6,0.9,1c2.6,6,5.1,12.1,7.6,18.2c0.3,0.8,0.7,1.5,1.1,2.3
	c0.5,0.9,1.3,1.4,2.4,1.6c0.3,0.1,0.5,0.6,0.6,1c0,0.2-0.4,0.6-0.6,0.6C-197.7,46.9-200.9,46.9-204.1,46.9"/>
<path style="fill:#B2B1B1;" d="M-110.3,39.4c2.7,0,4.8-2,4.8-4.6c0-2.4-2.2-4.4-4.7-4.4c-2.7,0-4.8,2-4.8,4.6
	C-115.1,37.4-113,39.4-110.3,39.4 M-104.8,39.4L-104.8,39.4c0.4-0.2,0.6-0.2,0.9,0.1c1.2,1.2,2.5,2.4,3.8,3.5
	c0.1,0.1,0.2,0.2,0.3,0.2c0.2,0.2,0.2,0.5,0,0.7c-0.2,0.2-0.5,0.5-0.8,0.7c-0.3,0.3-0.5,0.3-0.9,0c-1.2-1.1-2.3-2.2-3.5-3.3
	c-0.1-0.1-0.3-0.2-0.4-0.4c-0.4-0.3-0.4-0.5-0.2-0.9c-0.4-0.3-0.7-0.7-1.1-1c-1.5,1.1-3.2,1.5-5,1.1c-1.4-0.3-2.5-1.1-3.4-2.2
	c-1.7-2.2-1.3-5.3,0.8-7.1c2.2-1.9,5.5-1.9,7.7-0.1c2.2,1.8,2.8,5.1,0.7,7.6C-105.5,38.7-105.2,39-104.8,39.4"/>
<path style="fill:none;stroke:#FFFFFF;stroke-width:1.000000e-03;" d="M-110.3,39.4c2.7,0,4.8-2,4.8-4.6c0-2.4-2.2-4.4-4.7-4.4
	c-2.7,0-4.8,2-4.8,4.6C-115.1,37.4-113,39.4-110.3,39.4z M-104.8,39.4L-104.8,39.4c0.4-0.2,0.6-0.2,0.9,0.1c1.2,1.2,2.5,2.4,3.8,3.5
	c0.1,0.1,0.2,0.2,0.3,0.2c0.2,0.2,0.2,0.5,0,0.7c-0.2,0.2-0.5,0.5-0.8,0.7c-0.3,0.3-0.5,0.3-0.9,0c-1.2-1.1-2.3-2.2-3.5-3.3
	c-0.1-0.1-0.3-0.2-0.4-0.4c-0.4-0.3-0.4-0.5-0.2-0.9c-0.4-0.3-0.7-0.7-1.1-1c-1.5,1.1-3.2,1.5-5,1.1c-1.4-0.3-2.5-1.1-3.4-2.2
	c-1.7-2.2-1.3-5.3,0.8-7.1c2.2-1.9,5.5-1.9,7.7-0.1c2.2,1.8,2.8,5.1,0.7,7.6C-105.5,38.7-105.2,39-104.8,39.4z"/>
<path style="fill:#B2B1B1;" d="M-46.6,29.8l3,3V30c0-0.1-0.1-0.2-0.1-0.3l-3.8-3.8c-0.1-0.1-0.2-0.1-0.2,0l-3.9,3.9v2.8
	c0,0.1,0.1,0.1,0.1,0.1l2.8-2.9c0.1-0.1,0.1,0,0.1,0v7.8l0,0v2.2c0,0.1-0.1,0.1-0.1,0l-3-3v2.8c0,0.1,0.1,0.2,0.1,0.3l3.8,3.8
	c0.1,0.1,0.2,0.1,0.2,0l3.9-3.9v-2.8c0-0.1-0.1-0.1-0.1-0.1l-2.8,2.9c-0.1,0.1-0.1,0-0.1,0V32l0,0v-2.2
	C-46.8,29.7-46.7,29.7-46.6,29.8z"/>
<line style="fill:none;stroke:#B2B1B1;stroke-width:1.712;" x1="-82.8" y1="43" x2="-54.9" y2="43"/>
<line style="fill:none;stroke:#B2B1B1;stroke-width:1.712;" x1="-82.8" y1="34.7" x2="-54.9" y2="34.7"/>
<line style="fill:none;stroke:#B2B1B1;stroke-width:1.712;" x1="-82.8" y1="26.7" x2="-54.9" y2="26.7"/>
<line style="fill:none;stroke:#B2B1B1;stroke-width:1.712;" x1="-68.4" y1="62" x2="-68.4" y2="83"/>
<path style="fill:#B2B1B1;" d="M-61,75.8L-61,75.8h2.7l-2.6-2.6C-61,73.1-61,73-60.8,73h7v-1.4c0-0.2-0.2-0.3-0.3-0.3h-6.7
	c-0.2,0-0.2-0.1-0.1-0.2l2.6-2.6h-2.3c-0.2,0-0.5,0.1-0.6,0.2l-3.2,3.2c-0.1,0.1-0.1,0.4,0,0.5L-61,75.8z"/>
<path style="fill:#B2B1B1;" d="M-76.7,68.6L-76.7,68.6h-2.7l2.6,2.6c0.1,0.1,0.1,0.2-0.1,0.2h-7v1.4c0,0.2,0.2,0.3,0.3,0.3h6.7
	c0.2,0,0.2,0.1,0.1,0.2l-2.6,2.6h2.3c0.2,0,0.5-0.1,0.6-0.2l3.2-3.2c0.1-0.1,0.1-0.4,0-0.5L-76.7,68.6z"/>
<line style="fill:none;stroke:#B2B1B1;stroke-width:2;" x1="247.9" y1="-57.1" x2="211.8" y2="-57.1"/>
<path style="fill:#AD5E7A;" d="M239.4-54c2,0,3.7-1.7,3.7-3.7c0-2-1.7-3.7-3.7-3.7s-3.7,1.7-3.7,3.7C235.7-55.6,237.3-54,239.4-54"
	/>
<g>
	<path style="fill:#B2B1B1;" d="M262.6-56.9c0,3.1-1.8,4.8-4.5,4.8c-0.9,0-1.8-0.2-2.4-0.6l0.6-1.3c0.5,0.3,1.1,0.4,1.7,0.4
		c1.7,0,2.8-1.1,2.8-3.1v0c-0.5,0.6-1.4,0.9-2.4,0.9c-1.8,0-3.1-1.1-3.1-2.8c0-1.8,1.5-3,3.3-3C261.1-61.4,262.6-59.8,262.6-56.9z
		 M260.6-58.6c0-0.9-0.7-1.5-1.9-1.5c-1.1,0-1.8,0.6-1.8,1.5s0.7,1.5,1.8,1.5C259.8-57,260.6-57.7,260.6-58.6z"/>
	<path style="fill:#B2B1B1;" d="M270.4-55c0,1.6-1.2,2.9-3.6,2.9c-1.3,0-2.6-0.4-3.4-1.1l0.7-1.3c0.7,0.5,1.7,0.9,2.7,0.9
		c1.2,0,1.9-0.5,1.9-1.4c0-0.9-0.6-1.4-2.4-1.4h-2.2l0.5-5h5.3v1.4H266l-0.2,2.1h0.9C269.3-57.8,270.4-56.6,270.4-55z"/>
	<path style="fill:#B2B1B1;" d="M274.8-58.9c0-1.5,0.9-2.5,2.2-2.5s2.2,1,2.2,2.5s-0.9,2.5-2.2,2.5S274.8-57.4,274.8-58.9z
		 M278.1-58.9c0-1-0.4-1.6-1.1-1.6c-0.7,0-1.1,0.6-1.1,1.6s0.4,1.6,1.1,1.6C277.7-57.3,278.1-57.9,278.1-58.9z M282.5-61.3h1.3
		l-6.2,9.1h-1.3L282.5-61.3z M280.8-54.6c0-1.5,0.9-2.5,2.2-2.5s2.2,1,2.2,2.5s-0.9,2.5-2.2,2.5S280.8-53.1,280.8-54.6z M284.1-54.6
		c0-1-0.4-1.6-1.1-1.6s-1.1,0.6-1.1,1.6c0,1,0.4,1.6,1.1,1.6S284.1-53.6,284.1-54.6z"/>
</g>
<rect x="225.8" y="-3" style="fill:#FFFFFF;" width="13.1" height="16.8"/>
<polygon style="fill:none;stroke:#B2B1B1;stroke-width:0.941;" points="225.8,13.8 225.8,13.8 238.9,13.8 238.9,-3 225.8,-3 "/>
<rect x="218.1" y="-3.4" style="fill:none;" width="21.3" height="24"/>
<line style="fill:none;stroke:#B2B1B1;stroke-width:0.941;stroke-dasharray:1.889,1.889;" x1="222.6" y1="4.7" x2="222.6" y2="15.1"/>
<line style="fill:none;stroke:#B2B1B1;stroke-width:0.941;stroke-dasharray:1.754,1.754;" x1="225.3" y1="17" x2="234.9" y2="17"/>
<path style="fill:none;stroke:#B2B1B1;stroke-width:0.941;" d="M235.8,17h0.9 M222.6,16.1V17h0.9 M222.6,1.9v0.9"/>
<polyline style="fill:none;stroke:#B2B1B1;stroke-width:0.941;" points="218.6,5 218.6,20.1 232.6,20.1 "/>
<rect x="218.1" y="-3.4" style="fill:none;" width="21.3" height="24"/>
<rect x="257.4" y="-3" style="fill:#FFFFFF;" width="14.7" height="18.7"/>
<polygon style="fill:none;stroke:#B2B1B1;stroke-width:0.804;" points="257.4,15.7 257.4,15.7 272,15.7 272,-3 257.4,-3 "/>
<rect x="257" y="-3.4" style="fill:none;" width="19.9" height="24"/>
<rect x="261.8" y="1.5" style="fill:#B2B1B1;" width="14.7" height="18.7"/>
<polygon style="fill:none;stroke:#FFFFFF;stroke-width:0.804;" points="261.8,20.2 261.8,20.2 276.4,20.2 276.4,1.5 261.8,1.5 "/>
<rect x="257" y="-3.4" style="fill:none;" width="19.9" height="24"/>
<rect x="158.5" y="0.5" style="fill:#0E6899;" width="34.9" height="19.6"/>
<text transform="matrix(1 0 0 1 165.4767 15.1576)" style="fill:#FFFFFF; font-family:'Montserrat-Regular'; font-size:13px;">e</text>
<text transform="matrix(1 0 0 1 172.8867 15.1576)" style="fill:#FFFFFF; font-family:'Montserrat-Regular'; font-size:13px;">i</text>
<text transform="matrix(1 0 0 1 175.8117 15.1576)" style="fill:#FFFFFF; font-family:'Montserrat-Regular'; font-size:13px;">n</text>
<polygon style="fill:none;stroke:#B2B2B2;stroke-width:0.5;stroke-miterlimit:10;" points="123.5,0.4 123.5,20.4 123.5,20.6 
	123.7,20.6 192.6,20.6 192.8,20.6 192.8,20.4 192.8,0.4 192.8,0.1 192.6,0.1 123.7,0.1 123.5,0.1 "/>
<rect x="123.2" y="-0.1" style="fill:none;" width="70.2" height="21"/>
<line style="fill:none;stroke:#B2B1B1;stroke-width:2.5;" x1="264.5" y1="90" x2="264.5" y2="114.3"/>
<path style="fill:#B2B1B1;" d="M272.6,105.8L272.6,105.8h2.6l-2.5-2.5c-0.1-0.1-0.1-0.2,0.1-0.2h6.7v-1.3c0-0.2-0.2-0.3-0.4-0.3
	h-6.7l2.7-2.7H273c-0.2,0-0.5,0.1-0.6,0.2l-3.1,3.1c-0.1,0.1-0.1,0.4,0,0.5L272.6,105.8z"/>
<line style="fill:none;stroke:#B2B1B1;stroke-width:2.5;" x1="237.6" y1="114.1" x2="237.6" y2="89.9"/>
<path style="fill:#B2B1B1;" d="M229.5,98.3L229.5,98.3h-2.6l2.5,2.5c0.1,0.1,0.1,0.2-0.1,0.2h-6.7v1.3c0,0.2,0.2,0.3,0.4,0.3h6.7
	l-2.7,2.7h2.2c0.2,0,0.5-0.1,0.6-0.2l3.1-3.1c0.1-0.1,0.1-0.4,0-0.5L229.5,98.3z"/>
<line style="fill:none;stroke:#B2B1B1;stroke-width:2.5;" x1="47.8" y1="97.9" x2="72.1" y2="97.9"/>
<path style="fill:#B2B1B1;" d="M63.5,89.8L63.5,89.8v-2.6L61,89.7c-0.1,0.1-0.2,0.1-0.2-0.1v-6.7h-1.3c-0.2,0-0.3,0.2-0.3,0.3V90
	l-2.7-2.7v2.2c0,0.2,0.1,0.5,0.2,0.6l3.1,3.1c0.1,0.1,0.4,0.1,0.5,0L63.5,89.8z"/>
<path style="fill:#B2B1B1;" d="M56.6,105L56.6,105v2.6l2.5-2.5c0.1-0.1,0.2-0.1,0.2,0.1v6.7h1.3c0.2,0,0.3-0.2,0.3-0.3v-6.7l2.7,2.7
	v-2.2c0-0.2-0.1-0.5-0.2-0.6l-3.1-3.1c-0.1-0.1-0.4-0.1-0.5,0L56.6,105z"/>
<line style="fill:none;stroke:#B2B1B1;stroke-width:2.5;" x1="104.3" y1="110.7" x2="104.3" y2="86.4"/>
<path style="fill:#B2B1B1;" d="M96.2,95.1L96.2,95.1h-2.6l2.5,2.5c0.1,0.1,0.1,0.2-0.1,0.2h-6.7v1.3c0,0.2,0.2,0.3,0.3,0.3h6.7
	l-2.7,2.7h2.2c0.2,0,0.5-0.1,0.6-0.2l3.1-3.1c0.1-0.1,0.1-0.4,0-0.5L96.2,95.1z"/>
<path style="fill:#B2B1B1;" d="M111.4,102L111.4,102h2.6l-2.5-2.5c-0.1-0.1-0.1-0.2,0.1-0.2h6.7v-1.3c0-0.2-0.2-0.3-0.3-0.3h-6.7
	l2.7-2.7h-2.2c-0.2,0-0.5,0.1-0.6,0.2l-3.1,3.1c-0.1,0.1-0.1,0.4,0,0.5L111.4,102z"/>
<line style="fill:none;stroke:#B2B1B1;stroke-width:2.5;" x1="136.4" y1="98.2" x2="160.7" y2="98.2"/>
<path style="fill:#B2B1B1;" d="M145.2,105.3L145.2,105.3v2.6l2.5-2.5c0.1-0.1,0.2-0.1,0.2,0.1v6.7h1.3c0.2,0,0.4-0.2,0.4-0.3v-6.7
	l2.7,2.7v-2.2c0-0.2-0.1-0.5-0.2-0.6l-3.1-3.1c-0.1-0.1-0.4-0.1-0.5,0L145.2,105.3z"/>
<line style="fill:none;stroke:#B2B1B1;stroke-width:2.5;" x1="181.5" y1="109.4" x2="205.8" y2="109.4"/>
<path style="fill:#B2B1B1;" d="M197.4,101L197.4,101v-2.6l-2.5,2.5c-0.1,0.1-0.2,0.1-0.2-0.1v-6.7h-1.3c-0.2,0-0.4,0.2-0.4,0.3v6.7
	l-2.7-2.7v2.2c0,0.2,0.1,0.5,0.2,0.6l3.1,3.1c0.1,0.1,0.4,0.1,0.5,0L197.4,101z"/>
<rect x="327.4" y="82.5" style="fill:#FFFFFF;" width="15.8" height="20.1"/>
<line style="fill:none;stroke:#B2B1B1;stroke-width:0.941;stroke-dasharray:1.971,1.971;" x1="330.4" y1="102.6" x2="341.2" y2="102.6"/>
<line style="fill:none;stroke:#B2B1B1;stroke-width:0.941;stroke-dasharray:2.006,2.006;" x1="343.2" y1="99.6" x2="343.2" y2="84.5"/>
<line style="fill:none;stroke:#B2B1B1;stroke-width:0.941;stroke-dasharray:1.971,1.971;" x1="340.2" y1="82.5" x2="329.4" y2="82.5"/>
<line style="fill:none;stroke:#B2B1B1;stroke-width:0.941;stroke-dasharray:2.006,2.006;" x1="327.4" y1="85.5" x2="327.4" y2="100.6"/>
<path style="fill:none;stroke:#B2B1B1;stroke-width:0.941;" d="M327.4,101.6v1h1 M328.4,82.5h-1v1 M343.2,83.5v-1h-1 M342.2,102.6h1
	v-1"/>
<polygon style="fill:#FFFFFF;" points="316.2,112.6 316.2,112.6 331.9,112.6 331.9,92.5 316.2,92.5 "/>
<line style="fill:none;stroke:#B2B1B1;stroke-width:0.941;stroke-dasharray:1.971,1.971;" x1="319.1" y1="112.6" x2="330" y2="112.6"/>
<line style="fill:none;stroke:#B2B1B1;stroke-width:0.941;stroke-dasharray:2.006,2.006;" x1="331.9" y1="109.6" x2="331.9" y2="94.5"/>
<line style="fill:none;stroke:#B2B1B1;stroke-width:0.941;stroke-dasharray:1.971,1.971;" x1="329" y1="92.5" x2="318.1" y2="92.5"/>
<line style="fill:none;stroke:#B2B1B1;stroke-width:0.941;stroke-dasharray:2.006,2.006;" x1="316.2" y1="95.5" x2="316.2" y2="110.6"/>
<path style="fill:none;stroke:#B2B1B1;stroke-width:0.941;" d="M316.2,111.6v1h1 M317.2,92.5h-1v1 M331.9,93.5v-1h-1 M331,112.6h1
	v-1"/>
<polygon style="fill:#FFFFFF;" points="306.7,120.6 306.7,120.6 322.5,120.6 322.5,100.5 306.7,100.5 "/>
<polygon style="fill:none;stroke:#B2B1B1;stroke-width:0.941;" points="306.7,120.6 306.7,120.6 322.5,120.6 322.5,100.5 
	306.7,100.5 "/>
<g>
	<polygon style="fill:#FFFFFF;" points="380.5,106.9 380.5,106.9 396.3,106.9 396.3,86.8 380.5,86.8 	"/>
	<polygon style="fill:none;stroke:#B2B1B1;stroke-width:0.941;" points="380.5,106.9 380.5,106.9 396.3,106.9 396.3,86.8 
		380.5,86.8 	"/>
	
		<line style="fill:none;stroke:#B2B1B1;stroke-width:0.941;stroke-dasharray:1.801,1.801;" x1="376.8" y1="95.4" x2="376.8" y2="108.9"/>
	
		<line style="fill:none;stroke:#B2B1B1;stroke-width:0.941;stroke-dasharray:2.091,2.091;" x1="379.9" y1="110.7" x2="391.4" y2="110.7"/>
	<path style="fill:none;stroke:#B2B1B1;stroke-width:0.941;" d="M392.5,110.7h1 M376.8,109.8v0.9h1 M376.8,92.7v0.9"/>
</g>
<g>
	<g>
		<rect x="453.1" y="75.1" style="fill:#FFFFFF;" width="15.8" height="20.1"/>
		<polygon style="fill:none;stroke:#B2B1B1;stroke-width:0.941;" points="453.1,95.1 453.1,95.1 468.8,95.1 468.8,75.1 453.1,75.1 
					"/>
		<polygon style="fill:#FFFFFF;" points="441.8,105.1 441.8,105.1 457.6,105.1 457.6,85.1 441.8,85.1 		"/>
		
			<line style="fill:none;stroke:#B2B1B1;stroke-width:0.941;stroke-dasharray:1.971,1.971;" x1="444.8" y1="105.1" x2="455.6" y2="105.1"/>
		
			<line style="fill:none;stroke:#B2B1B1;stroke-width:0.941;stroke-dasharray:2.006,2.006;" x1="457.6" y1="102.1" x2="457.6" y2="87.1"/>
		
			<line style="fill:none;stroke:#B2B1B1;stroke-width:0.941;stroke-dasharray:1.971,1.971;" x1="454.6" y1="85.1" x2="443.8" y2="85.1"/>
		
			<line style="fill:none;stroke:#B2B1B1;stroke-width:0.941;stroke-dasharray:2.006,2.006;" x1="441.8" y1="88.1" x2="441.8" y2="103.1"/>
		<path style="fill:none;stroke:#B2B1B1;stroke-width:0.941;" d="M441.8,104.1v1h1 M442.8,85.1h-1v1 M457.6,86.1v-1h-1 M456.6,105.1
			h1v-1"/>
		<polygon style="fill:#FFFFFF;" points="432.4,113.1 432.4,113.1 448.1,113.1 448.1,93.1 432.4,93.1 		"/>
		
			<line style="fill:none;stroke:#B2B1B1;stroke-width:0.941;stroke-dasharray:1.971,1.971;" x1="435.3" y1="113.1" x2="446.2" y2="113.1"/>
		
			<line style="fill:none;stroke:#B2B1B1;stroke-width:0.941;stroke-dasharray:2.006,2.006;" x1="448.1" y1="110.1" x2="448.1" y2="95.1"/>
		
			<line style="fill:none;stroke:#B2B1B1;stroke-width:0.941;stroke-dasharray:1.971,1.971;" x1="445.2" y1="93.1" x2="434.3" y2="93.1"/>
		
			<line style="fill:none;stroke:#B2B1B1;stroke-width:0.941;stroke-dasharray:2.006,2.006;" x1="432.4" y1="96.1" x2="432.4" y2="111.1"/>
		<path style="fill:none;stroke:#B2B1B1;stroke-width:0.941;" d="M432.4,112.1v1h1 M433.4,93.1h-1v1 M448.1,94.1v-1h-1 M447.1,113.1
			h1v-1"/>
	</g>
	
		<line style="fill:none;stroke:#B2B1B1;stroke-width:0.941;stroke-dasharray:1.971,1.971;" x1="508.5" y1="108.6" x2="519.3" y2="108.6"/>
	
		<line style="fill:none;stroke:#B2B1B1;stroke-width:0.941;stroke-dasharray:2.006,2.006;" x1="521.3" y1="105.6" x2="521.3" y2="90.6"/>
	
		<line style="fill:none;stroke:#B2B1B1;stroke-width:0.941;stroke-dasharray:1.971,1.971;" x1="518.3" y1="88.6" x2="507.5" y2="88.6"/>
	
		<line style="fill:none;stroke:#B2B1B1;stroke-width:0.941;stroke-dasharray:2.006,2.006;" x1="505.5" y1="91.6" x2="505.5" y2="106.6"/>
	<path style="fill:none;stroke:#B2B1B1;stroke-width:0.941;" d="M505.5,107.6v1h1 M506.5,88.6h-1v1 M521.3,89.6v-1h-1 M520.3,108.6
		h1v-1"/>
	<polyline style="fill:none;stroke:#B2B1B1;stroke-width:0.941;" points="501.8,94.4 501.8,112.4 518.5,112.4 	"/>
</g>
<g>
	<g>
		<defs>
			<rect id="SVGID_1_" x="-253.5" y="202.5" width="241.7" height="1"/>
		</defs>
		<clipPath id="SVGID_00000096031543935098707190000013480360058076751247_">
			<use xlink:href="#SVGID_1_"  style="overflow:visible;"/>
		</clipPath>
		
			<line style="clip-path:url(#SVGID_00000096031543935098707190000013480360058076751247_);fill:none;stroke:#B2B2B2;stroke-linecap:round;stroke-linejoin:round;stroke-dasharray:0,3.009;" x1="-250" y1="203" x2="-13.8" y2="203"/>
	</g>
	<g>
		<defs>
			<rect id="SVGID_00000006706838830073300200000008772836663836855698_" x="-253.5" y="202.5" width="241.7" height="1"/>
		</defs>
		<clipPath id="SVGID_00000003821728842423103440000006031204808375826608_">
			<use xlink:href="#SVGID_00000006706838830073300200000008772836663836855698_"  style="overflow:visible;"/>
		</clipPath>
		
			<path style="clip-path:url(#SVGID_00000003821728842423103440000006031204808375826608_);fill:none;stroke:#B2B2B2;stroke-linecap:round;stroke-linejoin:round;" d="
			M-12.3,203L-12.3,203 M-253,203L-253,203"/>
	</g>
</g>
<circle style="fill:none;stroke:#4F4D4D;stroke-width:0.5;" cx="-206.6" cy="-18.2" r="12.8"/>
<polygon style="fill:#0E689A;" points="-63.2,-33.3 -76.2,-33.3 -69.8,-22.8 "/>
<polygon style="fill:#B2B1B1;" points="-55.2,95.3 -65.7,101.6 -55.2,108.3 "/>
<polygon style="fill:#B2B1B1;" points="-84.2,108.3 -73.8,101.9 -84.2,95.3 "/>
<polygon style="fill:#B2B1B1;" points="-1.7,95.3 -12.2,101.6 -1.7,108.3 "/>
<polygon style="fill:#B2B1B1;" points="-36.9,108.3 -26.4,101.9 -36.9,95.3 "/>
<rect x="123.4" y="-33.3" style="fill:#0E6899;" width="34.9" height="19.6"/>
<polygon style="fill:none;stroke:#B2B2B2;stroke-width:0.5;stroke-miterlimit:10;" points="123.6,-33.4 123.6,-13.4 123.6,-13.1 
	123.9,-13.1 192.7,-13.1 193,-13.1 193,-13.4 193,-33.4 193,-33.6 192.7,-33.6 123.9,-33.6 123.6,-33.6 "/>
<rect x="123.4" y="-33.9" style="fill:none;" width="69.8" height="21"/>
<rect x="158.7" y="32.8" style="fill:#0E6899;" width="34.9" height="19.6"/>
<polygon style="fill:none;stroke:#B2B2B2;stroke-width:0.5;stroke-miterlimit:10;" points="123.7,32.6 123.7,52.6 123.7,52.9 
	124,52.9 192.8,52.9 193.1,52.9 193.1,52.6 193.1,32.6 193.1,32.4 192.8,32.4 124,32.4 123.7,32.4 "/>
<rect x="123.5" y="32.1" style="fill:none;" width="70.2" height="21"/>
<line style="fill:none;stroke:#B2B1B1;stroke-width:2;" x1="246.8" y1="-37.3" x2="210.8" y2="-37.3"/>
<path style="fill:#AD5E7A;" d="M238.3-34.2c2,0,3.7-1.7,3.7-3.7c0-2-1.7-3.7-3.7-3.7s-3.7,1.7-3.7,3.7
	C234.6-35.8,236.2-34.2,238.3-34.2"/>
<line style="fill:none;stroke:#B2B1B1;stroke-width:2;" x1="555.1" y1="-6.5" x2="519.1" y2="-6.5"/>
<path style="fill:#AD5E7A;" d="M546.6-3.4c2,0,3.7-1.7,3.7-3.7s-1.7-3.7-3.7-3.7s-3.7,1.7-3.7,3.7S544.6-3.4,546.6-3.4"/>
</svg>
