<?xml version="1.0" encoding="utf-8"?>
<!-- Generator: Adobe Illustrator 26.5.0, SVG Export Plug-In . SVG Version: 6.00 Build 0)  -->
<svg version="1.1" id="Ebene_1" xmlns="http://www.w3.org/2000/svg" xmlns:xlink="http://www.w3.org/1999/xlink" x="0px" y="0px"
	 width="27px" height="27px" viewBox="0 0 27 27" style="enable-background:new 0 0 27 27;" xml:space="preserve">
<polyline style="fill:none;stroke:#C5C5C5;stroke-width:3;stroke-linecap:round;stroke-linejoin:round;" points="1743.9,974.9 
	1737.7,965.9 1730.9,974.9 "/>
<circle style="fill:#FFAEFF;stroke:#4F4D4D;stroke-width:0.5;" cx="-247.9" cy="12.2" r="12.8"/>
<rect x="-215.5" y="1.2" style="fill:#F8F8F8;" width="119.9" height="21"/>
<polygon style="fill:#0E689A;" points="-104.7,6.4 -117.7,6.4 -111.3,16.9 "/>
<g>
	<g>
		<line style="fill:none;stroke:#B2B1B1;stroke-width:0.65;stroke-miterlimit:10;" x1="8.4" y1="18.7" x2="18.6" y2="18.7"/>
		<g>
			<path style="fill:#B2B1B1;" d="M9.6,13.5V8.3h1.3v5.1c0,2,0.9,2.9,2.6,2.9s2.6-0.9,2.6-2.9V8.3h1.3v5.2c0,2.6-1.4,4-3.8,4
				C11.1,17.5,9.6,16.1,9.6,13.5z"/>
		</g>
	</g>
	<polygon style="fill:none;stroke:#AD5E7A;stroke-width:0.5;stroke-miterlimit:10;" points="0.2,0.5 0.2,26.5 0.2,26.8 0.5,26.8 
		26.5,26.8 26.8,26.8 26.8,26.5 26.8,0.5 26.8,0.3 26.5,0.3 0.5,0.3 0.2,0.3 	"/>
</g>
<g>
	<g>
		<path style="fill:#B2B1B1;" d="M-21.1,8.6h1.3l-1.8,9.1h-1.3L-21.1,8.6z"/>
	</g>
	<polygon style="fill:none;stroke:#B2B2B2;stroke-width:0.5;stroke-miterlimit:10;" points="-34.6,0.1 -34.6,26.1 -34.6,26.4 
		-34.4,26.4 -8.4,26.4 -8.1,26.4 -8.1,26.1 -8.1,0.1 -8.1,-0.1 -8.4,-0.1 -34.4,-0.1 -34.6,-0.1 	"/>
</g>
<g>
	<g>
		<path style="fill:#B2B1B1;" d="M-54.3,15.2c0,1.6-1.2,2.5-3.6,2.5h-4.7V8.6h4.4c2.3,0,3.4,0.9,3.4,2.4c0,0.9-0.5,1.6-1.2,2
			C-54.9,13.3-54.3,14.1-54.3,15.2z M-60.5,10.2v2.1h2.1c1,0,1.6-0.4,1.6-1.1s-0.6-1.1-1.6-1.1L-60.5,10.2L-60.5,10.2z M-56.4,15
			c0-0.8-0.6-1.1-1.7-1.1h-2.5v2.2h2.5C-57,16.1-56.4,15.8-56.4,15z"/>
	</g>
	<polygon style="fill:none;stroke:#B2B2B2;stroke-width:0.5;stroke-miterlimit:10;" points="-71.7,0.2 -71.7,26.2 -71.7,26.4 
		-71.4,26.4 -45.4,26.4 -45.2,26.4 -45.2,26.2 -45.2,0.2 -45.2,-0.1 -45.4,-0.1 -71.4,-0.1 -71.7,-0.1 	"/>
</g>
<path style="fill:none;stroke:#B2B1B1;stroke-width:0.3;stroke-miterlimit:10;" d="M-17.5,42.1"/>
<path style="fill:none;stroke:#B2B1B1;stroke-width:0.3;stroke-miterlimit:10;" d="M-20,43.4"/>
<path style="fill:none;stroke:#B2B1B1;stroke-width:0.3;stroke-miterlimit:10;" d="M-20,44.6"/>
<path style="fill:none;stroke:#B2B1B1;stroke-width:0.3;stroke-miterlimit:10;" d="M-20,45.9"/>
<path style="fill:none;stroke:#B2B1B1;stroke-width:0.3;stroke-miterlimit:10;" d="M-17.5,47.1"/>
<path style="fill:none;stroke:#B2B1B1;stroke-width:0.3;stroke-miterlimit:10;" d="M-17.5,48.4"/>
<path style="fill:none;stroke:#B2B1B1;stroke-width:0.3;stroke-miterlimit:10;" d="M-20,49.7"/>
<path style="fill:none;stroke:#B2B1B1;stroke-width:0.3;stroke-miterlimit:10;" d="M-20,52.2"/>
<path style="fill:none;stroke:#B2B1B1;stroke-width:0.3;stroke-miterlimit:10;" d="M-17.5,54.7"/>
<path style="fill:none;stroke:#B2B1B1;stroke-width:0.3;stroke-miterlimit:10;" d="M-37,47.1"/>
<path style="fill:none;stroke:#B2B1B1;stroke-width:0.3;stroke-miterlimit:10;" d="M-37,42.1"/>
<path style="fill:none;stroke:#B2B1B1;stroke-width:0.3;stroke-miterlimit:10;" d="M-37,54.7"/>
<path style="fill:none;stroke:#B2B1B1;stroke-width:0.3;stroke-miterlimit:10;" d="M-37,48.4"/>
<g>
	<path style="fill:none;stroke:#B2B1B1;stroke-width:0.3;stroke-miterlimit:10;" d="M-34.9,49.7"/>
	<path style="fill:none;stroke:#B2B1B1;stroke-width:0.3;stroke-miterlimit:10;" d="M-34.9,45.9"/>
	<path style="fill:none;stroke:#B2B1B1;stroke-width:0.3;stroke-miterlimit:10;" d="M-34.9,44.6"/>
	<path style="fill:none;stroke:#B2B1B1;stroke-width:0.3;stroke-miterlimit:10;" d="M-34.9,43.4"/>
	<line style="fill:none;stroke:#B2B1B1;stroke-width:0.3;stroke-miterlimit:10;" x1="-37.3" y1="53.9" x2="-17.9" y2="53.9"/>
	<line style="fill:none;stroke:#B2B1B1;stroke-width:0.3;stroke-miterlimit:10;" x1="-37.3" y1="52.6" x2="-22.4" y2="52.6"/>
	<line style="fill:none;stroke:#B2B1B1;stroke-width:0.3;stroke-miterlimit:10;" x1="-37.3" y1="51.3" x2="-22.4" y2="51.3"/>
	<line style="fill:none;stroke:#B2B1B1;stroke-width:0.3;stroke-miterlimit:10;" x1="-37.3" y1="50" x2="-22.4" y2="50"/>
	<line style="fill:none;stroke:#B2B1B1;stroke-width:0.3;stroke-miterlimit:10;" x1="-37.3" y1="48.8" x2="-17.9" y2="48.8"/>
	<line style="fill:none;stroke:#B2B1B1;stroke-width:0.3;stroke-miterlimit:10;" x1="-37.3" y1="47.5" x2="-17.9" y2="47.5"/>
	<line style="fill:none;stroke:#B2B1B1;stroke-width:0.3;stroke-miterlimit:10;" x1="-37.3" y1="46.2" x2="-22.4" y2="46.2"/>
	<line style="fill:none;stroke:#B2B1B1;stroke-width:0.3;stroke-miterlimit:10;" x1="-37.3" y1="44.9" x2="-17.9" y2="44.9"/>
	<line style="fill:none;stroke:#B2B1B1;stroke-width:0.3;stroke-miterlimit:10;" x1="-37.3" y1="43.7" x2="-22.4" y2="43.7"/>
	<line style="fill:none;stroke:#B2B1B1;stroke-width:0.3;stroke-miterlimit:10;" x1="-37.3" y1="42.4" x2="-22.4" y2="42.4"/>
	<line style="fill:none;stroke:#B2B1B1;stroke-width:0.3;stroke-miterlimit:10;" x1="-37.3" y1="41.1" x2="-17.9" y2="41.1"/>
</g>
<polygon style="fill:none;stroke:#B2B2B2;stroke-width:0.5;stroke-miterlimit:10;" points="-40.7,34.8 -40.7,60.8 -40.7,61.1 
	-40.4,61.1 -14.4,61.1 -14.2,61.1 -14.2,60.8 -14.2,34.8 -14.2,34.6 -14.4,34.6 -40.4,34.6 -40.7,34.6 "/>
<g>
	<line style="fill:none;stroke:#B2B1B1;stroke-width:0.3;stroke-miterlimit:10;" x1="13.4" y1="41.4" x2="-6.1" y2="41.4"/>
	<line style="fill:none;stroke:#B2B1B1;stroke-width:0.3;stroke-miterlimit:10;" x1="10.9" y1="42.7" x2="-4" y2="42.7"/>
	<line style="fill:none;stroke:#B2B1B1;stroke-width:0.3;stroke-miterlimit:10;" x1="10.9" y1="44" x2="-4" y2="44"/>
	<line style="fill:none;stroke:#B2B1B1;stroke-width:0.3;stroke-miterlimit:10;" x1="10.9" y1="45.3" x2="-4" y2="45.3"/>
	<line style="fill:none;stroke:#B2B1B1;stroke-width:0.3;stroke-miterlimit:10;" x1="13.4" y1="46.5" x2="-6.1" y2="46.5"/>
	<line style="fill:none;stroke:#B2B1B1;stroke-width:0.3;stroke-miterlimit:10;" x1="13.4" y1="47.8" x2="-6.1" y2="47.8"/>
	<line style="fill:none;stroke:#B2B1B1;stroke-width:0.3;stroke-miterlimit:10;" x1="10.9" y1="49.1" x2="-4" y2="49.1"/>
	<line style="fill:none;stroke:#B2B1B1;stroke-width:0.3;stroke-miterlimit:10;" x1="13.4" y1="50.4" x2="-6.1" y2="50.4"/>
	<line style="fill:none;stroke:#B2B1B1;stroke-width:0.3;stroke-miterlimit:10;" x1="10.9" y1="51.6" x2="-4" y2="51.6"/>
	<line style="fill:none;stroke:#B2B1B1;stroke-width:0.3;stroke-miterlimit:10;" x1="10.9" y1="52.9" x2="-4" y2="52.9"/>
	<line style="fill:none;stroke:#B2B1B1;stroke-width:0.3;stroke-miterlimit:10;" x1="13.4" y1="54.2" x2="-6.1" y2="54.2"/>
</g>
<polygon style="fill:none;stroke:#B2B2B2;stroke-width:0.5;stroke-miterlimit:10;" points="-9.6,34.8 -9.6,60.8 -9.6,61.1 
	-9.3,61.1 16.7,61.1 16.9,61.1 16.9,60.8 16.9,34.8 16.9,34.6 16.7,34.6 -9.3,34.6 -9.6,34.6 "/>
<polygon style="fill:none;stroke:#B2B2B2;stroke-width:0.5;stroke-miterlimit:10;" points="21.5,34.8 21.5,60.8 21.5,61.1 
	21.7,61.1 47.7,61.1 48,61.1 48,60.8 48,34.8 48,34.6 47.7,34.6 21.7,34.6 21.5,34.6 "/>
<path style="fill:none;stroke:#B2B1B1;stroke-width:0.3;stroke-miterlimit:10;" d="M24.8,53.5"/>
<path style="fill:none;stroke:#B2B1B1;stroke-width:0.3;stroke-miterlimit:10;" d="M24.8,48.5"/>
<path style="fill:none;stroke:#B2B1B1;stroke-width:0.3;stroke-miterlimit:10;" d="M24.8,47.2"/>
<path style="fill:none;stroke:#B2B1B1;stroke-width:0.3;stroke-miterlimit:10;" d="M24.8,41"/>
<path style="fill:none;stroke:#B2B1B1;stroke-width:0.3;stroke-miterlimit:10;" d="M42.2,46"/>
<path style="fill:none;stroke:#B2B1B1;stroke-width:0.3;stroke-miterlimit:10;" d="M44.3,48.5"/>
<path style="fill:none;stroke:#B2B1B1;stroke-width:0.3;stroke-miterlimit:10;" d="M42.2,49.7"/>
<path style="fill:none;stroke:#B2B1B1;stroke-width:0.3;stroke-miterlimit:10;" d="M44.3,53.5"/>
<path style="fill:none;stroke:#B2B1B1;stroke-width:0.3;stroke-miterlimit:10;" d="M44.3,41"/>
<path style="fill:none;stroke:#B2B1B1;stroke-width:0.3;stroke-miterlimit:10;" d="M44.3,47.2"/>
<path style="fill:none;stroke:#B2B1B1;stroke-width:0.3;stroke-miterlimit:10;" d="M42.2,51"/>
<path style="fill:none;stroke:#B2B1B1;stroke-width:0.3;stroke-miterlimit:10;" d="M42.2,52.2"/>
<g>
	<path style="fill:none;stroke:#B2B1B1;stroke-width:0.3;stroke-miterlimit:10;" d="M27.1,51.9"/>
	<path style="fill:none;stroke:#B2B1B1;stroke-width:0.3;stroke-miterlimit:10;" d="M27.1,50.7"/>
	<path style="fill:none;stroke:#B2B1B1;stroke-width:0.3;stroke-miterlimit:10;" d="M27.1,49.4"/>
	<path style="fill:none;stroke:#B2B1B1;stroke-width:0.3;stroke-miterlimit:10;" d="M27.1,45.7"/>
	<path style="fill:none;stroke:#B2B1B1;stroke-width:0.3;stroke-miterlimit:10;" d="M27.1,43.2"/>
	<line style="fill:none;stroke:#B2B1B1;stroke-width:0.3;stroke-miterlimit:10;" x1="44.5" y1="41.4" x2="25" y2="41.4"/>
	<line style="fill:none;stroke:#B2B1B1;stroke-width:0.3;stroke-miterlimit:10;" x1="44.5" y1="42.7" x2="29.6" y2="42.7"/>
	<line style="fill:none;stroke:#B2B1B1;stroke-width:0.3;stroke-miterlimit:10;" x1="44.5" y1="44" x2="29.6" y2="44"/>
	<line style="fill:none;stroke:#B2B1B1;stroke-width:0.3;stroke-miterlimit:10;" x1="44.5" y1="45.3" x2="29.6" y2="45.3"/>
	<line style="fill:none;stroke:#B2B1B1;stroke-width:0.3;stroke-miterlimit:10;" x1="44.5" y1="46.5" x2="25" y2="46.5"/>
	<line style="fill:none;stroke:#B2B1B1;stroke-width:0.3;stroke-miterlimit:10;" x1="44.5" y1="47.8" x2="25" y2="47.8"/>
	<line style="fill:none;stroke:#B2B1B1;stroke-width:0.3;stroke-miterlimit:10;" x1="44.4" y1="49.1" x2="29.5" y2="49.1"/>
	<line style="fill:none;stroke:#B2B1B1;stroke-width:0.3;stroke-miterlimit:10;" x1="44.5" y1="50.4" x2="25" y2="50.4"/>
	<line style="fill:none;stroke:#B2B1B1;stroke-width:0.3;stroke-miterlimit:10;" x1="44.5" y1="51.6" x2="29.6" y2="51.6"/>
	<line style="fill:none;stroke:#B2B1B1;stroke-width:0.3;stroke-miterlimit:10;" x1="44.5" y1="52.9" x2="29.6" y2="52.9"/>
	<line style="fill:none;stroke:#B2B1B1;stroke-width:0.3;stroke-miterlimit:10;" x1="44.5" y1="54.2" x2="25" y2="54.2"/>
</g>
<polygon style="fill:none;stroke:#B2B2B2;stroke-width:0.5;stroke-miterlimit:10;" points="-71.4,34.8 -71.4,60.8 -71.4,61.1 
	-71.2,61.1 -45.2,61.1 -44.9,61.1 -44.9,60.8 -44.9,34.8 -44.9,34.6 -45.2,34.6 -71.2,34.6 -71.4,34.6 "/>
<path style="fill:none;stroke:#B2B1B1;stroke-width:0.3;stroke-miterlimit:10;" d="M-48.3,42.1"/>
<path style="fill:none;stroke:#B2B1B1;stroke-width:0.3;stroke-miterlimit:10;" d="M-48.3,47.1"/>
<path style="fill:none;stroke:#B2B1B1;stroke-width:0.3;stroke-miterlimit:10;" d="M-48.3,48.4"/>
<path style="fill:none;stroke:#B2B1B1;stroke-width:0.3;stroke-miterlimit:10;" d="M-48.3,54.7"/>
<path style="fill:none;stroke:#B2B1B1;stroke-width:0.3;stroke-miterlimit:10;" d="M-65.7,49.7"/>
<path style="fill:none;stroke:#B2B1B1;stroke-width:0.3;stroke-miterlimit:10;" d="M-67.7,47.1"/>
<path style="fill:none;stroke:#B2B1B1;stroke-width:0.3;stroke-miterlimit:10;" d="M-65.7,45.9"/>
<path style="fill:none;stroke:#B2B1B1;stroke-width:0.3;stroke-miterlimit:10;" d="M-67.7,42.1"/>
<path style="fill:none;stroke:#B2B1B1;stroke-width:0.3;stroke-miterlimit:10;" d="M-67.7,54.7"/>
<path style="fill:none;stroke:#B2B1B1;stroke-width:0.3;stroke-miterlimit:10;" d="M-67.7,48.4"/>
<path style="fill:none;stroke:#B2B1B1;stroke-width:0.3;stroke-miterlimit:10;" d="M-65.7,44.6"/>
<path style="fill:none;stroke:#B2B1B1;stroke-width:0.3;stroke-miterlimit:10;" d="M-65.7,43.4"/>
<g>
	<path style="fill:none;stroke:#B2B1B1;stroke-width:0.3;stroke-miterlimit:10;" d="M-50.8,43.4"/>
	<path style="fill:none;stroke:#B2B1B1;stroke-width:0.3;stroke-miterlimit:10;" d="M-50.8,44.6"/>
	<path style="fill:none;stroke:#B2B1B1;stroke-width:0.3;stroke-miterlimit:10;" d="M-50.8,45.9"/>
	<path style="fill:none;stroke:#B2B1B1;stroke-width:0.3;stroke-miterlimit:10;" d="M-50.8,49.7"/>
	<path style="fill:none;stroke:#B2B1B1;stroke-width:0.3;stroke-miterlimit:10;" d="M-50.8,52.2"/>
	<line style="fill:none;stroke:#B2B1B1;stroke-width:0.3;stroke-miterlimit:10;" x1="-68.1" y1="53.9" x2="-48.6" y2="53.9"/>
	<line style="fill:none;stroke:#B2B1B1;stroke-width:0.3;stroke-miterlimit:10;" x1="-68.1" y1="52.6" x2="-48.6" y2="52.6"/>
	<line style="fill:none;stroke:#B2B1B1;stroke-width:0.3;stroke-miterlimit:10;" x1="-68.1" y1="51.3" x2="-48.6" y2="51.3"/>
	<line style="fill:none;stroke:#B2B1B1;stroke-width:0.3;stroke-miterlimit:10;" x1="-68.1" y1="50" x2="-48.6" y2="50"/>
	<line style="fill:none;stroke:#B2B1B1;stroke-width:0.3;stroke-miterlimit:10;" x1="-68.1" y1="48.8" x2="-48.6" y2="48.8"/>
	<line style="fill:none;stroke:#B2B1B1;stroke-width:0.3;stroke-miterlimit:10;" x1="-68.1" y1="47.5" x2="-48.6" y2="47.5"/>
	<line style="fill:none;stroke:#B2B1B1;stroke-width:0.3;stroke-miterlimit:10;" x1="-68" y1="46.2" x2="-48.6" y2="46.2"/>
	<line style="fill:none;stroke:#B2B1B1;stroke-width:0.3;stroke-miterlimit:10;" x1="-68.1" y1="44.9" x2="-48.6" y2="44.9"/>
	<line style="fill:none;stroke:#B2B1B1;stroke-width:0.3;stroke-miterlimit:10;" x1="-68.1" y1="43.7" x2="-48.6" y2="43.7"/>
	<line style="fill:none;stroke:#B2B1B1;stroke-width:0.3;stroke-miterlimit:10;" x1="-68.1" y1="42.4" x2="-48.6" y2="42.4"/>
	<line style="fill:none;stroke:#B2B1B1;stroke-width:0.3;stroke-miterlimit:10;" x1="-68.1" y1="41.1" x2="-48.6" y2="41.1"/>
</g>
<path style="fill:#B2B1B1;" d="M-241,150l-1.9,13.3c-0.1,0.4-0.4,0.7-0.8,0.6c-0.4-0.1-0.7-0.4-0.6-0.8l1.9-13.3
	c0.1-0.4,0.4-0.7,0.8-0.6C-241.2,149.2-240.9,149.6-241,150 M-247.8,164.1c-0.4,0-0.7-0.3-0.7-0.7l-0.1-13.5c0-0.4,0.3-0.7,0.7-0.7
	c0.4,0,0.7,0.3,0.7,0.7l0.1,13.5C-247.1,163.7-247.4,164-247.8,164.1 M-251.9,164c-0.4,0.1-0.8-0.2-0.8-0.6l-2.1-13.3
	c-0.1-0.4,0.2-0.8,0.6-0.8c0.4-0.1,0.8,0.2,0.8,0.6l2.1,13.3C-251.2,163.6-251.5,163.9-251.9,164 M-238.1,147.6
	c-0.1-0.2-0.4-0.3-0.6-0.3l-18.5,0.1c-0.2,0-0.4,0.1-0.6,0.3c-0.1,0.2-0.2,0.4-0.2,0.6l3.1,16.1c0.1,0.4,0.4,0.6,0.7,0.6l12.5-0.1
	c0.4,0,0.7-0.3,0.7-0.6l2.9-16.2C-237.9,148-237.9,147.8-238.1,147.6"/>
<path style="fill:none;stroke:#FFFFFF;stroke-width:2.100000e-02;" d="M-241,150l-1.9,13.3c-0.1,0.4-0.4,0.7-0.8,0.6
	c-0.4-0.1-0.7-0.4-0.6-0.8l1.9-13.3c0.1-0.4,0.4-0.7,0.8-0.6C-241.2,149.2-240.9,149.6-241,150z M-247.8,164.1
	c-0.4,0-0.7-0.3-0.7-0.7l-0.1-13.5c0-0.4,0.3-0.7,0.7-0.7c0.4,0,0.7,0.3,0.7,0.7l0.1,13.5C-247.1,163.7-247.4,164-247.8,164.1z
	 M-251.9,164c-0.4,0.1-0.8-0.2-0.8-0.6l-2.1-13.3c-0.1-0.4,0.2-0.8,0.6-0.8c0.4-0.1,0.8,0.2,0.8,0.6l2.1,13.3
	C-251.2,163.6-251.5,163.9-251.9,164z M-238.1,147.6c-0.1-0.2-0.4-0.3-0.6-0.3l-18.5,0.1c-0.2,0-0.4,0.1-0.6,0.3
	c-0.1,0.2-0.2,0.4-0.2,0.6l3.1,16.1c0.1,0.4,0.4,0.6,0.7,0.6l12.5-0.1c0.4,0,0.7-0.3,0.7-0.6l2.9-16.2
	C-237.9,148-237.9,147.8-238.1,147.6z"/>
<path style="fill:#B2B1B1;" d="M-250.8,143L-250.8,143l0-0.4l5.5,0l0,0.4L-250.8,143z M-237,144.4L-237,144.4l-2,0l0-1.2
	c0-0.1,0-0.2-0.1-0.2c-0.1-0.1-0.2-0.1-0.2-0.1l-4.5,0l0-1.1c0-0.2-0.1-0.4-0.2-0.5c-0.1-0.1-0.3-0.2-0.5-0.2l-6.9,0.1
	c-0.2,0-0.4,0.1-0.5,0.2s-0.2,0.3-0.2,0.5l0,1.1l-4.2,0c-0.1,0-0.2,0-0.2,0.1c-0.1,0.1-0.1,0.2-0.1,0.2l0,1.2l-2.2,0l0,2.2l21.8-0.2
	L-237,144.4z"/>
<path style="fill:none;stroke:#FFFFFF;stroke-width:2.100000e-02;" d="M-250.8,143L-250.8,143l0-0.4l5.5,0l0,0.4L-250.8,143z
	 M-237,144.4L-237,144.4l-2,0l0-1.2c0-0.1,0-0.2-0.1-0.2c-0.1-0.1-0.2-0.1-0.2-0.1l-4.5,0l0-1.1c0-0.2-0.1-0.4-0.2-0.5
	c-0.1-0.1-0.3-0.2-0.5-0.2l-6.9,0.1c-0.2,0-0.4,0.1-0.5,0.2s-0.2,0.3-0.2,0.5l0,1.1l-4.2,0c-0.1,0-0.2,0-0.2,0.1
	c-0.1,0.1-0.1,0.2-0.1,0.2l0,1.2l-2.2,0l0,2.2l21.8-0.2L-237,144.4z"/>
<rect x="-258.9" y="141.1" style="fill:none;" width="21.9" height="24"/>
<rect x="82.1" y="0.3" style="fill:#0E6899;" width="34.9" height="19.6"/>
<g>
	<path style="fill:#FFFFFF;" d="M95,10.7V15h-0.9v-1.1c-0.4,0.7-1.2,1.1-2.4,1.1c-1.5,0-2.5-0.8-2.5-2c0-1.1,0.7-1.9,2.6-1.9h2.2
		v-0.4c0-1.2-0.7-1.8-1.9-1.8c-0.9,0-1.7,0.3-2.3,0.8L89.5,9c0.7-0.6,1.7-0.9,2.8-0.9C94,8.1,95,9,95,10.7z M94.1,12.9v-1.1H92
		c-1.3,0-1.8,0.5-1.8,1.2c0,0.8,0.6,1.3,1.7,1.3C93,14.3,93.7,13.8,94.1,12.9z"/>
	<path style="fill:#FFFFFF;" d="M103.1,8.2V15h-0.9v-1.2c-0.5,0.8-1.4,1.3-2.5,1.3c-1.7,0-2.9-1-2.9-2.9v-4h0.9V12
		c0,1.5,0.8,2.2,2.1,2.2c1.4,0,2.3-0.9,2.3-2.5V8.2H103.1z"/>
	<path style="fill:#FFFFFF;" d="M104.4,14.2l0.4-0.7c0.5,0.4,1.5,0.8,2.4,0.8c1.3,0,1.8-0.4,1.8-1.1c0-1.8-4.4-0.4-4.4-3.1
		c0-1.1,1-1.9,2.7-1.9c0.9,0,1.8,0.2,2.4,0.6l-0.4,0.7c-0.6-0.4-1.3-0.6-2-0.6c-1.2,0-1.8,0.5-1.8,1.1c0,1.8,4.4,0.5,4.4,3.1
		c0,1.2-1,1.9-2.8,1.9C106.1,15.1,105,14.7,104.4,14.2z"/>
</g>
<polygon style="fill:none;stroke:#B2B2B2;stroke-width:0.5;stroke-miterlimit:10;" points="82.3,0.2 82.3,20.2 82.3,20.5 82.6,20.5 
	151.4,20.5 151.7,20.5 151.7,20.2 151.7,0.2 151.7,0 151.4,0 82.6,0 82.3,0 "/>
<rect x="82.1" y="-0.3" style="fill:none;" width="69.8" height="21"/>
<rect x="-322.3" y="207" style="fill:#FFFFFF;" width="1014" height="21"/>
<path style="fill:#0E689A;" d="M304.8,207c-2.2,0-4,1.8-4,4v12.4c0,2.2,1.8,4,4,4h77.1c2.2,0,4-1.8,4-4V211c0-2.2-1.8-4-4-4H304.8z"
	/>
<rect x="-322.1" y="207.3" style="fill:none;stroke:#C5C5C5;stroke-width:0.5;stroke-linecap:round;stroke-linejoin:round;" width="1013.5" height="20.5"/>
<path style="fill:#C5C5C5;" d="M675.5,209.9v1.5c0,0.4,0.2,0.8,0.5,1l6.4,4.8c0.3,0.2,0.3,0.6,0,0.8l-6.4,4.8
	c-0.3,0.2-0.5,0.6-0.5,1v1.5c0,0.4,0.5,0.6,0.8,0.4l10.1-7.6c0.3-0.2,0.3-0.7,0-1l-10.1-7.6C676,209.3,675.5,209.5,675.5,209.9"/>
<path style="fill:#C5C5C5;" d="M-306.5,225.2v-1.5c0-0.4-0.2-0.8-0.5-1l-6.4-4.8c-0.3-0.2-0.3-0.6,0-0.8l6.4-4.8
	c0.3-0.2,0.5-0.6,0.5-1v-1.5c0-0.4-0.5-0.6-0.8-0.4l-10.1,7.6c-0.3,0.2-0.3,0.7,0,1l10.1,7.6C-307,225.8-306.5,225.6-306.5,225.2"/>
<rect x="-322.3" y="207" style="fill:none;" width="1014" height="21"/>
<rect x="733.4" y="-37.5" style="fill:#FFFFFF;" width="21" height="702.1"/>
<path style="fill:#0E689A;" d="M733.4,376.5c0,2.2,1.8,4,4,4h12.4c2.2,0,4-1.8,4-4v-78.3c0-2.2-1.8-4-4-4h-12.4c-2.2,0-4,1.8-4,4
	V376.5z"/>
<rect x="733.7" y="-37.3" style="fill:none;stroke:#C5C5C5;stroke-width:0.5;stroke-linecap:round;stroke-linejoin:round;" width="20.5" height="701.6"/>
<path style="fill:#C5C5C5;" d="M736.3-24h1.5c0.4,0,0.8-0.2,1-0.5l4.8-6.5c0.2-0.3,0.6-0.3,0.8,0l4.8,6.5c0.2,0.3,0.6,0.5,1,0.5h1.5
	c0.4,0,0.6-0.5,0.4-0.8L744.4-35c-0.2-0.3-0.7-0.3-1,0l-7.6,10.2C735.6-24.4,735.9-24,736.3-24"/>
<path style="fill:#C5C5C5;" d="M751.6,650.3h-1.5c-0.4,0-0.8,0.2-1,0.5l-4.8,6.5c-0.2,0.3-0.6,0.3-0.8,0l-4.8-6.5
	c-0.2-0.3-0.6-0.5-1-0.5h-1.5c-0.4,0-0.6,0.5-0.4,0.8l7.6,10.2c0.2,0.3,0.7,0.3,1,0l7.6-10.2C752.2,650.8,752,650.3,751.6,650.3"/>
<rect x="733.4" y="-37.5" style="fill:none;" width="21" height="702.1"/>
<line style="fill:none;stroke:#B2B1B1;stroke-width:0.3;stroke-miterlimit:10;" x1="12.5" y1="74.6" x2="-0.6" y2="74.6"/>
<line style="fill:none;stroke:#B2B1B1;stroke-width:0.3;stroke-miterlimit:10;" x1="12.5" y1="79.7" x2="-0.6" y2="79.7"/>
<line style="fill:none;stroke:#B2B1B1;stroke-width:0.3;stroke-miterlimit:10;" x1="12.5" y1="84.8" x2="-0.6" y2="84.8"/>
<text transform="matrix(1 0 0 1 -5.1364 74.4906)" style="fill:#B2B1B1; font-family:'Montserrat-Bold'; font-size:3px;">1</text>
<text transform="matrix(1 0 0 1 -5.1364 79.5062)" style="fill:#B2B1B1; font-family:'Montserrat-Bold'; font-size:3px;">2</text>
<text transform="matrix(1 0 0 1 -5.1364 84.5218)" style="fill:#B2B1B1; font-family:'Montserrat-Bold'; font-size:3px;">3</text>
<polygon style="fill:none;stroke:#B2B2B2;stroke-width:0.5;stroke-miterlimit:10;" points="-9.6,67 -9.6,93 -9.6,93.3 -9.3,93.3 
	16.7,93.3 16.9,93.3 16.9,93 16.9,67 16.9,66.8 16.7,66.8 -9.3,66.8 -9.6,66.8 "/>
<polygon style="fill:none;stroke:#B2B2B2;stroke-width:0.5;stroke-miterlimit:10;" points="-41.1,67 -41.1,93 -41.1,93.3 
	-40.8,93.3 -14.8,93.3 -14.6,93.3 -14.6,93 -14.6,67 -14.6,66.8 -14.8,66.8 -40.8,66.8 -41.1,66.8 "/>
<polygon style="fill:none;stroke:#B2B2B2;stroke-width:0.5;stroke-miterlimit:10;" points="-71.4,67 -71.4,93 -71.4,93.3 
	-71.2,93.3 -45.2,93.3 -44.9,93.3 -44.9,93 -44.9,67 -44.9,66.8 -45.2,66.8 -71.2,66.8 -71.4,66.8 "/>
<path style="fill:none;stroke:#B2B1B1;stroke-width:0.3;stroke-miterlimit:10;" d="M-19.6,85.2h-13 M-19.6,80h-13 M-19.6,74.9h-13"
	/>
<path style="fill:#B2B1B1;" d="M-34.7,80.6c0.2-0.2,0.2-0.3,0.2-0.6c0-0.2,0-0.3-0.1-0.4c-0.1-0.1-0.2-0.2-0.3-0.3
	c-0.1-0.1-0.3-0.1-0.4-0.1c-0.2,0-0.3,0-0.4,0.1s-0.2,0.2-0.3,0.3C-36,79.7-36,79.9-36,80c0,0.2,0.1,0.4,0.2,0.6
	c0.2,0.2,0.3,0.2,0.6,0.2C-35,80.8-34.8,80.8-34.7,80.6"/>
<path style="fill:#B2B1B1;" d="M-35.2,76c0.5,0,0.9-0.4,0.9-0.9c0-0.5-0.4-0.9-0.9-0.9c-0.5,0-0.9,0.4-0.9,0.9
	C-36.1,75.6-35.7,76-35.2,76"/>
<path style="fill:#B2B1B1;" d="M-34.7,85.6c0.2-0.2,0.2-0.3,0.2-0.6c0-0.2,0-0.3-0.1-0.4c-0.1-0.1-0.2-0.2-0.3-0.3
	c-0.1-0.1-0.3-0.1-0.4-0.1c-0.2,0-0.3,0-0.4,0.1s-0.2,0.2-0.3,0.3C-36,84.8-36,84.9-36,85c0,0.2,0.1,0.4,0.2,0.6
	c0.2,0.2,0.3,0.2,0.6,0.2C-35,85.9-34.8,85.8-34.7,85.6"/>
<path style="fill:none;stroke:#B2B1B1;stroke-width:0.3;stroke-miterlimit:10;" d="M-49.9,85.2h-13 M-49.9,80h-13 M-49.9,74.9h-13"
	/>
<rect x="-66.5" y="74.1" style="fill:#B2B1B1;" width="1.8" height="1.8"/>
<rect x="-66.5" y="79.1" style="fill:#B2B1B1;" width="1.8" height="1.8"/>
<rect x="-66.5" y="84.2" style="fill:#B2B1B1;" width="1.8" height="1.8"/>
<rect x="272.1" y="-0.8" style="fill:#F8F8F8;" width="245" height="57.8"/>
<text transform="matrix(1 0 0 1 346.7621 25.4377)" style="fill:#B2B1B1; font-family:'Montserrat-Regular'; font-size:13px;">N</text>
<text transform="matrix(1 0 0 1 357.2401 25.4377)" style="fill:#B2B1B1; font-family:'Montserrat-Regular'; font-size:13px;">e</text>
<text transform="matrix(1 0 0 1 364.8971 25.4377)" style="fill:#B2B1B1; font-family:'Montserrat-Regular'; font-size:13px;">u</text>
<text transform="matrix(1 0 0 1 373.5151 25.4377)" style="fill:#B2B1B1; font-family:'Montserrat-Regular'; font-size:13px;">e </text>
<text transform="matrix(1 0 0 1 384.7731 25.4377)" style="fill:#B2B1B1; font-family:'Montserrat-Regular'; font-size:13px;">T</text>
<text transform="matrix(1 0 0 1 391.1431 25.4377)" style="fill:#B2B1B1; font-family:'Montserrat-Regular'; font-size:13px;">e</text>
<text transform="matrix(1 0 0 1 398.6441 25.4377)" style="fill:#B2B1B1; font-family:'Montserrat-Regular'; font-size:13px;">x</text>
<text transform="matrix(1 0 0 1 405.8591 25.4377)" style="fill:#B2B1B1; font-family:'Montserrat-Regular'; font-size:13px;">t</text>
<text transform="matrix(1 0 0 1 410.8901 25.4377)" style="fill:#B2B1B1; font-family:'Montserrat-Regular'; font-size:13px;">b</text>
<text transform="matrix(1 0 0 1 419.7041 25.4377)" style="fill:#B2B1B1; font-family:'Montserrat-Regular'; font-size:13px;">o</text>
<text transform="matrix(1 0 0 1 427.5041 25.4377)" style="fill:#B2B1B1; font-family:'Montserrat-Regular'; font-size:13px;">x </text>
<path style="fill:none;stroke:#B2B1B1;stroke-width:0.5;" d="M394.6,47.2c3.7,0,6.7-3,6.7-6.7c0-3.7-3-6.7-6.7-6.7s-6.7,3-6.7,6.7
	C387.9,44.2,390.9,47.2,394.6,47.2z"/>
<rect x="272.1" y="-0.8" style="fill:none;" width="245" height="57.8"/>
<line style="fill:none;stroke:#B2B1B1;stroke-width:1.2;" x1="394.6" y1="37" x2="394.6" y2="44"/>
<line style="fill:none;stroke:#B2B1B1;stroke-width:1.2;" x1="391" y1="40.5" x2="398.1" y2="40.5"/>
<path style="fill:none;stroke:#B2B1B1;stroke-width:0.5;" d="M283.6,87c3.7,0,6.7-3,6.7-6.7c0-3.7-3-6.7-6.7-6.7s-6.7,3-6.7,6.7
	C276.9,84,279.9,87,283.6,87z"/>
<line style="fill:none;stroke:#B2B1B1;stroke-width:1.2;" x1="283.6" y1="76.8" x2="283.6" y2="83.9"/>
<line style="fill:none;stroke:#B2B1B1;stroke-width:1.2;" x1="280.1" y1="80.4" x2="287.1" y2="80.4"/>
<g>
	<path style="fill:#B2B2B2;" d="M-212.3,102.2h-3.1v-1.8h8.5v1.8h-3.1v8h-2.3L-212.3,102.2L-212.3,102.2z"/>
	<path style="fill:#B2B2B2;" d="M-205.7,100.3h2.3v9.8h-2.3V100.3z"/>
	<path style="fill:#B2B2B2;" d="M-192.6,103.9c0,2.2-1.6,3.5-4.3,3.5h-2v2.7h-2.3v-9.8h4.2C-194.2,100.3-192.6,101.7-192.6,103.9z
		 M-194.9,103.9c0-1.1-0.7-1.7-2.1-1.7h-1.8v3.4h1.8C-195.6,105.6-194.9,104.9-194.9,103.9z"/>
	<path style="fill:#B2B2B2;" d="M-182.5,103.9c0,2.2-1.6,3.5-4.3,3.5h-2v2.7h-2.3v-9.8h4.2C-184.1,100.3-182.5,101.7-182.5,103.9z
		 M-184.7,103.9c0-1.1-0.7-1.7-2.1-1.7h-1.8v3.4h1.8C-185.4,105.6-184.7,104.9-184.7,103.9z"/>
</g>
<path style="fill:#B2B2B2;" d="M-248.9,95.9L-248.9,95.9c-1.1,2.5-2,4.6-2.9,6.8h5.7C-247,100.4-247.9,98.3-248.9,95.9
	 M-245.4,113.4L-245.4,113.4c-0.3-1.2-0.2-1.8,1-1.8c1,0,1.3-0.7,1-1.6c-0.5-1.4-1.1-2.8-1.7-4.2c-0.1-0.2-0.6-0.5-0.8-0.5
	c-2.1,0-4.3,0-6.4,0c-0.3,0-0.7,0.3-0.9,0.6c-0.6,1.2-1.1,2.3-1.5,3.5c-0.6,1.5-0.3,2,1.3,2.2c0.8,0.1,1.2,0.3,1,1.1
	c-0.1,0.2-0.4,0.6-0.5,0.6c-2.5,0-5,0-7.6,0c-0.2-1-0.3-1.6,0.9-1.9c0.6-0.1,1.2-0.6,1.5-1.1c0.8-1.3,1.4-2.7,2-4
	c2.4-5.6,4.8-11.1,7.2-16.7c0.2-0.4,0.6-0.7,1-1c0.3,0.3,0.8,0.6,0.9,1c2.6,6,5.1,12.1,7.6,18.2c0.3,0.8,0.7,1.5,1.1,2.3
	c0.5,0.9,1.3,1.4,2.4,1.6c0.3,0.1,0.5,0.6,0.6,1c0,0.2-0.4,0.6-0.6,0.6C-239.1,113.5-242.2,113.4-245.4,113.4"/>
<path style="fill:#B2B1B1;" d="M-151.7,105.9c2.7,0,4.8-2,4.8-4.6c0-2.4-2.2-4.4-4.7-4.4c-2.7,0-4.8,2-4.8,4.6
	C-156.5,103.9-154.3,105.9-151.7,105.9 M-146.1,105.9L-146.1,105.9c0.4-0.2,0.6-0.2,0.9,0.1c1.2,1.2,2.5,2.4,3.8,3.5
	c0.1,0.1,0.2,0.2,0.3,0.2c0.2,0.2,0.2,0.5,0,0.7c-0.2,0.2-0.5,0.5-0.8,0.7c-0.3,0.3-0.5,0.3-0.9,0c-1.2-1.1-2.3-2.2-3.5-3.3
	c-0.1-0.1-0.3-0.2-0.4-0.4c-0.4-0.3-0.4-0.5-0.2-0.9c-0.4-0.3-0.7-0.7-1.1-1c-1.5,1.1-3.2,1.5-5,1.1c-1.4-0.3-2.5-1.1-3.4-2.2
	c-1.6-2.2-1.3-5.3,0.8-7.1c2.2-1.9,5.5-1.9,7.7-0.1c2.2,1.8,2.8,5.1,0.7,7.6C-146.9,105.2-146.5,105.6-146.1,105.9"/>
<path style="fill:none;stroke:#FFFFFF;stroke-width:1.000000e-03;" d="M-151.7,105.9c2.7,0,4.8-2,4.8-4.6c0-2.4-2.2-4.4-4.7-4.4
	c-2.7,0-4.8,2-4.8,4.6C-156.5,103.9-154.3,105.9-151.7,105.9z M-146.1,105.9L-146.1,105.9c0.4-0.2,0.6-0.2,0.9,0.1
	c1.2,1.2,2.5,2.4,3.8,3.5c0.1,0.1,0.2,0.2,0.3,0.2c0.2,0.2,0.2,0.5,0,0.7c-0.2,0.2-0.5,0.5-0.8,0.7c-0.3,0.3-0.5,0.3-0.9,0
	c-1.2-1.1-2.3-2.2-3.5-3.3c-0.1-0.1-0.3-0.2-0.4-0.4c-0.4-0.3-0.4-0.5-0.2-0.9c-0.4-0.3-0.7-0.7-1.1-1c-1.5,1.1-3.2,1.5-5,1.1
	c-1.4-0.3-2.5-1.1-3.4-2.2c-1.6-2.2-1.3-5.3,0.8-7.1c2.2-1.9,5.5-1.9,7.7-0.1c2.2,1.8,2.8,5.1,0.7,7.6
	C-146.9,105.2-146.5,105.6-146.1,105.9z"/>
<path style="fill:#B2B1B1;" d="M-88,96.3l3,3v-2.8c0-0.1-0.1-0.2-0.1-0.3l-3.8-3.8c-0.1-0.1-0.2-0.1-0.2,0l-3.9,3.9v2.8
	c0,0.1,0.1,0.1,0.1,0.1l2.8-2.9c0.1-0.1,0.1,0,0.1,0.1v7.8l0,0v2.2c0,0.1-0.1,0.1-0.1,0.1l-3-3v2.8c0,0.1,0.1,0.2,0.1,0.3l3.8,3.8
	c0.1,0.1,0.2,0.1,0.2,0l3.9-3.9v-2.8c0-0.1-0.1-0.1-0.1-0.1l-2.8,2.9c-0.1,0.1-0.1,0-0.1-0.1v-7.8l0,0v-2.2
	C-88.1,96.3-88,96.3-88,96.3z"/>
<line style="fill:none;stroke:#B2B1B1;stroke-width:1.712;" x1="-124.1" y1="109.6" x2="-96.3" y2="109.6"/>
<line style="fill:none;stroke:#B2B1B1;stroke-width:1.712;" x1="-124.1" y1="101.3" x2="-96.3" y2="101.3"/>
<line style="fill:none;stroke:#B2B1B1;stroke-width:1.712;" x1="-124.1" y1="93.3" x2="-96.3" y2="93.3"/>
<line style="fill:none;stroke:#B2B1B1;stroke-width:1.712;" x1="-109.8" y1="128.5" x2="-109.8" y2="149.5"/>
<path style="fill:#B2B1B1;" d="M-102.3,142.4L-102.3,142.4h2.7l-2.6-2.6c-0.1-0.1-0.1-0.2,0.1-0.2h7v-1.4c0-0.2-0.2-0.4-0.3-0.4
	h-6.7c-0.2,0-0.2-0.1-0.1-0.2l2.6-2.6h-2.3c-0.2,0-0.5,0.1-0.6,0.2l-3.2,3.2c-0.1,0.1-0.1,0.4,0,0.5L-102.3,142.4z"/>
<path style="fill:#B2B1B1;" d="M-118.1,135.2L-118.1,135.2h-2.7l2.6,2.6c0.1,0.1,0.1,0.2-0.1,0.2h-7v1.4c0,0.2,0.2,0.4,0.3,0.4h6.7
	c0.2,0,0.2,0.1,0.1,0.2l-2.6,2.6h2.3c0.2,0,0.5-0.1,0.6-0.2l3.2-3.2c0.1-0.1,0.1-0.4,0-0.5L-118.1,135.2z"/>
<line style="fill:none;stroke:#B2B1B1;stroke-width:2;" x1="206.5" y1="9.4" x2="170.5" y2="9.4"/>
<path style="fill:#AD5E7A;" d="M198,12.6c2,0,3.7-1.7,3.7-3.7s-1.7-3.7-3.7-3.7s-3.7,1.7-3.7,3.7S196,12.6,198,12.6"/>
<g>
	<path style="fill:#B2B1B1;" d="M221.2,9.6c0,3.1-1.8,4.8-4.5,4.8c-0.9,0-1.8-0.2-2.4-0.6l0.6-1.3c0.5,0.3,1.1,0.4,1.7,0.4
		c1.7,0,2.8-1.1,2.8-3.1v0c-0.5,0.6-1.4,0.9-2.4,0.9c-1.8,0-3.1-1.1-3.1-2.8c0-1.8,1.5-3,3.3-3C219.8,5.1,221.2,6.7,221.2,9.6z
		 M219.3,8c0-0.9-0.7-1.5-1.9-1.5c-1.1,0-1.8,0.6-1.8,1.5s0.7,1.5,1.8,1.5C218.5,9.5,219.3,8.9,219.3,8z"/>
	<path style="fill:#B2B1B1;" d="M229.1,11.5c0,1.6-1.2,2.9-3.6,2.9c-1.3,0-2.6-0.4-3.4-1.1l0.7-1.3c0.7,0.5,1.7,0.9,2.7,0.9
		c1.2,0,1.9-0.5,1.9-1.4c0-0.9-0.6-1.4-2.4-1.4h-2.2l0.5-5h5.3v1.4h-3.9l-0.2,2.1h0.9C228,8.7,229.1,9.9,229.1,11.5z"/>
	<path style="fill:#B2B1B1;" d="M233.5,7.6c0-1.5,0.9-2.5,2.2-2.5s2.2,1,2.2,2.5s-0.9,2.5-2.2,2.5S233.5,9.1,233.5,7.6z M236.8,7.6
		c0-1-0.4-1.6-1.1-1.6c-0.7,0-1.1,0.6-1.1,1.6s0.4,1.6,1.1,1.6C236.4,9.2,236.8,8.6,236.8,7.6z M241.1,5.2h1.3l-6.2,9.1h-1.3
		L241.1,5.2z M239.5,11.9c0-1.5,0.9-2.5,2.2-2.5s2.2,1,2.2,2.5s-0.9,2.5-2.2,2.5S239.5,13.4,239.5,11.9z M242.8,11.9
		c0-1-0.4-1.6-1.1-1.6s-1.1,0.6-1.1,1.6c0,1,0.4,1.6,1.1,1.6S242.8,12.9,242.8,11.9z"/>
</g>
<rect x="184.5" y="63.6" style="fill:#FFFFFF;" width="13.1" height="16.8"/>
<polygon style="fill:none;stroke:#B2B1B1;stroke-width:0.941;" points="184.5,80.3 184.5,80.3 197.6,80.3 197.6,63.6 184.5,63.6 "/>
<rect x="176.8" y="63.1" style="fill:none;" width="21.3" height="24"/>
<line style="fill:none;stroke:#B2B1B1;stroke-width:0.941;stroke-dasharray:1.889,1.889;" x1="181.3" y1="71.3" x2="181.3" y2="81.6"/>
<line style="fill:none;stroke:#B2B1B1;stroke-width:0.941;stroke-dasharray:1.754,1.754;" x1="183.9" y1="83.5" x2="193.6" y2="83.5"/>
<path style="fill:none;stroke:#B2B1B1;stroke-width:0.941;" d="M194.4,83.5h0.9 M181.3,82.6v0.9h0.9 M181.3,68.4v0.9"/>
<polyline style="fill:none;stroke:#B2B1B1;stroke-width:0.941;" points="177.3,71.5 177.3,86.6 191.3,86.6 "/>
<rect x="176.8" y="63.1" style="fill:none;" width="21.3" height="24"/>
<rect x="216" y="63.5" style="fill:#FFFFFF;" width="14.7" height="18.7"/>
<polygon style="fill:none;stroke:#B2B1B1;stroke-width:0.804;" points="216,82.2 216,82.2 230.7,82.2 230.7,63.5 216,63.5 "/>
<rect x="215.6" y="63.1" style="fill:none;" width="19.9" height="24"/>
<rect x="220.4" y="68" style="fill:#B2B1B1;" width="14.7" height="18.7"/>
<polygon style="fill:none;stroke:#FFFFFF;stroke-width:0.804;" points="220.4,86.7 220.4,86.7 235.1,86.7 235.1,68 220.4,68 "/>
<rect x="215.6" y="63.1" style="fill:none;" width="19.9" height="24"/>
<rect x="117.1" y="67" style="fill:#0E6899;" width="34.9" height="19.6"/>
<text transform="matrix(1 0 0 1 124.143 81.6892)" style="fill:#FFFFFF; font-family:'Montserrat-Regular'; font-size:13px;">e</text>
<text transform="matrix(1 0 0 1 131.553 81.6892)" style="fill:#FFFFFF; font-family:'Montserrat-Regular'; font-size:13px;">i</text>
<text transform="matrix(1 0 0 1 134.478 81.6892)" style="fill:#FFFFFF; font-family:'Montserrat-Regular'; font-size:13px;">n</text>
<polygon style="fill:none;stroke:#B2B2B2;stroke-width:0.5;stroke-miterlimit:10;" points="82.1,66.9 82.1,86.9 82.1,87.2 
	82.4,87.2 151.2,87.2 151.5,87.2 151.5,86.9 151.5,66.9 151.5,66.7 151.2,66.7 82.4,66.7 82.1,66.7 "/>
<rect x="81.9" y="66.4" style="fill:none;" width="70.2" height="21"/>
<line style="fill:none;stroke:#B2B1B1;stroke-width:2.5;" x1="223.2" y1="156.6" x2="223.2" y2="180.8"/>
<path style="fill:#B2B1B1;" d="M231.3,172.4L231.3,172.4h2.6l-2.5-2.5c-0.1-0.1-0.1-0.2,0.1-0.2h6.7v-1.3c0-0.2-0.2-0.4-0.4-0.4
	h-6.7l2.7-2.7h-2.2c-0.2,0-0.5,0.1-0.6,0.2l-3.1,3.1c-0.1,0.1-0.1,0.4,0,0.5L231.3,172.4z"/>
<line style="fill:none;stroke:#B2B1B1;stroke-width:2.5;" x1="196.3" y1="180.6" x2="196.3" y2="156.4"/>
<path style="fill:#B2B1B1;" d="M188.2,164.8L188.2,164.8h-2.6l2.5,2.5c0.1,0.1,0.1,0.2-0.1,0.2h-6.7v1.3c0,0.2,0.2,0.4,0.4,0.4h6.7
	l-2.7,2.7h2.2c0.2,0,0.5-0.1,0.6-0.2l3.1-3.1c0.1-0.1,0.1-0.4,0-0.5L188.2,164.8z"/>
<line style="fill:none;stroke:#B2B1B1;stroke-width:2.5;" x1="6.5" y1="164.4" x2="30.8" y2="164.4"/>
<path style="fill:#B2B1B1;" d="M22.2,156.4L22.2,156.4v-2.6l-2.5,2.5c-0.1,0.1-0.2,0.1-0.2-0.1v-6.7h-1.3c-0.2,0-0.4,0.2-0.4,0.4
	v6.7l-2.7-2.7v2.2c0,0.2,0.1,0.5,0.2,0.6l3.1,3.1c0.1,0.1,0.4,0.1,0.5,0L22.2,156.4z"/>
<path style="fill:#B2B1B1;" d="M15.2,171.5L15.2,171.5v2.6l2.5-2.5c0.1-0.1,0.2-0.1,0.2,0.1v6.7h1.3c0.2,0,0.4-0.2,0.4-0.4v-6.7
	l2.7,2.7v-2.2c0-0.2-0.1-0.5-0.2-0.6l-3.1-3.1c-0.1-0.1-0.4-0.1-0.5,0L15.2,171.5z"/>
<line style="fill:none;stroke:#B2B1B1;stroke-width:2.5;" x1="63" y1="177.2" x2="63" y2="153"/>
<path style="fill:#B2B1B1;" d="M54.9,161.6L54.9,161.6h-2.6l2.5,2.5c0.1,0.1,0.1,0.2-0.1,0.2H48v1.3c0,0.2,0.2,0.4,0.3,0.4h6.7
	l-2.7,2.7h2.2c0.2,0,0.5-0.1,0.6-0.2l3.1-3.1c0.1-0.1,0.1-0.4,0-0.5L54.9,161.6z"/>
<path style="fill:#B2B1B1;" d="M70.1,168.5L70.1,168.5h2.6l-2.5-2.5c-0.1-0.1-0.1-0.2,0.1-0.2H77v-1.3c0-0.2-0.2-0.4-0.3-0.4h-6.7
	l2.7-2.7h-2.2c-0.2,0-0.5,0.1-0.6,0.2l-3.1,3.1c-0.1,0.1-0.1,0.4,0,0.5L70.1,168.5z"/>
<line style="fill:none;stroke:#B2B1B1;stroke-width:2.5;" x1="95.1" y1="164.7" x2="119.4" y2="164.7"/>
<path style="fill:#B2B1B1;" d="M103.8,171.8L103.8,171.8v2.6l2.5-2.5c0.1-0.1,0.2-0.1,0.2,0.1v6.7h1.3c0.2,0,0.3-0.2,0.3-0.4v-6.7
	l2.7,2.7v-2.2c0-0.2-0.1-0.5-0.2-0.6l-3.1-3.1c-0.1-0.1-0.4-0.1-0.5,0L103.8,171.8z"/>
<line style="fill:none;stroke:#B2B1B1;stroke-width:2.5;" x1="140.2" y1="176" x2="164.5" y2="176"/>
<path style="fill:#B2B1B1;" d="M156,167.6L156,167.6V165l-2.5,2.5c-0.1,0.1-0.2,0.1-0.2-0.1v-6.7H152c-0.2,0-0.4,0.2-0.4,0.4v6.7
	l-2.7-2.7v2.2c0,0.2,0.1,0.5,0.2,0.6l3.1,3.1c0.1,0.1,0.4,0.1,0.5,0L156,167.6z"/>
<rect x="286.1" y="149" style="fill:#FFFFFF;" width="15.8" height="20.1"/>
<line style="fill:none;stroke:#B2B1B1;stroke-width:0.941;stroke-dasharray:1.971,1.971;" x1="289" y1="169.1" x2="299.9" y2="169.1"/>
<line style="fill:none;stroke:#B2B1B1;stroke-width:0.941;stroke-dasharray:2.006,2.006;" x1="301.8" y1="166.1" x2="301.8" y2="151"/>
<line style="fill:none;stroke:#B2B1B1;stroke-width:0.941;stroke-dasharray:1.971,1.971;" x1="298.9" y1="149" x2="288" y2="149"/>
<line style="fill:none;stroke:#B2B1B1;stroke-width:0.941;stroke-dasharray:2.006,2.006;" x1="286.1" y1="152" x2="286.1" y2="167.1"/>
<path style="fill:none;stroke:#B2B1B1;stroke-width:0.941;" d="M286.1,168.1v1h1 M287.1,149h-1v1 M301.8,150v-1h-1 M300.9,169.1h1
	v-1"/>
<polygon style="fill:#FFFFFF;" points="274.8,179.1 274.8,179.1 290.6,179.1 290.6,159 274.8,159 "/>
<line style="fill:none;stroke:#B2B1B1;stroke-width:0.941;stroke-dasharray:1.971,1.971;" x1="277.8" y1="179.1" x2="288.6" y2="179.1"/>
<line style="fill:none;stroke:#B2B1B1;stroke-width:0.941;stroke-dasharray:2.006,2.006;" x1="290.6" y1="176.1" x2="290.6" y2="161"/>
<line style="fill:none;stroke:#B2B1B1;stroke-width:0.941;stroke-dasharray:1.971,1.971;" x1="287.7" y1="159" x2="276.8" y2="159"/>
<line style="fill:none;stroke:#B2B1B1;stroke-width:0.941;stroke-dasharray:2.006,2.006;" x1="274.8" y1="162" x2="274.8" y2="177.1"/>
<path style="fill:none;stroke:#B2B1B1;stroke-width:0.941;" d="M274.8,178.1v1h1 M275.8,159h-1v1 M290.6,160v-1h-1 M289.6,179.1h1
	v-1"/>
<polygon style="fill:#FFFFFF;" points="265.4,187.1 265.4,187.1 281.1,187.1 281.1,167 265.4,167 "/>
<polygon style="fill:none;stroke:#B2B1B1;stroke-width:0.941;" points="265.4,187.1 265.4,187.1 281.1,187.1 281.1,167 265.4,167 
	"/>
<g>
	<polygon style="fill:#FFFFFF;" points="339.2,173.4 339.2,173.4 355,173.4 355,153.3 339.2,153.3 	"/>
	<polygon style="fill:none;stroke:#B2B1B1;stroke-width:0.941;" points="339.2,173.4 339.2,173.4 355,173.4 355,153.3 339.2,153.3 	
		"/>
	
		<line style="fill:none;stroke:#B2B1B1;stroke-width:0.941;stroke-dasharray:1.801,1.801;" x1="335.4" y1="161.9" x2="335.4" y2="175.4"/>
	
		<line style="fill:none;stroke:#B2B1B1;stroke-width:0.941;stroke-dasharray:2.091,2.091;" x1="338.6" y1="177.2" x2="350.1" y2="177.2"/>
	<path style="fill:none;stroke:#B2B1B1;stroke-width:0.941;" d="M351.1,177.2h1 M335.4,176.3v0.9h1 M335.4,159.2v0.9"/>
</g>
<g>
	<g>
		<rect x="411.7" y="141.6" style="fill:#FFFFFF;" width="15.8" height="20.1"/>
		<polygon style="fill:none;stroke:#B2B1B1;stroke-width:0.941;" points="411.7,161.7 411.7,161.7 427.5,161.7 427.5,141.6 
			411.7,141.6 		"/>
		<polygon style="fill:#FFFFFF;" points="400.5,171.7 400.5,171.7 416.3,171.7 416.3,151.6 400.5,151.6 		"/>
		
			<line style="fill:none;stroke:#B2B1B1;stroke-width:0.941;stroke-dasharray:1.971,1.971;" x1="403.5" y1="171.7" x2="414.3" y2="171.7"/>
		
			<line style="fill:none;stroke:#B2B1B1;stroke-width:0.941;stroke-dasharray:2.006,2.006;" x1="416.3" y1="168.7" x2="416.3" y2="153.6"/>
		
			<line style="fill:none;stroke:#B2B1B1;stroke-width:0.941;stroke-dasharray:1.971,1.971;" x1="413.3" y1="151.6" x2="402.5" y2="151.6"/>
		
			<line style="fill:none;stroke:#B2B1B1;stroke-width:0.941;stroke-dasharray:2.006,2.006;" x1="400.5" y1="154.6" x2="400.5" y2="169.7"/>
		<path style="fill:none;stroke:#B2B1B1;stroke-width:0.941;" d="M400.5,170.7v1h1 M401.5,151.6h-1v1 M416.3,152.6v-1h-1
			 M415.3,171.7h1v-1"/>
		<polygon style="fill:#FFFFFF;" points="391,179.7 391,179.7 406.8,179.7 406.8,159.6 391,159.6 		"/>
		
			<line style="fill:none;stroke:#B2B1B1;stroke-width:0.941;stroke-dasharray:1.971,1.971;" x1="394" y1="179.7" x2="404.8" y2="179.7"/>
		
			<line style="fill:none;stroke:#B2B1B1;stroke-width:0.941;stroke-dasharray:2.006,2.006;" x1="406.8" y1="176.7" x2="406.8" y2="161.6"/>
		
			<line style="fill:none;stroke:#B2B1B1;stroke-width:0.941;stroke-dasharray:1.971,1.971;" x1="403.8" y1="159.6" x2="393" y2="159.6"/>
		
			<line style="fill:none;stroke:#B2B1B1;stroke-width:0.941;stroke-dasharray:2.006,2.006;" x1="391" y1="162.6" x2="391" y2="177.7"/>
		<path style="fill:none;stroke:#B2B1B1;stroke-width:0.941;" d="M391,178.7v1h1 M392,159.6h-1v1 M406.8,160.6v-1h-1 M405.8,179.7h1
			v-1"/>
	</g>
	
		<line style="fill:none;stroke:#B2B1B1;stroke-width:0.941;stroke-dasharray:1.971,1.971;" x1="467.2" y1="175.2" x2="478" y2="175.2"/>
	
		<line style="fill:none;stroke:#B2B1B1;stroke-width:0.941;stroke-dasharray:2.006,2.006;" x1="480" y1="172.2" x2="480" y2="157.1"/>
	
		<line style="fill:none;stroke:#B2B1B1;stroke-width:0.941;stroke-dasharray:1.971,1.971;" x1="477" y1="155.1" x2="466.2" y2="155.1"/>
	
		<line style="fill:none;stroke:#B2B1B1;stroke-width:0.941;stroke-dasharray:2.006,2.006;" x1="464.2" y1="158.1" x2="464.2" y2="173.2"/>
	<path style="fill:none;stroke:#B2B1B1;stroke-width:0.941;" d="M464.2,174.2v1h1 M465.2,155.1h-1v1 M480,156.1v-1h-1 M479,175.2h1
		v-1"/>
	<polyline style="fill:none;stroke:#B2B1B1;stroke-width:0.941;" points="460.4,161 460.4,179 477.2,179 	"/>
</g>
<g>
	<g>
		<defs>
			<rect id="SVGID_1_" x="-294.8" y="269" width="241.7" height="1"/>
		</defs>
		<clipPath id="SVGID_00000146478875566166911930000002372733746626459285_">
			<use xlink:href="#SVGID_1_"  style="overflow:visible;"/>
		</clipPath>
		
			<line style="clip-path:url(#SVGID_00000146478875566166911930000002372733746626459285_);fill:none;stroke:#B2B2B2;stroke-linecap:round;stroke-linejoin:round;stroke-dasharray:0,3.009;" x1="-291.3" y1="269.5" x2="-55.2" y2="269.5"/>
	</g>
	<g>
		<defs>
			<rect id="SVGID_00000087408891329087510150000005516173416151403174_" x="-294.8" y="269" width="241.7" height="1"/>
		</defs>
		<clipPath id="SVGID_00000089547389524944996170000002608315987374954676_">
			<use xlink:href="#SVGID_00000087408891329087510150000005516173416151403174_"  style="overflow:visible;"/>
		</clipPath>
		
			<path style="clip-path:url(#SVGID_00000089547389524944996170000002608315987374954676_);fill:none;stroke:#B2B2B2;stroke-linecap:round;stroke-linejoin:round;" d="
			M-53.7,269.5L-53.7,269.5 M-294.3,269.5L-294.3,269.5"/>
	</g>
</g>
<circle style="fill:none;stroke:#4F4D4D;stroke-width:0.5;" cx="-247.9" cy="48.3" r="12.8"/>
<polygon style="fill:#0E689A;" points="-104.6,33.3 -117.6,33.3 -111.2,43.7 "/>
<polygon style="fill:#B2B1B1;" points="-96.5,161.8 -107,168.2 -96.5,174.8 "/>
<polygon style="fill:#B2B1B1;" points="-125.6,174.8 -115.1,168.4 -125.6,161.8 "/>
<polygon style="fill:#B2B1B1;" points="-43,161.8 -53.5,168.2 -43,174.8 "/>
<polygon style="fill:#B2B1B1;" points="-78.2,174.8 -67.7,168.4 -78.2,161.8 "/>
<rect x="82.1" y="33.3" style="fill:#0E6899;" width="34.9" height="19.6"/>
<polygon style="fill:none;stroke:#B2B2B2;stroke-width:0.5;stroke-miterlimit:10;" points="82.3,33.2 82.3,53.2 82.3,53.4 
	82.6,53.4 151.4,53.4 151.7,53.4 151.7,53.2 151.7,33.2 151.7,32.9 151.4,32.9 82.6,32.9 82.3,32.9 "/>
<rect x="82.1" y="32.7" style="fill:none;" width="69.8" height="21"/>
<rect x="117.4" y="99.3" style="fill:#0E6899;" width="34.9" height="19.6"/>
<polygon style="fill:none;stroke:#B2B2B2;stroke-width:0.5;stroke-miterlimit:10;" points="82.4,99.2 82.4,119.2 82.4,119.4 
	82.7,119.4 151.5,119.4 151.8,119.4 151.8,119.2 151.8,99.2 151.8,98.9 151.5,98.9 82.7,98.9 82.4,98.9 "/>
<rect x="82.2" y="98.7" style="fill:none;" width="70.2" height="21"/>
<line style="fill:none;stroke:#B2B1B1;stroke-width:2;" x1="205.4" y1="29.2" x2="169.4" y2="29.2"/>
<path style="fill:#AD5E7A;" d="M196.9,32.4c2,0,3.7-1.7,3.7-3.7s-1.7-3.7-3.7-3.7s-3.7,1.7-3.7,3.7S194.9,32.4,196.9,32.4"/>
<line style="fill:none;stroke:#B2B1B1;stroke-width:2;" x1="513.8" y1="60" x2="477.7" y2="60"/>
<path style="fill:#AD5E7A;" d="M505.3,63.1c2,0,3.7-1.7,3.7-3.7s-1.7-3.7-3.7-3.7s-3.7,1.7-3.7,3.7S503.2,63.1,505.3,63.1"/>
</svg>
