<?xml version="1.0" encoding="utf-8"?>
<!-- Generator: Adobe Illustrator 26.5.0, SVG Export Plug-In . SVG Version: 6.00 Build 0)  -->
<svg version="1.1" id="Ebene_1" xmlns="http://www.w3.org/2000/svg" xmlns:xlink="http://www.w3.org/1999/xlink" x="0px" y="0px"
	 width="27px" height="27px" viewBox="0 0 27 27" style="enable-background:new 0 0 27 27;" xml:space="preserve">
<polyline style="fill:none;stroke:#C5C5C5;stroke-width:3;stroke-linecap:round;stroke-linejoin:round;" points="1778.8,975.3 
	1772.6,966.3 1765.8,975.3 "/>
<circle style="fill:#FFAEFF;stroke:#4F4D4D;stroke-width:0.5;" cx="-213.1" cy="12.6" r="12.8"/>
<rect x="-180.6" y="1.6" style="fill:#F8F8F8;" width="119.9" height="21"/>
<polygon style="fill:#0E689A;" points="-69.8,6.8 -82.8,6.8 -76.4,17.3 "/>
<g>
	<line style="fill:none;stroke:#B2B1B1;stroke-width:0.65;stroke-miterlimit:10;" x1="43.2" y1="19.1" x2="53.5" y2="19.1"/>
	<g>
		<path style="fill:#B2B1B1;" d="M44.5,13.9V8.7h1.3v5.1c0,2,0.9,2.9,2.6,2.9s2.6-0.9,2.6-2.9V8.7h1.3v5.2c0,2.6-1.4,4-3.8,4
			C46,17.9,44.5,16.5,44.5,13.9z"/>
	</g>
</g>
<polygon style="fill:none;stroke:#B2B2B2;stroke-width:0.5;stroke-miterlimit:10;" points="35.1,0.9 35.1,26.9 35.1,27.1 35.4,27.1 
	61.4,27.1 61.6,27.1 61.6,26.9 61.6,0.9 61.6,0.6 61.4,0.6 35.4,0.6 35.1,0.6 "/>
<g>
	<g>
		<path style="fill:#B2B1B1;" d="M13.8,9h1.3l-1.8,9.1h-1.3L13.8,9z"/>
	</g>
	<polygon style="fill:none;stroke:#AD5E7A;stroke-width:0.5;stroke-miterlimit:10;" points="0.2,0.5 0.2,26.5 0.2,26.8 0.5,26.8 
		26.5,26.8 26.8,26.8 26.8,26.5 26.8,0.5 26.8,0.3 26.5,0.3 0.5,0.3 0.2,0.3 	"/>
</g>
<g>
	<g>
		<path style="fill:#B2B1B1;" d="M-19.4,15.6c0,1.6-1.2,2.5-3.6,2.5h-4.7V9h4.4c2.3,0,3.4,0.9,3.4,2.4c0,0.9-0.5,1.6-1.2,2
			C-20,13.7-19.4,14.5-19.4,15.6z M-25.6,10.6v2.1h2.1c1,0,1.6-0.4,1.6-1.1s-0.6-1.1-1.6-1.1L-25.6,10.6L-25.6,10.6z M-21.5,15.4
			c0-0.8-0.6-1.1-1.7-1.1h-2.5v2.2h2.5C-22.1,16.5-21.5,16.2-21.5,15.4z"/>
	</g>
	<polygon style="fill:none;stroke:#B2B2B2;stroke-width:0.5;stroke-miterlimit:10;" points="-36.8,0.6 -36.8,26.6 -36.8,26.8 
		-36.6,26.8 -10.6,26.8 -10.3,26.8 -10.3,26.6 -10.3,0.6 -10.3,0.3 -10.6,0.3 -36.6,0.3 -36.8,0.3 	"/>
</g>
<path style="fill:none;stroke:#B2B1B1;stroke-width:0.3;stroke-miterlimit:10;" d="M17.4,42.5"/>
<path style="fill:none;stroke:#B2B1B1;stroke-width:0.3;stroke-miterlimit:10;" d="M14.9,43.8"/>
<path style="fill:none;stroke:#B2B1B1;stroke-width:0.3;stroke-miterlimit:10;" d="M14.9,45"/>
<path style="fill:none;stroke:#B2B1B1;stroke-width:0.3;stroke-miterlimit:10;" d="M14.9,46.3"/>
<path style="fill:none;stroke:#B2B1B1;stroke-width:0.3;stroke-miterlimit:10;" d="M17.4,47.5"/>
<path style="fill:none;stroke:#B2B1B1;stroke-width:0.3;stroke-miterlimit:10;" d="M17.4,48.8"/>
<path style="fill:none;stroke:#B2B1B1;stroke-width:0.3;stroke-miterlimit:10;" d="M14.9,50"/>
<path style="fill:none;stroke:#B2B1B1;stroke-width:0.3;stroke-miterlimit:10;" d="M14.9,52.5"/>
<path style="fill:none;stroke:#B2B1B1;stroke-width:0.3;stroke-miterlimit:10;" d="M17.4,55"/>
<path style="fill:none;stroke:#B2B1B1;stroke-width:0.3;stroke-miterlimit:10;" d="M-2.1,47.5"/>
<path style="fill:none;stroke:#B2B1B1;stroke-width:0.3;stroke-miterlimit:10;" d="M-2.1,42.5"/>
<path style="fill:none;stroke:#B2B1B1;stroke-width:0.3;stroke-miterlimit:10;" d="M-2.1,55"/>
<path style="fill:none;stroke:#B2B1B1;stroke-width:0.3;stroke-miterlimit:10;" d="M-2.1,48.8"/>
<g>
	<path style="fill:none;stroke:#B2B1B1;stroke-width:0.3;stroke-miterlimit:10;" d="M0,50"/>
	<path style="fill:none;stroke:#B2B1B1;stroke-width:0.3;stroke-miterlimit:10;" d="M0,46.3"/>
	<path style="fill:none;stroke:#B2B1B1;stroke-width:0.3;stroke-miterlimit:10;" d="M0,45"/>
	<path style="fill:none;stroke:#B2B1B1;stroke-width:0.3;stroke-miterlimit:10;" d="M0,43.8"/>
	<line style="fill:none;stroke:#B2B1B1;stroke-width:0.3;stroke-miterlimit:10;" x1="-2.5" y1="54.2" x2="17" y2="54.2"/>
	<line style="fill:none;stroke:#B2B1B1;stroke-width:0.3;stroke-miterlimit:10;" x1="-2.5" y1="53" x2="12.4" y2="53"/>
	<line style="fill:none;stroke:#B2B1B1;stroke-width:0.3;stroke-miterlimit:10;" x1="-2.5" y1="51.7" x2="12.4" y2="51.7"/>
	<line style="fill:none;stroke:#B2B1B1;stroke-width:0.3;stroke-miterlimit:10;" x1="-2.5" y1="50.4" x2="12.4" y2="50.4"/>
	<line style="fill:none;stroke:#B2B1B1;stroke-width:0.3;stroke-miterlimit:10;" x1="-2.5" y1="49.1" x2="17" y2="49.1"/>
	<line style="fill:none;stroke:#B2B1B1;stroke-width:0.3;stroke-miterlimit:10;" x1="-2.5" y1="47.9" x2="17" y2="47.9"/>
	<line style="fill:none;stroke:#B2B1B1;stroke-width:0.3;stroke-miterlimit:10;" x1="-2.4" y1="46.6" x2="12.5" y2="46.6"/>
	<line style="fill:none;stroke:#B2B1B1;stroke-width:0.3;stroke-miterlimit:10;" x1="-2.5" y1="45.3" x2="17" y2="45.3"/>
	<line style="fill:none;stroke:#B2B1B1;stroke-width:0.3;stroke-miterlimit:10;" x1="-2.5" y1="44" x2="12.4" y2="44"/>
	<line style="fill:none;stroke:#B2B1B1;stroke-width:0.3;stroke-miterlimit:10;" x1="-2.5" y1="42.8" x2="12.4" y2="42.8"/>
	<line style="fill:none;stroke:#B2B1B1;stroke-width:0.3;stroke-miterlimit:10;" x1="-2.5" y1="41.5" x2="17" y2="41.5"/>
</g>
<polygon style="fill:none;stroke:#B2B2B2;stroke-width:0.5;stroke-miterlimit:10;" points="-5.8,35.2 -5.8,61.2 -5.8,61.4 
	-5.5,61.4 20.5,61.4 20.7,61.4 20.7,61.2 20.7,35.2 20.7,34.9 20.5,34.9 -5.5,34.9 -5.8,34.9 "/>
<g>
	<line style="fill:none;stroke:#B2B1B1;stroke-width:0.3;stroke-miterlimit:10;" x1="48.3" y1="41.8" x2="28.8" y2="41.8"/>
	<line style="fill:none;stroke:#B2B1B1;stroke-width:0.3;stroke-miterlimit:10;" x1="45.7" y1="43.1" x2="30.9" y2="43.1"/>
	<line style="fill:none;stroke:#B2B1B1;stroke-width:0.3;stroke-miterlimit:10;" x1="45.7" y1="44.4" x2="30.9" y2="44.4"/>
	<line style="fill:none;stroke:#B2B1B1;stroke-width:0.3;stroke-miterlimit:10;" x1="45.7" y1="45.6" x2="30.9" y2="45.6"/>
	<line style="fill:none;stroke:#B2B1B1;stroke-width:0.3;stroke-miterlimit:10;" x1="48.3" y1="46.9" x2="28.8" y2="46.9"/>
	<line style="fill:none;stroke:#B2B1B1;stroke-width:0.3;stroke-miterlimit:10;" x1="48.3" y1="48.2" x2="28.8" y2="48.2"/>
	<line style="fill:none;stroke:#B2B1B1;stroke-width:0.3;stroke-miterlimit:10;" x1="45.7" y1="49.5" x2="30.9" y2="49.5"/>
	<line style="fill:none;stroke:#B2B1B1;stroke-width:0.3;stroke-miterlimit:10;" x1="48.3" y1="50.7" x2="28.8" y2="50.7"/>
	<line style="fill:none;stroke:#B2B1B1;stroke-width:0.3;stroke-miterlimit:10;" x1="45.7" y1="52" x2="30.9" y2="52"/>
	<line style="fill:none;stroke:#B2B1B1;stroke-width:0.3;stroke-miterlimit:10;" x1="45.7" y1="53.3" x2="30.9" y2="53.3"/>
	<line style="fill:none;stroke:#B2B1B1;stroke-width:0.3;stroke-miterlimit:10;" x1="48.3" y1="54.6" x2="28.8" y2="54.6"/>
</g>
<polygon style="fill:none;stroke:#B2B2B2;stroke-width:0.5;stroke-miterlimit:10;" points="25.3,35.2 25.3,61.2 25.3,61.4 
	25.5,61.4 51.5,61.4 51.8,61.4 51.8,61.2 51.8,35.2 51.8,34.9 51.5,34.9 25.5,34.9 25.3,34.9 "/>
<polygon style="fill:none;stroke:#B2B2B2;stroke-width:0.5;stroke-miterlimit:10;" points="56.3,35.2 56.3,61.2 56.3,61.4 
	56.6,61.4 82.6,61.4 82.8,61.4 82.8,61.2 82.8,35.2 82.8,34.9 82.6,34.9 56.6,34.9 56.3,34.9 "/>
<path style="fill:none;stroke:#B2B1B1;stroke-width:0.3;stroke-miterlimit:10;" d="M59.7,53.9"/>
<path style="fill:none;stroke:#B2B1B1;stroke-width:0.3;stroke-miterlimit:10;" d="M59.7,48.9"/>
<path style="fill:none;stroke:#B2B1B1;stroke-width:0.3;stroke-miterlimit:10;" d="M59.7,47.6"/>
<path style="fill:none;stroke:#B2B1B1;stroke-width:0.3;stroke-miterlimit:10;" d="M59.7,41.3"/>
<path style="fill:none;stroke:#B2B1B1;stroke-width:0.3;stroke-miterlimit:10;" d="M77.1,46.4"/>
<path style="fill:none;stroke:#B2B1B1;stroke-width:0.3;stroke-miterlimit:10;" d="M79.1,48.9"/>
<path style="fill:none;stroke:#B2B1B1;stroke-width:0.3;stroke-miterlimit:10;" d="M77.1,50.1"/>
<path style="fill:none;stroke:#B2B1B1;stroke-width:0.3;stroke-miterlimit:10;" d="M79.1,53.9"/>
<path style="fill:none;stroke:#B2B1B1;stroke-width:0.3;stroke-miterlimit:10;" d="M79.1,41.3"/>
<path style="fill:none;stroke:#B2B1B1;stroke-width:0.3;stroke-miterlimit:10;" d="M79.1,47.6"/>
<path style="fill:none;stroke:#B2B1B1;stroke-width:0.3;stroke-miterlimit:10;" d="M77.1,51.4"/>
<path style="fill:none;stroke:#B2B1B1;stroke-width:0.3;stroke-miterlimit:10;" d="M77.1,52.6"/>
<g>
	<path style="fill:none;stroke:#B2B1B1;stroke-width:0.3;stroke-miterlimit:10;" d="M62,52.3"/>
	<path style="fill:none;stroke:#B2B1B1;stroke-width:0.3;stroke-miterlimit:10;" d="M62,51"/>
	<path style="fill:none;stroke:#B2B1B1;stroke-width:0.3;stroke-miterlimit:10;" d="M62,49.8"/>
	<path style="fill:none;stroke:#B2B1B1;stroke-width:0.3;stroke-miterlimit:10;" d="M62,46"/>
	<path style="fill:none;stroke:#B2B1B1;stroke-width:0.3;stroke-miterlimit:10;" d="M62,43.5"/>
	<line style="fill:none;stroke:#B2B1B1;stroke-width:0.3;stroke-miterlimit:10;" x1="79.3" y1="41.8" x2="59.9" y2="41.8"/>
	<line style="fill:none;stroke:#B2B1B1;stroke-width:0.3;stroke-miterlimit:10;" x1="79.3" y1="43.1" x2="64.4" y2="43.1"/>
	<line style="fill:none;stroke:#B2B1B1;stroke-width:0.3;stroke-miterlimit:10;" x1="79.3" y1="44.4" x2="64.4" y2="44.4"/>
	<line style="fill:none;stroke:#B2B1B1;stroke-width:0.3;stroke-miterlimit:10;" x1="79.3" y1="45.6" x2="64.4" y2="45.6"/>
	<line style="fill:none;stroke:#B2B1B1;stroke-width:0.3;stroke-miterlimit:10;" x1="79.3" y1="46.9" x2="59.9" y2="46.9"/>
	<line style="fill:none;stroke:#B2B1B1;stroke-width:0.3;stroke-miterlimit:10;" x1="79.3" y1="48.2" x2="59.9" y2="48.2"/>
	<line style="fill:none;stroke:#B2B1B1;stroke-width:0.3;stroke-miterlimit:10;" x1="79.3" y1="49.5" x2="64.4" y2="49.5"/>
	<line style="fill:none;stroke:#B2B1B1;stroke-width:0.3;stroke-miterlimit:10;" x1="79.3" y1="50.7" x2="59.9" y2="50.7"/>
	<line style="fill:none;stroke:#B2B1B1;stroke-width:0.3;stroke-miterlimit:10;" x1="79.3" y1="52" x2="64.4" y2="52"/>
	<line style="fill:none;stroke:#B2B1B1;stroke-width:0.3;stroke-miterlimit:10;" x1="79.3" y1="53.3" x2="64.4" y2="53.3"/>
	<line style="fill:none;stroke:#B2B1B1;stroke-width:0.3;stroke-miterlimit:10;" x1="79.3" y1="54.6" x2="59.9" y2="54.6"/>
</g>
<polygon style="fill:none;stroke:#B2B2B2;stroke-width:0.5;stroke-miterlimit:10;" points="-36.6,35.2 -36.6,61.2 -36.6,61.4 
	-36.3,61.4 -10.3,61.4 -10.1,61.4 -10.1,61.2 -10.1,35.2 -10.1,35 -10.3,35 -36.3,35 -36.6,35 "/>
<path style="fill:none;stroke:#B2B1B1;stroke-width:0.3;stroke-miterlimit:10;" d="M-13.4,42.5"/>
<path style="fill:none;stroke:#B2B1B1;stroke-width:0.3;stroke-miterlimit:10;" d="M-13.4,47.5"/>
<path style="fill:none;stroke:#B2B1B1;stroke-width:0.3;stroke-miterlimit:10;" d="M-13.4,48.8"/>
<path style="fill:none;stroke:#B2B1B1;stroke-width:0.3;stroke-miterlimit:10;" d="M-13.4,55"/>
<path style="fill:none;stroke:#B2B1B1;stroke-width:0.3;stroke-miterlimit:10;" d="M-30.8,50"/>
<path style="fill:none;stroke:#B2B1B1;stroke-width:0.3;stroke-miterlimit:10;" d="M-32.9,47.5"/>
<path style="fill:none;stroke:#B2B1B1;stroke-width:0.3;stroke-miterlimit:10;" d="M-30.8,46.3"/>
<path style="fill:none;stroke:#B2B1B1;stroke-width:0.3;stroke-miterlimit:10;" d="M-32.9,42.5"/>
<path style="fill:none;stroke:#B2B1B1;stroke-width:0.3;stroke-miterlimit:10;" d="M-32.9,55"/>
<path style="fill:none;stroke:#B2B1B1;stroke-width:0.3;stroke-miterlimit:10;" d="M-32.9,48.8"/>
<path style="fill:none;stroke:#B2B1B1;stroke-width:0.3;stroke-miterlimit:10;" d="M-30.8,45"/>
<path style="fill:none;stroke:#B2B1B1;stroke-width:0.3;stroke-miterlimit:10;" d="M-30.8,43.8"/>
<g>
	<path style="fill:none;stroke:#B2B1B1;stroke-width:0.3;stroke-miterlimit:10;" d="M-15.9,43.8"/>
	<path style="fill:none;stroke:#B2B1B1;stroke-width:0.3;stroke-miterlimit:10;" d="M-15.9,45"/>
	<path style="fill:none;stroke:#B2B1B1;stroke-width:0.3;stroke-miterlimit:10;" d="M-15.9,46.3"/>
	<path style="fill:none;stroke:#B2B1B1;stroke-width:0.3;stroke-miterlimit:10;" d="M-15.9,50"/>
	<path style="fill:none;stroke:#B2B1B1;stroke-width:0.3;stroke-miterlimit:10;" d="M-15.9,52.5"/>
	<line style="fill:none;stroke:#B2B1B1;stroke-width:0.3;stroke-miterlimit:10;" x1="-33.2" y1="54.2" x2="-13.8" y2="54.2"/>
	<line style="fill:none;stroke:#B2B1B1;stroke-width:0.3;stroke-miterlimit:10;" x1="-33.2" y1="53" x2="-13.8" y2="53"/>
	<line style="fill:none;stroke:#B2B1B1;stroke-width:0.3;stroke-miterlimit:10;" x1="-33.2" y1="51.7" x2="-13.8" y2="51.7"/>
	<line style="fill:none;stroke:#B2B1B1;stroke-width:0.3;stroke-miterlimit:10;" x1="-33.2" y1="50.4" x2="-13.8" y2="50.4"/>
	<line style="fill:none;stroke:#B2B1B1;stroke-width:0.3;stroke-miterlimit:10;" x1="-33.2" y1="49.1" x2="-13.8" y2="49.1"/>
	<line style="fill:none;stroke:#B2B1B1;stroke-width:0.3;stroke-miterlimit:10;" x1="-33.2" y1="47.9" x2="-13.8" y2="47.9"/>
	<line style="fill:none;stroke:#B2B1B1;stroke-width:0.3;stroke-miterlimit:10;" x1="-33.2" y1="46.6" x2="-13.7" y2="46.6"/>
	<line style="fill:none;stroke:#B2B1B1;stroke-width:0.3;stroke-miterlimit:10;" x1="-33.2" y1="45.3" x2="-13.8" y2="45.3"/>
	<line style="fill:none;stroke:#B2B1B1;stroke-width:0.3;stroke-miterlimit:10;" x1="-33.2" y1="44" x2="-13.8" y2="44"/>
	<line style="fill:none;stroke:#B2B1B1;stroke-width:0.3;stroke-miterlimit:10;" x1="-33.2" y1="42.8" x2="-13.8" y2="42.8"/>
	<line style="fill:none;stroke:#B2B1B1;stroke-width:0.3;stroke-miterlimit:10;" x1="-33.2" y1="41.5" x2="-13.8" y2="41.5"/>
</g>
<path style="fill:#B2B1B1;" d="M-206.1,150.4l-1.9,13.3c-0.1,0.4-0.4,0.7-0.8,0.6c-0.4-0.1-0.7-0.4-0.6-0.8l1.9-13.3
	c0.1-0.4,0.4-0.7,0.8-0.6C-206.3,149.6-206.1,149.9-206.1,150.4 M-212.9,164.4c-0.4,0-0.7-0.3-0.7-0.7l-0.1-13.5
	c0-0.4,0.3-0.7,0.7-0.7c0.4,0,0.7,0.3,0.7,0.7l0.1,13.5C-212.2,164.1-212.5,164.4-212.9,164.4 M-217,164.4c-0.4,0.1-0.8-0.2-0.8-0.6
	l-2.1-13.3c-0.1-0.4,0.2-0.8,0.6-0.8c0.4-0.1,0.8,0.2,0.8,0.6l2.1,13.3C-216.3,163.9-216.6,164.3-217,164.4 M-203.2,148
	c-0.1-0.2-0.4-0.3-0.6-0.3l-18.5,0.1c-0.2,0-0.4,0.1-0.6,0.3c-0.1,0.2-0.2,0.4-0.2,0.6l3.1,16.1c0.1,0.4,0.4,0.6,0.7,0.6l12.5-0.1
	c0.4,0,0.7-0.3,0.7-0.6l2.9-16.2C-203,148.4-203.1,148.1-203.2,148"/>
<path style="fill:none;stroke:#FFFFFF;stroke-width:2.100000e-02;" d="M-206.1,150.4l-1.9,13.3c-0.1,0.4-0.4,0.7-0.8,0.6
	c-0.4-0.1-0.7-0.4-0.6-0.8l1.9-13.3c0.1-0.4,0.4-0.7,0.8-0.6C-206.3,149.6-206.1,149.9-206.1,150.4z M-212.9,164.4
	c-0.4,0-0.7-0.3-0.7-0.7l-0.1-13.5c0-0.4,0.3-0.7,0.7-0.7c0.4,0,0.7,0.3,0.7,0.7l0.1,13.5C-212.2,164.1-212.5,164.4-212.9,164.4z
	 M-217,164.4c-0.4,0.1-0.8-0.2-0.8-0.6l-2.1-13.3c-0.1-0.4,0.2-0.8,0.6-0.8c0.4-0.1,0.8,0.2,0.8,0.6l2.1,13.3
	C-216.3,163.9-216.6,164.3-217,164.4z M-203.2,148c-0.1-0.2-0.4-0.3-0.6-0.3l-18.5,0.1c-0.2,0-0.4,0.1-0.6,0.3
	c-0.1,0.2-0.2,0.4-0.2,0.6l3.1,16.1c0.1,0.4,0.4,0.6,0.7,0.6l12.5-0.1c0.4,0,0.7-0.3,0.7-0.6l2.9-16.2
	C-203,148.4-203.1,148.1-203.2,148z"/>
<path style="fill:#B2B1B1;" d="M-215.9,143.4L-215.9,143.4l0-0.4l5.5,0l0,0.4L-215.9,143.4z M-202.2,144.8L-202.2,144.8l-2,0l0-1.2
	c0-0.1,0-0.2-0.1-0.2c-0.1-0.1-0.2-0.1-0.2-0.1l-4.5,0l0-1.1c0-0.2-0.1-0.4-0.2-0.5c-0.1-0.1-0.3-0.2-0.5-0.2l-6.9,0.1
	c-0.2,0-0.4,0.1-0.5,0.2s-0.2,0.3-0.2,0.5l0,1.1l-4.2,0c-0.1,0-0.2,0-0.2,0.1c-0.1,0.1-0.1,0.2-0.1,0.2l0,1.2l-2.2,0l0,2.2l21.8-0.2
	L-202.2,144.8z"/>
<path style="fill:none;stroke:#FFFFFF;stroke-width:2.100000e-02;" d="M-215.9,143.4L-215.9,143.4l0-0.4l5.5,0l0,0.4L-215.9,143.4z
	 M-202.2,144.8L-202.2,144.8l-2,0l0-1.2c0-0.1,0-0.2-0.1-0.2c-0.1-0.1-0.2-0.1-0.2-0.1l-4.5,0l0-1.1c0-0.2-0.1-0.4-0.2-0.5
	c-0.1-0.1-0.3-0.2-0.5-0.2l-6.9,0.1c-0.2,0-0.4,0.1-0.5,0.2s-0.2,0.3-0.2,0.5l0,1.1l-4.2,0c-0.1,0-0.2,0-0.2,0.1
	c-0.1,0.1-0.1,0.2-0.1,0.2l0,1.2l-2.2,0l0,2.2l21.8-0.2L-202.2,144.8z"/>
<rect x="-224" y="141.5" style="fill:none;" width="21.9" height="24"/>
<rect x="116.9" y="0.7" style="fill:#0E6899;" width="34.9" height="19.6"/>
<g>
	<path style="fill:#FFFFFF;" d="M129.9,11.1v4.2H129v-1.1c-0.4,0.7-1.2,1.1-2.4,1.1c-1.5,0-2.5-0.8-2.5-2c0-1.1,0.7-1.9,2.6-1.9h2.2
		v-0.4c0-1.2-0.7-1.8-1.9-1.8c-0.9,0-1.7,0.3-2.3,0.8l-0.4-0.7c0.7-0.6,1.7-0.9,2.8-0.9C128.9,8.5,129.9,9.4,129.9,11.1z M129,13.3
		v-1.1h-2.1c-1.3,0-1.8,0.5-1.8,1.2c0,0.8,0.6,1.3,1.7,1.3C127.8,14.7,128.6,14.2,129,13.3z"/>
	<path style="fill:#FFFFFF;" d="M138,8.5v6.8h-0.9v-1.2c-0.5,0.8-1.4,1.3-2.5,1.3c-1.7,0-2.9-1-2.9-2.9v-4h0.9v3.9
		c0,1.5,0.8,2.2,2.1,2.2c1.4,0,2.3-0.9,2.3-2.5V8.5H138z"/>
	<path style="fill:#FFFFFF;" d="M139.3,14.6l0.4-0.7c0.5,0.4,1.5,0.8,2.4,0.8c1.3,0,1.8-0.4,1.8-1.1c0-1.8-4.4-0.4-4.4-3.1
		c0-1.1,1-1.9,2.7-1.9c0.9,0,1.8,0.2,2.4,0.6l-0.4,0.7c-0.6-0.4-1.3-0.6-2-0.6c-1.2,0-1.8,0.5-1.8,1.1c0,1.8,4.4,0.5,4.4,3.1
		c0,1.2-1,1.9-2.8,1.9C140.9,15.4,139.9,15.1,139.3,14.6z"/>
</g>
<polygon style="fill:none;stroke:#B2B2B2;stroke-width:0.5;stroke-miterlimit:10;" points="117.2,0.6 117.2,20.6 117.2,20.8 
	117.4,20.8 186.3,20.8 186.5,20.8 186.5,20.6 186.5,0.6 186.5,0.3 186.3,0.3 117.4,0.3 117.2,0.3 "/>
<rect x="116.9" y="0.1" style="fill:none;" width="69.8" height="21"/>
<rect x="-287.5" y="207.4" style="fill:#FFFFFF;" width="1014" height="21"/>
<path style="fill:#0E689A;" d="M339.7,207.4c-2.2,0-4,1.8-4,4v12.4c0,2.2,1.8,4,4,4h77.1c2.2,0,4-1.8,4-4v-12.4c0-2.2-1.8-4-4-4
	H339.7z"/>
<rect x="-287.2" y="207.7" style="fill:none;stroke:#C5C5C5;stroke-width:0.5;stroke-linecap:round;stroke-linejoin:round;" width="1013.5" height="20.5"/>
<path style="fill:#C5C5C5;" d="M710.4,210.3v1.5c0,0.4,0.2,0.8,0.5,1l6.4,4.8c0.3,0.2,0.3,0.6,0,0.8l-6.4,4.8
	c-0.3,0.2-0.5,0.6-0.5,1v1.5c0,0.4,0.5,0.6,0.8,0.4l10.1-7.6c0.3-0.2,0.3-0.7,0-1l-10.1-7.6C710.8,209.6,710.4,209.9,710.4,210.3"/>
<path style="fill:#C5C5C5;" d="M-271.6,225.6v-1.5c0-0.4-0.2-0.8-0.5-1l-6.4-4.8c-0.3-0.2-0.3-0.6,0-0.8l6.4-4.8
	c0.3-0.2,0.5-0.6,0.5-1v-1.5c0-0.4-0.5-0.6-0.8-0.4l-10.1,7.6c-0.3,0.2-0.3,0.7,0,1l10.1,7.6C-272.1,226.2-271.6,226-271.6,225.6"/>
<rect x="-287.5" y="207.4" style="fill:none;" width="1014" height="21"/>
<rect x="768.3" y="-37.1" style="fill:#FFFFFF;" width="21" height="702.1"/>
<path style="fill:#0E689A;" d="M768.3,376.8c0,2.2,1.8,4,4,4h12.4c2.2,0,4-1.8,4-4v-78.3c0-2.2-1.8-4-4-4h-12.4c-2.2,0-4,1.8-4,4
	V376.8z"/>
<rect x="768.5" y="-36.9" style="fill:none;stroke:#C5C5C5;stroke-width:0.5;stroke-linecap:round;stroke-linejoin:round;" width="20.5" height="701.6"/>
<path style="fill:#C5C5C5;" d="M771.2-23.6h1.5c0.4,0,0.8-0.2,1-0.5l4.8-6.5c0.2-0.3,0.6-0.3,0.8,0l4.8,6.5c0.2,0.3,0.6,0.5,1,0.5
	h1.5c0.4,0,0.6-0.5,0.4-0.8l-7.6-10.2c-0.2-0.3-0.7-0.3-1,0l-7.6,10.2C770.5-24.1,770.7-23.6,771.2-23.6"/>
<path style="fill:#C5C5C5;" d="M786.4,650.7H785c-0.4,0-0.8,0.2-1,0.5l-4.8,6.5c-0.2,0.3-0.6,0.3-0.8,0l-4.8-6.5
	c-0.2-0.3-0.6-0.5-1-0.5h-1.5c-0.4,0-0.6,0.5-0.4,0.8l7.6,10.2c0.2,0.3,0.7,0.3,1,0l7.6-10.2C787.1,651.1,786.8,650.7,786.4,650.7"
	/>
<rect x="768.3" y="-37.1" style="fill:none;" width="21" height="702.1"/>
<line style="fill:none;stroke:#B2B1B1;stroke-width:0.3;stroke-miterlimit:10;" x1="47.3" y1="75" x2="34.3" y2="75"/>
<line style="fill:none;stroke:#B2B1B1;stroke-width:0.3;stroke-miterlimit:10;" x1="47.3" y1="80.1" x2="34.3" y2="80.1"/>
<line style="fill:none;stroke:#B2B1B1;stroke-width:0.3;stroke-miterlimit:10;" x1="47.3" y1="85.2" x2="34.3" y2="85.2"/>
<text transform="matrix(1 0 0 1 29.7277 74.8669)" style="fill:#B2B1B1; font-family:'Montserrat-Bold'; font-size:3px;">1</text>
<text transform="matrix(1 0 0 1 29.7277 79.8825)" style="fill:#B2B1B1; font-family:'Montserrat-Bold'; font-size:3px;">2</text>
<text transform="matrix(1 0 0 1 29.7277 84.8981)" style="fill:#B2B1B1; font-family:'Montserrat-Bold'; font-size:3px;">3</text>
<polygon style="fill:none;stroke:#B2B2B2;stroke-width:0.5;stroke-miterlimit:10;" points="25.3,67.4 25.3,93.4 25.3,93.7 
	25.5,93.7 51.5,93.7 51.8,93.7 51.8,93.4 51.8,67.4 51.8,67.2 51.5,67.2 25.5,67.2 25.3,67.2 "/>
<polygon style="fill:none;stroke:#B2B2B2;stroke-width:0.5;stroke-miterlimit:10;" points="-6.2,67.4 -6.2,93.4 -6.2,93.7 -6,93.7 
	20,93.7 20.3,93.7 20.3,93.4 20.3,67.4 20.3,67.2 20,67.2 -6,67.2 -6.2,67.2 "/>
<polygon style="fill:none;stroke:#B2B2B2;stroke-width:0.5;stroke-miterlimit:10;" points="-36.6,67.4 -36.6,93.4 -36.6,93.7 
	-36.3,93.7 -10.3,93.7 -10.1,93.7 -10.1,93.4 -10.1,67.4 -10.1,67.2 -10.3,67.2 -36.3,67.2 -36.6,67.2 "/>
<path style="fill:none;stroke:#B2B1B1;stroke-width:0.3;stroke-miterlimit:10;" d="M15.3,85.5h-13 M15.3,80.4h-13 M15.3,75.3h-13"/>
<path style="fill:#B2B1B1;" d="M0.2,81c0.2-0.2,0.2-0.3,0.2-0.6c0-0.2,0-0.3-0.1-0.4c-0.1-0.1-0.2-0.2-0.3-0.3
	c-0.1-0.1-0.3-0.1-0.4-0.1c-0.2,0-0.3,0-0.4,0.1S-1,79.9-1.1,80c-0.1,0.1-0.1,0.3-0.1,0.4c0,0.2,0.1,0.4,0.2,0.6
	c0.2,0.2,0.4,0.2,0.6,0.2C-0.1,81.2,0,81.1,0.2,81"/>
<path style="fill:#B2B1B1;" d="M-0.4,76.3c0.5,0,0.9-0.4,0.9-0.9c0-0.5-0.4-0.9-0.9-0.9c-0.5,0-0.9,0.4-0.9,0.9
	C-1.3,76-0.9,76.3-0.4,76.3"/>
<path style="fill:#B2B1B1;" d="M0.2,86c0.2-0.2,0.2-0.3,0.2-0.6c0-0.2,0-0.3-0.1-0.4c-0.1-0.1-0.2-0.2-0.3-0.3
	c-0.1-0.1-0.3-0.1-0.4-0.1c-0.2,0-0.3,0-0.4,0.1S-1,84.9-1.1,85c-0.1,0.1-0.1,0.3-0.1,0.4c0,0.2,0.1,0.4,0.2,0.6
	c0.2,0.2,0.4,0.2,0.6,0.2C-0.1,86.2,0,86.2,0.2,86"/>
<path style="fill:none;stroke:#B2B1B1;stroke-width:0.3;stroke-miterlimit:10;" d="M-15,85.5h-13 M-15,80.4h-13 M-15,75.3h-13"/>
<rect x="-31.6" y="74.5" style="fill:#B2B1B1;" width="1.8" height="1.8"/>
<rect x="-31.6" y="79.5" style="fill:#B2B1B1;" width="1.8" height="1.8"/>
<rect x="-31.6" y="84.5" style="fill:#B2B1B1;" width="1.8" height="1.8"/>
<rect x="306.9" y="-0.4" style="fill:#F8F8F8;" width="245" height="57.8"/>
<text transform="matrix(1 0 0 1 381.6262 25.814)" style="fill:#B2B1B1; font-family:'Montserrat-Regular'; font-size:13px;">N</text>
<text transform="matrix(1 0 0 1 392.1042 25.814)" style="fill:#B2B1B1; font-family:'Montserrat-Regular'; font-size:13px;">e</text>
<text transform="matrix(1 0 0 1 399.7612 25.814)" style="fill:#B2B1B1; font-family:'Montserrat-Regular'; font-size:13px;">u</text>
<text transform="matrix(1 0 0 1 408.3792 25.814)" style="fill:#B2B1B1; font-family:'Montserrat-Regular'; font-size:13px;">e </text>
<text transform="matrix(1 0 0 1 419.6372 25.814)" style="fill:#B2B1B1; font-family:'Montserrat-Regular'; font-size:13px;">T</text>
<text transform="matrix(1 0 0 1 426.0072 25.814)" style="fill:#B2B1B1; font-family:'Montserrat-Regular'; font-size:13px;">e</text>
<text transform="matrix(1 0 0 1 433.5082 25.814)" style="fill:#B2B1B1; font-family:'Montserrat-Regular'; font-size:13px;">x</text>
<text transform="matrix(1 0 0 1 440.7232 25.814)" style="fill:#B2B1B1; font-family:'Montserrat-Regular'; font-size:13px;">t</text>
<text transform="matrix(1 0 0 1 445.7542 25.814)" style="fill:#B2B1B1; font-family:'Montserrat-Regular'; font-size:13px;">b</text>
<text transform="matrix(1 0 0 1 454.5682 25.814)" style="fill:#B2B1B1; font-family:'Montserrat-Regular'; font-size:13px;">o</text>
<text transform="matrix(1 0 0 1 462.3682 25.814)" style="fill:#B2B1B1; font-family:'Montserrat-Regular'; font-size:13px;">x </text>
<path style="fill:none;stroke:#B2B1B1;stroke-width:0.5;" d="M429.4,47.6c3.7,0,6.7-3,6.7-6.7c0-3.7-3-6.7-6.7-6.7s-6.7,3-6.7,6.7
	C422.7,44.6,425.7,47.6,429.4,47.6z"/>
<rect x="306.9" y="-0.4" style="fill:none;" width="245" height="57.8"/>
<line style="fill:none;stroke:#B2B1B1;stroke-width:1.2;" x1="429.4" y1="37.3" x2="429.4" y2="44.4"/>
<line style="fill:none;stroke:#B2B1B1;stroke-width:1.2;" x1="425.9" y1="40.9" x2="433" y2="40.9"/>
<path style="fill:none;stroke:#B2B1B1;stroke-width:0.5;" d="M318.5,87.4c3.7,0,6.7-3,6.7-6.7c0-3.7-3-6.7-6.7-6.7s-6.7,3-6.7,6.7
	C311.8,84.4,314.8,87.4,318.5,87.4z"/>
<line style="fill:none;stroke:#B2B1B1;stroke-width:1.2;" x1="318.5" y1="77.2" x2="318.5" y2="84.2"/>
<line style="fill:none;stroke:#B2B1B1;stroke-width:1.2;" x1="314.9" y1="80.7" x2="322" y2="80.7"/>
<g>
	<path style="fill:#B2B2B2;" d="M-177.4,102.5h-3.1v-1.8h8.5v1.8h-3.1v8h-2.3L-177.4,102.5L-177.4,102.5z"/>
	<path style="fill:#B2B2B2;" d="M-170.8,100.7h2.3v9.8h-2.3V100.7z"/>
	<path style="fill:#B2B2B2;" d="M-157.7,104.3c0,2.2-1.6,3.5-4.3,3.5h-2v2.7h-2.3v-9.8h4.2C-159.3,100.7-157.7,102.1-157.7,104.3z
		 M-160,104.3c0-1.1-0.7-1.7-2.1-1.7h-1.8v3.4h1.8C-160.7,106-160,105.3-160,104.3z"/>
	<path style="fill:#B2B2B2;" d="M-147.6,104.3c0,2.2-1.6,3.5-4.3,3.5h-2v2.7h-2.3v-9.8h4.2C-149.2,100.7-147.6,102.1-147.6,104.3z
		 M-149.9,104.3c0-1.1-0.7-1.7-2.1-1.7h-1.8v3.4h1.8C-150.6,106-149.9,105.3-149.9,104.3z"/>
</g>
<path style="fill:#B2B2B2;" d="M-214.1,96.2L-214.1,96.2c-1.1,2.5-2,4.6-2.9,6.8h5.7C-212.2,100.8-213,98.6-214.1,96.2
	 M-210.6,113.8L-210.6,113.8c-0.3-1.2-0.2-1.8,1-1.8c1,0,1.3-0.7,1-1.6c-0.5-1.4-1.1-2.8-1.7-4.2c-0.1-0.2-0.6-0.5-0.8-0.5
	c-2.1,0-4.3,0-6.4,0c-0.3,0-0.7,0.3-0.9,0.6c-0.6,1.2-1.1,2.3-1.5,3.5c-0.6,1.5-0.3,2,1.3,2.2c0.8,0.1,1.2,0.3,1,1.1
	c-0.1,0.2-0.4,0.6-0.5,0.6c-2.5,0-5,0-7.6,0c-0.2-1-0.3-1.6,0.9-1.9c0.6-0.1,1.2-0.6,1.5-1.1c0.8-1.3,1.4-2.7,2-4
	c2.4-5.6,4.8-11.1,7.2-16.7c0.2-0.4,0.6-0.7,1-1c0.3,0.3,0.8,0.6,0.9,1c2.6,6,5.1,12.1,7.6,18.2c0.3,0.8,0.7,1.5,1.1,2.3
	c0.5,0.9,1.3,1.4,2.4,1.6c0.3,0.1,0.5,0.6,0.6,1c0,0.2-0.4,0.6-0.6,0.6C-204.2,113.8-207.4,113.8-210.6,113.8"/>
<path style="fill:#B2B1B1;" d="M-116.8,106.3c2.7,0,4.8-2,4.8-4.6c0-2.4-2.2-4.4-4.7-4.4c-2.7,0-4.8,2-4.8,4.6
	C-121.6,104.3-119.4,106.3-116.8,106.3 M-111.3,106.3L-111.3,106.3c0.4-0.2,0.6-0.2,0.9,0.1c1.2,1.2,2.5,2.4,3.8,3.5
	c0.1,0.1,0.2,0.2,0.3,0.2c0.2,0.2,0.2,0.5,0,0.7c-0.2,0.2-0.5,0.5-0.8,0.7c-0.3,0.3-0.5,0.3-0.9,0c-1.2-1.1-2.3-2.2-3.5-3.3
	c-0.1-0.1-0.3-0.2-0.4-0.4c-0.4-0.3-0.4-0.5-0.2-0.9c-0.4-0.3-0.7-0.7-1.1-1c-1.5,1.1-3.2,1.5-5,1.1c-1.4-0.3-2.5-1.1-3.4-2.2
	c-1.7-2.2-1.3-5.3,0.8-7.1c2.2-1.9,5.5-1.9,7.7-0.1c2.2,1.8,2.8,5.1,0.7,7.6C-112,105.6-111.6,105.9-111.3,106.3"/>
<path style="fill:none;stroke:#FFFFFF;stroke-width:1.000000e-03;" d="M-116.8,106.3c2.7,0,4.8-2,4.8-4.6c0-2.4-2.2-4.4-4.7-4.4
	c-2.7,0-4.8,2-4.8,4.6C-121.6,104.3-119.4,106.3-116.8,106.3z M-111.3,106.3L-111.3,106.3c0.4-0.2,0.6-0.2,0.9,0.1
	c1.2,1.2,2.5,2.4,3.8,3.5c0.1,0.1,0.2,0.2,0.3,0.2c0.2,0.2,0.2,0.5,0,0.7c-0.2,0.2-0.5,0.5-0.8,0.7c-0.3,0.3-0.5,0.3-0.9,0
	c-1.2-1.1-2.3-2.2-3.5-3.3c-0.1-0.1-0.3-0.2-0.4-0.4c-0.4-0.3-0.4-0.5-0.2-0.9c-0.4-0.3-0.7-0.7-1.1-1c-1.5,1.1-3.2,1.5-5,1.1
	c-1.4-0.3-2.5-1.1-3.4-2.2c-1.7-2.2-1.3-5.3,0.8-7.1c2.2-1.9,5.5-1.9,7.7-0.1c2.2,1.8,2.8,5.1,0.7,7.6
	C-112,105.6-111.6,105.9-111.3,106.3z"/>
<path style="fill:#B2B1B1;" d="M-53.1,96.7l3,3v-2.8c0-0.1-0.1-0.2-0.1-0.3l-3.8-3.8c-0.1-0.1-0.2-0.1-0.2,0l-3.9,3.9v2.8
	c0,0.1,0.1,0.1,0.1,0.1l2.8-2.9c0.1-0.1,0.1,0,0.1,0.1v7.8l0,0v2.2c0,0.1-0.1,0.1-0.1,0.1l-3-3v2.8c0,0.1,0.1,0.2,0.1,0.3l3.8,3.8
	c0.1,0.1,0.2,0.1,0.2,0l3.9-3.9V104c0-0.1-0.1-0.1-0.1-0.1l-2.8,2.9c-0.1,0.1-0.1,0-0.1-0.1v-7.8l0,0v-2.2
	C-53.2,96.7-53.2,96.6-53.1,96.7z"/>
<line style="fill:none;stroke:#B2B1B1;stroke-width:1.712;" x1="-89.2" y1="109.9" x2="-61.4" y2="109.9"/>
<line style="fill:none;stroke:#B2B1B1;stroke-width:1.712;" x1="-89.2" y1="101.6" x2="-61.4" y2="101.6"/>
<line style="fill:none;stroke:#B2B1B1;stroke-width:1.712;" x1="-89.2" y1="93.6" x2="-61.4" y2="93.6"/>
<line style="fill:none;stroke:#B2B1B1;stroke-width:1.712;" x1="-74.9" y1="128.9" x2="-74.9" y2="149.9"/>
<path style="fill:#B2B1B1;" d="M-67.4,142.7L-67.4,142.7h2.7l-2.6-2.6c-0.1-0.1-0.1-0.2,0.1-0.2h7v-1.4c0-0.2-0.2-0.4-0.3-0.4h-6.7
	c-0.2,0-0.2-0.1-0.1-0.2l2.6-2.6h-2.3c-0.2,0-0.5,0.1-0.6,0.2l-3.2,3.2c-0.1,0.1-0.1,0.4,0,0.5L-67.4,142.7z"/>
<path style="fill:#B2B1B1;" d="M-83.2,135.5L-83.2,135.5h-2.7l2.6,2.6c0.1,0.1,0.1,0.2-0.1,0.2h-7v1.4c0,0.2,0.2,0.4,0.3,0.4h6.7
	c0.2,0,0.2,0.1,0.1,0.2l-2.6,2.6h2.3c0.2,0,0.5-0.1,0.6-0.2l3.2-3.2c0.1-0.1,0.1-0.4,0-0.5L-83.2,135.5z"/>
<line style="fill:none;stroke:#B2B1B1;stroke-width:2;" x1="241.4" y1="9.8" x2="205.4" y2="9.8"/>
<path style="fill:#AD5E7A;" d="M232.9,12.9c2,0,3.7-1.7,3.7-3.7s-1.7-3.7-3.7-3.7s-3.7,1.7-3.7,3.7S230.8,12.9,232.9,12.9"/>
<g>
	<path style="fill:#B2B1B1;" d="M256.1,10c0,3.1-1.8,4.8-4.5,4.8c-0.9,0-1.8-0.2-2.4-0.6l0.6-1.3c0.5,0.3,1.1,0.4,1.7,0.4
		c1.7,0,2.8-1.1,2.8-3.1v0c-0.5,0.6-1.4,0.9-2.4,0.9c-1.8,0-3.1-1.1-3.1-2.8c0-1.8,1.5-3,3.3-3C254.6,5.5,256.1,7.1,256.1,10z
		 M254.1,8.3c0-0.9-0.7-1.5-1.9-1.5c-1.1,0-1.8,0.6-1.8,1.5s0.7,1.5,1.8,1.5C253.4,9.9,254.1,9.2,254.1,8.3z"/>
	<path style="fill:#B2B1B1;" d="M264,11.9c0,1.6-1.2,2.9-3.6,2.9c-1.3,0-2.6-0.4-3.4-1.1l0.7-1.3c0.7,0.5,1.7,0.9,2.7,0.9
		c1.2,0,1.9-0.5,1.9-1.4c0-0.9-0.6-1.4-2.4-1.4h-2.2l0.5-5h5.3V7h-3.9l-0.2,2.1h0.9C262.9,9.1,264,10.3,264,11.9z"/>
	<path style="fill:#B2B1B1;" d="M268.4,8c0-1.5,0.9-2.5,2.2-2.5s2.2,1,2.2,2.5s-0.9,2.5-2.2,2.5S268.4,9.5,268.4,8z M271.7,8
		c0-1-0.4-1.6-1.1-1.6c-0.7,0-1.1,0.6-1.1,1.6s0.4,1.6,1.1,1.6C271.2,9.6,271.7,9,271.7,8z M276,5.6h1.3l-6.2,9.1h-1.3L276,5.6z
		 M274.3,12.3c0-1.5,0.9-2.5,2.2-2.5s2.2,1,2.2,2.5s-0.9,2.5-2.2,2.5S274.3,13.8,274.3,12.3z M277.6,12.3c0-1-0.4-1.6-1.1-1.6
		s-1.1,0.6-1.1,1.6c0,1,0.4,1.6,1.1,1.6S277.6,13.3,277.6,12.3z"/>
</g>
<rect x="219.3" y="63.9" style="fill:#FFFFFF;" width="13.1" height="16.8"/>
<polygon style="fill:none;stroke:#B2B1B1;stroke-width:0.941;" points="219.3,80.7 219.3,80.7 232.5,80.7 232.5,63.9 219.3,63.9 "/>
<rect x="211.7" y="63.5" style="fill:none;" width="21.3" height="24"/>
<line style="fill:none;stroke:#B2B1B1;stroke-width:0.941;stroke-dasharray:1.889,1.889;" x1="216.2" y1="71.6" x2="216.2" y2="82"/>
<line style="fill:none;stroke:#B2B1B1;stroke-width:0.941;stroke-dasharray:1.754,1.754;" x1="218.8" y1="83.9" x2="228.4" y2="83.9"/>
<path style="fill:none;stroke:#B2B1B1;stroke-width:0.941;" d="M229.3,83.9h0.9 M216.2,83v0.9h0.9 M216.2,68.8v0.9"/>
<polyline style="fill:none;stroke:#B2B1B1;stroke-width:0.941;" points="212.1,71.9 212.1,87 226.2,87 "/>
<rect x="211.7" y="63.5" style="fill:none;" width="21.3" height="24"/>
<rect x="250.9" y="63.9" style="fill:#FFFFFF;" width="14.7" height="18.7"/>
<polygon style="fill:none;stroke:#B2B1B1;stroke-width:0.804;" points="250.9,82.6 250.9,82.6 265.6,82.6 265.6,63.9 250.9,63.9 "/>
<rect x="250.5" y="63.5" style="fill:none;" width="19.9" height="24"/>
<rect x="255.3" y="68.4" style="fill:#B2B1B1;" width="14.7" height="18.7"/>
<polygon style="fill:none;stroke:#FFFFFF;stroke-width:0.804;" points="255.3,87.1 255.3,87.1 270,87.1 270,68.4 255.3,68.4 "/>
<rect x="250.5" y="63.5" style="fill:none;" width="19.9" height="24"/>
<rect x="152" y="67.4" style="fill:#0E6899;" width="34.9" height="19.6"/>
<text transform="matrix(1 0 0 1 159.0071 82.0656)" style="fill:#FFFFFF; font-family:'Montserrat-Regular'; font-size:13px;">e</text>
<text transform="matrix(1 0 0 1 166.4171 82.0656)" style="fill:#FFFFFF; font-family:'Montserrat-Regular'; font-size:13px;">i</text>
<text transform="matrix(1 0 0 1 169.3421 82.0656)" style="fill:#FFFFFF; font-family:'Montserrat-Regular'; font-size:13px;">n</text>
<polygon style="fill:none;stroke:#B2B2B2;stroke-width:0.5;stroke-miterlimit:10;" points="117,67.3 117,87.3 117,87.5 117.2,87.5 
	186.1,87.5 186.3,87.5 186.3,87.3 186.3,67.3 186.3,67 186.1,67 117.2,67 117,67 "/>
<rect x="116.7" y="66.8" style="fill:none;" width="70.2" height="21"/>
<line style="fill:none;stroke:#B2B1B1;stroke-width:2.5;" x1="258.1" y1="156.9" x2="258.1" y2="181.2"/>
<path style="fill:#B2B1B1;" d="M266.2,172.7L266.2,172.7h2.6l-2.5-2.5c-0.1-0.1-0.1-0.2,0.1-0.2h6.7v-1.3c0-0.2-0.2-0.4-0.4-0.4H266
	l2.7-2.7h-2.2c-0.2,0-0.5,0.1-0.6,0.2l-3.1,3.1c-0.1,0.1-0.1,0.4,0,0.5L266.2,172.7z"/>
<line style="fill:none;stroke:#B2B1B1;stroke-width:2.5;" x1="231.1" y1="181" x2="231.1" y2="156.8"/>
<path style="fill:#B2B1B1;" d="M223,165.2L223,165.2h-2.6l2.5,2.5c0.1,0.1,0.1,0.2-0.1,0.2h-6.7v1.3c0,0.2,0.2,0.4,0.4,0.4h6.7
	l-2.7,2.7h2.2c0.2,0,0.5-0.1,0.6-0.2l3.1-3.1c0.1-0.1,0.1-0.4,0-0.5L223,165.2z"/>
<line style="fill:none;stroke:#B2B1B1;stroke-width:2.5;" x1="41.4" y1="164.8" x2="65.6" y2="164.8"/>
<path style="fill:#B2B1B1;" d="M57,156.7L57,156.7v-2.6l-2.5,2.5c-0.1,0.1-0.2,0.1-0.2-0.1v-6.7H53c-0.2,0-0.3,0.2-0.3,0.4v6.7
	l-2.7-2.7v2.2c0,0.2,0.1,0.5,0.2,0.6l3.1,3.1c0.1,0.1,0.4,0.1,0.5,0L57,156.7z"/>
<path style="fill:#B2B1B1;" d="M50.1,171.9L50.1,171.9v2.6l2.5-2.5c0.1-0.1,0.2-0.1,0.2,0.1v6.7h1.3c0.2,0,0.3-0.2,0.3-0.4v-6.7
	l2.7,2.7v-2.2c0-0.2-0.1-0.5-0.2-0.6l-3.1-3.1c-0.1-0.1-0.4-0.1-0.5,0L50.1,171.9z"/>
<line style="fill:none;stroke:#B2B1B1;stroke-width:2.5;" x1="97.8" y1="177.6" x2="97.8" y2="153.4"/>
<path style="fill:#B2B1B1;" d="M89.8,162L89.8,162h-2.6l2.5,2.5c0.1,0.1,0.1,0.2-0.1,0.2h-6.7v1.3c0,0.2,0.2,0.4,0.3,0.4h6.7
	l-2.7,2.7h2.2c0.2,0,0.5-0.1,0.6-0.2l3.1-3.1c0.1-0.1,0.1-0.4,0-0.5L89.8,162z"/>
<path style="fill:#B2B1B1;" d="M104.9,168.9L104.9,168.9h2.6l-2.5-2.5c-0.1-0.1-0.1-0.2,0.1-0.2h6.7v-1.3c0-0.2-0.2-0.4-0.3-0.4
	h-6.7l2.7-2.7h-2.2c-0.2,0-0.5,0.1-0.6,0.2l-3.1,3.1c-0.1,0.1-0.1,0.4,0,0.5L104.9,168.9z"/>
<line style="fill:none;stroke:#B2B1B1;stroke-width:2.5;" x1="130" y1="165.1" x2="154.2" y2="165.1"/>
<path style="fill:#B2B1B1;" d="M138.7,172.2L138.7,172.2v2.6l2.5-2.5c0.1-0.1,0.2-0.1,0.2,0.1v6.7h1.3c0.2,0,0.4-0.2,0.4-0.4V172
	l2.7,2.7v-2.2c0-0.2-0.1-0.5-0.2-0.6l-3.1-3.1c-0.1-0.1-0.4-0.1-0.5,0L138.7,172.2z"/>
<line style="fill:none;stroke:#B2B1B1;stroke-width:2.5;" x1="175.1" y1="176.3" x2="199.3" y2="176.3"/>
<path style="fill:#B2B1B1;" d="M190.9,167.9L190.9,167.9v-2.6l-2.5,2.5c-0.1,0.1-0.2,0.1-0.2-0.1V161h-1.3c-0.2,0-0.4,0.2-0.4,0.4
	v6.7l-2.7-2.7v2.2c0,0.2,0.1,0.5,0.2,0.6l3.1,3.1c0.1,0.1,0.4,0.1,0.5,0L190.9,167.9z"/>
<rect x="320.9" y="149.4" style="fill:#FFFFFF;" width="15.8" height="20.1"/>
<line style="fill:none;stroke:#B2B1B1;stroke-width:0.941;stroke-dasharray:1.971,1.971;" x1="323.9" y1="169.5" x2="334.7" y2="169.5"/>
<line style="fill:none;stroke:#B2B1B1;stroke-width:0.941;stroke-dasharray:2.006,2.006;" x1="336.7" y1="166.5" x2="336.7" y2="151.4"/>
<line style="fill:none;stroke:#B2B1B1;stroke-width:0.941;stroke-dasharray:1.971,1.971;" x1="333.8" y1="149.4" x2="322.9" y2="149.4"/>
<line style="fill:none;stroke:#B2B1B1;stroke-width:0.941;stroke-dasharray:2.006,2.006;" x1="320.9" y1="152.4" x2="320.9" y2="167.5"/>
<path style="fill:none;stroke:#B2B1B1;stroke-width:0.941;" d="M320.9,168.5v1h1 M321.9,149.4h-1v1 M336.7,150.4v-1h-1 M335.7,169.5
	h1v-1"/>
<polygon style="fill:#FFFFFF;" points="309.7,179.5 309.7,179.5 325.5,179.5 325.5,159.4 309.7,159.4 "/>
<line style="fill:none;stroke:#B2B1B1;stroke-width:0.941;stroke-dasharray:1.971,1.971;" x1="312.7" y1="179.5" x2="323.5" y2="179.5"/>
<line style="fill:none;stroke:#B2B1B1;stroke-width:0.941;stroke-dasharray:2.006,2.006;" x1="325.5" y1="176.5" x2="325.5" y2="161.4"/>
<line style="fill:none;stroke:#B2B1B1;stroke-width:0.941;stroke-dasharray:1.971,1.971;" x1="322.5" y1="159.4" x2="311.7" y2="159.4"/>
<line style="fill:none;stroke:#B2B1B1;stroke-width:0.941;stroke-dasharray:2.006,2.006;" x1="309.7" y1="162.4" x2="309.7" y2="177.5"/>
<path style="fill:none;stroke:#B2B1B1;stroke-width:0.941;" d="M309.7,178.5v1h1 M310.7,159.4h-1v1 M325.5,160.4v-1h-1 M324.5,179.5
	h1v-1"/>
<polygon style="fill:#FFFFFF;" points="300.2,187.5 300.2,187.5 316,187.5 316,167.4 300.2,167.4 "/>
<polygon style="fill:none;stroke:#B2B1B1;stroke-width:0.941;" points="300.2,187.5 300.2,187.5 316,187.5 316,167.4 300.2,167.4 
	"/>
<g>
	<polygon style="fill:#FFFFFF;" points="374.1,173.8 374.1,173.8 389.8,173.8 389.8,153.7 374.1,153.7 	"/>
	<polygon style="fill:none;stroke:#B2B1B1;stroke-width:0.941;" points="374.1,173.8 374.1,173.8 389.8,173.8 389.8,153.7 
		374.1,153.7 	"/>
	
		<line style="fill:none;stroke:#B2B1B1;stroke-width:0.941;stroke-dasharray:1.801,1.801;" x1="370.3" y1="162.3" x2="370.3" y2="175.8"/>
	
		<line style="fill:none;stroke:#B2B1B1;stroke-width:0.941;stroke-dasharray:2.091,2.091;" x1="373.4" y1="177.6" x2="384.9" y2="177.6"/>
	<path style="fill:none;stroke:#B2B1B1;stroke-width:0.941;" d="M386,177.6h1 M370.3,176.7v0.9h1 M370.3,159.6v0.9"/>
</g>
<g>
	<g>
		<rect x="446.6" y="142" style="fill:#FFFFFF;" width="15.8" height="20.1"/>
		<polygon style="fill:none;stroke:#B2B1B1;stroke-width:0.941;" points="446.6,162.1 446.6,162.1 462.4,162.1 462.4,142 446.6,142 
					"/>
		<polygon style="fill:#FFFFFF;" points="435.4,172.1 435.4,172.1 451.1,172.1 451.1,152 435.4,152 		"/>
		
			<line style="fill:none;stroke:#B2B1B1;stroke-width:0.941;stroke-dasharray:1.971,1.971;" x1="438.3" y1="172.1" x2="449.2" y2="172.1"/>
		
			<line style="fill:none;stroke:#B2B1B1;stroke-width:0.941;stroke-dasharray:2.006,2.006;" x1="451.1" y1="169" x2="451.1" y2="154"/>
		
			<line style="fill:none;stroke:#B2B1B1;stroke-width:0.941;stroke-dasharray:1.971,1.971;" x1="448.2" y1="152" x2="437.3" y2="152"/>
		
			<line style="fill:none;stroke:#B2B1B1;stroke-width:0.941;stroke-dasharray:2.006,2.006;" x1="435.4" y1="155" x2="435.4" y2="170"/>
		<path style="fill:none;stroke:#B2B1B1;stroke-width:0.941;" d="M435.4,171.1v1h1 M436.4,152h-1v1 M451.1,153v-1h-1 M450.2,172.1h1
			v-1"/>
		<polygon style="fill:#FFFFFF;" points="425.9,180.1 425.9,180.1 441.7,180.1 441.7,160 425.9,160 		"/>
		
			<line style="fill:none;stroke:#B2B1B1;stroke-width:0.941;stroke-dasharray:1.971,1.971;" x1="428.9" y1="180.1" x2="439.7" y2="180.1"/>
		
			<line style="fill:none;stroke:#B2B1B1;stroke-width:0.941;stroke-dasharray:2.006,2.006;" x1="441.7" y1="177" x2="441.7" y2="162"/>
		
			<line style="fill:none;stroke:#B2B1B1;stroke-width:0.941;stroke-dasharray:1.971,1.971;" x1="438.7" y1="160" x2="427.9" y2="160"/>
		
			<line style="fill:none;stroke:#B2B1B1;stroke-width:0.941;stroke-dasharray:2.006,2.006;" x1="425.9" y1="163" x2="425.9" y2="178"/>
		<path style="fill:none;stroke:#B2B1B1;stroke-width:0.941;" d="M425.9,179.1v1h1 M426.9,160h-1v1 M441.7,161v-1h-1 M440.7,180.1h1
			v-1"/>
	</g>
	
		<line style="fill:none;stroke:#B2B1B1;stroke-width:0.941;stroke-dasharray:1.971,1.971;" x1="502" y1="175.5" x2="512.9" y2="175.5"/>
	
		<line style="fill:none;stroke:#B2B1B1;stroke-width:0.941;stroke-dasharray:2.006,2.006;" x1="514.8" y1="172.5" x2="514.8" y2="157.5"/>
	
		<line style="fill:none;stroke:#B2B1B1;stroke-width:0.941;stroke-dasharray:1.971,1.971;" x1="511.9" y1="155.5" x2="501" y2="155.5"/>
	
		<line style="fill:none;stroke:#B2B1B1;stroke-width:0.941;stroke-dasharray:2.006,2.006;" x1="499.1" y1="158.5" x2="499.1" y2="173.5"/>
	<path style="fill:none;stroke:#B2B1B1;stroke-width:0.941;" d="M499.1,174.5v1h1 M500,155.5h-1v1 M514.8,156.5v-1h-1 M513.8,175.5
		h1v-1"/>
	<polyline style="fill:none;stroke:#B2B1B1;stroke-width:0.941;" points="495.3,161.3 495.3,179.3 512,179.3 	"/>
</g>
<g>
	<g>
		<defs>
			<rect id="SVGID_1_" x="-260" y="269.4" width="241.7" height="1"/>
		</defs>
		<clipPath id="SVGID_00000069371491803815610310000017539856709003729070_">
			<use xlink:href="#SVGID_1_"  style="overflow:visible;"/>
		</clipPath>
		
			<line style="clip-path:url(#SVGID_00000069371491803815610310000017539856709003729070_);fill:none;stroke:#B2B2B2;stroke-linecap:round;stroke-linejoin:round;stroke-dasharray:0,3.009;" x1="-256.5" y1="269.9" x2="-20.3" y2="269.9"/>
	</g>
	<g>
		<defs>
			<rect id="SVGID_00000068664277284956420940000016994714265613604494_" x="-260" y="269.4" width="241.7" height="1"/>
		</defs>
		<clipPath id="SVGID_00000077316597151890098120000017040140931757015427_">
			<use xlink:href="#SVGID_00000068664277284956420940000016994714265613604494_"  style="overflow:visible;"/>
		</clipPath>
		
			<path style="clip-path:url(#SVGID_00000077316597151890098120000017040140931757015427_);fill:none;stroke:#B2B2B2;stroke-linecap:round;stroke-linejoin:round;" d="
			M-18.8,269.9L-18.8,269.9 M-259.5,269.9L-259.5,269.9"/>
	</g>
</g>
<circle style="fill:none;stroke:#4F4D4D;stroke-width:0.5;" cx="-213.1" cy="48.7" r="12.8"/>
<polygon style="fill:#0E689A;" points="-69.7,33.6 -82.7,33.6 -76.3,44.1 "/>
<polygon style="fill:#B2B1B1;" points="-61.7,162.2 -72.1,168.6 -61.7,175.2 "/>
<polygon style="fill:#B2B1B1;" points="-90.7,175.2 -80.2,168.8 -90.7,162.2 "/>
<polygon style="fill:#B2B1B1;" points="-8.2,162.2 -18.6,168.6 -8.2,175.2 "/>
<polygon style="fill:#B2B1B1;" points="-43.3,175.2 -32.9,168.8 -43.3,162.2 "/>
<rect x="116.9" y="33.7" style="fill:#0E6899;" width="34.9" height="19.6"/>
<polygon style="fill:none;stroke:#B2B2B2;stroke-width:0.5;stroke-miterlimit:10;" points="117.2,33.5 117.2,53.5 117.2,53.8 
	117.4,53.8 186.3,53.8 186.5,53.8 186.5,53.5 186.5,33.5 186.5,33.3 186.3,33.3 117.4,33.3 117.2,33.3 "/>
<rect x="116.9" y="33" style="fill:none;" width="69.8" height="21"/>
<rect x="152.3" y="99.7" style="fill:#0E6899;" width="34.9" height="19.6"/>
<polygon style="fill:none;stroke:#B2B2B2;stroke-width:0.5;stroke-miterlimit:10;" points="117.3,99.6 117.3,119.6 117.3,119.8 
	117.5,119.8 186.4,119.8 186.6,119.8 186.6,119.6 186.6,99.6 186.6,99.3 186.4,99.3 117.5,99.3 117.3,99.3 "/>
<rect x="117" y="99.1" style="fill:none;" width="70.2" height="21"/>
<line style="fill:none;stroke:#B2B1B1;stroke-width:2;" x1="240.3" y1="29.6" x2="204.3" y2="29.6"/>
<path style="fill:#AD5E7A;" d="M231.8,32.7c2,0,3.7-1.7,3.7-3.7s-1.7-3.7-3.7-3.7s-3.7,1.7-3.7,3.7S229.8,32.7,231.8,32.7"/>
</svg>
