<?xml version="1.0" encoding="utf-8"?>
<!-- Generator: Adobe Illustrator 26.5.0, SVG Export Plug-In . SVG Version: 6.00 Build 0)  -->
<svg version="1.1" id="Ebene_1" xmlns="http://www.w3.org/2000/svg" xmlns:xlink="http://www.w3.org/1999/xlink" x="0px" y="0px"
	 width="27px" height="27px" viewBox="0 0 27 27" style="enable-background:new 0 0 27 27;" xml:space="preserve">
<polyline style="fill:none;stroke:#C5C5C5;stroke-width:3;stroke-linecap:round;stroke-linejoin:round;" points="1753.8,940.6 
	1747.5,931.6 1740.8,940.6 "/>
<circle style="fill:#FFAEFF;stroke:#4F4D4D;stroke-width:0.5;" cx="-238.1" cy="-22.1" r="12.8"/>
<rect x="-205.6" y="-33.1" style="fill:#F8F8F8;" width="119.9" height="21"/>
<polygon style="fill:#0E689A;" points="-94.8,-27.9 -107.8,-27.9 -101.4,-17.4 "/>
<g>
	<g>
		<line style="fill:none;stroke:#B2B1B1;stroke-width:0.65;stroke-miterlimit:10;" x1="18.2" y1="-15.6" x2="28.5" y2="-15.6"/>
		<g>
			<path style="fill:#B2B1B1;" d="M19.5-20.8V-26h1.3v5.1c0,2,0.9,2.9,2.6,2.9s2.6-0.9,2.6-2.9V-26h1.3v5.2c0,2.6-1.4,4-3.8,4
				C20.9-16.8,19.5-18.2,19.5-20.8z"/>
		</g>
	</g>
	<polygon style="fill:none;stroke:#B2B2B2;stroke-width:0.5;stroke-miterlimit:10;" points="10.1,-33.8 10.1,-7.8 10.1,-7.6 
		10.3,-7.6 36.3,-7.6 36.6,-7.6 36.6,-7.8 36.6,-33.8 36.6,-34.1 36.3,-34.1 10.3,-34.1 10.1,-34.1 	"/>
</g>
<g>
	<g>
		<path style="fill:#B2B1B1;" d="M-11.3-25.7h1.3l-1.8,9.1h-1.3L-11.3-25.7z"/>
	</g>
	<polygon style="fill:none;stroke:#B2B2B2;stroke-width:0.5;stroke-miterlimit:10;" points="-24.8,-34.2 -24.8,-8.2 -24.8,-7.9 
		-24.5,-7.9 1.5,-7.9 1.7,-7.9 1.7,-8.2 1.7,-34.2 1.7,-34.4 1.5,-34.4 -24.5,-34.4 -24.8,-34.4 	"/>
</g>
<g>
	<g>
		<path style="fill:#B2B1B1;" d="M-44.4-19.1c0,1.6-1.2,2.5-3.6,2.5h-4.7v-9.1h4.4c2.3,0,3.4,0.9,3.4,2.4c0,0.9-0.5,1.6-1.2,2
			C-45.1-21-44.4-20.2-44.4-19.1z M-50.7-24.1v2.1h2.1c1,0,1.6-0.4,1.6-1.1s-0.6-1.1-1.6-1.1L-50.7-24.1L-50.7-24.1z M-46.5-19.3
			c0-0.8-0.6-1.1-1.7-1.1h-2.5v2.2h2.5C-47.1-18.2-46.5-18.5-46.5-19.3z"/>
	</g>
	<polygon style="fill:none;stroke:#B2B2B2;stroke-width:0.5;stroke-miterlimit:10;" points="-61.8,-34.1 -61.8,-8.1 -61.8,-7.9 
		-61.6,-7.9 -35.6,-7.9 -35.3,-7.9 -35.3,-8.1 -35.3,-34.1 -35.3,-34.4 -35.6,-34.4 -61.6,-34.4 -61.8,-34.4 	"/>
</g>
<path style="fill:none;stroke:#B2B1B1;stroke-width:0.3;stroke-miterlimit:10;" d="M-7.7,7.8"/>
<path style="fill:none;stroke:#B2B1B1;stroke-width:0.3;stroke-miterlimit:10;" d="M-10.2,9.1"/>
<path style="fill:none;stroke:#B2B1B1;stroke-width:0.3;stroke-miterlimit:10;" d="M-10.2,10.3"/>
<path style="fill:none;stroke:#B2B1B1;stroke-width:0.3;stroke-miterlimit:10;" d="M-10.2,11.6"/>
<path style="fill:none;stroke:#B2B1B1;stroke-width:0.3;stroke-miterlimit:10;" d="M-7.7,12.8"/>
<path style="fill:none;stroke:#B2B1B1;stroke-width:0.3;stroke-miterlimit:10;" d="M-7.7,14.1"/>
<path style="fill:none;stroke:#B2B1B1;stroke-width:0.3;stroke-miterlimit:10;" d="M-10.2,15.3"/>
<path style="fill:none;stroke:#B2B1B1;stroke-width:0.3;stroke-miterlimit:10;" d="M-10.2,17.8"/>
<path style="fill:none;stroke:#B2B1B1;stroke-width:0.3;stroke-miterlimit:10;" d="M-7.7,20.3"/>
<g>
	<path style="fill:none;stroke:#B2B1B1;stroke-width:0.3;stroke-miterlimit:10;" d="M-27.1,12.8"/>
	<path style="fill:none;stroke:#B2B1B1;stroke-width:0.3;stroke-miterlimit:10;" d="M-27.1,7.8"/>
	<path style="fill:none;stroke:#B2B1B1;stroke-width:0.3;stroke-miterlimit:10;" d="M-27.1,20.3"/>
	<path style="fill:none;stroke:#B2B1B1;stroke-width:0.3;stroke-miterlimit:10;" d="M-27.1,14.1"/>
	<g>
		<path style="fill:none;stroke:#B2B1B1;stroke-width:0.3;stroke-miterlimit:10;" d="M-25.1,15.3"/>
		<path style="fill:none;stroke:#B2B1B1;stroke-width:0.3;stroke-miterlimit:10;" d="M-25.1,11.6"/>
		<path style="fill:none;stroke:#B2B1B1;stroke-width:0.3;stroke-miterlimit:10;" d="M-25.1,10.3"/>
		<path style="fill:none;stroke:#B2B1B1;stroke-width:0.3;stroke-miterlimit:10;" d="M-25.1,9.1"/>
		<line style="fill:none;stroke:#B2B1B1;stroke-width:0.3;stroke-miterlimit:10;" x1="-27.5" y1="19.6" x2="-8" y2="19.6"/>
		<line style="fill:none;stroke:#B2B1B1;stroke-width:0.3;stroke-miterlimit:10;" x1="-27.5" y1="18.3" x2="-12.6" y2="18.3"/>
		<line style="fill:none;stroke:#B2B1B1;stroke-width:0.3;stroke-miterlimit:10;" x1="-27.5" y1="17" x2="-12.6" y2="17"/>
		<line style="fill:none;stroke:#B2B1B1;stroke-width:0.3;stroke-miterlimit:10;" x1="-27.5" y1="15.7" x2="-12.6" y2="15.7"/>
		<line style="fill:none;stroke:#B2B1B1;stroke-width:0.3;stroke-miterlimit:10;" x1="-27.5" y1="14.5" x2="-8" y2="14.5"/>
		<line style="fill:none;stroke:#B2B1B1;stroke-width:0.3;stroke-miterlimit:10;" x1="-27.5" y1="13.2" x2="-8" y2="13.2"/>
		<line style="fill:none;stroke:#B2B1B1;stroke-width:0.3;stroke-miterlimit:10;" x1="-27.4" y1="11.9" x2="-12.5" y2="11.9"/>
		<line style="fill:none;stroke:#B2B1B1;stroke-width:0.3;stroke-miterlimit:10;" x1="-27.5" y1="10.6" x2="-8" y2="10.6"/>
		<line style="fill:none;stroke:#B2B1B1;stroke-width:0.3;stroke-miterlimit:10;" x1="-27.5" y1="9.3" x2="-12.6" y2="9.3"/>
		<line style="fill:none;stroke:#B2B1B1;stroke-width:0.3;stroke-miterlimit:10;" x1="-27.5" y1="8.1" x2="-12.6" y2="8.1"/>
		<line style="fill:none;stroke:#B2B1B1;stroke-width:0.3;stroke-miterlimit:10;" x1="-27.5" y1="6.8" x2="-8" y2="6.8"/>
	</g>
	<polygon style="fill:none;stroke:#B2B2B2;stroke-width:0.5;stroke-miterlimit:10;" points="-30.8,0.5 -30.8,26.5 -30.8,26.7 
		-30.6,26.7 -4.6,26.7 -4.3,26.7 -4.3,26.5 -4.3,0.5 -4.3,0.3 -4.6,0.3 -30.6,0.3 -30.8,0.3 	"/>
</g>
<g>
	<g>
		<line style="fill:none;stroke:#B2B1B1;stroke-width:0.3;stroke-miterlimit:10;" x1="23.2" y1="7.1" x2="3.8" y2="7.1"/>
		<line style="fill:none;stroke:#B2B1B1;stroke-width:0.3;stroke-miterlimit:10;" x1="20.7" y1="8.4" x2="5.8" y2="8.4"/>
		<line style="fill:none;stroke:#B2B1B1;stroke-width:0.3;stroke-miterlimit:10;" x1="20.7" y1="9.7" x2="5.8" y2="9.7"/>
		<line style="fill:none;stroke:#B2B1B1;stroke-width:0.3;stroke-miterlimit:10;" x1="20.7" y1="10.9" x2="5.8" y2="10.9"/>
		<line style="fill:none;stroke:#B2B1B1;stroke-width:0.3;stroke-miterlimit:10;" x1="23.2" y1="12.2" x2="3.8" y2="12.2"/>
		<line style="fill:none;stroke:#B2B1B1;stroke-width:0.3;stroke-miterlimit:10;" x1="23.2" y1="13.5" x2="3.8" y2="13.5"/>
		<line style="fill:none;stroke:#B2B1B1;stroke-width:0.3;stroke-miterlimit:10;" x1="20.7" y1="14.8" x2="5.8" y2="14.8"/>
		<line style="fill:none;stroke:#B2B1B1;stroke-width:0.3;stroke-miterlimit:10;" x1="23.2" y1="16.1" x2="3.8" y2="16.1"/>
		<line style="fill:none;stroke:#B2B1B1;stroke-width:0.3;stroke-miterlimit:10;" x1="20.7" y1="17.3" x2="5.8" y2="17.3"/>
		<line style="fill:none;stroke:#B2B1B1;stroke-width:0.3;stroke-miterlimit:10;" x1="20.7" y1="18.6" x2="5.8" y2="18.6"/>
		<line style="fill:none;stroke:#B2B1B1;stroke-width:0.3;stroke-miterlimit:10;" x1="23.2" y1="19.9" x2="3.8" y2="19.9"/>
	</g>
	<polygon style="fill:none;stroke:#AD5E7A;stroke-width:0.5;stroke-miterlimit:10;" points="0.2,0.5 0.2,26.5 0.2,26.7 0.5,26.7 
		26.5,26.7 26.7,26.7 26.7,26.5 26.7,0.5 26.7,0.3 26.5,0.3 0.5,0.3 0.2,0.3 	"/>
</g>
<polygon style="fill:none;stroke:#B2B2B2;stroke-width:0.5;stroke-miterlimit:10;" points="31.3,0.5 31.3,26.5 31.3,26.7 31.6,26.7 
	57.6,26.7 57.8,26.7 57.8,26.5 57.8,0.5 57.8,0.3 57.6,0.3 31.6,0.3 31.3,0.3 "/>
<path style="fill:none;stroke:#B2B1B1;stroke-width:0.3;stroke-miterlimit:10;" d="M34.6,19.2"/>
<path style="fill:none;stroke:#B2B1B1;stroke-width:0.3;stroke-miterlimit:10;" d="M34.6,14.2"/>
<path style="fill:none;stroke:#B2B1B1;stroke-width:0.3;stroke-miterlimit:10;" d="M34.6,12.9"/>
<path style="fill:none;stroke:#B2B1B1;stroke-width:0.3;stroke-miterlimit:10;" d="M34.6,6.6"/>
<path style="fill:none;stroke:#B2B1B1;stroke-width:0.3;stroke-miterlimit:10;" d="M52,11.7"/>
<path style="fill:none;stroke:#B2B1B1;stroke-width:0.3;stroke-miterlimit:10;" d="M54.1,14.2"/>
<path style="fill:none;stroke:#B2B1B1;stroke-width:0.3;stroke-miterlimit:10;" d="M52,15.4"/>
<path style="fill:none;stroke:#B2B1B1;stroke-width:0.3;stroke-miterlimit:10;" d="M54.1,19.2"/>
<path style="fill:none;stroke:#B2B1B1;stroke-width:0.3;stroke-miterlimit:10;" d="M54.1,6.6"/>
<path style="fill:none;stroke:#B2B1B1;stroke-width:0.3;stroke-miterlimit:10;" d="M54.1,12.9"/>
<path style="fill:none;stroke:#B2B1B1;stroke-width:0.3;stroke-miterlimit:10;" d="M52,16.7"/>
<path style="fill:none;stroke:#B2B1B1;stroke-width:0.3;stroke-miterlimit:10;" d="M52,17.9"/>
<g>
	<path style="fill:none;stroke:#B2B1B1;stroke-width:0.3;stroke-miterlimit:10;" d="M37,17.6"/>
	<path style="fill:none;stroke:#B2B1B1;stroke-width:0.3;stroke-miterlimit:10;" d="M37,16.4"/>
	<path style="fill:none;stroke:#B2B1B1;stroke-width:0.3;stroke-miterlimit:10;" d="M37,15.1"/>
	<path style="fill:none;stroke:#B2B1B1;stroke-width:0.3;stroke-miterlimit:10;" d="M37,11.3"/>
	<path style="fill:none;stroke:#B2B1B1;stroke-width:0.3;stroke-miterlimit:10;" d="M37,8.8"/>
	<line style="fill:none;stroke:#B2B1B1;stroke-width:0.3;stroke-miterlimit:10;" x1="54.3" y1="7.1" x2="34.8" y2="7.1"/>
	<line style="fill:none;stroke:#B2B1B1;stroke-width:0.3;stroke-miterlimit:10;" x1="54.3" y1="8.4" x2="39.4" y2="8.4"/>
	<line style="fill:none;stroke:#B2B1B1;stroke-width:0.3;stroke-miterlimit:10;" x1="54.3" y1="9.7" x2="39.4" y2="9.7"/>
	<line style="fill:none;stroke:#B2B1B1;stroke-width:0.3;stroke-miterlimit:10;" x1="54.3" y1="10.9" x2="39.4" y2="10.9"/>
	<line style="fill:none;stroke:#B2B1B1;stroke-width:0.3;stroke-miterlimit:10;" x1="54.3" y1="12.2" x2="34.8" y2="12.2"/>
	<line style="fill:none;stroke:#B2B1B1;stroke-width:0.3;stroke-miterlimit:10;" x1="54.3" y1="13.5" x2="34.8" y2="13.5"/>
	<line style="fill:none;stroke:#B2B1B1;stroke-width:0.3;stroke-miterlimit:10;" x1="54.2" y1="14.8" x2="39.3" y2="14.8"/>
	<line style="fill:none;stroke:#B2B1B1;stroke-width:0.3;stroke-miterlimit:10;" x1="54.3" y1="16" x2="34.8" y2="16"/>
	<line style="fill:none;stroke:#B2B1B1;stroke-width:0.3;stroke-miterlimit:10;" x1="54.3" y1="17.3" x2="39.4" y2="17.3"/>
	<line style="fill:none;stroke:#B2B1B1;stroke-width:0.3;stroke-miterlimit:10;" x1="54.3" y1="18.6" x2="39.4" y2="18.6"/>
	<line style="fill:none;stroke:#B2B1B1;stroke-width:0.3;stroke-miterlimit:10;" x1="54.3" y1="19.9" x2="34.8" y2="19.9"/>
</g>
<polygon style="fill:none;stroke:#B2B2B2;stroke-width:0.5;stroke-miterlimit:10;" points="-61.6,0.5 -61.6,26.5 -61.6,26.8 
	-61.3,26.8 -35.3,26.8 -35.1,26.8 -35.1,26.5 -35.1,0.5 -35.1,0.3 -35.3,0.3 -61.3,0.3 -61.6,0.3 "/>
<path style="fill:none;stroke:#B2B1B1;stroke-width:0.3;stroke-miterlimit:10;" d="M-38.4,7.8"/>
<path style="fill:none;stroke:#B2B1B1;stroke-width:0.3;stroke-miterlimit:10;" d="M-38.4,12.8"/>
<path style="fill:none;stroke:#B2B1B1;stroke-width:0.3;stroke-miterlimit:10;" d="M-38.4,14.1"/>
<path style="fill:none;stroke:#B2B1B1;stroke-width:0.3;stroke-miterlimit:10;" d="M-38.4,20.3"/>
<path style="fill:none;stroke:#B2B1B1;stroke-width:0.3;stroke-miterlimit:10;" d="M-55.8,15.3"/>
<path style="fill:none;stroke:#B2B1B1;stroke-width:0.3;stroke-miterlimit:10;" d="M-57.9,12.8"/>
<path style="fill:none;stroke:#B2B1B1;stroke-width:0.3;stroke-miterlimit:10;" d="M-55.8,11.6"/>
<path style="fill:none;stroke:#B2B1B1;stroke-width:0.3;stroke-miterlimit:10;" d="M-57.9,7.8"/>
<path style="fill:none;stroke:#B2B1B1;stroke-width:0.3;stroke-miterlimit:10;" d="M-57.9,20.3"/>
<path style="fill:none;stroke:#B2B1B1;stroke-width:0.3;stroke-miterlimit:10;" d="M-57.9,14.1"/>
<path style="fill:none;stroke:#B2B1B1;stroke-width:0.3;stroke-miterlimit:10;" d="M-55.8,10.3"/>
<path style="fill:none;stroke:#B2B1B1;stroke-width:0.3;stroke-miterlimit:10;" d="M-55.8,9.1"/>
<g>
	<path style="fill:none;stroke:#B2B1B1;stroke-width:0.3;stroke-miterlimit:10;" d="M-40.9,9.1"/>
	<path style="fill:none;stroke:#B2B1B1;stroke-width:0.3;stroke-miterlimit:10;" d="M-40.9,10.3"/>
	<path style="fill:none;stroke:#B2B1B1;stroke-width:0.3;stroke-miterlimit:10;" d="M-40.9,11.6"/>
	<path style="fill:none;stroke:#B2B1B1;stroke-width:0.3;stroke-miterlimit:10;" d="M-40.9,15.3"/>
	<path style="fill:none;stroke:#B2B1B1;stroke-width:0.3;stroke-miterlimit:10;" d="M-40.9,17.8"/>
	<line style="fill:none;stroke:#B2B1B1;stroke-width:0.3;stroke-miterlimit:10;" x1="-58.3" y1="19.6" x2="-38.8" y2="19.6"/>
	<line style="fill:none;stroke:#B2B1B1;stroke-width:0.3;stroke-miterlimit:10;" x1="-58.3" y1="18.3" x2="-38.8" y2="18.3"/>
	<line style="fill:none;stroke:#B2B1B1;stroke-width:0.3;stroke-miterlimit:10;" x1="-58.3" y1="17" x2="-38.8" y2="17"/>
	<line style="fill:none;stroke:#B2B1B1;stroke-width:0.3;stroke-miterlimit:10;" x1="-58.3" y1="15.7" x2="-38.8" y2="15.7"/>
	<line style="fill:none;stroke:#B2B1B1;stroke-width:0.3;stroke-miterlimit:10;" x1="-58.3" y1="14.5" x2="-38.8" y2="14.5"/>
	<line style="fill:none;stroke:#B2B1B1;stroke-width:0.3;stroke-miterlimit:10;" x1="-58.3" y1="13.2" x2="-38.8" y2="13.2"/>
	<line style="fill:none;stroke:#B2B1B1;stroke-width:0.3;stroke-miterlimit:10;" x1="-58.2" y1="11.9" x2="-38.7" y2="11.9"/>
	<line style="fill:none;stroke:#B2B1B1;stroke-width:0.3;stroke-miterlimit:10;" x1="-58.3" y1="10.6" x2="-38.8" y2="10.6"/>
	<line style="fill:none;stroke:#B2B1B1;stroke-width:0.3;stroke-miterlimit:10;" x1="-58.3" y1="9.3" x2="-38.8" y2="9.3"/>
	<line style="fill:none;stroke:#B2B1B1;stroke-width:0.3;stroke-miterlimit:10;" x1="-58.3" y1="8.1" x2="-38.8" y2="8.1"/>
	<line style="fill:none;stroke:#B2B1B1;stroke-width:0.3;stroke-miterlimit:10;" x1="-58.3" y1="6.8" x2="-38.8" y2="6.8"/>
</g>
<path style="fill:#B2B1B1;" d="M-231.1,115.7l-1.9,13.3c-0.1,0.4-0.4,0.7-0.8,0.6c-0.4-0.1-0.7-0.4-0.6-0.8l1.9-13.3
	c0.1-0.4,0.4-0.7,0.8-0.6C-231.4,114.9-231.1,115.3-231.1,115.7 M-238,129.7c-0.4,0-0.7-0.3-0.7-0.7l-0.1-13.5
	c0-0.4,0.3-0.7,0.7-0.7c0.4,0,0.7,0.3,0.7,0.7l0.1,13.5C-237.2,129.4-237.6,129.7-238,129.7 M-242,129.7c-0.4,0.1-0.8-0.2-0.8-0.6
	l-2.1-13.3c-0.1-0.4,0.2-0.8,0.6-0.8c0.4-0.1,0.8,0.2,0.8,0.6l2.1,13.3C-241.4,129.2-241.6,129.6-242,129.7 M-228.3,113.3
	c-0.1-0.2-0.4-0.3-0.6-0.3l-18.5,0.1c-0.2,0-0.4,0.1-0.6,0.3c-0.1,0.2-0.2,0.4-0.2,0.6l3.1,16.1c0.1,0.4,0.4,0.6,0.7,0.6l12.5-0.1
	c0.4,0,0.7-0.3,0.7-0.6l2.9-16.2C-228.1,113.7-228.1,113.4-228.3,113.3"/>
<path style="fill:none;stroke:#FFFFFF;stroke-width:2.100000e-02;" d="M-231.1,115.7l-1.9,13.3c-0.1,0.4-0.4,0.7-0.8,0.6
	c-0.4-0.1-0.7-0.4-0.6-0.8l1.9-13.3c0.1-0.4,0.4-0.7,0.8-0.6C-231.4,114.9-231.1,115.3-231.1,115.7z M-238,129.7
	c-0.4,0-0.7-0.3-0.7-0.7l-0.1-13.5c0-0.4,0.3-0.7,0.7-0.7c0.4,0,0.7,0.3,0.7,0.7l0.1,13.5C-237.2,129.4-237.6,129.7-238,129.7z
	 M-242,129.7c-0.4,0.1-0.8-0.2-0.8-0.6l-2.1-13.3c-0.1-0.4,0.2-0.8,0.6-0.8c0.4-0.1,0.8,0.2,0.8,0.6l2.1,13.3
	C-241.4,129.2-241.6,129.6-242,129.7z M-228.3,113.3c-0.1-0.2-0.4-0.3-0.6-0.3l-18.5,0.1c-0.2,0-0.4,0.1-0.6,0.3
	c-0.1,0.2-0.2,0.4-0.2,0.6l3.1,16.1c0.1,0.4,0.4,0.6,0.7,0.6l12.5-0.1c0.4,0,0.7-0.3,0.7-0.6l2.9-16.2
	C-228.1,113.7-228.1,113.4-228.3,113.3z"/>
<path style="fill:#B2B1B1;" d="M-240.9,108.7L-240.9,108.7l0-0.4l5.5,0l0,0.4L-240.9,108.7z M-227.2,110.1L-227.2,110.1l-2,0l0-1.2
	c0-0.1,0-0.2-0.1-0.2s-0.2-0.1-0.2-0.1l-4.5,0l0-1.1c0-0.2-0.1-0.4-0.2-0.5c-0.1-0.1-0.3-0.2-0.5-0.2l-6.9,0.1
	c-0.2,0-0.4,0.1-0.5,0.2s-0.2,0.3-0.2,0.5l0,1.1l-4.2,0c-0.1,0-0.2,0-0.2,0.1c-0.1,0.1-0.1,0.2-0.1,0.2l0,1.2l-2.2,0l0,2.2l21.8-0.2
	L-227.2,110.1z"/>
<path style="fill:none;stroke:#FFFFFF;stroke-width:2.100000e-02;" d="M-240.9,108.7L-240.9,108.7l0-0.4l5.5,0l0,0.4L-240.9,108.7z
	 M-227.2,110.1L-227.2,110.1l-2,0l0-1.2c0-0.1,0-0.2-0.1-0.2s-0.2-0.1-0.2-0.1l-4.5,0l0-1.1c0-0.2-0.1-0.4-0.2-0.5
	c-0.1-0.1-0.3-0.2-0.5-0.2l-6.9,0.1c-0.2,0-0.4,0.1-0.5,0.2s-0.2,0.3-0.2,0.5l0,1.1l-4.2,0c-0.1,0-0.2,0-0.2,0.1
	c-0.1,0.1-0.1,0.2-0.1,0.2l0,1.2l-2.2,0l0,2.2l21.8-0.2L-227.2,110.1z"/>
<rect x="-249" y="106.8" style="fill:none;" width="21.9" height="24"/>
<rect x="91.9" y="-34" style="fill:#0E6899;" width="34.9" height="19.6"/>
<g>
	<path style="fill:#FFFFFF;" d="M104.9-23.6v4.2H104v-1.1c-0.4,0.7-1.2,1.1-2.4,1.1c-1.5,0-2.5-0.8-2.5-2c0-1.1,0.7-1.9,2.6-1.9h2.2
		v-0.4c0-1.2-0.7-1.8-1.9-1.8c-0.9,0-1.7,0.3-2.3,0.8l-0.4-0.7c0.7-0.6,1.7-0.9,2.8-0.9C103.9-26.2,104.9-25.3,104.9-23.6z
		 M103.9-21.4v-1.1h-2.1c-1.3,0-1.8,0.5-1.8,1.2c0,0.8,0.6,1.3,1.7,1.3C102.8-20,103.6-20.5,103.9-21.4z"/>
	<path style="fill:#FFFFFF;" d="M113-26.2v6.8h-0.9v-1.2c-0.5,0.8-1.4,1.3-2.5,1.3c-1.7,0-2.9-1-2.9-2.9v-4h0.9v3.9
		c0,1.5,0.8,2.2,2.1,2.2c1.4,0,2.3-0.9,2.3-2.5v-3.6C112-26.2,113-26.2,113-26.2z"/>
	<path style="fill:#FFFFFF;" d="M114.3-20.1l0.4-0.7c0.5,0.4,1.5,0.8,2.4,0.8c1.3,0,1.8-0.4,1.8-1.1c0-1.8-4.4-0.4-4.4-3.1
		c0-1.1,1-2,2.7-2c0.9,0,1.8,0.2,2.4,0.6l-0.4,0.7c-0.6-0.4-1.3-0.6-2-0.6c-1.2,0-1.8,0.5-1.8,1.1c0,1.8,4.4,0.5,4.4,3.1
		c0,1.2-1,2-2.8,2C115.9-19.3,114.8-19.6,114.3-20.1z"/>
</g>
<polygon style="fill:none;stroke:#B2B2B2;stroke-width:0.5;stroke-miterlimit:10;" points="92.1,-34.1 92.1,-14.1 92.1,-13.9 
	92.4,-13.9 161.2,-13.9 161.5,-13.9 161.5,-14.1 161.5,-34.1 161.5,-34.4 161.2,-34.4 92.4,-34.4 92.1,-34.4 "/>
<rect x="91.9" y="-34.6" style="fill:none;" width="69.8" height="21"/>
<rect x="-312.5" y="172.7" style="fill:#FFFFFF;" width="1014" height="21"/>
<path style="fill:#0E689A;" d="M314.7,172.7c-2.2,0-4,1.8-4,4v12.4c0,2.2,1.8,4,4,4h77.1c2.2,0,4-1.8,4-4v-12.4c0-2.2-1.8-4-4-4
	H314.7z"/>
<rect x="-312.3" y="173" style="fill:none;stroke:#C5C5C5;stroke-width:0.5;stroke-linecap:round;stroke-linejoin:round;" width="1013.5" height="20.5"/>
<path style="fill:#C5C5C5;" d="M685.3,175.6v1.5c0,0.4,0.2,0.8,0.5,1l6.4,4.8c0.3,0.2,0.3,0.6,0,0.8l-6.4,4.8
	c-0.3,0.2-0.5,0.6-0.5,1v1.5c0,0.4,0.5,0.6,0.8,0.4l10.1-7.6c0.3-0.2,0.3-0.7,0-1l-10.1-7.6C685.8,174.9,685.3,175.2,685.3,175.6"/>
<path style="fill:#C5C5C5;" d="M-296.7,190.9v-1.5c0-0.4-0.2-0.8-0.5-1l-6.4-4.8c-0.3-0.2-0.3-0.6,0-0.8l6.4-4.8
	c0.3-0.2,0.5-0.6,0.5-1v-1.5c0-0.4-0.5-0.6-0.8-0.4l-10.1,7.6c-0.3,0.2-0.3,0.7,0,1l10.1,7.6C-297.1,191.5-296.7,191.3-296.7,190.9"
	/>
<rect x="-312.5" y="172.7" style="fill:none;" width="1014" height="21"/>
<rect x="743.3" y="-71.8" style="fill:#FFFFFF;" width="21" height="702.1"/>
<path style="fill:#0E689A;" d="M743.3,342.1c0,2.2,1.8,4,4,4h12.4c2.2,0,4-1.8,4-4v-78.3c0-2.2-1.8-4-4-4h-12.4c-2.2,0-4,1.8-4,4
	V342.1z"/>
<rect x="743.5" y="-71.6" style="fill:none;stroke:#C5C5C5;stroke-width:0.5;stroke-linecap:round;stroke-linejoin:round;" width="20.5" height="701.6"/>
<path style="fill:#C5C5C5;" d="M746.1-58.3h1.5c0.4,0,0.8-0.2,1-0.5l4.8-6.5c0.2-0.3,0.6-0.3,0.8,0l4.8,6.5c0.2,0.3,0.6,0.5,1,0.5
	h1.5c0.4,0,0.6-0.5,0.4-0.8l-7.6-10.2c-0.2-0.3-0.7-0.3-1,0l-7.6,10.2C745.5-58.8,745.7-58.3,746.1-58.3"/>
<path style="fill:#C5C5C5;" d="M761.4,616h-1.5c-0.4,0-0.8,0.2-1,0.5l-4.8,6.5c-0.2,0.3-0.6,0.3-0.8,0l-4.8-6.5
	c-0.2-0.3-0.6-0.5-1-0.5h-1.5c-0.4,0-0.6,0.5-0.4,0.8l7.6,10.2c0.2,0.3,0.7,0.3,1,0l7.6-10.2C762,616.4,761.8,616,761.4,616"/>
<rect x="743.3" y="-71.8" style="fill:none;" width="21" height="702.1"/>
<line style="fill:none;stroke:#B2B1B1;stroke-width:0.3;stroke-miterlimit:10;" x1="22.3" y1="40.3" x2="9.3" y2="40.3"/>
<line style="fill:none;stroke:#B2B1B1;stroke-width:0.3;stroke-miterlimit:10;" x1="22.3" y1="45.4" x2="9.3" y2="45.4"/>
<line style="fill:none;stroke:#B2B1B1;stroke-width:0.3;stroke-miterlimit:10;" x1="22.3" y1="50.5" x2="9.3" y2="50.5"/>
<text transform="matrix(1 0 0 1 4.6991 40.1705)" style="fill:#B2B1B1; font-family:'Montserrat-Bold'; font-size:3px;">1</text>
<text transform="matrix(1 0 0 1 4.6991 45.1862)" style="fill:#B2B1B1; font-family:'Montserrat-Bold'; font-size:3px;">2</text>
<text transform="matrix(1 0 0 1 4.6991 50.2018)" style="fill:#B2B1B1; font-family:'Montserrat-Bold'; font-size:3px;">3</text>
<polygon style="fill:none;stroke:#B2B2B2;stroke-width:0.5;stroke-miterlimit:10;" points="0.2,32.7 0.2,58.7 0.2,59 0.5,59 
	26.5,59 26.7,59 26.7,58.7 26.7,32.7 26.7,32.5 26.5,32.5 0.5,32.5 0.2,32.5 "/>
<polygon style="fill:none;stroke:#B2B2B2;stroke-width:0.5;stroke-miterlimit:10;" points="-31.2,32.7 -31.2,58.7 -31.2,59 -31,59 
	-5,59 -4.7,59 -4.7,58.7 -4.7,32.7 -4.7,32.5 -5,32.5 -31,32.5 -31.2,32.5 "/>
<polygon style="fill:none;stroke:#B2B2B2;stroke-width:0.5;stroke-miterlimit:10;" points="-61.6,32.7 -61.6,58.7 -61.6,59 
	-61.3,59 -35.3,59 -35.1,59 -35.1,58.7 -35.1,32.7 -35.1,32.5 -35.3,32.5 -61.3,32.5 -61.6,32.5 "/>
<path style="fill:none;stroke:#B2B1B1;stroke-width:0.3;stroke-miterlimit:10;" d="M-9.7,50.8h-13 M-9.7,45.7h-13 M-9.7,40.6h-13"/>
<path style="fill:#B2B1B1;" d="M-24.8,46.3c0.2-0.2,0.2-0.3,0.2-0.6c0-0.2,0-0.3-0.1-0.4c-0.1-0.1-0.2-0.2-0.3-0.3
	c-0.1-0.1-0.3-0.1-0.4-0.1c-0.1,0-0.3,0-0.4,0.1s-0.2,0.2-0.3,0.3c-0.1,0.1-0.1,0.3-0.1,0.4c0,0.2,0.1,0.4,0.2,0.6
	c0.2,0.2,0.4,0.2,0.6,0.2C-25.2,46.5-25,46.4-24.8,46.3"/>
<path style="fill:#B2B1B1;" d="M-25.4,41.7c0.5,0,0.9-0.4,0.9-0.9c0-0.5-0.4-0.9-0.9-0.9c-0.5,0-0.9,0.4-0.9,0.9
	C-26.3,41.3-25.9,41.7-25.4,41.7"/>
<path style="fill:#B2B1B1;" d="M-24.8,51.3c0.2-0.2,0.2-0.3,0.2-0.6c0-0.2,0-0.3-0.1-0.4c-0.1-0.1-0.2-0.2-0.3-0.3
	c-0.1-0.1-0.3-0.1-0.4-0.1c-0.1,0-0.3,0-0.4,0.1s-0.2,0.2-0.3,0.3c-0.1,0.1-0.1,0.3-0.1,0.4c0,0.2,0.1,0.4,0.2,0.6
	c0.2,0.2,0.4,0.2,0.6,0.2C-25.2,51.5-25,51.5-24.8,51.3"/>
<path style="fill:none;stroke:#B2B1B1;stroke-width:0.3;stroke-miterlimit:10;" d="M-40.1,50.8h-13 M-40.1,45.7h-13 M-40.1,40.6h-13
	"/>
<rect x="-56.6" y="39.8" style="fill:#B2B1B1;" width="1.8" height="1.8"/>
<rect x="-56.6" y="44.8" style="fill:#B2B1B1;" width="1.8" height="1.8"/>
<rect x="-56.6" y="49.8" style="fill:#B2B1B1;" width="1.8" height="1.8"/>
<rect x="281.9" y="-35.1" style="fill:#F8F8F8;" width="245" height="57.8"/>
<text transform="matrix(1 0 0 1 356.5976 -8.8823)" style="fill:#B2B1B1; font-family:'Montserrat-Regular'; font-size:13px;">N</text>
<text transform="matrix(1 0 0 1 367.0756 -8.8823)" style="fill:#B2B1B1; font-family:'Montserrat-Regular'; font-size:13px;">e</text>
<text transform="matrix(1 0 0 1 374.7326 -8.8823)" style="fill:#B2B1B1; font-family:'Montserrat-Regular'; font-size:13px;">u</text>
<text transform="matrix(1 0 0 1 383.3506 -8.8823)" style="fill:#B2B1B1; font-family:'Montserrat-Regular'; font-size:13px;">e </text>
<text transform="matrix(1 0 0 1 394.6086 -8.8823)" style="fill:#B2B1B1; font-family:'Montserrat-Regular'; font-size:13px;">T</text>
<text transform="matrix(1 0 0 1 400.9786 -8.8823)" style="fill:#B2B1B1; font-family:'Montserrat-Regular'; font-size:13px;">e</text>
<text transform="matrix(1 0 0 1 408.4796 -8.8823)" style="fill:#B2B1B1; font-family:'Montserrat-Regular'; font-size:13px;">x</text>
<text transform="matrix(1 0 0 1 415.6946 -8.8823)" style="fill:#B2B1B1; font-family:'Montserrat-Regular'; font-size:13px;">t</text>
<text transform="matrix(1 0 0 1 420.7256 -8.8823)" style="fill:#B2B1B1; font-family:'Montserrat-Regular'; font-size:13px;">b</text>
<text transform="matrix(1 0 0 1 429.5396 -8.8823)" style="fill:#B2B1B1; font-family:'Montserrat-Regular'; font-size:13px;">o</text>
<text transform="matrix(1 0 0 1 437.3396 -8.8823)" style="fill:#B2B1B1; font-family:'Montserrat-Regular'; font-size:13px;">x </text>
<path style="fill:none;stroke:#B2B1B1;stroke-width:0.5;" d="M404.4,12.9c3.7,0,6.7-3,6.7-6.7c0-3.7-3-6.7-6.7-6.7s-6.7,3-6.7,6.7
	C397.7,9.9,400.7,12.9,404.4,12.9z"/>
<rect x="281.9" y="-35.1" style="fill:none;" width="245" height="57.8"/>
<line style="fill:none;stroke:#B2B1B1;stroke-width:1.2;" x1="404.4" y1="2.6" x2="404.4" y2="9.7"/>
<line style="fill:none;stroke:#B2B1B1;stroke-width:1.2;" x1="400.9" y1="6.2" x2="407.9" y2="6.2"/>
<path style="fill:none;stroke:#B2B1B1;stroke-width:0.5;" d="M293.4,52.7c3.7,0,6.7-3,6.7-6.7c0-3.7-3-6.7-6.7-6.7s-6.7,3-6.7,6.7
	C286.7,49.7,289.7,52.7,293.4,52.7z"/>
<line style="fill:none;stroke:#B2B1B1;stroke-width:1.2;" x1="293.4" y1="42.5" x2="293.4" y2="49.5"/>
<line style="fill:none;stroke:#B2B1B1;stroke-width:1.2;" x1="289.9" y1="46" x2="297" y2="46"/>
<g>
	<path style="fill:#B2B2B2;" d="M-202.5,67.9h-3.1V66h8.5v1.8h-3.1v8h-2.3L-202.5,67.9L-202.5,67.9z"/>
	<path style="fill:#B2B2B2;" d="M-195.8,66h2.3v9.8h-2.3V66z"/>
	<path style="fill:#B2B2B2;" d="M-182.7,69.6c0,2.2-1.6,3.5-4.3,3.5h-2v2.7h-2.3V66h4.2C-184.4,66-182.7,67.4-182.7,69.6z
		 M-185,69.6c0-1.1-0.7-1.7-2.1-1.7h-1.8v3.4h1.8C-185.7,71.3-185,70.6-185,69.6z"/>
	<path style="fill:#B2B2B2;" d="M-172.6,69.6c0,2.2-1.6,3.5-4.3,3.5h-2v2.7h-2.3V66h4.2C-174.3,66-172.6,67.4-172.6,69.6z
		 M-174.9,69.6c0-1.1-0.7-1.7-2.1-1.7h-1.8v3.4h1.8C-175.6,71.3-174.9,70.6-174.9,69.6z"/>
</g>
<path style="fill:#B2B2B2;" d="M-239.1,61.5L-239.1,61.5c-1.1,2.5-2,4.6-2.9,6.8h5.7C-237.2,66.1-238.1,64-239.1,61.5 M-235.6,79.1
	L-235.6,79.1c-0.3-1.2-0.2-1.8,1-1.8c1,0,1.3-0.7,1-1.6c-0.5-1.4-1.1-2.8-1.7-4.2c-0.1-0.2-0.6-0.5-0.8-0.5c-2.1,0-4.3,0-6.4,0
	c-0.3,0-0.7,0.3-0.9,0.6c-0.6,1.2-1.1,2.3-1.5,3.5c-0.6,1.5-0.3,2,1.3,2.2c0.8,0.1,1.2,0.3,1,1.1c-0.1,0.2-0.4,0.6-0.5,0.6
	c-2.5,0-5,0-7.6,0c-0.2-1-0.3-1.6,0.9-1.9c0.6-0.1,1.2-0.6,1.5-1.1c0.8-1.3,1.4-2.7,2-4c2.4-5.6,4.8-11.1,7.2-16.7
	c0.2-0.4,0.6-0.7,1-1c0.3,0.3,0.8,0.6,0.9,1c2.6,6,5.1,12.1,7.6,18.2c0.3,0.8,0.7,1.5,1.1,2.3c0.5,0.9,1.3,1.4,2.4,1.6
	c0.3,0.1,0.5,0.6,0.6,1c0,0.2-0.4,0.6-0.6,0.6C-229.2,79.1-232.4,79.1-235.6,79.1"/>
<path style="fill:#B2B1B1;" d="M-141.8,71.6c2.7,0,4.8-2,4.8-4.6c0-2.4-2.2-4.4-4.7-4.4c-2.7,0-4.8,2-4.8,4.6
	C-146.6,69.6-144.5,71.6-141.8,71.6 M-136.3,71.6L-136.3,71.6c0.4-0.2,0.6-0.2,0.9,0.1c1.2,1.2,2.5,2.4,3.8,3.5
	c0.1,0.1,0.2,0.2,0.3,0.2c0.2,0.2,0.2,0.5,0,0.7c-0.2,0.2-0.5,0.5-0.8,0.7c-0.3,0.3-0.5,0.3-0.9,0c-1.2-1.1-2.3-2.2-3.5-3.3
	c-0.1-0.1-0.3-0.2-0.4-0.4c-0.4-0.3-0.4-0.5-0.2-0.9c-0.4-0.3-0.7-0.7-1.1-1c-1.5,1.1-3.2,1.5-5,1.1c-1.4-0.3-2.5-1.1-3.4-2.2
	c-1.6-2.2-1.3-5.3,0.8-7.1c2.2-1.9,5.5-1.9,7.7-0.1c2.2,1.8,2.8,5.1,0.7,7.6C-137,70.9-136.7,71.2-136.3,71.6"/>
<path style="fill:none;stroke:#FFFFFF;stroke-width:1.000000e-03;" d="M-141.8,71.6c2.7,0,4.8-2,4.8-4.6c0-2.4-2.2-4.4-4.7-4.4
	c-2.7,0-4.8,2-4.8,4.6C-146.6,69.6-144.5,71.6-141.8,71.6z M-136.3,71.6L-136.3,71.6c0.4-0.2,0.6-0.2,0.9,0.1
	c1.2,1.2,2.5,2.4,3.8,3.5c0.1,0.1,0.2,0.2,0.3,0.2c0.2,0.2,0.2,0.5,0,0.7c-0.2,0.2-0.5,0.5-0.8,0.7c-0.3,0.3-0.5,0.3-0.9,0
	c-1.2-1.1-2.3-2.2-3.5-3.3c-0.1-0.1-0.3-0.2-0.4-0.4c-0.4-0.3-0.4-0.5-0.2-0.9c-0.4-0.3-0.7-0.7-1.1-1c-1.5,1.1-3.2,1.5-5,1.1
	c-1.4-0.3-2.5-1.1-3.4-2.2c-1.6-2.2-1.3-5.3,0.8-7.1c2.2-1.9,5.5-1.9,7.7-0.1c2.2,1.8,2.8,5.1,0.7,7.6
	C-137,70.9-136.7,71.2-136.3,71.6z"/>
<path style="fill:#B2B1B1;" d="M-78.1,62l3,3v-2.8c0-0.1-0.1-0.2-0.1-0.3l-3.8-3.8c-0.1-0.1-0.2-0.1-0.2,0l-3.9,3.9v2.8
	c0,0.1,0.1,0.1,0.1,0.1l2.8-2.9c0.1-0.1,0.1,0,0.1,0v7.8l0,0V72c0,0.1-0.1,0.1-0.1,0.1l-3-3v2.8c0,0.1,0.1,0.2,0.1,0.3l3.8,3.8
	c0.1,0.1,0.2,0.1,0.2,0l3.9-3.9v-2.8c0-0.1-0.1-0.1-0.1-0.1l-2.8,2.9c-0.1,0.1-0.1,0-0.1-0.1v-7.8l0,0v-2.2
	C-78.3,62-78.2,61.9-78.1,62z"/>
<line style="fill:none;stroke:#B2B1B1;stroke-width:1.712;" x1="-114.3" y1="75.2" x2="-86.4" y2="75.2"/>
<line style="fill:none;stroke:#B2B1B1;stroke-width:1.712;" x1="-114.3" y1="66.9" x2="-86.4" y2="66.9"/>
<line style="fill:none;stroke:#B2B1B1;stroke-width:1.712;" x1="-114.3" y1="59" x2="-86.4" y2="59"/>
<line style="fill:none;stroke:#B2B1B1;stroke-width:1.712;" x1="-99.9" y1="94.2" x2="-99.9" y2="115.2"/>
<path style="fill:#B2B1B1;" d="M-92.5,108.1L-92.5,108.1h2.7l-2.6-2.6c-0.1-0.1-0.1-0.2,0.1-0.2h7v-1.4c0-0.2-0.2-0.3-0.3-0.3h-6.7
	c-0.2,0-0.2-0.1-0.1-0.2l2.6-2.6h-2.3c-0.2,0-0.5,0.1-0.6,0.2l-3.2,3.2c-0.1,0.1-0.1,0.4,0,0.5L-92.5,108.1z"/>
<path style="fill:#B2B1B1;" d="M-108.2,100.8L-108.2,100.8h-2.7l2.6,2.6c0.1,0.1,0.1,0.2-0.1,0.2h-7v1.4c0,0.2,0.2,0.3,0.3,0.3h6.7
	c0.2,0,0.2,0.1,0.1,0.2l-2.6,2.6h2.3c0.2,0,0.5-0.1,0.6-0.2l3.2-3.2c0.1-0.1,0.1-0.4,0-0.5L-108.2,100.8z"/>
<line style="fill:none;stroke:#B2B1B1;stroke-width:2;" x1="216.4" y1="-24.9" x2="180.3" y2="-24.9"/>
<path style="fill:#AD5E7A;" d="M207.9-21.8c2,0,3.7-1.7,3.7-3.7s-1.7-3.7-3.7-3.7s-3.7,1.7-3.7,3.7S205.8-21.8,207.9-21.8"/>
<g>
	<path style="fill:#B2B1B1;" d="M231.1-24.7c0,3.1-1.8,4.8-4.5,4.8c-0.9,0-1.8-0.2-2.4-0.6l0.6-1.3c0.5,0.3,1.1,0.4,1.7,0.4
		c1.7,0,2.8-1.1,2.8-3.1v0c-0.5,0.6-1.4,0.9-2.4,0.9c-1.8,0-3.1-1.1-3.1-2.8c0-1.8,1.5-3,3.3-3C229.6-29.2,231.1-27.6,231.1-24.7z
		 M229.1-26.4c0-0.9-0.7-1.5-1.9-1.5c-1.1,0-1.8,0.6-1.8,1.5s0.7,1.5,1.8,1.5C228.3-24.8,229.1-25.5,229.1-26.4z"/>
	<path style="fill:#B2B1B1;" d="M238.9-22.8c0,1.6-1.2,2.9-3.6,2.9c-1.3,0-2.6-0.4-3.4-1.1l0.7-1.3c0.7,0.5,1.7,0.9,2.7,0.9
		c1.2,0,1.9-0.5,1.9-1.4c0-0.9-0.6-1.4-2.4-1.4h-2.2l0.5-5h5.3v1.4h-3.9l-0.2,2.1h0.9C237.8-25.6,238.9-24.4,238.9-22.8z"/>
	<path style="fill:#B2B1B1;" d="M243.3-26.7c0-1.5,0.9-2.5,2.2-2.5s2.2,1,2.2,2.5s-0.9,2.5-2.2,2.5S243.3-25.2,243.3-26.7z
		 M246.6-26.7c0-1-0.4-1.6-1.1-1.6c-0.7,0-1.1,0.6-1.1,1.6s0.4,1.6,1.1,1.6C246.2-25.1,246.6-25.7,246.6-26.7z M251-29.1h1.3L246-20
		h-1.3L251-29.1z M249.3-22.4c0-1.5,0.9-2.5,2.2-2.5s2.2,1,2.2,2.5s-0.9,2.5-2.2,2.5C250.2-19.9,249.3-20.9,249.3-22.4z M252.6-22.4
		c0-1-0.4-1.6-1.1-1.6s-1.1,0.6-1.1,1.6c0,1,0.4,1.6,1.1,1.6S252.6-21.4,252.6-22.4z"/>
</g>
<rect x="194.3" y="29.2" style="fill:#FFFFFF;" width="13.1" height="16.8"/>
<polygon style="fill:none;stroke:#B2B1B1;stroke-width:0.941;" points="194.3,46 194.3,46 207.4,46 207.4,29.2 194.3,29.2 "/>
<rect x="186.6" y="28.8" style="fill:none;" width="21.3" height="24"/>
<line style="fill:none;stroke:#B2B1B1;stroke-width:0.941;stroke-dasharray:1.889,1.889;" x1="191.1" y1="36.9" x2="191.1" y2="47.3"/>
<line style="fill:none;stroke:#B2B1B1;stroke-width:0.941;stroke-dasharray:1.754,1.754;" x1="193.8" y1="49.2" x2="203.4" y2="49.2"/>
<path style="fill:none;stroke:#B2B1B1;stroke-width:0.941;" d="M204.3,49.2h0.9 M191.1,48.3v0.9h0.9 M191.1,34.1V35"/>
<polyline style="fill:none;stroke:#B2B1B1;stroke-width:0.941;" points="187.1,37.2 187.1,52.3 201.1,52.3 "/>
<rect x="186.6" y="28.8" style="fill:none;" width="21.3" height="24"/>
<rect x="225.9" y="29.2" style="fill:#FFFFFF;" width="14.7" height="18.7"/>
<polygon style="fill:none;stroke:#B2B1B1;stroke-width:0.804;" points="225.9,47.9 225.9,47.9 240.5,47.9 240.5,29.2 225.9,29.2 "/>
<rect x="225.5" y="28.8" style="fill:none;" width="19.9" height="24"/>
<rect x="230.3" y="33.7" style="fill:#B2B1B1;" width="14.7" height="18.7"/>
<polygon style="fill:none;stroke:#FFFFFF;stroke-width:0.804;" points="230.3,52.4 230.3,52.4 245,52.4 245,33.7 230.3,33.7 "/>
<rect x="225.5" y="28.8" style="fill:none;" width="19.9" height="24"/>
<rect x="127" y="32.7" style="fill:#0E6899;" width="34.9" height="19.6"/>
<text transform="matrix(1 0 0 1 133.9786 47.3692)" style="fill:#FFFFFF; font-family:'Montserrat-Regular'; font-size:13px;">e</text>
<text transform="matrix(1 0 0 1 141.3886 47.3692)" style="fill:#FFFFFF; font-family:'Montserrat-Regular'; font-size:13px;">i</text>
<text transform="matrix(1 0 0 1 144.3136 47.3692)" style="fill:#FFFFFF; font-family:'Montserrat-Regular'; font-size:13px;">n</text>
<polygon style="fill:none;stroke:#B2B2B2;stroke-width:0.5;stroke-miterlimit:10;" points="92,32.6 92,52.6 92,52.8 92.2,52.8 
	161.1,52.8 161.3,52.8 161.3,52.6 161.3,32.6 161.3,32.3 161.1,32.3 92.2,32.3 92,32.3 "/>
<rect x="91.7" y="32.1" style="fill:none;" width="70.2" height="21"/>
<line style="fill:none;stroke:#B2B1B1;stroke-width:2.5;" x1="233" y1="122.2" x2="233" y2="146.5"/>
<path style="fill:#B2B1B1;" d="M241.1,138.1L241.1,138.1h2.6l-2.5-2.5c-0.1-0.1-0.1-0.2,0.1-0.2h6.7V134c0-0.2-0.2-0.4-0.4-0.4H241
	l2.7-2.7h-2.2c-0.2,0-0.5,0.1-0.6,0.2l-3.1,3.1c-0.1,0.1-0.1,0.4,0,0.5L241.1,138.1z"/>
<line style="fill:none;stroke:#B2B1B1;stroke-width:2.5;" x1="206.1" y1="146.3" x2="206.1" y2="122.1"/>
<path style="fill:#B2B1B1;" d="M198,130.5L198,130.5h-2.6l2.5,2.5c0.1,0.1,0.1,0.2-0.1,0.2h-6.7v1.3c0,0.2,0.2,0.4,0.4,0.4h6.7
	l-2.7,2.7h2.2c0.2,0,0.5-0.1,0.6-0.2l3.1-3.1c0.1-0.1,0.1-0.4,0-0.5L198,130.5z"/>
<line style="fill:none;stroke:#B2B1B1;stroke-width:2.5;" x1="16.3" y1="130.1" x2="40.6" y2="130.1"/>
<path style="fill:#B2B1B1;" d="M32,122L32,122v-2.6l-2.5,2.5c-0.1,0.1-0.2,0.1-0.2-0.1v-6.7H28c-0.2,0-0.4,0.2-0.4,0.3v6.7l-2.7-2.7
	v2.2c0,0.2,0.1,0.5,0.2,0.6l3.1,3.1c0.1,0.1,0.4,0.1,0.5,0L32,122z"/>
<path style="fill:#B2B1B1;" d="M25.1,137.2L25.1,137.2v2.6l2.5-2.5c0.1-0.1,0.2-0.1,0.2,0.1v6.7h1.3c0.2,0,0.4-0.2,0.4-0.4V137
	l2.7,2.7v-2.2c0-0.2-0.1-0.5-0.2-0.6l-3.1-3.1c-0.1-0.1-0.4-0.1-0.5,0L25.1,137.2z"/>
<line style="fill:none;stroke:#B2B1B1;stroke-width:2.5;" x1="72.8" y1="142.9" x2="72.8" y2="118.7"/>
<path style="fill:#B2B1B1;" d="M64.7,127.3L64.7,127.3h-2.6l2.5,2.5c0.1,0.1,0.1,0.2-0.1,0.2h-6.7v1.3c0,0.2,0.2,0.4,0.3,0.4h6.7
	l-2.7,2.7h2.2c0.2,0,0.5-0.1,0.6-0.2l3.1-3.1c0.1-0.1,0.1-0.4,0-0.5L64.7,127.3z"/>
<path style="fill:#B2B1B1;" d="M79.9,134.2L79.9,134.2h2.6l-2.5-2.5c-0.1-0.1-0.1-0.2,0.1-0.2h6.7v-1.3c0-0.2-0.2-0.4-0.3-0.4h-6.7
	l2.7-2.7h-2.2c-0.2,0-0.5,0.1-0.6,0.2l-3.1,3.1c-0.1,0.1-0.1,0.4,0,0.5L79.9,134.2z"/>
<line style="fill:none;stroke:#B2B1B1;stroke-width:2.5;" x1="104.9" y1="130.4" x2="129.2" y2="130.4"/>
<path style="fill:#B2B1B1;" d="M113.7,137.5L113.7,137.5v2.6l2.5-2.5c0.1-0.1,0.2-0.1,0.2,0.1v6.7h1.3c0.2,0,0.3-0.2,0.3-0.4v-6.7
	l2.7,2.7v-2.2c0-0.2-0.1-0.5-0.2-0.6l-3.1-3.1c-0.1-0.1-0.4-0.1-0.5,0L113.7,137.5z"/>
<line style="fill:none;stroke:#B2B1B1;stroke-width:2.5;" x1="150" y1="141.6" x2="174.3" y2="141.6"/>
<path style="fill:#B2B1B1;" d="M165.9,133.3L165.9,133.3v-2.6l-2.5,2.5c-0.1,0.1-0.2,0.1-0.2-0.1v-6.7h-1.3c-0.2,0-0.4,0.2-0.4,0.3
	v6.7l-2.7-2.7v2.2c0,0.2,0.1,0.5,0.2,0.6l3.1,3.1c0.1,0.1,0.4,0.1,0.5,0L165.9,133.3z"/>
<rect x="295.9" y="114.7" style="fill:#FFFFFF;" width="15.8" height="20.1"/>
<line style="fill:none;stroke:#B2B1B1;stroke-width:0.941;stroke-dasharray:1.971,1.971;" x1="298.9" y1="134.8" x2="309.7" y2="134.8"/>
<line style="fill:none;stroke:#B2B1B1;stroke-width:0.941;stroke-dasharray:2.006,2.006;" x1="311.7" y1="131.8" x2="311.7" y2="116.7"/>
<line style="fill:none;stroke:#B2B1B1;stroke-width:0.941;stroke-dasharray:1.971,1.971;" x1="308.7" y1="114.7" x2="297.9" y2="114.7"/>
<line style="fill:none;stroke:#B2B1B1;stroke-width:0.941;stroke-dasharray:2.006,2.006;" x1="295.9" y1="117.7" x2="295.9" y2="132.8"/>
<path style="fill:none;stroke:#B2B1B1;stroke-width:0.941;" d="M295.9,133.8v1h1 M296.9,114.7h-1v1 M311.7,115.7v-1h-1 M310.7,134.8
	h1v-1"/>
<polygon style="fill:#FFFFFF;" points="284.7,144.8 284.7,144.8 300.4,144.8 300.4,124.7 284.7,124.7 "/>
<line style="fill:none;stroke:#B2B1B1;stroke-width:0.941;stroke-dasharray:1.971,1.971;" x1="287.6" y1="144.8" x2="298.5" y2="144.8"/>
<line style="fill:none;stroke:#B2B1B1;stroke-width:0.941;stroke-dasharray:2.006,2.006;" x1="300.4" y1="141.8" x2="300.4" y2="126.7"/>
<line style="fill:none;stroke:#B2B1B1;stroke-width:0.941;stroke-dasharray:1.971,1.971;" x1="297.5" y1="124.7" x2="286.6" y2="124.7"/>
<line style="fill:none;stroke:#B2B1B1;stroke-width:0.941;stroke-dasharray:2.006,2.006;" x1="284.7" y1="127.7" x2="284.7" y2="142.8"/>
<path style="fill:none;stroke:#B2B1B1;stroke-width:0.941;" d="M284.7,143.8v1h1 M285.7,124.7h-1v1 M300.4,125.7v-1h-1 M299.5,144.8
	h1v-1"/>
<polygon style="fill:#FFFFFF;" points="275.2,152.8 275.2,152.8 291,152.8 291,132.7 275.2,132.7 "/>
<polygon style="fill:none;stroke:#B2B1B1;stroke-width:0.941;" points="275.2,152.8 275.2,152.8 291,152.8 291,132.7 275.2,132.7 
	"/>
<g>
	<polygon style="fill:#FFFFFF;" points="349,139.1 349,139.1 364.8,139.1 364.8,119 349,119 	"/>
	<polygon style="fill:none;stroke:#B2B1B1;stroke-width:0.941;" points="349,139.1 349,139.1 364.8,139.1 364.8,119 349,119 	"/>
	
		<line style="fill:none;stroke:#B2B1B1;stroke-width:0.941;stroke-dasharray:1.801,1.801;" x1="345.3" y1="127.6" x2="345.3" y2="141.1"/>
	
		<line style="fill:none;stroke:#B2B1B1;stroke-width:0.941;stroke-dasharray:2.091,2.091;" x1="348.4" y1="142.9" x2="359.9" y2="142.9"/>
	<path style="fill:none;stroke:#B2B1B1;stroke-width:0.941;" d="M361,142.9h1 M345.3,142v0.9h1 M345.3,124.9v0.9"/>
</g>
<g>
	<g>
		<rect x="421.6" y="107.3" style="fill:#FFFFFF;" width="15.8" height="20.1"/>
		<polygon style="fill:none;stroke:#B2B1B1;stroke-width:0.941;" points="421.6,127.4 421.6,127.4 437.3,127.4 437.3,107.3 
			421.6,107.3 		"/>
		<polygon style="fill:#FFFFFF;" points="410.3,137.4 410.3,137.4 426.1,137.4 426.1,117.3 410.3,117.3 		"/>
		
			<line style="fill:none;stroke:#B2B1B1;stroke-width:0.941;stroke-dasharray:1.971,1.971;" x1="413.3" y1="137.4" x2="424.1" y2="137.4"/>
		
			<line style="fill:none;stroke:#B2B1B1;stroke-width:0.941;stroke-dasharray:2.006,2.006;" x1="426.1" y1="134.3" x2="426.1" y2="119.3"/>
		
			<line style="fill:none;stroke:#B2B1B1;stroke-width:0.941;stroke-dasharray:1.971,1.971;" x1="423.2" y1="117.3" x2="412.3" y2="117.3"/>
		
			<line style="fill:none;stroke:#B2B1B1;stroke-width:0.941;stroke-dasharray:2.006,2.006;" x1="410.3" y1="120.3" x2="410.3" y2="135.4"/>
		<path style="fill:none;stroke:#B2B1B1;stroke-width:0.941;" d="M410.3,136.4v1h1 M411.3,117.3h-1v1 M426.1,118.3v-1h-1
			 M425.1,137.4h1v-1"/>
		<polygon style="fill:#FFFFFF;" points="400.9,145.4 400.9,145.4 416.6,145.4 416.6,125.3 400.9,125.3 		"/>
		
			<line style="fill:none;stroke:#B2B1B1;stroke-width:0.941;stroke-dasharray:1.971,1.971;" x1="403.8" y1="145.4" x2="414.7" y2="145.4"/>
		
			<line style="fill:none;stroke:#B2B1B1;stroke-width:0.941;stroke-dasharray:2.006,2.006;" x1="416.6" y1="142.3" x2="416.6" y2="127.3"/>
		
			<line style="fill:none;stroke:#B2B1B1;stroke-width:0.941;stroke-dasharray:1.971,1.971;" x1="413.7" y1="125.3" x2="402.8" y2="125.3"/>
		
			<line style="fill:none;stroke:#B2B1B1;stroke-width:0.941;stroke-dasharray:2.006,2.006;" x1="400.9" y1="128.3" x2="400.9" y2="143.4"/>
		<path style="fill:none;stroke:#B2B1B1;stroke-width:0.941;" d="M400.9,144.4v1h1 M401.9,125.3h-1v1 M416.6,126.3v-1h-1
			 M415.6,145.4h1v-1"/>
	</g>
	
		<line style="fill:none;stroke:#B2B1B1;stroke-width:0.941;stroke-dasharray:1.971,1.971;" x1="477" y1="140.8" x2="487.8" y2="140.8"/>
	
		<line style="fill:none;stroke:#B2B1B1;stroke-width:0.941;stroke-dasharray:2.006,2.006;" x1="489.8" y1="137.8" x2="489.8" y2="122.8"/>
	
		<line style="fill:none;stroke:#B2B1B1;stroke-width:0.941;stroke-dasharray:1.971,1.971;" x1="486.8" y1="120.8" x2="476" y2="120.8"/>
	
		<line style="fill:none;stroke:#B2B1B1;stroke-width:0.941;stroke-dasharray:2.006,2.006;" x1="474" y1="123.8" x2="474" y2="138.8"/>
	<path style="fill:none;stroke:#B2B1B1;stroke-width:0.941;" d="M474,139.8v1h1 M475,120.8h-1v1 M489.8,121.8v-1h-1 M488.8,140.8h1
		v-1"/>
	<polyline style="fill:none;stroke:#B2B1B1;stroke-width:0.941;" points="470.3,126.6 470.3,144.6 487,144.6 	"/>
</g>
<g>
	<g>
		<defs>
			<rect id="SVGID_1_" x="-285" y="234.7" width="241.7" height="1"/>
		</defs>
		<clipPath id="SVGID_00000108290791643800433980000012594353671918151868_">
			<use xlink:href="#SVGID_1_"  style="overflow:visible;"/>
		</clipPath>
		
			<line style="clip-path:url(#SVGID_00000108290791643800433980000012594353671918151868_);fill:none;stroke:#B2B2B2;stroke-linecap:round;stroke-linejoin:round;stroke-dasharray:0,3.009;" x1="-281.5" y1="235.2" x2="-45.3" y2="235.2"/>
	</g>
	<g>
		<defs>
			<rect id="SVGID_00000158006231169843567060000008184127617641382050_" x="-285" y="234.7" width="241.7" height="1"/>
		</defs>
		<clipPath id="SVGID_00000041270155540717838040000015952067467482942610_">
			<use xlink:href="#SVGID_00000158006231169843567060000008184127617641382050_"  style="overflow:visible;"/>
		</clipPath>
		
			<path style="clip-path:url(#SVGID_00000041270155540717838040000015952067467482942610_);fill:none;stroke:#B2B2B2;stroke-linecap:round;stroke-linejoin:round;" d="
			M-43.8,235.2L-43.8,235.2 M-284.5,235.2L-284.5,235.2"/>
	</g>
</g>
<circle style="fill:none;stroke:#4F4D4D;stroke-width:0.5;" cx="-238.1" cy="14" r="12.8"/>
<polygon style="fill:#0E689A;" points="-94.7,-1.1 -107.7,-1.1 -101.3,9.4 "/>
<polygon style="fill:#B2B1B1;" points="-86.7,127.5 -97.2,133.9 -86.7,140.5 "/>
<polygon style="fill:#B2B1B1;" points="-115.7,140.5 -105.3,134.1 -115.7,127.5 "/>
<polygon style="fill:#B2B1B1;" points="-33.2,127.5 -43.7,133.9 -33.2,140.5 "/>
<polygon style="fill:#B2B1B1;" points="-68.4,140.5 -57.9,134.1 -68.4,127.5 "/>
<rect x="91.9" y="-1" style="fill:#0E6899;" width="34.9" height="19.6"/>
<polygon style="fill:none;stroke:#B2B2B2;stroke-width:0.5;stroke-miterlimit:10;" points="92.1,-1.2 92.1,18.8 92.1,19.1 
	92.4,19.1 161.2,19.1 161.5,19.1 161.5,18.8 161.5,-1.2 161.5,-1.4 161.2,-1.4 92.4,-1.4 92.1,-1.4 "/>
<rect x="91.9" y="-1.7" style="fill:none;" width="69.8" height="21"/>
<rect x="127.3" y="65" style="fill:#0E6899;" width="34.9" height="19.6"/>
<polygon style="fill:none;stroke:#B2B2B2;stroke-width:0.5;stroke-miterlimit:10;" points="92.2,64.9 92.2,84.9 92.2,85.1 
	92.5,85.1 161.3,85.1 161.6,85.1 161.6,84.9 161.6,64.9 161.6,64.6 161.3,64.6 92.5,64.6 92.2,64.6 "/>
<rect x="92" y="64.4" style="fill:none;" width="70.2" height="21"/>
<line style="fill:none;stroke:#B2B1B1;stroke-width:2;" x1="215.3" y1="-5.1" x2="179.3" y2="-5.1"/>
<path style="fill:#AD5E7A;" d="M206.8-2c2,0,3.7-1.7,3.7-3.7s-1.7-3.7-3.7-3.7s-3.7,1.7-3.7,3.7S204.7-2,206.8-2"/>
<line style="fill:none;stroke:#B2B1B1;stroke-width:2;" x1="523.6" y1="25.7" x2="487.6" y2="25.7"/>
<path style="fill:#AD5E7A;" d="M515.1,28.8c2,0,3.7-1.7,3.7-3.7s-1.7-3.7-3.7-3.7s-3.7,1.7-3.7,3.7S513.1,28.8,515.1,28.8"/>
</svg>
