<?xml version="1.0" encoding="utf-8"?>
<!-- Generator: Adobe Illustrator 26.5.0, SVG Export Plug-In . SVG Version: 6.00 Build 0)  -->
<svg version="1.1" id="Ebene_1" xmlns="http://www.w3.org/2000/svg" xmlns:xlink="http://www.w3.org/1999/xlink" x="0px" y="0px"
	 width="27px" height="27px" viewBox="0 0 27 27" style="enable-background:new 0 0 27 27;" xml:space="preserve">
<polyline style="fill:none;stroke:#C5C5C5;stroke-width:3;stroke-linecap:round;stroke-linejoin:round;" points="1753.8,908.4 
	1747.5,899.4 1740.8,908.4 "/>
<circle style="fill:#FFAEFF;stroke:#4F4D4D;stroke-width:0.5;" cx="-238.1" cy="-54.3" r="12.8"/>
<rect x="-205.6" y="-65.4" style="fill:#F8F8F8;" width="119.9" height="21"/>
<polygon style="fill:#0E689A;" points="-94.8,-60.1 -107.8,-60.1 -101.4,-49.6 "/>
<g>
	<g>
		<line style="fill:none;stroke:#B2B1B1;stroke-width:0.65;stroke-miterlimit:10;" x1="18.2" y1="-47.8" x2="28.5" y2="-47.8"/>
		<g>
			<path style="fill:#B2B1B1;" d="M19.5-53.1v-5.2h1.3v5.1c0,2,0.9,2.9,2.6,2.9s2.6-0.9,2.6-2.9v-5.1h1.3v5.2c0,2.6-1.4,4-3.8,4
				C20.9-49,19.5-50.4,19.5-53.1z"/>
		</g>
	</g>
	<polygon style="fill:none;stroke:#B2B2B2;stroke-width:0.5;stroke-miterlimit:10;" points="10.1,-66 10.1,-40 10.1,-39.8 
		10.3,-39.8 36.3,-39.8 36.6,-39.8 36.6,-40 36.6,-66 36.6,-66.3 36.3,-66.3 10.3,-66.3 10.1,-66.3 	"/>
</g>
<g>
	<g>
		<path style="fill:#B2B1B1;" d="M-11.3-58h1.3l-1.8,9.1h-1.3L-11.3-58z"/>
	</g>
	<polygon style="fill:none;stroke:#B2B2B2;stroke-width:0.5;stroke-miterlimit:10;" points="-24.8,-66.4 -24.8,-40.4 -24.8,-40.2 
		-24.5,-40.2 1.5,-40.2 1.7,-40.2 1.7,-40.4 1.7,-66.4 1.7,-66.7 1.5,-66.7 -24.5,-66.7 -24.8,-66.7 	"/>
</g>
<g>
	<g>
		<path style="fill:#B2B1B1;" d="M-44.4-51.3c0,1.6-1.2,2.5-3.6,2.5h-4.7v-9.1h4.4c2.3,0,3.4,0.9,3.4,2.4c0,0.9-0.5,1.6-1.2,2
			C-45.1-53.2-44.4-52.4-44.4-51.3z M-50.7-56.3v2.1h2.1c1,0,1.6-0.4,1.6-1.1s-0.6-1.1-1.6-1.1L-50.7-56.3L-50.7-56.3z M-46.5-51.5
			c0-0.8-0.6-1.1-1.7-1.1h-2.5v2.2h2.5C-47.1-50.4-46.5-50.7-46.5-51.5z"/>
	</g>
	<polygon style="fill:none;stroke:#B2B2B2;stroke-width:0.5;stroke-miterlimit:10;" points="-61.8,-66.4 -61.8,-40.4 -61.8,-40.1 
		-61.6,-40.1 -35.6,-40.1 -35.3,-40.1 -35.3,-40.4 -35.3,-66.4 -35.3,-66.6 -35.6,-66.6 -61.6,-66.6 -61.8,-66.6 	"/>
</g>
<path style="fill:none;stroke:#B2B1B1;stroke-width:0.3;stroke-miterlimit:10;" d="M-7.6-24.4"/>
<path style="fill:none;stroke:#B2B1B1;stroke-width:0.3;stroke-miterlimit:10;" d="M-10.2-23.1"/>
<path style="fill:none;stroke:#B2B1B1;stroke-width:0.3;stroke-miterlimit:10;" d="M-10.2-21.9"/>
<path style="fill:none;stroke:#B2B1B1;stroke-width:0.3;stroke-miterlimit:10;" d="M-10.2-20.6"/>
<path style="fill:none;stroke:#B2B1B1;stroke-width:0.3;stroke-miterlimit:10;" d="M-7.6-19.4"/>
<path style="fill:none;stroke:#B2B1B1;stroke-width:0.3;stroke-miterlimit:10;" d="M-7.6-18.1"/>
<path style="fill:none;stroke:#B2B1B1;stroke-width:0.3;stroke-miterlimit:10;" d="M-10.2-16.9"/>
<path style="fill:none;stroke:#B2B1B1;stroke-width:0.3;stroke-miterlimit:10;" d="M-10.2-14.4"/>
<path style="fill:none;stroke:#B2B1B1;stroke-width:0.3;stroke-miterlimit:10;" d="M-7.6-11.9"/>
<g>
	<path style="fill:none;stroke:#B2B1B1;stroke-width:0.3;stroke-miterlimit:10;" d="M-27.1-19.4"/>
	<path style="fill:none;stroke:#B2B1B1;stroke-width:0.3;stroke-miterlimit:10;" d="M-27.1-24.4"/>
	<path style="fill:none;stroke:#B2B1B1;stroke-width:0.3;stroke-miterlimit:10;" d="M-27.1-11.9"/>
	<path style="fill:none;stroke:#B2B1B1;stroke-width:0.3;stroke-miterlimit:10;" d="M-27.1-18.1"/>
	<g>
		<path style="fill:none;stroke:#B2B1B1;stroke-width:0.3;stroke-miterlimit:10;" d="M-25-16.9"/>
		<path style="fill:none;stroke:#B2B1B1;stroke-width:0.3;stroke-miterlimit:10;" d="M-25-20.6"/>
		<path style="fill:none;stroke:#B2B1B1;stroke-width:0.3;stroke-miterlimit:10;" d="M-25-21.9"/>
		<path style="fill:none;stroke:#B2B1B1;stroke-width:0.3;stroke-miterlimit:10;" d="M-25-23.1"/>
		<line style="fill:none;stroke:#B2B1B1;stroke-width:0.3;stroke-miterlimit:10;" x1="-27.5" y1="-12.7" x2="-8" y2="-12.7"/>
		<line style="fill:none;stroke:#B2B1B1;stroke-width:0.3;stroke-miterlimit:10;" x1="-27.5" y1="-13.9" x2="-12.6" y2="-13.9"/>
		<line style="fill:none;stroke:#B2B1B1;stroke-width:0.3;stroke-miterlimit:10;" x1="-27.5" y1="-15.2" x2="-12.6" y2="-15.2"/>
		<line style="fill:none;stroke:#B2B1B1;stroke-width:0.3;stroke-miterlimit:10;" x1="-27.5" y1="-16.5" x2="-12.6" y2="-16.5"/>
		<line style="fill:none;stroke:#B2B1B1;stroke-width:0.3;stroke-miterlimit:10;" x1="-27.5" y1="-17.8" x2="-8" y2="-17.8"/>
		<line style="fill:none;stroke:#B2B1B1;stroke-width:0.3;stroke-miterlimit:10;" x1="-27.5" y1="-19" x2="-8" y2="-19"/>
		<line style="fill:none;stroke:#B2B1B1;stroke-width:0.3;stroke-miterlimit:10;" x1="-27.4" y1="-20.3" x2="-12.5" y2="-20.3"/>
		<line style="fill:none;stroke:#B2B1B1;stroke-width:0.3;stroke-miterlimit:10;" x1="-27.5" y1="-21.6" x2="-8" y2="-21.6"/>
		<line style="fill:none;stroke:#B2B1B1;stroke-width:0.3;stroke-miterlimit:10;" x1="-27.5" y1="-22.9" x2="-12.6" y2="-22.9"/>
		<line style="fill:none;stroke:#B2B1B1;stroke-width:0.3;stroke-miterlimit:10;" x1="-27.5" y1="-24.1" x2="-12.6" y2="-24.1"/>
		<line style="fill:none;stroke:#B2B1B1;stroke-width:0.3;stroke-miterlimit:10;" x1="-27.5" y1="-25.4" x2="-8" y2="-25.4"/>
	</g>
	<polygon style="fill:none;stroke:#B2B2B2;stroke-width:0.5;stroke-miterlimit:10;" points="-30.8,-31.7 -30.8,-5.7 -30.8,-5.5 
		-30.6,-5.5 -4.6,-5.5 -4.3,-5.5 -4.3,-5.7 -4.3,-31.7 -4.3,-32 -4.6,-32 -30.6,-32 -30.8,-32 	"/>
</g>
<g>
	<g>
		<line style="fill:none;stroke:#B2B1B1;stroke-width:0.3;stroke-miterlimit:10;" x1="23.2" y1="-25.1" x2="3.8" y2="-25.1"/>
		<line style="fill:none;stroke:#B2B1B1;stroke-width:0.3;stroke-miterlimit:10;" x1="20.7" y1="-23.8" x2="5.8" y2="-23.8"/>
		<line style="fill:none;stroke:#B2B1B1;stroke-width:0.3;stroke-miterlimit:10;" x1="20.7" y1="-22.5" x2="5.8" y2="-22.5"/>
		<line style="fill:none;stroke:#B2B1B1;stroke-width:0.3;stroke-miterlimit:10;" x1="20.7" y1="-21.3" x2="5.8" y2="-21.3"/>
		<line style="fill:none;stroke:#B2B1B1;stroke-width:0.3;stroke-miterlimit:10;" x1="23.2" y1="-20" x2="3.8" y2="-20"/>
		<line style="fill:none;stroke:#B2B1B1;stroke-width:0.3;stroke-miterlimit:10;" x1="23.2" y1="-18.7" x2="3.8" y2="-18.7"/>
		<line style="fill:none;stroke:#B2B1B1;stroke-width:0.3;stroke-miterlimit:10;" x1="20.7" y1="-17.4" x2="5.8" y2="-17.4"/>
		<line style="fill:none;stroke:#B2B1B1;stroke-width:0.3;stroke-miterlimit:10;" x1="23.2" y1="-16.2" x2="3.8" y2="-16.2"/>
		<line style="fill:none;stroke:#B2B1B1;stroke-width:0.3;stroke-miterlimit:10;" x1="20.7" y1="-14.9" x2="5.8" y2="-14.9"/>
		<line style="fill:none;stroke:#B2B1B1;stroke-width:0.3;stroke-miterlimit:10;" x1="20.7" y1="-13.6" x2="5.8" y2="-13.6"/>
		<line style="fill:none;stroke:#B2B1B1;stroke-width:0.3;stroke-miterlimit:10;" x1="23.2" y1="-12.3" x2="3.8" y2="-12.3"/>
	</g>
	<polygon style="fill:none;stroke:#B2B2B2;stroke-width:0.5;stroke-miterlimit:10;" points="0.3,-31.7 0.3,-5.7 0.3,-5.5 0.5,-5.5 
		26.5,-5.5 26.8,-5.5 26.8,-5.7 26.8,-31.7 26.8,-32 26.5,-32 0.5,-32 0.3,-32 	"/>
</g>
<polygon style="fill:none;stroke:#B2B2B2;stroke-width:0.5;stroke-miterlimit:10;" points="31.3,-31.7 31.3,-5.7 31.3,-5.5 
	31.6,-5.5 57.6,-5.5 57.8,-5.5 57.8,-5.7 57.8,-31.7 57.8,-32 57.6,-32 31.6,-32 31.3,-32 "/>
<path style="fill:none;stroke:#B2B1B1;stroke-width:0.3;stroke-miterlimit:10;" d="M34.7-13"/>
<path style="fill:none;stroke:#B2B1B1;stroke-width:0.3;stroke-miterlimit:10;" d="M34.7-18"/>
<path style="fill:none;stroke:#B2B1B1;stroke-width:0.3;stroke-miterlimit:10;" d="M34.7-19.3"/>
<path style="fill:none;stroke:#B2B1B1;stroke-width:0.3;stroke-miterlimit:10;" d="M34.7-25.6"/>
<path style="fill:none;stroke:#B2B1B1;stroke-width:0.3;stroke-miterlimit:10;" d="M52.1-20.6"/>
<path style="fill:none;stroke:#B2B1B1;stroke-width:0.3;stroke-miterlimit:10;" d="M54.1-18"/>
<path style="fill:none;stroke:#B2B1B1;stroke-width:0.3;stroke-miterlimit:10;" d="M52.1-16.8"/>
<path style="fill:none;stroke:#B2B1B1;stroke-width:0.3;stroke-miterlimit:10;" d="M54.1-13"/>
<path style="fill:none;stroke:#B2B1B1;stroke-width:0.3;stroke-miterlimit:10;" d="M54.1-25.6"/>
<path style="fill:none;stroke:#B2B1B1;stroke-width:0.3;stroke-miterlimit:10;" d="M54.1-19.3"/>
<path style="fill:none;stroke:#B2B1B1;stroke-width:0.3;stroke-miterlimit:10;" d="M52.1-15.5"/>
<path style="fill:none;stroke:#B2B1B1;stroke-width:0.3;stroke-miterlimit:10;" d="M52.1-14.3"/>
<g>
	<path style="fill:none;stroke:#B2B1B1;stroke-width:0.3;stroke-miterlimit:10;" d="M37-14.6"/>
	<path style="fill:none;stroke:#B2B1B1;stroke-width:0.3;stroke-miterlimit:10;" d="M37-15.9"/>
	<path style="fill:none;stroke:#B2B1B1;stroke-width:0.3;stroke-miterlimit:10;" d="M37-17.1"/>
	<path style="fill:none;stroke:#B2B1B1;stroke-width:0.3;stroke-miterlimit:10;" d="M37-20.9"/>
	<path style="fill:none;stroke:#B2B1B1;stroke-width:0.3;stroke-miterlimit:10;" d="M37-23.4"/>
	<line style="fill:none;stroke:#B2B1B1;stroke-width:0.3;stroke-miterlimit:10;" x1="54.3" y1="-25.1" x2="34.8" y2="-25.1"/>
	<line style="fill:none;stroke:#B2B1B1;stroke-width:0.3;stroke-miterlimit:10;" x1="54.3" y1="-23.8" x2="39.4" y2="-23.8"/>
	<line style="fill:none;stroke:#B2B1B1;stroke-width:0.3;stroke-miterlimit:10;" x1="54.3" y1="-22.5" x2="39.4" y2="-22.5"/>
	<line style="fill:none;stroke:#B2B1B1;stroke-width:0.3;stroke-miterlimit:10;" x1="54.3" y1="-21.3" x2="39.4" y2="-21.3"/>
	<line style="fill:none;stroke:#B2B1B1;stroke-width:0.3;stroke-miterlimit:10;" x1="54.3" y1="-20" x2="34.8" y2="-20"/>
	<line style="fill:none;stroke:#B2B1B1;stroke-width:0.3;stroke-miterlimit:10;" x1="54.3" y1="-18.7" x2="34.8" y2="-18.7"/>
	<line style="fill:none;stroke:#B2B1B1;stroke-width:0.3;stroke-miterlimit:10;" x1="54.2" y1="-17.4" x2="39.3" y2="-17.4"/>
	<line style="fill:none;stroke:#B2B1B1;stroke-width:0.3;stroke-miterlimit:10;" x1="54.3" y1="-16.2" x2="34.8" y2="-16.2"/>
	<line style="fill:none;stroke:#B2B1B1;stroke-width:0.3;stroke-miterlimit:10;" x1="54.3" y1="-14.9" x2="39.4" y2="-14.9"/>
	<line style="fill:none;stroke:#B2B1B1;stroke-width:0.3;stroke-miterlimit:10;" x1="54.3" y1="-13.6" x2="39.4" y2="-13.6"/>
	<line style="fill:none;stroke:#B2B1B1;stroke-width:0.3;stroke-miterlimit:10;" x1="54.3" y1="-12.3" x2="34.8" y2="-12.3"/>
</g>
<polygon style="fill:none;stroke:#B2B2B2;stroke-width:0.5;stroke-miterlimit:10;" points="-61.6,-31.7 -61.6,-5.7 -61.6,-5.5 
	-61.3,-5.5 -35.3,-5.5 -35.1,-5.5 -35.1,-5.7 -35.1,-31.7 -35.1,-32 -35.3,-32 -61.3,-32 -61.6,-32 "/>
<path style="fill:none;stroke:#B2B1B1;stroke-width:0.3;stroke-miterlimit:10;" d="M-38.4-24.4"/>
<path style="fill:none;stroke:#B2B1B1;stroke-width:0.3;stroke-miterlimit:10;" d="M-38.4-19.4"/>
<path style="fill:none;stroke:#B2B1B1;stroke-width:0.3;stroke-miterlimit:10;" d="M-38.4-18.1"/>
<path style="fill:none;stroke:#B2B1B1;stroke-width:0.3;stroke-miterlimit:10;" d="M-38.4-11.9"/>
<path style="fill:none;stroke:#B2B1B1;stroke-width:0.3;stroke-miterlimit:10;" d="M-55.8-16.9"/>
<path style="fill:none;stroke:#B2B1B1;stroke-width:0.3;stroke-miterlimit:10;" d="M-57.9-19.4"/>
<path style="fill:none;stroke:#B2B1B1;stroke-width:0.3;stroke-miterlimit:10;" d="M-55.8-20.6"/>
<path style="fill:none;stroke:#B2B1B1;stroke-width:0.3;stroke-miterlimit:10;" d="M-57.9-24.4"/>
<path style="fill:none;stroke:#B2B1B1;stroke-width:0.3;stroke-miterlimit:10;" d="M-57.9-11.9"/>
<path style="fill:none;stroke:#B2B1B1;stroke-width:0.3;stroke-miterlimit:10;" d="M-57.9-18.1"/>
<path style="fill:none;stroke:#B2B1B1;stroke-width:0.3;stroke-miterlimit:10;" d="M-55.8-21.9"/>
<path style="fill:none;stroke:#B2B1B1;stroke-width:0.3;stroke-miterlimit:10;" d="M-55.8-23.1"/>
<g>
	<path style="fill:none;stroke:#B2B1B1;stroke-width:0.3;stroke-miterlimit:10;" d="M-40.9-23.1"/>
	<path style="fill:none;stroke:#B2B1B1;stroke-width:0.3;stroke-miterlimit:10;" d="M-40.9-21.9"/>
	<path style="fill:none;stroke:#B2B1B1;stroke-width:0.3;stroke-miterlimit:10;" d="M-40.9-20.6"/>
	<path style="fill:none;stroke:#B2B1B1;stroke-width:0.3;stroke-miterlimit:10;" d="M-40.9-16.9"/>
	<path style="fill:none;stroke:#B2B1B1;stroke-width:0.3;stroke-miterlimit:10;" d="M-40.9-14.4"/>
	<line style="fill:none;stroke:#B2B1B1;stroke-width:0.3;stroke-miterlimit:10;" x1="-58.3" y1="-12.7" x2="-38.8" y2="-12.7"/>
	<line style="fill:none;stroke:#B2B1B1;stroke-width:0.3;stroke-miterlimit:10;" x1="-58.3" y1="-13.9" x2="-38.8" y2="-13.9"/>
	<line style="fill:none;stroke:#B2B1B1;stroke-width:0.3;stroke-miterlimit:10;" x1="-58.3" y1="-15.2" x2="-38.8" y2="-15.2"/>
	<line style="fill:none;stroke:#B2B1B1;stroke-width:0.3;stroke-miterlimit:10;" x1="-58.3" y1="-16.5" x2="-38.8" y2="-16.5"/>
	<line style="fill:none;stroke:#B2B1B1;stroke-width:0.3;stroke-miterlimit:10;" x1="-58.3" y1="-17.8" x2="-38.8" y2="-17.8"/>
	<line style="fill:none;stroke:#B2B1B1;stroke-width:0.3;stroke-miterlimit:10;" x1="-58.3" y1="-19" x2="-38.8" y2="-19"/>
	<line style="fill:none;stroke:#B2B1B1;stroke-width:0.3;stroke-miterlimit:10;" x1="-58.2" y1="-20.3" x2="-38.7" y2="-20.3"/>
	<line style="fill:none;stroke:#B2B1B1;stroke-width:0.3;stroke-miterlimit:10;" x1="-58.3" y1="-21.6" x2="-38.8" y2="-21.6"/>
	<line style="fill:none;stroke:#B2B1B1;stroke-width:0.3;stroke-miterlimit:10;" x1="-58.3" y1="-22.9" x2="-38.8" y2="-22.9"/>
	<line style="fill:none;stroke:#B2B1B1;stroke-width:0.3;stroke-miterlimit:10;" x1="-58.3" y1="-24.1" x2="-38.8" y2="-24.1"/>
	<line style="fill:none;stroke:#B2B1B1;stroke-width:0.3;stroke-miterlimit:10;" x1="-58.3" y1="-25.4" x2="-38.8" y2="-25.4"/>
</g>
<path style="fill:#B2B1B1;" d="M-231.1,83.4l-1.9,13.3c-0.1,0.4-0.4,0.7-0.8,0.6c-0.4-0.1-0.7-0.4-0.6-0.8l1.9-13.3
	c0.1-0.4,0.4-0.7,0.8-0.6C-231.4,82.7-231.1,83-231.1,83.4 M-238,97.5c-0.4,0-0.7-0.3-0.7-0.7l-0.1-13.5c0-0.4,0.3-0.7,0.7-0.7
	c0.4,0,0.7,0.3,0.7,0.7l0.1,13.5C-237.2,97.2-237.6,97.5-238,97.5 M-242,97.5c-0.4,0.1-0.8-0.2-0.8-0.6l-2.1-13.3
	c-0.1-0.4,0.2-0.8,0.6-0.8c0.4-0.1,0.8,0.2,0.8,0.6l2.1,13.3C-241.4,97-241.6,97.4-242,97.5 M-228.2,81.1c-0.1-0.2-0.4-0.3-0.6-0.3
	l-18.5,0.1c-0.2,0-0.4,0.1-0.6,0.3c-0.1,0.2-0.2,0.4-0.2,0.6L-245,98c0.1,0.4,0.4,0.6,0.7,0.6l12.5-0.1c0.4,0,0.7-0.3,0.7-0.6
	l2.9-16.2C-228,81.5-228.1,81.2-228.2,81.1"/>
<path style="fill:none;stroke:#FFFFFF;stroke-width:2.100000e-02;" d="M-231.1,83.4l-1.9,13.3c-0.1,0.4-0.4,0.7-0.8,0.6
	c-0.4-0.1-0.7-0.4-0.6-0.8l1.9-13.3c0.1-0.4,0.4-0.7,0.8-0.6C-231.4,82.7-231.1,83-231.1,83.4z M-238,97.5c-0.4,0-0.7-0.3-0.7-0.7
	l-0.1-13.5c0-0.4,0.3-0.7,0.7-0.7c0.4,0,0.7,0.3,0.7,0.7l0.1,13.5C-237.2,97.2-237.6,97.5-238,97.5z M-242,97.5
	c-0.4,0.1-0.8-0.2-0.8-0.6l-2.1-13.3c-0.1-0.4,0.2-0.8,0.6-0.8c0.4-0.1,0.8,0.2,0.8,0.6l2.1,13.3C-241.4,97-241.6,97.4-242,97.5z
	 M-228.2,81.1c-0.1-0.2-0.4-0.3-0.6-0.3l-18.5,0.1c-0.2,0-0.4,0.1-0.6,0.3c-0.1,0.2-0.2,0.4-0.2,0.6L-245,98
	c0.1,0.4,0.4,0.6,0.7,0.6l12.5-0.1c0.4,0,0.7-0.3,0.7-0.6l2.9-16.2C-228,81.5-228.1,81.2-228.2,81.1z"/>
<path style="fill:#B2B1B1;" d="M-240.9,76.4L-240.9,76.4l0-0.4l5.5,0l0,0.4L-240.9,76.4z M-227.2,77.9L-227.2,77.9l-2,0l0-1.2
	c0-0.1,0-0.2-0.1-0.2s-0.2-0.1-0.2-0.1l-4.5,0l0-1.1c0-0.2-0.1-0.4-0.2-0.5c-0.1-0.1-0.3-0.2-0.5-0.2l-6.9,0.1
	c-0.2,0-0.4,0.1-0.5,0.2s-0.2,0.3-0.2,0.5l0,1.1l-4.2,0c-0.1,0-0.2,0-0.2,0.1c-0.1,0.1-0.1,0.2-0.1,0.2l0,1.2l-2.2,0l0,2.2l21.8-0.2
	L-227.2,77.9z"/>
<path style="fill:none;stroke:#FFFFFF;stroke-width:2.100000e-02;" d="M-240.9,76.4L-240.9,76.4l0-0.4l5.5,0l0,0.4L-240.9,76.4z
	 M-227.2,77.9L-227.2,77.9l-2,0l0-1.2c0-0.1,0-0.2-0.1-0.2s-0.2-0.1-0.2-0.1l-4.5,0l0-1.1c0-0.2-0.1-0.4-0.2-0.5
	c-0.1-0.1-0.3-0.2-0.5-0.2l-6.9,0.1c-0.2,0-0.4,0.1-0.5,0.2s-0.2,0.3-0.2,0.5l0,1.1l-4.2,0c-0.1,0-0.2,0-0.2,0.1
	c-0.1,0.1-0.1,0.2-0.1,0.2l0,1.2l-2.2,0l0,2.2l21.8-0.2L-227.2,77.9z"/>
<rect x="-249" y="74.6" style="fill:none;" width="21.9" height="24"/>
<rect x="91.9" y="-66.2" style="fill:#0E6899;" width="34.9" height="19.6"/>
<g>
	<path style="fill:#FFFFFF;" d="M104.9-55.8v4.2H104v-1.1c-0.4,0.7-1.2,1.1-2.4,1.1c-1.5,0-2.5-0.8-2.5-2c0-1.1,0.7-1.9,2.6-1.9h2.2
		v-0.4c0-1.2-0.7-1.8-1.9-1.8c-0.9,0-1.7,0.3-2.3,0.8l-0.4-0.7c0.7-0.6,1.7-0.9,2.8-0.9C103.9-58.4,104.9-57.5,104.9-55.8z
		 M103.9-53.6v-1.1h-2.1c-1.3,0-1.8,0.5-1.8,1.2c0,0.8,0.6,1.3,1.7,1.3C102.8-52.2,103.6-52.7,103.9-53.6z"/>
	<path style="fill:#FFFFFF;" d="M113-58.4v6.8h-0.9v-1.2c-0.5,0.8-1.4,1.3-2.5,1.3c-1.7,0-2.9-1-2.9-2.9v-4h0.9v3.9
		c0,1.5,0.8,2.2,2.1,2.2c1.4,0,2.3-0.9,2.3-2.5v-3.6C112-58.4,113-58.4,113-58.4z"/>
	<path style="fill:#FFFFFF;" d="M114.3-52.3l0.4-0.7c0.5,0.4,1.5,0.8,2.4,0.8c1.3,0,1.8-0.4,1.8-1.1c0-1.8-4.4-0.4-4.4-3.1
		c0-1.1,1-2,2.7-2c0.9,0,1.8,0.2,2.4,0.6l-0.4,0.7c-0.6-0.4-1.3-0.6-2-0.6c-1.2,0-1.8,0.5-1.8,1.1c0,1.8,4.4,0.5,4.4,3.1
		c0,1.2-1,2-2.8,2C115.9-51.5,114.8-51.8,114.3-52.3z"/>
</g>
<polygon style="fill:none;stroke:#B2B2B2;stroke-width:0.5;stroke-miterlimit:10;" points="92.1,-66.3 92.1,-46.3 92.1,-46.1 
	92.4,-46.1 161.2,-46.1 161.5,-46.1 161.5,-46.3 161.5,-66.3 161.5,-66.6 161.2,-66.6 92.4,-66.6 92.1,-66.6 "/>
<rect x="91.9" y="-66.8" style="fill:none;" width="69.8" height="21"/>
<rect x="-312.5" y="140.5" style="fill:#FFFFFF;" width="1014" height="21"/>
<path style="fill:#0E689A;" d="M314.7,140.5c-2.2,0-4,1.8-4,4v12.4c0,2.2,1.8,4,4,4h77.1c2.2,0,4-1.8,4-4v-12.4c0-2.2-1.8-4-4-4
	H314.7z"/>
<rect x="-312.3" y="140.8" style="fill:none;stroke:#C5C5C5;stroke-width:0.5;stroke-linecap:round;stroke-linejoin:round;" width="1013.5" height="20.5"/>
<path style="fill:#C5C5C5;" d="M685.4,143.4v1.5c0,0.4,0.2,0.8,0.5,1l6.4,4.8c0.3,0.2,0.3,0.6,0,0.8l-6.4,4.8
	c-0.3,0.2-0.5,0.6-0.5,1v1.5c0,0.4,0.5,0.6,0.8,0.4l10.1-7.6c0.3-0.2,0.3-0.7,0-1l-10.1-7.6C685.8,142.7,685.4,143,685.4,143.4"/>
<path style="fill:#C5C5C5;" d="M-296.6,158.6v-1.5c0-0.4-0.2-0.8-0.5-1l-6.4-4.8c-0.3-0.2-0.3-0.6,0-0.8l6.4-4.8
	c0.3-0.2,0.5-0.6,0.5-1v-1.5c0-0.4-0.5-0.6-0.8-0.4l-10.1,7.6c-0.3,0.2-0.3,0.7,0,1l10.1,7.6C-297.1,159.3-296.6,159.1-296.6,158.6"
	/>
<rect x="-312.5" y="140.5" style="fill:none;" width="1014" height="21"/>
<rect x="743.3" y="-104" style="fill:#FFFFFF;" width="21" height="702.1"/>
<path style="fill:#0E689A;" d="M743.3,309.9c0,2.2,1.8,4,4,4h12.4c2.2,0,4-1.8,4-4v-78.3c0-2.2-1.8-4-4-4h-12.4c-2.2,0-4,1.8-4,4
	V309.9z"/>
<rect x="743.5" y="-103.8" style="fill:none;stroke:#C5C5C5;stroke-width:0.5;stroke-linecap:round;stroke-linejoin:round;" width="20.5" height="701.6"/>
<path style="fill:#C5C5C5;" d="M746.1-90.5h1.5c0.4,0,0.8-0.2,1-0.5l4.8-6.5c0.2-0.3,0.6-0.3,0.8,0l4.8,6.5c0.2,0.3,0.6,0.5,1,0.5
	h1.5c0.4,0,0.6-0.5,0.4-0.8l-7.6-10.2c-0.2-0.3-0.7-0.3-1,0l-7.6,10.2C745.5-91,745.7-90.5,746.1-90.5"/>
<path style="fill:#C5C5C5;" d="M761.4,583.8h-1.5c-0.4,0-0.8,0.2-1,0.5l-4.8,6.5c-0.2,0.3-0.6,0.3-0.8,0l-4.8-6.5
	c-0.2-0.3-0.6-0.5-1-0.5h-1.5c-0.4,0-0.6,0.5-0.4,0.8l7.6,10.2c0.2,0.3,0.7,0.3,1,0l7.6-10.2C762.1,584.2,761.8,583.8,761.4,583.8"
	/>
<rect x="743.3" y="-104" style="fill:none;" width="21" height="702.1"/>
<g>
	<g>
		<line style="fill:none;stroke:#B2B1B1;stroke-width:0.3;stroke-miterlimit:10;" x1="22.3" y1="18.9" x2="9.3" y2="18.9"/>
		<line style="fill:none;stroke:#B2B1B1;stroke-width:0.3;stroke-miterlimit:10;" x1="22.3" y1="8.8" x2="9.3" y2="8.8"/>
		<line style="fill:none;stroke:#B2B1B1;stroke-width:0.3;stroke-miterlimit:10;" x1="22.3" y1="13.9" x2="9.3" y2="13.9"/>
		<g>
			<path style="fill:#B2B1B1;" d="M5.6,7.3v2.1H5.1V7.7H4.7V7.3H5.6z"/>
		</g>
		<g>
			<path style="fill:#B2B1B1;" d="M6.4,14.3v0.4H4.8v-0.3l0.8-0.8c0.2-0.2,0.2-0.3,0.2-0.4c0-0.2-0.1-0.3-0.3-0.3
				c-0.2,0-0.3,0.1-0.4,0.2l-0.4-0.2c0.2-0.2,0.5-0.4,0.8-0.4c0.5,0,0.8,0.2,0.8,0.6c0,0.2-0.1,0.4-0.4,0.7l-0.5,0.5L6.4,14.3
				L6.4,14.3z"/>
		</g>
		<g>
			<path style="fill:#B2B1B1;" d="M6.4,19c0,0.4-0.3,0.7-0.9,0.7c-0.3,0-0.6-0.1-0.8-0.2l0.2-0.4c0.2,0.1,0.4,0.2,0.6,0.2
				c0.2,0,0.4-0.1,0.4-0.3c0-0.2-0.1-0.3-0.4-0.3H5.3v-0.3L5.7,18H4.8v-0.4h1.5v0.3l-0.5,0.5C6.2,18.5,6.4,18.7,6.4,19z"/>
		</g>
	</g>
	<polygon style="fill:none;stroke:#AD5E7A;stroke-width:0.5;stroke-miterlimit:10;" points="0.2,0.5 0.2,26.5 0.2,26.8 0.5,26.8 
		26.5,26.8 26.8,26.8 26.8,26.5 26.8,0.5 26.8,0.3 26.5,0.3 0.5,0.3 0.2,0.3 	"/>
</g>
<polygon style="fill:none;stroke:#B2B2B2;stroke-width:0.5;stroke-miterlimit:10;" points="-61.6,0.5 -61.6,26.5 -61.6,26.8 
	-61.3,26.8 -35.3,26.8 -35.1,26.8 -35.1,26.5 -35.1,0.5 -35.1,0.3 -35.3,0.3 -61.3,0.3 -61.6,0.3 "/>
<g>
	<polygon style="fill:none;stroke:#B2B2B2;stroke-width:0.5;stroke-miterlimit:10;" points="-31.2,0.5 -31.2,26.5 -31.2,26.8 
		-31,26.8 -5,26.8 -4.7,26.8 -4.7,26.5 -4.7,0.5 -4.7,0.3 -5,0.3 -31,0.3 -31.2,0.3 	"/>
	<path style="fill:none;stroke:#B2B1B1;stroke-width:0.3;stroke-miterlimit:10;" d="M-9.7,18.6h-13 M-9.7,13.5h-13 M-9.7,8.4h-13"/>
	<path style="fill:#B2B1B1;" d="M-24.8,14.1c0.2-0.2,0.2-0.3,0.2-0.6c0-0.1,0-0.3-0.1-0.4c-0.1-0.1-0.2-0.2-0.3-0.3
		c-0.1-0.1-0.3-0.1-0.4-0.1c-0.1,0-0.3,0-0.4,0.1s-0.2,0.2-0.3,0.3c-0.1,0.1-0.1,0.3-0.1,0.4c0,0.2,0.1,0.4,0.2,0.6
		c0.2,0.2,0.4,0.2,0.6,0.2C-25.2,14.3-25,14.2-24.8,14.1"/>
	<path style="fill:#B2B1B1;" d="M-25.4,9.4c0.5,0,0.9-0.4,0.9-0.9c0-0.5-0.4-0.9-0.9-0.9c-0.5,0-0.9,0.4-0.9,0.9
		C-26.3,9-25.9,9.4-25.4,9.4"/>
	<path style="fill:#B2B1B1;" d="M-24.8,19.1c0.2-0.2,0.2-0.3,0.2-0.6c0-0.1,0-0.3-0.1-0.4c-0.1-0.1-0.2-0.2-0.3-0.3
		c-0.1-0.1-0.3-0.1-0.4-0.1c-0.1,0-0.3,0-0.4,0.1s-0.2,0.2-0.3,0.3c-0.1,0.1-0.1,0.3-0.1,0.4c0,0.2,0.1,0.4,0.2,0.6
		c0.2,0.2,0.4,0.2,0.6,0.2C-25.2,19.3-25,19.3-24.8,19.1"/>
</g>
<path style="fill:none;stroke:#B2B1B1;stroke-width:0.3;stroke-miterlimit:10;" d="M-40.1,18.6h-13 M-40.1,13.5h-13 M-40.1,8.4h-13"
	/>
<rect x="-56.6" y="7.6" style="fill:#B2B1B1;" width="1.8" height="1.8"/>
<rect x="-56.6" y="12.6" style="fill:#B2B1B1;" width="1.8" height="1.8"/>
<rect x="-56.6" y="17.6" style="fill:#B2B1B1;" width="1.8" height="1.8"/>
<rect x="281.9" y="-67.3" style="fill:#F8F8F8;" width="245" height="57.8"/>
<text transform="matrix(1 0 0 1 356.6046 -41.0939)" style="fill:#B2B1B1; font-family:'Montserrat-Regular'; font-size:13px;">N</text>
<text transform="matrix(1 0 0 1 367.0826 -41.0939)" style="fill:#B2B1B1; font-family:'Montserrat-Regular'; font-size:13px;">e</text>
<text transform="matrix(1 0 0 1 374.7396 -41.0939)" style="fill:#B2B1B1; font-family:'Montserrat-Regular'; font-size:13px;">u</text>
<text transform="matrix(1 0 0 1 383.3576 -41.0939)" style="fill:#B2B1B1; font-family:'Montserrat-Regular'; font-size:13px;">e </text>
<text transform="matrix(1 0 0 1 394.6156 -41.0939)" style="fill:#B2B1B1; font-family:'Montserrat-Regular'; font-size:13px;">T</text>
<text transform="matrix(1 0 0 1 400.9856 -41.0939)" style="fill:#B2B1B1; font-family:'Montserrat-Regular'; font-size:13px;">e</text>
<text transform="matrix(1 0 0 1 408.4866 -41.0939)" style="fill:#B2B1B1; font-family:'Montserrat-Regular'; font-size:13px;">x</text>
<text transform="matrix(1 0 0 1 415.7016 -41.0939)" style="fill:#B2B1B1; font-family:'Montserrat-Regular'; font-size:13px;">t</text>
<text transform="matrix(1 0 0 1 420.7326 -41.0939)" style="fill:#B2B1B1; font-family:'Montserrat-Regular'; font-size:13px;">b</text>
<text transform="matrix(1 0 0 1 429.5466 -41.0939)" style="fill:#B2B1B1; font-family:'Montserrat-Regular'; font-size:13px;">o</text>
<text transform="matrix(1 0 0 1 437.3466 -41.0939)" style="fill:#B2B1B1; font-family:'Montserrat-Regular'; font-size:13px;">x </text>
<path style="fill:none;stroke:#B2B1B1;stroke-width:0.5;" d="M404.4-19.3c3.7,0,6.7-3,6.7-6.7c0-3.7-3-6.7-6.7-6.7s-6.7,3-6.7,6.7
	C397.7-22.3,400.7-19.3,404.4-19.3z"/>
<rect x="281.9" y="-67.3" style="fill:none;" width="245" height="57.8"/>
<line style="fill:none;stroke:#B2B1B1;stroke-width:1.2;" x1="404.4" y1="-29.6" x2="404.4" y2="-22.5"/>
<line style="fill:none;stroke:#B2B1B1;stroke-width:1.2;" x1="400.9" y1="-26" x2="407.9" y2="-26"/>
<path style="fill:none;stroke:#B2B1B1;stroke-width:0.5;" d="M293.4,20.5c3.7,0,6.7-3,6.7-6.7c0-3.7-3-6.7-6.7-6.7s-6.7,3-6.7,6.7
	C286.7,17.5,289.7,20.5,293.4,20.5z"/>
<line style="fill:none;stroke:#B2B1B1;stroke-width:1.2;" x1="293.4" y1="10.3" x2="293.4" y2="17.3"/>
<line style="fill:none;stroke:#B2B1B1;stroke-width:1.2;" x1="289.9" y1="13.8" x2="297" y2="13.8"/>
<g>
	<path style="fill:#B2B2B2;" d="M-202.4,35.6h-3.1v-1.8h8.5v1.8h-3.1v8h-2.3L-202.4,35.6L-202.4,35.6z"/>
	<path style="fill:#B2B2B2;" d="M-195.8,33.8h2.3v9.8h-2.3V33.8z"/>
	<path style="fill:#B2B2B2;" d="M-182.7,37.3c0,2.2-1.6,3.5-4.3,3.5h-2v2.7h-2.3v-9.8h4.2C-184.4,33.8-182.7,35.2-182.7,37.3z
		 M-185,37.3c0-1.1-0.7-1.7-2.1-1.7h-1.8V39h1.8C-185.7,39-185,38.4-185,37.3z"/>
	<path style="fill:#B2B2B2;" d="M-172.6,37.3c0,2.2-1.6,3.5-4.3,3.5h-2v2.7h-2.3v-9.8h4.2C-174.2,33.8-172.6,35.2-172.6,37.3z
		 M-174.9,37.3c0-1.1-0.7-1.7-2.1-1.7h-1.8V39h1.8C-175.6,39-174.9,38.4-174.9,37.3z"/>
</g>
<path style="fill:#B2B2B2;" d="M-239.1,29.3L-239.1,29.3c-1.1,2.5-2,4.6-2.9,6.8h5.7C-237.2,33.8-238.1,31.7-239.1,29.3
	 M-235.6,46.9L-235.6,46.9c-0.3-1.2-0.2-1.8,1-1.8c1,0,1.3-0.7,1-1.6c-0.5-1.4-1.1-2.8-1.7-4.2c-0.1-0.2-0.6-0.5-0.8-0.5
	c-2.1,0-4.3,0-6.4,0c-0.3,0-0.7,0.3-0.9,0.6c-0.6,1.2-1.1,2.3-1.5,3.5c-0.6,1.5-0.3,2,1.3,2.2c0.8,0.1,1.2,0.3,1,1.1
	c-0.1,0.2-0.4,0.6-0.5,0.6c-2.5,0-5,0-7.6,0c-0.2-1-0.3-1.6,0.9-1.9c0.6-0.1,1.2-0.6,1.5-1.1c0.8-1.3,1.4-2.7,2-4
	c2.4-5.6,4.8-11.1,7.2-16.7c0.2-0.4,0.6-0.7,1-1c0.3,0.3,0.8,0.6,0.9,1c2.6,6,5.1,12.1,7.6,18.2c0.3,0.8,0.7,1.5,1.1,2.3
	c0.5,0.9,1.3,1.4,2.4,1.6c0.3,0.1,0.5,0.6,0.6,1c0,0.2-0.4,0.6-0.6,0.6C-229.2,46.9-232.4,46.9-235.6,46.9"/>
<path style="fill:#B2B1B1;" d="M-141.8,39.4c2.7,0,4.8-2,4.8-4.6c0-2.4-2.2-4.4-4.7-4.4c-2.7,0-4.8,2-4.8,4.6
	C-146.6,37.4-144.5,39.4-141.8,39.4 M-136.3,39.4L-136.3,39.4c0.4-0.2,0.6-0.2,0.9,0.1c1.2,1.2,2.5,2.4,3.8,3.5
	c0.1,0.1,0.2,0.2,0.3,0.2c0.2,0.2,0.2,0.5,0,0.7c-0.2,0.2-0.5,0.5-0.8,0.7c-0.3,0.3-0.5,0.3-0.9,0c-1.2-1.1-2.3-2.2-3.5-3.3
	c-0.1-0.1-0.3-0.2-0.4-0.4c-0.4-0.3-0.4-0.5-0.2-0.9c-0.4-0.3-0.7-0.7-1.1-1c-1.5,1.1-3.2,1.5-5,1.1c-1.4-0.3-2.5-1.1-3.4-2.2
	c-1.6-2.2-1.3-5.3,0.8-7.1c2.2-1.9,5.5-1.9,7.7-0.1c2.2,1.8,2.8,5.1,0.7,7.6C-137,38.7-136.7,39-136.3,39.4"/>
<path style="fill:none;stroke:#FFFFFF;stroke-width:1.000000e-03;" d="M-141.8,39.4c2.7,0,4.8-2,4.8-4.6c0-2.4-2.2-4.4-4.7-4.4
	c-2.7,0-4.8,2-4.8,4.6C-146.6,37.4-144.5,39.4-141.8,39.4z M-136.3,39.4L-136.3,39.4c0.4-0.2,0.6-0.2,0.9,0.1
	c1.2,1.2,2.5,2.4,3.8,3.5c0.1,0.1,0.2,0.2,0.3,0.2c0.2,0.2,0.2,0.5,0,0.7c-0.2,0.2-0.5,0.5-0.8,0.7c-0.3,0.3-0.5,0.3-0.9,0
	c-1.2-1.1-2.3-2.2-3.5-3.3c-0.1-0.1-0.3-0.2-0.4-0.4c-0.4-0.3-0.4-0.5-0.2-0.9c-0.4-0.3-0.7-0.7-1.1-1c-1.5,1.1-3.2,1.5-5,1.1
	c-1.4-0.3-2.5-1.1-3.4-2.2c-1.6-2.2-1.3-5.3,0.8-7.1c2.2-1.9,5.5-1.9,7.7-0.1c2.2,1.8,2.8,5.1,0.7,7.6
	C-137,38.7-136.7,39-136.3,39.4z"/>
<path style="fill:#B2B1B1;" d="M-78.1,29.8l3,3V30c0-0.1-0.1-0.2-0.1-0.3l-3.8-3.8c-0.1-0.1-0.2-0.1-0.2,0l-3.9,3.9v2.8
	c0,0.1,0.1,0.1,0.1,0.1l2.8-2.9c0.1-0.1,0.1,0,0.1,0v7.8l0,0v2.2c0,0.1-0.1,0.1-0.1,0l-3-3v2.8c0,0.1,0.1,0.2,0.1,0.3l3.8,3.8
	c0.1,0.1,0.2,0.1,0.2,0l3.9-3.9v-2.8c0-0.1-0.1-0.1-0.1-0.1l-2.8,2.9c-0.1,0.1-0.1,0-0.1,0V32l0,0v-2.2
	C-78.2,29.7-78.2,29.7-78.1,29.8z"/>
<line style="fill:none;stroke:#B2B1B1;stroke-width:1.712;" x1="-114.3" y1="43" x2="-86.4" y2="43"/>
<line style="fill:none;stroke:#B2B1B1;stroke-width:1.712;" x1="-114.3" y1="34.7" x2="-86.4" y2="34.7"/>
<line style="fill:none;stroke:#B2B1B1;stroke-width:1.712;" x1="-114.3" y1="26.7" x2="-86.4" y2="26.7"/>
<line style="fill:none;stroke:#B2B1B1;stroke-width:1.712;" x1="-99.9" y1="62" x2="-99.9" y2="83"/>
<path style="fill:#B2B1B1;" d="M-92.5,75.8L-92.5,75.8h2.7l-2.6-2.6c-0.1-0.1-0.1-0.2,0.1-0.2h7v-1.4c0-0.2-0.2-0.3-0.3-0.3h-6.7
	c-0.2,0-0.2-0.1-0.1-0.2l2.6-2.6h-2.3c-0.2,0-0.5,0.1-0.6,0.2l-3.2,3.2c-0.1,0.1-0.1,0.4,0,0.5L-92.5,75.8z"/>
<path style="fill:#B2B1B1;" d="M-108.2,68.6L-108.2,68.6h-2.7l2.6,2.6c0.1,0.1,0.1,0.2-0.1,0.2h-7v1.4c0,0.2,0.2,0.3,0.3,0.3h6.7
	c0.2,0,0.2,0.1,0.1,0.2l-2.6,2.6h2.3c0.2,0,0.5-0.1,0.6-0.2l3.2-3.2c0.1-0.1,0.1-0.4,0-0.5L-108.2,68.6z"/>
<line style="fill:none;stroke:#B2B1B1;stroke-width:2;" x1="216.4" y1="-57.1" x2="180.3" y2="-57.1"/>
<path style="fill:#AD5E7A;" d="M207.9-54c2,0,3.7-1.7,3.7-3.7c0-2-1.7-3.7-3.7-3.7s-3.7,1.7-3.7,3.7C204.2-55.6,205.8-54,207.9-54"
	/>
<g>
	<path style="fill:#B2B1B1;" d="M231.1-56.9c0,3.1-1.8,4.8-4.5,4.8c-0.9,0-1.8-0.2-2.4-0.6l0.6-1.3c0.5,0.3,1.1,0.4,1.7,0.4
		c1.7,0,2.8-1.1,2.8-3.1v0c-0.5,0.6-1.4,0.9-2.4,0.9c-1.8,0-3.1-1.1-3.1-2.8c0-1.8,1.5-3,3.3-3C229.6-61.4,231.1-59.8,231.1-56.9z
		 M229.1-58.6c0-0.9-0.7-1.5-1.9-1.5c-1.1,0-1.8,0.6-1.8,1.5s0.7,1.5,1.8,1.5C228.3-57,229.1-57.7,229.1-58.6z"/>
	<path style="fill:#B2B1B1;" d="M238.9-55c0,1.6-1.2,2.9-3.6,2.9c-1.3,0-2.6-0.4-3.4-1.1l0.7-1.3c0.7,0.5,1.7,0.9,2.7,0.9
		c1.2,0,1.9-0.5,1.9-1.4c0-0.9-0.6-1.4-2.4-1.4h-2.2l0.5-5h5.3v1.4h-3.9l-0.2,2.1h0.9C237.8-57.8,238.9-56.6,238.9-55z"/>
	<path style="fill:#B2B1B1;" d="M243.3-58.9c0-1.5,0.9-2.5,2.2-2.5s2.2,1,2.2,2.5s-0.9,2.5-2.2,2.5S243.3-57.4,243.3-58.9z
		 M246.6-58.9c0-1-0.4-1.6-1.1-1.6c-0.7,0-1.1,0.6-1.1,1.6s0.4,1.6,1.1,1.6C246.2-57.3,246.6-57.9,246.6-58.9z M251-61.3h1.3
		l-6.2,9.1h-1.3L251-61.3z M249.3-54.6c0-1.5,0.9-2.5,2.2-2.5s2.2,1,2.2,2.5s-0.9,2.5-2.2,2.5S249.3-53.1,249.3-54.6z M252.6-54.6
		c0-1-0.4-1.6-1.1-1.6s-1.1,0.6-1.1,1.6c0,1,0.4,1.6,1.1,1.6S252.6-53.6,252.6-54.6z"/>
</g>
<rect x="194.3" y="-3" style="fill:#FFFFFF;" width="13.1" height="16.8"/>
<polygon style="fill:none;stroke:#B2B1B1;stroke-width:0.941;" points="194.3,13.8 194.3,13.8 207.5,13.8 207.5,-3 194.3,-3 "/>
<rect x="186.6" y="-3.4" style="fill:none;" width="21.3" height="24"/>
<line style="fill:none;stroke:#B2B1B1;stroke-width:0.941;stroke-dasharray:1.889,1.889;" x1="191.1" y1="4.7" x2="191.1" y2="15.1"/>
<line style="fill:none;stroke:#B2B1B1;stroke-width:0.941;stroke-dasharray:1.754,1.754;" x1="193.8" y1="17" x2="203.4" y2="17"/>
<path style="fill:none;stroke:#B2B1B1;stroke-width:0.941;" d="M204.3,17h0.9 M191.1,16.1V17h0.9 M191.1,1.9v0.9"/>
<polyline style="fill:none;stroke:#B2B1B1;stroke-width:0.941;" points="187.1,5 187.1,20.1 201.1,20.1 "/>
<rect x="186.6" y="-3.4" style="fill:none;" width="21.3" height="24"/>
<rect x="225.9" y="-3" style="fill:#FFFFFF;" width="14.7" height="18.7"/>
<polygon style="fill:none;stroke:#B2B1B1;stroke-width:0.804;" points="225.9,15.7 225.9,15.7 240.6,15.7 240.6,-3 225.9,-3 "/>
<rect x="225.5" y="-3.4" style="fill:none;" width="19.9" height="24"/>
<rect x="230.3" y="1.5" style="fill:#B2B1B1;" width="14.7" height="18.7"/>
<polygon style="fill:none;stroke:#FFFFFF;stroke-width:0.804;" points="230.3,20.2 230.3,20.2 245,20.2 245,1.5 230.3,1.5 "/>
<rect x="225.5" y="-3.4" style="fill:none;" width="19.9" height="24"/>
<rect x="127" y="0.5" style="fill:#0E6899;" width="34.9" height="19.6"/>
<text transform="matrix(1 0 0 1 133.9856 15.1576)" style="fill:#FFFFFF; font-family:'Montserrat-Regular'; font-size:13px;">e</text>
<text transform="matrix(1 0 0 1 141.3956 15.1576)" style="fill:#FFFFFF; font-family:'Montserrat-Regular'; font-size:13px;">i</text>
<text transform="matrix(1 0 0 1 144.3206 15.1576)" style="fill:#FFFFFF; font-family:'Montserrat-Regular'; font-size:13px;">n</text>
<polygon style="fill:none;stroke:#B2B2B2;stroke-width:0.5;stroke-miterlimit:10;" points="92,0.4 92,20.4 92,20.6 92.2,20.6 
	161.1,20.6 161.3,20.6 161.3,20.4 161.3,0.4 161.3,0.1 161.1,0.1 92.2,0.1 92,0.1 "/>
<rect x="91.7" y="-0.1" style="fill:none;" width="70.2" height="21"/>
<line style="fill:none;stroke:#B2B1B1;stroke-width:2.5;" x1="233" y1="90" x2="233" y2="114.3"/>
<path style="fill:#B2B1B1;" d="M241.1,105.8L241.1,105.8h2.6l-2.5-2.5c-0.1-0.1-0.1-0.2,0.1-0.2h6.7v-1.3c0-0.2-0.2-0.3-0.4-0.3H241
	l2.7-2.7h-2.2c-0.2,0-0.5,0.1-0.6,0.2l-3.1,3.1c-0.1,0.1-0.1,0.4,0,0.5L241.1,105.8z"/>
<line style="fill:none;stroke:#B2B1B1;stroke-width:2.5;" x1="206.1" y1="114.1" x2="206.1" y2="89.9"/>
<path style="fill:#B2B1B1;" d="M198,98.3L198,98.3h-2.6l2.5,2.5c0.1,0.1,0.1,0.2-0.1,0.2h-6.7v1.3c0,0.2,0.2,0.3,0.4,0.3h6.7
	l-2.7,2.7h2.2c0.2,0,0.5-0.1,0.6-0.2l3.1-3.1c0.1-0.1,0.1-0.4,0-0.5L198,98.3z"/>
<line style="fill:none;stroke:#B2B1B1;stroke-width:2.5;" x1="16.4" y1="97.9" x2="40.6" y2="97.9"/>
<path style="fill:#B2B1B1;" d="M32,89.8L32,89.8v-2.6l-2.5,2.5c-0.1,0.1-0.2,0.1-0.2-0.1v-6.7H28c-0.2,0-0.4,0.2-0.4,0.3V90
	l-2.7-2.7v2.2c0,0.2,0.1,0.5,0.2,0.6l3.1,3.1c0.1,0.1,0.4,0.1,0.5,0L32,89.8z"/>
<path style="fill:#B2B1B1;" d="M25.1,105L25.1,105v2.6l2.5-2.5c0.1-0.1,0.2-0.1,0.2,0.1v6.7h1.3c0.2,0,0.4-0.2,0.4-0.3v-6.7l2.7,2.7
	v-2.2c0-0.2-0.1-0.5-0.2-0.6l-3.1-3.1c-0.1-0.1-0.4-0.1-0.5,0L25.1,105z"/>
<line style="fill:none;stroke:#B2B1B1;stroke-width:2.5;" x1="72.8" y1="110.7" x2="72.8" y2="86.4"/>
<path style="fill:#B2B1B1;" d="M64.7,95.1L64.7,95.1h-2.6l2.5,2.5c0.1,0.1,0.1,0.2-0.1,0.2h-6.7v1.3c0,0.2,0.2,0.3,0.3,0.3h6.7
	l-2.7,2.7h2.2c0.2,0,0.5-0.1,0.6-0.2l3.1-3.1c0.1-0.1,0.1-0.4,0-0.5L64.7,95.1z"/>
<path style="fill:#B2B1B1;" d="M79.9,102L79.9,102h2.6L80,99.5c-0.1-0.1-0.1-0.2,0.1-0.2h6.7v-1.3c0-0.2-0.2-0.3-0.3-0.3h-6.7
	l2.7-2.7h-2.2c-0.2,0-0.5,0.1-0.6,0.2l-3.1,3.1c-0.1,0.1-0.1,0.4,0,0.5L79.9,102z"/>
<line style="fill:none;stroke:#B2B1B1;stroke-width:2.5;" x1="104.9" y1="98.2" x2="129.2" y2="98.2"/>
<path style="fill:#B2B1B1;" d="M113.7,105.3L113.7,105.3v2.6l2.5-2.5c0.1-0.1,0.2-0.1,0.2,0.1v6.7h1.3c0.2,0,0.3-0.2,0.3-0.3v-6.7
	l2.7,2.7v-2.2c0-0.2-0.1-0.5-0.2-0.6l-3.1-3.1c-0.1-0.1-0.4-0.1-0.5,0L113.7,105.3z"/>
<line style="fill:none;stroke:#B2B1B1;stroke-width:2.5;" x1="150.1" y1="109.4" x2="174.3" y2="109.4"/>
<path style="fill:#B2B1B1;" d="M165.9,101L165.9,101v-2.6l-2.5,2.5c-0.1,0.1-0.2,0.1-0.2-0.1v-6.7h-1.3c-0.2,0-0.4,0.2-0.4,0.3v6.7
	l-2.7-2.7v2.2c0,0.2,0.1,0.5,0.2,0.6l3.1,3.1c0.1,0.1,0.4,0.1,0.5,0L165.9,101z"/>
<rect x="295.9" y="82.5" style="fill:#FFFFFF;" width="15.8" height="20.1"/>
<line style="fill:none;stroke:#B2B1B1;stroke-width:0.941;stroke-dasharray:1.971,1.971;" x1="298.9" y1="102.6" x2="309.7" y2="102.6"/>
<line style="fill:none;stroke:#B2B1B1;stroke-width:0.941;stroke-dasharray:2.006,2.006;" x1="311.7" y1="99.6" x2="311.7" y2="84.5"/>
<line style="fill:none;stroke:#B2B1B1;stroke-width:0.941;stroke-dasharray:1.971,1.971;" x1="308.7" y1="82.5" x2="297.9" y2="82.5"/>
<line style="fill:none;stroke:#B2B1B1;stroke-width:0.941;stroke-dasharray:2.006,2.006;" x1="295.9" y1="85.5" x2="295.9" y2="100.6"/>
<path style="fill:none;stroke:#B2B1B1;stroke-width:0.941;" d="M295.9,101.6v1h1 M296.9,82.5h-1v1 M311.7,83.5v-1h-1 M310.7,102.6h1
	v-1"/>
<polygon style="fill:#FFFFFF;" points="284.7,112.6 284.7,112.6 300.5,112.6 300.5,92.5 284.7,92.5 "/>
<line style="fill:none;stroke:#B2B1B1;stroke-width:0.941;stroke-dasharray:1.971,1.971;" x1="287.6" y1="112.6" x2="298.5" y2="112.6"/>
<line style="fill:none;stroke:#B2B1B1;stroke-width:0.941;stroke-dasharray:2.006,2.006;" x1="300.5" y1="109.6" x2="300.5" y2="94.5"/>
<line style="fill:none;stroke:#B2B1B1;stroke-width:0.941;stroke-dasharray:1.971,1.971;" x1="297.5" y1="92.5" x2="286.7" y2="92.5"/>
<line style="fill:none;stroke:#B2B1B1;stroke-width:0.941;stroke-dasharray:2.006,2.006;" x1="284.7" y1="95.5" x2="284.7" y2="110.6"/>
<path style="fill:none;stroke:#B2B1B1;stroke-width:0.941;" d="M284.7,111.6v1h1 M285.7,92.5h-1v1 M300.4,93.5v-1h-1 M299.5,112.6h1
	v-1"/>
<polygon style="fill:#FFFFFF;" points="275.2,120.6 275.2,120.6 291,120.6 291,100.5 275.2,100.5 "/>
<polygon style="fill:none;stroke:#B2B1B1;stroke-width:0.941;" points="275.2,120.6 275.2,120.6 291,120.6 291,100.5 275.2,100.5 
	"/>
<g>
	<polygon style="fill:#FFFFFF;" points="349,106.9 349,106.9 364.8,106.9 364.8,86.8 349,86.8 	"/>
	<polygon style="fill:none;stroke:#B2B1B1;stroke-width:0.941;" points="349,106.9 349,106.9 364.8,106.9 364.8,86.8 349,86.8 	"/>
	
		<line style="fill:none;stroke:#B2B1B1;stroke-width:0.941;stroke-dasharray:1.801,1.801;" x1="345.3" y1="95.4" x2="345.3" y2="108.9"/>
	
		<line style="fill:none;stroke:#B2B1B1;stroke-width:0.941;stroke-dasharray:2.091,2.091;" x1="348.4" y1="110.7" x2="359.9" y2="110.7"/>
	<path style="fill:none;stroke:#B2B1B1;stroke-width:0.941;" d="M361,110.7h1 M345.3,109.8v0.9h1 M345.3,92.7v0.9"/>
</g>
<g>
	<g>
		<rect x="421.6" y="75.1" style="fill:#FFFFFF;" width="15.8" height="20.1"/>
		<polygon style="fill:none;stroke:#B2B1B1;stroke-width:0.941;" points="421.6,95.1 421.6,95.1 437.4,95.1 437.4,75.1 421.6,75.1 
					"/>
		<polygon style="fill:#FFFFFF;" points="410.3,105.1 410.3,105.1 426.1,105.1 426.1,85.1 410.3,85.1 		"/>
		
			<line style="fill:none;stroke:#B2B1B1;stroke-width:0.941;stroke-dasharray:1.971,1.971;" x1="413.3" y1="105.1" x2="424.1" y2="105.1"/>
		
			<line style="fill:none;stroke:#B2B1B1;stroke-width:0.941;stroke-dasharray:2.006,2.006;" x1="426.1" y1="102.1" x2="426.1" y2="87.1"/>
		
			<line style="fill:none;stroke:#B2B1B1;stroke-width:0.941;stroke-dasharray:1.971,1.971;" x1="423.2" y1="85.1" x2="412.3" y2="85.1"/>
		
			<line style="fill:none;stroke:#B2B1B1;stroke-width:0.941;stroke-dasharray:2.006,2.006;" x1="410.3" y1="88.1" x2="410.3" y2="103.1"/>
		<path style="fill:none;stroke:#B2B1B1;stroke-width:0.941;" d="M410.3,104.1v1h1 M411.3,85.1h-1v1 M426.1,86.1v-1h-1 M425.1,105.1
			h1v-1"/>
		<polygon style="fill:#FFFFFF;" points="400.9,113.1 400.9,113.1 416.6,113.1 416.6,93.1 400.9,93.1 		"/>
		
			<line style="fill:none;stroke:#B2B1B1;stroke-width:0.941;stroke-dasharray:1.971,1.971;" x1="403.8" y1="113.1" x2="414.7" y2="113.1"/>
		
			<line style="fill:none;stroke:#B2B1B1;stroke-width:0.941;stroke-dasharray:2.006,2.006;" x1="416.6" y1="110.1" x2="416.6" y2="95.1"/>
		
			<line style="fill:none;stroke:#B2B1B1;stroke-width:0.941;stroke-dasharray:1.971,1.971;" x1="413.7" y1="93.1" x2="402.8" y2="93.1"/>
		
			<line style="fill:none;stroke:#B2B1B1;stroke-width:0.941;stroke-dasharray:2.006,2.006;" x1="400.9" y1="96.1" x2="400.9" y2="111.1"/>
		<path style="fill:none;stroke:#B2B1B1;stroke-width:0.941;" d="M400.9,112.1v1h1 M401.9,93.1h-1v1 M416.6,94.1v-1h-1 M415.7,113.1
			h1v-1"/>
	</g>
	
		<line style="fill:none;stroke:#B2B1B1;stroke-width:0.941;stroke-dasharray:1.971,1.971;" x1="477" y1="108.6" x2="487.8" y2="108.6"/>
	
		<line style="fill:none;stroke:#B2B1B1;stroke-width:0.941;stroke-dasharray:2.006,2.006;" x1="489.8" y1="105.6" x2="489.8" y2="90.6"/>
	
		<line style="fill:none;stroke:#B2B1B1;stroke-width:0.941;stroke-dasharray:1.971,1.971;" x1="486.9" y1="88.6" x2="476" y2="88.6"/>
	
		<line style="fill:none;stroke:#B2B1B1;stroke-width:0.941;stroke-dasharray:2.006,2.006;" x1="474" y1="91.6" x2="474" y2="106.6"/>
	<path style="fill:none;stroke:#B2B1B1;stroke-width:0.941;" d="M474,107.6v1h1 M475,88.6h-1v1 M489.8,89.6v-1h-1 M488.8,108.6h1v-1
		"/>
	<polyline style="fill:none;stroke:#B2B1B1;stroke-width:0.941;" points="470.3,94.4 470.3,112.4 487,112.4 	"/>
</g>
<g>
	<g>
		<defs>
			<rect id="SVGID_1_" x="-285" y="202.5" width="241.7" height="1"/>
		</defs>
		<clipPath id="SVGID_00000182513331556930778040000015859172848545973386_">
			<use xlink:href="#SVGID_1_"  style="overflow:visible;"/>
		</clipPath>
		
			<line style="clip-path:url(#SVGID_00000182513331556930778040000015859172848545973386_);fill:none;stroke:#B2B2B2;stroke-linecap:round;stroke-linejoin:round;stroke-dasharray:0,3.009;" x1="-281.5" y1="203" x2="-45.3" y2="203"/>
	</g>
	<g>
		<defs>
			<rect id="SVGID_00000123434453505452393420000005992274679311099812_" x="-285" y="202.5" width="241.7" height="1"/>
		</defs>
		<clipPath id="SVGID_00000035508575509692625190000002407127543440419747_">
			<use xlink:href="#SVGID_00000123434453505452393420000005992274679311099812_"  style="overflow:visible;"/>
		</clipPath>
		
			<path style="clip-path:url(#SVGID_00000035508575509692625190000002407127543440419747_);fill:none;stroke:#B2B2B2;stroke-linecap:round;stroke-linejoin:round;" d="
			M-43.8,203L-43.8,203 M-284.5,203L-284.5,203"/>
	</g>
</g>
<circle style="fill:none;stroke:#4F4D4D;stroke-width:0.5;" cx="-238.1" cy="-18.2" r="12.8"/>
<polygon style="fill:#0E689A;" points="-94.7,-33.3 -107.7,-33.3 -101.3,-22.8 "/>
<polygon style="fill:#B2B1B1;" points="-86.7,95.3 -97.2,101.6 -86.7,108.3 "/>
<polygon style="fill:#B2B1B1;" points="-115.7,108.3 -105.3,101.9 -115.7,95.3 "/>
<polygon style="fill:#B2B1B1;" points="-33.2,95.3 -43.7,101.6 -33.2,108.3 "/>
<polygon style="fill:#B2B1B1;" points="-68.4,108.3 -57.9,101.9 -68.4,95.3 "/>
<rect x="91.9" y="-33.3" style="fill:#0E6899;" width="34.9" height="19.6"/>
<polygon style="fill:none;stroke:#B2B2B2;stroke-width:0.5;stroke-miterlimit:10;" points="92.1,-33.4 92.1,-13.4 92.1,-13.1 
	92.4,-13.1 161.2,-13.1 161.5,-13.1 161.5,-13.4 161.5,-33.4 161.5,-33.6 161.2,-33.6 92.4,-33.6 92.1,-33.6 "/>
<rect x="91.9" y="-33.9" style="fill:none;" width="69.8" height="21"/>
<rect x="127.3" y="32.8" style="fill:#0E6899;" width="34.9" height="19.6"/>
<polygon style="fill:none;stroke:#B2B2B2;stroke-width:0.5;stroke-miterlimit:10;" points="92.2,32.6 92.2,52.6 92.2,52.9 
	92.5,52.9 161.3,52.9 161.6,52.9 161.6,52.6 161.6,32.6 161.6,32.4 161.3,32.4 92.5,32.4 92.2,32.4 "/>
<rect x="92" y="32.1" style="fill:none;" width="70.2" height="21"/>
<line style="fill:none;stroke:#B2B1B1;stroke-width:2;" x1="215.3" y1="-37.3" x2="179.3" y2="-37.3"/>
<path style="fill:#AD5E7A;" d="M206.8-34.2c2,0,3.7-1.7,3.7-3.7c0-2-1.7-3.7-3.7-3.7s-3.7,1.7-3.7,3.7S204.7-34.2,206.8-34.2"/>
<line style="fill:none;stroke:#B2B1B1;stroke-width:2;" x1="523.6" y1="-6.5" x2="487.6" y2="-6.5"/>
<path style="fill:#AD5E7A;" d="M515.1-3.4c2,0,3.7-1.7,3.7-3.7s-1.7-3.7-3.7-3.7s-3.7,1.7-3.7,3.7S513.1-3.4,515.1-3.4"/>
</svg>
