<?xml version="1.0" encoding="utf-8"?>
<!-- Generator: Adobe Illustrator 26.5.0, SVG Export Plug-In . SVG Version: 6.00 Build 0)  -->
<svg version="1.1" id="Ebene_1" xmlns="http://www.w3.org/2000/svg" xmlns:xlink="http://www.w3.org/1999/xlink" x="0px" y="0px"
	 width="27px" height="27px" viewBox="0 0 27 27" style="enable-background:new 0 0 27 27;" xml:space="preserve">
<polyline style="fill:none;stroke:#C5C5C5;stroke-width:3;stroke-linecap:round;stroke-linejoin:round;" points="1815.9,975.3 
	1809.6,966.3 1802.9,975.3 "/>
<circle style="fill:#FFAEFF;stroke:#4F4D4D;stroke-width:0.5;" cx="-176" cy="12.5" r="12.8"/>
<rect x="-143.6" y="1.5" style="fill:#F8F8F8;" width="119.9" height="21"/>
<polygon style="fill:#0E689A;" points="-32.7,6.8 -45.7,6.8 -39.4,17.2 "/>
<g>
	<path style="fill:#B2B1B1;" d="M50.8,8.9h1.3L50.3,18H49L50.8,8.9z"/>
</g>
<g>
	<line style="fill:none;stroke:#B2B1B1;stroke-width:0.65;stroke-miterlimit:10;" x1="80.3" y1="19" x2="90.6" y2="19"/>
	<g>
		<path style="fill:#B2B1B1;" d="M81.6,13.8V8.6h1.3v5.1c0,2,0.9,2.9,2.6,2.9s2.6-0.9,2.6-2.9V8.6h1.3v5.2c0,2.6-1.4,4-3.8,4
			C83,17.8,81.6,16.4,81.6,13.8z"/>
	</g>
</g>
<polygon style="fill:none;stroke:#B2B2B2;stroke-width:0.5;stroke-miterlimit:10;" points="72.2,0.8 72.2,26.8 72.2,27.1 72.4,27.1 
	98.4,27.1 98.7,27.1 98.7,26.8 98.7,0.8 98.7,0.6 98.4,0.6 72.4,0.6 72.2,0.6 "/>
<polygon style="fill:none;stroke:#B2B2B2;stroke-width:0.5;stroke-miterlimit:10;" points="37.3,0.4 37.3,26.4 37.3,26.7 37.6,26.7 
	63.6,26.7 63.8,26.7 63.8,26.4 63.8,0.4 63.8,0.2 63.6,0.2 37.6,0.2 37.3,0.2 "/>
<g>
	<g>
		<path style="fill:#B2B1B1;" d="M17.7,15.6c0,1.6-1.2,2.5-3.6,2.5H9.3V9h4.4c2.3,0,3.4,0.9,3.4,2.4c0,0.9-0.5,1.6-1.2,2
			C17,13.6,17.7,14.4,17.7,15.6z M11.4,10.5v2.1h2.1c1,0,1.6-0.4,1.6-1.1s-0.6-1.1-1.6-1.1L11.4,10.5L11.4,10.5z M15.6,15.3
			c0-0.8-0.6-1.1-1.7-1.1h-2.5v2.2h2.5C15,16.5,15.6,16.1,15.6,15.3z"/>
	</g>
	<polygon style="fill:none;stroke:#AD5E7A;stroke-width:0.5;stroke-miterlimit:10;" points="0.2,0.5 0.2,26.5 0.2,26.8 0.5,26.8 
		26.5,26.8 26.8,26.8 26.8,26.5 26.8,0.5 26.8,0.3 26.5,0.3 0.5,0.3 0.2,0.3 	"/>
</g>
<path style="fill:none;stroke:#B2B1B1;stroke-width:0.3;stroke-miterlimit:10;" d="M54.4,42.5"/>
<path style="fill:none;stroke:#B2B1B1;stroke-width:0.3;stroke-miterlimit:10;" d="M51.9,43.7"/>
<path style="fill:none;stroke:#B2B1B1;stroke-width:0.3;stroke-miterlimit:10;" d="M51.9,45"/>
<path style="fill:none;stroke:#B2B1B1;stroke-width:0.3;stroke-miterlimit:10;" d="M51.9,46.2"/>
<path style="fill:none;stroke:#B2B1B1;stroke-width:0.3;stroke-miterlimit:10;" d="M54.4,47.5"/>
<path style="fill:none;stroke:#B2B1B1;stroke-width:0.3;stroke-miterlimit:10;" d="M54.4,48.7"/>
<path style="fill:none;stroke:#B2B1B1;stroke-width:0.3;stroke-miterlimit:10;" d="M51.9,50"/>
<path style="fill:none;stroke:#B2B1B1;stroke-width:0.3;stroke-miterlimit:10;" d="M51.9,52.5"/>
<path style="fill:none;stroke:#B2B1B1;stroke-width:0.3;stroke-miterlimit:10;" d="M54.4,55"/>
<path style="fill:none;stroke:#B2B1B1;stroke-width:0.3;stroke-miterlimit:10;" d="M35,47.5"/>
<path style="fill:none;stroke:#B2B1B1;stroke-width:0.3;stroke-miterlimit:10;" d="M35,42.5"/>
<path style="fill:none;stroke:#B2B1B1;stroke-width:0.3;stroke-miterlimit:10;" d="M35,55"/>
<path style="fill:none;stroke:#B2B1B1;stroke-width:0.3;stroke-miterlimit:10;" d="M35,48.7"/>
<g>
	<path style="fill:none;stroke:#B2B1B1;stroke-width:0.3;stroke-miterlimit:10;" d="M37,50"/>
	<path style="fill:none;stroke:#B2B1B1;stroke-width:0.3;stroke-miterlimit:10;" d="M37,46.2"/>
	<path style="fill:none;stroke:#B2B1B1;stroke-width:0.3;stroke-miterlimit:10;" d="M37,45"/>
	<path style="fill:none;stroke:#B2B1B1;stroke-width:0.3;stroke-miterlimit:10;" d="M37,43.7"/>
	<line style="fill:none;stroke:#B2B1B1;stroke-width:0.3;stroke-miterlimit:10;" x1="34.6" y1="54.2" x2="54.1" y2="54.2"/>
	<line style="fill:none;stroke:#B2B1B1;stroke-width:0.3;stroke-miterlimit:10;" x1="34.6" y1="52.9" x2="49.5" y2="52.9"/>
	<line style="fill:none;stroke:#B2B1B1;stroke-width:0.3;stroke-miterlimit:10;" x1="34.6" y1="51.6" x2="49.5" y2="51.6"/>
	<line style="fill:none;stroke:#B2B1B1;stroke-width:0.3;stroke-miterlimit:10;" x1="34.6" y1="50.4" x2="49.5" y2="50.4"/>
	<line style="fill:none;stroke:#B2B1B1;stroke-width:0.3;stroke-miterlimit:10;" x1="34.6" y1="49.1" x2="54.1" y2="49.1"/>
	<line style="fill:none;stroke:#B2B1B1;stroke-width:0.3;stroke-miterlimit:10;" x1="34.6" y1="47.8" x2="54.1" y2="47.8"/>
	<line style="fill:none;stroke:#B2B1B1;stroke-width:0.3;stroke-miterlimit:10;" x1="34.7" y1="46.5" x2="49.6" y2="46.5"/>
	<line style="fill:none;stroke:#B2B1B1;stroke-width:0.3;stroke-miterlimit:10;" x1="34.6" y1="45.3" x2="54.1" y2="45.3"/>
	<line style="fill:none;stroke:#B2B1B1;stroke-width:0.3;stroke-miterlimit:10;" x1="34.6" y1="44" x2="49.5" y2="44"/>
	<line style="fill:none;stroke:#B2B1B1;stroke-width:0.3;stroke-miterlimit:10;" x1="34.6" y1="42.7" x2="49.5" y2="42.7"/>
	<line style="fill:none;stroke:#B2B1B1;stroke-width:0.3;stroke-miterlimit:10;" x1="34.6" y1="41.4" x2="54.1" y2="41.4"/>
</g>
<polygon style="fill:none;stroke:#B2B2B2;stroke-width:0.5;stroke-miterlimit:10;" points="31.3,35.1 31.3,61.1 31.3,61.4 
	31.5,61.4 57.5,61.4 57.8,61.4 57.8,61.1 57.8,35.1 57.8,34.9 57.5,34.9 31.5,34.9 31.3,34.9 "/>
<g>
	<line style="fill:none;stroke:#B2B1B1;stroke-width:0.3;stroke-miterlimit:10;" x1="85.3" y1="41.8" x2="65.9" y2="41.8"/>
	<line style="fill:none;stroke:#B2B1B1;stroke-width:0.3;stroke-miterlimit:10;" x1="82.8" y1="43" x2="67.9" y2="43"/>
	<line style="fill:none;stroke:#B2B1B1;stroke-width:0.3;stroke-miterlimit:10;" x1="82.8" y1="44.3" x2="67.9" y2="44.3"/>
	<line style="fill:none;stroke:#B2B1B1;stroke-width:0.3;stroke-miterlimit:10;" x1="82.8" y1="45.6" x2="67.9" y2="45.6"/>
	<line style="fill:none;stroke:#B2B1B1;stroke-width:0.3;stroke-miterlimit:10;" x1="85.3" y1="46.9" x2="65.9" y2="46.9"/>
	<line style="fill:none;stroke:#B2B1B1;stroke-width:0.3;stroke-miterlimit:10;" x1="85.3" y1="48.1" x2="65.9" y2="48.1"/>
	<line style="fill:none;stroke:#B2B1B1;stroke-width:0.3;stroke-miterlimit:10;" x1="82.8" y1="49.4" x2="67.9" y2="49.4"/>
	<line style="fill:none;stroke:#B2B1B1;stroke-width:0.3;stroke-miterlimit:10;" x1="85.3" y1="50.7" x2="65.9" y2="50.7"/>
	<line style="fill:none;stroke:#B2B1B1;stroke-width:0.3;stroke-miterlimit:10;" x1="82.8" y1="52" x2="67.9" y2="52"/>
	<line style="fill:none;stroke:#B2B1B1;stroke-width:0.3;stroke-miterlimit:10;" x1="82.8" y1="53.2" x2="67.9" y2="53.2"/>
	<line style="fill:none;stroke:#B2B1B1;stroke-width:0.3;stroke-miterlimit:10;" x1="85.3" y1="54.5" x2="65.9" y2="54.5"/>
</g>
<polygon style="fill:none;stroke:#B2B2B2;stroke-width:0.5;stroke-miterlimit:10;" points="62.3,35.1 62.3,61.1 62.3,61.4 
	62.6,61.4 88.6,61.4 88.8,61.4 88.8,61.1 88.8,35.1 88.8,34.9 88.6,34.9 62.6,34.9 62.3,34.9 "/>
<polygon style="fill:none;stroke:#B2B2B2;stroke-width:0.5;stroke-miterlimit:10;" points="93.4,35.1 93.4,61.1 93.4,61.4 
	93.7,61.4 119.7,61.4 119.9,61.4 119.9,61.1 119.9,35.1 119.9,34.9 119.7,34.9 93.7,34.9 93.4,34.9 "/>
<path style="fill:none;stroke:#B2B1B1;stroke-width:0.3;stroke-miterlimit:10;" d="M96.7,53.8"/>
<path style="fill:none;stroke:#B2B1B1;stroke-width:0.3;stroke-miterlimit:10;" d="M96.7,48.8"/>
<path style="fill:none;stroke:#B2B1B1;stroke-width:0.3;stroke-miterlimit:10;" d="M96.7,47.6"/>
<path style="fill:none;stroke:#B2B1B1;stroke-width:0.3;stroke-miterlimit:10;" d="M96.7,41.3"/>
<path style="fill:none;stroke:#B2B1B1;stroke-width:0.3;stroke-miterlimit:10;" d="M114.1,46.3"/>
<path style="fill:none;stroke:#B2B1B1;stroke-width:0.3;stroke-miterlimit:10;" d="M116.2,48.8"/>
<path style="fill:none;stroke:#B2B1B1;stroke-width:0.3;stroke-miterlimit:10;" d="M114.1,50.1"/>
<path style="fill:none;stroke:#B2B1B1;stroke-width:0.3;stroke-miterlimit:10;" d="M116.2,53.8"/>
<path style="fill:none;stroke:#B2B1B1;stroke-width:0.3;stroke-miterlimit:10;" d="M116.2,41.3"/>
<path style="fill:none;stroke:#B2B1B1;stroke-width:0.3;stroke-miterlimit:10;" d="M116.2,47.6"/>
<path style="fill:none;stroke:#B2B1B1;stroke-width:0.3;stroke-miterlimit:10;" d="M114.1,51.3"/>
<path style="fill:none;stroke:#B2B1B1;stroke-width:0.3;stroke-miterlimit:10;" d="M114.1,52.6"/>
<g>
	<path style="fill:none;stroke:#B2B1B1;stroke-width:0.3;stroke-miterlimit:10;" d="M99.1,52.3"/>
	<path style="fill:none;stroke:#B2B1B1;stroke-width:0.3;stroke-miterlimit:10;" d="M99.1,51"/>
	<path style="fill:none;stroke:#B2B1B1;stroke-width:0.3;stroke-miterlimit:10;" d="M99.1,49.7"/>
	<path style="fill:none;stroke:#B2B1B1;stroke-width:0.3;stroke-miterlimit:10;" d="M99.1,46"/>
	<path style="fill:none;stroke:#B2B1B1;stroke-width:0.3;stroke-miterlimit:10;" d="M99.1,43.5"/>
	<line style="fill:none;stroke:#B2B1B1;stroke-width:0.3;stroke-miterlimit:10;" x1="116.4" y1="41.8" x2="96.9" y2="41.8"/>
	<line style="fill:none;stroke:#B2B1B1;stroke-width:0.3;stroke-miterlimit:10;" x1="116.4" y1="43" x2="101.5" y2="43"/>
	<line style="fill:none;stroke:#B2B1B1;stroke-width:0.3;stroke-miterlimit:10;" x1="116.4" y1="44.3" x2="101.5" y2="44.3"/>
	<line style="fill:none;stroke:#B2B1B1;stroke-width:0.3;stroke-miterlimit:10;" x1="116.4" y1="45.6" x2="101.5" y2="45.6"/>
	<line style="fill:none;stroke:#B2B1B1;stroke-width:0.3;stroke-miterlimit:10;" x1="116.4" y1="46.9" x2="96.9" y2="46.9"/>
	<line style="fill:none;stroke:#B2B1B1;stroke-width:0.3;stroke-miterlimit:10;" x1="116.4" y1="48.1" x2="96.9" y2="48.1"/>
	<line style="fill:none;stroke:#B2B1B1;stroke-width:0.3;stroke-miterlimit:10;" x1="116.3" y1="49.4" x2="101.4" y2="49.4"/>
	<line style="fill:none;stroke:#B2B1B1;stroke-width:0.3;stroke-miterlimit:10;" x1="116.4" y1="50.7" x2="96.9" y2="50.7"/>
	<line style="fill:none;stroke:#B2B1B1;stroke-width:0.3;stroke-miterlimit:10;" x1="116.4" y1="52" x2="101.5" y2="52"/>
	<line style="fill:none;stroke:#B2B1B1;stroke-width:0.3;stroke-miterlimit:10;" x1="116.4" y1="53.2" x2="101.5" y2="53.2"/>
	<line style="fill:none;stroke:#B2B1B1;stroke-width:0.3;stroke-miterlimit:10;" x1="116.4" y1="54.5" x2="96.9" y2="54.5"/>
</g>
<polygon style="fill:none;stroke:#B2B2B2;stroke-width:0.5;stroke-miterlimit:10;" points="0.5,35.2 0.5,61.1 0.5,61.4 0.8,61.4 
	26.7,61.4 27,61.4 27,61.1 27,35.2 27,34.9 26.7,34.9 0.8,34.9 0.5,34.9 "/>
<path style="fill:none;stroke:#B2B1B1;stroke-width:0.3;stroke-miterlimit:10;" d="M23.7,42.5"/>
<path style="fill:none;stroke:#B2B1B1;stroke-width:0.3;stroke-miterlimit:10;" d="M23.7,47.5"/>
<path style="fill:none;stroke:#B2B1B1;stroke-width:0.3;stroke-miterlimit:10;" d="M23.7,48.7"/>
<path style="fill:none;stroke:#B2B1B1;stroke-width:0.3;stroke-miterlimit:10;" d="M23.7,55"/>
<path style="fill:none;stroke:#B2B1B1;stroke-width:0.3;stroke-miterlimit:10;" d="M6.3,50"/>
<path style="fill:none;stroke:#B2B1B1;stroke-width:0.3;stroke-miterlimit:10;" d="M4.2,47.5"/>
<path style="fill:none;stroke:#B2B1B1;stroke-width:0.3;stroke-miterlimit:10;" d="M6.3,46.2"/>
<path style="fill:none;stroke:#B2B1B1;stroke-width:0.3;stroke-miterlimit:10;" d="M4.2,42.5"/>
<path style="fill:none;stroke:#B2B1B1;stroke-width:0.3;stroke-miterlimit:10;" d="M4.2,55"/>
<path style="fill:none;stroke:#B2B1B1;stroke-width:0.3;stroke-miterlimit:10;" d="M4.2,48.7"/>
<path style="fill:none;stroke:#B2B1B1;stroke-width:0.3;stroke-miterlimit:10;" d="M6.3,45"/>
<path style="fill:none;stroke:#B2B1B1;stroke-width:0.3;stroke-miterlimit:10;" d="M6.3,43.7"/>
<g>
	<path style="fill:none;stroke:#B2B1B1;stroke-width:0.3;stroke-miterlimit:10;" d="M21.2,43.7"/>
	<path style="fill:none;stroke:#B2B1B1;stroke-width:0.3;stroke-miterlimit:10;" d="M21.2,45"/>
	<path style="fill:none;stroke:#B2B1B1;stroke-width:0.3;stroke-miterlimit:10;" d="M21.2,46.2"/>
	<path style="fill:none;stroke:#B2B1B1;stroke-width:0.3;stroke-miterlimit:10;" d="M21.2,50"/>
	<path style="fill:none;stroke:#B2B1B1;stroke-width:0.3;stroke-miterlimit:10;" d="M21.2,52.5"/>
	<line style="fill:none;stroke:#B2B1B1;stroke-width:0.3;stroke-miterlimit:10;" x1="3.8" y1="54.2" x2="23.3" y2="54.2"/>
	<line style="fill:none;stroke:#B2B1B1;stroke-width:0.3;stroke-miterlimit:10;" x1="3.8" y1="52.9" x2="23.3" y2="52.9"/>
	<line style="fill:none;stroke:#B2B1B1;stroke-width:0.3;stroke-miterlimit:10;" x1="3.8" y1="51.6" x2="23.3" y2="51.6"/>
	<line style="fill:none;stroke:#B2B1B1;stroke-width:0.3;stroke-miterlimit:10;" x1="3.8" y1="50.4" x2="23.3" y2="50.4"/>
	<line style="fill:none;stroke:#B2B1B1;stroke-width:0.3;stroke-miterlimit:10;" x1="3.8" y1="49.1" x2="23.3" y2="49.1"/>
	<line style="fill:none;stroke:#B2B1B1;stroke-width:0.3;stroke-miterlimit:10;" x1="3.8" y1="47.8" x2="23.3" y2="47.8"/>
	<line style="fill:none;stroke:#B2B1B1;stroke-width:0.3;stroke-miterlimit:10;" x1="3.9" y1="46.5" x2="23.4" y2="46.5"/>
	<line style="fill:none;stroke:#B2B1B1;stroke-width:0.3;stroke-miterlimit:10;" x1="3.8" y1="45.3" x2="23.3" y2="45.3"/>
	<line style="fill:none;stroke:#B2B1B1;stroke-width:0.3;stroke-miterlimit:10;" x1="3.8" y1="44" x2="23.3" y2="44"/>
	<line style="fill:none;stroke:#B2B1B1;stroke-width:0.3;stroke-miterlimit:10;" x1="3.8" y1="42.7" x2="23.3" y2="42.7"/>
	<line style="fill:none;stroke:#B2B1B1;stroke-width:0.3;stroke-miterlimit:10;" x1="3.8" y1="41.4" x2="23.3" y2="41.4"/>
</g>
<path style="fill:#B2B1B1;" d="M-169.1,150.3l-1.9,13.3c-0.1,0.4-0.4,0.7-0.8,0.6c-0.4-0.1-0.7-0.4-0.6-0.8l1.9-13.3
	c0.1-0.4,0.4-0.7,0.8-0.6C-169.3,149.5-169,149.9-169.1,150.3 M-175.9,164.4c-0.4,0-0.7-0.3-0.7-0.7l-0.1-13.5
	c0-0.4,0.3-0.7,0.7-0.7c0.4,0,0.7,0.3,0.7,0.7l0.1,13.5C-175.1,164-175.5,164.4-175.9,164.4 M-179.9,164.3c-0.4,0.1-0.8-0.2-0.8-0.6
	l-2.1-13.3c-0.1-0.4,0.2-0.8,0.6-0.8c0.4-0.1,0.8,0.2,0.8,0.6l2.1,13.3C-179.3,163.9-179.5,164.3-179.9,164.3 M-166.2,147.9
	c-0.1-0.2-0.4-0.3-0.6-0.3l-18.5,0.1c-0.2,0-0.4,0.1-0.6,0.3c-0.1,0.2-0.2,0.4-0.2,0.6l3.1,16.1c0.1,0.4,0.4,0.6,0.7,0.6l12.5-0.1
	c0.4,0,0.7-0.3,0.7-0.6l2.9-16.2C-166,148.3-166,148.1-166.2,147.9"/>
<path style="fill:none;stroke:#FFFFFF;stroke-width:2.100000e-02;" d="M-169.1,150.3l-1.9,13.3c-0.1,0.4-0.4,0.7-0.8,0.6
	c-0.4-0.1-0.7-0.4-0.6-0.8l1.9-13.3c0.1-0.4,0.4-0.7,0.8-0.6C-169.3,149.5-169,149.9-169.1,150.3z M-175.9,164.4
	c-0.4,0-0.7-0.3-0.7-0.7l-0.1-13.5c0-0.4,0.3-0.7,0.7-0.7c0.4,0,0.7,0.3,0.7,0.7l0.1,13.5C-175.1,164-175.5,164.4-175.9,164.4z
	 M-179.9,164.3c-0.4,0.1-0.8-0.2-0.8-0.6l-2.1-13.3c-0.1-0.4,0.2-0.8,0.6-0.8c0.4-0.1,0.8,0.2,0.8,0.6l2.1,13.3
	C-179.3,163.9-179.5,164.3-179.9,164.3z M-166.2,147.9c-0.1-0.2-0.4-0.3-0.6-0.3l-18.5,0.1c-0.2,0-0.4,0.1-0.6,0.3
	c-0.1,0.2-0.2,0.4-0.2,0.6l3.1,16.1c0.1,0.4,0.4,0.6,0.7,0.6l12.5-0.1c0.4,0,0.7-0.3,0.7-0.6l2.9-16.2
	C-166,148.3-166,148.1-166.2,147.9z"/>
<path style="fill:#B2B1B1;" d="M-178.8,143.3L-178.8,143.3l0-0.4l5.5,0l0,0.4L-178.8,143.3z M-165.1,144.7L-165.1,144.7l-2,0l0-1.2
	c0-0.1,0-0.2-0.1-0.2c-0.1-0.1-0.2-0.1-0.2-0.1l-4.5,0l0-1.1c0-0.2-0.1-0.4-0.2-0.5c-0.1-0.1-0.3-0.2-0.5-0.2l-6.9,0.1
	c-0.2,0-0.4,0.1-0.5,0.2s-0.2,0.3-0.2,0.5l0,1.1l-4.2,0c-0.1,0-0.2,0-0.2,0.1c-0.1,0.1-0.1,0.2-0.1,0.2l0,1.2l-2.2,0l0,2.2l21.8-0.2
	L-165.1,144.7z"/>
<path style="fill:none;stroke:#FFFFFF;stroke-width:2.100000e-02;" d="M-178.8,143.3L-178.8,143.3l0-0.4l5.5,0l0,0.4L-178.8,143.3z
	 M-165.1,144.7L-165.1,144.7l-2,0l0-1.2c0-0.1,0-0.2-0.1-0.2c-0.1-0.1-0.2-0.1-0.2-0.1l-4.5,0l0-1.1c0-0.2-0.1-0.4-0.2-0.5
	c-0.1-0.1-0.3-0.2-0.5-0.2l-6.9,0.1c-0.2,0-0.4,0.1-0.5,0.2s-0.2,0.3-0.2,0.5l0,1.1l-4.2,0c-0.1,0-0.2,0-0.2,0.1
	c-0.1,0.1-0.1,0.2-0.1,0.2l0,1.2l-2.2,0l0,2.2l21.8-0.2L-165.1,144.7z"/>
<rect x="-187" y="141.4" style="fill:none;" width="21.9" height="24"/>
<rect x="154" y="0.7" style="fill:#0E6899;" width="34.9" height="19.6"/>
<g>
	<path style="fill:#FFFFFF;" d="M167,11.1v4.2h-0.9v-1.1c-0.4,0.7-1.2,1.1-2.4,1.1c-1.5,0-2.5-0.8-2.5-2c0-1.1,0.7-1.9,2.6-1.9h2.2
		V11c0-1.2-0.7-1.8-1.9-1.8c-0.9,0-1.7,0.3-2.3,0.8l-0.4-0.7c0.7-0.6,1.7-0.9,2.8-0.9C166,8.4,167,9.3,167,11.1z M166,13.3v-1.1
		h-2.1c-1.3,0-1.8,0.5-1.8,1.2c0,0.8,0.6,1.3,1.7,1.3C164.9,14.6,165.7,14.2,166,13.3z"/>
	<path style="fill:#FFFFFF;" d="M175.1,8.5v6.8h-0.9v-1.2c-0.5,0.8-1.4,1.3-2.5,1.3c-1.7,0-2.9-1-2.9-2.9v-4h0.9v3.9
		c0,1.5,0.8,2.2,2.1,2.2c1.4,0,2.3-0.9,2.3-2.5V8.5H175.1z"/>
	<path style="fill:#FFFFFF;" d="M176.4,14.5l0.4-0.7c0.5,0.4,1.5,0.8,2.4,0.8c1.3,0,1.8-0.4,1.8-1.1c0-1.8-4.4-0.4-4.4-3.1
		c0-1.1,1-1.9,2.7-1.9c0.9,0,1.8,0.2,2.4,0.6l-0.4,0.7c-0.6-0.4-1.3-0.6-2-0.6c-1.2,0-1.8,0.5-1.8,1.1c0,1.8,4.4,0.5,4.4,3.1
		c0,1.2-1,1.9-2.8,1.9C178,15.4,176.9,15,176.4,14.5z"/>
</g>
<polygon style="fill:none;stroke:#B2B2B2;stroke-width:0.5;stroke-miterlimit:10;" points="154.2,0.5 154.2,20.5 154.2,20.8 
	154.5,20.8 223.3,20.8 223.6,20.8 223.6,20.5 223.6,0.5 223.6,0.3 223.3,0.3 154.5,0.3 154.2,0.3 "/>
<rect x="154" y="0" style="fill:none;" width="69.8" height="21"/>
<rect x="-250.4" y="207.4" style="fill:#FFFFFF;" width="1014" height="21"/>
<path style="fill:#0E689A;" d="M376.7,207.4c-2.2,0-4,1.8-4,4v12.4c0,2.2,1.8,4,4,4h77.1c2.2,0,4-1.8,4-4v-12.4c0-2.2-1.8-4-4-4
	H376.7z"/>
<rect x="-250.2" y="207.6" style="fill:none;stroke:#C5C5C5;stroke-width:0.5;stroke-linecap:round;stroke-linejoin:round;" width="1013.5" height="20.5"/>
<path style="fill:#C5C5C5;" d="M747.4,210.2v1.5c0,0.4,0.2,0.8,0.5,1l6.4,4.8c0.3,0.2,0.3,0.6,0,0.8l-6.4,4.8
	c-0.3,0.2-0.5,0.6-0.5,1v1.5c0,0.4,0.5,0.6,0.8,0.4l10.1-7.6c0.3-0.2,0.3-0.7,0-1l-10.1-7.6C747.9,209.6,747.4,209.8,747.4,210.2"/>
<path style="fill:#C5C5C5;" d="M-234.6,225.5V224c0-0.4-0.2-0.8-0.5-1l-6.4-4.8c-0.3-0.2-0.3-0.6,0-0.8l6.4-4.8
	c0.3-0.2,0.5-0.6,0.5-1v-1.5c0-0.4-0.5-0.6-0.8-0.4l-10.1,7.6c-0.3,0.2-0.3,0.7,0,1l10.1,7.6C-235,226.1-234.6,225.9-234.6,225.5"/>
<rect x="-250.4" y="207.4" style="fill:none;" width="1014" height="21"/>
<rect x="805.4" y="-37.2" style="fill:#FFFFFF;" width="21" height="702.1"/>
<path style="fill:#0E689A;" d="M805.4,376.8c0,2.2,1.8,4,4,4h12.4c2.2,0,4-1.8,4-4v-78.3c0-2.2-1.8-4-4-4h-12.4c-2.2,0-4,1.8-4,4
	V376.8z"/>
<rect x="805.6" y="-36.9" style="fill:none;stroke:#C5C5C5;stroke-width:0.5;stroke-linecap:round;stroke-linejoin:round;" width="20.5" height="701.6"/>
<path style="fill:#C5C5C5;" d="M808.2-23.6h1.5c0.4,0,0.8-0.2,1-0.5l4.8-6.5c0.2-0.3,0.6-0.3,0.8,0l4.8,6.5c0.2,0.3,0.6,0.5,1,0.5
	h1.5c0.4,0,0.6-0.5,0.4-0.8l-7.6-10.2c-0.2-0.3-0.7-0.3-1,0l-7.6,10.2C807.6-24.1,807.8-23.6,808.2-23.6"/>
<path style="fill:#C5C5C5;" d="M823.5,650.6H822c-0.4,0-0.8,0.2-1,0.5l-4.8,6.5c-0.2,0.3-0.6,0.3-0.8,0l-4.8-6.5
	c-0.2-0.3-0.6-0.5-1-0.5h-1.5c-0.4,0-0.6,0.5-0.4,0.8l7.6,10.2c0.2,0.3,0.7,0.3,1,0l7.6-10.2C824.1,651.1,823.9,650.6,823.5,650.6"
	/>
<rect x="805.4" y="-37.2" style="fill:none;" width="21" height="702.1"/>
<line style="fill:none;stroke:#B2B1B1;stroke-width:0.3;stroke-miterlimit:10;" x1="84.4" y1="74.9" x2="71.4" y2="74.9"/>
<line style="fill:none;stroke:#B2B1B1;stroke-width:0.3;stroke-miterlimit:10;" x1="84.4" y1="80" x2="71.4" y2="80"/>
<line style="fill:none;stroke:#B2B1B1;stroke-width:0.3;stroke-miterlimit:10;" x1="84.4" y1="85.1" x2="71.4" y2="85.1"/>
<text transform="matrix(1 0 0 1 66.7888 74.8151)" style="fill:#B2B1B1; font-family:'Montserrat-Bold'; font-size:3px;">1</text>
<text transform="matrix(1 0 0 1 66.7888 79.8307)" style="fill:#B2B1B1; font-family:'Montserrat-Bold'; font-size:3px;">2</text>
<text transform="matrix(1 0 0 1 66.7888 84.8464)" style="fill:#B2B1B1; font-family:'Montserrat-Bold'; font-size:3px;">3</text>
<polygon style="fill:none;stroke:#B2B2B2;stroke-width:0.5;stroke-miterlimit:10;" points="62.3,67.4 62.3,93.4 62.3,93.6 
	62.6,93.6 88.6,93.6 88.8,93.6 88.8,93.4 88.8,67.4 88.8,67.1 88.6,67.1 62.6,67.1 62.3,67.1 "/>
<polygon style="fill:none;stroke:#B2B2B2;stroke-width:0.5;stroke-miterlimit:10;" points="30.8,67.4 30.8,93.4 30.8,93.6 
	31.1,93.6 57.1,93.6 57.3,93.6 57.3,93.4 57.3,67.4 57.3,67.1 57.1,67.1 31.1,67.1 30.8,67.1 "/>
<polygon style="fill:none;stroke:#B2B2B2;stroke-width:0.5;stroke-miterlimit:10;" points="0.5,67.4 0.5,93.4 0.5,93.6 0.8,93.6 
	26.8,93.6 27,93.6 27,93.4 27,67.4 27,67.1 26.8,67.1 0.8,67.1 0.5,67.1 "/>
<path style="fill:none;stroke:#B2B1B1;stroke-width:0.3;stroke-miterlimit:10;" d="M52.4,85.5h-13 M52.4,80.3h-13 M52.4,75.2h-13"/>
<path style="fill:#B2B1B1;" d="M37.3,80.9c0.2-0.2,0.2-0.3,0.2-0.6c0-0.2,0-0.3-0.1-0.4c-0.1-0.1-0.2-0.2-0.3-0.3
	c-0.1-0.1-0.3-0.1-0.4-0.1c-0.2,0-0.3,0-0.4,0.1s-0.2,0.2-0.3,0.3c-0.1,0.1-0.1,0.3-0.1,0.4c0,0.2,0.1,0.4,0.2,0.6
	c0.2,0.2,0.3,0.2,0.6,0.2C36.9,81.2,37.1,81.1,37.3,80.9"/>
<path style="fill:#B2B1B1;" d="M36.7,76.3c0.5,0,0.9-0.4,0.9-0.9c0-0.5-0.4-0.9-0.9-0.9c-0.5,0-0.9,0.4-0.9,0.9
	C35.8,75.9,36.2,76.3,36.7,76.3"/>
<path style="fill:#B2B1B1;" d="M37.3,85.9c0.2-0.2,0.2-0.3,0.2-0.6c0-0.2,0-0.3-0.1-0.4c-0.1-0.1-0.2-0.2-0.3-0.3
	c-0.1-0.1-0.3-0.1-0.4-0.1c-0.2,0-0.3,0-0.4,0.1S36.1,84.8,36,85c-0.1,0.1-0.1,0.3-0.1,0.4c0,0.2,0.1,0.4,0.2,0.6
	c0.2,0.2,0.3,0.2,0.6,0.2C36.9,86.2,37.1,86.1,37.3,85.9"/>
<path style="fill:none;stroke:#B2B1B1;stroke-width:0.3;stroke-miterlimit:10;" d="M22,85.5H9 M22,80.4H9 M22,75.2H9"/>
<rect x="5.5" y="74.5" style="fill:#B2B1B1;" width="1.8" height="1.8"/>
<rect x="5.5" y="79.5" style="fill:#B2B1B1;" width="1.8" height="1.8"/>
<rect x="5.5" y="84.5" style="fill:#B2B1B1;" width="1.8" height="1.8"/>
<rect x="344" y="-0.4" style="fill:#F8F8F8;" width="245" height="57.8"/>
<text transform="matrix(1 0 0 1 418.6873 25.7623)" style="fill:#B2B1B1; font-family:'Montserrat-Regular'; font-size:13px;">N</text>
<text transform="matrix(1 0 0 1 429.1653 25.7623)" style="fill:#B2B1B1; font-family:'Montserrat-Regular'; font-size:13px;">e</text>
<text transform="matrix(1 0 0 1 436.8223 25.7623)" style="fill:#B2B1B1; font-family:'Montserrat-Regular'; font-size:13px;">u</text>
<text transform="matrix(1 0 0 1 445.4403 25.7623)" style="fill:#B2B1B1; font-family:'Montserrat-Regular'; font-size:13px;">e </text>
<text transform="matrix(1 0 0 1 456.6983 25.7623)" style="fill:#B2B1B1; font-family:'Montserrat-Regular'; font-size:13px;">T</text>
<text transform="matrix(1 0 0 1 463.0683 25.7623)" style="fill:#B2B1B1; font-family:'Montserrat-Regular'; font-size:13px;">e</text>
<text transform="matrix(1 0 0 1 470.5693 25.7623)" style="fill:#B2B1B1; font-family:'Montserrat-Regular'; font-size:13px;">x</text>
<text transform="matrix(1 0 0 1 477.7843 25.7623)" style="fill:#B2B1B1; font-family:'Montserrat-Regular'; font-size:13px;">t</text>
<text transform="matrix(1 0 0 1 482.8153 25.7623)" style="fill:#B2B1B1; font-family:'Montserrat-Regular'; font-size:13px;">b</text>
<text transform="matrix(1 0 0 1 491.6293 25.7623)" style="fill:#B2B1B1; font-family:'Montserrat-Regular'; font-size:13px;">o</text>
<text transform="matrix(1 0 0 1 499.4293 25.7623)" style="fill:#B2B1B1; font-family:'Montserrat-Regular'; font-size:13px;">x </text>
<path style="fill:none;stroke:#B2B1B1;stroke-width:0.5;" d="M466.5,47.5c3.7,0,6.7-3,6.7-6.7c0-3.7-3-6.7-6.7-6.7s-6.7,3-6.7,6.7
	C459.8,44.5,462.8,47.5,466.5,47.5z"/>
<rect x="344" y="-0.4" style="fill:none;" width="245" height="57.8"/>
<line style="fill:none;stroke:#B2B1B1;stroke-width:1.2;" x1="466.5" y1="37.3" x2="466.5" y2="44.3"/>
<line style="fill:none;stroke:#B2B1B1;stroke-width:1.2;" x1="463" y1="40.8" x2="470" y2="40.8"/>
<path style="fill:none;stroke:#B2B1B1;stroke-width:0.5;" d="M355.5,87.4c3.7,0,6.7-3,6.7-6.7c0-3.7-3-6.7-6.7-6.7s-6.7,3-6.7,6.7
	C348.8,84.4,351.8,87.4,355.5,87.4z"/>
<line style="fill:none;stroke:#B2B1B1;stroke-width:1.2;" x1="355.5" y1="77.1" x2="355.5" y2="84.2"/>
<line style="fill:none;stroke:#B2B1B1;stroke-width:1.2;" x1="352" y1="80.7" x2="359.1" y2="80.7"/>
<g>
	<path style="fill:#B2B2B2;" d="M-140.4,102.5h-3.1v-1.8h8.5v1.8h-3.1v8h-2.3L-140.4,102.5L-140.4,102.5z"/>
	<path style="fill:#B2B2B2;" d="M-133.7,100.6h2.3v9.8h-2.3V100.6z"/>
	<path style="fill:#B2B2B2;" d="M-120.6,104.2c0,2.2-1.6,3.5-4.3,3.5h-2v2.7h-2.3v-9.8h4.2C-122.3,100.6-120.6,102-120.6,104.2z
		 M-122.9,104.2c0-1.1-0.7-1.7-2.1-1.7h-1.8v3.4h1.8C-123.6,105.9-122.9,105.3-122.9,104.2z"/>
	<path style="fill:#B2B2B2;" d="M-110.5,104.2c0,2.2-1.6,3.5-4.3,3.5h-2v2.7h-2.3v-9.8h4.2C-112.2,100.6-110.5,102-110.5,104.2z
		 M-112.8,104.2c0-1.1-0.7-1.7-2.1-1.7h-1.8v3.4h1.8C-113.5,105.9-112.8,105.3-112.8,104.2z"/>
</g>
<path style="fill:#B2B2B2;" d="M-177,96.2L-177,96.2c-1.1,2.5-2,4.6-2.9,6.8h5.7C-175.1,100.7-176,98.6-177,96.2 M-173.5,113.8
	L-173.5,113.8c-0.3-1.2-0.2-1.8,1-1.8c1,0,1.3-0.7,1-1.6c-0.5-1.4-1.1-2.8-1.7-4.2c-0.1-0.2-0.6-0.5-0.8-0.5c-2.1,0-4.3,0-6.4,0
	c-0.3,0-0.7,0.3-0.9,0.6c-0.6,1.2-1.1,2.3-1.5,3.5c-0.6,1.5-0.3,2,1.3,2.2c0.8,0.1,1.2,0.3,1,1.1c-0.1,0.2-0.4,0.6-0.5,0.6
	c-2.5,0-5,0-7.6,0c-0.2-1-0.3-1.6,0.9-1.9c0.6-0.1,1.2-0.6,1.5-1.1c0.8-1.3,1.4-2.7,2-4c2.4-5.6,4.8-11.1,7.2-16.7
	c0.2-0.4,0.6-0.7,1-1c0.3,0.3,0.8,0.6,0.9,1c2.6,6,5.1,12.1,7.6,18.2c0.3,0.8,0.7,1.5,1.1,2.3c0.5,0.9,1.3,1.4,2.4,1.6
	c0.3,0.1,0.5,0.6,0.6,1c0,0.2-0.4,0.6-0.6,0.6C-167.2,113.8-170.3,113.8-173.5,113.8"/>
<path style="fill:#B2B1B1;" d="M-79.8,106.2c2.7,0,4.8-2,4.8-4.6c0-2.4-2.2-4.4-4.7-4.4c-2.7,0-4.8,2-4.8,4.6
	C-84.5,104.2-82.4,106.2-79.8,106.2 M-74.2,106.2L-74.2,106.2c0.4-0.2,0.6-0.2,0.9,0.1c1.2,1.2,2.5,2.4,3.8,3.5
	c0.1,0.1,0.2,0.2,0.3,0.2c0.2,0.2,0.2,0.5,0,0.7c-0.2,0.2-0.5,0.5-0.8,0.7c-0.3,0.3-0.5,0.3-0.9,0c-1.2-1.1-2.3-2.2-3.5-3.3
	c-0.1-0.1-0.3-0.2-0.4-0.4c-0.4-0.3-0.4-0.5-0.2-0.9c-0.4-0.3-0.7-0.7-1.1-1c-1.5,1.1-3.2,1.5-5,1.1c-1.4-0.3-2.5-1.1-3.4-2.2
	c-1.7-2.2-1.3-5.3,0.8-7.1c2.2-1.9,5.5-1.9,7.7-0.1c2.2,1.8,2.8,5.1,0.7,7.6C-74.9,105.5-74.6,105.9-74.2,106.2"/>
<path style="fill:none;stroke:#FFFFFF;stroke-width:1.000000e-03;" d="M-79.8,106.2c2.7,0,4.8-2,4.8-4.6c0-2.4-2.2-4.4-4.7-4.4
	c-2.7,0-4.8,2-4.8,4.6C-84.5,104.2-82.4,106.2-79.8,106.2z M-74.2,106.2L-74.2,106.2c0.4-0.2,0.6-0.2,0.9,0.1
	c1.2,1.2,2.5,2.4,3.8,3.5c0.1,0.1,0.2,0.2,0.3,0.2c0.2,0.2,0.2,0.5,0,0.7c-0.2,0.2-0.5,0.5-0.8,0.7c-0.3,0.3-0.5,0.3-0.9,0
	c-1.2-1.1-2.3-2.2-3.5-3.3c-0.1-0.1-0.3-0.2-0.4-0.4c-0.4-0.3-0.4-0.5-0.2-0.9c-0.4-0.3-0.7-0.7-1.1-1c-1.5,1.1-3.2,1.5-5,1.1
	c-1.4-0.3-2.5-1.1-3.4-2.2c-1.7-2.2-1.3-5.3,0.8-7.1c2.2-1.9,5.5-1.9,7.7-0.1c2.2,1.8,2.8,5.1,0.7,7.6
	C-74.9,105.5-74.6,105.9-74.2,106.2z"/>
<path style="fill:#B2B1B1;" d="M-16,96.6l3,3v-2.8c0-0.1-0.1-0.2-0.1-0.3l-3.8-3.8c-0.1-0.1-0.2-0.1-0.2,0l-3.9,3.9v2.8
	c0,0.1,0.1,0.1,0.1,0.1l2.8-2.9c0.1-0.1,0.1,0,0.1,0.1v7.8l0,0v2.2c0,0.1-0.1,0.1-0.1,0.1l-3-3v2.8c0,0.1,0.1,0.2,0.1,0.3l3.8,3.8
	c0.1,0.1,0.2,0.1,0.2,0l3.9-3.9v-2.8c0-0.1-0.1-0.1-0.1-0.1l-2.8,2.9c-0.1,0.1-0.1,0-0.1-0.1v-7.8l0,0v-2.2
	C-16.2,96.6-16.1,96.6-16,96.6z"/>
<line style="fill:none;stroke:#B2B1B1;stroke-width:1.712;" x1="-52.2" y1="109.9" x2="-24.3" y2="109.9"/>
<line style="fill:none;stroke:#B2B1B1;stroke-width:1.712;" x1="-52.2" y1="101.6" x2="-24.3" y2="101.6"/>
<line style="fill:none;stroke:#B2B1B1;stroke-width:1.712;" x1="-52.2" y1="93.6" x2="-24.3" y2="93.6"/>
<line style="fill:none;stroke:#B2B1B1;stroke-width:1.712;" x1="-37.8" y1="128.9" x2="-37.8" y2="149.9"/>
<path style="fill:#B2B1B1;" d="M-30.4,142.7L-30.4,142.7h2.7l-2.6-2.6c-0.1-0.1-0.1-0.2,0.1-0.2h7v-1.4c0-0.2-0.2-0.4-0.4-0.4h-6.7
	c-0.2,0-0.2-0.1-0.1-0.2l2.6-2.6H-30c-0.2,0-0.5,0.1-0.6,0.2l-3.2,3.2c-0.1,0.1-0.1,0.4,0,0.5L-30.4,142.7z"/>
<path style="fill:#B2B1B1;" d="M-46.1,135.5L-46.1,135.5h-2.7l2.6,2.6c0.1,0.1,0.1,0.2-0.1,0.2h-7v1.4c0,0.2,0.2,0.4,0.3,0.4h6.7
	c0.2,0,0.2,0.1,0.1,0.2l-2.6,2.6h2.3c0.2,0,0.5-0.1,0.6-0.2l3.2-3.2c0.1-0.1,0.1-0.4,0-0.5L-46.1,135.5z"/>
<line style="fill:none;stroke:#B2B1B1;stroke-width:2;" x1="278.5" y1="9.7" x2="242.4" y2="9.7"/>
<path style="fill:#AD5E7A;" d="M269.9,12.9c2,0,3.7-1.7,3.7-3.7s-1.7-3.7-3.7-3.7s-3.7,1.7-3.7,3.7S267.9,12.9,269.9,12.9"/>
<g>
	<path style="fill:#B2B1B1;" d="M293.1,9.9c0,3.1-1.8,4.8-4.5,4.8c-0.9,0-1.8-0.2-2.4-0.6l0.6-1.3c0.5,0.3,1.1,0.4,1.7,0.4
		c1.7,0,2.8-1.1,2.8-3.1v0c-0.5,0.6-1.4,0.9-2.4,0.9c-1.8,0-3.1-1.1-3.1-2.8c0-1.8,1.5-3,3.3-3C291.7,5.4,293.1,7,293.1,9.9z
		 M291.2,8.3c0-0.9-0.7-1.5-1.9-1.5c-1.1,0-1.8,0.6-1.8,1.5s0.7,1.5,1.8,1.5C290.4,9.8,291.2,9.2,291.2,8.3z"/>
	<path style="fill:#B2B1B1;" d="M301,11.9c0,1.6-1.2,2.9-3.6,2.9c-1.3,0-2.6-0.4-3.4-1.1l0.7-1.3c0.7,0.5,1.7,0.9,2.7,0.9
		c1.2,0,1.9-0.5,1.9-1.4c0-0.9-0.6-1.4-2.4-1.4h-2.2l0.5-5h5.3V7h-3.9l-0.2,2.1h0.9C299.9,9.1,301,10.2,301,11.9z"/>
	<path style="fill:#B2B1B1;" d="M305.4,8c0-1.5,0.9-2.5,2.2-2.5s2.2,1,2.2,2.5s-0.9,2.5-2.2,2.5S305.4,9.4,305.4,8z M308.7,8
		c0-1-0.4-1.6-1.1-1.6c-0.7,0-1.1,0.6-1.1,1.6s0.4,1.6,1.1,1.6C308.3,9.5,308.7,9,308.7,8z M313.1,5.5h1.3l-6.2,9.1h-1.3L313.1,5.5z
		 M311.4,12.2c0-1.5,0.9-2.5,2.2-2.5s2.2,1,2.2,2.5s-0.9,2.5-2.2,2.5C312.3,14.7,311.4,13.7,311.4,12.2z M314.7,12.2
		c0-1-0.4-1.6-1.1-1.6s-1.1,0.6-1.1,1.6c0,1,0.4,1.6,1.1,1.6S314.7,13.2,314.7,12.2z"/>
</g>
<rect x="256.4" y="63.9" style="fill:#FFFFFF;" width="13.1" height="16.8"/>
<polygon style="fill:none;stroke:#B2B1B1;stroke-width:0.941;" points="256.4,80.6 256.4,80.6 269.5,80.6 269.5,63.9 256.4,63.9 "/>
<rect x="248.7" y="63.4" style="fill:none;" width="21.3" height="24"/>
<line style="fill:none;stroke:#B2B1B1;stroke-width:0.941;stroke-dasharray:1.889,1.889;" x1="253.2" y1="71.6" x2="253.2" y2="82"/>
<line style="fill:none;stroke:#B2B1B1;stroke-width:0.941;stroke-dasharray:1.754,1.754;" x1="255.8" y1="83.9" x2="265.5" y2="83.9"/>
<path style="fill:none;stroke:#B2B1B1;stroke-width:0.941;" d="M266.4,83.9h0.9 M253.2,82.9v0.9h0.9 M253.2,68.7v0.9"/>
<polyline style="fill:none;stroke:#B2B1B1;stroke-width:0.941;" points="249.2,71.8 249.2,86.9 263.2,86.9 "/>
<rect x="248.7" y="63.4" style="fill:none;" width="21.3" height="24"/>
<rect x="288" y="63.8" style="fill:#FFFFFF;" width="14.7" height="18.7"/>
<polygon style="fill:none;stroke:#B2B1B1;stroke-width:0.804;" points="288,82.5 288,82.5 302.6,82.5 302.6,63.8 288,63.8 "/>
<rect x="287.6" y="63.4" style="fill:none;" width="19.9" height="24"/>
<rect x="292.4" y="68.3" style="fill:#B2B1B1;" width="14.7" height="18.7"/>
<polygon style="fill:none;stroke:#FFFFFF;stroke-width:0.804;" points="292.4,87 292.4,87 307,87 307,68.3 292.4,68.3 "/>
<rect x="287.6" y="63.4" style="fill:none;" width="19.9" height="24"/>
<rect x="189.1" y="67.4" style="fill:#0E6899;" width="34.9" height="19.6"/>
<text transform="matrix(1 0 0 1 196.0683 82.0138)" style="fill:#FFFFFF; font-family:'Montserrat-Regular'; font-size:13px;">e</text>
<text transform="matrix(1 0 0 1 203.4783 82.0138)" style="fill:#FFFFFF; font-family:'Montserrat-Regular'; font-size:13px;">i</text>
<text transform="matrix(1 0 0 1 206.4033 82.0138)" style="fill:#FFFFFF; font-family:'Montserrat-Regular'; font-size:13px;">n</text>
<polygon style="fill:none;stroke:#B2B2B2;stroke-width:0.5;stroke-miterlimit:10;" points="154.1,67.2 154.1,87.2 154.1,87.5 
	154.3,87.5 223.2,87.5 223.4,87.5 223.4,87.2 223.4,67.2 223.4,67 223.2,67 154.3,67 154.1,67 "/>
<rect x="153.8" y="66.7" style="fill:none;" width="70.2" height="21"/>
<line style="fill:none;stroke:#B2B1B1;stroke-width:2.5;" x1="295.1" y1="156.9" x2="295.1" y2="181.1"/>
<path style="fill:#B2B1B1;" d="M303.2,172.7L303.2,172.7h2.6l-2.5-2.5c-0.1-0.1-0.1-0.2,0.1-0.2h6.7v-1.3c0-0.2-0.2-0.4-0.4-0.4
	h-6.7l2.7-2.7h-2.2c-0.2,0-0.5,0.1-0.6,0.2l-3.1,3.1c-0.1,0.1-0.1,0.4,0,0.5L303.2,172.7z"/>
<line style="fill:none;stroke:#B2B1B1;stroke-width:2.5;" x1="268.2" y1="181" x2="268.2" y2="156.7"/>
<path style="fill:#B2B1B1;" d="M260.1,165.2L260.1,165.2h-2.6l2.5,2.5c0.1,0.1,0.1,0.2-0.1,0.2h-6.7v1.3c0,0.2,0.2,0.4,0.4,0.4h6.7
	l-2.7,2.7h2.2c0.2,0,0.5-0.1,0.6-0.2l3.1-3.1c0.1-0.1,0.1-0.4,0-0.5L260.1,165.2z"/>
<line style="fill:none;stroke:#B2B1B1;stroke-width:2.5;" x1="78.4" y1="164.7" x2="102.7" y2="164.7"/>
<path style="fill:#B2B1B1;" d="M94.1,156.7L94.1,156.7v-2.6l-2.5,2.5c-0.1,0.1-0.2,0.1-0.2-0.1v-6.7H90c-0.2,0-0.3,0.2-0.3,0.4v6.7
	l-2.7-2.7v2.2c0,0.2,0.1,0.5,0.2,0.6l3.1,3.1c0.1,0.1,0.4,0.1,0.5,0L94.1,156.7z"/>
<path style="fill:#B2B1B1;" d="M87.2,171.8L87.2,171.8v2.6l2.5-2.5c0.1-0.1,0.2-0.1,0.2,0.1v6.7h1.3c0.2,0,0.3-0.2,0.3-0.4v-6.7
	l2.7,2.7v-2.2c0-0.2-0.1-0.5-0.2-0.6l-3.1-3.1c-0.1-0.1-0.4-0.1-0.5,0L87.2,171.8z"/>
<line style="fill:none;stroke:#B2B1B1;stroke-width:2.5;" x1="134.9" y1="177.6" x2="134.9" y2="153.3"/>
<path style="fill:#B2B1B1;" d="M126.8,161.9L126.8,161.9h-2.6l2.5,2.5c0.1,0.1,0.1,0.2-0.1,0.2h-6.7v1.3c0,0.2,0.2,0.4,0.3,0.4h6.7
	l-2.7,2.7h2.2c0.2,0,0.5-0.1,0.6-0.2l3.1-3.1c0.1-0.1,0.1-0.4,0-0.5L126.8,161.9z"/>
<path style="fill:#B2B1B1;" d="M142,168.8L142,168.8h2.6l-2.5-2.5c-0.1-0.1-0.1-0.2,0.1-0.2h6.7v-1.3c0-0.2-0.2-0.4-0.4-0.4h-6.7
	l2.7-2.7h-2.2c-0.2,0-0.5,0.1-0.6,0.2l-3.1,3.1c-0.1,0.1-0.1,0.4,0,0.5L142,168.8z"/>
<line style="fill:none;stroke:#B2B1B1;stroke-width:2.5;" x1="167" y1="165" x2="191.3" y2="165"/>
<path style="fill:#B2B1B1;" d="M175.7,172.1L175.7,172.1v2.6l2.5-2.5c0.1-0.1,0.2-0.1,0.2,0.1v6.7h1.3c0.2,0,0.4-0.2,0.4-0.4V172
	l2.7,2.7v-2.2c0-0.2-0.1-0.5-0.2-0.6l-3.1-3.1c-0.1-0.1-0.4-0.1-0.5,0L175.7,172.1z"/>
<line style="fill:none;stroke:#B2B1B1;stroke-width:2.5;" x1="212.1" y1="176.3" x2="236.4" y2="176.3"/>
<path style="fill:#B2B1B1;" d="M228,167.9L228,167.9v-2.6l-2.5,2.5c-0.1,0.1-0.2,0.1-0.2-0.1V161h-1.3c-0.2,0-0.4,0.2-0.4,0.4v6.7
	l-2.7-2.7v2.2c0,0.2,0.1,0.5,0.2,0.6l3.1,3.1c0.1,0.1,0.4,0.1,0.5,0L228,167.9z"/>
<rect x="358" y="149.4" style="fill:#FFFFFF;" width="15.8" height="20.1"/>
<line style="fill:none;stroke:#B2B1B1;stroke-width:0.941;stroke-dasharray:1.971,1.971;" x1="361" y1="169.4" x2="371.8" y2="169.4"/>
<line style="fill:none;stroke:#B2B1B1;stroke-width:0.941;stroke-dasharray:2.006,2.006;" x1="373.8" y1="166.4" x2="373.8" y2="151.4"/>
<line style="fill:none;stroke:#B2B1B1;stroke-width:0.941;stroke-dasharray:1.971,1.971;" x1="370.8" y1="149.4" x2="360" y2="149.4"/>
<line style="fill:none;stroke:#B2B1B1;stroke-width:0.941;stroke-dasharray:2.006,2.006;" x1="358" y1="152.4" x2="358" y2="167.4"/>
<path style="fill:none;stroke:#B2B1B1;stroke-width:0.941;" d="M358,168.4v1h1 M359,149.4h-1v1 M373.8,150.4v-1h-1 M372.8,169.4h1
	v-1"/>
<polygon style="fill:#FFFFFF;" points="346.8,179.4 346.8,179.4 362.5,179.4 362.5,159.4 346.8,159.4 "/>
<line style="fill:none;stroke:#B2B1B1;stroke-width:0.941;stroke-dasharray:1.971,1.971;" x1="349.7" y1="179.4" x2="360.6" y2="179.4"/>
<line style="fill:none;stroke:#B2B1B1;stroke-width:0.941;stroke-dasharray:2.006,2.006;" x1="362.5" y1="176.4" x2="362.5" y2="161.4"/>
<line style="fill:none;stroke:#B2B1B1;stroke-width:0.941;stroke-dasharray:1.971,1.971;" x1="359.6" y1="159.4" x2="348.7" y2="159.4"/>
<line style="fill:none;stroke:#B2B1B1;stroke-width:0.941;stroke-dasharray:2.006,2.006;" x1="346.8" y1="162.4" x2="346.8" y2="177.4"/>
<path style="fill:none;stroke:#B2B1B1;stroke-width:0.941;" d="M346.8,178.4v1h1 M347.7,159.4h-1v1 M362.5,160.4v-1h-1 M361.5,179.4
	h1v-1"/>
<polygon style="fill:#FFFFFF;" points="337.3,187.4 337.3,187.4 353.1,187.4 353.1,167.4 337.3,167.4 "/>
<polygon style="fill:none;stroke:#B2B1B1;stroke-width:0.941;" points="337.3,187.4 337.3,187.4 353.1,187.4 353.1,167.4 
	337.3,167.4 "/>
<g>
	<polygon style="fill:#FFFFFF;" points="411.1,173.7 411.1,173.7 426.9,173.7 426.9,153.7 411.1,153.7 	"/>
	<polygon style="fill:none;stroke:#B2B1B1;stroke-width:0.941;" points="411.1,173.7 411.1,173.7 426.9,173.7 426.9,153.7 
		411.1,153.7 	"/>
	
		<line style="fill:none;stroke:#B2B1B1;stroke-width:0.941;stroke-dasharray:1.801,1.801;" x1="407.4" y1="162.2" x2="407.4" y2="175.7"/>
	
		<line style="fill:none;stroke:#B2B1B1;stroke-width:0.941;stroke-dasharray:2.091,2.091;" x1="410.5" y1="177.5" x2="422" y2="177.5"/>
	<path style="fill:none;stroke:#B2B1B1;stroke-width:0.941;" d="M423,177.5h1 M407.4,176.6v0.9h1 M407.4,159.5v0.9"/>
</g>
<g>
	<g>
		<rect x="483.7" y="141.9" style="fill:#FFFFFF;" width="15.8" height="20.1"/>
		<polygon style="fill:none;stroke:#B2B1B1;stroke-width:0.941;" points="483.7,162 483.7,162 499.4,162 499.4,141.9 483.7,141.9 		
			"/>
		<polygon style="fill:#FFFFFF;" points="472.4,172 472.4,172 488.2,172 488.2,151.9 472.4,151.9 		"/>
		
			<line style="fill:none;stroke:#B2B1B1;stroke-width:0.941;stroke-dasharray:1.971,1.971;" x1="475.4" y1="172" x2="486.2" y2="172"/>
		
			<line style="fill:none;stroke:#B2B1B1;stroke-width:0.941;stroke-dasharray:2.006,2.006;" x1="488.2" y1="169" x2="488.2" y2="154"/>
		
			<line style="fill:none;stroke:#B2B1B1;stroke-width:0.941;stroke-dasharray:1.971,1.971;" x1="485.2" y1="151.9" x2="474.4" y2="151.9"/>
		
			<line style="fill:none;stroke:#B2B1B1;stroke-width:0.941;stroke-dasharray:2.006,2.006;" x1="472.4" y1="155" x2="472.4" y2="170"/>
		<path style="fill:none;stroke:#B2B1B1;stroke-width:0.941;" d="M472.4,171v1h1 M473.4,151.9h-1v1 M488.2,152.9v-1h-1 M487.2,172h1
			v-1"/>
		<polygon style="fill:#FFFFFF;" points="463,180 463,180 478.7,180 478.7,159.9 463,159.9 		"/>
		
			<line style="fill:none;stroke:#B2B1B1;stroke-width:0.941;stroke-dasharray:1.971,1.971;" x1="465.9" y1="180" x2="476.8" y2="180"/>
		
			<line style="fill:none;stroke:#B2B1B1;stroke-width:0.941;stroke-dasharray:2.006,2.006;" x1="478.7" y1="177" x2="478.7" y2="162"/>
		
			<line style="fill:none;stroke:#B2B1B1;stroke-width:0.941;stroke-dasharray:1.971,1.971;" x1="475.8" y1="159.9" x2="464.9" y2="159.9"/>
		<line style="fill:none;stroke:#B2B1B1;stroke-width:0.941;stroke-dasharray:2.006,2.006;" x1="463" y1="163" x2="463" y2="178"/>
		<path style="fill:none;stroke:#B2B1B1;stroke-width:0.941;" d="M463,179v1h1 M463.9,159.9h-1v1 M478.7,160.9v-1h-1 M477.7,180h1
			v-1"/>
	</g>
	
		<line style="fill:none;stroke:#B2B1B1;stroke-width:0.941;stroke-dasharray:1.971,1.971;" x1="539.1" y1="175.5" x2="549.9" y2="175.5"/>
	
		<line style="fill:none;stroke:#B2B1B1;stroke-width:0.941;stroke-dasharray:2.006,2.006;" x1="551.9" y1="172.5" x2="551.9" y2="157.4"/>
	
		<line style="fill:none;stroke:#B2B1B1;stroke-width:0.941;stroke-dasharray:1.971,1.971;" x1="548.9" y1="155.4" x2="538.1" y2="155.4"/>
	
		<line style="fill:none;stroke:#B2B1B1;stroke-width:0.941;stroke-dasharray:2.006,2.006;" x1="536.1" y1="158.4" x2="536.1" y2="173.5"/>
	<path style="fill:none;stroke:#B2B1B1;stroke-width:0.941;" d="M536.1,174.5v1h1 M537.1,155.4h-1v1 M551.9,156.4v-1h-1
		 M550.9,175.5h1v-1"/>
	<polyline style="fill:none;stroke:#B2B1B1;stroke-width:0.941;" points="532.4,161.3 532.4,179.3 549.1,179.3 	"/>
</g>
<g>
	<g>
		<defs>
			<rect id="SVGID_1_" x="-222.9" y="269.3" width="241.7" height="1"/>
		</defs>
		<clipPath id="SVGID_00000111192819699782165110000017707190557342264206_">
			<use xlink:href="#SVGID_1_"  style="overflow:visible;"/>
		</clipPath>
		
			<line style="clip-path:url(#SVGID_00000111192819699782165110000017707190557342264206_);fill:none;stroke:#B2B2B2;stroke-linecap:round;stroke-linejoin:round;stroke-dasharray:0,3.009;" x1="-219.4" y1="269.8" x2="16.8" y2="269.8"/>
	</g>
	<g>
		<defs>
			<rect id="SVGID_00000096752317093617505900000017017933935582271621_" x="-222.9" y="269.3" width="241.7" height="1"/>
		</defs>
		<clipPath id="SVGID_00000110471627101521294710000013806370876273225893_">
			<use xlink:href="#SVGID_00000096752317093617505900000017017933935582271621_"  style="overflow:visible;"/>
		</clipPath>
		
			<path style="clip-path:url(#SVGID_00000110471627101521294710000013806370876273225893_);fill:none;stroke:#B2B2B2;stroke-linecap:round;stroke-linejoin:round;" d="
			M18.3,269.8L18.3,269.8 M-222.4,269.8L-222.4,269.8"/>
	</g>
</g>
<circle style="fill:none;stroke:#4F4D4D;stroke-width:0.5;" cx="-176" cy="48.6" r="12.8"/>
<polygon style="fill:#0E689A;" points="-32.6,33.6 -45.6,33.6 -39.3,44.1 "/>
<polygon style="fill:#B2B1B1;" points="-24.6,162.1 -35.1,168.5 -24.6,175.1 "/>
<polygon style="fill:#B2B1B1;" points="-53.6,175.1 -43.2,168.8 -53.6,162.1 "/>
<polygon style="fill:#B2B1B1;" points="28.9,162.1 18.4,168.5 28.9,175.1 "/>
<polygon style="fill:#B2B1B1;" points="-6.3,175.1 4.2,168.8 -6.3,162.1 "/>
<rect x="154" y="33.6" style="fill:#0E6899;" width="34.9" height="19.6"/>
<polygon style="fill:none;stroke:#B2B2B2;stroke-width:0.5;stroke-miterlimit:10;" points="154.2,33.5 154.2,53.5 154.2,53.7 
	154.5,53.7 223.3,53.7 223.6,53.7 223.6,53.5 223.6,33.5 223.6,33.2 223.3,33.2 154.5,33.2 154.2,33.2 "/>
<rect x="154" y="33" style="fill:none;" width="69.8" height="21"/>
<rect x="189.3" y="99.6" style="fill:#0E6899;" width="34.9" height="19.6"/>
<polygon style="fill:none;stroke:#B2B2B2;stroke-width:0.5;stroke-miterlimit:10;" points="154.3,99.5 154.3,119.5 154.3,119.8 
	154.6,119.8 223.4,119.8 223.7,119.8 223.7,119.5 223.7,99.5 223.7,99.3 223.4,99.3 154.6,99.3 154.3,99.3 "/>
<rect x="154.1" y="99" style="fill:none;" width="70.2" height="21"/>
<line style="fill:none;stroke:#B2B1B1;stroke-width:2;" x1="277.4" y1="29.5" x2="241.3" y2="29.5"/>
<path style="fill:#AD5E7A;" d="M268.9,32.7c2,0,3.7-1.7,3.7-3.7s-1.7-3.7-3.7-3.7s-3.7,1.7-3.7,3.7S266.8,32.7,268.9,32.7"/>
</svg>
