<?xml version="1.0" encoding="utf-8"?>
<!-- Generator: Adobe Illustrator 26.5.0, SVG Export Plug-In . SVG Version: 6.00 Build 0)  -->
<svg version="1.1" id="Ebene_1" xmlns="http://www.w3.org/2000/svg" xmlns:xlink="http://www.w3.org/1999/xlink" x="0px" y="0px"
	 width="27px" height="27px" viewBox="0 0 27 27" style="enable-background:new 0 0 27 27;" xml:space="preserve">
<polyline style="fill:none;stroke:#C5C5C5;stroke-width:3;stroke-linecap:round;stroke-linejoin:round;" points="1722.7,940.6 
	1716.5,931.6 1709.7,940.6 "/>
<circle style="fill:#FFAEFF;stroke:#4F4D4D;stroke-width:0.5;" cx="-269.2" cy="-22.1" r="12.8"/>
<rect x="-236.7" y="-33.1" style="fill:#F8F8F8;" width="119.9" height="21"/>
<polygon style="fill:#0E689A;" points="-125.9,-27.9 -138.9,-27.9 -132.5,-17.4 "/>
<g>
	<g>
		<line style="fill:none;stroke:#B2B1B1;stroke-width:0.65;stroke-miterlimit:10;" x1="-12.9" y1="-15.6" x2="-2.6" y2="-15.6"/>
		<g>
			<path style="fill:#B2B1B1;" d="M-11.6-20.8V-26h1.3v5.1c0,2,0.9,2.9,2.6,2.9s2.6-0.9,2.6-2.9V-26h1.3v5.2c0,2.6-1.4,4-3.8,4
				C-10.1-16.8-11.6-18.2-11.6-20.8z"/>
		</g>
	</g>
	<polygon style="fill:none;stroke:#B2B2B2;stroke-width:0.5;stroke-miterlimit:10;" points="-21,-33.8 -21,-7.8 -21,-7.6 
		-20.7,-7.6 5.3,-7.6 5.5,-7.6 5.5,-7.8 5.5,-33.8 5.5,-34.1 5.3,-34.1 -20.7,-34.1 -21,-34.1 	"/>
</g>
<g>
	<g>
		<path style="fill:#B2B1B1;" d="M-42.3-25.7h1.3l-1.8,9.1h-1.3L-42.3-25.7z"/>
	</g>
	<polygon style="fill:none;stroke:#B2B2B2;stroke-width:0.5;stroke-miterlimit:10;" points="-55.8,-34.2 -55.8,-8.2 -55.8,-7.9 
		-55.6,-7.9 -29.6,-7.9 -29.3,-7.9 -29.3,-8.2 -29.3,-34.2 -29.3,-34.4 -29.6,-34.4 -55.6,-34.4 -55.8,-34.4 	"/>
</g>
<g>
	<g>
		<path style="fill:#B2B1B1;" d="M-75.5-19.1c0,1.6-1.2,2.5-3.6,2.5h-4.7v-9.1h4.4c2.3,0,3.4,0.9,3.4,2.4c0,0.9-0.5,1.6-1.2,2
			C-76.1-21-75.5-20.2-75.5-19.1z M-81.7-24.1v2.1h2.1c1,0,1.6-0.4,1.6-1.1s-0.6-1.1-1.6-1.1L-81.7-24.1L-81.7-24.1z M-77.6-19.3
			c0-0.8-0.6-1.1-1.7-1.1h-2.5v2.2h2.5C-78.2-18.2-77.6-18.5-77.6-19.3z"/>
	</g>
	<polygon style="fill:none;stroke:#B2B2B2;stroke-width:0.5;stroke-miterlimit:10;" points="-92.9,-34.1 -92.9,-8.1 -92.9,-7.9 
		-92.7,-7.9 -66.7,-7.9 -66.4,-7.9 -66.4,-8.1 -66.4,-34.1 -66.4,-34.4 -66.7,-34.4 -92.7,-34.4 -92.9,-34.4 	"/>
</g>
<path style="fill:none;stroke:#B2B1B1;stroke-width:0.3;stroke-miterlimit:10;" d="M-38.7,7.8"/>
<path style="fill:none;stroke:#B2B1B1;stroke-width:0.3;stroke-miterlimit:10;" d="M-41.2,9.1"/>
<path style="fill:none;stroke:#B2B1B1;stroke-width:0.3;stroke-miterlimit:10;" d="M-41.2,10.3"/>
<path style="fill:none;stroke:#B2B1B1;stroke-width:0.3;stroke-miterlimit:10;" d="M-41.2,11.6"/>
<path style="fill:none;stroke:#B2B1B1;stroke-width:0.3;stroke-miterlimit:10;" d="M-38.7,12.8"/>
<path style="fill:none;stroke:#B2B1B1;stroke-width:0.3;stroke-miterlimit:10;" d="M-38.7,14.1"/>
<path style="fill:none;stroke:#B2B1B1;stroke-width:0.3;stroke-miterlimit:10;" d="M-41.2,15.3"/>
<path style="fill:none;stroke:#B2B1B1;stroke-width:0.3;stroke-miterlimit:10;" d="M-41.2,17.8"/>
<path style="fill:none;stroke:#B2B1B1;stroke-width:0.3;stroke-miterlimit:10;" d="M-38.7,20.3"/>
<g>
	<path style="fill:none;stroke:#B2B1B1;stroke-width:0.3;stroke-miterlimit:10;" d="M-58.2,12.8"/>
	<path style="fill:none;stroke:#B2B1B1;stroke-width:0.3;stroke-miterlimit:10;" d="M-58.2,7.8"/>
	<path style="fill:none;stroke:#B2B1B1;stroke-width:0.3;stroke-miterlimit:10;" d="M-58.2,20.3"/>
	<path style="fill:none;stroke:#B2B1B1;stroke-width:0.3;stroke-miterlimit:10;" d="M-58.2,14.1"/>
	<g>
		<path style="fill:none;stroke:#B2B1B1;stroke-width:0.3;stroke-miterlimit:10;" d="M-56.1,15.3"/>
		<path style="fill:none;stroke:#B2B1B1;stroke-width:0.3;stroke-miterlimit:10;" d="M-56.1,11.6"/>
		<path style="fill:none;stroke:#B2B1B1;stroke-width:0.3;stroke-miterlimit:10;" d="M-56.1,10.3"/>
		<path style="fill:none;stroke:#B2B1B1;stroke-width:0.3;stroke-miterlimit:10;" d="M-56.1,9.1"/>
		<line style="fill:none;stroke:#B2B1B1;stroke-width:0.3;stroke-miterlimit:10;" x1="-58.6" y1="19.6" x2="-39.1" y2="19.6"/>
		<line style="fill:none;stroke:#B2B1B1;stroke-width:0.3;stroke-miterlimit:10;" x1="-58.6" y1="18.3" x2="-43.7" y2="18.3"/>
		<line style="fill:none;stroke:#B2B1B1;stroke-width:0.3;stroke-miterlimit:10;" x1="-58.6" y1="17" x2="-43.7" y2="17"/>
		<line style="fill:none;stroke:#B2B1B1;stroke-width:0.3;stroke-miterlimit:10;" x1="-58.6" y1="15.7" x2="-43.7" y2="15.7"/>
		<line style="fill:none;stroke:#B2B1B1;stroke-width:0.3;stroke-miterlimit:10;" x1="-58.6" y1="14.5" x2="-39.1" y2="14.5"/>
		<line style="fill:none;stroke:#B2B1B1;stroke-width:0.3;stroke-miterlimit:10;" x1="-58.6" y1="13.2" x2="-39.1" y2="13.2"/>
		<line style="fill:none;stroke:#B2B1B1;stroke-width:0.3;stroke-miterlimit:10;" x1="-58.5" y1="11.9" x2="-43.6" y2="11.9"/>
		<line style="fill:none;stroke:#B2B1B1;stroke-width:0.3;stroke-miterlimit:10;" x1="-58.6" y1="10.6" x2="-39.1" y2="10.6"/>
		<line style="fill:none;stroke:#B2B1B1;stroke-width:0.3;stroke-miterlimit:10;" x1="-58.6" y1="9.3" x2="-43.7" y2="9.3"/>
		<line style="fill:none;stroke:#B2B1B1;stroke-width:0.3;stroke-miterlimit:10;" x1="-58.6" y1="8.1" x2="-43.7" y2="8.1"/>
		<line style="fill:none;stroke:#B2B1B1;stroke-width:0.3;stroke-miterlimit:10;" x1="-58.6" y1="6.8" x2="-39.1" y2="6.8"/>
	</g>
	<polygon style="fill:none;stroke:#B2B2B2;stroke-width:0.5;stroke-miterlimit:10;" points="-61.9,0.5 -61.9,26.5 -61.9,26.7 
		-61.6,26.7 -35.6,26.7 -35.4,26.7 -35.4,26.5 -35.4,0.5 -35.4,0.3 -35.6,0.3 -61.6,0.3 -61.9,0.3 	"/>
</g>
<g>
	<g>
		<line style="fill:none;stroke:#B2B1B1;stroke-width:0.3;stroke-miterlimit:10;" x1="-7.8" y1="7.1" x2="-27.3" y2="7.1"/>
		<line style="fill:none;stroke:#B2B1B1;stroke-width:0.3;stroke-miterlimit:10;" x1="-10.3" y1="8.4" x2="-25.2" y2="8.4"/>
		<line style="fill:none;stroke:#B2B1B1;stroke-width:0.3;stroke-miterlimit:10;" x1="-10.3" y1="9.7" x2="-25.2" y2="9.7"/>
		<line style="fill:none;stroke:#B2B1B1;stroke-width:0.3;stroke-miterlimit:10;" x1="-10.3" y1="10.9" x2="-25.2" y2="10.9"/>
		<line style="fill:none;stroke:#B2B1B1;stroke-width:0.3;stroke-miterlimit:10;" x1="-7.8" y1="12.2" x2="-27.3" y2="12.2"/>
		<line style="fill:none;stroke:#B2B1B1;stroke-width:0.3;stroke-miterlimit:10;" x1="-7.8" y1="13.5" x2="-27.3" y2="13.5"/>
		<line style="fill:none;stroke:#B2B1B1;stroke-width:0.3;stroke-miterlimit:10;" x1="-10.3" y1="14.8" x2="-25.2" y2="14.8"/>
		<line style="fill:none;stroke:#B2B1B1;stroke-width:0.3;stroke-miterlimit:10;" x1="-7.8" y1="16.1" x2="-27.3" y2="16.1"/>
		<line style="fill:none;stroke:#B2B1B1;stroke-width:0.3;stroke-miterlimit:10;" x1="-10.3" y1="17.3" x2="-25.2" y2="17.3"/>
		<line style="fill:none;stroke:#B2B1B1;stroke-width:0.3;stroke-miterlimit:10;" x1="-10.3" y1="18.6" x2="-25.2" y2="18.6"/>
		<line style="fill:none;stroke:#B2B1B1;stroke-width:0.3;stroke-miterlimit:10;" x1="-7.8" y1="19.9" x2="-27.3" y2="19.9"/>
	</g>
	<polygon style="fill:none;stroke:#B2B2B2;stroke-width:0.5;stroke-miterlimit:10;" points="-30.8,0.5 -30.8,26.5 -30.8,26.7 
		-30.6,26.7 -4.6,26.7 -4.3,26.7 -4.3,26.5 -4.3,0.5 -4.3,0.3 -4.6,0.3 -30.6,0.3 -30.8,0.3 	"/>
</g>
<polygon style="fill:none;stroke:#AD5E7A;stroke-width:0.5;stroke-miterlimit:10;" points="0.2,0.5 0.2,26.5 0.2,26.7 0.5,26.7 
	26.5,26.7 26.7,26.7 26.7,26.5 26.7,0.5 26.7,0.3 26.5,0.3 0.5,0.3 0.2,0.3 "/>
<path style="fill:none;stroke:#B2B1B1;stroke-width:0.3;stroke-miterlimit:10;" d="M3.6,19.2"/>
<path style="fill:none;stroke:#B2B1B1;stroke-width:0.3;stroke-miterlimit:10;" d="M3.6,14.2"/>
<path style="fill:none;stroke:#B2B1B1;stroke-width:0.3;stroke-miterlimit:10;" d="M3.6,12.9"/>
<path style="fill:none;stroke:#B2B1B1;stroke-width:0.3;stroke-miterlimit:10;" d="M3.6,6.6"/>
<path style="fill:none;stroke:#B2B1B1;stroke-width:0.3;stroke-miterlimit:10;" d="M21,11.7"/>
<path style="fill:none;stroke:#B2B1B1;stroke-width:0.3;stroke-miterlimit:10;" d="M23,14.2"/>
<path style="fill:none;stroke:#B2B1B1;stroke-width:0.3;stroke-miterlimit:10;" d="M21,15.4"/>
<path style="fill:none;stroke:#B2B1B1;stroke-width:0.3;stroke-miterlimit:10;" d="M23,19.2"/>
<path style="fill:none;stroke:#B2B1B1;stroke-width:0.3;stroke-miterlimit:10;" d="M23,6.6"/>
<path style="fill:none;stroke:#B2B1B1;stroke-width:0.3;stroke-miterlimit:10;" d="M23,12.9"/>
<path style="fill:none;stroke:#B2B1B1;stroke-width:0.3;stroke-miterlimit:10;" d="M21,16.7"/>
<path style="fill:none;stroke:#B2B1B1;stroke-width:0.3;stroke-miterlimit:10;" d="M21,17.9"/>
<g>
	<path style="fill:none;stroke:#B2B1B1;stroke-width:0.3;stroke-miterlimit:10;" d="M5.9,17.6"/>
	<path style="fill:none;stroke:#B2B1B1;stroke-width:0.3;stroke-miterlimit:10;" d="M5.9,16.4"/>
	<path style="fill:none;stroke:#B2B1B1;stroke-width:0.3;stroke-miterlimit:10;" d="M5.9,15.1"/>
	<path style="fill:none;stroke:#B2B1B1;stroke-width:0.3;stroke-miterlimit:10;" d="M5.9,11.3"/>
	<path style="fill:none;stroke:#B2B1B1;stroke-width:0.3;stroke-miterlimit:10;" d="M5.9,8.8"/>
	<line style="fill:none;stroke:#B2B1B1;stroke-width:0.3;stroke-miterlimit:10;" x1="23.2" y1="7.1" x2="3.8" y2="7.1"/>
	<line style="fill:none;stroke:#B2B1B1;stroke-width:0.3;stroke-miterlimit:10;" x1="23.2" y1="8.4" x2="8.3" y2="8.4"/>
	<line style="fill:none;stroke:#B2B1B1;stroke-width:0.3;stroke-miterlimit:10;" x1="23.2" y1="9.7" x2="8.3" y2="9.7"/>
	<line style="fill:none;stroke:#B2B1B1;stroke-width:0.3;stroke-miterlimit:10;" x1="23.2" y1="10.9" x2="8.3" y2="10.9"/>
	<line style="fill:none;stroke:#B2B1B1;stroke-width:0.3;stroke-miterlimit:10;" x1="23.2" y1="12.2" x2="3.8" y2="12.2"/>
	<line style="fill:none;stroke:#B2B1B1;stroke-width:0.3;stroke-miterlimit:10;" x1="23.2" y1="13.5" x2="3.8" y2="13.5"/>
	<line style="fill:none;stroke:#B2B1B1;stroke-width:0.3;stroke-miterlimit:10;" x1="23.2" y1="14.8" x2="8.3" y2="14.8"/>
	<line style="fill:none;stroke:#B2B1B1;stroke-width:0.3;stroke-miterlimit:10;" x1="23.2" y1="16" x2="3.8" y2="16"/>
	<line style="fill:none;stroke:#B2B1B1;stroke-width:0.3;stroke-miterlimit:10;" x1="23.2" y1="17.3" x2="8.3" y2="17.3"/>
	<line style="fill:none;stroke:#B2B1B1;stroke-width:0.3;stroke-miterlimit:10;" x1="23.2" y1="18.6" x2="8.3" y2="18.6"/>
	<line style="fill:none;stroke:#B2B1B1;stroke-width:0.3;stroke-miterlimit:10;" x1="23.2" y1="19.9" x2="3.8" y2="19.9"/>
</g>
<polygon style="fill:none;stroke:#B2B2B2;stroke-width:0.5;stroke-miterlimit:10;" points="-92.7,0.5 -92.7,26.5 -92.7,26.8 
	-92.4,26.8 -66.4,26.8 -66.2,26.8 -66.2,26.5 -66.2,0.5 -66.2,0.3 -66.4,0.3 -92.4,0.3 -92.7,0.3 "/>
<path style="fill:none;stroke:#B2B1B1;stroke-width:0.3;stroke-miterlimit:10;" d="M-69.5,7.8"/>
<path style="fill:none;stroke:#B2B1B1;stroke-width:0.3;stroke-miterlimit:10;" d="M-69.5,12.8"/>
<path style="fill:none;stroke:#B2B1B1;stroke-width:0.3;stroke-miterlimit:10;" d="M-69.5,14.1"/>
<path style="fill:none;stroke:#B2B1B1;stroke-width:0.3;stroke-miterlimit:10;" d="M-69.5,20.3"/>
<path style="fill:none;stroke:#B2B1B1;stroke-width:0.3;stroke-miterlimit:10;" d="M-86.9,15.3"/>
<path style="fill:none;stroke:#B2B1B1;stroke-width:0.3;stroke-miterlimit:10;" d="M-89,12.8"/>
<path style="fill:none;stroke:#B2B1B1;stroke-width:0.3;stroke-miterlimit:10;" d="M-86.9,11.6"/>
<path style="fill:none;stroke:#B2B1B1;stroke-width:0.3;stroke-miterlimit:10;" d="M-89,7.8"/>
<path style="fill:none;stroke:#B2B1B1;stroke-width:0.3;stroke-miterlimit:10;" d="M-89,20.3"/>
<path style="fill:none;stroke:#B2B1B1;stroke-width:0.3;stroke-miterlimit:10;" d="M-89,14.1"/>
<path style="fill:none;stroke:#B2B1B1;stroke-width:0.3;stroke-miterlimit:10;" d="M-86.9,10.3"/>
<path style="fill:none;stroke:#B2B1B1;stroke-width:0.3;stroke-miterlimit:10;" d="M-86.9,9.1"/>
<g>
	<path style="fill:none;stroke:#B2B1B1;stroke-width:0.3;stroke-miterlimit:10;" d="M-72,9.1"/>
	<path style="fill:none;stroke:#B2B1B1;stroke-width:0.3;stroke-miterlimit:10;" d="M-72,10.3"/>
	<path style="fill:none;stroke:#B2B1B1;stroke-width:0.3;stroke-miterlimit:10;" d="M-72,11.6"/>
	<path style="fill:none;stroke:#B2B1B1;stroke-width:0.3;stroke-miterlimit:10;" d="M-72,15.3"/>
	<path style="fill:none;stroke:#B2B1B1;stroke-width:0.3;stroke-miterlimit:10;" d="M-72,17.8"/>
	<line style="fill:none;stroke:#B2B1B1;stroke-width:0.3;stroke-miterlimit:10;" x1="-89.3" y1="19.6" x2="-69.9" y2="19.6"/>
	<line style="fill:none;stroke:#B2B1B1;stroke-width:0.3;stroke-miterlimit:10;" x1="-89.3" y1="18.3" x2="-69.9" y2="18.3"/>
	<line style="fill:none;stroke:#B2B1B1;stroke-width:0.3;stroke-miterlimit:10;" x1="-89.3" y1="17" x2="-69.9" y2="17"/>
	<line style="fill:none;stroke:#B2B1B1;stroke-width:0.3;stroke-miterlimit:10;" x1="-89.3" y1="15.7" x2="-69.9" y2="15.7"/>
	<line style="fill:none;stroke:#B2B1B1;stroke-width:0.3;stroke-miterlimit:10;" x1="-89.3" y1="14.5" x2="-69.9" y2="14.5"/>
	<line style="fill:none;stroke:#B2B1B1;stroke-width:0.3;stroke-miterlimit:10;" x1="-89.3" y1="13.2" x2="-69.9" y2="13.2"/>
	<line style="fill:none;stroke:#B2B1B1;stroke-width:0.3;stroke-miterlimit:10;" x1="-89.3" y1="11.9" x2="-69.8" y2="11.9"/>
	<line style="fill:none;stroke:#B2B1B1;stroke-width:0.3;stroke-miterlimit:10;" x1="-89.3" y1="10.6" x2="-69.9" y2="10.6"/>
	<line style="fill:none;stroke:#B2B1B1;stroke-width:0.3;stroke-miterlimit:10;" x1="-89.3" y1="9.3" x2="-69.9" y2="9.3"/>
	<line style="fill:none;stroke:#B2B1B1;stroke-width:0.3;stroke-miterlimit:10;" x1="-89.3" y1="8.1" x2="-69.9" y2="8.1"/>
	<line style="fill:none;stroke:#B2B1B1;stroke-width:0.3;stroke-miterlimit:10;" x1="-89.3" y1="6.8" x2="-69.9" y2="6.8"/>
</g>
<path style="fill:#B2B1B1;" d="M-262.2,115.7l-1.9,13.3c-0.1,0.4-0.4,0.7-0.8,0.6c-0.4-0.1-0.7-0.4-0.6-0.8l1.9-13.3
	c0.1-0.4,0.4-0.7,0.8-0.6C-262.4,114.9-262.2,115.3-262.2,115.7 M-269,129.7c-0.4,0-0.7-0.3-0.7-0.7l-0.1-13.5
	c0-0.4,0.3-0.7,0.7-0.7c0.4,0,0.7,0.3,0.7,0.7l0.1,13.5C-268.3,129.4-268.6,129.7-269,129.7 M-273.1,129.7c-0.4,0.1-0.8-0.2-0.8-0.6
	l-2.1-13.3c-0.1-0.4,0.2-0.8,0.6-0.8c0.4-0.1,0.8,0.2,0.8,0.6l2.1,13.3C-272.4,129.2-272.7,129.6-273.1,129.7 M-259.3,113.3
	c-0.1-0.2-0.4-0.3-0.6-0.3l-18.5,0.1c-0.2,0-0.4,0.1-0.6,0.3c-0.1,0.2-0.2,0.4-0.2,0.6l3.1,16.1c0.1,0.4,0.4,0.6,0.7,0.6l12.5-0.1
	c0.4,0,0.7-0.3,0.7-0.6l2.9-16.2C-259.1,113.7-259.2,113.4-259.3,113.3"/>
<path style="fill:none;stroke:#FFFFFF;stroke-width:2.100000e-02;" d="M-262.2,115.7l-1.9,13.3c-0.1,0.4-0.4,0.7-0.8,0.6
	c-0.4-0.1-0.7-0.4-0.6-0.8l1.9-13.3c0.1-0.4,0.4-0.7,0.8-0.6C-262.4,114.9-262.2,115.3-262.2,115.7z M-269,129.7
	c-0.4,0-0.7-0.3-0.7-0.7l-0.1-13.5c0-0.4,0.3-0.7,0.7-0.7c0.4,0,0.7,0.3,0.7,0.7l0.1,13.5C-268.3,129.4-268.6,129.7-269,129.7z
	 M-273.1,129.7c-0.4,0.1-0.8-0.2-0.8-0.6l-2.1-13.3c-0.1-0.4,0.2-0.8,0.6-0.8c0.4-0.1,0.8,0.2,0.8,0.6l2.1,13.3
	C-272.4,129.2-272.7,129.6-273.1,129.7z M-259.3,113.3c-0.1-0.2-0.4-0.3-0.6-0.3l-18.5,0.1c-0.2,0-0.4,0.1-0.6,0.3
	c-0.1,0.2-0.2,0.4-0.2,0.6l3.1,16.1c0.1,0.4,0.4,0.6,0.7,0.6l12.5-0.1c0.4,0,0.7-0.3,0.7-0.6l2.9-16.2
	C-259.1,113.7-259.2,113.4-259.3,113.3z"/>
<path style="fill:#B2B1B1;" d="M-272,108.7L-272,108.7l0-0.4l5.5,0l0,0.4L-272,108.7z M-258.3,110.1L-258.3,110.1l-2,0l0-1.2
	c0-0.1,0-0.2-0.1-0.2s-0.2-0.1-0.2-0.1l-4.5,0l0-1.1c0-0.2-0.1-0.4-0.2-0.5c-0.1-0.1-0.3-0.2-0.5-0.2l-6.9,0.1
	c-0.2,0-0.4,0.1-0.5,0.2s-0.2,0.3-0.2,0.5l0,1.1l-4.2,0c-0.1,0-0.2,0-0.2,0.1c-0.1,0.1-0.1,0.2-0.1,0.2l0,1.2l-2.2,0l0,2.2l21.8-0.2
	L-258.3,110.1z"/>
<path style="fill:none;stroke:#FFFFFF;stroke-width:2.100000e-02;" d="M-272,108.7L-272,108.7l0-0.4l5.5,0l0,0.4L-272,108.7z
	 M-258.3,110.1L-258.3,110.1l-2,0l0-1.2c0-0.1,0-0.2-0.1-0.2s-0.2-0.1-0.2-0.1l-4.5,0l0-1.1c0-0.2-0.1-0.4-0.2-0.5
	c-0.1-0.1-0.3-0.2-0.5-0.2l-6.9,0.1c-0.2,0-0.4,0.1-0.5,0.2s-0.2,0.3-0.2,0.5l0,1.1l-4.2,0c-0.1,0-0.2,0-0.2,0.1
	c-0.1,0.1-0.1,0.2-0.1,0.2l0,1.2l-2.2,0l0,2.2l21.8-0.2L-258.3,110.1z"/>
<rect x="-280.1" y="106.8" style="fill:none;" width="21.9" height="24"/>
<rect x="60.8" y="-34" style="fill:#0E6899;" width="34.9" height="19.6"/>
<g>
	<path style="fill:#FFFFFF;" d="M73.8-23.6v4.2h-0.9v-1.1c-0.4,0.7-1.2,1.1-2.4,1.1c-1.5,0-2.5-0.8-2.5-2c0-1.1,0.7-1.9,2.6-1.9h2.2
		v-0.4c0-1.2-0.7-1.8-1.9-1.8c-0.9,0-1.7,0.3-2.3,0.8l-0.4-0.7c0.7-0.6,1.7-0.9,2.8-0.9C72.8-26.2,73.8-25.3,73.8-23.6z M72.9-21.4
		v-1.1h-2.1c-1.3,0-1.8,0.5-1.8,1.2c0,0.8,0.6,1.3,1.7,1.3C71.7-20,72.5-20.5,72.9-21.4z"/>
	<path style="fill:#FFFFFF;" d="M81.9-26.2v6.8H81v-1.2c-0.5,0.8-1.4,1.3-2.5,1.3c-1.7,0-2.9-1-2.9-2.9v-4h0.9v3.9
		c0,1.5,0.8,2.2,2.1,2.2c1.4,0,2.3-0.9,2.3-2.5v-3.6C81-26.2,81.9-26.2,81.9-26.2z"/>
	<path style="fill:#FFFFFF;" d="M83.2-20.1l0.4-0.7c0.5,0.4,1.5,0.8,2.4,0.8c1.3,0,1.8-0.4,1.8-1.1c0-1.8-4.4-0.4-4.4-3.1
		c0-1.1,1-2,2.7-2c0.9,0,1.8,0.2,2.4,0.6l-0.4,0.7c-0.6-0.4-1.3-0.6-2-0.6c-1.2,0-1.8,0.5-1.8,1.1c0,1.8,4.4,0.5,4.4,3.1
		c0,1.2-1,2-2.8,2C84.8-19.3,83.8-19.6,83.2-20.1z"/>
</g>
<polygon style="fill:none;stroke:#B2B2B2;stroke-width:0.5;stroke-miterlimit:10;" points="61.1,-34.1 61.1,-14.1 61.1,-13.9 
	61.3,-13.9 130.2,-13.9 130.4,-13.9 130.4,-14.1 130.4,-34.1 130.4,-34.4 130.2,-34.4 61.3,-34.4 61.1,-34.4 "/>
<rect x="60.8" y="-34.6" style="fill:none;" width="69.8" height="21"/>
<rect x="-343.6" y="172.7" style="fill:#FFFFFF;" width="1014" height="21"/>
<path style="fill:#0E689A;" d="M283.6,172.7c-2.2,0-4,1.8-4,4v12.4c0,2.2,1.8,4,4,4h77.1c2.2,0,4-1.8,4-4v-12.4c0-2.2-1.8-4-4-4
	H283.6z"/>
<rect x="-343.3" y="173" style="fill:none;stroke:#C5C5C5;stroke-width:0.5;stroke-linecap:round;stroke-linejoin:round;" width="1013.5" height="20.5"/>
<path style="fill:#C5C5C5;" d="M654.3,175.6v1.5c0,0.4,0.2,0.8,0.5,1l6.4,4.8c0.3,0.2,0.3,0.6,0,0.8l-6.4,4.8
	c-0.3,0.2-0.5,0.6-0.5,1v1.5c0,0.4,0.5,0.6,0.8,0.4l10.1-7.6c0.3-0.2,0.3-0.7,0-1l-10.1-7.6C654.7,174.9,654.3,175.2,654.3,175.6"/>
<path style="fill:#C5C5C5;" d="M-327.7,190.9v-1.5c0-0.4-0.2-0.8-0.5-1l-6.4-4.8c-0.3-0.2-0.3-0.6,0-0.8l6.4-4.8
	c0.3-0.2,0.5-0.6,0.5-1v-1.5c0-0.4-0.5-0.6-0.8-0.4l-10.1,7.6c-0.3,0.2-0.3,0.7,0,1l10.1,7.6C-328.2,191.5-327.7,191.3-327.7,190.9"
	/>
<rect x="-343.6" y="172.7" style="fill:none;" width="1014" height="21"/>
<rect x="712.2" y="-71.8" style="fill:#FFFFFF;" width="21" height="702.1"/>
<path style="fill:#0E689A;" d="M712.2,342.1c0,2.2,1.8,4,4,4h12.4c2.2,0,4-1.8,4-4v-78.3c0-2.2-1.8-4-4-4h-12.4c-2.2,0-4,1.8-4,4
	V342.1z"/>
<rect x="712.4" y="-71.6" style="fill:none;stroke:#C5C5C5;stroke-width:0.5;stroke-linecap:round;stroke-linejoin:round;" width="20.5" height="701.6"/>
<path style="fill:#C5C5C5;" d="M715.1-58.3h1.5c0.4,0,0.8-0.2,1-0.5l4.8-6.5c0.2-0.3,0.6-0.3,0.8,0l4.8,6.5c0.2,0.3,0.6,0.5,1,0.5
	h1.5c0.4,0,0.6-0.5,0.4-0.8l-7.6-10.2c-0.2-0.3-0.7-0.3-1,0l-7.6,10.2C714.4-58.8,714.6-58.3,715.1-58.3"/>
<path style="fill:#C5C5C5;" d="M730.3,616h-1.5c-0.4,0-0.8,0.2-1,0.5l-4.8,6.5c-0.2,0.3-0.6,0.3-0.8,0l-4.8-6.5
	c-0.2-0.3-0.6-0.5-1-0.5h-1.5c-0.4,0-0.6,0.5-0.4,0.8l7.6,10.2c0.2,0.3,0.7,0.3,1,0l7.6-10.2C731,616.4,730.7,616,730.3,616"/>
<rect x="712.2" y="-71.8" style="fill:none;" width="21" height="702.1"/>
<line style="fill:none;stroke:#B2B1B1;stroke-width:0.3;stroke-miterlimit:10;" x1="-8.8" y1="40.3" x2="-21.8" y2="40.3"/>
<line style="fill:none;stroke:#B2B1B1;stroke-width:0.3;stroke-miterlimit:10;" x1="-8.8" y1="45.4" x2="-21.8" y2="45.4"/>
<line style="fill:none;stroke:#B2B1B1;stroke-width:0.3;stroke-miterlimit:10;" x1="-8.8" y1="50.5" x2="-21.8" y2="50.5"/>
<text transform="matrix(1 0 0 1 -26.3695 40.1705)" style="fill:#B2B1B1; font-family:'Montserrat-Bold'; font-size:3px;">1</text>
<text transform="matrix(1 0 0 1 -26.3695 45.1862)" style="fill:#B2B1B1; font-family:'Montserrat-Bold'; font-size:3px;">2</text>
<text transform="matrix(1 0 0 1 -26.3695 50.2018)" style="fill:#B2B1B1; font-family:'Montserrat-Bold'; font-size:3px;">3</text>
<polygon style="fill:none;stroke:#B2B2B2;stroke-width:0.5;stroke-miterlimit:10;" points="-30.8,32.7 -30.8,58.7 -30.8,59 
	-30.6,59 -4.6,59 -4.3,59 -4.3,58.7 -4.3,32.7 -4.3,32.5 -4.6,32.5 -30.6,32.5 -30.8,32.5 "/>
<polygon style="fill:none;stroke:#B2B2B2;stroke-width:0.5;stroke-miterlimit:10;" points="-62.3,32.7 -62.3,58.7 -62.3,59 
	-62.1,59 -36.1,59 -35.8,59 -35.8,58.7 -35.8,32.7 -35.8,32.5 -36.1,32.5 -62.1,32.5 -62.3,32.5 "/>
<polygon style="fill:none;stroke:#B2B2B2;stroke-width:0.5;stroke-miterlimit:10;" points="-92.7,32.7 -92.7,58.7 -92.7,59 
	-92.4,59 -66.4,59 -66.2,59 -66.2,58.7 -66.2,32.7 -66.2,32.5 -66.4,32.5 -92.4,32.5 -92.7,32.5 "/>
<path style="fill:none;stroke:#B2B1B1;stroke-width:0.3;stroke-miterlimit:10;" d="M-40.8,50.8h-13 M-40.8,45.7h-13 M-40.8,40.6h-13
	"/>
<path style="fill:#B2B1B1;" d="M-55.9,46.3c0.2-0.2,0.2-0.3,0.2-0.6c0-0.2,0-0.3-0.1-0.4c-0.1-0.1-0.2-0.2-0.3-0.3
	c-0.1-0.1-0.3-0.1-0.4-0.1c-0.2,0-0.3,0-0.4,0.1s-0.2,0.2-0.3,0.3c-0.1,0.1-0.1,0.3-0.1,0.4c0,0.2,0.1,0.4,0.2,0.6
	c0.2,0.2,0.3,0.2,0.6,0.2C-56.2,46.5-56,46.4-55.9,46.3"/>
<path style="fill:#B2B1B1;" d="M-56.5,41.7c0.5,0,0.9-0.4,0.9-0.9c0-0.5-0.4-0.9-0.9-0.9c-0.5,0-0.9,0.4-0.9,0.9
	C-57.3,41.3-57,41.7-56.5,41.7"/>
<path style="fill:#B2B1B1;" d="M-55.9,51.3c0.2-0.2,0.2-0.3,0.2-0.6c0-0.2,0-0.3-0.1-0.4c-0.1-0.1-0.2-0.2-0.3-0.3
	c-0.1-0.1-0.3-0.1-0.4-0.1c-0.2,0-0.3,0-0.4,0.1s-0.2,0.2-0.3,0.3c-0.1,0.1-0.1,0.3-0.1,0.4c0,0.2,0.1,0.4,0.2,0.6
	c0.2,0.2,0.3,0.2,0.6,0.2C-56.2,51.5-56,51.5-55.9,51.3"/>
<path style="fill:none;stroke:#B2B1B1;stroke-width:0.3;stroke-miterlimit:10;" d="M-71.1,50.8h-13 M-71.1,45.7h-13 M-71.1,40.6h-13
	"/>
<rect x="-87.7" y="39.8" style="fill:#B2B1B1;" width="1.8" height="1.8"/>
<rect x="-87.7" y="44.8" style="fill:#B2B1B1;" width="1.8" height="1.8"/>
<rect x="-87.7" y="49.8" style="fill:#B2B1B1;" width="1.8" height="1.8"/>
<rect x="250.8" y="-35.1" style="fill:#F8F8F8;" width="245" height="57.8"/>
<text transform="matrix(1 0 0 1 325.529 -8.8823)" style="fill:#B2B1B1; font-family:'Montserrat-Regular'; font-size:13px;">N</text>
<text transform="matrix(1 0 0 1 336.007 -8.8823)" style="fill:#B2B1B1; font-family:'Montserrat-Regular'; font-size:13px;">e</text>
<text transform="matrix(1 0 0 1 343.664 -8.8823)" style="fill:#B2B1B1; font-family:'Montserrat-Regular'; font-size:13px;">u</text>
<text transform="matrix(1 0 0 1 352.282 -8.8823)" style="fill:#B2B1B1; font-family:'Montserrat-Regular'; font-size:13px;">e </text>
<text transform="matrix(1 0 0 1 363.54 -8.8823)" style="fill:#B2B1B1; font-family:'Montserrat-Regular'; font-size:13px;">T</text>
<text transform="matrix(1 0 0 1 369.91 -8.8823)" style="fill:#B2B1B1; font-family:'Montserrat-Regular'; font-size:13px;">e</text>
<text transform="matrix(1 0 0 1 377.411 -8.8823)" style="fill:#B2B1B1; font-family:'Montserrat-Regular'; font-size:13px;">x</text>
<text transform="matrix(1 0 0 1 384.626 -8.8823)" style="fill:#B2B1B1; font-family:'Montserrat-Regular'; font-size:13px;">t</text>
<text transform="matrix(1 0 0 1 389.657 -8.8823)" style="fill:#B2B1B1; font-family:'Montserrat-Regular'; font-size:13px;">b</text>
<text transform="matrix(1 0 0 1 398.471 -8.8823)" style="fill:#B2B1B1; font-family:'Montserrat-Regular'; font-size:13px;">o</text>
<text transform="matrix(1 0 0 1 406.271 -8.8823)" style="fill:#B2B1B1; font-family:'Montserrat-Regular'; font-size:13px;">x </text>
<path style="fill:none;stroke:#B2B1B1;stroke-width:0.5;" d="M373.3,12.9c3.7,0,6.7-3,6.7-6.7c0-3.7-3-6.7-6.7-6.7s-6.7,3-6.7,6.7
	C366.6,9.9,369.6,12.9,373.3,12.9z"/>
<rect x="250.8" y="-35.1" style="fill:none;" width="245" height="57.8"/>
<line style="fill:none;stroke:#B2B1B1;stroke-width:1.2;" x1="373.3" y1="2.6" x2="373.3" y2="9.7"/>
<line style="fill:none;stroke:#B2B1B1;stroke-width:1.2;" x1="369.8" y1="6.2" x2="376.9" y2="6.2"/>
<path style="fill:none;stroke:#B2B1B1;stroke-width:0.5;" d="M262.4,52.7c3.7,0,6.7-3,6.7-6.7c0-3.7-3-6.7-6.7-6.7s-6.7,3-6.7,6.7
	C255.7,49.7,258.7,52.7,262.4,52.7z"/>
<line style="fill:none;stroke:#B2B1B1;stroke-width:1.2;" x1="262.4" y1="42.5" x2="262.4" y2="49.5"/>
<line style="fill:none;stroke:#B2B1B1;stroke-width:1.2;" x1="258.8" y1="46" x2="265.9" y2="46"/>
<g>
	<path style="fill:#B2B2B2;" d="M-233.5,67.9h-3.1V66h8.5v1.8h-3.1v8h-2.3L-233.5,67.9L-233.5,67.9z"/>
	<path style="fill:#B2B2B2;" d="M-226.9,66h2.3v9.8h-2.3V66z"/>
	<path style="fill:#B2B2B2;" d="M-213.8,69.6c0,2.2-1.6,3.5-4.3,3.5h-2v2.7h-2.3V66h4.2C-215.4,66-213.8,67.4-213.8,69.6z
		 M-216.1,69.6c0-1.1-0.7-1.7-2.1-1.7h-1.8v3.4h1.8C-216.8,71.3-216.1,70.6-216.1,69.6z"/>
	<path style="fill:#B2B2B2;" d="M-203.7,69.6c0,2.2-1.6,3.5-4.3,3.5h-2v2.7h-2.3V66h4.2C-205.3,66-203.7,67.4-203.7,69.6z
		 M-206,69.6c0-1.1-0.7-1.7-2.1-1.7h-1.8v3.4h1.8C-206.7,71.3-206,70.6-206,69.6z"/>
</g>
<path style="fill:#B2B2B2;" d="M-270.1,61.5L-270.1,61.5c-1.1,2.5-2,4.6-2.9,6.8h5.7C-268.3,66.1-269.1,64-270.1,61.5 M-266.7,79.1
	L-266.7,79.1c-0.3-1.2-0.2-1.8,1-1.8c1,0,1.3-0.7,1-1.6c-0.5-1.4-1.1-2.8-1.7-4.2c-0.1-0.2-0.5-0.5-0.8-0.5c-2.1,0-4.3,0-6.4,0
	c-0.3,0-0.7,0.3-0.9,0.6c-0.6,1.2-1.1,2.3-1.5,3.5c-0.6,1.5-0.3,2,1.3,2.2c0.8,0.1,1.2,0.3,1,1.1c-0.1,0.2-0.4,0.6-0.5,0.6
	c-2.5,0-5,0-7.6,0c-0.2-1-0.3-1.6,0.9-1.9c0.6-0.1,1.2-0.6,1.5-1.1c0.8-1.3,1.4-2.7,2-4c2.4-5.6,4.8-11.1,7.2-16.7
	c0.2-0.4,0.6-0.7,1-1c0.3,0.3,0.8,0.6,0.9,1c2.6,6,5.1,12.1,7.6,18.2c0.3,0.8,0.7,1.5,1.1,2.3c0.5,0.9,1.3,1.4,2.4,1.6
	c0.3,0.1,0.5,0.6,0.6,1c0,0.2-0.4,0.6-0.6,0.6C-260.3,79.1-263.5,79.1-266.7,79.1"/>
<path style="fill:#B2B1B1;" d="M-172.9,71.6c2.7,0,4.8-2,4.8-4.6c0-2.4-2.2-4.4-4.7-4.4c-2.7,0-4.8,2-4.8,4.6
	C-177.7,69.6-175.5,71.6-172.9,71.6 M-167.4,71.6L-167.4,71.6c0.4-0.2,0.6-0.2,0.9,0.1c1.2,1.2,2.5,2.4,3.8,3.5
	c0.1,0.1,0.2,0.2,0.3,0.2c0.2,0.2,0.2,0.5,0,0.7c-0.2,0.2-0.5,0.5-0.8,0.7c-0.3,0.3-0.5,0.3-0.9,0c-1.2-1.1-2.3-2.2-3.5-3.3
	c-0.1-0.1-0.3-0.2-0.4-0.4c-0.4-0.3-0.4-0.5-0.2-0.9c-0.4-0.3-0.7-0.7-1.1-1c-1.5,1.1-3.2,1.5-5,1.1c-1.4-0.3-2.5-1.1-3.4-2.2
	c-1.6-2.2-1.3-5.3,0.8-7.1c2.2-1.9,5.5-1.9,7.7-0.1c2.2,1.8,2.8,5.1,0.7,7.6C-168.1,70.9-167.7,71.2-167.4,71.6"/>
<path style="fill:none;stroke:#FFFFFF;stroke-width:1.000000e-03;" d="M-172.9,71.6c2.7,0,4.8-2,4.8-4.6c0-2.4-2.2-4.4-4.7-4.4
	c-2.7,0-4.8,2-4.8,4.6C-177.7,69.6-175.5,71.6-172.9,71.6z M-167.4,71.6L-167.4,71.6c0.4-0.2,0.6-0.2,0.9,0.1
	c1.2,1.2,2.5,2.4,3.8,3.5c0.1,0.1,0.2,0.2,0.3,0.2c0.2,0.2,0.2,0.5,0,0.7c-0.2,0.2-0.5,0.5-0.8,0.7c-0.3,0.3-0.5,0.3-0.9,0
	c-1.2-1.1-2.3-2.2-3.5-3.3c-0.1-0.1-0.3-0.2-0.4-0.4c-0.4-0.3-0.4-0.5-0.2-0.9c-0.4-0.3-0.7-0.7-1.1-1c-1.5,1.1-3.2,1.5-5,1.1
	c-1.4-0.3-2.5-1.1-3.4-2.2c-1.6-2.2-1.3-5.3,0.8-7.1c2.2-1.9,5.5-1.9,7.7-0.1c2.2,1.8,2.8,5.1,0.7,7.6
	C-168.1,70.9-167.7,71.2-167.4,71.6z"/>
<path style="fill:#B2B1B1;" d="M-109.2,62l3,3v-2.8c0-0.1-0.1-0.2-0.1-0.3l-3.8-3.8c-0.1-0.1-0.2-0.1-0.2,0l-3.9,3.9v2.8
	c0,0.1,0.1,0.1,0.1,0.1l2.8-2.9c0.1-0.1,0.1,0,0.1,0v7.8l0,0V72c0,0.1-0.1,0.1-0.1,0.1l-3-3v2.8c0,0.1,0.1,0.2,0.1,0.3l3.8,3.8
	c0.1,0.1,0.2,0.1,0.2,0l3.9-3.9v-2.8c0-0.1-0.1-0.1-0.1-0.1l-2.8,2.9c-0.1,0.1-0.1,0-0.1-0.1v-7.8l0,0v-2.2
	C-109.3,62-109.3,61.9-109.2,62z"/>
<line style="fill:none;stroke:#B2B1B1;stroke-width:1.712;" x1="-145.3" y1="75.2" x2="-117.5" y2="75.2"/>
<line style="fill:none;stroke:#B2B1B1;stroke-width:1.712;" x1="-145.3" y1="66.9" x2="-117.5" y2="66.9"/>
<line style="fill:none;stroke:#B2B1B1;stroke-width:1.712;" x1="-145.3" y1="59" x2="-117.5" y2="59"/>
<line style="fill:none;stroke:#B2B1B1;stroke-width:1.712;" x1="-131" y1="94.2" x2="-131" y2="115.2"/>
<path style="fill:#B2B1B1;" d="M-123.5,108.1L-123.5,108.1h2.7l-2.6-2.6c-0.1-0.1-0.1-0.2,0.1-0.2h7v-1.4c0-0.2-0.2-0.3-0.3-0.3
	h-6.7c-0.2,0-0.2-0.1-0.1-0.2l2.6-2.6h-2.3c-0.2,0-0.5,0.1-0.6,0.2l-3.2,3.2c-0.1,0.1-0.1,0.4,0,0.5L-123.5,108.1z"/>
<path style="fill:#B2B1B1;" d="M-139.3,100.8L-139.3,100.8h-2.7l2.6,2.6c0.1,0.1,0.1,0.2-0.1,0.2h-7v1.4c0,0.2,0.2,0.3,0.4,0.3h6.7
	c0.2,0,0.2,0.1,0.1,0.2l-2.6,2.6h2.3c0.2,0,0.5-0.1,0.6-0.2l3.2-3.2c0.1-0.1,0.1-0.4,0-0.5L-139.3,100.8z"/>
<line style="fill:none;stroke:#B2B1B1;stroke-width:2;" x1="185.3" y1="-24.9" x2="149.3" y2="-24.9"/>
<path style="fill:#AD5E7A;" d="M176.8-21.8c2,0,3.7-1.7,3.7-3.7s-1.7-3.7-3.7-3.7s-3.7,1.7-3.7,3.7S174.7-21.8,176.8-21.8"/>
<g>
	<path style="fill:#B2B1B1;" d="M200-24.7c0,3.1-1.8,4.8-4.5,4.8c-0.9,0-1.8-0.2-2.4-0.6l0.6-1.3c0.5,0.3,1.1,0.4,1.7,0.4
		c1.7,0,2.8-1.1,2.8-3.1v0c-0.5,0.6-1.4,0.9-2.4,0.9c-1.8,0-3.1-1.1-3.1-2.8c0-1.8,1.5-3,3.3-3C198.5-29.2,200-27.6,200-24.7z
		 M198-26.4c0-0.9-0.7-1.5-1.9-1.5c-1.1,0-1.8,0.6-1.8,1.5s0.7,1.5,1.8,1.5C197.3-24.8,198-25.5,198-26.4z"/>
	<path style="fill:#B2B1B1;" d="M207.9-22.8c0,1.6-1.2,2.9-3.6,2.9c-1.3,0-2.6-0.4-3.4-1.1l0.7-1.3c0.7,0.5,1.7,0.9,2.7,0.9
		c1.2,0,1.9-0.5,1.9-1.4c0-0.9-0.6-1.4-2.4-1.4h-2.2l0.5-5h5.3v1.4h-3.9l-0.2,2.1h0.9C206.8-25.6,207.9-24.4,207.9-22.8z"/>
	<path style="fill:#B2B1B1;" d="M212.3-26.7c0-1.5,0.9-2.5,2.2-2.5s2.2,1,2.2,2.5s-0.9,2.5-2.2,2.5S212.3-25.2,212.3-26.7z
		 M215.6-26.7c0-1-0.4-1.6-1.1-1.6c-0.7,0-1.1,0.6-1.1,1.6s0.4,1.6,1.1,1.6C215.1-25.1,215.6-25.7,215.6-26.7z M219.9-29.1h1.3
		L215-20h-1.3L219.9-29.1z M218.2-22.4c0-1.5,0.9-2.5,2.2-2.5s2.2,1,2.2,2.5s-0.9,2.5-2.2,2.5C219.1-19.9,218.2-20.9,218.2-22.4z
		 M221.5-22.4c0-1-0.4-1.6-1.1-1.6s-1.1,0.6-1.1,1.6c0,1,0.4,1.6,1.1,1.6S221.5-21.4,221.5-22.4z"/>
</g>
<rect x="163.2" y="29.2" style="fill:#FFFFFF;" width="13.1" height="16.8"/>
<polygon style="fill:none;stroke:#B2B1B1;stroke-width:0.941;" points="163.2,46 163.2,46 176.4,46 176.4,29.2 163.2,29.2 "/>
<rect x="155.6" y="28.8" style="fill:none;" width="21.3" height="24"/>
<line style="fill:none;stroke:#B2B1B1;stroke-width:0.941;stroke-dasharray:1.889,1.889;" x1="160.1" y1="36.9" x2="160.1" y2="47.3"/>
<line style="fill:none;stroke:#B2B1B1;stroke-width:0.941;stroke-dasharray:1.754,1.754;" x1="162.7" y1="49.2" x2="172.3" y2="49.2"/>
<path style="fill:none;stroke:#B2B1B1;stroke-width:0.941;" d="M173.2,49.2h0.9 M160.1,48.3v0.9h0.9 M160.1,34.1V35"/>
<polyline style="fill:none;stroke:#B2B1B1;stroke-width:0.941;" points="156,37.2 156,52.3 170.1,52.3 "/>
<rect x="155.6" y="28.8" style="fill:none;" width="21.3" height="24"/>
<rect x="194.8" y="29.2" style="fill:#FFFFFF;" width="14.7" height="18.7"/>
<polygon style="fill:none;stroke:#B2B1B1;stroke-width:0.804;" points="194.8,47.9 194.8,47.9 209.5,47.9 209.5,29.2 194.8,29.2 "/>
<rect x="194.4" y="28.8" style="fill:none;" width="19.9" height="24"/>
<rect x="199.2" y="33.7" style="fill:#B2B1B1;" width="14.7" height="18.7"/>
<polygon style="fill:none;stroke:#FFFFFF;stroke-width:0.804;" points="199.2,52.4 199.2,52.4 213.9,52.4 213.9,33.7 199.2,33.7 "/>
<rect x="194.4" y="28.8" style="fill:none;" width="19.9" height="24"/>
<rect x="95.9" y="32.7" style="fill:#0E6899;" width="34.9" height="19.6"/>
<text transform="matrix(1 0 0 1 102.91 47.3692)" style="fill:#FFFFFF; font-family:'Montserrat-Regular'; font-size:13px;">e</text>
<text transform="matrix(1 0 0 1 110.32 47.3692)" style="fill:#FFFFFF; font-family:'Montserrat-Regular'; font-size:13px;">i</text>
<text transform="matrix(1 0 0 1 113.245 47.3692)" style="fill:#FFFFFF; font-family:'Montserrat-Regular'; font-size:13px;">n</text>
<polygon style="fill:none;stroke:#B2B2B2;stroke-width:0.5;stroke-miterlimit:10;" points="60.9,32.6 60.9,52.6 60.9,52.8 
	61.2,52.8 130,52.8 130.3,52.8 130.3,52.6 130.3,32.6 130.3,32.3 130,32.3 61.2,32.3 60.9,32.3 "/>
<rect x="60.7" y="32.1" style="fill:none;" width="70.2" height="21"/>
<line style="fill:none;stroke:#B2B1B1;stroke-width:2.5;" x1="202" y1="122.2" x2="202" y2="146.5"/>
<path style="fill:#B2B1B1;" d="M210.1,138.1L210.1,138.1h2.6l-2.5-2.5c-0.1-0.1-0.1-0.2,0.1-0.2h6.7V134c0-0.2-0.2-0.4-0.4-0.4h-6.7
	l2.7-2.7h-2.2c-0.2,0-0.5,0.1-0.6,0.2l-3.1,3.1c-0.1,0.1-0.1,0.4,0,0.5L210.1,138.1z"/>
<line style="fill:none;stroke:#B2B1B1;stroke-width:2.5;" x1="175" y1="146.3" x2="175" y2="122.1"/>
<path style="fill:#B2B1B1;" d="M166.9,130.5L166.9,130.5h-2.6l2.5,2.5c0.1,0.1,0.1,0.2-0.1,0.2H160v1.3c0,0.2,0.2,0.4,0.4,0.4h6.7
	l-2.7,2.7h2.2c0.2,0,0.5-0.1,0.6-0.2l3.1-3.1c0.1-0.1,0.1-0.4,0-0.5L166.9,130.5z"/>
<line style="fill:none;stroke:#B2B1B1;stroke-width:2.5;" x1="-14.7" y1="130.1" x2="9.5" y2="130.1"/>
<path style="fill:#B2B1B1;" d="M0.9,122L0.9,122v-2.6l-2.5,2.5c-0.1,0.1-0.2,0.1-0.2-0.1v-6.7h-1.3c-0.2,0-0.3,0.2-0.3,0.3v6.7
	l-2.7-2.7v2.2c0,0.2,0.1,0.5,0.2,0.6l3.1,3.1c0.1,0.1,0.4,0.1,0.5,0L0.9,122z"/>
<path style="fill:#B2B1B1;" d="M-6,137.2L-6,137.2v2.6l2.5-2.5c0.1-0.1,0.2-0.1,0.2,0.1v6.7H-2c0.2,0,0.4-0.2,0.4-0.4V137l2.7,2.7
	v-2.2c0-0.2-0.1-0.5-0.2-0.6l-3.1-3.1c-0.1-0.1-0.4-0.1-0.5,0L-6,137.2z"/>
<line style="fill:none;stroke:#B2B1B1;stroke-width:2.5;" x1="41.7" y1="142.9" x2="41.7" y2="118.7"/>
<path style="fill:#B2B1B1;" d="M33.7,127.3L33.7,127.3h-2.6l2.5,2.5c0.1,0.1,0.1,0.2-0.1,0.2h-6.7v1.3c0,0.2,0.2,0.4,0.4,0.4h6.7
	l-2.7,2.7h2.2c0.2,0,0.5-0.1,0.6-0.2l3.1-3.1c0.1-0.1,0.1-0.4,0-0.5L33.7,127.3z"/>
<path style="fill:#B2B1B1;" d="M48.8,134.2L48.8,134.2h2.6l-2.5-2.5c-0.1-0.1-0.1-0.2,0.1-0.2h6.7v-1.3c0-0.2-0.2-0.4-0.3-0.4h-6.7
	l2.7-2.7h-2.2c-0.2,0-0.5,0.1-0.6,0.2l-3.1,3.1c-0.1,0.1-0.1,0.4,0,0.5L48.8,134.2z"/>
<line style="fill:none;stroke:#B2B1B1;stroke-width:2.5;" x1="73.9" y1="130.4" x2="98.1" y2="130.4"/>
<path style="fill:#B2B1B1;" d="M82.6,137.5L82.6,137.5v2.6l2.5-2.5c0.1-0.1,0.2-0.1,0.2,0.1v6.7h1.3c0.2,0,0.3-0.2,0.3-0.4v-6.7
	l2.7,2.7v-2.2c0-0.2-0.1-0.5-0.2-0.6l-3.1-3.1c-0.1-0.1-0.4-0.1-0.5,0L82.6,137.5z"/>
<line style="fill:none;stroke:#B2B1B1;stroke-width:2.5;" x1="119" y1="141.6" x2="143.2" y2="141.6"/>
<path style="fill:#B2B1B1;" d="M134.8,133.3L134.8,133.3v-2.6l-2.5,2.5c-0.1,0.1-0.2,0.1-0.2-0.1v-6.7h-1.3c-0.2,0-0.4,0.2-0.4,0.3
	v6.7l-2.7-2.7v2.2c0,0.2,0.1,0.5,0.2,0.6l3.1,3.1c0.1,0.1,0.4,0.1,0.5,0L134.8,133.3z"/>
<rect x="264.8" y="114.7" style="fill:#FFFFFF;" width="15.8" height="20.1"/>
<line style="fill:none;stroke:#B2B1B1;stroke-width:0.941;stroke-dasharray:1.971,1.971;" x1="267.8" y1="134.8" x2="278.6" y2="134.8"/>
<line style="fill:none;stroke:#B2B1B1;stroke-width:0.941;stroke-dasharray:2.006,2.006;" x1="280.6" y1="131.8" x2="280.6" y2="116.7"/>
<line style="fill:none;stroke:#B2B1B1;stroke-width:0.941;stroke-dasharray:1.971,1.971;" x1="277.7" y1="114.7" x2="266.8" y2="114.7"/>
<line style="fill:none;stroke:#B2B1B1;stroke-width:0.941;stroke-dasharray:2.006,2.006;" x1="264.8" y1="117.7" x2="264.8" y2="132.8"/>
<path style="fill:none;stroke:#B2B1B1;stroke-width:0.941;" d="M264.8,133.8v1h1 M265.8,114.7h-1v1 M280.6,115.7v-1h-1 M279.6,134.8
	h1v-1"/>
<polygon style="fill:#FFFFFF;" points="253.6,144.8 253.6,144.8 269.4,144.8 269.4,124.7 253.6,124.7 "/>
<line style="fill:none;stroke:#B2B1B1;stroke-width:0.941;stroke-dasharray:1.971,1.971;" x1="256.6" y1="144.8" x2="267.4" y2="144.8"/>
<line style="fill:none;stroke:#B2B1B1;stroke-width:0.941;stroke-dasharray:2.006,2.006;" x1="269.4" y1="141.8" x2="269.4" y2="126.7"/>
<line style="fill:none;stroke:#B2B1B1;stroke-width:0.941;stroke-dasharray:1.971,1.971;" x1="266.4" y1="124.7" x2="255.6" y2="124.7"/>
<line style="fill:none;stroke:#B2B1B1;stroke-width:0.941;stroke-dasharray:2.006,2.006;" x1="253.6" y1="127.7" x2="253.6" y2="142.8"/>
<path style="fill:none;stroke:#B2B1B1;stroke-width:0.941;" d="M253.6,143.8v1h1 M254.6,124.7h-1v1 M269.4,125.7v-1h-1 M268.4,144.8
	h1v-1"/>
<polygon style="fill:#FFFFFF;" points="244.1,152.8 244.1,152.8 259.9,152.8 259.9,132.7 244.1,132.7 "/>
<polygon style="fill:none;stroke:#B2B1B1;stroke-width:0.941;" points="244.1,152.8 244.1,152.8 259.9,152.8 259.9,132.7 
	244.1,132.7 "/>
<g>
	<polygon style="fill:#FFFFFF;" points="318,139.1 318,139.1 333.7,139.1 333.7,119 318,119 	"/>
	<polygon style="fill:none;stroke:#B2B1B1;stroke-width:0.941;" points="318,139.1 318,139.1 333.7,139.1 333.7,119 318,119 	"/>
	
		<line style="fill:none;stroke:#B2B1B1;stroke-width:0.941;stroke-dasharray:1.801,1.801;" x1="314.2" y1="127.6" x2="314.2" y2="141.1"/>
	
		<line style="fill:none;stroke:#B2B1B1;stroke-width:0.941;stroke-dasharray:2.091,2.091;" x1="317.3" y1="142.9" x2="328.8" y2="142.9"/>
	<path style="fill:none;stroke:#B2B1B1;stroke-width:0.941;" d="M329.9,142.9h1 M314.2,142v0.9h1 M314.2,124.9v0.9"/>
</g>
<g>
	<g>
		<rect x="390.5" y="107.3" style="fill:#FFFFFF;" width="15.8" height="20.1"/>
		<polygon style="fill:none;stroke:#B2B1B1;stroke-width:0.941;" points="390.5,127.4 390.5,127.4 406.3,127.4 406.3,107.3 
			390.5,107.3 		"/>
		<polygon style="fill:#FFFFFF;" points="379.3,137.4 379.3,137.4 395,137.4 395,117.3 379.3,117.3 		"/>
		
			<line style="fill:none;stroke:#B2B1B1;stroke-width:0.941;stroke-dasharray:1.971,1.971;" x1="382.2" y1="137.4" x2="393.1" y2="137.4"/>
		
			<line style="fill:none;stroke:#B2B1B1;stroke-width:0.941;stroke-dasharray:2.006,2.006;" x1="395" y1="134.3" x2="395" y2="119.3"/>
		
			<line style="fill:none;stroke:#B2B1B1;stroke-width:0.941;stroke-dasharray:1.971,1.971;" x1="392.1" y1="117.3" x2="381.2" y2="117.3"/>
		
			<line style="fill:none;stroke:#B2B1B1;stroke-width:0.941;stroke-dasharray:2.006,2.006;" x1="379.3" y1="120.3" x2="379.3" y2="135.4"/>
		<path style="fill:none;stroke:#B2B1B1;stroke-width:0.941;" d="M379.3,136.4v1h1 M380.3,117.3h-1v1 M395,118.3v-1h-1 M394.1,137.4
			h1v-1"/>
		<polygon style="fill:#FFFFFF;" points="369.8,145.4 369.8,145.4 385.6,145.4 385.6,125.3 369.8,125.3 		"/>
		
			<line style="fill:none;stroke:#B2B1B1;stroke-width:0.941;stroke-dasharray:1.971,1.971;" x1="372.8" y1="145.4" x2="383.6" y2="145.4"/>
		
			<line style="fill:none;stroke:#B2B1B1;stroke-width:0.941;stroke-dasharray:2.006,2.006;" x1="385.6" y1="142.3" x2="385.6" y2="127.3"/>
		
			<line style="fill:none;stroke:#B2B1B1;stroke-width:0.941;stroke-dasharray:1.971,1.971;" x1="382.6" y1="125.3" x2="371.8" y2="125.3"/>
		
			<line style="fill:none;stroke:#B2B1B1;stroke-width:0.941;stroke-dasharray:2.006,2.006;" x1="369.8" y1="128.3" x2="369.8" y2="143.4"/>
		<path style="fill:none;stroke:#B2B1B1;stroke-width:0.941;" d="M369.8,144.4v1h1 M370.8,125.3h-1v1 M385.6,126.3v-1h-1
			 M384.6,145.4h1v-1"/>
	</g>
	
		<line style="fill:none;stroke:#B2B1B1;stroke-width:0.941;stroke-dasharray:1.971,1.971;" x1="445.9" y1="140.8" x2="456.8" y2="140.8"/>
	
		<line style="fill:none;stroke:#B2B1B1;stroke-width:0.941;stroke-dasharray:2.006,2.006;" x1="458.7" y1="137.8" x2="458.7" y2="122.8"/>
	
		<line style="fill:none;stroke:#B2B1B1;stroke-width:0.941;stroke-dasharray:1.971,1.971;" x1="455.8" y1="120.8" x2="444.9" y2="120.8"/>
	
		<line style="fill:none;stroke:#B2B1B1;stroke-width:0.941;stroke-dasharray:2.006,2.006;" x1="443" y1="123.8" x2="443" y2="138.8"/>
	<path style="fill:none;stroke:#B2B1B1;stroke-width:0.941;" d="M443,139.8v1h1 M444,120.8h-1v1 M458.7,121.8v-1h-1 M457.7,140.8h1
		v-1"/>
	<polyline style="fill:none;stroke:#B2B1B1;stroke-width:0.941;" points="439.2,126.6 439.2,144.6 455.9,144.6 	"/>
</g>
<g>
	<g>
		<defs>
			<rect id="SVGID_1_" x="-316.1" y="234.7" width="241.7" height="1"/>
		</defs>
		<clipPath id="SVGID_00000140012567926841595750000004075327218858378402_">
			<use xlink:href="#SVGID_1_"  style="overflow:visible;"/>
		</clipPath>
		
			<line style="clip-path:url(#SVGID_00000140012567926841595750000004075327218858378402_);fill:none;stroke:#B2B2B2;stroke-linecap:round;stroke-linejoin:round;stroke-dasharray:0,3.009;" x1="-312.6" y1="235.2" x2="-76.4" y2="235.2"/>
	</g>
	<g>
		<defs>
			<rect id="SVGID_00000125573571160981903700000011416105619242603945_" x="-316.1" y="234.7" width="241.7" height="1"/>
		</defs>
		<clipPath id="SVGID_00000152243672410387159360000003489335014591097789_">
			<use xlink:href="#SVGID_00000125573571160981903700000011416105619242603945_"  style="overflow:visible;"/>
		</clipPath>
		
			<path style="clip-path:url(#SVGID_00000152243672410387159360000003489335014591097789_);fill:none;stroke:#B2B2B2;stroke-linecap:round;stroke-linejoin:round;" d="
			M-74.9,235.2L-74.9,235.2 M-315.6,235.2L-315.6,235.2"/>
	</g>
</g>
<circle style="fill:none;stroke:#4F4D4D;stroke-width:0.5;" cx="-269.2" cy="14" r="12.8"/>
<polygon style="fill:#0E689A;" points="-125.8,-1.1 -138.8,-1.1 -132.4,9.4 "/>
<polygon style="fill:#B2B1B1;" points="-117.8,127.5 -128.2,133.9 -117.8,140.5 "/>
<polygon style="fill:#B2B1B1;" points="-146.8,140.5 -136.3,134.1 -146.8,127.5 "/>
<polygon style="fill:#B2B1B1;" points="-64.3,127.5 -74.7,133.9 -64.3,140.5 "/>
<polygon style="fill:#B2B1B1;" points="-99.4,140.5 -89,134.1 -99.4,127.5 "/>
<rect x="60.8" y="-1" style="fill:#0E6899;" width="34.9" height="19.6"/>
<polygon style="fill:none;stroke:#B2B2B2;stroke-width:0.5;stroke-miterlimit:10;" points="61.1,-1.2 61.1,18.8 61.1,19.1 
	61.3,19.1 130.2,19.1 130.4,19.1 130.4,18.8 130.4,-1.2 130.4,-1.4 130.2,-1.4 61.3,-1.4 61.1,-1.4 "/>
<rect x="60.8" y="-1.7" style="fill:none;" width="69.8" height="21"/>
<rect x="96.2" y="65" style="fill:#0E6899;" width="34.9" height="19.6"/>
<polygon style="fill:none;stroke:#B2B2B2;stroke-width:0.5;stroke-miterlimit:10;" points="61.2,64.9 61.2,84.9 61.2,85.1 
	61.4,85.1 130.3,85.1 130.5,85.1 130.5,84.9 130.5,64.9 130.5,64.6 130.3,64.6 61.4,64.6 61.2,64.6 "/>
<rect x="60.9" y="64.4" style="fill:none;" width="70.2" height="21"/>
<line style="fill:none;stroke:#B2B1B1;stroke-width:2;" x1="184.2" y1="-5.1" x2="148.2" y2="-5.1"/>
<path style="fill:#AD5E7A;" d="M175.7-2c2,0,3.7-1.7,3.7-3.7s-1.7-3.7-3.7-3.7S172-7.7,172-5.7S173.7-2,175.7-2"/>
<line style="fill:none;stroke:#B2B1B1;stroke-width:2;" x1="492.5" y1="25.7" x2="456.5" y2="25.7"/>
<path style="fill:#AD5E7A;" d="M484,28.8c2,0,3.7-1.7,3.7-3.7s-1.7-3.7-3.7-3.7s-3.7,1.7-3.7,3.7S482,28.8,484,28.8"/>
</svg>
