<?xml version="1.0" encoding="utf-8"?>
<!-- Generator: Adobe Illustrator 26.5.0, SVG Export Plug-In . SVG Version: 6.00 Build 0)  -->
<svg version="1.1" id="Ebene_1" xmlns="http://www.w3.org/2000/svg" xmlns:xlink="http://www.w3.org/1999/xlink" x="0px" y="0px"
	 width="27px" height="27px" viewBox="0 0 27 27" style="enable-background:new 0 0 27 27;" xml:space="preserve">
<polyline style="fill:none;stroke:#C5C5C5;stroke-width:3;stroke-linecap:round;stroke-linejoin:round;" points="1784.9,940.6 
	1778.6,931.6 1771.9,940.6 "/>
<circle style="fill:#FFAEFF;stroke:#4F4D4D;stroke-width:0.5;" cx="-207" cy="-22.1" r="12.8"/>
<rect x="-174.6" y="-33.1" style="fill:#F8F8F8;" width="119.9" height="21"/>
<polygon style="fill:#0E689A;" points="-63.8,-27.9 -76.8,-27.9 -70.4,-17.4 "/>
<g>
	<g>
		<line style="fill:none;stroke:#B2B1B1;stroke-width:0.65;stroke-miterlimit:10;" x1="49.3" y1="-15.6" x2="59.5" y2="-15.6"/>
		<g>
			<path style="fill:#B2B1B1;" d="M50.5-20.8V-26h1.3v5.1c0,2,0.9,2.9,2.6,2.9s2.6-0.9,2.6-2.9V-26h1.3v5.2c0,2.6-1.4,4-3.8,4
				C52-16.8,50.5-18.2,50.5-20.8z"/>
		</g>
	</g>
	<polygon style="fill:none;stroke:#B2B2B2;stroke-width:0.5;stroke-miterlimit:10;" points="41.2,-33.8 41.2,-7.8 41.2,-7.6 
		41.4,-7.6 67.4,-7.6 67.7,-7.6 67.7,-7.8 67.7,-33.8 67.7,-34.1 67.4,-34.1 41.4,-34.1 41.2,-34.1 	"/>
</g>
<g>
	<g>
		<path style="fill:#B2B1B1;" d="M19.8-25.7h1.3l-1.8,9.1H18L19.8-25.7z"/>
	</g>
	<polygon style="fill:none;stroke:#B2B2B2;stroke-width:0.5;stroke-miterlimit:10;" points="6.3,-34.2 6.3,-8.2 6.3,-7.9 6.5,-7.9 
		32.5,-7.9 32.8,-7.9 32.8,-8.2 32.8,-34.2 32.8,-34.4 32.5,-34.4 6.5,-34.4 6.3,-34.4 	"/>
</g>
<g>
	<g>
		<path style="fill:#B2B1B1;" d="M-13.3-19.1c0,1.6-1.2,2.5-3.6,2.5h-4.7v-9.1h4.4c2.3,0,3.4,0.9,3.4,2.4c0,0.9-0.5,1.6-1.2,2
			C-14-21-13.3-20.2-13.3-19.1z M-19.6-24.1v2.1h2.1c1,0,1.6-0.4,1.6-1.1s-0.6-1.1-1.6-1.1L-19.6-24.1L-19.6-24.1z M-15.5-19.3
			c0-0.8-0.6-1.1-1.7-1.1h-2.5v2.2h2.5C-16.1-18.2-15.5-18.5-15.5-19.3z"/>
	</g>
	<polygon style="fill:none;stroke:#B2B2B2;stroke-width:0.5;stroke-miterlimit:10;" points="-30.8,-34.1 -30.8,-8.1 -30.8,-7.9 
		-30.5,-7.9 -4.5,-7.9 -4.3,-7.9 -4.3,-8.1 -4.3,-34.1 -4.3,-34.4 -4.5,-34.4 -30.5,-34.4 -30.8,-34.4 	"/>
</g>
<path style="fill:none;stroke:#B2B1B1;stroke-width:0.3;stroke-miterlimit:10;" d="M23.4,7.8"/>
<path style="fill:none;stroke:#B2B1B1;stroke-width:0.3;stroke-miterlimit:10;" d="M20.9,9.1"/>
<path style="fill:none;stroke:#B2B1B1;stroke-width:0.3;stroke-miterlimit:10;" d="M20.9,10.3"/>
<path style="fill:none;stroke:#B2B1B1;stroke-width:0.3;stroke-miterlimit:10;" d="M20.9,11.6"/>
<path style="fill:none;stroke:#B2B1B1;stroke-width:0.3;stroke-miterlimit:10;" d="M23.4,12.8"/>
<path style="fill:none;stroke:#B2B1B1;stroke-width:0.3;stroke-miterlimit:10;" d="M23.4,14.1"/>
<path style="fill:none;stroke:#B2B1B1;stroke-width:0.3;stroke-miterlimit:10;" d="M20.9,15.3"/>
<path style="fill:none;stroke:#B2B1B1;stroke-width:0.3;stroke-miterlimit:10;" d="M20.9,17.8"/>
<path style="fill:none;stroke:#B2B1B1;stroke-width:0.3;stroke-miterlimit:10;" d="M23.4,20.3"/>
<g>
	<path style="fill:none;stroke:#B2B1B1;stroke-width:0.3;stroke-miterlimit:10;" d="M4,12.8"/>
	<path style="fill:none;stroke:#B2B1B1;stroke-width:0.3;stroke-miterlimit:10;" d="M4,7.8"/>
	<path style="fill:none;stroke:#B2B1B1;stroke-width:0.3;stroke-miterlimit:10;" d="M4,20.3"/>
	<path style="fill:none;stroke:#B2B1B1;stroke-width:0.3;stroke-miterlimit:10;" d="M4,14.1"/>
	<g>
		<path style="fill:none;stroke:#B2B1B1;stroke-width:0.3;stroke-miterlimit:10;" d="M6,15.3"/>
		<path style="fill:none;stroke:#B2B1B1;stroke-width:0.3;stroke-miterlimit:10;" d="M6,11.6"/>
		<path style="fill:none;stroke:#B2B1B1;stroke-width:0.3;stroke-miterlimit:10;" d="M6,10.3"/>
		<path style="fill:none;stroke:#B2B1B1;stroke-width:0.3;stroke-miterlimit:10;" d="M6,9.1"/>
		<line style="fill:none;stroke:#B2B1B1;stroke-width:0.3;stroke-miterlimit:10;" x1="3.6" y1="19.6" x2="23" y2="19.6"/>
		<line style="fill:none;stroke:#B2B1B1;stroke-width:0.3;stroke-miterlimit:10;" x1="3.6" y1="18.3" x2="18.5" y2="18.3"/>
		<line style="fill:none;stroke:#B2B1B1;stroke-width:0.3;stroke-miterlimit:10;" x1="3.6" y1="17" x2="18.5" y2="17"/>
		<line style="fill:none;stroke:#B2B1B1;stroke-width:0.3;stroke-miterlimit:10;" x1="3.6" y1="15.7" x2="18.5" y2="15.7"/>
		<line style="fill:none;stroke:#B2B1B1;stroke-width:0.3;stroke-miterlimit:10;" x1="3.6" y1="14.5" x2="23" y2="14.5"/>
		<line style="fill:none;stroke:#B2B1B1;stroke-width:0.3;stroke-miterlimit:10;" x1="3.6" y1="13.2" x2="23" y2="13.2"/>
		<line style="fill:none;stroke:#B2B1B1;stroke-width:0.3;stroke-miterlimit:10;" x1="3.7" y1="11.9" x2="18.5" y2="11.9"/>
		<line style="fill:none;stroke:#B2B1B1;stroke-width:0.3;stroke-miterlimit:10;" x1="3.6" y1="10.6" x2="23" y2="10.6"/>
		<line style="fill:none;stroke:#B2B1B1;stroke-width:0.3;stroke-miterlimit:10;" x1="3.6" y1="9.3" x2="18.5" y2="9.3"/>
		<line style="fill:none;stroke:#B2B1B1;stroke-width:0.3;stroke-miterlimit:10;" x1="3.6" y1="8.1" x2="18.5" y2="8.1"/>
		<line style="fill:none;stroke:#B2B1B1;stroke-width:0.3;stroke-miterlimit:10;" x1="3.6" y1="6.8" x2="23" y2="6.8"/>
	</g>
	<polygon style="fill:none;stroke:#AD5E7A;stroke-width:0.5;stroke-miterlimit:10;" points="0.2,0.5 0.2,26.5 0.2,26.7 0.5,26.7 
		26.5,26.7 26.7,26.7 26.7,26.5 26.7,0.5 26.7,0.3 26.5,0.3 0.5,0.3 0.2,0.3 	"/>
</g>
<g>
	<line style="fill:none;stroke:#B2B1B1;stroke-width:0.3;stroke-miterlimit:10;" x1="54.3" y1="7.1" x2="34.8" y2="7.1"/>
	<line style="fill:none;stroke:#B2B1B1;stroke-width:0.3;stroke-miterlimit:10;" x1="51.8" y1="8.4" x2="36.9" y2="8.4"/>
	<line style="fill:none;stroke:#B2B1B1;stroke-width:0.3;stroke-miterlimit:10;" x1="51.8" y1="9.7" x2="36.9" y2="9.7"/>
	<line style="fill:none;stroke:#B2B1B1;stroke-width:0.3;stroke-miterlimit:10;" x1="51.8" y1="10.9" x2="36.9" y2="10.9"/>
	<line style="fill:none;stroke:#B2B1B1;stroke-width:0.3;stroke-miterlimit:10;" x1="54.3" y1="12.2" x2="34.8" y2="12.2"/>
	<line style="fill:none;stroke:#B2B1B1;stroke-width:0.3;stroke-miterlimit:10;" x1="54.3" y1="13.5" x2="34.8" y2="13.5"/>
	<line style="fill:none;stroke:#B2B1B1;stroke-width:0.3;stroke-miterlimit:10;" x1="51.8" y1="14.8" x2="36.9" y2="14.8"/>
	<line style="fill:none;stroke:#B2B1B1;stroke-width:0.3;stroke-miterlimit:10;" x1="54.3" y1="16.1" x2="34.8" y2="16.1"/>
	<line style="fill:none;stroke:#B2B1B1;stroke-width:0.3;stroke-miterlimit:10;" x1="51.8" y1="17.3" x2="36.9" y2="17.3"/>
	<line style="fill:none;stroke:#B2B1B1;stroke-width:0.3;stroke-miterlimit:10;" x1="51.8" y1="18.6" x2="36.9" y2="18.6"/>
	<line style="fill:none;stroke:#B2B1B1;stroke-width:0.3;stroke-miterlimit:10;" x1="54.3" y1="19.9" x2="34.8" y2="19.9"/>
</g>
<polygon style="fill:none;stroke:#B2B2B2;stroke-width:0.5;stroke-miterlimit:10;" points="31.3,0.5 31.3,26.5 31.3,26.7 31.6,26.7 
	57.6,26.7 57.8,26.7 57.8,26.5 57.8,0.5 57.8,0.3 57.6,0.3 31.6,0.3 31.3,0.3 "/>
<polygon style="fill:none;stroke:#B2B2B2;stroke-width:0.5;stroke-miterlimit:10;" points="62.4,0.5 62.4,26.5 62.4,26.7 62.6,26.7 
	88.6,26.7 88.9,26.7 88.9,26.5 88.9,0.5 88.9,0.3 88.6,0.3 62.6,0.3 62.4,0.3 "/>
<path style="fill:none;stroke:#B2B1B1;stroke-width:0.3;stroke-miterlimit:10;" d="M65.7,19.2"/>
<path style="fill:none;stroke:#B2B1B1;stroke-width:0.3;stroke-miterlimit:10;" d="M65.7,14.2"/>
<path style="fill:none;stroke:#B2B1B1;stroke-width:0.3;stroke-miterlimit:10;" d="M65.7,12.9"/>
<path style="fill:none;stroke:#B2B1B1;stroke-width:0.3;stroke-miterlimit:10;" d="M65.7,6.6"/>
<path style="fill:none;stroke:#B2B1B1;stroke-width:0.3;stroke-miterlimit:10;" d="M83.1,11.7"/>
<path style="fill:none;stroke:#B2B1B1;stroke-width:0.3;stroke-miterlimit:10;" d="M85.2,14.2"/>
<path style="fill:none;stroke:#B2B1B1;stroke-width:0.3;stroke-miterlimit:10;" d="M83.1,15.4"/>
<path style="fill:none;stroke:#B2B1B1;stroke-width:0.3;stroke-miterlimit:10;" d="M85.2,19.2"/>
<path style="fill:none;stroke:#B2B1B1;stroke-width:0.3;stroke-miterlimit:10;" d="M85.2,6.6"/>
<path style="fill:none;stroke:#B2B1B1;stroke-width:0.3;stroke-miterlimit:10;" d="M85.2,12.9"/>
<path style="fill:none;stroke:#B2B1B1;stroke-width:0.3;stroke-miterlimit:10;" d="M83.1,16.7"/>
<path style="fill:none;stroke:#B2B1B1;stroke-width:0.3;stroke-miterlimit:10;" d="M83.1,17.9"/>
<g>
	<path style="fill:none;stroke:#B2B1B1;stroke-width:0.3;stroke-miterlimit:10;" d="M68,17.6"/>
	<path style="fill:none;stroke:#B2B1B1;stroke-width:0.3;stroke-miterlimit:10;" d="M68,16.4"/>
	<path style="fill:none;stroke:#B2B1B1;stroke-width:0.3;stroke-miterlimit:10;" d="M68,15.1"/>
	<path style="fill:none;stroke:#B2B1B1;stroke-width:0.3;stroke-miterlimit:10;" d="M68,11.3"/>
	<path style="fill:none;stroke:#B2B1B1;stroke-width:0.3;stroke-miterlimit:10;" d="M68,8.8"/>
	<line style="fill:none;stroke:#B2B1B1;stroke-width:0.3;stroke-miterlimit:10;" x1="85.4" y1="7.1" x2="65.9" y2="7.1"/>
	<line style="fill:none;stroke:#B2B1B1;stroke-width:0.3;stroke-miterlimit:10;" x1="85.4" y1="8.4" x2="70.5" y2="8.4"/>
	<line style="fill:none;stroke:#B2B1B1;stroke-width:0.3;stroke-miterlimit:10;" x1="85.4" y1="9.7" x2="70.5" y2="9.7"/>
	<line style="fill:none;stroke:#B2B1B1;stroke-width:0.3;stroke-miterlimit:10;" x1="85.4" y1="10.9" x2="70.5" y2="10.9"/>
	<line style="fill:none;stroke:#B2B1B1;stroke-width:0.3;stroke-miterlimit:10;" x1="85.4" y1="12.2" x2="65.9" y2="12.2"/>
	<line style="fill:none;stroke:#B2B1B1;stroke-width:0.3;stroke-miterlimit:10;" x1="85.4" y1="13.5" x2="65.9" y2="13.5"/>
	<line style="fill:none;stroke:#B2B1B1;stroke-width:0.3;stroke-miterlimit:10;" x1="85.3" y1="14.8" x2="70.4" y2="14.8"/>
	<line style="fill:none;stroke:#B2B1B1;stroke-width:0.3;stroke-miterlimit:10;" x1="85.4" y1="16" x2="65.9" y2="16"/>
	<line style="fill:none;stroke:#B2B1B1;stroke-width:0.3;stroke-miterlimit:10;" x1="85.4" y1="17.3" x2="70.5" y2="17.3"/>
	<line style="fill:none;stroke:#B2B1B1;stroke-width:0.3;stroke-miterlimit:10;" x1="85.4" y1="18.6" x2="70.5" y2="18.6"/>
	<line style="fill:none;stroke:#B2B1B1;stroke-width:0.3;stroke-miterlimit:10;" x1="85.4" y1="19.9" x2="65.9" y2="19.9"/>
</g>
<polygon style="fill:none;stroke:#B2B2B2;stroke-width:0.5;stroke-miterlimit:10;" points="-30.5,0.5 -30.5,26.5 -30.5,26.8 
	-30.3,26.8 -4.3,26.8 -4,26.8 -4,26.5 -4,0.5 -4,0.3 -4.3,0.3 -30.3,0.3 -30.5,0.3 "/>
<path style="fill:none;stroke:#B2B1B1;stroke-width:0.3;stroke-miterlimit:10;" d="M-7.4,7.8"/>
<path style="fill:none;stroke:#B2B1B1;stroke-width:0.3;stroke-miterlimit:10;" d="M-7.4,12.8"/>
<path style="fill:none;stroke:#B2B1B1;stroke-width:0.3;stroke-miterlimit:10;" d="M-7.4,14.1"/>
<path style="fill:none;stroke:#B2B1B1;stroke-width:0.3;stroke-miterlimit:10;" d="M-7.4,20.3"/>
<path style="fill:none;stroke:#B2B1B1;stroke-width:0.3;stroke-miterlimit:10;" d="M-24.8,15.3"/>
<path style="fill:none;stroke:#B2B1B1;stroke-width:0.3;stroke-miterlimit:10;" d="M-26.8,12.8"/>
<path style="fill:none;stroke:#B2B1B1;stroke-width:0.3;stroke-miterlimit:10;" d="M-24.8,11.6"/>
<path style="fill:none;stroke:#B2B1B1;stroke-width:0.3;stroke-miterlimit:10;" d="M-26.8,7.8"/>
<path style="fill:none;stroke:#B2B1B1;stroke-width:0.3;stroke-miterlimit:10;" d="M-26.8,20.3"/>
<path style="fill:none;stroke:#B2B1B1;stroke-width:0.3;stroke-miterlimit:10;" d="M-26.8,14.1"/>
<path style="fill:none;stroke:#B2B1B1;stroke-width:0.3;stroke-miterlimit:10;" d="M-24.8,10.3"/>
<path style="fill:none;stroke:#B2B1B1;stroke-width:0.3;stroke-miterlimit:10;" d="M-24.8,9.1"/>
<g>
	<path style="fill:none;stroke:#B2B1B1;stroke-width:0.3;stroke-miterlimit:10;" d="M-9.9,9.1"/>
	<path style="fill:none;stroke:#B2B1B1;stroke-width:0.3;stroke-miterlimit:10;" d="M-9.9,10.3"/>
	<path style="fill:none;stroke:#B2B1B1;stroke-width:0.3;stroke-miterlimit:10;" d="M-9.9,11.6"/>
	<path style="fill:none;stroke:#B2B1B1;stroke-width:0.3;stroke-miterlimit:10;" d="M-9.9,15.3"/>
	<path style="fill:none;stroke:#B2B1B1;stroke-width:0.3;stroke-miterlimit:10;" d="M-9.9,17.8"/>
	<line style="fill:none;stroke:#B2B1B1;stroke-width:0.3;stroke-miterlimit:10;" x1="-27.2" y1="19.6" x2="-7.7" y2="19.6"/>
	<line style="fill:none;stroke:#B2B1B1;stroke-width:0.3;stroke-miterlimit:10;" x1="-27.2" y1="18.3" x2="-7.7" y2="18.3"/>
	<line style="fill:none;stroke:#B2B1B1;stroke-width:0.3;stroke-miterlimit:10;" x1="-27.2" y1="17" x2="-7.7" y2="17"/>
	<line style="fill:none;stroke:#B2B1B1;stroke-width:0.3;stroke-miterlimit:10;" x1="-27.2" y1="15.7" x2="-7.7" y2="15.7"/>
	<line style="fill:none;stroke:#B2B1B1;stroke-width:0.3;stroke-miterlimit:10;" x1="-27.2" y1="14.5" x2="-7.7" y2="14.5"/>
	<line style="fill:none;stroke:#B2B1B1;stroke-width:0.3;stroke-miterlimit:10;" x1="-27.2" y1="13.2" x2="-7.7" y2="13.2"/>
	<line style="fill:none;stroke:#B2B1B1;stroke-width:0.3;stroke-miterlimit:10;" x1="-27.1" y1="11.9" x2="-7.7" y2="11.9"/>
	<line style="fill:none;stroke:#B2B1B1;stroke-width:0.3;stroke-miterlimit:10;" x1="-27.2" y1="10.6" x2="-7.7" y2="10.6"/>
	<line style="fill:none;stroke:#B2B1B1;stroke-width:0.3;stroke-miterlimit:10;" x1="-27.2" y1="9.3" x2="-7.7" y2="9.3"/>
	<line style="fill:none;stroke:#B2B1B1;stroke-width:0.3;stroke-miterlimit:10;" x1="-27.2" y1="8.1" x2="-7.7" y2="8.1"/>
	<line style="fill:none;stroke:#B2B1B1;stroke-width:0.3;stroke-miterlimit:10;" x1="-27.2" y1="6.8" x2="-7.7" y2="6.8"/>
</g>
<path style="fill:#B2B1B1;" d="M-200.1,115.7L-202,129c-0.1,0.4-0.4,0.7-0.8,0.6c-0.4-0.1-0.7-0.4-0.6-0.8l1.9-13.3
	c0.1-0.4,0.4-0.7,0.8-0.6C-200.3,114.9-200,115.3-200.1,115.7 M-206.9,129.7c-0.4,0-0.7-0.3-0.7-0.7l-0.1-13.5
	c0-0.4,0.3-0.7,0.7-0.7c0.4,0,0.7,0.3,0.7,0.7l0.1,13.5C-206.2,129.4-206.5,129.7-206.9,129.7 M-211,129.7c-0.4,0.1-0.8-0.2-0.8-0.6
	l-2.1-13.3c-0.1-0.4,0.2-0.8,0.6-0.8c0.4-0.1,0.8,0.2,0.8,0.6l2.1,13.3C-210.3,129.2-210.6,129.6-211,129.7 M-197.2,113.3
	c-0.1-0.2-0.4-0.3-0.6-0.3l-18.5,0.1c-0.2,0-0.4,0.1-0.6,0.3c-0.1,0.2-0.2,0.4-0.2,0.6l3.1,16.1c0.1,0.4,0.4,0.6,0.7,0.6l12.5-0.1
	c0.4,0,0.7-0.3,0.7-0.6l2.9-16.2C-197,113.7-197,113.4-197.2,113.3"/>
<path style="fill:none;stroke:#FFFFFF;stroke-width:2.100000e-02;" d="M-200.1,115.7L-202,129c-0.1,0.4-0.4,0.7-0.8,0.6
	c-0.4-0.1-0.7-0.4-0.6-0.8l1.9-13.3c0.1-0.4,0.4-0.7,0.8-0.6C-200.3,114.9-200,115.3-200.1,115.7z M-206.9,129.7
	c-0.4,0-0.7-0.3-0.7-0.7l-0.1-13.5c0-0.4,0.3-0.7,0.7-0.7c0.4,0,0.7,0.3,0.7,0.7l0.1,13.5C-206.2,129.4-206.5,129.7-206.9,129.7z
	 M-211,129.7c-0.4,0.1-0.8-0.2-0.8-0.6l-2.1-13.3c-0.1-0.4,0.2-0.8,0.6-0.8c0.4-0.1,0.8,0.2,0.8,0.6l2.1,13.3
	C-210.3,129.2-210.6,129.6-211,129.7z M-197.2,113.3c-0.1-0.2-0.4-0.3-0.6-0.3l-18.5,0.1c-0.2,0-0.4,0.1-0.6,0.3
	c-0.1,0.2-0.2,0.4-0.2,0.6l3.1,16.1c0.1,0.4,0.4,0.6,0.7,0.6l12.5-0.1c0.4,0,0.7-0.3,0.7-0.6l2.9-16.2
	C-197,113.7-197,113.4-197.2,113.3z"/>
<path style="fill:#B2B1B1;" d="M-209.9,108.7L-209.9,108.7l0-0.4l5.5,0l0,0.4L-209.9,108.7z M-196.1,110.1L-196.1,110.1l-2,0l0-1.2
	c0-0.1,0-0.2-0.1-0.2s-0.2-0.1-0.2-0.1l-4.5,0l0-1.1c0-0.2-0.1-0.4-0.2-0.5c-0.1-0.1-0.3-0.2-0.5-0.2l-6.9,0.1
	c-0.2,0-0.4,0.1-0.5,0.2s-0.2,0.3-0.2,0.5l0,1.1l-4.2,0c-0.1,0-0.2,0-0.2,0.1c-0.1,0.1-0.1,0.2-0.1,0.2l0,1.2l-2.2,0l0,2.2l21.8-0.2
	L-196.1,110.1z"/>
<path style="fill:none;stroke:#FFFFFF;stroke-width:2.100000e-02;" d="M-209.9,108.7L-209.9,108.7l0-0.4l5.5,0l0,0.4L-209.9,108.7z
	 M-196.1,110.1L-196.1,110.1l-2,0l0-1.2c0-0.1,0-0.2-0.1-0.2s-0.2-0.1-0.2-0.1l-4.5,0l0-1.1c0-0.2-0.1-0.4-0.2-0.5
	c-0.1-0.1-0.3-0.2-0.5-0.2l-6.9,0.1c-0.2,0-0.4,0.1-0.5,0.2s-0.2,0.3-0.2,0.5l0,1.1l-4.2,0c-0.1,0-0.2,0-0.2,0.1
	c-0.1,0.1-0.1,0.2-0.1,0.2l0,1.2l-2.2,0l0,2.2l21.8-0.2L-196.1,110.1z"/>
<rect x="-218" y="106.8" style="fill:none;" width="21.9" height="24"/>
<rect x="123" y="-34" style="fill:#0E6899;" width="34.9" height="19.6"/>
<g>
	<path style="fill:#FFFFFF;" d="M135.9-23.6v4.2H135v-1.1c-0.4,0.7-1.2,1.1-2.4,1.1c-1.5,0-2.5-0.8-2.5-2c0-1.1,0.7-1.9,2.6-1.9h2.2
		v-0.4c0-1.2-0.7-1.8-1.9-1.8c-0.9,0-1.7,0.3-2.3,0.8l-0.4-0.7c0.7-0.6,1.7-0.9,2.8-0.9C134.9-26.2,135.9-25.3,135.9-23.6z
		 M135-21.4v-1.1h-2.1c-1.3,0-1.8,0.5-1.8,1.2c0,0.8,0.6,1.3,1.7,1.3C133.9-20,134.6-20.5,135-21.4z"/>
	<path style="fill:#FFFFFF;" d="M144-26.2v6.8h-0.9v-1.2c-0.5,0.8-1.4,1.3-2.5,1.3c-1.7,0-2.9-1-2.9-2.9v-4h0.9v3.9
		c0,1.5,0.8,2.2,2.1,2.2c1.4,0,2.3-0.9,2.3-2.5v-3.6C143.1-26.2,144-26.2,144-26.2z"/>
	<path style="fill:#FFFFFF;" d="M145.3-20.1l0.4-0.7c0.5,0.4,1.5,0.8,2.4,0.8c1.3,0,1.8-0.4,1.8-1.1c0-1.8-4.4-0.4-4.4-3.1
		c0-1.1,1-2,2.7-2c0.9,0,1.8,0.2,2.4,0.6l-0.4,0.7c-0.6-0.4-1.3-0.6-2-0.6c-1.2,0-1.8,0.5-1.8,1.1c0,1.8,4.4,0.5,4.4,3.1
		c0,1.2-1,2-2.8,2C147-19.3,145.9-19.6,145.3-20.1z"/>
</g>
<polygon style="fill:none;stroke:#B2B2B2;stroke-width:0.5;stroke-miterlimit:10;" points="123.2,-34.1 123.2,-14.1 123.2,-13.9 
	123.5,-13.9 192.3,-13.9 192.6,-13.9 192.6,-14.1 192.6,-34.1 192.6,-34.4 192.3,-34.4 123.5,-34.4 123.2,-34.4 "/>
<rect x="123" y="-34.6" style="fill:none;" width="69.8" height="21"/>
<rect x="-281.4" y="172.7" style="fill:#FFFFFF;" width="1014" height="21"/>
<path style="fill:#0E689A;" d="M345.7,172.7c-2.2,0-4,1.8-4,4v12.4c0,2.2,1.8,4,4,4h77.1c2.2,0,4-1.8,4-4v-12.4c0-2.2-1.8-4-4-4
	H345.7z"/>
<rect x="-281.2" y="173" style="fill:none;stroke:#C5C5C5;stroke-width:0.5;stroke-linecap:round;stroke-linejoin:round;" width="1013.5" height="20.5"/>
<path style="fill:#C5C5C5;" d="M716.4,175.6v1.5c0,0.4,0.2,0.8,0.5,1l6.4,4.8c0.3,0.2,0.3,0.6,0,0.8l-6.4,4.8
	c-0.3,0.2-0.5,0.6-0.5,1v1.5c0,0.4,0.5,0.6,0.8,0.4l10.1-7.6c0.3-0.2,0.3-0.7,0-1l-10.1-7.6C716.9,174.9,716.4,175.2,716.4,175.6"/>
<path style="fill:#C5C5C5;" d="M-265.6,190.9v-1.5c0-0.4-0.2-0.8-0.5-1l-6.4-4.8c-0.3-0.2-0.3-0.6,0-0.8l6.4-4.8
	c0.3-0.2,0.5-0.6,0.5-1v-1.5c0-0.4-0.5-0.6-0.8-0.4l-10.1,7.6c-0.3,0.2-0.3,0.7,0,1l10.1,7.6C-266.1,191.5-265.6,191.3-265.6,190.9"
	/>
<rect x="-281.4" y="172.7" style="fill:none;" width="1014" height="21"/>
<rect x="774.3" y="-71.8" style="fill:#FFFFFF;" width="21" height="702.1"/>
<path style="fill:#0E689A;" d="M774.3,342.1c0,2.2,1.8,4,4,4h12.4c2.2,0,4-1.8,4-4v-78.3c0-2.2-1.8-4-4-4h-12.4c-2.2,0-4,1.8-4,4
	V342.1z"/>
<rect x="774.6" y="-71.6" style="fill:none;stroke:#C5C5C5;stroke-width:0.5;stroke-linecap:round;stroke-linejoin:round;" width="20.5" height="701.6"/>
<path style="fill:#C5C5C5;" d="M777.2-58.3h1.5c0.4,0,0.8-0.2,1-0.5l4.8-6.5c0.2-0.3,0.6-0.3,0.8,0l4.8,6.5c0.2,0.3,0.6,0.5,1,0.5
	h1.5c0.4,0,0.6-0.5,0.4-0.8l-7.6-10.2c-0.2-0.3-0.7-0.3-1,0l-7.6,10.2C776.5-58.8,776.8-58.3,777.2-58.3"/>
<path style="fill:#C5C5C5;" d="M792.5,616H791c-0.4,0-0.8,0.2-1,0.5l-4.8,6.5c-0.2,0.3-0.6,0.3-0.8,0l-4.8-6.5
	c-0.2-0.3-0.6-0.5-1-0.5h-1.5c-0.4,0-0.6,0.5-0.4,0.8l7.6,10.2c0.2,0.3,0.7,0.3,1,0l7.6-10.2C793.1,616.4,792.9,616,792.5,616"/>
<rect x="774.3" y="-71.8" style="fill:none;" width="21" height="702.1"/>
<line style="fill:none;stroke:#B2B1B1;stroke-width:0.3;stroke-miterlimit:10;" x1="53.4" y1="40.3" x2="40.3" y2="40.3"/>
<line style="fill:none;stroke:#B2B1B1;stroke-width:0.3;stroke-miterlimit:10;" x1="53.4" y1="45.4" x2="40.3" y2="45.4"/>
<line style="fill:none;stroke:#B2B1B1;stroke-width:0.3;stroke-miterlimit:10;" x1="53.4" y1="50.5" x2="40.3" y2="50.5"/>
<text transform="matrix(1 0 0 1 35.7678 40.1705)" style="fill:#B2B1B1; font-family:'Montserrat-Bold'; font-size:3px;">1</text>
<text transform="matrix(1 0 0 1 35.7678 45.1862)" style="fill:#B2B1B1; font-family:'Montserrat-Bold'; font-size:3px;">2</text>
<text transform="matrix(1 0 0 1 35.7678 50.2018)" style="fill:#B2B1B1; font-family:'Montserrat-Bold'; font-size:3px;">3</text>
<polygon style="fill:none;stroke:#B2B2B2;stroke-width:0.5;stroke-miterlimit:10;" points="31.3,32.7 31.3,58.7 31.3,59 31.6,59 
	57.6,59 57.8,59 57.8,58.7 57.8,32.7 57.8,32.5 57.6,32.5 31.6,32.5 31.3,32.5 "/>
<polygon style="fill:none;stroke:#B2B2B2;stroke-width:0.5;stroke-miterlimit:10;" points="-0.2,32.7 -0.2,58.7 -0.2,59 0.1,59 
	26.1,59 26.3,59 26.3,58.7 26.3,32.7 26.3,32.5 26.1,32.5 0.1,32.5 -0.2,32.5 "/>
<polygon style="fill:none;stroke:#B2B2B2;stroke-width:0.5;stroke-miterlimit:10;" points="-30.5,32.7 -30.5,58.7 -30.5,59 
	-30.3,59 -4.3,59 -4,59 -4,58.7 -4,32.7 -4,32.5 -4.3,32.5 -30.3,32.5 -30.5,32.5 "/>
<path style="fill:none;stroke:#B2B1B1;stroke-width:0.3;stroke-miterlimit:10;" d="M21.4,50.8h-13 M21.4,45.7h-13 M21.4,40.6h-13"/>
<path style="fill:#B2B1B1;" d="M6.2,46.3c0.2-0.2,0.2-0.3,0.2-0.6c0-0.2,0-0.3-0.1-0.4c-0.1-0.1-0.2-0.2-0.3-0.3
	c-0.1-0.1-0.3-0.1-0.4-0.1c-0.2,0-0.3,0-0.4,0.1C5.1,45.1,5,45.2,5,45.3c-0.1,0.1-0.1,0.3-0.1,0.4c0,0.2,0.1,0.4,0.2,0.6
	c0.2,0.2,0.3,0.2,0.6,0.2C5.9,46.5,6.1,46.4,6.2,46.3"/>
<path style="fill:#B2B1B1;" d="M5.7,41.7c0.5,0,0.9-0.4,0.9-0.9c0-0.5-0.4-0.9-0.9-0.9c-0.5,0-0.9,0.4-0.9,0.9
	C4.8,41.3,5.2,41.7,5.7,41.7"/>
<path style="fill:#B2B1B1;" d="M6.2,51.3c0.2-0.2,0.2-0.3,0.2-0.6c0-0.2,0-0.3-0.1-0.4c-0.1-0.1-0.2-0.2-0.3-0.3
	c-0.1-0.1-0.3-0.1-0.4-0.1c-0.2,0-0.3,0-0.4,0.1C5.1,50.1,5,50.2,5,50.3c-0.1,0.1-0.1,0.3-0.1,0.4c0,0.2,0.1,0.4,0.2,0.6
	c0.2,0.2,0.3,0.2,0.6,0.2C5.9,51.5,6.1,51.5,6.2,51.3"/>
<path style="fill:none;stroke:#B2B1B1;stroke-width:0.3;stroke-miterlimit:10;" d="M-9,50.8h-13 M-9,45.7h-13 M-9,40.6h-13"/>
<rect x="-25.6" y="39.8" style="fill:#B2B1B1;" width="1.8" height="1.8"/>
<rect x="-25.6" y="44.8" style="fill:#B2B1B1;" width="1.8" height="1.8"/>
<rect x="-25.6" y="49.8" style="fill:#B2B1B1;" width="1.8" height="1.8"/>
<rect x="313" y="-35.1" style="fill:#F8F8F8;" width="245" height="57.8"/>
<text transform="matrix(1 0 0 1 387.6663 -8.8823)" style="fill:#B2B1B1; font-family:'Montserrat-Regular'; font-size:13px;">N</text>
<text transform="matrix(1 0 0 1 398.1443 -8.8823)" style="fill:#B2B1B1; font-family:'Montserrat-Regular'; font-size:13px;">e</text>
<text transform="matrix(1 0 0 1 405.8013 -8.8823)" style="fill:#B2B1B1; font-family:'Montserrat-Regular'; font-size:13px;">u</text>
<text transform="matrix(1 0 0 1 414.4193 -8.8823)" style="fill:#B2B1B1; font-family:'Montserrat-Regular'; font-size:13px;">e </text>
<text transform="matrix(1 0 0 1 425.6773 -8.8823)" style="fill:#B2B1B1; font-family:'Montserrat-Regular'; font-size:13px;">T</text>
<text transform="matrix(1 0 0 1 432.0473 -8.8823)" style="fill:#B2B1B1; font-family:'Montserrat-Regular'; font-size:13px;">e</text>
<text transform="matrix(1 0 0 1 439.5483 -8.8823)" style="fill:#B2B1B1; font-family:'Montserrat-Regular'; font-size:13px;">x</text>
<text transform="matrix(1 0 0 1 446.7633 -8.8823)" style="fill:#B2B1B1; font-family:'Montserrat-Regular'; font-size:13px;">t</text>
<text transform="matrix(1 0 0 1 451.7943 -8.8823)" style="fill:#B2B1B1; font-family:'Montserrat-Regular'; font-size:13px;">b</text>
<text transform="matrix(1 0 0 1 460.6083 -8.8823)" style="fill:#B2B1B1; font-family:'Montserrat-Regular'; font-size:13px;">o</text>
<text transform="matrix(1 0 0 1 468.4083 -8.8823)" style="fill:#B2B1B1; font-family:'Montserrat-Regular'; font-size:13px;">x </text>
<path style="fill:none;stroke:#B2B1B1;stroke-width:0.5;" d="M435.5,12.9c3.7,0,6.7-3,6.7-6.7c0-3.7-3-6.7-6.7-6.7s-6.7,3-6.7,6.7
	C428.8,9.9,431.8,12.9,435.5,12.9z"/>
<rect x="313" y="-35.1" style="fill:none;" width="245" height="57.8"/>
<line style="fill:none;stroke:#B2B1B1;stroke-width:1.2;" x1="435.5" y1="2.6" x2="435.5" y2="9.7"/>
<line style="fill:none;stroke:#B2B1B1;stroke-width:1.2;" x1="431.9" y1="6.2" x2="439" y2="6.2"/>
<path style="fill:none;stroke:#B2B1B1;stroke-width:0.5;" d="M324.5,52.7c3.7,0,6.7-3,6.7-6.7c0-3.7-3-6.7-6.7-6.7s-6.7,3-6.7,6.7
	C317.8,49.7,320.8,52.7,324.5,52.7z"/>
<line style="fill:none;stroke:#B2B1B1;stroke-width:1.2;" x1="324.5" y1="42.5" x2="324.5" y2="49.5"/>
<line style="fill:none;stroke:#B2B1B1;stroke-width:1.2;" x1="321" y1="46" x2="328" y2="46"/>
<g>
	<path style="fill:#B2B2B2;" d="M-171.4,67.9h-3.1V66h8.5v1.8h-3.1v8h-2.3L-171.4,67.9L-171.4,67.9z"/>
	<path style="fill:#B2B2B2;" d="M-164.8,66h2.3v9.8h-2.3V66z"/>
	<path style="fill:#B2B2B2;" d="M-151.7,69.6c0,2.2-1.6,3.5-4.3,3.5h-2v2.7h-2.3V66h4.2C-153.3,66-151.7,67.4-151.7,69.6z
		 M-154,69.6c0-1.1-0.7-1.7-2.1-1.7h-1.8v3.4h1.8C-154.7,71.3-154,70.6-154,69.6z"/>
	<path style="fill:#B2B2B2;" d="M-141.5,69.6c0,2.2-1.6,3.5-4.3,3.5h-2v2.7h-2.3V66h4.2C-143.2,66-141.5,67.4-141.5,69.6z
		 M-143.8,69.6c0-1.1-0.7-1.7-2.1-1.7h-1.8v3.4h1.8C-144.5,71.3-143.8,70.6-143.8,69.6z"/>
</g>
<path style="fill:#B2B2B2;" d="M-208,61.5L-208,61.5c-1.1,2.5-2,4.6-2.9,6.8h5.7C-206.1,66.1-207,64-208,61.5 M-204.5,79.1
	L-204.5,79.1c-0.3-1.2-0.2-1.8,1-1.8c1,0,1.3-0.7,1-1.6c-0.5-1.4-1.1-2.8-1.7-4.2c-0.1-0.2-0.6-0.5-0.8-0.5c-2.1,0-4.3,0-6.4,0
	c-0.3,0-0.7,0.3-0.9,0.6c-0.6,1.2-1.1,2.3-1.5,3.5c-0.6,1.5-0.3,2,1.3,2.2c0.8,0.1,1.2,0.3,1,1.1c-0.1,0.2-0.4,0.6-0.5,0.6
	c-2.5,0-5,0-7.6,0c-0.2-1-0.3-1.6,0.9-1.9c0.6-0.1,1.2-0.6,1.5-1.1c0.8-1.3,1.4-2.7,2-4c2.4-5.6,4.8-11.1,7.2-16.7
	c0.2-0.4,0.6-0.7,1-1c0.3,0.3,0.8,0.6,0.9,1c2.6,6,5.1,12.1,7.6,18.2c0.3,0.8,0.7,1.5,1.1,2.3c0.5,0.9,1.3,1.4,2.4,1.6
	c0.3,0.1,0.5,0.6,0.6,1c0,0.2-0.4,0.6-0.6,0.6C-198.2,79.1-201.3,79.1-204.5,79.1"/>
<path style="fill:#B2B1B1;" d="M-110.8,71.6c2.7,0,4.8-2,4.8-4.6c0-2.4-2.2-4.4-4.7-4.4c-2.7,0-4.8,2-4.8,4.6
	C-115.6,69.6-113.4,71.6-110.8,71.6 M-105.2,71.6L-105.2,71.6c0.4-0.2,0.6-0.2,0.9,0.1c1.2,1.2,2.5,2.4,3.8,3.5
	c0.1,0.1,0.2,0.2,0.3,0.2c0.2,0.2,0.2,0.5,0,0.7c-0.2,0.2-0.5,0.5-0.8,0.7c-0.3,0.3-0.5,0.3-0.9,0c-1.2-1.1-2.3-2.2-3.5-3.3
	c-0.1-0.1-0.3-0.2-0.4-0.4c-0.4-0.3-0.4-0.5-0.2-0.9c-0.4-0.3-0.7-0.7-1.1-1c-1.5,1.1-3.2,1.5-5,1.1c-1.4-0.3-2.5-1.1-3.4-2.2
	c-1.7-2.2-1.3-5.3,0.8-7.1c2.2-1.9,5.5-1.9,7.7-0.1c2.2,1.8,2.8,5.1,0.7,7.6C-106,70.9-105.6,71.2-105.2,71.6"/>
<path style="fill:none;stroke:#FFFFFF;stroke-width:1.000000e-03;" d="M-110.8,71.6c2.7,0,4.8-2,4.8-4.6c0-2.4-2.2-4.4-4.7-4.4
	c-2.7,0-4.8,2-4.8,4.6C-115.6,69.6-113.4,71.6-110.8,71.6z M-105.2,71.6L-105.2,71.6c0.4-0.2,0.6-0.2,0.9,0.1
	c1.2,1.2,2.5,2.4,3.8,3.5c0.1,0.1,0.2,0.2,0.3,0.2c0.2,0.2,0.2,0.5,0,0.7c-0.2,0.2-0.5,0.5-0.8,0.7c-0.3,0.3-0.5,0.3-0.9,0
	c-1.2-1.1-2.3-2.2-3.5-3.3c-0.1-0.1-0.3-0.2-0.4-0.4c-0.4-0.3-0.4-0.5-0.2-0.9c-0.4-0.3-0.7-0.7-1.1-1c-1.5,1.1-3.2,1.5-5,1.1
	c-1.4-0.3-2.5-1.1-3.4-2.2c-1.7-2.2-1.3-5.3,0.8-7.1c2.2-1.9,5.5-1.9,7.7-0.1c2.2,1.8,2.8,5.1,0.7,7.6
	C-106,70.9-105.6,71.2-105.2,71.6z"/>
<path style="fill:#B2B1B1;" d="M-47.1,62l3,3v-2.8c0-0.1-0.1-0.2-0.1-0.3l-3.8-3.8c-0.1-0.1-0.2-0.1-0.2,0l-3.9,3.9v2.8
	c0,0.1,0.1,0.1,0.1,0.1l2.8-2.9c0.1-0.1,0.1,0,0.1,0v7.8l0,0V72c0,0.1-0.1,0.1-0.1,0.1l-3-3v2.8c0,0.1,0.1,0.2,0.1,0.3l3.8,3.8
	c0.1,0.1,0.2,0.1,0.2,0l3.9-3.9v-2.8c0-0.1-0.1-0.1-0.1-0.1l-2.8,2.9c-0.1,0.1-0.1,0-0.1-0.1v-7.8l0,0v-2.2
	C-47.2,62-47.1,61.9-47.1,62z"/>
<line style="fill:none;stroke:#B2B1B1;stroke-width:1.712;" x1="-83.2" y1="75.2" x2="-55.4" y2="75.2"/>
<line style="fill:none;stroke:#B2B1B1;stroke-width:1.712;" x1="-83.2" y1="66.9" x2="-55.4" y2="66.9"/>
<line style="fill:none;stroke:#B2B1B1;stroke-width:1.712;" x1="-83.2" y1="59" x2="-55.4" y2="59"/>
<line style="fill:none;stroke:#B2B1B1;stroke-width:1.712;" x1="-68.9" y1="94.2" x2="-68.9" y2="115.2"/>
<path style="fill:#B2B1B1;" d="M-61.4,108.1L-61.4,108.1h2.7l-2.6-2.6c-0.1-0.1-0.1-0.2,0.1-0.2h7v-1.4c0-0.2-0.2-0.3-0.3-0.3h-6.7
	c-0.2,0-0.2-0.1-0.1-0.2l2.6-2.6H-61c-0.2,0-0.5,0.1-0.6,0.2l-3.2,3.2c-0.1,0.1-0.1,0.4,0,0.5L-61.4,108.1z"/>
<path style="fill:#B2B1B1;" d="M-77.2,100.8L-77.2,100.8h-2.7l2.6,2.6c0.1,0.1,0.1,0.2-0.1,0.2h-7v1.4c0,0.2,0.2,0.3,0.3,0.3h6.7
	c0.2,0,0.2,0.1,0.1,0.2l-2.6,2.6h2.3c0.2,0,0.5-0.1,0.6-0.2l3.2-3.2c0.1-0.1,0.1-0.4,0-0.5L-77.2,100.8z"/>
<line style="fill:none;stroke:#B2B1B1;stroke-width:2;" x1="247.4" y1="-24.9" x2="211.4" y2="-24.9"/>
<path style="fill:#AD5E7A;" d="M238.9-21.8c2,0,3.7-1.7,3.7-3.7s-1.7-3.7-3.7-3.7s-3.7,1.7-3.7,3.7S236.9-21.8,238.9-21.8"/>
<g>
	<path style="fill:#B2B1B1;" d="M262.1-24.7c0,3.1-1.8,4.8-4.5,4.8c-0.9,0-1.8-0.2-2.4-0.6l0.6-1.3c0.5,0.3,1.1,0.4,1.7,0.4
		c1.7,0,2.8-1.1,2.8-3.1v0c-0.5,0.6-1.4,0.9-2.4,0.9c-1.8,0-3.1-1.1-3.1-2.8c0-1.8,1.5-3,3.3-3C260.7-29.2,262.1-27.6,262.1-24.7z
		 M260.2-26.4c0-0.9-0.7-1.5-1.9-1.5c-1.1,0-1.8,0.6-1.8,1.5s0.7,1.5,1.8,1.5C259.4-24.8,260.2-25.5,260.2-26.4z"/>
	<path style="fill:#B2B1B1;" d="M270-22.8c0,1.6-1.2,2.9-3.6,2.9c-1.3,0-2.6-0.4-3.4-1.1l0.7-1.3c0.7,0.5,1.7,0.9,2.7,0.9
		c1.2,0,1.9-0.5,1.9-1.4c0-0.9-0.6-1.4-2.4-1.4h-2.2l0.5-5h5.3v1.4h-3.9l-0.2,2.1h0.9C268.9-25.6,270-24.4,270-22.8z"/>
	<path style="fill:#B2B1B1;" d="M274.4-26.7c0-1.5,0.9-2.5,2.2-2.5s2.2,1,2.2,2.5s-0.9,2.5-2.2,2.5S274.4-25.2,274.4-26.7z
		 M277.7-26.7c0-1-0.4-1.6-1.1-1.6c-0.7,0-1.1,0.6-1.1,1.6s0.4,1.6,1.1,1.6C277.3-25.1,277.7-25.7,277.7-26.7z M282-29.1h1.3
		l-6.2,9.1h-1.3L282-29.1z M280.4-22.4c0-1.5,0.9-2.5,2.2-2.5s2.2,1,2.2,2.5s-0.9,2.5-2.2,2.5C281.2-19.9,280.4-20.9,280.4-22.4z
		 M283.7-22.4c0-1-0.4-1.6-1.1-1.6s-1.1,0.6-1.1,1.6c0,1,0.4,1.6,1.1,1.6S283.7-21.4,283.7-22.4z"/>
</g>
<rect x="225.4" y="29.2" style="fill:#FFFFFF;" width="13.1" height="16.8"/>
<polygon style="fill:none;stroke:#B2B1B1;stroke-width:0.941;" points="225.4,46 225.4,46 238.5,46 238.5,29.2 225.4,29.2 "/>
<rect x="217.7" y="28.8" style="fill:none;" width="21.3" height="24"/>
<line style="fill:none;stroke:#B2B1B1;stroke-width:0.941;stroke-dasharray:1.889,1.889;" x1="222.2" y1="36.9" x2="222.2" y2="47.3"/>
<line style="fill:none;stroke:#B2B1B1;stroke-width:0.941;stroke-dasharray:1.754,1.754;" x1="224.8" y1="49.2" x2="234.5" y2="49.2"/>
<path style="fill:none;stroke:#B2B1B1;stroke-width:0.941;" d="M235.3,49.2h0.9 M222.2,48.3v0.9h0.9 M222.2,34.1V35"/>
<polyline style="fill:none;stroke:#B2B1B1;stroke-width:0.941;" points="218.2,37.2 218.2,52.3 232.2,52.3 "/>
<rect x="217.7" y="28.8" style="fill:none;" width="21.3" height="24"/>
<rect x="256.9" y="29.2" style="fill:#FFFFFF;" width="14.7" height="18.7"/>
<polygon style="fill:none;stroke:#B2B1B1;stroke-width:0.804;" points="256.9,47.9 256.9,47.9 271.6,47.9 271.6,29.2 256.9,29.2 "/>
<rect x="256.5" y="28.8" style="fill:none;" width="19.9" height="24"/>
<rect x="261.3" y="33.7" style="fill:#B2B1B1;" width="14.7" height="18.7"/>
<polygon style="fill:none;stroke:#FFFFFF;stroke-width:0.804;" points="261.3,52.4 261.3,52.4 276,52.4 276,33.7 261.3,33.7 "/>
<rect x="256.5" y="28.8" style="fill:none;" width="19.9" height="24"/>
<rect x="158" y="32.7" style="fill:#0E6899;" width="34.9" height="19.6"/>
<text transform="matrix(1 0 0 1 165.0473 47.3692)" style="fill:#FFFFFF; font-family:'Montserrat-Regular'; font-size:13px;">e</text>
<text transform="matrix(1 0 0 1 172.4573 47.3692)" style="fill:#FFFFFF; font-family:'Montserrat-Regular'; font-size:13px;">i</text>
<text transform="matrix(1 0 0 1 175.3823 47.3692)" style="fill:#FFFFFF; font-family:'Montserrat-Regular'; font-size:13px;">n</text>
<polygon style="fill:none;stroke:#B2B2B2;stroke-width:0.5;stroke-miterlimit:10;" points="123,32.6 123,52.6 123,52.8 123.3,52.8 
	192.1,52.8 192.4,52.8 192.4,52.6 192.4,32.6 192.4,32.3 192.1,32.3 123.3,32.3 123,32.3 "/>
<rect x="122.8" y="32.1" style="fill:none;" width="70.2" height="21"/>
<line style="fill:none;stroke:#B2B1B1;stroke-width:2.5;" x1="264.1" y1="122.2" x2="264.1" y2="146.5"/>
<path style="fill:#B2B1B1;" d="M272.2,138.1L272.2,138.1h2.6l-2.5-2.5c-0.1-0.1-0.1-0.2,0.1-0.2h6.7V134c0-0.2-0.2-0.4-0.4-0.4H272
	l2.7-2.7h-2.2c-0.2,0-0.5,0.1-0.6,0.2l-3.1,3.1c-0.1,0.1-0.1,0.4,0,0.5L272.2,138.1z"/>
<line style="fill:none;stroke:#B2B1B1;stroke-width:2.5;" x1="237.2" y1="146.3" x2="237.2" y2="122.1"/>
<path style="fill:#B2B1B1;" d="M229.1,130.5L229.1,130.5h-2.6l2.5,2.5c0.1,0.1,0.1,0.2-0.1,0.2h-6.7v1.3c0,0.2,0.2,0.4,0.4,0.4h6.7
	l-2.7,2.7h2.2c0.2,0,0.5-0.1,0.6-0.2l3.1-3.1c0.1-0.1,0.1-0.4,0-0.5L229.1,130.5z"/>
<line style="fill:none;stroke:#B2B1B1;stroke-width:2.5;" x1="47.4" y1="130.1" x2="71.7" y2="130.1"/>
<path style="fill:#B2B1B1;" d="M63.1,122L63.1,122v-2.6l-2.5,2.5c-0.1,0.1-0.2,0.1-0.2-0.1v-6.7H59c-0.2,0-0.3,0.2-0.3,0.3v6.7
	l-2.7-2.7v2.2c0,0.2,0.1,0.5,0.2,0.6l3.1,3.1c0.1,0.1,0.4,0.1,0.5,0L63.1,122z"/>
<path style="fill:#B2B1B1;" d="M56.1,137.2L56.1,137.2v2.6l2.5-2.5c0.1-0.1,0.2-0.1,0.2,0.1v6.7h1.3c0.2,0,0.3-0.2,0.3-0.4V137
	l2.7,2.7v-2.2c0-0.2-0.1-0.5-0.2-0.6l-3.1-3.1c-0.1-0.1-0.4-0.1-0.5,0L56.1,137.2z"/>
<line style="fill:none;stroke:#B2B1B1;stroke-width:2.5;" x1="103.9" y1="142.9" x2="103.9" y2="118.7"/>
<path style="fill:#B2B1B1;" d="M95.8,127.3L95.8,127.3h-2.6l2.5,2.5c0.1,0.1,0.1,0.2-0.1,0.2h-6.7v1.3c0,0.2,0.2,0.4,0.3,0.4H96
	l-2.7,2.7h2.2c0.2,0,0.5-0.1,0.6-0.2l3.1-3.1c0.1-0.1,0.1-0.4,0-0.5L95.8,127.3z"/>
<path style="fill:#B2B1B1;" d="M111,134.2L111,134.2h2.6l-2.5-2.5c-0.1-0.1-0.1-0.2,0.1-0.2h6.7v-1.3c0-0.2-0.2-0.4-0.3-0.4h-6.7
	l2.7-2.7h-2.2c-0.2,0-0.5,0.1-0.6,0.2l-3.1,3.1c-0.1,0.1-0.1,0.4,0,0.5L111,134.2z"/>
<line style="fill:none;stroke:#B2B1B1;stroke-width:2.5;" x1="136" y1="130.4" x2="160.3" y2="130.4"/>
<path style="fill:#B2B1B1;" d="M144.7,137.5L144.7,137.5v2.6l2.5-2.5c0.1-0.1,0.2-0.1,0.2,0.1v6.7h1.3c0.2,0,0.4-0.2,0.4-0.4v-6.7
	l2.7,2.7v-2.2c0-0.2-0.1-0.5-0.2-0.6l-3.1-3.1c-0.1-0.1-0.4-0.1-0.5,0L144.7,137.5z"/>
<line style="fill:none;stroke:#B2B1B1;stroke-width:2.5;" x1="181.1" y1="141.6" x2="205.4" y2="141.6"/>
<path style="fill:#B2B1B1;" d="M196.9,133.3L196.9,133.3v-2.6l-2.5,2.5c-0.1,0.1-0.2,0.1-0.2-0.1v-6.7h-1.3c-0.2,0-0.4,0.2-0.4,0.3
	v6.7l-2.7-2.7v2.2c0,0.2,0.1,0.5,0.2,0.6l3.1,3.1c0.1,0.1,0.4,0.1,0.5,0L196.9,133.3z"/>
<rect x="327" y="114.7" style="fill:#FFFFFF;" width="15.8" height="20.1"/>
<line style="fill:none;stroke:#B2B1B1;stroke-width:0.941;stroke-dasharray:1.971,1.971;" x1="329.9" y1="134.8" x2="340.8" y2="134.8"/>
<line style="fill:none;stroke:#B2B1B1;stroke-width:0.941;stroke-dasharray:2.006,2.006;" x1="342.7" y1="131.8" x2="342.7" y2="116.7"/>
<line style="fill:none;stroke:#B2B1B1;stroke-width:0.941;stroke-dasharray:1.971,1.971;" x1="339.8" y1="114.7" x2="329" y2="114.7"/>
<line style="fill:none;stroke:#B2B1B1;stroke-width:0.941;stroke-dasharray:2.006,2.006;" x1="327" y1="117.7" x2="327" y2="132.8"/>
<path style="fill:none;stroke:#B2B1B1;stroke-width:0.941;" d="M327,133.8v1h1 M328,114.7h-1v1 M342.7,115.7v-1h-1 M341.8,134.8h1
	v-1"/>
<polygon style="fill:#FFFFFF;" points="315.7,144.8 315.7,144.8 331.5,144.8 331.5,124.7 315.7,124.7 "/>
<line style="fill:none;stroke:#B2B1B1;stroke-width:0.941;stroke-dasharray:1.971,1.971;" x1="318.7" y1="144.8" x2="329.5" y2="144.8"/>
<line style="fill:none;stroke:#B2B1B1;stroke-width:0.941;stroke-dasharray:2.006,2.006;" x1="331.5" y1="141.8" x2="331.5" y2="126.7"/>
<line style="fill:none;stroke:#B2B1B1;stroke-width:0.941;stroke-dasharray:1.971,1.971;" x1="328.6" y1="124.7" x2="317.7" y2="124.7"/>
<line style="fill:none;stroke:#B2B1B1;stroke-width:0.941;stroke-dasharray:2.006,2.006;" x1="315.7" y1="127.7" x2="315.7" y2="142.8"/>
<path style="fill:none;stroke:#B2B1B1;stroke-width:0.941;" d="M315.7,143.8v1h1 M316.7,124.7h-1v1 M331.5,125.7v-1h-1 M330.5,144.8
	h1v-1"/>
<polygon style="fill:#FFFFFF;" points="306.3,152.8 306.3,152.8 322,152.8 322,132.7 306.3,132.7 "/>
<polygon style="fill:none;stroke:#B2B1B1;stroke-width:0.941;" points="306.3,152.8 306.3,152.8 322,152.8 322,132.7 306.3,132.7 
	"/>
<g>
	<polygon style="fill:#FFFFFF;" points="380.1,139.1 380.1,139.1 395.9,139.1 395.9,119 380.1,119 	"/>
	<polygon style="fill:none;stroke:#B2B1B1;stroke-width:0.941;" points="380.1,139.1 380.1,139.1 395.9,139.1 395.9,119 380.1,119 	
		"/>
	
		<line style="fill:none;stroke:#B2B1B1;stroke-width:0.941;stroke-dasharray:1.801,1.801;" x1="376.3" y1="127.6" x2="376.3" y2="141.1"/>
	
		<line style="fill:none;stroke:#B2B1B1;stroke-width:0.941;stroke-dasharray:2.091,2.091;" x1="379.5" y1="142.9" x2="391" y2="142.9"/>
	<path style="fill:none;stroke:#B2B1B1;stroke-width:0.941;" d="M392,142.9h1 M376.3,142v0.9h1 M376.3,124.9v0.9"/>
</g>
<g>
	<g>
		<rect x="452.6" y="107.3" style="fill:#FFFFFF;" width="15.8" height="20.1"/>
		<polygon style="fill:none;stroke:#B2B1B1;stroke-width:0.941;" points="452.6,127.4 452.6,127.4 468.4,127.4 468.4,107.3 
			452.6,107.3 		"/>
		<polygon style="fill:#FFFFFF;" points="441.4,137.4 441.4,137.4 457.2,137.4 457.2,117.3 441.4,117.3 		"/>
		
			<line style="fill:none;stroke:#B2B1B1;stroke-width:0.941;stroke-dasharray:1.971,1.971;" x1="444.4" y1="137.4" x2="455.2" y2="137.4"/>
		
			<line style="fill:none;stroke:#B2B1B1;stroke-width:0.941;stroke-dasharray:2.006,2.006;" x1="457.2" y1="134.3" x2="457.2" y2="119.3"/>
		
			<line style="fill:none;stroke:#B2B1B1;stroke-width:0.941;stroke-dasharray:1.971,1.971;" x1="454.2" y1="117.3" x2="443.4" y2="117.3"/>
		
			<line style="fill:none;stroke:#B2B1B1;stroke-width:0.941;stroke-dasharray:2.006,2.006;" x1="441.4" y1="120.3" x2="441.4" y2="135.4"/>
		<path style="fill:none;stroke:#B2B1B1;stroke-width:0.941;" d="M441.4,136.4v1h1 M442.4,117.3h-1v1 M457.2,118.3v-1h-1
			 M456.2,137.4h1v-1"/>
		<polygon style="fill:#FFFFFF;" points="431.9,145.4 431.9,145.4 447.7,145.4 447.7,125.3 431.9,125.3 		"/>
		
			<line style="fill:none;stroke:#B2B1B1;stroke-width:0.941;stroke-dasharray:1.971,1.971;" x1="434.9" y1="145.4" x2="445.7" y2="145.4"/>
		
			<line style="fill:none;stroke:#B2B1B1;stroke-width:0.941;stroke-dasharray:2.006,2.006;" x1="447.7" y1="142.3" x2="447.7" y2="127.3"/>
		
			<line style="fill:none;stroke:#B2B1B1;stroke-width:0.941;stroke-dasharray:1.971,1.971;" x1="444.7" y1="125.3" x2="433.9" y2="125.3"/>
		
			<line style="fill:none;stroke:#B2B1B1;stroke-width:0.941;stroke-dasharray:2.006,2.006;" x1="431.9" y1="128.3" x2="431.9" y2="143.4"/>
		<path style="fill:none;stroke:#B2B1B1;stroke-width:0.941;" d="M431.9,144.4v1h1 M432.9,125.3h-1v1 M447.7,126.3v-1h-1
			 M446.7,145.4h1v-1"/>
	</g>
	
		<line style="fill:none;stroke:#B2B1B1;stroke-width:0.941;stroke-dasharray:1.971,1.971;" x1="508.1" y1="140.8" x2="518.9" y2="140.8"/>
	
		<line style="fill:none;stroke:#B2B1B1;stroke-width:0.941;stroke-dasharray:2.006,2.006;" x1="520.9" y1="137.8" x2="520.9" y2="122.8"/>
	
		<line style="fill:none;stroke:#B2B1B1;stroke-width:0.941;stroke-dasharray:1.971,1.971;" x1="517.9" y1="120.8" x2="507.1" y2="120.8"/>
	
		<line style="fill:none;stroke:#B2B1B1;stroke-width:0.941;stroke-dasharray:2.006,2.006;" x1="505.1" y1="123.8" x2="505.1" y2="138.8"/>
	<path style="fill:none;stroke:#B2B1B1;stroke-width:0.941;" d="M505.1,139.8v1h1 M506.1,120.8h-1v1 M520.9,121.8v-1h-1
		 M519.9,140.8h1v-1"/>
	<polyline style="fill:none;stroke:#B2B1B1;stroke-width:0.941;" points="501.3,126.6 501.3,144.6 518.1,144.6 	"/>
</g>
<g>
	<g>
		<defs>
			<rect id="SVGID_1_" x="-253.9" y="234.7" width="241.7" height="1"/>
		</defs>
		<clipPath id="SVGID_00000049937127536811810990000017236790719288182948_">
			<use xlink:href="#SVGID_1_"  style="overflow:visible;"/>
		</clipPath>
		
			<line style="clip-path:url(#SVGID_00000049937127536811810990000017236790719288182948_);fill:none;stroke:#B2B2B2;stroke-linecap:round;stroke-linejoin:round;stroke-dasharray:0,3.009;" x1="-250.4" y1="235.2" x2="-14.3" y2="235.2"/>
	</g>
	<g>
		<defs>
			<rect id="SVGID_00000098202867964394026540000011443664224410945700_" x="-253.9" y="234.7" width="241.7" height="1"/>
		</defs>
		<clipPath id="SVGID_00000047745279186396768280000005611485690759089801_">
			<use xlink:href="#SVGID_00000098202867964394026540000011443664224410945700_"  style="overflow:visible;"/>
		</clipPath>
		
			<path style="clip-path:url(#SVGID_00000047745279186396768280000005611485690759089801_);fill:none;stroke:#B2B2B2;stroke-linecap:round;stroke-linejoin:round;" d="
			M-12.8,235.2L-12.8,235.2 M-253.4,235.2L-253.4,235.2"/>
	</g>
</g>
<circle style="fill:none;stroke:#4F4D4D;stroke-width:0.5;" cx="-207" cy="14" r="12.8"/>
<polygon style="fill:#0E689A;" points="-63.6,-1.1 -76.6,-1.1 -70.3,9.4 "/>
<polygon style="fill:#B2B1B1;" points="-55.6,127.5 -66.1,133.9 -55.6,140.5 "/>
<polygon style="fill:#B2B1B1;" points="-84.7,140.5 -74.2,134.1 -84.7,127.5 "/>
<polygon style="fill:#B2B1B1;" points="-2.1,127.5 -12.6,133.9 -2.1,140.5 "/>
<polygon style="fill:#B2B1B1;" points="-37.3,140.5 -26.8,134.1 -37.3,127.5 "/>
<rect x="123" y="-1" style="fill:#0E6899;" width="34.9" height="19.6"/>
<polygon style="fill:none;stroke:#B2B2B2;stroke-width:0.5;stroke-miterlimit:10;" points="123.2,-1.2 123.2,18.8 123.2,19.1 
	123.5,19.1 192.3,19.1 192.6,19.1 192.6,18.8 192.6,-1.2 192.6,-1.4 192.3,-1.4 123.5,-1.4 123.2,-1.4 "/>
<rect x="123" y="-1.7" style="fill:none;" width="69.8" height="21"/>
<rect x="158.3" y="65" style="fill:#0E6899;" width="34.9" height="19.6"/>
<polygon style="fill:none;stroke:#B2B2B2;stroke-width:0.5;stroke-miterlimit:10;" points="123.3,64.9 123.3,84.9 123.3,85.1 
	123.6,85.1 192.4,85.1 192.7,85.1 192.7,84.9 192.7,64.9 192.7,64.6 192.4,64.6 123.6,64.6 123.3,64.6 "/>
<rect x="123.1" y="64.4" style="fill:none;" width="70.2" height="21"/>
<line style="fill:none;stroke:#B2B1B1;stroke-width:2;" x1="246.4" y1="-5.1" x2="210.3" y2="-5.1"/>
<path style="fill:#AD5E7A;" d="M237.8-2c2,0,3.7-1.7,3.7-3.7s-1.7-3.7-3.7-3.7s-3.7,1.7-3.7,3.7S235.8-2,237.8-2"/>
<line style="fill:none;stroke:#B2B1B1;stroke-width:2;" x1="554.7" y1="25.7" x2="518.7" y2="25.7"/>
<path style="fill:#AD5E7A;" d="M546.2,28.8c2,0,3.7-1.7,3.7-3.7s-1.7-3.7-3.7-3.7s-3.7,1.7-3.7,3.7S544.1,28.8,546.2,28.8"/>
</svg>
