<?xml version="1.0" encoding="utf-8"?>
<!-- Generator: Adobe Illustrator 26.2.1, SVG Export Plug-In . SVG Version: 6.00 Build 0)  -->
<svg version="1.1" id="Ebene_1" xmlns="http://www.w3.org/2000/svg" xmlns:xlink="http://www.w3.org/1999/xlink" x="0px" y="0px"
	 width="73.4px" height="9.5px" viewBox="0 0 73.4 9.5" enable-background="new 0 0 73.4 9.5" xml:space="preserve">
<line fill="none" stroke="#B2B1B1" stroke-width="2" x1="36" y1="4.5" x2="0" y2="4.5"/>
<path fill="#AD5E7A" d="M27.5,7.6c2,0,3.7-1.7,3.7-3.7s-1.7-3.7-3.7-3.7s-3.7,1.7-3.7,3.7S25.5,7.6,27.5,7.6"/>
<g>
	<path fill="#B2B1B1" d="M50.7,4.7c0,3.1-1.8,4.8-4.5,4.8c-0.9,0-1.8-0.2-2.4-0.6l0.6-1.3C44.9,7.9,45.5,8,46.1,8
		c1.7,0,2.8-1.1,2.8-3.1l0,0c-0.5,0.6-1.4,0.9-2.4,0.9c-1.8,0-3.1-1.1-3.1-2.8c0-1.8,1.5-3,3.3-3C49.3,0.1,50.7,1.7,50.7,4.7z
		 M48.8,3c0-0.9-0.7-1.5-1.9-1.5c-1.1,0-1.8,0.6-1.8,1.5s0.7,1.5,1.8,1.5C48,4.6,48.8,3.9,48.8,3z"/>
	<path fill="#B2B1B1" d="M58.6,6.6c0,1.6-1.2,2.9-3.6,2.9c-1.3,0-2.6-0.4-3.4-1.1l0.7-1.3C53,7.6,54,8,55,8c1.2,0,1.9-0.5,1.9-1.4
		s-0.6-1.4-2.4-1.4h-2.2l0.5-5h5.3v1.4h-3.9L54,3.7h0.9C57.5,3.8,58.6,5,58.6,6.6z"/>
	<path fill="#B2B1B1" d="M63,2.7c0-1.5,0.9-2.5,2.2-2.5s2.2,1,2.2,2.5s-0.9,2.5-2.2,2.5S63,4.2,63,2.7z M66.3,2.7
		c0-1-0.4-1.6-1.1-1.6c-0.7,0-1.1,0.6-1.1,1.6s0.4,1.6,1.1,1.6C65.9,4.3,66.3,3.7,66.3,2.7z M70.6,0.3h1.3l-6.2,9.1h-1.3L70.6,0.3z
		 M69,7c0-1.5,0.9-2.5,2.2-2.5s2.2,1,2.2,2.5s-0.9,2.5-2.2,2.5S69,8.5,69,7z M72.3,7c0-1-0.4-1.6-1.1-1.6S70.1,6,70.1,7
		s0.4,1.6,1.1,1.6S72.3,8,72.3,7z"/>
</g>
</svg>
