<?xml version="1.0" encoding="utf-8"?>
<!-- Generator: Adobe Illustrator 26.0.3, SVG Export Plug-In . SVG Version: 6.00 Build 0)  -->
<svg version="1.1" id="Ebene_1" xmlns="http://www.w3.org/2000/svg" xmlns:xlink="http://www.w3.org/1999/xlink" x="0px" y="0px"
	 width="1014px" height="21px" viewBox="0 0 1014 21" style="enable-background:new 0 0 1014 21;" xml:space="preserve">
<style type="text/css">
	.st0{fill:none;stroke:#C5C5C5;stroke-width:3;stroke-linecap:round;stroke-linejoin:round;}
	.st1{fill:#FFAEFF;stroke:#4F4D4D;stroke-width:0.5;}
	.st2{fill:#F8F8F8;}
	.st3{fill:#0E689A;}
	.st4{fill:none;stroke:#B2B1B1;stroke-width:0.65;stroke-miterlimit:10;}
	.st5{fill:#B2B1B1;}
	.st6{fill:none;stroke:#B2B2B2;stroke-width:0.5;stroke-miterlimit:10;}
	.st7{fill:none;stroke:#B2B1B1;stroke-width:0.3;stroke-miterlimit:10;}
	.st8{fill:none;stroke:#FFFFFF;stroke-width:0.021;}
	.st9{fill:none;}
	.st10{fill:#0E6899;}
	.st11{fill:#FFFFFF;}
	.st12{fill:none;stroke:#C5C5C5;stroke-width:0.5;stroke-linecap:round;stroke-linejoin:round;}
	.st13{fill:#C5C5C5;}
	.st14{fill:none;stroke:#B2B1B1;stroke-width:0.5;}
	.st15{fill:none;stroke:#B2B1B1;stroke-width:1.2;}
	.st16{fill:#B2B2B2;}
	.st17{fill:none;stroke:#FFFFFF;stroke-width:0.001;}
	.st18{fill:none;stroke:#B2B1B1;stroke-width:1.712;}
	.st19{fill:none;stroke:#B2B1B1;stroke-width:2;}
	.st20{fill:#AD5E7A;}
	.st21{fill:none;stroke:#B2B1B1;stroke-width:0.941;}
	.st22{fill:none;stroke:#B2B1B1;stroke-width:0.941;stroke-dasharray:1.889,1.889;}
	.st23{fill:none;stroke:#B2B1B1;stroke-width:0.941;stroke-dasharray:1.754,1.754;}
	.st24{fill:none;stroke:#B2B1B1;stroke-width:0.804;}
	.st25{fill:none;stroke:#FFFFFF;stroke-width:0.804;}
	.st26{fill:none;stroke:#B2B1B1;stroke-width:2.5;}
	.st27{fill:none;stroke:#B2B1B1;stroke-width:0.941;stroke-dasharray:1.971,1.971;}
	.st28{fill:none;stroke:#B2B1B1;stroke-width:0.941;stroke-dasharray:2.006,2.006;}
	.st29{fill:none;stroke:#B2B1B1;stroke-width:0.941;stroke-dasharray:1.801,1.801;}
	.st30{fill:none;stroke:#B2B1B1;stroke-width:0.941;stroke-dasharray:2.091,2.091;}
	
		.st31{clip-path:url(#SVGID_00000018950860150953351950000013806666367123594659_);fill:none;stroke:#B2B2B2;stroke-linecap:round;stroke-linejoin:round;stroke-dasharray:0,3.009;}
	
		.st32{clip-path:url(#SVGID_00000018950860150953351950000013806666367123594659_);fill:none;stroke:#B2B2B2;stroke-linecap:round;stroke-linejoin:round;}
	.st33{fill:none;stroke:#4F4D4D;stroke-width:0.5;}
</style>
<polyline class="st0" points="2066.295,767.902 2060.045,758.902 2053.295,767.902 "/>
<circle class="st1" cx="74.402" cy="-194.847" r="12.75"/>
<rect x="106.862" y="-205.861" class="st2" width="119.902" height="21"/>
<polygon class="st3" points="217.692,-200.599 204.692,-200.599 211.06,-190.124 "/>
<g>
	<g>
		<line class="st4" x1="330.704" y1="-188.341" x2="340.987" y2="-188.341"/>
		<g>
			<path class="st5" d="M331.991-193.566v-5.175h1.3v5.122c0,2.016,0.923,2.926,2.561,2.926c1.638,0,2.574-0.91,2.574-2.926v-5.122
				h1.261v5.175c0,2.639-1.443,4.029-3.848,4.029C333.447-189.537,331.991-190.928,331.991-193.566z"/>
		</g>
	</g>
	<polygon class="st6" points="322.595,-206.541 322.595,-180.541 322.595,-180.291 322.845,-180.291 348.845,-180.291 
		349.095,-180.291 349.095,-180.541 349.095,-206.541 349.095,-206.791 348.845,-206.791 322.845,-206.791 322.595,-206.791 	"/>
</g>
<g>
	<g>
		<path class="st5" d="M301.242-198.468h1.3l-1.82,9.101h-1.3L301.242-198.468z"/>
	</g>
	<polygon class="st6" points="287.731,-206.917 287.731,-180.917 287.731,-180.667 287.981,-180.667 313.981,-180.667 
		314.231,-180.667 314.231,-180.917 314.231,-206.917 314.231,-207.167 313.981,-207.167 287.981,-207.167 287.731,-207.167 	"/>
</g>
<g>
	<g>
		<path class="st5" d="M268.093-191.799c0,1.573-1.248,2.483-3.64,2.483h-4.706v-9.101h4.446c2.275,0,3.445,0.949,3.445,2.366
			c0,0.91-0.468,1.612-1.209,2.002C267.443-193.723,268.093-192.942,268.093-191.799z M261.84-196.83v2.146h2.093
			c1.027,0,1.586-0.364,1.586-1.079s-0.559-1.066-1.586-1.066H261.84z M265.974-192.02c0-0.767-0.585-1.131-1.677-1.131h-2.457
			v2.249h2.457C265.389-190.901,265.974-191.239,265.974-192.02z"/>
	</g>
	<polygon class="st6" points="250.67,-206.866 250.67,-180.866 250.67,-180.616 250.92,-180.616 276.92,-180.616 277.17,-180.616 
		277.17,-180.866 277.17,-206.866 277.17,-207.116 276.92,-207.116 250.92,-207.116 250.67,-207.116 	"/>
</g>
<path class="st7" d="M304.858-164.912"/>
<path class="st7" d="M302.35-163.658"/>
<path class="st7" d="M302.35-162.404"/>
<path class="st7" d="M302.35-161.15"/>
<path class="st7" d="M304.858-159.896"/>
<path class="st7" d="M304.858-158.642"/>
<path class="st7" d="M302.35-157.388"/>
<path class="st7" d="M302.35-154.88"/>
<path class="st7" d="M304.858-152.373"/>
<g>
	<path class="st7" d="M285.394-159.896"/>
	<path class="st7" d="M285.394-164.912"/>
	<path class="st7" d="M285.394-152.373"/>
	<path class="st7" d="M285.394-158.642"/>
	<g>
		<path class="st7" d="M287.456-157.388"/>
		<path class="st7" d="M287.456-161.15"/>
		<path class="st7" d="M287.456-162.404"/>
		<path class="st7" d="M287.456-163.658"/>
		<line class="st7" x1="285.018" y1="-153.167" x2="304.482" y2="-153.167"/>
		<line class="st7" x1="285.018" y1="-154.443" x2="299.912" y2="-154.443"/>
		<line class="st7" x1="285.018" y1="-155.719" x2="299.912" y2="-155.719"/>
		<line class="st7" x1="285.018" y1="-156.995" x2="299.912" y2="-156.995"/>
		<line class="st7" x1="285.018" y1="-158.271" x2="304.482" y2="-158.271"/>
		<line class="st7" x1="285.018" y1="-159.547" x2="304.482" y2="-159.547"/>
		<line class="st7" x1="285.091" y1="-160.823" x2="299.985" y2="-160.823"/>
		<line class="st7" x1="285.018" y1="-162.099" x2="304.482" y2="-162.099"/>
		<line class="st7" x1="285.018" y1="-163.374" x2="299.912" y2="-163.374"/>
		<line class="st7" x1="285.018" y1="-164.651" x2="299.912" y2="-164.651"/>
		<line class="st7" x1="285.018" y1="-165.926" x2="304.482" y2="-165.926"/>
	</g>
	<polygon class="st6" points="281.691,-172.221 281.691,-146.228 281.691,-145.978 281.941,-145.978 307.934,-145.978 
		308.184,-145.978 308.184,-146.228 308.184,-172.221 308.184,-172.471 307.934,-172.471 281.941,-172.471 281.691,-172.471 	"/>
</g>
<g>
	<g>
		<line class="st7" x1="335.738" y1="-165.61" x2="316.274" y2="-165.61"/>
		<line class="st7" x1="333.23" y1="-164.333" x2="318.336" y2="-164.333"/>
		<line class="st7" x1="333.23" y1="-163.056" x2="318.336" y2="-163.056"/>
		<line class="st7" x1="333.23" y1="-161.779" x2="318.336" y2="-161.779"/>
		<line class="st7" x1="335.738" y1="-160.502" x2="316.274" y2="-160.502"/>
		<line class="st7" x1="335.738" y1="-159.225" x2="316.274" y2="-159.225"/>
		<line class="st7" x1="333.23" y1="-157.948" x2="318.336" y2="-157.948"/>
		<line class="st7" x1="335.738" y1="-156.671" x2="316.274" y2="-156.671"/>
		<line class="st7" x1="333.23" y1="-155.393" x2="318.336" y2="-155.393"/>
		<line class="st7" x1="333.23" y1="-154.116" x2="318.336" y2="-154.116"/>
		<line class="st7" x1="335.738" y1="-152.84" x2="316.274" y2="-152.84"/>
	</g>
	<polygon class="st6" points="312.76,-172.221 312.76,-146.228 312.76,-145.978 313.01,-145.978 339.003,-145.978 339.253,-145.978 
		339.253,-146.228 339.253,-172.221 339.253,-172.471 339.003,-172.471 313.01,-172.471 312.76,-172.471 	"/>
</g>
<polygon class="st6" points="343.828,-172.221 343.828,-146.228 343.828,-145.978 344.078,-145.978 370.071,-145.978 
	370.321,-145.978 370.321,-146.228 370.321,-172.221 370.321,-172.471 370.071,-172.471 344.078,-172.471 343.828,-172.471 "/>
<path class="st7" d="M347.155-153.537"/>
<path class="st7" d="M347.155-158.553"/>
<path class="st7" d="M347.155-159.807"/>
<path class="st7" d="M347.155-166.077"/>
<path class="st7" d="M364.558-161.061"/>
<path class="st7" d="M366.62-158.553"/>
<path class="st7" d="M364.558-157.299"/>
<path class="st7" d="M366.62-153.537"/>
<path class="st7" d="M366.62-166.077"/>
<path class="st7" d="M366.62-159.807"/>
<path class="st7" d="M364.558-156.045"/>
<path class="st7" d="M364.558-154.791"/>
<g>
	<path class="st7" d="M349.475-155.113"/>
	<path class="st7" d="M349.475-156.367"/>
	<path class="st7" d="M349.475-157.622"/>
	<path class="st7" d="M349.475-161.383"/>
	<path class="st7" d="M349.475-163.891"/>
	<line class="st7" x1="366.807" y1="-165.604" x2="347.343" y2="-165.604"/>
	<line class="st7" x1="366.807" y1="-164.329" x2="351.913" y2="-164.329"/>
	<line class="st7" x1="366.807" y1="-163.053" x2="351.913" y2="-163.053"/>
	<line class="st7" x1="366.807" y1="-161.776" x2="351.913" y2="-161.776"/>
	<line class="st7" x1="366.807" y1="-160.5" x2="347.343" y2="-160.5"/>
	<line class="st7" x1="366.807" y1="-159.225" x2="347.343" y2="-159.225"/>
	<line class="st7" x1="366.734" y1="-157.949" x2="351.84" y2="-157.949"/>
	<line class="st7" x1="366.807" y1="-156.673" x2="347.343" y2="-156.673"/>
	<line class="st7" x1="366.807" y1="-155.397" x2="351.913" y2="-155.397"/>
	<line class="st7" x1="366.807" y1="-154.121" x2="351.913" y2="-154.121"/>
	<line class="st7" x1="366.807" y1="-152.845" x2="347.343" y2="-152.845"/>
</g>
<polygon class="st6" points="250.92,-172.215 250.92,-146.222 250.92,-145.972 251.17,-145.972 277.163,-145.972 277.413,-145.972 
	277.413,-146.222 277.413,-172.215 277.413,-172.465 277.163,-172.465 251.17,-172.465 250.92,-172.465 "/>
<path class="st7" d="M274.087-164.912"/>
<path class="st7" d="M274.087-159.896"/>
<path class="st7" d="M274.087-158.642"/>
<path class="st7" d="M274.087-152.373"/>
<path class="st7" d="M256.685-157.388"/>
<path class="st7" d="M254.622-159.896"/>
<path class="st7" d="M256.685-161.15"/>
<path class="st7" d="M254.622-164.912"/>
<path class="st7" d="M254.622-152.373"/>
<path class="st7" d="M254.622-158.642"/>
<path class="st7" d="M256.685-162.404"/>
<path class="st7" d="M256.685-163.658"/>
<g>
	<path class="st7" d="M271.579-163.658"/>
	<path class="st7" d="M271.579-162.404"/>
	<path class="st7" d="M271.579-161.15"/>
	<path class="st7" d="M271.579-157.388"/>
	<path class="st7" d="M271.579-154.88"/>
	<line class="st7" x1="254.247" y1="-153.167" x2="273.711" y2="-153.167"/>
	<line class="st7" x1="254.247" y1="-154.443" x2="273.711" y2="-154.443"/>
	<line class="st7" x1="254.247" y1="-155.719" x2="273.711" y2="-155.719"/>
	<line class="st7" x1="254.247" y1="-156.995" x2="273.711" y2="-156.995"/>
	<line class="st7" x1="254.247" y1="-158.271" x2="273.711" y2="-158.271"/>
	<line class="st7" x1="254.247" y1="-159.547" x2="273.711" y2="-159.547"/>
	<line class="st7" x1="254.32" y1="-160.823" x2="273.784" y2="-160.823"/>
	<line class="st7" x1="254.247" y1="-162.099" x2="273.711" y2="-162.099"/>
	<line class="st7" x1="254.247" y1="-163.374" x2="273.711" y2="-163.374"/>
	<line class="st7" x1="254.247" y1="-164.651" x2="273.711" y2="-164.651"/>
	<line class="st7" x1="254.247" y1="-165.926" x2="273.711" y2="-165.926"/>
</g>
<path class="st5" d="M81.363-57.066l-1.915,13.335c-0.058,0.402-0.431,0.682-0.834,0.624c-0.402-0.058-0.682-0.431-0.624-0.833
	l1.915-13.336c0.058-0.402,0.431-0.681,0.834-0.623C81.141-57.841,81.421-57.469,81.363-57.066 M74.546-42.991
	c-0.407,0.003-0.74-0.324-0.742-0.73l-0.106-13.472c-0.003-0.407,0.324-0.739,0.73-0.742c0.408-0.003,0.74,0.324,0.743,0.731
	l0.105,13.471C75.279-43.326,74.952-42.994,74.546-42.991 M70.475-43.044c-0.401,0.064-0.779-0.209-0.842-0.61l-2.124-13.304
	c-0.064-0.402,0.209-0.779,0.612-0.843c0.401-0.064,0.778,0.209,0.842,0.611l2.123,13.303C71.15-43.485,70.877-43.108,70.475-43.044
	 M84.258-59.452c-0.141-0.169-0.353-0.266-0.573-0.264l-18.538,0.144c-0.22,0.002-0.429,0.101-0.568,0.272
	c-0.14,0.17-0.196,0.393-0.155,0.609l3.092,16.141c0.068,0.351,0.376,0.605,0.734,0.602l12.497-0.098
	c0.356-0.002,0.66-0.258,0.724-0.608l2.949-16.188C84.46-59.058,84.399-59.283,84.258-59.452"/>
<path class="st8" d="M81.363-57.066l-1.915,13.335c-0.058,0.402-0.431,0.682-0.834,0.624c-0.402-0.058-0.682-0.431-0.624-0.833
	l1.915-13.336c0.058-0.402,0.431-0.681,0.834-0.623C81.141-57.841,81.421-57.469,81.363-57.066z M74.546-42.991
	c-0.407,0.003-0.74-0.324-0.742-0.73l-0.106-13.472c-0.003-0.407,0.324-0.739,0.73-0.742c0.408-0.003,0.74,0.324,0.743,0.731
	l0.105,13.471C75.279-43.326,74.952-42.994,74.546-42.991z M70.475-43.044c-0.401,0.064-0.779-0.209-0.842-0.61l-2.124-13.304
	c-0.064-0.402,0.209-0.779,0.612-0.843c0.401-0.064,0.778,0.209,0.842,0.611l2.123,13.303C71.15-43.485,70.877-43.108,70.475-43.044
	z M84.258-59.452c-0.141-0.169-0.353-0.266-0.573-0.264l-18.538,0.144c-0.22,0.002-0.429,0.101-0.568,0.272
	c-0.14,0.17-0.196,0.393-0.155,0.609l3.092,16.141c0.068,0.351,0.376,0.605,0.734,0.602l12.497-0.098
	c0.356-0.002,0.66-0.258,0.724-0.608l2.949-16.188C84.46-59.058,84.399-59.283,84.258-59.452z"/>
<path class="st5" d="M71.571-64.059L71.571-64.059l-0.004-0.421l5.49-0.043l0.004,0.421L71.571-64.059z M85.308-62.649
	L85.308-62.649l-2.025,0.016l-0.009-1.171c-0.001-0.091-0.038-0.18-0.103-0.244c-0.065-0.064-0.155-0.1-0.246-0.1l-4.467,0.035
	l-0.009-1.12c-0.002-0.184-0.077-0.363-0.209-0.492c-0.131-0.13-0.311-0.203-0.495-0.201l-6.887,0.054
	c-0.183,0.001-0.363,0.077-0.492,0.208c-0.129,0.131-0.202,0.312-0.2,0.496l0.009,1.12l-4.164,0.032
	c-0.091,0.001-0.18,0.039-0.243,0.104c-0.065,0.065-0.101,0.154-0.101,0.246l0.009,1.171l-2.197,0.017l0.017,2.225l21.829-0.17
	L85.308-62.649z"/>
<path class="st8" d="M71.571-64.059L71.571-64.059l-0.004-0.421l5.49-0.043l0.004,0.421L71.571-64.059z M85.308-62.649
	L85.308-62.649l-2.025,0.016l-0.009-1.171c-0.001-0.091-0.038-0.18-0.103-0.244c-0.065-0.064-0.155-0.1-0.246-0.1l-4.467,0.035
	l-0.009-1.12c-0.002-0.184-0.077-0.363-0.209-0.492c-0.131-0.13-0.311-0.203-0.495-0.201l-6.887,0.054
	c-0.183,0.001-0.363,0.077-0.492,0.208c-0.129,0.131-0.202,0.312-0.2,0.496l0.009,1.12l-4.164,0.032
	c-0.091,0.001-0.18,0.039-0.243,0.104c-0.065,0.065-0.101,0.154-0.101,0.246l0.009,1.171l-2.197,0.017l0.017,2.225l21.829-0.17
	L85.308-62.649z"/>
<rect x="63.468" y="-65.937" class="st9" width="21.868" height="24"/>
<rect x="404.397" y="-206.705" class="st10" width="34.924" height="19.551"/>
<g>
	<path class="st11" d="M417.374-196.292v4.238h-0.884v-1.066c-0.416,0.702-1.222,1.132-2.354,1.132
		c-1.547,0-2.496-0.807-2.496-1.989c0-1.054,0.676-1.938,2.639-1.938h2.171v-0.416c0-1.17-0.663-1.807-1.938-1.807
		c-0.884,0-1.716,0.312-2.275,0.806l-0.416-0.688c0.689-0.585,1.703-0.924,2.782-0.924
		C416.374-198.944,417.374-198.06,417.374-196.292z M416.452-194.107v-1.118h-2.146c-1.326,0-1.755,0.52-1.755,1.222
		c0,0.793,0.637,1.287,1.729,1.287C415.32-192.717,416.087-193.211,416.452-194.107z"/>
	<path class="st11" d="M425.474-198.892v6.838h-0.884v-1.248c-0.481,0.832-1.365,1.313-2.458,1.313
		c-1.742,0-2.886-0.976-2.886-2.938v-3.965h0.923v3.874c0,1.456,0.754,2.197,2.054,2.197c1.43,0,2.327-0.924,2.327-2.483v-3.588
		H425.474z"/>
	<path class="st11" d="M426.773-192.834l0.416-0.728c0.546,0.429,1.469,0.767,2.431,0.767c1.3,0,1.833-0.441,1.833-1.118
		c0-1.78-4.433-0.377-4.433-3.081c0-1.118,0.962-1.95,2.704-1.95c0.884,0,1.846,0.247,2.418,0.638l-0.403,0.74
		c-0.598-0.416-1.313-0.585-2.015-0.585c-1.235,0-1.781,0.481-1.781,1.132c0,1.846,4.434,0.455,4.434,3.081
		c0,1.183-1.04,1.95-2.821,1.95C428.424-191.988,427.332-192.353,426.773-192.834z"/>
</g>
<polygon class="st6" points="404.647,-206.83 404.647,-186.83 404.647,-186.58 404.897,-186.58 473.746,-186.58 473.996,-186.58 
	473.996,-186.83 473.996,-206.83 473.996,-207.08 473.746,-207.08 404.897,-207.08 404.647,-207.08 "/>
<rect x="404.397" y="-207.33" class="st9" width="69.849" height="21"/>
<rect y="0" class="st11" width="1014" height="21"/>
<path class="st3" d="M627.161,0c-2.209,0-4,1.791-4,4v12.382c0,2.209,1.791,4,4,4h77.131c2.209,0,4-1.791,4-4V4c0-2.209-1.791-4-4-4
	H627.161z"/>
<rect x="0.25" y="0.25" class="st12" width="1013.5" height="20.5"/>
<path class="st13" d="M997.856,2.86v1.481c0,0.397,0.187,0.771,0.505,1.009l6.367,4.762c0.258,0.194,0.258,0.583,0,0.776
	l-6.367,4.762c-0.318,0.238-0.505,0.612-0.505,1.01v1.48c0,0.41,0.467,0.644,0.795,0.399l10.111-7.563
	c0.318-0.237,0.318-0.714,0-0.952l-10.11-7.562C998.323,2.216,997.856,2.451,997.856,2.86"/>
<path class="st13" d="M15.853,18.14v-1.481c0-0.397-0.187-0.771-0.505-1.009l-6.367-4.762c-0.258-0.194-0.258-0.583,0-0.776
	l6.367-4.762c0.318-0.238,0.505-0.612,0.505-1.01V2.86c0-0.41-0.467-0.644-0.795-0.399L4.947,10.024
	c-0.318,0.237-0.318,0.714,0,0.952l10.11,7.562C15.386,18.784,15.853,18.549,15.853,18.14"/>
<rect y="0" class="st9" width="1014" height="21"/>
<rect x="1055.773" y="-244.545" class="st11" width="21" height="702.123"/>
<path class="st3" d="M1055.773,169.416c0,2.209,1.791,4,4,4h12.382c2.209,0,4-1.791,4-4V91.13c0-2.209-1.791-4-4-4h-12.382
	c-2.209,0-4,1.791-4,4V169.416z"/>
<rect x="1056.023" y="-244.296" class="st12" width="20.5" height="701.624"/>
<path class="st13" d="M1058.633-231.01h1.481c0.397,0,0.771-0.19,1.009-0.512l4.762-6.453c0.194-0.262,0.583-0.262,0.776,0
	l4.762,6.453c0.238,0.322,0.612,0.512,1.01,0.512h1.48c0.41,0,0.644-0.474,0.399-0.806l-7.563-10.248
	c-0.237-0.322-0.714-0.322-0.952,0l-7.562,10.248C1057.989-231.484,1058.224-231.01,1058.633-231.01"/>
<path class="st13" d="M1073.912,443.242h-1.481c-0.397,0-0.771,0.19-1.009,0.512l-4.762,6.453c-0.194,0.262-0.583,0.262-0.776,0
	l-4.762-6.453c-0.238-0.322-0.612-0.512-1.01-0.512h-1.48c-0.41,0-0.644,0.474-0.399,0.806l7.563,10.248
	c0.237,0.322,0.714,0.322,0.952,0l7.562-10.248C1074.557,443.716,1074.322,443.242,1073.912,443.242"/>
<rect x="1055.773" y="-244.546" class="st9" width="21" height="702.124"/>
<g>
	<g>
		<line class="st7" x1="334.798" y1="-121.567" x2="321.781" y2="-121.567"/>
		<line class="st7" x1="334.798" y1="-131.742" x2="321.781" y2="-131.742"/>
		<line class="st7" x1="334.798" y1="-126.655" x2="321.781" y2="-126.655"/>
		<g>
			<path class="st5" d="M318.139-133.213v2.104h-0.487v-1.714h-0.421v-0.391H318.139z"/>
		</g>
		<g>
			<path class="st5" d="M318.9-126.245v0.396h-1.59v-0.315l0.812-0.767c0.187-0.178,0.22-0.286,0.22-0.388
				c0-0.165-0.114-0.262-0.337-0.262c-0.18,0-0.333,0.069-0.436,0.21l-0.355-0.228c0.163-0.238,0.457-0.392,0.836-0.392
				c0.469,0,0.781,0.241,0.781,0.623c0,0.204-0.057,0.391-0.352,0.664l-0.484,0.457H318.9z"/>
		</g>
		<g>
			<path class="st5" d="M318.882-121.486c0,0.354-0.273,0.68-0.872,0.68c-0.295,0-0.599-0.081-0.803-0.226l0.189-0.373
				c0.159,0.121,0.382,0.189,0.601,0.189c0.244,0,0.394-0.099,0.394-0.271c0-0.159-0.117-0.258-0.394-0.258h-0.223v-0.322
				l0.433-0.49h-0.896v-0.391h1.473v0.316l-0.475,0.541C318.689-122.03,318.882-121.796,318.882-121.486z"/>
		</g>
	</g>
	<polygon class="st6" points="312.753,-140.01 312.753,-114.01 312.753,-113.76 313.003,-113.76 339.003,-113.76 339.253,-113.76 
		339.253,-114.01 339.253,-140.01 339.253,-140.26 339.003,-140.26 313.003,-140.26 312.753,-140.26 	"/>
</g>
<polygon class="st6" points="250.92,-140.01 250.92,-114.01 250.92,-113.76 251.17,-113.76 277.17,-113.76 277.42,-113.76 
	277.42,-114.01 277.42,-140.01 277.42,-140.26 277.17,-140.26 251.17,-140.26 250.92,-140.26 "/>
<g>
	<polygon class="st6" points="281.262,-140.01 281.262,-114.01 281.262,-113.76 281.512,-113.76 307.512,-113.76 307.762,-113.76 
		307.762,-114.01 307.762,-140.01 307.762,-140.26 307.512,-140.26 281.512,-140.26 281.262,-140.26 	"/>
	<path class="st7" d="M302.794-121.885h-13.016 M302.794-127.018h-13.016 M302.794-132.15h-13.016"/>
	<path class="st5" d="M287.692-126.433c0.161-0.156,0.241-0.349,0.241-0.581c0-0.15-0.037-0.288-0.11-0.414
		c-0.073-0.125-0.172-0.224-0.297-0.297c-0.126-0.073-0.264-0.11-0.415-0.11c-0.15,0-0.288,0.037-0.41,0.11
		c-0.122,0.073-0.221,0.172-0.294,0.297c-0.072,0.126-0.11,0.264-0.11,0.414c0,0.232,0.08,0.425,0.238,0.581
		c0.157,0.156,0.35,0.234,0.576,0.234C287.338-126.199,287.531-126.277,287.692-126.433"/>
	<path class="st5" d="M287.115-131.067c0.489,0,0.885-0.396,0.885-0.885c0-0.488-0.396-0.885-0.885-0.885
		c-0.488,0-0.885,0.397-0.885,0.885C286.23-131.463,286.627-131.067,287.115-131.067"/>
	<path class="st5" d="M287.692-121.416c0.161-0.156,0.241-0.349,0.241-0.581c0-0.15-0.037-0.288-0.11-0.414
		c-0.073-0.125-0.172-0.224-0.297-0.297c-0.126-0.073-0.264-0.11-0.415-0.11c-0.15,0-0.288,0.037-0.41,0.11
		c-0.122,0.073-0.221,0.172-0.294,0.297c-0.072,0.126-0.11,0.264-0.11,0.414c0,0.232,0.08,0.425,0.238,0.581
		c0.157,0.156,0.35,0.234,0.576,0.234C287.338-121.182,287.531-121.26,287.692-121.416"/>
</g>
<path class="st7" d="M272.452-121.877h-13.016 M272.452-127.01h-13.016 M272.452-132.142h-13.016"/>
<rect x="255.888" y="-132.912" class="st5" width="1.77" height="1.77"/>
<rect x="255.888" y="-127.896" class="st5" width="1.77" height="1.77"/>
<rect x="255.888" y="-122.878" class="st5" width="1.77" height="1.77"/>
<rect x="594.41" y="-207.799" class="st2" width="245" height="57.75"/>
<g>
	<path class="st5" d="M678.195-190.704v9.101h-0.793l-5.851-7.385v7.385h-0.962v-9.101h0.793l5.863,7.385v-7.385H678.195z"/>
	<path class="st5" d="M686.827-184.736h-5.72c0.104,1.43,1.196,2.379,2.691,2.379c0.832,0,1.573-0.299,2.093-0.897l0.52,0.599
		c-0.611,0.728-1.56,1.118-2.639,1.118c-2.132,0-3.588-1.456-3.588-3.484s1.417-3.472,3.341-3.472c1.924,0,3.315,1.417,3.315,3.472
		C686.84-184.944,686.827-184.841,686.827-184.736z M681.106-185.426h4.849c-0.117-1.339-1.092-2.275-2.431-2.275
		C682.199-187.701,681.224-186.765,681.106-185.426z"/>
	<path class="st5" d="M694.691-188.441v6.838h-0.884v-1.248c-0.481,0.832-1.365,1.313-2.458,1.313c-1.742,0-2.886-0.976-2.886-2.938
		v-3.965h0.923v3.874c0,1.456,0.754,2.197,2.054,2.197c1.43,0,2.327-0.924,2.327-2.483v-3.588H694.691z"/>
	<path class="st5" d="M703.102-184.736h-5.72c0.104,1.43,1.196,2.379,2.691,2.379c0.832,0,1.573-0.299,2.093-0.897l0.52,0.599
		c-0.611,0.728-1.56,1.118-2.639,1.118c-2.132,0-3.588-1.456-3.588-3.484s1.417-3.472,3.341-3.472c1.924,0,3.315,1.417,3.315,3.472
		C703.115-184.944,703.102-184.841,703.102-184.736z M697.382-185.426h4.849c-0.117-1.339-1.092-2.275-2.431-2.275
		C698.474-187.701,697.499-186.765,697.382-185.426z"/>
	<path class="st5" d="M710.369-189.872h-3.198v-0.832h7.358v0.832h-3.198v8.269h-0.962V-189.872z"/>
	<path class="st5" d="M720.73-184.736h-5.72c0.104,1.43,1.196,2.379,2.691,2.379c0.832,0,1.573-0.299,2.093-0.897l0.52,0.599
		c-0.611,0.728-1.56,1.118-2.639,1.118c-2.132,0-3.588-1.456-3.588-3.484s1.417-3.472,3.341-3.472c1.924,0,3.315,1.417,3.315,3.472
		C720.743-184.944,720.73-184.841,720.73-184.736z M715.01-185.426h4.849c-0.117-1.339-1.092-2.275-2.431-2.275
		C716.102-187.701,715.127-186.765,715.01-185.426z"/>
	<path class="st5" d="M726.631-181.604l-2.171-2.86l-2.184,2.86h-1.04l2.704-3.51l-2.574-3.328h1.04l2.054,2.678l2.054-2.678h1.014
		l-2.574,3.328l2.73,3.51H726.631z"/>
	<path class="st5" d="M733.093-182.02c-0.364,0.325-0.91,0.481-1.443,0.481c-1.287,0-2.002-0.729-2.002-1.989v-4.135h-1.222v-0.779
		h1.222v-1.495h0.923v1.495h2.08v0.779h-2.08v4.082c0,0.807,0.416,1.248,1.183,1.248c0.377,0,0.754-0.116,1.014-0.351
		L733.093-182.02z"/>
	<path class="st5" d="M741.452-185.022c0,2.067-1.456,3.484-3.406,3.484c-1.131,0-2.08-0.494-2.639-1.417v1.352h-0.884v-9.646h0.923
		v4.108c0.572-0.884,1.508-1.353,2.6-1.353C739.996-188.494,741.452-187.09,741.452-185.022z M740.529-185.022
		c0-1.6-1.105-2.665-2.548-2.665c-1.456,0-2.548,1.065-2.548,2.665c0,1.599,1.092,2.665,2.548,2.665
		C739.423-182.357,740.529-183.424,740.529-185.022z"/>
	<path class="st5" d="M742.647-185.022c0-2.028,1.482-3.472,3.484-3.472s3.471,1.443,3.471,3.472s-1.469,3.484-3.471,3.484
		S742.647-182.994,742.647-185.022z M748.666-185.022c0-1.6-1.079-2.665-2.535-2.665s-2.548,1.065-2.548,2.665
		c0,1.599,1.092,2.665,2.548,2.665S748.666-183.424,748.666-185.022z"/>
	<path class="st5" d="M755.491-181.604l-2.171-2.86l-2.184,2.86h-1.04l2.704-3.51l-2.574-3.328h1.04l2.054,2.678l2.054-2.678h1.014
		l-2.574,3.328l2.73,3.51H755.491z"/>
</g>
<path class="st14" d="M716.91-159.84c3.707,0,6.713-3.005,6.713-6.712c0-3.708-3.006-6.713-6.713-6.713
	c-3.707,0-6.712,3.005-6.712,6.713C710.198-162.845,713.203-159.84,716.91-159.84z"/>
<rect x="594.41" y="-207.799" class="st9" width="245" height="57.75"/>
<line class="st15" x1="716.91" y1="-170.087" x2="716.91" y2="-163.018"/>
<line class="st15" x1="713.376" y1="-166.521" x2="720.444" y2="-166.521"/>
<path class="st14" d="M605.948-120.005c3.707,0,6.713-3.005,6.713-6.712c0-3.708-3.006-6.713-6.713-6.713
	c-3.707,0-6.712,3.005-6.712,6.713C599.237-123.01,602.242-120.005,605.948-120.005z"/>
<line class="st15" x1="605.948" y1="-130.251" x2="605.948" y2="-123.182"/>
<line class="st15" x1="602.414" y1="-126.686" x2="609.482" y2="-126.686"/>
<g>
	<path class="st16" d="M110.056-104.87h-3.138v-1.85h8.544v1.85h-3.138v7.956h-2.269V-104.87z"/>
	<path class="st16" d="M116.677-106.719h2.269v9.806h-2.269V-106.719z"/>
	<path class="st16" d="M129.771-103.161c0,2.185-1.639,3.544-4.258,3.544h-1.975v2.703h-2.269v-9.806h4.244
		C128.132-106.719,129.771-105.36,129.771-103.161z M127.474-103.161c0-1.079-0.701-1.709-2.087-1.709h-1.849v3.403h1.849
		C126.773-101.466,127.474-102.096,127.474-103.161z"/>
	<path class="st16" d="M139.893-103.161c0,2.185-1.639,3.544-4.258,3.544h-1.975v2.703h-2.269v-9.806h4.244
		C138.254-106.719,139.893-105.36,139.893-103.161z M137.596-103.161c0-1.079-0.701-1.709-2.087-1.709h-1.849v3.403h1.849
		C136.895-101.466,137.596-102.096,137.596-103.161z"/>
</g>
<path class="st16" d="M73.429-111.19L73.429-111.19c-1.054,2.474-1.96,4.602-2.889,6.784h5.729
	C75.325-106.662,74.443-108.77,73.429-111.19 M76.922-93.6L76.922-93.6c-0.346-1.15-0.211-1.759,1.044-1.8
	c0.976-0.033,1.343-0.74,1.02-1.64c-0.507-1.414-1.072-2.81-1.681-4.183c-0.109-0.245-0.55-0.478-0.843-0.484
	c-2.129-0.041-4.261-0.046-6.39,0.005c-0.305,0.008-0.741,0.315-0.877,0.599c-0.558,1.155-1.057,2.342-1.512,3.542
	c-0.57,1.504-0.268,2.026,1.348,2.192c0.783,0.081,1.206,0.319,1.022,1.126c-0.056,0.243-0.355,0.61-0.547,0.613
	c-2.524,0.042-5.049,0.028-7.596,0.028c-0.214-0.956-0.321-1.631,0.868-1.885c0.569-0.122,1.219-0.609,1.515-1.117
	c0.755-1.293,1.377-2.67,1.972-4.049c2.401-5.559,4.761-11.135,7.172-16.689c0.173-0.398,0.634-0.67,0.96-1
	c0.319,0.343,0.766,0.632,0.937,1.037c2.56,6.048,5.079,12.114,7.622,18.17c0.326,0.776,0.705,1.534,1.106,2.275
	c0.507,0.939,1.332,1.389,2.379,1.595c0.265,0.052,0.519,0.638,0.586,1.013c0.032,0.175-0.39,0.621-0.611,0.624
	C83.264-93.587,80.111-93.6,76.922-93.6"/>
<path class="st5" d="M170.667-101.139c2.682-0.014,4.762-2.036,4.751-4.621c-0.01-2.367-2.203-4.406-4.733-4.399
	c-2.703,0.008-4.848,2.038-4.825,4.568C165.883-103.127,168.043-101.126,170.667-101.139 M176.222-101.126L176.222-101.126
	c0.393-0.231,0.569-0.207,0.91,0.115c1.249,1.181,2.501,2.361,3.751,3.541c0.086,0.08,0.173,0.159,0.252,0.246
	c0.216,0.237,0.217,0.464-0.012,0.692c-0.249,0.248-0.509,0.488-0.767,0.727c-0.302,0.28-0.548,0.287-0.855,0
	c-1.177-1.103-2.348-2.211-3.522-3.318c-0.132-0.124-0.263-0.25-0.396-0.373c-0.368-0.34-0.394-0.487-0.153-0.896
	c-0.368-0.336-0.737-0.673-1.128-1.029c-1.472,1.07-3.153,1.471-5.011,1.06c-1.415-0.313-2.544-1.054-3.377-2.178
	c-1.65-2.23-1.286-5.335,0.823-7.11c2.222-1.87,5.521-1.904,7.68-0.117c2.217,1.835,2.765,5.106,0.696,7.583
	C175.483-101.83,175.852-101.479,176.222-101.126"/>
<path class="st17" d="M170.667-101.139c2.682-0.014,4.762-2.036,4.751-4.621c-0.01-2.367-2.203-4.406-4.733-4.399
	c-2.703,0.008-4.848,2.038-4.825,4.568C165.883-103.127,168.043-101.126,170.667-101.139z M176.222-101.126L176.222-101.126
	c0.393-0.231,0.569-0.207,0.91,0.115c1.249,1.181,2.501,2.361,3.751,3.541c0.086,0.08,0.173,0.159,0.252,0.246
	c0.216,0.237,0.217,0.464-0.012,0.692c-0.249,0.248-0.509,0.488-0.767,0.727c-0.302,0.28-0.548,0.287-0.855,0
	c-1.177-1.103-2.348-2.211-3.522-3.318c-0.132-0.124-0.263-0.25-0.396-0.373c-0.368-0.34-0.394-0.487-0.153-0.896
	c-0.368-0.336-0.737-0.673-1.128-1.029c-1.472,1.07-3.153,1.471-5.011,1.06c-1.415-0.313-2.544-1.054-3.377-2.178
	c-1.65-2.23-1.286-5.335,0.823-7.11c2.222-1.87,5.521-1.904,7.68-0.117c2.217,1.835,2.765,5.106,0.696,7.583
	C175.483-101.83,175.852-101.479,176.222-101.126z"/>
<path class="st5" d="M234.381-110.719l2.966,2.98v-2.758c0-0.096-0.055-0.229-0.123-0.297l-3.807-3.826
	c-0.068-0.067-0.178-0.067-0.245,0l-3.93,3.949v2.758c0,0.096,0.055,0.119,0.122,0.051l2.844-2.857
	c0.068-0.068,0.122-0.046,0.122,0.05v7.829h0v2.168c0,0.096-0.055,0.118-0.123,0.05l-2.966-2.98v2.758
	c0,0.096,0.055,0.229,0.123,0.297l3.807,3.826c0.068,0.067,0.178,0.067,0.245,0l3.93-3.949v-2.758c0-0.096-0.055-0.119-0.122-0.051
	l-2.844,2.857c-0.068,0.068-0.122,0.046-0.122-0.05v-7.829h0v-2.168C234.258-110.765,234.313-110.787,234.381-110.719z"/>
<line class="st18" x1="198.242" y1="-97.483" x2="226.075" y2="-97.483"/>
<line class="st18" x1="198.242" y1="-105.779" x2="226.075" y2="-105.779"/>
<line class="st18" x1="198.242" y1="-113.771" x2="226.075" y2="-113.771"/>
<line class="st18" x1="212.584" y1="-78.512" x2="212.584" y2="-57.512"/>
<path class="st5" d="M220.044-64.669L220.044-64.669h2.695l-2.603-2.569c-0.138-0.135-0.093-0.245,0.101-0.245h7.006v-1.407
	c0-0.193-0.157-0.35-0.35-0.35h-6.656c-0.194,0-0.239-0.11-0.101-0.246l2.603-2.569h-2.345c-0.193,0-0.462,0.111-0.599,0.246
	l-3.245,3.201c-0.137,0.136-0.137,0.356,0,0.492L220.044-64.669z"/>
<path class="st5" d="M204.273-71.88L204.273-71.88h-2.695l2.603,2.569c0.138,0.135,0.093,0.245-0.101,0.245h-7.006v1.407
	c0,0.193,0.157,0.35,0.35,0.35h6.656c0.194,0,0.239,0.11,0.101,0.246l-2.603,2.569h2.345c0.193,0,0.462-0.111,0.599-0.246
	l3.245-3.201c0.137-0.136,0.137-0.356,0-0.492L204.273-71.88z"/>
<line class="st19" x1="528.87" y1="-197.625" x2="492.847" y2="-197.625"/>
<path class="st20" d="M520.367-194.478c2.045,0,3.703-1.658,3.703-3.703s-1.658-3.703-3.703-3.703c-2.045,0-3.703,1.658-3.703,3.703
	S518.322-194.478,520.367-194.478"/>
<g>
	<path class="st5" d="M543.566-197.423c0,3.12-1.82,4.836-4.459,4.836c-0.91,0-1.781-0.195-2.392-0.585l0.624-1.274
		c0.494,0.325,1.092,0.442,1.729,0.442c1.716,0,2.795-1.066,2.795-3.133v-0.014c-0.546,0.638-1.417,0.949-2.431,0.949
		c-1.794,0-3.133-1.092-3.133-2.795c0-1.807,1.469-2.951,3.328-2.951C542.11-201.948,543.566-200.348,543.566-197.423z
		 M541.603-199.087c0-0.858-0.676-1.534-1.885-1.534c-1.053,0-1.781,0.598-1.781,1.547s0.715,1.547,1.82,1.547
		C540.849-197.528,541.603-198.191,541.603-199.087z"/>
	<path class="st5" d="M551.431-195.512c0,1.599-1.157,2.925-3.602,2.925c-1.287,0-2.587-0.39-3.419-1.053l0.715-1.313
		c0.663,0.546,1.651,0.897,2.678,0.897c1.209,0,1.924-0.533,1.924-1.392c0-0.871-0.559-1.417-2.444-1.417h-2.197l0.468-4.953h5.343
		v1.417h-3.913l-0.195,2.106h0.871C550.352-198.294,551.431-197.124,551.431-195.512z"/>
	<path class="st5" d="M555.851-199.413c0-1.495,0.871-2.496,2.171-2.496s2.184,0.988,2.184,2.496s-0.884,2.496-2.184,2.496
		S555.851-197.917,555.851-199.413z M559.14-199.413c0-1.014-0.416-1.586-1.118-1.586c-0.676,0-1.118,0.585-1.118,1.586
		s0.442,1.586,1.118,1.586C558.724-197.827,559.14-198.399,559.14-199.413z M563.482-201.818h1.274l-6.214,9.101h-1.274
		L563.482-201.818z M561.818-195.122c0-1.495,0.871-2.496,2.171-2.496c1.3,0,2.184,1.001,2.184,2.496s-0.884,2.496-2.184,2.496
		C562.688-192.626,561.818-193.627,561.818-195.122z M565.107-195.122c0-1.001-0.429-1.586-1.118-1.586s-1.118,0.572-1.118,1.586
		c0,1.015,0.429,1.586,1.118,1.586S565.107-194.122,565.107-195.122z"/>
</g>
<rect x="506.807" y="-143.481" class="st11" width="13.149" height="16.764"/>
<polygon class="st21" points="506.807,-126.717 506.807,-126.717 519.956,-126.717 519.956,-143.481 506.807,-143.481 "/>
<rect x="499.135" y="-143.952" class="st9" width="21.291" height="24"/>
<line class="st22" x1="503.633" y1="-135.786" x2="503.633" y2="-125.399"/>
<line class="st23" x1="506.264" y1="-123.51" x2="515.913" y2="-123.51"/>
<path class="st21" d="M516.79-123.51h0.877 M503.633-124.454v0.944h0.877 M503.633-138.619v0.944"/>
<polyline class="st21" points="499.606,-135.531 499.606,-120.423 513.64,-120.423 "/>
<rect x="499.135" y="-143.952" class="st9" width="21.291" height="24"/>
<rect x="538.381" y="-143.55" class="st11" width="14.674" height="18.705"/>
<polygon class="st24" points="538.381,-124.845 538.381,-124.845 553.054,-124.845 553.054,-143.55 538.381,-143.55 "/>
<rect x="537.979" y="-143.952" class="st9" width="19.884" height="24"/>
<rect x="542.788" y="-139.059" class="st5" width="14.674" height="18.705"/>
<polygon class="st25" points="542.787,-120.354 542.787,-120.354 557.46,-120.354 557.46,-139.059 542.787,-139.059 "/>
<rect x="537.979" y="-143.952" class="st9" width="19.884" height="24"/>
<rect x="439.488" y="-140.003" class="st10" width="34.924" height="19.551"/>
<g>
	<path class="st11" d="M453.729-128.485h-5.72c0.104,1.43,1.196,2.379,2.691,2.379c0.832,0,1.573-0.299,2.093-0.897l0.52,0.599
		c-0.611,0.728-1.56,1.118-2.639,1.118c-2.132,0-3.588-1.456-3.588-3.484c0-2.028,1.417-3.472,3.341-3.472
		c1.924,0,3.315,1.417,3.315,3.472C453.743-128.693,453.729-128.589,453.729-128.485z M448.009-129.174h4.849
		c-0.117-1.339-1.092-2.275-2.431-2.275C449.102-131.45,448.126-130.513,448.009-129.174z"/>
	<path class="st11" d="M454.977-134.348c0-0.352,0.299-0.65,0.676-0.65s0.676,0.286,0.676,0.637c0,0.378-0.286,0.677-0.676,0.677
		C455.276-133.685,454.977-133.984,454.977-134.348z M455.185-132.19h0.923v6.838h-0.923V-132.19z"/>
	<path class="st11" d="M464.402-129.317v3.965h-0.923v-3.874c0-1.443-0.754-2.185-2.054-2.185c-1.469,0-2.392,0.91-2.392,2.471
		v3.588h-0.923v-6.838h0.884v1.261c0.494-0.832,1.417-1.313,2.6-1.313C463.258-132.243,464.402-131.281,464.402-129.317z"/>
</g>
<polygon class="st6" points="404.48,-140.128 404.48,-120.128 404.48,-119.878 404.73,-119.878 473.579,-119.878 473.829,-119.878 
	473.829,-120.128 473.829,-140.128 473.829,-140.378 473.579,-140.378 404.73,-140.378 404.48,-140.378 "/>
<rect x="404.23" y="-140.628" class="st9" width="70.183" height="21"/>
<line class="st26" x1="545.544" y1="-50.489" x2="545.544" y2="-26.229"/>
<path class="st5" d="M553.641-34.671L553.641-34.671h2.592l-2.494-2.46c-0.138-0.135-0.093-0.245,0.101-0.245h6.725v-1.339
	c0-0.193-0.157-0.35-0.35-0.35h-6.725l2.743-2.705h-2.242c-0.193,0-0.462,0.11-0.599,0.245l-3.102,3.059
	c-0.137,0.135-0.137,0.355,0,0.491L553.641-34.671z"/>
<line class="st26" x1="518.599" y1="-26.396" x2="518.599" y2="-50.656"/>
<path class="st5" d="M510.502-42.215L510.502-42.215h-2.592l2.494,2.46c0.138,0.135,0.093,0.245-0.101,0.245h-6.725v1.339
	c0,0.193,0.157,0.35,0.35,0.35h6.725l-2.743,2.705h2.242c0.193,0,0.462-0.11,0.599-0.245l3.102-3.059
	c0.137-0.135,0.137-0.355,0-0.491L510.502-42.215z"/>
<line class="st26" x1="328.857" y1="-42.618" x2="353.117" y2="-42.618"/>
<path class="st5" d="M344.508-50.675L344.508-50.675v-2.592l-2.46,2.494c-0.135,0.138-0.245,0.093-0.245-0.101v-6.725h-1.339
	c-0.193,0-0.35,0.157-0.35,0.35v6.725l-2.705-2.743v2.242c0,0.193,0.11,0.462,0.245,0.599l3.059,3.102
	c0.135,0.137,0.355,0.137,0.491,0L344.508-50.675z"/>
<path class="st5" d="M337.576-35.523L337.576-35.523v2.592l2.46-2.494c0.135-0.138,0.245-0.093,0.245,0.101v6.725h1.339
	c0.193,0,0.35-0.157,0.35-0.35v-6.725l2.705,2.743v-2.242c0-0.193-0.11-0.462-0.245-0.599l-3.059-3.102
	c-0.135-0.137-0.355-0.137-0.491,0L337.576-35.523z"/>
<line class="st26" x1="385.303" y1="-29.807" x2="385.303" y2="-54.067"/>
<path class="st5" d="M377.245-45.458L377.245-45.458h-2.592l2.494,2.46c0.138,0.135,0.093,0.245-0.101,0.245h-6.725v1.339
	c0,0.193,0.157,0.35,0.35,0.35h6.725l-2.743,2.705h2.242c0.193,0,0.462-0.11,0.599-0.245l3.102-3.059
	c0.137-0.135,0.137-0.355,0-0.491L377.245-45.458z"/>
<path class="st5" d="M392.397-38.526L392.397-38.526h2.592l-2.494-2.46c-0.138-0.135-0.093-0.245,0.101-0.245h6.725v-1.339
	c0-0.193-0.157-0.35-0.35-0.35h-6.725l2.743-2.705h-2.242c-0.193,0-0.462,0.11-0.599,0.245l-3.102,3.059
	c-0.137,0.135-0.137,0.355,0,0.491L392.397-38.526z"/>
<line class="st26" x1="417.445" y1="-42.334" x2="441.705" y2="-42.334"/>
<path class="st5" d="M426.164-35.24L426.164-35.24v2.592l2.46-2.494c0.135-0.138,0.245-0.093,0.245,0.101v6.725h1.339
	c0.193,0,0.35-0.157,0.35-0.35v-6.725l2.705,2.743v-2.242c0-0.193-0.11-0.462-0.245-0.599l-3.059-3.102
	c-0.135-0.137-0.355-0.137-0.491,0L426.164-35.24z"/>
<line class="st26" x1="462.556" y1="-31.079" x2="486.816" y2="-31.079"/>
<path class="st5" d="M478.374-39.468L478.374-39.468v-2.592l-2.46,2.494c-0.135,0.138-0.245,0.093-0.245-0.101v-6.725h-1.339
	c-0.193,0-0.35,0.157-0.35,0.35v6.725l-2.705-2.743v2.242c0,0.193,0.11,0.462,0.245,0.599l3.059,3.102
	c0.135,0.137,0.355,0.137,0.491,0L478.374-39.468z"/>
<rect x="608.42" y="-58.005" class="st11" width="15.769" height="20.056"/>
<line class="st27" x1="611.376" y1="-37.949" x2="622.217" y2="-37.949"/>
<line class="st28" x1="624.188" y1="-40.957" x2="624.188" y2="-55.999"/>
<line class="st27" x1="621.232" y1="-58.005" x2="610.391" y2="-58.005"/>
<line class="st28" x1="608.419" y1="-54.997" x2="608.419" y2="-39.955"/>
<path class="st21" d="M608.419-38.952v1.003h0.986 M609.405-58.005h-0.986v1.003 M624.188-57.002v-1.003h-0.985 M623.203-37.949
	h0.985v-1.003"/>
<polygon class="st11" points="597.184,-27.949 597.184,-27.949 612.953,-27.949 612.953,-48.005 597.184,-48.005 "/>
<line class="st27" x1="600.141" y1="-27.949" x2="610.982" y2="-27.949"/>
<line class="st28" x1="612.953" y1="-30.957" x2="612.953" y2="-45.999"/>
<line class="st27" x1="609.996" y1="-48.005" x2="599.155" y2="-48.005"/>
<line class="st28" x1="597.184" y1="-44.997" x2="597.184" y2="-29.955"/>
<path class="st21" d="M597.183-28.952v1.003h0.986 M598.169-48.005h-0.986v1.003 M612.952-47.002v-1.003h-0.985 M611.967-27.949
	h0.985v-1.003"/>
<polygon class="st11" points="587.709,-19.949 587.709,-19.949 603.478,-19.949 603.478,-40.005 587.709,-40.005 "/>
<polygon class="st21" points="587.709,-19.949 587.709,-19.949 603.478,-19.949 603.478,-40.005 587.709,-40.005 "/>
<g>
	<polygon class="st11" points="661.546,-33.644 661.546,-33.644 677.315,-33.644 677.315,-53.7 661.546,-53.7 	"/>
	<polygon class="st21" points="661.546,-33.644 661.546,-33.644 677.315,-33.644 677.315,-53.7 661.546,-53.7 	"/>
	<line class="st29" x1="657.782" y1="-45.145" x2="657.782" y2="-31.641"/>
	<line class="st30" x1="660.919" y1="-29.84" x2="672.422" y2="-29.84"/>
	<path class="st21" d="M673.467-29.84h1.046 M657.782-30.74v0.9h1.046 M657.782-47.845v0.9"/>
</g>
<g>
	<rect x="734.086" y="-65.42" class="st11" width="15.769" height="20.056"/>
	<polygon class="st21" points="734.086,-45.364 734.086,-45.364 749.855,-45.364 749.855,-65.42 734.086,-65.42 	"/>
	<polygon class="st11" points="722.849,-35.364 722.849,-35.364 738.618,-35.364 738.618,-55.42 722.849,-55.42 	"/>
	<line class="st27" x1="725.806" y1="-35.364" x2="736.647" y2="-35.364"/>
	<line class="st28" x1="738.618" y1="-38.372" x2="738.618" y2="-53.414"/>
	<line class="st27" x1="735.662" y1="-55.42" x2="724.821" y2="-55.42"/>
	<line class="st28" x1="722.849" y1="-52.412" x2="722.849" y2="-37.37"/>
	<path class="st21" d="M722.849-36.367v1.003h0.986 M723.835-55.42h-0.986v1.003 M738.618-54.417v-1.003h-0.985 M737.633-35.364
		h0.985v-1.003"/>
	<polygon class="st11" points="713.376,-27.364 713.376,-27.364 729.145,-27.364 729.145,-47.42 713.376,-47.42 	"/>
	<line class="st27" x1="716.333" y1="-27.364" x2="727.174" y2="-27.364"/>
	<line class="st28" x1="729.145" y1="-30.372" x2="729.145" y2="-45.414"/>
	<line class="st27" x1="726.188" y1="-47.42" x2="715.347" y2="-47.42"/>
	<line class="st28" x1="713.376" y1="-44.412" x2="713.376" y2="-29.37"/>
	<path class="st21" d="M713.376-28.367v1.003h0.986 M714.362-47.42h-0.986v1.003 M729.145-46.417v-1.003h-0.985 M728.16-27.364
		h0.985v-1.003"/>
</g>
<line class="st27" x1="789.499" y1="-31.879" x2="800.34" y2="-31.879"/>
<line class="st28" x1="802.311" y1="-34.887" x2="802.311" y2="-49.929"/>
<line class="st27" x1="799.355" y1="-51.935" x2="788.514" y2="-51.935"/>
<line class="st28" x1="786.542" y1="-48.926" x2="786.542" y2="-33.884"/>
<path class="st21" d="M786.542-32.882v1.003h0.986 M787.528-51.935h-0.986v1.003 M802.311-50.932v-1.003h-0.985 M801.326-31.879
	h0.985v-1.003"/>
<polyline class="st21" points="782.778,-46.08 782.778,-28.075 799.509,-28.075 "/>
<g>
	<defs>
		<rect id="SVGID_1_" x="27.504" y="61.958" width="241.682" height="1"/>
	</defs>
	<clipPath id="SVGID_00000108281543881300753520000006037857962669948039_">
		<use xlink:href="#SVGID_1_"  style="overflow:visible;"/>
	</clipPath>
	
		<line style="clip-path:url(#SVGID_00000108281543881300753520000006037857962669948039_);fill:none;stroke:#B2B2B2;stroke-linecap:round;stroke-linejoin:round;stroke-dasharray:0,3.009;" x1="31.012" y1="62.458" x2="267.182" y2="62.458"/>
	
		<path style="clip-path:url(#SVGID_00000108281543881300753520000006037857962669948039_);fill:none;stroke:#B2B2B2;stroke-linecap:round;stroke-linejoin:round;" d="
		M268.686,62.458L268.686,62.458 M28.004,62.458L28.004,62.458"/>
</g>
<circle class="st33" cx="74.402" cy="-158.754" r="12.75"/>
<polygon class="st3" points="217.795,-173.777 204.795,-173.777 211.163,-163.302 "/>
<polygon class="st5" points="225.818,-45.236 215.343,-38.868 225.818,-32.236 "/>
<polygon class="st5" points="196.771,-32.236 207.246,-38.604 196.771,-45.236 "/>
<polygon class="st5" points="279.324,-45.236 268.849,-38.868 279.324,-32.236 "/>
<polygon class="st5" points="244.147,-32.236 254.622,-38.604 244.147,-45.236 "/>
<rect x="404.397" y="-173.766" class="st10" width="34.924" height="19.551"/>
<polygon class="st6" points="404.647,-173.891 404.647,-153.891 404.647,-153.641 404.897,-153.641 473.746,-153.641 
	473.996,-153.641 473.996,-153.891 473.996,-173.891 473.996,-174.141 473.746,-174.141 404.897,-174.141 404.647,-174.141 "/>
<rect x="404.397" y="-174.391" class="st9" width="69.849" height="21"/>
<rect x="439.761" y="-107.738" class="st10" width="34.924" height="19.551"/>
<polygon class="st6" points="404.753,-107.863 404.753,-87.863 404.753,-87.613 405.003,-87.613 473.852,-87.613 474.102,-87.613 
	474.102,-87.863 474.102,-107.863 474.102,-108.113 473.852,-108.113 405.003,-108.113 404.753,-108.113 "/>
<rect x="404.503" y="-108.363" class="st9" width="70.183" height="21"/>
<line class="st19" x1="527.792" y1="-177.837" x2="491.769" y2="-177.837"/>
<path class="st20" d="M519.289-174.691c2.045,0,3.703-1.658,3.703-3.703s-1.658-3.703-3.703-3.703s-3.703,1.658-3.703,3.703
	S517.244-174.691,519.289-174.691"/>
</svg>
