<?xml version="1.0" encoding="utf-8"?>
<!-- Generator: Adobe Illustrator 26.2.1, SVG Export Plug-In . SVG Version: 6.00 Build 0)  -->
<svg version="1.1" id="Ebene_1" xmlns="http://www.w3.org/2000/svg" xmlns:xlink="http://www.w3.org/1999/xlink" x="0px" y="0px"
	 width="21.05px" height="702.15px" viewBox="0 0 21.05 702.15" enable-background="new 0 0 21.05 702.15" xml:space="preserve">
<rect fill="#FFFFFF" width="21" height="702.1"/>
<path fill="#0E689A" d="M0,414c0,2.2,1.8,4,4,4h12.4c2.2,0,4-1.8,4-4v-78.3c0-2.2-1.8-4-4-4H4c-2.2,0-4,1.8-4,4V414z"/>
<rect x="0.3" y="0.3" fill="none" stroke="#C5C5C5" stroke-width="0.5" stroke-linecap="round" stroke-linejoin="round" width="20.5" height="701.6"/>
<path fill="#C5C5C5" d="M2.9,13.6h1.5c0.4,0,0.8-0.2,1-0.5l4.8-6.5c0.2-0.3,0.6-0.3,0.8,0l4.8,6.5c0.2,0.3,0.6,0.5,1,0.5h1.5
	c0.4,0,0.6-0.5,0.4-0.8L11.1,2.6c-0.2-0.3-0.7-0.3-1,0L2.5,12.8C2.3,13.1,2.5,13.6,2.9,13.6"/>
<path fill="#C5C5C5" d="M18.2,687.8h-1.5c-0.4,0-0.8,0.2-1,0.5l-4.8,6.5c-0.2,0.3-0.6,0.3-0.8,0l-4.8-6.5c-0.2-0.3-0.6-0.5-1-0.5
	H2.8c-0.4,0-0.6,0.5-0.4,0.8l7.6,10.2c0.2,0.3,0.7,0.3,1,0l7.6-10.2C18.8,688.3,18.6,687.8,18.2,687.8"/>
<rect fill="none" width="21" height="702.1"/>
</svg>
