<?xml version="1.0" encoding="utf-8"?>
<!-- Generator: Adobe Illustrator 26.0.3, SVG Export Plug-In . SVG Version: 6.00 Build 0)  -->
<svg version="1.1" id="Ebene_1" xmlns="http://www.w3.org/2000/svg" xmlns:xlink="http://www.w3.org/1999/xlink" x="0px" y="0px"
	 width="21px" height="702.124px" viewBox="0 0 21 702.124" style="enable-background:new 0 0 21 702.124;" xml:space="preserve">
<style type="text/css">
	.st0{fill:none;stroke:#C5C5C5;stroke-width:3;stroke-linecap:round;stroke-linejoin:round;}
	.st1{fill:#FFAEFF;stroke:#4F4D4D;stroke-width:0.5;}
	.st2{fill:#F8F8F8;}
	.st3{fill:#0E689A;}
	.st4{fill:none;stroke:#B2B1B1;stroke-width:0.65;stroke-miterlimit:10;}
	.st5{fill:#B2B1B1;}
	.st6{fill:none;stroke:#B2B2B2;stroke-width:0.5;stroke-miterlimit:10;}
	.st7{fill:none;stroke:#B2B1B1;stroke-width:0.3;stroke-miterlimit:10;}
	.st8{fill:none;stroke:#FFFFFF;stroke-width:0.021;}
	.st9{fill:none;}
	.st10{fill:#0E6899;}
	.st11{fill:#FFFFFF;}
	.st12{fill:none;stroke:#C5C5C5;stroke-width:0.5;stroke-linecap:round;stroke-linejoin:round;}
	.st13{fill:#C5C5C5;}
	.st14{fill:none;stroke:#B2B1B1;stroke-width:0.5;}
	.st15{fill:none;stroke:#B2B1B1;stroke-width:1.2;}
	.st16{fill:#B2B2B2;}
	.st17{fill:none;stroke:#FFFFFF;stroke-width:0.001;}
	.st18{fill:none;stroke:#B2B1B1;stroke-width:1.712;}
	.st19{fill:none;stroke:#B2B1B1;stroke-width:2;}
	.st20{fill:#AD5E7A;}
	.st21{fill:none;stroke:#B2B1B1;stroke-width:0.941;}
	.st22{fill:none;stroke:#B2B1B1;stroke-width:0.941;stroke-dasharray:1.889,1.889;}
	.st23{fill:none;stroke:#B2B1B1;stroke-width:0.941;stroke-dasharray:1.754,1.754;}
	.st24{fill:none;stroke:#B2B1B1;stroke-width:0.804;}
	.st25{fill:none;stroke:#FFFFFF;stroke-width:0.804;}
	.st26{fill:none;stroke:#B2B1B1;stroke-width:2.5;}
	.st27{fill:none;stroke:#B2B1B1;stroke-width:0.941;stroke-dasharray:1.971,1.971;}
	.st28{fill:none;stroke:#B2B1B1;stroke-width:0.941;stroke-dasharray:2.006,2.006;}
	.st29{fill:none;stroke:#B2B1B1;stroke-width:0.941;stroke-dasharray:1.801,1.801;}
	.st30{fill:none;stroke:#B2B1B1;stroke-width:0.941;stroke-dasharray:2.091,2.091;}
	
		.st31{clip-path:url(#SVGID_00000168806520583369179790000016325385901933779329_);fill:none;stroke:#B2B2B2;stroke-linecap:round;stroke-linejoin:round;stroke-dasharray:0,3.009;}
	
		.st32{clip-path:url(#SVGID_00000168806520583369179790000016325385901933779329_);fill:none;stroke:#B2B2B2;stroke-linecap:round;stroke-linejoin:round;}
	.st33{fill:none;stroke:#4F4D4D;stroke-width:0.5;}
</style>
<polyline class="st0" points="1010.522,1012.448 1004.272,1003.448 997.522,1012.448 "/>
<circle class="st1" cx="-981.371" cy="49.7" r="12.75"/>
<rect x="-948.91" y="38.685" class="st2" width="119.902" height="21"/>
<polygon class="st3" points="-838.081,43.947 -851.081,43.947 -844.713,54.422 "/>
<g>
	<g>
		<line class="st4" x1="-725.069" y1="56.205" x2="-714.786" y2="56.205"/>
		<g>
			<path class="st5" d="M-723.781,50.98v-5.175h1.3v5.122c0,2.016,0.923,2.926,2.561,2.926c1.638,0,2.574-0.91,2.574-2.926v-5.122
				h1.261v5.175c0,2.639-1.443,4.029-3.848,4.029C-722.325,55.009-723.781,53.618-723.781,50.98z"/>
		</g>
	</g>
	<polygon class="st6" points="-733.177,38.005 -733.177,64.005 -733.177,64.255 -732.927,64.255 -706.927,64.255 -706.677,64.255 
		-706.677,64.005 -706.677,38.005 -706.677,37.755 -706.927,37.755 -732.927,37.755 -733.177,37.755 	"/>
</g>
<g>
	<g>
		<path class="st5" d="M-754.531,46.078h1.3l-1.82,9.101h-1.3L-754.531,46.078z"/>
	</g>
	<polygon class="st6" points="-768.041,37.629 -768.041,63.629 -768.041,63.879 -767.791,63.879 -741.791,63.879 -741.541,63.879 
		-741.541,63.629 -741.541,37.629 -741.541,37.379 -741.791,37.379 -767.791,37.379 -768.041,37.379 	"/>
</g>
<g>
	<g>
		<path class="st5" d="M-787.679,52.747c0,1.573-1.248,2.483-3.64,2.483h-4.706V46.13h4.446c2.275,0,3.445,0.949,3.445,2.366
			c0,0.91-0.468,1.612-1.209,2.002C-788.329,50.824-787.679,51.604-787.679,52.747z M-793.932,47.716v2.146h2.093
			c1.027,0,1.586-0.364,1.586-1.079s-0.559-1.066-1.586-1.066H-793.932z M-789.798,52.527c0-0.767-0.585-1.131-1.677-1.131h-2.457
			v2.249h2.457C-790.383,53.645-789.798,53.307-789.798,52.527z"/>
	</g>
	<polygon class="st6" points="-805.102,37.681 -805.102,63.681 -805.102,63.931 -804.852,63.931 -778.852,63.931 -778.602,63.931 
		-778.602,63.681 -778.602,37.681 -778.602,37.431 -778.852,37.431 -804.852,37.431 -805.102,37.431 	"/>
</g>
<path class="st7" d="M-750.915,79.634"/>
<path class="st7" d="M-753.422,80.888"/>
<path class="st7" d="M-753.422,82.142"/>
<path class="st7" d="M-753.422,83.396"/>
<path class="st7" d="M-750.915,84.65"/>
<path class="st7" d="M-750.915,85.904"/>
<path class="st7" d="M-753.422,87.158"/>
<path class="st7" d="M-753.422,89.666"/>
<path class="st7" d="M-750.915,92.174"/>
<g>
	<path class="st7" d="M-770.379,84.65"/>
	<path class="st7" d="M-770.379,79.634"/>
	<path class="st7" d="M-770.379,92.174"/>
	<path class="st7" d="M-770.379,85.904"/>
	<g>
		<path class="st7" d="M-768.317,87.158"/>
		<path class="st7" d="M-768.317,83.396"/>
		<path class="st7" d="M-768.317,82.142"/>
		<path class="st7" d="M-768.317,80.888"/>
		<line class="st7" x1="-770.754" y1="91.379" x2="-751.29" y2="91.379"/>
		<line class="st7" x1="-770.754" y1="90.103" x2="-755.86" y2="90.103"/>
		<line class="st7" x1="-770.754" y1="88.828" x2="-755.86" y2="88.828"/>
		<line class="st7" x1="-770.754" y1="87.551" x2="-755.86" y2="87.551"/>
		<line class="st7" x1="-770.754" y1="86.275" x2="-751.29" y2="86.275"/>
		<line class="st7" x1="-770.754" y1="84.999" x2="-751.29" y2="84.999"/>
		<line class="st7" x1="-770.681" y1="83.724" x2="-755.787" y2="83.724"/>
		<line class="st7" x1="-770.754" y1="82.448" x2="-751.29" y2="82.448"/>
		<line class="st7" x1="-770.754" y1="81.172" x2="-755.86" y2="81.172"/>
		<line class="st7" x1="-770.754" y1="79.895" x2="-755.86" y2="79.895"/>
		<line class="st7" x1="-770.754" y1="78.62" x2="-751.29" y2="78.62"/>
	</g>
	<polygon class="st6" points="-774.081,72.325 -774.081,98.318 -774.081,98.568 -773.831,98.568 -747.838,98.568 -747.588,98.568 
		-747.588,98.318 -747.588,72.325 -747.588,72.075 -747.838,72.075 -773.831,72.075 -774.081,72.075 	"/>
</g>
<g>
	<g>
		<line class="st7" x1="-720.034" y1="78.937" x2="-739.498" y2="78.937"/>
		<line class="st7" x1="-722.542" y1="80.214" x2="-737.436" y2="80.214"/>
		<line class="st7" x1="-722.542" y1="81.49" x2="-737.436" y2="81.49"/>
		<line class="st7" x1="-722.542" y1="82.768" x2="-737.436" y2="82.768"/>
		<line class="st7" x1="-720.034" y1="84.045" x2="-739.498" y2="84.045"/>
		<line class="st7" x1="-720.034" y1="85.321" x2="-739.498" y2="85.321"/>
		<line class="st7" x1="-722.542" y1="86.599" x2="-737.436" y2="86.599"/>
		<line class="st7" x1="-720.034" y1="87.876" x2="-739.498" y2="87.876"/>
		<line class="st7" x1="-722.542" y1="89.153" x2="-737.436" y2="89.153"/>
		<line class="st7" x1="-722.542" y1="90.43" x2="-737.436" y2="90.43"/>
		<line class="st7" x1="-720.034" y1="91.707" x2="-739.498" y2="91.707"/>
	</g>
	<polygon class="st6" points="-743.013,72.325 -743.013,98.318 -743.013,98.568 -742.763,98.568 -716.77,98.568 -716.52,98.568 
		-716.52,98.318 -716.52,72.325 -716.52,72.075 -716.77,72.075 -742.763,72.075 -743.013,72.075 	"/>
</g>
<polygon class="st6" points="-711.944,72.325 -711.944,98.318 -711.944,98.568 -711.694,98.568 -685.701,98.568 -685.451,98.568 
	-685.451,98.318 -685.451,72.325 -685.451,72.075 -685.701,72.075 -711.694,72.075 -711.944,72.075 "/>
<path class="st7" d="M-708.617,91.009"/>
<path class="st7" d="M-708.617,85.993"/>
<path class="st7" d="M-708.617,84.739"/>
<path class="st7" d="M-708.617,78.47"/>
<path class="st7" d="M-691.215,83.485"/>
<path class="st7" d="M-689.153,85.993"/>
<path class="st7" d="M-691.215,87.247"/>
<path class="st7" d="M-689.153,91.009"/>
<path class="st7" d="M-689.153,78.47"/>
<path class="st7" d="M-689.153,84.739"/>
<path class="st7" d="M-691.215,88.501"/>
<path class="st7" d="M-691.215,89.755"/>
<g>
	<path class="st7" d="M-706.298,89.433"/>
	<path class="st7" d="M-706.298,88.179"/>
	<path class="st7" d="M-706.298,86.925"/>
	<path class="st7" d="M-706.298,83.163"/>
	<path class="st7" d="M-706.298,80.655"/>
	<line class="st7" x1="-688.966" y1="78.942" x2="-708.43" y2="78.942"/>
	<line class="st7" x1="-688.966" y1="80.218" x2="-703.86" y2="80.218"/>
	<line class="st7" x1="-688.966" y1="81.493" x2="-703.86" y2="81.493"/>
	<line class="st7" x1="-688.966" y1="82.77" x2="-703.86" y2="82.77"/>
	<line class="st7" x1="-688.966" y1="84.046" x2="-708.43" y2="84.046"/>
	<line class="st7" x1="-688.966" y1="85.322" x2="-708.43" y2="85.322"/>
	<line class="st7" x1="-689.039" y1="86.597" x2="-703.933" y2="86.597"/>
	<line class="st7" x1="-688.966" y1="87.873" x2="-708.43" y2="87.873"/>
	<line class="st7" x1="-688.966" y1="89.149" x2="-703.86" y2="89.149"/>
	<line class="st7" x1="-688.966" y1="90.426" x2="-703.86" y2="90.426"/>
	<line class="st7" x1="-688.966" y1="91.701" x2="-708.43" y2="91.701"/>
</g>
<polygon class="st6" points="-804.852,72.332 -804.852,98.325 -804.852,98.575 -804.602,98.575 -778.609,98.575 -778.359,98.575 
	-778.359,98.325 -778.359,72.332 -778.359,72.082 -778.609,72.082 -804.602,72.082 -804.852,72.082 "/>
<path class="st7" d="M-781.686,79.634"/>
<path class="st7" d="M-781.686,84.65"/>
<path class="st7" d="M-781.686,85.904"/>
<path class="st7" d="M-781.686,92.174"/>
<path class="st7" d="M-799.088,87.158"/>
<path class="st7" d="M-801.15,84.65"/>
<path class="st7" d="M-799.088,83.396"/>
<path class="st7" d="M-801.15,79.634"/>
<path class="st7" d="M-801.15,92.174"/>
<path class="st7" d="M-801.15,85.904"/>
<path class="st7" d="M-799.088,82.142"/>
<path class="st7" d="M-799.088,80.888"/>
<g>
	<path class="st7" d="M-784.194,80.888"/>
	<path class="st7" d="M-784.194,82.142"/>
	<path class="st7" d="M-784.194,83.396"/>
	<path class="st7" d="M-784.194,87.158"/>
	<path class="st7" d="M-784.194,89.666"/>
	<line class="st7" x1="-801.526" y1="91.379" x2="-782.062" y2="91.379"/>
	<line class="st7" x1="-801.526" y1="90.103" x2="-782.062" y2="90.103"/>
	<line class="st7" x1="-801.526" y1="88.828" x2="-782.062" y2="88.828"/>
	<line class="st7" x1="-801.526" y1="87.551" x2="-782.062" y2="87.551"/>
	<line class="st7" x1="-801.526" y1="86.275" x2="-782.062" y2="86.275"/>
	<line class="st7" x1="-801.526" y1="84.999" x2="-782.062" y2="84.999"/>
	<line class="st7" x1="-801.452" y1="83.724" x2="-781.988" y2="83.724"/>
	<line class="st7" x1="-801.526" y1="82.448" x2="-782.062" y2="82.448"/>
	<line class="st7" x1="-801.526" y1="81.172" x2="-782.062" y2="81.172"/>
	<line class="st7" x1="-801.526" y1="79.895" x2="-782.062" y2="79.895"/>
	<line class="st7" x1="-801.526" y1="78.62" x2="-782.062" y2="78.62"/>
</g>
<path class="st5" d="M-974.409,187.48l-1.915,13.335c-0.058,0.402-0.431,0.682-0.834,0.624c-0.402-0.058-0.682-0.431-0.624-0.833
	l1.915-13.336c0.058-0.402,0.431-0.681,0.834-0.623C-974.631,186.705-974.351,187.077-974.409,187.48 M-981.226,201.555
	c-0.407,0.003-0.74-0.324-0.742-0.73l-0.106-13.472c-0.003-0.407,0.324-0.739,0.73-0.742c0.408-0.003,0.74,0.324,0.743,0.731
	l0.105,13.471C-980.493,201.22-980.82,201.552-981.226,201.555 M-985.297,201.502c-0.401,0.064-0.779-0.209-0.842-0.61
	l-2.124-13.304c-0.064-0.402,0.209-0.779,0.612-0.843c0.401-0.064,0.778,0.209,0.842,0.611l2.123,13.303
	C-984.622,201.061-984.895,201.438-985.297,201.502 M-971.514,185.094c-0.141-0.169-0.353-0.266-0.573-0.264l-18.538,0.144
	c-0.22,0.002-0.429,0.101-0.568,0.272c-0.14,0.17-0.196,0.393-0.155,0.609l3.092,16.141c0.068,0.351,0.376,0.605,0.734,0.602
	l12.497-0.098c0.356-0.002,0.66-0.258,0.724-0.608l2.949-16.188C-971.312,185.488-971.373,185.263-971.514,185.094"/>
<path class="st8" d="M-974.409,187.48l-1.915,13.335c-0.058,0.402-0.431,0.682-0.834,0.624c-0.402-0.058-0.682-0.431-0.624-0.833
	l1.915-13.336c0.058-0.402,0.431-0.681,0.834-0.623C-974.631,186.705-974.351,187.077-974.409,187.48z M-981.226,201.555
	c-0.407,0.003-0.74-0.324-0.742-0.73l-0.106-13.472c-0.003-0.407,0.324-0.739,0.73-0.742c0.408-0.003,0.74,0.324,0.743,0.731
	l0.105,13.471C-980.493,201.22-980.82,201.552-981.226,201.555z M-985.297,201.502c-0.401,0.064-0.779-0.209-0.842-0.61
	l-2.124-13.304c-0.064-0.402,0.209-0.779,0.612-0.843c0.401-0.064,0.778,0.209,0.842,0.611l2.123,13.303
	C-984.622,201.061-984.895,201.438-985.297,201.502z M-971.514,185.094c-0.141-0.169-0.353-0.266-0.573-0.264l-18.538,0.144
	c-0.22,0.002-0.429,0.101-0.568,0.272c-0.14,0.17-0.196,0.393-0.155,0.609l3.092,16.141c0.068,0.351,0.376,0.605,0.734,0.602
	l12.497-0.098c0.356-0.002,0.66-0.258,0.724-0.608l2.949-16.188C-971.312,185.488-971.373,185.263-971.514,185.094z"/>
<path class="st5" d="M-984.202,180.487L-984.202,180.487l-0.004-0.421l5.49-0.043l0.004,0.421L-984.202,180.487z M-970.465,181.897
	L-970.465,181.897l-2.025,0.016l-0.009-1.171c-0.001-0.091-0.038-0.18-0.103-0.244c-0.065-0.064-0.155-0.1-0.246-0.1l-4.467,0.035
	l-0.009-1.12c-0.002-0.184-0.077-0.363-0.209-0.492c-0.131-0.13-0.311-0.203-0.495-0.201l-6.887,0.054
	c-0.183,0.001-0.363,0.077-0.492,0.208c-0.129,0.131-0.202,0.312-0.2,0.496l0.009,1.12l-4.164,0.032
	c-0.091,0.001-0.18,0.039-0.243,0.104c-0.065,0.065-0.101,0.154-0.101,0.246l0.009,1.171l-2.197,0.017l0.017,2.225l21.829-0.17
	L-970.465,181.897z"/>
<path class="st8" d="M-984.202,180.487L-984.202,180.487l-0.004-0.421l5.49-0.043l0.004,0.421L-984.202,180.487z M-970.465,181.897
	L-970.465,181.897l-2.025,0.016l-0.009-1.171c-0.001-0.091-0.038-0.18-0.103-0.244c-0.065-0.064-0.155-0.1-0.246-0.1l-4.467,0.035
	l-0.009-1.12c-0.002-0.184-0.077-0.363-0.209-0.492c-0.131-0.13-0.311-0.203-0.495-0.201l-6.887,0.054
	c-0.183,0.001-0.363,0.077-0.492,0.208c-0.129,0.131-0.202,0.312-0.2,0.496l0.009,1.12l-4.164,0.032
	c-0.091,0.001-0.18,0.039-0.243,0.104c-0.065,0.065-0.101,0.154-0.101,0.246l0.009,1.171l-2.197,0.017l0.017,2.225l21.829-0.17
	L-970.465,181.897z"/>
<rect x="-992.305" y="178.609" class="st9" width="21.868" height="24"/>
<rect x="-651.375" y="37.841" class="st10" width="34.924" height="19.551"/>
<g>
	<path class="st11" d="M-638.398,48.254v4.238h-0.884v-1.066c-0.416,0.702-1.222,1.132-2.354,1.132
		c-1.547,0-2.496-0.807-2.496-1.989c0-1.054,0.676-1.938,2.639-1.938h2.171v-0.416c0-1.17-0.663-1.807-1.938-1.807
		c-0.884,0-1.716,0.312-2.275,0.806l-0.416-0.688c0.689-0.585,1.703-0.924,2.782-0.924
		C-639.399,45.602-638.398,46.487-638.398,48.254z M-639.321,50.439v-1.118h-2.146c-1.326,0-1.755,0.52-1.755,1.222
		c0,0.793,0.637,1.287,1.729,1.287C-640.452,51.829-639.685,51.335-639.321,50.439z"/>
	<path class="st11" d="M-630.299,45.655v6.838h-0.884v-1.248c-0.481,0.832-1.365,1.313-2.458,1.313
		c-1.742,0-2.886-0.976-2.886-2.938v-3.965h0.923v3.874c0,1.456,0.754,2.197,2.054,2.197c1.43,0,2.327-0.924,2.327-2.483v-3.588
		H-630.299z"/>
	<path class="st11" d="M-629,51.712l0.416-0.728c0.546,0.429,1.469,0.767,2.431,0.767c1.3,0,1.833-0.441,1.833-1.118
		c0-1.78-4.433-0.377-4.433-3.081c0-1.118,0.962-1.95,2.704-1.95c0.884,0,1.846,0.247,2.418,0.638l-0.403,0.74
		c-0.598-0.416-1.313-0.585-2.015-0.585c-1.235,0-1.781,0.481-1.781,1.132c0,1.846,4.434,0.455,4.434,3.081
		c0,1.183-1.04,1.95-2.821,1.95C-627.348,52.558-628.441,52.194-629,51.712z"/>
</g>
<polygon class="st6" points="-651.125,37.716 -651.125,57.716 -651.125,57.966 -650.875,57.966 -582.026,57.966 -581.776,57.966 
	-581.776,57.716 -581.776,37.716 -581.776,37.466 -582.026,37.466 -650.875,37.466 -651.125,37.466 "/>
<rect x="-651.375" y="37.216" class="st9" width="69.849" height="21"/>
<rect x="-1055.773" y="244.546" class="st11" width="1014" height="21"/>
<path class="st3" d="M-428.611,244.546c-2.209,0-4,1.791-4,4v12.382c0,2.209,1.791,4,4,4h77.131c2.209,0,4-1.791,4-4v-12.382
	c0-2.209-1.791-4-4-4H-428.611z"/>
<rect x="-1055.523" y="244.796" class="st12" width="1013.5" height="20.5"/>
<path class="st13" d="M-57.917,247.406v1.481c0,0.397,0.187,0.771,0.505,1.009l6.367,4.762c0.258,0.194,0.258,0.583,0,0.776
	l-6.367,4.762c-0.318,0.238-0.505,0.612-0.505,1.01v1.48c0,0.41,0.467,0.644,0.795,0.399l10.111-7.563
	c0.318-0.237,0.318-0.714,0-0.952l-10.11-7.562C-57.45,246.762-57.917,246.997-57.917,247.406"/>
<path class="st13" d="M-1039.92,262.686v-1.481c0-0.397-0.187-0.771-0.505-1.009l-6.367-4.762c-0.258-0.194-0.258-0.583,0-0.776
	l6.367-4.762c0.318-0.238,0.505-0.612,0.505-1.01v-1.48c0-0.41-0.467-0.644-0.795-0.399l-10.111,7.563
	c-0.318,0.237-0.318,0.714,0,0.952l10.11,7.562C-1040.387,263.33-1039.92,263.095-1039.92,262.686"/>
<rect x="-1055.773" y="244.546" class="st9" width="1014" height="21"/>
<rect y="0.001" class="st11" width="21" height="702.123"/>
<path class="st3" d="M0,413.962c0,2.209,1.791,4,4,4h12.382c2.209,0,4-1.791,4-4v-78.286c0-2.209-1.791-4-4-4H4
	c-2.209,0-4,1.791-4,4V413.962z"/>
<rect x="0.25" y="0.25" class="st12" width="20.5" height="701.624"/>
<path class="st13" d="M2.86,13.536h1.481c0.397,0,0.771-0.19,1.009-0.512l4.762-6.453c0.194-0.262,0.583-0.262,0.776,0l4.762,6.453
	c0.238,0.322,0.612,0.512,1.01,0.512h1.48c0.41,0,0.644-0.474,0.399-0.806L10.976,2.482c-0.237-0.322-0.714-0.322-0.952,0
	L2.462,12.73C2.216,13.062,2.451,13.536,2.86,13.536"/>
<path class="st13" d="M18.14,687.788h-1.481c-0.397,0-0.771,0.19-1.009,0.512l-4.762,6.453c-0.194,0.262-0.583,0.262-0.776,0
	L5.35,688.3c-0.238-0.322-0.612-0.512-1.01-0.512H2.86c-0.41,0-0.644,0.474-0.399,0.806l7.563,10.248
	c0.237,0.322,0.714,0.322,0.952,0l7.562-10.248C18.784,688.262,18.549,687.788,18.14,687.788"/>
<rect class="st9" width="21" height="702.124"/>
<g>
	<g>
		<line class="st7" x1="-720.974" y1="122.98" x2="-733.991" y2="122.98"/>
		<line class="st7" x1="-720.974" y1="112.804" x2="-733.991" y2="112.804"/>
		<line class="st7" x1="-720.974" y1="117.892" x2="-733.991" y2="117.892"/>
		<g>
			<path class="st5" d="M-737.633,111.334v2.104h-0.487v-1.714h-0.421v-0.391H-737.633z"/>
		</g>
		<g>
			<path class="st5" d="M-736.873,118.301v0.396h-1.59v-0.315l0.812-0.767c0.187-0.178,0.22-0.286,0.22-0.388
				c0-0.165-0.114-0.262-0.337-0.262c-0.18,0-0.333,0.069-0.436,0.21l-0.355-0.228c0.163-0.238,0.457-0.392,0.836-0.392
				c0.469,0,0.781,0.241,0.781,0.623c0,0.204-0.057,0.391-0.352,0.664l-0.484,0.457H-736.873z"/>
		</g>
		<g>
			<path class="st5" d="M-736.891,123.06c0,0.354-0.273,0.68-0.872,0.68c-0.295,0-0.599-0.081-0.803-0.226l0.189-0.373
				c0.159,0.121,0.382,0.189,0.601,0.189c0.244,0,0.394-0.099,0.394-0.271c0-0.159-0.117-0.258-0.394-0.258h-0.223v-0.322
				l0.433-0.49h-0.896v-0.391h1.473v0.316l-0.475,0.541C-737.083,122.516-736.891,122.75-736.891,123.06z"/>
		</g>
	</g>
	<polygon class="st6" points="-743.02,104.537 -743.02,130.537 -743.02,130.787 -742.77,130.787 -716.77,130.787 -716.52,130.787 
		-716.52,130.537 -716.52,104.537 -716.52,104.287 -716.77,104.287 -742.77,104.287 -743.02,104.287 	"/>
</g>
<polygon class="st6" points="-804.852,104.537 -804.852,130.537 -804.852,130.787 -804.602,130.787 -778.602,130.787 
	-778.352,130.787 -778.352,130.537 -778.352,104.537 -778.352,104.287 -778.602,104.287 -804.602,104.287 -804.852,104.287 "/>
<g>
	<polygon class="st6" points="-774.511,104.537 -774.511,130.537 -774.511,130.787 -774.261,130.787 -748.261,130.787 
		-748.011,130.787 -748.011,130.537 -748.011,104.537 -748.011,104.287 -748.261,104.287 -774.261,104.287 -774.511,104.287 	"/>
	<path class="st7" d="M-752.979,122.662h-13.016 M-752.979,117.529h-13.016 M-752.979,112.397h-13.016"/>
	<path class="st5" d="M-768.081,118.113c0.161-0.156,0.241-0.349,0.241-0.581c0-0.15-0.037-0.288-0.11-0.414
		c-0.073-0.125-0.172-0.224-0.297-0.297c-0.126-0.073-0.264-0.11-0.415-0.11c-0.15,0-0.288,0.037-0.41,0.11
		c-0.122,0.073-0.221,0.172-0.294,0.297c-0.072,0.126-0.11,0.264-0.11,0.414c0,0.232,0.08,0.425,0.238,0.581
		c0.157,0.156,0.35,0.234,0.576,0.234C-768.435,118.347-768.242,118.269-768.081,118.113"/>
	<path class="st5" d="M-768.658,113.479c0.489,0,0.885-0.396,0.885-0.885c0-0.488-0.396-0.885-0.885-0.885
		c-0.488,0-0.885,0.397-0.885,0.885C-769.543,113.083-769.146,113.479-768.658,113.479"/>
	<path class="st5" d="M-768.081,123.13c0.161-0.156,0.241-0.349,0.241-0.581c0-0.15-0.037-0.288-0.11-0.414
		c-0.073-0.125-0.172-0.224-0.297-0.297c-0.126-0.073-0.264-0.11-0.415-0.11c-0.15,0-0.288,0.037-0.41,0.11
		c-0.122,0.073-0.221,0.172-0.294,0.297c-0.072,0.126-0.11,0.264-0.11,0.414c0,0.232,0.08,0.425,0.238,0.581
		c0.157,0.156,0.35,0.234,0.576,0.234C-768.435,123.364-768.242,123.286-768.081,123.13"/>
</g>
<path class="st7" d="M-783.32,122.669h-13.016 M-783.32,117.536h-13.016 M-783.32,112.404h-13.016"/>
<rect x="-799.884" y="111.635" class="st5" width="1.77" height="1.77"/>
<rect x="-799.884" y="116.651" class="st5" width="1.77" height="1.77"/>
<rect x="-799.884" y="121.669" class="st5" width="1.77" height="1.77"/>
<rect x="-461.363" y="36.747" class="st2" width="245" height="57.75"/>
<g>
	<path class="st5" d="M-377.578,53.842v9.101h-0.793l-5.851-7.385v7.385h-0.962v-9.101h0.793l5.863,7.385v-7.385H-377.578z"/>
	<path class="st5" d="M-368.946,59.81h-5.72c0.104,1.43,1.196,2.379,2.691,2.379c0.832,0,1.573-0.299,2.093-0.897l0.52,0.599
		c-0.611,0.728-1.56,1.118-2.639,1.118c-2.132,0-3.588-1.456-3.588-3.484s1.417-3.472,3.341-3.472c1.924,0,3.315,1.417,3.315,3.472
		C-368.933,59.602-368.946,59.705-368.946,59.81z M-374.666,59.12h4.849c-0.117-1.339-1.092-2.275-2.431-2.275
		C-373.574,56.845-374.549,57.782-374.666,59.12z"/>
	<path class="st5" d="M-361.081,56.105v6.838h-0.884v-1.248c-0.481,0.832-1.365,1.313-2.458,1.313c-1.742,0-2.886-0.976-2.886-2.938
		v-3.965h0.923v3.874c0,1.456,0.754,2.197,2.054,2.197c1.43,0,2.327-0.924,2.327-2.483v-3.588H-361.081z"/>
	<path class="st5" d="M-352.671,59.81h-5.72c0.104,1.43,1.196,2.379,2.691,2.379c0.832,0,1.573-0.299,2.093-0.897l0.52,0.599
		c-0.611,0.728-1.56,1.118-2.639,1.118c-2.132,0-3.588-1.456-3.588-3.484s1.417-3.472,3.341-3.472c1.924,0,3.315,1.417,3.315,3.472
		C-352.657,59.602-352.671,59.705-352.671,59.81z M-358.391,59.12h4.849c-0.117-1.339-1.092-2.275-2.431-2.275
		C-357.298,56.845-358.274,57.782-358.391,59.12z"/>
	<path class="st5" d="M-345.404,54.674h-3.198v-0.832h7.358v0.832h-3.198v8.269h-0.962V54.674z"/>
	<path class="st5" d="M-335.043,59.81h-5.72c0.104,1.43,1.196,2.379,2.691,2.379c0.832,0,1.573-0.299,2.093-0.897l0.52,0.599
		c-0.611,0.728-1.56,1.118-2.639,1.118c-2.132,0-3.588-1.456-3.588-3.484s1.417-3.472,3.341-3.472c1.924,0,3.315,1.417,3.315,3.472
		C-335.029,59.602-335.043,59.705-335.043,59.81z M-340.763,59.12h4.849c-0.117-1.339-1.092-2.275-2.431-2.275
		C-339.671,56.845-340.646,57.782-340.763,59.12z"/>
	<path class="st5" d="M-329.141,62.943l-2.171-2.86l-2.184,2.86h-1.04l2.704-3.51l-2.574-3.328h1.04l2.054,2.678l2.054-2.678h1.014
		l-2.574,3.328l2.73,3.51H-329.141z"/>
	<path class="st5" d="M-322.68,62.527c-0.364,0.325-0.91,0.481-1.443,0.481c-1.287,0-2.002-0.729-2.002-1.989v-4.135h-1.222v-0.779
		h1.222V54.61h0.923v1.495h2.08v0.779h-2.08v4.082c0,0.807,0.416,1.248,1.183,1.248c0.377,0,0.754-0.116,1.014-0.351L-322.68,62.527
		z"/>
	<path class="st5" d="M-314.321,59.524c0,2.067-1.456,3.484-3.406,3.484c-1.131,0-2.08-0.494-2.639-1.417v1.352h-0.884v-9.646h0.923
		v4.108c0.572-0.884,1.508-1.353,2.6-1.353C-315.777,56.052-314.321,57.456-314.321,59.524z M-315.244,59.524
		c0-1.6-1.105-2.665-2.548-2.665c-1.456,0-2.548,1.065-2.548,2.665c0,1.599,1.092,2.665,2.548,2.665
		C-316.349,62.189-315.244,61.122-315.244,59.524z"/>
	<path class="st5" d="M-313.125,59.524c0-2.028,1.482-3.472,3.484-3.472s3.471,1.443,3.471,3.472s-1.469,3.484-3.471,3.484
		S-313.125,61.552-313.125,59.524z M-307.106,59.524c0-1.6-1.079-2.665-2.535-2.665s-2.548,1.065-2.548,2.665
		c0,1.599,1.092,2.665,2.548,2.665S-307.106,61.122-307.106,59.524z"/>
	<path class="st5" d="M-300.281,62.943l-2.171-2.86l-2.184,2.86h-1.04l2.704-3.51l-2.574-3.328h1.04l2.054,2.678l2.054-2.678h1.014
		l-2.574,3.328l2.73,3.51H-300.281z"/>
</g>
<path class="st14" d="M-338.863,84.706c3.707,0,6.713-3.005,6.713-6.712c0-3.708-3.006-6.713-6.713-6.713s-6.712,3.005-6.712,6.713
	C-345.575,81.701-342.57,84.706-338.863,84.706z"/>
<rect x="-461.363" y="36.747" class="st9" width="245" height="57.75"/>
<line class="st15" x1="-338.863" y1="74.459" x2="-338.863" y2="81.528"/>
<line class="st15" x1="-342.397" y1="78.025" x2="-335.329" y2="78.025"/>
<path class="st14" d="M-449.824,124.541c3.707,0,6.713-3.005,6.713-6.712c0-3.708-3.006-6.713-6.713-6.713s-6.712,3.005-6.712,6.713
	C-456.536,121.536-453.531,124.541-449.824,124.541z"/>
<line class="st15" x1="-449.824" y1="114.295" x2="-449.824" y2="121.364"/>
<line class="st15" x1="-453.358" y1="117.86" x2="-446.29" y2="117.86"/>
<g>
	<path class="st16" d="M-945.716,139.677h-3.138v-1.85h8.544v1.85h-3.138v7.956h-2.269V139.677z"/>
	<path class="st16" d="M-939.096,137.827h2.269v9.806h-2.269V137.827z"/>
	<path class="st16" d="M-926.002,141.386c0,2.185-1.639,3.544-4.258,3.544h-1.975v2.703h-2.269v-9.806h4.244
		C-927.64,137.827-926.002,139.186-926.002,141.386z M-928.298,141.386c0-1.079-0.701-1.709-2.087-1.709h-1.849v3.403h1.849
		C-928.999,143.08-928.298,142.45-928.298,141.386z"/>
	<path class="st16" d="M-915.88,141.386c0,2.185-1.639,3.544-4.258,3.544h-1.975v2.703h-2.269v-9.806h4.244
		C-917.518,137.827-915.88,139.186-915.88,141.386z M-918.176,141.386c0-1.079-0.701-1.709-2.087-1.709h-1.849v3.403h1.849
		C-918.877,143.08-918.176,142.45-918.176,141.386z"/>
</g>
<path class="st16" d="M-982.344,133.356L-982.344,133.356c-1.054,2.474-1.96,4.602-2.889,6.784h5.729
	C-980.448,137.884-981.33,135.776-982.344,133.356 M-978.851,150.946L-978.851,150.946c-0.346-1.15-0.211-1.759,1.044-1.8
	c0.976-0.033,1.343-0.74,1.02-1.64c-0.507-1.414-1.072-2.81-1.681-4.183c-0.109-0.245-0.55-0.478-0.843-0.484
	c-2.129-0.041-4.261-0.046-6.39,0.005c-0.305,0.008-0.741,0.315-0.877,0.599c-0.558,1.155-1.057,2.342-1.512,3.542
	c-0.57,1.504-0.268,2.026,1.348,2.192c0.783,0.081,1.206,0.319,1.022,1.126c-0.056,0.243-0.355,0.61-0.547,0.613
	c-2.524,0.042-5.049,0.028-7.596,0.028c-0.214-0.956-0.321-1.631,0.868-1.885c0.569-0.122,1.219-0.609,1.515-1.117
	c0.755-1.293,1.377-2.67,1.972-4.049c2.401-5.559,4.761-11.135,7.172-16.689c0.173-0.398,0.634-0.67,0.96-1
	c0.319,0.343,0.766,0.632,0.937,1.037c2.56,6.048,5.079,12.114,7.622,18.17c0.326,0.776,0.705,1.534,1.106,2.275
	c0.507,0.939,1.332,1.389,2.379,1.595c0.265,0.052,0.519,0.638,0.586,1.013c0.032,0.175-0.39,0.621-0.611,0.624
	C-972.509,150.959-975.662,150.946-978.851,150.946"/>
<path class="st5" d="M-885.106,143.408c2.682-0.014,4.762-2.036,4.751-4.621c-0.01-2.367-2.203-4.406-4.733-4.399
	c-2.703,0.008-4.848,2.038-4.825,4.568C-889.89,141.42-887.73,143.421-885.106,143.408 M-879.551,143.421L-879.551,143.421
	c0.393-0.231,0.569-0.207,0.91,0.115c1.249,1.181,2.501,2.361,3.751,3.541c0.086,0.08,0.173,0.159,0.252,0.246
	c0.216,0.237,0.217,0.464-0.012,0.692c-0.249,0.248-0.509,0.488-0.767,0.727c-0.302,0.28-0.548,0.287-0.855,0
	c-1.177-1.103-2.348-2.211-3.522-3.318c-0.132-0.124-0.263-0.25-0.396-0.373c-0.368-0.34-0.394-0.487-0.153-0.896
	c-0.368-0.336-0.737-0.673-1.128-1.029c-1.472,1.07-3.153,1.471-5.011,1.06c-1.415-0.313-2.544-1.054-3.377-2.178
	c-1.65-2.23-1.286-5.335,0.823-7.11c2.222-1.87,5.521-1.904,7.68-0.117c2.217,1.835,2.765,5.106,0.696,7.583
	C-880.29,142.717-879.921,143.068-879.551,143.421"/>
<path class="st17" d="M-885.106,143.408c2.682-0.014,4.762-2.036,4.751-4.621c-0.01-2.367-2.203-4.406-4.733-4.399
	c-2.703,0.008-4.848,2.038-4.825,4.568C-889.89,141.42-887.73,143.421-885.106,143.408z M-879.551,143.421L-879.551,143.421
	c0.393-0.231,0.569-0.207,0.91,0.115c1.249,1.181,2.501,2.361,3.751,3.541c0.086,0.08,0.173,0.159,0.252,0.246
	c0.216,0.237,0.217,0.464-0.012,0.692c-0.249,0.248-0.509,0.488-0.767,0.727c-0.302,0.28-0.548,0.287-0.855,0
	c-1.177-1.103-2.348-2.211-3.522-3.318c-0.132-0.124-0.263-0.25-0.396-0.373c-0.368-0.34-0.394-0.487-0.153-0.896
	c-0.368-0.336-0.737-0.673-1.128-1.029c-1.472,1.07-3.153,1.471-5.011,1.06c-1.415-0.313-2.544-1.054-3.377-2.178
	c-1.65-2.23-1.286-5.335,0.823-7.11c2.222-1.87,5.521-1.904,7.68-0.117c2.217,1.835,2.765,5.106,0.696,7.583
	C-880.29,142.717-879.921,143.068-879.551,143.421z"/>
<path class="st5" d="M-821.391,133.827l2.966,2.98v-2.758c0-0.096-0.055-0.229-0.123-0.297l-3.807-3.826
	c-0.068-0.067-0.178-0.067-0.245,0l-3.93,3.949v2.758c0,0.096,0.055,0.119,0.122,0.051l2.844-2.857
	c0.068-0.068,0.122-0.046,0.122,0.05v7.829h0v2.168c0,0.096-0.055,0.118-0.123,0.05l-2.966-2.98v2.758
	c0,0.096,0.055,0.229,0.123,0.297l3.807,3.826c0.068,0.067,0.178,0.067,0.245,0l3.93-3.949v-2.758c0-0.096-0.055-0.119-0.122-0.051
	l-2.844,2.857c-0.068,0.068-0.122,0.046-0.122-0.05v-7.829h0v-2.168C-821.514,133.781-821.459,133.759-821.391,133.827z"/>
<line class="st18" x1="-857.53" y1="147.063" x2="-829.697" y2="147.063"/>
<line class="st18" x1="-857.53" y1="138.767" x2="-829.697" y2="138.767"/>
<line class="st18" x1="-857.53" y1="130.775" x2="-829.697" y2="130.775"/>
<line class="st18" x1="-843.189" y1="166.035" x2="-843.189" y2="187.035"/>
<path class="st5" d="M-835.729,179.878L-835.729,179.878h2.695l-2.603-2.569c-0.138-0.135-0.093-0.245,0.101-0.245h7.006v-1.407
	c0-0.193-0.157-0.35-0.35-0.35h-6.656c-0.194,0-0.239-0.11-0.101-0.246l2.603-2.569h-2.345c-0.193,0-0.462,0.111-0.599,0.246
	l-3.245,3.201c-0.137,0.136-0.137,0.356,0,0.492L-835.729,179.878z"/>
<path class="st5" d="M-851.499,172.666L-851.499,172.666h-2.695l2.603,2.569c0.138,0.135,0.093,0.245-0.101,0.245h-7.006v1.407
	c0,0.193,0.157,0.35,0.35,0.35h6.656c0.194,0,0.239,0.11,0.101,0.246l-2.603,2.569h2.345c0.193,0,0.462-0.111,0.599-0.246
	l3.245-3.201c0.137-0.136,0.137-0.356,0-0.492L-851.499,172.666z"/>
<line class="st19" x1="-526.903" y1="46.922" x2="-562.926" y2="46.922"/>
<path class="st20" d="M-535.406,50.068c2.045,0,3.703-1.658,3.703-3.703c0-2.045-1.658-3.703-3.703-3.703
	c-2.045,0-3.703,1.658-3.703,3.703C-539.109,48.41-537.451,50.068-535.406,50.068"/>
<g>
	<path class="st5" d="M-512.207,47.123c0,3.12-1.82,4.836-4.459,4.836c-0.91,0-1.781-0.195-2.392-0.585l0.624-1.274
		c0.494,0.325,1.092,0.442,1.729,0.442c1.716,0,2.795-1.066,2.795-3.133v-0.014c-0.546,0.638-1.417,0.949-2.431,0.949
		c-1.794,0-3.133-1.092-3.133-2.795c0-1.807,1.469-2.951,3.328-2.951C-513.663,42.599-512.207,44.198-512.207,47.123z
		 M-514.17,45.459c0-0.858-0.676-1.534-1.885-1.534c-1.053,0-1.781,0.598-1.781,1.547s0.715,1.547,1.82,1.547
		C-514.923,47.018-514.17,46.355-514.17,45.459z"/>
	<path class="st5" d="M-504.341,49.034c0,1.599-1.157,2.925-3.602,2.925c-1.287,0-2.587-0.39-3.419-1.053l0.715-1.313
		c0.663,0.546,1.651,0.897,2.678,0.897c1.209,0,1.924-0.533,1.924-1.392c0-0.871-0.559-1.417-2.444-1.417h-2.197l0.468-4.953h5.343
		v1.417h-3.913l-0.195,2.106h0.871C-505.421,46.252-504.341,47.422-504.341,49.034z"/>
	<path class="st5" d="M-499.922,45.134c0-1.495,0.871-2.496,2.171-2.496s2.184,0.988,2.184,2.496s-0.884,2.496-2.184,2.496
		S-499.922,46.629-499.922,45.134z M-496.633,45.134c0-1.014-0.416-1.586-1.118-1.586c-0.676,0-1.118,0.585-1.118,1.586
		s0.442,1.586,1.118,1.586C-497.049,46.72-496.633,46.147-496.633,45.134z M-492.291,42.728h1.274l-6.214,9.101h-1.274
		L-492.291,42.728z M-493.955,49.424c0-1.495,0.871-2.496,2.171-2.496c1.3,0,2.184,1.001,2.184,2.496s-0.884,2.496-2.184,2.496
		C-493.084,51.92-493.955,50.919-493.955,49.424z M-490.666,49.424c0-1.001-0.429-1.586-1.118-1.586s-1.118,0.572-1.118,1.586
		c0,1.015,0.429,1.586,1.118,1.586S-490.666,50.425-490.666,49.424z"/>
</g>
<rect x="-548.965" y="101.065" class="st11" width="13.149" height="16.764"/>
<polygon class="st21" points="-548.966,117.829 -548.966,117.829 -535.817,117.829 -535.817,101.065 -548.966,101.065 "/>
<rect x="-556.637" y="100.594" class="st9" width="21.291" height="24"/>
<line class="st22" x1="-552.14" y1="108.76" x2="-552.14" y2="119.147"/>
<line class="st23" x1="-549.508" y1="121.036" x2="-539.859" y2="121.036"/>
<path class="st21" d="M-538.983,121.036h0.877 M-552.14,120.092v0.944h0.877 M-552.14,105.927v0.944"/>
<polyline class="st21" points="-556.167,109.015 -556.167,124.123 -542.133,124.123 "/>
<rect x="-556.637" y="100.594" class="st9" width="21.291" height="24"/>
<rect x="-517.392" y="100.996" class="st11" width="14.674" height="18.705"/>
<polygon class="st24" points="-517.391,119.701 -517.391,119.701 -502.718,119.701 -502.718,100.996 -517.391,100.996 "/>
<rect x="-517.794" y="100.594" class="st9" width="19.884" height="24"/>
<rect x="-512.985" y="105.487" class="st5" width="14.674" height="18.705"/>
<polygon class="st25" points="-512.985,124.192 -512.985,124.192 -498.312,124.192 -498.312,105.487 -512.985,105.487 "/>
<rect x="-517.794" y="100.594" class="st9" width="19.884" height="24"/>
<rect x="-616.284" y="104.543" class="st10" width="34.924" height="19.551"/>
<g>
	<path class="st11" d="M-602.043,116.061h-5.72c0.104,1.43,1.196,2.379,2.691,2.379c0.832,0,1.573-0.299,2.093-0.897l0.52,0.599
		c-0.611,0.728-1.56,1.118-2.639,1.118c-2.132,0-3.588-1.456-3.588-3.484s1.417-3.472,3.341-3.472c1.924,0,3.315,1.417,3.315,3.472
		C-602.03,115.853-602.043,115.957-602.043,116.061z M-607.763,115.372h4.849c-0.117-1.339-1.092-2.275-2.431-2.275
		C-606.671,113.097-607.646,114.033-607.763,115.372z"/>
	<path class="st11" d="M-600.796,110.198c0-0.352,0.299-0.65,0.676-0.65s0.676,0.286,0.676,0.637c0,0.378-0.286,0.677-0.676,0.677
		C-600.497,110.861-600.796,110.562-600.796,110.198z M-600.588,112.356h0.923v6.838h-0.923V112.356z"/>
	<path class="st11" d="M-591.37,115.229v3.965h-0.923v-3.874c0-1.443-0.754-2.185-2.054-2.185c-1.469,0-2.392,0.91-2.392,2.471
		v3.588h-0.923v-6.838h0.884v1.261c0.494-0.832,1.417-1.313,2.6-1.313C-592.514,112.304-591.37,113.265-591.37,115.229z"/>
</g>
<polygon class="st6" points="-651.292,104.418 -651.292,124.418 -651.292,124.668 -651.042,124.668 -582.193,124.668 
	-581.943,124.668 -581.943,124.418 -581.943,104.418 -581.943,104.168 -582.193,104.168 -651.042,104.168 -651.292,104.168 "/>
<rect x="-651.542" y="103.918" class="st9" width="70.183" height="21"/>
<line class="st26" x1="-510.228" y1="194.057" x2="-510.228" y2="218.317"/>
<path class="st5" d="M-502.131,209.875L-502.131,209.875h2.592l-2.494-2.46c-0.138-0.135-0.093-0.245,0.101-0.245h6.725v-1.339
	c0-0.193-0.157-0.35-0.35-0.35h-6.725l2.743-2.705h-2.242c-0.193,0-0.462,0.11-0.599,0.245l-3.102,3.059
	c-0.137,0.135-0.137,0.355,0,0.491L-502.131,209.875z"/>
<line class="st26" x1="-537.174" y1="218.15" x2="-537.174" y2="193.89"/>
<path class="st5" d="M-545.27,202.332L-545.27,202.332h-2.592l2.494,2.46c0.138,0.135,0.093,0.245-0.101,0.245h-6.725v1.339
	c0,0.193,0.157,0.35,0.35,0.35h6.725l-2.743,2.705h2.242c0.193,0,0.462-0.11,0.599-0.245l3.102-3.059
	c0.137-0.135,0.137-0.355,0-0.491L-545.27,202.332z"/>
<line class="st26" x1="-726.916" y1="201.929" x2="-702.656" y2="201.929"/>
<path class="st5" d="M-711.264,193.871L-711.264,193.871v-2.592l-2.46,2.494c-0.135,0.138-0.245,0.093-0.245-0.101v-6.725h-1.339
	c-0.193,0-0.35,0.157-0.35,0.35v6.725l-2.705-2.743v2.242c0,0.193,0.11,0.462,0.245,0.599l3.059,3.102
	c0.135,0.137,0.355,0.137,0.491,0L-711.264,193.871z"/>
<path class="st5" d="M-718.197,209.023L-718.197,209.023v2.592l2.46-2.494c0.135-0.138,0.245-0.093,0.245,0.101v6.725h1.339
	c0.193,0,0.35-0.157,0.35-0.35v-6.725l2.705,2.743v-2.242c0-0.193-0.11-0.462-0.245-0.599l-3.059-3.102
	c-0.135-0.137-0.355-0.137-0.491,0L-718.197,209.023z"/>
<line class="st26" x1="-670.469" y1="214.739" x2="-670.469" y2="190.479"/>
<path class="st5" d="M-678.527,199.088L-678.527,199.088h-2.592l2.494,2.46c0.138,0.135,0.093,0.245-0.101,0.245h-6.725v1.339
	c0,0.193,0.157,0.35,0.35,0.35h6.725l-2.743,2.705h2.242c0.193,0,0.462-0.11,0.599-0.245l3.102-3.059
	c0.137-0.135,0.137-0.355,0-0.491L-678.527,199.088z"/>
<path class="st5" d="M-663.375,206.02L-663.375,206.02h2.592l-2.494-2.46c-0.138-0.135-0.093-0.245,0.101-0.245h6.725v-1.339
	c0-0.193-0.157-0.35-0.35-0.35h-6.725l2.743-2.705h-2.242c-0.193,0-0.462,0.11-0.599,0.245l-3.102,3.059
	c-0.137,0.135-0.137,0.355,0,0.491L-663.375,206.02z"/>
<line class="st26" x1="-638.328" y1="202.212" x2="-614.068" y2="202.212"/>
<path class="st5" d="M-629.609,209.306L-629.609,209.306v2.592l2.46-2.494c0.135-0.138,0.245-0.093,0.245,0.101v6.725h1.339
	c0.193,0,0.35-0.157,0.35-0.35v-6.725l2.705,2.743v-2.242c0-0.193-0.11-0.462-0.245-0.599l-3.059-3.102
	c-0.135-0.137-0.355-0.137-0.491,0L-629.609,209.306z"/>
<line class="st26" x1="-593.217" y1="213.467" x2="-568.957" y2="213.467"/>
<path class="st5" d="M-577.398,205.078L-577.398,205.078v-2.592l-2.46,2.494c-0.135,0.138-0.245,0.093-0.245-0.101v-6.725h-1.339
	c-0.193,0-0.35,0.157-0.35,0.35v6.725l-2.705-2.743v2.242c0,0.193,0.11,0.462,0.245,0.599l3.059,3.102
	c0.135,0.137,0.355,0.137,0.491,0L-577.398,205.078z"/>
<rect x="-447.353" y="186.541" class="st11" width="15.769" height="20.056"/>
<line class="st27" x1="-444.396" y1="206.597" x2="-433.555" y2="206.597"/>
<line class="st28" x1="-431.584" y1="203.589" x2="-431.584" y2="188.547"/>
<line class="st27" x1="-434.541" y1="186.541" x2="-445.382" y2="186.541"/>
<line class="st28" x1="-447.353" y1="189.549" x2="-447.353" y2="204.592"/>
<path class="st21" d="M-447.353,205.594v1.003h0.986 M-446.367,186.541h-0.986v1.003 M-431.584,187.544v-1.003h-0.985
	 M-432.569,206.597h0.985v-1.003"/>
<polygon class="st11" points="-458.589,216.597 -458.589,216.597 -442.82,216.597 -442.82,196.541 -458.589,196.541 "/>
<line class="st27" x1="-455.632" y1="216.597" x2="-444.791" y2="216.597"/>
<line class="st28" x1="-442.82" y1="213.589" x2="-442.82" y2="198.547"/>
<line class="st27" x1="-445.776" y1="196.541" x2="-456.617" y2="196.541"/>
<line class="st28" x1="-458.589" y1="199.549" x2="-458.589" y2="214.592"/>
<path class="st21" d="M-458.589,215.594v1.003h0.986 M-457.603,196.541h-0.986v1.003 M-442.82,197.544v-1.003h-0.985
	 M-443.805,216.597h0.985v-1.003"/>
<polygon class="st11" points="-468.063,224.597 -468.063,224.597 -452.294,224.597 -452.294,204.541 -468.063,204.541 "/>
<polygon class="st21" points="-468.063,224.597 -468.063,224.597 -452.294,224.597 -452.294,204.541 -468.063,204.541 "/>
<g>
	<polygon class="st11" points="-394.227,210.903 -394.227,210.903 -378.458,210.903 -378.458,190.847 -394.227,190.847 	"/>
	<polygon class="st21" points="-394.227,210.903 -394.227,210.903 -378.458,210.903 -378.458,190.847 -394.227,190.847 	"/>
	<line class="st29" x1="-397.991" y1="199.401" x2="-397.991" y2="212.905"/>
	<line class="st30" x1="-394.854" y1="214.706" x2="-383.351" y2="214.706"/>
	<path class="st21" d="M-382.306,214.706h1.046 M-397.991,213.806v0.9h1.046 M-397.991,196.701v0.9"/>
</g>
<g>
	<rect x="-321.687" y="179.126" class="st11" width="15.769" height="20.056"/>
	<polygon class="st21" points="-321.687,199.182 -321.687,199.182 -305.918,199.182 -305.918,179.126 -321.687,179.126 	"/>
	<polygon class="st11" points="-332.923,209.182 -332.923,209.182 -317.154,209.182 -317.154,189.126 -332.923,189.126 	"/>
	<line class="st27" x1="-329.966" y1="209.182" x2="-319.125" y2="209.182"/>
	<line class="st28" x1="-317.154" y1="206.174" x2="-317.154" y2="191.132"/>
	<line class="st27" x1="-320.111" y1="189.126" x2="-330.952" y2="189.126"/>
	<line class="st28" x1="-332.923" y1="192.135" x2="-332.923" y2="207.177"/>
	<path class="st21" d="M-332.923,208.179v1.003h0.986 M-331.937,189.126h-0.986v1.003 M-317.154,190.129v-1.003h-0.985
		 M-318.139,209.182h0.985v-1.003"/>
	<polygon class="st11" points="-342.397,217.182 -342.397,217.182 -326.628,217.182 -326.628,197.126 -342.397,197.126 	"/>
	<line class="st27" x1="-339.44" y1="217.182" x2="-328.599" y2="217.182"/>
	<line class="st28" x1="-326.628" y1="214.174" x2="-326.628" y2="199.132"/>
	<line class="st27" x1="-329.584" y1="197.126" x2="-340.425" y2="197.126"/>
	<line class="st28" x1="-342.397" y1="200.135" x2="-342.397" y2="215.177"/>
	<path class="st21" d="M-342.397,216.179v1.003h0.986 M-341.411,197.126h-0.986v1.003 M-326.628,198.129v-1.003h-0.985
		 M-327.613,217.182h0.985v-1.003"/>
</g>
<line class="st27" x1="-266.273" y1="212.668" x2="-255.432" y2="212.668"/>
<line class="st28" x1="-253.461" y1="209.659" x2="-253.461" y2="194.617"/>
<line class="st27" x1="-256.418" y1="192.612" x2="-267.259" y2="192.612"/>
<line class="st28" x1="-269.23" y1="195.62" x2="-269.23" y2="210.662"/>
<path class="st21" d="M-269.23,211.665v1.003h0.986 M-268.244,192.612h-0.986v1.003 M-253.461,193.615v-1.003h-0.985
	 M-254.446,212.668h0.985v-1.003"/>
<polyline class="st21" points="-272.994,198.466 -272.994,216.471 -256.263,216.471 "/>
<g>
	<defs>
		<rect id="SVGID_1_" x="-1028.269" y="306.504" width="241.682" height="1"/>
	</defs>
	<clipPath id="SVGID_00000075143092981943679040000018326772889446786723_">
		<use xlink:href="#SVGID_1_"  style="overflow:visible;"/>
	</clipPath>
	
		<line style="clip-path:url(#SVGID_00000075143092981943679040000018326772889446786723_);fill:none;stroke:#B2B2B2;stroke-linecap:round;stroke-linejoin:round;stroke-dasharray:0,3.009;" x1="-1024.76" y1="307.004" x2="-788.59" y2="307.004"/>
	
		<path style="clip-path:url(#SVGID_00000075143092981943679040000018326772889446786723_);fill:none;stroke:#B2B2B2;stroke-linecap:round;stroke-linejoin:round;" d="
		M-787.087,307.004L-787.087,307.004 M-1027.769,307.004L-1027.769,307.004"/>
</g>
<circle class="st33" cx="-981.371" cy="85.792" r="12.75"/>
<polygon class="st3" points="-837.978,70.769 -850.978,70.769 -844.61,81.244 "/>
<polygon class="st5" points="-829.954,199.311 -840.43,205.679 -829.954,212.311 "/>
<polygon class="st5" points="-859.001,212.311 -848.526,205.943 -859.001,199.311 "/>
<polygon class="st5" points="-776.448,199.311 -786.923,205.679 -776.448,212.311 "/>
<polygon class="st5" points="-811.625,212.311 -801.15,205.943 -811.625,199.311 "/>
<rect x="-651.375" y="70.78" class="st10" width="34.924" height="19.551"/>
<polygon class="st6" points="-651.125,70.655 -651.125,90.655 -651.125,90.905 -650.875,90.905 -582.026,90.905 -581.776,90.905 
	-581.776,90.655 -581.776,70.655 -581.776,70.405 -582.026,70.405 -650.875,70.405 -651.125,70.405 "/>
<rect x="-651.375" y="70.155" class="st9" width="69.849" height="21"/>
<rect x="-616.012" y="136.808" class="st10" width="34.924" height="19.551"/>
<polygon class="st6" points="-651.02,136.683 -651.02,156.683 -651.02,156.933 -650.77,156.933 -581.921,156.933 -581.671,156.933 
	-581.671,156.683 -581.671,136.683 -581.671,136.433 -581.921,136.433 -650.77,136.433 -651.02,136.433 "/>
<rect x="-651.27" y="136.183" class="st9" width="70.183" height="21"/>
<line class="st19" x1="-527.98" y1="66.709" x2="-564.003" y2="66.709"/>
<path class="st20" d="M-536.483,69.856c2.045,0,3.703-1.658,3.703-3.703c0-2.045-1.658-3.703-3.703-3.703s-3.703,1.658-3.703,3.703
	C-540.186,68.198-538.528,69.856-536.483,69.856"/>
</svg>
