<?xml version="1.0" encoding="utf-8"?>
<!-- Generator: Adobe Illustrator 26.2.1, SVG Export Plug-In . SVG Version: 6.00 Build 0)  -->
<svg version="1.1" id="Ebene_1" xmlns="http://www.w3.org/2000/svg" xmlns:xlink="http://www.w3.org/1999/xlink" x="0px" y="0px"
	 width="1014.05px" height="21.05px" viewBox="0 0 1014.05 21.05" enable-background="new 0 0 1014.05 21.05" xml:space="preserve">
<rect x="0.05" y="0.05" fill="#FFFFFF" width="1014" height="21"/>
<path fill="#0E689A" d="M627.15,0.05c-2.2,0-4,1.8-4,4v12.4c0,2.2,1.8,4,4,4h77.1c2.2,0,4-1.8,4-4V4.05c0-2.2-1.8-4-4-4H627.15z"/>
<rect x="0.25" y="0.25" fill="none" stroke="#C5C5C5" stroke-width="0.5" stroke-linecap="round" stroke-linejoin="round" width="1013.5" height="20.5"/>
<path fill="#C5C5C5" d="M997.85,2.85v1.5c0,0.4,0.2,0.8,0.5,1l6.4,4.8c0.3,0.2,0.3,0.6,0,0.8l-6.4,4.8c-0.3,0.2-0.5,0.6-0.5,1v1.5
	c0,0.4,0.5,0.6,0.8,0.4l10.1-7.6c0.3-0.2,0.3-0.7,0-1l-10.1-7.6C998.35,2.25,997.85,2.45,997.85,2.85"/>
<path fill="#C5C5C5" d="M15.85,18.15v-1.5c0-0.4-0.2-0.8-0.5-1l-6.4-4.8c-0.3-0.2-0.3-0.6,0-0.8l6.4-4.8c0.3-0.2,0.5-0.6,0.5-1v-1.5
	c0-0.4-0.5-0.6-0.8-0.4l-10.1,7.7c-0.3,0.2-0.3,0.7,0,1l10.1,7.6C15.45,18.85,15.85,18.55,15.85,18.15"/>
<rect x="0.05" y="0.05" fill="none" width="1014" height="21"/>
</svg>
