<?xml version="1.0" encoding="utf-8"?>
<!-- Generator: Adobe Illustrator 26.2.1, SVG Export Plug-In . SVG Version: 6.00 Build 0)  -->
<svg version="1.1" id="Ebene_1" xmlns="http://www.w3.org/2000/svg" xmlns:xlink="http://www.w3.org/1999/xlink" x="0px" y="0px"
	 width="105.898px" height="106.1px" viewBox="0 0 105.898 106.1" enable-background="new 0 0 105.898 106.1" xml:space="preserve">
<polygon fill="#FFFFFF" points="0.849,105.6 105.049,105.6 52.949,11.7 "/>
<polygon fill="none" stroke="#AD5E7A" points="0.849,105.6 0.849,105.6 105.049,105.6 52.949,11.7 "/>
<rect x="48.349" fill="#AD5E7A" width="9" height="9"/>
<path fill="#FFFFFF" d="M55.149,6c0.5-0.5,0.7-1.3,0.6-2c-0.2-0.7-0.7-1.3-1.4-1.6c-0.7-0.3-1.5-0.2-2.2,0.3c-0.6,0.4-1,1.1-1,1.8
	l1.1-1l0.6,0.6l-2,2l-2-2l0.6-0.6l1,1c0-0.9,0.5-1.8,1.3-2.4s1.9-0.7,2.9-0.4c1,0.3,1.7,1.2,1.9,2.1c0.2,1-0.1,2-0.8,2.7l-0.1,0.1
	c-0.7,0.7-1.7,1-2.7,0.8l0.1-0.8C53.849,6.8,54.649,6.5,55.149,6"/>
<line fill="none" stroke="#AD5E7A" x1="52.949" y1="8.5" x2="52.949" y2="11.7"/>
</svg>
