<?xml version="1.0" encoding="utf-8"?>
<!-- Generator: Adobe Illustrator 26.2.1, SVG Export Plug-In . SVG Version: 6.00 Build 0)  -->
<svg version="1.1" id="Ebene_1" xmlns="http://www.w3.org/2000/svg" xmlns:xlink="http://www.w3.org/1999/xlink" x="0px" y="0px"
     width="28.5px" height="28.5px" viewBox="0 0 28.5 28.5" enable-background="new 0 0 28.5 28.5" xml:space="preserve">
<path fill="none" stroke="#FFFFFF" stroke-width="1.4" stroke-linecap="round" stroke-linejoin="round" d="M12,25.6L12,25.6
	c1.8,0,3.7,0,5.5,0c1,0,1.4-0.5,1.4-1.4c0-2.1,0-4.1,0-6.2c0-1-0.4-1.5-1.5-1.5c-3.6,0-7.2,0-10.9,0c-1.1,0-1.5,0.4-1.5,1.5
	c0,2,0,3.9,0,5.9c0,1.2,0.4,1.6,1.6,1.6C8.5,25.6,10.3,25.6,12,25.6z M0.7,14.2c0-3.6,0-7.2,0-10.9c0-1.8,0.8-2.6,2.6-2.6
	c0.5,0,1.1,0,1.6,0c1,0,1.4,0.4,1.4,1.3c0,1.7,0,3.3,0,5c0,1.3,0.3,1.6,1.6,1.6c2.7,0,5.4,0,8.1,0c1.1,0,1.5-0.4,1.5-1.5
	c0-1.6,0-3.2,0-4.8c0-1.3,0.3-1.6,1.7-1.6c0.5,0,0.9,0,1.4,0c1,0,1.8,0.3,2.5,1c1.2,1.2,2.4,2.4,3.6,3.6c0.7,0.7,1,1.6,1,2.6
	c0,5.8,0,11.5,0,17.3c0,1.7-0.9,2.6-2.6,2.6c-7.3,0-14.6,0-21.9,0c-1.7,0-2.6-0.9-2.6-2.6C0.7,21.5,0.7,17.9,0.7,14.2L0.7,14.2z"/>
</svg>
