<?xml version="1.0" encoding="utf-8"?>
<!-- Generator: Adobe Illustrator 26.2.1, SVG Export Plug-In . SVG Version: 6.00 Build 0)  -->
<svg version="1.1" id="Ebene_1" xmlns="http://www.w3.org/2000/svg" xmlns:xlink="http://www.w3.org/1999/xlink" x="0px" y="0px"
	 width="18.857px" height="18.849px" viewBox="0 0 18.857 18.849" enable-background="new 0 0 18.857 18.849" xml:space="preserve">
<path fill="none" stroke="#FFFFFF" stroke-width="0.572" d="M7.918,17.051v-0.004c1.23,0,2.461,0.008,3.692-0.004
	c0.654-0.006,0.955-0.31,0.959-0.955c0.008-1.385,0.008-2.77,0-4.154c-0.003-0.687-0.293-0.98-0.989-0.982
	c-2.442-0.008-4.884-0.008-7.327-0.002c-0.728,0.002-1.007,0.29-1.01,1.014c-0.005,1.327-0.004,2.654-0.005,3.981
	c0,0.826,0.276,1.105,1.103,1.105C5.533,17.052,6.725,17.051,7.918,17.051z M0.297,9.375c0-2.443-0.007-4.886,0.003-7.329
	C0.305,0.825,0.85,0.3,2.073,0.289C2.438,0.286,2.804,0.283,3.169,0.29c0.658,0.012,0.913,0.25,0.92,0.903
	c0.013,1.116,0.002,2.232,0.007,3.348c0.005,0.864,0.226,1.079,1.105,1.08c1.828,0.001,3.655,0.002,5.483-0.001
	c0.763-0.001,1.005-0.239,1.009-0.99c0.005-1.077,0-2.155,0.002-3.232c0.002-0.893,0.221-1.105,1.132-1.107
	c0.308-0.001,0.616,0.004,0.923-0.002c0.651-0.012,1.207,0.212,1.666,0.666c0.821,0.812,1.634,1.631,2.451,2.446
	c0.491,0.49,0.703,1.09,0.703,1.773c0,3.886,0.004,7.772-0.002,11.658c-0.002,1.141-0.61,1.729-1.761,1.73
	c-4.925,0.001-9.849,0.001-14.774-0.001c-1.151,0-1.738-0.577-1.742-1.741c-0.009-2.482-0.003-4.963-0.003-7.445
	C0.288,9.375,0.297,9.375,0.297,9.375z"/>
<path fill="none" stroke="#FFFFFF" stroke-width="0.572" d="M7.918,17.05c-1.192,0-2.385,0.001-3.577,0
	c-0.826-0.001-1.103-0.279-1.102-1.106c0.001-1.326-0.001-2.653,0.005-3.98c0.002-0.725,0.282-1.013,1.01-1.014
	c2.442-0.006,4.884-0.007,7.327,0.001c0.696,0.002,0.985,0.295,0.989,0.982c0.007,1.385,0.008,2.769-0.001,4.154
	c-0.003,0.646-0.305,0.949-0.959,0.956c-1.23,0.012-2.461,0.003-3.692,0.003C7.918,17.046,7.918,17.05,7.918,17.05z"/>
</svg>
