<?xml version="1.0" encoding="utf-8"?>
<!-- Generator: Adobe Illustrator 26.5.0, SVG Export Plug-In . SVG Version: 6.00 Build 0)  -->
<svg version="1.1" id="Ebene_1" xmlns="http://www.w3.org/2000/svg" x="0px" y="0px"
     width="27px" height="27px" viewBox="0 0 27 27" style="enable-background:new 0 0 27 27;" xml:space="preserve">
<polyline style="fill:none;stroke:#C5C5C5;stroke-width:3;stroke-linecap:round;stroke-linejoin:round;" points="1815.625,908.412
	1809.375,899.412 1802.625,908.412 "/>
    <path style="fill:none;stroke:#B2B1B1;stroke-width:0.3;stroke-miterlimit:10;" d="M23.417-18.132"/>
    <path style="fill:none;stroke:#B2B1B1;stroke-width:0.3;stroke-miterlimit:10;" d="M23.417-11.863"/>
    <path style="fill:none;stroke:#B2B1B1;stroke-width:0.3;stroke-miterlimit:10;" d="M6.015-16.879"/>
    <path style="fill:none;stroke:#B2B1B1;stroke-width:0.3;stroke-miterlimit:10;" d="M3.952-11.863"/>
    <path style="fill:none;stroke:#B2B1B1;stroke-width:0.3;stroke-miterlimit:10;" d="M3.952-18.132"/>
    <path style="fill:#0E689A;" d="M805.102,309.926c0,2.209,1.791,4,4,4h12.382c2.209,0,4-1.791,4-4V231.64c0-2.209-1.791-4-4-4
	h-12.382c-2.209,0-4,1.791-4,4V309.926z"/>
    <path style="fill:#C5C5C5;" d="M823.242,583.751h-1.481c-0.397,0-0.771,0.19-1.009,0.512l-4.762,6.453
	c-0.194,0.262-0.583,0.262-0.776,0l-4.762-6.453c-0.238-0.322-0.612-0.512-1.01-0.512h-1.48c-0.41,0-0.644,0.474-0.399,0.806
	l7.563,10.248c0.237,0.322,0.714,0.322,0.952,0l7.562-10.248C823.886,584.225,823.651,583.751,823.242,583.751"/>
    <polygon style="fill:none;stroke:#B2B2B2;stroke-width:0.5;stroke-miterlimit:10;" points="0.25,0.5 0.25,26.5 0.25,26.75
	0.5,26.75 26.5,26.75 26.75,26.75 26.75,26.5 26.75,0.5 26.75,0.25 26.5,0.25 0.5,0.25 0.25,0.25 "/>
    <g>
	<path style="fill:#B2B1B1;" d="M21.782,18.782H8.766v-0.3h13.016V18.782z M21.782,13.649H8.766v-0.3h13.016V13.649z M21.782,8.517
		H8.766v-0.3h13.016V8.517z"/>
</g>
    <g>
	<path style="fill:#B2B1B1;" d="M6.457,9.024H4.595L4.209,9.9H3.694L5.28,6.396h0.496L7.367,9.9H6.842L6.457,9.024z M6.281,8.624
		L5.526,6.907L4.77,8.624H6.281z"/>
</g>
    <g>
	<path style="fill:#B2B1B1;" d="M7.237,14.173c0,0.601-0.456,0.946-1.341,0.946H4.224v-3.504h1.572c0.806,0,1.256,0.341,1.256,0.906
		c0,0.381-0.195,0.646-0.47,0.781C6.977,13.412,7.237,13.708,7.237,14.173z M4.725,12.022v1.121h1.026
		c0.51,0,0.801-0.19,0.801-0.561c0-0.371-0.291-0.561-0.801-0.561H4.725z M6.732,14.133c0-0.405-0.3-0.585-0.855-0.585H4.725v1.166
		h1.151C6.432,14.714,6.732,14.539,6.732,14.133z"/>
</g>
    <g>
	<path style="fill:#B2B1B1;" d="M3.94,18.325c0-1.036,0.791-1.791,1.857-1.791c0.541,0,1.011,0.185,1.331,0.545l-0.325,0.315
		c-0.271-0.285-0.601-0.415-0.986-0.415c-0.791,0-1.376,0.57-1.376,1.346c0,0.776,0.585,1.347,1.376,1.347
		c0.385,0,0.715-0.136,0.986-0.421l0.325,0.315c-0.32,0.36-0.791,0.551-1.336,0.551C4.73,20.117,3.94,19.361,3.94,18.325z"/>
</g>
</svg>
