<?xml version="1.0" encoding="utf-8"?>
<!-- Generator: Adobe Illustrator 26.0.3, SVG Export Plug-In . SVG Version: 6.00 Build 0)  -->
<svg version="1.1" id="Ebene_1" xmlns="http://www.w3.org/2000/svg" xmlns:xlink="http://www.w3.org/1999/xlink" x="0px" y="0px"
	 width="16.415px" height="15.487px" viewBox="0 0 16.415 15.487" style="enable-background:new 0 0 16.415 15.487;"
	 xml:space="preserve">
<style type="text/css">
	.st0{fill:none;stroke:#C5C5C5;stroke-width:3;stroke-linecap:round;stroke-linejoin:round;}
	.st1{fill:#FFAEFF;stroke:#4F4D4D;stroke-width:0.5;}
	.st2{fill:#F8F8F8;}
	.st3{fill:#0E689A;}
	.st4{fill:none;stroke:#B2B1B1;stroke-width:0.65;stroke-miterlimit:10;}
	.st5{fill:#B2B1B1;}
	.st6{fill:none;stroke:#B2B2B2;stroke-width:0.5;stroke-miterlimit:10;}
	.st7{fill:none;stroke:#B2B1B1;stroke-width:0.3;stroke-miterlimit:10;}
	.st8{fill:none;stroke:#FFFFFF;stroke-width:0.021;}
	.st9{fill:none;}
	.st10{fill:#0E6899;}
	.st11{fill:#FFFFFF;}
	.st12{fill:none;stroke:#C5C5C5;stroke-width:0.5;stroke-linecap:round;stroke-linejoin:round;}
	.st13{fill:#C5C5C5;}
	.st14{fill:none;stroke:#B2B1B1;stroke-width:0.5;}
	.st15{fill:none;stroke:#B2B1B1;stroke-width:1.2;}
	.st16{fill:#B2B2B2;}
	.st17{fill:none;stroke:#FFFFFF;stroke-width:0.001;}
	.st18{fill:none;stroke:#B2B1B1;stroke-width:1.712;}
	.st19{fill:none;stroke:#B2B1B1;stroke-width:2;}
	.st20{fill:#AD5E7A;}
	.st21{fill:none;stroke:#B2B1B1;stroke-width:0.941;}
	.st22{fill:none;stroke:#B2B1B1;stroke-width:0.941;stroke-dasharray:1.889,1.889;}
	.st23{fill:none;stroke:#B2B1B1;stroke-width:0.941;stroke-dasharray:1.754,1.754;}
	.st24{fill:none;stroke:#B2B1B1;stroke-width:0.804;}
	.st25{fill:none;stroke:#FFFFFF;stroke-width:0.804;}
	.st26{fill:none;stroke:#B2B1B1;stroke-width:2.5;}
	.st27{fill:none;stroke:#B2B1B1;stroke-width:0.941;stroke-dasharray:1.971,1.971;}
	.st28{fill:none;stroke:#B2B1B1;stroke-width:0.941;stroke-dasharray:2.006,2.006;}
	.st29{fill:none;stroke:#B2B1B1;stroke-width:0.941;stroke-dasharray:1.801,1.801;}
	.st30{fill:none;stroke:#B2B1B1;stroke-width:0.941;stroke-dasharray:2.091,2.091;}
	
		.st31{clip-path:url(#SVGID_00000183234021094351507710000000231319644348316314_);fill:none;stroke:#B2B2B2;stroke-linecap:round;stroke-linejoin:round;stroke-dasharray:0,3.009;}
	
		.st32{clip-path:url(#SVGID_00000183234021094351507710000000231319644348316314_);fill:none;stroke:#B2B2B2;stroke-linecap:round;stroke-linejoin:round;}
	.st33{fill:none;stroke:#4F4D4D;stroke-width:0.5;}
</style>
<polyline class="st0" points="1901.414,878.981 1895.164,869.981 1888.414,878.981 "/>
<circle class="st1" cx="-90.479" cy="-83.768" r="12.75"/>
<rect x="-58.018" y="-94.782" class="st2" width="119.902" height="21"/>
<polygon class="st3" points="52.811,-89.52 39.811,-89.52 46.179,-79.045 "/>
<g>
	<g>
		<line class="st4" x1="165.824" y1="-77.262" x2="176.107" y2="-77.262"/>
		<g>
			<path class="st5" d="M167.111-82.487v-5.175h1.3v5.122c0,2.016,0.923,2.926,2.561,2.926c1.638,0,2.574-0.91,2.574-2.926v-5.122
				h1.261v5.175c0,2.639-1.443,4.029-3.848,4.029C168.567-78.458,167.111-79.849,167.111-82.487z"/>
		</g>
	</g>
	<polygon class="st6" points="157.715,-95.462 157.715,-69.462 157.715,-69.212 157.965,-69.212 183.965,-69.212 184.215,-69.212 
		184.215,-69.462 184.215,-95.462 184.215,-95.712 183.965,-95.712 157.965,-95.712 157.715,-95.712 	"/>
</g>
<g>
	<g>
		<path class="st5" d="M136.361-87.389h1.3l-1.82,9.101h-1.3L136.361-87.389z"/>
	</g>
	<polygon class="st6" points="122.851,-95.838 122.851,-69.838 122.851,-69.588 123.101,-69.588 149.101,-69.588 149.351,-69.588 
		149.351,-69.838 149.351,-95.838 149.351,-96.088 149.101,-96.088 123.101,-96.088 122.851,-96.088 	"/>
</g>
<g>
	<g>
		<path class="st5" d="M103.213-80.72c0,1.573-1.248,2.483-3.64,2.483h-4.706v-9.101h4.446c2.275,0,3.445,0.949,3.445,2.366
			c0,0.91-0.468,1.612-1.209,2.002C102.563-82.644,103.213-81.863,103.213-80.72z M96.96-85.751v2.146h2.093
			c1.027,0,1.586-0.364,1.586-1.079s-0.559-1.066-1.586-1.066H96.96z M101.094-80.94c0-0.767-0.585-1.131-1.677-1.131H96.96v2.249
			h2.457C100.509-79.822,101.094-80.16,101.094-80.94z"/>
	</g>
	<polygon class="st6" points="85.79,-95.787 85.79,-69.787 85.79,-69.537 86.04,-69.537 112.04,-69.537 112.29,-69.537 
		112.29,-69.787 112.29,-95.787 112.29,-96.037 112.04,-96.037 86.04,-96.037 85.79,-96.037 	"/>
</g>
<path class="st7" d="M139.978-53.833"/>
<path class="st7" d="M137.47-52.579"/>
<path class="st7" d="M137.47-51.325"/>
<path class="st7" d="M137.47-50.071"/>
<path class="st7" d="M139.978-48.817"/>
<path class="st7" d="M139.978-47.563"/>
<path class="st7" d="M137.47-46.309"/>
<path class="st7" d="M137.47-43.801"/>
<path class="st7" d="M139.978-41.293"/>
<g>
	<path class="st7" d="M120.513-48.817"/>
	<path class="st7" d="M120.513-53.833"/>
	<path class="st7" d="M120.513-41.293"/>
	<path class="st7" d="M120.513-47.563"/>
	<g>
		<path class="st7" d="M122.575-46.309"/>
		<path class="st7" d="M122.575-50.071"/>
		<path class="st7" d="M122.575-51.325"/>
		<path class="st7" d="M122.575-52.579"/>
		<line class="st7" x1="120.138" y1="-42.088" x2="139.602" y2="-42.088"/>
		<line class="st7" x1="120.138" y1="-43.364" x2="135.032" y2="-43.364"/>
		<line class="st7" x1="120.138" y1="-44.64" x2="135.032" y2="-44.64"/>
		<line class="st7" x1="120.138" y1="-45.916" x2="135.032" y2="-45.916"/>
		<line class="st7" x1="120.138" y1="-47.192" x2="139.602" y2="-47.192"/>
		<line class="st7" x1="120.138" y1="-48.468" x2="139.602" y2="-48.468"/>
		<line class="st7" x1="120.211" y1="-49.744" x2="135.105" y2="-49.744"/>
		<line class="st7" x1="120.138" y1="-51.019" x2="139.602" y2="-51.019"/>
		<line class="st7" x1="120.138" y1="-52.295" x2="135.032" y2="-52.295"/>
		<line class="st7" x1="120.138" y1="-53.572" x2="135.032" y2="-53.572"/>
		<line class="st7" x1="120.138" y1="-54.847" x2="139.602" y2="-54.847"/>
	</g>
	<polygon class="st6" points="116.811,-61.142 116.811,-35.149 116.811,-34.899 117.061,-34.899 143.054,-34.899 143.304,-34.899 
		143.304,-35.149 143.304,-61.142 143.304,-61.392 143.054,-61.392 117.061,-61.392 116.811,-61.392 	"/>
</g>
<g>
	<g>
		<line class="st7" x1="170.858" y1="-54.531" x2="151.394" y2="-54.531"/>
		<line class="st7" x1="168.35" y1="-53.254" x2="153.456" y2="-53.254"/>
		<line class="st7" x1="168.35" y1="-51.977" x2="153.456" y2="-51.977"/>
		<line class="st7" x1="168.35" y1="-50.699" x2="153.456" y2="-50.699"/>
		<line class="st7" x1="170.858" y1="-49.423" x2="151.394" y2="-49.423"/>
		<line class="st7" x1="170.858" y1="-48.146" x2="151.394" y2="-48.146"/>
		<line class="st7" x1="168.35" y1="-46.868" x2="153.456" y2="-46.868"/>
		<line class="st7" x1="170.858" y1="-45.592" x2="151.394" y2="-45.592"/>
		<line class="st7" x1="168.35" y1="-44.314" x2="153.456" y2="-44.314"/>
		<line class="st7" x1="168.35" y1="-43.037" x2="153.456" y2="-43.037"/>
		<line class="st7" x1="170.858" y1="-41.761" x2="151.394" y2="-41.761"/>
	</g>
	<polygon class="st6" points="147.879,-61.142 147.879,-35.149 147.879,-34.899 148.129,-34.899 174.122,-34.899 174.372,-34.899 
		174.372,-35.149 174.372,-61.142 174.372,-61.392 174.122,-61.392 148.129,-61.392 147.879,-61.392 	"/>
</g>
<polygon class="st6" points="178.948,-61.142 178.948,-35.149 178.948,-34.899 179.198,-34.899 205.191,-34.899 205.441,-34.899 
	205.441,-35.149 205.441,-61.142 205.441,-61.392 205.191,-61.392 179.198,-61.392 178.948,-61.392 "/>
<path class="st7" d="M182.275-42.458"/>
<path class="st7" d="M182.275-47.474"/>
<path class="st7" d="M182.275-48.728"/>
<path class="st7" d="M182.275-54.998"/>
<path class="st7" d="M199.677-49.982"/>
<path class="st7" d="M201.739-47.474"/>
<path class="st7" d="M199.677-46.22"/>
<path class="st7" d="M201.739-42.458"/>
<path class="st7" d="M201.739-54.998"/>
<path class="st7" d="M201.739-48.728"/>
<path class="st7" d="M199.677-44.966"/>
<path class="st7" d="M199.677-43.712"/>
<g>
	<path class="st7" d="M184.595-44.034"/>
	<path class="st7" d="M184.595-45.288"/>
	<path class="st7" d="M184.595-46.542"/>
	<path class="st7" d="M184.595-50.304"/>
	<path class="st7" d="M184.595-52.812"/>
	<line class="st7" x1="201.927" y1="-54.525" x2="182.463" y2="-54.525"/>
	<line class="st7" x1="201.927" y1="-53.25" x2="187.033" y2="-53.25"/>
	<line class="st7" x1="201.927" y1="-51.974" x2="187.033" y2="-51.974"/>
	<line class="st7" x1="201.927" y1="-50.697" x2="187.033" y2="-50.697"/>
	<line class="st7" x1="201.927" y1="-49.421" x2="182.463" y2="-49.421"/>
	<line class="st7" x1="201.927" y1="-48.146" x2="182.463" y2="-48.146"/>
	<line class="st7" x1="201.853" y1="-46.87" x2="186.959" y2="-46.87"/>
	<line class="st7" x1="201.927" y1="-45.594" x2="182.463" y2="-45.594"/>
	<line class="st7" x1="201.927" y1="-44.318" x2="187.033" y2="-44.318"/>
	<line class="st7" x1="201.927" y1="-43.041" x2="187.033" y2="-43.041"/>
	<line class="st7" x1="201.927" y1="-41.766" x2="182.463" y2="-41.766"/>
</g>
<polygon class="st6" points="86.04,-61.135 86.04,-35.142 86.04,-34.892 86.29,-34.892 112.283,-34.892 112.533,-34.892 
	112.533,-35.142 112.533,-61.135 112.533,-61.385 112.283,-61.385 86.29,-61.385 86.04,-61.385 "/>
<path class="st7" d="M109.206-53.833"/>
<path class="st7" d="M109.206-48.817"/>
<path class="st7" d="M109.206-47.563"/>
<path class="st7" d="M109.206-41.293"/>
<path class="st7" d="M91.804-46.309"/>
<path class="st7" d="M89.742-48.817"/>
<path class="st7" d="M91.804-50.071"/>
<path class="st7" d="M89.742-53.833"/>
<path class="st7" d="M89.742-41.293"/>
<path class="st7" d="M89.742-47.563"/>
<path class="st7" d="M91.804-51.325"/>
<path class="st7" d="M91.804-52.579"/>
<g>
	<path class="st7" d="M106.699-52.579"/>
	<path class="st7" d="M106.699-51.325"/>
	<path class="st7" d="M106.699-50.071"/>
	<path class="st7" d="M106.699-46.309"/>
	<path class="st7" d="M106.699-43.801"/>
	<line class="st7" x1="89.366" y1="-42.088" x2="108.83" y2="-42.088"/>
	<line class="st7" x1="89.366" y1="-43.364" x2="108.83" y2="-43.364"/>
	<line class="st7" x1="89.366" y1="-44.64" x2="108.83" y2="-44.64"/>
	<line class="st7" x1="89.366" y1="-45.916" x2="108.83" y2="-45.916"/>
	<line class="st7" x1="89.366" y1="-47.192" x2="108.83" y2="-47.192"/>
	<line class="st7" x1="89.366" y1="-48.468" x2="108.83" y2="-48.468"/>
	<line class="st7" x1="89.44" y1="-49.744" x2="108.904" y2="-49.744"/>
	<line class="st7" x1="89.366" y1="-51.019" x2="108.83" y2="-51.019"/>
	<line class="st7" x1="89.366" y1="-52.295" x2="108.83" y2="-52.295"/>
	<line class="st7" x1="89.366" y1="-53.572" x2="108.83" y2="-53.572"/>
	<line class="st7" x1="89.366" y1="-54.847" x2="108.83" y2="-54.847"/>
</g>
<path class="st5" d="M-83.517,54.013l-1.915,13.335c-0.058,0.402-0.431,0.682-0.834,0.624c-0.402-0.058-0.682-0.431-0.624-0.833
	l1.915-13.336c0.058-0.402,0.431-0.681,0.834-0.623C-83.739,53.238-83.459,53.61-83.517,54.013 M-90.334,68.088
	c-0.407,0.003-0.74-0.324-0.742-0.73l-0.106-13.472c-0.003-0.407,0.324-0.739,0.73-0.742c0.408-0.003,0.74,0.324,0.743,0.731
	l0.105,13.471C-89.601,67.753-89.928,68.085-90.334,68.088 M-94.405,68.035c-0.401,0.064-0.779-0.209-0.842-0.61l-2.124-13.304
	c-0.064-0.402,0.209-0.779,0.612-0.843c0.401-0.064,0.778,0.209,0.842,0.611l2.123,13.303
	C-93.73,67.594-94.003,67.971-94.405,68.035 M-80.622,51.627c-0.141-0.169-0.353-0.266-0.573-0.264l-18.538,0.144
	c-0.22,0.002-0.429,0.101-0.568,0.272c-0.14,0.17-0.196,0.393-0.155,0.609l3.092,16.141c0.068,0.351,0.376,0.605,0.734,0.602
	l12.497-0.098c0.356-0.002,0.66-0.258,0.724-0.608l2.949-16.188C-80.42,52.021-80.481,51.796-80.622,51.627"/>
<path class="st8" d="M-83.517,54.013l-1.915,13.335c-0.058,0.402-0.431,0.682-0.834,0.624c-0.402-0.058-0.682-0.431-0.624-0.833
	l1.915-13.336c0.058-0.402,0.431-0.681,0.834-0.623C-83.739,53.238-83.459,53.61-83.517,54.013z M-90.334,68.088
	c-0.407,0.003-0.74-0.324-0.742-0.73l-0.106-13.472c-0.003-0.407,0.324-0.739,0.73-0.742c0.408-0.003,0.74,0.324,0.743,0.731
	l0.105,13.471C-89.601,67.753-89.928,68.085-90.334,68.088z M-94.405,68.035c-0.401,0.064-0.779-0.209-0.842-0.61l-2.124-13.304
	c-0.064-0.402,0.209-0.779,0.612-0.843c0.401-0.064,0.778,0.209,0.842,0.611l2.123,13.303
	C-93.73,67.594-94.003,67.971-94.405,68.035z M-80.622,51.627c-0.141-0.169-0.353-0.266-0.573-0.264l-18.538,0.144
	c-0.22,0.002-0.429,0.101-0.568,0.272c-0.14,0.17-0.196,0.393-0.155,0.609l3.092,16.141c0.068,0.351,0.376,0.605,0.734,0.602
	l12.497-0.098c0.356-0.002,0.66-0.258,0.724-0.608l2.949-16.188C-80.42,52.021-80.481,51.796-80.622,51.627z"/>
<path class="st5" d="M-93.31,47.02L-93.31,47.02l-0.004-0.421l5.49-0.043l0.004,0.421L-93.31,47.02z M-79.573,48.43L-79.573,48.43
	l-2.025,0.016l-0.009-1.171c-0.001-0.091-0.038-0.18-0.103-0.244c-0.065-0.064-0.155-0.1-0.246-0.1l-4.467,0.035l-0.009-1.12
	c-0.002-0.184-0.077-0.363-0.209-0.492c-0.131-0.13-0.311-0.203-0.495-0.201l-6.887,0.054c-0.183,0.001-0.363,0.077-0.492,0.208
	s-0.202,0.312-0.2,0.496l0.009,1.12l-4.164,0.032c-0.091,0.001-0.18,0.039-0.243,0.104c-0.065,0.065-0.101,0.154-0.101,0.246
	l0.009,1.171l-2.197,0.017l0.017,2.225l21.829-0.17L-79.573,48.43z"/>
<path class="st8" d="M-93.31,47.02L-93.31,47.02l-0.004-0.421l5.49-0.043l0.004,0.421L-93.31,47.02z M-79.573,48.43L-79.573,48.43
	l-2.025,0.016l-0.009-1.171c-0.001-0.091-0.038-0.18-0.103-0.244c-0.065-0.064-0.155-0.1-0.246-0.1l-4.467,0.035l-0.009-1.12
	c-0.002-0.184-0.077-0.363-0.209-0.492c-0.131-0.13-0.311-0.203-0.495-0.201l-6.887,0.054c-0.183,0.001-0.363,0.077-0.492,0.208
	s-0.202,0.312-0.2,0.496l0.009,1.12l-4.164,0.032c-0.091,0.001-0.18,0.039-0.243,0.104c-0.065,0.065-0.101,0.154-0.101,0.246
	l0.009,1.171l-2.197,0.017l0.017,2.225l21.829-0.17L-79.573,48.43z"/>
<rect x="-101.413" y="45.142" class="st9" width="21.868" height="24"/>
<rect x="239.517" y="-95.626" class="st10" width="34.924" height="19.551"/>
<g>
	<path class="st11" d="M252.494-85.213v4.238h-0.884v-1.066c-0.416,0.702-1.222,1.132-2.354,1.132c-1.547,0-2.496-0.807-2.496-1.989
		c0-1.054,0.676-1.938,2.639-1.938h2.171v-0.416c0-1.17-0.663-1.807-1.938-1.807c-0.884,0-1.716,0.312-2.275,0.806l-0.416-0.688
		c0.689-0.585,1.703-0.924,2.782-0.924C251.493-87.865,252.494-86.98,252.494-85.213z M251.571-83.028v-1.118h-2.146
		c-1.326,0-1.755,0.52-1.755,1.222c0,0.793,0.637,1.287,1.729,1.287C250.44-81.638,251.207-82.132,251.571-83.028z"/>
	<path class="st11" d="M260.593-87.812v6.838h-0.884v-1.248c-0.481,0.832-1.365,1.313-2.458,1.313c-1.742,0-2.886-0.976-2.886-2.938
		v-3.965h0.923v3.874c0,1.456,0.754,2.197,2.054,2.197c1.43,0,2.327-0.924,2.327-2.483v-3.588H260.593z"/>
	<path class="st11" d="M261.892-81.755l0.416-0.728c0.546,0.429,1.469,0.767,2.431,0.767c1.3,0,1.833-0.441,1.833-1.118
		c0-1.78-4.433-0.377-4.433-3.081c0-1.118,0.962-1.95,2.704-1.95c0.884,0,1.846,0.247,2.418,0.638l-0.403,0.74
		c-0.598-0.416-1.313-0.585-2.015-0.585c-1.235,0-1.781,0.481-1.781,1.132c0,1.846,4.434,0.455,4.434,3.081
		c0,1.183-1.04,1.95-2.821,1.95C263.544-80.909,262.452-81.273,261.892-81.755z"/>
</g>
<polygon class="st6" points="239.767,-95.751 239.767,-75.751 239.767,-75.501 240.017,-75.501 308.866,-75.501 309.116,-75.501 
	309.116,-75.751 309.116,-95.751 309.116,-96.001 308.866,-96.001 240.017,-96.001 239.767,-96.001 "/>
<rect x="239.517" y="-96.251" class="st9" width="69.849" height="21"/>
<rect x="-164.88" y="111.079" class="st11" width="1014" height="21"/>
<path class="st3" d="M462.281,111.079c-2.209,0-4,1.791-4,4v12.382c0,2.209,1.791,4,4,4h77.131c2.209,0,4-1.791,4-4v-12.382
	c0-2.209-1.791-4-4-4H462.281z"/>
<rect x="-164.63" y="111.329" class="st12" width="1013.5" height="20.5"/>
<path class="st13" d="M832.975,113.939v1.481c0,0.397,0.187,0.771,0.505,1.009l6.367,4.762c0.258,0.194,0.258,0.583,0,0.776
	l-6.367,4.762c-0.318,0.238-0.505,0.612-0.505,1.01v1.48c0,0.41,0.467,0.644,0.795,0.399l10.111-7.563
	c0.318-0.237,0.318-0.714,0-0.952l-10.11-7.562C833.442,113.295,832.975,113.53,832.975,113.939"/>
<path class="st13" d="M-149.028,129.219v-1.481c0-0.397-0.187-0.771-0.505-1.009l-6.367-4.762c-0.258-0.194-0.258-0.583,0-0.776
	l6.367-4.762c0.318-0.238,0.505-0.612,0.505-1.01v-1.48c0-0.41-0.467-0.644-0.795-0.399l-10.111,7.563
	c-0.318,0.237-0.318,0.714,0,0.952l10.11,7.562C-149.495,129.863-149.028,129.628-149.028,129.219"/>
<rect x="-164.88" y="111.079" class="st9" width="1014" height="21"/>
<rect x="890.892" y="-133.466" class="st11" width="21" height="702.123"/>
<path class="st3" d="M890.892,280.495c0,2.209,1.791,4,4,4h12.382c2.209,0,4-1.791,4-4v-78.286c0-2.209-1.791-4-4-4h-12.382
	c-2.209,0-4,1.791-4,4V280.495z"/>
<rect x="891.142" y="-133.217" class="st12" width="20.5" height="701.624"/>
<path class="st13" d="M893.752-119.931h1.481c0.397,0,0.771-0.19,1.009-0.512l4.762-6.453c0.194-0.262,0.583-0.262,0.776,0
	l4.762,6.453c0.238,0.322,0.612,0.512,1.01,0.512h1.48c0.41,0,0.644-0.474,0.399-0.806l-7.563-10.248
	c-0.237-0.322-0.714-0.322-0.952,0l-7.562,10.248C893.108-120.405,893.343-119.931,893.752-119.931"/>
<path class="st13" d="M909.032,554.321h-1.481c-0.397,0-0.771,0.19-1.009,0.512l-4.762,6.453c-0.194,0.262-0.583,0.262-0.776,0
	l-4.762-6.453c-0.238-0.322-0.612-0.512-1.01-0.512h-1.48c-0.41,0-0.644,0.474-0.399,0.806l7.563,10.248
	c0.237,0.322,0.714,0.322,0.952,0l7.562-10.248C909.676,554.795,909.441,554.321,909.032,554.321"/>
<rect x="890.892" y="-133.467" class="st9" width="21" height="702.124"/>
<g>
	<g>
		<line class="st7" x1="169.918" y1="-10.488" x2="156.901" y2="-10.488"/>
		<line class="st7" x1="169.918" y1="-20.663" x2="156.901" y2="-20.663"/>
		<line class="st7" x1="169.918" y1="-15.575" x2="156.901" y2="-15.575"/>
		<g>
			<path class="st5" d="M153.259-22.133v2.104h-0.487v-1.714h-0.421v-0.391H153.259z"/>
		</g>
		<g>
			<path class="st5" d="M154.019-15.166v0.396h-1.59v-0.315l0.812-0.767c0.187-0.178,0.22-0.286,0.22-0.388
				c0-0.165-0.114-0.262-0.337-0.262c-0.18,0-0.333,0.069-0.436,0.21l-0.355-0.228c0.163-0.238,0.457-0.392,0.836-0.392
				c0.469,0,0.781,0.241,0.781,0.623c0,0.204-0.057,0.391-0.352,0.664l-0.484,0.457H154.019z"/>
		</g>
		<g>
			<path class="st5" d="M154.001-10.407c0,0.354-0.273,0.68-0.872,0.68c-0.295,0-0.599-0.081-0.803-0.226l0.189-0.373
				c0.159,0.121,0.382,0.189,0.601,0.189c0.244,0,0.394-0.099,0.394-0.271c0-0.159-0.117-0.258-0.394-0.258h-0.223v-0.322
				l0.433-0.49h-0.896v-0.391h1.473v0.316l-0.475,0.541C153.809-10.951,154.001-10.717,154.001-10.407z"/>
		</g>
	</g>
	<polygon class="st6" points="147.872,-28.93 147.872,-2.93 147.872,-2.68 148.122,-2.68 174.122,-2.68 174.372,-2.68 
		174.372,-2.93 174.372,-28.93 174.372,-29.18 174.122,-29.18 148.122,-29.18 147.872,-29.18 	"/>
</g>
<polygon class="st6" points="86.04,-28.93 86.04,-2.93 86.04,-2.68 86.29,-2.68 112.29,-2.68 112.54,-2.68 112.54,-2.93 
	112.54,-28.93 112.54,-29.18 112.29,-29.18 86.29,-29.18 86.04,-29.18 "/>
<g>
	<polygon class="st6" points="116.381,-28.93 116.381,-2.93 116.381,-2.68 116.631,-2.68 142.631,-2.68 142.881,-2.68 
		142.881,-2.93 142.881,-28.93 142.881,-29.18 142.631,-29.18 116.631,-29.18 116.381,-29.18 	"/>
	<path class="st7" d="M137.913-10.806h-13.016 M137.913-15.939h-13.016 M137.913-21.071h-13.016"/>
	<path class="st5" d="M122.811-15.354c0.161-0.156,0.241-0.349,0.241-0.581c0-0.15-0.037-0.288-0.11-0.414
		c-0.073-0.125-0.172-0.224-0.297-0.297c-0.126-0.073-0.264-0.11-0.415-0.11c-0.15,0-0.288,0.037-0.41,0.11
		s-0.221,0.172-0.294,0.297c-0.072,0.126-0.11,0.264-0.11,0.414c0,0.232,0.08,0.425,0.238,0.581c0.157,0.156,0.35,0.234,0.576,0.234
		C122.457-15.12,122.65-15.198,122.811-15.354"/>
	<path class="st5" d="M122.234-19.988c0.489,0,0.885-0.396,0.885-0.885c0-0.488-0.396-0.885-0.885-0.885
		c-0.488,0-0.885,0.397-0.885,0.885C121.349-20.384,121.746-19.988,122.234-19.988"/>
	<path class="st5" d="M122.811-10.337c0.161-0.156,0.241-0.349,0.241-0.581c0-0.15-0.037-0.288-0.11-0.414
		c-0.073-0.125-0.172-0.224-0.297-0.297c-0.126-0.073-0.264-0.11-0.415-0.11c-0.15,0-0.288,0.037-0.41,0.11
		s-0.221,0.172-0.294,0.297c-0.072,0.126-0.11,0.264-0.11,0.414c0,0.232,0.08,0.425,0.238,0.581c0.157,0.156,0.35,0.234,0.576,0.234
		C122.457-10.103,122.65-10.181,122.811-10.337"/>
</g>
<path class="st7" d="M107.572-10.798H94.556 M107.572-15.931H94.556 M107.572-21.063H94.556"/>
<rect x="91.008" y="-21.832" class="st5" width="1.77" height="1.77"/>
<rect x="91.008" y="-16.816" class="st5" width="1.77" height="1.77"/>
<rect x="91.008" y="-11.798" class="st5" width="1.77" height="1.77"/>
<rect x="429.529" y="-96.72" class="st2" width="245" height="57.75"/>
<text transform="matrix(1 0 0 1 504.2271 -70.5243)"><tspan x="0" y="0" class="st5" style="font-family:'Montserrat-Regular'; font-size:13px;">N</tspan><tspan x="10.478" y="0" class="st5" style="font-family:'Montserrat-Regular'; font-size:13px;">e</tspan><tspan x="18.135" y="0" class="st5" style="font-family:'Montserrat-Regular'; font-size:13px;">u</tspan><tspan x="26.753" y="0" class="st5" style="font-family:'Montserrat-Regular'; font-size:13px;">e </tspan><tspan x="38.011" y="0" class="st5" style="font-family:'Montserrat-Regular'; font-size:13px; letter-spacing:-1;">T</tspan><tspan x="44.381" y="0" class="st5" style="font-family:'Montserrat-Regular'; font-size:13px;">e</tspan><tspan x="51.882" y="0" class="st5" style="font-family:'Montserrat-Regular'; font-size:13px;">x</tspan><tspan x="59.097" y="0" class="st5" style="font-family:'Montserrat-Regular'; font-size:13px;">t</tspan><tspan x="64.128" y="0" class="st5" style="font-family:'Montserrat-Regular'; font-size:13px;">b</tspan><tspan x="72.942" y="0" class="st5" style="font-family:'Montserrat-Regular'; font-size:13px;">o</tspan><tspan x="80.742" y="0" class="st5" style="font-family:'Montserrat-Regular'; font-size:13px;">x </tspan></text>
<path class="st14" d="M552.029-48.761c3.707,0,6.713-3.005,6.713-6.712c0-3.708-3.006-6.713-6.713-6.713s-6.712,3.005-6.712,6.713
	C545.317-51.766,548.322-48.761,552.029-48.761z"/>
<rect x="429.529" y="-96.72" class="st9" width="245" height="57.75"/>
<line class="st15" x1="552.029" y1="-59.008" x2="552.029" y2="-51.939"/>
<line class="st15" x1="548.495" y1="-55.442" x2="555.563" y2="-55.442"/>
<path class="st14" d="M441.068-8.926c3.707,0,6.713-3.005,6.713-6.712c0-3.708-3.006-6.713-6.713-6.713s-6.712,3.005-6.712,6.713
	C434.356-11.931,437.361-8.926,441.068-8.926z"/>
<line class="st15" x1="441.068" y1="-19.172" x2="441.068" y2="-12.103"/>
<line class="st15" x1="437.534" y1="-15.607" x2="444.602" y2="-15.607"/>
<g>
	<path class="st16" d="M-54.824,6.209h-3.138V4.36h8.544v1.85h-3.138v7.956h-2.269V6.209z"/>
	<path class="st16" d="M-48.204,4.36h2.269v9.806h-2.269V4.36z"/>
	<path class="st16" d="M-35.109,7.918c0,2.185-1.639,3.544-4.258,3.544h-1.975v2.703h-2.269V4.36h4.244
		C-36.748,4.36-35.109,5.719-35.109,7.918z M-37.406,7.918c0-1.079-0.701-1.709-2.087-1.709h-1.849v3.403h1.849
		C-38.107,9.613-37.406,8.983-37.406,7.918z"/>
	<path class="st16" d="M-24.987,7.918c0,2.185-1.639,3.544-4.258,3.544h-1.975v2.703h-2.269V4.36h4.244
		C-26.626,4.36-24.987,5.719-24.987,7.918z M-27.284,7.918c0-1.079-0.701-1.709-2.087-1.709h-1.849v3.403h1.849
		C-27.985,9.613-27.284,8.983-27.284,7.918z"/>
</g>
<path class="st16" d="M-91.452-0.111L-91.452-0.111c-1.054,2.474-1.96,4.602-2.889,6.784h5.729
	C-89.556,4.417-90.438,2.309-91.452-0.111 M-87.959,17.479L-87.959,17.479c-0.346-1.15-0.211-1.759,1.044-1.8
	c0.976-0.033,1.343-0.74,1.02-1.64c-0.507-1.414-1.072-2.81-1.681-4.183c-0.109-0.245-0.55-0.478-0.843-0.484
	c-2.129-0.041-4.261-0.046-6.39,0.005c-0.305,0.008-0.741,0.315-0.877,0.599c-0.558,1.155-1.057,2.342-1.512,3.542
	c-0.57,1.504-0.268,2.026,1.348,2.192c0.783,0.081,1.206,0.319,1.022,1.126c-0.056,0.243-0.355,0.61-0.547,0.613
	c-2.524,0.042-5.049,0.028-7.596,0.028c-0.214-0.956-0.321-1.631,0.868-1.885c0.569-0.122,1.219-0.609,1.515-1.117
	c0.755-1.293,1.377-2.67,1.972-4.049c2.401-5.559,4.761-11.135,7.172-16.689c0.173-0.398,0.634-0.67,0.96-1
	c0.319,0.343,0.766,0.632,0.937,1.037c2.56,6.048,5.079,12.114,7.622,18.17c0.326,0.776,0.705,1.534,1.106,2.275
	c0.507,0.939,1.332,1.389,2.379,1.595c0.265,0.052,0.519,0.638,0.586,1.013c0.032,0.175-0.39,0.621-0.611,0.624
	C-81.617,17.492-84.77,17.479-87.959,17.479"/>
<path class="st5" d="M5.786,9.94c2.682-0.014,4.762-2.036,4.751-4.621c-0.01-2.367-2.203-4.406-4.733-4.399
	C3.101,0.928,0.956,2.958,0.979,5.488C1.002,7.952,3.162,9.953,5.786,9.94 M11.341,9.953L11.341,9.953
	c0.393-0.231,0.569-0.207,0.91,0.115c1.249,1.181,2.501,2.361,3.751,3.541c0.086,0.08,0.173,0.159,0.252,0.246
	c0.216,0.237,0.217,0.464-0.012,0.692c-0.249,0.248-0.509,0.488-0.767,0.727c-0.302,0.28-0.548,0.287-0.855,0
	c-1.177-1.103-2.348-2.211-3.522-3.318c-0.132-0.124-0.263-0.25-0.396-0.373c-0.368-0.34-0.394-0.487-0.153-0.896
	c-0.368-0.336-0.737-0.673-1.128-1.029c-1.472,1.07-3.153,1.471-5.011,1.06C2.995,10.405,1.866,9.664,1.033,8.54
	c-1.65-2.23-1.286-5.335,0.823-7.11c2.222-1.87,5.521-1.904,7.68-0.117c2.217,1.835,2.765,5.106,0.696,7.583
	C10.602,9.249,10.971,9.6,11.341,9.953"/>
<path class="st17" d="M5.786,9.94c2.682-0.014,4.762-2.036,4.751-4.621c-0.01-2.367-2.203-4.406-4.733-4.399
	C3.101,0.928,0.956,2.958,0.979,5.488C1.002,7.952,3.162,9.953,5.786,9.94z M11.341,9.953L11.341,9.953
	c0.393-0.231,0.569-0.207,0.91,0.115c1.249,1.181,2.501,2.361,3.751,3.541c0.086,0.08,0.173,0.159,0.252,0.246
	c0.216,0.237,0.217,0.464-0.012,0.692c-0.249,0.248-0.509,0.488-0.767,0.727c-0.302,0.28-0.548,0.287-0.855,0
	c-1.177-1.103-2.348-2.211-3.522-3.318c-0.132-0.124-0.263-0.25-0.396-0.373c-0.368-0.34-0.394-0.487-0.153-0.896
	c-0.368-0.336-0.737-0.673-1.128-1.029c-1.472,1.07-3.153,1.471-5.011,1.06C2.995,10.405,1.866,9.664,1.033,8.54
	c-1.65-2.23-1.286-5.335,0.823-7.11c2.222-1.87,5.521-1.904,7.68-0.117c2.217,1.835,2.765,5.106,0.696,7.583
	C10.602,9.249,10.971,9.6,11.341,9.953z"/>
<path class="st5" d="M69.501,0.36l2.966,2.98V0.582c0-0.096-0.055-0.229-0.123-0.297l-3.807-3.826c-0.068-0.067-0.178-0.067-0.245,0
	l-3.93,3.949v2.758c0,0.096,0.055,0.119,0.122,0.051l2.844-2.857c0.068-0.068,0.122-0.046,0.122,0.05v7.829h0v2.168
	c0,0.096-0.055,0.118-0.123,0.05l-2.966-2.98v2.758c0,0.096,0.055,0.229,0.123,0.297l3.807,3.826c0.068,0.067,0.178,0.067,0.245,0
	l3.93-3.949V7.651c0-0.096-0.055-0.119-0.122-0.051L69.5,10.457c-0.068,0.068-0.122,0.046-0.122-0.05V2.578h0V0.41
	C69.378,0.314,69.433,0.292,69.501,0.36z"/>
<line class="st18" x1="33.362" y1="13.596" x2="61.195" y2="13.596"/>
<line class="st18" x1="33.362" y1="5.3" x2="61.195" y2="5.3"/>
<line class="st18" x1="33.362" y1="-2.692" x2="61.195" y2="-2.692"/>
<line class="st18" x1="47.703" y1="32.568" x2="47.703" y2="53.568"/>
<path class="st5" d="M55.163,46.411L55.163,46.411h2.695l-2.603-2.569c-0.138-0.135-0.093-0.245,0.101-0.245h7.006V42.19
	c0-0.193-0.157-0.35-0.35-0.35h-6.656c-0.194,0-0.239-0.11-0.101-0.246l2.603-2.569h-2.345c-0.193,0-0.462,0.111-0.599,0.246
	l-3.245,3.201c-0.137,0.136-0.137,0.356,0,0.492L55.163,46.411z"/>
<path class="st5" d="M39.393,39.199L39.393,39.199h-2.695l2.603,2.569c0.138,0.135,0.093,0.245-0.101,0.245h-7.006v1.407
	c0,0.193,0.157,0.35,0.35,0.35H39.2c0.194,0,0.239,0.11,0.101,0.246l-2.603,2.569h2.345c0.193,0,0.462-0.111,0.599-0.246
	l3.245-3.201c0.137-0.136,0.137-0.356,0-0.492L39.393,39.199z"/>
<line class="st19" x1="363.99" y1="-86.545" x2="327.967" y2="-86.545"/>
<path class="st20" d="M355.487-83.399c2.045,0,3.703-1.658,3.703-3.703s-1.658-3.703-3.703-3.703c-2.045,0-3.703,1.658-3.703,3.703
	S353.442-83.399,355.487-83.399"/>
<g>
	<path class="st5" d="M378.685-86.344c0,3.12-1.82,4.836-4.459,4.836c-0.91,0-1.781-0.195-2.392-0.585l0.624-1.274
		c0.494,0.325,1.092,0.442,1.729,0.442c1.716,0,2.795-1.066,2.795-3.133v-0.014c-0.546,0.638-1.417,0.949-2.431,0.949
		c-1.794,0-3.133-1.092-3.133-2.795c0-1.807,1.469-2.951,3.328-2.951C377.229-90.869,378.685-89.269,378.685-86.344z
		 M376.723-88.008c0-0.858-0.676-1.534-1.885-1.534c-1.053,0-1.781,0.598-1.781,1.547s0.715,1.547,1.82,1.547
		C375.969-86.449,376.723-87.112,376.723-88.008z"/>
	<path class="st5" d="M386.551-84.433c0,1.599-1.157,2.925-3.602,2.925c-1.287,0-2.587-0.39-3.419-1.053l0.715-1.313
		c0.663,0.546,1.651,0.897,2.678,0.897c1.209,0,1.924-0.533,1.924-1.392c0-0.871-0.559-1.417-2.444-1.417h-2.197l0.468-4.953h5.343
		v1.417h-3.913l-0.195,2.106h0.871C385.472-87.215,386.551-86.045,386.551-84.433z"/>
	<path class="st5" d="M390.97-88.333c0-1.495,0.871-2.496,2.171-2.496s2.184,0.988,2.184,2.496s-0.884,2.496-2.184,2.496
		S390.97-86.838,390.97-88.333z M394.259-88.333c0-1.014-0.416-1.586-1.118-1.586c-0.676,0-1.118,0.585-1.118,1.586
		s0.442,1.586,1.118,1.586C393.843-86.747,394.259-87.32,394.259-88.333z M398.601-90.739h1.274l-6.214,9.101h-1.274L398.601-90.739
		z M396.937-84.043c0-1.495,0.871-2.496,2.171-2.496c1.3,0,2.184,1.001,2.184,2.496s-0.884,2.496-2.184,2.496
		C397.808-81.547,396.937-82.548,396.937-84.043z M400.226-84.043c0-1.001-0.429-1.586-1.118-1.586s-1.118,0.572-1.118,1.586
		c0,1.015,0.429,1.586,1.118,1.586S400.226-83.042,400.226-84.043z"/>
</g>
<rect x="341.927" y="-32.402" class="st11" width="13.149" height="16.764"/>
<polygon class="st21" points="341.926,-15.638 341.926,-15.638 355.075,-15.638 355.075,-32.402 341.926,-32.402 "/>
<rect x="334.255" y="-32.873" class="st9" width="21.291" height="24"/>
<line class="st22" x1="338.752" y1="-24.707" x2="338.752" y2="-14.32"/>
<line class="st23" x1="341.384" y1="-12.431" x2="351.033" y2="-12.431"/>
<path class="st21" d="M351.909-12.431h0.877 M338.752-13.375v0.944h0.877 M338.752-27.54v0.944"/>
<polyline class="st21" points="334.725,-24.452 334.725,-9.344 348.759,-9.344 "/>
<rect x="334.255" y="-32.873" class="st9" width="21.291" height="24"/>
<rect x="373.5" y="-32.471" class="st11" width="14.674" height="18.705"/>
<polygon class="st24" points="373.501,-13.766 373.501,-13.766 388.174,-13.766 388.174,-32.471 373.501,-32.471 "/>
<rect x="373.098" y="-32.873" class="st9" width="19.884" height="24"/>
<rect x="377.907" y="-27.98" class="st5" width="14.674" height="18.705"/>
<polygon class="st25" points="377.907,-9.275 377.907,-9.275 392.58,-9.275 392.58,-27.98 377.907,-27.98 "/>
<rect x="373.098" y="-32.873" class="st9" width="19.884" height="24"/>
<rect x="274.608" y="-28.924" class="st10" width="34.924" height="19.551"/>
<text transform="matrix(1 0 0 1 281.6081 -14.2728)"><tspan x="0" y="0" class="st11" style="font-family:'Montserrat-Regular'; font-size:13px;">e</tspan><tspan x="7.41" y="0" class="st11" style="font-family:'Montserrat-Regular'; font-size:13px;">i</tspan><tspan x="10.335" y="0" class="st11" style="font-family:'Montserrat-Regular'; font-size:13px;">n</tspan></text>
<polygon class="st6" points="239.6,-29.049 239.6,-9.049 239.6,-8.799 239.85,-8.799 308.699,-8.799 308.949,-8.799 308.949,-9.049 
	308.949,-29.049 308.949,-29.299 308.699,-29.299 239.85,-29.299 239.6,-29.299 "/>
<rect x="239.35" y="-29.549" class="st9" width="70.183" height="21"/>
<line class="st26" x1="380.664" y1="60.59" x2="380.664" y2="84.85"/>
<path class="st5" d="M388.761,76.408L388.761,76.408h2.592l-2.494-2.46c-0.138-0.135-0.093-0.245,0.101-0.245h6.725v-1.339
	c0-0.193-0.157-0.35-0.35-0.35h-6.725l2.743-2.705h-2.242c-0.193,0-0.462,0.11-0.599,0.245l-3.102,3.059
	c-0.137,0.135-0.137,0.355,0,0.491L388.761,76.408z"/>
<line class="st26" x1="353.719" y1="84.683" x2="353.719" y2="60.423"/>
<path class="st5" d="M345.622,68.865L345.622,68.865h-2.592l2.494,2.46c0.138,0.135,0.093,0.245-0.101,0.245h-6.725v1.339
	c0,0.193,0.157,0.35,0.35,0.35h6.725l-2.743,2.705h2.242c0.193,0,0.462-0.11,0.599-0.245l3.102-3.059
	c0.137-0.135,0.137-0.355,0-0.491L345.622,68.865z"/>
<line class="st26" x1="163.977" y1="68.461" x2="188.237" y2="68.461"/>
<path class="st5" d="M179.628,60.404L179.628,60.404v-2.592l-2.46,2.494c-0.135,0.138-0.245,0.093-0.245-0.101V53.48h-1.339
	c-0.193,0-0.35,0.157-0.35,0.35v6.725l-2.705-2.743v2.242c0,0.193,0.11,0.462,0.245,0.599l3.059,3.102
	c0.135,0.137,0.355,0.137,0.491,0L179.628,60.404z"/>
<path class="st5" d="M172.696,75.556L172.696,75.556v2.592l2.46-2.494c0.135-0.138,0.245-0.093,0.245,0.101v6.725h1.339
	c0.193,0,0.35-0.157,0.35-0.35v-6.725l2.705,2.743v-2.242c0-0.193-0.11-0.462-0.245-0.599l-3.059-3.102
	c-0.135-0.137-0.355-0.137-0.491,0L172.696,75.556z"/>
<line class="st26" x1="220.423" y1="81.272" x2="220.423" y2="57.012"/>
<path class="st5" d="M212.365,65.621L212.365,65.621h-2.592l2.494,2.46c0.138,0.135,0.093,0.245-0.101,0.245h-6.725v1.339
	c0,0.193,0.157,0.35,0.35,0.35h6.725l-2.743,2.705h2.242c0.193,0,0.462-0.11,0.599-0.245l3.102-3.059
	c0.137-0.135,0.137-0.355,0-0.491L212.365,65.621z"/>
<path class="st5" d="M227.517,72.553L227.517,72.553h2.592l-2.494-2.46c-0.138-0.135-0.093-0.245,0.101-0.245h6.725v-1.339
	c0-0.193-0.157-0.35-0.35-0.35h-6.725l2.743-2.705h-2.242c-0.193,0-0.462,0.11-0.599,0.245l-3.102,3.059
	c-0.137,0.135-0.137,0.355,0,0.491L227.517,72.553z"/>
<line class="st26" x1="252.564" y1="68.745" x2="276.824" y2="68.745"/>
<path class="st5" d="M261.283,75.839L261.283,75.839v2.592l2.46-2.494c0.135-0.138,0.245-0.093,0.245,0.101v6.725h1.339
	c0.193,0,0.35-0.157,0.35-0.35v-6.725l2.705,2.743v-2.242c0-0.193-0.11-0.462-0.245-0.599l-3.059-3.102
	c-0.135-0.137-0.355-0.137-0.491,0L261.283,75.839z"/>
<line class="st26" x1="297.675" y1="80" x2="321.935" y2="80"/>
<path class="st5" d="M313.494,71.611L313.494,71.611v-2.592l-2.46,2.494c-0.135,0.138-0.245,0.093-0.245-0.101v-6.725h-1.339
	c-0.193,0-0.35,0.157-0.35,0.35v6.725l-2.705-2.743v2.242c0,0.193,0.11,0.462,0.245,0.599l3.059,3.102
	c0.135,0.137,0.355,0.137,0.491,0L313.494,71.611z"/>
<rect x="443.539" y="53.074" class="st11" width="15.769" height="20.056"/>
<line class="st27" x1="446.496" y1="73.13" x2="457.337" y2="73.13"/>
<line class="st28" x1="459.308" y1="70.122" x2="459.308" y2="55.08"/>
<line class="st27" x1="456.351" y1="53.074" x2="445.51" y2="53.074"/>
<line class="st28" x1="443.539" y1="56.082" x2="443.539" y2="71.124"/>
<path class="st21" d="M443.539,72.127v1.003h0.986 M444.525,53.074h-0.986v1.003 M459.308,54.077v-1.003h-0.985 M458.323,73.13
	h0.985v-1.003"/>
<polygon class="st11" points="432.303,83.13 432.303,83.13 448.072,83.13 448.072,63.074 432.303,63.074 "/>
<line class="st27" x1="435.26" y1="83.13" x2="446.101" y2="83.13"/>
<line class="st28" x1="448.072" y1="80.122" x2="448.072" y2="65.08"/>
<line class="st27" x1="445.116" y1="63.074" x2="434.275" y2="63.074"/>
<line class="st28" x1="432.303" y1="66.082" x2="432.303" y2="81.124"/>
<path class="st21" d="M432.303,82.127v1.003h0.986 M433.289,63.074h-0.986v1.003 M448.072,64.077v-1.003h-0.985 M447.087,83.13
	h0.985v-1.003"/>
<polygon class="st11" points="422.829,91.13 422.829,91.13 438.598,91.13 438.598,71.074 422.829,71.074 "/>
<polygon class="st21" points="422.829,91.13 422.829,91.13 438.598,91.13 438.598,71.074 422.829,71.074 "/>
<g>
	<polygon class="st11" points="496.666,77.436 496.666,77.436 512.435,77.436 512.435,57.38 496.666,57.38 	"/>
	<polygon class="st21" points="496.666,77.436 496.666,77.436 512.435,77.436 512.435,57.38 496.666,57.38 	"/>
	<line class="st29" x1="492.901" y1="65.934" x2="492.901" y2="79.438"/>
	<line class="st30" x1="496.039" y1="81.239" x2="507.542" y2="81.239"/>
	<path class="st21" d="M508.586,81.239h1.046 M492.901,80.339v0.9h1.046 M492.901,63.234v0.9"/>
</g>
<g>
	<g>
		<rect x="569.206" y="45.659" class="st11" width="15.769" height="20.056"/>
		<polygon class="st21" points="569.205,65.715 569.205,65.715 584.974,65.715 584.974,45.659 569.205,45.659 		"/>
		<polygon class="st11" points="557.969,75.715 557.969,75.715 573.738,75.715 573.738,55.659 557.969,55.659 		"/>
		<line class="st27" x1="560.926" y1="75.715" x2="571.767" y2="75.715"/>
		<line class="st28" x1="573.738" y1="72.707" x2="573.738" y2="57.665"/>
		<line class="st27" x1="570.782" y1="55.659" x2="559.941" y2="55.659"/>
		<line class="st28" x1="557.969" y1="58.668" x2="557.969" y2="73.71"/>
		<path class="st21" d="M557.969,74.712v1.003h0.986 M558.955,55.659h-0.986v1.003 M573.738,56.662v-1.003h-0.985 M572.753,75.715
			h0.985v-1.003"/>
		<polygon class="st11" points="548.495,83.715 548.495,83.715 564.264,83.715 564.264,63.659 548.495,63.659 		"/>
		<line class="st27" x1="551.452" y1="83.715" x2="562.293" y2="83.715"/>
		<line class="st28" x1="564.264" y1="80.707" x2="564.264" y2="65.665"/>
		<line class="st27" x1="561.308" y1="63.659" x2="550.467" y2="63.659"/>
		<line class="st28" x1="548.495" y1="66.668" x2="548.495" y2="81.71"/>
		<path class="st21" d="M548.495,82.712v1.003h0.986 M549.481,63.659h-0.986v1.003 M564.264,64.662v-1.003h-0.985 M563.279,83.715
			h0.985v-1.003"/>
	</g>
	<line class="st27" x1="624.619" y1="79.201" x2="635.46" y2="79.201"/>
	<line class="st28" x1="637.431" y1="76.192" x2="637.431" y2="61.15"/>
	<line class="st27" x1="634.475" y1="59.144" x2="623.634" y2="59.144"/>
	<line class="st28" x1="621.662" y1="62.153" x2="621.662" y2="77.195"/>
	<path class="st21" d="M621.662,78.198v1.003h0.986 M622.648,59.145h-0.986v1.003 M637.431,60.148v-1.003h-0.985 M636.446,79.201
		h0.985v-1.003"/>
	<polyline class="st21" points="617.898,64.999 617.898,83.004 634.629,83.004 	"/>
</g>
<g>
	<defs>
		<rect id="SVGID_1_" x="-137.377" y="173.037" width="241.682" height="1"/>
	</defs>
	<clipPath id="SVGID_00000127765124499677944810000004767011123765271980_">
		<use xlink:href="#SVGID_1_"  style="overflow:visible;"/>
	</clipPath>
	
		<line style="clip-path:url(#SVGID_00000127765124499677944810000004767011123765271980_);fill:none;stroke:#B2B2B2;stroke-linecap:round;stroke-linejoin:round;stroke-dasharray:0,3.009;" x1="-133.868" y1="173.537" x2="102.302" y2="173.537"/>
	
		<path style="clip-path:url(#SVGID_00000127765124499677944810000004767011123765271980_);fill:none;stroke:#B2B2B2;stroke-linecap:round;stroke-linejoin:round;" d="
		M103.805,173.537L103.805,173.537 M-136.877,173.537L-136.877,173.537"/>
</g>
<circle class="st33" cx="-90.479" cy="-47.675" r="12.75"/>
<polygon class="st3" points="52.914,-62.698 39.914,-62.698 46.282,-52.223 "/>
<polygon class="st5" points="60.938,65.844 50.463,72.212 60.938,78.844 "/>
<polygon class="st5" points="31.891,78.844 42.366,72.476 31.891,65.844 "/>
<polygon class="st5" points="114.444,65.844 103.969,72.212 114.444,78.844 "/>
<polygon class="st5" points="79.267,78.844 89.742,72.476 79.267,65.844 "/>
<rect x="239.517" y="-62.687" class="st10" width="34.924" height="19.551"/>
<polygon class="st6" points="239.767,-62.812 239.767,-42.812 239.767,-42.562 240.017,-42.562 308.866,-42.562 309.116,-42.562 
	309.116,-42.812 309.116,-62.812 309.116,-63.062 308.866,-63.062 240.017,-63.062 239.767,-63.062 "/>
<rect x="239.517" y="-63.312" class="st9" width="69.849" height="21"/>
<rect x="274.88" y="3.341" class="st10" width="34.924" height="19.551"/>
<polygon class="st6" points="239.872,3.216 239.872,23.216 239.872,23.466 240.122,23.466 308.971,23.466 309.221,23.466 
	309.221,23.216 309.221,3.216 309.221,2.966 308.971,2.966 240.122,2.966 239.872,2.966 "/>
<rect x="239.622" y="2.716" class="st9" width="70.183" height="21"/>
<line class="st19" x1="362.912" y1="-66.758" x2="326.889" y2="-66.758"/>
<path class="st20" d="M354.409-63.612c2.045,0,3.703-1.658,3.703-3.703c0-2.045-1.658-3.703-3.703-3.703
	c-2.045,0-3.703,1.658-3.703,3.703C350.706-65.27,352.364-63.612,354.409-63.612"/>
<line class="st19" x1="671.236" y1="-35.978" x2="635.213" y2="-35.978"/>
<path class="st20" d="M662.733-32.832c2.045,0,3.703-1.658,3.703-3.703c0-2.045-1.658-3.703-3.703-3.703s-3.703,1.658-3.703,3.703
	C659.03-34.49,660.688-32.832,662.733-32.832"/>
</svg>
