<?xml version="1.0" encoding="utf-8"?>
<!-- Generator: Adobe Illustrator 26.0.3, SVG Export Plug-In . SVG Version: 6.00 Build 0)  -->
<svg version="1.1" id="Ebene_1" xmlns="http://www.w3.org/2000/svg" xmlns:xlink="http://www.w3.org/1999/xlink" x="0px" y="0px"
	 width="26.993px" height="26.993px" viewBox="0 0 26.993 26.993" style="enable-background:new 0 0 26.993 26.993;"
	 xml:space="preserve">
<style type="text/css">
	.st0{fill:none;stroke:#C5C5C5;stroke-width:3;stroke-linecap:round;stroke-linejoin:round;}
	.st1{fill:#FFAEFF;stroke:#4F4D4D;stroke-width:0.5;}
	.st2{fill:#F8F8F8;}
	.st3{fill:#0E689A;}
	.st4{fill:none;stroke:#B2B1B1;stroke-width:0.65;stroke-miterlimit:10;}
	.st5{fill:#B2B1B1;}
	.st6{fill:none;stroke:#B2B2B2;stroke-width:0.5;stroke-miterlimit:10;}
	.st7{fill:none;stroke:#B2B1B1;stroke-width:0.3;stroke-miterlimit:10;}
	.st8{fill:none;stroke:#FFFFFF;stroke-width:0.021;}
	.st9{fill:none;}
	.st10{fill:#0E6899;}
	.st11{fill:#FFFFFF;}
	.st12{fill:none;stroke:#C5C5C5;stroke-width:0.5;stroke-linecap:round;stroke-linejoin:round;}
	.st13{fill:#C5C5C5;}
	.st14{fill:none;stroke:#B2B1B1;stroke-width:0.5;}
	.st15{fill:none;stroke:#B2B1B1;stroke-width:1.2;}
	.st16{fill:#B2B2B2;}
	.st17{fill:none;stroke:#FFFFFF;stroke-width:0.001;}
	.st18{fill:none;stroke:#B2B1B1;stroke-width:1.712;}
	.st19{fill:none;stroke:#B2B1B1;stroke-width:2;}
	.st20{fill:#AD5E7A;}
	.st21{fill:none;stroke:#B2B1B1;stroke-width:0.941;}
	.st22{fill:none;stroke:#B2B1B1;stroke-width:0.941;stroke-dasharray:1.889,1.889;}
	.st23{fill:none;stroke:#B2B1B1;stroke-width:0.941;stroke-dasharray:1.754,1.754;}
	.st24{fill:none;stroke:#B2B1B1;stroke-width:0.804;}
	.st25{fill:none;stroke:#FFFFFF;stroke-width:0.804;}
	.st26{fill:none;stroke:#B2B1B1;stroke-width:2.5;}
	.st27{fill:none;stroke:#B2B1B1;stroke-width:0.941;stroke-dasharray:1.971,1.971;}
	.st28{fill:none;stroke:#B2B1B1;stroke-width:0.941;stroke-dasharray:2.006,2.006;}
	.st29{fill:none;stroke:#B2B1B1;stroke-width:0.941;stroke-dasharray:1.801,1.801;}
	.st30{fill:none;stroke:#B2B1B1;stroke-width:0.941;stroke-dasharray:2.091,2.091;}
	
		.st31{clip-path:url(#SVGID_00000114787398991458237660000007174628011458042040_);fill:none;stroke:#B2B2B2;stroke-linecap:round;stroke-linejoin:round;stroke-dasharray:0,3.009;}
	
		.st32{clip-path:url(#SVGID_00000114787398991458237660000007174628011458042040_);fill:none;stroke:#B2B2B2;stroke-linecap:round;stroke-linejoin:round;}
	.st33{fill:none;stroke:#4F4D4D;stroke-width:0.5;}
</style>
<polyline class="st0" points="1722.716,940.623 1716.466,931.623 1709.716,940.623 "/>
<circle class="st1" cx="-269.177" cy="-22.125" r="12.75"/>
<rect x="-236.716" y="-33.14" class="st2" width="119.902" height="21"/>
<polygon class="st3" points="-125.887,-27.878 -138.887,-27.878 -132.519,-17.403 "/>
<g>
	<g>
		<line class="st4" x1="-12.875" y1="-15.62" x2="-2.592" y2="-15.62"/>
		<g>
			<path class="st5" d="M-11.587-20.845v-5.175h1.3v5.122c0,2.016,0.923,2.926,2.561,2.926c1.638,0,2.574-0.91,2.574-2.926v-5.122
				h1.261v5.175c0,2.639-1.443,4.029-3.848,4.029C-10.131-16.816-11.587-18.207-11.587-20.845z"/>
		</g>
	</g>
	<polygon class="st6" points="-20.983,-33.82 -20.983,-7.82 -20.983,-7.57 -20.733,-7.57 5.267,-7.57 5.517,-7.57 5.517,-7.82 
		5.517,-33.82 5.517,-34.07 5.267,-34.07 -20.733,-34.07 -20.983,-34.07 	"/>
</g>
<g>
	<g>
		<path class="st5" d="M-42.337-25.747h1.3l-1.82,9.101h-1.3L-42.337-25.747z"/>
	</g>
	<polygon class="st6" points="-55.847,-34.196 -55.847,-8.196 -55.847,-7.946 -55.597,-7.946 -29.597,-7.946 -29.347,-7.946 
		-29.347,-8.196 -29.347,-34.196 -29.347,-34.446 -29.597,-34.446 -55.597,-34.446 -55.847,-34.446 	"/>
</g>
<g>
	<g>
		<path class="st5" d="M-75.485-19.078c0,1.573-1.248,2.483-3.64,2.483h-4.706v-9.101h4.446c2.275,0,3.445,0.949,3.445,2.366
			c0,0.91-0.468,1.612-1.209,2.002C-76.135-21.002-75.485-20.221-75.485-19.078z M-81.738-24.109v2.146h2.093
			c1.027,0,1.586-0.364,1.586-1.079s-0.559-1.066-1.586-1.066H-81.738z M-77.604-19.298c0-0.767-0.585-1.131-1.677-1.131h-2.457
			v2.249h2.457C-78.189-18.18-77.604-18.518-77.604-19.298z"/>
	</g>
	<polygon class="st6" points="-92.908,-34.145 -92.908,-8.145 -92.908,-7.895 -92.658,-7.895 -66.658,-7.895 -66.408,-7.895 
		-66.408,-8.145 -66.408,-34.145 -66.408,-34.395 -66.658,-34.395 -92.658,-34.395 -92.908,-34.395 	"/>
</g>
<path class="st7" d="M-38.721,7.809"/>
<path class="st7" d="M-41.228,9.063"/>
<path class="st7" d="M-41.228,10.317"/>
<path class="st7" d="M-41.228,11.571"/>
<path class="st7" d="M-38.721,12.825"/>
<path class="st7" d="M-38.721,14.079"/>
<path class="st7" d="M-41.228,15.333"/>
<path class="st7" d="M-41.228,17.841"/>
<path class="st7" d="M-38.721,20.349"/>
<g>
	<path class="st7" d="M-58.185,12.825"/>
	<path class="st7" d="M-58.185,7.809"/>
	<path class="st7" d="M-58.185,20.349"/>
	<path class="st7" d="M-58.185,14.079"/>
	<g>
		<path class="st7" d="M-56.123,15.333"/>
		<path class="st7" d="M-56.123,11.571"/>
		<path class="st7" d="M-56.123,10.317"/>
		<path class="st7" d="M-56.123,9.063"/>
		<line class="st7" x1="-58.56" y1="19.554" x2="-39.096" y2="19.554"/>
		<line class="st7" x1="-58.56" y1="18.278" x2="-43.666" y2="18.278"/>
		<line class="st7" x1="-58.56" y1="17.002" x2="-43.666" y2="17.002"/>
		<line class="st7" x1="-58.56" y1="15.726" x2="-43.666" y2="15.726"/>
		<line class="st7" x1="-58.56" y1="14.45" x2="-39.096" y2="14.45"/>
		<line class="st7" x1="-58.56" y1="13.174" x2="-39.096" y2="13.174"/>
		<line class="st7" x1="-58.487" y1="11.898" x2="-43.593" y2="11.898"/>
		<line class="st7" x1="-58.56" y1="10.623" x2="-39.096" y2="10.623"/>
		<line class="st7" x1="-58.56" y1="9.347" x2="-43.666" y2="9.347"/>
		<line class="st7" x1="-58.56" y1="8.07" x2="-43.666" y2="8.07"/>
		<line class="st7" x1="-58.56" y1="6.795" x2="-39.096" y2="6.795"/>
	</g>
	<polygon class="st6" points="-61.887,0.5 -61.887,26.493 -61.887,26.743 -61.637,26.743 -35.644,26.743 -35.394,26.743 
		-35.394,26.493 -35.394,0.5 -35.394,0.25 -35.644,0.25 -61.637,0.25 -61.887,0.25 	"/>
</g>
<g>
	<g>
		<line class="st7" x1="-7.84" y1="7.111" x2="-27.304" y2="7.111"/>
		<line class="st7" x1="-10.348" y1="8.388" x2="-25.242" y2="8.388"/>
		<line class="st7" x1="-10.348" y1="9.665" x2="-25.242" y2="9.665"/>
		<line class="st7" x1="-10.348" y1="10.943" x2="-25.242" y2="10.943"/>
		<line class="st7" x1="-7.84" y1="12.219" x2="-27.304" y2="12.219"/>
		<line class="st7" x1="-7.84" y1="13.496" x2="-27.304" y2="13.496"/>
		<line class="st7" x1="-10.348" y1="14.774" x2="-25.242" y2="14.774"/>
		<line class="st7" x1="-7.84" y1="16.051" x2="-27.304" y2="16.051"/>
		<line class="st7" x1="-10.348" y1="17.328" x2="-25.242" y2="17.328"/>
		<line class="st7" x1="-10.348" y1="18.605" x2="-25.242" y2="18.605"/>
		<line class="st7" x1="-7.84" y1="19.882" x2="-27.304" y2="19.882"/>
	</g>
	<polygon class="st6" points="-30.819,0.5 -30.819,26.493 -30.819,26.743 -30.569,26.743 -4.576,26.743 -4.326,26.743 
		-4.326,26.493 -4.326,0.5 -4.326,0.25 -4.576,0.25 -30.569,0.25 -30.819,0.25 	"/>
</g>
<polygon class="st6" points="0.25,0.5 0.25,26.493 0.25,26.743 0.5,26.743 26.493,26.743 26.743,26.743 26.743,26.493 26.743,0.5 
	26.743,0.25 26.493,0.25 0.5,0.25 0.25,0.25 "/>
<path class="st7" d="M3.577,19.184"/>
<path class="st7" d="M3.577,14.168"/>
<path class="st7" d="M3.577,12.914"/>
<path class="st7" d="M3.577,6.645"/>
<path class="st7" d="M20.979,11.66"/>
<path class="st7" d="M23.041,14.168"/>
<path class="st7" d="M20.979,15.422"/>
<path class="st7" d="M23.041,19.184"/>
<path class="st7" d="M23.041,6.645"/>
<path class="st7" d="M23.041,12.914"/>
<path class="st7" d="M20.979,16.676"/>
<path class="st7" d="M20.979,17.93"/>
<g>
	<path class="st7" d="M5.896,17.608"/>
	<path class="st7" d="M5.896,16.354"/>
	<path class="st7" d="M5.896,15.1"/>
	<path class="st7" d="M5.896,11.338"/>
	<path class="st7" d="M5.896,8.83"/>
	<line class="st7" x1="23.229" y1="7.117" x2="3.764" y2="7.117"/>
	<line class="st7" x1="23.229" y1="8.392" x2="8.334" y2="8.392"/>
	<line class="st7" x1="23.229" y1="9.668" x2="8.334" y2="9.668"/>
	<line class="st7" x1="23.229" y1="10.945" x2="8.334" y2="10.945"/>
	<line class="st7" x1="23.229" y1="12.221" x2="3.764" y2="12.221"/>
	<line class="st7" x1="23.229" y1="13.496" x2="3.764" y2="13.496"/>
	<line class="st7" x1="23.155" y1="14.772" x2="8.261" y2="14.772"/>
	<line class="st7" x1="23.229" y1="16.048" x2="3.764" y2="16.048"/>
	<line class="st7" x1="23.229" y1="17.324" x2="8.334" y2="17.324"/>
	<line class="st7" x1="23.229" y1="18.601" x2="8.334" y2="18.601"/>
	<line class="st7" x1="23.229" y1="19.876" x2="3.764" y2="19.876"/>
</g>
<polygon class="st6" points="-92.658,0.507 -92.658,26.5 -92.658,26.75 -92.408,26.75 -66.415,26.75 -66.165,26.75 -66.165,26.5 
	-66.165,0.507 -66.165,0.257 -66.415,0.257 -92.408,0.257 -92.658,0.257 "/>
<path class="st7" d="M-69.492,7.809"/>
<path class="st7" d="M-69.492,12.825"/>
<path class="st7" d="M-69.492,14.079"/>
<path class="st7" d="M-69.492,20.349"/>
<path class="st7" d="M-86.894,15.333"/>
<path class="st7" d="M-88.956,12.825"/>
<path class="st7" d="M-86.894,11.571"/>
<path class="st7" d="M-88.956,7.809"/>
<path class="st7" d="M-88.956,20.349"/>
<path class="st7" d="M-88.956,14.079"/>
<path class="st7" d="M-86.894,10.317"/>
<path class="st7" d="M-86.894,9.063"/>
<g>
	<path class="st7" d="M-72,9.063"/>
	<path class="st7" d="M-72,10.317"/>
	<path class="st7" d="M-72,11.571"/>
	<path class="st7" d="M-72,15.333"/>
	<path class="st7" d="M-72,17.841"/>
	<line class="st7" x1="-89.332" y1="19.554" x2="-69.868" y2="19.554"/>
	<line class="st7" x1="-89.332" y1="18.278" x2="-69.868" y2="18.278"/>
	<line class="st7" x1="-89.332" y1="17.002" x2="-69.868" y2="17.002"/>
	<line class="st7" x1="-89.332" y1="15.726" x2="-69.868" y2="15.726"/>
	<line class="st7" x1="-89.332" y1="14.45" x2="-69.868" y2="14.45"/>
	<line class="st7" x1="-89.332" y1="13.174" x2="-69.868" y2="13.174"/>
	<line class="st7" x1="-89.258" y1="11.898" x2="-69.794" y2="11.898"/>
	<line class="st7" x1="-89.332" y1="10.623" x2="-69.868" y2="10.623"/>
	<line class="st7" x1="-89.332" y1="9.347" x2="-69.868" y2="9.347"/>
	<line class="st7" x1="-89.332" y1="8.07" x2="-69.868" y2="8.07"/>
	<line class="st7" x1="-89.332" y1="6.795" x2="-69.868" y2="6.795"/>
</g>
<path class="st5" d="M-262.215,115.655l-1.915,13.335c-0.058,0.402-0.431,0.682-0.834,0.624c-0.402-0.058-0.682-0.431-0.624-0.833
	l1.915-13.336c0.058-0.402,0.431-0.681,0.834-0.623C-262.437,114.88-262.157,115.252-262.215,115.655 M-269.032,129.73
	c-0.407,0.003-0.74-0.324-0.742-0.73l-0.106-13.472c-0.003-0.407,0.324-0.739,0.73-0.742c0.408-0.003,0.74,0.324,0.743,0.731
	l0.105,13.471C-268.299,129.395-268.626,129.727-269.032,129.73 M-273.103,129.677c-0.401,0.064-0.779-0.209-0.842-0.61
	l-2.124-13.304c-0.064-0.402,0.209-0.779,0.612-0.843c0.401-0.064,0.778,0.209,0.842,0.611l2.123,13.303
	C-272.428,129.236-272.701,129.613-273.103,129.677 M-259.32,113.269c-0.141-0.169-0.353-0.266-0.573-0.264l-18.538,0.144
	c-0.22,0.002-0.429,0.101-0.568,0.272c-0.14,0.17-0.196,0.393-0.155,0.609l3.092,16.141c0.068,0.351,0.376,0.605,0.734,0.602
	l12.497-0.098c0.356-0.002,0.66-0.258,0.724-0.608l2.949-16.188C-259.118,113.663-259.179,113.438-259.32,113.269"/>
<path class="st8" d="M-262.215,115.655l-1.915,13.335c-0.058,0.402-0.431,0.682-0.834,0.624c-0.402-0.058-0.682-0.431-0.624-0.833
	l1.915-13.336c0.058-0.402,0.431-0.681,0.834-0.623C-262.437,114.88-262.157,115.252-262.215,115.655z M-269.032,129.73
	c-0.407,0.003-0.74-0.324-0.742-0.73l-0.106-13.472c-0.003-0.407,0.324-0.739,0.73-0.742c0.408-0.003,0.74,0.324,0.743,0.731
	l0.105,13.471C-268.299,129.395-268.626,129.727-269.032,129.73z M-273.103,129.677c-0.401,0.064-0.779-0.209-0.842-0.61
	l-2.124-13.304c-0.064-0.402,0.209-0.779,0.612-0.843c0.401-0.064,0.778,0.209,0.842,0.611l2.123,13.303
	C-272.428,129.236-272.701,129.613-273.103,129.677z M-259.32,113.269c-0.141-0.169-0.353-0.266-0.573-0.264l-18.538,0.144
	c-0.22,0.002-0.429,0.101-0.568,0.272c-0.14,0.17-0.196,0.393-0.155,0.609l3.092,16.141c0.068,0.351,0.376,0.605,0.734,0.602
	l12.497-0.098c0.356-0.002,0.66-0.258,0.724-0.608l2.949-16.188C-259.118,113.663-259.179,113.438-259.32,113.269z"/>
<path class="st5" d="M-272.008,108.662L-272.008,108.662l-0.004-0.421l5.49-0.043l0.004,0.421L-272.008,108.662z M-258.271,110.072
	L-258.271,110.072l-2.025,0.016l-0.009-1.171c-0.001-0.091-0.038-0.18-0.103-0.244s-0.155-0.1-0.246-0.1l-4.467,0.035l-0.009-1.12
	c-0.002-0.184-0.077-0.363-0.209-0.492c-0.131-0.13-0.311-0.203-0.495-0.201l-6.887,0.054c-0.183,0.001-0.363,0.077-0.492,0.208
	c-0.129,0.131-0.202,0.312-0.2,0.496l0.009,1.12l-4.164,0.032c-0.091,0.001-0.18,0.039-0.243,0.104
	c-0.065,0.065-0.101,0.154-0.101,0.246l0.009,1.171l-2.197,0.017l0.017,2.225l21.829-0.17L-258.271,110.072z"/>
<path class="st8" d="M-272.008,108.662L-272.008,108.662l-0.004-0.421l5.49-0.043l0.004,0.421L-272.008,108.662z M-258.271,110.072
	L-258.271,110.072l-2.025,0.016l-0.009-1.171c-0.001-0.091-0.038-0.18-0.103-0.244s-0.155-0.1-0.246-0.1l-4.467,0.035l-0.009-1.12
	c-0.002-0.184-0.077-0.363-0.209-0.492c-0.131-0.13-0.311-0.203-0.495-0.201l-6.887,0.054c-0.183,0.001-0.363,0.077-0.492,0.208
	c-0.129,0.131-0.202,0.312-0.2,0.496l0.009,1.12l-4.164,0.032c-0.091,0.001-0.18,0.039-0.243,0.104
	c-0.065,0.065-0.101,0.154-0.101,0.246l0.009,1.171l-2.197,0.017l0.017,2.225l21.829-0.17L-258.271,110.072z"/>
<rect x="-280.111" y="106.784" class="st9" width="21.868" height="24"/>
<rect x="60.819" y="-33.984" class="st10" width="34.924" height="19.551"/>
<g>
	<path class="st11" d="M73.796-23.571v4.238h-0.884v-1.066c-0.416,0.702-1.222,1.132-2.354,1.132c-1.547,0-2.496-0.807-2.496-1.989
		c0-1.054,0.676-1.938,2.639-1.938h2.171v-0.416c0-1.17-0.663-1.807-1.938-1.807c-0.884,0-1.716,0.312-2.275,0.806l-0.416-0.688
		c0.689-0.585,1.703-0.924,2.782-0.924C72.795-26.223,73.796-25.338,73.796-23.571z M72.873-21.386v-1.118h-2.146
		c-1.326,0-1.755,0.52-1.755,1.222c0,0.793,0.637,1.287,1.729,1.287C71.742-19.996,72.509-20.49,72.873-21.386z"/>
	<path class="st11" d="M81.895-26.17v6.838h-0.884v-1.248c-0.481,0.832-1.365,1.313-2.458,1.313c-1.742,0-2.886-0.976-2.886-2.938
		v-3.965h0.923v3.874c0,1.456,0.754,2.197,2.054,2.197c1.43,0,2.327-0.924,2.327-2.483v-3.588H81.895z"/>
	<path class="st11" d="M83.194-20.113l0.416-0.728c0.546,0.429,1.469,0.767,2.431,0.767c1.3,0,1.833-0.441,1.833-1.118
		c0-1.78-4.433-0.377-4.433-3.081c0-1.118,0.962-1.95,2.704-1.95c0.884,0,1.846,0.247,2.418,0.638l-0.403,0.74
		c-0.598-0.416-1.313-0.585-2.015-0.585c-1.235,0-1.781,0.481-1.781,1.132c0,1.846,4.434,0.455,4.434,3.081
		c0,1.183-1.04,1.95-2.821,1.95C84.846-19.267,83.753-19.631,83.194-20.113z"/>
</g>
<polygon class="st6" points="61.069,-34.109 61.069,-14.109 61.069,-13.859 61.319,-13.859 130.168,-13.859 130.418,-13.859 
	130.418,-14.109 130.418,-34.109 130.418,-34.359 130.168,-34.359 61.319,-34.359 61.069,-34.359 "/>
<rect x="60.819" y="-34.609" class="st9" width="69.849" height="21"/>
<rect x="-343.578" y="172.721" class="st11" width="1014" height="21"/>
<path class="st3" d="M283.583,172.721c-2.209,0-4,1.791-4,4v12.382c0,2.209,1.791,4,4,4h77.131c2.209,0,4-1.791,4-4v-12.382
	c0-2.209-1.791-4-4-4H283.583z"/>
<rect x="-343.328" y="172.971" class="st12" width="1013.5" height="20.5"/>
<path class="st13" d="M654.277,175.581v1.481c0,0.397,0.187,0.771,0.505,1.009l6.367,4.762c0.258,0.194,0.258,0.583,0,0.776
	l-6.367,4.762c-0.318,0.238-0.505,0.612-0.505,1.01v1.48c0,0.41,0.467,0.644,0.795,0.399l10.111-7.563
	c0.318-0.237,0.318-0.714,0-0.952l-10.11-7.562C654.744,174.937,654.277,175.172,654.277,175.581"/>
<path class="st13" d="M-327.726,190.861v-1.481c0-0.397-0.187-0.771-0.505-1.009l-6.367-4.762c-0.258-0.194-0.258-0.583,0-0.776
	l6.367-4.762c0.318-0.238,0.505-0.612,0.505-1.01v-1.48c0-0.41-0.467-0.644-0.795-0.399l-10.111,7.563
	c-0.318,0.237-0.318,0.714,0,0.952l10.11,7.562C-328.193,191.505-327.726,191.27-327.726,190.861"/>
<rect x="-343.578" y="172.721" class="st9" width="1014" height="21"/>
<rect x="712.194" y="-71.824" class="st11" width="21" height="702.123"/>
<path class="st3" d="M712.194,342.137c0,2.209,1.791,4,4,4h12.382c2.209,0,4-1.791,4-4v-78.286c0-2.209-1.791-4-4-4h-12.382
	c-2.209,0-4,1.791-4,4V342.137z"/>
<rect x="712.444" y="-71.575" class="st12" width="20.5" height="701.624"/>
<path class="st13" d="M715.054-58.289h1.481c0.397,0,0.771-0.19,1.009-0.512l4.762-6.453c0.194-0.262,0.583-0.262,0.776,0
	l4.762,6.453c0.238,0.322,0.612,0.512,1.01,0.512h1.48c0.41,0,0.644-0.474,0.399-0.806l-7.563-10.248
	c-0.237-0.322-0.714-0.322-0.952,0l-7.562,10.248C714.41-58.763,714.645-58.289,715.054-58.289"/>
<path class="st13" d="M730.334,615.963h-1.481c-0.397,0-0.771,0.19-1.009,0.512l-4.762,6.453c-0.194,0.262-0.583,0.262-0.776,0
	l-4.762-6.453c-0.238-0.322-0.612-0.512-1.01-0.512h-1.48c-0.41,0-0.644,0.474-0.399,0.806l7.563,10.248
	c0.237,0.322,0.714,0.322,0.952,0l7.562-10.248C730.978,616.437,730.743,615.963,730.334,615.963"/>
<rect x="712.194" y="-71.825" class="st9" width="21" height="702.124"/>
<line class="st7" x1="-8.782" y1="40.302" x2="-21.799" y2="40.302"/>
<line class="st7" x1="-8.782" y1="45.39" x2="-21.799" y2="45.39"/>
<line class="st7" x1="-8.782" y1="50.478" x2="-21.799" y2="50.478"/>
<text transform="matrix(1 0 0 1 -26.3695 40.1705)" class="st5" style="font-family:'Montserrat-Bold'; font-size:3px;">1</text>
<text transform="matrix(1 0 0 1 -26.3695 45.1862)" class="st5" style="font-family:'Montserrat-Bold'; font-size:3px;">2</text>
<text transform="matrix(1 0 0 1 -26.3695 50.2018)" class="st5" style="font-family:'Montserrat-Bold'; font-size:3px;">3</text>
<polygon class="st6" points="-30.826,32.712 -30.826,58.712 -30.826,58.962 -30.576,58.962 -4.576,58.962 -4.326,58.962 
	-4.326,58.712 -4.326,32.712 -4.326,32.462 -4.576,32.462 -30.576,32.462 -30.826,32.462 "/>
<polygon class="st6" points="-62.317,32.712 -62.317,58.712 -62.317,58.962 -62.067,58.962 -36.067,58.962 -35.817,58.962 
	-35.817,58.712 -35.817,32.712 -35.817,32.462 -36.067,32.462 -62.067,32.462 -62.317,32.462 "/>
<polygon class="st6" points="-92.658,32.712 -92.658,58.712 -92.658,58.962 -92.408,58.962 -66.408,58.962 -66.158,58.962 
	-66.158,58.712 -66.158,32.712 -66.158,32.462 -66.408,32.462 -92.408,32.462 -92.658,32.462 "/>
<path class="st7" d="M-40.785,50.836h-13.016 M-40.785,45.703h-13.016 M-40.785,40.571h-13.016"/>
<path class="st5" d="M-55.887,46.288c0.161-0.156,0.241-0.349,0.241-0.581c0-0.15-0.037-0.288-0.11-0.414
	c-0.073-0.125-0.172-0.224-0.297-0.297c-0.126-0.073-0.264-0.11-0.415-0.11c-0.15,0-0.288,0.037-0.41,0.11
	c-0.122,0.073-0.221,0.172-0.294,0.297c-0.072,0.126-0.11,0.264-0.11,0.414c0,0.232,0.08,0.425,0.238,0.581
	c0.157,0.156,0.35,0.234,0.576,0.234C-56.241,46.522-56.048,46.444-55.887,46.288"/>
<path class="st5" d="M-56.464,41.654c0.489,0,0.885-0.396,0.885-0.885c0-0.488-0.396-0.885-0.885-0.885
	c-0.488,0-0.885,0.397-0.885,0.885C-57.349,41.258-56.952,41.654-56.464,41.654"/>
<path class="st5" d="M-55.887,51.305c0.161-0.156,0.241-0.349,0.241-0.581c0-0.15-0.037-0.288-0.11-0.414
	c-0.073-0.125-0.172-0.224-0.297-0.297c-0.126-0.073-0.264-0.11-0.415-0.11c-0.15,0-0.288,0.037-0.41,0.11
	c-0.122,0.073-0.221,0.172-0.294,0.297c-0.072,0.126-0.11,0.264-0.11,0.414c0,0.232,0.08,0.425,0.238,0.581
	c0.157,0.156,0.35,0.234,0.576,0.234C-56.241,51.539-56.048,51.461-55.887,51.305"/>
<path class="st7" d="M-71.126,50.844h-13.016 M-71.126,45.711h-13.016 M-71.126,40.579h-13.016"/>
<rect x="-87.69" y="39.81" class="st5" width="1.77" height="1.77"/>
<rect x="-87.69" y="44.826" class="st5" width="1.77" height="1.77"/>
<rect x="-87.69" y="49.844" class="st5" width="1.77" height="1.77"/>
<rect x="250.831" y="-35.078" class="st2" width="245" height="57.75"/>
<text transform="matrix(1 0 0 1 325.529 -8.8823)"><tspan x="0" y="0" class="st5" style="font-family:'Montserrat-Regular'; font-size:13px;">N</tspan><tspan x="10.478" y="0" class="st5" style="font-family:'Montserrat-Regular'; font-size:13px;">e</tspan><tspan x="18.135" y="0" class="st5" style="font-family:'Montserrat-Regular'; font-size:13px;">u</tspan><tspan x="26.753" y="0" class="st5" style="font-family:'Montserrat-Regular'; font-size:13px;">e </tspan><tspan x="38.011" y="0" class="st5" style="font-family:'Montserrat-Regular'; font-size:13px; letter-spacing:-1;">T</tspan><tspan x="44.381" y="0" class="st5" style="font-family:'Montserrat-Regular'; font-size:13px;">e</tspan><tspan x="51.882" y="0" class="st5" style="font-family:'Montserrat-Regular'; font-size:13px;">x</tspan><tspan x="59.097" y="0" class="st5" style="font-family:'Montserrat-Regular'; font-size:13px;">t</tspan><tspan x="64.128" y="0" class="st5" style="font-family:'Montserrat-Regular'; font-size:13px;">b</tspan><tspan x="72.942" y="0" class="st5" style="font-family:'Montserrat-Regular'; font-size:13px;">o</tspan><tspan x="80.742" y="0" class="st5" style="font-family:'Montserrat-Regular'; font-size:13px;">x </tspan></text>
<path class="st14" d="M373.331,12.881c3.707,0,6.713-3.005,6.713-6.712c0-3.708-3.006-6.713-6.713-6.713s-6.712,3.005-6.712,6.713
	C366.619,9.876,369.624,12.881,373.331,12.881z"/>
<rect x="250.831" y="-35.078" class="st9" width="245" height="57.75"/>
<line class="st15" x1="373.331" y1="2.634" x2="373.331" y2="9.703"/>
<line class="st15" x1="369.797" y1="6.2" x2="376.865" y2="6.2"/>
<path class="st14" d="M262.37,52.716c3.707,0,6.713-3.005,6.713-6.712c0-3.708-3.006-6.713-6.713-6.713s-6.712,3.005-6.712,6.713
	C255.658,49.711,258.663,52.716,262.37,52.716z"/>
<line class="st15" x1="262.37" y1="42.47" x2="262.37" y2="49.539"/>
<line class="st15" x1="258.836" y1="46.035" x2="265.904" y2="46.035"/>
<g>
	<path class="st16" d="M-233.522,67.852h-3.138v-1.85h8.544v1.85h-3.138v7.956h-2.269V67.852z"/>
	<path class="st16" d="M-226.902,66.002h2.269v9.806h-2.269V66.002z"/>
	<path class="st16" d="M-213.808,69.56c0,2.185-1.639,3.544-4.258,3.544h-1.975v2.703h-2.269v-9.806h4.244
		C-215.446,66.002-213.808,67.361-213.808,69.56z M-216.104,69.56c0-1.079-0.701-1.709-2.087-1.709h-1.849v3.403h1.849
		C-216.805,71.255-216.104,70.625-216.104,69.56z"/>
	<path class="st16" d="M-203.685,69.56c0,2.185-1.639,3.544-4.258,3.544h-1.975v2.703h-2.269v-9.806h4.244
		C-205.324,66.002-203.685,67.361-203.685,69.56z M-205.982,69.56c0-1.079-0.701-1.709-2.087-1.709h-1.849v3.403h1.849
		C-206.683,71.255-205.982,70.625-205.982,69.56z"/>
</g>
<path class="st16" d="M-270.15,61.531L-270.15,61.531c-1.054,2.474-1.96,4.602-2.889,6.784h5.729
	C-268.254,66.059-269.136,63.951-270.15,61.531 M-266.657,79.121L-266.657,79.121c-0.346-1.15-0.211-1.759,1.044-1.8
	c0.976-0.033,1.343-0.74,1.02-1.64c-0.507-1.414-1.072-2.81-1.681-4.183c-0.109-0.245-0.55-0.478-0.843-0.484
	c-2.129-0.041-4.261-0.046-6.39,0.005c-0.305,0.008-0.741,0.315-0.877,0.599c-0.558,1.155-1.057,2.342-1.512,3.542
	c-0.57,1.504-0.268,2.026,1.348,2.192c0.783,0.081,1.206,0.319,1.022,1.126c-0.056,0.243-0.355,0.61-0.547,0.613
	c-2.524,0.042-5.049,0.028-7.596,0.028c-0.214-0.956-0.321-1.631,0.868-1.885c0.569-0.122,1.219-0.609,1.515-1.117
	c0.755-1.293,1.377-2.67,1.972-4.049c2.401-5.559,4.761-11.135,7.172-16.689c0.173-0.398,0.634-0.67,0.96-1
	c0.319,0.343,0.766,0.632,0.937,1.037c2.56,6.048,5.079,12.114,7.622,18.17c0.326,0.776,0.705,1.534,1.106,2.275
	c0.507,0.939,1.332,1.389,2.379,1.595c0.265,0.052,0.519,0.638,0.586,1.013c0.032,0.175-0.39,0.621-0.611,0.624
	C-260.315,79.134-263.468,79.121-266.657,79.121"/>
<path class="st5" d="M-172.912,71.582c2.682-0.014,4.762-2.036,4.751-4.621c-0.01-2.367-2.203-4.406-4.733-4.399
	c-2.703,0.008-4.848,2.038-4.825,4.568C-177.696,69.594-175.536,71.595-172.912,71.582 M-167.357,71.595L-167.357,71.595
	c0.393-0.231,0.569-0.207,0.91,0.115c1.249,1.181,2.501,2.361,3.751,3.541c0.086,0.08,0.173,0.159,0.252,0.246
	c0.216,0.237,0.217,0.464-0.012,0.692c-0.249,0.248-0.509,0.488-0.767,0.727c-0.302,0.28-0.548,0.287-0.855,0
	c-1.177-1.103-2.348-2.211-3.522-3.318c-0.132-0.124-0.263-0.25-0.396-0.373c-0.368-0.34-0.394-0.487-0.153-0.896
	c-0.368-0.336-0.737-0.673-1.128-1.029c-1.472,1.07-3.153,1.471-5.011,1.06c-1.415-0.313-2.544-1.054-3.377-2.178
	c-1.65-2.23-1.286-5.335,0.823-7.11c2.222-1.87,5.521-1.904,7.68-0.117c2.217,1.835,2.765,5.106,0.696,7.583
	C-168.096,70.891-167.727,71.242-167.357,71.595"/>
<path class="st17" d="M-172.912,71.582c2.682-0.014,4.762-2.036,4.751-4.621c-0.01-2.367-2.203-4.406-4.733-4.399
	c-2.703,0.008-4.848,2.038-4.825,4.568C-177.696,69.594-175.536,71.595-172.912,71.582z M-167.357,71.595L-167.357,71.595
	c0.393-0.231,0.569-0.207,0.91,0.115c1.249,1.181,2.501,2.361,3.751,3.541c0.086,0.08,0.173,0.159,0.252,0.246
	c0.216,0.237,0.217,0.464-0.012,0.692c-0.249,0.248-0.509,0.488-0.767,0.727c-0.302,0.28-0.548,0.287-0.855,0
	c-1.177-1.103-2.348-2.211-3.522-3.318c-0.132-0.124-0.263-0.25-0.396-0.373c-0.368-0.34-0.394-0.487-0.153-0.896
	c-0.368-0.336-0.737-0.673-1.128-1.029c-1.472,1.07-3.153,1.471-5.011,1.06c-1.415-0.313-2.544-1.054-3.377-2.178
	c-1.65-2.23-1.286-5.335,0.823-7.11c2.222-1.87,5.521-1.904,7.68-0.117c2.217,1.835,2.765,5.106,0.696,7.583
	C-168.096,70.891-167.727,71.242-167.357,71.595z"/>
<path class="st5" d="M-109.197,62.002l2.966,2.98v-2.758c0-0.096-0.055-0.229-0.123-0.297l-3.807-3.826
	c-0.068-0.067-0.178-0.067-0.245,0l-3.93,3.949v2.758c0,0.096,0.055,0.119,0.122,0.051l2.844-2.857
	c0.068-0.068,0.122-0.046,0.122,0.05v7.829h0v2.168c0,0.096-0.055,0.118-0.123,0.05l-2.966-2.98v2.758
	c0,0.096,0.055,0.229,0.123,0.297l3.807,3.826c0.068,0.067,0.178,0.067,0.245,0l3.93-3.949v-2.758c0-0.096-0.055-0.119-0.122-0.051
	l-2.844,2.857c-0.068,0.068-0.122,0.046-0.122-0.05V64.22h0v-2.168C-109.32,61.956-109.265,61.934-109.197,62.002z"/>
<line class="st18" x1="-145.336" y1="75.238" x2="-117.503" y2="75.238"/>
<line class="st18" x1="-145.336" y1="66.942" x2="-117.503" y2="66.942"/>
<line class="st18" x1="-145.336" y1="58.95" x2="-117.503" y2="58.95"/>
<line class="st18" x1="-130.995" y1="94.21" x2="-130.995" y2="115.21"/>
<path class="st5" d="M-123.535,108.053L-123.535,108.053h2.695l-2.603-2.569c-0.138-0.135-0.093-0.245,0.101-0.245h7.006v-1.407
	c0-0.193-0.157-0.35-0.35-0.35h-6.656c-0.194,0-0.239-0.11-0.101-0.246l2.603-2.569h-2.345c-0.193,0-0.462,0.111-0.599,0.246
	l-3.245,3.201c-0.137,0.136-0.137,0.356,0,0.492L-123.535,108.053z"/>
<path class="st5" d="M-139.305,100.841L-139.305,100.841H-142l2.603,2.569c0.138,0.135,0.093,0.245-0.101,0.245h-7.006v1.407
	c0,0.193,0.157,0.35,0.35,0.35h6.656c0.194,0,0.239,0.11,0.101,0.246l-2.603,2.569h2.345c0.193,0,0.462-0.111,0.599-0.246
	l3.245-3.201c0.137-0.136,0.137-0.356,0-0.492L-139.305,100.841z"/>
<line class="st19" x1="185.291" y1="-24.903" x2="149.268" y2="-24.903"/>
<path class="st20" d="M176.788-21.757c2.045,0,3.703-1.658,3.703-3.703s-1.658-3.703-3.703-3.703c-2.045,0-3.703,1.658-3.703,3.703
	S174.743-21.757,176.788-21.757"/>
<g>
	<path class="st5" d="M199.987-24.702c0,3.12-1.82,4.836-4.459,4.836c-0.91,0-1.781-0.195-2.392-0.585l0.624-1.274
		c0.494,0.325,1.092,0.442,1.729,0.442c1.716,0,2.795-1.066,2.795-3.133v-0.014c-0.546,0.638-1.417,0.949-2.431,0.949
		c-1.794,0-3.133-1.092-3.133-2.795c0-1.807,1.469-2.951,3.328-2.951C198.531-29.227,199.987-27.627,199.987-24.702z
		 M198.024-26.366c0-0.858-0.676-1.534-1.885-1.534c-1.053,0-1.781,0.598-1.781,1.547s0.715,1.547,1.82,1.547
		C197.271-24.807,198.024-25.47,198.024-26.366z"/>
	<path class="st5" d="M207.853-22.791c0,1.599-1.157,2.925-3.602,2.925c-1.287,0-2.587-0.39-3.419-1.053l0.715-1.313
		c0.663,0.546,1.651,0.897,2.678,0.897c1.209,0,1.924-0.533,1.924-1.392c0-0.871-0.559-1.417-2.444-1.417h-2.197l0.468-4.953h5.343
		v1.417h-3.913l-0.195,2.106h0.871C206.773-25.573,207.853-24.403,207.853-22.791z"/>
	<path class="st5" d="M212.272-26.691c0-1.495,0.871-2.496,2.171-2.496s2.184,0.988,2.184,2.496s-0.884,2.496-2.184,2.496
		S212.272-25.196,212.272-26.691z M215.561-26.691c0-1.014-0.416-1.586-1.118-1.586c-0.676,0-1.118,0.585-1.118,1.586
		s0.442,1.586,1.118,1.586C215.145-25.105,215.561-25.678,215.561-26.691z M219.903-29.097h1.274l-6.214,9.101h-1.274
		L219.903-29.097z M218.239-22.401c0-1.495,0.871-2.496,2.171-2.496c1.3,0,2.184,1.001,2.184,2.496s-0.884,2.496-2.184,2.496
		C219.11-19.905,218.239-20.906,218.239-22.401z M221.528-22.401c0-1.001-0.429-1.586-1.118-1.586s-1.118,0.572-1.118,1.586
		c0,1.015,0.429,1.586,1.118,1.586S221.528-21.4,221.528-22.401z"/>
</g>
<rect x="163.229" y="29.24" class="st11" width="13.149" height="16.764"/>
<polygon class="st21" points="163.228,46.004 163.228,46.004 176.377,46.004 176.377,29.24 163.228,29.24 "/>
<rect x="155.557" y="28.769" class="st9" width="21.291" height="24"/>
<line class="st22" x1="160.054" y1="36.935" x2="160.054" y2="47.322"/>
<line class="st23" x1="162.686" y1="49.211" x2="172.335" y2="49.211"/>
<path class="st21" d="M173.211,49.211h0.877 M160.054,48.267v0.944h0.877 M160.054,34.102v0.944"/>
<polyline class="st21" points="156.027,37.19 156.027,52.298 170.061,52.298 "/>
<rect x="155.557" y="28.769" class="st9" width="21.291" height="24"/>
<rect x="194.802" y="29.171" class="st11" width="14.674" height="18.705"/>
<polygon class="st24" points="194.803,47.876 194.803,47.876 209.476,47.876 209.476,29.171 194.803,29.171 "/>
<rect x="194.4" y="28.769" class="st9" width="19.884" height="24"/>
<rect x="199.209" y="33.662" class="st5" width="14.674" height="18.705"/>
<polygon class="st25" points="199.209,52.367 199.209,52.367 213.882,52.367 213.882,33.662 199.209,33.662 "/>
<rect x="194.4" y="28.769" class="st9" width="19.884" height="24"/>
<rect x="95.91" y="32.718" class="st10" width="34.924" height="19.551"/>
<text transform="matrix(1 0 0 1 102.91 47.3692)"><tspan x="0" y="0" class="st11" style="font-family:'Montserrat-Regular'; font-size:13px;">e</tspan><tspan x="7.41" y="0" class="st11" style="font-family:'Montserrat-Regular'; font-size:13px;">i</tspan><tspan x="10.335" y="0" class="st11" style="font-family:'Montserrat-Regular'; font-size:13px;">n</tspan></text>
<polygon class="st6" points="60.902,32.593 60.902,52.593 60.902,52.843 61.152,52.843 130.001,52.843 130.251,52.843 
	130.251,52.593 130.251,32.593 130.251,32.343 130.001,32.343 61.152,32.343 60.902,32.343 "/>
<rect x="60.652" y="32.093" class="st9" width="70.183" height="21"/>
<line class="st26" x1="201.966" y1="122.232" x2="201.966" y2="146.492"/>
<path class="st5" d="M210.063,138.05L210.063,138.05h2.592l-2.494-2.46c-0.138-0.135-0.093-0.245,0.101-0.245h6.725v-1.339
	c0-0.193-0.157-0.35-0.35-0.35h-6.725l2.743-2.705h-2.242c-0.193,0-0.462,0.11-0.599,0.245l-3.102,3.059
	c-0.137,0.135-0.137,0.355,0,0.491L210.063,138.05z"/>
<line class="st26" x1="175.02" y1="146.325" x2="175.02" y2="122.065"/>
<path class="st5" d="M166.924,130.507L166.924,130.507h-2.592l2.494,2.46c0.138,0.135,0.093,0.245-0.101,0.245H160v1.339
	c0,0.193,0.157,0.35,0.35,0.35h6.725l-2.743,2.705h2.242c0.193,0,0.462-0.11,0.599-0.245l3.102-3.059
	c0.137-0.135,0.137-0.355,0-0.491L166.924,130.507z"/>
<line class="st26" x1="-14.722" y1="130.103" x2="9.538" y2="130.103"/>
<path class="st5" d="M0.93,122.046L0.93,122.046v-2.592l-2.46,2.494c-0.135,0.138-0.245,0.093-0.245-0.101v-6.725h-1.339
	c-0.193,0-0.35,0.157-0.35,0.35v6.725l-2.705-2.743v2.242c0,0.193,0.11,0.462,0.245,0.599l3.059,3.102
	c0.135,0.137,0.355,0.137,0.491,0L0.93,122.046z"/>
<path class="st5" d="M-6.003,137.198L-6.003,137.198v2.592l2.46-2.494c0.135-0.138,0.245-0.093,0.245,0.101v6.725h1.339
	c0.193,0,0.35-0.157,0.35-0.35v-6.725l2.705,2.743v-2.242c0-0.193-0.11-0.462-0.245-0.599l-3.059-3.102
	c-0.135-0.137-0.355-0.137-0.491,0L-6.003,137.198z"/>
<line class="st26" x1="41.725" y1="142.914" x2="41.725" y2="118.654"/>
<path class="st5" d="M33.667,127.263L33.667,127.263h-2.592l2.494,2.46c0.138,0.135,0.093,0.245-0.101,0.245h-6.725v1.339
	c0,0.193,0.157,0.35,0.35,0.35h6.725l-2.743,2.705h2.242c0.193,0,0.462-0.11,0.599-0.245l3.102-3.059
	c0.137-0.135,0.137-0.355,0-0.491L33.667,127.263z"/>
<path class="st5" d="M48.819,134.195L48.819,134.195h2.592l-2.494-2.46c-0.138-0.135-0.093-0.245,0.101-0.245h6.725v-1.339
	c0-0.193-0.157-0.35-0.35-0.35h-6.725l2.743-2.705h-2.242c-0.193,0-0.462,0.11-0.599,0.245l-3.102,3.059
	c-0.137,0.135-0.137,0.355,0,0.491L48.819,134.195z"/>
<line class="st26" x1="73.866" y1="130.387" x2="98.126" y2="130.387"/>
<path class="st5" d="M82.585,137.481L82.585,137.481v2.592l2.46-2.494c0.135-0.138,0.245-0.093,0.245,0.101v6.725h1.339
	c0.193,0,0.35-0.157,0.35-0.35v-6.725l2.705,2.743v-2.242c0-0.193-0.11-0.462-0.245-0.599l-3.059-3.102
	c-0.135-0.137-0.355-0.137-0.491,0L82.585,137.481z"/>
<line class="st26" x1="118.977" y1="141.642" x2="143.237" y2="141.642"/>
<path class="st5" d="M134.796,133.253L134.796,133.253v-2.592l-2.46,2.494c-0.135,0.138-0.245,0.093-0.245-0.101v-6.725h-1.339
	c-0.193,0-0.35,0.157-0.35,0.35v6.725l-2.705-2.743v2.242c0,0.193,0.11,0.462,0.245,0.599l3.059,3.102
	c0.135,0.137,0.355,0.137,0.491,0L134.796,133.253z"/>
<rect x="264.841" y="114.716" class="st11" width="15.769" height="20.056"/>
<line class="st27" x1="267.798" y1="134.772" x2="278.639" y2="134.772"/>
<line class="st28" x1="280.61" y1="131.764" x2="280.61" y2="116.722"/>
<line class="st27" x1="277.653" y1="114.716" x2="266.812" y2="114.716"/>
<line class="st28" x1="264.841" y1="117.724" x2="264.841" y2="132.766"/>
<path class="st21" d="M264.841,133.769v1.003h0.986 M265.827,114.716h-0.986v1.003 M280.61,115.719v-1.003h-0.985 M279.625,134.772
	h0.985v-1.003"/>
<polygon class="st11" points="253.605,144.772 253.605,144.772 269.374,144.772 269.374,124.716 253.605,124.716 "/>
<line class="st27" x1="256.562" y1="144.772" x2="267.403" y2="144.772"/>
<line class="st28" x1="269.374" y1="141.764" x2="269.374" y2="126.722"/>
<line class="st27" x1="266.418" y1="124.716" x2="255.577" y2="124.716"/>
<line class="st28" x1="253.605" y1="127.724" x2="253.605" y2="142.766"/>
<path class="st21" d="M253.605,143.769v1.003h0.986 M254.591,124.716h-0.986v1.003 M269.374,125.719v-1.003h-0.985 M268.389,144.772
	h0.985v-1.003"/>
<polygon class="st11" points="244.131,152.772 244.131,152.772 259.9,152.772 259.9,132.716 244.131,132.716 "/>
<polygon class="st21" points="244.131,152.772 244.131,152.772 259.9,152.772 259.9,132.716 244.131,132.716 "/>
<g>
	<polygon class="st11" points="317.967,139.078 317.967,139.078 333.736,139.078 333.736,119.022 317.967,119.022 	"/>
	<polygon class="st21" points="317.967,139.078 317.967,139.078 333.736,139.078 333.736,119.022 317.967,119.022 	"/>
	<line class="st29" x1="314.203" y1="127.576" x2="314.203" y2="141.08"/>
	<line class="st30" x1="317.34" y1="142.881" x2="328.843" y2="142.881"/>
	<path class="st21" d="M329.888,142.881h1.046 M314.203,141.981v0.9h1.046 M314.203,124.876v0.9"/>
</g>
<g>
	<g>
		<rect x="390.507" y="107.301" class="st11" width="15.769" height="20.056"/>
		<polygon class="st21" points="390.507,127.357 390.507,127.357 406.276,127.357 406.276,107.301 390.507,107.301 		"/>
		<polygon class="st11" points="379.271,137.357 379.271,137.357 395.04,137.357 395.04,117.301 379.271,117.301 		"/>
		<line class="st27" x1="382.228" y1="137.357" x2="393.069" y2="137.357"/>
		<line class="st28" x1="395.04" y1="134.349" x2="395.04" y2="119.307"/>
		<line class="st27" x1="392.083" y1="117.301" x2="381.242" y2="117.301"/>
		<line class="st28" x1="379.271" y1="120.31" x2="379.271" y2="135.352"/>
		<path class="st21" d="M379.271,136.354v1.003h0.986 M380.257,117.301h-0.986v1.003 M395.04,118.304v-1.003h-0.985
			 M394.055,137.357h0.985v-1.003"/>
		<polygon class="st11" points="369.797,145.357 369.797,145.357 385.566,145.357 385.566,125.301 369.797,125.301 		"/>
		<line class="st27" x1="372.754" y1="145.357" x2="383.595" y2="145.357"/>
		<line class="st28" x1="385.566" y1="142.349" x2="385.566" y2="127.307"/>
		<line class="st27" x1="382.61" y1="125.301" x2="371.769" y2="125.301"/>
		<line class="st28" x1="369.797" y1="128.31" x2="369.797" y2="143.352"/>
		<path class="st21" d="M369.797,144.354v1.003h0.986 M370.783,125.301h-0.986v1.003 M385.566,126.304v-1.003h-0.985
			 M384.581,145.357h0.985v-1.003"/>
	</g>
	<line class="st27" x1="445.921" y1="140.843" x2="456.762" y2="140.843"/>
	<line class="st28" x1="458.733" y1="137.834" x2="458.733" y2="122.792"/>
	<line class="st27" x1="455.776" y1="120.786" x2="444.935" y2="120.786"/>
	<line class="st28" x1="442.964" y1="123.795" x2="442.964" y2="138.837"/>
	<path class="st21" d="M442.964,139.84v1.003h0.986 M443.95,120.787h-0.986v1.003 M458.733,121.79v-1.003h-0.985 M457.748,140.843
		h0.985v-1.003"/>
	<polyline class="st21" points="439.2,126.641 439.2,144.646 455.931,144.646 	"/>
</g>
<g>
	<defs>
		<rect id="SVGID_1_" x="-316.075" y="234.679" width="241.682" height="1"/>
	</defs>
	<clipPath id="SVGID_00000071525455585361931560000010302592956829161376_">
		<use xlink:href="#SVGID_1_"  style="overflow:visible;"/>
	</clipPath>
	
		<line style="clip-path:url(#SVGID_00000071525455585361931560000010302592956829161376_);fill:none;stroke:#B2B2B2;stroke-linecap:round;stroke-linejoin:round;stroke-dasharray:0,3.009;" x1="-312.566" y1="235.179" x2="-76.396" y2="235.179"/>
	
		<path style="clip-path:url(#SVGID_00000071525455585361931560000010302592956829161376_);fill:none;stroke:#B2B2B2;stroke-linecap:round;stroke-linejoin:round;" d="
		M-74.893,235.179L-74.893,235.179 M-315.575,235.179L-315.575,235.179"/>
</g>
<circle class="st33" cx="-269.177" cy="13.967" r="12.75"/>
<polygon class="st3" points="-125.784,-1.056 -138.784,-1.056 -132.416,9.419 "/>
<polygon class="st5" points="-117.76,127.486 -128.235,133.854 -117.76,140.486 "/>
<polygon class="st5" points="-146.807,140.486 -136.332,134.118 -146.807,127.486 "/>
<polygon class="st5" points="-64.254,127.486 -74.729,133.854 -64.254,140.486 "/>
<polygon class="st5" points="-99.431,140.486 -88.956,134.118 -99.431,127.486 "/>
<rect x="60.819" y="-1.045" class="st10" width="34.924" height="19.551"/>
<polygon class="st6" points="61.069,-1.17 61.069,18.83 61.069,19.08 61.319,19.08 130.168,19.08 130.418,19.08 130.418,18.83 
	130.418,-1.17 130.418,-1.42 130.168,-1.42 61.319,-1.42 61.069,-1.42 "/>
<rect x="60.819" y="-1.67" class="st9" width="69.849" height="21"/>
<rect x="96.182" y="64.983" class="st10" width="34.924" height="19.551"/>
<polygon class="st6" points="61.174,64.858 61.174,84.858 61.174,85.108 61.424,85.108 130.273,85.108 130.523,85.108 
	130.523,84.858 130.523,64.858 130.523,64.608 130.273,64.608 61.424,64.608 61.174,64.608 "/>
<rect x="60.924" y="64.358" class="st9" width="70.183" height="21"/>
<line class="st19" x1="184.214" y1="-5.116" x2="148.191" y2="-5.116"/>
<path class="st20" d="M175.711-1.969c2.045,0,3.703-1.658,3.703-3.703s-1.658-3.703-3.703-3.703c-2.045,0-3.703,1.658-3.703,3.703
	S173.666-1.969,175.711-1.969"/>
<line class="st19" x1="492.538" y1="25.664" x2="456.515" y2="25.664"/>
<path class="st20" d="M484.035,28.81c2.045,0,3.703-1.658,3.703-3.703s-1.658-3.703-3.703-3.703c-2.045,0-3.703,1.658-3.703,3.703
	S481.99,28.81,484.035,28.81"/>
</svg>
