<?xml version="1.0" encoding="utf-8"?>
<!-- Generator: Adobe Illustrator 26.0.3, SVG Export Plug-In . SVG Version: 6.00 Build 0)  -->
<svg version="1.1" id="Ebene_1" xmlns="http://www.w3.org/2000/svg" xmlns:xlink="http://www.w3.org/1999/xlink" x="0px" y="0px"
	 width="39.105px" height="18px" viewBox="0 0 39.105 18" style="enable-background:new 0 0 39.105 18;" xml:space="preserve">
<style type="text/css">
	.st0{fill:none;stroke:#C5C5C5;stroke-width:3;stroke-linecap:round;stroke-linejoin:round;}
	.st1{fill:#FFAEFF;stroke:#4F4D4D;stroke-width:0.5;}
	.st2{fill:#F8F8F8;}
	.st3{fill:#0E689A;}
	.st4{fill:none;stroke:#B2B1B1;stroke-width:0.65;stroke-miterlimit:10;}
	.st5{fill:#B2B1B1;}
	.st6{fill:none;stroke:#B2B2B2;stroke-width:0.5;stroke-miterlimit:10;}
	.st7{fill:none;stroke:#B2B1B1;stroke-width:0.3;stroke-miterlimit:10;}
	.st8{fill:none;stroke:#FFFFFF;stroke-width:0.021;}
	.st9{fill:none;}
	.st10{fill:#0E6899;}
	.st11{fill:#FFFFFF;}
	.st12{fill:none;stroke:#C5C5C5;stroke-width:0.5;stroke-linecap:round;stroke-linejoin:round;}
	.st13{fill:#C5C5C5;}
	.st14{fill:none;stroke:#B2B1B1;stroke-width:0.5;}
	.st15{fill:none;stroke:#B2B1B1;stroke-width:1.2;}
	.st16{fill:#B2B2B2;}
	.st17{fill:none;stroke:#FFFFFF;stroke-width:0.001;}
	.st18{fill:none;stroke:#B2B1B1;stroke-width:1.712;}
	.st19{fill:none;stroke:#B2B1B1;stroke-width:2;}
	.st20{fill:#AD5E7A;}
	.st21{fill:none;stroke:#B2B1B1;stroke-width:0.941;}
	.st22{fill:none;stroke:#B2B1B1;stroke-width:0.941;stroke-dasharray:1.889,1.889;}
	.st23{fill:none;stroke:#B2B1B1;stroke-width:0.941;stroke-dasharray:1.754,1.754;}
	.st24{fill:none;stroke:#B2B1B1;stroke-width:0.804;}
	.st25{fill:none;stroke:#FFFFFF;stroke-width:0.804;}
	.st26{fill:none;stroke:#B2B1B1;stroke-width:2.5;}
	.st27{fill:none;stroke:#B2B1B1;stroke-width:0.941;stroke-dasharray:1.971,1.971;}
	.st28{fill:none;stroke:#B2B1B1;stroke-width:0.941;stroke-dasharray:2.006,2.006;}
	.st29{fill:none;stroke:#B2B1B1;stroke-width:0.941;stroke-dasharray:1.801,1.801;}
	.st30{fill:none;stroke:#B2B1B1;stroke-width:0.941;stroke-dasharray:2.091,2.091;}
	
		.st31{clip-path:url(#SVGID_00000057144878961614564260000011019061326977679023_);fill:none;stroke:#B2B2B2;stroke-linecap:round;stroke-linejoin:round;stroke-dasharray:0,3.009;}
	
		.st32{clip-path:url(#SVGID_00000057144878961614564260000011019061326977679023_);fill:none;stroke:#B2B2B2;stroke-linecap:round;stroke-linejoin:round;}
	.st33{fill:none;stroke:#4F4D4D;stroke-width:0.5;}
</style>
<polyline class="st0" points="1868.053,882.572 1861.803,873.572 1855.053,882.572 "/>
<circle class="st1" cx="-123.84" cy="-80.176" r="12.75"/>
<rect x="-91.38" y="-91.191" class="st2" width="119.902" height="21"/>
<polygon class="st3" points="19.449,-85.928 6.449,-85.928 12.817,-75.453 "/>
<g>
	<g>
		<line class="st4" x1="132.462" y1="-73.671" x2="142.745" y2="-73.671"/>
		<g>
			<path class="st5" d="M133.749-78.896v-5.175h1.3v5.122c0,2.016,0.923,2.926,2.561,2.926c1.638,0,2.574-0.91,2.574-2.926v-5.122
				h1.261v5.175c0,2.639-1.443,4.029-3.848,4.029C135.205-74.867,133.749-76.257,133.749-78.896z"/>
		</g>
	</g>
	<polygon class="st6" points="124.353,-91.871 124.353,-65.871 124.353,-65.621 124.603,-65.621 150.603,-65.621 150.853,-65.621 
		150.853,-65.871 150.853,-91.871 150.853,-92.121 150.603,-92.121 124.603,-92.121 124.353,-92.121 	"/>
</g>
<g>
	<g>
		<path class="st5" d="M102.999-83.797h1.3l-1.82,9.101h-1.3L102.999-83.797z"/>
	</g>
	<polygon class="st6" points="89.489,-92.247 89.489,-66.247 89.489,-65.997 89.739,-65.997 115.739,-65.997 115.989,-65.997 
		115.989,-66.247 115.989,-92.247 115.989,-92.497 115.739,-92.497 89.739,-92.497 89.489,-92.497 	"/>
</g>
<g>
	<g>
		<path class="st5" d="M69.851-77.128c0,1.573-1.248,2.483-3.64,2.483h-4.706v-9.101h4.446c2.275,0,3.445,0.949,3.445,2.366
			c0,0.91-0.468,1.612-1.209,2.002C69.201-79.052,69.851-78.272,69.851-77.128z M63.598-82.16v2.146h2.093
			c1.027,0,1.586-0.364,1.586-1.079s-0.559-1.066-1.586-1.066H63.598z M67.732-77.349c0-0.767-0.585-1.131-1.677-1.131h-2.457v2.249
			h2.457C67.147-76.231,67.732-76.569,67.732-77.349z"/>
	</g>
	<polygon class="st6" points="52.428,-92.195 52.428,-66.195 52.428,-65.945 52.678,-65.945 78.678,-65.945 78.928,-65.945 
		78.928,-66.195 78.928,-92.195 78.928,-92.445 78.678,-92.445 52.678,-92.445 52.428,-92.445 	"/>
</g>
<path class="st7" d="M106.616-50.242"/>
<path class="st7" d="M104.108-48.988"/>
<path class="st7" d="M104.108-47.734"/>
<path class="st7" d="M104.108-46.479"/>
<path class="st7" d="M106.616-45.226"/>
<path class="st7" d="M106.616-43.972"/>
<path class="st7" d="M104.108-42.718"/>
<path class="st7" d="M104.108-40.21"/>
<path class="st7" d="M106.616-37.702"/>
<g>
	<path class="st7" d="M87.152-45.226"/>
	<path class="st7" d="M87.152-50.242"/>
	<path class="st7" d="M87.152-37.702"/>
	<path class="st7" d="M87.152-43.972"/>
	<g>
		<path class="st7" d="M89.214-42.718"/>
		<path class="st7" d="M89.214-46.479"/>
		<path class="st7" d="M89.214-47.734"/>
		<path class="st7" d="M89.214-48.988"/>
		<line class="st7" x1="86.776" y1="-38.497" x2="106.24" y2="-38.497"/>
		<line class="st7" x1="86.776" y1="-39.772" x2="101.67" y2="-39.772"/>
		<line class="st7" x1="86.776" y1="-41.048" x2="101.67" y2="-41.048"/>
		<line class="st7" x1="86.776" y1="-42.325" x2="101.67" y2="-42.325"/>
		<line class="st7" x1="86.776" y1="-43.601" x2="106.24" y2="-43.601"/>
		<line class="st7" x1="86.776" y1="-44.876" x2="106.24" y2="-44.876"/>
		<line class="st7" x1="86.849" y1="-46.152" x2="101.743" y2="-46.152"/>
		<line class="st7" x1="86.776" y1="-47.428" x2="106.24" y2="-47.428"/>
		<line class="st7" x1="86.776" y1="-48.704" x2="101.67" y2="-48.704"/>
		<line class="st7" x1="86.776" y1="-49.98" x2="101.67" y2="-49.98"/>
		<line class="st7" x1="86.776" y1="-51.256" x2="106.24" y2="-51.256"/>
	</g>
	<polygon class="st6" points="83.449,-57.551 83.449,-31.558 83.449,-31.308 83.699,-31.308 109.692,-31.308 109.942,-31.308 
		109.942,-31.558 109.942,-57.551 109.942,-57.801 109.692,-57.801 83.699,-57.801 83.449,-57.801 	"/>
</g>
<g>
	<g>
		<line class="st7" x1="137.496" y1="-50.939" x2="118.032" y2="-50.939"/>
		<line class="st7" x1="134.988" y1="-49.662" x2="120.094" y2="-49.662"/>
		<line class="st7" x1="134.988" y1="-48.386" x2="120.094" y2="-48.386"/>
		<line class="st7" x1="134.988" y1="-47.108" x2="120.094" y2="-47.108"/>
		<line class="st7" x1="137.496" y1="-45.831" x2="118.032" y2="-45.831"/>
		<line class="st7" x1="137.496" y1="-44.554" x2="118.032" y2="-44.554"/>
		<line class="st7" x1="134.988" y1="-43.277" x2="120.094" y2="-43.277"/>
		<line class="st7" x1="137.496" y1="-42" x2="118.032" y2="-42"/>
		<line class="st7" x1="134.988" y1="-40.723" x2="120.094" y2="-40.723"/>
		<line class="st7" x1="134.988" y1="-39.446" x2="120.094" y2="-39.446"/>
		<line class="st7" x1="137.496" y1="-38.169" x2="118.032" y2="-38.169"/>
	</g>
	<polygon class="st6" points="114.518,-57.551 114.518,-31.558 114.518,-31.308 114.768,-31.308 140.761,-31.308 141.011,-31.308 
		141.011,-31.558 141.011,-57.551 141.011,-57.801 140.761,-57.801 114.768,-57.801 114.518,-57.801 	"/>
</g>
<polygon class="st6" points="145.586,-57.551 145.586,-31.558 145.586,-31.308 145.836,-31.308 171.829,-31.308 172.079,-31.308 
	172.079,-31.558 172.079,-57.551 172.079,-57.801 171.829,-57.801 145.836,-57.801 145.586,-57.801 "/>
<path class="st7" d="M148.913-38.867"/>
<path class="st7" d="M148.913-43.883"/>
<path class="st7" d="M148.913-45.137"/>
<path class="st7" d="M148.913-51.406"/>
<path class="st7" d="M166.315-46.391"/>
<path class="st7" d="M168.378-43.883"/>
<path class="st7" d="M166.315-42.629"/>
<path class="st7" d="M168.378-38.867"/>
<path class="st7" d="M168.378-51.406"/>
<path class="st7" d="M168.378-45.137"/>
<path class="st7" d="M166.315-41.374"/>
<path class="st7" d="M166.315-40.121"/>
<g>
	<path class="st7" d="M151.233-40.443"/>
	<path class="st7" d="M151.233-41.697"/>
	<path class="st7" d="M151.233-42.951"/>
	<path class="st7" d="M151.233-46.713"/>
	<path class="st7" d="M151.233-49.221"/>
	<line class="st7" x1="168.565" y1="-50.934" x2="149.101" y2="-50.934"/>
	<line class="st7" x1="168.565" y1="-49.658" x2="153.671" y2="-49.658"/>
	<line class="st7" x1="168.565" y1="-48.382" x2="153.671" y2="-48.382"/>
	<line class="st7" x1="168.565" y1="-47.106" x2="153.671" y2="-47.106"/>
	<line class="st7" x1="168.565" y1="-45.83" x2="149.101" y2="-45.83"/>
	<line class="st7" x1="168.565" y1="-44.554" x2="149.101" y2="-44.554"/>
	<line class="st7" x1="168.492" y1="-43.278" x2="153.598" y2="-43.278"/>
	<line class="st7" x1="168.565" y1="-42.003" x2="149.101" y2="-42.003"/>
	<line class="st7" x1="168.565" y1="-40.727" x2="153.671" y2="-40.727"/>
	<line class="st7" x1="168.565" y1="-39.45" x2="153.671" y2="-39.45"/>
	<line class="st7" x1="168.565" y1="-38.175" x2="149.101" y2="-38.175"/>
</g>
<polygon class="st6" points="52.678,-57.544 52.678,-31.551 52.678,-31.301 52.928,-31.301 78.921,-31.301 79.171,-31.301 
	79.171,-31.551 79.171,-57.544 79.171,-57.794 78.921,-57.794 52.928,-57.794 52.678,-57.794 "/>
<path class="st7" d="M75.845-50.242"/>
<path class="st7" d="M75.845-45.226"/>
<path class="st7" d="M75.845-43.972"/>
<path class="st7" d="M75.845-37.702"/>
<path class="st7" d="M58.443-42.718"/>
<path class="st7" d="M56.38-45.226"/>
<path class="st7" d="M58.443-46.479"/>
<path class="st7" d="M56.38-50.242"/>
<path class="st7" d="M56.38-37.702"/>
<path class="st7" d="M56.38-43.972"/>
<path class="st7" d="M58.443-47.734"/>
<path class="st7" d="M58.443-48.988"/>
<g>
	<path class="st7" d="M73.337-48.988"/>
	<path class="st7" d="M73.337-47.734"/>
	<path class="st7" d="M73.337-46.479"/>
	<path class="st7" d="M73.337-42.718"/>
	<path class="st7" d="M73.337-40.21"/>
	<line class="st7" x1="56.005" y1="-38.497" x2="75.469" y2="-38.497"/>
	<line class="st7" x1="56.005" y1="-39.772" x2="75.469" y2="-39.772"/>
	<line class="st7" x1="56.005" y1="-41.048" x2="75.469" y2="-41.048"/>
	<line class="st7" x1="56.005" y1="-42.325" x2="75.469" y2="-42.325"/>
	<line class="st7" x1="56.005" y1="-43.601" x2="75.469" y2="-43.601"/>
	<line class="st7" x1="56.005" y1="-44.876" x2="75.469" y2="-44.876"/>
	<line class="st7" x1="56.078" y1="-46.152" x2="75.542" y2="-46.152"/>
	<line class="st7" x1="56.005" y1="-47.428" x2="75.469" y2="-47.428"/>
	<line class="st7" x1="56.005" y1="-48.704" x2="75.469" y2="-48.704"/>
	<line class="st7" x1="56.005" y1="-49.98" x2="75.469" y2="-49.98"/>
	<line class="st7" x1="56.005" y1="-51.256" x2="75.469" y2="-51.256"/>
</g>
<path class="st5" d="M-116.879,57.604l-1.915,13.335c-0.058,0.402-0.431,0.682-0.834,0.624c-0.402-0.058-0.682-0.431-0.624-0.833
	l1.915-13.336c0.058-0.402,0.431-0.681,0.834-0.623C-117.101,56.829-116.821,57.201-116.879,57.604 M-123.696,71.679
	c-0.407,0.003-0.74-0.324-0.742-0.73l-0.106-13.472c-0.003-0.407,0.324-0.739,0.73-0.742c0.408-0.003,0.74,0.324,0.743,0.731
	l0.105,13.471C-122.963,71.344-123.29,71.676-123.696,71.679 M-127.767,71.626c-0.401,0.064-0.779-0.209-0.842-0.61l-2.124-13.304
	c-0.064-0.402,0.209-0.779,0.612-0.843c0.401-0.064,0.778,0.209,0.842,0.611l2.123,13.303
	C-127.092,71.185-127.365,71.562-127.767,71.626 M-113.984,55.218c-0.141-0.169-0.353-0.266-0.573-0.264l-18.538,0.144
	c-0.22,0.002-0.429,0.101-0.568,0.272c-0.14,0.17-0.196,0.393-0.155,0.609l3.092,16.141c0.068,0.351,0.376,0.605,0.734,0.602
	l12.497-0.098c0.356-0.002,0.66-0.258,0.724-0.608l2.949-16.188C-113.782,55.612-113.843,55.387-113.984,55.218"/>
<path class="st8" d="M-116.879,57.604l-1.915,13.335c-0.058,0.402-0.431,0.682-0.834,0.624c-0.402-0.058-0.682-0.431-0.624-0.833
	l1.915-13.336c0.058-0.402,0.431-0.681,0.834-0.623C-117.101,56.829-116.821,57.201-116.879,57.604z M-123.696,71.679
	c-0.407,0.003-0.74-0.324-0.742-0.73l-0.106-13.472c-0.003-0.407,0.324-0.739,0.73-0.742c0.408-0.003,0.74,0.324,0.743,0.731
	l0.105,13.471C-122.963,71.344-123.29,71.676-123.696,71.679z M-127.767,71.626c-0.401,0.064-0.779-0.209-0.842-0.61l-2.124-13.304
	c-0.064-0.402,0.209-0.779,0.612-0.843c0.401-0.064,0.778,0.209,0.842,0.611l2.123,13.303
	C-127.092,71.185-127.365,71.562-127.767,71.626z M-113.984,55.218c-0.141-0.169-0.353-0.266-0.573-0.264l-18.538,0.144
	c-0.22,0.002-0.429,0.101-0.568,0.272c-0.14,0.17-0.196,0.393-0.155,0.609l3.092,16.141c0.068,0.351,0.376,0.605,0.734,0.602
	l12.497-0.098c0.356-0.002,0.66-0.258,0.724-0.608l2.949-16.188C-113.782,55.612-113.843,55.387-113.984,55.218z"/>
<path class="st5" d="M-126.671,50.611L-126.671,50.611l-0.004-0.421l5.49-0.043l0.004,0.421L-126.671,50.611z M-112.934,52.021
	L-112.934,52.021l-2.025,0.016l-0.009-1.171c-0.001-0.091-0.038-0.18-0.103-0.244c-0.065-0.064-0.155-0.1-0.246-0.1l-4.467,0.035
	l-0.009-1.12c-0.002-0.184-0.077-0.363-0.209-0.492c-0.131-0.13-0.311-0.203-0.495-0.201l-6.887,0.054
	c-0.183,0.001-0.363,0.077-0.492,0.208c-0.129,0.131-0.202,0.312-0.2,0.496l0.009,1.12l-4.164,0.032
	c-0.091,0.001-0.18,0.039-0.243,0.104c-0.065,0.065-0.101,0.154-0.101,0.246l0.009,1.171l-2.197,0.017l0.017,2.225l21.829-0.17
	L-112.934,52.021z"/>
<path class="st8" d="M-126.671,50.611L-126.671,50.611l-0.004-0.421l5.49-0.043l0.004,0.421L-126.671,50.611z M-112.934,52.021
	L-112.934,52.021l-2.025,0.016l-0.009-1.171c-0.001-0.091-0.038-0.18-0.103-0.244c-0.065-0.064-0.155-0.1-0.246-0.1l-4.467,0.035
	l-0.009-1.12c-0.002-0.184-0.077-0.363-0.209-0.492c-0.131-0.13-0.311-0.203-0.495-0.201l-6.887,0.054
	c-0.183,0.001-0.363,0.077-0.492,0.208c-0.129,0.131-0.202,0.312-0.2,0.496l0.009,1.12l-4.164,0.032
	c-0.091,0.001-0.18,0.039-0.243,0.104c-0.065,0.065-0.101,0.154-0.101,0.246l0.009,1.171l-2.197,0.017l0.017,2.225l21.829-0.17
	L-112.934,52.021z"/>
<rect x="-134.774" y="48.733" class="st9" width="21.868" height="24"/>
<rect x="206.155" y="-92.035" class="st10" width="34.924" height="19.551"/>
<g>
	<path class="st11" d="M219.132-81.622v4.238h-0.884v-1.066c-0.416,0.702-1.222,1.132-2.354,1.132c-1.547,0-2.496-0.807-2.496-1.989
		c0-1.054,0.676-1.938,2.639-1.938h2.171v-0.416c0-1.17-0.663-1.807-1.938-1.807c-0.884,0-1.716,0.312-2.275,0.806l-0.416-0.688
		c0.689-0.585,1.703-0.924,2.782-0.924C218.131-84.274,219.132-83.389,219.132-81.622z M218.21-79.437v-1.118h-2.146
		c-1.326,0-1.755,0.52-1.755,1.222c0,0.793,0.637,1.287,1.729,1.287C217.078-78.046,217.845-78.541,218.21-79.437z"/>
	<path class="st11" d="M227.231-84.221v6.838h-0.884v-1.248c-0.481,0.832-1.365,1.313-2.458,1.313c-1.742,0-2.886-0.976-2.886-2.938
		v-3.965h0.923v3.874c0,1.456,0.754,2.197,2.054,2.197c1.43,0,2.327-0.924,2.327-2.483v-3.588H227.231z"/>
	<path class="st11" d="M228.531-78.164l0.416-0.728c0.546,0.429,1.469,0.767,2.431,0.767c1.3,0,1.833-0.441,1.833-1.118
		c0-1.78-4.433-0.377-4.433-3.081c0-1.118,0.962-1.95,2.704-1.95c0.884,0,1.846,0.247,2.418,0.638l-0.403,0.74
		c-0.598-0.416-1.313-0.585-2.015-0.585c-1.235,0-1.781,0.481-1.781,1.132c0,1.846,4.434,0.455,4.434,3.081
		c0,1.183-1.04,1.95-2.821,1.95C230.182-77.318,229.09-77.682,228.531-78.164z"/>
</g>
<polygon class="st6" points="206.405,-92.16 206.405,-72.16 206.405,-71.91 206.655,-71.91 275.504,-71.91 275.754,-71.91 
	275.754,-72.16 275.754,-92.16 275.754,-92.41 275.504,-92.41 206.655,-92.41 206.405,-92.41 "/>
<rect x="206.155" y="-92.66" class="st9" width="69.849" height="21"/>
<rect x="-198.242" y="114.67" class="st11" width="1014" height="21"/>
<path class="st3" d="M428.919,114.67c-2.209,0-4,1.791-4,4v12.382c0,2.209,1.791,4,4,4h77.131c2.209,0,4-1.791,4-4V118.67
	c0-2.209-1.791-4-4-4H428.919z"/>
<rect x="-197.992" y="114.92" class="st12" width="1013.5" height="20.5"/>
<path class="st13" d="M799.614,117.53v1.481c0,0.397,0.187,0.771,0.505,1.009l6.367,4.762c0.258,0.194,0.258,0.583,0,0.776
	l-6.367,4.762c-0.318,0.238-0.505,0.612-0.505,1.01v1.48c0,0.41,0.467,0.644,0.795,0.399l10.111-7.563
	c0.318-0.237,0.318-0.714,0-0.952l-10.11-7.562C800.081,116.886,799.614,117.121,799.614,117.53"/>
<path class="st13" d="M-182.389,132.81v-1.481c0-0.397-0.187-0.771-0.505-1.009l-6.367-4.762c-0.258-0.194-0.258-0.583,0-0.776
	l6.367-4.762c0.318-0.238,0.505-0.612,0.505-1.01v-1.48c0-0.41-0.467-0.644-0.795-0.399l-10.111,7.563
	c-0.318,0.237-0.318,0.714,0,0.952l10.11,7.562C-182.856,133.454-182.389,133.219-182.389,132.81"/>
<rect x="-198.242" y="114.67" class="st9" width="1014" height="21"/>
<rect x="857.53" y="-129.875" class="st11" width="21" height="702.123"/>
<path class="st3" d="M857.53,284.086c0,2.209,1.791,4,4,4h12.382c2.209,0,4-1.791,4-4V205.8c0-2.209-1.791-4-4-4H861.53
	c-2.209,0-4,1.791-4,4V284.086z"/>
<rect x="857.78" y="-129.626" class="st12" width="20.5" height="701.624"/>
<path class="st13" d="M860.39-116.34h1.481c0.397,0,0.771-0.19,1.009-0.512l4.762-6.453c0.194-0.262,0.583-0.262,0.776,0
	l4.762,6.453c0.238,0.322,0.612,0.512,1.01,0.512h1.48c0.41,0,0.644-0.474,0.399-0.806l-7.563-10.248
	c-0.237-0.322-0.714-0.322-0.952,0l-7.562,10.248C859.746-116.814,859.981-116.34,860.39-116.34"/>
<path class="st13" d="M875.67,557.912h-1.481c-0.397,0-0.771,0.19-1.009,0.512l-4.762,6.453c-0.194,0.262-0.583,0.262-0.776,0
	l-4.762-6.453c-0.238-0.322-0.612-0.512-1.01-0.512h-1.48c-0.41,0-0.644,0.474-0.399,0.806l7.563,10.248
	c0.237,0.322,0.714,0.322,0.952,0l7.562-10.248C876.314,558.386,876.079,557.912,875.67,557.912"/>
<rect x="857.53" y="-129.876" class="st9" width="21" height="702.124"/>
<g>
	<g>
		<line class="st7" x1="136.556" y1="-6.896" x2="123.539" y2="-6.896"/>
		<line class="st7" x1="136.556" y1="-17.072" x2="123.539" y2="-17.072"/>
		<line class="st7" x1="136.556" y1="-11.984" x2="123.539" y2="-11.984"/>
		<g>
			<path class="st5" d="M119.897-18.542v2.104h-0.487v-1.714h-0.421v-0.391H119.897z"/>
		</g>
		<g>
			<path class="st5" d="M120.658-11.575v0.396h-1.59v-0.315l0.812-0.767c0.187-0.178,0.22-0.286,0.22-0.388
				c0-0.165-0.114-0.262-0.337-0.262c-0.18,0-0.333,0.069-0.436,0.21l-0.355-0.228c0.163-0.238,0.457-0.392,0.836-0.392
				c0.469,0,0.781,0.241,0.781,0.623c0,0.204-0.057,0.391-0.352,0.664l-0.484,0.457H120.658z"/>
		</g>
		<g>
			<path class="st5" d="M120.64-6.816c0,0.354-0.273,0.68-0.872,0.68c-0.295,0-0.599-0.081-0.803-0.226l0.189-0.373
				c0.159,0.121,0.382,0.189,0.601,0.189c0.244,0,0.394-0.099,0.394-0.271c0-0.159-0.117-0.258-0.394-0.258h-0.223v-0.322
				l0.433-0.49h-0.896v-0.391h1.473v0.316l-0.475,0.541C120.447-7.36,120.64-7.125,120.64-6.816z"/>
		</g>
	</g>
	<polygon class="st6" points="114.511,-25.339 114.511,0.661 114.511,0.911 114.761,0.911 140.761,0.911 141.011,0.911 
		141.011,0.661 141.011,-25.339 141.011,-25.589 140.761,-25.589 114.761,-25.589 114.511,-25.589 	"/>
</g>
<polygon class="st6" points="52.678,-25.339 52.678,0.661 52.678,0.911 52.928,0.911 78.928,0.911 79.178,0.911 79.178,0.661 
	79.178,-25.339 79.178,-25.589 78.928,-25.589 52.928,-25.589 52.678,-25.589 "/>
<g>
	<polygon class="st6" points="83.02,-25.339 83.02,0.661 83.02,0.911 83.27,0.911 109.27,0.911 109.52,0.911 109.52,0.661 
		109.52,-25.339 109.52,-25.589 109.27,-25.589 83.27,-25.589 83.02,-25.589 	"/>
	<path class="st7" d="M104.552-7.214H91.536 M104.552-12.347H91.536 M104.552-17.479H91.536"/>
	<path class="st5" d="M89.449-11.762c0.161-0.156,0.241-0.349,0.241-0.581c0-0.15-0.037-0.288-0.11-0.414
		c-0.073-0.125-0.172-0.224-0.297-0.297c-0.126-0.073-0.264-0.11-0.415-0.11c-0.15,0-0.288,0.037-0.41,0.11
		c-0.122,0.073-0.221,0.172-0.294,0.297c-0.072,0.126-0.11,0.264-0.11,0.414c0,0.232,0.08,0.425,0.238,0.581
		c0.157,0.156,0.35,0.234,0.576,0.234C89.095-11.528,89.288-11.606,89.449-11.762"/>
	<path class="st5" d="M88.873-16.397c0.489,0,0.885-0.396,0.885-0.885c0-0.488-0.396-0.885-0.885-0.885
		c-0.488,0-0.885,0.397-0.885,0.885C87.988-16.793,88.385-16.397,88.873-16.397"/>
	<path class="st5" d="M89.449-6.745c0.161-0.156,0.241-0.349,0.241-0.581c0-0.15-0.037-0.288-0.11-0.414
		c-0.073-0.125-0.172-0.224-0.297-0.297c-0.126-0.073-0.264-0.11-0.415-0.11c-0.15,0-0.288,0.037-0.41,0.11
		c-0.122,0.073-0.221,0.172-0.294,0.297c-0.072,0.126-0.11,0.264-0.11,0.414c0,0.232,0.08,0.425,0.238,0.581
		c0.157,0.156,0.35,0.234,0.576,0.234C89.095-6.511,89.288-6.589,89.449-6.745"/>
</g>
<path class="st7" d="M74.21-7.207H61.194 M74.21-12.34H61.194 M74.21-17.472H61.194"/>
<rect x="57.646" y="-18.241" class="st5" width="1.77" height="1.77"/>
<rect x="57.646" y="-13.225" class="st5" width="1.77" height="1.77"/>
<rect x="57.646" y="-8.207" class="st5" width="1.77" height="1.77"/>
<rect x="396.168" y="-93.128" class="st2" width="245" height="57.75"/>
<text transform="matrix(1 0 0 1 470.8654 -66.9331)"><tspan x="0" y="0" class="st5" style="font-family:'Montserrat-Regular'; font-size:13px;">N</tspan><tspan x="10.478" y="0" class="st5" style="font-family:'Montserrat-Regular'; font-size:13px;">e</tspan><tspan x="18.135" y="0" class="st5" style="font-family:'Montserrat-Regular'; font-size:13px;">u</tspan><tspan x="26.753" y="0" class="st5" style="font-family:'Montserrat-Regular'; font-size:13px;">e </tspan><tspan x="38.011" y="0" class="st5" style="font-family:'Montserrat-Regular'; font-size:13px; letter-spacing:-1;">T</tspan><tspan x="44.381" y="0" class="st5" style="font-family:'Montserrat-Regular'; font-size:13px;">e</tspan><tspan x="51.882" y="0" class="st5" style="font-family:'Montserrat-Regular'; font-size:13px;">x</tspan><tspan x="59.097" y="0" class="st5" style="font-family:'Montserrat-Regular'; font-size:13px;">t</tspan><tspan x="64.128" y="0" class="st5" style="font-family:'Montserrat-Regular'; font-size:13px;">b</tspan><tspan x="72.942" y="0" class="st5" style="font-family:'Montserrat-Regular'; font-size:13px;">o</tspan><tspan x="80.742" y="0" class="st5" style="font-family:'Montserrat-Regular'; font-size:13px;">x </tspan></text>
<path class="st14" d="M518.668-45.17c3.707,0,6.713-3.005,6.713-6.712c0-3.708-3.006-6.713-6.713-6.713s-6.712,3.005-6.712,6.713
	C511.956-48.175,514.961-45.17,518.668-45.17z"/>
<rect x="396.168" y="-93.128" class="st9" width="245" height="57.75"/>
<line class="st15" x1="518.668" y1="-55.416" x2="518.668" y2="-48.347"/>
<line class="st15" x1="515.133" y1="-51.851" x2="522.201" y2="-51.851"/>
<path class="st14" d="M407.706-5.335c3.707,0,6.713-3.005,6.713-6.712c0-3.708-3.006-6.713-6.713-6.713s-6.712,3.005-6.712,6.713
	C400.994-8.34,403.999-5.335,407.706-5.335z"/>
<line class="st15" x1="407.706" y1="-15.581" x2="407.706" y2="-8.512"/>
<line class="st15" x1="404.172" y1="-12.016" x2="411.24" y2="-12.016"/>
<g>
	<path class="st16" d="M-88.186,9.801h-3.138v-1.85h8.544v1.85h-3.138v7.956h-2.269V9.801z"/>
	<path class="st16" d="M-81.565,7.951h2.269v9.806h-2.269V7.951z"/>
	<path class="st16" d="M-68.471,11.51c0,2.185-1.639,3.544-4.258,3.544h-1.975v2.703h-2.269V7.951h4.244
		C-70.11,7.951-68.471,9.311-68.471,11.51z M-70.768,11.51c0-1.079-0.701-1.709-2.087-1.709h-1.849v3.403h1.849
		C-71.469,13.204-70.768,12.574-70.768,11.51z"/>
	<path class="st16" d="M-58.349,11.51c0,2.185-1.639,3.544-4.258,3.544h-1.975v2.703h-2.269V7.951h4.244
		C-59.988,7.951-58.349,9.311-58.349,11.51z M-60.646,11.51c0-1.079-0.701-1.709-2.087-1.709h-1.849v3.403h1.849
		C-61.347,13.204-60.646,12.574-60.646,11.51z"/>
</g>
<path class="st16" d="M-124.813,3.48L-124.813,3.48c-1.054,2.474-1.96,4.602-2.889,6.784h5.729
	C-122.917,8.008-123.799,5.9-124.813,3.48 M-121.32,21.07L-121.32,21.07c-0.346-1.15-0.211-1.759,1.044-1.8
	c0.976-0.033,1.343-0.74,1.02-1.64c-0.507-1.414-1.072-2.81-1.681-4.183c-0.109-0.245-0.55-0.478-0.843-0.484
	c-2.129-0.041-4.261-0.046-6.39,0.005c-0.305,0.008-0.741,0.315-0.877,0.599c-0.558,1.155-1.057,2.342-1.512,3.542
	c-0.57,1.504-0.268,2.026,1.348,2.192c0.783,0.081,1.206,0.319,1.022,1.126c-0.056,0.243-0.355,0.61-0.547,0.613
	c-2.524,0.042-5.049,0.028-7.596,0.028c-0.214-0.956-0.321-1.631,0.868-1.885c0.569-0.122,1.219-0.609,1.515-1.117
	c0.755-1.293,1.377-2.67,1.972-4.049c2.401-5.559,4.761-11.135,7.172-16.689c0.173-0.398,0.634-0.67,0.96-1
	c0.319,0.343,0.766,0.632,0.937,1.037c2.56,6.048,5.079,12.114,7.622,18.17c0.326,0.776,0.705,1.534,1.106,2.275
	c0.507,0.939,1.332,1.389,2.379,1.595c0.265,0.052,0.519,0.638,0.586,1.013c0.032,0.175-0.39,0.621-0.611,0.624
	C-114.978,21.083-118.131,21.07-121.32,21.07"/>
<path class="st5" d="M-27.576,13.532c2.682-0.014,4.762-2.036,4.751-4.621c-0.01-2.367-2.203-4.406-4.733-4.399
	c-2.703,0.008-4.848,2.038-4.825,4.568C-32.36,11.544-30.2,13.545-27.576,13.532 M-22.021,13.545L-22.021,13.545
	c0.393-0.231,0.569-0.207,0.91,0.115c1.249,1.181,2.501,2.361,3.751,3.541c0.086,0.08,0.173,0.159,0.252,0.246
	c0.216,0.237,0.217,0.464-0.012,0.692c-0.249,0.248-0.509,0.488-0.767,0.727c-0.302,0.28-0.548,0.287-0.855,0
	c-1.177-1.103-2.348-2.211-3.522-3.318c-0.132-0.124-0.263-0.25-0.396-0.373c-0.368-0.34-0.394-0.487-0.153-0.896
	c-0.368-0.336-0.737-0.673-1.128-1.029c-1.472,1.07-3.153,1.471-5.011,1.06c-1.415-0.313-2.544-1.054-3.377-2.178
	c-1.65-2.23-1.286-5.335,0.823-7.11c2.222-1.87,5.521-1.904,7.68-0.117c2.217,1.835,2.765,5.106,0.696,7.583
	C-22.76,12.841-22.391,13.192-22.021,13.545"/>
<path class="st17" d="M-27.576,13.532c2.682-0.014,4.762-2.036,4.751-4.621c-0.01-2.367-2.203-4.406-4.733-4.399
	c-2.703,0.008-4.848,2.038-4.825,4.568C-32.36,11.544-30.2,13.545-27.576,13.532z M-22.021,13.545L-22.021,13.545
	c0.393-0.231,0.569-0.207,0.91,0.115c1.249,1.181,2.501,2.361,3.751,3.541c0.086,0.08,0.173,0.159,0.252,0.246
	c0.216,0.237,0.217,0.464-0.012,0.692c-0.249,0.248-0.509,0.488-0.767,0.727c-0.302,0.28-0.548,0.287-0.855,0
	c-1.177-1.103-2.348-2.211-3.522-3.318c-0.132-0.124-0.263-0.25-0.396-0.373c-0.368-0.34-0.394-0.487-0.153-0.896
	c-0.368-0.336-0.737-0.673-1.128-1.029c-1.472,1.07-3.153,1.471-5.011,1.06c-1.415-0.313-2.544-1.054-3.377-2.178
	c-1.65-2.23-1.286-5.335,0.823-7.11c2.222-1.87,5.521-1.904,7.68-0.117c2.217,1.835,2.765,5.106,0.696,7.583
	C-22.76,12.841-22.391,13.192-22.021,13.545z"/>
<path class="st5" d="M36.139,3.951l2.966,2.98V4.173c0-0.096-0.055-0.229-0.123-0.297L35.175,0.05c-0.068-0.067-0.178-0.067-0.245,0
	L31,3.999v2.758c0,0.096,0.055,0.119,0.122,0.051l2.844-2.857c0.068-0.068,0.122-0.046,0.122,0.05v7.829h0v2.168
	c0,0.096-0.055,0.118-0.123,0.05l-2.966-2.98v2.758c0,0.096,0.055,0.229,0.123,0.297l3.807,3.826c0.068,0.067,0.178,0.067,0.245,0
	L39.105,14v-2.758c0-0.096-0.055-0.119-0.122-0.051l-2.844,2.857c-0.068,0.068-0.122,0.046-0.122-0.05V6.169h0V4.001
	C36.016,3.905,36.071,3.883,36.139,3.951z"/>
<line class="st18" x1="0" y1="17.187" x2="27.833" y2="17.187"/>
<line class="st18" x1="0" y1="8.891" x2="27.833" y2="8.891"/>
<line class="st18" x1="0" y1="0.899" x2="27.833" y2="0.899"/>
<line class="st18" x1="14.342" y1="36.159" x2="14.342" y2="57.159"/>
<path class="st5" d="M21.802,50.002L21.802,50.002h2.695l-2.603-2.569c-0.138-0.135-0.093-0.245,0.101-0.245h7.006v-1.407
	c0-0.193-0.157-0.35-0.35-0.35h-6.656c-0.194,0-0.239-0.11-0.101-0.246l2.603-2.569h-2.345c-0.193,0-0.462,0.111-0.599,0.246
	l-3.245,3.201c-0.137,0.136-0.137,0.356,0,0.492L21.802,50.002z"/>
<path class="st5" d="M6.031,42.79L6.031,42.79H3.336l2.603,2.569c0.138,0.135,0.093,0.245-0.101,0.245h-7.006v1.407
	c0,0.193,0.157,0.35,0.35,0.35h6.656c0.194,0,0.239,0.11,0.101,0.246l-2.603,2.569h2.345c0.193,0,0.462-0.111,0.599-0.246
	l3.245-3.201c0.137-0.136,0.137-0.356,0-0.492L6.031,42.79z"/>
<line class="st19" x1="330.628" y1="-82.954" x2="294.605" y2="-82.954"/>
<path class="st20" d="M322.125-79.808c2.045,0,3.703-1.658,3.703-3.703c0-2.045-1.658-3.703-3.703-3.703
	c-2.045,0-3.703,1.658-3.703,3.703C318.422-81.466,320.08-79.808,322.125-79.808"/>
<g>
	<path class="st5" d="M345.324-82.753c0,3.12-1.82,4.836-4.459,4.836c-0.91,0-1.781-0.195-2.392-0.585l0.624-1.274
		c0.494,0.325,1.092,0.442,1.729,0.442c1.716,0,2.795-1.066,2.795-3.133v-0.014c-0.546,0.638-1.417,0.949-2.431,0.949
		c-1.794,0-3.133-1.092-3.133-2.795c0-1.807,1.469-2.951,3.328-2.951C343.868-87.277,345.324-85.678,345.324-82.753z
		 M343.361-84.417c0-0.858-0.676-1.534-1.885-1.534c-1.053,0-1.781,0.598-1.781,1.547s0.715,1.547,1.82,1.547
		C342.607-82.857,343.361-83.52,343.361-84.417z"/>
	<path class="st5" d="M353.189-80.842c0,1.599-1.157,2.925-3.602,2.925c-1.287,0-2.587-0.39-3.419-1.053l0.715-1.313
		c0.663,0.546,1.651,0.897,2.678,0.897c1.209,0,1.924-0.533,1.924-1.392c0-0.871-0.559-1.417-2.444-1.417h-2.197l0.468-4.953h5.343
		v1.417h-3.913l-0.195,2.106h0.871C352.11-83.624,353.189-82.454,353.189-80.842z"/>
	<path class="st5" d="M357.608-84.742c0-1.495,0.871-2.496,2.171-2.496s2.184,0.988,2.184,2.496s-0.884,2.496-2.184,2.496
		S357.608-83.247,357.608-84.742z M360.897-84.742c0-1.014-0.416-1.586-1.118-1.586c-0.676,0-1.118,0.585-1.118,1.586
		s0.442,1.586,1.118,1.586C360.481-83.156,360.897-83.729,360.897-84.742z M365.24-87.147h1.274l-6.214,9.101h-1.274L365.24-87.147z
		 M363.576-80.452c0-1.495,0.871-2.496,2.171-2.496c1.3,0,2.184,1.001,2.184,2.496s-0.884,2.496-2.184,2.496
		C364.446-77.956,363.576-78.957,363.576-80.452z M366.865-80.452c0-1.001-0.429-1.586-1.118-1.586s-1.118,0.572-1.118,1.586
		c0,1.015,0.429,1.586,1.118,1.586S366.865-79.451,366.865-80.452z"/>
</g>
<rect x="308.565" y="-28.811" class="st11" width="13.149" height="16.764"/>
<polygon class="st21" points="308.565,-12.047 308.565,-12.047 321.714,-12.047 321.714,-28.811 308.565,-28.811 "/>
<rect x="300.893" y="-29.282" class="st9" width="21.291" height="24"/>
<line class="st22" x1="305.39" y1="-21.116" x2="305.39" y2="-10.729"/>
<line class="st23" x1="308.022" y1="-8.84" x2="317.671" y2="-8.84"/>
<path class="st21" d="M318.547-8.84h0.877 M305.39-9.784v0.944h0.877 M305.39-23.949v0.944"/>
<polyline class="st21" points="301.363,-20.86 301.363,-5.752 315.397,-5.752 "/>
<rect x="300.893" y="-29.282" class="st9" width="21.291" height="24"/>
<rect x="340.139" y="-28.88" class="st11" width="14.674" height="18.705"/>
<polygon class="st24" points="340.139,-10.175 340.139,-10.175 354.812,-10.175 354.812,-28.88 340.139,-28.88 "/>
<rect x="339.737" y="-29.282" class="st9" width="19.884" height="24"/>
<rect x="344.546" y="-24.389" class="st5" width="14.674" height="18.705"/>
<polygon class="st25" points="344.545,-5.684 344.545,-5.684 359.218,-5.684 359.218,-24.389 344.545,-24.389 "/>
<rect x="339.737" y="-29.282" class="st9" width="19.884" height="24"/>
<rect x="241.246" y="-25.333" class="st10" width="34.924" height="19.551"/>
<text transform="matrix(1 0 0 1 248.2464 -10.6816)"><tspan x="0" y="0" class="st11" style="font-family:'Montserrat-Regular'; font-size:13px;">e</tspan><tspan x="7.41" y="0" class="st11" style="font-family:'Montserrat-Regular'; font-size:13px;">i</tspan><tspan x="10.335" y="0" class="st11" style="font-family:'Montserrat-Regular'; font-size:13px;">n</tspan></text>
<polygon class="st6" points="206.238,-25.458 206.238,-5.458 206.238,-5.208 206.488,-5.208 275.337,-5.208 275.587,-5.208 
	275.587,-5.458 275.587,-25.458 275.587,-25.708 275.337,-25.708 206.488,-25.708 206.238,-25.708 "/>
<rect x="205.988" y="-25.958" class="st9" width="70.183" height="21"/>
<line class="st26" x1="347.302" y1="64.181" x2="347.302" y2="88.441"/>
<path class="st5" d="M355.399,80L355.399,80h2.592l-2.494-2.46c-0.138-0.135-0.093-0.245,0.101-0.245h6.725v-1.339
	c0-0.193-0.157-0.35-0.35-0.35h-6.725l2.743-2.705h-2.242c-0.193,0-0.462,0.11-0.599,0.245l-3.102,3.059
	c-0.137,0.135-0.137,0.355,0,0.491L355.399,80z"/>
<line class="st26" x1="320.357" y1="88.274" x2="320.357" y2="64.014"/>
<path class="st5" d="M312.26,72.456L312.26,72.456h-2.592l2.494,2.46c0.138,0.135,0.093,0.245-0.101,0.245h-6.725V76.5
	c0,0.193,0.157,0.35,0.35,0.35h6.725l-2.743,2.705h2.242c0.193,0,0.462-0.11,0.599-0.245l3.102-3.059
	c0.137-0.135,0.137-0.355,0-0.491L312.26,72.456z"/>
<line class="st26" x1="130.615" y1="72.053" x2="154.875" y2="72.053"/>
<path class="st5" d="M146.266,63.995L146.266,63.995v-2.592l-2.46,2.494c-0.135,0.138-0.245,0.093-0.245-0.101v-6.725h-1.339
	c-0.193,0-0.35,0.157-0.35,0.35v6.725l-2.705-2.743v2.242c0,0.193,0.11,0.462,0.245,0.599l3.059,3.102
	c0.135,0.137,0.355,0.137,0.491,0L146.266,63.995z"/>
<path class="st5" d="M139.334,79.147L139.334,79.147v2.592l2.46-2.494c0.135-0.138,0.245-0.093,0.245,0.101v6.725h1.339
	c0.193,0,0.35-0.157,0.35-0.35v-6.725l2.705,2.743v-2.242c0-0.193-0.11-0.462-0.245-0.599l-3.059-3.102
	c-0.135-0.137-0.355-0.137-0.491,0L139.334,79.147z"/>
<line class="st26" x1="187.061" y1="84.863" x2="187.061" y2="60.603"/>
<path class="st5" d="M179.003,69.212L179.003,69.212h-2.592l2.494,2.46c0.138,0.135,0.093,0.245-0.101,0.245h-6.725v1.339
	c0,0.193,0.157,0.35,0.35,0.35h6.725l-2.743,2.705h2.242c0.193,0,0.462-0.11,0.599-0.245l3.102-3.059
	c0.137-0.135,0.137-0.355,0-0.491L179.003,69.212z"/>
<path class="st5" d="M194.155,76.144L194.155,76.144h2.592l-2.494-2.46c-0.138-0.135-0.093-0.245,0.101-0.245h6.725V72.1
	c0-0.193-0.157-0.35-0.35-0.35h-6.725l2.743-2.705h-2.242c-0.193,0-0.462,0.11-0.599,0.245l-3.102,3.059
	c-0.137,0.135-0.137,0.355,0,0.491L194.155,76.144z"/>
<line class="st26" x1="219.203" y1="72.336" x2="243.463" y2="72.336"/>
<path class="st5" d="M227.922,79.43L227.922,79.43v2.592l2.46-2.494c0.135-0.138,0.245-0.093,0.245,0.101v6.725h1.339
	c0.193,0,0.35-0.157,0.35-0.35v-6.725l2.705,2.743V79.78c0-0.193-0.11-0.462-0.245-0.599l-3.059-3.102
	c-0.135-0.137-0.355-0.137-0.491,0L227.922,79.43z"/>
<line class="st26" x1="264.314" y1="83.591" x2="288.574" y2="83.591"/>
<path class="st5" d="M280.132,75.202L280.132,75.202V72.61l-2.46,2.494c-0.135,0.138-0.245,0.093-0.245-0.101v-6.725h-1.339
	c-0.193,0-0.35,0.157-0.35,0.35v6.725l-2.705-2.743v2.242c0,0.193,0.11,0.462,0.245,0.599l3.059,3.102
	c0.135,0.137,0.355,0.137,0.491,0L280.132,75.202z"/>
<rect x="410.177" y="56.665" class="st11" width="15.769" height="20.056"/>
<line class="st27" x1="413.134" y1="76.721" x2="423.975" y2="76.721"/>
<line class="st28" x1="425.946" y1="73.713" x2="425.946" y2="58.671"/>
<line class="st27" x1="422.99" y1="56.665" x2="412.149" y2="56.665"/>
<line class="st28" x1="410.177" y1="59.674" x2="410.177" y2="74.716"/>
<path class="st21" d="M410.177,75.718v1.003h0.986 M411.163,56.665h-0.986v1.003 M425.946,57.668v-1.003h-0.985 M424.961,76.721
	h0.985v-1.003"/>
<polygon class="st11" points="398.941,86.721 398.941,86.721 414.71,86.721 414.71,66.665 398.941,66.665 "/>
<line class="st27" x1="401.898" y1="86.721" x2="412.739" y2="86.721"/>
<line class="st28" x1="414.71" y1="83.713" x2="414.71" y2="68.671"/>
<line class="st27" x1="411.754" y1="66.665" x2="400.913" y2="66.665"/>
<line class="st28" x1="398.941" y1="69.674" x2="398.941" y2="84.716"/>
<path class="st21" d="M398.941,85.718v1.003h0.986 M399.927,66.665h-0.986v1.003 M414.71,67.668v-1.003h-0.985 M413.725,86.721
	h0.985v-1.003"/>
<polygon class="st11" points="389.467,94.721 389.467,94.721 405.236,94.721 405.236,74.665 389.467,74.665 "/>
<polygon class="st21" points="389.467,94.721 389.467,94.721 405.236,94.721 405.236,74.665 389.467,74.665 "/>
<g>
	<polygon class="st11" points="463.304,81.027 463.304,81.027 479.073,81.027 479.073,60.971 463.304,60.971 	"/>
	<polygon class="st21" points="463.304,81.027 463.304,81.027 479.073,81.027 479.073,60.971 463.304,60.971 	"/>
	<line class="st29" x1="459.54" y1="69.526" x2="459.54" y2="83.03"/>
	<line class="st30" x1="462.677" y1="84.83" x2="474.18" y2="84.83"/>
	<path class="st21" d="M475.225,84.83h1.046 M459.54,83.93v0.9h1.046 M459.54,66.825v0.9"/>
</g>
<g>
	<g>
		<rect x="535.844" y="49.25" class="st11" width="15.769" height="20.056"/>
		<polygon class="st21" points="535.844,69.307 535.844,69.307 551.613,69.307 551.613,49.251 535.844,49.251 		"/>
		<polygon class="st11" points="524.607,79.307 524.607,79.307 540.376,79.307 540.376,59.251 524.607,59.251 		"/>
		<line class="st27" x1="527.564" y1="79.307" x2="538.405" y2="79.307"/>
		<line class="st28" x1="540.376" y1="76.298" x2="540.376" y2="61.256"/>
		<line class="st27" x1="537.42" y1="59.25" x2="526.579" y2="59.25"/>
		<line class="st28" x1="524.607" y1="62.259" x2="524.607" y2="77.301"/>
		<path class="st21" d="M524.607,78.304v1.003h0.986 M525.593,59.251h-0.986v1.003 M540.376,60.254v-1.003h-0.985 M539.391,79.307
			h0.985v-1.003"/>
		<polygon class="st11" points="515.134,87.307 515.134,87.307 530.903,87.307 530.903,67.251 515.134,67.251 		"/>
		<line class="st27" x1="518.091" y1="87.307" x2="528.932" y2="87.307"/>
		<line class="st28" x1="530.903" y1="84.298" x2="530.903" y2="69.256"/>
		<line class="st27" x1="527.946" y1="67.25" x2="517.105" y2="67.25"/>
		<line class="st28" x1="515.134" y1="70.259" x2="515.134" y2="85.301"/>
		<path class="st21" d="M515.133,86.304v1.003h0.986 M516.119,67.251h-0.986v1.003 M530.902,68.254v-1.003h-0.985 M529.917,87.307
			h0.985v-1.003"/>
	</g>
	<line class="st27" x1="591.257" y1="82.792" x2="602.098" y2="82.792"/>
	<line class="st28" x1="604.069" y1="79.783" x2="604.069" y2="64.741"/>
	<line class="st27" x1="601.113" y1="62.736" x2="590.272" y2="62.736"/>
	<line class="st28" x1="588.3" y1="65.744" x2="588.3" y2="80.786"/>
	<path class="st21" d="M588.3,81.789v1.003h0.986 M589.286,62.736H588.3v1.003 M604.069,63.739v-1.003h-0.985 M603.084,82.792h0.985
		v-1.003"/>
	<polyline class="st21" points="584.536,68.59 584.536,86.595 601.267,86.595 	"/>
</g>
<g>
	<defs>
		<rect id="SVGID_1_" x="-170.738" y="176.628" width="241.682" height="1"/>
	</defs>
	<clipPath id="SVGID_00000146481764986457439910000002115368453934257581_">
		<use xlink:href="#SVGID_1_"  style="overflow:visible;"/>
	</clipPath>
	
		<line style="clip-path:url(#SVGID_00000146481764986457439910000002115368453934257581_);fill:none;stroke:#B2B2B2;stroke-linecap:round;stroke-linejoin:round;stroke-dasharray:0,3.009;" x1="-167.23" y1="177.128" x2="68.94" y2="177.128"/>
	
		<path style="clip-path:url(#SVGID_00000146481764986457439910000002115368453934257581_);fill:none;stroke:#B2B2B2;stroke-linecap:round;stroke-linejoin:round;" d="
		M70.444,177.128L70.444,177.128 M-170.238,177.128L-170.238,177.128"/>
</g>
<circle class="st33" cx="-123.84" cy="-44.083" r="12.75"/>
<polygon class="st3" points="19.552,-59.107 6.552,-59.107 12.92,-48.632 "/>
<polygon class="st5" points="27.576,69.435 17.101,75.803 27.576,82.435 "/>
<polygon class="st5" points="-1.471,82.435 9.004,76.067 -1.471,69.435 "/>
<polygon class="st5" points="81.082,69.435 70.607,75.803 81.082,82.435 "/>
<polygon class="st5" points="45.905,82.435 56.38,76.067 45.905,69.435 "/>
<rect x="206.155" y="-59.096" class="st10" width="34.924" height="19.551"/>
<polygon class="st6" points="206.405,-59.221 206.405,-39.221 206.405,-38.971 206.655,-38.971 275.504,-38.971 275.754,-38.971 
	275.754,-39.221 275.754,-59.221 275.754,-59.471 275.504,-59.471 206.655,-59.471 206.405,-59.471 "/>
<rect x="206.155" y="-59.721" class="st9" width="69.849" height="21"/>
<rect x="241.519" y="6.933" class="st10" width="34.924" height="19.551"/>
<polygon class="st6" points="206.511,6.808 206.511,26.808 206.511,27.058 206.761,27.058 275.61,27.058 275.86,27.058 
	275.86,26.808 275.86,6.808 275.86,6.558 275.61,6.558 206.761,6.558 206.511,6.558 "/>
<rect x="206.261" y="6.308" class="st9" width="70.183" height="21"/>
<line class="st19" x1="329.55" y1="-63.166" x2="293.527" y2="-63.166"/>
<path class="st20" d="M321.047-60.02c2.045,0,3.703-1.658,3.703-3.703c0-2.045-1.658-3.703-3.703-3.703
	c-2.045,0-3.703,1.658-3.703,3.703C317.344-61.678,319.002-60.02,321.047-60.02"/>
<line class="st19" x1="637.874" y1="-32.387" x2="601.851" y2="-32.387"/>
<path class="st20" d="M629.371-29.241c2.045,0,3.703-1.658,3.703-3.703c0-2.045-1.658-3.703-3.703-3.703s-3.703,1.658-3.703,3.703
	C625.668-30.899,627.326-29.241,629.371-29.241"/>
</svg>
