<?xml version="1.0" encoding="utf-8"?>
<!-- Generator: Adobe Illustrator 26.0.3, SVG Export Plug-In . SVG Version: 6.00 Build 0)  -->
<svg version="1.1" id="Ebene_1" xmlns="http://www.w3.org/2000/svg" xmlns:xlink="http://www.w3.org/1999/xlink" x="0px" y="0px"
	 width="26px" height="26px" viewBox="0 0 26 26" style="enable-background:new 0 0 26 26;" xml:space="preserve">
<style type="text/css">
	.st0{fill:none;stroke:#C5C5C5;stroke-width:3;stroke-linecap:round;stroke-linejoin:round;}
	.st1{fill:#FFAEFF;stroke:#4F4D4D;stroke-width:0.5;}
	.st2{fill:#F8F8F8;}
	.st3{fill:#0E689A;}
	.st4{fill:#B2B1B1;}
	.st5{fill:none;stroke:#B2B1B1;stroke-width:0.65;stroke-miterlimit:10;}
	.st6{fill:none;stroke:#B2B2B2;stroke-width:0.5;stroke-miterlimit:10;}
	.st7{fill:none;stroke:#B2B1B1;stroke-width:0.3;stroke-miterlimit:10;}
	.st8{fill:none;stroke:#FFFFFF;stroke-width:0.021;}
	.st9{fill:none;}
	.st10{fill:#0E6899;}
	.st11{fill:#FFFFFF;}
	.st12{fill:none;stroke:#C5C5C5;stroke-width:0.5;stroke-linecap:round;stroke-linejoin:round;}
	.st13{fill:#C5C5C5;}
	.st14{fill:none;stroke:#B2B1B1;stroke-width:0.5;}
	.st15{fill:none;stroke:#B2B1B1;stroke-width:1.2;}
	.st16{fill:#B2B2B2;}
	.st17{fill:none;stroke:#FFFFFF;stroke-width:0.001;}
	.st18{fill:none;stroke:#B2B1B1;stroke-width:1.712;}
	.st19{fill:none;stroke:#B2B1B1;stroke-width:2;}
	.st20{fill:#AD5E7A;}
	.st21{fill:none;stroke:#B2B1B1;stroke-width:0.941;}
	.st22{fill:none;stroke:#B2B1B1;stroke-width:0.941;stroke-dasharray:1.889,1.889;}
	.st23{fill:none;stroke:#B2B1B1;stroke-width:0.941;stroke-dasharray:1.754,1.754;}
	.st24{fill:none;stroke:#B2B1B1;stroke-width:0.804;}
	.st25{fill:none;stroke:#FFFFFF;stroke-width:0.804;}
	.st26{fill:none;stroke:#B2B1B1;stroke-width:2.5;}
	.st27{fill:none;stroke:#B2B1B1;stroke-width:0.941;stroke-dasharray:1.971,1.971;}
	.st28{fill:none;stroke:#B2B1B1;stroke-width:0.941;stroke-dasharray:2.006,2.006;}
	.st29{fill:none;stroke:#B2B1B1;stroke-width:0.941;stroke-dasharray:1.801,1.801;}
	.st30{fill:none;stroke:#B2B1B1;stroke-width:0.941;stroke-dasharray:2.091,2.091;}
	
		.st31{clip-path:url(#SVGID_00000001666087061535546370000000681558181525694095_);fill:none;stroke:#B2B2B2;stroke-linecap:round;stroke-linejoin:round;stroke-dasharray:0,3.009;}
	
		.st32{clip-path:url(#SVGID_00000001666087061535546370000000681558181525694095_);fill:none;stroke:#B2B2B2;stroke-linecap:round;stroke-linejoin:round;}
	.st33{fill:none;stroke:#4F4D4D;stroke-width:0.5;}
</style>
<polyline class="st0" points="2004.893,939.656 1998.643,930.656 1991.893,939.656 "/>
<circle class="st1" cx="13" cy="-23.093" r="12.75"/>
<rect x="45.461" y="-34.108" class="st2" width="119.902" height="21"/>
<polygon class="st3" points="156.29,-28.845 143.29,-28.845 149.658,-18.37 "/>
<g>
	<path class="st4" d="M239.84-26.714h1.3l-1.82,9.101h-1.3L239.84-26.714z"/>
</g>
<g>
	<line class="st5" x1="269.302" y1="-16.587" x2="279.585" y2="-16.587"/>
	<g>
		<path class="st4" d="M270.59-21.813v-5.175h1.3v5.122c0,2.016,0.923,2.926,2.561,2.926c1.638,0,2.574-0.91,2.574-2.926v-5.122
			h1.261v5.175c0,2.639-1.443,4.029-3.848,4.029C272.046-17.783,270.59-19.174,270.59-21.813z"/>
	</g>
</g>
<g>
	<path class="st4" d="M206.692-20.045c0,1.573-1.248,2.483-3.64,2.483h-4.706v-9.101h4.446c2.275,0,3.445,0.949,3.445,2.366
		c0,0.91-0.468,1.612-1.209,2.002C206.042-21.969,206.692-21.189,206.692-20.045z M200.439-25.076v2.146h2.093
		c1.027,0,1.586-0.364,1.586-1.079s-0.559-1.066-1.586-1.066H200.439z M204.572-20.266c0-0.767-0.585-1.131-1.677-1.131h-2.457
		v2.249h2.457C203.987-19.148,204.572-19.485,204.572-20.266z"/>
</g>
<polygon class="st6" points="261.194,-34.787 261.194,-8.787 261.194,-8.537 261.444,-8.537 287.444,-8.537 287.694,-8.537 
	287.694,-8.787 287.694,-34.787 287.694,-35.037 287.444,-35.037 261.444,-35.037 261.194,-35.037 "/>
<polygon class="st6" points="226.33,-35.164 226.33,-9.164 226.33,-8.914 226.58,-8.914 252.58,-8.914 252.83,-8.914 252.83,-9.164 
	252.83,-35.164 252.83,-35.414 252.58,-35.414 226.58,-35.414 226.33,-35.414 "/>
<polygon class="st6" points="189.268,-35.112 189.268,-9.112 189.268,-8.862 189.518,-8.862 215.518,-8.862 215.768,-8.862 
	215.768,-9.112 215.768,-35.112 215.768,-35.362 215.518,-35.362 189.518,-35.362 189.268,-35.362 "/>
<path class="st7" d="M243.456,6.842"/>
<path class="st7" d="M240.948,8.096"/>
<path class="st7" d="M240.948,9.35"/>
<path class="st7" d="M240.948,10.604"/>
<path class="st7" d="M243.456,11.858"/>
<path class="st7" d="M243.456,13.112"/>
<path class="st7" d="M240.948,14.366"/>
<path class="st7" d="M240.948,16.874"/>
<path class="st7" d="M243.456,19.381"/>
<path class="st7" d="M223.992,11.858"/>
<path class="st7" d="M223.992,6.842"/>
<path class="st7" d="M223.992,19.381"/>
<path class="st7" d="M223.992,13.112"/>
<g>
	<path class="st7" d="M226.054,14.366"/>
	<path class="st7" d="M226.054,10.604"/>
	<path class="st7" d="M226.054,9.35"/>
	<path class="st7" d="M226.054,8.096"/>
	<line class="st7" x1="223.616" y1="18.586" x2="243.08" y2="18.586"/>
	<line class="st7" x1="223.616" y1="17.311" x2="238.51" y2="17.311"/>
	<line class="st7" x1="223.616" y1="16.035" x2="238.51" y2="16.035"/>
	<line class="st7" x1="223.616" y1="14.759" x2="238.51" y2="14.759"/>
	<line class="st7" x1="223.616" y1="13.483" x2="243.08" y2="13.483"/>
	<line class="st7" x1="223.616" y1="12.207" x2="243.08" y2="12.207"/>
	<line class="st7" x1="223.69" y1="10.931" x2="238.584" y2="10.931"/>
	<line class="st7" x1="223.616" y1="9.655" x2="243.08" y2="9.655"/>
	<line class="st7" x1="223.616" y1="8.379" x2="238.51" y2="8.379"/>
	<line class="st7" x1="223.616" y1="7.103" x2="238.51" y2="7.103"/>
	<line class="st7" x1="223.616" y1="5.828" x2="243.08" y2="5.828"/>
</g>
<polygon class="st6" points="220.289,-0.467 220.289,25.526 220.289,25.776 220.539,25.776 246.532,25.776 246.782,25.776 
	246.782,25.526 246.782,-0.467 246.782,-0.717 246.532,-0.717 220.539,-0.717 220.289,-0.717 "/>
<g>
	<line class="st7" x1="274.337" y1="6.144" x2="254.873" y2="6.144"/>
	<line class="st7" x1="271.829" y1="7.421" x2="256.935" y2="7.421"/>
	<line class="st7" x1="271.829" y1="8.698" x2="256.935" y2="8.698"/>
	<line class="st7" x1="271.829" y1="9.975" x2="256.935" y2="9.975"/>
	<line class="st7" x1="274.337" y1="11.252" x2="254.873" y2="11.252"/>
	<line class="st7" x1="274.337" y1="12.529" x2="254.873" y2="12.529"/>
	<line class="st7" x1="271.829" y1="13.806" x2="256.935" y2="13.806"/>
	<line class="st7" x1="274.337" y1="15.083" x2="254.873" y2="15.083"/>
	<line class="st7" x1="271.829" y1="16.361" x2="256.935" y2="16.361"/>
	<line class="st7" x1="271.829" y1="17.637" x2="256.935" y2="17.637"/>
	<line class="st7" x1="274.337" y1="18.914" x2="254.873" y2="18.914"/>
</g>
<polygon class="st6" points="251.358,-0.467 251.358,25.526 251.358,25.776 251.608,25.776 277.601,25.776 277.851,25.776 
	277.851,25.526 277.851,-0.467 277.851,-0.717 277.601,-0.717 251.608,-0.717 251.358,-0.717 "/>
<polygon class="st6" points="282.427,-0.467 282.427,25.526 282.427,25.776 282.677,25.776 308.67,25.776 308.92,25.776 
	308.92,25.526 308.92,-0.467 308.92,-0.717 308.67,-0.717 282.677,-0.717 282.427,-0.717 "/>
<path class="st7" d="M285.754,18.217"/>
<path class="st7" d="M285.754,13.201"/>
<path class="st7" d="M285.754,11.947"/>
<path class="st7" d="M285.754,5.677"/>
<path class="st7" d="M303.156,10.693"/>
<path class="st7" d="M305.218,13.201"/>
<path class="st7" d="M303.156,14.455"/>
<path class="st7" d="M305.218,18.217"/>
<path class="st7" d="M305.218,5.677"/>
<path class="st7" d="M305.218,11.947"/>
<path class="st7" d="M303.156,15.709"/>
<path class="st7" d="M303.156,16.963"/>
<g>
	<path class="st7" d="M288.073,16.641"/>
	<path class="st7" d="M288.073,15.387"/>
	<path class="st7" d="M288.073,14.132"/>
	<path class="st7" d="M288.073,10.371"/>
	<path class="st7" d="M288.073,7.863"/>
	<line class="st7" x1="305.405" y1="6.15" x2="285.941" y2="6.15"/>
	<line class="st7" x1="305.405" y1="7.425" x2="290.511" y2="7.425"/>
	<line class="st7" x1="305.405" y1="8.701" x2="290.511" y2="8.701"/>
	<line class="st7" x1="305.405" y1="9.977" x2="290.511" y2="9.977"/>
	<line class="st7" x1="305.405" y1="11.253" x2="285.941" y2="11.253"/>
	<line class="st7" x1="305.405" y1="12.529" x2="285.941" y2="12.529"/>
	<line class="st7" x1="305.332" y1="13.805" x2="290.438" y2="13.805"/>
	<line class="st7" x1="305.405" y1="15.081" x2="285.941" y2="15.081"/>
	<line class="st7" x1="305.405" y1="16.357" x2="290.511" y2="16.357"/>
	<line class="st7" x1="305.405" y1="17.633" x2="290.511" y2="17.633"/>
	<line class="st7" x1="305.405" y1="18.909" x2="285.941" y2="18.909"/>
</g>
<polygon class="st6" points="189.518,-0.461 189.518,25.532 189.518,25.782 189.768,25.782 215.761,25.782 216.011,25.782 
	216.011,25.532 216.011,-0.461 216.011,-0.711 215.761,-0.711 189.768,-0.711 189.518,-0.711 "/>
<path class="st7" d="M212.685,6.842"/>
<path class="st7" d="M212.685,11.858"/>
<path class="st7" d="M212.685,13.112"/>
<path class="st7" d="M212.685,19.381"/>
<path class="st7" d="M195.283,14.366"/>
<path class="st7" d="M193.221,11.858"/>
<path class="st7" d="M195.283,10.604"/>
<path class="st7" d="M193.221,6.842"/>
<path class="st7" d="M193.221,19.381"/>
<path class="st7" d="M193.221,13.112"/>
<path class="st7" d="M195.283,9.35"/>
<path class="st7" d="M195.283,8.096"/>
<g>
	<path class="st7" d="M210.177,8.096"/>
	<path class="st7" d="M210.177,9.35"/>
	<path class="st7" d="M210.177,10.604"/>
	<path class="st7" d="M210.177,14.366"/>
	<path class="st7" d="M210.177,16.874"/>
	<line class="st7" x1="192.845" y1="18.586" x2="212.309" y2="18.586"/>
	<line class="st7" x1="192.845" y1="17.311" x2="212.309" y2="17.311"/>
	<line class="st7" x1="192.845" y1="16.035" x2="212.309" y2="16.035"/>
	<line class="st7" x1="192.845" y1="14.759" x2="212.309" y2="14.759"/>
	<line class="st7" x1="192.845" y1="13.483" x2="212.309" y2="13.483"/>
	<line class="st7" x1="192.845" y1="12.207" x2="212.309" y2="12.207"/>
	<line class="st7" x1="192.918" y1="10.931" x2="212.382" y2="10.931"/>
	<line class="st7" x1="192.845" y1="9.655" x2="212.309" y2="9.655"/>
	<line class="st7" x1="192.845" y1="8.379" x2="212.309" y2="8.379"/>
	<line class="st7" x1="192.845" y1="7.103" x2="212.309" y2="7.103"/>
	<line class="st7" x1="192.845" y1="5.828" x2="212.309" y2="5.828"/>
</g>
<path class="st4" d="M19.962,114.688l-1.915,13.335c-0.058,0.402-0.431,0.682-0.834,0.624c-0.402-0.058-0.682-0.431-0.624-0.833
	l1.915-13.336c0.058-0.402,0.431-0.681,0.834-0.623C19.74,113.913,20.02,114.285,19.962,114.688 M13.145,128.763
	c-0.407,0.003-0.74-0.324-0.742-0.73l-0.106-13.472c-0.003-0.407,0.324-0.739,0.73-0.742c0.408-0.003,0.74,0.324,0.743,0.731
	l0.105,13.471C13.878,128.428,13.551,128.76,13.145,128.763 M9.074,128.71c-0.401,0.064-0.779-0.209-0.842-0.61l-2.124-13.304
	c-0.064-0.402,0.209-0.779,0.612-0.843c0.401-0.064,0.778,0.209,0.842,0.611l2.123,13.303C9.749,128.269,9.476,128.646,9.074,128.71
	 M22.857,112.302c-0.141-0.169-0.353-0.266-0.573-0.264l-18.538,0.144c-0.22,0.002-0.429,0.101-0.568,0.272
	c-0.14,0.17-0.196,0.393-0.155,0.609l3.092,16.141c0.068,0.351,0.376,0.605,0.734,0.602l12.497-0.098
	c0.356-0.002,0.66-0.258,0.724-0.608l2.949-16.188C23.059,112.696,22.998,112.471,22.857,112.302"/>
<path class="st8" d="M19.962,114.688l-1.915,13.335c-0.058,0.402-0.431,0.682-0.834,0.624c-0.402-0.058-0.682-0.431-0.624-0.833
	l1.915-13.336c0.058-0.402,0.431-0.681,0.834-0.623C19.74,113.913,20.02,114.285,19.962,114.688z M13.145,128.763
	c-0.407,0.003-0.74-0.324-0.742-0.73l-0.106-13.472c-0.003-0.407,0.324-0.739,0.73-0.742c0.408-0.003,0.74,0.324,0.743,0.731
	l0.105,13.471C13.878,128.428,13.551,128.76,13.145,128.763z M9.074,128.71c-0.401,0.064-0.779-0.209-0.842-0.61l-2.124-13.304
	c-0.064-0.402,0.209-0.779,0.612-0.843c0.401-0.064,0.778,0.209,0.842,0.611l2.123,13.303C9.749,128.269,9.476,128.646,9.074,128.71
	z M22.857,112.302c-0.141-0.169-0.353-0.266-0.573-0.264l-18.538,0.144c-0.22,0.002-0.429,0.101-0.568,0.272
	c-0.14,0.17-0.196,0.393-0.155,0.609l3.092,16.141c0.068,0.351,0.376,0.605,0.734,0.602l12.497-0.098
	c0.356-0.002,0.66-0.258,0.724-0.608l2.949-16.188C23.059,112.696,22.998,112.471,22.857,112.302z"/>
<path class="st4" d="M10.169,107.695L10.169,107.695l-0.004-0.421l5.49-0.043l0.004,0.421L10.169,107.695z M23.906,109.105
	L23.906,109.105l-2.025,0.016l-0.009-1.171c-0.001-0.091-0.038-0.18-0.103-0.244c-0.065-0.064-0.155-0.1-0.246-0.1l-4.467,0.035
	l-0.009-1.12c-0.002-0.184-0.077-0.363-0.209-0.492c-0.131-0.13-0.311-0.203-0.495-0.201l-6.887,0.054
	c-0.183,0.001-0.363,0.077-0.492,0.208c-0.129,0.131-0.202,0.312-0.2,0.496l0.009,1.12l-4.164,0.032
	c-0.091,0.001-0.18,0.039-0.243,0.104c-0.065,0.065-0.101,0.154-0.101,0.246l0.009,1.171l-2.197,0.017l0.017,2.225l21.829-0.17
	L23.906,109.105z"/>
<path class="st8" d="M10.169,107.695L10.169,107.695l-0.004-0.421l5.49-0.043l0.004,0.421L10.169,107.695z M23.906,109.105
	L23.906,109.105l-2.025,0.016l-0.009-1.171c-0.001-0.091-0.038-0.18-0.103-0.244c-0.065-0.064-0.155-0.1-0.246-0.1l-4.467,0.035
	l-0.009-1.12c-0.002-0.184-0.077-0.363-0.209-0.492c-0.131-0.13-0.311-0.203-0.495-0.201l-6.887,0.054
	c-0.183,0.001-0.363,0.077-0.492,0.208c-0.129,0.131-0.202,0.312-0.2,0.496l0.009,1.12l-4.164,0.032
	c-0.091,0.001-0.18,0.039-0.243,0.104c-0.065,0.065-0.101,0.154-0.101,0.246l0.009,1.171l-2.197,0.017l0.017,2.225l21.829-0.17
	L23.906,109.105z"/>
<rect x="2.066" y="105.817" class="st9" width="21.868" height="24"/>
<rect x="342.995" y="-34.951" class="st10" width="34.924" height="19.551"/>
<g>
	<path class="st11" d="M355.973-24.538v4.238h-0.884v-1.066c-0.416,0.702-1.222,1.132-2.354,1.132c-1.547,0-2.496-0.807-2.496-1.989
		c0-1.054,0.676-1.938,2.639-1.938h2.171v-0.416c0-1.17-0.663-1.807-1.938-1.807c-0.884,0-1.716,0.312-2.275,0.806l-0.416-0.688
		c0.689-0.585,1.703-0.924,2.782-0.924C354.972-27.191,355.973-26.306,355.973-24.538z M355.05-22.354v-1.118h-2.146
		c-1.326,0-1.755,0.52-1.755,1.222c0,0.793,0.637,1.287,1.729,1.287C353.919-20.963,354.686-21.457,355.05-22.354z"/>
	<path class="st11" d="M364.072-27.138v6.838h-0.884v-1.248c-0.481,0.832-1.365,1.313-2.458,1.313c-1.742,0-2.886-0.976-2.886-2.938
		v-3.965h0.923v3.874c0,1.456,0.754,2.197,2.054,2.197c1.43,0,2.327-0.924,2.327-2.483v-3.588H364.072z"/>
	<path class="st11" d="M365.371-21.08l0.416-0.728c0.546,0.429,1.469,0.767,2.431,0.767c1.3,0,1.833-0.441,1.833-1.118
		c0-1.78-4.433-0.377-4.433-3.081c0-1.118,0.962-1.95,2.704-1.95c0.884,0,1.846,0.247,2.418,0.638l-0.403,0.74
		c-0.598-0.416-1.313-0.585-2.015-0.585c-1.235,0-1.781,0.481-1.781,1.132c0,1.846,4.434,0.455,4.434,3.081
		c0,1.183-1.04,1.95-2.821,1.95C367.023-20.234,365.93-20.599,365.371-21.08z"/>
</g>
<polygon class="st6" points="343.245,-35.076 343.245,-15.076 343.245,-14.826 343.495,-14.826 412.344,-14.826 412.594,-14.826 
	412.594,-15.076 412.594,-35.076 412.594,-35.326 412.344,-35.326 343.495,-35.326 343.245,-35.326 "/>
<rect x="342.995" y="-35.576" class="st9" width="69.849" height="21"/>
<rect x="-61.402" y="171.754" class="st11" width="1014" height="21"/>
<path class="st3" d="M565.759,171.754c-2.209,0-4,1.791-4,4v12.382c0,2.209,1.791,4,4,4h77.131c2.209,0,4-1.791,4-4v-12.382
	c0-2.209-1.791-4-4-4H565.759z"/>
<rect x="-61.152" y="172.004" class="st12" width="1013.5" height="20.5"/>
<path class="st13" d="M936.454,174.614v1.481c0,0.397,0.187,0.771,0.505,1.009l6.367,4.762c0.258,0.194,0.258,0.583,0,0.776
	l-6.367,4.762c-0.318,0.238-0.505,0.612-0.505,1.01v1.48c0,0.41,0.467,0.644,0.795,0.399l10.111-7.563
	c0.318-0.237,0.318-0.714,0-0.952l-10.11-7.562C936.921,173.97,936.454,174.205,936.454,174.614"/>
<path class="st13" d="M-45.549,189.894v-1.481c0-0.397-0.187-0.771-0.505-1.009l-6.367-4.762c-0.258-0.194-0.258-0.583,0-0.776
	l6.367-4.762c0.318-0.238,0.505-0.612,0.505-1.01v-1.48c0-0.41-0.467-0.644-0.795-0.399l-10.111,7.563
	c-0.318,0.237-0.318,0.714,0,0.952l10.11,7.562C-46.016,190.538-45.549,190.303-45.549,189.894"/>
<rect x="-61.402" y="171.754" class="st9" width="1014" height="21"/>
<rect x="994.371" y="-72.791" class="st11" width="21" height="702.123"/>
<path class="st3" d="M994.371,341.17c0,2.209,1.791,4,4,4h12.382c2.209,0,4-1.791,4-4v-78.286c0-2.209-1.791-4-4-4h-12.382
	c-2.209,0-4,1.791-4,4V341.17z"/>
<rect x="994.621" y="-72.542" class="st12" width="20.5" height="701.624"/>
<path class="st13" d="M997.231-59.256h1.481c0.397,0,0.771-0.19,1.009-0.512l4.762-6.453c0.194-0.262,0.583-0.262,0.776,0
	l4.762,6.453c0.238,0.322,0.612,0.512,1.01,0.512h1.48c0.41,0,0.644-0.474,0.399-0.806l-7.563-10.248
	c-0.237-0.322-0.714-0.322-0.952,0l-7.562,10.248C996.587-59.73,996.822-59.256,997.231-59.256"/>
<path class="st13" d="M1012.511,614.996h-1.481c-0.397,0-0.771,0.19-1.009,0.512l-4.762,6.453c-0.194,0.262-0.583,0.262-0.776,0
	l-4.762-6.453c-0.238-0.322-0.612-0.512-1.01-0.512h-1.48c-0.41,0-0.644,0.474-0.399,0.806l7.563,10.248
	c0.237,0.322,0.714,0.322,0.952,0l7.562-10.248C1013.155,615.47,1012.92,614.996,1012.511,614.996"/>
<rect x="994.371" y="-72.792" class="st9" width="21" height="702.124"/>
<line class="st7" x1="273.395" y1="39.335" x2="260.378" y2="39.335"/>
<line class="st7" x1="273.395" y1="44.422" x2="260.378" y2="44.422"/>
<line class="st7" x1="273.395" y1="49.51" x2="260.378" y2="49.51"/>
<text transform="matrix(1 0 0 1 255.8073 39.2032)" class="st4" style="font-family:'Montserrat-Bold'; font-size:3px;">1</text>
<text transform="matrix(1 0 0 1 255.8073 44.2189)" class="st4" style="font-family:'Montserrat-Bold'; font-size:3px;">2</text>
<text transform="matrix(1 0 0 1 255.8073 49.2345)" class="st4" style="font-family:'Montserrat-Bold'; font-size:3px;">3</text>
<polygon class="st6" points="251.351,31.744 251.351,57.744 251.351,57.994 251.601,57.994 277.601,57.994 277.851,57.994 
	277.851,57.744 277.851,31.744 277.851,31.494 277.601,31.494 251.601,31.494 251.351,31.494 "/>
<polygon class="st6" points="219.86,31.744 219.86,57.744 219.86,57.994 220.11,57.994 246.11,57.994 246.36,57.994 246.36,57.744 
	246.36,31.744 246.36,31.494 246.11,31.494 220.11,31.494 219.86,31.494 "/>
<polygon class="st6" points="189.518,31.744 189.518,57.744 189.518,57.994 189.768,57.994 215.768,57.994 216.018,57.994 
	216.018,57.744 216.018,31.744 216.018,31.494 215.768,31.494 189.768,31.494 189.518,31.494 "/>
<path class="st7" d="M241.392,49.869h-13.016 M241.392,44.736h-13.016 M241.392,39.604h-13.016"/>
<path class="st4" d="M226.29,45.321c0.161-0.156,0.241-0.349,0.241-0.581c0-0.15-0.037-0.288-0.11-0.414
	c-0.073-0.125-0.172-0.224-0.297-0.297c-0.126-0.073-0.264-0.11-0.415-0.11c-0.15,0-0.288,0.037-0.41,0.11
	c-0.122,0.073-0.221,0.172-0.294,0.297c-0.072,0.126-0.11,0.264-0.11,0.414c0,0.232,0.08,0.425,0.238,0.581
	c0.157,0.156,0.35,0.234,0.576,0.234C225.936,45.555,226.129,45.477,226.29,45.321"/>
<path class="st4" d="M225.713,40.687c0.489,0,0.885-0.396,0.885-0.885c0-0.488-0.396-0.885-0.885-0.885
	c-0.488,0-0.885,0.397-0.885,0.885C224.828,40.291,225.225,40.687,225.713,40.687"/>
<path class="st4" d="M226.29,50.338c0.161-0.156,0.241-0.349,0.241-0.581c0-0.15-0.037-0.288-0.11-0.414
	c-0.073-0.125-0.172-0.224-0.297-0.297c-0.126-0.073-0.264-0.11-0.415-0.11c-0.15,0-0.288,0.037-0.41,0.11
	c-0.122,0.073-0.221,0.172-0.294,0.297c-0.072,0.126-0.11,0.264-0.11,0.414c0,0.232,0.08,0.425,0.238,0.581
	c0.157,0.156,0.35,0.234,0.576,0.234C225.936,50.572,226.129,50.494,226.29,50.338"/>
<path class="st7" d="M211.05,49.877h-13.016 M211.05,44.744h-13.016 M211.05,39.612h-13.016"/>
<rect x="194.486" y="38.842" class="st4" width="1.77" height="1.77"/>
<rect x="194.486" y="43.858" class="st4" width="1.77" height="1.77"/>
<rect x="194.486" y="48.876" class="st4" width="1.77" height="1.77"/>
<rect x="533.008" y="-36.045" class="st2" width="245" height="57.75"/>
<text transform="matrix(1 0 0 1 607.7058 -9.8496)"><tspan x="0" y="0" class="st4" style="font-family:'Montserrat-Regular'; font-size:13px;">N</tspan><tspan x="10.478" y="0" class="st4" style="font-family:'Montserrat-Regular'; font-size:13px;">e</tspan><tspan x="18.135" y="0" class="st4" style="font-family:'Montserrat-Regular'; font-size:13px;">u</tspan><tspan x="26.753" y="0" class="st4" style="font-family:'Montserrat-Regular'; font-size:13px;">e </tspan><tspan x="38.011" y="0" class="st4" style="font-family:'Montserrat-Regular'; font-size:13px; letter-spacing:-1;">T</tspan><tspan x="44.381" y="0" class="st4" style="font-family:'Montserrat-Regular'; font-size:13px;">e</tspan><tspan x="51.882" y="0" class="st4" style="font-family:'Montserrat-Regular'; font-size:13px;">x</tspan><tspan x="59.097" y="0" class="st4" style="font-family:'Montserrat-Regular'; font-size:13px;">t</tspan><tspan x="64.128" y="0" class="st4" style="font-family:'Montserrat-Regular'; font-size:13px;">b</tspan><tspan x="72.942" y="0" class="st4" style="font-family:'Montserrat-Regular'; font-size:13px;">o</tspan><tspan x="80.742" y="0" class="st4" style="font-family:'Montserrat-Regular'; font-size:13px;">x </tspan></text>
<path class="st14" d="M655.508,11.914c3.707,0,6.713-3.005,6.713-6.712c0-3.708-3.006-6.713-6.713-6.713
	c-3.707,0-6.712,3.005-6.712,6.713C648.796,8.909,651.801,11.914,655.508,11.914z"/>
<rect x="533.008" y="-36.045" class="st9" width="245" height="57.75"/>
<line class="st15" x1="655.508" y1="1.667" x2="655.508" y2="8.736"/>
<line class="st15" x1="651.974" y1="5.233" x2="659.042" y2="5.233"/>
<path class="st14" d="M544.547,51.749c3.707,0,6.713-3.005,6.713-6.712c0-3.708-3.006-6.713-6.713-6.713
	c-3.707,0-6.712,3.005-6.712,6.713C537.835,48.744,540.84,51.749,544.547,51.749z"/>
<line class="st15" x1="544.547" y1="41.502" x2="544.547" y2="48.571"/>
<line class="st15" x1="541.013" y1="45.068" x2="548.081" y2="45.068"/>
<g>
	<path class="st16" d="M48.654,66.884h-3.138v-1.85h8.544v1.85h-3.138v7.956h-2.269V66.884z"/>
	<path class="st16" d="M55.275,65.035h2.269v9.806h-2.269V65.035z"/>
	<path class="st16" d="M68.369,68.593c0,2.185-1.639,3.544-4.258,3.544h-1.975v2.703h-2.269v-9.806h4.244
		C66.731,65.035,68.369,66.394,68.369,68.593z M66.072,68.593c0-1.079-0.701-1.709-2.087-1.709h-1.849v3.403h1.849
		C65.372,70.288,66.072,69.658,66.072,68.593z"/>
	<path class="st16" d="M78.491,68.593c0,2.185-1.639,3.544-4.258,3.544h-1.975v2.703h-2.269v-9.806h4.244
		C76.853,65.035,78.491,66.394,78.491,68.593z M76.194,68.593c0-1.079-0.701-1.709-2.087-1.709h-1.849v3.403h1.849
		C75.494,70.288,76.194,69.658,76.194,68.593z"/>
</g>
<path class="st16" d="M12.027,60.563L12.027,60.563c-1.054,2.474-1.96,4.602-2.889,6.784h5.729
	C13.923,65.091,13.041,62.983,12.027,60.563 M15.52,78.153L15.52,78.153c-0.346-1.15-0.211-1.759,1.044-1.8
	c0.976-0.033,1.343-0.74,1.02-1.64c-0.507-1.414-1.072-2.81-1.681-4.183c-0.109-0.245-0.55-0.478-0.843-0.484
	c-2.129-0.041-4.261-0.046-6.39,0.005c-0.305,0.008-0.741,0.315-0.877,0.599c-0.558,1.155-1.057,2.342-1.512,3.542
	c-0.57,1.504-0.268,2.026,1.348,2.192c0.783,0.081,1.206,0.319,1.022,1.126c-0.056,0.243-0.355,0.61-0.547,0.613
	c-2.524,0.042-5.049,0.028-7.596,0.028c-0.214-0.956-0.321-1.631,0.868-1.885c0.569-0.122,1.219-0.609,1.515-1.117
	c0.755-1.293,1.377-2.67,1.972-4.049c2.401-5.559,4.761-11.135,7.172-16.689c0.173-0.398,0.634-0.67,0.96-1
	c0.319,0.343,0.766,0.632,0.937,1.037c2.56,6.048,5.079,12.114,7.622,18.17c0.326,0.776,0.705,1.534,1.106,2.275
	c0.507,0.939,1.332,1.389,2.379,1.595c0.265,0.052,0.519,0.638,0.586,1.013c0.032,0.175-0.39,0.621-0.611,0.624
	C21.862,78.166,18.709,78.153,15.52,78.153"/>
<path class="st4" d="M109.265,70.615c2.682-0.014,4.762-2.036,4.751-4.621c-0.01-2.367-2.203-4.406-4.733-4.399
	c-2.703,0.008-4.848,2.038-4.825,4.568C104.481,68.627,106.641,70.628,109.265,70.615 M114.82,70.628L114.82,70.628
	c0.393-0.231,0.569-0.207,0.91,0.115c1.249,1.181,2.501,2.361,3.751,3.541c0.086,0.08,0.173,0.159,0.252,0.246
	c0.216,0.237,0.217,0.464-0.012,0.692c-0.249,0.248-0.509,0.488-0.767,0.727c-0.302,0.28-0.548,0.287-0.855,0
	c-1.177-1.103-2.348-2.211-3.522-3.318c-0.132-0.124-0.263-0.25-0.396-0.373c-0.368-0.34-0.394-0.487-0.153-0.896
	c-0.368-0.336-0.737-0.673-1.128-1.029c-1.472,1.07-3.153,1.471-5.011,1.06c-1.415-0.313-2.544-1.054-3.377-2.178
	c-1.65-2.23-1.286-5.335,0.823-7.11c2.222-1.87,5.521-1.904,7.68-0.117c2.217,1.835,2.765,5.106,0.696,7.583
	C114.081,69.924,114.45,70.275,114.82,70.628"/>
<path class="st17" d="M109.265,70.615c2.682-0.014,4.762-2.036,4.751-4.621c-0.01-2.367-2.203-4.406-4.733-4.399
	c-2.703,0.008-4.848,2.038-4.825,4.568C104.481,68.627,106.641,70.628,109.265,70.615z M114.82,70.628L114.82,70.628
	c0.393-0.231,0.569-0.207,0.91,0.115c1.249,1.181,2.501,2.361,3.751,3.541c0.086,0.08,0.173,0.159,0.252,0.246
	c0.216,0.237,0.217,0.464-0.012,0.692c-0.249,0.248-0.509,0.488-0.767,0.727c-0.302,0.28-0.548,0.287-0.855,0
	c-1.177-1.103-2.348-2.211-3.522-3.318c-0.132-0.124-0.263-0.25-0.396-0.373c-0.368-0.34-0.394-0.487-0.153-0.896
	c-0.368-0.336-0.737-0.673-1.128-1.029c-1.472,1.07-3.153,1.471-5.011,1.06c-1.415-0.313-2.544-1.054-3.377-2.178
	c-1.65-2.23-1.286-5.335,0.823-7.11c2.222-1.87,5.521-1.904,7.68-0.117c2.217,1.835,2.765,5.106,0.696,7.583
	C114.081,69.924,114.45,70.275,114.82,70.628z"/>
<path class="st4" d="M172.979,61.035l2.966,2.98v-2.758c0-0.096-0.055-0.229-0.123-0.297l-3.807-3.826
	c-0.068-0.067-0.178-0.067-0.245,0l-3.93,3.949v2.758c0,0.096,0.055,0.119,0.122,0.051l2.844-2.857
	c0.068-0.068,0.122-0.046,0.122,0.05v7.829h0v2.168c0,0.096-0.055,0.118-0.123,0.05l-2.966-2.98v2.758
	c0,0.096,0.055,0.229,0.123,0.297l3.807,3.826c0.068,0.067,0.178,0.067,0.245,0l3.93-3.949v-2.758c0-0.096-0.055-0.119-0.122-0.051
	l-2.844,2.857c-0.068,0.068-0.122,0.046-0.122-0.05v-7.829h0v-2.168C172.856,60.989,172.911,60.967,172.979,61.035z"/>
<line class="st18" x1="136.84" y1="74.271" x2="164.673" y2="74.271"/>
<line class="st18" x1="136.84" y1="65.975" x2="164.673" y2="65.975"/>
<line class="st18" x1="136.84" y1="57.983" x2="164.673" y2="57.983"/>
<line class="st18" x1="151.182" y1="93.242" x2="151.182" y2="114.242"/>
<path class="st4" d="M158.642,107.085L158.642,107.085h2.695l-2.603-2.569c-0.138-0.135-0.093-0.245,0.101-0.245h7.006v-1.407
	c0-0.193-0.157-0.35-0.35-0.35h-6.656c-0.194,0-0.239-0.11-0.101-0.246l2.603-2.569h-2.345c-0.193,0-0.462,0.111-0.599,0.246
	l-3.245,3.201c-0.137,0.136-0.137,0.356,0,0.492L158.642,107.085z"/>
<path class="st4" d="M142.872,99.874L142.872,99.874h-2.695l2.603,2.569c0.138,0.135,0.093,0.245-0.101,0.245h-7.006v1.407
	c0,0.193,0.157,0.35,0.35,0.35h6.656c0.194,0,0.239,0.11,0.101,0.246l-2.603,2.569h2.345c0.193,0,0.462-0.111,0.599-0.246
	l3.245-3.201c0.137-0.136,0.137-0.356,0-0.492L142.872,99.874z"/>
<line class="st19" x1="467.468" y1="-25.871" x2="431.445" y2="-25.871"/>
<path class="st20" d="M458.965-22.724c2.045,0,3.703-1.658,3.703-3.703s-1.658-3.703-3.703-3.703c-2.045,0-3.703,1.658-3.703,3.703
	S456.92-22.724,458.965-22.724"/>
<g>
	<path class="st4" d="M482.164-25.669c0,3.12-1.82,4.836-4.459,4.836c-0.91,0-1.781-0.195-2.392-0.585l0.624-1.274
		c0.494,0.325,1.092,0.442,1.729,0.442c1.716,0,2.795-1.066,2.795-3.133v-0.014c-0.546,0.638-1.417,0.949-2.431,0.949
		c-1.794,0-3.133-1.092-3.133-2.795c0-1.807,1.469-2.951,3.328-2.951C480.708-30.194,482.164-28.594,482.164-25.669z
		 M480.201-27.334c0-0.858-0.676-1.534-1.885-1.534c-1.053,0-1.781,0.598-1.781,1.547s0.715,1.547,1.82,1.547
		C479.447-25.774,480.201-26.437,480.201-27.334z"/>
	<path class="st4" d="M490.029-23.758c0,1.599-1.157,2.925-3.602,2.925c-1.287,0-2.587-0.39-3.419-1.053l0.715-1.313
		c0.663,0.546,1.651,0.897,2.678,0.897c1.209,0,1.924-0.533,1.924-1.392c0-0.871-0.559-1.417-2.444-1.417h-2.197l0.468-4.953h5.343
		v1.417h-3.913l-0.195,2.106h0.871C488.95-26.541,490.029-25.371,490.029-23.758z"/>
	<path class="st4" d="M494.449-27.659c0-1.495,0.871-2.496,2.171-2.496s2.184,0.988,2.184,2.496s-0.884,2.496-2.184,2.496
		S494.449-26.164,494.449-27.659z M497.738-27.659c0-1.014-0.416-1.586-1.118-1.586c-0.676,0-1.118,0.585-1.118,1.586
		s0.442,1.586,1.118,1.586C497.322-26.073,497.738-26.645,497.738-27.659z M502.08-30.064h1.274l-6.214,9.101h-1.274L502.08-30.064z
		 M500.416-23.369c0-1.495,0.871-2.496,2.171-2.496c1.3,0,2.184,1.001,2.184,2.496s-0.884,2.496-2.184,2.496
		C501.287-20.873,500.416-21.874,500.416-23.369z M503.705-23.369c0-1.001-0.429-1.586-1.118-1.586s-1.118,0.572-1.118,1.586
		c0,1.015,0.429,1.586,1.118,1.586S503.705-22.368,503.705-23.369z"/>
</g>
<rect x="445.405" y="28.273" class="st11" width="13.149" height="16.764"/>
<polygon class="st21" points="445.405,45.036 445.405,45.036 458.554,45.036 458.554,28.272 445.405,28.272 "/>
<rect x="437.733" y="27.802" class="st9" width="21.291" height="24"/>
<line class="st22" x1="442.231" y1="35.968" x2="442.231" y2="46.355"/>
<line class="st23" x1="444.862" y1="48.244" x2="454.511" y2="48.244"/>
<path class="st21" d="M455.388,48.244h0.877 M442.231,47.3v0.944h0.877 M442.231,33.135v0.944"/>
<polyline class="st21" points="438.204,36.223 438.204,51.331 452.238,51.331 "/>
<rect x="437.733" y="27.802" class="st9" width="21.291" height="24"/>
<rect x="476.979" y="28.204" class="st11" width="14.674" height="18.705"/>
<polygon class="st24" points="476.979,46.908 476.979,46.908 491.652,46.908 491.652,28.203 476.979,28.203 "/>
<rect x="476.577" y="27.802" class="st9" width="19.884" height="24"/>
<rect x="481.386" y="32.695" class="st4" width="14.674" height="18.705"/>
<polygon class="st25" points="481.386,51.4 481.386,51.4 496.059,51.4 496.059,32.695 481.386,32.695 "/>
<rect x="476.577" y="27.802" class="st9" width="19.884" height="24"/>
<rect x="378.086" y="31.751" class="st10" width="34.924" height="19.551"/>
<text transform="matrix(1 0 0 1 385.0867 46.4019)"><tspan x="0" y="0" class="st11" style="font-family:'Montserrat-Regular'; font-size:13px;">e</tspan><tspan x="7.41" y="0" class="st11" style="font-family:'Montserrat-Regular'; font-size:13px;">i</tspan><tspan x="10.335" y="0" class="st11" style="font-family:'Montserrat-Regular'; font-size:13px;">n</tspan></text>
<polygon class="st6" points="343.078,31.626 343.078,51.626 343.078,51.876 343.328,51.876 412.177,51.876 412.427,51.876 
	412.427,51.626 412.427,31.626 412.427,31.376 412.177,31.376 343.328,31.376 343.078,31.376 "/>
<rect x="342.828" y="31.126" class="st9" width="70.183" height="21"/>
<line class="st26" x1="484.142" y1="121.265" x2="484.142" y2="145.525"/>
<path class="st4" d="M492.24,137.083L492.24,137.083h2.592l-2.494-2.46c-0.138-0.135-0.093-0.245,0.101-0.245h6.725v-1.339
	c0-0.193-0.157-0.35-0.35-0.35h-6.725l2.743-2.705h-2.242c-0.193,0-0.462,0.11-0.599,0.245l-3.102,3.059
	c-0.137,0.135-0.137,0.355,0,0.491L492.24,137.083z"/>
<line class="st26" x1="457.197" y1="145.358" x2="457.197" y2="121.098"/>
<path class="st4" d="M449.1,129.539L449.1,129.539h-2.592l2.494,2.46c0.138,0.135,0.093,0.245-0.101,0.245h-6.725v1.339
	c0,0.193,0.157,0.35,0.35,0.35h6.725l-2.743,2.705h2.242c0.193,0,0.462-0.11,0.599-0.245l3.102-3.059
	c0.137-0.135,0.137-0.355,0-0.491L449.1,129.539z"/>
<line class="st26" x1="267.455" y1="129.136" x2="291.715" y2="129.136"/>
<path class="st4" d="M283.106,121.078L283.106,121.078v-2.592l-2.46,2.494c-0.135,0.138-0.245,0.093-0.245-0.101v-6.725h-1.339
	c-0.193,0-0.35,0.157-0.35,0.35v6.725l-2.705-2.743v2.242c0,0.193,0.11,0.462,0.245,0.599l3.059,3.102
	c0.135,0.137,0.355,0.137,0.491,0L283.106,121.078z"/>
<path class="st4" d="M276.174,136.23L276.174,136.23v2.592l2.46-2.494c0.135-0.138,0.245-0.093,0.245,0.101v6.725h1.339
	c0.193,0,0.35-0.157,0.35-0.35v-6.725l2.705,2.743v-2.242c0-0.193-0.11-0.462-0.245-0.599l-3.059-3.102
	c-0.135-0.137-0.355-0.137-0.491,0L276.174,136.23z"/>
<line class="st26" x1="323.901" y1="141.947" x2="323.901" y2="117.687"/>
<path class="st4" d="M315.844,126.296L315.844,126.296h-2.592l2.494,2.46c0.138,0.135,0.093,0.245-0.101,0.245h-6.725v1.339
	c0,0.193,0.157,0.35,0.35,0.35h6.725l-2.743,2.705h2.242c0.193,0,0.462-0.11,0.599-0.245l3.102-3.059
	c0.137-0.135,0.137-0.355,0-0.491L315.844,126.296z"/>
<path class="st4" d="M330.996,133.228L330.996,133.228h2.592l-2.494-2.46c-0.138-0.135-0.093-0.245,0.101-0.245h6.725v-1.339
	c0-0.193-0.157-0.35-0.35-0.35h-6.725l2.743-2.705h-2.242c-0.193,0-0.462,0.11-0.599,0.245l-3.102,3.059
	c-0.137,0.135-0.137,0.355,0,0.491L330.996,133.228z"/>
<line class="st26" x1="356.043" y1="129.419" x2="380.303" y2="129.419"/>
<path class="st4" d="M364.762,136.514L364.762,136.514v2.592l2.46-2.494c0.135-0.138,0.245-0.093,0.245,0.101v6.725h1.339
	c0.193,0,0.35-0.157,0.35-0.35v-6.725l2.705,2.743v-2.242c0-0.193-0.11-0.462-0.245-0.599l-3.059-3.102
	c-0.135-0.137-0.355-0.137-0.491,0L364.762,136.514z"/>
<line class="st26" x1="401.154" y1="140.675" x2="425.414" y2="140.675"/>
<path class="st4" d="M416.973,132.286L416.973,132.286v-2.592l-2.46,2.494c-0.135,0.138-0.245,0.093-0.245-0.101v-6.725h-1.339
	c-0.193,0-0.35,0.157-0.35,0.35v6.725l-2.705-2.743v2.242c0,0.193,0.11,0.462,0.245,0.599l3.059,3.102
	c0.135,0.137,0.355,0.137,0.491,0L416.973,132.286z"/>
<rect x="547.018" y="113.749" class="st11" width="15.769" height="20.056"/>
<line class="st27" x1="549.975" y1="133.805" x2="560.816" y2="133.805"/>
<line class="st28" x1="562.787" y1="130.796" x2="562.787" y2="115.754"/>
<line class="st27" x1="559.83" y1="113.749" x2="548.989" y2="113.749"/>
<line class="st28" x1="547.018" y1="116.757" x2="547.018" y2="131.799"/>
<path class="st21" d="M547.017,132.802v1.003h0.986 M548.003,113.749h-0.986v1.003 M562.786,114.752v-1.003h-0.985 M561.801,133.805
	h0.985v-1.003"/>
<polygon class="st11" points="535.782,143.805 535.782,143.805 551.551,143.805 551.551,123.749 535.782,123.749 "/>
<line class="st27" x1="538.739" y1="143.805" x2="549.58" y2="143.805"/>
<line class="st28" x1="551.551" y1="140.796" x2="551.551" y2="125.754"/>
<line class="st27" x1="548.594" y1="123.749" x2="537.753" y2="123.749"/>
<line class="st28" x1="535.782" y1="126.757" x2="535.782" y2="141.799"/>
<path class="st21" d="M535.781,142.802v1.003h0.986 M536.768,123.749h-0.986v1.003 M551.55,124.752v-1.003h-0.985 M550.565,143.805
	h0.985v-1.003"/>
<polygon class="st11" points="526.308,151.805 526.308,151.805 542.077,151.805 542.077,131.749 526.308,131.749 "/>
<polygon class="st21" points="526.308,151.805 526.308,151.805 542.077,151.805 542.077,131.749 526.308,131.749 "/>
<g>
	<polygon class="st11" points="600.144,138.11 600.144,138.11 615.913,138.11 615.913,118.054 600.144,118.054 	"/>
	<polygon class="st21" points="600.144,138.11 600.144,138.11 615.913,138.11 615.913,118.054 600.144,118.054 	"/>
	<line class="st29" x1="596.38" y1="126.609" x2="596.38" y2="140.113"/>
	<line class="st30" x1="599.517" y1="141.914" x2="611.02" y2="141.914"/>
	<path class="st21" d="M612.065,141.913h1.046 M596.38,141.013v0.9h1.046 M596.38,123.908v0.9"/>
</g>
<g>
	<g>
		<rect x="672.684" y="106.334" class="st11" width="15.769" height="20.056"/>
		<polygon class="st21" points="672.684,126.39 672.684,126.39 688.453,126.39 688.453,106.334 672.684,106.334 		"/>
		<polygon class="st11" points="661.448,136.39 661.448,136.39 677.217,136.39 677.217,116.334 661.448,116.334 		"/>
		<line class="st27" x1="664.405" y1="136.39" x2="675.246" y2="136.39"/>
		<line class="st28" x1="677.217" y1="133.382" x2="677.217" y2="118.34"/>
		<line class="st27" x1="674.26" y1="116.334" x2="663.419" y2="116.334"/>
		<line class="st28" x1="661.448" y1="119.342" x2="661.448" y2="134.384"/>
		<path class="st21" d="M661.447,135.387v1.003h0.986 M662.433,116.334h-0.986v1.003 M677.216,117.337v-1.003h-0.985
			 M676.231,136.39h0.985v-1.003"/>
		<polygon class="st11" points="651.974,144.39 651.974,144.39 667.743,144.39 667.743,124.334 651.974,124.334 		"/>
		<line class="st27" x1="654.931" y1="144.39" x2="665.772" y2="144.39"/>
		<line class="st28" x1="667.743" y1="141.382" x2="667.743" y2="126.34"/>
		<line class="st27" x1="664.787" y1="124.334" x2="653.946" y2="124.334"/>
		<line class="st28" x1="651.974" y1="127.342" x2="651.974" y2="142.384"/>
		<path class="st21" d="M651.974,143.387v1.003h0.986 M652.96,124.334h-0.986v1.003 M667.743,125.337v-1.003h-0.985 M666.758,144.39
			h0.985v-1.003"/>
	</g>
	<line class="st27" x1="728.098" y1="139.875" x2="738.939" y2="139.875"/>
	<line class="st28" x1="740.91" y1="136.867" x2="740.91" y2="121.825"/>
	<line class="st27" x1="737.953" y1="119.819" x2="727.112" y2="119.819"/>
	<line class="st28" x1="725.141" y1="122.828" x2="725.141" y2="137.87"/>
	<path class="st21" d="M725.14,138.872v1.003h0.986 M726.126,119.819h-0.986v1.003 M740.909,120.822v-1.003h-0.985 M739.924,139.875
		h0.985v-1.003"/>
	<polyline class="st21" points="721.377,125.673 721.377,143.678 738.107,143.678 	"/>
</g>
<g>
	<defs>
		<rect id="SVGID_1_" x="-33.898" y="233.711" width="241.682" height="1"/>
	</defs>
	<clipPath id="SVGID_00000013900975543841575430000004694808150031071676_">
		<use xlink:href="#SVGID_1_"  style="overflow:visible;"/>
	</clipPath>
	
		<line style="clip-path:url(#SVGID_00000013900975543841575430000004694808150031071676_);fill:none;stroke:#B2B2B2;stroke-linecap:round;stroke-linejoin:round;stroke-dasharray:0,3.009;" x1="-30.39" y1="234.211" x2="205.78" y2="234.211"/>
	
		<path style="clip-path:url(#SVGID_00000013900975543841575430000004694808150031071676_);fill:none;stroke:#B2B2B2;stroke-linecap:round;stroke-linejoin:round;" d="
		M207.284,234.211L207.284,234.211 M-33.398,234.211L-33.398,234.211"/>
</g>
<circle class="st33" cx="13" cy="13" r="12.75"/>
<polygon class="st3" points="156.393,-2.023 143.393,-2.023 149.761,8.452 "/>
<polygon class="st4" points="164.416,126.518 153.941,132.886 164.416,139.518 "/>
<polygon class="st4" points="135.369,139.518 145.844,133.15 135.369,126.518 "/>
<polygon class="st4" points="217.923,126.518 207.448,132.886 217.923,139.518 "/>
<polygon class="st4" points="182.746,139.518 193.221,133.15 182.746,126.518 "/>
<rect x="342.995" y="-2.012" class="st10" width="34.924" height="19.551"/>
<polygon class="st6" points="343.245,-2.137 343.245,17.863 343.245,18.113 343.495,18.113 412.344,18.113 412.594,18.113 
	412.594,17.863 412.594,-2.137 412.594,-2.387 412.344,-2.387 343.495,-2.387 343.245,-2.387 "/>
<rect x="342.995" y="-2.637" class="st9" width="69.849" height="21"/>
<rect x="378.359" y="64.016" class="st10" width="34.924" height="19.551"/>
<polygon class="st6" points="343.351,63.891 343.351,83.891 343.351,84.141 343.601,84.141 412.45,84.141 412.7,84.141 
	412.7,83.891 412.7,63.891 412.7,63.641 412.45,63.641 343.601,63.641 343.351,63.641 "/>
<rect x="343.101" y="63.391" class="st9" width="70.183" height="21"/>
<line class="st19" x1="466.391" y1="-6.083" x2="430.367" y2="-6.083"/>
<path class="st20" d="M457.888-2.937c2.045,0,3.703-1.658,3.703-3.703s-1.658-3.703-3.703-3.703c-2.045,0-3.703,1.658-3.703,3.703
	S455.842-2.937,457.888-2.937"/>
</svg>
