<?xml version="1.0" encoding="utf-8"?>
<!-- Generator: Adobe Illustrator 26.0.3, SVG Export Plug-In . SVG Version: 6.00 Build 0)  -->
<svg version="1.1" id="Ebene_1" xmlns="http://www.w3.org/2000/svg" xmlns:xlink="http://www.w3.org/1999/xlink" x="0px" y="0px"
	 width="26.993px" height="26.993px" viewBox="0 0 26.993 26.993" style="enable-background:new 0 0 26.993 26.993;"
	 xml:space="preserve">
<style type="text/css">
	.st0{fill:none;stroke:#C5C5C5;stroke-width:3;stroke-linecap:round;stroke-linejoin:round;}
	.st1{fill:#FFAEFF;stroke:#4F4D4D;stroke-width:0.5;}
	.st2{fill:#F8F8F8;}
	.st3{fill:#0E689A;}
	.st4{fill:none;stroke:#B2B1B1;stroke-width:0.65;stroke-miterlimit:10;}
	.st5{fill:#B2B1B1;}
	.st6{fill:none;stroke:#B2B2B2;stroke-width:0.5;stroke-miterlimit:10;}
	.st7{fill:none;stroke:#B2B1B1;stroke-width:0.3;stroke-miterlimit:10;}
	.st8{fill:none;stroke:#FFFFFF;stroke-width:0.021;}
	.st9{fill:none;}
	.st10{fill:#0E6899;}
	.st11{fill:#FFFFFF;}
	.st12{fill:none;stroke:#C5C5C5;stroke-width:0.5;stroke-linecap:round;stroke-linejoin:round;}
	.st13{fill:#C5C5C5;}
	.st14{fill:none;stroke:#B2B1B1;stroke-width:0.5;}
	.st15{fill:none;stroke:#B2B1B1;stroke-width:1.2;}
	.st16{fill:#B2B2B2;}
	.st17{fill:none;stroke:#FFFFFF;stroke-width:0.001;}
	.st18{fill:none;stroke:#B2B1B1;stroke-width:1.712;}
	.st19{fill:none;stroke:#B2B1B1;stroke-width:2;}
	.st20{fill:#AD5E7A;}
	.st21{fill:none;stroke:#B2B1B1;stroke-width:0.941;}
	.st22{fill:none;stroke:#B2B1B1;stroke-width:0.941;stroke-dasharray:1.889,1.889;}
	.st23{fill:none;stroke:#B2B1B1;stroke-width:0.941;stroke-dasharray:1.754,1.754;}
	.st24{fill:none;stroke:#B2B1B1;stroke-width:0.804;}
	.st25{fill:none;stroke:#FFFFFF;stroke-width:0.804;}
	.st26{fill:none;stroke:#B2B1B1;stroke-width:2.5;}
	.st27{fill:none;stroke:#B2B1B1;stroke-width:0.941;stroke-dasharray:1.971,1.971;}
	.st28{fill:none;stroke:#B2B1B1;stroke-width:0.941;stroke-dasharray:2.006,2.006;}
	.st29{fill:none;stroke:#B2B1B1;stroke-width:0.941;stroke-dasharray:1.801,1.801;}
	.st30{fill:none;stroke:#B2B1B1;stroke-width:0.941;stroke-dasharray:2.091,2.091;}
	
		.st31{clip-path:url(#SVGID_00000164473681302779590250000004181184705449079696_);fill:none;stroke:#B2B2B2;stroke-linecap:round;stroke-linejoin:round;stroke-dasharray:0,3.009;}
	
		.st32{clip-path:url(#SVGID_00000164473681302779590250000004181184705449079696_);fill:none;stroke:#B2B2B2;stroke-linecap:round;stroke-linejoin:round;}
	.st33{fill:none;stroke:#4F4D4D;stroke-width:0.5;}
</style>
<polyline class="st0" points="1753.785,940.623 1747.535,931.623 1740.785,940.623 "/>
<circle class="st1" cx="-238.108" cy="-22.125" r="12.75"/>
<rect x="-205.647" y="-33.14" class="st2" width="119.902" height="21"/>
<polygon class="st3" points="-94.818,-27.878 -107.818,-27.878 -101.45,-17.403 "/>
<g>
	<g>
		<line class="st4" x1="18.194" y1="-15.62" x2="28.477" y2="-15.62"/>
		<g>
			<path class="st5" d="M19.481-20.845v-5.175h1.3v5.122c0,2.016,0.923,2.926,2.561,2.926c1.638,0,2.574-0.91,2.574-2.926v-5.122
				h1.261v5.175c0,2.639-1.443,4.029-3.848,4.029C20.937-16.816,19.481-18.207,19.481-20.845z"/>
		</g>
	</g>
	<polygon class="st6" points="10.086,-33.82 10.086,-7.82 10.086,-7.57 10.336,-7.57 36.336,-7.57 36.586,-7.57 36.586,-7.82 
		36.586,-33.82 36.586,-34.07 36.336,-34.07 10.336,-34.07 10.086,-34.07 	"/>
</g>
<g>
	<g>
		<path class="st5" d="M-11.268-25.747h1.3l-1.82,9.101h-1.3L-11.268-25.747z"/>
	</g>
	<polygon class="st6" points="-24.779,-34.196 -24.779,-8.196 -24.779,-7.946 -24.529,-7.946 1.471,-7.946 1.721,-7.946 
		1.721,-8.196 1.721,-34.196 1.721,-34.446 1.471,-34.446 -24.529,-34.446 -24.779,-34.446 	"/>
</g>
<g>
	<g>
		<path class="st5" d="M-44.417-19.078c0,1.573-1.248,2.483-3.64,2.483h-4.706v-9.101h4.446c2.275,0,3.445,0.949,3.445,2.366
			c0,0.91-0.468,1.612-1.209,2.002C-45.067-21.002-44.417-20.221-44.417-19.078z M-50.67-24.109v2.146h2.093
			c1.027,0,1.586-0.364,1.586-1.079s-0.559-1.066-1.586-1.066H-50.67z M-46.536-19.298c0-0.767-0.585-1.131-1.677-1.131h-2.457
			v2.249h2.457C-47.121-18.18-46.536-18.518-46.536-19.298z"/>
	</g>
	<polygon class="st6" points="-61.84,-34.145 -61.84,-8.145 -61.84,-7.895 -61.59,-7.895 -35.59,-7.895 -35.34,-7.895 
		-35.34,-8.145 -35.34,-34.145 -35.34,-34.395 -35.59,-34.395 -61.59,-34.395 -61.84,-34.395 	"/>
</g>
<path class="st7" d="M-7.652,7.809"/>
<path class="st7" d="M-10.16,9.063"/>
<path class="st7" d="M-10.16,10.317"/>
<path class="st7" d="M-10.16,11.571"/>
<path class="st7" d="M-7.652,12.825"/>
<path class="st7" d="M-7.652,14.079"/>
<path class="st7" d="M-10.16,15.333"/>
<path class="st7" d="M-10.16,17.841"/>
<path class="st7" d="M-7.652,20.349"/>
<g>
	<path class="st7" d="M-27.116,12.825"/>
	<path class="st7" d="M-27.116,7.809"/>
	<path class="st7" d="M-27.116,20.349"/>
	<path class="st7" d="M-27.116,14.079"/>
	<g>
		<path class="st7" d="M-25.054,15.333"/>
		<path class="st7" d="M-25.054,11.571"/>
		<path class="st7" d="M-25.054,10.317"/>
		<path class="st7" d="M-25.054,9.063"/>
		<line class="st7" x1="-27.492" y1="19.554" x2="-8.028" y2="19.554"/>
		<line class="st7" x1="-27.492" y1="18.278" x2="-12.598" y2="18.278"/>
		<line class="st7" x1="-27.492" y1="17.002" x2="-12.598" y2="17.002"/>
		<line class="st7" x1="-27.492" y1="15.726" x2="-12.598" y2="15.726"/>
		<line class="st7" x1="-27.492" y1="14.45" x2="-8.028" y2="14.45"/>
		<line class="st7" x1="-27.492" y1="13.174" x2="-8.028" y2="13.174"/>
		<line class="st7" x1="-27.419" y1="11.898" x2="-12.525" y2="11.898"/>
		<line class="st7" x1="-27.492" y1="10.623" x2="-8.028" y2="10.623"/>
		<line class="st7" x1="-27.492" y1="9.347" x2="-12.598" y2="9.347"/>
		<line class="st7" x1="-27.492" y1="8.07" x2="-12.598" y2="8.07"/>
		<line class="st7" x1="-27.492" y1="6.795" x2="-8.028" y2="6.795"/>
	</g>
	<polygon class="st6" points="-30.819,0.5 -30.819,26.493 -30.819,26.743 -30.569,26.743 -4.576,26.743 -4.326,26.743 
		-4.326,26.493 -4.326,0.5 -4.326,0.25 -4.576,0.25 -30.569,0.25 -30.819,0.25 	"/>
</g>
<g>
	<g>
		<line class="st7" x1="23.229" y1="7.111" x2="3.764" y2="7.111"/>
		<line class="st7" x1="20.72" y1="8.388" x2="5.826" y2="8.388"/>
		<line class="st7" x1="20.72" y1="9.665" x2="5.826" y2="9.665"/>
		<line class="st7" x1="20.72" y1="10.943" x2="5.826" y2="10.943"/>
		<line class="st7" x1="23.229" y1="12.219" x2="3.764" y2="12.219"/>
		<line class="st7" x1="23.229" y1="13.496" x2="3.764" y2="13.496"/>
		<line class="st7" x1="20.72" y1="14.774" x2="5.826" y2="14.774"/>
		<line class="st7" x1="23.229" y1="16.051" x2="3.764" y2="16.051"/>
		<line class="st7" x1="20.72" y1="17.328" x2="5.826" y2="17.328"/>
		<line class="st7" x1="20.72" y1="18.605" x2="5.826" y2="18.605"/>
		<line class="st7" x1="23.229" y1="19.882" x2="3.764" y2="19.882"/>
	</g>
	<polygon class="st6" points="0.25,0.5 0.25,26.493 0.25,26.743 0.5,26.743 26.493,26.743 26.743,26.743 26.743,26.493 26.743,0.5 
		26.743,0.25 26.493,0.25 0.5,0.25 0.25,0.25 	"/>
</g>
<polygon class="st6" points="31.319,0.5 31.319,26.493 31.319,26.743 31.569,26.743 57.562,26.743 57.812,26.743 57.812,26.493 
	57.812,0.5 57.812,0.25 57.562,0.25 31.569,0.25 31.319,0.25 "/>
<path class="st7" d="M34.646,19.184"/>
<path class="st7" d="M34.646,14.168"/>
<path class="st7" d="M34.646,12.914"/>
<path class="st7" d="M34.646,6.645"/>
<path class="st7" d="M52.048,11.66"/>
<path class="st7" d="M54.11,14.168"/>
<path class="st7" d="M52.048,15.422"/>
<path class="st7" d="M54.11,19.184"/>
<path class="st7" d="M54.11,6.645"/>
<path class="st7" d="M54.11,12.914"/>
<path class="st7" d="M52.048,16.676"/>
<path class="st7" d="M52.048,17.93"/>
<g>
	<path class="st7" d="M36.965,17.608"/>
	<path class="st7" d="M36.965,16.354"/>
	<path class="st7" d="M36.965,15.1"/>
	<path class="st7" d="M36.965,11.338"/>
	<path class="st7" d="M36.965,8.83"/>
	<line class="st7" x1="54.297" y1="7.117" x2="34.833" y2="7.117"/>
	<line class="st7" x1="54.297" y1="8.392" x2="39.403" y2="8.392"/>
	<line class="st7" x1="54.297" y1="9.668" x2="39.403" y2="9.668"/>
	<line class="st7" x1="54.297" y1="10.945" x2="39.403" y2="10.945"/>
	<line class="st7" x1="54.297" y1="12.221" x2="34.833" y2="12.221"/>
	<line class="st7" x1="54.297" y1="13.496" x2="34.833" y2="13.496"/>
	<line class="st7" x1="54.224" y1="14.772" x2="39.33" y2="14.772"/>
	<line class="st7" x1="54.297" y1="16.048" x2="34.833" y2="16.048"/>
	<line class="st7" x1="54.297" y1="17.324" x2="39.403" y2="17.324"/>
	<line class="st7" x1="54.297" y1="18.601" x2="39.403" y2="18.601"/>
	<line class="st7" x1="54.297" y1="19.876" x2="34.833" y2="19.876"/>
</g>
<polygon class="st6" points="-61.59,0.507 -61.59,26.5 -61.59,26.75 -61.34,26.75 -35.347,26.75 -35.097,26.75 -35.097,26.5 
	-35.097,0.507 -35.097,0.257 -35.347,0.257 -61.34,0.257 -61.59,0.257 "/>
<path class="st7" d="M-38.423,7.809"/>
<path class="st7" d="M-38.423,12.825"/>
<path class="st7" d="M-38.423,14.079"/>
<path class="st7" d="M-38.423,20.349"/>
<path class="st7" d="M-55.825,15.333"/>
<path class="st7" d="M-57.887,12.825"/>
<path class="st7" d="M-55.825,11.571"/>
<path class="st7" d="M-57.887,7.809"/>
<path class="st7" d="M-57.887,20.349"/>
<path class="st7" d="M-57.887,14.079"/>
<path class="st7" d="M-55.825,10.317"/>
<path class="st7" d="M-55.825,9.063"/>
<g>
	<path class="st7" d="M-40.931,9.063"/>
	<path class="st7" d="M-40.931,10.317"/>
	<path class="st7" d="M-40.931,11.571"/>
	<path class="st7" d="M-40.931,15.333"/>
	<path class="st7" d="M-40.931,17.841"/>
	<line class="st7" x1="-58.263" y1="19.554" x2="-38.799" y2="19.554"/>
	<line class="st7" x1="-58.263" y1="18.278" x2="-38.799" y2="18.278"/>
	<line class="st7" x1="-58.263" y1="17.002" x2="-38.799" y2="17.002"/>
	<line class="st7" x1="-58.263" y1="15.726" x2="-38.799" y2="15.726"/>
	<line class="st7" x1="-58.263" y1="14.45" x2="-38.799" y2="14.45"/>
	<line class="st7" x1="-58.263" y1="13.174" x2="-38.799" y2="13.174"/>
	<line class="st7" x1="-58.19" y1="11.898" x2="-38.726" y2="11.898"/>
	<line class="st7" x1="-58.263" y1="10.623" x2="-38.799" y2="10.623"/>
	<line class="st7" x1="-58.263" y1="9.347" x2="-38.799" y2="9.347"/>
	<line class="st7" x1="-58.263" y1="8.07" x2="-38.799" y2="8.07"/>
	<line class="st7" x1="-58.263" y1="6.795" x2="-38.799" y2="6.795"/>
</g>
<path class="st5" d="M-231.147,115.655l-1.915,13.335c-0.058,0.402-0.431,0.682-0.834,0.624c-0.402-0.058-0.682-0.431-0.624-0.833
	l1.915-13.336c0.058-0.402,0.431-0.681,0.834-0.623C-231.369,114.88-231.089,115.252-231.147,115.655 M-237.964,129.73
	c-0.407,0.003-0.74-0.324-0.742-0.73l-0.106-13.472c-0.003-0.407,0.324-0.739,0.73-0.742c0.408-0.003,0.74,0.324,0.743,0.731
	l0.105,13.471C-237.231,129.395-237.558,129.727-237.964,129.73 M-242.035,129.677c-0.401,0.064-0.779-0.209-0.842-0.61
	l-2.124-13.304c-0.064-0.402,0.209-0.779,0.612-0.843c0.401-0.064,0.778,0.209,0.842,0.611l2.123,13.303
	C-241.36,129.236-241.633,129.613-242.035,129.677 M-228.252,113.269c-0.141-0.169-0.353-0.266-0.573-0.264l-18.538,0.144
	c-0.22,0.002-0.429,0.101-0.568,0.272c-0.14,0.17-0.196,0.393-0.155,0.609l3.092,16.141c0.068,0.351,0.376,0.605,0.734,0.602
	l12.497-0.098c0.356-0.002,0.66-0.258,0.724-0.608l2.949-16.188C-228.05,113.663-228.111,113.438-228.252,113.269"/>
<path class="st8" d="M-231.147,115.655l-1.915,13.335c-0.058,0.402-0.431,0.682-0.834,0.624c-0.402-0.058-0.682-0.431-0.624-0.833
	l1.915-13.336c0.058-0.402,0.431-0.681,0.834-0.623C-231.369,114.88-231.089,115.252-231.147,115.655z M-237.964,129.73
	c-0.407,0.003-0.74-0.324-0.742-0.73l-0.106-13.472c-0.003-0.407,0.324-0.739,0.73-0.742c0.408-0.003,0.74,0.324,0.743,0.731
	l0.105,13.471C-237.231,129.395-237.558,129.727-237.964,129.73z M-242.035,129.677c-0.401,0.064-0.779-0.209-0.842-0.61
	l-2.124-13.304c-0.064-0.402,0.209-0.779,0.612-0.843c0.401-0.064,0.778,0.209,0.842,0.611l2.123,13.303
	C-241.36,129.236-241.633,129.613-242.035,129.677z M-228.252,113.269c-0.141-0.169-0.353-0.266-0.573-0.264l-18.538,0.144
	c-0.22,0.002-0.429,0.101-0.568,0.272c-0.14,0.17-0.196,0.393-0.155,0.609l3.092,16.141c0.068,0.351,0.376,0.605,0.734,0.602
	l12.497-0.098c0.356-0.002,0.66-0.258,0.724-0.608l2.949-16.188C-228.05,113.663-228.111,113.438-228.252,113.269z"/>
<path class="st5" d="M-240.939,108.662L-240.939,108.662l-0.004-0.421l5.49-0.043l0.004,0.421L-240.939,108.662z M-227.202,110.072
	L-227.202,110.072l-2.025,0.016l-0.009-1.171c-0.001-0.091-0.038-0.18-0.103-0.244c-0.065-0.064-0.155-0.1-0.246-0.1l-4.467,0.035
	l-0.009-1.12c-0.002-0.184-0.077-0.363-0.209-0.492c-0.131-0.13-0.311-0.203-0.495-0.201l-6.887,0.054
	c-0.183,0.001-0.363,0.077-0.492,0.208c-0.129,0.131-0.202,0.312-0.2,0.496l0.009,1.12l-4.164,0.032
	c-0.091,0.001-0.18,0.039-0.243,0.104c-0.065,0.065-0.101,0.154-0.101,0.246l0.009,1.171l-2.197,0.017l0.017,2.225l21.829-0.17
	L-227.202,110.072z"/>
<path class="st8" d="M-240.939,108.662L-240.939,108.662l-0.004-0.421l5.49-0.043l0.004,0.421L-240.939,108.662z M-227.202,110.072
	L-227.202,110.072l-2.025,0.016l-0.009-1.171c-0.001-0.091-0.038-0.18-0.103-0.244c-0.065-0.064-0.155-0.1-0.246-0.1l-4.467,0.035
	l-0.009-1.12c-0.002-0.184-0.077-0.363-0.209-0.492c-0.131-0.13-0.311-0.203-0.495-0.201l-6.887,0.054
	c-0.183,0.001-0.363,0.077-0.492,0.208c-0.129,0.131-0.202,0.312-0.2,0.496l0.009,1.12l-4.164,0.032
	c-0.091,0.001-0.18,0.039-0.243,0.104c-0.065,0.065-0.101,0.154-0.101,0.246l0.009,1.171l-2.197,0.017l0.017,2.225l21.829-0.17
	L-227.202,110.072z"/>
<rect x="-249.042" y="106.784" class="st9" width="21.868" height="24"/>
<rect x="91.887" y="-33.984" class="st10" width="34.924" height="19.551"/>
<g>
	<path class="st11" d="M104.865-23.571v4.238h-0.884v-1.066c-0.416,0.702-1.222,1.132-2.354,1.132c-1.547,0-2.496-0.807-2.496-1.989
		c0-1.054,0.676-1.938,2.639-1.938h2.171v-0.416c0-1.17-0.663-1.807-1.938-1.807c-0.884,0-1.716,0.312-2.275,0.806l-0.416-0.688
		c0.689-0.585,1.703-0.924,2.782-0.924C103.864-26.223,104.865-25.338,104.865-23.571z M103.942-21.386v-1.118h-2.146
		c-1.326,0-1.755,0.52-1.755,1.222c0,0.793,0.637,1.287,1.729,1.287C102.81-19.996,103.577-20.49,103.942-21.386z"/>
	<path class="st11" d="M112.964-26.17v6.838h-0.884v-1.248c-0.481,0.832-1.365,1.313-2.458,1.313c-1.742,0-2.886-0.976-2.886-2.938
		v-3.965h0.923v3.874c0,1.456,0.754,2.197,2.054,2.197c1.43,0,2.327-0.924,2.327-2.483v-3.588H112.964z"/>
	<path class="st11" d="M114.263-20.113l0.416-0.728c0.546,0.429,1.469,0.767,2.431,0.767c1.3,0,1.833-0.441,1.833-1.118
		c0-1.78-4.433-0.377-4.433-3.081c0-1.118,0.962-1.95,2.704-1.95c0.884,0,1.846,0.247,2.418,0.638l-0.403,0.74
		c-0.598-0.416-1.313-0.585-2.015-0.585c-1.235,0-1.781,0.481-1.781,1.132c0,1.846,4.434,0.455,4.434,3.081
		c0,1.183-1.04,1.95-2.821,1.95C115.914-19.267,114.822-19.631,114.263-20.113z"/>
</g>
<polygon class="st6" points="92.137,-34.109 92.137,-14.109 92.137,-13.859 92.387,-13.859 161.236,-13.859 161.486,-13.859 
	161.486,-14.109 161.486,-34.109 161.486,-34.359 161.236,-34.359 92.387,-34.359 92.137,-34.359 "/>
<rect x="91.887" y="-34.609" class="st9" width="69.849" height="21"/>
<rect x="-312.51" y="172.721" class="st11" width="1014" height="21"/>
<path class="st3" d="M314.651,172.721c-2.209,0-4,1.791-4,4v12.382c0,2.209,1.791,4,4,4h77.131c2.209,0,4-1.791,4-4v-12.382
	c0-2.209-1.791-4-4-4H314.651z"/>
<rect x="-312.26" y="172.971" class="st12" width="1013.5" height="20.5"/>
<path class="st13" d="M685.346,175.581v1.481c0,0.397,0.187,0.771,0.505,1.009l6.367,4.762c0.258,0.194,0.258,0.583,0,0.776
	l-6.367,4.762c-0.318,0.238-0.505,0.612-0.505,1.01v1.48c0,0.41,0.467,0.644,0.795,0.399l10.111-7.563
	c0.318-0.237,0.318-0.714,0-0.952l-10.11-7.562C685.813,174.937,685.346,175.172,685.346,175.581"/>
<path class="st13" d="M-296.657,190.861v-1.481c0-0.397-0.187-0.771-0.505-1.009l-6.367-4.762c-0.258-0.194-0.258-0.583,0-0.776
	l6.367-4.762c0.318-0.238,0.505-0.612,0.505-1.01v-1.48c0-0.41-0.467-0.644-0.795-0.399l-10.111,7.563
	c-0.318,0.237-0.318,0.714,0,0.952l10.11,7.562C-297.124,191.505-296.657,191.27-296.657,190.861"/>
<rect x="-312.51" y="172.721" class="st9" width="1014" height="21"/>
<rect x="743.263" y="-71.824" class="st11" width="21" height="702.123"/>
<path class="st3" d="M743.263,342.137c0,2.209,1.791,4,4,4h12.382c2.209,0,4-1.791,4-4v-78.286c0-2.209-1.791-4-4-4h-12.382
	c-2.209,0-4,1.791-4,4V342.137z"/>
<rect x="743.513" y="-71.575" class="st12" width="20.5" height="701.624"/>
<path class="st13" d="M746.123-58.289h1.481c0.397,0,0.771-0.19,1.009-0.512l4.762-6.453c0.194-0.262,0.583-0.262,0.776,0
	l4.762,6.453c0.238,0.322,0.612,0.512,1.01,0.512h1.48c0.41,0,0.644-0.474,0.399-0.806l-7.563-10.248
	c-0.237-0.322-0.714-0.322-0.952,0l-7.562,10.248C745.479-58.763,745.714-58.289,746.123-58.289"/>
<path class="st13" d="M761.403,615.963h-1.481c-0.397,0-0.771,0.19-1.009,0.512l-4.762,6.453c-0.194,0.262-0.583,0.262-0.776,0
	l-4.762-6.453c-0.238-0.322-0.612-0.512-1.01-0.512h-1.48c-0.41,0-0.644,0.474-0.399,0.806l7.563,10.248
	c0.237,0.322,0.714,0.322,0.952,0l7.562-10.248C762.047,616.437,761.812,615.963,761.403,615.963"/>
<rect x="743.263" y="-71.825" class="st9" width="21" height="702.124"/>
<line class="st7" x1="22.287" y1="40.302" x2="9.27" y2="40.302"/>
<line class="st7" x1="22.287" y1="45.39" x2="9.27" y2="45.39"/>
<line class="st7" x1="22.287" y1="50.478" x2="9.27" y2="50.478"/>
<text transform="matrix(1 0 0 1 4.6991 40.1705)" class="st5" style="font-family:'Montserrat-Bold'; font-size:3px;">1</text>
<text transform="matrix(1 0 0 1 4.6991 45.1862)" class="st5" style="font-family:'Montserrat-Bold'; font-size:3px;">2</text>
<text transform="matrix(1 0 0 1 4.6991 50.2018)" class="st5" style="font-family:'Montserrat-Bold'; font-size:3px;">3</text>
<polygon class="st6" points="0.243,32.712 0.243,58.712 0.243,58.962 0.493,58.962 26.493,58.962 26.743,58.962 26.743,58.712 
	26.743,32.712 26.743,32.462 26.493,32.462 0.493,32.462 0.243,32.462 "/>
<polygon class="st6" points="-31.248,32.712 -31.248,58.712 -31.248,58.962 -30.998,58.962 -4.998,58.962 -4.748,58.962 
	-4.748,58.712 -4.748,32.712 -4.748,32.462 -4.998,32.462 -30.998,32.462 -31.248,32.462 "/>
<polygon class="st6" points="-61.59,32.712 -61.59,58.712 -61.59,58.962 -61.34,58.962 -35.34,58.962 -35.09,58.962 -35.09,58.712 
	-35.09,32.712 -35.09,32.462 -35.34,32.462 -61.34,32.462 -61.59,32.462 "/>
<path class="st7" d="M-9.716,50.836h-13.016 M-9.716,45.703h-13.016 M-9.716,40.571h-13.016"/>
<path class="st5" d="M-24.818,46.288c0.161-0.156,0.241-0.349,0.241-0.581c0-0.15-0.037-0.288-0.11-0.414
	c-0.073-0.125-0.172-0.224-0.297-0.297c-0.126-0.073-0.264-0.11-0.415-0.11c-0.15,0-0.288,0.037-0.41,0.11
	c-0.122,0.073-0.221,0.172-0.294,0.297c-0.072,0.126-0.11,0.264-0.11,0.414c0,0.232,0.08,0.425,0.238,0.581
	c0.157,0.156,0.35,0.234,0.576,0.234C-25.172,46.522-24.979,46.444-24.818,46.288"/>
<path class="st5" d="M-25.395,41.654c0.489,0,0.885-0.396,0.885-0.885c0-0.488-0.396-0.885-0.885-0.885
	c-0.488,0-0.885,0.397-0.885,0.885C-26.28,41.258-25.883,41.654-25.395,41.654"/>
<path class="st5" d="M-24.818,51.305c0.161-0.156,0.241-0.349,0.241-0.581c0-0.15-0.037-0.288-0.11-0.414
	c-0.073-0.125-0.172-0.224-0.297-0.297c-0.126-0.073-0.264-0.11-0.415-0.11c-0.15,0-0.288,0.037-0.41,0.11
	c-0.122,0.073-0.221,0.172-0.294,0.297c-0.072,0.126-0.11,0.264-0.11,0.414c0,0.232,0.08,0.425,0.238,0.581
	c0.157,0.156,0.35,0.234,0.576,0.234C-25.172,51.539-24.979,51.461-24.818,51.305"/>
<path class="st7" d="M-40.058,50.844h-13.016 M-40.058,45.711h-13.016 M-40.058,40.579h-13.016"/>
<rect x="-56.622" y="39.81" class="st5" width="1.77" height="1.77"/>
<rect x="-56.622" y="44.826" class="st5" width="1.77" height="1.77"/>
<rect x="-56.622" y="49.844" class="st5" width="1.77" height="1.77"/>
<rect x="281.9" y="-35.078" class="st2" width="245" height="57.75"/>
<text transform="matrix(1 0 0 1 356.5976 -8.8823)"><tspan x="0" y="0" class="st5" style="font-family:'Montserrat-Regular'; font-size:13px;">N</tspan><tspan x="10.478" y="0" class="st5" style="font-family:'Montserrat-Regular'; font-size:13px;">e</tspan><tspan x="18.135" y="0" class="st5" style="font-family:'Montserrat-Regular'; font-size:13px;">u</tspan><tspan x="26.753" y="0" class="st5" style="font-family:'Montserrat-Regular'; font-size:13px;">e </tspan><tspan x="38.011" y="0" class="st5" style="font-family:'Montserrat-Regular'; font-size:13px; letter-spacing:-1;">T</tspan><tspan x="44.381" y="0" class="st5" style="font-family:'Montserrat-Regular'; font-size:13px;">e</tspan><tspan x="51.882" y="0" class="st5" style="font-family:'Montserrat-Regular'; font-size:13px;">x</tspan><tspan x="59.097" y="0" class="st5" style="font-family:'Montserrat-Regular'; font-size:13px;">t</tspan><tspan x="64.128" y="0" class="st5" style="font-family:'Montserrat-Regular'; font-size:13px;">b</tspan><tspan x="72.942" y="0" class="st5" style="font-family:'Montserrat-Regular'; font-size:13px;">o</tspan><tspan x="80.742" y="0" class="st5" style="font-family:'Montserrat-Regular'; font-size:13px;">x </tspan></text>
<path class="st14" d="M404.4,12.881c3.707,0,6.713-3.005,6.713-6.712c0-3.708-3.006-6.713-6.713-6.713s-6.712,3.005-6.712,6.713
	C397.688,9.876,400.693,12.881,404.4,12.881z"/>
<rect x="281.9" y="-35.078" class="st9" width="245" height="57.75"/>
<line class="st15" x1="404.4" y1="2.634" x2="404.4" y2="9.703"/>
<line class="st15" x1="400.866" y1="6.2" x2="407.934" y2="6.2"/>
<path class="st14" d="M293.439,52.716c3.707,0,6.713-3.005,6.713-6.712c0-3.708-3.006-6.713-6.713-6.713s-6.712,3.005-6.712,6.713
	C286.727,49.711,289.732,52.716,293.439,52.716z"/>
<line class="st15" x1="293.439" y1="42.47" x2="293.439" y2="49.539"/>
<line class="st15" x1="289.904" y1="46.035" x2="296.972" y2="46.035"/>
<g>
	<path class="st16" d="M-202.454,67.852h-3.138v-1.85h8.544v1.85h-3.138v7.956h-2.269V67.852z"/>
	<path class="st16" d="M-195.833,66.002h2.269v9.806h-2.269V66.002z"/>
	<path class="st16" d="M-182.739,69.56c0,2.185-1.639,3.544-4.258,3.544h-1.975v2.703h-2.269v-9.806h4.244
		C-184.378,66.002-182.739,67.361-182.739,69.56z M-185.036,69.56c0-1.079-0.701-1.709-2.087-1.709h-1.849v3.403h1.849
		C-185.736,71.255-185.036,70.625-185.036,69.56z"/>
	<path class="st16" d="M-172.617,69.56c0,2.185-1.639,3.544-4.258,3.544h-1.975v2.703h-2.269v-9.806h4.244
		C-174.256,66.002-172.617,67.361-172.617,69.56z M-174.914,69.56c0-1.079-0.701-1.709-2.087-1.709h-1.849v3.403h1.849
		C-175.614,71.255-174.914,70.625-174.914,69.56z"/>
</g>
<path class="st16" d="M-239.081,61.531L-239.081,61.531c-1.054,2.474-1.96,4.602-2.889,6.784h5.729
	C-237.185,66.059-238.067,63.951-239.081,61.531 M-235.588,79.121L-235.588,79.121c-0.346-1.15-0.211-1.759,1.044-1.8
	c0.976-0.033,1.343-0.74,1.02-1.64c-0.507-1.414-1.072-2.81-1.681-4.183c-0.109-0.245-0.55-0.478-0.843-0.484
	c-2.129-0.041-4.261-0.046-6.39,0.005c-0.305,0.008-0.741,0.315-0.877,0.599c-0.558,1.155-1.057,2.342-1.512,3.542
	c-0.57,1.504-0.268,2.026,1.348,2.192c0.783,0.081,1.206,0.319,1.022,1.126c-0.056,0.243-0.355,0.61-0.547,0.613
	c-2.524,0.042-5.049,0.028-7.596,0.028c-0.214-0.956-0.321-1.631,0.868-1.885c0.569-0.122,1.219-0.609,1.515-1.117
	c0.755-1.293,1.377-2.67,1.972-4.049c2.401-5.559,4.761-11.135,7.172-16.689c0.173-0.398,0.634-0.67,0.96-1
	c0.319,0.343,0.766,0.632,0.937,1.037c2.56,6.048,5.079,12.114,7.622,18.17c0.326,0.776,0.705,1.534,1.106,2.275
	c0.507,0.939,1.332,1.389,2.379,1.595c0.265,0.052,0.519,0.638,0.586,1.013c0.032,0.175-0.39,0.621-0.611,0.624
	C-229.246,79.134-232.399,79.121-235.588,79.121"/>
<path class="st5" d="M-141.843,71.582c2.682-0.014,4.762-2.036,4.751-4.621c-0.01-2.367-2.203-4.406-4.733-4.399
	c-2.703,0.008-4.848,2.038-4.825,4.568C-146.627,69.594-144.467,71.595-141.843,71.582 M-136.288,71.595L-136.288,71.595
	c0.393-0.231,0.569-0.207,0.91,0.115c1.249,1.181,2.501,2.361,3.751,3.541c0.086,0.08,0.173,0.159,0.252,0.246
	c0.216,0.237,0.217,0.464-0.012,0.692c-0.249,0.248-0.509,0.488-0.767,0.727c-0.302,0.28-0.548,0.287-0.855,0
	c-1.177-1.103-2.348-2.211-3.522-3.318c-0.132-0.124-0.263-0.25-0.396-0.373c-0.368-0.34-0.394-0.487-0.153-0.896
	c-0.368-0.336-0.737-0.673-1.128-1.029c-1.472,1.07-3.153,1.471-5.011,1.06c-1.415-0.313-2.544-1.054-3.377-2.178
	c-1.65-2.23-1.286-5.335,0.823-7.11c2.222-1.87,5.521-1.904,7.68-0.117c2.217,1.835,2.765,5.106,0.696,7.583
	C-137.027,70.891-136.658,71.242-136.288,71.595"/>
<path class="st17" d="M-141.843,71.582c2.682-0.014,4.762-2.036,4.751-4.621c-0.01-2.367-2.203-4.406-4.733-4.399
	c-2.703,0.008-4.848,2.038-4.825,4.568C-146.627,69.594-144.467,71.595-141.843,71.582z M-136.288,71.595L-136.288,71.595
	c0.393-0.231,0.569-0.207,0.91,0.115c1.249,1.181,2.501,2.361,3.751,3.541c0.086,0.08,0.173,0.159,0.252,0.246
	c0.216,0.237,0.217,0.464-0.012,0.692c-0.249,0.248-0.509,0.488-0.767,0.727c-0.302,0.28-0.548,0.287-0.855,0
	c-1.177-1.103-2.348-2.211-3.522-3.318c-0.132-0.124-0.263-0.25-0.396-0.373c-0.368-0.34-0.394-0.487-0.153-0.896
	c-0.368-0.336-0.737-0.673-1.128-1.029c-1.472,1.07-3.153,1.471-5.011,1.06c-1.415-0.313-2.544-1.054-3.377-2.178
	c-1.65-2.23-1.286-5.335,0.823-7.11c2.222-1.87,5.521-1.904,7.68-0.117c2.217,1.835,2.765,5.106,0.696,7.583
	C-137.027,70.891-136.658,71.242-136.288,71.595z"/>
<path class="st5" d="M-78.129,62.002l2.966,2.98v-2.758c0-0.096-0.055-0.229-0.123-0.297l-3.807-3.826
	c-0.068-0.067-0.178-0.067-0.245,0l-3.93,3.949v2.758c0,0.096,0.055,0.119,0.122,0.051l2.844-2.857
	c0.068-0.068,0.122-0.046,0.122,0.05v7.829h0v2.168c0,0.096-0.055,0.118-0.123,0.05l-2.966-2.98v2.758
	c0,0.096,0.055,0.229,0.123,0.297L-79.338,76c0.068,0.067,0.178,0.067,0.245,0l3.93-3.949v-2.758c0-0.096-0.055-0.119-0.122-0.051
	l-2.844,2.857c-0.068,0.068-0.122,0.046-0.122-0.05V64.22h0v-2.168C-78.252,61.956-78.197,61.934-78.129,62.002z"/>
<line class="st18" x1="-114.268" y1="75.238" x2="-86.435" y2="75.238"/>
<line class="st18" x1="-114.268" y1="66.942" x2="-86.435" y2="66.942"/>
<line class="st18" x1="-114.268" y1="58.95" x2="-86.435" y2="58.95"/>
<line class="st18" x1="-99.926" y1="94.21" x2="-99.926" y2="115.21"/>
<path class="st5" d="M-92.466,108.053L-92.466,108.053h2.695l-2.603-2.569c-0.138-0.135-0.093-0.245,0.101-0.245h7.006v-1.407
	c0-0.193-0.157-0.35-0.35-0.35h-6.656c-0.194,0-0.239-0.11-0.101-0.246l2.603-2.569h-2.345c-0.193,0-0.462,0.111-0.599,0.246
	l-3.245,3.201c-0.137,0.136-0.137,0.356,0,0.492L-92.466,108.053z"/>
<path class="st5" d="M-108.236,100.841L-108.236,100.841h-2.695l2.603,2.569c0.138,0.135,0.093,0.245-0.101,0.245h-7.006v1.407
	c0,0.193,0.157,0.35,0.35,0.35h6.656c0.194,0,0.239,0.11,0.101,0.246l-2.603,2.569h2.345c0.193,0,0.462-0.111,0.599-0.246
	l3.245-3.201c0.137-0.136,0.137-0.356,0-0.492L-108.236,100.841z"/>
<line class="st19" x1="216.36" y1="-24.903" x2="180.337" y2="-24.903"/>
<path class="st20" d="M207.857-21.757c2.045,0,3.703-1.658,3.703-3.703s-1.658-3.703-3.703-3.703c-2.045,0-3.703,1.658-3.703,3.703
	S205.812-21.757,207.857-21.757"/>
<g>
	<path class="st5" d="M231.056-24.702c0,3.12-1.82,4.836-4.459,4.836c-0.91,0-1.781-0.195-2.392-0.585l0.624-1.274
		c0.494,0.325,1.092,0.442,1.729,0.442c1.716,0,2.795-1.066,2.795-3.133v-0.014c-0.546,0.638-1.417,0.949-2.431,0.949
		c-1.794,0-3.133-1.092-3.133-2.795c0-1.807,1.469-2.951,3.328-2.951C229.6-29.227,231.056-27.627,231.056-24.702z M229.093-26.366
		c0-0.858-0.676-1.534-1.885-1.534c-1.053,0-1.781,0.598-1.781,1.547s0.715,1.547,1.82,1.547
		C228.339-24.807,229.093-25.47,229.093-26.366z"/>
	<path class="st5" d="M238.921-22.791c0,1.599-1.157,2.925-3.602,2.925c-1.287,0-2.587-0.39-3.419-1.053l0.715-1.313
		c0.663,0.546,1.651,0.897,2.678,0.897c1.209,0,1.924-0.533,1.924-1.392c0-0.871-0.559-1.417-2.444-1.417h-2.197l0.468-4.953h5.343
		v1.417h-3.913l-0.195,2.106h0.871C237.842-25.573,238.921-24.403,238.921-22.791z"/>
	<path class="st5" d="M243.341-26.691c0-1.495,0.871-2.496,2.171-2.496s2.184,0.988,2.184,2.496s-0.884,2.496-2.184,2.496
		S243.341-25.196,243.341-26.691z M246.63-26.691c0-1.014-0.416-1.586-1.118-1.586c-0.676,0-1.118,0.585-1.118,1.586
		s0.442,1.586,1.118,1.586C246.214-25.105,246.63-25.678,246.63-26.691z M250.972-29.097h1.274l-6.214,9.101h-1.274L250.972-29.097z
		 M249.308-22.401c0-1.495,0.871-2.496,2.171-2.496c1.3,0,2.184,1.001,2.184,2.496s-0.884,2.496-2.184,2.496
		C250.178-19.905,249.308-20.906,249.308-22.401z M252.597-22.401c0-1.001-0.429-1.586-1.118-1.586s-1.118,0.572-1.118,1.586
		c0,1.015,0.429,1.586,1.118,1.586S252.597-21.4,252.597-22.401z"/>
</g>
<rect x="194.297" y="29.24" class="st11" width="13.149" height="16.764"/>
<polygon class="st21" points="194.297,46.004 194.297,46.004 207.446,46.004 207.446,29.24 194.297,29.24 "/>
<rect x="186.625" y="28.769" class="st9" width="21.291" height="24"/>
<line class="st22" x1="191.123" y1="36.935" x2="191.123" y2="47.322"/>
<line class="st23" x1="193.754" y1="49.211" x2="203.403" y2="49.211"/>
<path class="st21" d="M204.28,49.211h0.877 M191.123,48.267v0.944H192 M191.123,34.102v0.944"/>
<polyline class="st21" points="187.096,37.19 187.096,52.298 201.13,52.298 "/>
<rect x="186.625" y="28.769" class="st9" width="21.291" height="24"/>
<rect x="225.871" y="29.171" class="st11" width="14.674" height="18.705"/>
<polygon class="st24" points="225.871,47.876 225.871,47.876 240.544,47.876 240.544,29.171 225.871,29.171 "/>
<rect x="225.469" y="28.769" class="st9" width="19.884" height="24"/>
<rect x="230.278" y="33.662" class="st5" width="14.674" height="18.705"/>
<polygon class="st25" points="230.278,52.367 230.278,52.367 244.951,52.367 244.951,33.662 230.278,33.662 "/>
<rect x="225.469" y="28.769" class="st9" width="19.884" height="24"/>
<rect x="126.978" y="32.718" class="st10" width="34.924" height="19.551"/>
<text transform="matrix(1 0 0 1 133.9786 47.3692)"><tspan x="0" y="0" class="st11" style="font-family:'Montserrat-Regular'; font-size:13px;">e</tspan><tspan x="7.41" y="0" class="st11" style="font-family:'Montserrat-Regular'; font-size:13px;">i</tspan><tspan x="10.335" y="0" class="st11" style="font-family:'Montserrat-Regular'; font-size:13px;">n</tspan></text>
<polygon class="st6" points="91.97,32.593 91.97,52.593 91.97,52.843 92.22,52.843 161.069,52.843 161.319,52.843 161.319,52.593 
	161.319,32.593 161.319,32.343 161.069,32.343 92.22,32.343 91.97,32.343 "/>
<rect x="91.72" y="32.093" class="st9" width="70.183" height="21"/>
<line class="st26" x1="233.034" y1="122.232" x2="233.034" y2="146.492"/>
<path class="st5" d="M241.132,138.05L241.132,138.05h2.592l-2.494-2.46c-0.138-0.135-0.093-0.245,0.101-0.245h6.725v-1.339
	c0-0.193-0.157-0.35-0.35-0.35h-6.725l2.743-2.705h-2.242c-0.193,0-0.462,0.11-0.599,0.245l-3.102,3.059
	c-0.137,0.135-0.137,0.355,0,0.491L241.132,138.05z"/>
<line class="st26" x1="206.089" y1="146.325" x2="206.089" y2="122.065"/>
<path class="st5" d="M197.992,130.507L197.992,130.507H195.4l2.494,2.46c0.138,0.135,0.093,0.245-0.101,0.245h-6.725v1.339
	c0,0.193,0.157,0.35,0.35,0.35h6.725l-2.743,2.705h2.242c0.193,0,0.462-0.11,0.599-0.245l3.102-3.059
	c0.137-0.135,0.137-0.355,0-0.491L197.992,130.507z"/>
<line class="st26" x1="16.347" y1="130.103" x2="40.607" y2="130.103"/>
<path class="st5" d="M31.998,122.046L31.998,122.046v-2.592l-2.46,2.494c-0.135,0.138-0.245,0.093-0.245-0.101v-6.725h-1.339
	c-0.193,0-0.35,0.157-0.35,0.35v6.725l-2.705-2.743v2.242c0,0.193,0.11,0.462,0.245,0.599l3.059,3.102
	c0.135,0.137,0.355,0.137,0.491,0L31.998,122.046z"/>
<path class="st5" d="M25.066,137.198L25.066,137.198v2.592l2.46-2.494c0.135-0.138,0.245-0.093,0.245,0.101v6.725h1.339
	c0.193,0,0.35-0.157,0.35-0.35v-6.725l2.705,2.743v-2.242c0-0.193-0.11-0.462-0.245-0.599l-3.059-3.102
	c-0.135-0.137-0.355-0.137-0.491,0L25.066,137.198z"/>
<line class="st26" x1="72.793" y1="142.914" x2="72.793" y2="118.654"/>
<path class="st5" d="M64.736,127.263L64.736,127.263h-2.592l2.494,2.46c0.138,0.135,0.093,0.245-0.101,0.245h-6.725v1.339
	c0,0.193,0.157,0.35,0.35,0.35h6.725l-2.743,2.705h2.242c0.193,0,0.462-0.11,0.599-0.245l3.102-3.059
	c0.137-0.135,0.137-0.355,0-0.491L64.736,127.263z"/>
<path class="st5" d="M79.888,134.195L79.888,134.195h2.592l-2.494-2.46c-0.138-0.135-0.093-0.245,0.101-0.245h6.725v-1.339
	c0-0.193-0.157-0.35-0.35-0.35h-6.725l2.743-2.705h-2.242c-0.193,0-0.462,0.11-0.599,0.245l-3.102,3.059
	c-0.137,0.135-0.137,0.355,0,0.491L79.888,134.195z"/>
<line class="st26" x1="104.935" y1="130.387" x2="129.195" y2="130.387"/>
<path class="st5" d="M113.654,137.481L113.654,137.481v2.592l2.46-2.494c0.135-0.138,0.245-0.093,0.245,0.101v6.725h1.339
	c0.193,0,0.35-0.157,0.35-0.35v-6.725l2.705,2.743v-2.242c0-0.193-0.11-0.462-0.245-0.599l-3.059-3.102
	c-0.135-0.137-0.355-0.137-0.491,0L113.654,137.481z"/>
<line class="st26" x1="150.046" y1="141.642" x2="174.306" y2="141.642"/>
<path class="st5" d="M165.864,133.253L165.864,133.253v-2.592l-2.46,2.494c-0.135,0.138-0.245,0.093-0.245-0.101v-6.725h-1.339
	c-0.193,0-0.35,0.157-0.35,0.35v6.725l-2.705-2.743v2.242c0,0.193,0.11,0.462,0.245,0.599l3.059,3.102
	c0.135,0.137,0.355,0.137,0.491,0L165.864,133.253z"/>
<rect x="295.91" y="114.716" class="st11" width="15.769" height="20.056"/>
<line class="st27" x1="298.867" y1="134.772" x2="309.708" y2="134.772"/>
<line class="st28" x1="311.679" y1="131.764" x2="311.679" y2="116.722"/>
<line class="st27" x1="308.722" y1="114.716" x2="297.881" y2="114.716"/>
<line class="st28" x1="295.909" y1="117.724" x2="295.909" y2="132.766"/>
<path class="st21" d="M295.909,133.769v1.003h0.986 M296.895,114.716h-0.986v1.003 M311.678,115.719v-1.003h-0.985 M310.693,134.772
	h0.985v-1.003"/>
<polygon class="st11" points="284.674,144.772 284.674,144.772 300.443,144.772 300.443,124.716 284.674,124.716 "/>
<line class="st27" x1="287.631" y1="144.772" x2="298.472" y2="144.772"/>
<line class="st28" x1="300.443" y1="141.764" x2="300.443" y2="126.722"/>
<line class="st27" x1="297.486" y1="124.716" x2="286.645" y2="124.716"/>
<line class="st28" x1="284.674" y1="127.724" x2="284.674" y2="142.766"/>
<path class="st21" d="M284.673,143.769v1.003h0.986 M285.659,124.716h-0.986v1.003 M300.442,125.719v-1.003h-0.985 M299.457,144.772
	h0.985v-1.003"/>
<polygon class="st11" points="275.2,152.772 275.2,152.772 290.969,152.772 290.969,132.716 275.2,132.716 "/>
<polygon class="st21" points="275.2,152.772 275.2,152.772 290.969,152.772 290.969,132.716 275.2,132.716 "/>
<g>
	<polygon class="st11" points="349.036,139.078 349.036,139.078 364.805,139.078 364.805,119.022 349.036,119.022 	"/>
	<polygon class="st21" points="349.036,139.078 349.036,139.078 364.805,139.078 364.805,119.022 349.036,119.022 	"/>
	<line class="st29" x1="345.272" y1="127.576" x2="345.272" y2="141.08"/>
	<line class="st30" x1="348.409" y1="142.881" x2="359.912" y2="142.881"/>
	<path class="st21" d="M360.957,142.881h1.046 M345.272,141.981v0.9h1.046 M345.272,124.876v0.9"/>
</g>
<g>
	<g>
		<rect x="421.576" y="107.301" class="st11" width="15.769" height="20.056"/>
		<polygon class="st21" points="421.576,127.357 421.576,127.357 437.345,127.357 437.345,107.301 421.576,107.301 		"/>
		<polygon class="st11" points="410.34,137.357 410.34,137.357 426.109,137.357 426.109,117.301 410.34,117.301 		"/>
		<line class="st27" x1="413.297" y1="137.357" x2="424.138" y2="137.357"/>
		<line class="st28" x1="426.109" y1="134.349" x2="426.109" y2="119.307"/>
		<line class="st27" x1="423.152" y1="117.301" x2="412.311" y2="117.301"/>
		<line class="st28" x1="410.34" y1="120.31" x2="410.34" y2="135.352"/>
		<path class="st21" d="M410.339,136.354v1.003h0.986 M411.325,117.301h-0.986v1.003 M426.108,118.304v-1.003h-0.985
			 M425.123,137.357h0.985v-1.003"/>
		<polygon class="st11" points="400.866,145.357 400.866,145.357 416.635,145.357 416.635,125.301 400.866,125.301 		"/>
		<line class="st27" x1="403.823" y1="145.357" x2="414.664" y2="145.357"/>
		<line class="st28" x1="416.635" y1="142.349" x2="416.635" y2="127.307"/>
		<line class="st27" x1="413.678" y1="125.301" x2="402.837" y2="125.301"/>
		<line class="st28" x1="400.866" y1="128.31" x2="400.866" y2="143.352"/>
		<path class="st21" d="M400.866,144.354v1.003h0.986 M401.852,125.301h-0.986v1.003 M416.635,126.304v-1.003h-0.985
			 M415.65,145.357h0.985v-1.003"/>
	</g>
	<line class="st27" x1="476.99" y1="140.843" x2="487.831" y2="140.843"/>
	<line class="st28" x1="489.802" y1="137.834" x2="489.802" y2="122.792"/>
	<line class="st27" x1="486.845" y1="120.786" x2="476.004" y2="120.786"/>
	<line class="st28" x1="474.033" y1="123.795" x2="474.033" y2="138.837"/>
	<path class="st21" d="M474.032,139.84v1.003h0.986 M475.018,120.787h-0.986v1.003 M489.801,121.79v-1.003h-0.985 M488.816,140.843
		h0.985v-1.003"/>
	<polyline class="st21" points="470.268,126.641 470.268,144.646 486.999,144.646 	"/>
</g>
<g>
	<defs>
		<rect id="SVGID_1_" x="-285.006" y="234.679" width="241.682" height="1"/>
	</defs>
	<clipPath id="SVGID_00000170990516451958920690000000068929035012585652_">
		<use xlink:href="#SVGID_1_"  style="overflow:visible;"/>
	</clipPath>
	
		<line style="clip-path:url(#SVGID_00000170990516451958920690000000068929035012585652_);fill:none;stroke:#B2B2B2;stroke-linecap:round;stroke-linejoin:round;stroke-dasharray:0,3.009;" x1="-281.498" y1="235.179" x2="-45.328" y2="235.179"/>
	
		<path style="clip-path:url(#SVGID_00000170990516451958920690000000068929035012585652_);fill:none;stroke:#B2B2B2;stroke-linecap:round;stroke-linejoin:round;" d="
		M-43.824,235.179L-43.824,235.179 M-284.506,235.179L-284.506,235.179"/>
</g>
<circle class="st33" cx="-238.108" cy="13.967" r="12.75"/>
<polygon class="st3" points="-94.715,-1.056 -107.715,-1.056 -101.347,9.419 "/>
<polygon class="st5" points="-86.692,127.486 -97.167,133.854 -86.692,140.486 "/>
<polygon class="st5" points="-115.739,140.486 -105.264,134.118 -115.739,127.486 "/>
<polygon class="st5" points="-33.186,127.486 -43.661,133.854 -33.186,140.486 "/>
<polygon class="st5" points="-68.362,140.486 -57.887,134.118 -68.362,127.486 "/>
<rect x="91.887" y="-1.045" class="st10" width="34.924" height="19.551"/>
<polygon class="st6" points="92.137,-1.17 92.137,18.83 92.137,19.08 92.387,19.08 161.236,19.08 161.486,19.08 161.486,18.83 
	161.486,-1.17 161.486,-1.42 161.236,-1.42 92.387,-1.42 92.137,-1.42 "/>
<rect x="91.887" y="-1.67" class="st9" width="69.849" height="21"/>
<rect x="127.251" y="64.983" class="st10" width="34.924" height="19.551"/>
<polygon class="st6" points="92.243,64.858 92.243,84.858 92.243,85.108 92.493,85.108 161.342,85.108 161.592,85.108 
	161.592,84.858 161.592,64.858 161.592,64.608 161.342,64.608 92.493,64.608 92.243,64.608 "/>
<rect x="91.993" y="64.358" class="st9" width="70.183" height="21"/>
<line class="st19" x1="215.282" y1="-5.116" x2="179.259" y2="-5.116"/>
<path class="st20" d="M206.779-1.969c2.045,0,3.703-1.658,3.703-3.703s-1.658-3.703-3.703-3.703c-2.045,0-3.703,1.658-3.703,3.703
	S204.734-1.969,206.779-1.969"/>
<line class="st19" x1="523.607" y1="25.664" x2="487.583" y2="25.664"/>
<path class="st20" d="M515.104,28.81c2.045,0,3.703-1.658,3.703-3.703s-1.658-3.703-3.703-3.703c-2.045,0-3.703,1.658-3.703,3.703
	S513.058,28.81,515.104,28.81"/>
</svg>
