<?xml version="1.0" encoding="utf-8"?>
<!-- Generator: Adobe Illustrator 26.0.3, SVG Export Plug-In . SVG Version: 6.00 Build 0)  -->
<svg version="1.1" id="Ebene_1" xmlns="http://www.w3.org/2000/svg" xmlns:xlink="http://www.w3.org/1999/xlink" x="0px" y="0px"
	 width="32.975px" height="9.806px" viewBox="0 0 32.975 9.806" style="enable-background:new 0 0 32.975 9.806;"
	 xml:space="preserve">
<style type="text/css">
	.st0{fill:none;stroke:#C5C5C5;stroke-width:3;stroke-linecap:round;stroke-linejoin:round;}
	.st1{fill:#FFAEFF;stroke:#4F4D4D;stroke-width:0.5;}
	.st2{fill:#F8F8F8;}
	.st3{fill:#0E689A;}
	.st4{fill:none;stroke:#B2B1B1;stroke-width:0.65;stroke-miterlimit:10;}
	.st5{fill:#B2B1B1;}
	.st6{fill:none;stroke:#B2B2B2;stroke-width:0.5;stroke-miterlimit:10;}
	.st7{fill:none;stroke:#B2B1B1;stroke-width:0.3;stroke-miterlimit:10;}
	.st8{fill:none;stroke:#FFFFFF;stroke-width:0.021;}
	.st9{fill:none;}
	.st10{fill:#0E6899;}
	.st11{fill:#FFFFFF;}
	.st12{fill:none;stroke:#C5C5C5;stroke-width:0.5;stroke-linecap:round;stroke-linejoin:round;}
	.st13{fill:#C5C5C5;}
	.st14{fill:none;stroke:#B2B1B1;stroke-width:0.5;}
	.st15{fill:none;stroke:#B2B1B1;stroke-width:1.2;}
	.st16{fill:#B2B2B2;}
	.st17{fill:none;stroke:#FFFFFF;stroke-width:0.001;}
	.st18{fill:none;stroke:#B2B1B1;stroke-width:1.712;}
	.st19{fill:none;stroke:#B2B1B1;stroke-width:2;}
	.st20{fill:#AD5E7A;}
	.st21{fill:none;stroke:#B2B1B1;stroke-width:0.941;}
	.st22{fill:none;stroke:#B2B1B1;stroke-width:0.941;stroke-dasharray:1.889,1.889;}
	.st23{fill:none;stroke:#B2B1B1;stroke-width:0.941;stroke-dasharray:1.754,1.754;}
	.st24{fill:none;stroke:#B2B1B1;stroke-width:0.804;}
	.st25{fill:none;stroke:#FFFFFF;stroke-width:0.804;}
	.st26{fill:none;stroke:#B2B1B1;stroke-width:2.5;}
	.st27{fill:none;stroke:#B2B1B1;stroke-width:0.941;stroke-dasharray:1.971,1.971;}
	.st28{fill:none;stroke:#B2B1B1;stroke-width:0.941;stroke-dasharray:2.006,2.006;}
	.st29{fill:none;stroke:#B2B1B1;stroke-width:0.941;stroke-dasharray:1.801,1.801;}
	.st30{fill:none;stroke:#B2B1B1;stroke-width:0.941;stroke-dasharray:2.091,2.091;}
	
		.st31{clip-path:url(#SVGID_00000176010535316693988030000005991421440257289397_);fill:none;stroke:#B2B2B2;stroke-linecap:round;stroke-linejoin:round;stroke-dasharray:0,3.009;}
	
		.st32{clip-path:url(#SVGID_00000176010535316693988030000005991421440257289397_);fill:none;stroke:#B2B2B2;stroke-linecap:round;stroke-linejoin:round;}
	.st33{fill:none;stroke:#4F4D4D;stroke-width:0.5;}
</style>
<polyline class="st0" points="1959.376,874.621 1953.126,865.621 1946.376,874.621 "/>
<circle class="st1" cx="-32.517" cy="-88.127" r="12.75"/>
<rect x="-0.056" y="-99.142" class="st2" width="119.902" height="21"/>
<polygon class="st3" points="110.773,-93.88 97.773,-93.88 104.141,-83.405 "/>
<g>
	<g>
		<line class="st4" x1="223.786" y1="-81.622" x2="234.069" y2="-81.622"/>
		<g>
			<path class="st5" d="M225.073-86.847v-5.175h1.3v5.122c0,2.016,0.923,2.926,2.561,2.926c1.638,0,2.574-0.91,2.574-2.926v-5.122
				h1.261v5.175c0,2.639-1.443,4.029-3.848,4.029C226.529-82.818,225.073-84.209,225.073-86.847z"/>
		</g>
	</g>
	<polygon class="st6" points="215.677,-99.822 215.677,-73.822 215.677,-73.572 215.927,-73.572 241.927,-73.572 242.177,-73.572 
		242.177,-73.822 242.177,-99.822 242.177,-100.072 241.927,-100.072 215.927,-100.072 215.677,-100.072 	"/>
</g>
<g>
	<g>
		<path class="st5" d="M194.323-91.749h1.3l-1.82,9.101h-1.3L194.323-91.749z"/>
	</g>
	<polygon class="st6" points="180.813,-100.198 180.813,-74.198 180.813,-73.948 181.063,-73.948 207.063,-73.948 207.313,-73.948 
		207.313,-74.198 207.313,-100.198 207.313,-100.448 207.063,-100.448 181.063,-100.448 180.813,-100.448 	"/>
</g>
<g>
	<g>
		<path class="st5" d="M161.175-85.08c0,1.573-1.248,2.483-3.64,2.483h-4.706v-9.101h4.446c2.275,0,3.445,0.949,3.445,2.366
			c0,0.91-0.468,1.612-1.209,2.002C160.525-87.003,161.175-86.223,161.175-85.08z M154.922-90.111v2.146h2.093
			c1.027,0,1.586-0.364,1.586-1.079s-0.559-1.066-1.586-1.066H154.922z M159.056-85.3c0-0.767-0.585-1.131-1.677-1.131h-2.457v2.249
			h2.457C158.471-84.182,159.056-84.52,159.056-85.3z"/>
	</g>
	<polygon class="st6" points="143.752,-100.146 143.752,-74.146 143.752,-73.896 144.002,-73.896 170.002,-73.896 170.252,-73.896 
		170.252,-74.146 170.252,-100.146 170.252,-100.396 170.002,-100.396 144.002,-100.396 143.752,-100.396 	"/>
</g>
<path class="st7" d="M197.94-58.193"/>
<path class="st7" d="M195.432-56.939"/>
<path class="st7" d="M195.432-55.685"/>
<path class="st7" d="M195.432-54.431"/>
<path class="st7" d="M197.94-53.177"/>
<path class="st7" d="M197.94-51.923"/>
<path class="st7" d="M195.432-50.669"/>
<path class="st7" d="M195.432-48.161"/>
<path class="st7" d="M197.94-45.653"/>
<g>
	<path class="st7" d="M178.475-53.177"/>
	<path class="st7" d="M178.475-58.193"/>
	<path class="st7" d="M178.475-45.653"/>
	<path class="st7" d="M178.475-51.923"/>
	<g>
		<path class="st7" d="M180.537-50.669"/>
		<path class="st7" d="M180.537-54.431"/>
		<path class="st7" d="M180.537-55.685"/>
		<path class="st7" d="M180.537-56.939"/>
		<line class="st7" x1="178.1" y1="-46.448" x2="197.564" y2="-46.448"/>
		<line class="st7" x1="178.1" y1="-47.724" x2="192.994" y2="-47.724"/>
		<line class="st7" x1="178.1" y1="-48.999" x2="192.994" y2="-48.999"/>
		<line class="st7" x1="178.1" y1="-50.276" x2="192.994" y2="-50.276"/>
		<line class="st7" x1="178.1" y1="-51.552" x2="197.564" y2="-51.552"/>
		<line class="st7" x1="178.1" y1="-52.828" x2="197.564" y2="-52.828"/>
		<line class="st7" x1="178.173" y1="-54.103" x2="193.067" y2="-54.103"/>
		<line class="st7" x1="178.1" y1="-55.379" x2="197.564" y2="-55.379"/>
		<line class="st7" x1="178.1" y1="-56.655" x2="192.994" y2="-56.655"/>
		<line class="st7" x1="178.1" y1="-57.932" x2="192.994" y2="-57.932"/>
		<line class="st7" x1="178.1" y1="-59.207" x2="197.564" y2="-59.207"/>
	</g>
	<polygon class="st6" points="174.773,-65.502 174.773,-39.509 174.773,-39.259 175.023,-39.259 201.016,-39.259 201.266,-39.259 
		201.266,-39.509 201.266,-65.502 201.266,-65.752 201.016,-65.752 175.023,-65.752 174.773,-65.752 	"/>
</g>
<g>
	<g>
		<line class="st7" x1="228.82" y1="-58.89" x2="209.356" y2="-58.89"/>
		<line class="st7" x1="226.312" y1="-57.613" x2="211.418" y2="-57.613"/>
		<line class="st7" x1="226.312" y1="-56.337" x2="211.418" y2="-56.337"/>
		<line class="st7" x1="226.312" y1="-55.059" x2="211.418" y2="-55.059"/>
		<line class="st7" x1="228.82" y1="-53.782" x2="209.356" y2="-53.782"/>
		<line class="st7" x1="228.82" y1="-52.506" x2="209.356" y2="-52.506"/>
		<line class="st7" x1="226.312" y1="-51.228" x2="211.418" y2="-51.228"/>
		<line class="st7" x1="228.82" y1="-49.951" x2="209.356" y2="-49.951"/>
		<line class="st7" x1="226.312" y1="-48.674" x2="211.418" y2="-48.674"/>
		<line class="st7" x1="226.312" y1="-47.397" x2="211.418" y2="-47.397"/>
		<line class="st7" x1="228.82" y1="-46.12" x2="209.356" y2="-46.12"/>
	</g>
	<polygon class="st6" points="205.841,-65.502 205.841,-39.509 205.841,-39.259 206.091,-39.259 232.084,-39.259 232.334,-39.259 
		232.334,-39.509 232.334,-65.502 232.334,-65.752 232.084,-65.752 206.091,-65.752 205.841,-65.752 	"/>
</g>
<polygon class="st6" points="236.91,-65.502 236.91,-39.509 236.91,-39.259 237.16,-39.259 263.153,-39.259 263.403,-39.259 
	263.403,-39.509 263.403,-65.502 263.403,-65.752 263.153,-65.752 237.16,-65.752 236.91,-65.752 "/>
<path class="st7" d="M240.237-46.818"/>
<path class="st7" d="M240.237-51.834"/>
<path class="st7" d="M240.237-53.088"/>
<path class="st7" d="M240.237-59.357"/>
<path class="st7" d="M257.639-54.342"/>
<path class="st7" d="M259.701-51.834"/>
<path class="st7" d="M257.639-50.58"/>
<path class="st7" d="M259.701-46.818"/>
<path class="st7" d="M259.701-59.357"/>
<path class="st7" d="M259.701-53.088"/>
<path class="st7" d="M257.639-49.326"/>
<path class="st7" d="M257.639-48.072"/>
<g>
	<path class="st7" d="M242.557-48.394"/>
	<path class="st7" d="M242.557-49.648"/>
	<path class="st7" d="M242.557-50.902"/>
	<path class="st7" d="M242.557-54.664"/>
	<path class="st7" d="M242.557-57.172"/>
	<line class="st7" x1="259.889" y1="-58.885" x2="240.425" y2="-58.885"/>
	<line class="st7" x1="259.889" y1="-57.609" x2="244.995" y2="-57.609"/>
	<line class="st7" x1="259.889" y1="-56.334" x2="244.995" y2="-56.334"/>
	<line class="st7" x1="259.889" y1="-55.057" x2="244.995" y2="-55.057"/>
	<line class="st7" x1="259.889" y1="-53.781" x2="240.425" y2="-53.781"/>
	<line class="st7" x1="259.889" y1="-52.505" x2="240.425" y2="-52.505"/>
	<line class="st7" x1="259.815" y1="-51.23" x2="244.921" y2="-51.23"/>
	<line class="st7" x1="259.889" y1="-49.954" x2="240.425" y2="-49.954"/>
	<line class="st7" x1="259.889" y1="-48.678" x2="244.995" y2="-48.678"/>
	<line class="st7" x1="259.889" y1="-47.401" x2="244.995" y2="-47.401"/>
	<line class="st7" x1="259.889" y1="-46.126" x2="240.425" y2="-46.126"/>
</g>
<polygon class="st6" points="144.002,-65.495 144.002,-39.502 144.002,-39.252 144.252,-39.252 170.245,-39.252 170.495,-39.252 
	170.495,-39.502 170.495,-65.495 170.495,-65.745 170.245,-65.745 144.252,-65.745 144.002,-65.745 "/>
<path class="st7" d="M167.168-58.193"/>
<path class="st7" d="M167.168-53.177"/>
<path class="st7" d="M167.168-51.923"/>
<path class="st7" d="M167.168-45.653"/>
<path class="st7" d="M149.766-50.669"/>
<path class="st7" d="M147.704-53.177"/>
<path class="st7" d="M149.766-54.431"/>
<path class="st7" d="M147.704-58.193"/>
<path class="st7" d="M147.704-45.653"/>
<path class="st7" d="M147.704-51.923"/>
<path class="st7" d="M149.766-55.685"/>
<path class="st7" d="M149.766-56.939"/>
<g>
	<path class="st7" d="M164.661-56.939"/>
	<path class="st7" d="M164.661-55.685"/>
	<path class="st7" d="M164.661-54.431"/>
	<path class="st7" d="M164.661-50.669"/>
	<path class="st7" d="M164.661-48.161"/>
	<line class="st7" x1="147.328" y1="-46.448" x2="166.792" y2="-46.448"/>
	<line class="st7" x1="147.328" y1="-47.724" x2="166.792" y2="-47.724"/>
	<line class="st7" x1="147.328" y1="-48.999" x2="166.792" y2="-48.999"/>
	<line class="st7" x1="147.328" y1="-50.276" x2="166.792" y2="-50.276"/>
	<line class="st7" x1="147.328" y1="-51.552" x2="166.792" y2="-51.552"/>
	<line class="st7" x1="147.328" y1="-52.828" x2="166.792" y2="-52.828"/>
	<line class="st7" x1="147.402" y1="-54.103" x2="166.866" y2="-54.103"/>
	<line class="st7" x1="147.328" y1="-55.379" x2="166.792" y2="-55.379"/>
	<line class="st7" x1="147.328" y1="-56.655" x2="166.792" y2="-56.655"/>
	<line class="st7" x1="147.328" y1="-57.932" x2="166.792" y2="-57.932"/>
	<line class="st7" x1="147.328" y1="-59.207" x2="166.792" y2="-59.207"/>
</g>
<path class="st5" d="M-25.555,49.653l-1.915,13.335c-0.058,0.402-0.431,0.682-0.834,0.624c-0.402-0.058-0.682-0.431-0.624-0.833
	l1.915-13.336c0.058-0.402,0.431-0.681,0.834-0.623C-25.777,48.878-25.497,49.25-25.555,49.653 M-32.372,63.728
	c-0.407,0.003-0.74-0.324-0.742-0.73l-0.106-13.472c-0.003-0.407,0.324-0.739,0.73-0.742c0.408-0.003,0.74,0.324,0.743,0.731
	l0.105,13.471C-31.639,63.393-31.966,63.725-32.372,63.728 M-36.443,63.675c-0.401,0.064-0.779-0.209-0.842-0.61l-2.124-13.304
	c-0.064-0.402,0.209-0.779,0.612-0.843c0.401-0.064,0.778,0.209,0.842,0.611l2.123,13.303
	C-35.768,63.234-36.041,63.611-36.443,63.675 M-22.66,47.267c-0.141-0.169-0.353-0.266-0.573-0.264l-18.538,0.144
	c-0.22,0.002-0.429,0.101-0.568,0.272c-0.14,0.17-0.196,0.393-0.155,0.609l3.092,16.141c0.068,0.351,0.376,0.605,0.734,0.602
	l12.497-0.098c0.356-0.002,0.66-0.258,0.724-0.608l2.949-16.188C-22.458,47.661-22.519,47.436-22.66,47.267"/>
<path class="st8" d="M-25.555,49.653l-1.915,13.335c-0.058,0.402-0.431,0.682-0.834,0.624c-0.402-0.058-0.682-0.431-0.624-0.833
	l1.915-13.336c0.058-0.402,0.431-0.681,0.834-0.623C-25.777,48.878-25.497,49.25-25.555,49.653z M-32.372,63.728
	c-0.407,0.003-0.74-0.324-0.742-0.73l-0.106-13.472c-0.003-0.407,0.324-0.739,0.73-0.742c0.408-0.003,0.74,0.324,0.743,0.731
	l0.105,13.471C-31.639,63.393-31.966,63.725-32.372,63.728z M-36.443,63.675c-0.401,0.064-0.779-0.209-0.842-0.61l-2.124-13.304
	c-0.064-0.402,0.209-0.779,0.612-0.843c0.401-0.064,0.778,0.209,0.842,0.611l2.123,13.303
	C-35.768,63.234-36.041,63.611-36.443,63.675z M-22.66,47.267c-0.141-0.169-0.353-0.266-0.573-0.264l-18.538,0.144
	c-0.22,0.002-0.429,0.101-0.568,0.272c-0.14,0.17-0.196,0.393-0.155,0.609l3.092,16.141c0.068,0.351,0.376,0.605,0.734,0.602
	l12.497-0.098c0.356-0.002,0.66-0.258,0.724-0.608l2.949-16.188C-22.458,47.661-22.519,47.436-22.66,47.267z"/>
<path class="st5" d="M-35.348,42.66L-35.348,42.66l-0.004-0.421l5.49-0.043l0.004,0.421L-35.348,42.66z M-21.611,44.07
	L-21.611,44.07l-2.025,0.016l-0.009-1.171c-0.001-0.091-0.038-0.18-0.103-0.244c-0.065-0.064-0.155-0.1-0.246-0.1l-4.467,0.035
	l-0.009-1.12c-0.002-0.184-0.077-0.363-0.209-0.492c-0.131-0.13-0.311-0.203-0.495-0.201l-6.887,0.054
	c-0.183,0.001-0.363,0.077-0.492,0.208c-0.129,0.131-0.202,0.312-0.2,0.496l0.009,1.12l-4.164,0.032
	c-0.091,0.001-0.18,0.039-0.243,0.104c-0.065,0.065-0.101,0.154-0.101,0.246l0.009,1.171l-2.197,0.017l0.017,2.225l21.829-0.17
	L-21.611,44.07z"/>
<path class="st8" d="M-35.348,42.66L-35.348,42.66l-0.004-0.421l5.49-0.043l0.004,0.421L-35.348,42.66z M-21.611,44.07
	L-21.611,44.07l-2.025,0.016l-0.009-1.171c-0.001-0.091-0.038-0.18-0.103-0.244c-0.065-0.064-0.155-0.1-0.246-0.1l-4.467,0.035
	l-0.009-1.12c-0.002-0.184-0.077-0.363-0.209-0.492c-0.131-0.13-0.311-0.203-0.495-0.201l-6.887,0.054
	c-0.183,0.001-0.363,0.077-0.492,0.208c-0.129,0.131-0.202,0.312-0.2,0.496l0.009,1.12l-4.164,0.032
	c-0.091,0.001-0.18,0.039-0.243,0.104c-0.065,0.065-0.101,0.154-0.101,0.246l0.009,1.171l-2.197,0.017l0.017,2.225l21.829-0.17
	L-21.611,44.07z"/>
<rect x="-43.451" y="40.782" class="st9" width="21.868" height="24"/>
<rect x="297.479" y="-99.986" class="st10" width="34.924" height="19.551"/>
<g>
	<path class="st11" d="M310.456-89.573v4.238h-0.884v-1.066c-0.416,0.702-1.222,1.132-2.354,1.132c-1.547,0-2.496-0.807-2.496-1.989
		c0-1.054,0.676-1.938,2.639-1.938h2.171v-0.416c0-1.17-0.663-1.807-1.938-1.807c-0.884,0-1.716,0.312-2.275,0.806l-0.416-0.688
		c0.689-0.585,1.703-0.924,2.782-0.924C309.455-92.225,310.456-91.34,310.456-89.573z M309.533-87.388v-1.118h-2.146
		c-1.326,0-1.755,0.52-1.755,1.222c0,0.793,0.637,1.287,1.729,1.287C308.402-85.998,309.169-86.492,309.533-87.388z"/>
	<path class="st11" d="M318.555-92.172v6.838h-0.884v-1.248c-0.481,0.832-1.365,1.313-2.458,1.313c-1.742,0-2.886-0.976-2.886-2.938
		v-3.965h0.923v3.874c0,1.456,0.754,2.197,2.054,2.197c1.43,0,2.327-0.924,2.327-2.483v-3.588H318.555z"/>
	<path class="st11" d="M319.854-86.115l0.416-0.728c0.546,0.429,1.469,0.767,2.431,0.767c1.3,0,1.833-0.441,1.833-1.118
		c0-1.78-4.433-0.377-4.433-3.081c0-1.118,0.962-1.95,2.704-1.95c0.884,0,1.846,0.247,2.418,0.638l-0.403,0.74
		c-0.598-0.416-1.313-0.585-2.015-0.585c-1.235,0-1.781,0.481-1.781,1.132c0,1.846,4.434,0.455,4.434,3.081
		c0,1.183-1.04,1.95-2.821,1.95C321.506-85.269,320.414-85.633,319.854-86.115z"/>
</g>
<polygon class="st6" points="297.729,-100.111 297.729,-80.111 297.729,-79.861 297.979,-79.861 366.828,-79.861 367.078,-79.861 
	367.078,-80.111 367.078,-100.111 367.078,-100.361 366.828,-100.361 297.979,-100.361 297.729,-100.361 "/>
<rect x="297.479" y="-100.611" class="st9" width="69.849" height="21"/>
<rect x="-106.918" y="106.719" class="st11" width="1014" height="21"/>
<path class="st3" d="M520.243,106.719c-2.209,0-4,1.791-4,4v12.382c0,2.209,1.791,4,4,4h77.131c2.209,0,4-1.791,4-4v-12.382
	c0-2.209-1.791-4-4-4H520.243z"/>
<rect x="-106.668" y="106.969" class="st12" width="1013.5" height="20.5"/>
<path class="st13" d="M890.937,109.579v1.481c0,0.397,0.187,0.771,0.505,1.009l6.367,4.762c0.258,0.194,0.258,0.583,0,0.776
	l-6.367,4.762c-0.318,0.238-0.505,0.612-0.505,1.01v1.48c0,0.41,0.467,0.644,0.795,0.399l10.111-7.563
	c0.318-0.237,0.318-0.714,0-0.952l-10.11-7.562C891.404,108.935,890.937,109.17,890.937,109.579"/>
<path class="st13" d="M-91.066,124.859v-1.481c0-0.397-0.187-0.771-0.505-1.009l-6.367-4.762c-0.258-0.194-0.258-0.583,0-0.776
	l6.367-4.762c0.318-0.238,0.505-0.612,0.505-1.01v-1.48c0-0.41-0.467-0.644-0.795-0.399l-10.111,7.563
	c-0.318,0.237-0.318,0.714,0,0.952l10.11,7.562C-91.533,125.503-91.066,125.268-91.066,124.859"/>
<rect x="-106.918" y="106.719" class="st9" width="1014" height="21"/>
<rect x="948.854" y="-137.826" class="st11" width="21" height="702.123"/>
<path class="st3" d="M948.854,276.135c0,2.209,1.791,4,4,4h12.382c2.209,0,4-1.791,4-4v-78.286c0-2.209-1.791-4-4-4h-12.382
	c-2.209,0-4,1.791-4,4V276.135z"/>
<rect x="949.104" y="-137.577" class="st12" width="20.5" height="701.624"/>
<path class="st13" d="M951.714-124.291h1.481c0.397,0,0.771-0.19,1.009-0.512l4.762-6.453c0.194-0.262,0.583-0.262,0.776,0
	l4.762,6.453c0.238,0.322,0.612,0.512,1.01,0.512h1.48c0.41,0,0.644-0.474,0.399-0.806l-7.563-10.248
	c-0.237-0.322-0.714-0.322-0.952,0l-7.562,10.248C951.07-124.765,951.305-124.291,951.714-124.291"/>
<path class="st13" d="M966.994,549.961h-1.481c-0.397,0-0.771,0.19-1.009,0.512l-4.762,6.453c-0.194,0.262-0.583,0.262-0.776,0
	l-4.762-6.453c-0.238-0.322-0.612-0.512-1.01-0.512h-1.48c-0.41,0-0.644,0.474-0.399,0.806l7.563,10.248
	c0.237,0.322,0.714,0.322,0.952,0l7.562-10.248C967.638,550.435,967.403,549.961,966.994,549.961"/>
<rect x="948.854" y="-137.827" class="st9" width="21" height="702.124"/>
<g>
	<g>
		<line class="st7" x1="227.88" y1="-14.847" x2="214.863" y2="-14.847"/>
		<line class="st7" x1="227.88" y1="-25.023" x2="214.863" y2="-25.023"/>
		<line class="st7" x1="227.88" y1="-19.935" x2="214.863" y2="-19.935"/>
		<g>
			<path class="st5" d="M211.221-26.493v2.104h-0.487v-1.714h-0.421v-0.391H211.221z"/>
		</g>
		<g>
			<path class="st5" d="M211.981-19.526v0.396h-1.59v-0.315l0.812-0.767c0.187-0.178,0.22-0.286,0.22-0.388
				c0-0.165-0.114-0.262-0.337-0.262c-0.18,0-0.333,0.069-0.436,0.21l-0.355-0.228c0.163-0.238,0.457-0.392,0.836-0.392
				c0.469,0,0.781,0.241,0.781,0.623c0,0.204-0.057,0.391-0.352,0.664l-0.484,0.457H211.981z"/>
		</g>
		<g>
			<path class="st5" d="M211.963-14.767c0,0.354-0.273,0.68-0.872,0.68c-0.295,0-0.599-0.081-0.803-0.226l0.189-0.373
				c0.159,0.121,0.382,0.189,0.601,0.189c0.244,0,0.394-0.099,0.394-0.271c0-0.159-0.117-0.258-0.394-0.258h-0.223v-0.322
				l0.433-0.49h-0.896v-0.391h1.473v0.316l-0.475,0.541C211.771-15.311,211.963-15.077,211.963-14.767z"/>
		</g>
	</g>
	<polygon class="st6" points="205.834,-33.29 205.834,-7.29 205.834,-7.04 206.084,-7.04 232.084,-7.04 232.334,-7.04 
		232.334,-7.29 232.334,-33.29 232.334,-33.54 232.084,-33.54 206.084,-33.54 205.834,-33.54 	"/>
</g>
<polygon class="st6" points="144.002,-33.29 144.002,-7.29 144.002,-7.04 144.252,-7.04 170.252,-7.04 170.502,-7.04 170.502,-7.29 
	170.502,-33.29 170.502,-33.54 170.252,-33.54 144.252,-33.54 144.002,-33.54 "/>
<g>
	<polygon class="st6" points="174.343,-33.29 174.343,-7.29 174.343,-7.04 174.593,-7.04 200.593,-7.04 200.843,-7.04 
		200.843,-7.29 200.843,-33.29 200.843,-33.54 200.593,-33.54 174.593,-33.54 174.343,-33.54 	"/>
	<path class="st7" d="M195.875-15.165h-13.016 M195.875-20.298h-13.016 M195.875-25.43h-13.016"/>
	<path class="st5" d="M180.773-19.714c0.161-0.156,0.241-0.349,0.241-0.581c0-0.15-0.037-0.288-0.11-0.414
		c-0.073-0.125-0.172-0.224-0.297-0.297c-0.126-0.073-0.264-0.11-0.415-0.11c-0.15,0-0.288,0.037-0.41,0.11
		c-0.122,0.073-0.221,0.172-0.294,0.297c-0.072,0.126-0.11,0.264-0.11,0.414c0,0.232,0.08,0.425,0.238,0.581
		c0.157,0.156,0.35,0.234,0.576,0.234C180.419-19.48,180.612-19.558,180.773-19.714"/>
	<path class="st5" d="M180.196-24.348c0.489,0,0.885-0.396,0.885-0.885c0-0.488-0.396-0.885-0.885-0.885
		c-0.488,0-0.885,0.397-0.885,0.885C179.311-24.744,179.708-24.348,180.196-24.348"/>
	<path class="st5" d="M180.773-14.697c0.161-0.156,0.241-0.349,0.241-0.581c0-0.15-0.037-0.288-0.11-0.414
		c-0.073-0.125-0.172-0.224-0.297-0.297c-0.126-0.073-0.264-0.11-0.415-0.11c-0.15,0-0.288,0.037-0.41,0.11
		c-0.122,0.073-0.221,0.172-0.294,0.297c-0.072,0.126-0.11,0.264-0.11,0.414c0,0.232,0.08,0.425,0.238,0.581
		c0.157,0.156,0.35,0.234,0.576,0.234C180.419-14.463,180.612-14.541,180.773-14.697"/>
</g>
<path class="st7" d="M165.534-15.158h-13.016 M165.534-20.291h-13.016 M165.534-25.423h-13.016"/>
<rect x="148.97" y="-26.192" class="st5" width="1.77" height="1.77"/>
<rect x="148.97" y="-21.176" class="st5" width="1.77" height="1.77"/>
<rect x="148.97" y="-16.158" class="st5" width="1.77" height="1.77"/>
<rect x="487.491" y="-101.08" class="st2" width="245" height="57.75"/>
<text transform="matrix(1 0 0 1 562.1891 -74.8842)"><tspan x="0" y="0" class="st5" style="font-family:'Montserrat-Regular'; font-size:13px;">N</tspan><tspan x="10.478" y="0" class="st5" style="font-family:'Montserrat-Regular'; font-size:13px;">e</tspan><tspan x="18.135" y="0" class="st5" style="font-family:'Montserrat-Regular'; font-size:13px;">u</tspan><tspan x="26.753" y="0" class="st5" style="font-family:'Montserrat-Regular'; font-size:13px;">e </tspan><tspan x="38.011" y="0" class="st5" style="font-family:'Montserrat-Regular'; font-size:13px; letter-spacing:-1;">T</tspan><tspan x="44.381" y="0" class="st5" style="font-family:'Montserrat-Regular'; font-size:13px;">e</tspan><tspan x="51.882" y="0" class="st5" style="font-family:'Montserrat-Regular'; font-size:13px;">x</tspan><tspan x="59.097" y="0" class="st5" style="font-family:'Montserrat-Regular'; font-size:13px;">t</tspan><tspan x="64.128" y="0" class="st5" style="font-family:'Montserrat-Regular'; font-size:13px;">b</tspan><tspan x="72.942" y="0" class="st5" style="font-family:'Montserrat-Regular'; font-size:13px;">o</tspan><tspan x="80.742" y="0" class="st5" style="font-family:'Montserrat-Regular'; font-size:13px;">x </tspan></text>
<path class="st14" d="M609.991-53.121c3.707,0,6.713-3.005,6.713-6.712c0-3.708-3.006-6.713-6.713-6.713
	c-3.707,0-6.712,3.005-6.712,6.713C603.279-56.126,606.284-53.121,609.991-53.121z"/>
<rect x="487.491" y="-101.08" class="st9" width="245" height="57.75"/>
<line class="st15" x1="609.991" y1="-63.368" x2="609.991" y2="-56.299"/>
<line class="st15" x1="606.457" y1="-59.802" x2="613.525" y2="-59.802"/>
<path class="st14" d="M499.03-13.286c3.707,0,6.713-3.005,6.713-6.712c0-3.708-3.006-6.713-6.713-6.713s-6.712,3.005-6.712,6.713
	C492.318-16.291,495.323-13.286,499.03-13.286z"/>
<line class="st15" x1="499.03" y1="-23.532" x2="499.03" y2="-16.463"/>
<line class="st15" x1="495.496" y1="-19.967" x2="502.564" y2="-19.967"/>
<g>
	<path class="st16" d="M3.138,1.85H0V0h8.544v1.85H5.407v7.956H3.138V1.85z"/>
	<path class="st16" d="M9.758,0h2.269v9.806H9.758V0z"/>
	<path class="st16" d="M22.853,3.559c0,2.185-1.639,3.544-4.258,3.544h-1.975v2.703H14.35V0h4.244
		C21.214,0,22.853,1.359,22.853,3.559z M20.556,3.559c0-1.079-0.701-1.709-2.087-1.709h-1.849v3.403h1.849
		C19.855,5.253,20.556,4.623,20.556,3.559z"/>
	<path class="st16" d="M32.975,3.559c0,2.185-1.639,3.544-4.258,3.544h-1.975v2.703h-2.269V0h4.244
		C31.336,0,32.975,1.359,32.975,3.559z M30.678,3.559c0-1.079-0.701-1.709-2.087-1.709h-1.849v3.403h1.849
		C29.977,5.253,30.678,4.623,30.678,3.559z"/>
</g>
<path class="st16" d="M-33.49-4.471L-33.49-4.471c-1.054,2.474-1.96,4.602-2.889,6.784h5.729
	C-31.594,0.057-32.476-2.051-33.49-4.471 M-29.997,13.119L-29.997,13.119c-0.346-1.15-0.211-1.759,1.044-1.8
	c0.976-0.033,1.343-0.74,1.02-1.64c-0.507-1.414-1.072-2.81-1.681-4.183c-0.109-0.245-0.55-0.478-0.843-0.484
	c-2.129-0.041-4.261-0.046-6.39,0.005c-0.305,0.008-0.741,0.315-0.877,0.599c-0.558,1.155-1.057,2.342-1.512,3.542
	c-0.57,1.504-0.268,2.026,1.348,2.192c0.783,0.081,1.206,0.319,1.022,1.126c-0.056,0.243-0.355,0.61-0.547,0.613
	c-2.524,0.042-5.049,0.028-7.596,0.028c-0.214-0.956-0.321-1.631,0.868-1.885c0.569-0.122,1.219-0.609,1.515-1.117
	c0.755-1.293,1.377-2.67,1.972-4.049c2.401-5.559,4.761-11.135,7.172-16.689c0.173-0.398,0.634-0.67,0.96-1
	c0.319,0.343,0.766,0.632,0.937,1.037c2.56,6.048,5.079,12.114,7.622,18.17c0.326,0.776,0.705,1.534,1.106,2.275
	c0.507,0.939,1.332,1.389,2.379,1.595c0.265,0.052,0.519,0.638,0.586,1.013c0.032,0.175-0.39,0.621-0.611,0.624
	C-23.655,13.132-26.808,13.119-29.997,13.119"/>
<path class="st5" d="M63.748,5.581c2.682-0.014,4.762-2.036,4.751-4.621c-0.01-2.367-2.203-4.406-4.733-4.399
	c-2.703,0.008-4.848,2.038-4.825,4.568C58.964,3.593,61.124,5.594,63.748,5.581 M69.303,5.594L69.303,5.594
	c0.393-0.231,0.569-0.207,0.91,0.115c1.249,1.181,2.501,2.361,3.751,3.541c0.086,0.08,0.173,0.159,0.252,0.246
	c0.216,0.237,0.217,0.464-0.012,0.692c-0.249,0.248-0.509,0.488-0.767,0.727c-0.302,0.28-0.548,0.287-0.855,0
	c-1.177-1.103-2.348-2.211-3.522-3.318c-0.132-0.124-0.263-0.25-0.396-0.373c-0.368-0.34-0.394-0.487-0.153-0.896
	c-0.368-0.336-0.737-0.673-1.128-1.029c-1.472,1.07-3.153,1.471-5.011,1.06c-1.415-0.313-2.544-1.054-3.377-2.178
	c-1.65-2.23-1.286-5.335,0.823-7.11c2.222-1.87,5.521-1.904,7.68-0.117c2.217,1.835,2.765,5.106,0.696,7.583
	C68.564,4.89,68.933,5.241,69.303,5.594"/>
<path class="st17" d="M63.748,5.581c2.682-0.014,4.762-2.036,4.751-4.621c-0.01-2.367-2.203-4.406-4.733-4.399
	c-2.703,0.008-4.848,2.038-4.825,4.568C58.964,3.593,61.124,5.594,63.748,5.581z M69.303,5.594L69.303,5.594
	c0.393-0.231,0.569-0.207,0.91,0.115c1.249,1.181,2.501,2.361,3.751,3.541c0.086,0.08,0.173,0.159,0.252,0.246
	c0.216,0.237,0.217,0.464-0.012,0.692c-0.249,0.248-0.509,0.488-0.767,0.727c-0.302,0.28-0.548,0.287-0.855,0
	c-1.177-1.103-2.348-2.211-3.522-3.318c-0.132-0.124-0.263-0.25-0.396-0.373c-0.368-0.34-0.394-0.487-0.153-0.896
	c-0.368-0.336-0.737-0.673-1.128-1.029c-1.472,1.07-3.153,1.471-5.011,1.06c-1.415-0.313-2.544-1.054-3.377-2.178
	c-1.65-2.23-1.286-5.335,0.823-7.11c2.222-1.87,5.521-1.904,7.68-0.117c2.217,1.835,2.765,5.106,0.696,7.583
	C68.564,4.89,68.933,5.241,69.303,5.594z"/>
<path class="st5" d="M127.463-4l2.966,2.98v-2.758c0-0.096-0.055-0.229-0.123-0.297l-3.807-3.826c-0.068-0.067-0.178-0.067-0.245,0
	l-3.93,3.949v2.758c0,0.096,0.055,0.119,0.122,0.051L125.29-4c0.068-0.068,0.122-0.046,0.122,0.05v7.829h0v2.168
	c0,0.096-0.055,0.118-0.123,0.05l-2.966-2.98v2.758c0,0.096,0.055,0.229,0.123,0.297l3.807,3.826c0.068,0.067,0.178,0.067,0.245,0
	l3.93-3.949V3.291c0-0.096-0.055-0.119-0.122-0.051l-2.844,2.857c-0.068,0.068-0.122,0.046-0.122-0.05v-7.829h0V-3.95
	C127.34-4.046,127.395-4.068,127.463-4z"/>
<line class="st18" x1="91.324" y1="9.236" x2="119.157" y2="9.236"/>
<line class="st18" x1="91.324" y1="0.94" x2="119.157" y2="0.94"/>
<line class="st18" x1="91.324" y1="-7.052" x2="119.157" y2="-7.052"/>
<line class="st18" x1="105.665" y1="28.208" x2="105.665" y2="49.208"/>
<path class="st5" d="M113.125,42.051L113.125,42.051h2.695l-2.603-2.569c-0.138-0.135-0.093-0.245,0.101-0.245h7.006V37.83
	c0-0.193-0.157-0.35-0.35-0.35h-6.656c-0.194,0-0.239-0.11-0.101-0.246l2.603-2.569h-2.345c-0.193,0-0.462,0.111-0.599,0.246
	l-3.245,3.201c-0.137,0.136-0.137,0.356,0,0.492L113.125,42.051z"/>
<path class="st5" d="M97.355,34.839L97.355,34.839H94.66l2.603,2.569c0.138,0.135,0.093,0.245-0.101,0.245h-7.006v1.407
	c0,0.193,0.157,0.35,0.35,0.35h6.656c0.194,0,0.239,0.11,0.101,0.246l-2.603,2.569h2.345c0.193,0,0.462-0.111,0.599-0.246
	l3.245-3.201c0.137-0.136,0.137-0.356,0-0.492L97.355,34.839z"/>
<line class="st19" x1="421.952" y1="-90.905" x2="385.929" y2="-90.905"/>
<path class="st20" d="M413.449-87.759c2.045,0,3.703-1.658,3.703-3.703c0-2.045-1.658-3.703-3.703-3.703
	c-2.045,0-3.703,1.658-3.703,3.703C409.746-89.417,411.404-87.759,413.449-87.759"/>
<g>
	<path class="st5" d="M436.647-90.704c0,3.12-1.82,4.836-4.459,4.836c-0.91,0-1.781-0.195-2.392-0.585l0.624-1.274
		c0.494,0.325,1.092,0.442,1.729,0.442c1.716,0,2.795-1.066,2.795-3.133v-0.014c-0.546,0.638-1.417,0.949-2.431,0.949
		c-1.794,0-3.133-1.092-3.133-2.795c0-1.807,1.469-2.951,3.328-2.951C435.191-95.228,436.647-93.629,436.647-90.704z
		 M434.685-92.368c0-0.858-0.676-1.534-1.885-1.534c-1.053,0-1.781,0.598-1.781,1.547s0.715,1.547,1.82,1.547
		C433.931-90.809,434.685-91.472,434.685-92.368z"/>
	<path class="st5" d="M444.513-88.793c0,1.599-1.157,2.925-3.602,2.925c-1.287,0-2.587-0.39-3.419-1.053l0.715-1.313
		c0.663,0.546,1.651,0.897,2.678,0.897c1.209,0,1.924-0.533,1.924-1.392c0-0.871-0.559-1.417-2.444-1.417h-2.197l0.468-4.953h5.343
		v1.417h-3.913l-0.195,2.106h0.871C443.434-91.575,444.513-90.405,444.513-88.793z"/>
	<path class="st5" d="M448.932-92.693c0-1.495,0.871-2.496,2.171-2.496s2.184,0.988,2.184,2.496s-0.884,2.496-2.184,2.496
		S448.932-91.198,448.932-92.693z M452.221-92.693c0-1.014-0.416-1.586-1.118-1.586c-0.676,0-1.118,0.585-1.118,1.586
		s0.442,1.586,1.118,1.586C451.805-91.107,452.221-91.68,452.221-92.693z M456.563-95.099h1.274l-6.214,9.101h-1.274L456.563-95.099
		z M454.899-88.403c0-1.495,0.871-2.496,2.171-2.496c1.3,0,2.184,1.001,2.184,2.496s-0.884,2.496-2.184,2.496
		C455.77-85.907,454.899-86.908,454.899-88.403z M458.188-88.403c0-1.001-0.429-1.586-1.118-1.586s-1.118,0.572-1.118,1.586
		c0,1.015,0.429,1.586,1.118,1.586S458.188-87.402,458.188-88.403z"/>
</g>
<rect x="399.889" y="-36.762" class="st11" width="13.149" height="16.764"/>
<polygon class="st21" points="399.888,-19.998 399.888,-19.998 413.037,-19.998 413.037,-36.762 399.888,-36.762 "/>
<rect x="392.217" y="-37.233" class="st9" width="21.291" height="24"/>
<line class="st22" x1="396.714" y1="-29.067" x2="396.714" y2="-18.68"/>
<line class="st23" x1="399.346" y1="-16.791" x2="408.995" y2="-16.791"/>
<path class="st21" d="M409.871-16.791h0.877 M396.714-17.735v0.944h0.877 M396.714-31.9v0.944"/>
<polyline class="st21" points="392.687,-28.812 392.687,-13.704 406.721,-13.704 "/>
<rect x="392.217" y="-37.233" class="st9" width="21.291" height="24"/>
<rect x="431.462" y="-36.831" class="st11" width="14.674" height="18.705"/>
<polygon class="st24" points="431.463,-18.126 431.463,-18.126 446.136,-18.126 446.136,-36.831 431.463,-36.831 "/>
<rect x="431.06" y="-37.233" class="st9" width="19.884" height="24"/>
<rect x="435.869" y="-32.34" class="st5" width="14.674" height="18.705"/>
<polygon class="st25" points="435.869,-13.635 435.869,-13.635 450.542,-13.635 450.542,-32.34 435.869,-32.34 "/>
<rect x="431.06" y="-37.233" class="st9" width="19.884" height="24"/>
<rect x="332.57" y="-33.284" class="st10" width="34.924" height="19.551"/>
<text transform="matrix(1 0 0 1 339.5701 -18.6327)"><tspan x="0" y="0" class="st11" style="font-family:'Montserrat-Regular'; font-size:13px;">e</tspan><tspan x="7.41" y="0" class="st11" style="font-family:'Montserrat-Regular'; font-size:13px;">i</tspan><tspan x="10.335" y="0" class="st11" style="font-family:'Montserrat-Regular'; font-size:13px;">n</tspan></text>
<polygon class="st6" points="297.562,-33.409 297.562,-13.409 297.562,-13.159 297.812,-13.159 366.661,-13.159 366.911,-13.159 
	366.911,-13.409 366.911,-33.409 366.911,-33.659 366.661,-33.659 297.812,-33.659 297.562,-33.659 "/>
<rect x="297.312" y="-33.909" class="st9" width="70.183" height="21"/>
<line class="st26" x1="438.626" y1="56.23" x2="438.626" y2="80.49"/>
<path class="st5" d="M446.723,72.048L446.723,72.048h2.592l-2.494-2.46c-0.138-0.135-0.093-0.245,0.101-0.245h6.725v-1.339
	c0-0.193-0.157-0.35-0.35-0.35h-6.725l2.743-2.705h-2.242c-0.193,0-0.462,0.11-0.599,0.245l-3.102,3.059
	c-0.137,0.135-0.137,0.355,0,0.491L446.723,72.048z"/>
<line class="st26" x1="411.681" y1="80.323" x2="411.681" y2="56.063"/>
<path class="st5" d="M403.584,64.505L403.584,64.505h-2.592l2.494,2.46c0.138,0.135,0.093,0.245-0.101,0.245h-6.725v1.339
	c0,0.193,0.157,0.35,0.35,0.35h6.725l-2.743,2.705h2.242c0.193,0,0.462-0.11,0.599-0.245l3.102-3.059
	c0.137-0.135,0.137-0.355,0-0.491L403.584,64.505z"/>
<line class="st26" x1="221.939" y1="64.102" x2="246.199" y2="64.102"/>
<path class="st5" d="M237.59,56.044L237.59,56.044v-2.592l-2.46,2.494c-0.135,0.138-0.245,0.093-0.245-0.101V49.12h-1.339
	c-0.193,0-0.35,0.157-0.35,0.35v6.725l-2.705-2.743v2.242c0,0.193,0.11,0.462,0.245,0.599l3.059,3.102
	c0.135,0.137,0.355,0.137,0.491,0L237.59,56.044z"/>
<path class="st5" d="M230.658,71.196L230.658,71.196v2.592l2.46-2.494c0.135-0.138,0.245-0.093,0.245,0.101v6.725h1.339
	c0.193,0,0.35-0.157,0.35-0.35v-6.725l2.705,2.743v-2.242c0-0.193-0.11-0.462-0.245-0.599l-3.059-3.102
	c-0.135-0.137-0.355-0.137-0.491,0L230.658,71.196z"/>
<line class="st26" x1="278.385" y1="76.912" x2="278.385" y2="52.652"/>
<path class="st5" d="M270.327,61.261L270.327,61.261h-2.592l2.494,2.46c0.138,0.135,0.093,0.245-0.101,0.245h-6.725v1.339
	c0,0.193,0.157,0.35,0.35,0.35h6.725l-2.743,2.705h2.242c0.193,0,0.462-0.11,0.599-0.245l3.102-3.059
	c0.137-0.135,0.137-0.355,0-0.491L270.327,61.261z"/>
<path class="st5" d="M285.479,68.193L285.479,68.193h2.592l-2.494-2.46c-0.138-0.135-0.093-0.245,0.101-0.245h6.725v-1.339
	c0-0.193-0.157-0.35-0.35-0.35h-6.725l2.743-2.705h-2.242c-0.193,0-0.462,0.11-0.599,0.245l-3.102,3.059
	c-0.137,0.135-0.137,0.355,0,0.491L285.479,68.193z"/>
<line class="st26" x1="310.526" y1="64.385" x2="334.786" y2="64.385"/>
<path class="st5" d="M319.245,71.479L319.245,71.479v2.592l2.46-2.494c0.135-0.138,0.245-0.093,0.245,0.101v6.725h1.339
	c0.193,0,0.35-0.157,0.35-0.35v-6.725l2.705,2.743v-2.242c0-0.193-0.11-0.462-0.245-0.599l-3.059-3.102
	c-0.135-0.137-0.355-0.137-0.491,0L319.245,71.479z"/>
<line class="st26" x1="355.637" y1="75.64" x2="379.897" y2="75.64"/>
<path class="st5" d="M371.456,67.251L371.456,67.251v-2.592l-2.46,2.494c-0.135,0.138-0.245,0.093-0.245-0.101v-6.725h-1.339
	c-0.193,0-0.35,0.157-0.35,0.35v6.725l-2.705-2.743v2.242c0,0.193,0.11,0.462,0.245,0.599l3.059,3.102
	c0.135,0.137,0.355,0.137,0.491,0L371.456,67.251z"/>
<rect x="501.501" y="48.714" class="st11" width="15.769" height="20.056"/>
<line class="st27" x1="504.458" y1="68.77" x2="515.299" y2="68.77"/>
<line class="st28" x1="517.27" y1="65.762" x2="517.27" y2="50.72"/>
<line class="st27" x1="514.313" y1="48.714" x2="503.472" y2="48.714"/>
<line class="st28" x1="501.501" y1="51.723" x2="501.501" y2="66.765"/>
<path class="st21" d="M501.501,67.767v1.003h0.986 M502.487,48.714h-0.986v1.003 M517.27,49.717v-1.003h-0.985 M516.285,68.77h0.985
	v-1.003"/>
<polygon class="st11" points="490.265,78.77 490.265,78.77 506.034,78.77 506.034,58.714 490.265,58.714 "/>
<line class="st27" x1="493.222" y1="78.77" x2="504.063" y2="78.77"/>
<line class="st28" x1="506.034" y1="75.762" x2="506.034" y2="60.72"/>
<line class="st27" x1="503.078" y1="58.714" x2="492.237" y2="58.714"/>
<line class="st28" x1="490.265" y1="61.723" x2="490.265" y2="76.765"/>
<path class="st21" d="M490.265,77.767v1.003h0.986 M491.251,58.714h-0.986v1.003 M506.034,59.717v-1.003h-0.985 M505.049,78.77
	h0.985v-1.003"/>
<polygon class="st11" points="480.791,86.77 480.791,86.77 496.56,86.77 496.56,66.714 480.791,66.714 "/>
<polygon class="st21" points="480.791,86.77 480.791,86.77 496.56,86.77 496.56,66.714 480.791,66.714 "/>
<g>
	<polygon class="st11" points="554.628,73.076 554.628,73.076 570.397,73.076 570.397,53.02 554.628,53.02 	"/>
	<polygon class="st21" points="554.628,73.076 554.628,73.076 570.397,73.076 570.397,53.02 554.628,53.02 	"/>
	<line class="st29" x1="550.863" y1="61.574" x2="550.863" y2="75.078"/>
	<line class="st30" x1="554.001" y1="76.879" x2="565.504" y2="76.879"/>
	<path class="st21" d="M566.548,76.879h1.046 M550.863,75.979v0.9h1.046 M550.863,58.874v0.9"/>
</g>
<g>
	<g>
		<rect x="627.168" y="41.299" class="st11" width="15.769" height="20.056"/>
		<polygon class="st21" points="627.167,61.355 627.167,61.355 642.936,61.355 642.936,41.299 627.167,41.299 		"/>
		<polygon class="st11" points="615.931,71.355 615.931,71.355 631.7,71.355 631.7,51.299 615.931,51.299 		"/>
		<line class="st27" x1="618.888" y1="71.355" x2="629.729" y2="71.355"/>
		<line class="st28" x1="631.7" y1="68.347" x2="631.7" y2="53.305"/>
		<line class="st27" x1="628.744" y1="51.299" x2="617.903" y2="51.299"/>
		<line class="st28" x1="615.931" y1="54.308" x2="615.931" y2="69.35"/>
		<path class="st21" d="M615.931,70.352v1.003h0.986 M616.917,51.299h-0.986v1.003 M631.7,52.302v-1.003h-0.985 M630.715,71.355
			h0.985v-1.003"/>
		<polygon class="st11" points="606.457,79.355 606.457,79.355 622.226,79.355 622.226,59.299 606.457,59.299 		"/>
		<line class="st27" x1="609.414" y1="79.355" x2="620.255" y2="79.355"/>
		<line class="st28" x1="622.226" y1="76.347" x2="622.226" y2="61.305"/>
		<line class="st27" x1="619.27" y1="59.299" x2="608.429" y2="59.299"/>
		<line class="st28" x1="606.457" y1="62.308" x2="606.457" y2="77.35"/>
		<path class="st21" d="M606.457,78.352v1.003h0.986 M607.443,59.299h-0.986v1.003 M622.226,60.302v-1.003h-0.985 M621.241,79.355
			h0.985v-1.003"/>
	</g>
	<line class="st27" x1="682.581" y1="74.841" x2="693.422" y2="74.841"/>
	<line class="st28" x1="695.393" y1="71.832" x2="695.393" y2="56.79"/>
	<line class="st27" x1="692.437" y1="54.785" x2="681.596" y2="54.785"/>
	<line class="st28" x1="679.624" y1="57.793" x2="679.624" y2="72.835"/>
	<path class="st21" d="M679.624,73.838v1.003h0.986 M680.61,54.785h-0.986v1.003 M695.393,55.788v-1.003h-0.985 M694.408,74.841
		h0.985v-1.003"/>
	<polyline class="st21" points="675.86,60.639 675.86,78.644 692.591,78.644 	"/>
</g>
<g>
	<defs>
		<rect id="SVGID_1_" x="-79.415" y="168.677" width="241.682" height="1"/>
	</defs>
	<clipPath id="SVGID_00000009558348737350788430000006413985051767538085_">
		<use xlink:href="#SVGID_1_"  style="overflow:visible;"/>
	</clipPath>
	
		<line style="clip-path:url(#SVGID_00000009558348737350788430000006413985051767538085_);fill:none;stroke:#B2B2B2;stroke-linecap:round;stroke-linejoin:round;stroke-dasharray:0,3.009;" x1="-75.906" y1="169.177" x2="160.264" y2="169.177"/>
	
		<path style="clip-path:url(#SVGID_00000009558348737350788430000006413985051767538085_);fill:none;stroke:#B2B2B2;stroke-linecap:round;stroke-linejoin:round;" d="
		M161.767,169.177L161.767,169.177 M-78.915,169.177L-78.915,169.177"/>
</g>
<circle class="st33" cx="-32.517" cy="-52.035" r="12.75"/>
<polygon class="st3" points="110.876,-67.058 97.876,-67.058 104.244,-56.583 "/>
<polygon class="st5" points="118.9,61.484 108.425,67.852 118.9,74.484 "/>
<polygon class="st5" points="89.853,74.484 100.328,68.116 89.853,61.484 "/>
<polygon class="st5" points="172.406,61.484 161.931,67.852 172.406,74.484 "/>
<polygon class="st5" points="137.229,74.484 147.704,68.116 137.229,61.484 "/>
<rect x="297.479" y="-67.047" class="st10" width="34.924" height="19.551"/>
<polygon class="st6" points="297.729,-67.172 297.729,-47.172 297.729,-46.922 297.979,-46.922 366.828,-46.922 367.078,-46.922 
	367.078,-47.172 367.078,-67.172 367.078,-67.422 366.828,-67.422 297.979,-67.422 297.729,-67.422 "/>
<rect x="297.479" y="-67.672" class="st9" width="69.849" height="21"/>
<rect x="332.842" y="-1.019" class="st10" width="34.924" height="19.551"/>
<polygon class="st6" points="297.834,-1.144 297.834,18.856 297.834,19.106 298.084,19.106 366.933,19.106 367.183,19.106 
	367.183,18.856 367.183,-1.144 367.183,-1.394 366.933,-1.394 298.084,-1.394 297.834,-1.394 "/>
<rect x="297.584" y="-1.644" class="st9" width="70.183" height="21"/>
<line class="st19" x1="420.874" y1="-71.118" x2="384.851" y2="-71.118"/>
<path class="st20" d="M412.371-67.971c2.045,0,3.703-1.658,3.703-3.703s-1.658-3.703-3.703-3.703c-2.045,0-3.703,1.658-3.703,3.703
	S410.326-67.971,412.371-67.971"/>
<line class="st19" x1="729.198" y1="-40.338" x2="693.175" y2="-40.338"/>
<path class="st20" d="M720.695-37.192c2.045,0,3.703-1.658,3.703-3.703c0-2.045-1.658-3.703-3.703-3.703
	c-2.045,0-3.703,1.658-3.703,3.703C716.992-38.85,718.65-37.192,720.695-37.192"/>
</svg>
