<?xml version="1.0" encoding="utf-8"?>
<!-- Generator: Adobe Illustrator 26.0.3, SVG Export Plug-In . SVG Version: 6.00 Build 0)  -->
<svg version="1.1" id="Ebene_1" xmlns="http://www.w3.org/2000/svg" xmlns:xlink="http://www.w3.org/1999/xlink" x="0px" y="0px"
	 width="30.168px" height="21px" viewBox="0 0 30.168 21" style="enable-background:new 0 0 30.168 21;" xml:space="preserve">
<style type="text/css">
	.st0{fill:none;stroke:#C5C5C5;stroke-width:3;stroke-linecap:round;stroke-linejoin:round;}
	.st1{fill:#FFAEFF;stroke:#4F4D4D;stroke-width:0.5;}
	.st2{fill:#F8F8F8;}
	.st3{fill:#0E689A;}
	.st4{fill:none;stroke:#B2B1B1;stroke-width:0.65;stroke-miterlimit:10;}
	.st5{fill:#B2B1B1;}
	.st6{fill:none;stroke:#B2B2B2;stroke-width:0.5;stroke-miterlimit:10;}
	.st7{fill:none;stroke:#B2B1B1;stroke-width:0.3;stroke-miterlimit:10;}
	.st8{fill:none;stroke:#FFFFFF;stroke-width:0.021;}
	.st9{fill:none;}
	.st10{fill:#0E6899;}
	.st11{fill:#FFFFFF;}
	.st12{fill:none;stroke:#C5C5C5;stroke-width:0.5;stroke-linecap:round;stroke-linejoin:round;}
	.st13{fill:#C5C5C5;}
	.st14{fill:none;stroke:#B2B1B1;stroke-width:0.5;}
	.st15{fill:none;stroke:#B2B1B1;stroke-width:1.2;}
	.st16{fill:#B2B2B2;}
	.st17{fill:none;stroke:#FFFFFF;stroke-width:0.001;}
	.st18{fill:none;stroke:#B2B1B1;stroke-width:1.712;}
	.st19{fill:none;stroke:#B2B1B1;stroke-width:2;}
	.st20{fill:#AD5E7A;}
	.st21{fill:none;stroke:#B2B1B1;stroke-width:0.941;}
	.st22{fill:none;stroke:#B2B1B1;stroke-width:0.941;stroke-dasharray:1.889,1.889;}
	.st23{fill:none;stroke:#B2B1B1;stroke-width:0.941;stroke-dasharray:1.754,1.754;}
	.st24{fill:none;stroke:#B2B1B1;stroke-width:0.804;}
	.st25{fill:none;stroke:#FFFFFF;stroke-width:0.804;}
	.st26{fill:none;stroke:#B2B1B1;stroke-width:2.5;}
	.st27{fill:none;stroke:#B2B1B1;stroke-width:0.941;stroke-dasharray:1.971,1.971;}
	.st28{fill:none;stroke:#B2B1B1;stroke-width:0.941;stroke-dasharray:2.006,2.006;}
	.st29{fill:none;stroke:#B2B1B1;stroke-width:0.941;stroke-dasharray:1.801,1.801;}
	.st30{fill:none;stroke:#B2B1B1;stroke-width:0.941;stroke-dasharray:2.091,2.091;}
	
		.st31{clip-path:url(#SVGID_00000012431050373824632480000015095078753434587544_);fill:none;stroke:#B2B2B2;stroke-linecap:round;stroke-linejoin:round;stroke-dasharray:0,3.009;}
	
		.st32{clip-path:url(#SVGID_00000012431050373824632480000015095078753434587544_);fill:none;stroke:#B2B2B2;stroke-linecap:round;stroke-linejoin:round;}
	.st33{fill:none;stroke:#4F4D4D;stroke-width:0.5;}
</style>
<polyline class="st0" points="1869.22,846.414 1862.97,837.414 1856.22,846.414 "/>
<circle class="st1" cx="-122.673" cy="-116.335" r="12.75"/>
<rect x="-90.212" y="-127.35" class="st2" width="119.902" height="21"/>
<polygon class="st3" points="20.617,-122.087 7.617,-122.087 13.985,-111.612 "/>
<g>
	<g>
		<line class="st4" x1="133.63" y1="-109.829" x2="143.912" y2="-109.829"/>
		<g>
			<path class="st5" d="M134.917-115.055v-5.175h1.3v5.122c0,2.016,0.923,2.926,2.561,2.926c1.638,0,2.574-0.91,2.574-2.926v-5.122
				h1.261v5.175c0,2.639-1.443,4.029-3.848,4.029C136.373-111.026,134.917-112.416,134.917-115.055z"/>
		</g>
	</g>
	<polygon class="st6" points="125.521,-128.03 125.521,-102.03 125.521,-101.78 125.771,-101.78 151.771,-101.78 152.021,-101.78 
		152.021,-102.03 152.021,-128.03 152.021,-128.28 151.771,-128.28 125.771,-128.28 125.521,-128.28 	"/>
</g>
<g>
	<g>
		<path class="st5" d="M104.167-119.956h1.3l-1.82,9.101h-1.3L104.167-119.956z"/>
	</g>
	<polygon class="st6" points="90.657,-128.406 90.657,-102.406 90.657,-102.156 90.907,-102.156 116.907,-102.156 117.157,-102.156 
		117.157,-102.406 117.157,-128.406 117.157,-128.656 116.907,-128.656 90.907,-128.656 90.657,-128.656 	"/>
</g>
<g>
	<g>
		<path class="st5" d="M71.019-113.287c0,1.573-1.248,2.483-3.64,2.483h-4.706v-9.101h4.446c2.275,0,3.445,0.949,3.445,2.366
			c0,0.91-0.468,1.612-1.209,2.002C70.369-115.211,71.019-114.431,71.019-113.287z M64.766-118.318v2.146h2.093
			c1.027,0,1.586-0.364,1.586-1.079s-0.559-1.066-1.586-1.066H64.766z M68.9-113.508c0-0.767-0.585-1.131-1.677-1.131h-2.457v2.249
			h2.457C68.315-112.39,68.9-112.728,68.9-113.508z"/>
	</g>
	<polygon class="st6" points="53.596,-128.354 53.596,-102.354 53.596,-102.104 53.846,-102.104 79.846,-102.104 80.096,-102.104 
		80.096,-102.354 80.096,-128.354 80.096,-128.604 79.846,-128.604 53.846,-128.604 53.596,-128.604 	"/>
</g>
<path class="st7" d="M107.784-86.4"/>
<path class="st7" d="M105.276-85.147"/>
<path class="st7" d="M105.276-83.893"/>
<path class="st7" d="M105.276-82.638"/>
<path class="st7" d="M107.784-81.384"/>
<path class="st7" d="M107.784-80.13"/>
<path class="st7" d="M105.276-78.877"/>
<path class="st7" d="M105.276-76.369"/>
<path class="st7" d="M107.784-73.861"/>
<g>
	<path class="st7" d="M88.319-81.384"/>
	<path class="st7" d="M88.319-86.4"/>
	<path class="st7" d="M88.319-73.861"/>
	<path class="st7" d="M88.319-80.13"/>
	<g>
		<path class="st7" d="M90.381-78.877"/>
		<path class="st7" d="M90.381-82.638"/>
		<path class="st7" d="M90.381-83.893"/>
		<path class="st7" d="M90.381-85.147"/>
		<line class="st7" x1="87.944" y1="-74.656" x2="107.408" y2="-74.656"/>
		<line class="st7" x1="87.944" y1="-75.931" x2="102.838" y2="-75.931"/>
		<line class="st7" x1="87.944" y1="-77.207" x2="102.838" y2="-77.207"/>
		<line class="st7" x1="87.944" y1="-78.483" x2="102.838" y2="-78.483"/>
		<line class="st7" x1="87.944" y1="-79.759" x2="107.408" y2="-79.759"/>
		<line class="st7" x1="87.944" y1="-81.035" x2="107.408" y2="-81.035"/>
		<line class="st7" x1="88.017" y1="-82.311" x2="102.911" y2="-82.311"/>
		<line class="st7" x1="87.944" y1="-83.587" x2="107.408" y2="-83.587"/>
		<line class="st7" x1="87.944" y1="-84.863" x2="102.838" y2="-84.863"/>
		<line class="st7" x1="87.944" y1="-86.139" x2="102.838" y2="-86.139"/>
		<line class="st7" x1="87.944" y1="-87.415" x2="107.408" y2="-87.415"/>
	</g>
	<polygon class="st6" points="84.617,-93.71 84.617,-67.717 84.617,-67.467 84.867,-67.467 110.86,-67.467 111.11,-67.467 
		111.11,-67.717 111.11,-93.71 111.11,-93.96 110.86,-93.96 84.867,-93.96 84.617,-93.96 	"/>
</g>
<g>
	<g>
		<line class="st7" x1="138.664" y1="-87.098" x2="119.2" y2="-87.098"/>
		<line class="st7" x1="136.156" y1="-85.821" x2="121.262" y2="-85.821"/>
		<line class="st7" x1="136.156" y1="-84.544" x2="121.262" y2="-84.544"/>
		<line class="st7" x1="136.156" y1="-83.267" x2="121.262" y2="-83.267"/>
		<line class="st7" x1="138.664" y1="-81.99" x2="119.2" y2="-81.99"/>
		<line class="st7" x1="138.664" y1="-80.713" x2="119.2" y2="-80.713"/>
		<line class="st7" x1="136.156" y1="-79.436" x2="121.262" y2="-79.436"/>
		<line class="st7" x1="138.664" y1="-78.159" x2="119.2" y2="-78.159"/>
		<line class="st7" x1="136.156" y1="-76.882" x2="121.262" y2="-76.882"/>
		<line class="st7" x1="136.156" y1="-75.605" x2="121.262" y2="-75.605"/>
		<line class="st7" x1="138.664" y1="-74.328" x2="119.2" y2="-74.328"/>
	</g>
	<polygon class="st6" points="115.685,-93.71 115.685,-67.717 115.685,-67.467 115.935,-67.467 141.928,-67.467 142.178,-67.467 
		142.178,-67.717 142.178,-93.71 142.178,-93.96 141.928,-93.96 115.935,-93.96 115.685,-93.96 	"/>
</g>
<polygon class="st6" points="146.754,-93.71 146.754,-67.717 146.754,-67.467 147.004,-67.467 172.997,-67.467 173.247,-67.467 
	173.247,-67.717 173.247,-93.71 173.247,-93.96 172.997,-93.96 147.004,-93.96 146.754,-93.96 "/>
<path class="st7" d="M150.081-75.025"/>
<path class="st7" d="M150.081-80.042"/>
<path class="st7" d="M150.081-81.295"/>
<path class="st7" d="M150.081-87.565"/>
<path class="st7" d="M167.483-82.549"/>
<path class="st7" d="M169.545-80.042"/>
<path class="st7" d="M167.483-78.788"/>
<path class="st7" d="M169.545-75.025"/>
<path class="st7" d="M169.545-87.565"/>
<path class="st7" d="M169.545-81.295"/>
<path class="st7" d="M167.483-77.533"/>
<path class="st7" d="M167.483-76.279"/>
<g>
	<path class="st7" d="M152.401-76.602"/>
	<path class="st7" d="M152.401-77.856"/>
	<path class="st7" d="M152.401-79.11"/>
	<path class="st7" d="M152.401-82.872"/>
	<path class="st7" d="M152.401-85.38"/>
	<line class="st7" x1="169.733" y1="-87.092" x2="150.269" y2="-87.092"/>
	<line class="st7" x1="169.733" y1="-85.817" x2="154.839" y2="-85.817"/>
	<line class="st7" x1="169.733" y1="-84.541" x2="154.839" y2="-84.541"/>
	<line class="st7" x1="169.733" y1="-83.265" x2="154.839" y2="-83.265"/>
	<line class="st7" x1="169.733" y1="-81.989" x2="150.269" y2="-81.989"/>
	<line class="st7" x1="169.733" y1="-80.713" x2="150.269" y2="-80.713"/>
	<line class="st7" x1="169.659" y1="-79.437" x2="154.765" y2="-79.437"/>
	<line class="st7" x1="169.733" y1="-78.161" x2="150.269" y2="-78.161"/>
	<line class="st7" x1="169.733" y1="-76.885" x2="154.839" y2="-76.885"/>
	<line class="st7" x1="169.733" y1="-75.609" x2="154.839" y2="-75.609"/>
	<line class="st7" x1="169.733" y1="-74.334" x2="150.269" y2="-74.334"/>
</g>
<polygon class="st6" points="53.846,-93.703 53.846,-67.71 53.846,-67.46 54.096,-67.46 80.089,-67.46 80.339,-67.46 80.339,-67.71 
	80.339,-93.703 80.339,-93.953 80.089,-93.953 54.096,-93.953 53.846,-93.953 "/>
<path class="st7" d="M77.012-86.4"/>
<path class="st7" d="M77.012-81.384"/>
<path class="st7" d="M77.012-80.13"/>
<path class="st7" d="M77.012-73.861"/>
<path class="st7" d="M59.61-78.877"/>
<path class="st7" d="M57.548-81.384"/>
<path class="st7" d="M59.61-82.638"/>
<path class="st7" d="M57.548-86.4"/>
<path class="st7" d="M57.548-73.861"/>
<path class="st7" d="M57.548-80.13"/>
<path class="st7" d="M59.61-83.893"/>
<path class="st7" d="M59.61-85.147"/>
<g>
	<path class="st7" d="M74.505-85.147"/>
	<path class="st7" d="M74.505-83.893"/>
	<path class="st7" d="M74.505-82.638"/>
	<path class="st7" d="M74.505-78.877"/>
	<path class="st7" d="M74.505-76.369"/>
	<line class="st7" x1="57.172" y1="-74.656" x2="76.636" y2="-74.656"/>
	<line class="st7" x1="57.172" y1="-75.931" x2="76.636" y2="-75.931"/>
	<line class="st7" x1="57.172" y1="-77.207" x2="76.636" y2="-77.207"/>
	<line class="st7" x1="57.172" y1="-78.483" x2="76.636" y2="-78.483"/>
	<line class="st7" x1="57.172" y1="-79.759" x2="76.636" y2="-79.759"/>
	<line class="st7" x1="57.172" y1="-81.035" x2="76.636" y2="-81.035"/>
	<line class="st7" x1="57.246" y1="-82.311" x2="76.71" y2="-82.311"/>
	<line class="st7" x1="57.172" y1="-83.587" x2="76.636" y2="-83.587"/>
	<line class="st7" x1="57.172" y1="-84.863" x2="76.636" y2="-84.863"/>
	<line class="st7" x1="57.172" y1="-86.139" x2="76.636" y2="-86.139"/>
	<line class="st7" x1="57.172" y1="-87.415" x2="76.636" y2="-87.415"/>
</g>
<path class="st5" d="M-115.711,21.446l-1.915,13.335c-0.058,0.402-0.431,0.682-0.834,0.624c-0.402-0.058-0.682-0.431-0.624-0.833
	l1.915-13.336c0.058-0.402,0.431-0.681,0.834-0.623C-115.933,20.671-115.653,21.043-115.711,21.446 M-122.528,35.521
	c-0.407,0.003-0.74-0.324-0.742-0.73l-0.106-13.472c-0.003-0.407,0.324-0.739,0.73-0.742c0.408-0.003,0.74,0.324,0.743,0.731
	l0.105,13.471C-121.795,35.186-122.122,35.518-122.528,35.521 M-126.599,35.468c-0.401,0.064-0.779-0.209-0.842-0.61l-2.124-13.304
	c-0.064-0.402,0.209-0.779,0.612-0.843c0.401-0.064,0.778,0.209,0.842,0.611l2.123,13.303
	C-125.924,35.027-126.197,35.404-126.599,35.468 M-112.816,19.06c-0.141-0.169-0.353-0.266-0.573-0.264l-18.538,0.144
	c-0.22,0.002-0.429,0.101-0.568,0.272c-0.14,0.17-0.196,0.393-0.155,0.609l3.092,16.141c0.068,0.351,0.376,0.605,0.734,0.602
	l12.497-0.098c0.356-0.002,0.66-0.258,0.724-0.608l2.949-16.188C-112.614,19.454-112.675,19.229-112.816,19.06"/>
<path class="st8" d="M-115.711,21.446l-1.915,13.335c-0.058,0.402-0.431,0.682-0.834,0.624c-0.402-0.058-0.682-0.431-0.624-0.833
	l1.915-13.336c0.058-0.402,0.431-0.681,0.834-0.623C-115.933,20.671-115.653,21.043-115.711,21.446z M-122.528,35.521
	c-0.407,0.003-0.74-0.324-0.742-0.73l-0.106-13.472c-0.003-0.407,0.324-0.739,0.73-0.742c0.408-0.003,0.74,0.324,0.743,0.731
	l0.105,13.471C-121.795,35.186-122.122,35.518-122.528,35.521z M-126.599,35.468c-0.401,0.064-0.779-0.209-0.842-0.61l-2.124-13.304
	c-0.064-0.402,0.209-0.779,0.612-0.843c0.401-0.064,0.778,0.209,0.842,0.611l2.123,13.303
	C-125.924,35.027-126.197,35.404-126.599,35.468z M-112.816,19.06c-0.141-0.169-0.353-0.266-0.573-0.264l-18.538,0.144
	c-0.22,0.002-0.429,0.101-0.568,0.272c-0.14,0.17-0.196,0.393-0.155,0.609l3.092,16.141c0.068,0.351,0.376,0.605,0.734,0.602
	l12.497-0.098c0.356-0.002,0.66-0.258,0.724-0.608l2.949-16.188C-112.614,19.454-112.675,19.229-112.816,19.06z"/>
<path class="st5" d="M-125.504,14.452L-125.504,14.452l-0.004-0.421l5.49-0.043l0.004,0.421L-125.504,14.452z M-111.767,15.862
	L-111.767,15.862l-2.025,0.016l-0.009-1.171c-0.001-0.091-0.038-0.18-0.103-0.244c-0.065-0.064-0.155-0.1-0.246-0.1l-4.467,0.035
	l-0.009-1.12c-0.002-0.184-0.077-0.363-0.209-0.492c-0.131-0.13-0.311-0.203-0.495-0.201l-6.887,0.054
	c-0.183,0.001-0.363,0.077-0.492,0.208c-0.129,0.131-0.202,0.312-0.2,0.496l0.009,1.12l-4.164,0.032
	c-0.091,0.001-0.18,0.039-0.243,0.104c-0.065,0.065-0.101,0.154-0.101,0.246l0.009,1.171l-2.197,0.017l0.017,2.225l21.829-0.17
	L-111.767,15.862z"/>
<path class="st8" d="M-125.504,14.452L-125.504,14.452l-0.004-0.421l5.49-0.043l0.004,0.421L-125.504,14.452z M-111.767,15.862
	L-111.767,15.862l-2.025,0.016l-0.009-1.171c-0.001-0.091-0.038-0.18-0.103-0.244c-0.065-0.064-0.155-0.1-0.246-0.1l-4.467,0.035
	l-0.009-1.12c-0.002-0.184-0.077-0.363-0.209-0.492c-0.131-0.13-0.311-0.203-0.495-0.201l-6.887,0.054
	c-0.183,0.001-0.363,0.077-0.492,0.208c-0.129,0.131-0.202,0.312-0.2,0.496l0.009,1.12l-4.164,0.032
	c-0.091,0.001-0.18,0.039-0.243,0.104c-0.065,0.065-0.101,0.154-0.101,0.246l0.009,1.171l-2.197,0.017l0.017,2.225l21.829-0.17
	L-111.767,15.862z"/>
<rect x="-133.607" y="12.574" class="st9" width="21.868" height="24"/>
<rect x="207.323" y="-128.193" class="st10" width="34.924" height="19.551"/>
<g>
	<path class="st11" d="M220.3-117.78v4.238h-0.884v-1.066c-0.416,0.702-1.222,1.132-2.354,1.132c-1.547,0-2.496-0.807-2.496-1.989
		c0-1.054,0.676-1.938,2.639-1.938h2.171v-0.416c0-1.17-0.663-1.807-1.938-1.807c-0.884,0-1.716,0.312-2.275,0.806l-0.416-0.688
		c0.689-0.585,1.703-0.924,2.782-0.924C219.299-120.433,220.3-119.548,220.3-117.78z M219.377-115.596v-1.118h-2.146
		c-1.326,0-1.755,0.52-1.755,1.222c0,0.793,0.637,1.287,1.729,1.287C218.246-114.205,219.013-114.699,219.377-115.596z"/>
	<path class="st11" d="M228.399-120.38v6.838h-0.884v-1.248c-0.481,0.832-1.365,1.313-2.458,1.313c-1.742,0-2.886-0.976-2.886-2.938
		v-3.965h0.923v3.874c0,1.456,0.754,2.197,2.054,2.197c1.43,0,2.327-0.924,2.327-2.483v-3.588H228.399z"/>
	<path class="st11" d="M229.698-114.322l0.416-0.728c0.546,0.429,1.469,0.767,2.431,0.767c1.3,0,1.833-0.441,1.833-1.118
		c0-1.78-4.433-0.377-4.433-3.081c0-1.118,0.962-1.95,2.704-1.95c0.884,0,1.846,0.247,2.418,0.638l-0.403,0.74
		c-0.598-0.416-1.313-0.585-2.015-0.585c-1.235,0-1.781,0.481-1.781,1.132c0,1.846,4.434,0.455,4.434,3.081
		c0,1.183-1.04,1.95-2.821,1.95C231.35-113.477,230.258-113.841,229.698-114.322z"/>
</g>
<polygon class="st6" points="207.573,-128.318 207.573,-108.318 207.573,-108.068 207.823,-108.068 276.672,-108.068 
	276.922,-108.068 276.922,-108.318 276.922,-128.318 276.922,-128.568 276.672,-128.568 207.823,-128.568 207.573,-128.568 "/>
<rect x="207.323" y="-128.818" class="st9" width="69.849" height="21"/>
<rect x="-197.074" y="78.512" class="st11" width="1014" height="21"/>
<path class="st3" d="M430.087,78.512c-2.209,0-4,1.791-4,4v12.382c0,2.209,1.791,4,4,4h77.131c2.209,0,4-1.791,4-4V82.512
	c0-2.209-1.791-4-4-4H430.087z"/>
<rect x="-196.824" y="78.762" class="st12" width="1013.5" height="20.5"/>
<path class="st13" d="M800.781,81.372v1.481c0,0.397,0.187,0.771,0.505,1.009l6.367,4.762c0.258,0.194,0.258,0.583,0,0.776
	l-6.367,4.762c-0.318,0.238-0.505,0.612-0.505,1.01v1.48c0,0.41,0.467,0.644,0.795,0.399l10.111-7.563
	c0.318-0.237,0.318-0.714,0-0.952l-10.11-7.562C801.248,80.728,800.781,80.963,800.781,81.372"/>
<path class="st13" d="M-181.222,96.652v-1.481c0-0.397-0.187-0.771-0.505-1.009l-6.367-4.762c-0.258-0.194-0.258-0.583,0-0.776
	l6.367-4.762c0.318-0.238,0.505-0.612,0.505-1.01v-1.48c0-0.41-0.467-0.644-0.795-0.399l-10.111,7.563
	c-0.318,0.237-0.318,0.714,0,0.952l10.11,7.562C-181.689,97.296-181.222,97.061-181.222,96.652"/>
<rect x="-197.074" y="78.512" class="st9" width="1014" height="21"/>
<rect x="858.698" y="-166.034" class="st11" width="21" height="702.123"/>
<path class="st3" d="M858.698,247.928c0,2.209,1.791,4,4,4h12.382c2.209,0,4-1.791,4-4v-78.286c0-2.209-1.791-4-4-4h-12.382
	c-2.209,0-4,1.791-4,4V247.928z"/>
<rect x="858.948" y="-165.785" class="st12" width="20.5" height="701.624"/>
<path class="st13" d="M861.558-152.499h1.481c0.397,0,0.771-0.19,1.009-0.512l4.762-6.453c0.194-0.262,0.583-0.262,0.776,0
	l4.762,6.453c0.238,0.322,0.612,0.512,1.01,0.512h1.48c0.41,0,0.644-0.474,0.399-0.806l-7.563-10.248
	c-0.237-0.322-0.714-0.322-0.952,0l-7.562,10.248C860.914-152.973,861.149-152.499,861.558-152.499"/>
<path class="st13" d="M876.838,521.753h-1.481c-0.397,0-0.771,0.19-1.009,0.512l-4.762,6.453c-0.194,0.262-0.583,0.262-0.776,0
	l-4.762-6.453c-0.238-0.322-0.612-0.512-1.01-0.512h-1.48c-0.41,0-0.644,0.474-0.399,0.806l7.563,10.248
	c0.237,0.322,0.714,0.322,0.952,0l7.562-10.248C877.482,522.227,877.247,521.753,876.838,521.753"/>
<rect x="858.698" y="-166.035" class="st9" width="21" height="702.124"/>
<g>
	<g>
		<line class="st7" x1="137.724" y1="-43.055" x2="124.707" y2="-43.055"/>
		<line class="st7" x1="137.724" y1="-53.231" x2="124.707" y2="-53.231"/>
		<line class="st7" x1="137.724" y1="-48.143" x2="124.707" y2="-48.143"/>
		<g>
			<path class="st5" d="M121.065-54.701v2.104h-0.487v-1.714h-0.421v-0.391H121.065z"/>
		</g>
		<g>
			<path class="st5" d="M121.825-47.733v0.396h-1.59v-0.315l0.812-0.767c0.187-0.178,0.22-0.286,0.22-0.388
				c0-0.165-0.114-0.262-0.337-0.262c-0.18,0-0.333,0.069-0.436,0.21l-0.355-0.228c0.163-0.238,0.457-0.392,0.836-0.392
				c0.469,0,0.781,0.241,0.781,0.623c0,0.204-0.057,0.391-0.352,0.664l-0.484,0.457H121.825z"/>
		</g>
		<g>
			<path class="st5" d="M121.807-42.975c0,0.354-0.273,0.68-0.872,0.68c-0.295,0-0.599-0.081-0.803-0.226l0.189-0.373
				c0.159,0.121,0.382,0.189,0.601,0.189c0.244,0,0.394-0.099,0.394-0.271c0-0.159-0.117-0.258-0.394-0.258h-0.223v-0.322
				l0.433-0.49h-0.896v-0.391h1.473v0.316l-0.475,0.541C121.615-43.519,121.807-43.284,121.807-42.975z"/>
		</g>
	</g>
	<polygon class="st6" points="115.678,-61.498 115.678,-35.498 115.678,-35.248 115.928,-35.248 141.928,-35.248 142.178,-35.248 
		142.178,-35.498 142.178,-61.498 142.178,-61.748 141.928,-61.748 115.928,-61.748 115.678,-61.748 	"/>
</g>
<polygon class="st6" points="53.846,-61.498 53.846,-35.498 53.846,-35.248 54.096,-35.248 80.096,-35.248 80.346,-35.248 
	80.346,-35.498 80.346,-61.498 80.346,-61.748 80.096,-61.748 54.096,-61.748 53.846,-61.748 "/>
<g>
	<polygon class="st6" points="84.187,-61.498 84.187,-35.498 84.187,-35.248 84.437,-35.248 110.437,-35.248 110.687,-35.248 
		110.687,-35.498 110.687,-61.498 110.687,-61.748 110.437,-61.748 84.437,-61.748 84.187,-61.748 	"/>
	<path class="st7" d="M105.719-43.373H92.703 M105.719-48.506H92.703 M105.719-53.638H92.703"/>
	<path class="st5" d="M90.617-47.921c0.161-0.156,0.241-0.349,0.241-0.581c0-0.15-0.037-0.288-0.11-0.414
		c-0.073-0.125-0.172-0.224-0.297-0.297c-0.126-0.073-0.264-0.11-0.415-0.11c-0.15,0-0.288,0.037-0.41,0.11
		c-0.122,0.073-0.221,0.172-0.294,0.297c-0.072,0.126-0.11,0.264-0.11,0.414c0,0.232,0.08,0.425,0.238,0.581
		c0.157,0.156,0.35,0.234,0.576,0.234C90.263-47.687,90.456-47.765,90.617-47.921"/>
	<path class="st5" d="M90.04-52.556c0.489,0,0.885-0.396,0.885-0.885c0-0.488-0.396-0.885-0.885-0.885
		c-0.488,0-0.885,0.397-0.885,0.885C89.155-52.952,89.552-52.556,90.04-52.556"/>
	<path class="st5" d="M90.617-42.904c0.161-0.156,0.241-0.349,0.241-0.581c0-0.15-0.037-0.288-0.11-0.414
		c-0.073-0.125-0.172-0.224-0.297-0.297c-0.126-0.073-0.264-0.11-0.415-0.11c-0.15,0-0.288,0.037-0.41,0.11
		c-0.122,0.073-0.221,0.172-0.294,0.297c-0.072,0.126-0.11,0.264-0.11,0.414c0,0.232,0.08,0.425,0.238,0.581
		c0.157,0.156,0.35,0.234,0.576,0.234C90.263-42.67,90.456-42.748,90.617-42.904"/>
</g>
<path class="st7" d="M75.378-43.366H62.362 M75.378-48.499H62.362 M75.378-53.631H62.362"/>
<rect x="58.814" y="-54.4" class="st5" width="1.77" height="1.77"/>
<rect x="58.814" y="-49.384" class="st5" width="1.77" height="1.77"/>
<rect x="58.814" y="-44.366" class="st5" width="1.77" height="1.77"/>
<rect x="397.335" y="-129.287" class="st2" width="245" height="57.75"/>
<text transform="matrix(1 0 0 1 472.0331 -103.0919)"><tspan x="0" y="0" class="st5" style="font-family:'Montserrat-Regular'; font-size:13px;">N</tspan><tspan x="10.478" y="0" class="st5" style="font-family:'Montserrat-Regular'; font-size:13px;">e</tspan><tspan x="18.135" y="0" class="st5" style="font-family:'Montserrat-Regular'; font-size:13px;">u</tspan><tspan x="26.753" y="0" class="st5" style="font-family:'Montserrat-Regular'; font-size:13px;">e </tspan><tspan x="38.011" y="0" class="st5" style="font-family:'Montserrat-Regular'; font-size:13px; letter-spacing:-1;">T</tspan><tspan x="44.381" y="0" class="st5" style="font-family:'Montserrat-Regular'; font-size:13px;">e</tspan><tspan x="51.882" y="0" class="st5" style="font-family:'Montserrat-Regular'; font-size:13px;">x</tspan><tspan x="59.097" y="0" class="st5" style="font-family:'Montserrat-Regular'; font-size:13px;">t</tspan><tspan x="64.128" y="0" class="st5" style="font-family:'Montserrat-Regular'; font-size:13px;">b</tspan><tspan x="72.942" y="0" class="st5" style="font-family:'Montserrat-Regular'; font-size:13px;">o</tspan><tspan x="80.742" y="0" class="st5" style="font-family:'Montserrat-Regular'; font-size:13px;">x </tspan></text>
<path class="st14" d="M519.835-81.329c3.707,0,6.713-3.005,6.713-6.712c0-3.708-3.006-6.713-6.713-6.713
	c-3.707,0-6.712,3.005-6.712,6.713C513.123-84.334,516.128-81.329,519.835-81.329z"/>
<rect x="397.335" y="-129.287" class="st9" width="245" height="57.75"/>
<line class="st15" x1="519.835" y1="-91.575" x2="519.835" y2="-84.506"/>
<line class="st15" x1="516.301" y1="-88.01" x2="523.369" y2="-88.01"/>
<path class="st14" d="M408.874-41.493c3.707,0,6.713-3.005,6.713-6.712c0-3.708-3.006-6.713-6.713-6.713s-6.712,3.005-6.712,6.713
	C402.162-44.498,405.167-41.493,408.874-41.493z"/>
<line class="st15" x1="408.874" y1="-51.74" x2="408.874" y2="-44.671"/>
<line class="st15" x1="405.34" y1="-48.174" x2="412.408" y2="-48.174"/>
<g>
	<path class="st16" d="M-87.018-26.358h-3.138v-1.85h8.544v1.85h-3.138v7.956h-2.269V-26.358z"/>
	<path class="st16" d="M-80.398-28.208h2.269v9.806h-2.269V-28.208z"/>
	<path class="st16" d="M-67.303-24.649c0,2.185-1.639,3.544-4.258,3.544h-1.975v2.703h-2.269v-9.806h4.244
		C-68.942-28.208-67.303-26.848-67.303-24.649z M-69.6-24.649c0-1.079-0.701-1.709-2.087-1.709h-1.849v3.403h1.849
		C-70.301-22.955-69.6-23.585-69.6-24.649z"/>
	<path class="st16" d="M-57.181-24.649c0,2.185-1.639,3.544-4.258,3.544h-1.975v2.703h-2.269v-9.806h4.244
		C-58.82-28.208-57.181-26.848-57.181-24.649z M-59.478-24.649c0-1.079-0.701-1.709-2.087-1.709h-1.849v3.403h1.849
		C-60.179-22.955-59.478-23.585-59.478-24.649z"/>
</g>
<path class="st16" d="M-123.646-32.679L-123.646-32.679c-1.054,2.474-1.96,4.602-2.889,6.784h5.729
	C-121.75-28.151-122.632-30.259-123.646-32.679 M-120.153-15.089L-120.153-15.089c-0.346-1.15-0.211-1.759,1.044-1.8
	c0.976-0.033,1.343-0.74,1.02-1.64c-0.507-1.414-1.072-2.81-1.681-4.183c-0.109-0.245-0.55-0.478-0.843-0.484
	c-2.129-0.041-4.261-0.046-6.39,0.005c-0.305,0.008-0.741,0.315-0.877,0.599c-0.558,1.155-1.057,2.342-1.512,3.542
	c-0.57,1.504-0.268,2.026,1.348,2.192c0.783,0.081,1.206,0.319,1.022,1.126c-0.056,0.243-0.355,0.61-0.547,0.613
	c-2.524,0.042-5.049,0.028-7.596,0.028c-0.214-0.956-0.321-1.631,0.868-1.885c0.569-0.122,1.219-0.609,1.515-1.117
	c0.755-1.293,1.377-2.67,1.972-4.049c2.401-5.559,4.761-11.135,7.172-16.689c0.173-0.398,0.634-0.67,0.96-1
	c0.319,0.343,0.766,0.632,0.937,1.037c2.56,6.048,5.079,12.114,7.622,18.17c0.326,0.776,0.705,1.534,1.106,2.275
	c0.507,0.939,1.332,1.389,2.379,1.595c0.265,0.052,0.519,0.638,0.586,1.013c0.032,0.175-0.39,0.621-0.611,0.624
	C-113.811-15.076-116.964-15.089-120.153-15.089"/>
<path class="st5" d="M-26.408-22.627c2.682-0.014,4.762-2.036,4.751-4.621c-0.01-2.367-2.203-4.406-4.733-4.399
	c-2.703,0.008-4.848,2.038-4.825,4.568C-31.192-24.615-29.032-22.614-26.408-22.627 M-20.853-22.614L-20.853-22.614
	c0.393-0.231,0.569-0.207,0.91,0.115c1.249,1.181,2.501,2.361,3.751,3.541c0.086,0.08,0.173,0.159,0.252,0.246
	c0.216,0.237,0.217,0.464-0.012,0.692c-0.249,0.248-0.509,0.488-0.767,0.727c-0.302,0.28-0.548,0.287-0.855,0
	c-1.177-1.103-2.348-2.211-3.522-3.318c-0.132-0.124-0.263-0.25-0.396-0.373c-0.368-0.34-0.394-0.487-0.153-0.896
	c-0.368-0.336-0.737-0.673-1.128-1.029c-1.472,1.07-3.153,1.471-5.011,1.06c-1.415-0.313-2.544-1.054-3.377-2.178
	c-1.65-2.23-1.286-5.335,0.823-7.11c2.222-1.87,5.521-1.904,7.68-0.117c2.217,1.835,2.765,5.106,0.696,7.583
	C-21.592-23.318-21.223-22.967-20.853-22.614"/>
<path class="st17" d="M-26.408-22.627c2.682-0.014,4.762-2.036,4.751-4.621c-0.01-2.367-2.203-4.406-4.733-4.399
	c-2.703,0.008-4.848,2.038-4.825,4.568C-31.192-24.615-29.032-22.614-26.408-22.627z M-20.853-22.614L-20.853-22.614
	c0.393-0.231,0.569-0.207,0.91,0.115c1.249,1.181,2.501,2.361,3.751,3.541c0.086,0.08,0.173,0.159,0.252,0.246
	c0.216,0.237,0.217,0.464-0.012,0.692c-0.249,0.248-0.509,0.488-0.767,0.727c-0.302,0.28-0.548,0.287-0.855,0
	c-1.177-1.103-2.348-2.211-3.522-3.318c-0.132-0.124-0.263-0.25-0.396-0.373c-0.368-0.34-0.394-0.487-0.153-0.896
	c-0.368-0.336-0.737-0.673-1.128-1.029c-1.472,1.07-3.153,1.471-5.011,1.06c-1.415-0.313-2.544-1.054-3.377-2.178
	c-1.65-2.23-1.286-5.335,0.823-7.11c2.222-1.87,5.521-1.904,7.68-0.117c2.217,1.835,2.765,5.106,0.696,7.583
	C-21.592-23.318-21.223-22.967-20.853-22.614z"/>
<path class="st5" d="M37.307-32.208l2.966,2.98v-2.758c0-0.096-0.055-0.229-0.123-0.297l-3.807-3.826
	c-0.068-0.067-0.178-0.067-0.245,0l-3.93,3.949v2.758c0,0.096,0.055,0.119,0.122,0.051l2.844-2.857
	c0.068-0.068,0.122-0.046,0.122,0.05v7.829h0v2.168c0,0.096-0.055,0.118-0.123,0.05l-2.966-2.98v2.758
	c0,0.096,0.055,0.229,0.123,0.297l3.807,3.826c0.068,0.067,0.178,0.067,0.245,0l3.93-3.949v-2.758c0-0.096-0.055-0.119-0.122-0.051
	l-2.844,2.857c-0.068,0.068-0.122,0.046-0.122-0.05v-7.829h0v-2.168C37.184-32.254,37.239-32.276,37.307-32.208z"/>
<line class="st18" x1="1.168" y1="-18.971" x2="29.001" y2="-18.971"/>
<line class="st18" x1="1.168" y1="-27.267" x2="29.001" y2="-27.267"/>
<line class="st18" x1="1.168" y1="-35.26" x2="29.001" y2="-35.26"/>
<line class="st18" x1="15.509" y1="0" x2="15.509" y2="21"/>
<path class="st5" d="M22.969,13.843L22.969,13.843h2.695l-2.603-2.569c-0.138-0.135-0.093-0.245,0.101-0.245h7.006V9.622
	c0-0.193-0.157-0.35-0.35-0.35h-6.656c-0.194,0-0.239-0.11-0.101-0.246l2.603-2.569h-2.345c-0.193,0-0.462,0.111-0.599,0.246
	l-3.245,3.201c-0.137,0.136-0.137,0.356,0,0.492L22.969,13.843z"/>
<path class="st5" d="M7.199,6.632L7.199,6.632H4.504l2.603,2.569C7.245,9.336,7.2,9.446,7.006,9.446H0v1.407
	c0,0.193,0.157,0.35,0.35,0.35h6.656c0.194,0,0.239,0.11,0.101,0.246l-2.603,2.569h2.345c0.193,0,0.462-0.111,0.599-0.246
	l3.245-3.201c0.137-0.136,0.137-0.356,0-0.492L7.199,6.632z"/>
<line class="st19" x1="331.796" y1="-119.113" x2="295.773" y2="-119.113"/>
<path class="st20" d="M323.293-115.967c2.045,0,3.703-1.658,3.703-3.703c0-2.045-1.658-3.703-3.703-3.703
	c-2.045,0-3.703,1.658-3.703,3.703C319.59-117.625,321.248-115.967,323.293-115.967"/>
<g>
	<path class="st5" d="M346.491-118.912c0,3.12-1.82,4.836-4.459,4.836c-0.91,0-1.781-0.195-2.392-0.585l0.624-1.274
		c0.494,0.325,1.092,0.442,1.729,0.442c1.716,0,2.795-1.066,2.795-3.133v-0.014c-0.546,0.638-1.417,0.949-2.431,0.949
		c-1.794,0-3.133-1.092-3.133-2.795c0-1.807,1.469-2.951,3.328-2.951C345.035-123.436,346.491-121.836,346.491-118.912z
		 M344.529-120.576c0-0.858-0.676-1.534-1.885-1.534c-1.053,0-1.781,0.598-1.781,1.547s0.715,1.547,1.82,1.547
		C343.775-119.016,344.529-119.679,344.529-120.576z"/>
	<path class="st5" d="M354.357-117.001c0,1.599-1.157,2.925-3.602,2.925c-1.287,0-2.587-0.39-3.419-1.053l0.715-1.313
		c0.663,0.546,1.651,0.897,2.678,0.897c1.209,0,1.924-0.533,1.924-1.392c0-0.871-0.559-1.417-2.444-1.417h-2.197l0.468-4.953h5.343
		v1.417h-3.913l-0.195,2.106h0.871C353.278-119.783,354.357-118.613,354.357-117.001z"/>
	<path class="st5" d="M358.776-120.901c0-1.495,0.871-2.496,2.171-2.496s2.184,0.988,2.184,2.496s-0.884,2.496-2.184,2.496
		S358.776-119.406,358.776-120.901z M362.065-120.901c0-1.014-0.416-1.586-1.118-1.586c-0.676,0-1.118,0.585-1.118,1.586
		s0.442,1.586,1.118,1.586C361.649-119.315,362.065-119.887,362.065-120.901z M366.407-123.306h1.274l-6.214,9.101h-1.274
		L366.407-123.306z M364.743-116.611c0-1.495,0.871-2.496,2.171-2.496c1.3,0,2.184,1.001,2.184,2.496s-0.884,2.496-2.184,2.496
		C365.614-114.115,364.743-115.116,364.743-116.611z M368.032-116.611c0-1.001-0.429-1.586-1.118-1.586s-1.118,0.572-1.118,1.586
		c0,1.015,0.429,1.586,1.118,1.586S368.032-115.61,368.032-116.611z"/>
</g>
<rect x="309.733" y="-64.97" class="st11" width="13.149" height="16.764"/>
<polygon class="st21" points="309.732,-48.206 309.732,-48.206 322.881,-48.206 322.881,-64.97 309.732,-64.97 "/>
<rect x="302.061" y="-65.441" class="st9" width="21.291" height="24"/>
<line class="st22" x1="306.558" y1="-57.275" x2="306.558" y2="-46.888"/>
<line class="st23" x1="309.19" y1="-44.999" x2="318.839" y2="-44.999"/>
<path class="st21" d="M319.715-44.999h0.877 M306.558-45.943v0.944h0.877 M306.558-60.108v0.944"/>
<polyline class="st21" points="302.531,-57.019 302.531,-41.911 316.565,-41.911 "/>
<rect x="302.061" y="-65.441" class="st9" width="21.291" height="24"/>
<rect x="341.306" y="-65.039" class="st11" width="14.674" height="18.705"/>
<polygon class="st24" points="341.307,-46.334 341.307,-46.334 355.98,-46.334 355.98,-65.039 341.307,-65.039 "/>
<rect x="340.904" y="-65.441" class="st9" width="19.884" height="24"/>
<rect x="345.713" y="-60.548" class="st5" width="14.674" height="18.705"/>
<polygon class="st25" points="345.713,-41.843 345.713,-41.843 360.386,-41.843 360.386,-60.548 345.713,-60.548 "/>
<rect x="340.904" y="-65.441" class="st9" width="19.884" height="24"/>
<rect x="242.414" y="-61.492" class="st10" width="34.924" height="19.551"/>
<text transform="matrix(1 0 0 1 249.414 -46.8403)"><tspan x="0" y="0" class="st11" style="font-family:'Montserrat-Regular'; font-size:13px;">e</tspan><tspan x="7.41" y="0" class="st11" style="font-family:'Montserrat-Regular'; font-size:13px;">i</tspan><tspan x="10.335" y="0" class="st11" style="font-family:'Montserrat-Regular'; font-size:13px;">n</tspan></text>
<polygon class="st6" points="207.406,-61.617 207.406,-41.617 207.406,-41.367 207.656,-41.367 276.505,-41.367 276.755,-41.367 
	276.755,-41.617 276.755,-61.617 276.755,-61.867 276.505,-61.867 207.656,-61.867 207.406,-61.867 "/>
<rect x="207.156" y="-62.117" class="st9" width="70.183" height="21"/>
<line class="st26" x1="348.47" y1="28.022" x2="348.47" y2="52.282"/>
<path class="st5" d="M356.567,43.841L356.567,43.841h2.592l-2.494-2.46c-0.138-0.135-0.093-0.245,0.101-0.245h6.725v-1.339
	c0-0.193-0.157-0.35-0.35-0.35h-6.725l2.743-2.705h-2.242c-0.193,0-0.462,0.11-0.599,0.245l-3.102,3.059
	c-0.137,0.135-0.137,0.355,0,0.491L356.567,43.841z"/>
<line class="st26" x1="321.525" y1="52.115" x2="321.525" y2="27.855"/>
<path class="st5" d="M313.428,36.297L313.428,36.297h-2.592l2.494,2.46c0.138,0.135,0.093,0.245-0.101,0.245h-6.725v1.339
	c0,0.193,0.157,0.35,0.35,0.35h6.725l-2.743,2.705h2.242c0.193,0,0.462-0.11,0.599-0.245l3.102-3.059
	c0.137-0.135,0.137-0.355,0-0.491L313.428,36.297z"/>
<line class="st26" x1="131.783" y1="35.894" x2="156.042" y2="35.894"/>
<path class="st5" d="M147.434,27.836L147.434,27.836v-2.592l-2.46,2.494c-0.135,0.138-0.245,0.093-0.245-0.101v-6.725h-1.339
	c-0.193,0-0.35,0.157-0.35,0.35v6.725l-2.705-2.743v2.242c0,0.193,0.11,0.462,0.245,0.599l3.059,3.102
	c0.135,0.137,0.355,0.137,0.491,0L147.434,27.836z"/>
<path class="st5" d="M140.501,42.988L140.501,42.988v2.592l2.46-2.494c0.135-0.138,0.245-0.093,0.245,0.101v6.725h1.339
	c0.193,0,0.35-0.157,0.35-0.35v-6.725l2.705,2.743v-2.242c0-0.193-0.11-0.462-0.245-0.599l-3.059-3.102
	c-0.135-0.137-0.355-0.137-0.491,0L140.501,42.988z"/>
<line class="st26" x1="188.229" y1="48.704" x2="188.229" y2="24.444"/>
<path class="st5" d="M180.171,33.053L180.171,33.053h-2.592l2.494,2.46c0.138,0.135,0.093,0.245-0.101,0.245h-6.725v1.339
	c0,0.193,0.157,0.35,0.35,0.35h6.725l-2.743,2.705h2.242c0.193,0,0.462-0.11,0.599-0.245l3.102-3.059
	c0.137-0.135,0.137-0.355,0-0.491L180.171,33.053z"/>
<path class="st5" d="M195.323,39.985L195.323,39.985h2.592l-2.494-2.46c-0.138-0.135-0.093-0.245,0.101-0.245h6.725v-1.339
	c0-0.193-0.157-0.35-0.35-0.35h-6.725l2.743-2.705h-2.242c-0.193,0-0.462,0.11-0.599,0.245l-3.102,3.059
	c-0.137,0.135-0.137,0.355,0,0.491L195.323,39.985z"/>
<line class="st26" x1="220.37" y1="36.177" x2="244.63" y2="36.177"/>
<path class="st5" d="M229.089,43.271L229.089,43.271v2.592l2.46-2.494c0.135-0.138,0.245-0.093,0.245,0.101v6.725h1.339
	c0.193,0,0.35-0.157,0.35-0.35V43.12l2.705,2.743v-2.242c0-0.193-0.11-0.462-0.245-0.599l-3.059-3.102
	c-0.135-0.137-0.355-0.137-0.491,0L229.089,43.271z"/>
<line class="st26" x1="265.481" y1="47.432" x2="289.741" y2="47.432"/>
<path class="st5" d="M281.3,39.044L281.3,39.044v-2.592l-2.46,2.494c-0.135,0.138-0.245,0.093-0.245-0.101V32.12h-1.339
	c-0.193,0-0.35,0.157-0.35,0.35v6.725l-2.705-2.743v2.242c0,0.193,0.11,0.462,0.245,0.599l3.059,3.102
	c0.135,0.137,0.355,0.137,0.491,0L281.3,39.044z"/>
<rect x="411.345" y="20.506" class="st11" width="15.769" height="20.056"/>
<line class="st27" x1="414.302" y1="40.563" x2="425.143" y2="40.563"/>
<line class="st28" x1="427.114" y1="37.554" x2="427.114" y2="22.512"/>
<line class="st27" x1="424.157" y1="20.506" x2="413.316" y2="20.506"/>
<line class="st28" x1="411.345" y1="23.515" x2="411.345" y2="38.557"/>
<path class="st21" d="M411.345,39.56v1.003h0.986 M412.331,20.507h-0.986v1.003 M427.114,21.51v-1.003h-0.985 M426.129,40.563h0.985
	V39.56"/>
<polygon class="st11" points="400.109,50.563 400.109,50.563 415.878,50.563 415.878,30.507 400.109,30.507 "/>
<line class="st27" x1="403.066" y1="50.563" x2="413.907" y2="50.563"/>
<line class="st28" x1="415.878" y1="47.554" x2="415.878" y2="32.512"/>
<line class="st27" x1="412.922" y1="30.506" x2="402.081" y2="30.506"/>
<line class="st28" x1="400.109" y1="33.515" x2="400.109" y2="48.557"/>
<path class="st21" d="M400.109,49.56v1.003h0.986 M401.095,30.507h-0.986v1.003 M415.878,31.51v-1.003h-0.985 M414.893,50.563h0.985
	V49.56"/>
<polygon class="st11" points="390.635,58.563 390.635,58.563 406.404,58.563 406.404,38.507 390.635,38.507 "/>
<polygon class="st21" points="390.635,58.563 390.635,58.563 406.404,58.563 406.404,38.507 390.635,38.507 "/>
<g>
	<polygon class="st11" points="464.471,44.868 464.471,44.868 480.241,44.868 480.241,24.812 464.471,24.812 	"/>
	<polygon class="st21" points="464.471,44.868 464.471,44.868 480.241,44.868 480.241,24.812 464.471,24.812 	"/>
	<line class="st29" x1="460.707" y1="33.367" x2="460.707" y2="46.871"/>
	<line class="st30" x1="463.845" y1="48.672" x2="475.348" y2="48.672"/>
	<path class="st21" d="M476.392,48.671h1.046 M460.707,47.771v0.9h1.046 M460.707,30.666v0.9"/>
</g>
<g>
	<g>
		<rect x="537.012" y="13.092" class="st11" width="15.769" height="20.056"/>
		<polygon class="st21" points="537.011,33.148 537.011,33.148 552.78,33.148 552.78,13.092 537.011,13.092 		"/>
		<polygon class="st11" points="525.775,43.148 525.775,43.148 541.544,43.148 541.544,23.092 525.775,23.092 		"/>
		<line class="st27" x1="528.732" y1="43.148" x2="539.573" y2="43.148"/>
		<line class="st28" x1="541.544" y1="40.139" x2="541.544" y2="25.097"/>
		<line class="st27" x1="538.588" y1="23.092" x2="527.747" y2="23.092"/>
		<line class="st28" x1="525.775" y1="26.1" x2="525.775" y2="41.142"/>
		<path class="st21" d="M525.775,42.145v1.003h0.986 M526.761,23.092h-0.986v1.003 M541.544,24.095v-1.003h-0.985 M540.559,43.148
			h0.985v-1.003"/>
		<polygon class="st11" points="516.301,51.148 516.301,51.148 532.07,51.148 532.07,31.092 516.301,31.092 		"/>
		<line class="st27" x1="519.258" y1="51.148" x2="530.099" y2="51.148"/>
		<line class="st28" x1="532.07" y1="48.139" x2="532.07" y2="33.097"/>
		<line class="st27" x1="529.114" y1="31.092" x2="518.273" y2="31.092"/>
		<line class="st28" x1="516.301" y1="34.1" x2="516.301" y2="49.142"/>
		<path class="st21" d="M516.301,50.145v1.003h0.986 M517.287,31.092h-0.986v1.003 M532.07,32.095v-1.003h-0.985 M531.085,51.148
			h0.985v-1.003"/>
	</g>
	<line class="st27" x1="592.425" y1="46.633" x2="603.266" y2="46.633"/>
	<line class="st28" x1="605.237" y1="43.625" x2="605.237" y2="28.583"/>
	<line class="st27" x1="602.281" y1="26.577" x2="591.44" y2="26.577"/>
	<line class="st28" x1="589.468" y1="29.585" x2="589.468" y2="44.627"/>
	<path class="st21" d="M589.468,45.63v1.003h0.986 M590.454,26.577h-0.986v1.003 M605.237,27.58v-1.003h-0.985 M604.252,46.633
		h0.985V45.63"/>
	<polyline class="st21" points="585.704,32.431 585.704,50.436 602.435,50.436 	"/>
</g>
<g>
	<defs>
		<rect id="SVGID_1_" x="-169.571" y="140.469" width="241.682" height="1"/>
	</defs>
	<clipPath id="SVGID_00000029033522436214165000000001240575121442615229_">
		<use xlink:href="#SVGID_1_"  style="overflow:visible;"/>
	</clipPath>
	
		<line style="clip-path:url(#SVGID_00000029033522436214165000000001240575121442615229_);fill:none;stroke:#B2B2B2;stroke-linecap:round;stroke-linejoin:round;stroke-dasharray:0,3.009;" x1="-166.062" y1="140.969" x2="70.108" y2="140.969"/>
	
		<path style="clip-path:url(#SVGID_00000029033522436214165000000001240575121442615229_);fill:none;stroke:#B2B2B2;stroke-linecap:round;stroke-linejoin:round;" d="
		M71.611,140.969L71.611,140.969 M-169.071,140.969L-169.071,140.969"/>
</g>
<circle class="st33" cx="-122.673" cy="-80.242" r="12.75"/>
<polygon class="st3" points="20.72,-95.265 7.72,-95.265 14.088,-84.79 "/>
<polygon class="st5" points="28.744,33.276 18.269,39.644 28.744,46.276 "/>
<polygon class="st5" points="-0.303,46.276 10.172,39.908 -0.303,33.276 "/>
<polygon class="st5" points="82.25,33.276 71.775,39.644 82.25,46.276 "/>
<polygon class="st5" points="47.073,46.276 57.548,39.908 47.073,33.276 "/>
<rect x="207.323" y="-95.255" class="st10" width="34.924" height="19.551"/>
<polygon class="st6" points="207.573,-95.38 207.573,-75.38 207.573,-75.13 207.823,-75.13 276.672,-75.13 276.922,-75.13 
	276.922,-75.38 276.922,-95.38 276.922,-95.63 276.672,-95.63 207.823,-95.63 207.573,-95.63 "/>
<rect x="207.323" y="-95.88" class="st9" width="69.849" height="21"/>
<rect x="242.686" y="-29.226" class="st10" width="34.924" height="19.551"/>
<polygon class="st6" points="207.678,-29.351 207.678,-9.351 207.678,-9.101 207.928,-9.101 276.777,-9.101 277.027,-9.101 
	277.027,-9.351 277.027,-29.351 277.027,-29.601 276.777,-29.601 207.928,-29.601 207.678,-29.601 "/>
<rect x="207.428" y="-29.851" class="st9" width="70.183" height="21"/>
<line class="st19" x1="330.718" y1="-99.325" x2="294.695" y2="-99.325"/>
<path class="st20" d="M322.215-96.179c2.045,0,3.703-1.658,3.703-3.703c0-2.045-1.658-3.703-3.703-3.703s-3.703,1.658-3.703,3.703
	C318.512-97.837,320.17-96.179,322.215-96.179"/>
<line class="st19" x1="639.042" y1="-68.546" x2="603.019" y2="-68.546"/>
<path class="st20" d="M630.539-65.4c2.045,0,3.703-1.658,3.703-3.703s-1.658-3.703-3.703-3.703s-3.703,1.658-3.703,3.703
	S628.494-65.4,630.539-65.4"/>
</svg>
