<?xml version="1.0" encoding="utf-8"?>
<!-- Generator: Adobe Illustrator 26.2.1, SVG Export Plug-In . SVG Version: 6.00 Build 0)  -->
<svg version="1.1" id="Ebene_1" xmlns="http://www.w3.org/2000/svg" xmlns:xlink="http://www.w3.org/1999/xlink" x="0px" y="0px"
	 width="25.253px" height="24.744px" viewBox="0 0 25.253 24.744" enable-background="new 0 0 25.253 24.744" xml:space="preserve">
<path fill="#B1B1B0" d="M11.653,7.152c-1.054,2.474-1.96,4.602-2.889,6.784h5.729C13.549,11.68,12.667,9.572,11.653,7.152
	 M15.146,24.742c-0.346-1.15-0.211-1.759,1.044-1.8c0.976-0.033,1.343-0.74,1.02-1.64c-0.507-1.414-1.072-2.81-1.681-4.183
	c-0.109-0.245-0.55-0.478-0.843-0.484c-2.129-0.041-4.261-0.046-6.39,0.005c-0.305,0.008-0.741,0.315-0.877,0.599
	c-0.558,1.155-1.057,2.342-1.512,3.542c-0.57,1.504-0.268,2.026,1.348,2.192c0.783,0.081,1.206,0.319,1.022,1.126
	c-0.056,0.243-0.355,0.61-0.547,0.613c-2.524,0.042-5.049,0.028-7.596,0.028c-0.214-0.956-0.321-1.631,0.868-1.885
	c0.569-0.122,1.219-0.609,1.515-1.117c0.755-1.293,1.377-2.67,1.972-4.049C6.89,12.13,9.25,6.554,11.661,1
	c0.173-0.398,0.634-0.67,0.96-1c0.319,0.343,0.766,0.632,0.937,1.037c2.56,6.048,5.079,12.114,7.622,18.17
	c0.326,0.776,0.705,1.534,1.106,2.275c0.507,0.939,1.332,1.389,2.379,1.595c0.265,0.052,0.519,0.638,0.586,1.013
	c0.032,0.175-0.39,0.621-0.611,0.624C21.488,24.755,18.335,24.742,15.146,24.742"/>
</svg>
