<?xml version="1.0" encoding="utf-8"?>
<!-- Generator: Adobe Illustrator 26.0.3, SVG Export Plug-In . SVG Version: 6.00 Build 0)  -->
<svg version="1.1" id="Ebene_1" xmlns="http://www.w3.org/2000/svg" xmlns:xlink="http://www.w3.org/1999/xlink" x="0px" y="0px"
	 width="27px" height="27px" viewBox="0 0 27 27" style="enable-background:new 0 0 27 27;" xml:space="preserve">
<style type="text/css">
	.st0{fill:none;stroke:#C5C5C5;stroke-width:3;stroke-linecap:round;stroke-linejoin:round;}
	.st1{fill:#FFAEFF;stroke:#4F4D4D;stroke-width:0.5;}
	.st2{fill:#F8F8F8;}
	.st3{fill:#0E689A;}
	.st4{fill:none;stroke:#B2B1B1;stroke-width:0.65;stroke-miterlimit:10;}
	.st5{fill:#B2B1B1;}
	.st6{fill:none;stroke:#B2B2B2;stroke-width:0.5;stroke-miterlimit:10;}
	.st7{fill:none;stroke:#B2B1B1;stroke-width:0.3;stroke-miterlimit:10;}
	.st8{fill:none;stroke:#FFFFFF;stroke-width:0.021;}
	.st9{fill:none;}
	.st10{fill:#0E6899;}
	.st11{fill:#FFFFFF;}
	.st12{fill:none;stroke:#C5C5C5;stroke-width:0.5;stroke-linecap:round;stroke-linejoin:round;}
	.st13{fill:#C5C5C5;}
	.st14{fill:none;stroke:#B2B1B1;stroke-width:0.5;}
	.st15{fill:none;stroke:#B2B1B1;stroke-width:1.2;}
	.st16{fill:#B2B2B2;}
	.st17{fill:none;stroke:#FFFFFF;stroke-width:0.001;}
	.st18{fill:none;stroke:#B2B1B1;stroke-width:1.712;}
	.st19{fill:none;stroke:#B2B1B1;stroke-width:2;}
	.st20{fill:#AD5E7A;}
	.st21{fill:none;stroke:#B2B1B1;stroke-width:0.941;}
	.st22{fill:none;stroke:#B2B1B1;stroke-width:0.941;stroke-dasharray:1.889,1.889;}
	.st23{fill:none;stroke:#B2B1B1;stroke-width:0.941;stroke-dasharray:1.754,1.754;}
	.st24{fill:none;stroke:#B2B1B1;stroke-width:0.804;}
	.st25{fill:none;stroke:#FFFFFF;stroke-width:0.804;}
	.st26{fill:none;stroke:#B2B1B1;stroke-width:2.5;}
	.st27{fill:none;stroke:#B2B1B1;stroke-width:0.941;stroke-dasharray:1.971,1.971;}
	.st28{fill:none;stroke:#B2B1B1;stroke-width:0.941;stroke-dasharray:2.006,2.006;}
	.st29{fill:none;stroke:#B2B1B1;stroke-width:0.941;stroke-dasharray:1.801,1.801;}
	.st30{fill:none;stroke:#B2B1B1;stroke-width:0.941;stroke-dasharray:2.091,2.091;}
	
		.st31{clip-path:url(#SVGID_00000171692970230202239500000010196169695971187888_);fill:none;stroke:#B2B2B2;stroke-linecap:round;stroke-linejoin:round;stroke-dasharray:0,3.009;}
	
		.st32{clip-path:url(#SVGID_00000171692970230202239500000010196169695971187888_);fill:none;stroke:#B2B2B2;stroke-linecap:round;stroke-linejoin:round;}
	.st33{fill:none;stroke:#4F4D4D;stroke-width:0.5;}
</style>
<polyline class="st0" points="1778.814,975.32 1772.564,966.32 1765.814,975.32 "/>
<circle class="st1" cx="-213.08" cy="12.571" r="12.75"/>
<rect x="-180.619" y="1.556" class="st2" width="119.902" height="21"/>
<polygon class="st3" points="-69.79,6.819 -82.79,6.819 -76.422,17.294 "/>
<g>
	<line class="st4" x1="43.223" y1="19.076" x2="53.506" y2="19.076"/>
	<g>
		<path class="st5" d="M44.51,13.851V8.676h1.3v5.122c0,2.016,0.923,2.926,2.561,2.926c1.638,0,2.574-0.91,2.574-2.926V8.676h1.261
			v5.175c0,2.639-1.443,4.029-3.848,4.029C45.966,17.88,44.51,16.49,44.51,13.851z"/>
	</g>
</g>
<polygon class="st6" points="35.114,0.876 35.114,26.876 35.114,27.126 35.364,27.126 61.364,27.126 61.614,27.126 61.614,26.876 
	61.614,0.876 61.614,0.626 61.364,0.626 35.364,0.626 35.114,0.626 "/>
<g>
	<g>
		<path class="st5" d="M13.76,8.95h1.3l-1.82,9.101h-1.3L13.76,8.95z"/>
	</g>
	<polygon class="st6" points="0.25,0.5 0.25,26.5 0.25,26.75 0.5,26.75 26.5,26.75 26.75,26.75 26.75,26.5 26.75,0.5 26.75,0.25 
		26.5,0.25 0.5,0.25 0.25,0.25 	"/>
</g>
<g>
	<g>
		<path class="st5" d="M-19.388,15.619c0,1.573-1.248,2.483-3.64,2.483h-4.706V9.001h4.446c2.275,0,3.445,0.949,3.445,2.366
			c0,0.91-0.468,1.612-1.209,2.002C-20.038,13.695-19.388,14.475-19.388,15.619z M-25.641,10.587v2.146h2.093
			c1.027,0,1.586-0.364,1.586-1.079s-0.559-1.066-1.586-1.066H-25.641z M-21.507,15.398c0-0.767-0.585-1.131-1.677-1.131h-2.457
			v2.249h2.457C-22.092,16.516-21.507,16.178-21.507,15.398z"/>
	</g>
	<polygon class="st6" points="-36.811,0.552 -36.811,26.552 -36.811,26.802 -36.561,26.802 -10.561,26.802 -10.311,26.802 
		-10.311,26.552 -10.311,0.552 -10.311,0.302 -10.561,0.302 -36.561,0.302 -36.811,0.302 	"/>
</g>
<path class="st7" d="M17.377,42.505"/>
<path class="st7" d="M14.869,43.759"/>
<path class="st7" d="M14.869,45.013"/>
<path class="st7" d="M14.869,46.268"/>
<path class="st7" d="M17.377,47.522"/>
<path class="st7" d="M17.377,48.775"/>
<path class="st7" d="M14.869,50.029"/>
<path class="st7" d="M14.869,52.537"/>
<path class="st7" d="M17.377,55.045"/>
<path class="st7" d="M-2.088,47.522"/>
<path class="st7" d="M-2.088,42.505"/>
<path class="st7" d="M-2.088,55.045"/>
<path class="st7" d="M-2.088,48.775"/>
<g>
	<path class="st7" d="M-0.026,50.029"/>
	<path class="st7" d="M-0.026,46.268"/>
	<path class="st7" d="M-0.026,45.013"/>
	<path class="st7" d="M-0.026,43.759"/>
	<line class="st7" x1="-2.463" y1="54.25" x2="17.001" y2="54.25"/>
	<line class="st7" x1="-2.463" y1="52.975" x2="12.431" y2="52.975"/>
	<line class="st7" x1="-2.463" y1="51.699" x2="12.431" y2="51.699"/>
	<line class="st7" x1="-2.463" y1="50.422" x2="12.431" y2="50.422"/>
	<line class="st7" x1="-2.463" y1="49.147" x2="17.001" y2="49.147"/>
	<line class="st7" x1="-2.463" y1="47.871" x2="17.001" y2="47.871"/>
	<line class="st7" x1="-2.39" y1="46.595" x2="12.504" y2="46.595"/>
	<line class="st7" x1="-2.463" y1="45.319" x2="17.001" y2="45.319"/>
	<line class="st7" x1="-2.463" y1="44.043" x2="12.431" y2="44.043"/>
	<line class="st7" x1="-2.463" y1="42.767" x2="12.431" y2="42.767"/>
	<line class="st7" x1="-2.463" y1="41.491" x2="17.001" y2="41.491"/>
</g>
<polygon class="st6" points="-5.79,35.196 -5.79,61.189 -5.79,61.439 -5.54,61.439 20.453,61.439 20.703,61.439 20.703,61.189 
	20.703,35.196 20.703,34.946 20.453,34.946 -5.54,34.946 -5.79,34.946 "/>
<g>
	<line class="st7" x1="48.257" y1="41.808" x2="28.793" y2="41.808"/>
	<line class="st7" x1="45.749" y1="43.085" x2="30.855" y2="43.085"/>
	<line class="st7" x1="45.749" y1="44.362" x2="30.855" y2="44.362"/>
	<line class="st7" x1="45.749" y1="45.639" x2="30.855" y2="45.639"/>
	<line class="st7" x1="48.257" y1="46.916" x2="28.793" y2="46.916"/>
	<line class="st7" x1="48.257" y1="48.193" x2="28.793" y2="48.193"/>
	<line class="st7" x1="45.749" y1="49.47" x2="30.855" y2="49.47"/>
	<line class="st7" x1="48.257" y1="50.747" x2="28.793" y2="50.747"/>
	<line class="st7" x1="45.749" y1="52.024" x2="30.855" y2="52.024"/>
	<line class="st7" x1="45.749" y1="53.301" x2="30.855" y2="53.301"/>
	<line class="st7" x1="48.257" y1="54.578" x2="28.793" y2="54.578"/>
</g>
<polygon class="st6" points="25.279,35.196 25.279,61.189 25.279,61.439 25.529,61.439 51.522,61.439 51.772,61.439 51.772,61.189 
	51.772,35.196 51.772,34.946 51.522,34.946 25.529,34.946 25.279,34.946 "/>
<polygon class="st6" points="56.347,35.196 56.347,61.189 56.347,61.439 56.597,61.439 82.59,61.439 82.84,61.439 82.84,61.189 
	82.84,35.196 82.84,34.946 82.59,34.946 56.597,34.946 56.347,34.946 "/>
<path class="st7" d="M59.674,53.88"/>
<path class="st7" d="M59.674,48.864"/>
<path class="st7" d="M59.674,47.61"/>
<path class="st7" d="M59.674,41.341"/>
<path class="st7" d="M77.076,46.357"/>
<path class="st7" d="M79.138,48.864"/>
<path class="st7" d="M77.076,50.118"/>
<path class="st7" d="M79.138,53.88"/>
<path class="st7" d="M79.138,41.341"/>
<path class="st7" d="M79.138,47.61"/>
<path class="st7" d="M77.076,51.373"/>
<path class="st7" d="M77.076,52.627"/>
<g>
	<path class="st7" d="M61.994,52.304"/>
	<path class="st7" d="M61.994,51.05"/>
	<path class="st7" d="M61.994,49.796"/>
	<path class="st7" d="M61.994,46.034"/>
	<path class="st7" d="M61.994,43.526"/>
	<line class="st7" x1="79.326" y1="41.813" x2="59.862" y2="41.813"/>
	<line class="st7" x1="79.326" y1="43.089" x2="64.432" y2="43.089"/>
	<line class="st7" x1="79.326" y1="44.365" x2="64.432" y2="44.365"/>
	<line class="st7" x1="79.326" y1="45.641" x2="64.432" y2="45.641"/>
	<line class="st7" x1="79.326" y1="46.917" x2="59.862" y2="46.917"/>
	<line class="st7" x1="79.326" y1="48.193" x2="59.862" y2="48.193"/>
	<line class="st7" x1="79.252" y1="49.469" x2="64.358" y2="49.469"/>
	<line class="st7" x1="79.326" y1="50.745" x2="59.862" y2="50.745"/>
	<line class="st7" x1="79.326" y1="52.021" x2="64.432" y2="52.021"/>
	<line class="st7" x1="79.326" y1="53.297" x2="64.432" y2="53.297"/>
	<line class="st7" x1="79.326" y1="54.572" x2="59.862" y2="54.572"/>
</g>
<polygon class="st6" points="-36.561,35.203 -36.561,61.196 -36.561,61.446 -36.311,61.446 -10.318,61.446 -10.068,61.446 
	-10.068,61.196 -10.068,35.203 -10.068,34.953 -10.318,34.953 -36.311,34.953 -36.561,34.953 "/>
<path class="st7" d="M-13.395,42.505"/>
<path class="st7" d="M-13.395,47.522"/>
<path class="st7" d="M-13.395,48.775"/>
<path class="st7" d="M-13.395,55.045"/>
<path class="st7" d="M-30.797,50.029"/>
<path class="st7" d="M-32.859,47.522"/>
<path class="st7" d="M-30.797,46.268"/>
<path class="st7" d="M-32.859,42.505"/>
<path class="st7" d="M-32.859,55.045"/>
<path class="st7" d="M-32.859,48.775"/>
<path class="st7" d="M-30.797,45.013"/>
<path class="st7" d="M-30.797,43.759"/>
<g>
	<path class="st7" d="M-15.902,43.759"/>
	<path class="st7" d="M-15.902,45.013"/>
	<path class="st7" d="M-15.902,46.268"/>
	<path class="st7" d="M-15.902,50.029"/>
	<path class="st7" d="M-15.902,52.537"/>
	<line class="st7" x1="-33.234" y1="54.25" x2="-13.77" y2="54.25"/>
	<line class="st7" x1="-33.234" y1="52.975" x2="-13.77" y2="52.975"/>
	<line class="st7" x1="-33.234" y1="51.699" x2="-13.77" y2="51.699"/>
	<line class="st7" x1="-33.234" y1="50.422" x2="-13.77" y2="50.422"/>
	<line class="st7" x1="-33.234" y1="49.147" x2="-13.77" y2="49.147"/>
	<line class="st7" x1="-33.234" y1="47.871" x2="-13.77" y2="47.871"/>
	<line class="st7" x1="-33.161" y1="46.595" x2="-13.697" y2="46.595"/>
	<line class="st7" x1="-33.234" y1="45.319" x2="-13.77" y2="45.319"/>
	<line class="st7" x1="-33.234" y1="44.043" x2="-13.77" y2="44.043"/>
	<line class="st7" x1="-33.234" y1="42.767" x2="-13.77" y2="42.767"/>
	<line class="st7" x1="-33.234" y1="41.491" x2="-13.77" y2="41.491"/>
</g>
<path class="st5" d="M-206.118,150.351l-1.915,13.335c-0.058,0.402-0.431,0.682-0.834,0.624c-0.402-0.058-0.682-0.431-0.624-0.833
	l1.915-13.336c0.058-0.402,0.431-0.681,0.834-0.623C-206.34,149.576-206.06,149.948-206.118,150.351 M-212.935,164.426
	c-0.407,0.003-0.74-0.324-0.742-0.73l-0.106-13.472c-0.003-0.407,0.324-0.739,0.73-0.742c0.408-0.003,0.74,0.324,0.743,0.731
	l0.105,13.471C-212.202,164.091-212.529,164.423-212.935,164.426 M-217.006,164.373c-0.401,0.064-0.779-0.209-0.842-0.61
	l-2.124-13.304c-0.064-0.402,0.209-0.779,0.612-0.843c0.401-0.064,0.778,0.209,0.842,0.611l2.123,13.303
	C-216.331,163.932-216.604,164.309-217.006,164.373 M-203.223,147.965c-0.141-0.169-0.353-0.266-0.573-0.264l-18.538,0.144
	c-0.22,0.002-0.429,0.101-0.568,0.272c-0.14,0.17-0.196,0.393-0.155,0.609l3.092,16.141c0.068,0.351,0.376,0.605,0.734,0.602
	l12.497-0.098c0.356-0.002,0.66-0.258,0.724-0.608l2.949-16.188C-203.021,148.359-203.082,148.134-203.223,147.965"/>
<path class="st8" d="M-206.118,150.351l-1.915,13.335c-0.058,0.402-0.431,0.682-0.834,0.624c-0.402-0.058-0.682-0.431-0.624-0.833
	l1.915-13.336c0.058-0.402,0.431-0.681,0.834-0.623C-206.34,149.576-206.06,149.948-206.118,150.351z M-212.935,164.426
	c-0.407,0.003-0.74-0.324-0.742-0.73l-0.106-13.472c-0.003-0.407,0.324-0.739,0.73-0.742c0.408-0.003,0.74,0.324,0.743,0.731
	l0.105,13.471C-212.202,164.091-212.529,164.423-212.935,164.426z M-217.006,164.373c-0.401,0.064-0.779-0.209-0.842-0.61
	l-2.124-13.304c-0.064-0.402,0.209-0.779,0.612-0.843c0.401-0.064,0.778,0.209,0.842,0.611l2.123,13.303
	C-216.331,163.932-216.604,164.309-217.006,164.373z M-203.223,147.965c-0.141-0.169-0.353-0.266-0.573-0.264l-18.538,0.144
	c-0.22,0.002-0.429,0.101-0.568,0.272c-0.14,0.17-0.196,0.393-0.155,0.609l3.092,16.141c0.068,0.351,0.376,0.605,0.734,0.602
	l12.497-0.098c0.356-0.002,0.66-0.258,0.724-0.608l2.949-16.188C-203.021,148.359-203.082,148.134-203.223,147.965z"/>
<path class="st5" d="M-215.911,143.358L-215.911,143.358l-0.004-0.421l5.49-0.043l0.004,0.421L-215.911,143.358z M-202.174,144.768
	L-202.174,144.768l-2.025,0.016l-0.009-1.171c-0.001-0.091-0.038-0.18-0.103-0.244c-0.065-0.064-0.155-0.1-0.246-0.1l-4.467,0.035
	l-0.009-1.12c-0.002-0.184-0.077-0.363-0.209-0.492c-0.131-0.13-0.311-0.203-0.495-0.201l-6.887,0.054
	c-0.183,0.001-0.363,0.077-0.492,0.208s-0.202,0.312-0.2,0.496l0.009,1.12l-4.164,0.032c-0.091,0.001-0.18,0.039-0.243,0.104
	c-0.065,0.065-0.101,0.154-0.101,0.246l0.009,1.171l-2.197,0.017l0.017,2.225l21.829-0.17L-202.174,144.768z"/>
<path class="st8" d="M-215.911,143.358L-215.911,143.358l-0.004-0.421l5.49-0.043l0.004,0.421L-215.911,143.358z M-202.174,144.768
	L-202.174,144.768l-2.025,0.016l-0.009-1.171c-0.001-0.091-0.038-0.18-0.103-0.244c-0.065-0.064-0.155-0.1-0.246-0.1l-4.467,0.035
	l-0.009-1.12c-0.002-0.184-0.077-0.363-0.209-0.492c-0.131-0.13-0.311-0.203-0.495-0.201l-6.887,0.054
	c-0.183,0.001-0.363,0.077-0.492,0.208s-0.202,0.312-0.2,0.496l0.009,1.12l-4.164,0.032c-0.091,0.001-0.18,0.039-0.243,0.104
	c-0.065,0.065-0.101,0.154-0.101,0.246l0.009,1.171l-2.197,0.017l0.017,2.225l21.829-0.17L-202.174,144.768z"/>
<rect x="-224.014" y="141.48" class="st9" width="21.868" height="24"/>
<rect x="116.916" y="0.712" class="st10" width="34.924" height="19.551"/>
<g>
	<path class="st11" d="M129.893,11.125v4.238h-0.884v-1.066c-0.416,0.702-1.222,1.132-2.354,1.132c-1.547,0-2.496-0.807-2.496-1.989
		c0-1.054,0.676-1.938,2.639-1.938h2.171v-0.416c0-1.17-0.663-1.807-1.938-1.807c-0.884,0-1.716,0.312-2.275,0.806l-0.416-0.688
		c0.689-0.585,1.703-0.924,2.782-0.924C128.892,8.473,129.893,9.358,129.893,11.125z M128.97,13.31v-1.118h-2.146
		c-1.326,0-1.755,0.52-1.755,1.222c0,0.793,0.637,1.287,1.729,1.287C127.839,14.701,128.606,14.207,128.97,13.31z"/>
	<path class="st11" d="M137.992,8.526v6.838h-0.884v-1.248c-0.481,0.832-1.365,1.313-2.458,1.313c-1.742,0-2.886-0.976-2.886-2.938
		V8.526h0.923V12.4c0,1.456,0.754,2.197,2.054,2.197c1.43,0,2.327-0.924,2.327-2.483V8.526H137.992z"/>
	<path class="st11" d="M139.292,14.583l0.416-0.728c0.546,0.429,1.469,0.767,2.431,0.767c1.3,0,1.833-0.441,1.833-1.118
		c0-1.78-4.433-0.377-4.433-3.081c0-1.118,0.962-1.95,2.704-1.95c0.884,0,1.846,0.247,2.418,0.638l-0.403,0.74
		c-0.598-0.416-1.313-0.585-2.015-0.585c-1.235,0-1.781,0.481-1.781,1.132c0,1.846,4.434,0.455,4.434,3.081
		c0,1.183-1.04,1.95-2.821,1.95C140.943,15.429,139.851,15.065,139.292,14.583z"/>
</g>
<polygon class="st6" points="117.166,0.587 117.166,20.587 117.166,20.837 117.416,20.837 186.265,20.837 186.515,20.837 
	186.515,20.587 186.515,0.587 186.515,0.337 186.265,0.337 117.416,0.337 117.166,0.337 "/>
<rect x="116.916" y="0.087" class="st9" width="69.849" height="21"/>
<rect x="-287.481" y="207.418" class="st11" width="1014" height="21"/>
<path class="st3" d="M339.68,207.417c-2.209,0-4,1.791-4,4v12.382c0,2.209,1.791,4,4,4h77.131c2.209,0,4-1.791,4-4v-12.382
	c0-2.209-1.791-4-4-4H339.68z"/>
<rect x="-287.231" y="207.668" class="st12" width="1013.5" height="20.5"/>
<path class="st13" d="M710.374,210.277v1.481c0,0.397,0.187,0.771,0.505,1.009l6.367,4.762c0.258,0.194,0.258,0.583,0,0.776
	l-6.367,4.762c-0.318,0.238-0.505,0.612-0.505,1.01v1.48c0,0.41,0.467,0.644,0.795,0.399l10.111-7.563
	c0.318-0.237,0.318-0.714,0-0.952l-10.11-7.562C710.841,209.633,710.374,209.868,710.374,210.277"/>
<path class="st13" d="M-271.629,225.558v-1.481c0-0.397-0.187-0.771-0.505-1.009l-6.367-4.762c-0.258-0.194-0.258-0.583,0-0.776
	l6.367-4.762c0.318-0.238,0.505-0.612,0.505-1.01v-1.48c0-0.41-0.467-0.644-0.795-0.399l-10.111,7.563
	c-0.318,0.237-0.318,0.714,0,0.952l10.11,7.562C-272.096,226.202-271.629,225.967-271.629,225.558"/>
<rect x="-287.481" y="207.418" class="st9" width="1014" height="21"/>
<rect x="768.291" y="-37.128" class="st11" width="21" height="702.123"/>
<path class="st3" d="M768.291,376.834c0,2.209,1.791,4,4,4h12.382c2.209,0,4-1.791,4-4v-78.286c0-2.209-1.791-4-4-4h-12.382
	c-2.209,0-4,1.791-4,4V376.834z"/>
<rect x="768.541" y="-36.879" class="st12" width="20.5" height="701.624"/>
<path class="st13" d="M771.151-23.593h1.481c0.397,0,0.771-0.19,1.009-0.512l4.762-6.453c0.194-0.262,0.583-0.262,0.776,0
	l4.762,6.453c0.238,0.322,0.612,0.512,1.01,0.512h1.48c0.41,0,0.644-0.474,0.399-0.806l-7.563-10.248
	c-0.237-0.322-0.714-0.322-0.952,0l-7.562,10.248C770.507-24.067,770.742-23.593,771.151-23.593"/>
<path class="st13" d="M786.431,650.659h-1.481c-0.397,0-0.771,0.19-1.009,0.512l-4.762,6.453c-0.194,0.262-0.583,0.262-0.776,0
	l-4.762-6.453c-0.238-0.322-0.612-0.512-1.01-0.512h-1.48c-0.41,0-0.644,0.474-0.399,0.806l7.563,10.248
	c0.237,0.322,0.714,0.322,0.952,0l7.562-10.248C787.075,651.133,786.84,650.659,786.431,650.659"/>
<rect x="768.291" y="-37.129" class="st9" width="21" height="702.124"/>
<line class="st7" x1="47.315" y1="74.998" x2="34.298" y2="74.998"/>
<line class="st7" x1="47.315" y1="80.086" x2="34.298" y2="80.086"/>
<line class="st7" x1="47.315" y1="85.174" x2="34.298" y2="85.174"/>
<text transform="matrix(1 0 0 1 29.7277 74.8669)" class="st5" style="font-family:'Montserrat-Bold'; font-size:3px;">1</text>
<text transform="matrix(1 0 0 1 29.7277 79.8825)" class="st5" style="font-family:'Montserrat-Bold'; font-size:3px;">2</text>
<text transform="matrix(1 0 0 1 29.7277 84.8981)" class="st5" style="font-family:'Montserrat-Bold'; font-size:3px;">3</text>
<polygon class="st6" points="25.272,67.408 25.272,93.408 25.272,93.658 25.522,93.658 51.522,93.658 51.772,93.658 51.772,93.408 
	51.772,67.408 51.772,67.158 51.522,67.158 25.522,67.158 25.272,67.158 "/>
<polygon class="st6" points="-6.22,67.408 -6.22,93.408 -6.22,93.658 -5.97,93.658 20.03,93.658 20.28,93.658 20.28,93.408 
	20.28,67.408 20.28,67.158 20.03,67.158 -5.97,67.158 -6.22,67.158 "/>
<polygon class="st6" points="-36.561,67.408 -36.561,93.408 -36.561,93.658 -36.311,93.658 -10.311,93.658 -10.061,93.658 
	-10.061,93.408 -10.061,67.408 -10.061,67.158 -10.311,67.158 -36.311,67.158 -36.561,67.158 "/>
<path class="st7" d="M15.313,85.533H2.297 M15.313,80.4H2.297 M15.313,75.268H2.297"/>
<path class="st5" d="M0.21,80.985c0.161-0.156,0.241-0.349,0.241-0.581c0-0.15-0.037-0.288-0.11-0.414
	c-0.073-0.125-0.172-0.224-0.297-0.297c-0.126-0.073-0.264-0.11-0.415-0.11c-0.15,0-0.288,0.037-0.41,0.11
	c-0.122,0.073-0.221,0.172-0.294,0.297c-0.072,0.126-0.11,0.264-0.11,0.414c0,0.232,0.08,0.425,0.238,0.581
	c0.157,0.156,0.35,0.234,0.576,0.234C-0.144,81.219,0.049,81.141,0.21,80.985"/>
<path class="st5" d="M-0.367,76.35c0.489,0,0.885-0.396,0.885-0.885c0-0.488-0.396-0.885-0.885-0.885
	c-0.488,0-0.885,0.397-0.885,0.885C-1.252,75.954-0.855,76.35-0.367,76.35"/>
<path class="st5" d="M0.21,86.002c0.161-0.156,0.241-0.349,0.241-0.581c0-0.15-0.037-0.288-0.11-0.414
	c-0.073-0.125-0.172-0.224-0.297-0.297c-0.126-0.073-0.264-0.11-0.415-0.11c-0.15,0-0.288,0.037-0.41,0.11
	c-0.122,0.073-0.221,0.172-0.294,0.297c-0.072,0.126-0.11,0.264-0.11,0.414c0,0.232,0.08,0.425,0.238,0.581
	c0.157,0.156,0.35,0.234,0.576,0.234C-0.144,86.236,0.049,86.158,0.21,86.002"/>
<path class="st7" d="M-15.029,85.54h-13.016 M-15.029,80.407h-13.016 M-15.029,75.275h-13.016"/>
<rect x="-31.593" y="74.506" class="st5" width="1.77" height="1.77"/>
<rect x="-31.593" y="79.522" class="st5" width="1.77" height="1.77"/>
<rect x="-31.593" y="84.54" class="st5" width="1.77" height="1.77"/>
<rect x="306.928" y="-0.381" class="st2" width="245" height="57.75"/>
<text transform="matrix(1 0 0 1 381.6262 25.814)"><tspan x="0" y="0" class="st5" style="font-family:'Montserrat-Regular'; font-size:13px;">N</tspan><tspan x="10.478" y="0" class="st5" style="font-family:'Montserrat-Regular'; font-size:13px;">e</tspan><tspan x="18.135" y="0" class="st5" style="font-family:'Montserrat-Regular'; font-size:13px;">u</tspan><tspan x="26.753" y="0" class="st5" style="font-family:'Montserrat-Regular'; font-size:13px;">e </tspan><tspan x="38.011" y="0" class="st5" style="font-family:'Montserrat-Regular'; font-size:13px; letter-spacing:-1;">T</tspan><tspan x="44.381" y="0" class="st5" style="font-family:'Montserrat-Regular'; font-size:13px;">e</tspan><tspan x="51.882" y="0" class="st5" style="font-family:'Montserrat-Regular'; font-size:13px;">x</tspan><tspan x="59.097" y="0" class="st5" style="font-family:'Montserrat-Regular'; font-size:13px;">t</tspan><tspan x="64.128" y="0" class="st5" style="font-family:'Montserrat-Regular'; font-size:13px;">b</tspan><tspan x="72.942" y="0" class="st5" style="font-family:'Montserrat-Regular'; font-size:13px;">o</tspan><tspan x="80.742" y="0" class="st5" style="font-family:'Montserrat-Regular'; font-size:13px;">x </tspan></text>
<path class="st14" d="M429.428,47.577c3.707,0,6.713-3.005,6.713-6.712c0-3.708-3.006-6.713-6.713-6.713s-6.712,3.005-6.712,6.713
	C422.716,44.572,425.721,47.577,429.428,47.577z"/>
<rect x="306.928" y="-0.381" class="st9" width="245" height="57.75"/>
<line class="st15" x1="429.428" y1="37.331" x2="429.428" y2="44.4"/>
<line class="st15" x1="425.894" y1="40.896" x2="432.962" y2="40.896"/>
<path class="st14" d="M318.467,87.413c3.707,0,6.713-3.005,6.713-6.712c0-3.708-3.006-6.713-6.713-6.713s-6.712,3.005-6.712,6.713
	C311.755,84.408,314.76,87.413,318.467,87.413z"/>
<line class="st15" x1="318.467" y1="77.166" x2="318.467" y2="84.235"/>
<line class="st15" x1="314.933" y1="80.732" x2="322.001" y2="80.732"/>
<g>
	<path class="st16" d="M-177.425,102.548h-3.138v-1.85h8.544v1.85h-3.138v7.956h-2.269V102.548z"/>
	<path class="st16" d="M-170.805,100.698h2.269v9.806h-2.269V100.698z"/>
	<path class="st16" d="M-157.71,104.257c0,2.185-1.639,3.544-4.258,3.544h-1.975v2.703h-2.269v-9.806h4.244
		C-159.349,100.698-157.71,102.058-157.71,104.257z M-160.007,104.257c0-1.079-0.701-1.709-2.087-1.709h-1.849v3.403h1.849
		C-160.708,105.951-160.007,105.321-160.007,104.257z"/>
	<path class="st16" d="M-147.588,104.257c0,2.185-1.639,3.544-4.258,3.544h-1.975v2.703h-2.269v-9.806h4.244
		C-149.227,100.698-147.588,102.058-147.588,104.257z M-149.885,104.257c0-1.079-0.701-1.709-2.087-1.709h-1.849v3.403h1.849
		C-150.586,105.951-149.885,105.321-149.885,104.257z"/>
</g>
<path class="st16" d="M-214.053,96.227L-214.053,96.227c-1.054,2.474-1.96,4.602-2.889,6.784h5.729
	C-212.157,100.755-213.039,98.647-214.053,96.227 M-210.56,113.817L-210.56,113.817c-0.346-1.15-0.211-1.759,1.044-1.8
	c0.976-0.033,1.343-0.74,1.02-1.64c-0.507-1.414-1.072-2.81-1.681-4.183c-0.109-0.245-0.55-0.478-0.843-0.484
	c-2.129-0.041-4.261-0.046-6.39,0.005c-0.305,0.008-0.741,0.315-0.877,0.599c-0.558,1.155-1.057,2.342-1.512,3.542
	c-0.57,1.504-0.268,2.026,1.348,2.192c0.783,0.081,1.206,0.319,1.022,1.126c-0.056,0.243-0.355,0.61-0.547,0.613
	c-2.524,0.042-5.049,0.028-7.596,0.028c-0.214-0.956-0.321-1.631,0.868-1.885c0.569-0.122,1.219-0.609,1.515-1.117
	c0.755-1.293,1.377-2.67,1.972-4.049c2.401-5.559,4.761-11.135,7.172-16.689c0.173-0.398,0.634-0.67,0.96-1
	c0.319,0.343,0.766,0.632,0.937,1.037c2.56,6.048,5.079,12.114,7.622,18.17c0.326,0.776,0.705,1.534,1.106,2.275
	c0.507,0.939,1.332,1.389,2.379,1.595c0.265,0.052,0.519,0.638,0.586,1.013c0.032,0.175-0.39,0.621-0.611,0.624
	C-204.218,113.83-207.371,113.817-210.56,113.817"/>
<path class="st5" d="M-116.815,106.279c2.682-0.014,4.762-2.036,4.751-4.621c-0.01-2.367-2.203-4.406-4.733-4.399
	c-2.703,0.008-4.848,2.038-4.825,4.568C-121.599,104.291-119.439,106.292-116.815,106.279 M-111.26,106.292L-111.26,106.292
	c0.393-0.231,0.569-0.207,0.91,0.115c1.249,1.181,2.501,2.361,3.751,3.541c0.086,0.08,0.173,0.159,0.252,0.246
	c0.216,0.237,0.217,0.464-0.012,0.692c-0.249,0.248-0.509,0.488-0.767,0.727c-0.302,0.28-0.548,0.287-0.855,0
	c-1.177-1.103-2.348-2.211-3.522-3.318c-0.132-0.124-0.263-0.25-0.396-0.373c-0.368-0.34-0.394-0.487-0.153-0.896
	c-0.368-0.336-0.737-0.673-1.128-1.029c-1.472,1.07-3.153,1.471-5.011,1.06c-1.415-0.313-2.544-1.054-3.377-2.178
	c-1.65-2.23-1.286-5.335,0.823-7.11c2.222-1.87,5.521-1.904,7.68-0.117c2.217,1.835,2.765,5.106,0.696,7.583
	C-111.999,105.588-111.63,105.939-111.26,106.292"/>
<path class="st17" d="M-116.815,106.279c2.682-0.014,4.762-2.036,4.751-4.621c-0.01-2.367-2.203-4.406-4.733-4.399
	c-2.703,0.008-4.848,2.038-4.825,4.568C-121.599,104.291-119.439,106.292-116.815,106.279z M-111.26,106.292L-111.26,106.292
	c0.393-0.231,0.569-0.207,0.91,0.115c1.249,1.181,2.501,2.361,3.751,3.541c0.086,0.08,0.173,0.159,0.252,0.246
	c0.216,0.237,0.217,0.464-0.012,0.692c-0.249,0.248-0.509,0.488-0.767,0.727c-0.302,0.28-0.548,0.287-0.855,0
	c-1.177-1.103-2.348-2.211-3.522-3.318c-0.132-0.124-0.263-0.25-0.396-0.373c-0.368-0.34-0.394-0.487-0.153-0.896
	c-0.368-0.336-0.737-0.673-1.128-1.029c-1.472,1.07-3.153,1.471-5.011,1.06c-1.415-0.313-2.544-1.054-3.377-2.178
	c-1.65-2.23-1.286-5.335,0.823-7.11c2.222-1.87,5.521-1.904,7.68-0.117c2.217,1.835,2.765,5.106,0.696,7.583
	C-111.999,105.588-111.63,105.939-111.26,106.292z"/>
<path class="st5" d="M-53.1,96.698l2.966,2.98V96.92c0-0.096-0.055-0.229-0.123-0.297l-3.807-3.826
	c-0.068-0.067-0.178-0.067-0.245,0l-3.93,3.949v2.758c0,0.096,0.055,0.119,0.122,0.051l2.844-2.857
	c0.068-0.068,0.122-0.046,0.122,0.05v7.829h0v2.168c0,0.096-0.055,0.118-0.123,0.05l-2.966-2.98v2.758
	c0,0.096,0.055,0.229,0.123,0.297l3.807,3.826c0.068,0.067,0.178,0.067,0.245,0l3.93-3.949v-2.758c0-0.096-0.055-0.119-0.122-0.051
	l-2.844,2.857c-0.068,0.068-0.122,0.046-0.122-0.05v-7.829h0v-2.168C-53.223,96.652-53.168,96.63-53.1,96.698z"/>
<line class="st18" x1="-89.239" y1="109.934" x2="-61.406" y2="109.934"/>
<line class="st18" x1="-89.239" y1="101.639" x2="-61.406" y2="101.639"/>
<line class="st18" x1="-89.239" y1="93.646" x2="-61.406" y2="93.646"/>
<line class="st18" x1="-74.898" y1="128.906" x2="-74.898" y2="149.906"/>
<path class="st5" d="M-67.438,142.749L-67.438,142.749h2.695l-2.603-2.569c-0.138-0.135-0.093-0.245,0.101-0.245h7.006v-1.407
	c0-0.193-0.157-0.35-0.35-0.35h-6.656c-0.194,0-0.239-0.11-0.101-0.246l2.603-2.569h-2.345c-0.193,0-0.462,0.111-0.599,0.246
	l-3.245,3.201c-0.137,0.136-0.137,0.356,0,0.492L-67.438,142.749z"/>
<path class="st5" d="M-83.208,135.537L-83.208,135.537h-2.695l2.603,2.569c0.138,0.135,0.093,0.245-0.101,0.245h-7.006v1.407
	c0,0.193,0.157,0.35,0.35,0.35h6.656c0.194,0,0.239,0.11,0.101,0.246l-2.603,2.569h2.345c0.193,0,0.462-0.111,0.599-0.246
	l3.245-3.201c0.137-0.136,0.137-0.356,0-0.492L-83.208,135.537z"/>
<line class="st19" x1="241.389" y1="9.793" x2="205.366" y2="9.793"/>
<path class="st20" d="M232.886,12.939c2.045,0,3.703-1.658,3.703-3.703s-1.658-3.703-3.703-3.703s-3.703,1.658-3.703,3.703
	S230.841,12.939,232.886,12.939"/>
<g>
	<path class="st5" d="M256.085,9.994c0,3.12-1.82,4.836-4.459,4.836c-0.91,0-1.781-0.195-2.392-0.585l0.624-1.274
		c0.494,0.325,1.092,0.442,1.729,0.442c1.716,0,2.795-1.066,2.795-3.133v-0.014c-0.546,0.638-1.417,0.949-2.431,0.949
		c-1.794,0-3.133-1.092-3.133-2.795c0-1.807,1.469-2.951,3.328-2.951C254.628,5.47,256.085,7.069,256.085,9.994z M254.122,8.33
		c0-0.858-0.676-1.534-1.885-1.534c-1.053,0-1.781,0.598-1.781,1.547s0.715,1.547,1.82,1.547
		C253.368,9.89,254.122,9.227,254.122,8.33z"/>
	<path class="st5" d="M263.95,11.905c0,1.599-1.157,2.925-3.602,2.925c-1.287,0-2.587-0.39-3.419-1.053l0.715-1.313
		c0.663,0.546,1.651,0.897,2.678,0.897c1.209,0,1.924-0.533,1.924-1.392c0-0.871-0.559-1.417-2.444-1.417h-2.197l0.468-4.953h5.343
		v1.417h-3.913l-0.195,2.106h0.871C262.871,9.123,263.95,10.293,263.95,11.905z"/>
	<path class="st5" d="M268.369,8.005c0-1.495,0.871-2.496,2.171-2.496s2.184,0.988,2.184,2.496s-0.884,2.496-2.184,2.496
		S268.369,9.5,268.369,8.005z M271.658,8.005c0-1.014-0.416-1.586-1.118-1.586c-0.676,0-1.118,0.585-1.118,1.586
		s0.442,1.586,1.118,1.586C271.242,9.591,271.658,9.019,271.658,8.005z M276.001,5.6h1.274L271.06,14.7h-1.274L276.001,5.6z
		 M274.336,12.295c0-1.495,0.871-2.496,2.171-2.496c1.3,0,2.184,1.001,2.184,2.496s-0.884,2.496-2.184,2.496
		C275.207,14.791,274.336,13.79,274.336,12.295z M277.626,12.295c0-1.001-0.429-1.586-1.118-1.586s-1.118,0.572-1.118,1.586
		c0,1.015,0.429,1.586,1.118,1.586S277.626,13.296,277.626,12.295z"/>
</g>
<rect x="219.326" y="63.936" class="st11" width="13.149" height="16.764"/>
<polygon class="st21" points="219.325,80.7 219.325,80.7 232.474,80.7 232.474,63.936 219.325,63.936 "/>
<rect x="211.654" y="63.465" class="st9" width="21.291" height="24"/>
<line class="st22" x1="216.151" y1="71.631" x2="216.151" y2="82.018"/>
<line class="st23" x1="218.783" y1="83.907" x2="228.432" y2="83.907"/>
<path class="st21" d="M229.308,83.907h0.877 M216.151,82.963v0.944h0.877 M216.151,68.798v0.944"/>
<polyline class="st21" points="212.124,71.887 212.124,86.995 226.158,86.995 "/>
<rect x="211.654" y="63.465" class="st9" width="21.291" height="24"/>
<rect x="250.899" y="63.867" class="st11" width="14.674" height="18.705"/>
<polygon class="st24" points="250.9,82.572 250.9,82.572 265.573,82.572 265.573,63.867 250.9,63.867 "/>
<rect x="250.497" y="63.465" class="st9" width="19.884" height="24"/>
<rect x="255.306" y="68.358" class="st5" width="14.674" height="18.705"/>
<polygon class="st25" points="255.306,87.063 255.306,87.063 269.979,87.063 269.979,68.358 255.306,68.358 "/>
<rect x="250.497" y="63.465" class="st9" width="19.884" height="24"/>
<rect x="152.007" y="67.414" class="st10" width="34.924" height="19.551"/>
<text transform="matrix(1 0 0 1 159.0071 82.0656)"><tspan x="0" y="0" class="st11" style="font-family:'Montserrat-Regular'; font-size:13px;">e</tspan><tspan x="7.41" y="0" class="st11" style="font-family:'Montserrat-Regular'; font-size:13px;">i</tspan><tspan x="10.335" y="0" class="st11" style="font-family:'Montserrat-Regular'; font-size:13px;">n</tspan></text>
<polygon class="st6" points="116.999,67.289 116.999,87.289 116.999,87.539 117.249,87.539 186.098,87.539 186.348,87.539 
	186.348,87.289 186.348,67.289 186.348,67.039 186.098,67.039 117.249,67.039 116.999,67.039 "/>
<rect x="116.749" y="66.789" class="st9" width="70.183" height="21"/>
<line class="st26" x1="258.063" y1="156.928" x2="258.063" y2="181.188"/>
<path class="st5" d="M266.16,172.747L266.16,172.747h2.592l-2.494-2.46c-0.138-0.135-0.093-0.245,0.101-0.245h6.725v-1.339
	c0-0.193-0.157-0.35-0.35-0.35h-6.725l2.743-2.705h-2.242c-0.193,0-0.462,0.11-0.599,0.245l-3.102,3.059
	c-0.137,0.135-0.137,0.355,0,0.491L266.16,172.747z"/>
<line class="st26" x1="231.118" y1="181.021" x2="231.118" y2="156.761"/>
<path class="st5" d="M223.021,165.203L223.021,165.203h-2.592l2.494,2.46c0.138,0.135,0.093,0.245-0.101,0.245h-6.725v1.339
	c0,0.193,0.157,0.35,0.35,0.35h6.725l-2.743,2.705h2.242c0.193,0,0.462-0.11,0.599-0.245l3.102-3.059
	c0.137-0.135,0.137-0.355,0-0.491L223.021,165.203z"/>
<line class="st26" x1="41.376" y1="164.8" x2="65.636" y2="164.8"/>
<path class="st5" d="M57.027,156.742L57.027,156.742v-2.592l-2.46,2.494c-0.135,0.138-0.245,0.093-0.245-0.101v-6.725h-1.339
	c-0.193,0-0.35,0.157-0.35,0.35v6.725l-2.705-2.743v2.242c0,0.193,0.11,0.462,0.245,0.599l3.059,3.102
	c0.135,0.137,0.355,0.137,0.491,0L57.027,156.742z"/>
<path class="st5" d="M50.095,171.894L50.095,171.894v2.592l2.46-2.494c0.135-0.138,0.245-0.093,0.245,0.101v6.725h1.339
	c0.193,0,0.35-0.157,0.35-0.35v-6.725l2.705,2.743v-2.242c0-0.193-0.11-0.462-0.245-0.599l-3.059-3.102
	c-0.135-0.137-0.355-0.137-0.491,0L50.095,171.894z"/>
<line class="st26" x1="97.822" y1="177.61" x2="97.822" y2="153.35"/>
<path class="st5" d="M89.764,161.959L89.764,161.959h-2.592l2.494,2.46c0.138,0.135,0.093,0.245-0.101,0.245H82.84v1.339
	c0,0.193,0.157,0.35,0.35,0.35h6.725l-2.743,2.705h2.242c0.193,0,0.462-0.11,0.599-0.245l3.102-3.059
	c0.137-0.135,0.137-0.355,0-0.491L89.764,161.959z"/>
<path class="st5" d="M104.916,168.891L104.916,168.891h2.592l-2.494-2.46c-0.138-0.135-0.093-0.245,0.101-0.245h6.725v-1.339
	c0-0.193-0.157-0.35-0.35-0.35h-6.725l2.743-2.705h-2.242c-0.193,0-0.462,0.11-0.599,0.245l-3.102,3.059
	c-0.137,0.135-0.137,0.355,0,0.491L104.916,168.891z"/>
<line class="st26" x1="129.963" y1="165.083" x2="154.223" y2="165.083"/>
<path class="st5" d="M138.682,172.177L138.682,172.177v2.592l2.46-2.494c0.135-0.138,0.245-0.093,0.245,0.101v6.725h1.339
	c0.193,0,0.35-0.157,0.35-0.35v-6.725l2.705,2.743v-2.242c0-0.193-0.11-0.462-0.245-0.599l-3.059-3.102
	c-0.135-0.137-0.355-0.137-0.491,0L138.682,172.177z"/>
<line class="st26" x1="175.075" y1="176.338" x2="199.335" y2="176.338"/>
<path class="st5" d="M190.893,167.95L190.893,167.95v-2.592l-2.46,2.494c-0.135,0.138-0.245,0.093-0.245-0.101v-6.725h-1.339
	c-0.193,0-0.35,0.157-0.35,0.35v6.725l-2.705-2.743v2.242c0,0.193,0.11,0.462,0.245,0.599l3.059,3.102
	c0.135,0.137,0.355,0.137,0.491,0L190.893,167.95z"/>
<rect x="320.938" y="149.412" class="st11" width="15.769" height="20.056"/>
<line class="st27" x1="323.895" y1="169.468" x2="334.736" y2="169.468"/>
<line class="st28" x1="336.707" y1="166.46" x2="336.707" y2="151.418"/>
<line class="st27" x1="333.751" y1="149.412" x2="322.91" y2="149.412"/>
<line class="st28" x1="320.938" y1="152.421" x2="320.938" y2="167.463"/>
<path class="st21" d="M320.938,168.465v1.003h0.986 M321.924,149.412h-0.986v1.003 M336.707,150.415v-1.003h-0.985 M335.722,169.468
	h0.985v-1.003"/>
<polygon class="st11" points="309.702,179.468 309.702,179.468 325.471,179.468 325.471,159.412 309.702,159.412 "/>
<line class="st27" x1="312.659" y1="179.468" x2="323.5" y2="179.468"/>
<line class="st28" x1="325.471" y1="176.46" x2="325.471" y2="161.418"/>
<line class="st27" x1="322.515" y1="159.412" x2="311.674" y2="159.412"/>
<line class="st28" x1="309.702" y1="162.421" x2="309.702" y2="177.463"/>
<path class="st21" d="M309.702,178.465v1.003h0.986 M310.688,159.412h-0.986v1.003 M325.471,160.415v-1.003h-0.985 M324.486,179.468
	h0.985v-1.003"/>
<polygon class="st11" points="300.228,187.468 300.228,187.468 315.997,187.468 315.997,167.412 300.228,167.412 "/>
<polygon class="st21" points="300.228,187.468 300.228,187.468 315.997,187.468 315.997,167.412 300.228,167.412 "/>
<g>
	<polygon class="st11" points="374.065,173.774 374.065,173.774 389.834,173.774 389.834,153.718 374.065,153.718 	"/>
	<polygon class="st21" points="374.065,173.774 374.065,173.774 389.834,173.774 389.834,153.718 374.065,153.718 	"/>
	<line class="st29" x1="370.301" y1="162.273" x2="370.301" y2="175.777"/>
	<line class="st30" x1="373.438" y1="177.577" x2="384.941" y2="177.577"/>
	<path class="st21" d="M385.986,177.577h1.046 M370.301,176.677v0.9h1.046 M370.301,159.572v0.9"/>
</g>
<g>
	<g>
		<rect x="446.605" y="141.997" class="st11" width="15.769" height="20.056"/>
		<polygon class="st21" points="446.604,162.054 446.604,162.054 462.373,162.054 462.373,141.998 446.604,141.998 		"/>
		<polygon class="st11" points="435.368,172.054 435.368,172.054 451.137,172.054 451.137,151.998 435.368,151.998 		"/>
		<line class="st27" x1="438.325" y1="172.054" x2="449.166" y2="172.054"/>
		<line class="st28" x1="451.137" y1="169.045" x2="451.137" y2="154.003"/>
		<line class="st27" x1="448.181" y1="151.998" x2="437.34" y2="151.998"/>
		<line class="st28" x1="435.368" y1="155.006" x2="435.368" y2="170.048"/>
		<path class="st21" d="M435.368,171.051v1.003h0.986 M436.354,151.998h-0.986v1.003 M451.137,153.001v-1.003h-0.985
			 M450.152,172.054h0.985v-1.003"/>
		<polygon class="st11" points="425.895,180.054 425.895,180.054 441.664,180.054 441.664,159.998 425.895,159.998 		"/>
		<line class="st27" x1="428.852" y1="180.054" x2="439.693" y2="180.054"/>
		<line class="st28" x1="441.664" y1="177.045" x2="441.664" y2="162.003"/>
		<line class="st27" x1="438.707" y1="159.998" x2="427.866" y2="159.998"/>
		<line class="st28" x1="425.895" y1="163.006" x2="425.895" y2="178.048"/>
		<path class="st21" d="M425.894,179.051v1.003h0.986 M426.88,159.998h-0.986v1.003 M441.663,161.001v-1.003h-0.985
			 M440.678,180.054h0.985v-1.003"/>
	</g>
	<line class="st27" x1="502.018" y1="175.539" x2="512.859" y2="175.539"/>
	<line class="st28" x1="514.83" y1="172.531" x2="514.83" y2="157.488"/>
	<line class="st27" x1="511.874" y1="155.483" x2="501.033" y2="155.483"/>
	<line class="st28" x1="499.061" y1="158.491" x2="499.061" y2="173.533"/>
	<path class="st21" d="M499.061,174.536v1.003h0.986 M500.047,155.483h-0.986v1.003 M514.83,156.486v-1.003h-0.985 M513.845,175.539
		h0.985v-1.003"/>
	<polyline class="st21" points="495.297,161.337 495.297,179.342 512.028,179.342 	"/>
</g>
<g>
	<defs>
		<rect id="SVGID_1_" x="-259.978" y="269.375" width="241.682" height="1"/>
	</defs>
	<clipPath id="SVGID_00000036935005928649516040000006537389837828845245_">
		<use xlink:href="#SVGID_1_"  style="overflow:visible;"/>
	</clipPath>
	
		<line style="clip-path:url(#SVGID_00000036935005928649516040000006537389837828845245_);fill:none;stroke:#B2B2B2;stroke-linecap:round;stroke-linejoin:round;stroke-dasharray:0,3.009;" x1="-256.469" y1="269.875" x2="-20.299" y2="269.875"/>
	
		<path style="clip-path:url(#SVGID_00000036935005928649516040000006537389837828845245_);fill:none;stroke:#B2B2B2;stroke-linecap:round;stroke-linejoin:round;" d="
		M-18.796,269.875L-18.796,269.875 M-259.478,269.875L-259.478,269.875"/>
</g>
<circle class="st33" cx="-213.08" cy="48.664" r="12.75"/>
<polygon class="st3" points="-69.687,33.64 -82.687,33.64 -76.319,44.115 "/>
<polygon class="st5" points="-61.663,162.182 -72.138,168.55 -61.663,175.182 "/>
<polygon class="st5" points="-90.71,175.182 -80.235,168.814 -90.71,162.182 "/>
<polygon class="st5" points="-8.157,162.182 -18.632,168.55 -8.157,175.182 "/>
<polygon class="st5" points="-43.334,175.182 -32.859,168.814 -43.334,162.182 "/>
<rect x="116.916" y="33.651" class="st10" width="34.924" height="19.551"/>
<polygon class="st6" points="117.166,33.526 117.166,53.526 117.166,53.776 117.416,53.776 186.265,53.776 186.515,53.776 
	186.515,53.526 186.515,33.526 186.515,33.276 186.265,33.276 117.416,33.276 117.166,33.276 "/>
<rect x="116.916" y="33.026" class="st9" width="69.849" height="21"/>
<rect x="152.28" y="99.68" class="st10" width="34.924" height="19.551"/>
<polygon class="st6" points="117.271,99.555 117.271,119.555 117.271,119.805 117.521,119.805 186.37,119.805 186.62,119.805 
	186.62,119.555 186.62,99.555 186.62,99.305 186.37,99.305 117.521,99.305 117.271,99.305 "/>
<rect x="117.022" y="99.055" class="st9" width="70.183" height="21"/>
<line class="st19" x1="240.311" y1="29.581" x2="204.288" y2="29.581"/>
<path class="st20" d="M231.808,32.727c2.045,0,3.703-1.658,3.703-3.703s-1.658-3.703-3.703-3.703s-3.703,1.658-3.703,3.703
	S229.763,32.727,231.808,32.727"/>
</svg>
