<?xml version="1.0" encoding="utf-8"?>
<!-- Generator: Adobe Illustrator 26.0.3, SVG Export Plug-In . SVG Version: 6.00 Build 0)  -->
<svg version="1.1" id="Ebene_1" xmlns="http://www.w3.org/2000/svg" xmlns:xlink="http://www.w3.org/1999/xlink" x="0px" y="0px"
	 width="27px" height="27px" viewBox="0 0 27 27" style="enable-background:new 0 0 27 27;" xml:space="preserve">
<style type="text/css">
	.st0{fill:none;stroke:#C5C5C5;stroke-width:3;stroke-linecap:round;stroke-linejoin:round;}
	.st1{fill:#FFAEFF;stroke:#4F4D4D;stroke-width:0.5;}
	.st2{fill:#F8F8F8;}
	.st3{fill:#0E689A;}
	.st4{fill:#B2B1B1;}
	.st5{fill:none;stroke:#B2B1B1;stroke-width:0.65;stroke-miterlimit:10;}
	.st6{fill:none;stroke:#B2B2B2;stroke-width:0.5;stroke-miterlimit:10;}
	.st7{fill:none;stroke:#B2B1B1;stroke-width:0.3;stroke-miterlimit:10;}
	.st8{fill:none;stroke:#FFFFFF;stroke-width:0.021;}
	.st9{fill:none;}
	.st10{fill:#0E6899;}
	.st11{fill:#FFFFFF;}
	.st12{fill:none;stroke:#C5C5C5;stroke-width:0.5;stroke-linecap:round;stroke-linejoin:round;}
	.st13{fill:#C5C5C5;}
	.st14{fill:none;stroke:#B2B1B1;stroke-width:0.5;}
	.st15{fill:none;stroke:#B2B1B1;stroke-width:1.2;}
	.st16{fill:#B2B2B2;}
	.st17{fill:none;stroke:#FFFFFF;stroke-width:0.001;}
	.st18{fill:none;stroke:#B2B1B1;stroke-width:1.712;}
	.st19{fill:none;stroke:#B2B1B1;stroke-width:2;}
	.st20{fill:#AD5E7A;}
	.st21{fill:none;stroke:#B2B1B1;stroke-width:0.941;}
	.st22{fill:none;stroke:#B2B1B1;stroke-width:0.941;stroke-dasharray:1.889,1.889;}
	.st23{fill:none;stroke:#B2B1B1;stroke-width:0.941;stroke-dasharray:1.754,1.754;}
	.st24{fill:none;stroke:#B2B1B1;stroke-width:0.804;}
	.st25{fill:none;stroke:#FFFFFF;stroke-width:0.804;}
	.st26{fill:none;stroke:#B2B1B1;stroke-width:2.5;}
	.st27{fill:none;stroke:#B2B1B1;stroke-width:0.941;stroke-dasharray:1.971,1.971;}
	.st28{fill:none;stroke:#B2B1B1;stroke-width:0.941;stroke-dasharray:2.006,2.006;}
	.st29{fill:none;stroke:#B2B1B1;stroke-width:0.941;stroke-dasharray:1.801,1.801;}
	.st30{fill:none;stroke:#B2B1B1;stroke-width:0.941;stroke-dasharray:2.091,2.091;}
	
		.st31{clip-path:url(#SVGID_00000011016995885610926660000007919924832639606423_);fill:none;stroke:#B2B2B2;stroke-linecap:round;stroke-linejoin:round;stroke-dasharray:0,3.009;}
	
		.st32{clip-path:url(#SVGID_00000011016995885610926660000007919924832639606423_);fill:none;stroke:#B2B2B2;stroke-linecap:round;stroke-linejoin:round;}
	.st33{fill:none;stroke:#4F4D4D;stroke-width:0.5;}
</style>
<polyline class="st0" points="1815.875,975.268 1809.625,966.268 1802.875,975.268 "/>
<circle class="st1" cx="-176.018" cy="12.519" r="12.75"/>
<rect x="-143.558" y="1.504" class="st2" width="119.902" height="21"/>
<polygon class="st3" points="-32.729,6.767 -45.729,6.767 -39.361,17.242 "/>
<g>
	<path class="st4" d="M50.821,8.898h1.3l-1.82,9.101h-1.3L50.821,8.898z"/>
</g>
<g>
	<line class="st5" x1="80.284" y1="19.025" x2="90.567" y2="19.025"/>
	<g>
		<path class="st4" d="M81.571,13.799V8.624h1.3v5.122c0,2.016,0.923,2.926,2.561,2.926c1.638,0,2.574-0.91,2.574-2.926V8.624h1.261
			v5.175c0,2.639-1.443,4.029-3.848,4.029C83.027,17.829,81.571,16.438,81.571,13.799z"/>
	</g>
</g>
<polygon class="st6" points="72.175,0.825 72.175,26.825 72.175,27.075 72.425,27.075 98.425,27.075 98.675,27.075 98.675,26.825 
	98.675,0.825 98.675,0.575 98.425,0.575 72.425,0.575 72.175,0.575 "/>
<polygon class="st6" points="37.311,0.448 37.311,26.448 37.311,26.698 37.561,26.698 63.561,26.698 63.811,26.698 63.811,26.448 
	63.811,0.448 63.811,0.198 63.561,0.198 37.561,0.198 37.311,0.198 "/>
<g>
	<g>
		<path class="st4" d="M17.673,15.567c0,1.573-1.248,2.483-3.64,2.483H9.327V8.95h4.446c2.275,0,3.445,0.949,3.445,2.366
			c0,0.91-0.468,1.612-1.209,2.002C17.023,13.643,17.673,14.423,17.673,15.567z M11.42,10.536v2.146h2.093
			c1.027,0,1.586-0.364,1.586-1.079s-0.559-1.066-1.586-1.066H11.42z M15.554,15.346c0-0.767-0.585-1.131-1.677-1.131H11.42v2.249
			h2.457C14.969,16.464,15.554,16.126,15.554,15.346z"/>
	</g>
	<polygon class="st6" points="0.25,0.5 0.25,26.5 0.25,26.75 0.5,26.75 26.5,26.75 26.75,26.75 26.75,26.5 26.75,0.5 26.75,0.25 
		26.5,0.25 0.5,0.25 0.25,0.25 	"/>
</g>
<path class="st7" d="M54.438,42.454"/>
<path class="st7" d="M51.93,43.708"/>
<path class="st7" d="M51.93,44.961"/>
<path class="st7" d="M51.93,46.216"/>
<path class="st7" d="M54.438,47.47"/>
<path class="st7" d="M54.438,48.724"/>
<path class="st7" d="M51.93,49.978"/>
<path class="st7" d="M51.93,52.485"/>
<path class="st7" d="M54.438,54.993"/>
<path class="st7" d="M34.973,47.47"/>
<path class="st7" d="M34.973,42.454"/>
<path class="st7" d="M34.973,54.993"/>
<path class="st7" d="M34.973,48.724"/>
<g>
	<path class="st7" d="M37.036,49.978"/>
	<path class="st7" d="M37.036,46.216"/>
	<path class="st7" d="M37.036,44.961"/>
	<path class="st7" d="M37.036,43.708"/>
	<line class="st7" x1="34.598" y1="54.198" x2="54.062" y2="54.198"/>
	<line class="st7" x1="34.598" y1="52.923" x2="49.492" y2="52.923"/>
	<line class="st7" x1="34.598" y1="51.647" x2="49.492" y2="51.647"/>
	<line class="st7" x1="34.598" y1="50.371" x2="49.492" y2="50.371"/>
	<line class="st7" x1="34.598" y1="49.095" x2="54.062" y2="49.095"/>
	<line class="st7" x1="34.598" y1="47.819" x2="54.062" y2="47.819"/>
	<line class="st7" x1="34.671" y1="46.543" x2="49.565" y2="46.543"/>
	<line class="st7" x1="34.598" y1="45.267" x2="54.062" y2="45.267"/>
	<line class="st7" x1="34.598" y1="43.991" x2="49.492" y2="43.991"/>
	<line class="st7" x1="34.598" y1="42.715" x2="49.492" y2="42.715"/>
	<line class="st7" x1="34.598" y1="41.439" x2="54.062" y2="41.439"/>
</g>
<polygon class="st6" points="31.271,35.145 31.271,61.138 31.271,61.388 31.521,61.388 57.514,61.388 57.764,61.388 57.764,61.138 
	57.764,35.145 57.764,34.895 57.514,34.895 31.521,34.895 31.271,34.895 "/>
<g>
	<line class="st7" x1="85.318" y1="41.756" x2="65.854" y2="41.756"/>
	<line class="st7" x1="82.81" y1="43.033" x2="67.916" y2="43.033"/>
	<line class="st7" x1="82.81" y1="44.31" x2="67.916" y2="44.31"/>
	<line class="st7" x1="82.81" y1="45.587" x2="67.916" y2="45.587"/>
	<line class="st7" x1="85.318" y1="46.864" x2="65.854" y2="46.864"/>
	<line class="st7" x1="85.318" y1="48.141" x2="65.854" y2="48.141"/>
	<line class="st7" x1="82.81" y1="49.418" x2="67.916" y2="49.418"/>
	<line class="st7" x1="85.318" y1="50.695" x2="65.854" y2="50.695"/>
	<line class="st7" x1="82.81" y1="51.972" x2="67.916" y2="51.972"/>
	<line class="st7" x1="82.81" y1="53.249" x2="67.916" y2="53.249"/>
	<line class="st7" x1="85.318" y1="54.526" x2="65.854" y2="54.526"/>
</g>
<polygon class="st6" points="62.34,35.145 62.34,61.138 62.34,61.388 62.59,61.388 88.583,61.388 88.833,61.388 88.833,61.138 
	88.833,35.145 88.833,34.895 88.583,34.895 62.59,34.895 62.34,34.895 "/>
<polygon class="st6" points="93.408,35.145 93.408,61.138 93.408,61.388 93.658,61.388 119.651,61.388 119.901,61.388 
	119.901,61.138 119.901,35.145 119.901,34.895 119.651,34.895 93.658,34.895 93.408,34.895 "/>
<path class="st7" d="M96.735,53.829"/>
<path class="st7" d="M96.735,48.813"/>
<path class="st7" d="M96.735,47.559"/>
<path class="st7" d="M96.735,41.289"/>
<path class="st7" d="M114.137,46.305"/>
<path class="st7" d="M116.2,48.813"/>
<path class="st7" d="M114.137,50.066"/>
<path class="st7" d="M116.2,53.829"/>
<path class="st7" d="M116.2,41.289"/>
<path class="st7" d="M116.2,47.559"/>
<path class="st7" d="M114.137,51.321"/>
<path class="st7" d="M114.137,52.575"/>
<g>
	<path class="st7" d="M99.055,52.252"/>
	<path class="st7" d="M99.055,50.999"/>
	<path class="st7" d="M99.055,49.744"/>
	<path class="st7" d="M99.055,45.982"/>
	<path class="st7" d="M99.055,43.475"/>
	<line class="st7" x1="116.387" y1="41.762" x2="96.923" y2="41.762"/>
	<line class="st7" x1="116.387" y1="43.037" x2="101.493" y2="43.037"/>
	<line class="st7" x1="116.387" y1="44.313" x2="101.493" y2="44.313"/>
	<line class="st7" x1="116.387" y1="45.589" x2="101.493" y2="45.589"/>
	<line class="st7" x1="116.387" y1="46.865" x2="96.923" y2="46.865"/>
	<line class="st7" x1="116.387" y1="48.141" x2="96.923" y2="48.141"/>
	<line class="st7" x1="116.314" y1="49.417" x2="101.42" y2="49.417"/>
	<line class="st7" x1="116.387" y1="50.693" x2="96.923" y2="50.693"/>
	<line class="st7" x1="116.387" y1="51.969" x2="101.493" y2="51.969"/>
	<line class="st7" x1="116.387" y1="53.245" x2="101.493" y2="53.245"/>
	<line class="st7" x1="116.387" y1="54.52" x2="96.923" y2="54.52"/>
</g>
<polygon class="st6" points="0.5,35.151 0.5,61.144 0.5,61.394 0.75,61.394 26.743,61.394 26.993,61.394 26.993,61.144 
	26.993,35.151 26.993,34.901 26.743,34.901 0.75,34.901 0.5,34.901 "/>
<path class="st7" d="M23.667,42.454"/>
<path class="st7" d="M23.667,47.47"/>
<path class="st7" d="M23.667,48.724"/>
<path class="st7" d="M23.667,54.993"/>
<path class="st7" d="M6.265,49.978"/>
<path class="st7" d="M4.202,47.47"/>
<path class="st7" d="M6.265,46.216"/>
<path class="st7" d="M4.202,42.454"/>
<path class="st7" d="M4.202,54.993"/>
<path class="st7" d="M4.202,48.724"/>
<path class="st7" d="M6.265,44.961"/>
<path class="st7" d="M6.265,43.708"/>
<g>
	<path class="st7" d="M21.159,43.708"/>
	<path class="st7" d="M21.159,44.961"/>
	<path class="st7" d="M21.159,46.216"/>
	<path class="st7" d="M21.159,49.978"/>
	<path class="st7" d="M21.159,52.485"/>
	<line class="st7" x1="3.827" y1="54.198" x2="23.291" y2="54.198"/>
	<line class="st7" x1="3.827" y1="52.923" x2="23.291" y2="52.923"/>
	<line class="st7" x1="3.827" y1="51.647" x2="23.291" y2="51.647"/>
	<line class="st7" x1="3.827" y1="50.371" x2="23.291" y2="50.371"/>
	<line class="st7" x1="3.827" y1="49.095" x2="23.291" y2="49.095"/>
	<line class="st7" x1="3.827" y1="47.819" x2="23.291" y2="47.819"/>
	<line class="st7" x1="3.9" y1="46.543" x2="23.364" y2="46.543"/>
	<line class="st7" x1="3.827" y1="45.267" x2="23.291" y2="45.267"/>
	<line class="st7" x1="3.827" y1="43.991" x2="23.291" y2="43.991"/>
	<line class="st7" x1="3.827" y1="42.715" x2="23.291" y2="42.715"/>
	<line class="st7" x1="3.827" y1="41.439" x2="23.291" y2="41.439"/>
</g>
<path class="st4" d="M-169.057,150.3l-1.915,13.335c-0.058,0.402-0.431,0.682-0.834,0.624c-0.402-0.058-0.682-0.431-0.624-0.833
	l1.915-13.336c0.058-0.402,0.431-0.681,0.834-0.623C-169.279,149.525-168.999,149.897-169.057,150.3 M-175.874,164.375
	c-0.407,0.003-0.74-0.324-0.742-0.73l-0.106-13.472c-0.003-0.407,0.324-0.739,0.73-0.742c0.408-0.003,0.74,0.324,0.743,0.731
	l0.105,13.471C-175.141,164.04-175.468,164.372-175.874,164.375 M-179.945,164.322c-0.401,0.064-0.779-0.209-0.842-0.61
	l-2.124-13.304c-0.064-0.402,0.209-0.779,0.612-0.843c0.401-0.064,0.778,0.209,0.842,0.611l2.123,13.303
	C-179.27,163.881-179.543,164.258-179.945,164.322 M-166.162,147.914c-0.141-0.169-0.353-0.266-0.573-0.264l-18.538,0.144
	c-0.22,0.002-0.429,0.101-0.568,0.272c-0.14,0.17-0.196,0.393-0.155,0.609l3.092,16.141c0.068,0.351,0.376,0.605,0.734,0.602
	l12.497-0.098c0.356-0.002,0.66-0.258,0.724-0.608l2.949-16.188C-165.96,148.308-166.021,148.083-166.162,147.914"/>
<path class="st8" d="M-169.057,150.3l-1.915,13.335c-0.058,0.402-0.431,0.682-0.834,0.624c-0.402-0.058-0.682-0.431-0.624-0.833
	l1.915-13.336c0.058-0.402,0.431-0.681,0.834-0.623C-169.279,149.525-168.999,149.897-169.057,150.3z M-175.874,164.375
	c-0.407,0.003-0.74-0.324-0.742-0.73l-0.106-13.472c-0.003-0.407,0.324-0.739,0.73-0.742c0.408-0.003,0.74,0.324,0.743,0.731
	l0.105,13.471C-175.141,164.04-175.468,164.372-175.874,164.375z M-179.945,164.322c-0.401,0.064-0.779-0.209-0.842-0.61
	l-2.124-13.304c-0.064-0.402,0.209-0.779,0.612-0.843c0.401-0.064,0.778,0.209,0.842,0.611l2.123,13.303
	C-179.27,163.881-179.543,164.258-179.945,164.322z M-166.162,147.914c-0.141-0.169-0.353-0.266-0.573-0.264l-18.538,0.144
	c-0.22,0.002-0.429,0.101-0.568,0.272c-0.14,0.17-0.196,0.393-0.155,0.609l3.092,16.141c0.068,0.351,0.376,0.605,0.734,0.602
	l12.497-0.098c0.356-0.002,0.66-0.258,0.724-0.608l2.949-16.188C-165.96,148.308-166.021,148.083-166.162,147.914z"/>
<path class="st4" d="M-178.849,143.307L-178.849,143.307l-0.004-0.421l5.49-0.043l0.004,0.421L-178.849,143.307z M-165.112,144.717
	L-165.112,144.717l-2.025,0.016l-0.009-1.171c-0.001-0.091-0.038-0.18-0.103-0.244c-0.065-0.064-0.155-0.1-0.246-0.1l-4.467,0.035
	l-0.009-1.12c-0.002-0.184-0.077-0.363-0.209-0.492c-0.131-0.13-0.311-0.203-0.495-0.201l-6.887,0.054
	c-0.183,0.001-0.363,0.077-0.492,0.208c-0.129,0.131-0.202,0.312-0.2,0.496l0.009,1.12l-4.164,0.032
	c-0.091,0.001-0.18,0.039-0.243,0.104c-0.065,0.065-0.101,0.154-0.101,0.246l0.009,1.171l-2.197,0.017l0.017,2.225l21.829-0.17
	L-165.112,144.717z"/>
<path class="st8" d="M-178.849,143.307L-178.849,143.307l-0.004-0.421l5.49-0.043l0.004,0.421L-178.849,143.307z M-165.112,144.717
	L-165.112,144.717l-2.025,0.016l-0.009-1.171c-0.001-0.091-0.038-0.18-0.103-0.244c-0.065-0.064-0.155-0.1-0.246-0.1l-4.467,0.035
	l-0.009-1.12c-0.002-0.184-0.077-0.363-0.209-0.492c-0.131-0.13-0.311-0.203-0.495-0.201l-6.887,0.054
	c-0.183,0.001-0.363,0.077-0.492,0.208c-0.129,0.131-0.202,0.312-0.2,0.496l0.009,1.12l-4.164,0.032
	c-0.091,0.001-0.18,0.039-0.243,0.104c-0.065,0.065-0.101,0.154-0.101,0.246l0.009,1.171l-2.197,0.017l0.017,2.225l21.829-0.17
	L-165.112,144.717z"/>
<rect x="-186.952" y="141.429" class="st9" width="21.868" height="24"/>
<rect x="153.977" y="0.661" class="st10" width="34.924" height="19.551"/>
<g>
	<path class="st11" d="M166.954,11.074v4.238h-0.884v-1.066c-0.416,0.702-1.222,1.132-2.354,1.132c-1.547,0-2.496-0.807-2.496-1.989
		c0-1.054,0.676-1.938,2.639-1.938h2.171v-0.416c0-1.17-0.663-1.807-1.938-1.807c-0.884,0-1.716,0.312-2.275,0.806l-0.416-0.688
		c0.689-0.585,1.703-0.924,2.782-0.924C165.953,8.421,166.954,9.306,166.954,11.074z M166.031,13.258V12.14h-2.146
		c-1.326,0-1.755,0.52-1.755,1.222c0,0.793,0.637,1.287,1.729,1.287C164.9,14.649,165.667,14.155,166.031,13.258z"/>
	<path class="st11" d="M175.053,8.474v6.838h-0.884v-1.248c-0.481,0.832-1.365,1.313-2.458,1.313c-1.742,0-2.886-0.976-2.886-2.938
		V8.474h0.923v3.874c0,1.456,0.754,2.197,2.054,2.197c1.43,0,2.327-0.924,2.327-2.483V8.474H175.053z"/>
	<path class="st11" d="M176.353,14.532l0.416-0.728c0.546,0.429,1.469,0.767,2.431,0.767c1.3,0,1.833-0.441,1.833-1.118
		c0-1.78-4.433-0.377-4.433-3.081c0-1.118,0.962-1.95,2.704-1.95c0.884,0,1.846,0.247,2.418,0.638l-0.403,0.74
		c-0.598-0.416-1.313-0.585-2.015-0.585c-1.235,0-1.781,0.481-1.781,1.132c0,1.846,4.434,0.455,4.434,3.081
		c0,1.183-1.04,1.95-2.821,1.95C178.004,15.377,176.912,15.013,176.353,14.532z"/>
</g>
<polygon class="st6" points="154.227,0.536 154.227,20.536 154.227,20.786 154.477,20.786 223.326,20.786 223.576,20.786 
	223.576,20.536 223.576,0.536 223.576,0.286 223.326,0.286 154.477,0.286 154.227,0.286 "/>
<rect x="153.977" y="0.036" class="st9" width="69.849" height="21"/>
<rect x="-250.42" y="207.366" class="st11" width="1014" height="21"/>
<path class="st3" d="M376.741,207.366c-2.209,0-4,1.791-4,4v12.382c0,2.209,1.791,4,4,4h77.131c2.209,0,4-1.791,4-4v-12.382
	c0-2.209-1.791-4-4-4H376.741z"/>
<rect x="-250.17" y="207.616" class="st12" width="1013.5" height="20.5"/>
<path class="st13" d="M747.436,210.226v1.481c0,0.397,0.187,0.771,0.505,1.009l6.367,4.762c0.258,0.194,0.258,0.583,0,0.776
	l-6.367,4.762c-0.318,0.238-0.505,0.612-0.505,1.01v1.48c0,0.41,0.467,0.644,0.795,0.399l10.111-7.563
	c0.318-0.237,0.318-0.714,0-0.952l-10.11-7.562C747.903,209.582,747.436,209.817,747.436,210.226"/>
<path class="st13" d="M-234.567,225.506v-1.481c0-0.397-0.187-0.771-0.505-1.009l-6.367-4.762c-0.258-0.194-0.258-0.583,0-0.776
	l6.367-4.762c0.318-0.238,0.505-0.612,0.505-1.01v-1.48c0-0.41-0.467-0.644-0.795-0.399l-10.111,7.563
	c-0.318,0.237-0.318,0.714,0,0.952l10.11,7.562C-235.034,226.15-234.567,225.915-234.567,225.506"/>
<rect x="-250.42" y="207.366" class="st9" width="1014" height="21"/>
<rect x="805.352" y="-37.179" class="st11" width="21" height="702.123"/>
<path class="st3" d="M805.352,376.782c0,2.209,1.791,4,4,4h12.382c2.209,0,4-1.791,4-4v-78.286c0-2.209-1.791-4-4-4h-12.382
	c-2.209,0-4,1.791-4,4V376.782z"/>
<rect x="805.602" y="-36.931" class="st12" width="20.5" height="701.624"/>
<path class="st13" d="M808.212-23.644h1.481c0.397,0,0.771-0.19,1.009-0.512l4.762-6.453c0.194-0.262,0.583-0.262,0.776,0
	l4.762,6.453c0.238,0.322,0.612,0.512,1.01,0.512h1.48c0.41,0,0.644-0.474,0.399-0.806l-7.563-10.248
	c-0.237-0.322-0.714-0.322-0.952,0l-7.562,10.248C807.568-24.118,807.803-23.644,808.212-23.644"/>
<path class="st13" d="M823.492,650.607h-1.481c-0.397,0-0.771,0.19-1.009,0.512l-4.762,6.453c-0.194,0.262-0.583,0.262-0.776,0
	l-4.762-6.453c-0.238-0.322-0.612-0.512-1.01-0.512h-1.48c-0.41,0-0.644,0.474-0.399,0.806l7.563,10.248
	c0.237,0.322,0.714,0.322,0.952,0l7.562-10.248C824.136,651.081,823.901,650.607,823.492,650.607"/>
<rect x="805.352" y="-37.181" class="st9" width="21" height="702.124"/>
<line class="st7" x1="84.377" y1="74.946" x2="71.36" y2="74.946"/>
<line class="st7" x1="84.377" y1="80.034" x2="71.36" y2="80.034"/>
<line class="st7" x1="84.377" y1="85.122" x2="71.36" y2="85.122"/>
<text transform="matrix(1 0 0 1 66.7888 74.8151)" class="st4" style="font-family:'Montserrat-Bold'; font-size:3px;">1</text>
<text transform="matrix(1 0 0 1 66.7888 79.8307)" class="st4" style="font-family:'Montserrat-Bold'; font-size:3px;">2</text>
<text transform="matrix(1 0 0 1 66.7888 84.8464)" class="st4" style="font-family:'Montserrat-Bold'; font-size:3px;">3</text>
<polygon class="st6" points="62.333,67.356 62.333,93.356 62.333,93.606 62.583,93.606 88.583,93.606 88.833,93.606 88.833,93.356 
	88.833,67.356 88.833,67.106 88.583,67.106 62.583,67.106 62.333,67.106 "/>
<polygon class="st6" points="30.842,67.356 30.842,93.356 30.842,93.606 31.092,93.606 57.092,93.606 57.342,93.606 57.342,93.356 
	57.342,67.356 57.342,67.106 57.092,67.106 31.092,67.106 30.842,67.106 "/>
<polygon class="st6" points="0.5,67.356 0.5,93.356 0.5,93.606 0.75,93.606 26.75,93.606 27,93.606 27,93.356 27,67.356 27,67.106 
	26.75,67.106 0.75,67.106 0.5,67.106 "/>
<path class="st7" d="M52.374,85.481H39.358 M52.374,80.348H39.358 M52.374,75.216H39.358"/>
<path class="st4" d="M37.271,80.933c0.161-0.156,0.241-0.349,0.241-0.581c0-0.15-0.037-0.288-0.11-0.414
	c-0.073-0.125-0.172-0.224-0.297-0.297c-0.126-0.073-0.264-0.11-0.415-0.11c-0.15,0-0.288,0.037-0.41,0.11
	c-0.122,0.073-0.221,0.172-0.294,0.297c-0.072,0.126-0.11,0.264-0.11,0.414c0,0.232,0.08,0.425,0.238,0.581
	c0.157,0.156,0.35,0.234,0.576,0.234C36.917,81.167,37.11,81.089,37.271,80.933"/>
<path class="st4" d="M36.694,76.299c0.489,0,0.885-0.396,0.885-0.885c0-0.488-0.396-0.885-0.885-0.885
	c-0.488,0-0.885,0.397-0.885,0.885C35.809,75.903,36.206,76.299,36.694,76.299"/>
<path class="st4" d="M37.271,85.95c0.161-0.156,0.241-0.349,0.241-0.581c0-0.15-0.037-0.288-0.11-0.414
	c-0.073-0.125-0.172-0.224-0.297-0.297c-0.126-0.073-0.264-0.11-0.415-0.11c-0.15,0-0.288,0.037-0.41,0.11
	c-0.122,0.073-0.221,0.172-0.294,0.297c-0.072,0.126-0.11,0.264-0.11,0.414c0,0.232,0.08,0.425,0.238,0.581
	c0.157,0.156,0.35,0.234,0.576,0.234C36.917,86.184,37.11,86.106,37.271,85.95"/>
<path class="st7" d="M22.032,85.488H9.016 M22.032,80.355H9.016 M22.032,75.223H9.016"/>
<rect x="5.468" y="74.454" class="st4" width="1.77" height="1.77"/>
<rect x="5.468" y="79.47" class="st4" width="1.77" height="1.77"/>
<rect x="5.468" y="84.488" class="st4" width="1.77" height="1.77"/>
<rect x="343.99" y="-0.433" class="st2" width="245" height="57.75"/>
<text transform="matrix(1 0 0 1 418.6873 25.7623)"><tspan x="0" y="0" class="st4" style="font-family:'Montserrat-Regular'; font-size:13px;">N</tspan><tspan x="10.478" y="0" class="st4" style="font-family:'Montserrat-Regular'; font-size:13px;">e</tspan><tspan x="18.135" y="0" class="st4" style="font-family:'Montserrat-Regular'; font-size:13px;">u</tspan><tspan x="26.753" y="0" class="st4" style="font-family:'Montserrat-Regular'; font-size:13px;">e </tspan><tspan x="38.011" y="0" class="st4" style="font-family:'Montserrat-Regular'; font-size:13px; letter-spacing:-1;">T</tspan><tspan x="44.381" y="0" class="st4" style="font-family:'Montserrat-Regular'; font-size:13px;">e</tspan><tspan x="51.882" y="0" class="st4" style="font-family:'Montserrat-Regular'; font-size:13px;">x</tspan><tspan x="59.097" y="0" class="st4" style="font-family:'Montserrat-Regular'; font-size:13px;">t</tspan><tspan x="64.128" y="0" class="st4" style="font-family:'Montserrat-Regular'; font-size:13px;">b</tspan><tspan x="72.942" y="0" class="st4" style="font-family:'Montserrat-Regular'; font-size:13px;">o</tspan><tspan x="80.742" y="0" class="st4" style="font-family:'Montserrat-Regular'; font-size:13px;">x </tspan></text>
<path class="st14" d="M466.49,47.525c3.707,0,6.713-3.005,6.713-6.712c0-3.708-3.006-6.713-6.713-6.713
	c-3.707,0-6.712,3.005-6.712,6.713C459.778,44.52,462.783,47.525,466.49,47.525z"/>
<rect x="343.99" y="-0.433" class="st9" width="245" height="57.75"/>
<line class="st15" x1="466.49" y1="37.279" x2="466.49" y2="44.348"/>
<line class="st15" x1="462.955" y1="40.844" x2="470.023" y2="40.844"/>
<path class="st14" d="M355.528,87.361c3.707,0,6.713-3.005,6.713-6.712c0-3.708-3.006-6.713-6.713-6.713
	c-3.707,0-6.712,3.005-6.712,6.713C348.816,84.356,351.821,87.361,355.528,87.361z"/>
<line class="st15" x1="355.528" y1="77.114" x2="355.528" y2="84.183"/>
<line class="st15" x1="351.994" y1="80.68" x2="359.062" y2="80.68"/>
<g>
	<path class="st16" d="M-140.364,102.496h-3.138v-1.85h8.544v1.85h-3.138v7.956h-2.269V102.496z"/>
	<path class="st16" d="M-133.743,100.646h2.269v9.806h-2.269V100.646z"/>
	<path class="st16" d="M-120.649,104.205c0,2.185-1.639,3.544-4.258,3.544h-1.975v2.703h-2.269v-9.806h4.244
		C-122.288,100.646-120.649,102.006-120.649,104.205z M-122.946,104.205c0-1.079-0.701-1.709-2.087-1.709h-1.849v3.403h1.849
		C-123.647,105.899-122.946,105.27-122.946,104.205z"/>
	<path class="st16" d="M-110.527,104.205c0,2.185-1.639,3.544-4.258,3.544h-1.975v2.703h-2.269v-9.806h4.244
		C-112.166,100.646-110.527,102.006-110.527,104.205z M-112.824,104.205c0-1.079-0.701-1.709-2.087-1.709h-1.849v3.403h1.849
		C-113.525,105.899-112.824,105.27-112.824,104.205z"/>
</g>
<path class="st16" d="M-176.992,96.175L-176.992,96.175c-1.054,2.474-1.96,4.602-2.889,6.784h5.729
	C-175.096,100.703-175.978,98.595-176.992,96.175 M-173.499,113.765L-173.499,113.765c-0.346-1.15-0.211-1.759,1.044-1.8
	c0.976-0.033,1.343-0.74,1.02-1.64c-0.507-1.414-1.072-2.81-1.681-4.183c-0.109-0.245-0.55-0.478-0.843-0.484
	c-2.129-0.041-4.261-0.046-6.39,0.005c-0.305,0.008-0.741,0.315-0.877,0.599c-0.558,1.155-1.057,2.342-1.512,3.542
	c-0.57,1.504-0.268,2.026,1.348,2.192c0.783,0.081,1.206,0.319,1.022,1.126c-0.056,0.243-0.355,0.61-0.547,0.613
	c-2.524,0.042-5.049,0.028-7.596,0.028c-0.214-0.956-0.321-1.631,0.868-1.885c0.569-0.122,1.219-0.609,1.515-1.117
	c0.755-1.293,1.377-2.67,1.972-4.049c2.401-5.559,4.761-11.135,7.172-16.689c0.173-0.398,0.634-0.67,0.96-1
	c0.319,0.343,0.766,0.632,0.937,1.037c2.56,6.048,5.079,12.114,7.622,18.17c0.326,0.776,0.705,1.534,1.106,2.275
	c0.507,0.939,1.332,1.389,2.379,1.595c0.265,0.052,0.519,0.638,0.586,1.013c0.032,0.175-0.39,0.621-0.611,0.624
	C-167.157,113.778-170.31,113.765-173.499,113.765"/>
<path class="st4" d="M-79.754,106.227c2.682-0.014,4.762-2.036,4.751-4.621c-0.01-2.367-2.203-4.406-4.733-4.399
	c-2.703,0.008-4.848,2.038-4.825,4.568C-84.538,104.239-82.378,106.24-79.754,106.227 M-74.199,106.24L-74.199,106.24
	c0.393-0.231,0.569-0.207,0.91,0.115c1.249,1.181,2.501,2.361,3.751,3.541c0.086,0.08,0.173,0.159,0.252,0.246
	c0.216,0.237,0.217,0.464-0.012,0.692c-0.249,0.248-0.509,0.488-0.767,0.727c-0.302,0.28-0.548,0.287-0.855,0
	c-1.177-1.103-2.348-2.211-3.522-3.318c-0.132-0.124-0.263-0.25-0.396-0.373c-0.368-0.34-0.394-0.487-0.153-0.896
	c-0.368-0.336-0.737-0.673-1.128-1.029c-1.472,1.07-3.153,1.471-5.011,1.06c-1.415-0.313-2.544-1.054-3.377-2.178
	c-1.65-2.23-1.286-5.335,0.823-7.11c2.222-1.87,5.521-1.904,7.68-0.117c2.217,1.835,2.765,5.106,0.696,7.583
	C-74.938,105.536-74.569,105.887-74.199,106.24"/>
<path class="st17" d="M-79.754,106.227c2.682-0.014,4.762-2.036,4.751-4.621c-0.01-2.367-2.203-4.406-4.733-4.399
	c-2.703,0.008-4.848,2.038-4.825,4.568C-84.538,104.239-82.378,106.24-79.754,106.227z M-74.199,106.24L-74.199,106.24
	c0.393-0.231,0.569-0.207,0.91,0.115c1.249,1.181,2.501,2.361,3.751,3.541c0.086,0.08,0.173,0.159,0.252,0.246
	c0.216,0.237,0.217,0.464-0.012,0.692c-0.249,0.248-0.509,0.488-0.767,0.727c-0.302,0.28-0.548,0.287-0.855,0
	c-1.177-1.103-2.348-2.211-3.522-3.318c-0.132-0.124-0.263-0.25-0.396-0.373c-0.368-0.34-0.394-0.487-0.153-0.896
	c-0.368-0.336-0.737-0.673-1.128-1.029c-1.472,1.07-3.153,1.471-5.011,1.06c-1.415-0.313-2.544-1.054-3.377-2.178
	c-1.65-2.23-1.286-5.335,0.823-7.11c2.222-1.87,5.521-1.904,7.68-0.117c2.217,1.835,2.765,5.106,0.696,7.583
	C-74.938,105.536-74.569,105.887-74.199,106.24z"/>
<path class="st4" d="M-16.039,96.647l2.966,2.98v-2.758c0-0.096-0.055-0.229-0.123-0.297l-3.807-3.826
	c-0.068-0.067-0.178-0.067-0.245,0l-3.93,3.949v2.758c0,0.096,0.055,0.119,0.122,0.051l2.844-2.857
	c0.068-0.068,0.122-0.046,0.122,0.05v7.829h0v2.168c0,0.096-0.055,0.118-0.123,0.05l-2.966-2.98v2.758
	c0,0.096,0.055,0.229,0.123,0.297l3.807,3.826c0.068,0.067,0.178,0.067,0.245,0l3.93-3.949v-2.758c0-0.096-0.055-0.119-0.122-0.051
	l-2.844,2.857c-0.068,0.068-0.122,0.046-0.122-0.05v-7.829h0v-2.168C-16.162,96.601-16.107,96.579-16.039,96.647z"/>
<line class="st18" x1="-52.178" y1="109.883" x2="-24.345" y2="109.883"/>
<line class="st18" x1="-52.178" y1="101.587" x2="-24.345" y2="101.587"/>
<line class="st18" x1="-52.178" y1="93.595" x2="-24.345" y2="93.595"/>
<line class="st18" x1="-37.836" y1="128.854" x2="-37.836" y2="149.854"/>
<path class="st4" d="M-30.376,142.697L-30.376,142.697h2.695l-2.603-2.569c-0.138-0.135-0.093-0.245,0.101-0.245h7.006v-1.407
	c0-0.193-0.157-0.35-0.35-0.35h-6.656c-0.194,0-0.239-0.11-0.101-0.246l2.603-2.569h-2.345c-0.193,0-0.462,0.111-0.599,0.246
	l-3.245,3.201c-0.137,0.136-0.137,0.356,0,0.492L-30.376,142.697z"/>
<path class="st4" d="M-46.147,135.486L-46.147,135.486h-2.695l2.603,2.569c0.138,0.135,0.093,0.245-0.101,0.245h-7.006v1.407
	c0,0.193,0.157,0.35,0.35,0.35h6.656c0.194,0,0.239,0.11,0.101,0.246l-2.603,2.569h2.345c0.193,0,0.462-0.111,0.599-0.246
	l3.245-3.201c0.137-0.136,0.137-0.356,0-0.492L-46.147,135.486z"/>
<line class="st19" x1="278.45" y1="9.741" x2="242.427" y2="9.741"/>
<path class="st20" d="M269.947,12.887c2.045,0,3.703-1.658,3.703-3.703s-1.658-3.703-3.703-3.703s-3.703,1.658-3.703,3.703
	S267.902,12.887,269.947,12.887"/>
<g>
	<path class="st4" d="M293.146,9.942c0,3.12-1.82,4.836-4.459,4.836c-0.91,0-1.781-0.195-2.392-0.585l0.624-1.274
		c0.494,0.325,1.092,0.442,1.729,0.442c1.716,0,2.795-1.066,2.795-3.133v-0.014c-0.546,0.638-1.417,0.949-2.431,0.949
		c-1.794,0-3.133-1.092-3.133-2.795c0-1.807,1.469-2.951,3.328-2.951C291.69,5.418,293.146,7.018,293.146,9.942z M291.183,8.278
		c0-0.858-0.676-1.534-1.885-1.534c-1.053,0-1.781,0.598-1.781,1.547s0.715,1.547,1.82,1.547
		C290.429,9.838,291.183,9.175,291.183,8.278z"/>
	<path class="st4" d="M301.011,11.854c0,1.599-1.157,2.925-3.602,2.925c-1.287,0-2.587-0.39-3.419-1.053l0.715-1.313
		c0.663,0.546,1.651,0.897,2.678,0.897c1.209,0,1.924-0.533,1.924-1.392c0-0.871-0.559-1.417-2.444-1.417h-2.197l0.468-4.953h5.343
		v1.417h-3.913l-0.195,2.106h0.871C299.932,9.071,301.011,10.241,301.011,11.854z"/>
	<path class="st4" d="M305.43,7.953c0-1.495,0.871-2.496,2.171-2.496s2.184,0.988,2.184,2.496s-0.884,2.496-2.184,2.496
		S305.43,9.448,305.43,7.953z M308.719,7.953c0-1.014-0.416-1.586-1.118-1.586c-0.676,0-1.118,0.585-1.118,1.586
		s0.442,1.586,1.118,1.586C308.303,9.539,308.719,8.967,308.719,7.953z M313.062,5.548h1.274l-6.214,9.101h-1.274L313.062,5.548z
		 M311.398,12.243c0-1.495,0.871-2.496,2.171-2.496c1.3,0,2.184,1.001,2.184,2.496s-0.884,2.496-2.184,2.496
		C312.268,14.739,311.398,13.738,311.398,12.243z M314.687,12.243c0-1.001-0.429-1.586-1.118-1.586s-1.118,0.572-1.118,1.586
		c0,1.015,0.429,1.586,1.118,1.586S314.687,13.244,314.687,12.243z"/>
</g>
<rect x="256.387" y="63.885" class="st11" width="13.149" height="16.764"/>
<polygon class="st21" points="256.386,80.648 256.386,80.648 269.535,80.648 269.535,63.884 256.386,63.884 "/>
<rect x="248.715" y="63.414" class="st9" width="21.291" height="24"/>
<line class="st22" x1="253.212" y1="71.58" x2="253.212" y2="81.967"/>
<line class="st23" x1="255.844" y1="83.855" x2="265.493" y2="83.855"/>
<path class="st21" d="M266.369,83.856h0.877 M253.212,82.912v0.944h0.877 M253.212,68.747v0.944"/>
<polyline class="st21" points="249.185,71.835 249.185,86.943 263.219,86.943 "/>
<rect x="248.715" y="63.414" class="st9" width="21.291" height="24"/>
<rect x="287.961" y="63.816" class="st11" width="14.674" height="18.705"/>
<polygon class="st24" points="287.961,82.52 287.961,82.52 302.634,82.52 302.634,63.815 287.961,63.815 "/>
<rect x="287.559" y="63.414" class="st9" width="19.884" height="24"/>
<rect x="292.368" y="68.307" class="st4" width="14.674" height="18.705"/>
<polygon class="st25" points="292.367,87.012 292.367,87.012 307.04,87.012 307.04,68.307 292.367,68.307 "/>
<rect x="287.559" y="63.414" class="st9" width="19.884" height="24"/>
<rect x="189.068" y="67.362" class="st10" width="34.924" height="19.551"/>
<text transform="matrix(1 0 0 1 196.0683 82.0138)"><tspan x="0" y="0" class="st11" style="font-family:'Montserrat-Regular'; font-size:13px;">e</tspan><tspan x="7.41" y="0" class="st11" style="font-family:'Montserrat-Regular'; font-size:13px;">i</tspan><tspan x="10.335" y="0" class="st11" style="font-family:'Montserrat-Regular'; font-size:13px;">n</tspan></text>
<polygon class="st6" points="154.06,67.237 154.06,87.237 154.06,87.487 154.31,87.487 223.159,87.487 223.409,87.487 
	223.409,87.237 223.409,67.237 223.409,66.987 223.159,66.987 154.31,66.987 154.06,66.987 "/>
<rect x="153.81" y="66.737" class="st9" width="70.183" height="21"/>
<line class="st26" x1="295.124" y1="156.877" x2="295.124" y2="181.137"/>
<path class="st4" d="M303.221,172.695L303.221,172.695h2.592l-2.494-2.46c-0.138-0.135-0.093-0.245,0.101-0.245h6.725v-1.339
	c0-0.193-0.157-0.35-0.35-0.35h-6.725l2.743-2.705h-2.242c-0.193,0-0.462,0.11-0.599,0.245l-3.102,3.059
	c-0.137,0.135-0.137,0.355,0,0.491L303.221,172.695z"/>
<line class="st26" x1="268.179" y1="180.97" x2="268.179" y2="156.71"/>
<path class="st4" d="M260.082,165.151L260.082,165.151h-2.592l2.494,2.46c0.138,0.135,0.093,0.245-0.101,0.245h-6.725v1.339
	c0,0.193,0.157,0.35,0.35,0.35h6.725l-2.743,2.705h2.242c0.193,0,0.462-0.11,0.599-0.245l3.102-3.059
	c0.137-0.135,0.137-0.355,0-0.491L260.082,165.151z"/>
<line class="st26" x1="78.437" y1="164.748" x2="102.697" y2="164.748"/>
<path class="st4" d="M94.088,156.69L94.088,156.69v-2.592l-2.46,2.494c-0.135,0.138-0.245,0.093-0.245-0.101v-6.725h-1.339
	c-0.193,0-0.35,0.157-0.35,0.35v6.725l-2.705-2.743v2.242c0,0.193,0.11,0.462,0.245,0.599l3.059,3.102
	c0.135,0.137,0.355,0.137,0.491,0L94.088,156.69z"/>
<path class="st4" d="M87.156,171.842L87.156,171.842v2.592l2.46-2.494c0.135-0.138,0.245-0.093,0.245,0.101v6.725H91.2
	c0.193,0,0.35-0.157,0.35-0.35v-6.725l2.705,2.743v-2.242c0-0.193-0.11-0.462-0.245-0.599l-3.059-3.102
	c-0.135-0.137-0.355-0.137-0.491,0L87.156,171.842z"/>
<line class="st26" x1="134.883" y1="177.559" x2="134.883" y2="153.299"/>
<path class="st4" d="M126.825,161.908L126.825,161.908h-2.592l2.494,2.46c0.138,0.135,0.093,0.245-0.101,0.245h-6.725v1.339
	c0,0.193,0.157,0.35,0.35,0.35h6.725l-2.743,2.705h2.242c0.193,0,0.462-0.11,0.599-0.245l3.102-3.059
	c0.137-0.135,0.137-0.355,0-0.491L126.825,161.908z"/>
<path class="st4" d="M141.977,168.84L141.977,168.84h2.592l-2.494-2.46c-0.138-0.135-0.093-0.245,0.101-0.245h6.725v-1.339
	c0-0.193-0.157-0.35-0.35-0.35h-6.725l2.743-2.705h-2.242c-0.193,0-0.462,0.11-0.599,0.245l-3.102,3.059
	c-0.137,0.135-0.137,0.355,0,0.491L141.977,168.84z"/>
<line class="st26" x1="167.024" y1="165.031" x2="191.284" y2="165.031"/>
<path class="st4" d="M175.744,172.126L175.744,172.126v2.592l2.46-2.494c0.135-0.138,0.245-0.093,0.245,0.101v6.725h1.339
	c0.193,0,0.35-0.157,0.35-0.35v-6.725l2.705,2.743v-2.242c0-0.193-0.11-0.462-0.245-0.599l-3.059-3.102
	c-0.135-0.137-0.355-0.137-0.491,0L175.744,172.126z"/>
<line class="st26" x1="212.136" y1="176.286" x2="236.396" y2="176.286"/>
<path class="st4" d="M227.954,167.898L227.954,167.898v-2.592l-2.46,2.494c-0.135,0.138-0.245,0.093-0.245-0.101v-6.725h-1.339
	c-0.193,0-0.35,0.157-0.35,0.35v6.725l-2.705-2.743v2.242c0,0.193,0.11,0.462,0.245,0.599l3.059,3.102
	c0.135,0.137,0.355,0.137,0.491,0L227.954,167.898z"/>
<rect x="357.999" y="149.36" class="st11" width="15.769" height="20.056"/>
<line class="st27" x1="360.956" y1="169.417" x2="371.797" y2="169.417"/>
<line class="st28" x1="373.768" y1="166.408" x2="373.768" y2="151.366"/>
<line class="st27" x1="370.812" y1="149.361" x2="359.971" y2="149.361"/>
<line class="st28" x1="357.999" y1="152.369" x2="357.999" y2="167.411"/>
<path class="st21" d="M357.999,168.414v1.003h0.986 M358.985,149.361h-0.986v1.003 M373.768,150.364v-1.003h-0.985 M372.783,169.417
	h0.985v-1.003"/>
<polygon class="st11" points="346.763,179.417 346.763,179.417 362.532,179.417 362.532,159.361 346.763,159.361 "/>
<line class="st27" x1="349.72" y1="179.417" x2="360.561" y2="179.417"/>
<line class="st28" x1="362.532" y1="176.408" x2="362.532" y2="161.366"/>
<line class="st27" x1="359.576" y1="159.361" x2="348.735" y2="159.361"/>
<line class="st28" x1="346.763" y1="162.369" x2="346.763" y2="177.411"/>
<path class="st21" d="M346.763,178.414v1.003h0.986 M347.749,159.361h-0.986v1.003 M362.532,160.364v-1.003h-0.985 M361.547,179.417
	h0.985v-1.003"/>
<polygon class="st11" points="337.289,187.417 337.289,187.417 353.058,187.417 353.058,167.361 337.289,167.361 "/>
<polygon class="st21" points="337.289,187.417 337.289,187.417 353.058,187.417 353.058,167.361 337.289,167.361 "/>
<g>
	<polygon class="st11" points="411.126,173.722 411.126,173.722 426.895,173.722 426.895,153.666 411.126,153.666 	"/>
	<polygon class="st21" points="411.126,173.722 411.126,173.722 426.895,173.722 426.895,153.666 411.126,153.666 	"/>
	<line class="st29" x1="407.362" y1="162.221" x2="407.362" y2="175.725"/>
	<line class="st30" x1="410.499" y1="177.526" x2="422.002" y2="177.526"/>
	<path class="st21" d="M423.047,177.525h1.046 M407.362,176.625v0.9h1.046 M407.362,159.52v0.9"/>
</g>
<g>
	<g>
		<rect x="483.666" y="141.946" class="st11" width="15.769" height="20.056"/>
		<polygon class="st21" points="483.666,162.002 483.666,162.002 499.435,162.002 499.435,141.946 483.666,141.946 		"/>
		<polygon class="st11" points="472.429,172.002 472.429,172.002 488.198,172.002 488.198,151.946 472.429,151.946 		"/>
		<line class="st27" x1="475.386" y1="172.002" x2="486.227" y2="172.002"/>
		<line class="st28" x1="488.198" y1="168.993" x2="488.198" y2="153.951"/>
		<line class="st27" x1="485.242" y1="151.946" x2="474.401" y2="151.946"/>
		<line class="st28" x1="472.429" y1="154.954" x2="472.429" y2="169.996"/>
		<path class="st21" d="M472.429,170.999v1.003h0.986 M473.415,151.946h-0.986v1.003 M488.198,152.949v-1.003h-0.985
			 M487.213,172.002h0.985v-1.003"/>
		<polygon class="st11" points="462.956,180.002 462.956,180.002 478.725,180.002 478.725,159.946 462.956,159.946 		"/>
		<line class="st27" x1="465.913" y1="180.002" x2="476.754" y2="180.002"/>
		<line class="st28" x1="478.725" y1="176.993" x2="478.725" y2="161.951"/>
		<line class="st27" x1="475.768" y1="159.946" x2="464.927" y2="159.946"/>
		<line class="st28" x1="462.956" y1="162.954" x2="462.956" y2="177.996"/>
		<path class="st21" d="M462.955,178.999v1.003h0.986 M463.941,159.946h-0.986v1.003 M478.724,160.949v-1.003h-0.985
			 M477.739,180.002h0.985v-1.003"/>
	</g>
	<line class="st27" x1="539.079" y1="175.487" x2="549.92" y2="175.487"/>
	<line class="st28" x1="551.891" y1="172.479" x2="551.891" y2="157.437"/>
	<line class="st27" x1="548.935" y1="155.431" x2="538.094" y2="155.431"/>
	<line class="st28" x1="536.122" y1="158.439" x2="536.122" y2="173.481"/>
	<path class="st21" d="M536.122,174.484v1.003h0.986 M537.108,155.431h-0.986v1.003 M551.891,156.434v-1.003h-0.985
		 M550.906,175.487h0.985v-1.003"/>
	<polyline class="st21" points="532.358,161.285 532.358,179.29 549.089,179.29 	"/>
</g>
<g>
	<defs>
		<rect id="SVGID_1_" x="-222.916" y="269.323" width="241.682" height="1"/>
	</defs>
	<clipPath id="SVGID_00000045577334799046848110000007882266535051414695_">
		<use xlink:href="#SVGID_1_"  style="overflow:visible;"/>
	</clipPath>
	
		<line style="clip-path:url(#SVGID_00000045577334799046848110000007882266535051414695_);fill:none;stroke:#B2B2B2;stroke-linecap:round;stroke-linejoin:round;stroke-dasharray:0,3.009;" x1="-219.408" y1="269.823" x2="16.762" y2="269.823"/>
	
		<path style="clip-path:url(#SVGID_00000045577334799046848110000007882266535051414695_);fill:none;stroke:#B2B2B2;stroke-linecap:round;stroke-linejoin:round;" d="
		M18.266,269.823L18.266,269.823 M-222.416,269.823L-222.416,269.823"/>
</g>
<circle class="st33" cx="-176.018" cy="48.612" r="12.75"/>
<polygon class="st3" points="-32.626,33.589 -45.626,33.589 -39.258,44.064 "/>
<polygon class="st4" points="-24.602,162.13 -35.077,168.498 -24.602,175.13 "/>
<polygon class="st4" points="-53.649,175.13 -43.174,168.762 -53.649,162.13 "/>
<polygon class="st4" points="28.904,162.13 18.429,168.498 28.904,175.13 "/>
<polygon class="st4" points="-6.273,175.13 4.202,168.762 -6.273,162.13 "/>
<rect x="153.977" y="33.6" class="st10" width="34.924" height="19.551"/>
<polygon class="st6" points="154.227,33.475 154.227,53.475 154.227,53.725 154.477,53.725 223.326,53.725 223.576,53.725 
	223.576,53.475 223.576,33.475 223.576,33.225 223.326,33.225 154.477,33.225 154.227,33.225 "/>
<rect x="153.977" y="32.975" class="st9" width="69.849" height="21"/>
<rect x="189.341" y="99.628" class="st10" width="34.924" height="19.551"/>
<polygon class="st6" points="154.333,99.503 154.333,119.503 154.333,119.753 154.583,119.753 223.432,119.753 223.682,119.753 
	223.682,119.503 223.682,99.503 223.682,99.253 223.432,99.253 154.583,99.253 154.333,99.253 "/>
<rect x="154.083" y="99.003" class="st9" width="70.183" height="21"/>
<line class="st19" x1="277.372" y1="29.529" x2="241.349" y2="29.529"/>
<path class="st20" d="M268.869,32.675c2.045,0,3.703-1.658,3.703-3.703s-1.658-3.703-3.703-3.703s-3.703,1.658-3.703,3.703
	S266.824,32.675,268.869,32.675"/>
</svg>
