<?xml version="1.0" encoding="utf-8"?>
<!-- Generator: Adobe Illustrator 26.0.3, SVG Export Plug-In . SVG Version: 6.00 Build 0)  -->
<svg version="1.1" id="Ebene_1" xmlns="http://www.w3.org/2000/svg" xmlns:xlink="http://www.w3.org/1999/xlink" x="0px" y="0px"
	 width="245px" height="57.75px" viewBox="0 0 245 57.75" style="enable-background:new 0 0 245 57.75;" xml:space="preserve">
<style type="text/css">
	.st0{fill:none;stroke:#C5C5C5;stroke-width:3;stroke-linecap:round;stroke-linejoin:round;}
	.st1{fill:#FFAEFF;stroke:#4F4D4D;stroke-width:0.5;}
	.st2{fill:#F8F8F8;}
	.st3{fill:#0E689A;}
	.st4{fill:none;stroke:#B2B1B1;stroke-width:0.65;stroke-miterlimit:10;}
	.st5{fill:#B2B1B1;}
	.st6{fill:none;stroke:#B2B2B2;stroke-width:0.5;stroke-miterlimit:10;}
	.st7{fill:none;stroke:#B2B1B1;stroke-width:0.3;stroke-miterlimit:10;}
	.st8{fill:none;stroke:#FFFFFF;stroke-width:0.021;}
	.st9{fill:none;}
	.st10{fill:#0E6899;}
	.st11{fill:#FFFFFF;}
	.st12{fill:none;stroke:#C5C5C5;stroke-width:0.5;stroke-linecap:round;stroke-linejoin:round;}
	.st13{fill:#C5C5C5;}
	.st14{fill:none;stroke:#B2B1B1;stroke-width:0.5;}
	.st15{fill:none;stroke:#B2B1B1;stroke-width:1.2;}
	.st16{fill:#B2B2B2;}
	.st17{fill:none;stroke:#FFFFFF;stroke-width:0.001;}
	.st18{fill:none;stroke:#B2B1B1;stroke-width:1.712;}
	.st19{fill:none;stroke:#B2B1B1;stroke-width:2;}
	.st20{fill:#AD5E7A;}
	.st21{fill:none;stroke:#B2B1B1;stroke-width:0.941;}
	.st22{fill:none;stroke:#B2B1B1;stroke-width:0.941;stroke-dasharray:1.889,1.889;}
	.st23{fill:none;stroke:#B2B1B1;stroke-width:0.941;stroke-dasharray:1.754,1.754;}
	.st24{fill:none;stroke:#B2B1B1;stroke-width:0.804;}
	.st25{fill:none;stroke:#FFFFFF;stroke-width:0.804;}
	.st26{fill:none;stroke:#B2B1B1;stroke-width:2.5;}
	.st27{fill:none;stroke:#B2B1B1;stroke-width:0.941;stroke-dasharray:1.971,1.971;}
	.st28{fill:none;stroke:#B2B1B1;stroke-width:0.941;stroke-dasharray:2.006,2.006;}
	.st29{fill:none;stroke:#B2B1B1;stroke-width:0.941;stroke-dasharray:1.801,1.801;}
	.st30{fill:none;stroke:#B2B1B1;stroke-width:0.941;stroke-dasharray:2.091,2.091;}
	
		.st31{clip-path:url(#SVGID_00000146470160047545310890000007009705964977915818_);fill:none;stroke:#B2B2B2;stroke-linecap:round;stroke-linejoin:round;stroke-dasharray:0,3.009;}
	
		.st32{clip-path:url(#SVGID_00000146470160047545310890000007009705964977915818_);fill:none;stroke:#B2B2B2;stroke-linecap:round;stroke-linejoin:round;}
	.st33{fill:none;stroke:#4F4D4D;stroke-width:0.5;}
</style>
<polyline class="st0" points="1471.885,975.701 1465.635,966.701 1458.885,975.701 "/>
<circle class="st1" cx="-520.008" cy="12.952" r="12.75"/>
<rect x="-487.547" y="1.937" class="st2" width="119.902" height="21"/>
<polygon class="st3" points="-376.718,7.2 -389.718,7.2 -383.35,17.675 "/>
<g>
	<g>
		<line class="st4" x1="-263.706" y1="19.458" x2="-253.423" y2="19.458"/>
		<g>
			<path class="st5" d="M-262.419,14.232V9.057h1.3v5.122c0,2.016,0.923,2.926,2.561,2.926c1.638,0,2.574-0.91,2.574-2.926V9.057
				h1.261v5.175c0,2.639-1.443,4.029-3.848,4.029C-260.962,18.262-262.419,16.871-262.419,14.232z"/>
		</g>
	</g>
	<polygon class="st6" points="-271.814,1.258 -271.814,27.258 -271.814,27.508 -271.564,27.508 -245.564,27.508 -245.314,27.508 
		-245.314,27.258 -245.314,1.258 -245.314,1.008 -245.564,1.008 -271.564,1.008 -271.814,1.008 	"/>
</g>
<g>
	<g>
		<path class="st5" d="M-293.168,9.331h1.3l-1.82,9.101h-1.3L-293.168,9.331z"/>
	</g>
	<polygon class="st6" points="-306.678,0.881 -306.678,26.881 -306.678,27.131 -306.428,27.131 -280.428,27.131 -280.178,27.131 
		-280.178,26.881 -280.178,0.881 -280.178,0.631 -280.428,0.631 -306.428,0.631 -306.678,0.631 	"/>
</g>
<g>
	<g>
		<path class="st5" d="M-326.316,16c0,1.573-1.248,2.483-3.64,2.483h-4.706V9.383h4.446c2.275,0,3.445,0.949,3.445,2.366
			c0,0.91-0.468,1.612-1.209,2.002C-326.966,14.076-326.316,14.856-326.316,16z M-332.569,10.969v2.146h2.093
			c1.027,0,1.586-0.364,1.586-1.079s-0.559-1.066-1.586-1.066H-332.569z M-328.436,15.779c0-0.767-0.585-1.131-1.677-1.131h-2.457
			v2.249h2.457C-329.021,16.897-328.436,16.559-328.436,15.779z"/>
	</g>
	<polygon class="st6" points="-343.74,0.933 -343.74,26.933 -343.74,27.183 -343.49,27.183 -317.49,27.183 -317.24,27.183 
		-317.24,26.933 -317.24,0.933 -317.24,0.683 -317.49,0.683 -343.49,0.683 -343.74,0.683 	"/>
</g>
<path class="st7" d="M-289.552,42.887"/>
<path class="st7" d="M-292.06,44.141"/>
<path class="st7" d="M-292.06,45.395"/>
<path class="st7" d="M-292.06,46.649"/>
<path class="st7" d="M-289.552,47.903"/>
<path class="st7" d="M-289.552,49.157"/>
<path class="st7" d="M-292.06,50.411"/>
<path class="st7" d="M-292.06,52.918"/>
<path class="st7" d="M-289.552,55.426"/>
<g>
	<path class="st7" d="M-309.016,47.903"/>
	<path class="st7" d="M-309.016,42.887"/>
	<path class="st7" d="M-309.016,55.426"/>
	<path class="st7" d="M-309.016,49.157"/>
	<g>
		<path class="st7" d="M-306.954,50.411"/>
		<path class="st7" d="M-306.954,46.649"/>
		<path class="st7" d="M-306.954,45.395"/>
		<path class="st7" d="M-306.954,44.141"/>
		<line class="st7" x1="-309.392" y1="54.631" x2="-289.928" y2="54.631"/>
		<line class="st7" x1="-309.392" y1="53.356" x2="-294.498" y2="53.356"/>
		<line class="st7" x1="-309.392" y1="52.08" x2="-294.498" y2="52.08"/>
		<line class="st7" x1="-309.392" y1="50.804" x2="-294.498" y2="50.804"/>
		<line class="st7" x1="-309.392" y1="49.528" x2="-289.928" y2="49.528"/>
		<line class="st7" x1="-309.392" y1="48.252" x2="-289.928" y2="48.252"/>
		<line class="st7" x1="-309.318" y1="46.976" x2="-294.424" y2="46.976"/>
		<line class="st7" x1="-309.392" y1="45.7" x2="-289.928" y2="45.7"/>
		<line class="st7" x1="-309.392" y1="44.424" x2="-294.498" y2="44.424"/>
		<line class="st7" x1="-309.392" y1="43.148" x2="-294.498" y2="43.148"/>
		<line class="st7" x1="-309.392" y1="41.873" x2="-289.928" y2="41.873"/>
	</g>
	<polygon class="st6" points="-312.719,35.578 -312.719,61.571 -312.719,61.821 -312.469,61.821 -286.476,61.821 -286.226,61.821 
		-286.226,61.571 -286.226,35.578 -286.226,35.328 -286.476,35.328 -312.469,35.328 -312.719,35.328 	"/>
</g>
<g>
	<g>
		<line class="st7" x1="-258.671" y1="42.189" x2="-278.135" y2="42.189"/>
		<line class="st7" x1="-261.179" y1="43.466" x2="-276.073" y2="43.466"/>
		<line class="st7" x1="-261.179" y1="44.743" x2="-276.073" y2="44.743"/>
		<line class="st7" x1="-261.179" y1="46.02" x2="-276.073" y2="46.02"/>
		<line class="st7" x1="-258.671" y1="47.297" x2="-278.135" y2="47.297"/>
		<line class="st7" x1="-258.671" y1="48.574" x2="-278.135" y2="48.574"/>
		<line class="st7" x1="-261.179" y1="49.851" x2="-276.073" y2="49.851"/>
		<line class="st7" x1="-258.671" y1="51.128" x2="-278.135" y2="51.128"/>
		<line class="st7" x1="-261.179" y1="52.405" x2="-276.073" y2="52.405"/>
		<line class="st7" x1="-261.179" y1="53.682" x2="-276.073" y2="53.682"/>
		<line class="st7" x1="-258.671" y1="54.959" x2="-278.135" y2="54.959"/>
	</g>
	<polygon class="st6" points="-281.65,35.578 -281.65,61.571 -281.65,61.821 -281.4,61.821 -255.407,61.821 -255.157,61.821 
		-255.157,61.571 -255.157,35.578 -255.157,35.328 -255.407,35.328 -281.4,35.328 -281.65,35.328 	"/>
</g>
<polygon class="st6" points="-250.581,35.578 -250.581,61.571 -250.581,61.821 -250.331,61.821 -224.338,61.821 -224.088,61.821 
	-224.088,61.571 -224.088,35.578 -224.088,35.328 -224.338,35.328 -250.331,35.328 -250.581,35.328 "/>
<path class="st7" d="M-247.254,54.262"/>
<path class="st7" d="M-247.254,49.246"/>
<path class="st7" d="M-247.254,47.992"/>
<path class="st7" d="M-247.254,41.722"/>
<path class="st7" d="M-229.852,46.738"/>
<path class="st7" d="M-227.79,49.246"/>
<path class="st7" d="M-229.852,50.5"/>
<path class="st7" d="M-227.79,54.262"/>
<path class="st7" d="M-227.79,41.722"/>
<path class="st7" d="M-227.79,47.992"/>
<path class="st7" d="M-229.852,51.754"/>
<path class="st7" d="M-229.852,53.008"/>
<g>
	<path class="st7" d="M-244.935,52.685"/>
	<path class="st7" d="M-244.935,51.432"/>
	<path class="st7" d="M-244.935,50.177"/>
	<path class="st7" d="M-244.935,46.415"/>
	<path class="st7" d="M-244.935,43.908"/>
	<line class="st7" x1="-227.603" y1="42.195" x2="-247.067" y2="42.195"/>
	<line class="st7" x1="-227.603" y1="43.47" x2="-242.497" y2="43.47"/>
	<line class="st7" x1="-227.603" y1="44.746" x2="-242.497" y2="44.746"/>
	<line class="st7" x1="-227.603" y1="46.022" x2="-242.497" y2="46.022"/>
	<line class="st7" x1="-227.603" y1="47.298" x2="-247.067" y2="47.298"/>
	<line class="st7" x1="-227.603" y1="48.574" x2="-247.067" y2="48.574"/>
	<line class="st7" x1="-227.676" y1="49.85" x2="-242.57" y2="49.85"/>
	<line class="st7" x1="-227.603" y1="51.126" x2="-247.067" y2="51.126"/>
	<line class="st7" x1="-227.603" y1="52.402" x2="-242.497" y2="52.402"/>
	<line class="st7" x1="-227.603" y1="53.678" x2="-242.497" y2="53.678"/>
	<line class="st7" x1="-227.603" y1="54.953" x2="-247.067" y2="54.953"/>
</g>
<polygon class="st6" points="-343.49,35.584 -343.49,61.577 -343.49,61.827 -343.24,61.827 -317.247,61.827 -316.997,61.827 
	-316.997,61.577 -316.997,35.584 -316.997,35.334 -317.247,35.334 -343.24,35.334 -343.49,35.334 "/>
<path class="st7" d="M-320.323,42.887"/>
<path class="st7" d="M-320.323,47.903"/>
<path class="st7" d="M-320.323,49.157"/>
<path class="st7" d="M-320.323,55.426"/>
<path class="st7" d="M-337.725,50.411"/>
<path class="st7" d="M-339.787,47.903"/>
<path class="st7" d="M-337.725,46.649"/>
<path class="st7" d="M-339.787,42.887"/>
<path class="st7" d="M-339.787,55.426"/>
<path class="st7" d="M-339.787,49.157"/>
<path class="st7" d="M-337.725,45.395"/>
<path class="st7" d="M-337.725,44.141"/>
<g>
	<path class="st7" d="M-322.831,44.141"/>
	<path class="st7" d="M-322.831,45.395"/>
	<path class="st7" d="M-322.831,46.649"/>
	<path class="st7" d="M-322.831,50.411"/>
	<path class="st7" d="M-322.831,52.918"/>
	<line class="st7" x1="-340.163" y1="54.631" x2="-320.699" y2="54.631"/>
	<line class="st7" x1="-340.163" y1="53.356" x2="-320.699" y2="53.356"/>
	<line class="st7" x1="-340.163" y1="52.08" x2="-320.699" y2="52.08"/>
	<line class="st7" x1="-340.163" y1="50.804" x2="-320.699" y2="50.804"/>
	<line class="st7" x1="-340.163" y1="49.528" x2="-320.699" y2="49.528"/>
	<line class="st7" x1="-340.163" y1="48.252" x2="-320.699" y2="48.252"/>
	<line class="st7" x1="-340.09" y1="46.976" x2="-320.626" y2="46.976"/>
	<line class="st7" x1="-340.163" y1="45.7" x2="-320.699" y2="45.7"/>
	<line class="st7" x1="-340.163" y1="44.424" x2="-320.699" y2="44.424"/>
	<line class="st7" x1="-340.163" y1="43.148" x2="-320.699" y2="43.148"/>
	<line class="st7" x1="-340.163" y1="41.873" x2="-320.699" y2="41.873"/>
</g>
<path class="st5" d="M-513.046,150.733l-1.915,13.335c-0.058,0.402-0.431,0.682-0.834,0.624c-0.402-0.058-0.682-0.431-0.624-0.833
	l1.915-13.336c0.058-0.402,0.431-0.681,0.834-0.623C-513.268,149.958-512.988,150.33-513.046,150.733 M-519.863,164.808
	c-0.407,0.003-0.74-0.324-0.742-0.73l-0.106-13.472c-0.003-0.407,0.324-0.739,0.73-0.742c0.408-0.003,0.74,0.324,0.743,0.731
	l0.105,13.471C-519.13,164.473-519.457,164.805-519.863,164.808 M-523.934,164.755c-0.401,0.064-0.779-0.209-0.842-0.61
	l-2.124-13.304c-0.064-0.402,0.209-0.779,0.612-0.843c0.401-0.064,0.778,0.209,0.842,0.611l2.123,13.303
	C-523.259,164.314-523.532,164.691-523.934,164.755 M-510.151,148.347c-0.141-0.169-0.353-0.266-0.573-0.264l-18.538,0.144
	c-0.22,0.002-0.429,0.101-0.568,0.272c-0.14,0.17-0.196,0.393-0.155,0.609l3.092,16.141c0.068,0.351,0.376,0.605,0.734,0.602
	l12.497-0.098c0.356-0.002,0.66-0.258,0.724-0.608l2.949-16.188C-509.949,148.741-510.01,148.516-510.151,148.347"/>
<path class="st8" d="M-513.046,150.733l-1.915,13.335c-0.058,0.402-0.431,0.682-0.834,0.624c-0.402-0.058-0.682-0.431-0.624-0.833
	l1.915-13.336c0.058-0.402,0.431-0.681,0.834-0.623C-513.268,149.958-512.988,150.33-513.046,150.733z M-519.863,164.808
	c-0.407,0.003-0.74-0.324-0.742-0.73l-0.106-13.472c-0.003-0.407,0.324-0.739,0.73-0.742c0.408-0.003,0.74,0.324,0.743,0.731
	l0.105,13.471C-519.13,164.473-519.457,164.805-519.863,164.808z M-523.934,164.755c-0.401,0.064-0.779-0.209-0.842-0.61
	l-2.124-13.304c-0.064-0.402,0.209-0.779,0.612-0.843c0.401-0.064,0.778,0.209,0.842,0.611l2.123,13.303
	C-523.259,164.314-523.532,164.691-523.934,164.755z M-510.151,148.347c-0.141-0.169-0.353-0.266-0.573-0.264l-18.538,0.144
	c-0.22,0.002-0.429,0.101-0.568,0.272c-0.14,0.17-0.196,0.393-0.155,0.609l3.092,16.141c0.068,0.351,0.376,0.605,0.734,0.602
	l12.497-0.098c0.356-0.002,0.66-0.258,0.724-0.608l2.949-16.188C-509.949,148.741-510.01,148.516-510.151,148.347z"/>
<path class="st5" d="M-522.839,143.74L-522.839,143.74l-0.004-0.421l5.49-0.043l0.004,0.421L-522.839,143.74z M-509.102,145.15
	L-509.102,145.15l-2.025,0.016l-0.009-1.171c-0.001-0.091-0.038-0.18-0.103-0.244c-0.065-0.064-0.155-0.1-0.246-0.1l-4.467,0.035
	l-0.009-1.12c-0.002-0.184-0.077-0.363-0.209-0.492c-0.131-0.13-0.311-0.203-0.495-0.201l-6.887,0.054
	c-0.183,0.001-0.363,0.077-0.492,0.208c-0.129,0.131-0.202,0.312-0.2,0.496l0.009,1.12l-4.164,0.032
	c-0.091,0.001-0.18,0.039-0.243,0.104c-0.065,0.065-0.101,0.154-0.101,0.246l0.009,1.171l-2.197,0.017l0.017,2.225l21.829-0.17
	L-509.102,145.15z"/>
<path class="st8" d="M-522.839,143.74L-522.839,143.74l-0.004-0.421l5.49-0.043l0.004,0.421L-522.839,143.74z M-509.102,145.15
	L-509.102,145.15l-2.025,0.016l-0.009-1.171c-0.001-0.091-0.038-0.18-0.103-0.244c-0.065-0.064-0.155-0.1-0.246-0.1l-4.467,0.035
	l-0.009-1.12c-0.002-0.184-0.077-0.363-0.209-0.492c-0.131-0.13-0.311-0.203-0.495-0.201l-6.887,0.054
	c-0.183,0.001-0.363,0.077-0.492,0.208c-0.129,0.131-0.202,0.312-0.2,0.496l0.009,1.12l-4.164,0.032
	c-0.091,0.001-0.18,0.039-0.243,0.104c-0.065,0.065-0.101,0.154-0.101,0.246l0.009,1.171l-2.197,0.017l0.017,2.225l21.829-0.17
	L-509.102,145.15z"/>
<rect x="-530.942" y="141.862" class="st9" width="21.868" height="24"/>
<rect x="-190.013" y="1.094" class="st10" width="34.924" height="19.551"/>
<g>
	<path class="st11" d="M-177.035,11.507v4.238h-0.884v-1.066c-0.416,0.702-1.222,1.132-2.354,1.132
		c-1.547,0-2.496-0.807-2.496-1.989c0-1.054,0.676-1.938,2.639-1.938h2.171v-0.416c0-1.17-0.663-1.807-1.938-1.807
		c-0.884,0-1.716,0.312-2.275,0.806l-0.416-0.688c0.689-0.585,1.703-0.924,2.782-0.924C-178.036,8.854-177.035,9.739-177.035,11.507
		z M-177.958,13.691v-1.118h-2.146c-1.326,0-1.755,0.52-1.755,1.222c0,0.793,0.637,1.287,1.729,1.287
		C-179.09,15.082-178.322,14.588-177.958,13.691z"/>
	<path class="st11" d="M-168.936,8.907v6.838h-0.884v-1.248c-0.481,0.832-1.365,1.313-2.458,1.313c-1.742,0-2.886-0.976-2.886-2.938
		V8.907h0.923v3.874c0,1.456,0.754,2.197,2.054,2.197c1.43,0,2.327-0.924,2.327-2.483V8.907H-168.936z"/>
	<path class="st11" d="M-167.637,14.965l0.416-0.728c0.546,0.429,1.469,0.767,2.431,0.767c1.3,0,1.833-0.441,1.833-1.118
		c0-1.78-4.433-0.377-4.433-3.081c0-1.118,0.962-1.95,2.704-1.95c0.884,0,1.846,0.247,2.418,0.638l-0.403,0.74
		c-0.598-0.416-1.313-0.585-2.015-0.585c-1.235,0-1.781,0.481-1.781,1.132c0,1.846,4.434,0.455,4.434,3.081
		c0,1.183-1.04,1.95-2.821,1.95C-165.986,15.81-167.078,15.446-167.637,14.965z"/>
</g>
<polygon class="st6" points="-189.763,0.969 -189.763,20.969 -189.763,21.219 -189.513,21.219 -120.664,21.219 -120.414,21.219 
	-120.414,20.969 -120.414,0.969 -120.414,0.719 -120.664,0.719 -189.513,0.719 -189.763,0.719 "/>
<rect x="-190.013" y="0.469" class="st9" width="69.849" height="21"/>
<rect x="-594.41" y="207.799" class="st11" width="1014" height="21"/>
<path class="st3" d="M32.751,207.799c-2.209,0-4,1.791-4,4v12.382c0,2.209,1.791,4,4,4h77.131c2.209,0,4-1.791,4-4v-12.382
	c0-2.209-1.791-4-4-4H32.751z"/>
<rect x="-594.16" y="208.049" class="st12" width="1013.5" height="20.5"/>
<path class="st13" d="M403.446,210.659v1.481c0,0.397,0.187,0.771,0.505,1.009l6.367,4.762c0.258,0.194,0.258,0.583,0,0.776
	l-6.367,4.762c-0.318,0.238-0.505,0.612-0.505,1.01v1.48c0,0.41,0.467,0.644,0.795,0.399l10.111-7.563
	c0.318-0.237,0.318-0.714,0-0.952l-10.11-7.562C403.913,210.015,403.446,210.25,403.446,210.659"/>
<path class="st13" d="M-578.557,225.939v-1.481c0-0.397-0.187-0.771-0.505-1.009l-6.367-4.762c-0.258-0.194-0.258-0.583,0-0.776
	l6.367-4.762c0.318-0.238,0.505-0.612,0.505-1.01v-1.48c0-0.41-0.467-0.644-0.795-0.399l-10.111,7.563
	c-0.318,0.237-0.318,0.714,0,0.952l10.11,7.562C-579.024,226.583-578.557,226.348-578.557,225.939"/>
<rect x="-594.41" y="207.799" class="st9" width="1014" height="21"/>
<rect x="461.363" y="-36.746" class="st11" width="21" height="702.123"/>
<path class="st3" d="M461.363,377.215c0,2.209,1.791,4,4,4h12.382c2.209,0,4-1.791,4-4v-78.286c0-2.209-1.791-4-4-4h-12.382
	c-2.209,0-4,1.791-4,4V377.215z"/>
<rect x="461.613" y="-36.497" class="st12" width="20.5" height="701.624"/>
<path class="st13" d="M464.223-23.211h1.481c0.397,0,0.771-0.19,1.009-0.512l4.762-6.453c0.194-0.262,0.583-0.262,0.776,0
	l4.762,6.453c0.238,0.322,0.612,0.512,1.01,0.512h1.48c0.41,0,0.644-0.474,0.399-0.806l-7.563-10.248
	c-0.237-0.322-0.714-0.322-0.952,0l-7.562,10.248C463.579-23.685,463.814-23.211,464.223-23.211"/>
<path class="st13" d="M479.503,651.04h-1.481c-0.397,0-0.771,0.19-1.009,0.512l-4.762,6.453c-0.194,0.262-0.583,0.262-0.776,0
	l-4.762-6.453c-0.238-0.322-0.612-0.512-1.01-0.512h-1.48c-0.41,0-0.644,0.474-0.399,0.806l7.563,10.248
	c0.237,0.322,0.714,0.322,0.952,0l7.562-10.248C480.147,651.514,479.912,651.04,479.503,651.04"/>
<rect x="461.363" y="-36.747" class="st9" width="21" height="702.124"/>
<g>
	<g>
		<line class="st7" x1="-259.611" y1="86.232" x2="-272.629" y2="86.232"/>
		<line class="st7" x1="-259.611" y1="76.056" x2="-272.629" y2="76.056"/>
		<line class="st7" x1="-259.611" y1="81.144" x2="-272.629" y2="81.144"/>
		<g>
			<path class="st5" d="M-276.271,74.586v2.104h-0.487v-1.714h-0.421v-0.391H-276.271z"/>
		</g>
		<g>
			<path class="st5" d="M-275.51,81.554v0.396h-1.59v-0.315l0.812-0.767c0.187-0.178,0.22-0.286,0.22-0.388
				c0-0.165-0.114-0.262-0.337-0.262c-0.18,0-0.333,0.069-0.436,0.21l-0.355-0.228c0.163-0.238,0.457-0.392,0.836-0.392
				c0.469,0,0.781,0.241,0.781,0.623c0,0.204-0.057,0.391-0.352,0.664l-0.484,0.457H-275.51z"/>
		</g>
		<g>
			<path class="st5" d="M-275.528,86.313c0,0.354-0.273,0.68-0.872,0.68c-0.295,0-0.599-0.081-0.803-0.226l0.189-0.373
				c0.159,0.121,0.382,0.189,0.601,0.189c0.244,0,0.394-0.099,0.394-0.271c0-0.159-0.117-0.258-0.394-0.258h-0.223v-0.322
				l0.433-0.49h-0.896v-0.391h1.473v0.316l-0.475,0.541C-275.72,85.769-275.528,86.003-275.528,86.313z"/>
		</g>
	</g>
	<polygon class="st6" points="-281.657,67.789 -281.657,93.789 -281.657,94.039 -281.407,94.039 -255.407,94.039 -255.157,94.039 
		-255.157,93.789 -255.157,67.789 -255.157,67.539 -255.407,67.539 -281.407,67.539 -281.657,67.539 	"/>
</g>
<polygon class="st6" points="-343.49,67.789 -343.49,93.789 -343.49,94.039 -343.24,94.039 -317.24,94.039 -316.99,94.039 
	-316.99,93.789 -316.99,67.789 -316.99,67.539 -317.24,67.539 -343.24,67.539 -343.49,67.539 "/>
<g>
	<polygon class="st6" points="-313.148,67.789 -313.148,93.789 -313.148,94.039 -312.898,94.039 -286.898,94.039 -286.648,94.039 
		-286.648,93.789 -286.648,67.789 -286.648,67.539 -286.898,67.539 -312.898,67.539 -313.148,67.539 	"/>
	<path class="st7" d="M-291.616,85.914h-13.016 M-291.616,80.781h-13.016 M-291.616,75.649h-13.016"/>
	<path class="st5" d="M-306.718,81.366c0.161-0.156,0.241-0.349,0.241-0.581c0-0.15-0.037-0.288-0.11-0.414
		c-0.073-0.125-0.172-0.224-0.297-0.297c-0.126-0.073-0.264-0.11-0.415-0.11c-0.15,0-0.288,0.037-0.41,0.11
		c-0.122,0.073-0.221,0.172-0.294,0.297c-0.072,0.126-0.11,0.264-0.11,0.414c0,0.232,0.08,0.425,0.238,0.581
		c0.157,0.156,0.35,0.234,0.576,0.234C-307.072,81.6-306.879,81.522-306.718,81.366"/>
	<path class="st5" d="M-307.295,76.732c0.489,0,0.885-0.396,0.885-0.885c0-0.488-0.396-0.885-0.885-0.885
		c-0.488,0-0.885,0.397-0.885,0.885C-308.18,76.336-307.783,76.732-307.295,76.732"/>
	<path class="st5" d="M-306.718,86.383c0.161-0.156,0.241-0.349,0.241-0.581c0-0.15-0.037-0.288-0.11-0.414
		c-0.073-0.125-0.172-0.224-0.297-0.297c-0.126-0.073-0.264-0.11-0.415-0.11c-0.15,0-0.288,0.037-0.41,0.11
		c-0.122,0.073-0.221,0.172-0.294,0.297c-0.072,0.126-0.11,0.264-0.11,0.414c0,0.232,0.08,0.425,0.238,0.581
		c0.157,0.156,0.35,0.234,0.576,0.234C-307.072,86.617-306.879,86.539-306.718,86.383"/>
</g>
<path class="st7" d="M-321.958,85.921h-13.016 M-321.958,80.788h-13.016 M-321.958,75.656h-13.016"/>
<rect x="-338.522" y="74.887" class="st5" width="1.77" height="1.77"/>
<rect x="-338.522" y="79.903" class="st5" width="1.77" height="1.77"/>
<rect x="-338.522" y="84.921" class="st5" width="1.77" height="1.77"/>
<rect class="st2" width="245" height="57.75"/>
<g>
	<path class="st5" d="M83.785,17.095v9.101h-0.793l-5.851-7.385v7.385H76.18v-9.101h0.793l5.863,7.385v-7.385H83.785z"/>
	<path class="st5" d="M92.417,23.062h-5.72c0.104,1.43,1.196,2.379,2.691,2.379c0.832,0,1.573-0.299,2.093-0.897l0.52,0.599
		c-0.611,0.728-1.56,1.118-2.639,1.118c-2.132,0-3.588-1.456-3.588-3.484s1.417-3.472,3.341-3.472c1.924,0,3.315,1.417,3.315,3.472
		C92.43,22.854,92.417,22.958,92.417,23.062z M86.697,22.373h4.849c-0.117-1.339-1.092-2.275-2.431-2.275
		C87.789,20.098,86.814,21.034,86.697,22.373z"/>
	<path class="st5" d="M100.282,19.357v6.838h-0.884v-1.248c-0.481,0.832-1.365,1.313-2.458,1.313c-1.742,0-2.886-0.976-2.886-2.938
		v-3.965h0.923v3.874c0,1.456,0.754,2.197,2.054,2.197c1.43,0,2.327-0.924,2.327-2.483v-3.588H100.282z"/>
	<path class="st5" d="M108.692,23.062h-5.72c0.104,1.43,1.196,2.379,2.691,2.379c0.832,0,1.573-0.299,2.093-0.897l0.52,0.599
		c-0.611,0.728-1.56,1.118-2.639,1.118c-2.132,0-3.588-1.456-3.588-3.484s1.417-3.472,3.341-3.472c1.924,0,3.315,1.417,3.315,3.472
		C108.705,22.854,108.692,22.958,108.692,23.062z M102.972,22.373h4.849c-0.117-1.339-1.092-2.275-2.431-2.275
		C104.064,20.098,103.089,21.034,102.972,22.373z"/>
	<path class="st5" d="M115.959,17.927h-3.198v-0.832h7.358v0.832h-3.198v8.269h-0.962V17.927z"/>
	<path class="st5" d="M126.32,23.062h-5.72c0.104,1.43,1.196,2.379,2.691,2.379c0.832,0,1.573-0.299,2.093-0.897l0.52,0.599
		c-0.611,0.728-1.56,1.118-2.639,1.118c-2.132,0-3.588-1.456-3.588-3.484s1.417-3.472,3.341-3.472c1.924,0,3.315,1.417,3.315,3.472
		C126.333,22.854,126.32,22.958,126.32,23.062z M120.6,22.373h4.849c-0.117-1.339-1.092-2.275-2.431-2.275
		C121.692,20.098,120.717,21.034,120.6,22.373z"/>
	<path class="st5" d="M132.222,26.195l-2.171-2.86l-2.184,2.86h-1.04l2.704-3.51l-2.574-3.328h1.04l2.054,2.678l2.054-2.678h1.014
		l-2.574,3.328l2.73,3.51H132.222z"/>
	<path class="st5" d="M138.683,25.779c-0.364,0.325-0.91,0.481-1.443,0.481c-1.287,0-2.002-0.729-2.002-1.989v-4.135h-1.222v-0.779
		h1.222v-1.495h0.923v1.495h2.08v0.779h-2.08v4.082c0,0.807,0.416,1.248,1.183,1.248c0.377,0,0.754-0.116,1.014-0.351
		L138.683,25.779z"/>
	<path class="st5" d="M147.042,22.776c0,2.067-1.456,3.484-3.406,3.484c-1.131,0-2.08-0.494-2.639-1.417v1.352h-0.884v-9.646h0.923
		v4.108c0.572-0.884,1.508-1.353,2.6-1.353C145.586,19.305,147.042,20.709,147.042,22.776z M146.119,22.776
		c0-1.6-1.105-2.665-2.548-2.665c-1.456,0-2.548,1.065-2.548,2.665c0,1.599,1.092,2.665,2.548,2.665
		C145.014,25.441,146.119,24.375,146.119,22.776z"/>
	<path class="st5" d="M148.238,22.776c0-2.028,1.482-3.472,3.484-3.472s3.471,1.443,3.471,3.472s-1.469,3.484-3.471,3.484
		S148.238,24.805,148.238,22.776z M154.257,22.776c0-1.6-1.079-2.665-2.535-2.665s-2.548,1.065-2.548,2.665
		c0,1.599,1.092,2.665,2.548,2.665S154.257,24.375,154.257,22.776z"/>
	<path class="st5" d="M161.081,26.195l-2.171-2.86l-2.184,2.86h-1.04l2.704-3.51l-2.574-3.328h1.04l2.054,2.678l2.054-2.678h1.014
		l-2.574,3.328l2.73,3.51H161.081z"/>
</g>
<path class="st14" d="M122.5,47.958c3.707,0,6.713-3.005,6.713-6.712c0-3.708-3.006-6.713-6.713-6.713
	c-3.707,0-6.712,3.005-6.712,6.713C115.788,44.953,118.793,47.958,122.5,47.958z"/>
<rect class="st9" width="245" height="57.75"/>
<line class="st15" x1="122.5" y1="37.712" x2="122.5" y2="44.781"/>
<line class="st15" x1="118.966" y1="41.278" x2="126.034" y2="41.278"/>
<path class="st14" d="M11.539,87.794c3.707,0,6.713-3.005,6.713-6.712c0-3.708-3.006-6.713-6.713-6.713
	c-3.707,0-6.712,3.005-6.712,6.713C4.827,84.789,7.832,87.794,11.539,87.794z"/>
<line class="st15" x1="11.539" y1="77.547" x2="11.539" y2="84.616"/>
<line class="st15" x1="8.005" y1="81.113" x2="15.073" y2="81.113"/>
<g>
	<path class="st16" d="M-484.354,102.929h-3.138v-1.85h8.544v1.85h-3.138v7.956h-2.269V102.929z"/>
	<path class="st16" d="M-477.733,101.08h2.269v9.806h-2.269V101.08z"/>
	<path class="st16" d="M-464.639,104.638c0,2.185-1.639,3.544-4.258,3.544h-1.975v2.703h-2.269v-9.806h4.244
		C-466.277,101.08-464.639,102.439-464.639,104.638z M-466.936,104.638c0-1.079-0.701-1.709-2.087-1.709h-1.849v3.403h1.849
		C-467.636,106.332-466.936,105.703-466.936,104.638z"/>
	<path class="st16" d="M-454.517,104.638c0,2.185-1.639,3.544-4.258,3.544h-1.975v2.703h-2.269v-9.806h4.244
		C-456.155,101.08-454.517,102.439-454.517,104.638z M-456.814,104.638c0-1.079-0.701-1.709-2.087-1.709h-1.849v3.403h1.849
		C-457.514,106.332-456.814,105.703-456.814,104.638z"/>
</g>
<path class="st16" d="M-520.981,96.608L-520.981,96.608c-1.054,2.474-1.96,4.602-2.889,6.784h5.729
	C-519.085,101.136-519.967,99.028-520.981,96.608 M-517.488,114.198L-517.488,114.198c-0.346-1.15-0.211-1.759,1.044-1.8
	c0.976-0.033,1.343-0.74,1.02-1.64c-0.507-1.414-1.072-2.81-1.681-4.183c-0.109-0.245-0.55-0.478-0.843-0.484
	c-2.129-0.041-4.261-0.046-6.39,0.005c-0.305,0.008-0.741,0.315-0.877,0.599c-0.558,1.155-1.057,2.342-1.512,3.542
	c-0.57,1.504-0.268,2.026,1.348,2.192c0.783,0.081,1.206,0.319,1.022,1.126c-0.056,0.243-0.355,0.61-0.547,0.613
	c-2.524,0.042-5.049,0.028-7.596,0.028c-0.214-0.956-0.321-1.631,0.868-1.885c0.569-0.122,1.219-0.609,1.515-1.117
	c0.755-1.293,1.377-2.67,1.972-4.049c2.401-5.559,4.761-11.135,7.172-16.689c0.173-0.398,0.634-0.67,0.96-1
	c0.319,0.343,0.766,0.632,0.937,1.037c2.56,6.048,5.079,12.114,7.622,18.17c0.326,0.776,0.705,1.534,1.106,2.275
	c0.507,0.939,1.332,1.389,2.379,1.595c0.265,0.052,0.519,0.638,0.586,1.013c0.032,0.175-0.39,0.621-0.611,0.624
	C-511.146,114.211-514.299,114.198-517.488,114.198"/>
<path class="st5" d="M-423.743,106.66c2.682-0.014,4.762-2.036,4.751-4.621c-0.01-2.367-2.203-4.406-4.733-4.399
	c-2.703,0.008-4.848,2.038-4.825,4.568C-428.527,104.672-426.367,106.673-423.743,106.66 M-418.188,106.673L-418.188,106.673
	c0.393-0.231,0.569-0.207,0.91,0.115c1.249,1.181,2.501,2.361,3.751,3.541c0.086,0.08,0.173,0.159,0.252,0.246
	c0.216,0.237,0.217,0.464-0.012,0.692c-0.249,0.248-0.509,0.488-0.767,0.727c-0.302,0.28-0.548,0.287-0.855,0
	c-1.177-1.103-2.348-2.211-3.522-3.318c-0.132-0.124-0.263-0.25-0.396-0.373c-0.368-0.34-0.394-0.487-0.153-0.896
	c-0.368-0.336-0.737-0.673-1.128-1.029c-1.472,1.07-3.153,1.471-5.011,1.06c-1.415-0.313-2.544-1.054-3.377-2.178
	c-1.65-2.23-1.286-5.335,0.823-7.11c2.222-1.87,5.521-1.904,7.68-0.117c2.217,1.835,2.765,5.106,0.696,7.583
	C-418.927,105.969-418.558,106.32-418.188,106.673"/>
<path class="st17" d="M-423.743,106.66c2.682-0.014,4.762-2.036,4.751-4.621c-0.01-2.367-2.203-4.406-4.733-4.399
	c-2.703,0.008-4.848,2.038-4.825,4.568C-428.527,104.672-426.367,106.673-423.743,106.66z M-418.188,106.673L-418.188,106.673
	c0.393-0.231,0.569-0.207,0.91,0.115c1.249,1.181,2.501,2.361,3.751,3.541c0.086,0.08,0.173,0.159,0.252,0.246
	c0.216,0.237,0.217,0.464-0.012,0.692c-0.249,0.248-0.509,0.488-0.767,0.727c-0.302,0.28-0.548,0.287-0.855,0
	c-1.177-1.103-2.348-2.211-3.522-3.318c-0.132-0.124-0.263-0.25-0.396-0.373c-0.368-0.34-0.394-0.487-0.153-0.896
	c-0.368-0.336-0.737-0.673-1.128-1.029c-1.472,1.07-3.153,1.471-5.011,1.06c-1.415-0.313-2.544-1.054-3.377-2.178
	c-1.65-2.23-1.286-5.335,0.823-7.11c2.222-1.87,5.521-1.904,7.68-0.117c2.217,1.835,2.765,5.106,0.696,7.583
	C-418.927,105.969-418.558,106.32-418.188,106.673z"/>
<path class="st5" d="M-360.029,97.08l2.966,2.98v-2.758c0-0.096-0.055-0.229-0.123-0.297l-3.807-3.826
	c-0.068-0.067-0.178-0.067-0.245,0l-3.93,3.949v2.758c0,0.096,0.055,0.119,0.122,0.051l2.844-2.857
	c0.068-0.068,0.122-0.046,0.122,0.05v7.829h0v2.168c0,0.096-0.055,0.118-0.123,0.05l-2.966-2.98v2.758
	c0,0.096,0.055,0.229,0.123,0.297l3.807,3.826c0.068,0.067,0.178,0.067,0.245,0l3.93-3.949v-2.758c0-0.096-0.055-0.119-0.122-0.051
	l-2.844,2.857c-0.068,0.068-0.122,0.046-0.122-0.05v-7.829h0V97.13C-360.152,97.034-360.097,97.012-360.029,97.08z"/>
<line class="st18" x1="-396.168" y1="110.316" x2="-368.335" y2="110.316"/>
<line class="st18" x1="-396.168" y1="102.02" x2="-368.335" y2="102.02"/>
<line class="st18" x1="-396.168" y1="94.028" x2="-368.335" y2="94.028"/>
<line class="st18" x1="-381.826" y1="129.287" x2="-381.826" y2="150.287"/>
<path class="st5" d="M-374.366,143.13L-374.366,143.13h2.695l-2.603-2.569c-0.138-0.135-0.093-0.245,0.101-0.245h7.006v-1.407
	c0-0.193-0.157-0.35-0.35-0.35h-6.656c-0.194,0-0.239-0.11-0.101-0.246l2.603-2.569h-2.345c-0.193,0-0.462,0.111-0.599,0.246
	l-3.245,3.201c-0.137,0.136-0.137,0.356,0,0.492L-374.366,143.13z"/>
<path class="st5" d="M-390.136,135.919L-390.136,135.919h-2.695l2.603,2.569c0.138,0.135,0.093,0.245-0.101,0.245h-7.006v1.407
	c0,0.193,0.157,0.35,0.35,0.35h6.656c0.194,0,0.239,0.11,0.101,0.246l-2.603,2.569h2.345c0.193,0,0.462-0.111,0.599-0.246
	l3.245-3.201c0.137-0.136,0.137-0.356,0-0.492L-390.136,135.919z"/>
<line class="st19" x1="-65.54" y1="10.174" x2="-101.563" y2="10.174"/>
<path class="st20" d="M-74.043,13.32c2.045,0,3.703-1.658,3.703-3.703s-1.658-3.703-3.703-3.703s-3.703,1.658-3.703,3.703
	S-76.088,13.32-74.043,13.32"/>
<g>
	<path class="st5" d="M-50.844,10.375c0,3.12-1.82,4.836-4.459,4.836c-0.91,0-1.781-0.195-2.392-0.585l0.624-1.274
		c0.494,0.325,1.092,0.442,1.729,0.442c1.716,0,2.795-1.066,2.795-3.133v-0.014c-0.546,0.638-1.417,0.949-2.431,0.949
		c-1.794,0-3.133-1.092-3.133-2.795c0-1.807,1.469-2.951,3.328-2.951C-52.3,5.851-50.844,7.451-50.844,10.375z M-52.807,8.711
		c0-0.858-0.676-1.534-1.885-1.534c-1.053,0-1.781,0.598-1.781,1.547s0.715,1.547,1.82,1.547
		C-53.561,10.271-52.807,9.608-52.807,8.711z"/>
	<path class="st5" d="M-42.979,12.287c0,1.599-1.157,2.925-3.602,2.925c-1.287,0-2.587-0.39-3.419-1.053l0.715-1.313
		c0.663,0.546,1.651,0.897,2.678,0.897c1.209,0,1.924-0.533,1.924-1.392c0-0.871-0.559-1.417-2.444-1.417h-2.197l0.468-4.953h5.343
		v1.417h-3.913l-0.195,2.106h0.871C-44.058,9.504-42.979,10.674-42.979,12.287z"/>
	<path class="st5" d="M-38.559,8.386c0-1.495,0.871-2.496,2.171-2.496s2.184,0.988,2.184,2.496s-0.884,2.496-2.184,2.496
		S-38.559,9.881-38.559,8.386z M-35.27,8.386c0-1.014-0.416-1.586-1.118-1.586c-0.676,0-1.118,0.585-1.118,1.586
		s0.442,1.586,1.118,1.586C-35.686,9.972-35.27,9.4-35.27,8.386z M-30.928,5.981h1.274l-6.214,9.101h-1.274L-30.928,5.981z
		 M-32.592,12.676c0-1.495,0.871-2.496,2.171-2.496c1.3,0,2.184,1.001,2.184,2.496s-0.884,2.496-2.184,2.496
		C-31.721,15.172-32.592,14.171-32.592,12.676z M-29.303,12.676c0-1.001-0.429-1.586-1.118-1.586s-1.118,0.572-1.118,1.586
		c0,1.015,0.429,1.586,1.118,1.586S-29.303,13.677-29.303,12.676z"/>
</g>
<rect x="-87.603" y="64.318" class="st11" width="13.149" height="16.764"/>
<polygon class="st21" points="-87.603,81.081 -87.603,81.081 -74.454,81.081 -74.454,64.317 -87.603,64.317 "/>
<rect x="-95.275" y="63.847" class="st9" width="21.291" height="24"/>
<line class="st22" x1="-90.777" y1="72.013" x2="-90.777" y2="82.4"/>
<line class="st23" x1="-88.146" y1="84.288" x2="-78.497" y2="84.288"/>
<path class="st21" d="M-77.62,84.289h0.877 M-90.777,83.345v0.944h0.877 M-90.777,69.18v0.944"/>
<polyline class="st21" points="-94.804,72.268 -94.804,87.376 -80.77,87.376 "/>
<rect x="-95.275" y="63.847" class="st9" width="21.291" height="24"/>
<rect x="-56.029" y="64.249" class="st11" width="14.674" height="18.705"/>
<polygon class="st24" points="-56.029,82.953 -56.029,82.953 -41.356,82.953 -41.356,64.248 -56.029,64.248 "/>
<rect x="-56.431" y="63.847" class="st9" width="19.884" height="24"/>
<rect x="-51.622" y="68.74" class="st5" width="14.674" height="18.705"/>
<polygon class="st25" points="-51.622,87.445 -51.622,87.445 -36.949,87.445 -36.949,68.74 -51.622,68.74 "/>
<rect x="-56.431" y="63.847" class="st9" width="19.884" height="24"/>
<rect x="-154.922" y="67.795" class="st10" width="34.924" height="19.551"/>
<g>
	<path class="st11" d="M-140.68,79.314h-5.72c0.104,1.43,1.196,2.379,2.691,2.379c0.832,0,1.573-0.299,2.093-0.897l0.52,0.599
		c-0.611,0.728-1.56,1.118-2.639,1.118c-2.132,0-3.588-1.456-3.588-3.484s1.417-3.472,3.341-3.472c1.924,0,3.315,1.417,3.315,3.472
		C-140.667,79.106-140.68,79.209-140.68,79.314z M-146.401,78.624h4.849c-0.117-1.339-1.092-2.275-2.431-2.275
		C-145.308,76.349-146.283,77.286-146.401,78.624z"/>
	<path class="st11" d="M-139.433,73.451c0-0.352,0.299-0.65,0.676-0.65s0.676,0.286,0.676,0.637c0,0.378-0.286,0.677-0.676,0.677
		C-139.134,74.114-139.433,73.815-139.433,73.451z M-139.225,75.609h0.923v6.838h-0.923V75.609z"/>
	<path class="st11" d="M-130.007,78.482v3.965h-0.923v-3.874c0-1.443-0.754-2.185-2.054-2.185c-1.469,0-2.392,0.91-2.392,2.471
		v3.588h-0.923v-6.838h0.884v1.261c0.494-0.832,1.417-1.313,2.6-1.313C-131.152,75.556-130.007,76.518-130.007,78.482z"/>
</g>
<polygon class="st6" points="-189.93,67.67 -189.93,87.67 -189.93,87.92 -189.68,87.92 -120.831,87.92 -120.581,87.92 
	-120.581,87.67 -120.581,67.67 -120.581,67.42 -120.831,67.42 -189.68,67.42 -189.93,67.42 "/>
<rect x="-190.18" y="67.17" class="st9" width="70.183" height="21"/>
<line class="st26" x1="-48.866" y1="157.31" x2="-48.866" y2="181.57"/>
<path class="st5" d="M-40.768,173.128L-40.768,173.128h2.592l-2.494-2.46c-0.138-0.135-0.093-0.245,0.101-0.245h6.725v-1.339
	c0-0.193-0.157-0.35-0.35-0.35h-6.725l2.743-2.705h-2.242c-0.193,0-0.462,0.11-0.599,0.245l-3.102,3.059
	c-0.137,0.135-0.137,0.355,0,0.491L-40.768,173.128z"/>
<line class="st26" x1="-75.811" y1="181.403" x2="-75.811" y2="157.143"/>
<path class="st5" d="M-83.908,165.584L-83.908,165.584H-86.5l2.494,2.46c0.138,0.135,0.093,0.245-0.101,0.245h-6.725v1.339
	c0,0.193,0.157,0.35,0.35,0.35h6.725l-2.743,2.705h2.242c0.193,0,0.462-0.11,0.599-0.245l3.102-3.059
	c0.137-0.135,0.137-0.355,0-0.491L-83.908,165.584z"/>
<line class="st26" x1="-265.553" y1="165.181" x2="-241.293" y2="165.181"/>
<path class="st5" d="M-249.902,157.123L-249.902,157.123v-2.592l-2.46,2.494c-0.135,0.138-0.245,0.093-0.245-0.101v-6.725h-1.339
	c-0.193,0-0.35,0.157-0.35,0.35v6.725l-2.705-2.743v2.242c0,0.193,0.11,0.462,0.245,0.599l3.059,3.102
	c0.135,0.137,0.355,0.137,0.491,0L-249.902,157.123z"/>
<path class="st5" d="M-256.834,172.275L-256.834,172.275v2.592l2.46-2.494c0.135-0.138,0.245-0.093,0.245,0.101v6.725h1.339
	c0.193,0,0.35-0.157,0.35-0.35v-6.725l2.705,2.743v-2.242c0-0.193-0.11-0.462-0.245-0.599l-3.059-3.102
	c-0.135-0.137-0.355-0.137-0.491,0L-256.834,172.275z"/>
<line class="st26" x1="-209.107" y1="177.992" x2="-209.107" y2="153.732"/>
<path class="st5" d="M-217.164,162.341L-217.164,162.341h-2.592l2.494,2.46c0.138,0.135,0.093,0.245-0.101,0.245h-6.725v1.339
	c0,0.193,0.157,0.35,0.35,0.35h6.725l-2.743,2.705h2.242c0.193,0,0.462-0.11,0.599-0.245l3.102-3.059
	c0.137-0.135,0.137-0.355,0-0.491L-217.164,162.341z"/>
<path class="st5" d="M-202.012,169.273L-202.012,169.273h2.592l-2.494-2.46c-0.138-0.135-0.093-0.245,0.101-0.245h6.725v-1.339
	c0-0.193-0.157-0.35-0.35-0.35h-6.725l2.743-2.705h-2.242c-0.193,0-0.462,0.11-0.599,0.245l-3.102,3.059
	c-0.137,0.135-0.137,0.355,0,0.491L-202.012,169.273z"/>
<line class="st26" x1="-176.965" y1="165.464" x2="-152.705" y2="165.464"/>
<path class="st5" d="M-168.246,172.559L-168.246,172.559v2.592l2.46-2.494c0.135-0.138,0.245-0.093,0.245,0.101v6.725h1.339
	c0.193,0,0.35-0.157,0.35-0.35v-6.725l2.705,2.743v-2.242c0-0.193-0.11-0.462-0.245-0.599l-3.059-3.102
	c-0.135-0.137-0.355-0.137-0.491,0L-168.246,172.559z"/>
<line class="st26" x1="-131.854" y1="176.719" x2="-107.594" y2="176.719"/>
<path class="st5" d="M-116.035,168.331L-116.035,168.331v-2.592l-2.46,2.494c-0.135,0.138-0.245,0.093-0.245-0.101v-6.725h-1.339
	c-0.193,0-0.35,0.157-0.35,0.35v6.725l-2.705-2.743v2.242c0,0.193,0.11,0.462,0.245,0.599l3.059,3.102
	c0.135,0.137,0.355,0.137,0.491,0L-116.035,168.331z"/>
<rect x="14.01" y="149.794" class="st11" width="15.769" height="20.056"/>
<line class="st27" x1="16.967" y1="169.85" x2="27.808" y2="169.85"/>
<line class="st28" x1="29.779" y1="166.841" x2="29.779" y2="151.799"/>
<line class="st27" x1="26.822" y1="149.794" x2="15.981" y2="149.794"/>
<line class="st28" x1="14.01" y1="152.802" x2="14.01" y2="167.844"/>
<path class="st21" d="M14.009,168.847v1.003h0.986 M14.995,149.794h-0.986v1.003 M29.778,150.797v-1.003h-0.985 M28.793,169.85
	h0.985v-1.003"/>
<polygon class="st11" points="2.774,179.85 2.774,179.85 18.543,179.85 18.543,159.794 2.774,159.794 "/>
<line class="st27" x1="5.731" y1="179.85" x2="16.572" y2="179.85"/>
<line class="st28" x1="18.543" y1="176.841" x2="18.543" y2="161.799"/>
<line class="st27" x1="15.586" y1="159.794" x2="4.745" y2="159.794"/>
<line class="st28" x1="2.774" y1="162.802" x2="2.774" y2="177.844"/>
<path class="st21" d="M2.773,178.847v1.003h0.986 M3.759,159.794H2.773v1.003 M18.542,160.797v-1.003h-0.985 M17.557,179.85h0.985
	v-1.003"/>
<polygon class="st11" points="-6.7,187.85 -6.7,187.85 9.069,187.85 9.069,167.794 -6.7,167.794 "/>
<polygon class="st21" points="-6.7,187.85 -6.7,187.85 9.069,187.85 9.069,167.794 -6.7,167.794 "/>
<g>
	<polygon class="st11" points="67.136,174.155 67.136,174.155 82.905,174.155 82.905,154.099 67.136,154.099 	"/>
	<polygon class="st21" points="67.136,174.155 67.136,174.155 82.905,174.155 82.905,154.099 67.136,154.099 	"/>
	<line class="st29" x1="63.372" y1="162.654" x2="63.372" y2="176.158"/>
	<line class="st30" x1="66.509" y1="177.959" x2="78.012" y2="177.959"/>
	<path class="st21" d="M79.057,177.958h1.046 M63.372,177.058v0.9h1.046 M63.372,159.953v0.9"/>
</g>
<g>
	<rect x="139.676" y="142.379" class="st11" width="15.769" height="20.056"/>
	<polygon class="st21" points="139.676,162.435 139.676,162.435 155.445,162.435 155.445,142.379 139.676,142.379 	"/>
	<polygon class="st11" points="128.44,172.435 128.44,172.435 144.209,172.435 144.209,152.379 128.44,152.379 	"/>
	<line class="st27" x1="131.397" y1="172.435" x2="142.238" y2="172.435"/>
	<line class="st28" x1="144.209" y1="169.427" x2="144.209" y2="154.385"/>
	<line class="st27" x1="141.252" y1="152.379" x2="130.411" y2="152.379"/>
	<line class="st28" x1="128.44" y1="155.387" x2="128.44" y2="170.429"/>
	<path class="st21" d="M128.439,171.432v1.003h0.986 M129.425,152.379h-0.986v1.003 M144.208,153.382v-1.003h-0.985
		 M143.223,172.435h0.985v-1.003"/>
	<polygon class="st11" points="118.966,180.435 118.966,180.435 134.735,180.435 134.735,160.379 118.966,160.379 	"/>
	<line class="st27" x1="121.923" y1="180.435" x2="132.764" y2="180.435"/>
	<line class="st28" x1="134.735" y1="177.427" x2="134.735" y2="162.385"/>
	<line class="st27" x1="131.779" y1="160.379" x2="120.938" y2="160.379"/>
	<line class="st28" x1="118.966" y1="163.387" x2="118.966" y2="178.429"/>
	<path class="st21" d="M118.966,179.432v1.003h0.986 M119.952,160.379h-0.986v1.003 M134.735,161.382v-1.003h-0.985 M133.75,180.435
		h0.985v-1.003"/>
</g>
<line class="st27" x1="195.09" y1="175.92" x2="205.931" y2="175.92"/>
<line class="st28" x1="207.902" y1="172.912" x2="207.902" y2="157.87"/>
<line class="st27" x1="204.945" y1="155.864" x2="194.104" y2="155.864"/>
<line class="st28" x1="192.133" y1="158.872" x2="192.133" y2="173.914"/>
<path class="st21" d="M192.132,174.917v1.003h0.986 M193.118,155.864h-0.986v1.003 M207.901,156.867v-1.003h-0.985 M206.916,175.92
	h0.985v-1.003"/>
<polyline class="st21" points="188.368,161.718 188.368,179.723 205.099,179.723 "/>
<g>
	<defs>
		<rect id="SVGID_1_" x="-566.906" y="269.756" width="241.682" height="1"/>
	</defs>
	<clipPath id="SVGID_00000106858587424278846340000002366379725008136634_">
		<use xlink:href="#SVGID_1_"  style="overflow:visible;"/>
	</clipPath>
	
		<line style="clip-path:url(#SVGID_00000106858587424278846340000002366379725008136634_);fill:none;stroke:#B2B2B2;stroke-linecap:round;stroke-linejoin:round;stroke-dasharray:0,3.009;" x1="-563.398" y1="270.256" x2="-327.228" y2="270.256"/>
	
		<path style="clip-path:url(#SVGID_00000106858587424278846340000002366379725008136634_);fill:none;stroke:#B2B2B2;stroke-linecap:round;stroke-linejoin:round;" d="
		M-325.724,270.256L-325.724,270.256 M-566.406,270.256L-566.406,270.256"/>
</g>
<circle class="st33" cx="-520.008" cy="49.045" r="12.75"/>
<polygon class="st3" points="-376.615,34.022 -389.615,34.022 -383.247,44.497 "/>
<polygon class="st5" points="-368.592,162.563 -379.067,168.931 -368.592,175.563 "/>
<polygon class="st5" points="-397.639,175.563 -387.164,169.195 -397.639,162.563 "/>
<polygon class="st5" points="-315.085,162.563 -325.56,168.931 -315.085,175.563 "/>
<polygon class="st5" points="-350.262,175.563 -339.787,169.195 -350.262,162.563 "/>
<rect x="-190.013" y="34.033" class="st10" width="34.924" height="19.551"/>
<polygon class="st6" points="-189.763,33.908 -189.763,53.908 -189.763,54.158 -189.513,54.158 -120.664,54.158 -120.414,54.158 
	-120.414,53.908 -120.414,33.908 -120.414,33.658 -120.664,33.658 -189.513,33.658 -189.763,33.658 "/>
<rect x="-190.013" y="33.408" class="st9" width="69.849" height="21"/>
<rect x="-154.649" y="100.061" class="st10" width="34.924" height="19.551"/>
<polygon class="st6" points="-189.657,99.936 -189.657,119.936 -189.657,120.186 -189.407,120.186 -120.558,120.186 
	-120.308,120.186 -120.308,119.936 -120.308,99.936 -120.308,99.686 -120.558,99.686 -189.407,99.686 -189.657,99.686 "/>
<rect x="-189.907" y="99.436" class="st9" width="70.183" height="21"/>
<line class="st19" x1="-66.618" y1="29.962" x2="-102.641" y2="29.962"/>
<path class="st20" d="M-75.121,33.108c2.045,0,3.703-1.658,3.703-3.703s-1.658-3.703-3.703-3.703c-2.045,0-3.703,1.658-3.703,3.703
	S-77.166,33.108-75.121,33.108"/>
</svg>
