<?xml version="1.0" encoding="utf-8"?>
<!-- Generator: Adobe Illustrator 26.0.3, SVG Export Plug-In . SVG Version: 6.00 Build 0)  -->
<svg version="1.1" id="Ebene_1" xmlns="http://www.w3.org/2000/svg" xmlns:xlink="http://www.w3.org/1999/xlink" x="0px" y="0px"
	 width="27px" height="27px" viewBox="0 0 27 27" style="enable-background:new 0 0 27 27;" xml:space="preserve">
<style type="text/css">
	.st0{fill:none;stroke:#C5C5C5;stroke-width:3;stroke-linecap:round;stroke-linejoin:round;}
	.st1{fill:#FFAEFF;stroke:#4F4D4D;stroke-width:0.5;}
	.st2{fill:#F8F8F8;}
	.st3{fill:#0E689A;}
	.st4{fill:none;stroke:#B2B1B1;stroke-width:0.65;stroke-miterlimit:10;}
	.st5{fill:#B2B1B1;}
	.st6{fill:none;stroke:#B2B2B2;stroke-width:0.5;stroke-miterlimit:10;}
	.st7{fill:none;stroke:#B2B1B1;stroke-width:0.3;stroke-miterlimit:10;}
	.st8{fill:none;stroke:#FFFFFF;stroke-width:0.021;}
	.st9{fill:none;}
	.st10{fill:#0E6899;}
	.st11{fill:#FFFFFF;}
	.st12{fill:none;stroke:#C5C5C5;stroke-width:0.5;stroke-linecap:round;stroke-linejoin:round;}
	.st13{fill:#C5C5C5;}
	.st14{fill:none;stroke:#B2B1B1;stroke-width:0.5;}
	.st15{fill:none;stroke:#B2B1B1;stroke-width:1.2;}
	.st16{fill:#B2B2B2;}
	.st17{fill:none;stroke:#FFFFFF;stroke-width:0.001;}
	.st18{fill:none;stroke:#B2B1B1;stroke-width:1.712;}
	.st19{fill:none;stroke:#B2B1B1;stroke-width:2;}
	.st20{fill:#AD5E7A;}
	.st21{fill:none;stroke:#B2B1B1;stroke-width:0.941;}
	.st22{fill:none;stroke:#B2B1B1;stroke-width:0.941;stroke-dasharray:1.889,1.889;}
	.st23{fill:none;stroke:#B2B1B1;stroke-width:0.941;stroke-dasharray:1.754,1.754;}
	.st24{fill:none;stroke:#B2B1B1;stroke-width:0.804;}
	.st25{fill:none;stroke:#FFFFFF;stroke-width:0.804;}
	.st26{fill:none;stroke:#B2B1B1;stroke-width:2.5;}
	.st27{fill:none;stroke:#B2B1B1;stroke-width:0.941;stroke-dasharray:1.971,1.971;}
	.st28{fill:none;stroke:#B2B1B1;stroke-width:0.941;stroke-dasharray:2.006,2.006;}
	.st29{fill:none;stroke:#B2B1B1;stroke-width:0.941;stroke-dasharray:1.801,1.801;}
	.st30{fill:none;stroke:#B2B1B1;stroke-width:0.941;stroke-dasharray:2.091,2.091;}
	
		.st31{clip-path:url(#SVGID_00000016045527013889003710000005622060607407785126_);fill:none;stroke:#B2B2B2;stroke-linecap:round;stroke-linejoin:round;stroke-dasharray:0,3.009;}
	
		.st32{clip-path:url(#SVGID_00000016045527013889003710000005622060607407785126_);fill:none;stroke:#B2B2B2;stroke-linecap:round;stroke-linejoin:round;}
	.st33{fill:none;stroke:#4F4D4D;stroke-width:0.5;}
</style>
<polyline class="st0" points="1785.283,908.412 1779.033,899.412 1772.283,908.412 "/>
<circle class="st1" cx="-206.61" cy="-54.337" r="12.75"/>
<rect x="-174.149" y="-65.352" class="st2" width="119.902" height="21"/>
<polygon class="st3" points="-63.32,-60.089 -76.32,-60.089 -69.952,-49.614 "/>
<g>
	<g>
		<line class="st4" x1="49.692" y1="-47.831" x2="59.975" y2="-47.831"/>
		<g>
			<path class="st5" d="M50.979-53.057v-5.175h1.3v5.122c0,2.016,0.923,2.926,2.561,2.926c1.638,0,2.574-0.91,2.574-2.926v-5.122
				h1.261v5.175c0,2.639-1.443,4.029-3.848,4.029C52.436-49.028,50.979-50.418,50.979-53.057z"/>
		</g>
	</g>
	<polygon class="st6" points="41.584,-66.032 41.584,-40.032 41.584,-39.782 41.834,-39.782 67.834,-39.782 68.084,-39.782 
		68.084,-40.032 68.084,-66.032 68.084,-66.282 67.834,-66.282 41.834,-66.282 41.584,-66.282 	"/>
</g>
<g>
	<g>
		<path class="st5" d="M20.23-57.958h1.3l-1.82,9.101h-1.3L20.23-57.958z"/>
	</g>
	<polygon class="st6" points="6.72,-66.408 6.72,-40.408 6.72,-40.158 6.97,-40.158 32.97,-40.158 33.22,-40.158 33.22,-40.408 
		33.22,-66.408 33.22,-66.658 32.97,-66.658 6.97,-66.658 6.72,-66.658 	"/>
</g>
<g>
	<g>
		<path class="st5" d="M-12.919-51.289c0,1.573-1.248,2.483-3.64,2.483h-4.706v-9.101h4.446c2.275,0,3.445,0.949,3.445,2.366
			c0,0.91-0.468,1.612-1.209,2.002C-13.568-53.213-12.919-52.433-12.919-51.289z M-19.171-56.321v2.146h2.093
			c1.027,0,1.586-0.364,1.586-1.079s-0.559-1.066-1.586-1.066H-19.171z M-15.038-51.51c0-0.767-0.585-1.131-1.677-1.131h-2.457
			v2.249h2.457C-15.623-50.392-15.038-50.73-15.038-51.51z"/>
	</g>
	<polygon class="st6" points="-30.342,-66.356 -30.342,-40.356 -30.342,-40.106 -30.092,-40.106 -4.092,-40.106 -3.842,-40.106 
		-3.842,-40.356 -3.842,-66.356 -3.842,-66.606 -4.092,-66.606 -30.092,-66.606 -30.342,-66.606 	"/>
</g>
<path class="st7" d="M23.846-24.402"/>
<path class="st7" d="M21.338-23.149"/>
<path class="st7" d="M21.338-21.895"/>
<path class="st7" d="M21.338-20.64"/>
<path class="st7" d="M23.846-19.386"/>
<path class="st7" d="M23.846-18.132"/>
<path class="st7" d="M21.338-16.879"/>
<path class="st7" d="M21.338-14.371"/>
<path class="st7" d="M23.846-11.863"/>
<g>
	<path class="st7" d="M4.382-19.386"/>
	<path class="st7" d="M4.382-24.402"/>
	<path class="st7" d="M4.382-11.863"/>
	<path class="st7" d="M4.382-18.132"/>
	<g>
		<path class="st7" d="M6.444-16.879"/>
		<path class="st7" d="M6.444-20.64"/>
		<path class="st7" d="M6.444-21.895"/>
		<path class="st7" d="M6.444-23.149"/>
		<line class="st7" x1="4.006" y1="-12.658" x2="23.47" y2="-12.658"/>
		<line class="st7" x1="4.006" y1="-13.933" x2="18.9" y2="-13.933"/>
		<line class="st7" x1="4.006" y1="-15.209" x2="18.9" y2="-15.209"/>
		<line class="st7" x1="4.006" y1="-16.485" x2="18.9" y2="-16.485"/>
		<line class="st7" x1="4.006" y1="-17.761" x2="23.47" y2="-17.761"/>
		<line class="st7" x1="4.006" y1="-19.037" x2="23.47" y2="-19.037"/>
		<line class="st7" x1="4.08" y1="-20.313" x2="18.973" y2="-20.313"/>
		<line class="st7" x1="4.006" y1="-21.589" x2="23.47" y2="-21.589"/>
		<line class="st7" x1="4.006" y1="-22.865" x2="18.9" y2="-22.865"/>
		<line class="st7" x1="4.006" y1="-24.141" x2="18.9" y2="-24.141"/>
		<line class="st7" x1="4.006" y1="-25.417" x2="23.47" y2="-25.417"/>
	</g>
	<polygon class="st6" points="0.679,-31.712 0.679,-5.719 0.679,-5.469 0.929,-5.469 26.922,-5.469 27.172,-5.469 27.172,-5.719 
		27.172,-31.712 27.172,-31.962 26.922,-31.962 0.929,-31.962 0.679,-31.962 	"/>
</g>
<g>
	<g>
		<line class="st7" x1="54.727" y1="-25.1" x2="35.263" y2="-25.1"/>
		<line class="st7" x1="52.219" y1="-23.823" x2="37.325" y2="-23.823"/>
		<line class="st7" x1="52.219" y1="-22.546" x2="37.325" y2="-22.546"/>
		<line class="st7" x1="52.219" y1="-21.269" x2="37.325" y2="-21.269"/>
		<line class="st7" x1="54.727" y1="-19.992" x2="35.263" y2="-19.992"/>
		<line class="st7" x1="54.727" y1="-18.715" x2="35.263" y2="-18.715"/>
		<line class="st7" x1="52.219" y1="-17.438" x2="37.325" y2="-17.438"/>
		<line class="st7" x1="54.727" y1="-16.161" x2="35.263" y2="-16.161"/>
		<line class="st7" x1="52.219" y1="-14.884" x2="37.325" y2="-14.884"/>
		<line class="st7" x1="52.219" y1="-13.607" x2="37.325" y2="-13.607"/>
		<line class="st7" x1="54.727" y1="-12.33" x2="35.263" y2="-12.33"/>
	</g>
	<polygon class="st6" points="31.748,-31.712 31.748,-5.719 31.748,-5.469 31.998,-5.469 57.991,-5.469 58.241,-5.469 
		58.241,-5.719 58.241,-31.712 58.241,-31.962 57.991,-31.962 31.998,-31.962 31.748,-31.962 	"/>
</g>
<polygon class="st6" points="62.817,-31.712 62.817,-5.719 62.817,-5.469 63.067,-5.469 89.06,-5.469 89.31,-5.469 89.31,-5.719 
	89.31,-31.712 89.31,-31.962 89.06,-31.962 63.067,-31.962 62.817,-31.962 "/>
<path class="st7" d="M66.144-13.027"/>
<path class="st7" d="M66.144-18.044"/>
<path class="st7" d="M66.144-19.297"/>
<path class="st7" d="M66.144-25.567"/>
<path class="st7" d="M83.546-20.551"/>
<path class="st7" d="M85.608-18.044"/>
<path class="st7" d="M83.546-16.79"/>
<path class="st7" d="M85.608-13.027"/>
<path class="st7" d="M85.608-25.567"/>
<path class="st7" d="M85.608-19.297"/>
<path class="st7" d="M83.546-15.535"/>
<path class="st7" d="M83.546-14.281"/>
<g>
	<path class="st7" d="M68.463-14.604"/>
	<path class="st7" d="M68.463-15.858"/>
	<path class="st7" d="M68.463-17.112"/>
	<path class="st7" d="M68.463-20.874"/>
	<path class="st7" d="M68.463-23.382"/>
	<line class="st7" x1="85.795" y1="-25.094" x2="66.331" y2="-25.094"/>
	<line class="st7" x1="85.795" y1="-23.819" x2="70.901" y2="-23.819"/>
	<line class="st7" x1="85.795" y1="-22.543" x2="70.901" y2="-22.543"/>
	<line class="st7" x1="85.795" y1="-21.267" x2="70.901" y2="-21.267"/>
	<line class="st7" x1="85.795" y1="-19.991" x2="66.331" y2="-19.991"/>
	<line class="st7" x1="85.795" y1="-18.715" x2="66.331" y2="-18.715"/>
	<line class="st7" x1="85.722" y1="-17.439" x2="70.828" y2="-17.439"/>
	<line class="st7" x1="85.795" y1="-16.163" x2="66.331" y2="-16.163"/>
	<line class="st7" x1="85.795" y1="-14.887" x2="70.901" y2="-14.887"/>
	<line class="st7" x1="85.795" y1="-13.611" x2="70.901" y2="-13.611"/>
	<line class="st7" x1="85.795" y1="-12.336" x2="66.331" y2="-12.336"/>
</g>
<polygon class="st6" points="-30.092,-31.705 -30.092,-5.712 -30.092,-5.462 -29.842,-5.462 -3.849,-5.462 -3.599,-5.462 
	-3.599,-5.712 -3.599,-31.705 -3.599,-31.955 -3.849,-31.955 -29.842,-31.955 -30.092,-31.955 "/>
<path class="st7" d="M-6.925-24.402"/>
<path class="st7" d="M-6.925-19.386"/>
<path class="st7" d="M-6.925-18.132"/>
<path class="st7" d="M-6.925-11.863"/>
<path class="st7" d="M-24.327-16.879"/>
<path class="st7" d="M-26.389-19.386"/>
<path class="st7" d="M-24.327-20.64"/>
<path class="st7" d="M-26.389-24.402"/>
<path class="st7" d="M-26.389-11.863"/>
<path class="st7" d="M-26.389-18.132"/>
<path class="st7" d="M-24.327-21.895"/>
<path class="st7" d="M-24.327-23.149"/>
<g>
	<path class="st7" d="M-9.433-23.149"/>
	<path class="st7" d="M-9.433-21.895"/>
	<path class="st7" d="M-9.433-20.64"/>
	<path class="st7" d="M-9.433-16.879"/>
	<path class="st7" d="M-9.433-14.371"/>
	<line class="st7" x1="-26.765" y1="-12.658" x2="-7.301" y2="-12.658"/>
	<line class="st7" x1="-26.765" y1="-13.933" x2="-7.301" y2="-13.933"/>
	<line class="st7" x1="-26.765" y1="-15.209" x2="-7.301" y2="-15.209"/>
	<line class="st7" x1="-26.765" y1="-16.485" x2="-7.301" y2="-16.485"/>
	<line class="st7" x1="-26.765" y1="-17.761" x2="-7.301" y2="-17.761"/>
	<line class="st7" x1="-26.765" y1="-19.037" x2="-7.301" y2="-19.037"/>
	<line class="st7" x1="-26.692" y1="-20.313" x2="-7.228" y2="-20.313"/>
	<line class="st7" x1="-26.765" y1="-21.589" x2="-7.301" y2="-21.589"/>
	<line class="st7" x1="-26.765" y1="-22.865" x2="-7.301" y2="-22.865"/>
	<line class="st7" x1="-26.765" y1="-24.141" x2="-7.301" y2="-24.141"/>
	<line class="st7" x1="-26.765" y1="-25.417" x2="-7.301" y2="-25.417"/>
</g>
<path class="st5" d="M-199.648,83.444l-1.915,13.335c-0.058,0.402-0.431,0.682-0.834,0.624c-0.402-0.058-0.682-0.431-0.624-0.833
	l1.915-13.336c0.058-0.402,0.431-0.681,0.834-0.623C-199.87,82.669-199.59,83.041-199.648,83.444 M-206.465,97.519
	c-0.407,0.003-0.74-0.324-0.742-0.73l-0.106-13.472c-0.003-0.407,0.324-0.739,0.73-0.742c0.408-0.003,0.74,0.324,0.743,0.731
	l0.105,13.471C-205.732,97.184-206.059,97.516-206.465,97.519 M-210.536,97.466c-0.401,0.064-0.779-0.209-0.842-0.61l-2.124-13.304
	c-0.064-0.402,0.209-0.779,0.612-0.843c0.401-0.064,0.778,0.209,0.842,0.611l2.123,13.303
	C-209.861,97.025-210.134,97.402-210.536,97.466 M-196.753,81.058c-0.141-0.169-0.353-0.266-0.573-0.264l-18.538,0.144
	c-0.22,0.002-0.429,0.101-0.568,0.272c-0.14,0.17-0.196,0.393-0.155,0.609l3.092,16.141c0.068,0.351,0.376,0.605,0.734,0.602
	l12.497-0.098c0.356-0.002,0.66-0.258,0.724-0.608l2.949-16.188C-196.551,81.452-196.612,81.227-196.753,81.058"/>
<path class="st8" d="M-199.648,83.444l-1.915,13.335c-0.058,0.402-0.431,0.682-0.834,0.624c-0.402-0.058-0.682-0.431-0.624-0.833
	l1.915-13.336c0.058-0.402,0.431-0.681,0.834-0.623C-199.87,82.669-199.59,83.041-199.648,83.444z M-206.465,97.519
	c-0.407,0.003-0.74-0.324-0.742-0.73l-0.106-13.472c-0.003-0.407,0.324-0.739,0.73-0.742c0.408-0.003,0.74,0.324,0.743,0.731
	l0.105,13.471C-205.732,97.184-206.059,97.516-206.465,97.519z M-210.536,97.466c-0.401,0.064-0.779-0.209-0.842-0.61l-2.124-13.304
	c-0.064-0.402,0.209-0.779,0.612-0.843c0.401-0.064,0.778,0.209,0.842,0.611l2.123,13.303
	C-209.861,97.025-210.134,97.402-210.536,97.466z M-196.753,81.058c-0.141-0.169-0.353-0.266-0.573-0.264l-18.538,0.144
	c-0.22,0.002-0.429,0.101-0.568,0.272c-0.14,0.17-0.196,0.393-0.155,0.609l3.092,16.141c0.068,0.351,0.376,0.605,0.734,0.602
	l12.497-0.098c0.356-0.002,0.66-0.258,0.724-0.608l2.949-16.188C-196.551,81.452-196.612,81.227-196.753,81.058z"/>
<path class="st5" d="M-209.441,76.45L-209.441,76.45l-0.004-0.421l5.49-0.043l0.004,0.421L-209.441,76.45z M-195.704,77.86
	L-195.704,77.86l-2.025,0.016l-0.009-1.171c-0.001-0.091-0.038-0.18-0.103-0.244c-0.065-0.064-0.155-0.1-0.246-0.1l-4.467,0.035
	l-0.009-1.12c-0.002-0.184-0.077-0.363-0.209-0.492c-0.131-0.13-0.311-0.203-0.495-0.201l-6.887,0.054
	c-0.183,0.001-0.363,0.077-0.492,0.208c-0.129,0.131-0.202,0.312-0.2,0.496l0.009,1.12l-4.164,0.032
	c-0.091,0.001-0.18,0.039-0.243,0.104c-0.065,0.065-0.101,0.154-0.101,0.246l0.009,1.171l-2.197,0.017l0.017,2.225l21.829-0.17
	L-195.704,77.86z"/>
<path class="st8" d="M-209.441,76.45L-209.441,76.45l-0.004-0.421l5.49-0.043l0.004,0.421L-209.441,76.45z M-195.704,77.86
	L-195.704,77.86l-2.025,0.016l-0.009-1.171c-0.001-0.091-0.038-0.18-0.103-0.244c-0.065-0.064-0.155-0.1-0.246-0.1l-4.467,0.035
	l-0.009-1.12c-0.002-0.184-0.077-0.363-0.209-0.492c-0.131-0.13-0.311-0.203-0.495-0.201l-6.887,0.054
	c-0.183,0.001-0.363,0.077-0.492,0.208c-0.129,0.131-0.202,0.312-0.2,0.496l0.009,1.12l-4.164,0.032
	c-0.091,0.001-0.18,0.039-0.243,0.104c-0.065,0.065-0.101,0.154-0.101,0.246l0.009,1.171l-2.197,0.017l0.017,2.225l21.829-0.17
	L-195.704,77.86z"/>
<rect x="-217.544" y="74.572" class="st9" width="21.868" height="24"/>
<rect x="123.385" y="-66.196" class="st10" width="34.924" height="19.551"/>
<g>
	<path class="st11" d="M136.363-55.782v4.238h-0.884v-1.066c-0.416,0.702-1.222,1.132-2.354,1.132c-1.547,0-2.496-0.807-2.496-1.989
		c0-1.054,0.676-1.938,2.639-1.938h2.171v-0.416c0-1.17-0.663-1.807-1.938-1.807c-0.884,0-1.716,0.312-2.275,0.806l-0.416-0.688
		c0.689-0.585,1.703-0.924,2.782-0.924C135.362-58.435,136.363-57.55,136.363-55.782z M135.44-53.598v-1.118h-2.146
		c-1.326,0-1.755,0.52-1.755,1.222c0,0.793,0.637,1.287,1.729,1.287C134.308-52.207,135.076-52.701,135.44-53.598z"/>
	<path class="st11" d="M144.462-58.382v6.838h-0.884v-1.248c-0.481,0.832-1.365,1.313-2.458,1.313c-1.742,0-2.886-0.976-2.886-2.938
		v-3.965h0.923v3.874c0,1.456,0.754,2.197,2.054,2.197c1.43,0,2.327-0.924,2.327-2.483v-3.588H144.462z"/>
	<path class="st11" d="M145.761-52.324l0.416-0.728c0.546,0.429,1.469,0.767,2.431,0.767c1.3,0,1.833-0.441,1.833-1.118
		c0-1.78-4.433-0.377-4.433-3.081c0-1.118,0.962-1.95,2.704-1.95c0.884,0,1.846,0.247,2.418,0.638l-0.403,0.74
		c-0.598-0.416-1.313-0.585-2.015-0.585c-1.235,0-1.781,0.481-1.781,1.132c0,1.846,4.434,0.455,4.434,3.081
		c0,1.183-1.04,1.95-2.821,1.95C147.412-51.479,146.32-51.843,145.761-52.324z"/>
</g>
<polygon class="st6" points="123.635,-66.321 123.635,-46.321 123.635,-46.071 123.885,-46.071 192.734,-46.071 192.984,-46.071 
	192.984,-46.321 192.984,-66.321 192.984,-66.571 192.734,-66.571 123.885,-66.571 123.635,-66.571 "/>
<rect x="123.385" y="-66.821" class="st9" width="69.849" height="21"/>
<rect x="-281.012" y="140.51" class="st11" width="1014" height="21"/>
<path class="st3" d="M346.149,140.51c-2.209,0-4,1.791-4,4v12.382c0,2.209,1.791,4,4,4h77.131c2.209,0,4-1.791,4-4V144.51
	c0-2.209-1.791-4-4-4H346.149z"/>
<rect x="-280.762" y="140.76" class="st12" width="1013.5" height="20.5"/>
<path class="st13" d="M716.844,143.37v1.481c0,0.397,0.187,0.771,0.505,1.009l6.367,4.762c0.258,0.194,0.258,0.583,0,0.776
	l-6.367,4.762c-0.318,0.238-0.505,0.612-0.505,1.01v1.48c0,0.41,0.467,0.644,0.795,0.399l10.111-7.563
	c0.318-0.237,0.318-0.714,0-0.952l-10.11-7.562C717.311,142.726,716.844,142.961,716.844,143.37"/>
<path class="st13" d="M-265.159,158.65v-1.481c0-0.397-0.187-0.771-0.505-1.009l-6.367-4.762c-0.258-0.194-0.258-0.583,0-0.776
	l6.367-4.762c0.318-0.238,0.505-0.612,0.505-1.01v-1.48c0-0.41-0.467-0.644-0.795-0.399l-10.111,7.563
	c-0.318,0.237-0.318,0.714,0,0.952l10.11,7.562C-265.626,159.294-265.159,159.059-265.159,158.65"/>
<rect x="-281.012" y="140.51" class="st9" width="1014" height="21"/>
<rect x="774.761" y="-104.036" class="st11" width="21" height="702.123"/>
<path class="st3" d="M774.761,309.926c0,2.209,1.791,4,4,4h12.382c2.209,0,4-1.791,4-4V231.64c0-2.209-1.791-4-4-4h-12.382
	c-2.209,0-4,1.791-4,4V309.926z"/>
<rect x="775.011" y="-103.787" class="st12" width="20.5" height="701.624"/>
<path class="st13" d="M777.621-90.501h1.481c0.397,0,0.771-0.19,1.009-0.512l4.762-6.453c0.194-0.262,0.583-0.262,0.776,0
	l4.762,6.453c0.238,0.322,0.612,0.512,1.01,0.512h1.48c0.41,0,0.644-0.474,0.399-0.806l-7.563-10.248
	c-0.237-0.322-0.714-0.322-0.952,0l-7.562,10.248C776.977-90.975,777.212-90.501,777.621-90.501"/>
<path class="st13" d="M792.901,583.751h-1.481c-0.397,0-0.771,0.19-1.009,0.512l-4.762,6.453c-0.194,0.262-0.583,0.262-0.776,0
	l-4.762-6.453c-0.238-0.322-0.612-0.512-1.01-0.512h-1.48c-0.41,0-0.644,0.474-0.399,0.806l7.563,10.248
	c0.237,0.322,0.714,0.322,0.952,0l7.562-10.248C793.545,584.225,793.31,583.751,792.901,583.751"/>
<rect x="774.761" y="-104.037" class="st9" width="21" height="702.124"/>
<line class="st7" x1="53.785" y1="8.09" x2="40.768" y2="8.09"/>
<line class="st7" x1="53.785" y1="13.178" x2="40.768" y2="13.178"/>
<line class="st7" x1="53.785" y1="18.266" x2="40.768" y2="18.266"/>
<text transform="matrix(1 0 0 1 36.1972 7.959)" class="st5" style="font-family:'Montserrat-Bold'; font-size:3px;">1</text>
<text transform="matrix(1 0 0 1 36.1972 12.9746)" class="st5" style="font-family:'Montserrat-Bold'; font-size:3px;">2</text>
<text transform="matrix(1 0 0 1 36.1972 17.9902)" class="st5" style="font-family:'Montserrat-Bold'; font-size:3px;">3</text>
<polygon class="st6" points="31.741,0.5 31.741,26.5 31.741,26.75 31.991,26.75 57.991,26.75 58.241,26.75 58.241,26.5 58.241,0.5 
	58.241,0.25 57.991,0.25 31.991,0.25 31.741,0.25 "/>
<polygon class="st6" points="-30.092,0.5 -30.092,26.5 -30.092,26.75 -29.842,26.75 -3.842,26.75 -3.592,26.75 -3.592,26.5 
	-3.592,0.5 -3.592,0.25 -3.842,0.25 -29.842,0.25 -30.092,0.25 "/>
<g>
	<polygon class="st6" points="0.25,0.5 0.25,26.5 0.25,26.75 0.5,26.75 26.5,26.75 26.75,26.75 26.75,26.5 26.75,0.5 26.75,0.25 
		26.5,0.25 0.5,0.25 0.25,0.25 	"/>
	<path class="st7" d="M21.782,18.625H8.766 M21.782,13.492H8.766 M21.782,8.36H8.766"/>
	<path class="st5" d="M6.68,14.077c0.161-0.156,0.241-0.349,0.241-0.581c0-0.15-0.037-0.288-0.11-0.414
		c-0.073-0.125-0.172-0.224-0.297-0.297c-0.126-0.073-0.264-0.11-0.415-0.11c-0.15,0-0.288,0.037-0.41,0.11
		c-0.122,0.073-0.221,0.172-0.294,0.297c-0.072,0.126-0.11,0.264-0.11,0.414c0,0.232,0.08,0.425,0.238,0.581
		c0.157,0.156,0.35,0.234,0.576,0.234C6.326,14.311,6.519,14.233,6.68,14.077"/>
	<path class="st5" d="M6.103,9.442c0.489,0,0.885-0.396,0.885-0.885c0-0.488-0.396-0.885-0.885-0.885
		c-0.488,0-0.885,0.397-0.885,0.885C5.218,9.046,5.615,9.442,6.103,9.442"/>
	<path class="st5" d="M6.68,19.094c0.161-0.156,0.241-0.349,0.241-0.581c0-0.15-0.037-0.288-0.11-0.414
		c-0.073-0.125-0.172-0.224-0.297-0.297c-0.126-0.073-0.264-0.11-0.415-0.11c-0.15,0-0.288,0.037-0.41,0.11
		c-0.122,0.073-0.221,0.172-0.294,0.297c-0.072,0.126-0.11,0.264-0.11,0.414c0,0.232,0.08,0.425,0.238,0.581
		c0.157,0.156,0.35,0.234,0.576,0.234C6.326,19.328,6.519,19.25,6.68,19.094"/>
</g>
<path class="st7" d="M-8.56,18.632h-13.016 M-8.56,13.499h-13.016 M-8.56,8.367h-13.016"/>
<rect x="-25.124" y="7.598" class="st5" width="1.77" height="1.77"/>
<rect x="-25.124" y="12.614" class="st5" width="1.77" height="1.77"/>
<rect x="-25.124" y="17.632" class="st5" width="1.77" height="1.77"/>
<rect x="313.398" y="-67.289" class="st2" width="245" height="57.75"/>
<text transform="matrix(1 0 0 1 388.0957 -41.0939)"><tspan x="0" y="0" class="st5" style="font-family:'Montserrat-Regular'; font-size:13px;">N</tspan><tspan x="10.478" y="0" class="st5" style="font-family:'Montserrat-Regular'; font-size:13px;">e</tspan><tspan x="18.135" y="0" class="st5" style="font-family:'Montserrat-Regular'; font-size:13px;">u</tspan><tspan x="26.753" y="0" class="st5" style="font-family:'Montserrat-Regular'; font-size:13px;">e </tspan><tspan x="38.011" y="0" class="st5" style="font-family:'Montserrat-Regular'; font-size:13px; letter-spacing:-1;">T</tspan><tspan x="44.381" y="0" class="st5" style="font-family:'Montserrat-Regular'; font-size:13px;">e</tspan><tspan x="51.882" y="0" class="st5" style="font-family:'Montserrat-Regular'; font-size:13px;">x</tspan><tspan x="59.097" y="0" class="st5" style="font-family:'Montserrat-Regular'; font-size:13px;">t</tspan><tspan x="64.128" y="0" class="st5" style="font-family:'Montserrat-Regular'; font-size:13px;">b</tspan><tspan x="72.942" y="0" class="st5" style="font-family:'Montserrat-Regular'; font-size:13px;">o</tspan><tspan x="80.742" y="0" class="st5" style="font-family:'Montserrat-Regular'; font-size:13px;">x </tspan></text>
<path class="st14" d="M435.898-19.331c3.707,0,6.713-3.005,6.713-6.712c0-3.708-3.006-6.713-6.713-6.713s-6.712,3.005-6.712,6.713
	C429.186-22.336,432.191-19.331,435.898-19.331z"/>
<rect x="313.398" y="-67.289" class="st9" width="245" height="57.75"/>
<line class="st15" x1="435.898" y1="-29.577" x2="435.898" y2="-22.508"/>
<line class="st15" x1="432.364" y1="-26.012" x2="439.432" y2="-26.012"/>
<path class="st14" d="M324.937,20.505c3.707,0,6.713-3.005,6.713-6.712c0-3.708-3.006-6.713-6.713-6.713s-6.712,3.005-6.712,6.713
	C318.225,17.5,321.23,20.505,324.937,20.505z"/>
<line class="st15" x1="324.937" y1="10.258" x2="324.937" y2="17.327"/>
<line class="st15" x1="321.402" y1="13.824" x2="328.47" y2="13.824"/>
<g>
	<path class="st16" d="M-170.956,35.64h-3.138v-1.85h8.544v1.85h-3.138v7.956h-2.269V35.64z"/>
	<path class="st16" d="M-164.335,33.79h2.269v9.806h-2.269V33.79z"/>
	<path class="st16" d="M-151.241,37.349c0,2.185-1.639,3.544-4.258,3.544h-1.975v2.703h-2.269V33.79h4.244
		C-152.88,33.79-151.241,35.15-151.241,37.349z M-153.538,37.349c0-1.079-0.701-1.709-2.087-1.709h-1.849v3.403h1.849
		C-154.238,39.043-153.538,38.413-153.538,37.349z"/>
	<path class="st16" d="M-141.119,37.349c0,2.185-1.639,3.544-4.258,3.544h-1.975v2.703h-2.269V33.79h4.244
		C-142.757,33.79-141.119,35.15-141.119,37.349z M-143.416,37.349c0-1.079-0.701-1.709-2.087-1.709h-1.849v3.403h1.849
		C-144.116,39.043-143.416,38.413-143.416,37.349z"/>
</g>
<path class="st16" d="M-207.583,29.319L-207.583,29.319c-1.054,2.474-1.96,4.602-2.889,6.784h5.729
	C-205.687,33.847-206.569,31.739-207.583,29.319 M-204.09,46.909L-204.09,46.909c-0.346-1.15-0.211-1.759,1.044-1.8
	c0.976-0.033,1.343-0.74,1.02-1.64c-0.507-1.414-1.072-2.81-1.681-4.183c-0.109-0.245-0.55-0.478-0.843-0.484
	c-2.129-0.041-4.261-0.046-6.39,0.005c-0.305,0.008-0.741,0.315-0.877,0.599c-0.558,1.155-1.057,2.342-1.512,3.542
	c-0.57,1.504-0.268,2.026,1.348,2.192c0.783,0.081,1.206,0.319,1.022,1.126c-0.056,0.243-0.355,0.61-0.547,0.613
	c-2.524,0.042-5.049,0.028-7.596,0.028c-0.214-0.956-0.321-1.631,0.868-1.885c0.569-0.122,1.219-0.609,1.515-1.117
	c0.755-1.293,1.377-2.67,1.972-4.049c2.401-5.559,4.761-11.135,7.172-16.689c0.173-0.398,0.634-0.67,0.96-1
	c0.319,0.343,0.766,0.632,0.937,1.037c2.56,6.048,5.079,12.114,7.622,18.17c0.326,0.776,0.705,1.534,1.106,2.275
	c0.507,0.939,1.332,1.389,2.379,1.595c0.265,0.052,0.519,0.638,0.586,1.013c0.032,0.175-0.39,0.621-0.611,0.624
	C-197.748,46.922-200.901,46.909-204.09,46.909"/>
<path class="st5" d="M-110.345,39.371c2.682-0.014,4.762-2.036,4.751-4.621c-0.01-2.367-2.203-4.406-4.733-4.399
	c-2.703,0.008-4.848,2.038-4.825,4.568C-115.129,37.383-112.969,39.384-110.345,39.371 M-104.79,39.384L-104.79,39.384
	c0.393-0.231,0.569-0.207,0.91,0.115c1.249,1.181,2.501,2.361,3.751,3.541c0.086,0.08,0.173,0.159,0.252,0.246
	c0.216,0.237,0.217,0.464-0.012,0.692c-0.249,0.248-0.509,0.488-0.767,0.727c-0.302,0.28-0.548,0.287-0.855,0
	c-1.177-1.103-2.348-2.211-3.522-3.318c-0.132-0.124-0.263-0.25-0.396-0.373c-0.368-0.34-0.394-0.487-0.153-0.896
	c-0.368-0.336-0.737-0.673-1.128-1.029c-1.472,1.07-3.153,1.471-5.011,1.06c-1.415-0.313-2.544-1.054-3.377-2.178
	c-1.65-2.23-1.286-5.335,0.823-7.11c2.222-1.87,5.521-1.904,7.68-0.117c2.217,1.835,2.765,5.106,0.696,7.583
	C-105.529,38.68-105.16,39.031-104.79,39.384"/>
<path class="st17" d="M-110.345,39.371c2.682-0.014,4.762-2.036,4.751-4.621c-0.01-2.367-2.203-4.406-4.733-4.399
	c-2.703,0.008-4.848,2.038-4.825,4.568C-115.129,37.383-112.969,39.384-110.345,39.371z M-104.79,39.384L-104.79,39.384
	c0.393-0.231,0.569-0.207,0.91,0.115c1.249,1.181,2.501,2.361,3.751,3.541c0.086,0.08,0.173,0.159,0.252,0.246
	c0.216,0.237,0.217,0.464-0.012,0.692c-0.249,0.248-0.509,0.488-0.767,0.727c-0.302,0.28-0.548,0.287-0.855,0
	c-1.177-1.103-2.348-2.211-3.522-3.318c-0.132-0.124-0.263-0.25-0.396-0.373c-0.368-0.34-0.394-0.487-0.153-0.896
	c-0.368-0.336-0.737-0.673-1.128-1.029c-1.472,1.07-3.153,1.471-5.011,1.06c-1.415-0.313-2.544-1.054-3.377-2.178
	c-1.65-2.23-1.286-5.335,0.823-7.11c2.222-1.87,5.521-1.904,7.68-0.117c2.217,1.835,2.765,5.106,0.696,7.583
	C-105.529,38.68-105.16,39.031-104.79,39.384z"/>
<path class="st5" d="M-46.631,29.79l2.966,2.98v-2.758c0-0.096-0.055-0.229-0.123-0.297l-3.807-3.826
	c-0.068-0.067-0.178-0.067-0.245,0l-3.93,3.949v2.758c0,0.096,0.055,0.119,0.122,0.051l2.844-2.857
	c0.068-0.068,0.122-0.046,0.122,0.05v7.829h0v2.168c0,0.096-0.055,0.118-0.123,0.05l-2.966-2.98v2.758
	c0,0.096,0.055,0.229,0.123,0.297l3.807,3.826c0.068,0.067,0.178,0.067,0.245,0l3.93-3.949v-2.758c0-0.096-0.055-0.119-0.122-0.051
	l-2.844,2.857c-0.068,0.068-0.122,0.046-0.122-0.05v-7.829h0V29.84C-46.754,29.744-46.699,29.722-46.631,29.79z"/>
<line class="st18" x1="-82.77" y1="43.027" x2="-54.937" y2="43.027"/>
<line class="st18" x1="-82.77" y1="34.731" x2="-54.937" y2="34.731"/>
<line class="st18" x1="-82.77" y1="26.738" x2="-54.937" y2="26.738"/>
<line class="st18" x1="-68.428" y1="61.998" x2="-68.428" y2="82.998"/>
<path class="st5" d="M-60.968,75.841L-60.968,75.841h2.695l-2.603-2.569c-0.138-0.135-0.093-0.245,0.101-0.245h7.006V71.62
	c0-0.193-0.157-0.35-0.35-0.35h-6.656c-0.194,0-0.239-0.11-0.101-0.246l2.603-2.569h-2.345c-0.193,0-0.462,0.111-0.599,0.246
	l-3.245,3.201c-0.137,0.136-0.137,0.356,0,0.492L-60.968,75.841z"/>
<path class="st5" d="M-76.738,68.63L-76.738,68.63h-2.695l2.603,2.569c0.138,0.135,0.093,0.245-0.101,0.245h-7.006v1.407
	c0,0.193,0.157,0.35,0.35,0.35h6.656c0.194,0,0.239,0.11,0.101,0.246l-2.603,2.569h2.345c0.193,0,0.462-0.111,0.599-0.246
	l3.245-3.201c0.137-0.136,0.137-0.356,0-0.492L-76.738,68.63z"/>
<line class="st19" x1="247.858" y1="-57.115" x2="211.835" y2="-57.115"/>
<path class="st20" d="M239.355-53.969c2.045,0,3.703-1.658,3.703-3.703c0-2.045-1.658-3.703-3.703-3.703s-3.703,1.658-3.703,3.703
	C235.652-55.627,237.31-53.969,239.355-53.969"/>
<g>
	<path class="st5" d="M262.554-56.914c0,3.12-1.82,4.836-4.459,4.836c-0.91,0-1.781-0.195-2.392-0.585l0.624-1.274
		c0.494,0.325,1.092,0.442,1.729,0.442c1.716,0,2.795-1.066,2.795-3.133v-0.014c-0.546,0.638-1.417,0.949-2.431,0.949
		c-1.794,0-3.133-1.092-3.133-2.795c0-1.807,1.469-2.951,3.328-2.951C261.098-61.438,262.554-59.839,262.554-56.914z
		 M260.591-58.578c0-0.858-0.676-1.534-1.885-1.534c-1.053,0-1.781,0.598-1.781,1.547s0.715,1.547,1.82,1.547
		C259.837-57.018,260.591-57.681,260.591-58.578z"/>
	<path class="st5" d="M270.419-55.003c0,1.599-1.157,2.925-3.602,2.925c-1.287,0-2.587-0.39-3.419-1.053l0.715-1.313
		c0.663,0.546,1.651,0.897,2.678,0.897c1.209,0,1.924-0.533,1.924-1.392c0-0.871-0.559-1.417-2.444-1.417h-2.197l0.468-4.953h5.343
		v1.417h-3.913l-0.195,2.106h0.871C269.34-57.785,270.419-56.615,270.419-55.003z"/>
	<path class="st5" d="M274.839-58.903c0-1.495,0.871-2.496,2.171-2.496s2.184,0.988,2.184,2.496s-0.884,2.496-2.184,2.496
		S274.839-57.408,274.839-58.903z M278.128-58.903c0-1.014-0.416-1.586-1.118-1.586c-0.676,0-1.118,0.585-1.118,1.586
		s0.442,1.586,1.118,1.586C277.712-57.317,278.128-57.889,278.128-58.903z M282.47-61.308h1.274l-6.214,9.101h-1.274L282.47-61.308z
		 M280.806-54.613c0-1.495,0.871-2.496,2.171-2.496c1.3,0,2.184,1.001,2.184,2.496s-0.884,2.496-2.184,2.496
		C281.677-52.117,280.806-53.118,280.806-54.613z M284.095-54.613c0-1.001-0.429-1.586-1.118-1.586s-1.118,0.572-1.118,1.586
		c0,1.015,0.429,1.586,1.118,1.586S284.095-53.612,284.095-54.613z"/>
</g>
<rect x="225.795" y="-2.972" class="st11" width="13.149" height="16.764"/>
<polygon class="st21" points="225.795,13.792 225.795,13.792 238.944,13.792 238.944,-2.972 225.795,-2.972 "/>
<rect x="218.123" y="-3.443" class="st9" width="21.291" height="24"/>
<line class="st22" x1="222.621" y1="4.723" x2="222.621" y2="15.11"/>
<line class="st23" x1="225.252" y1="16.999" x2="234.901" y2="16.999"/>
<path class="st21" d="M235.778,16.999h0.877 M222.621,16.055v0.944h0.877 M222.621,1.89v0.944"/>
<polyline class="st21" points="218.594,4.979 218.594,20.087 232.628,20.087 "/>
<rect x="218.123" y="-3.443" class="st9" width="21.291" height="24"/>
<rect x="257.369" y="-3.041" class="st11" width="14.674" height="18.705"/>
<polygon class="st24" points="257.369,15.664 257.369,15.664 272.042,15.664 272.042,-3.041 257.369,-3.041 "/>
<rect x="256.967" y="-3.443" class="st9" width="19.884" height="24"/>
<rect x="261.776" y="1.45" class="st5" width="14.674" height="18.705"/>
<polygon class="st25" points="261.776,20.155 261.776,20.155 276.449,20.155 276.449,1.45 261.776,1.45 "/>
<rect x="256.967" y="-3.443" class="st9" width="19.884" height="24"/>
<rect x="158.476" y="0.506" class="st10" width="34.924" height="19.551"/>
<text transform="matrix(1 0 0 1 165.4767 15.1576)"><tspan x="0" y="0" class="st11" style="font-family:'Montserrat-Regular'; font-size:13px;">e</tspan><tspan x="7.41" y="0" class="st11" style="font-family:'Montserrat-Regular'; font-size:13px;">i</tspan><tspan x="10.335" y="0" class="st11" style="font-family:'Montserrat-Regular'; font-size:13px;">n</tspan></text>
<polygon class="st6" points="123.468,0.381 123.468,20.381 123.468,20.631 123.718,20.631 192.567,20.631 192.817,20.631 
	192.817,20.381 192.817,0.381 192.817,0.131 192.567,0.131 123.718,0.131 123.468,0.131 "/>
<rect x="123.218" y="-0.119" class="st9" width="70.183" height="21"/>
<line class="st26" x1="264.532" y1="90.02" x2="264.532" y2="114.28"/>
<path class="st5" d="M272.63,105.839L272.63,105.839h2.592l-2.494-2.46c-0.138-0.135-0.093-0.245,0.101-0.245h6.725v-1.339
	c0-0.193-0.157-0.35-0.35-0.35h-6.725l2.743-2.705h-2.242c-0.193,0-0.462,0.11-0.599,0.245l-3.102,3.059
	c-0.137,0.135-0.137,0.355,0,0.491L272.63,105.839z"/>
<line class="st26" x1="237.587" y1="114.113" x2="237.587" y2="89.853"/>
<path class="st5" d="M229.49,98.295L229.49,98.295h-2.592l2.494,2.46c0.138,0.135,0.093,0.245-0.101,0.245h-6.725v1.339
	c0,0.193,0.157,0.35,0.35,0.35h6.725l-2.743,2.705h2.242c0.193,0,0.462-0.11,0.599-0.245l3.102-3.059
	c0.137-0.135,0.137-0.355,0-0.491L229.49,98.295z"/>
<line class="st26" x1="47.845" y1="97.892" x2="72.105" y2="97.892"/>
<path class="st5" d="M63.496,89.834L63.496,89.834v-2.592l-2.46,2.494c-0.135,0.138-0.245,0.093-0.245-0.101V82.91h-1.339
	c-0.193,0-0.35,0.157-0.35,0.35v6.725l-2.705-2.743v2.242c0,0.193,0.11,0.462,0.245,0.599l3.059,3.102
	c0.135,0.137,0.355,0.137,0.491,0L63.496,89.834z"/>
<path class="st5" d="M56.564,104.986L56.564,104.986v2.592l2.46-2.494c0.135-0.138,0.245-0.093,0.245,0.101v6.725h1.339
	c0.193,0,0.35-0.157,0.35-0.35v-6.725l2.705,2.743v-2.242c0-0.193-0.11-0.462-0.245-0.599l-3.059-3.102
	c-0.135-0.137-0.355-0.137-0.491,0L56.564,104.986z"/>
<line class="st26" x1="104.291" y1="110.702" x2="104.291" y2="86.442"/>
<path class="st5" d="M96.234,95.051L96.234,95.051h-2.592l2.494,2.46c0.138,0.135,0.093,0.245-0.101,0.245H89.31v1.339
	c0,0.193,0.157,0.35,0.35,0.35h6.725l-2.743,2.705h2.242c0.193,0,0.462-0.11,0.599-0.245l3.102-3.059
	c0.137-0.135,0.137-0.355,0-0.491L96.234,95.051z"/>
<path class="st5" d="M111.386,101.983L111.386,101.983h2.592l-2.494-2.46c-0.138-0.135-0.093-0.245,0.101-0.245h6.725v-1.339
	c0-0.193-0.157-0.35-0.35-0.35h-6.725l2.743-2.705h-2.242c-0.193,0-0.462,0.11-0.599,0.245l-3.102,3.059
	c-0.137,0.135-0.137,0.355,0,0.491L111.386,101.983z"/>
<line class="st26" x1="136.433" y1="98.175" x2="160.693" y2="98.175"/>
<path class="st5" d="M145.152,105.269L145.152,105.269v2.592l2.46-2.494c0.135-0.138,0.245-0.093,0.245,0.101v6.725h1.339
	c0.193,0,0.35-0.157,0.35-0.35v-6.725l2.705,2.743v-2.242c0-0.193-0.11-0.462-0.245-0.599l-3.059-3.102
	c-0.135-0.137-0.355-0.137-0.491,0L145.152,105.269z"/>
<line class="st26" x1="181.544" y1="109.43" x2="205.804" y2="109.43"/>
<path class="st5" d="M197.363,101.042L197.363,101.042V98.45l-2.46,2.494c-0.135,0.138-0.245,0.093-0.245-0.101v-6.725h-1.339
	c-0.193,0-0.35,0.157-0.35,0.35v6.725l-2.705-2.743v2.242c0,0.193,0.11,0.462,0.245,0.599l3.059,3.102
	c0.135,0.137,0.355,0.137,0.491,0L197.363,101.042z"/>
<rect x="327.408" y="82.504" class="st11" width="15.769" height="20.056"/>
<line class="st27" x1="330.365" y1="102.561" x2="341.206" y2="102.561"/>
<line class="st28" x1="343.177" y1="99.552" x2="343.177" y2="84.51"/>
<line class="st27" x1="340.22" y1="82.504" x2="329.379" y2="82.504"/>
<line class="st28" x1="327.408" y1="85.513" x2="327.408" y2="100.555"/>
<path class="st21" d="M327.407,101.558v1.003h0.986 M328.393,82.505h-0.986v1.003 M343.176,83.508v-1.003h-0.985 M342.191,102.561
	h0.985v-1.003"/>
<polygon class="st11" points="316.172,112.561 316.172,112.561 331.941,112.561 331.941,92.505 316.172,92.505 "/>
<line class="st27" x1="319.129" y1="112.561" x2="329.97" y2="112.561"/>
<line class="st28" x1="331.941" y1="109.552" x2="331.941" y2="94.51"/>
<line class="st27" x1="328.984" y1="92.504" x2="318.143" y2="92.504"/>
<line class="st28" x1="316.172" y1="95.513" x2="316.172" y2="110.555"/>
<path class="st21" d="M316.171,111.558v1.003h0.986 M317.157,92.505h-0.986v1.003 M331.94,93.508v-1.003h-0.985 M330.955,112.561
	h0.985v-1.003"/>
<polygon class="st11" points="306.698,120.561 306.698,120.561 322.467,120.561 322.467,100.505 306.698,100.505 "/>
<polygon class="st21" points="306.698,120.561 306.698,120.561 322.467,120.561 322.467,100.505 306.698,100.505 "/>
<g>
	<polygon class="st11" points="380.534,106.866 380.534,106.866 396.303,106.866 396.303,86.81 380.534,86.81 	"/>
	<polygon class="st21" points="380.534,106.866 380.534,106.866 396.303,106.866 396.303,86.81 380.534,86.81 	"/>
	<line class="st29" x1="376.77" y1="95.365" x2="376.77" y2="108.869"/>
	<line class="st30" x1="379.907" y1="110.67" x2="391.41" y2="110.67"/>
	<path class="st21" d="M392.455,110.669h1.046 M376.77,109.769v0.9h1.046 M376.77,92.664v0.9"/>
</g>
<g>
	<g>
		<rect x="453.074" y="75.09" class="st11" width="15.769" height="20.056"/>
		<polygon class="st21" points="453.074,95.146 453.074,95.146 468.843,95.146 468.843,75.09 453.074,75.09 		"/>
		<polygon class="st11" points="441.838,105.146 441.838,105.146 457.607,105.146 457.607,85.09 441.838,85.09 		"/>
		<line class="st27" x1="444.795" y1="105.146" x2="455.636" y2="105.146"/>
		<line class="st28" x1="457.607" y1="102.137" x2="457.607" y2="87.095"/>
		<line class="st27" x1="454.65" y1="85.09" x2="443.809" y2="85.09"/>
		<line class="st28" x1="441.838" y1="88.098" x2="441.838" y2="103.14"/>
		<path class="st21" d="M441.837,104.143v1.003h0.986 M442.823,85.09h-0.986v1.003 M457.606,86.093V85.09h-0.985 M456.621,105.146
			h0.985v-1.003"/>
		<polygon class="st11" points="432.364,113.146 432.364,113.146 448.133,113.146 448.133,93.09 432.364,93.09 		"/>
		<line class="st27" x1="435.321" y1="113.146" x2="446.162" y2="113.146"/>
		<line class="st28" x1="448.133" y1="110.137" x2="448.133" y2="95.095"/>
		<line class="st27" x1="445.177" y1="93.09" x2="434.336" y2="93.09"/>
		<line class="st28" x1="432.364" y1="96.098" x2="432.364" y2="111.14"/>
		<path class="st21" d="M432.364,112.143v1.003h0.986 M433.35,93.09h-0.986v1.003 M448.133,94.093V93.09h-0.985 M447.148,113.146
			h0.985v-1.003"/>
	</g>
	<line class="st27" x1="508.488" y1="108.631" x2="519.329" y2="108.631"/>
	<line class="st28" x1="521.3" y1="105.623" x2="521.3" y2="90.581"/>
	<line class="st27" x1="518.343" y1="88.575" x2="507.502" y2="88.575"/>
	<line class="st28" x1="505.531" y1="91.583" x2="505.531" y2="106.625"/>
	<path class="st21" d="M505.53,107.628v1.003h0.986 M506.516,88.575h-0.986v1.003 M521.299,89.578v-1.003h-0.985 M520.314,108.631
		h0.985v-1.003"/>
	<polyline class="st21" points="501.766,94.429 501.766,112.434 518.497,112.434 	"/>
</g>
<g>
	<defs>
		<rect id="SVGID_1_" x="-253.508" y="202.467" width="241.682" height="1"/>
	</defs>
	<clipPath id="SVGID_00000131332946154039242660000018166929351132656548_">
		<use xlink:href="#SVGID_1_"  style="overflow:visible;"/>
	</clipPath>
	
		<line style="clip-path:url(#SVGID_00000131332946154039242660000018166929351132656548_);fill:none;stroke:#B2B2B2;stroke-linecap:round;stroke-linejoin:round;stroke-dasharray:0,3.009;" x1="-250" y1="202.967" x2="-13.83" y2="202.967"/>
	
		<path style="clip-path:url(#SVGID_00000131332946154039242660000018166929351132656548_);fill:none;stroke:#B2B2B2;stroke-linecap:round;stroke-linejoin:round;" d="
		M-12.326,202.967L-12.326,202.967 M-253.008,202.967L-253.008,202.967"/>
</g>
<circle class="st33" cx="-206.61" cy="-18.244" r="12.75"/>
<polygon class="st3" points="-63.217,-33.268 -76.217,-33.268 -69.849,-22.793 "/>
<polygon class="st5" points="-55.194,95.274 -65.669,101.642 -55.194,108.274 "/>
<polygon class="st5" points="-84.241,108.274 -73.766,101.906 -84.241,95.274 "/>
<polygon class="st5" points="-1.688,95.274 -12.163,101.642 -1.688,108.274 "/>
<polygon class="st5" points="-36.864,108.274 -26.389,101.906 -36.864,95.274 "/>
<rect x="123.385" y="-33.257" class="st10" width="34.924" height="19.551"/>
<polygon class="st6" points="123.635,-33.382 123.635,-13.382 123.635,-13.132 123.885,-13.132 192.734,-13.132 192.984,-13.132 
	192.984,-13.382 192.984,-33.382 192.984,-33.632 192.734,-33.632 123.885,-33.632 123.635,-33.632 "/>
<rect x="123.385" y="-33.882" class="st9" width="69.849" height="21"/>
<rect x="158.749" y="32.772" class="st10" width="34.924" height="19.551"/>
<polygon class="st6" points="123.741,32.647 123.741,52.647 123.741,52.897 123.991,52.897 192.84,52.897 193.09,52.897 
	193.09,52.647 193.09,32.647 193.09,32.397 192.84,32.397 123.991,32.397 123.741,32.397 "/>
<rect x="123.491" y="32.147" class="st9" width="70.183" height="21"/>
<line class="st19" x1="246.78" y1="-37.327" x2="210.757" y2="-37.327"/>
<path class="st20" d="M238.277-34.181c2.045,0,3.703-1.658,3.703-3.703c0-2.045-1.658-3.703-3.703-3.703s-3.703,1.658-3.703,3.703
	C234.574-35.839,236.232-34.181,238.277-34.181"/>
<line class="st19" x1="555.105" y1="-6.548" x2="519.082" y2="-6.548"/>
<path class="st20" d="M546.602-3.402c2.045,0,3.703-1.658,3.703-3.703s-1.658-3.703-3.703-3.703c-2.045,0-3.703,1.658-3.703,3.703
	S544.557-3.402,546.602-3.402"/>
</svg>
