<?xml version="1.0" encoding="utf-8"?>
<!-- Generator: Adobe Illustrator 26.0.3, SVG Export Plug-In . SVG Version: 6.00 Build 0)  -->
<svg version="1.1" id="Ebene_1" xmlns="http://www.w3.org/2000/svg" xmlns:xlink="http://www.w3.org/1999/xlink" x="0px" y="0px"
	 width="26px" height="26px" viewBox="0 0 26 26" style="enable-background:new 0 0 26 26;" xml:space="preserve">
<style type="text/css">
	.st0{fill:none;stroke:#C5C5C5;stroke-width:3;stroke-linecap:round;stroke-linejoin:round;}
	.st1{fill:#FFAEFF;stroke:#4F4D4D;stroke-width:0.5;}
	.st2{fill:#F8F8F8;}
	.st3{fill:#0E689A;}
	.st4{fill:#B2B1B1;}
	.st5{fill:none;stroke:#B2B1B1;stroke-width:0.65;stroke-miterlimit:10;}
	.st6{fill:none;stroke:#B2B2B2;stroke-width:0.5;stroke-miterlimit:10;}
	.st7{fill:none;stroke:#B2B1B1;stroke-width:0.3;stroke-miterlimit:10;}
	.st8{fill:none;stroke:#FFFFFF;stroke-width:0.021;}
	.st9{fill:none;}
	.st10{fill:#0E6899;}
	.st11{fill:#FFFFFF;}
	.st12{fill:none;stroke:#C5C5C5;stroke-width:0.5;stroke-linecap:round;stroke-linejoin:round;}
	.st13{fill:#C5C5C5;}
	.st14{fill:none;stroke:#B2B1B1;stroke-width:0.5;}
	.st15{fill:none;stroke:#B2B1B1;stroke-width:1.2;}
	.st16{fill:#B2B2B2;}
	.st17{fill:none;stroke:#FFFFFF;stroke-width:0.001;}
	.st18{fill:none;stroke:#B2B1B1;stroke-width:1.712;}
	.st19{fill:none;stroke:#B2B1B1;stroke-width:2;}
	.st20{fill:#AD5E7A;}
	.st21{fill:none;stroke:#B2B1B1;stroke-width:0.941;}
	.st22{fill:none;stroke:#B2B1B1;stroke-width:0.941;stroke-dasharray:1.889,1.889;}
	.st23{fill:none;stroke:#B2B1B1;stroke-width:0.941;stroke-dasharray:1.754,1.754;}
	.st24{fill:none;stroke:#B2B1B1;stroke-width:0.804;}
	.st25{fill:none;stroke:#FFFFFF;stroke-width:0.804;}
	.st26{fill:none;stroke:#B2B1B1;stroke-width:2.5;}
	.st27{fill:none;stroke:#B2B1B1;stroke-width:0.941;stroke-dasharray:1.971,1.971;}
	.st28{fill:none;stroke:#B2B1B1;stroke-width:0.941;stroke-dasharray:2.006,2.006;}
	.st29{fill:none;stroke:#B2B1B1;stroke-width:0.941;stroke-dasharray:1.801,1.801;}
	.st30{fill:none;stroke:#B2B1B1;stroke-width:0.941;stroke-dasharray:2.091,2.091;}
	
		.st31{clip-path:url(#SVGID_00000036961493633926294710000007319627074780519574_);fill:none;stroke:#B2B2B2;stroke-linecap:round;stroke-linejoin:round;stroke-dasharray:0,3.009;}
	
		.st32{clip-path:url(#SVGID_00000036961493633926294710000007319627074780519574_);fill:none;stroke:#B2B2B2;stroke-linecap:round;stroke-linejoin:round;}
	.st33{fill:none;stroke:#4F4D4D;stroke-width:0.5;}
</style>
<polyline class="st0" points="2004.893,975.749 1998.643,966.749 1991.893,975.749 "/>
<circle class="st1" cx="13" cy="13" r="12.75"/>
<rect x="45.461" y="1.985" class="st2" width="119.902" height="21"/>
<polygon class="st3" points="156.29,7.248 143.29,7.248 149.658,17.723 "/>
<g>
	<path class="st4" d="M239.84,9.379h1.3l-1.82,9.101h-1.3L239.84,9.379z"/>
</g>
<g>
	<line class="st5" x1="269.302" y1="19.506" x2="279.585" y2="19.506"/>
	<g>
		<path class="st4" d="M270.59,14.28V9.105h1.3v5.122c0,2.016,0.923,2.926,2.561,2.926c1.638,0,2.574-0.91,2.574-2.926V9.105h1.261
			v5.175c0,2.639-1.443,4.029-3.848,4.029C272.046,18.309,270.59,16.919,270.59,14.28z"/>
	</g>
</g>
<g>
	<path class="st4" d="M206.692,16.048c0,1.573-1.248,2.483-3.64,2.483h-4.706V9.431h4.446c2.275,0,3.445,0.949,3.445,2.366
		c0,0.91-0.468,1.612-1.209,2.002C206.042,14.124,206.692,14.904,206.692,16.048z M200.439,11.017v2.146h2.093
		c1.027,0,1.586-0.364,1.586-1.079s-0.559-1.066-1.586-1.066H200.439z M204.572,15.827c0-0.767-0.585-1.131-1.677-1.131h-2.457
		v2.249h2.457C203.987,16.945,204.572,16.607,204.572,15.827z"/>
</g>
<polygon class="st6" points="261.194,1.305 261.194,27.305 261.194,27.555 261.444,27.555 287.444,27.555 287.694,27.555 
	287.694,27.305 287.694,1.305 287.694,1.055 287.444,1.055 261.444,1.055 261.194,1.055 "/>
<polygon class="st6" points="226.33,0.929 226.33,26.929 226.33,27.179 226.58,27.179 252.58,27.179 252.83,27.179 252.83,26.929 
	252.83,0.929 252.83,0.679 252.58,0.679 226.58,0.679 226.33,0.679 "/>
<polygon class="st6" points="189.268,0.981 189.268,26.981 189.268,27.231 189.518,27.231 215.518,27.231 215.768,27.231 
	215.768,26.981 215.768,0.981 215.768,0.731 215.518,0.731 189.518,0.731 189.268,0.731 "/>
<path class="st7" d="M243.456,42.935"/>
<path class="st7" d="M240.948,44.188"/>
<path class="st7" d="M240.948,45.442"/>
<path class="st7" d="M240.948,46.697"/>
<path class="st7" d="M243.456,47.951"/>
<path class="st7" d="M243.456,49.205"/>
<path class="st7" d="M240.948,50.458"/>
<path class="st7" d="M240.948,52.966"/>
<path class="st7" d="M243.456,55.474"/>
<path class="st7" d="M223.992,47.951"/>
<path class="st7" d="M223.992,42.935"/>
<path class="st7" d="M223.992,55.474"/>
<path class="st7" d="M223.992,49.205"/>
<g>
	<path class="st7" d="M226.054,50.458"/>
	<path class="st7" d="M226.054,46.697"/>
	<path class="st7" d="M226.054,45.442"/>
	<path class="st7" d="M226.054,44.188"/>
	<line class="st7" x1="223.616" y1="54.679" x2="243.08" y2="54.679"/>
	<line class="st7" x1="223.616" y1="53.404" x2="238.51" y2="53.404"/>
	<line class="st7" x1="223.616" y1="52.128" x2="238.51" y2="52.128"/>
	<line class="st7" x1="223.616" y1="50.852" x2="238.51" y2="50.852"/>
	<line class="st7" x1="223.616" y1="49.576" x2="243.08" y2="49.576"/>
	<line class="st7" x1="223.616" y1="48.3" x2="243.08" y2="48.3"/>
	<line class="st7" x1="223.69" y1="47.024" x2="238.584" y2="47.024"/>
	<line class="st7" x1="223.616" y1="45.748" x2="243.08" y2="45.748"/>
	<line class="st7" x1="223.616" y1="44.472" x2="238.51" y2="44.472"/>
	<line class="st7" x1="223.616" y1="43.196" x2="238.51" y2="43.196"/>
	<line class="st7" x1="223.616" y1="41.92" x2="243.08" y2="41.92"/>
</g>
<polygon class="st6" points="220.289,35.625 220.289,61.618 220.289,61.868 220.539,61.868 246.532,61.868 246.782,61.868 
	246.782,61.618 246.782,35.625 246.782,35.375 246.532,35.375 220.539,35.375 220.289,35.375 "/>
<g>
	<line class="st7" x1="274.337" y1="42.237" x2="254.873" y2="42.237"/>
	<line class="st7" x1="271.829" y1="43.514" x2="256.935" y2="43.514"/>
	<line class="st7" x1="271.829" y1="44.791" x2="256.935" y2="44.791"/>
	<line class="st7" x1="271.829" y1="46.068" x2="256.935" y2="46.068"/>
	<line class="st7" x1="274.337" y1="47.345" x2="254.873" y2="47.345"/>
	<line class="st7" x1="274.337" y1="48.622" x2="254.873" y2="48.622"/>
	<line class="st7" x1="271.829" y1="49.899" x2="256.935" y2="49.899"/>
	<line class="st7" x1="274.337" y1="51.176" x2="254.873" y2="51.176"/>
	<line class="st7" x1="271.829" y1="52.453" x2="256.935" y2="52.453"/>
	<line class="st7" x1="271.829" y1="53.73" x2="256.935" y2="53.73"/>
	<line class="st7" x1="274.337" y1="55.007" x2="254.873" y2="55.007"/>
</g>
<polygon class="st6" points="251.358,35.625 251.358,61.618 251.358,61.868 251.608,61.868 277.601,61.868 277.851,61.868 
	277.851,61.618 277.851,35.625 277.851,35.375 277.601,35.375 251.608,35.375 251.358,35.375 "/>
<polygon class="st6" points="282.427,35.625 282.427,61.618 282.427,61.868 282.677,61.868 308.67,61.868 308.92,61.868 
	308.92,61.618 308.92,35.625 308.92,35.375 308.67,35.375 282.677,35.375 282.427,35.375 "/>
<path class="st7" d="M285.754,54.31"/>
<path class="st7" d="M285.754,49.293"/>
<path class="st7" d="M285.754,48.04"/>
<path class="st7" d="M285.754,41.77"/>
<path class="st7" d="M303.156,46.786"/>
<path class="st7" d="M305.218,49.293"/>
<path class="st7" d="M303.156,50.547"/>
<path class="st7" d="M305.218,54.31"/>
<path class="st7" d="M305.218,41.77"/>
<path class="st7" d="M305.218,48.04"/>
<path class="st7" d="M303.156,51.802"/>
<path class="st7" d="M303.156,53.056"/>
<g>
	<path class="st7" d="M288.073,52.733"/>
	<path class="st7" d="M288.073,51.479"/>
	<path class="st7" d="M288.073,50.225"/>
	<path class="st7" d="M288.073,46.463"/>
	<path class="st7" d="M288.073,43.955"/>
	<line class="st7" x1="305.405" y1="42.243" x2="285.941" y2="42.243"/>
	<line class="st7" x1="305.405" y1="43.518" x2="290.511" y2="43.518"/>
	<line class="st7" x1="305.405" y1="44.794" x2="290.511" y2="44.794"/>
	<line class="st7" x1="305.405" y1="46.07" x2="290.511" y2="46.07"/>
	<line class="st7" x1="305.405" y1="47.346" x2="285.941" y2="47.346"/>
	<line class="st7" x1="305.405" y1="48.622" x2="285.941" y2="48.622"/>
	<line class="st7" x1="305.332" y1="49.898" x2="290.438" y2="49.898"/>
	<line class="st7" x1="305.405" y1="51.174" x2="285.941" y2="51.174"/>
	<line class="st7" x1="305.405" y1="52.45" x2="290.511" y2="52.45"/>
	<line class="st7" x1="305.405" y1="53.726" x2="290.511" y2="53.726"/>
	<line class="st7" x1="305.405" y1="55.001" x2="285.941" y2="55.001"/>
</g>
<polygon class="st6" points="189.518,35.632 189.518,61.625 189.518,61.875 189.768,61.875 215.761,61.875 216.011,61.875 
	216.011,61.625 216.011,35.632 216.011,35.382 215.761,35.382 189.768,35.382 189.518,35.382 "/>
<path class="st7" d="M212.685,42.935"/>
<path class="st7" d="M212.685,47.951"/>
<path class="st7" d="M212.685,49.205"/>
<path class="st7" d="M212.685,55.474"/>
<path class="st7" d="M195.283,50.458"/>
<path class="st7" d="M193.221,47.951"/>
<path class="st7" d="M195.283,46.697"/>
<path class="st7" d="M193.221,42.935"/>
<path class="st7" d="M193.221,55.474"/>
<path class="st7" d="M193.221,49.205"/>
<path class="st7" d="M195.283,45.442"/>
<path class="st7" d="M195.283,44.188"/>
<g>
	<path class="st7" d="M210.177,44.188"/>
	<path class="st7" d="M210.177,45.442"/>
	<path class="st7" d="M210.177,46.697"/>
	<path class="st7" d="M210.177,50.458"/>
	<path class="st7" d="M210.177,52.966"/>
	<line class="st7" x1="192.845" y1="54.679" x2="212.309" y2="54.679"/>
	<line class="st7" x1="192.845" y1="53.404" x2="212.309" y2="53.404"/>
	<line class="st7" x1="192.845" y1="52.128" x2="212.309" y2="52.128"/>
	<line class="st7" x1="192.845" y1="50.852" x2="212.309" y2="50.852"/>
	<line class="st7" x1="192.845" y1="49.576" x2="212.309" y2="49.576"/>
	<line class="st7" x1="192.845" y1="48.3" x2="212.309" y2="48.3"/>
	<line class="st7" x1="192.918" y1="47.024" x2="212.382" y2="47.024"/>
	<line class="st7" x1="192.845" y1="45.748" x2="212.309" y2="45.748"/>
	<line class="st7" x1="192.845" y1="44.472" x2="212.309" y2="44.472"/>
	<line class="st7" x1="192.845" y1="43.196" x2="212.309" y2="43.196"/>
	<line class="st7" x1="192.845" y1="41.92" x2="212.309" y2="41.92"/>
</g>
<path class="st4" d="M19.962,150.781l-1.915,13.335c-0.058,0.402-0.431,0.682-0.834,0.624c-0.402-0.058-0.682-0.431-0.624-0.833
	l1.915-13.336c0.058-0.402,0.431-0.681,0.834-0.623C19.74,150.006,20.02,150.378,19.962,150.781 M13.145,164.856
	c-0.407,0.003-0.74-0.324-0.742-0.73l-0.106-13.472c-0.003-0.407,0.324-0.739,0.73-0.742c0.408-0.003,0.74,0.324,0.743,0.731
	l0.105,13.471C13.878,164.521,13.551,164.853,13.145,164.856 M9.074,164.803c-0.401,0.064-0.779-0.209-0.842-0.61l-2.124-13.304
	c-0.064-0.402,0.209-0.779,0.612-0.843c0.401-0.064,0.778,0.209,0.842,0.611l2.123,13.303
	C9.749,164.362,9.476,164.739,9.074,164.803 M22.857,148.395c-0.141-0.169-0.353-0.266-0.573-0.264l-18.538,0.144
	c-0.22,0.002-0.429,0.101-0.568,0.272c-0.14,0.17-0.196,0.393-0.155,0.609l3.092,16.141c0.068,0.351,0.376,0.605,0.734,0.602
	l12.497-0.098c0.356-0.002,0.66-0.258,0.724-0.608l2.949-16.188C23.059,148.789,22.998,148.564,22.857,148.395"/>
<path class="st8" d="M19.962,150.781l-1.915,13.335c-0.058,0.402-0.431,0.682-0.834,0.624c-0.402-0.058-0.682-0.431-0.624-0.833
	l1.915-13.336c0.058-0.402,0.431-0.681,0.834-0.623C19.74,150.006,20.02,150.378,19.962,150.781z M13.145,164.856
	c-0.407,0.003-0.74-0.324-0.742-0.73l-0.106-13.472c-0.003-0.407,0.324-0.739,0.73-0.742c0.408-0.003,0.74,0.324,0.743,0.731
	l0.105,13.471C13.878,164.521,13.551,164.853,13.145,164.856z M9.074,164.803c-0.401,0.064-0.779-0.209-0.842-0.61l-2.124-13.304
	c-0.064-0.402,0.209-0.779,0.612-0.843c0.401-0.064,0.778,0.209,0.842,0.611l2.123,13.303
	C9.749,164.362,9.476,164.739,9.074,164.803z M22.857,148.395c-0.141-0.169-0.353-0.266-0.573-0.264l-18.538,0.144
	c-0.22,0.002-0.429,0.101-0.568,0.272c-0.14,0.17-0.196,0.393-0.155,0.609l3.092,16.141c0.068,0.351,0.376,0.605,0.734,0.602
	l12.497-0.098c0.356-0.002,0.66-0.258,0.724-0.608l2.949-16.188C23.059,148.789,22.998,148.564,22.857,148.395z"/>
<path class="st4" d="M10.169,143.788L10.169,143.788l-0.004-0.421l5.49-0.043l0.004,0.421L10.169,143.788z M23.906,145.198
	L23.906,145.198l-2.025,0.016l-0.009-1.171c-0.001-0.091-0.038-0.18-0.103-0.244c-0.065-0.064-0.155-0.1-0.246-0.1l-4.467,0.035
	l-0.009-1.12c-0.002-0.184-0.077-0.363-0.209-0.492c-0.131-0.13-0.311-0.203-0.495-0.201l-6.887,0.054
	c-0.183,0.001-0.363,0.077-0.492,0.208c-0.129,0.131-0.202,0.312-0.2,0.496l0.009,1.12l-4.164,0.032
	c-0.091,0.001-0.18,0.039-0.243,0.104c-0.065,0.065-0.101,0.154-0.101,0.246l0.009,1.171l-2.197,0.017l0.017,2.225l21.829-0.17
	L23.906,145.198z"/>
<path class="st8" d="M10.169,143.788L10.169,143.788l-0.004-0.421l5.49-0.043l0.004,0.421L10.169,143.788z M23.906,145.198
	L23.906,145.198l-2.025,0.016l-0.009-1.171c-0.001-0.091-0.038-0.18-0.103-0.244c-0.065-0.064-0.155-0.1-0.246-0.1l-4.467,0.035
	l-0.009-1.12c-0.002-0.184-0.077-0.363-0.209-0.492c-0.131-0.13-0.311-0.203-0.495-0.201l-6.887,0.054
	c-0.183,0.001-0.363,0.077-0.492,0.208c-0.129,0.131-0.202,0.312-0.2,0.496l0.009,1.12l-4.164,0.032
	c-0.091,0.001-0.18,0.039-0.243,0.104c-0.065,0.065-0.101,0.154-0.101,0.246l0.009,1.171l-2.197,0.017l0.017,2.225l21.829-0.17
	L23.906,145.198z"/>
<rect x="2.066" y="141.909" class="st9" width="21.868" height="24"/>
<rect x="342.995" y="1.142" class="st10" width="34.924" height="19.551"/>
<g>
	<path class="st11" d="M355.973,11.555v4.238h-0.884v-1.066c-0.416,0.702-1.222,1.132-2.354,1.132c-1.547,0-2.496-0.807-2.496-1.989
		c0-1.054,0.676-1.938,2.639-1.938h2.171v-0.416c0-1.17-0.663-1.807-1.938-1.807c-0.884,0-1.716,0.312-2.275,0.806l-0.416-0.688
		c0.689-0.585,1.703-0.924,2.782-0.924C354.972,8.902,355.973,9.787,355.973,11.555z M355.05,13.739v-1.118h-2.146
		c-1.326,0-1.755,0.52-1.755,1.222c0,0.793,0.637,1.287,1.729,1.287C353.919,15.13,354.686,14.636,355.05,13.739z"/>
	<path class="st11" d="M364.072,8.955v6.838h-0.884v-1.248c-0.481,0.832-1.365,1.313-2.458,1.313c-1.742,0-2.886-0.976-2.886-2.938
		V8.955h0.923v3.874c0,1.456,0.754,2.197,2.054,2.197c1.43,0,2.327-0.924,2.327-2.483V8.955H364.072z"/>
	<path class="st11" d="M365.371,15.013l0.416-0.728c0.546,0.429,1.469,0.767,2.431,0.767c1.3,0,1.833-0.441,1.833-1.118
		c0-1.78-4.433-0.377-4.433-3.081c0-1.118,0.962-1.95,2.704-1.95c0.884,0,1.846,0.247,2.418,0.638l-0.403,0.74
		c-0.598-0.416-1.313-0.585-2.015-0.585c-1.235,0-1.781,0.481-1.781,1.132c0,1.846,4.434,0.455,4.434,3.081
		c0,1.183-1.04,1.95-2.821,1.95C367.023,15.858,365.93,15.494,365.371,15.013z"/>
</g>
<polygon class="st6" points="343.245,1.017 343.245,21.017 343.245,21.267 343.495,21.267 412.344,21.267 412.594,21.267 
	412.594,21.017 412.594,1.017 412.594,0.767 412.344,0.767 343.495,0.767 343.245,0.767 "/>
<rect x="342.995" y="0.517" class="st9" width="69.849" height="21"/>
<rect x="-61.402" y="207.847" class="st11" width="1014" height="21"/>
<path class="st3" d="M565.759,207.847c-2.209,0-4,1.791-4,4v12.382c0,2.209,1.791,4,4,4h77.131c2.209,0,4-1.791,4-4v-12.382
	c0-2.209-1.791-4-4-4H565.759z"/>
<rect x="-61.152" y="208.097" class="st12" width="1013.5" height="20.5"/>
<path class="st13" d="M936.454,210.707v1.481c0,0.397,0.187,0.771,0.505,1.009l6.367,4.762c0.258,0.194,0.258,0.583,0,0.776
	l-6.367,4.762c-0.318,0.238-0.505,0.612-0.505,1.01v1.48c0,0.41,0.467,0.644,0.795,0.399l10.111-7.563
	c0.318-0.237,0.318-0.714,0-0.952l-10.11-7.562C936.921,210.063,936.454,210.298,936.454,210.707"/>
<path class="st13" d="M-45.549,225.987v-1.481c0-0.397-0.187-0.771-0.505-1.009l-6.367-4.762c-0.258-0.194-0.258-0.583,0-0.776
	l6.367-4.762c0.318-0.238,0.505-0.612,0.505-1.01v-1.48c0-0.41-0.467-0.644-0.795-0.399l-10.111,7.563
	c-0.318,0.237-0.318,0.714,0,0.952l10.11,7.562C-46.016,226.631-45.549,226.396-45.549,225.987"/>
<rect x="-61.402" y="207.847" class="st9" width="1014" height="21"/>
<rect x="994.371" y="-36.699" class="st11" width="21" height="702.123"/>
<path class="st3" d="M994.371,377.263c0,2.209,1.791,4,4,4h12.382c2.209,0,4-1.791,4-4v-78.286c0-2.209-1.791-4-4-4h-12.382
	c-2.209,0-4,1.791-4,4V377.263z"/>
<rect x="994.621" y="-36.45" class="st12" width="20.5" height="701.624"/>
<path class="st13" d="M997.231-23.163h1.481c0.397,0,0.771-0.19,1.009-0.512l4.762-6.453c0.194-0.262,0.583-0.262,0.776,0
	l4.762,6.453c0.238,0.322,0.612,0.512,1.01,0.512h1.48c0.41,0,0.644-0.474,0.399-0.806l-7.563-10.248
	c-0.237-0.322-0.714-0.322-0.952,0l-7.562,10.248C996.587-23.637,996.822-23.163,997.231-23.163"/>
<path class="st13" d="M1012.511,651.088h-1.481c-0.397,0-0.771,0.19-1.009,0.512l-4.762,6.453c-0.194,0.262-0.583,0.262-0.776,0
	l-4.762-6.453c-0.238-0.322-0.612-0.512-1.01-0.512h-1.48c-0.41,0-0.644,0.474-0.399,0.806l7.563,10.248
	c0.237,0.322,0.714,0.322,0.952,0l7.562-10.248C1013.155,651.562,1012.92,651.088,1012.511,651.088"/>
<rect x="994.371" y="-36.7" class="st9" width="21" height="702.124"/>
<line class="st7" x1="273.395" y1="75.427" x2="260.378" y2="75.427"/>
<line class="st7" x1="273.395" y1="80.515" x2="260.378" y2="80.515"/>
<line class="st7" x1="273.395" y1="85.603" x2="260.378" y2="85.603"/>
<text transform="matrix(1 0 0 1 255.8073 75.296)" class="st4" style="font-family:'Montserrat-Bold'; font-size:3px;">1</text>
<text transform="matrix(1 0 0 1 255.8073 80.3117)" class="st4" style="font-family:'Montserrat-Bold'; font-size:3px;">2</text>
<text transform="matrix(1 0 0 1 255.8073 85.3273)" class="st4" style="font-family:'Montserrat-Bold'; font-size:3px;">3</text>
<polygon class="st6" points="251.351,67.837 251.351,93.837 251.351,94.087 251.601,94.087 277.601,94.087 277.851,94.087 
	277.851,93.837 277.851,67.837 277.851,67.587 277.601,67.587 251.601,67.587 251.351,67.587 "/>
<polygon class="st6" points="219.86,67.837 219.86,93.837 219.86,94.087 220.11,94.087 246.11,94.087 246.36,94.087 246.36,93.837 
	246.36,67.837 246.36,67.587 246.11,67.587 220.11,67.587 219.86,67.587 "/>
<polygon class="st6" points="189.518,67.837 189.518,93.837 189.518,94.087 189.768,94.087 215.768,94.087 216.018,94.087 
	216.018,93.837 216.018,67.837 216.018,67.587 215.768,67.587 189.768,67.587 189.518,67.587 "/>
<path class="st7" d="M241.392,85.962h-13.016 M241.392,80.829h-13.016 M241.392,75.697h-13.016"/>
<path class="st4" d="M226.29,81.414c0.161-0.156,0.241-0.349,0.241-0.581c0-0.15-0.037-0.288-0.11-0.414
	c-0.073-0.125-0.172-0.224-0.297-0.297c-0.126-0.073-0.264-0.11-0.415-0.11c-0.15,0-0.288,0.037-0.41,0.11
	c-0.122,0.073-0.221,0.172-0.294,0.297c-0.072,0.126-0.11,0.264-0.11,0.414c0,0.232,0.08,0.425,0.238,0.581
	c0.157,0.156,0.35,0.234,0.576,0.234C225.936,81.648,226.129,81.57,226.29,81.414"/>
<path class="st4" d="M225.713,76.779c0.489,0,0.885-0.396,0.885-0.885c0-0.488-0.396-0.885-0.885-0.885
	c-0.488,0-0.885,0.397-0.885,0.885C224.828,76.383,225.225,76.779,225.713,76.779"/>
<path class="st4" d="M226.29,86.431c0.161-0.156,0.241-0.349,0.241-0.581c0-0.15-0.037-0.288-0.11-0.414
	c-0.073-0.125-0.172-0.224-0.297-0.297c-0.126-0.073-0.264-0.11-0.415-0.11c-0.15,0-0.288,0.037-0.41,0.11
	c-0.122,0.073-0.221,0.172-0.294,0.297c-0.072,0.126-0.11,0.264-0.11,0.414c0,0.232,0.08,0.425,0.238,0.581
	c0.157,0.156,0.35,0.234,0.576,0.234C225.936,86.665,226.129,86.587,226.29,86.431"/>
<path class="st7" d="M211.05,85.969h-13.016 M211.05,80.836h-13.016 M211.05,75.704h-13.016"/>
<rect x="194.486" y="74.935" class="st4" width="1.77" height="1.77"/>
<rect x="194.486" y="79.951" class="st4" width="1.77" height="1.77"/>
<rect x="194.486" y="84.969" class="st4" width="1.77" height="1.77"/>
<rect x="533.008" y="0.048" class="st2" width="245" height="57.75"/>
<text transform="matrix(1 0 0 1 607.7058 26.2432)"><tspan x="0" y="0" class="st4" style="font-family:'Montserrat-Regular'; font-size:13px;">N</tspan><tspan x="10.478" y="0" class="st4" style="font-family:'Montserrat-Regular'; font-size:13px;">e</tspan><tspan x="18.135" y="0" class="st4" style="font-family:'Montserrat-Regular'; font-size:13px;">u</tspan><tspan x="26.753" y="0" class="st4" style="font-family:'Montserrat-Regular'; font-size:13px;">e </tspan><tspan x="38.011" y="0" class="st4" style="font-family:'Montserrat-Regular'; font-size:13px; letter-spacing:-1;">T</tspan><tspan x="44.381" y="0" class="st4" style="font-family:'Montserrat-Regular'; font-size:13px;">e</tspan><tspan x="51.882" y="0" class="st4" style="font-family:'Montserrat-Regular'; font-size:13px;">x</tspan><tspan x="59.097" y="0" class="st4" style="font-family:'Montserrat-Regular'; font-size:13px;">t</tspan><tspan x="64.128" y="0" class="st4" style="font-family:'Montserrat-Regular'; font-size:13px;">b</tspan><tspan x="72.942" y="0" class="st4" style="font-family:'Montserrat-Regular'; font-size:13px;">o</tspan><tspan x="80.742" y="0" class="st4" style="font-family:'Montserrat-Regular'; font-size:13px;">x </tspan></text>
<path class="st14" d="M655.508,48.006c3.707,0,6.713-3.005,6.713-6.712c0-3.708-3.006-6.713-6.713-6.713
	c-3.707,0-6.712,3.005-6.712,6.713C648.796,45.001,651.801,48.006,655.508,48.006z"/>
<rect x="533.008" y="0.048" class="st9" width="245" height="57.75"/>
<line class="st15" x1="655.508" y1="37.76" x2="655.508" y2="44.829"/>
<line class="st15" x1="651.974" y1="41.325" x2="659.042" y2="41.325"/>
<path class="st14" d="M544.547,87.842c3.707,0,6.713-3.005,6.713-6.712c0-3.708-3.006-6.713-6.713-6.713
	c-3.707,0-6.712,3.005-6.712,6.713C537.835,84.837,540.84,87.842,544.547,87.842z"/>
<line class="st15" x1="544.547" y1="77.595" x2="544.547" y2="84.664"/>
<line class="st15" x1="541.013" y1="81.161" x2="548.081" y2="81.161"/>
<g>
	<path class="st16" d="M48.654,102.977h-3.138v-1.85h8.544v1.85h-3.138v7.956h-2.269V102.977z"/>
	<path class="st16" d="M55.275,101.127h2.269v9.806h-2.269V101.127z"/>
	<path class="st16" d="M68.369,104.686c0,2.185-1.639,3.544-4.258,3.544h-1.975v2.703h-2.269v-9.806h4.244
		C66.731,101.127,68.369,102.487,68.369,104.686z M66.072,104.686c0-1.079-0.701-1.709-2.087-1.709h-1.849v3.403h1.849
		C65.372,106.38,66.072,105.75,66.072,104.686z"/>
	<path class="st16" d="M78.491,104.686c0,2.185-1.639,3.544-4.258,3.544h-1.975v2.703h-2.269v-9.806h4.244
		C76.853,101.127,78.491,102.487,78.491,104.686z M76.194,104.686c0-1.079-0.701-1.709-2.087-1.709h-1.849v3.403h1.849
		C75.494,106.38,76.194,105.75,76.194,104.686z"/>
</g>
<path class="st16" d="M12.027,96.656L12.027,96.656c-1.054,2.474-1.96,4.602-2.889,6.784h5.729
	C13.923,101.184,13.041,99.076,12.027,96.656 M15.52,114.246L15.52,114.246c-0.346-1.15-0.211-1.759,1.044-1.8
	c0.976-0.033,1.343-0.74,1.02-1.64c-0.507-1.414-1.072-2.81-1.681-4.183c-0.109-0.245-0.55-0.478-0.843-0.484
	c-2.129-0.041-4.261-0.046-6.39,0.005c-0.305,0.008-0.741,0.315-0.877,0.599c-0.558,1.155-1.057,2.342-1.512,3.542
	c-0.57,1.504-0.268,2.026,1.348,2.192c0.783,0.081,1.206,0.319,1.022,1.126c-0.056,0.243-0.355,0.61-0.547,0.613
	c-2.524,0.042-5.049,0.028-7.596,0.028c-0.214-0.956-0.321-1.631,0.868-1.885c0.569-0.122,1.219-0.609,1.515-1.117
	c0.755-1.293,1.377-2.67,1.972-4.049c2.401-5.559,4.761-11.135,7.172-16.689c0.173-0.398,0.634-0.67,0.96-1
	c0.319,0.343,0.766,0.632,0.937,1.037c2.56,6.048,5.079,12.114,7.622,18.17c0.326,0.776,0.705,1.534,1.106,2.275
	c0.507,0.939,1.332,1.389,2.379,1.595c0.265,0.052,0.519,0.638,0.586,1.013c0.032,0.175-0.39,0.621-0.611,0.624
	C21.862,114.259,18.709,114.246,15.52,114.246"/>
<path class="st4" d="M109.265,106.708c2.682-0.014,4.762-2.036,4.751-4.621c-0.01-2.367-2.203-4.406-4.733-4.399
	c-2.703,0.008-4.848,2.038-4.825,4.568C104.481,104.72,106.641,106.721,109.265,106.708 M114.82,106.721L114.82,106.721
	c0.393-0.231,0.569-0.207,0.91,0.115c1.249,1.181,2.501,2.361,3.751,3.541c0.086,0.08,0.173,0.159,0.252,0.246
	c0.216,0.237,0.217,0.464-0.012,0.692c-0.249,0.248-0.509,0.488-0.767,0.727c-0.302,0.28-0.548,0.287-0.855,0
	c-1.177-1.103-2.348-2.211-3.522-3.318c-0.132-0.124-0.263-0.25-0.396-0.373c-0.368-0.34-0.394-0.487-0.153-0.896
	c-0.368-0.336-0.737-0.673-1.128-1.029c-1.472,1.07-3.153,1.471-5.011,1.06c-1.415-0.313-2.544-1.054-3.377-2.178
	c-1.65-2.23-1.286-5.335,0.823-7.11c2.222-1.87,5.521-1.904,7.68-0.117c2.217,1.835,2.765,5.106,0.696,7.583
	C114.081,106.017,114.45,106.368,114.82,106.721"/>
<path class="st17" d="M109.265,106.708c2.682-0.014,4.762-2.036,4.751-4.621c-0.01-2.367-2.203-4.406-4.733-4.399
	c-2.703,0.008-4.848,2.038-4.825,4.568C104.481,104.72,106.641,106.721,109.265,106.708z M114.82,106.721L114.82,106.721
	c0.393-0.231,0.569-0.207,0.91,0.115c1.249,1.181,2.501,2.361,3.751,3.541c0.086,0.08,0.173,0.159,0.252,0.246
	c0.216,0.237,0.217,0.464-0.012,0.692c-0.249,0.248-0.509,0.488-0.767,0.727c-0.302,0.28-0.548,0.287-0.855,0
	c-1.177-1.103-2.348-2.211-3.522-3.318c-0.132-0.124-0.263-0.25-0.396-0.373c-0.368-0.34-0.394-0.487-0.153-0.896
	c-0.368-0.336-0.737-0.673-1.128-1.029c-1.472,1.07-3.153,1.471-5.011,1.06c-1.415-0.313-2.544-1.054-3.377-2.178
	c-1.65-2.23-1.286-5.335,0.823-7.11c2.222-1.87,5.521-1.904,7.68-0.117c2.217,1.835,2.765,5.106,0.696,7.583
	C114.081,106.017,114.45,106.368,114.82,106.721z"/>
<path class="st4" d="M172.979,97.128l2.966,2.98V97.35c0-0.096-0.055-0.229-0.123-0.297l-3.807-3.826
	c-0.068-0.067-0.178-0.067-0.245,0l-3.93,3.949v2.758c0,0.096,0.055,0.119,0.122,0.051l2.844-2.857
	c0.068-0.068,0.122-0.046,0.122,0.05v7.829h0v2.168c0,0.096-0.055,0.118-0.123,0.05l-2.966-2.98v2.758
	c0,0.096,0.055,0.229,0.123,0.297l3.807,3.826c0.068,0.067,0.178,0.067,0.245,0l3.93-3.949v-2.758c0-0.096-0.055-0.119-0.122-0.051
	l-2.844,2.857c-0.068,0.068-0.122,0.046-0.122-0.05v-7.829h0v-2.168C172.856,97.082,172.911,97.059,172.979,97.128z"/>
<line class="st18" x1="136.84" y1="110.364" x2="164.673" y2="110.364"/>
<line class="st18" x1="136.84" y1="102.068" x2="164.673" y2="102.068"/>
<line class="st18" x1="136.84" y1="94.076" x2="164.673" y2="94.076"/>
<line class="st18" x1="151.182" y1="129.335" x2="151.182" y2="150.335"/>
<path class="st4" d="M158.642,143.178L158.642,143.178h2.695l-2.603-2.569c-0.138-0.135-0.093-0.245,0.101-0.245h7.006v-1.407
	c0-0.193-0.157-0.35-0.35-0.35h-6.656c-0.194,0-0.239-0.11-0.101-0.246l2.603-2.569h-2.345c-0.193,0-0.462,0.111-0.599,0.246
	l-3.245,3.201c-0.137,0.136-0.137,0.356,0,0.492L158.642,143.178z"/>
<path class="st4" d="M142.872,135.967L142.872,135.967h-2.695l2.603,2.569c0.138,0.135,0.093,0.245-0.101,0.245h-7.006v1.407
	c0,0.193,0.157,0.35,0.35,0.35h6.656c0.194,0,0.239,0.11,0.101,0.246l-2.603,2.569h2.345c0.193,0,0.462-0.111,0.599-0.246
	l3.245-3.201c0.137-0.136,0.137-0.356,0-0.492L142.872,135.967z"/>
<line class="st19" x1="467.468" y1="10.222" x2="431.445" y2="10.222"/>
<path class="st20" d="M458.965,13.368c2.045,0,3.703-1.658,3.703-3.703s-1.658-3.703-3.703-3.703c-2.045,0-3.703,1.658-3.703,3.703
	S456.92,13.368,458.965,13.368"/>
<g>
	<path class="st4" d="M482.164,10.423c0,3.12-1.82,4.836-4.459,4.836c-0.91,0-1.781-0.195-2.392-0.585l0.624-1.274
		c0.494,0.325,1.092,0.442,1.729,0.442c1.716,0,2.795-1.066,2.795-3.133v-0.014c-0.546,0.638-1.417,0.949-2.431,0.949
		c-1.794,0-3.133-1.092-3.133-2.795c0-1.807,1.469-2.951,3.328-2.951C480.708,5.899,482.164,7.499,482.164,10.423z M480.201,8.759
		c0-0.858-0.676-1.534-1.885-1.534c-1.053,0-1.781,0.598-1.781,1.547s0.715,1.547,1.82,1.547
		C479.447,10.319,480.201,9.656,480.201,8.759z"/>
	<path class="st4" d="M490.029,12.334c0,1.599-1.157,2.925-3.602,2.925c-1.287,0-2.587-0.39-3.419-1.053l0.715-1.313
		c0.663,0.546,1.651,0.897,2.678,0.897c1.209,0,1.924-0.533,1.924-1.392c0-0.871-0.559-1.417-2.444-1.417h-2.197l0.468-4.953h5.343
		v1.417h-3.913l-0.195,2.106h0.871C488.95,9.552,490.029,10.722,490.029,12.334z"/>
	<path class="st4" d="M494.449,8.434c0-1.495,0.871-2.496,2.171-2.496s2.184,0.988,2.184,2.496s-0.884,2.496-2.184,2.496
		S494.449,9.929,494.449,8.434z M497.738,8.434c0-1.014-0.416-1.586-1.118-1.586c-0.676,0-1.118,0.585-1.118,1.586
		s0.442,1.586,1.118,1.586C497.322,10.02,497.738,9.448,497.738,8.434z M502.08,6.029h1.274l-6.214,9.101h-1.274L502.08,6.029z
		 M500.416,12.724c0-1.495,0.871-2.496,2.171-2.496c1.3,0,2.184,1.001,2.184,2.496s-0.884,2.496-2.184,2.496
		C501.287,15.22,500.416,14.219,500.416,12.724z M503.705,12.724c0-1.001-0.429-1.586-1.118-1.586s-1.118,0.572-1.118,1.586
		c0,1.015,0.429,1.586,1.118,1.586S503.705,13.725,503.705,12.724z"/>
</g>
<rect x="445.405" y="64.365" class="st11" width="13.149" height="16.764"/>
<polygon class="st21" points="445.405,81.129 445.405,81.129 458.554,81.129 458.554,64.365 445.405,64.365 "/>
<rect x="437.733" y="63.894" class="st9" width="21.291" height="24"/>
<line class="st22" x1="442.231" y1="72.06" x2="442.231" y2="82.447"/>
<line class="st23" x1="444.862" y1="84.336" x2="454.511" y2="84.336"/>
<path class="st21" d="M455.388,84.336h0.877 M442.231,83.392v0.944h0.877 M442.231,69.227v0.944"/>
<polyline class="st21" points="438.204,72.316 438.204,87.424 452.238,87.424 "/>
<rect x="437.733" y="63.894" class="st9" width="21.291" height="24"/>
<rect x="476.979" y="64.296" class="st11" width="14.674" height="18.705"/>
<polygon class="st24" points="476.979,83.001 476.979,83.001 491.652,83.001 491.652,64.296 476.979,64.296 "/>
<rect x="476.577" y="63.894" class="st9" width="19.884" height="24"/>
<rect x="481.386" y="68.787" class="st4" width="14.674" height="18.705"/>
<polygon class="st25" points="481.386,87.492 481.386,87.492 496.059,87.492 496.059,68.787 481.386,68.787 "/>
<rect x="476.577" y="63.894" class="st9" width="19.884" height="24"/>
<rect x="378.086" y="67.843" class="st10" width="34.924" height="19.551"/>
<text transform="matrix(1 0 0 1 385.0867 82.4947)"><tspan x="0" y="0" class="st11" style="font-family:'Montserrat-Regular'; font-size:13px;">e</tspan><tspan x="7.41" y="0" class="st11" style="font-family:'Montserrat-Regular'; font-size:13px;">i</tspan><tspan x="10.335" y="0" class="st11" style="font-family:'Montserrat-Regular'; font-size:13px;">n</tspan></text>
<polygon class="st6" points="343.078,67.718 343.078,87.718 343.078,87.968 343.328,87.968 412.177,87.968 412.427,87.968 
	412.427,87.718 412.427,67.718 412.427,67.468 412.177,67.468 343.328,67.468 343.078,67.468 "/>
<rect x="342.828" y="67.218" class="st9" width="70.183" height="21"/>
<line class="st26" x1="484.142" y1="157.357" x2="484.142" y2="181.617"/>
<path class="st4" d="M492.24,173.176L492.24,173.176h2.592l-2.494-2.46c-0.138-0.135-0.093-0.245,0.101-0.245h6.725v-1.339
	c0-0.193-0.157-0.35-0.35-0.35h-6.725l2.743-2.705h-2.242c-0.193,0-0.462,0.11-0.599,0.245l-3.102,3.059
	c-0.137,0.135-0.137,0.355,0,0.491L492.24,173.176z"/>
<line class="st26" x1="457.197" y1="181.451" x2="457.197" y2="157.191"/>
<path class="st4" d="M449.1,165.632L449.1,165.632h-2.592l2.494,2.46c0.138,0.135,0.093,0.245-0.101,0.245h-6.725v1.339
	c0,0.193,0.157,0.35,0.35,0.35h6.725l-2.743,2.705h2.242c0.193,0,0.462-0.11,0.599-0.245l3.102-3.059
	c0.137-0.135,0.137-0.355,0-0.491L449.1,165.632z"/>
<line class="st26" x1="267.455" y1="165.229" x2="291.715" y2="165.229"/>
<path class="st4" d="M283.106,157.171L283.106,157.171v-2.592l-2.46,2.494c-0.135,0.138-0.245,0.093-0.245-0.101v-6.725h-1.339
	c-0.193,0-0.35,0.157-0.35,0.35v6.725l-2.705-2.743v2.242c0,0.193,0.11,0.462,0.245,0.599l3.059,3.102
	c0.135,0.137,0.355,0.137,0.491,0L283.106,157.171z"/>
<path class="st4" d="M276.174,172.323L276.174,172.323v2.592l2.46-2.494c0.135-0.138,0.245-0.093,0.245,0.101v6.725h1.339
	c0.193,0,0.35-0.157,0.35-0.35v-6.725l2.705,2.743v-2.242c0-0.193-0.11-0.462-0.245-0.599l-3.059-3.102
	c-0.135-0.137-0.355-0.137-0.491,0L276.174,172.323z"/>
<line class="st26" x1="323.901" y1="178.039" x2="323.901" y2="153.779"/>
<path class="st4" d="M315.844,162.388L315.844,162.388h-2.592l2.494,2.46c0.138,0.135,0.093,0.245-0.101,0.245h-6.725v1.339
	c0,0.193,0.157,0.35,0.35,0.35h6.725l-2.743,2.705h2.242c0.193,0,0.462-0.11,0.599-0.245l3.102-3.059
	c0.137-0.135,0.137-0.355,0-0.491L315.844,162.388z"/>
<path class="st4" d="M330.996,169.321L330.996,169.321h2.592l-2.494-2.46c-0.138-0.135-0.093-0.245,0.101-0.245h6.725v-1.339
	c0-0.193-0.157-0.35-0.35-0.35h-6.725l2.743-2.705h-2.242c-0.193,0-0.462,0.11-0.599,0.245l-3.102,3.059
	c-0.137,0.135-0.137,0.355,0,0.491L330.996,169.321z"/>
<line class="st26" x1="356.043" y1="165.512" x2="380.303" y2="165.512"/>
<path class="st4" d="M364.762,172.606L364.762,172.606v2.592l2.46-2.494c0.135-0.138,0.245-0.093,0.245,0.101v6.725h1.339
	c0.193,0,0.35-0.157,0.35-0.35v-6.725l2.705,2.743v-2.242c0-0.193-0.11-0.462-0.245-0.599l-3.059-3.102
	c-0.135-0.137-0.355-0.137-0.491,0L364.762,172.606z"/>
<line class="st26" x1="401.154" y1="176.767" x2="425.414" y2="176.767"/>
<path class="st4" d="M416.973,168.379L416.973,168.379v-2.592l-2.46,2.494c-0.135,0.138-0.245,0.093-0.245-0.101v-6.725h-1.339
	c-0.193,0-0.35,0.157-0.35,0.35v6.725l-2.705-2.743v2.242c0,0.193,0.11,0.462,0.245,0.599l3.059,3.102
	c0.135,0.137,0.355,0.137,0.491,0L416.973,168.379z"/>
<rect x="547.018" y="149.841" class="st11" width="15.769" height="20.056"/>
<line class="st27" x1="549.975" y1="169.898" x2="560.816" y2="169.898"/>
<line class="st28" x1="562.787" y1="166.889" x2="562.787" y2="151.847"/>
<line class="st27" x1="559.83" y1="149.841" x2="548.989" y2="149.841"/>
<line class="st28" x1="547.018" y1="152.85" x2="547.018" y2="167.892"/>
<path class="st21" d="M547.017,168.895v1.003h0.986 M548.003,149.842h-0.986v1.003 M562.786,150.845v-1.003h-0.985 M561.801,169.898
	h0.985v-1.003"/>
<polygon class="st11" points="535.782,179.898 535.782,179.898 551.551,179.898 551.551,159.842 535.782,159.842 "/>
<line class="st27" x1="538.739" y1="179.898" x2="549.58" y2="179.898"/>
<line class="st28" x1="551.551" y1="176.889" x2="551.551" y2="161.847"/>
<line class="st27" x1="548.594" y1="159.841" x2="537.753" y2="159.841"/>
<line class="st28" x1="535.782" y1="162.85" x2="535.782" y2="177.892"/>
<path class="st21" d="M535.781,178.895v1.003h0.986 M536.768,159.842h-0.986v1.003 M551.55,160.845v-1.003h-0.985 M550.565,179.898
	h0.985v-1.003"/>
<polygon class="st11" points="526.308,187.898 526.308,187.898 542.077,187.898 542.077,167.842 526.308,167.842 "/>
<polygon class="st21" points="526.308,187.898 526.308,187.898 542.077,187.898 542.077,167.842 526.308,167.842 "/>
<g>
	<polygon class="st11" points="600.144,174.203 600.144,174.203 615.913,174.203 615.913,154.147 600.144,154.147 	"/>
	<polygon class="st21" points="600.144,174.203 600.144,174.203 615.913,174.203 615.913,154.147 600.144,154.147 	"/>
	<line class="st29" x1="596.38" y1="162.702" x2="596.38" y2="176.206"/>
	<line class="st30" x1="599.517" y1="178.007" x2="611.02" y2="178.007"/>
	<path class="st21" d="M612.065,178.006h1.046 M596.38,177.106v0.9h1.046 M596.38,160.001v0.9"/>
</g>
<g>
	<g>
		<rect x="672.684" y="142.427" class="st11" width="15.769" height="20.056"/>
		<polygon class="st21" points="672.684,162.483 672.684,162.483 688.453,162.483 688.453,142.427 672.684,142.427 		"/>
		<polygon class="st11" points="661.448,172.483 661.448,172.483 677.217,172.483 677.217,152.427 661.448,152.427 		"/>
		<line class="st27" x1="664.405" y1="172.483" x2="675.246" y2="172.483"/>
		<line class="st28" x1="677.217" y1="169.474" x2="677.217" y2="154.432"/>
		<line class="st27" x1="674.26" y1="152.427" x2="663.419" y2="152.427"/>
		<line class="st28" x1="661.448" y1="155.435" x2="661.448" y2="170.477"/>
		<path class="st21" d="M661.447,171.48v1.003h0.986 M662.433,152.427h-0.986v1.003 M677.216,153.43v-1.003h-0.985 M676.231,172.483
			h0.985v-1.003"/>
		<polygon class="st11" points="651.974,180.483 651.974,180.483 667.743,180.483 667.743,160.427 651.974,160.427 		"/>
		<line class="st27" x1="654.931" y1="180.483" x2="665.772" y2="180.483"/>
		<line class="st28" x1="667.743" y1="177.474" x2="667.743" y2="162.432"/>
		<line class="st27" x1="664.787" y1="160.427" x2="653.946" y2="160.427"/>
		<line class="st28" x1="651.974" y1="163.435" x2="651.974" y2="178.477"/>
		<path class="st21" d="M651.974,179.48v1.003h0.986 M652.96,160.427h-0.986v1.003 M667.743,161.43v-1.003h-0.985 M666.758,180.483
			h0.985v-1.003"/>
	</g>
	<line class="st27" x1="728.098" y1="175.968" x2="738.939" y2="175.968"/>
	<line class="st28" x1="740.91" y1="172.96" x2="740.91" y2="157.918"/>
	<line class="st27" x1="737.953" y1="155.912" x2="727.112" y2="155.912"/>
	<line class="st28" x1="725.141" y1="158.92" x2="725.141" y2="173.962"/>
	<path class="st21" d="M725.14,174.965v1.003h0.986 M726.126,155.912h-0.986v1.003 M740.909,156.915v-1.003h-0.985 M739.924,175.968
		h0.985v-1.003"/>
	<polyline class="st21" points="721.377,161.766 721.377,179.771 738.107,179.771 	"/>
</g>
<g>
	<defs>
		<rect id="SVGID_1_" x="-33.898" y="269.804" width="241.682" height="1"/>
	</defs>
	<clipPath id="SVGID_00000103236663174896491150000004838525179503608721_">
		<use xlink:href="#SVGID_1_"  style="overflow:visible;"/>
	</clipPath>
	
		<line style="clip-path:url(#SVGID_00000103236663174896491150000004838525179503608721_);fill:none;stroke:#B2B2B2;stroke-linecap:round;stroke-linejoin:round;stroke-dasharray:0,3.009;" x1="-30.39" y1="270.304" x2="205.78" y2="270.304"/>
	
		<path style="clip-path:url(#SVGID_00000103236663174896491150000004838525179503608721_);fill:none;stroke:#B2B2B2;stroke-linecap:round;stroke-linejoin:round;" d="
		M207.284,270.304L207.284,270.304 M-33.398,270.304L-33.398,270.304"/>
</g>
<circle class="st33" cx="13" cy="49.093" r="12.75"/>
<polygon class="st3" points="156.393,34.07 143.393,34.07 149.761,44.545 "/>
<polygon class="st4" points="164.416,162.611 153.941,168.979 164.416,175.611 "/>
<polygon class="st4" points="135.369,175.611 145.844,169.243 135.369,162.611 "/>
<polygon class="st4" points="217.923,162.611 207.448,168.979 217.923,175.611 "/>
<polygon class="st4" points="182.746,175.611 193.221,169.243 182.746,162.611 "/>
<rect x="342.995" y="34.08" class="st10" width="34.924" height="19.551"/>
<polygon class="st6" points="343.245,33.955 343.245,53.955 343.245,54.205 343.495,54.205 412.344,54.205 412.594,54.205 
	412.594,53.955 412.594,33.955 412.594,33.705 412.344,33.705 343.495,33.705 343.245,33.705 "/>
<rect x="342.995" y="33.455" class="st9" width="69.849" height="21"/>
<rect x="378.359" y="100.109" class="st10" width="34.924" height="19.551"/>
<polygon class="st6" points="343.351,99.984 343.351,119.984 343.351,120.234 343.601,120.234 412.45,120.234 412.7,120.234 
	412.7,119.984 412.7,99.984 412.7,99.734 412.45,99.734 343.601,99.734 343.351,99.734 "/>
<rect x="343.101" y="99.484" class="st9" width="70.183" height="21"/>
<line class="st19" x1="466.391" y1="30.01" x2="430.367" y2="30.01"/>
<path class="st20" d="M457.888,33.156c2.045,0,3.703-1.658,3.703-3.703s-1.658-3.703-3.703-3.703c-2.045,0-3.703,1.658-3.703,3.703
	S455.842,33.156,457.888,33.156"/>
</svg>
