<?xml version="1.0" encoding="utf-8"?>
<!-- Generator: Adobe Illustrator 26.0.3, SVG Export Plug-In . SVG Version: 6.00 Build 0)  -->
<svg version="1.1" id="Ebene_1" xmlns="http://www.w3.org/2000/svg" xmlns:xlink="http://www.w3.org/1999/xlink" x="0px" y="0px"
	 width="26.993px" height="26.993px" viewBox="0 0 26.993 26.993" style="enable-background:new 0 0 26.993 26.993;"
	 xml:space="preserve">
<style type="text/css">
	.st0{fill:none;stroke:#C5C5C5;stroke-width:3;stroke-linecap:round;stroke-linejoin:round;}
	.st1{fill:#FFAEFF;stroke:#4F4D4D;stroke-width:0.5;}
	.st2{fill:#F8F8F8;}
	.st3{fill:#0E689A;}
	.st4{fill:none;stroke:#B2B1B1;stroke-width:0.65;stroke-miterlimit:10;}
	.st5{fill:#B2B1B1;}
	.st6{fill:none;stroke:#B2B2B2;stroke-width:0.5;stroke-miterlimit:10;}
	.st7{fill:none;stroke:#B2B1B1;stroke-width:0.3;stroke-miterlimit:10;}
	.st8{fill:none;stroke:#FFFFFF;stroke-width:0.021;}
	.st9{fill:none;}
	.st10{fill:#0E6899;}
	.st11{fill:#FFFFFF;}
	.st12{fill:none;stroke:#C5C5C5;stroke-width:0.5;stroke-linecap:round;stroke-linejoin:round;}
	.st13{fill:#C5C5C5;}
	.st14{fill:none;stroke:#B2B1B1;stroke-width:0.5;}
	.st15{fill:none;stroke:#B2B1B1;stroke-width:1.2;}
	.st16{fill:#B2B2B2;}
	.st17{fill:none;stroke:#FFFFFF;stroke-width:0.001;}
	.st18{fill:none;stroke:#B2B1B1;stroke-width:1.712;}
	.st19{fill:none;stroke:#B2B1B1;stroke-width:2;}
	.st20{fill:#AD5E7A;}
	.st21{fill:none;stroke:#B2B1B1;stroke-width:0.941;}
	.st22{fill:none;stroke:#B2B1B1;stroke-width:0.941;stroke-dasharray:1.889,1.889;}
	.st23{fill:none;stroke:#B2B1B1;stroke-width:0.941;stroke-dasharray:1.754,1.754;}
	.st24{fill:none;stroke:#B2B1B1;stroke-width:0.804;}
	.st25{fill:none;stroke:#FFFFFF;stroke-width:0.804;}
	.st26{fill:none;stroke:#B2B1B1;stroke-width:2.5;}
	.st27{fill:none;stroke:#B2B1B1;stroke-width:0.941;stroke-dasharray:1.971,1.971;}
	.st28{fill:none;stroke:#B2B1B1;stroke-width:0.941;stroke-dasharray:2.006,2.006;}
	.st29{fill:none;stroke:#B2B1B1;stroke-width:0.941;stroke-dasharray:1.801,1.801;}
	.st30{fill:none;stroke:#B2B1B1;stroke-width:0.941;stroke-dasharray:2.091,2.091;}
	
		.st31{clip-path:url(#SVGID_00000159444930782755487750000007704369612614540438_);fill:none;stroke:#B2B2B2;stroke-linecap:round;stroke-linejoin:round;stroke-dasharray:0,3.009;}
	
		.st32{clip-path:url(#SVGID_00000159444930782755487750000007704369612614540438_);fill:none;stroke:#B2B2B2;stroke-linecap:round;stroke-linejoin:round;}
	.st33{fill:none;stroke:#4F4D4D;stroke-width:0.5;}
</style>
<polyline class="st0" points="1815.625,940.617 1809.375,931.617 1802.625,940.617 "/>
<circle class="st1" cx="-176.268" cy="-22.132" r="12.75"/>
<rect x="-143.808" y="-33.147" class="st2" width="119.902" height="21"/>
<polygon class="st3" points="-32.979,-27.884 -45.979,-27.884 -39.611,-17.409 "/>
<g>
	<g>
		<line class="st4" x1="80.034" y1="-15.627" x2="90.317" y2="-15.627"/>
		<g>
			<path class="st5" d="M81.321-20.852v-5.175h1.3v5.122c0,2.016,0.923,2.926,2.561,2.926c1.638,0,2.574-0.91,2.574-2.926v-5.122
				h1.261v5.175c0,2.639-1.443,4.029-3.848,4.029C82.777-16.823,81.321-18.213,81.321-20.852z"/>
		</g>
	</g>
	<polygon class="st6" points="71.925,-33.827 71.925,-7.827 71.925,-7.577 72.175,-7.577 98.175,-7.577 98.425,-7.577 
		98.425,-7.827 98.425,-33.827 98.425,-34.077 98.175,-34.077 72.175,-34.077 71.925,-34.077 	"/>
</g>
<g>
	<g>
		<path class="st5" d="M50.571-25.753h1.3l-1.82,9.101h-1.3L50.571-25.753z"/>
	</g>
	<polygon class="st6" points="37.061,-34.203 37.061,-8.203 37.061,-7.953 37.311,-7.953 63.311,-7.953 63.561,-7.953 
		63.561,-8.203 63.561,-34.203 63.561,-34.453 63.311,-34.453 37.311,-34.453 37.061,-34.453 	"/>
</g>
<g>
	<g>
		<path class="st5" d="M17.423-19.084c0,1.573-1.248,2.483-3.64,2.483H9.077v-9.101h4.446c2.275,0,3.445,0.949,3.445,2.366
			c0,0.91-0.468,1.612-1.209,2.002C16.773-21.008,17.423-20.228,17.423-19.084z M11.17-24.116v2.146h2.093
			c1.027,0,1.586-0.364,1.586-1.079s-0.559-1.066-1.586-1.066H11.17z M15.304-19.305c0-0.767-0.585-1.131-1.677-1.131H11.17v2.249
			h2.457C14.719-18.187,15.304-18.525,15.304-19.305z"/>
	</g>
	<polygon class="st6" points="0,-34.151 0,-8.151 0,-7.901 0.25,-7.901 26.25,-7.901 26.5,-7.901 26.5,-8.151 26.5,-34.151 
		26.5,-34.401 26.25,-34.401 0.25,-34.401 0,-34.401 	"/>
</g>
<path class="st7" d="M54.188,7.802"/>
<path class="st7" d="M51.68,9.056"/>
<path class="st7" d="M51.68,10.31"/>
<path class="st7" d="M51.68,11.565"/>
<path class="st7" d="M54.188,12.819"/>
<path class="st7" d="M54.188,14.073"/>
<path class="st7" d="M51.68,15.326"/>
<path class="st7" d="M51.68,17.834"/>
<path class="st7" d="M54.188,20.342"/>
<path class="st7" d="M34.723,12.819"/>
<path class="st7" d="M34.723,7.802"/>
<path class="st7" d="M34.723,20.342"/>
<path class="st7" d="M34.723,14.073"/>
<g>
	<path class="st7" d="M36.786,15.326"/>
	<path class="st7" d="M36.786,11.565"/>
	<path class="st7" d="M36.786,10.31"/>
	<path class="st7" d="M36.786,9.056"/>
	<line class="st7" x1="34.348" y1="19.547" x2="53.812" y2="19.547"/>
	<line class="st7" x1="34.348" y1="18.272" x2="49.242" y2="18.272"/>
	<line class="st7" x1="34.348" y1="16.996" x2="49.242" y2="16.996"/>
	<line class="st7" x1="34.348" y1="15.72" x2="49.242" y2="15.72"/>
	<line class="st7" x1="34.348" y1="14.444" x2="53.812" y2="14.444"/>
	<line class="st7" x1="34.348" y1="13.168" x2="53.812" y2="13.168"/>
	<line class="st7" x1="34.421" y1="11.892" x2="49.315" y2="11.892"/>
	<line class="st7" x1="34.348" y1="10.616" x2="53.812" y2="10.616"/>
	<line class="st7" x1="34.348" y1="9.34" x2="49.242" y2="9.34"/>
	<line class="st7" x1="34.348" y1="8.064" x2="49.242" y2="8.064"/>
	<line class="st7" x1="34.348" y1="6.788" x2="53.812" y2="6.788"/>
</g>
<polygon class="st6" points="31.021,0.493 31.021,26.486 31.021,26.736 31.271,26.736 57.264,26.736 57.514,26.736 57.514,26.486 
	57.514,0.493 57.514,0.243 57.264,0.243 31.271,0.243 31.021,0.243 "/>
<g>
	<line class="st7" x1="85.068" y1="7.105" x2="65.604" y2="7.105"/>
	<line class="st7" x1="82.56" y1="8.382" x2="67.666" y2="8.382"/>
	<line class="st7" x1="82.56" y1="9.659" x2="67.666" y2="9.659"/>
	<line class="st7" x1="82.56" y1="10.936" x2="67.666" y2="10.936"/>
	<line class="st7" x1="85.068" y1="12.213" x2="65.604" y2="12.213"/>
	<line class="st7" x1="85.068" y1="13.49" x2="65.604" y2="13.49"/>
	<line class="st7" x1="82.56" y1="14.767" x2="67.666" y2="14.767"/>
	<line class="st7" x1="85.068" y1="16.044" x2="65.604" y2="16.044"/>
	<line class="st7" x1="82.56" y1="17.321" x2="67.666" y2="17.321"/>
	<line class="st7" x1="82.56" y1="18.598" x2="67.666" y2="18.598"/>
	<line class="st7" x1="85.068" y1="19.875" x2="65.604" y2="19.875"/>
</g>
<polygon class="st6" points="62.09,0.493 62.09,26.486 62.09,26.736 62.34,26.736 88.333,26.736 88.583,26.736 88.583,26.486 
	88.583,0.493 88.583,0.243 88.333,0.243 62.34,0.243 62.09,0.243 "/>
<polygon class="st6" points="93.158,0.493 93.158,26.486 93.158,26.736 93.408,26.736 119.401,26.736 119.651,26.736 
	119.651,26.486 119.651,0.493 119.651,0.243 119.401,0.243 93.408,0.243 93.158,0.243 "/>
<path class="st7" d="M96.485,19.178"/>
<path class="st7" d="M96.485,14.161"/>
<path class="st7" d="M96.485,12.908"/>
<path class="st7" d="M96.485,6.638"/>
<path class="st7" d="M113.887,11.654"/>
<path class="st7" d="M115.95,14.161"/>
<path class="st7" d="M113.887,15.415"/>
<path class="st7" d="M115.95,19.178"/>
<path class="st7" d="M115.95,6.638"/>
<path class="st7" d="M115.95,12.908"/>
<path class="st7" d="M113.887,16.67"/>
<path class="st7" d="M113.887,17.924"/>
<g>
	<path class="st7" d="M98.805,17.601"/>
	<path class="st7" d="M98.805,16.347"/>
	<path class="st7" d="M98.805,15.093"/>
	<path class="st7" d="M98.805,11.331"/>
	<path class="st7" d="M98.805,8.823"/>
	<line class="st7" x1="116.137" y1="7.111" x2="96.673" y2="7.111"/>
	<line class="st7" x1="116.137" y1="8.386" x2="101.243" y2="8.386"/>
	<line class="st7" x1="116.137" y1="9.662" x2="101.243" y2="9.662"/>
	<line class="st7" x1="116.137" y1="10.938" x2="101.243" y2="10.938"/>
	<line class="st7" x1="116.137" y1="12.214" x2="96.673" y2="12.214"/>
	<line class="st7" x1="116.137" y1="13.49" x2="96.673" y2="13.49"/>
	<line class="st7" x1="116.064" y1="14.766" x2="101.17" y2="14.766"/>
	<line class="st7" x1="116.137" y1="16.042" x2="96.673" y2="16.042"/>
	<line class="st7" x1="116.137" y1="17.318" x2="101.243" y2="17.318"/>
	<line class="st7" x1="116.137" y1="18.594" x2="101.243" y2="18.594"/>
	<line class="st7" x1="116.137" y1="19.869" x2="96.673" y2="19.869"/>
</g>
<polygon class="st6" points="0.25,0.5 0.25,26.493 0.25,26.743 0.5,26.743 26.493,26.743 26.743,26.743 26.743,26.493 26.743,0.5 
	26.743,0.25 26.493,0.25 0.5,0.25 0.25,0.25 "/>
<path class="st7" d="M23.417,7.802"/>
<path class="st7" d="M23.417,12.819"/>
<path class="st7" d="M23.417,14.073"/>
<path class="st7" d="M23.417,20.342"/>
<path class="st7" d="M6.015,15.326"/>
<path class="st7" d="M3.952,12.819"/>
<path class="st7" d="M6.015,11.565"/>
<path class="st7" d="M3.952,7.802"/>
<path class="st7" d="M3.952,20.342"/>
<path class="st7" d="M3.952,14.073"/>
<path class="st7" d="M6.015,10.31"/>
<path class="st7" d="M6.015,9.056"/>
<g>
	<path class="st7" d="M20.909,9.056"/>
	<path class="st7" d="M20.909,10.31"/>
	<path class="st7" d="M20.909,11.565"/>
	<path class="st7" d="M20.909,15.326"/>
	<path class="st7" d="M20.909,17.834"/>
	<line class="st7" x1="3.577" y1="19.547" x2="23.041" y2="19.547"/>
	<line class="st7" x1="3.577" y1="18.272" x2="23.041" y2="18.272"/>
	<line class="st7" x1="3.577" y1="16.996" x2="23.041" y2="16.996"/>
	<line class="st7" x1="3.577" y1="15.72" x2="23.041" y2="15.72"/>
	<line class="st7" x1="3.577" y1="14.444" x2="23.041" y2="14.444"/>
	<line class="st7" x1="3.577" y1="13.168" x2="23.041" y2="13.168"/>
	<line class="st7" x1="3.65" y1="11.892" x2="23.114" y2="11.892"/>
	<line class="st7" x1="3.577" y1="10.616" x2="23.041" y2="10.616"/>
	<line class="st7" x1="3.577" y1="9.34" x2="23.041" y2="9.34"/>
	<line class="st7" x1="3.577" y1="8.064" x2="23.041" y2="8.064"/>
	<line class="st7" x1="3.577" y1="6.788" x2="23.041" y2="6.788"/>
</g>
<path class="st5" d="M-169.307,115.649l-1.915,13.335c-0.058,0.402-0.431,0.682-0.834,0.624c-0.402-0.058-0.682-0.431-0.624-0.833
	l1.915-13.336c0.058-0.402,0.431-0.681,0.834-0.623C-169.529,114.874-169.249,115.246-169.307,115.649 M-176.124,129.724
	c-0.407,0.003-0.74-0.324-0.742-0.73l-0.106-13.472c-0.003-0.407,0.324-0.739,0.73-0.742c0.408-0.003,0.74,0.324,0.743,0.731
	l0.105,13.471C-175.391,129.389-175.718,129.721-176.124,129.724 M-180.195,129.671c-0.401,0.064-0.779-0.209-0.842-0.61
	l-2.124-13.304c-0.064-0.402,0.209-0.779,0.612-0.843c0.401-0.064,0.778,0.209,0.842,0.611l2.123,13.303
	C-179.52,129.23-179.793,129.607-180.195,129.671 M-166.412,113.263c-0.141-0.169-0.353-0.266-0.573-0.264l-18.538,0.144
	c-0.22,0.002-0.429,0.101-0.568,0.272c-0.14,0.17-0.196,0.393-0.155,0.609l3.092,16.141c0.068,0.351,0.376,0.605,0.734,0.602
	l12.497-0.098c0.356-0.002,0.66-0.258,0.724-0.608l2.949-16.188C-166.21,113.657-166.271,113.432-166.412,113.263"/>
<path class="st8" d="M-169.307,115.649l-1.915,13.335c-0.058,0.402-0.431,0.682-0.834,0.624c-0.402-0.058-0.682-0.431-0.624-0.833
	l1.915-13.336c0.058-0.402,0.431-0.681,0.834-0.623C-169.529,114.874-169.249,115.246-169.307,115.649z M-176.124,129.724
	c-0.407,0.003-0.74-0.324-0.742-0.73l-0.106-13.472c-0.003-0.407,0.324-0.739,0.73-0.742c0.408-0.003,0.74,0.324,0.743,0.731
	l0.105,13.471C-175.391,129.389-175.718,129.721-176.124,129.724z M-180.195,129.671c-0.401,0.064-0.779-0.209-0.842-0.61
	l-2.124-13.304c-0.064-0.402,0.209-0.779,0.612-0.843c0.401-0.064,0.778,0.209,0.842,0.611l2.123,13.303
	C-179.52,129.23-179.793,129.607-180.195,129.671z M-166.412,113.263c-0.141-0.169-0.353-0.266-0.573-0.264l-18.538,0.144
	c-0.22,0.002-0.429,0.101-0.568,0.272c-0.14,0.17-0.196,0.393-0.155,0.609l3.092,16.141c0.068,0.351,0.376,0.605,0.734,0.602
	l12.497-0.098c0.356-0.002,0.66-0.258,0.724-0.608l2.949-16.188C-166.21,113.657-166.271,113.432-166.412,113.263z"/>
<path class="st5" d="M-179.099,108.655L-179.099,108.655l-0.004-0.421l5.49-0.043l0.004,0.421L-179.099,108.655z M-165.362,110.065
	L-165.362,110.065l-2.025,0.016l-0.009-1.171c-0.001-0.091-0.038-0.18-0.103-0.244s-0.155-0.1-0.246-0.1l-4.467,0.035l-0.009-1.12
	c-0.002-0.184-0.077-0.363-0.209-0.492c-0.131-0.13-0.311-0.203-0.495-0.201l-6.887,0.054c-0.183,0.001-0.363,0.077-0.492,0.208
	c-0.129,0.131-0.202,0.312-0.2,0.496l0.009,1.12l-4.164,0.032c-0.091,0.001-0.18,0.039-0.243,0.104
	c-0.065,0.065-0.101,0.154-0.101,0.246l0.009,1.171l-2.197,0.017l0.017,2.225l21.829-0.17L-165.362,110.065z"/>
<path class="st8" d="M-179.099,108.655L-179.099,108.655l-0.004-0.421l5.49-0.043l0.004,0.421L-179.099,108.655z M-165.362,110.065
	L-165.362,110.065l-2.025,0.016l-0.009-1.171c-0.001-0.091-0.038-0.18-0.103-0.244s-0.155-0.1-0.246-0.1l-4.467,0.035l-0.009-1.12
	c-0.002-0.184-0.077-0.363-0.209-0.492c-0.131-0.13-0.311-0.203-0.495-0.201l-6.887,0.054c-0.183,0.001-0.363,0.077-0.492,0.208
	c-0.129,0.131-0.202,0.312-0.2,0.496l0.009,1.12l-4.164,0.032c-0.091,0.001-0.18,0.039-0.243,0.104
	c-0.065,0.065-0.101,0.154-0.101,0.246l0.009,1.171l-2.197,0.017l0.017,2.225l21.829-0.17L-165.362,110.065z"/>
<rect x="-187.202" y="106.777" class="st9" width="21.868" height="24"/>
<rect x="153.727" y="-33.991" class="st10" width="34.924" height="19.551"/>
<g>
	<path class="st11" d="M166.704-23.577v4.238h-0.884v-1.066c-0.416,0.702-1.222,1.132-2.354,1.132c-1.547,0-2.496-0.807-2.496-1.989
		c0-1.054,0.676-1.938,2.639-1.938h2.171v-0.416c0-1.17-0.663-1.807-1.938-1.807c-0.884,0-1.716,0.312-2.275,0.806l-0.416-0.688
		c0.689-0.585,1.703-0.924,2.782-0.924C165.703-26.23,166.704-25.345,166.704-23.577z M165.781-21.393v-1.118h-2.146
		c-1.326,0-1.755,0.52-1.755,1.222c0,0.793,0.637,1.287,1.729,1.287C164.65-20.002,165.417-20.496,165.781-21.393z"/>
	<path class="st11" d="M174.803-26.177v6.838h-0.884v-1.248c-0.481,0.832-1.365,1.313-2.458,1.313c-1.742,0-2.886-0.976-2.886-2.938
		v-3.965h0.923v3.874c0,1.456,0.754,2.197,2.054,2.197c1.43,0,2.327-0.924,2.327-2.483v-3.588H174.803z"/>
	<path class="st11" d="M176.103-20.119l0.416-0.728c0.546,0.429,1.469,0.767,2.431,0.767c1.3,0,1.833-0.441,1.833-1.118
		c0-1.78-4.433-0.377-4.433-3.081c0-1.118,0.962-1.95,2.704-1.95c0.884,0,1.846,0.247,2.418,0.638l-0.403,0.74
		c-0.598-0.416-1.313-0.585-2.015-0.585c-1.235,0-1.781,0.481-1.781,1.132c0,1.846,4.434,0.455,4.434,3.081
		c0,1.183-1.04,1.95-2.821,1.95C177.754-19.274,176.662-19.638,176.103-20.119z"/>
</g>
<polygon class="st6" points="153.977,-34.116 153.977,-14.116 153.977,-13.866 154.227,-13.866 223.076,-13.866 223.326,-13.866 
	223.326,-14.116 223.326,-34.116 223.326,-34.366 223.076,-34.366 154.227,-34.366 153.977,-34.366 "/>
<rect x="153.727" y="-34.616" class="st9" width="69.849" height="21"/>
<rect x="-250.67" y="172.715" class="st11" width="1014" height="21"/>
<path class="st3" d="M376.491,172.715c-2.209,0-4,1.791-4,4v12.382c0,2.209,1.791,4,4,4h77.131c2.209,0,4-1.791,4-4v-12.382
	c0-2.209-1.791-4-4-4H376.491z"/>
<rect x="-250.42" y="172.965" class="st12" width="1013.5" height="20.5"/>
<path class="st13" d="M747.186,175.575v1.481c0,0.397,0.187,0.771,0.505,1.009l6.367,4.762c0.258,0.194,0.258,0.583,0,0.776
	l-6.367,4.762c-0.318,0.238-0.505,0.612-0.505,1.01v1.48c0,0.41,0.467,0.644,0.795,0.399l10.111-7.563
	c0.318-0.237,0.318-0.714,0-0.952l-10.11-7.562C747.653,174.931,747.186,175.166,747.186,175.575"/>
<path class="st13" d="M-234.817,190.855v-1.481c0-0.397-0.187-0.771-0.505-1.009l-6.367-4.762c-0.258-0.194-0.258-0.583,0-0.776
	l6.367-4.762c0.318-0.238,0.505-0.612,0.505-1.01v-1.48c0-0.41-0.467-0.644-0.795-0.399l-10.111,7.563
	c-0.318,0.237-0.318,0.714,0,0.952l10.11,7.562C-235.284,191.499-234.817,191.264-234.817,190.855"/>
<rect x="-250.67" y="172.715" class="st9" width="1014" height="21"/>
<rect x="805.102" y="-71.831" class="st11" width="21" height="702.123"/>
<path class="st3" d="M805.102,342.131c0,2.209,1.791,4,4,4h12.382c2.209,0,4-1.791,4-4v-78.286c0-2.209-1.791-4-4-4h-12.382
	c-2.209,0-4,1.791-4,4V342.131z"/>
<rect x="805.352" y="-71.582" class="st12" width="20.5" height="701.624"/>
<path class="st13" d="M807.962-58.296h1.481c0.397,0,0.771-0.19,1.009-0.512l4.762-6.453c0.194-0.262,0.583-0.262,0.776,0
	l4.762,6.453c0.238,0.322,0.612,0.512,1.01,0.512h1.48c0.41,0,0.644-0.474,0.399-0.806l-7.563-10.248
	c-0.237-0.322-0.714-0.322-0.952,0l-7.562,10.248C807.318-58.77,807.553-58.296,807.962-58.296"/>
<path class="st13" d="M823.242,615.956h-1.481c-0.397,0-0.771,0.19-1.009,0.512l-4.762,6.453c-0.194,0.262-0.583,0.262-0.776,0
	l-4.762-6.453c-0.238-0.322-0.612-0.512-1.01-0.512h-1.48c-0.41,0-0.644,0.474-0.399,0.806l7.563,10.248
	c0.237,0.322,0.714,0.322,0.952,0l7.562-10.248C823.886,616.43,823.651,615.956,823.242,615.956"/>
<rect x="805.102" y="-71.832" class="st9" width="21" height="702.124"/>
<line class="st7" x1="84.127" y1="40.295" x2="71.11" y2="40.295"/>
<line class="st7" x1="84.127" y1="45.383" x2="71.11" y2="45.383"/>
<line class="st7" x1="84.127" y1="50.471" x2="71.11" y2="50.471"/>
<text transform="matrix(1 0 0 1 66.5388 40.1639)" class="st5" style="font-family:'Montserrat-Bold'; font-size:3px;">1</text>
<text transform="matrix(1 0 0 1 66.5388 45.1796)" class="st5" style="font-family:'Montserrat-Bold'; font-size:3px;">2</text>
<text transform="matrix(1 0 0 1 66.5388 50.1952)" class="st5" style="font-family:'Montserrat-Bold'; font-size:3px;">3</text>
<polygon class="st6" points="62.083,32.705 62.083,58.705 62.083,58.955 62.333,58.955 88.333,58.955 88.583,58.955 88.583,58.705 
	88.583,32.705 88.583,32.455 88.333,32.455 62.333,32.455 62.083,32.455 "/>
<polygon class="st6" points="30.592,32.705 30.592,58.705 30.592,58.955 30.842,58.955 56.842,58.955 57.092,58.955 57.092,58.705 
	57.092,32.705 57.092,32.455 56.842,32.455 30.842,32.455 30.592,32.455 "/>
<polygon class="st6" points="0.25,32.705 0.25,58.705 0.25,58.955 0.5,58.955 26.5,58.955 26.75,58.955 26.75,58.705 26.75,32.705 
	26.75,32.455 26.5,32.455 0.5,32.455 0.25,32.455 "/>
<path class="st7" d="M52.124,50.83H39.108 M52.124,45.697H39.108 M52.124,40.565H39.108"/>
<path class="st5" d="M37.021,46.282c0.161-0.156,0.241-0.349,0.241-0.581c0-0.15-0.037-0.288-0.11-0.414
	c-0.073-0.125-0.172-0.224-0.297-0.297c-0.126-0.073-0.264-0.11-0.415-0.11c-0.15,0-0.288,0.037-0.41,0.11
	c-0.122,0.073-0.221,0.172-0.294,0.297c-0.072,0.126-0.11,0.264-0.11,0.414c0,0.232,0.08,0.425,0.238,0.581
	c0.157,0.156,0.35,0.234,0.576,0.234C36.667,46.516,36.86,46.438,37.021,46.282"/>
<path class="st5" d="M36.444,41.647c0.489,0,0.885-0.396,0.885-0.885c0-0.488-0.396-0.885-0.885-0.885
	c-0.488,0-0.885,0.397-0.885,0.885C35.559,41.251,35.956,41.647,36.444,41.647"/>
<path class="st5" d="M37.021,51.299c0.161-0.156,0.241-0.349,0.241-0.581c0-0.15-0.037-0.288-0.11-0.414
	c-0.073-0.125-0.172-0.224-0.297-0.297c-0.126-0.073-0.264-0.11-0.415-0.11c-0.15,0-0.288,0.037-0.41,0.11
	c-0.122,0.073-0.221,0.172-0.294,0.297c-0.072,0.126-0.11,0.264-0.11,0.414c0,0.232,0.08,0.425,0.238,0.581
	c0.157,0.156,0.35,0.234,0.576,0.234C36.667,51.533,36.86,51.455,37.021,51.299"/>
<path class="st7" d="M21.782,50.837H8.766 M21.782,45.704H8.766 M21.782,40.572H8.766"/>
<rect x="5.218" y="39.803" class="st5" width="1.77" height="1.77"/>
<rect x="5.218" y="44.819" class="st5" width="1.77" height="1.77"/>
<rect x="5.218" y="49.837" class="st5" width="1.77" height="1.77"/>
<rect x="343.74" y="-35.084" class="st2" width="245" height="57.75"/>
<text transform="matrix(1 0 0 1 418.4373 -8.8889)"><tspan x="0" y="0" class="st5" style="font-family:'Montserrat-Regular'; font-size:13px;">N</tspan><tspan x="10.478" y="0" class="st5" style="font-family:'Montserrat-Regular'; font-size:13px;">e</tspan><tspan x="18.135" y="0" class="st5" style="font-family:'Montserrat-Regular'; font-size:13px;">u</tspan><tspan x="26.753" y="0" class="st5" style="font-family:'Montserrat-Regular'; font-size:13px;">e </tspan><tspan x="38.011" y="0" class="st5" style="font-family:'Montserrat-Regular'; font-size:13px; letter-spacing:-1;">T</tspan><tspan x="44.381" y="0" class="st5" style="font-family:'Montserrat-Regular'; font-size:13px;">e</tspan><tspan x="51.882" y="0" class="st5" style="font-family:'Montserrat-Regular'; font-size:13px;">x</tspan><tspan x="59.097" y="0" class="st5" style="font-family:'Montserrat-Regular'; font-size:13px;">t</tspan><tspan x="64.128" y="0" class="st5" style="font-family:'Montserrat-Regular'; font-size:13px;">b</tspan><tspan x="72.942" y="0" class="st5" style="font-family:'Montserrat-Regular'; font-size:13px;">o</tspan><tspan x="80.742" y="0" class="st5" style="font-family:'Montserrat-Regular'; font-size:13px;">x </tspan></text>
<path class="st14" d="M466.24,12.874c3.707,0,6.713-3.005,6.713-6.712c0-3.708-3.006-6.713-6.713-6.713
	c-3.707,0-6.712,3.005-6.712,6.713C459.528,9.869,462.533,12.874,466.24,12.874z"/>
<rect x="343.74" y="-35.084" class="st9" width="245" height="57.75"/>
<line class="st15" x1="466.24" y1="2.628" x2="466.24" y2="9.697"/>
<line class="st15" x1="462.705" y1="6.193" x2="469.773" y2="6.193"/>
<path class="st14" d="M355.278,52.71c3.707,0,6.713-3.005,6.713-6.712c0-3.708-3.006-6.713-6.713-6.713
	c-3.707,0-6.712,3.005-6.712,6.713C348.566,49.705,351.571,52.71,355.278,52.71z"/>
<line class="st15" x1="355.278" y1="42.463" x2="355.278" y2="49.532"/>
<line class="st15" x1="351.744" y1="46.029" x2="358.812" y2="46.029"/>
<g>
	<path class="st16" d="M-140.614,67.845h-3.138v-1.85h8.544v1.85h-3.138v7.956h-2.269V67.845z"/>
	<path class="st16" d="M-133.993,65.995h2.269v9.806h-2.269V65.995z"/>
	<path class="st16" d="M-120.899,69.554c0,2.185-1.639,3.544-4.258,3.544h-1.975v2.703h-2.269v-9.806h4.244
		C-122.538,65.995-120.899,67.355-120.899,69.554z M-123.196,69.554c0-1.079-0.701-1.709-2.087-1.709h-1.849v3.403h1.849
		C-123.897,71.248-123.196,70.618-123.196,69.554z"/>
	<path class="st16" d="M-110.777,69.554c0,2.185-1.639,3.544-4.258,3.544h-1.975v2.703h-2.269v-9.806h4.244
		C-112.416,65.995-110.777,67.355-110.777,69.554z M-113.074,69.554c0-1.079-0.701-1.709-2.087-1.709h-1.849v3.403h1.849
		C-113.775,71.248-113.074,70.618-113.074,69.554z"/>
</g>
<path class="st16" d="M-177.242,61.524L-177.242,61.524c-1.054,2.474-1.96,4.602-2.889,6.784h5.729
	C-175.346,66.052-176.228,63.944-177.242,61.524 M-173.749,79.114L-173.749,79.114c-0.346-1.15-0.211-1.759,1.044-1.8
	c0.976-0.033,1.343-0.74,1.02-1.64c-0.507-1.414-1.072-2.81-1.681-4.183c-0.109-0.245-0.55-0.478-0.843-0.484
	c-2.129-0.041-4.261-0.046-6.39,0.005c-0.305,0.008-0.741,0.315-0.877,0.599c-0.558,1.155-1.057,2.342-1.512,3.542
	c-0.57,1.504-0.268,2.026,1.348,2.192c0.783,0.081,1.206,0.319,1.022,1.126c-0.056,0.243-0.355,0.61-0.547,0.613
	c-2.524,0.042-5.049,0.028-7.596,0.028c-0.214-0.956-0.321-1.631,0.868-1.885c0.569-0.122,1.219-0.609,1.515-1.117
	c0.755-1.293,1.377-2.67,1.972-4.049c2.401-5.559,4.761-11.135,7.172-16.689c0.173-0.398,0.634-0.67,0.96-1
	c0.319,0.343,0.766,0.632,0.937,1.037c2.56,6.048,5.079,12.114,7.622,18.17c0.326,0.776,0.705,1.534,1.106,2.275
	c0.507,0.939,1.332,1.389,2.379,1.595c0.265,0.052,0.519,0.638,0.586,1.013c0.032,0.175-0.39,0.621-0.611,0.624
	C-167.407,79.127-170.56,79.114-173.749,79.114"/>
<path class="st5" d="M-80.004,71.576c2.682-0.014,4.762-2.036,4.751-4.621c-0.01-2.367-2.203-4.406-4.733-4.399
	c-2.703,0.008-4.848,2.038-4.825,4.568C-84.788,69.588-82.628,71.589-80.004,71.576 M-74.449,71.589L-74.449,71.589
	c0.393-0.231,0.569-0.207,0.91,0.115c1.249,1.181,2.501,2.361,3.751,3.541c0.086,0.08,0.173,0.159,0.252,0.246
	c0.216,0.237,0.217,0.464-0.012,0.692c-0.249,0.248-0.509,0.488-0.767,0.727c-0.302,0.28-0.548,0.287-0.855,0
	c-1.177-1.103-2.348-2.211-3.522-3.318c-0.132-0.124-0.263-0.25-0.396-0.373c-0.368-0.34-0.394-0.487-0.153-0.896
	c-0.368-0.336-0.737-0.673-1.128-1.029c-1.472,1.07-3.153,1.471-5.011,1.06c-1.415-0.313-2.544-1.054-3.377-2.178
	c-1.65-2.23-1.286-5.335,0.823-7.11c2.222-1.87,5.521-1.904,7.68-0.117c2.217,1.835,2.765,5.106,0.696,7.583
	C-75.188,70.885-74.819,71.236-74.449,71.589"/>
<path class="st17" d="M-80.004,71.576c2.682-0.014,4.762-2.036,4.751-4.621c-0.01-2.367-2.203-4.406-4.733-4.399
	c-2.703,0.008-4.848,2.038-4.825,4.568C-84.788,69.588-82.628,71.589-80.004,71.576z M-74.449,71.589L-74.449,71.589
	c0.393-0.231,0.569-0.207,0.91,0.115c1.249,1.181,2.501,2.361,3.751,3.541c0.086,0.08,0.173,0.159,0.252,0.246
	c0.216,0.237,0.217,0.464-0.012,0.692c-0.249,0.248-0.509,0.488-0.767,0.727c-0.302,0.28-0.548,0.287-0.855,0
	c-1.177-1.103-2.348-2.211-3.522-3.318c-0.132-0.124-0.263-0.25-0.396-0.373c-0.368-0.34-0.394-0.487-0.153-0.896
	c-0.368-0.336-0.737-0.673-1.128-1.029c-1.472,1.07-3.153,1.471-5.011,1.06c-1.415-0.313-2.544-1.054-3.377-2.178
	c-1.65-2.23-1.286-5.335,0.823-7.11c2.222-1.87,5.521-1.904,7.68-0.117c2.217,1.835,2.765,5.106,0.696,7.583
	C-75.188,70.885-74.819,71.236-74.449,71.589z"/>
<path class="st5" d="M-16.289,61.995l2.966,2.98v-2.758c0-0.096-0.055-0.229-0.123-0.297l-3.807-3.826
	c-0.068-0.067-0.178-0.067-0.245,0l-3.93,3.949v2.758c0,0.096,0.055,0.119,0.122,0.051l2.844-2.857
	c0.068-0.068,0.122-0.046,0.122,0.05v7.829h0v2.168c0,0.096-0.055,0.118-0.123,0.05l-2.966-2.98v2.758
	c0,0.096,0.055,0.229,0.123,0.297l3.807,3.826c0.068,0.067,0.178,0.067,0.245,0l3.93-3.949v-2.758c0-0.096-0.055-0.119-0.122-0.051
	l-2.844,2.857c-0.068,0.068-0.122,0.046-0.122-0.05v-7.829h0v-2.168C-16.412,61.949-16.357,61.927-16.289,61.995z"/>
<line class="st18" x1="-52.428" y1="75.231" x2="-24.595" y2="75.231"/>
<line class="st18" x1="-52.428" y1="66.936" x2="-24.595" y2="66.936"/>
<line class="st18" x1="-52.428" y1="58.943" x2="-24.595" y2="58.943"/>
<line class="st18" x1="-38.086" y1="94.203" x2="-38.086" y2="115.203"/>
<path class="st5" d="M-30.626,108.046L-30.626,108.046h2.695l-2.603-2.569c-0.138-0.135-0.093-0.245,0.101-0.245h7.006v-1.407
	c0-0.193-0.157-0.35-0.35-0.35h-6.656c-0.194,0-0.239-0.11-0.101-0.246l2.603-2.569h-2.345c-0.193,0-0.462,0.111-0.599,0.246
	l-3.245,3.201c-0.137,0.136-0.137,0.356,0,0.492L-30.626,108.046z"/>
<path class="st5" d="M-46.397,100.835L-46.397,100.835h-2.695l2.603,2.569c0.138,0.135,0.093,0.245-0.101,0.245h-7.006v1.407
	c0,0.193,0.157,0.35,0.35,0.35h6.656c0.194,0,0.239,0.11,0.101,0.246l-2.603,2.569h2.345c0.193,0,0.462-0.111,0.599-0.246
	l3.245-3.201c0.137-0.136,0.137-0.356,0-0.492L-46.397,100.835z"/>
<line class="st19" x1="278.2" y1="-24.91" x2="242.177" y2="-24.91"/>
<path class="st20" d="M269.697-21.764c2.045,0,3.703-1.658,3.703-3.703s-1.658-3.703-3.703-3.703s-3.703,1.658-3.703,3.703
	S267.652-21.764,269.697-21.764"/>
<g>
	<path class="st5" d="M292.896-24.709c0,3.12-1.82,4.836-4.459,4.836c-0.91,0-1.781-0.195-2.392-0.585l0.624-1.274
		c0.494,0.325,1.092,0.442,1.729,0.442c1.716,0,2.795-1.066,2.795-3.133v-0.014c-0.546,0.638-1.417,0.949-2.431,0.949
		c-1.794,0-3.133-1.092-3.133-2.795c0-1.807,1.469-2.951,3.328-2.951C291.44-29.233,292.896-27.634,292.896-24.709z M290.933-26.373
		c0-0.858-0.676-1.534-1.885-1.534c-1.053,0-1.781,0.598-1.781,1.547s0.715,1.547,1.82,1.547
		C290.179-24.813,290.933-25.476,290.933-26.373z"/>
	<path class="st5" d="M300.761-22.798c0,1.599-1.157,2.925-3.602,2.925c-1.287,0-2.587-0.39-3.419-1.053l0.715-1.313
		c0.663,0.546,1.651,0.897,2.678,0.897c1.209,0,1.924-0.533,1.924-1.392c0-0.871-0.559-1.417-2.444-1.417h-2.197l0.468-4.953h5.343
		v1.417h-3.913l-0.195,2.106h0.871C299.682-25.58,300.761-24.41,300.761-22.798z"/>
	<path class="st5" d="M305.18-26.698c0-1.495,0.871-2.496,2.171-2.496s2.184,0.988,2.184,2.496s-0.884,2.496-2.184,2.496
		S305.18-25.203,305.18-26.698z M308.469-26.698c0-1.014-0.416-1.586-1.118-1.586c-0.676,0-1.118,0.585-1.118,1.586
		s0.442,1.586,1.118,1.586C308.053-25.112,308.469-25.684,308.469-26.698z M312.812-29.103h1.274l-6.214,9.101h-1.274
		L312.812-29.103z M311.148-22.408c0-1.495,0.871-2.496,2.171-2.496c1.3,0,2.184,1.001,2.184,2.496s-0.884,2.496-2.184,2.496
		C312.018-19.912,311.148-20.913,311.148-22.408z M314.437-22.408c0-1.001-0.429-1.586-1.118-1.586s-1.118,0.572-1.118,1.586
		c0,1.015,0.429,1.586,1.118,1.586S314.437-21.407,314.437-22.408z"/>
</g>
<rect x="256.137" y="29.233" class="st11" width="13.149" height="16.764"/>
<polygon class="st21" points="256.136,45.997 256.136,45.997 269.285,45.997 269.285,29.233 256.136,29.233 "/>
<rect x="248.465" y="28.762" class="st9" width="21.291" height="24"/>
<line class="st22" x1="252.962" y1="36.928" x2="252.962" y2="47.315"/>
<line class="st23" x1="255.594" y1="49.204" x2="265.243" y2="49.204"/>
<path class="st21" d="M266.119,49.204h0.877 M252.962,48.26v0.944h0.877 M252.962,34.095v0.944"/>
<polyline class="st21" points="248.935,37.184 248.935,52.292 262.969,52.292 "/>
<rect x="248.465" y="28.762" class="st9" width="21.291" height="24"/>
<rect x="287.711" y="29.164" class="st11" width="14.674" height="18.705"/>
<polygon class="st24" points="287.711,47.869 287.711,47.869 302.384,47.869 302.384,29.164 287.711,29.164 "/>
<rect x="287.309" y="28.762" class="st9" width="19.884" height="24"/>
<rect x="292.118" y="33.655" class="st5" width="14.674" height="18.705"/>
<polygon class="st25" points="292.117,52.36 292.117,52.36 306.79,52.36 306.79,33.655 292.117,33.655 "/>
<rect x="287.309" y="28.762" class="st9" width="19.884" height="24"/>
<rect x="188.818" y="32.711" class="st10" width="34.924" height="19.551"/>
<text transform="matrix(1 0 0 1 195.8183 47.3626)"><tspan x="0" y="0" class="st11" style="font-family:'Montserrat-Regular'; font-size:13px;">e</tspan><tspan x="7.41" y="0" class="st11" style="font-family:'Montserrat-Regular'; font-size:13px;">i</tspan><tspan x="10.335" y="0" class="st11" style="font-family:'Montserrat-Regular'; font-size:13px;">n</tspan></text>
<polygon class="st6" points="153.81,32.586 153.81,52.586 153.81,52.836 154.06,52.836 222.909,52.836 223.159,52.836 
	223.159,52.586 223.159,32.586 223.159,32.336 222.909,32.336 154.06,32.336 153.81,32.336 "/>
<rect x="153.56" y="32.086" class="st9" width="70.183" height="21"/>
<line class="st26" x1="294.874" y1="122.225" x2="294.874" y2="146.485"/>
<path class="st5" d="M302.971,138.044L302.971,138.044h2.592l-2.494-2.46c-0.138-0.135-0.093-0.245,0.101-0.245h6.725V134
	c0-0.193-0.157-0.35-0.35-0.35h-6.725l2.743-2.705h-2.242c-0.193,0-0.462,0.11-0.599,0.245l-3.102,3.059
	c-0.137,0.135-0.137,0.355,0,0.491L302.971,138.044z"/>
<line class="st26" x1="267.929" y1="146.318" x2="267.929" y2="122.058"/>
<path class="st5" d="M259.832,130.5L259.832,130.5h-2.592l2.494,2.46c0.138,0.135,0.093,0.245-0.101,0.245h-6.725v1.339
	c0,0.193,0.157,0.35,0.35,0.35h6.725l-2.743,2.705h2.242c0.193,0,0.462-0.11,0.599-0.245l3.102-3.059
	c0.137-0.135,0.137-0.355,0-0.491L259.832,130.5z"/>
<line class="st26" x1="78.187" y1="130.097" x2="102.447" y2="130.097"/>
<path class="st5" d="M93.838,122.039L93.838,122.039v-2.592l-2.46,2.494c-0.135,0.138-0.245,0.093-0.245-0.101v-6.725h-1.339
	c-0.193,0-0.35,0.157-0.35,0.35v6.725l-2.705-2.743v2.242c0,0.193,0.11,0.462,0.245,0.599l3.059,3.102
	c0.135,0.137,0.355,0.137,0.491,0L93.838,122.039z"/>
<path class="st5" d="M86.906,137.191L86.906,137.191v2.592l2.46-2.494c0.135-0.138,0.245-0.093,0.245,0.101v6.725h1.339
	c0.193,0,0.35-0.157,0.35-0.35v-6.725l2.705,2.743v-2.242c0-0.193-0.11-0.462-0.245-0.599l-3.059-3.102
	c-0.135-0.137-0.355-0.137-0.491,0L86.906,137.191z"/>
<line class="st26" x1="134.633" y1="142.907" x2="134.633" y2="118.647"/>
<path class="st5" d="M126.575,127.256L126.575,127.256h-2.592l2.494,2.46c0.138,0.135,0.093,0.245-0.101,0.245h-6.725v1.339
	c0,0.193,0.157,0.35,0.35,0.35h6.725l-2.743,2.705h2.242c0.193,0,0.462-0.11,0.599-0.245l3.102-3.059
	c0.137-0.135,0.137-0.355,0-0.491L126.575,127.256z"/>
<path class="st5" d="M141.727,134.188L141.727,134.188h2.592l-2.494-2.46c-0.138-0.135-0.093-0.245,0.101-0.245h6.725v-1.339
	c0-0.193-0.157-0.35-0.35-0.35h-6.725l2.743-2.705h-2.242c-0.193,0-0.462,0.11-0.599,0.245l-3.102,3.059
	c-0.137,0.135-0.137,0.355,0,0.491L141.727,134.188z"/>
<line class="st26" x1="166.774" y1="130.38" x2="191.034" y2="130.38"/>
<path class="st5" d="M175.494,137.474L175.494,137.474v2.592l2.46-2.494c0.135-0.138,0.245-0.093,0.245,0.101v6.725h1.339
	c0.193,0,0.35-0.157,0.35-0.35v-6.725l2.705,2.743v-2.242c0-0.193-0.11-0.462-0.245-0.599l-3.059-3.102
	c-0.135-0.137-0.355-0.137-0.491,0L175.494,137.474z"/>
<line class="st26" x1="211.886" y1="141.635" x2="236.146" y2="141.635"/>
<path class="st5" d="M227.704,133.247L227.704,133.247v-2.592l-2.46,2.494c-0.135,0.138-0.245,0.093-0.245-0.101v-6.725h-1.339
	c-0.193,0-0.35,0.157-0.35,0.35v6.725l-2.705-2.743v2.242c0,0.193,0.11,0.462,0.245,0.599l3.059,3.102
	c0.135,0.137,0.355,0.137,0.491,0L227.704,133.247z"/>
<rect x="357.749" y="114.709" class="st11" width="15.769" height="20.056"/>
<line class="st27" x1="360.706" y1="134.766" x2="371.547" y2="134.766"/>
<line class="st28" x1="373.518" y1="131.757" x2="373.518" y2="116.715"/>
<line class="st27" x1="370.562" y1="114.709" x2="359.721" y2="114.709"/>
<line class="st28" x1="357.749" y1="117.718" x2="357.749" y2="132.76"/>
<path class="st21" d="M357.749,133.763v1.003h0.986 M358.735,114.709h-0.986v1.003 M373.518,115.713v-1.003h-0.985 M372.533,134.766
	h0.985v-1.003"/>
<polygon class="st11" points="346.513,144.765 346.513,144.765 362.282,144.765 362.282,124.709 346.513,124.709 "/>
<line class="st27" x1="349.47" y1="144.765" x2="360.311" y2="144.765"/>
<line class="st28" x1="362.282" y1="141.757" x2="362.282" y2="126.715"/>
<line class="st27" x1="359.326" y1="124.709" x2="348.485" y2="124.709"/>
<line class="st28" x1="346.513" y1="127.718" x2="346.513" y2="142.76"/>
<path class="st21" d="M346.513,143.762v1.003h0.986 M347.499,124.709h-0.986v1.003 M362.282,125.713v-1.003h-0.985 M361.297,144.765
	h0.985v-1.003"/>
<polygon class="st11" points="337.039,152.765 337.039,152.765 352.808,152.765 352.808,132.71 337.039,132.71 "/>
<polygon class="st21" points="337.039,152.765 337.039,152.765 352.808,152.765 352.808,132.71 337.039,132.71 "/>
<g>
	<polygon class="st11" points="410.876,139.071 410.876,139.071 426.645,139.071 426.645,119.015 410.876,119.015 	"/>
	<polygon class="st21" points="410.876,139.071 410.876,139.071 426.645,139.071 426.645,119.015 410.876,119.015 	"/>
	<line class="st29" x1="407.112" y1="127.57" x2="407.112" y2="141.074"/>
	<line class="st30" x1="410.249" y1="142.874" x2="421.752" y2="142.874"/>
	<path class="st21" d="M422.797,142.874h1.046 M407.112,141.974v0.9h1.046 M407.112,124.869v0.9"/>
</g>
<g>
	<g>
		<rect x="483.416" y="107.294" class="st11" width="15.769" height="20.056"/>
		<polygon class="st21" points="483.416,127.351 483.416,127.351 499.185,127.351 499.185,107.295 483.416,107.295 		"/>
		<polygon class="st11" points="472.179,137.351 472.179,137.351 487.948,137.351 487.948,117.295 472.179,117.295 		"/>
		<line class="st27" x1="475.136" y1="137.351" x2="485.977" y2="137.351"/>
		<line class="st28" x1="487.948" y1="134.342" x2="487.948" y2="119.3"/>
		<line class="st27" x1="484.992" y1="117.295" x2="474.151" y2="117.295"/>
		<line class="st28" x1="472.179" y1="120.303" x2="472.179" y2="135.345"/>
		<path class="st21" d="M472.179,136.348v1.003h0.986 M473.165,117.295h-0.986v1.003 M487.948,118.298v-1.003h-0.985
			 M486.963,137.351h0.985v-1.003"/>
		<polygon class="st11" points="462.706,145.351 462.706,145.351 478.475,145.351 478.475,125.295 462.706,125.295 		"/>
		<line class="st27" x1="465.663" y1="145.351" x2="476.504" y2="145.351"/>
		<line class="st28" x1="478.475" y1="142.342" x2="478.475" y2="127.3"/>
		<line class="st27" x1="475.518" y1="125.295" x2="464.677" y2="125.295"/>
		<line class="st28" x1="462.706" y1="128.303" x2="462.706" y2="143.345"/>
		<path class="st21" d="M462.705,144.348v1.003h0.986 M463.691,125.295h-0.986v1.003 M478.474,126.298v-1.003h-0.985
			 M477.489,145.351h0.985v-1.003"/>
	</g>
	<line class="st27" x1="538.829" y1="140.836" x2="549.67" y2="140.836"/>
	<line class="st28" x1="551.641" y1="137.828" x2="551.641" y2="122.786"/>
	<line class="st27" x1="548.685" y1="120.78" x2="537.844" y2="120.78"/>
	<line class="st28" x1="535.872" y1="123.788" x2="535.872" y2="138.83"/>
	<path class="st21" d="M535.872,139.833v1.003h0.986 M536.858,120.78h-0.986v1.003 M551.641,121.783v-1.003h-0.985 M550.656,140.836
		h0.985v-1.003"/>
	<polyline class="st21" points="532.108,126.634 532.108,144.639 548.839,144.639 	"/>
</g>
<g>
	<defs>
		<rect id="SVGID_1_" x="-223.166" y="234.672" width="241.682" height="1"/>
	</defs>
	<clipPath id="SVGID_00000001637162029549821480000013304761753906538428_">
		<use xlink:href="#SVGID_1_"  style="overflow:visible;"/>
	</clipPath>
	
		<line style="clip-path:url(#SVGID_00000001637162029549821480000013304761753906538428_);fill:none;stroke:#B2B2B2;stroke-linecap:round;stroke-linejoin:round;stroke-dasharray:0,3.009;" x1="-219.658" y1="235.172" x2="16.512" y2="235.172"/>
	
		<path style="clip-path:url(#SVGID_00000001637162029549821480000013304761753906538428_);fill:none;stroke:#B2B2B2;stroke-linecap:round;stroke-linejoin:round;" d="
		M18.016,235.172L18.016,235.172 M-222.666,235.172L-222.666,235.172"/>
</g>
<circle class="st33" cx="-176.268" cy="13.961" r="12.75"/>
<polygon class="st3" points="-32.876,-1.063 -45.876,-1.063 -39.508,9.412 "/>
<polygon class="st5" points="-24.852,127.479 -35.327,133.847 -24.852,140.479 "/>
<polygon class="st5" points="-53.899,140.479 -43.424,134.111 -53.899,127.479 "/>
<polygon class="st5" points="28.654,127.479 18.179,133.847 28.654,140.479 "/>
<polygon class="st5" points="-6.523,140.479 3.952,134.111 -6.523,127.479 "/>
<rect x="153.727" y="-1.052" class="st10" width="34.924" height="19.551"/>
<polygon class="st6" points="153.977,-1.177 153.977,18.823 153.977,19.073 154.227,19.073 223.076,19.073 223.326,19.073 
	223.326,18.823 223.326,-1.177 223.326,-1.427 223.076,-1.427 154.227,-1.427 153.977,-1.427 "/>
<rect x="153.727" y="-1.677" class="st9" width="69.849" height="21"/>
<rect x="189.091" y="64.977" class="st10" width="34.924" height="19.551"/>
<polygon class="st6" points="154.083,64.852 154.083,84.852 154.083,85.102 154.333,85.102 223.182,85.102 223.432,85.102 
	223.432,84.852 223.432,64.852 223.432,64.602 223.182,64.602 154.333,64.602 154.083,64.602 "/>
<rect x="153.833" y="64.352" class="st9" width="70.183" height="21"/>
<line class="st19" x1="277.122" y1="-5.122" x2="241.099" y2="-5.122"/>
<path class="st20" d="M268.619-1.976c2.045,0,3.703-1.658,3.703-3.703s-1.658-3.703-3.703-3.703s-3.703,1.658-3.703,3.703
	S266.574-1.976,268.619-1.976"/>
<line class="st19" x1="585.446" y1="25.657" x2="549.423" y2="25.657"/>
<path class="st20" d="M576.943,28.803c2.045,0,3.703-1.658,3.703-3.703s-1.658-3.703-3.703-3.703c-2.045,0-3.703,1.658-3.703,3.703
	S574.898,28.803,576.943,28.803"/>
</svg>
