<?xml version="1.0" encoding="utf-8"?>
<!-- Generator: Adobe Illustrator 26.5.0, SVG Export Plug-In . SVG Version: 6.00 Build 0)  -->
<svg version="1.1" id="Ebene_1" xmlns="http://www.w3.org/2000/svg" x="0px" y="0px"
     width="27px" height="27px" viewBox="0 0 27 27" style="enable-background:new 0 0 27 27;" xml:space="preserve">
<polyline style="fill:none;stroke:#C5C5C5;stroke-width:3;stroke-linecap:round;stroke-linejoin:round;" points="1815.625,908.412
	1809.375,899.412 1802.625,908.412 "/>
    <path style="fill:none;stroke:#B2B1B1;stroke-width:0.3;stroke-miterlimit:10;" d="M23.417-18.132"/>
    <path style="fill:none;stroke:#B2B1B1;stroke-width:0.3;stroke-miterlimit:10;" d="M23.417-11.863"/>
    <path style="fill:none;stroke:#B2B1B1;stroke-width:0.3;stroke-miterlimit:10;" d="M6.015-16.879"/>
    <path style="fill:none;stroke:#B2B1B1;stroke-width:0.3;stroke-miterlimit:10;" d="M3.952-11.863"/>
    <path style="fill:none;stroke:#B2B1B1;stroke-width:0.3;stroke-miterlimit:10;" d="M3.952-18.132"/>
    <path style="fill:#0E689A;" d="M805.102,309.926c0,2.209,1.791,4,4,4h12.382c2.209,0,4-1.791,4-4V231.64c0-2.209-1.791-4-4-4
	h-12.382c-2.209,0-4,1.791-4,4V309.926z"/>
    <path style="fill:#C5C5C5;" d="M823.242,583.751h-1.481c-0.397,0-0.771,0.19-1.009,0.512l-4.762,6.453
	c-0.194,0.262-0.583,0.262-0.776,0l-4.762-6.453c-0.238-0.322-0.612-0.512-1.01-0.512h-1.48c-0.41,0-0.644,0.474-0.399,0.806
	l7.563,10.248c0.237,0.322,0.714,0.322,0.952,0l7.562-10.248C823.886,584.225,823.651,583.751,823.242,583.751"/>
    <polygon style="fill:none;stroke:#B2B2B2;stroke-width:0.5;stroke-miterlimit:10;" points="0.25,0.5 0.25,26.5 0.25,26.75
	0.5,26.75 26.5,26.75 26.75,26.75 26.75,26.5 26.75,0.5 26.75,0.25 26.5,0.25 0.5,0.25 0.25,0.25 "/>
    <g>
	<rect x="8.454" y="19.08" style="fill:#B2B1B1;" width="15.266" height="0.8"/>
        <rect x="8.454" y="13.446" style="fill:#B2B1B1;" width="15.266" height="0.8"/>
</g>
    <rect x="8.454" y="7.737" style="fill:#B2B1B1;" width="15.266" height="0.8"/>
    <g>
	<path style="fill:#B2B1B1;" d="M6.389,8.838H4.637L4.292,9.649h-0.67l1.576-3.504h0.641L7.42,9.649H6.739L6.389,8.838z
		 M6.173,8.327L5.513,6.796L4.857,8.327H6.173z"/>
</g>
    <g>
	<path style="fill:#B2B1B1;" d="M7.229,14.388c0,0.601-0.471,0.952-1.371,0.952H4.116v-3.504h1.642c0.841,0,1.292,0.355,1.292,0.911
		c0,0.36-0.18,0.626-0.451,0.771C6.974,13.638,7.229,13.933,7.229,14.388z M4.767,12.346v0.966h0.921c0.451,0,0.706-0.16,0.706-0.48
		c0-0.325-0.255-0.485-0.706-0.485H4.767z M6.574,14.324c0-0.351-0.265-0.506-0.755-0.506H4.767v1.011h1.051
		C6.309,14.829,6.574,14.674,6.574,14.324z"/>
</g>
    <g>
	<path style="fill:#B2B1B1;" d="M3.866,18.97c0-1.046,0.801-1.802,1.877-1.802c0.57,0,1.061,0.205,1.386,0.586l-0.42,0.396
		c-0.255-0.275-0.57-0.41-0.936-0.41c-0.726,0-1.251,0.51-1.251,1.23s0.525,1.231,1.251,1.231c0.366,0,0.681-0.135,0.936-0.415
		l0.42,0.4c-0.325,0.38-0.816,0.585-1.391,0.585C4.667,20.772,3.866,20.016,3.866,18.97z"/>
</g>
</svg>
