<?xml version="1.0" encoding="utf-8"?>
<!-- Generator: Adobe Illustrator 26.0.3, SVG Export Plug-In . SVG Version: 6.00 Build 0)  -->
<svg version="1.1" id="Ebene_1" xmlns="http://www.w3.org/2000/svg" xmlns:xlink="http://www.w3.org/1999/xlink" x="0px" y="0px"
	 width="25.253px" height="24.744px" viewBox="0 0 25.253 24.744" style="enable-background:new 0 0 25.253 24.744;"
	 xml:space="preserve">
<style type="text/css">
	.st0{fill:none;stroke:#C5C5C5;stroke-width:3;stroke-linecap:round;stroke-linejoin:round;}
	.st1{fill:#FFAEFF;stroke:#4F4D4D;stroke-width:0.5;}
	.st2{fill:#F8F8F8;}
	.st3{fill:#0E689A;}
	.st4{fill:#B2B1B1;}
	.st5{fill:none;stroke:#B2B1B1;stroke-width:0.65;stroke-miterlimit:10;}
	.st6{fill:none;stroke:#B2B2B2;stroke-width:0.5;stroke-miterlimit:10;}
	.st7{fill:none;stroke:#B2B1B1;stroke-width:0.3;stroke-miterlimit:10;}
	.st8{fill:none;stroke:#FFFFFF;stroke-width:0.021;}
	.st9{fill:none;}
	.st10{fill:#0E6899;}
	.st11{fill:#FFFFFF;}
	.st12{fill:none;stroke:#C5C5C5;stroke-width:0.5;stroke-linecap:round;stroke-linejoin:round;}
	.st13{fill:#C5C5C5;}
	.st14{fill:none;stroke:#B2B1B1;stroke-width:0.5;}
	.st15{fill:none;stroke:#B2B1B1;stroke-width:1.2;}
	.st16{fill:#B2B2B2;}
	.st17{fill:none;stroke:#FFFFFF;stroke-width:0.001;}
	.st18{fill:none;stroke:#B2B1B1;stroke-width:1.712;}
	.st19{fill:none;stroke:#B2B1B1;stroke-width:2;}
	.st20{fill:#AD5E7A;}
	.st21{fill:none;stroke:#B2B1B1;stroke-width:0.941;}
	.st22{fill:none;stroke:#B2B1B1;stroke-width:0.941;stroke-dasharray:1.889,1.889;}
	.st23{fill:none;stroke:#B2B1B1;stroke-width:0.941;stroke-dasharray:1.754,1.754;}
	.st24{fill:none;stroke:#B2B1B1;stroke-width:0.804;}
	.st25{fill:none;stroke:#FFFFFF;stroke-width:0.804;}
	.st26{fill:none;stroke:#B2B1B1;stroke-width:2.5;}
	.st27{fill:none;stroke:#B2B1B1;stroke-width:0.941;stroke-dasharray:1.971,1.971;}
	.st28{fill:none;stroke:#B2B1B1;stroke-width:0.941;stroke-dasharray:2.006,2.006;}
	.st29{fill:none;stroke:#B2B1B1;stroke-width:0.941;stroke-dasharray:1.801,1.801;}
	.st30{fill:none;stroke:#B2B1B1;stroke-width:0.941;stroke-dasharray:2.091,2.091;}
	
		.st31{clip-path:url(#SVGID_00000106141034336985662350000017857872006430077587_);fill:none;stroke:#B2B2B2;stroke-linecap:round;stroke-linejoin:round;stroke-dasharray:0,3.009;}
	
		.st32{clip-path:url(#SVGID_00000106141034336985662350000017857872006430077587_);fill:none;stroke:#B2B2B2;stroke-linecap:round;stroke-linejoin:round;}
	.st33{fill:none;stroke:#4F4D4D;stroke-width:0.5;}
</style>
<polyline class="st0" points="2004.52,886.245 1998.27,877.245 1991.52,886.245 "/>
<circle class="st1" cx="12.627" cy="-76.504" r="12.75"/>
<rect x="45.087" y="-87.519" class="st2" width="119.902" height="21"/>
<polygon class="st3" points="155.916,-82.256 142.916,-82.256 149.284,-71.781 "/>
<g>
	<path class="st4" d="M239.466-80.125h1.3l-1.82,9.101h-1.3L239.466-80.125z"/>
</g>
<g>
	<line class="st5" x1="268.929" y1="-69.999" x2="279.212" y2="-69.999"/>
	<g>
		<path class="st4" d="M270.216-75.224v-5.175h1.3v5.122c0,2.016,0.923,2.926,2.561,2.926c1.638,0,2.574-0.91,2.574-2.926v-5.122
			h1.261v5.175c0,2.639-1.443,4.029-3.848,4.029C271.672-71.195,270.216-72.585,270.216-75.224z"/>
	</g>
</g>
<g>
	<path class="st4" d="M206.318-73.456c0,1.573-1.248,2.483-3.64,2.483h-4.706v-9.101h4.446c2.275,0,3.445,0.949,3.445,2.366
		c0,0.91-0.468,1.612-1.209,2.002C205.668-75.38,206.318-74.6,206.318-73.456z M200.065-78.488v2.146h2.093
		c1.027,0,1.586-0.364,1.586-1.079s-0.559-1.066-1.586-1.066H200.065z M204.199-73.677c0-0.767-0.585-1.131-1.677-1.131h-2.457
		v2.249h2.457C203.614-72.559,204.199-72.897,204.199-73.677z"/>
</g>
<polygon class="st6" points="260.82,-88.199 260.82,-62.199 260.82,-61.949 261.07,-61.949 287.07,-61.949 287.32,-61.949 
	287.32,-62.199 287.32,-88.199 287.32,-88.449 287.07,-88.449 261.07,-88.449 260.82,-88.449 "/>
<polygon class="st6" points="225.956,-88.575 225.956,-62.575 225.956,-62.325 226.206,-62.325 252.206,-62.325 252.456,-62.325 
	252.456,-62.575 252.456,-88.575 252.456,-88.825 252.206,-88.825 226.206,-88.825 225.956,-88.825 "/>
<polygon class="st6" points="188.895,-88.523 188.895,-62.523 188.895,-62.273 189.145,-62.273 215.145,-62.273 215.395,-62.273 
	215.395,-62.523 215.395,-88.523 215.395,-88.773 215.145,-88.773 189.145,-88.773 188.895,-88.773 "/>
<path class="st7" d="M243.083-46.57"/>
<path class="st7" d="M240.575-45.316"/>
<path class="st7" d="M240.575-44.062"/>
<path class="st7" d="M240.575-42.807"/>
<path class="st7" d="M243.083-41.553"/>
<path class="st7" d="M243.083-40.3"/>
<path class="st7" d="M240.575-39.046"/>
<path class="st7" d="M240.575-36.538"/>
<path class="st7" d="M243.083-34.03"/>
<path class="st7" d="M223.619-41.553"/>
<path class="st7" d="M223.619-46.57"/>
<path class="st7" d="M223.619-34.03"/>
<path class="st7" d="M223.619-40.3"/>
<g>
	<path class="st7" d="M225.681-39.046"/>
	<path class="st7" d="M225.681-42.807"/>
	<path class="st7" d="M225.681-44.062"/>
	<path class="st7" d="M225.681-45.316"/>
	<line class="st7" x1="223.243" y1="-34.825" x2="242.707" y2="-34.825"/>
	<line class="st7" x1="223.243" y1="-36.1" x2="238.137" y2="-36.1"/>
	<line class="st7" x1="223.243" y1="-37.376" x2="238.137" y2="-37.376"/>
	<line class="st7" x1="223.243" y1="-38.653" x2="238.137" y2="-38.653"/>
	<line class="st7" x1="223.243" y1="-39.928" x2="242.707" y2="-39.928"/>
	<line class="st7" x1="223.243" y1="-41.204" x2="242.707" y2="-41.204"/>
	<line class="st7" x1="223.316" y1="-42.48" x2="238.21" y2="-42.48"/>
	<line class="st7" x1="223.243" y1="-43.756" x2="242.707" y2="-43.756"/>
	<line class="st7" x1="223.243" y1="-45.032" x2="238.137" y2="-45.032"/>
	<line class="st7" x1="223.243" y1="-46.308" x2="238.137" y2="-46.308"/>
	<line class="st7" x1="223.243" y1="-47.584" x2="242.707" y2="-47.584"/>
</g>
<polygon class="st6" points="219.916,-53.879 219.916,-27.886 219.916,-27.636 220.166,-27.636 246.159,-27.636 246.409,-27.636 
	246.409,-27.886 246.409,-53.879 246.409,-54.129 246.159,-54.129 220.166,-54.129 219.916,-54.129 "/>
<g>
	<line class="st7" x1="273.963" y1="-47.267" x2="254.499" y2="-47.267"/>
	<line class="st7" x1="271.455" y1="-45.99" x2="256.561" y2="-45.99"/>
	<line class="st7" x1="271.455" y1="-44.713" x2="256.561" y2="-44.713"/>
	<line class="st7" x1="271.455" y1="-43.436" x2="256.561" y2="-43.436"/>
	<line class="st7" x1="273.963" y1="-42.159" x2="254.499" y2="-42.159"/>
	<line class="st7" x1="273.963" y1="-40.882" x2="254.499" y2="-40.882"/>
	<line class="st7" x1="271.455" y1="-39.605" x2="256.561" y2="-39.605"/>
	<line class="st7" x1="273.963" y1="-38.328" x2="254.499" y2="-38.328"/>
	<line class="st7" x1="271.455" y1="-37.051" x2="256.561" y2="-37.051"/>
	<line class="st7" x1="271.455" y1="-35.774" x2="256.561" y2="-35.774"/>
	<line class="st7" x1="273.963" y1="-34.497" x2="254.499" y2="-34.497"/>
</g>
<polygon class="st6" points="250.985,-53.879 250.985,-27.886 250.985,-27.636 251.235,-27.636 277.228,-27.636 277.478,-27.636 
	277.478,-27.886 277.478,-53.879 277.478,-54.129 277.228,-54.129 251.235,-54.129 250.985,-54.129 "/>
<polygon class="st6" points="282.053,-53.879 282.053,-27.886 282.053,-27.636 282.303,-27.636 308.296,-27.636 308.546,-27.636 
	308.546,-27.886 308.546,-53.879 308.546,-54.129 308.296,-54.129 282.303,-54.129 282.053,-54.129 "/>
<path class="st7" d="M285.38-35.195"/>
<path class="st7" d="M285.38-40.211"/>
<path class="st7" d="M285.38-41.465"/>
<path class="st7" d="M285.38-47.734"/>
<path class="st7" d="M302.782-42.718"/>
<path class="st7" d="M304.845-40.211"/>
<path class="st7" d="M302.782-38.957"/>
<path class="st7" d="M304.845-35.195"/>
<path class="st7" d="M304.845-47.734"/>
<path class="st7" d="M304.845-41.465"/>
<path class="st7" d="M302.782-37.702"/>
<path class="st7" d="M302.782-36.448"/>
<g>
	<path class="st7" d="M287.7-36.771"/>
	<path class="st7" d="M287.7-38.025"/>
	<path class="st7" d="M287.7-39.279"/>
	<path class="st7" d="M287.7-43.041"/>
	<path class="st7" d="M287.7-45.549"/>
	<line class="st7" x1="305.032" y1="-47.261" x2="285.568" y2="-47.261"/>
	<line class="st7" x1="305.032" y1="-45.986" x2="290.138" y2="-45.986"/>
	<line class="st7" x1="305.032" y1="-44.71" x2="290.138" y2="-44.71"/>
	<line class="st7" x1="305.032" y1="-43.434" x2="290.138" y2="-43.434"/>
	<line class="st7" x1="305.032" y1="-42.158" x2="285.568" y2="-42.158"/>
	<line class="st7" x1="305.032" y1="-40.882" x2="285.568" y2="-40.882"/>
	<line class="st7" x1="304.959" y1="-39.606" x2="290.065" y2="-39.606"/>
	<line class="st7" x1="305.032" y1="-38.33" x2="285.568" y2="-38.33"/>
	<line class="st7" x1="305.032" y1="-37.054" x2="290.138" y2="-37.054"/>
	<line class="st7" x1="305.032" y1="-35.778" x2="290.138" y2="-35.778"/>
	<line class="st7" x1="305.032" y1="-34.503" x2="285.568" y2="-34.503"/>
</g>
<polygon class="st6" points="189.145,-53.872 189.145,-27.879 189.145,-27.629 189.395,-27.629 215.388,-27.629 215.638,-27.629 
	215.638,-27.879 215.638,-53.872 215.638,-54.122 215.388,-54.122 189.395,-54.122 189.145,-54.122 "/>
<path class="st7" d="M212.312-46.57"/>
<path class="st7" d="M212.312-41.553"/>
<path class="st7" d="M212.312-40.3"/>
<path class="st7" d="M212.312-34.03"/>
<path class="st7" d="M194.91-39.046"/>
<path class="st7" d="M192.847-41.553"/>
<path class="st7" d="M194.91-42.807"/>
<path class="st7" d="M192.847-46.57"/>
<path class="st7" d="M192.847-34.03"/>
<path class="st7" d="M192.847-40.3"/>
<path class="st7" d="M194.91-44.062"/>
<path class="st7" d="M194.91-45.316"/>
<g>
	<path class="st7" d="M209.804-45.316"/>
	<path class="st7" d="M209.804-44.062"/>
	<path class="st7" d="M209.804-42.807"/>
	<path class="st7" d="M209.804-39.046"/>
	<path class="st7" d="M209.804-36.538"/>
	<line class="st7" x1="192.472" y1="-34.825" x2="211.936" y2="-34.825"/>
	<line class="st7" x1="192.472" y1="-36.1" x2="211.936" y2="-36.1"/>
	<line class="st7" x1="192.472" y1="-37.376" x2="211.936" y2="-37.376"/>
	<line class="st7" x1="192.472" y1="-38.653" x2="211.936" y2="-38.653"/>
	<line class="st7" x1="192.472" y1="-39.928" x2="211.936" y2="-39.928"/>
	<line class="st7" x1="192.472" y1="-41.204" x2="211.936" y2="-41.204"/>
	<line class="st7" x1="192.545" y1="-42.48" x2="212.009" y2="-42.48"/>
	<line class="st7" x1="192.472" y1="-43.756" x2="211.936" y2="-43.756"/>
	<line class="st7" x1="192.472" y1="-45.032" x2="211.936" y2="-45.032"/>
	<line class="st7" x1="192.472" y1="-46.308" x2="211.936" y2="-46.308"/>
	<line class="st7" x1="192.472" y1="-47.584" x2="211.936" y2="-47.584"/>
</g>
<path class="st4" d="M19.588,61.276l-1.915,13.335c-0.058,0.402-0.431,0.682-0.834,0.624c-0.402-0.058-0.682-0.431-0.624-0.833
	l1.915-13.336c0.058-0.402,0.431-0.681,0.834-0.623C19.366,60.501,19.646,60.873,19.588,61.276 M12.771,75.351
	c-0.407,0.003-0.74-0.324-0.742-0.73l-0.106-13.472c-0.003-0.407,0.324-0.739,0.73-0.742c0.408-0.003,0.74,0.324,0.743,0.731
	l0.105,13.471C13.504,75.016,13.177,75.348,12.771,75.351 M8.7,75.298c-0.401,0.064-0.779-0.209-0.842-0.61L5.734,61.384
	c-0.064-0.402,0.209-0.779,0.612-0.843c0.401-0.064,0.778,0.209,0.842,0.611l2.123,13.303C9.375,74.857,9.102,75.234,8.7,75.298
	 M22.483,58.89c-0.141-0.169-0.353-0.266-0.573-0.264L3.372,58.77c-0.22,0.002-0.429,0.101-0.568,0.272
	c-0.14,0.17-0.196,0.393-0.155,0.609l3.092,16.141c0.068,0.351,0.376,0.605,0.734,0.602l12.497-0.098
	c0.356-0.002,0.66-0.258,0.724-0.608L22.645,59.5C22.685,59.284,22.624,59.059,22.483,58.89"/>
<path class="st8" d="M19.588,61.276l-1.915,13.335c-0.058,0.402-0.431,0.682-0.834,0.624c-0.402-0.058-0.682-0.431-0.624-0.833
	l1.915-13.336c0.058-0.402,0.431-0.681,0.834-0.623C19.366,60.501,19.646,60.873,19.588,61.276z M12.771,75.351
	c-0.407,0.003-0.74-0.324-0.742-0.73l-0.106-13.472c-0.003-0.407,0.324-0.739,0.73-0.742c0.408-0.003,0.74,0.324,0.743,0.731
	l0.105,13.471C13.504,75.016,13.177,75.348,12.771,75.351z M8.7,75.298c-0.401,0.064-0.779-0.209-0.842-0.61L5.734,61.384
	c-0.064-0.402,0.209-0.779,0.612-0.843c0.401-0.064,0.778,0.209,0.842,0.611l2.123,13.303C9.375,74.857,9.102,75.234,8.7,75.298z
	 M22.483,58.89c-0.141-0.169-0.353-0.266-0.573-0.264L3.372,58.77c-0.22,0.002-0.429,0.101-0.568,0.272
	c-0.14,0.17-0.196,0.393-0.155,0.609l3.092,16.141c0.068,0.351,0.376,0.605,0.734,0.602l12.497-0.098
	c0.356-0.002,0.66-0.258,0.724-0.608L22.645,59.5C22.685,59.284,22.624,59.059,22.483,58.89z"/>
<path class="st4" d="M9.796,54.283L9.796,54.283l-0.004-0.421l5.49-0.043l0.004,0.421L9.796,54.283z M23.533,55.693L23.533,55.693
	l-2.025,0.016l-0.009-1.171c-0.001-0.091-0.038-0.18-0.103-0.244s-0.155-0.1-0.246-0.1l-4.467,0.035l-0.009-1.12
	c-0.002-0.184-0.077-0.363-0.209-0.492c-0.131-0.13-0.311-0.203-0.495-0.201L9.083,52.47C8.9,52.471,8.72,52.547,8.591,52.678
	c-0.129,0.131-0.202,0.312-0.2,0.496l0.009,1.12l-4.164,0.032c-0.091,0.001-0.18,0.039-0.243,0.104
	c-0.065,0.065-0.101,0.154-0.101,0.246l0.009,1.171l-2.197,0.017l0.017,2.225l21.829-0.17L23.533,55.693z"/>
<path class="st8" d="M9.796,54.283L9.796,54.283l-0.004-0.421l5.49-0.043l0.004,0.421L9.796,54.283z M23.533,55.693L23.533,55.693
	l-2.025,0.016l-0.009-1.171c-0.001-0.091-0.038-0.18-0.103-0.244s-0.155-0.1-0.246-0.1l-4.467,0.035l-0.009-1.12
	c-0.002-0.184-0.077-0.363-0.209-0.492c-0.131-0.13-0.311-0.203-0.495-0.201L9.083,52.47C8.9,52.471,8.72,52.547,8.591,52.678
	c-0.129,0.131-0.202,0.312-0.2,0.496l0.009,1.12l-4.164,0.032c-0.091,0.001-0.18,0.039-0.243,0.104
	c-0.065,0.065-0.101,0.154-0.101,0.246l0.009,1.171l-2.197,0.017l0.017,2.225l21.829-0.17L23.533,55.693z"/>
<rect x="1.693" y="52.405" class="st9" width="21.868" height="24"/>
<rect x="342.622" y="-88.363" class="st10" width="34.924" height="19.551"/>
<g>
	<path class="st11" d="M355.599-77.949v4.238h-0.884v-1.066c-0.416,0.702-1.222,1.132-2.354,1.132c-1.547,0-2.496-0.807-2.496-1.989
		c0-1.054,0.676-1.938,2.639-1.938h2.171v-0.416c0-1.17-0.663-1.807-1.938-1.807c-0.884,0-1.716,0.312-2.275,0.806l-0.416-0.688
		c0.689-0.585,1.703-0.924,2.782-0.924C354.598-80.602,355.599-79.717,355.599-77.949z M354.676-75.765v-1.118h-2.146
		c-1.326,0-1.755,0.52-1.755,1.222c0,0.793,0.637,1.287,1.729,1.287C353.545-74.374,354.312-74.868,354.676-75.765z"/>
	<path class="st11" d="M363.698-80.549v6.838h-0.884v-1.248c-0.481,0.832-1.365,1.313-2.458,1.313c-1.742,0-2.886-0.976-2.886-2.938
		v-3.965h0.923v3.874c0,1.456,0.754,2.197,2.054,2.197c1.43,0,2.327-0.924,2.327-2.483v-3.588H363.698z"/>
	<path class="st11" d="M364.998-74.491l0.416-0.728c0.546,0.429,1.469,0.767,2.431,0.767c1.3,0,1.833-0.441,1.833-1.118
		c0-1.78-4.433-0.377-4.433-3.081c0-1.118,0.962-1.95,2.704-1.95c0.884,0,1.846,0.247,2.418,0.638l-0.403,0.74
		c-0.598-0.416-1.313-0.585-2.015-0.585c-1.235,0-1.781,0.481-1.781,1.132c0,1.846,4.434,0.455,4.434,3.081
		c0,1.183-1.04,1.95-2.821,1.95C366.649-73.646,365.557-74.01,364.998-74.491z"/>
</g>
<polygon class="st6" points="342.872,-88.488 342.872,-68.488 342.872,-68.238 343.122,-68.238 411.971,-68.238 412.221,-68.238 
	412.221,-68.488 412.221,-88.488 412.221,-88.738 411.971,-88.738 343.122,-88.738 342.872,-88.738 "/>
<rect x="342.622" y="-88.988" class="st9" width="69.849" height="21"/>
<rect x="-61.775" y="118.343" class="st11" width="1014" height="21"/>
<path class="st3" d="M565.386,118.342c-2.209,0-4,1.791-4,4v12.382c0,2.209,1.791,4,4,4h77.131c2.209,0,4-1.791,4-4v-12.382
	c0-2.209-1.791-4-4-4H565.386z"/>
<rect x="-61.525" y="118.593" class="st12" width="1013.5" height="20.5"/>
<path class="st13" d="M936.081,121.202v1.481c0,0.397,0.187,0.771,0.505,1.009l6.367,4.762c0.258,0.194,0.258,0.583,0,0.776
	l-6.367,4.762c-0.318,0.238-0.505,0.612-0.505,1.01v1.48c0,0.41,0.467,0.644,0.795,0.399l10.111-7.563
	c0.318-0.237,0.318-0.714,0-0.952l-10.11-7.562C936.548,120.558,936.081,120.793,936.081,121.202"/>
<path class="st13" d="M-45.922,136.483v-1.481c0-0.397-0.187-0.771-0.505-1.009l-6.367-4.762c-0.258-0.194-0.258-0.583,0-0.776
	l6.367-4.762c0.318-0.238,0.505-0.612,0.505-1.01v-1.48c0-0.41-0.467-0.644-0.795-0.399l-10.111,7.563
	c-0.318,0.237-0.318,0.714,0,0.952l10.11,7.562C-46.389,137.127-45.922,136.892-45.922,136.483"/>
<rect x="-61.775" y="118.343" class="st9" width="1014" height="21"/>
<rect x="993.997" y="-126.203" class="st11" width="21" height="702.123"/>
<path class="st3" d="M993.997,287.759c0,2.209,1.791,4,4,4h12.382c2.209,0,4-1.791,4-4v-78.286c0-2.209-1.791-4-4-4h-12.382
	c-2.209,0-4,1.791-4,4V287.759z"/>
<rect x="994.247" y="-125.954" class="st12" width="20.5" height="701.624"/>
<path class="st13" d="M996.857-112.668h1.481c0.397,0,0.771-0.19,1.009-0.512l4.762-6.453c0.194-0.262,0.583-0.262,0.776,0
	l4.762,6.453c0.238,0.322,0.612,0.512,1.01,0.512h1.48c0.41,0,0.644-0.474,0.399-0.806l-7.563-10.248
	c-0.237-0.322-0.714-0.322-0.952,0l-7.562,10.248C996.213-113.142,996.448-112.668,996.857-112.668"/>
<path class="st13" d="M1012.137,561.584h-1.481c-0.397,0-0.771,0.19-1.009,0.512l-4.762,6.453c-0.194,0.262-0.583,0.262-0.776,0
	l-4.762-6.453c-0.238-0.322-0.612-0.512-1.01-0.512h-1.48c-0.41,0-0.644,0.474-0.399,0.806l7.563,10.248
	c0.237,0.322,0.714,0.322,0.952,0l7.562-10.248C1012.781,562.058,1012.546,561.584,1012.137,561.584"/>
<rect x="993.997" y="-126.204" class="st9" width="21" height="702.124"/>
<line class="st7" x1="273.022" y1="-14.077" x2="260.005" y2="-14.077"/>
<line class="st7" x1="273.022" y1="-8.989" x2="260.005" y2="-8.989"/>
<line class="st7" x1="273.022" y1="-3.901" x2="260.005" y2="-3.901"/>
<text transform="matrix(1 0 0 1 255.4339 -14.2081)" class="st4" style="font-family:'Montserrat-Bold'; font-size:3px;">1</text>
<text transform="matrix(1 0 0 1 255.4339 -9.1925)" class="st4" style="font-family:'Montserrat-Bold'; font-size:3px;">2</text>
<text transform="matrix(1 0 0 1 255.4339 -4.1769)" class="st4" style="font-family:'Montserrat-Bold'; font-size:3px;">3</text>
<polygon class="st6" points="250.978,-21.667 250.978,4.333 250.978,4.583 251.228,4.583 277.228,4.583 277.478,4.583 
	277.478,4.333 277.478,-21.667 277.478,-21.917 277.228,-21.917 251.228,-21.917 250.978,-21.917 "/>
<polygon class="st6" points="219.487,-21.667 219.487,4.333 219.487,4.583 219.737,4.583 245.737,4.583 245.987,4.583 
	245.987,4.333 245.987,-21.667 245.987,-21.917 245.737,-21.917 219.737,-21.917 219.487,-21.917 "/>
<polygon class="st6" points="189.145,-21.667 189.145,4.333 189.145,4.583 189.395,4.583 215.395,4.583 215.645,4.583 
	215.645,4.333 215.645,-21.667 215.645,-21.917 215.395,-21.917 189.395,-21.917 189.145,-21.917 "/>
<path class="st7" d="M241.019-3.542h-13.016 M241.019-8.675h-13.016 M241.019-13.807h-13.016"/>
<path class="st4" d="M225.916-8.09c0.161-0.156,0.241-0.349,0.241-0.581c0-0.15-0.037-0.288-0.11-0.414
	c-0.073-0.125-0.172-0.224-0.297-0.297c-0.126-0.073-0.264-0.11-0.415-0.11c-0.15,0-0.288,0.037-0.41,0.11
	c-0.122,0.073-0.221,0.172-0.294,0.297c-0.072,0.126-0.11,0.264-0.11,0.414c0,0.232,0.08,0.425,0.238,0.581
	c0.157,0.156,0.35,0.234,0.576,0.234C225.562-7.856,225.755-7.934,225.916-8.09"/>
<path class="st4" d="M225.34-12.725c0.489,0,0.885-0.396,0.885-0.885c0-0.488-0.396-0.885-0.885-0.885
	c-0.488,0-0.885,0.397-0.885,0.885C224.455-13.121,224.852-12.725,225.34-12.725"/>
<path class="st4" d="M225.916-3.073c0.161-0.156,0.241-0.349,0.241-0.581c0-0.15-0.037-0.288-0.11-0.414
	c-0.073-0.125-0.172-0.224-0.297-0.297c-0.126-0.073-0.264-0.11-0.415-0.11c-0.15,0-0.288,0.037-0.41,0.11
	c-0.122,0.073-0.221,0.172-0.294,0.297c-0.072,0.126-0.11,0.264-0.11,0.414c0,0.232,0.08,0.425,0.238,0.581
	c0.157,0.156,0.35,0.234,0.576,0.234C225.562-2.839,225.755-2.917,225.916-3.073"/>
<path class="st7" d="M210.677-3.535h-13.016 M210.677-8.668h-13.016 M210.677-13.8h-13.016"/>
<rect x="194.113" y="-14.569" class="st4" width="1.77" height="1.77"/>
<rect x="194.113" y="-9.553" class="st4" width="1.77" height="1.77"/>
<rect x="194.113" y="-4.535" class="st4" width="1.77" height="1.77"/>
<rect x="532.635" y="-89.456" class="st2" width="245" height="57.75"/>
<text transform="matrix(1 0 0 1 607.3324 -63.261)"><tspan x="0" y="0" class="st4" style="font-family:'Montserrat-Regular'; font-size:13px;">N</tspan><tspan x="10.478" y="0" class="st4" style="font-family:'Montserrat-Regular'; font-size:13px;">e</tspan><tspan x="18.135" y="0" class="st4" style="font-family:'Montserrat-Regular'; font-size:13px;">u</tspan><tspan x="26.753" y="0" class="st4" style="font-family:'Montserrat-Regular'; font-size:13px;">e </tspan><tspan x="38.011" y="0" class="st4" style="font-family:'Montserrat-Regular'; font-size:13px; letter-spacing:-1;">T</tspan><tspan x="44.381" y="0" class="st4" style="font-family:'Montserrat-Regular'; font-size:13px;">e</tspan><tspan x="51.882" y="0" class="st4" style="font-family:'Montserrat-Regular'; font-size:13px;">x</tspan><tspan x="59.097" y="0" class="st4" style="font-family:'Montserrat-Regular'; font-size:13px;">t</tspan><tspan x="64.128" y="0" class="st4" style="font-family:'Montserrat-Regular'; font-size:13px;">b</tspan><tspan x="72.942" y="0" class="st4" style="font-family:'Montserrat-Regular'; font-size:13px;">o</tspan><tspan x="80.742" y="0" class="st4" style="font-family:'Montserrat-Regular'; font-size:13px;">x </tspan></text>
<path class="st14" d="M655.135-41.498c3.707,0,6.713-3.005,6.713-6.712c0-3.708-3.006-6.713-6.713-6.713
	c-3.707,0-6.712,3.005-6.712,6.713C648.423-44.503,651.428-41.498,655.135-41.498z"/>
<rect x="532.635" y="-89.456" class="st9" width="245" height="57.75"/>
<line class="st15" x1="655.135" y1="-51.744" x2="655.135" y2="-44.675"/>
<line class="st15" x1="651.6" y1="-48.179" x2="658.668" y2="-48.179"/>
<path class="st14" d="M544.173-1.662c3.707,0,6.713-3.005,6.713-6.712c0-3.708-3.006-6.713-6.713-6.713
	c-3.707,0-6.712,3.005-6.712,6.713C537.461-4.667,540.466-1.662,544.173-1.662z"/>
<line class="st15" x1="544.173" y1="-11.909" x2="544.173" y2="-4.84"/>
<line class="st15" x1="540.639" y1="-8.343" x2="547.707" y2="-8.343"/>
<g>
	<path class="st16" d="M48.281,13.473h-3.138v-1.85h8.544v1.85H50.55v7.956h-2.269V13.473z"/>
	<path class="st16" d="M54.902,11.623h2.269v9.806h-2.269V11.623z"/>
	<path class="st16" d="M67.996,15.182c0,2.185-1.639,3.544-4.258,3.544h-1.975v2.703h-2.269v-9.806h4.244
		C66.357,11.623,67.996,12.983,67.996,15.182z M65.699,15.182c0-1.079-0.701-1.709-2.087-1.709h-1.849v3.403h1.849
		C64.998,16.876,65.699,16.246,65.699,15.182z"/>
	<path class="st16" d="M78.118,15.182c0,2.185-1.639,3.544-4.258,3.544h-1.975v2.703h-2.269v-9.806h4.244
		C76.479,11.623,78.118,12.983,78.118,15.182z M75.821,15.182c0-1.079-0.701-1.709-2.087-1.709h-1.849v3.403h1.849
		C75.12,16.876,75.821,16.246,75.821,15.182z"/>
</g>
<path class="st16" d="M11.653,7.152L11.653,7.152c-1.054,2.474-1.96,4.602-2.889,6.784h5.729
	C13.549,11.68,12.667,9.572,11.653,7.152 M15.146,24.742L15.146,24.742c-0.346-1.15-0.211-1.759,1.044-1.8
	c0.976-0.033,1.343-0.74,1.02-1.64c-0.507-1.414-1.072-2.81-1.681-4.183c-0.109-0.245-0.55-0.478-0.843-0.484
	c-2.129-0.041-4.261-0.046-6.39,0.005c-0.305,0.008-0.741,0.315-0.877,0.599c-0.558,1.155-1.057,2.342-1.512,3.542
	c-0.57,1.504-0.268,2.026,1.348,2.192c0.783,0.081,1.206,0.319,1.022,1.126c-0.056,0.243-0.355,0.61-0.547,0.613
	c-2.524,0.042-5.049,0.028-7.596,0.028c-0.214-0.956-0.321-1.631,0.868-1.885c0.569-0.122,1.219-0.609,1.515-1.117
	c0.755-1.293,1.377-2.67,1.972-4.049C6.89,12.13,9.25,6.554,11.661,1c0.173-0.398,0.634-0.67,0.96-1
	c0.319,0.343,0.766,0.632,0.937,1.037c2.56,6.048,5.079,12.114,7.622,18.17c0.326,0.776,0.705,1.534,1.106,2.275
	c0.507,0.939,1.332,1.389,2.379,1.595c0.265,0.052,0.519,0.638,0.586,1.013c0.032,0.175-0.39,0.621-0.611,0.624
	C21.488,24.755,18.335,24.742,15.146,24.742"/>
<path class="st4" d="M108.891,17.204c2.682-0.014,4.762-2.036,4.751-4.621c-0.01-2.367-2.203-4.406-4.733-4.399
	c-2.703,0.008-4.848,2.038-4.825,4.568C104.107,15.216,106.267,17.217,108.891,17.204 M114.446,17.217L114.446,17.217
	c0.393-0.231,0.569-0.207,0.91,0.115c1.249,1.181,2.501,2.361,3.751,3.541c0.086,0.08,0.173,0.159,0.252,0.246
	c0.216,0.237,0.217,0.464-0.012,0.692c-0.249,0.248-0.509,0.488-0.767,0.727c-0.302,0.28-0.548,0.287-0.855,0
	c-1.177-1.103-2.348-2.211-3.522-3.318c-0.132-0.124-0.263-0.25-0.396-0.373c-0.368-0.34-0.394-0.487-0.153-0.896
	c-0.368-0.336-0.737-0.673-1.128-1.029c-1.472,1.07-3.153,1.471-5.011,1.06c-1.415-0.313-2.544-1.054-3.377-2.178
	c-1.65-2.23-1.286-5.335,0.823-7.11c2.222-1.87,5.521-1.904,7.68-0.117c2.217,1.835,2.765,5.106,0.696,7.583
	C113.707,16.513,114.076,16.864,114.446,17.217"/>
<path class="st17" d="M108.891,17.204c2.682-0.014,4.762-2.036,4.751-4.621c-0.01-2.367-2.203-4.406-4.733-4.399
	c-2.703,0.008-4.848,2.038-4.825,4.568C104.107,15.216,106.267,17.217,108.891,17.204z M114.446,17.217L114.446,17.217
	c0.393-0.231,0.569-0.207,0.91,0.115c1.249,1.181,2.501,2.361,3.751,3.541c0.086,0.08,0.173,0.159,0.252,0.246
	c0.216,0.237,0.217,0.464-0.012,0.692c-0.249,0.248-0.509,0.488-0.767,0.727c-0.302,0.28-0.548,0.287-0.855,0
	c-1.177-1.103-2.348-2.211-3.522-3.318c-0.132-0.124-0.263-0.25-0.396-0.373c-0.368-0.34-0.394-0.487-0.153-0.896
	c-0.368-0.336-0.737-0.673-1.128-1.029c-1.472,1.07-3.153,1.471-5.011,1.06c-1.415-0.313-2.544-1.054-3.377-2.178
	c-1.65-2.23-1.286-5.335,0.823-7.11c2.222-1.87,5.521-1.904,7.68-0.117c2.217,1.835,2.765,5.106,0.696,7.583
	C113.707,16.513,114.076,16.864,114.446,17.217z"/>
<path class="st4" d="M172.606,7.623l2.966,2.98V7.845c0-0.096-0.055-0.229-0.123-0.297l-3.807-3.826
	c-0.068-0.067-0.178-0.067-0.245,0l-3.93,3.949v2.758c0,0.096,0.055,0.119,0.122,0.051l2.844-2.857
	c0.068-0.068,0.122-0.046,0.122,0.05v7.829h0v2.168c0,0.096-0.055,0.118-0.123,0.05l-2.966-2.98v2.758
	c0,0.096,0.055,0.229,0.123,0.297l3.807,3.826c0.068,0.067,0.178,0.067,0.245,0l3.93-3.949v-2.758c0-0.096-0.055-0.119-0.122-0.051
	l-2.844,2.857c-0.068,0.068-0.122,0.046-0.122-0.05V9.841h0V7.673C172.483,7.577,172.538,7.555,172.606,7.623z"/>
<line class="st18" x1="136.467" y1="20.859" x2="164.3" y2="20.859"/>
<line class="st18" x1="136.467" y1="12.564" x2="164.3" y2="12.564"/>
<line class="st18" x1="136.467" y1="4.571" x2="164.3" y2="4.571"/>
<line class="st18" x1="150.809" y1="39.831" x2="150.809" y2="60.831"/>
<path class="st4" d="M158.269,53.674L158.269,53.674h2.695l-2.603-2.569c-0.138-0.135-0.093-0.245,0.101-0.245h7.006v-1.407
	c0-0.193-0.157-0.35-0.35-0.35h-6.656c-0.194,0-0.239-0.11-0.101-0.246l2.603-2.569h-2.345c-0.193,0-0.462,0.111-0.599,0.246
	l-3.245,3.201c-0.137,0.136-0.137,0.356,0,0.492L158.269,53.674z"/>
<path class="st4" d="M142.498,46.462L142.498,46.462h-2.695l2.603,2.569c0.138,0.135,0.093,0.245-0.101,0.245h-7.006v1.407
	c0,0.193,0.157,0.35,0.35,0.35h6.656c0.194,0,0.239,0.11,0.101,0.246l-2.603,2.569h2.345c0.193,0,0.462-0.111,0.599-0.246
	l3.245-3.201c0.137-0.136,0.137-0.356,0-0.492L142.498,46.462z"/>
<line class="st19" x1="467.095" y1="-79.282" x2="431.072" y2="-79.282"/>
<path class="st20" d="M458.592-76.136c2.045,0,3.703-1.658,3.703-3.703s-1.658-3.703-3.703-3.703c-2.045,0-3.703,1.658-3.703,3.703
	S456.547-76.136,458.592-76.136"/>
<g>
	<path class="st4" d="M481.791-79.081c0,3.12-1.82,4.836-4.459,4.836c-0.91,0-1.781-0.195-2.392-0.585l0.624-1.274
		c0.494,0.325,1.092,0.442,1.729,0.442c1.716,0,2.795-1.066,2.795-3.133v-0.014c-0.546,0.638-1.417,0.949-2.431,0.949
		c-1.794,0-3.133-1.092-3.133-2.795c0-1.807,1.469-2.951,3.328-2.951C480.335-83.605,481.791-82.006,481.791-79.081z
		 M479.828-80.745c0-0.858-0.676-1.534-1.885-1.534c-1.053,0-1.781,0.598-1.781,1.547s0.715,1.547,1.82,1.547
		C479.074-79.185,479.828-79.848,479.828-80.745z"/>
	<path class="st4" d="M489.656-77.17c0,1.599-1.157,2.925-3.602,2.925c-1.287,0-2.587-0.39-3.419-1.053l0.715-1.313
		c0.663,0.546,1.651,0.897,2.678,0.897c1.209,0,1.924-0.533,1.924-1.392c0-0.871-0.559-1.417-2.444-1.417h-2.197l0.468-4.953h5.343
		v1.417h-3.913l-0.195,2.106h0.871C488.577-79.952,489.656-78.782,489.656-77.17z"/>
	<path class="st4" d="M494.075-81.07c0-1.495,0.871-2.496,2.171-2.496s2.184,0.988,2.184,2.496s-0.884,2.496-2.184,2.496
		S494.075-79.575,494.075-81.07z M497.364-81.07c0-1.014-0.416-1.586-1.118-1.586c-0.676,0-1.118,0.585-1.118,1.586
		s0.442,1.586,1.118,1.586C496.948-79.484,497.364-80.056,497.364-81.07z M501.707-83.475h1.274l-6.214,9.101h-1.274L501.707-83.475
		z M500.043-76.78c0-1.495,0.871-2.496,2.171-2.496c1.3,0,2.184,1.001,2.184,2.496s-0.884,2.496-2.184,2.496
		C500.913-74.284,500.043-75.285,500.043-76.78z M503.332-76.78c0-1.001-0.429-1.586-1.118-1.586s-1.118,0.572-1.118,1.586
		c0,1.015,0.429,1.586,1.118,1.586S503.332-75.779,503.332-76.78z"/>
</g>
<rect x="445.032" y="-25.139" class="st11" width="13.149" height="16.764"/>
<polygon class="st21" points="445.031,-8.375 445.031,-8.375 458.18,-8.375 458.18,-25.139 445.031,-25.139 "/>
<rect x="437.36" y="-25.61" class="st9" width="21.291" height="24"/>
<line class="st22" x1="441.857" y1="-17.444" x2="441.857" y2="-7.057"/>
<line class="st23" x1="444.489" y1="-5.168" x2="454.138" y2="-5.168"/>
<path class="st21" d="M455.014-5.168h0.877 M441.857-6.112v0.944h0.877 M441.857-20.277v0.944"/>
<polyline class="st21" points="437.83,-17.188 437.83,-2.08 451.864,-2.08 "/>
<rect x="437.36" y="-25.61" class="st9" width="21.291" height="24"/>
<rect x="476.606" y="-25.208" class="st11" width="14.674" height="18.705"/>
<polygon class="st24" points="476.606,-6.503 476.606,-6.503 491.279,-6.503 491.279,-25.208 476.606,-25.208 "/>
<rect x="476.204" y="-25.61" class="st9" width="19.884" height="24"/>
<rect x="481.013" y="-20.717" class="st4" width="14.674" height="18.705"/>
<polygon class="st25" points="481.012,-2.012 481.012,-2.012 495.685,-2.012 495.685,-20.717 481.012,-20.717 "/>
<rect x="476.204" y="-25.61" class="st9" width="19.884" height="24"/>
<rect x="377.713" y="-21.661" class="st10" width="34.924" height="19.551"/>
<text transform="matrix(1 0 0 1 384.7133 -7.0094)"><tspan x="0" y="0" class="st11" style="font-family:'Montserrat-Regular'; font-size:13px;">e</tspan><tspan x="7.41" y="0" class="st11" style="font-family:'Montserrat-Regular'; font-size:13px;">i</tspan><tspan x="10.335" y="0" class="st11" style="font-family:'Montserrat-Regular'; font-size:13px;">n</tspan></text>
<polygon class="st6" points="342.705,-21.786 342.705,-1.786 342.705,-1.536 342.955,-1.536 411.804,-1.536 412.054,-1.536 
	412.054,-1.786 412.054,-21.786 412.054,-22.036 411.804,-22.036 342.955,-22.036 342.705,-22.036 "/>
<rect x="342.455" y="-22.286" class="st9" width="70.183" height="21"/>
<line class="st26" x1="483.769" y1="67.853" x2="483.769" y2="92.113"/>
<path class="st4" d="M491.866,83.672L491.866,83.672h2.592l-2.494-2.46c-0.138-0.135-0.093-0.245,0.101-0.245h6.725v-1.339
	c0-0.193-0.157-0.35-0.35-0.35h-6.725l2.743-2.705h-2.242c-0.193,0-0.462,0.11-0.599,0.245l-3.102,3.059
	c-0.137,0.135-0.137,0.355,0,0.491L491.866,83.672z"/>
<line class="st26" x1="456.824" y1="91.946" x2="456.824" y2="67.686"/>
<path class="st4" d="M448.727,76.128L448.727,76.128h-2.592l2.494,2.46c0.138,0.135,0.093,0.245-0.101,0.245h-6.725v1.339
	c0,0.193,0.157,0.35,0.35,0.35h6.725l-2.743,2.705h2.242c0.193,0,0.462-0.11,0.599-0.245l3.102-3.059
	c0.137-0.135,0.137-0.355,0-0.491L448.727,76.128z"/>
<line class="st26" x1="267.082" y1="75.725" x2="291.342" y2="75.725"/>
<path class="st4" d="M282.733,67.667L282.733,67.667v-2.592l-2.46,2.494c-0.135,0.138-0.245,0.093-0.245-0.101v-6.725h-1.339
	c-0.193,0-0.35,0.157-0.35,0.35v6.725l-2.705-2.743v2.242c0,0.193,0.11,0.462,0.245,0.599l3.059,3.102
	c0.135,0.137,0.355,0.137,0.491,0L282.733,67.667z"/>
<path class="st4" d="M275.801,82.819L275.801,82.819v2.592l2.46-2.494c0.135-0.138,0.245-0.093,0.245,0.101v6.725h1.339
	c0.193,0,0.35-0.157,0.35-0.35v-6.725l2.705,2.743v-2.242c0-0.193-0.11-0.462-0.245-0.599l-3.059-3.102
	c-0.135-0.137-0.355-0.137-0.491,0L275.801,82.819z"/>
<line class="st26" x1="323.528" y1="88.535" x2="323.528" y2="64.275"/>
<path class="st4" d="M315.47,72.884L315.47,72.884h-2.592l2.494,2.46c0.138,0.135,0.093,0.245-0.101,0.245h-6.725v1.339
	c0,0.193,0.157,0.35,0.35,0.35h6.725l-2.743,2.705h2.242c0.193,0,0.462-0.11,0.599-0.245l3.102-3.059
	c0.137-0.135,0.137-0.355,0-0.491L315.47,72.884z"/>
<path class="st4" d="M330.622,79.816L330.622,79.816h2.592l-2.494-2.46c-0.138-0.135-0.093-0.245,0.101-0.245h6.725v-1.339
	c0-0.193-0.157-0.35-0.35-0.35h-6.725l2.743-2.705h-2.242c-0.193,0-0.462,0.11-0.599,0.245l-3.102,3.059
	c-0.137,0.135-0.137,0.355,0,0.491L330.622,79.816z"/>
<line class="st26" x1="355.67" y1="76.008" x2="379.93" y2="76.008"/>
<path class="st4" d="M364.389,83.102L364.389,83.102v2.592l2.46-2.494c0.135-0.138,0.245-0.093,0.245,0.101v6.725h1.339
	c0.193,0,0.35-0.157,0.35-0.35v-6.725l2.705,2.743v-2.242c0-0.193-0.11-0.462-0.245-0.599l-3.059-3.102
	c-0.135-0.137-0.355-0.137-0.491,0L364.389,83.102z"/>
<line class="st26" x1="400.781" y1="87.263" x2="425.041" y2="87.263"/>
<path class="st4" d="M416.599,78.875L416.599,78.875v-2.592l-2.46,2.494c-0.135,0.138-0.245,0.093-0.245-0.101v-6.725h-1.339
	c-0.193,0-0.35,0.157-0.35,0.35v6.725l-2.705-2.743v2.242c0,0.193,0.11,0.462,0.245,0.599l3.059,3.102
	c0.135,0.137,0.355,0.137,0.491,0L416.599,78.875z"/>
<rect x="546.644" y="60.337" class="st11" width="15.769" height="20.056"/>
<line class="st27" x1="549.601" y1="80.393" x2="560.442" y2="80.393"/>
<line class="st28" x1="562.413" y1="77.385" x2="562.413" y2="62.343"/>
<line class="st27" x1="559.457" y1="60.337" x2="548.616" y2="60.337"/>
<line class="st28" x1="546.644" y1="63.346" x2="546.644" y2="78.388"/>
<path class="st21" d="M546.644,79.39v1.003h0.986 M547.63,60.337h-0.986v1.003 M562.413,61.34v-1.003h-0.985 M561.428,80.393h0.985
	V79.39"/>
<polygon class="st11" points="535.408,90.393 535.408,90.393 551.177,90.393 551.177,70.337 535.408,70.337 "/>
<line class="st27" x1="538.365" y1="90.393" x2="549.206" y2="90.393"/>
<line class="st28" x1="551.177" y1="87.385" x2="551.177" y2="72.343"/>
<line class="st27" x1="548.221" y1="70.337" x2="537.38" y2="70.337"/>
<line class="st28" x1="535.408" y1="73.346" x2="535.408" y2="88.388"/>
<path class="st21" d="M535.408,89.39v1.003h0.986 M536.394,70.337h-0.986v1.003 M551.177,71.34v-1.003h-0.985 M550.192,90.393h0.985
	V89.39"/>
<polygon class="st11" points="525.934,98.393 525.934,98.393 541.703,98.393 541.703,78.337 525.934,78.337 "/>
<polygon class="st21" points="525.934,98.393 525.934,98.393 541.703,98.393 541.703,78.337 525.934,78.337 "/>
<g>
	<polygon class="st11" points="599.771,84.699 599.771,84.699 615.54,84.699 615.54,64.643 599.771,64.643 	"/>
	<polygon class="st21" points="599.771,84.699 599.771,84.699 615.54,84.699 615.54,64.643 599.771,64.643 	"/>
	<line class="st29" x1="596.007" y1="73.198" x2="596.007" y2="86.702"/>
	<line class="st30" x1="599.144" y1="88.502" x2="610.647" y2="88.502"/>
	<path class="st21" d="M611.692,88.502h1.046 M596.007,87.602v0.9h1.046 M596.007,70.497v0.9"/>
</g>
<g>
	<g>
		<rect x="672.311" y="52.922" class="st11" width="15.769" height="20.056"/>
		<polygon class="st21" points="672.311,72.979 672.311,72.979 688.08,72.979 688.08,52.923 672.311,52.923 		"/>
		<polygon class="st11" points="661.074,82.979 661.074,82.979 676.843,82.979 676.843,62.923 661.074,62.923 		"/>
		<line class="st27" x1="664.031" y1="82.979" x2="674.872" y2="82.979"/>
		<line class="st28" x1="676.843" y1="79.97" x2="676.843" y2="64.928"/>
		<line class="st27" x1="673.887" y1="62.923" x2="663.046" y2="62.923"/>
		<line class="st28" x1="661.074" y1="65.931" x2="661.074" y2="80.973"/>
		<path class="st21" d="M661.074,81.976v1.003h0.986 M662.06,62.923h-0.986v1.003 M676.843,63.926v-1.003h-0.985 M675.858,82.979
			h0.985v-1.003"/>
		<polygon class="st11" points="651.601,90.979 651.601,90.979 667.37,90.979 667.37,70.923 651.601,70.923 		"/>
		<line class="st27" x1="654.558" y1="90.979" x2="665.399" y2="90.979"/>
		<line class="st28" x1="667.37" y1="87.97" x2="667.37" y2="72.928"/>
		<line class="st27" x1="664.413" y1="70.923" x2="653.572" y2="70.923"/>
		<line class="st28" x1="651.601" y1="73.931" x2="651.601" y2="88.973"/>
		<path class="st21" d="M651.6,89.976v1.003h0.986 M652.586,70.923H651.6v1.003 M667.369,71.926v-1.003h-0.985 M666.384,90.979
			h0.985v-1.003"/>
	</g>
	<line class="st27" x1="727.724" y1="86.464" x2="738.565" y2="86.464"/>
	<line class="st28" x1="740.536" y1="83.456" x2="740.536" y2="68.414"/>
	<line class="st27" x1="737.58" y1="66.408" x2="726.739" y2="66.408"/>
	<line class="st28" x1="724.767" y1="69.416" x2="724.767" y2="84.458"/>
	<path class="st21" d="M724.767,85.461v1.003h0.986 M725.753,66.408h-0.986v1.003 M740.536,67.411v-1.003h-0.985 M739.551,86.464
		h0.985v-1.003"/>
	<polyline class="st21" points="721.003,72.262 721.003,90.267 737.734,90.267 	"/>
</g>
<g>
	<defs>
		<rect id="SVGID_1_" x="-34.271" y="180.3" width="241.682" height="1"/>
	</defs>
	<clipPath id="SVGID_00000055681075398104406900000008953738730396935346_">
		<use xlink:href="#SVGID_1_"  style="overflow:visible;"/>
	</clipPath>
	
		<line style="clip-path:url(#SVGID_00000055681075398104406900000008953738730396935346_);fill:none;stroke:#B2B2B2;stroke-linecap:round;stroke-linejoin:round;stroke-dasharray:0,3.009;" x1="-30.763" y1="180.8" x2="205.407" y2="180.8"/>
	
		<path style="clip-path:url(#SVGID_00000055681075398104406900000008953738730396935346_);fill:none;stroke:#B2B2B2;stroke-linecap:round;stroke-linejoin:round;" d="
		M206.911,180.8L206.911,180.8 M-33.771,180.8L-33.771,180.8"/>
</g>
<circle class="st33" cx="12.627" cy="-40.411" r="12.75"/>
<polygon class="st3" points="156.019,-55.435 143.019,-55.435 149.387,-44.96 "/>
<polygon class="st4" points="164.043,73.107 153.568,79.475 164.043,86.107 "/>
<polygon class="st4" points="134.996,86.107 145.471,79.739 134.996,73.107 "/>
<polygon class="st4" points="217.549,73.107 207.074,79.475 217.549,86.107 "/>
<polygon class="st4" points="182.372,86.107 192.847,79.739 182.372,73.107 "/>
<rect x="342.622" y="-55.424" class="st10" width="34.924" height="19.551"/>
<polygon class="st6" points="342.872,-55.549 342.872,-35.549 342.872,-35.299 343.122,-35.299 411.971,-35.299 412.221,-35.299 
	412.221,-35.549 412.221,-55.549 412.221,-55.799 411.971,-55.799 343.122,-55.799 342.872,-55.799 "/>
<rect x="342.622" y="-56.049" class="st9" width="69.849" height="21"/>
<rect x="377.986" y="10.605" class="st10" width="34.924" height="19.551"/>
<polygon class="st6" points="342.978,10.48 342.978,30.48 342.978,30.73 343.228,30.73 412.077,30.73 412.327,30.73 412.327,30.48 
	412.327,10.48 412.327,10.23 412.077,10.23 343.228,10.23 342.978,10.23 "/>
<rect x="342.728" y="9.98" class="st9" width="70.183" height="21"/>
<line class="st19" x1="466.017" y1="-59.494" x2="429.994" y2="-59.494"/>
<path class="st20" d="M457.514-56.348c2.045,0,3.703-1.658,3.703-3.703c0-2.045-1.658-3.703-3.703-3.703
	c-2.045,0-3.703,1.658-3.703,3.703C453.811-58.006,455.469-56.348,457.514-56.348"/>
</svg>
