<?xml version="1.0" encoding="utf-8"?>
<!-- Generator: Adobe Illustrator 26.0.3, SVG Export Plug-In . SVG Version: 6.00 Build 0)  -->
<svg version="1.1" id="Ebene_1" xmlns="http://www.w3.org/2000/svg" xmlns:xlink="http://www.w3.org/1999/xlink" x="0px" y="0px"
	 width="27px" height="27px" viewBox="0 0 27 27" style="enable-background:new 0 0 27 27;" xml:space="preserve">
<style type="text/css">
	.st0{fill:none;stroke:#C5C5C5;stroke-width:3;stroke-linecap:round;stroke-linejoin:round;}
	.st1{fill:#FFAEFF;stroke:#4F4D4D;stroke-width:0.5;}
	.st2{fill:#F8F8F8;}
	.st3{fill:#0E689A;}
	.st4{fill:none;stroke:#B2B1B1;stroke-width:0.65;stroke-miterlimit:10;}
	.st5{fill:#B2B1B1;}
	.st6{fill:none;stroke:#B2B2B2;stroke-width:0.5;stroke-miterlimit:10;}
	.st7{fill:none;stroke:#B2B1B1;stroke-width:0.3;stroke-miterlimit:10;}
	.st8{fill:none;stroke:#FFFFFF;stroke-width:0.021;}
	.st9{fill:none;}
	.st10{fill:#0E6899;}
	.st11{fill:#FFFFFF;}
	.st12{fill:none;stroke:#C5C5C5;stroke-width:0.5;stroke-linecap:round;stroke-linejoin:round;}
	.st13{fill:#C5C5C5;}
	.st14{fill:none;stroke:#B2B1B1;stroke-width:0.5;}
	.st15{fill:none;stroke:#B2B1B1;stroke-width:1.2;}
	.st16{fill:#B2B2B2;}
	.st17{fill:none;stroke:#FFFFFF;stroke-width:0.001;}
	.st18{fill:none;stroke:#B2B1B1;stroke-width:1.712;}
	.st19{fill:none;stroke:#B2B1B1;stroke-width:2;}
	.st20{fill:#AD5E7A;}
	.st21{fill:none;stroke:#B2B1B1;stroke-width:0.941;}
	.st22{fill:none;stroke:#B2B1B1;stroke-width:0.941;stroke-dasharray:1.889,1.889;}
	.st23{fill:none;stroke:#B2B1B1;stroke-width:0.941;stroke-dasharray:1.754,1.754;}
	.st24{fill:none;stroke:#B2B1B1;stroke-width:0.804;}
	.st25{fill:none;stroke:#FFFFFF;stroke-width:0.804;}
	.st26{fill:none;stroke:#B2B1B1;stroke-width:2.5;}
	.st27{fill:none;stroke:#B2B1B1;stroke-width:0.941;stroke-dasharray:1.971,1.971;}
	.st28{fill:none;stroke:#B2B1B1;stroke-width:0.941;stroke-dasharray:2.006,2.006;}
	.st29{fill:none;stroke:#B2B1B1;stroke-width:0.941;stroke-dasharray:1.801,1.801;}
	.st30{fill:none;stroke:#B2B1B1;stroke-width:0.941;stroke-dasharray:2.091,2.091;}
	
		.st31{clip-path:url(#SVGID_00000003821727628683873980000012133792765547866503_);fill:none;stroke:#B2B2B2;stroke-linecap:round;stroke-linejoin:round;stroke-dasharray:0,3.009;}
	
		.st32{clip-path:url(#SVGID_00000003821727628683873980000012133792765547866503_);fill:none;stroke:#B2B2B2;stroke-linecap:round;stroke-linejoin:round;}
	.st33{fill:none;stroke:#4F4D4D;stroke-width:0.5;}
</style>
<polyline class="st0" points="1815.625,908.412 1809.375,899.412 1802.625,908.412 "/>
<circle class="st1" cx="-176.268" cy="-54.337" r="12.75"/>
<rect x="-143.808" y="-65.352" class="st2" width="119.902" height="21"/>
<polygon class="st3" points="-32.979,-60.089 -45.979,-60.089 -39.611,-49.614 "/>
<g>
	<g>
		<line class="st4" x1="80.034" y1="-47.831" x2="90.317" y2="-47.831"/>
		<g>
			<path class="st5" d="M81.321-53.057v-5.175h1.3v5.122c0,2.016,0.923,2.926,2.561,2.926c1.638,0,2.574-0.91,2.574-2.926v-5.122
				h1.261v5.175c0,2.639-1.443,4.029-3.848,4.029C82.777-49.028,81.321-50.418,81.321-53.057z"/>
		</g>
	</g>
	<polygon class="st6" points="71.925,-66.032 71.925,-40.032 71.925,-39.782 72.175,-39.782 98.175,-39.782 98.425,-39.782 
		98.425,-40.032 98.425,-66.032 98.425,-66.282 98.175,-66.282 72.175,-66.282 71.925,-66.282 	"/>
</g>
<g>
	<g>
		<path class="st5" d="M50.571-57.958h1.3l-1.82,9.101h-1.3L50.571-57.958z"/>
	</g>
	<polygon class="st6" points="37.061,-66.408 37.061,-40.408 37.061,-40.158 37.311,-40.158 63.311,-40.158 63.561,-40.158 
		63.561,-40.408 63.561,-66.408 63.561,-66.658 63.311,-66.658 37.311,-66.658 37.061,-66.658 	"/>
</g>
<g>
	<g>
		<path class="st5" d="M17.423-51.289c0,1.573-1.248,2.483-3.64,2.483H9.077v-9.101h4.446c2.275,0,3.445,0.949,3.445,2.366
			c0,0.91-0.468,1.612-1.209,2.002C16.773-53.213,17.423-52.433,17.423-51.289z M11.17-56.321v2.146h2.093
			c1.027,0,1.586-0.364,1.586-1.079s-0.559-1.066-1.586-1.066H11.17z M15.304-51.51c0-0.767-0.585-1.131-1.677-1.131H11.17v2.249
			h2.457C14.719-50.392,15.304-50.73,15.304-51.51z"/>
	</g>
	<polygon class="st6" points="0,-66.356 0,-40.356 0,-40.106 0.25,-40.106 26.25,-40.106 26.5,-40.106 26.5,-40.356 26.5,-66.356 
		26.5,-66.606 26.25,-66.606 0.25,-66.606 0,-66.606 	"/>
</g>
<path class="st7" d="M54.188-24.402"/>
<path class="st7" d="M51.68-23.149"/>
<path class="st7" d="M51.68-21.895"/>
<path class="st7" d="M51.68-20.64"/>
<path class="st7" d="M54.188-19.386"/>
<path class="st7" d="M54.188-18.132"/>
<path class="st7" d="M51.68-16.879"/>
<path class="st7" d="M51.68-14.371"/>
<path class="st7" d="M54.188-11.863"/>
<g>
	<path class="st7" d="M34.723-19.386"/>
	<path class="st7" d="M34.723-24.402"/>
	<path class="st7" d="M34.723-11.863"/>
	<path class="st7" d="M34.723-18.132"/>
	<g>
		<path class="st7" d="M36.786-16.879"/>
		<path class="st7" d="M36.786-20.64"/>
		<path class="st7" d="M36.786-21.895"/>
		<path class="st7" d="M36.786-23.149"/>
		<line class="st7" x1="34.348" y1="-12.658" x2="53.812" y2="-12.658"/>
		<line class="st7" x1="34.348" y1="-13.933" x2="49.242" y2="-13.933"/>
		<line class="st7" x1="34.348" y1="-15.209" x2="49.242" y2="-15.209"/>
		<line class="st7" x1="34.348" y1="-16.485" x2="49.242" y2="-16.485"/>
		<line class="st7" x1="34.348" y1="-17.761" x2="53.812" y2="-17.761"/>
		<line class="st7" x1="34.348" y1="-19.037" x2="53.812" y2="-19.037"/>
		<line class="st7" x1="34.421" y1="-20.313" x2="49.315" y2="-20.313"/>
		<line class="st7" x1="34.348" y1="-21.589" x2="53.812" y2="-21.589"/>
		<line class="st7" x1="34.348" y1="-22.865" x2="49.242" y2="-22.865"/>
		<line class="st7" x1="34.348" y1="-24.141" x2="49.242" y2="-24.141"/>
		<line class="st7" x1="34.348" y1="-25.417" x2="53.812" y2="-25.417"/>
	</g>
	<polygon class="st6" points="31.021,-31.712 31.021,-5.719 31.021,-5.469 31.271,-5.469 57.264,-5.469 57.514,-5.469 
		57.514,-5.719 57.514,-31.712 57.514,-31.962 57.264,-31.962 31.271,-31.962 31.021,-31.962 	"/>
</g>
<g>
	<g>
		<line class="st7" x1="85.068" y1="-25.1" x2="65.604" y2="-25.1"/>
		<line class="st7" x1="82.56" y1="-23.823" x2="67.666" y2="-23.823"/>
		<line class="st7" x1="82.56" y1="-22.546" x2="67.666" y2="-22.546"/>
		<line class="st7" x1="82.56" y1="-21.269" x2="67.666" y2="-21.269"/>
		<line class="st7" x1="85.068" y1="-19.992" x2="65.604" y2="-19.992"/>
		<line class="st7" x1="85.068" y1="-18.715" x2="65.604" y2="-18.715"/>
		<line class="st7" x1="82.56" y1="-17.438" x2="67.666" y2="-17.438"/>
		<line class="st7" x1="85.068" y1="-16.161" x2="65.604" y2="-16.161"/>
		<line class="st7" x1="82.56" y1="-14.884" x2="67.666" y2="-14.884"/>
		<line class="st7" x1="82.56" y1="-13.607" x2="67.666" y2="-13.607"/>
		<line class="st7" x1="85.068" y1="-12.33" x2="65.604" y2="-12.33"/>
	</g>
	<polygon class="st6" points="62.09,-31.712 62.09,-5.719 62.09,-5.469 62.34,-5.469 88.333,-5.469 88.583,-5.469 88.583,-5.719 
		88.583,-31.712 88.583,-31.962 88.333,-31.962 62.34,-31.962 62.09,-31.962 	"/>
</g>
<polygon class="st6" points="93.158,-31.712 93.158,-5.719 93.158,-5.469 93.408,-5.469 119.401,-5.469 119.651,-5.469 
	119.651,-5.719 119.651,-31.712 119.651,-31.962 119.401,-31.962 93.408,-31.962 93.158,-31.962 "/>
<path class="st7" d="M96.485-13.027"/>
<path class="st7" d="M96.485-18.044"/>
<path class="st7" d="M96.485-19.297"/>
<path class="st7" d="M96.485-25.567"/>
<path class="st7" d="M113.887-20.551"/>
<path class="st7" d="M115.95-18.044"/>
<path class="st7" d="M113.887-16.79"/>
<path class="st7" d="M115.95-13.027"/>
<path class="st7" d="M115.95-25.567"/>
<path class="st7" d="M115.95-19.297"/>
<path class="st7" d="M113.887-15.535"/>
<path class="st7" d="M113.887-14.281"/>
<g>
	<path class="st7" d="M98.805-14.604"/>
	<path class="st7" d="M98.805-15.858"/>
	<path class="st7" d="M98.805-17.112"/>
	<path class="st7" d="M98.805-20.874"/>
	<path class="st7" d="M98.805-23.382"/>
	<line class="st7" x1="116.137" y1="-25.094" x2="96.673" y2="-25.094"/>
	<line class="st7" x1="116.137" y1="-23.819" x2="101.243" y2="-23.819"/>
	<line class="st7" x1="116.137" y1="-22.543" x2="101.243" y2="-22.543"/>
	<line class="st7" x1="116.137" y1="-21.267" x2="101.243" y2="-21.267"/>
	<line class="st7" x1="116.137" y1="-19.991" x2="96.673" y2="-19.991"/>
	<line class="st7" x1="116.137" y1="-18.715" x2="96.673" y2="-18.715"/>
	<line class="st7" x1="116.064" y1="-17.439" x2="101.17" y2="-17.439"/>
	<line class="st7" x1="116.137" y1="-16.163" x2="96.673" y2="-16.163"/>
	<line class="st7" x1="116.137" y1="-14.887" x2="101.243" y2="-14.887"/>
	<line class="st7" x1="116.137" y1="-13.611" x2="101.243" y2="-13.611"/>
	<line class="st7" x1="116.137" y1="-12.336" x2="96.673" y2="-12.336"/>
</g>
<polygon class="st6" points="0.25,-31.705 0.25,-5.712 0.25,-5.462 0.5,-5.462 26.493,-5.462 26.743,-5.462 26.743,-5.712 
	26.743,-31.705 26.743,-31.955 26.493,-31.955 0.5,-31.955 0.25,-31.955 "/>
<path class="st7" d="M23.417-24.402"/>
<path class="st7" d="M23.417-19.386"/>
<path class="st7" d="M23.417-18.132"/>
<path class="st7" d="M23.417-11.863"/>
<path class="st7" d="M6.015-16.879"/>
<path class="st7" d="M3.952-19.386"/>
<path class="st7" d="M6.015-20.64"/>
<path class="st7" d="M3.952-24.402"/>
<path class="st7" d="M3.952-11.863"/>
<path class="st7" d="M3.952-18.132"/>
<path class="st7" d="M6.015-21.895"/>
<path class="st7" d="M6.015-23.149"/>
<g>
	<path class="st7" d="M20.909-23.149"/>
	<path class="st7" d="M20.909-21.895"/>
	<path class="st7" d="M20.909-20.64"/>
	<path class="st7" d="M20.909-16.879"/>
	<path class="st7" d="M20.909-14.371"/>
	<line class="st7" x1="3.577" y1="-12.658" x2="23.041" y2="-12.658"/>
	<line class="st7" x1="3.577" y1="-13.933" x2="23.041" y2="-13.933"/>
	<line class="st7" x1="3.577" y1="-15.209" x2="23.041" y2="-15.209"/>
	<line class="st7" x1="3.577" y1="-16.485" x2="23.041" y2="-16.485"/>
	<line class="st7" x1="3.577" y1="-17.761" x2="23.041" y2="-17.761"/>
	<line class="st7" x1="3.577" y1="-19.037" x2="23.041" y2="-19.037"/>
	<line class="st7" x1="3.65" y1="-20.313" x2="23.114" y2="-20.313"/>
	<line class="st7" x1="3.577" y1="-21.589" x2="23.041" y2="-21.589"/>
	<line class="st7" x1="3.577" y1="-22.865" x2="23.041" y2="-22.865"/>
	<line class="st7" x1="3.577" y1="-24.141" x2="23.041" y2="-24.141"/>
	<line class="st7" x1="3.577" y1="-25.417" x2="23.041" y2="-25.417"/>
</g>
<path class="st5" d="M-169.307,83.444l-1.915,13.335c-0.058,0.402-0.431,0.682-0.834,0.624c-0.402-0.058-0.682-0.431-0.624-0.833
	l1.915-13.336c0.058-0.402,0.431-0.681,0.834-0.623C-169.529,82.669-169.249,83.041-169.307,83.444 M-176.124,97.519
	c-0.407,0.003-0.74-0.324-0.742-0.73l-0.106-13.472c-0.003-0.407,0.324-0.739,0.73-0.742c0.408-0.003,0.74,0.324,0.743,0.731
	l0.105,13.471C-175.391,97.184-175.718,97.516-176.124,97.519 M-180.195,97.466c-0.401,0.064-0.779-0.209-0.842-0.61l-2.124-13.304
	c-0.064-0.402,0.209-0.779,0.612-0.843c0.401-0.064,0.778,0.209,0.842,0.611l2.123,13.303
	C-179.52,97.025-179.793,97.402-180.195,97.466 M-166.412,81.058c-0.141-0.169-0.353-0.266-0.573-0.264l-18.538,0.144
	c-0.22,0.002-0.429,0.101-0.568,0.272c-0.14,0.17-0.196,0.393-0.155,0.609l3.092,16.141c0.068,0.351,0.376,0.605,0.734,0.602
	l12.497-0.098c0.356-0.002,0.66-0.258,0.724-0.608l2.949-16.188C-166.21,81.452-166.271,81.227-166.412,81.058"/>
<path class="st8" d="M-169.307,83.444l-1.915,13.335c-0.058,0.402-0.431,0.682-0.834,0.624c-0.402-0.058-0.682-0.431-0.624-0.833
	l1.915-13.336c0.058-0.402,0.431-0.681,0.834-0.623C-169.529,82.669-169.249,83.041-169.307,83.444z M-176.124,97.519
	c-0.407,0.003-0.74-0.324-0.742-0.73l-0.106-13.472c-0.003-0.407,0.324-0.739,0.73-0.742c0.408-0.003,0.74,0.324,0.743,0.731
	l0.105,13.471C-175.391,97.184-175.718,97.516-176.124,97.519z M-180.195,97.466c-0.401,0.064-0.779-0.209-0.842-0.61l-2.124-13.304
	c-0.064-0.402,0.209-0.779,0.612-0.843c0.401-0.064,0.778,0.209,0.842,0.611l2.123,13.303
	C-179.52,97.025-179.793,97.402-180.195,97.466z M-166.412,81.058c-0.141-0.169-0.353-0.266-0.573-0.264l-18.538,0.144
	c-0.22,0.002-0.429,0.101-0.568,0.272c-0.14,0.17-0.196,0.393-0.155,0.609l3.092,16.141c0.068,0.351,0.376,0.605,0.734,0.602
	l12.497-0.098c0.356-0.002,0.66-0.258,0.724-0.608l2.949-16.188C-166.21,81.452-166.271,81.227-166.412,81.058z"/>
<path class="st5" d="M-179.099,76.45L-179.099,76.45l-0.004-0.421l5.49-0.043l0.004,0.421L-179.099,76.45z M-165.362,77.86
	L-165.362,77.86l-2.025,0.016l-0.009-1.171c-0.001-0.091-0.038-0.18-0.103-0.244c-0.065-0.064-0.155-0.1-0.246-0.1l-4.467,0.035
	l-0.009-1.12c-0.002-0.184-0.077-0.363-0.209-0.492c-0.131-0.13-0.311-0.203-0.495-0.201l-6.887,0.054
	c-0.183,0.001-0.363,0.077-0.492,0.208c-0.129,0.131-0.202,0.312-0.2,0.496l0.009,1.12l-4.164,0.032
	c-0.091,0.001-0.18,0.039-0.243,0.104c-0.065,0.065-0.101,0.154-0.101,0.246l0.009,1.171l-2.197,0.017l0.017,2.225l21.829-0.17
	L-165.362,77.86z"/>
<path class="st8" d="M-179.099,76.45L-179.099,76.45l-0.004-0.421l5.49-0.043l0.004,0.421L-179.099,76.45z M-165.362,77.86
	L-165.362,77.86l-2.025,0.016l-0.009-1.171c-0.001-0.091-0.038-0.18-0.103-0.244c-0.065-0.064-0.155-0.1-0.246-0.1l-4.467,0.035
	l-0.009-1.12c-0.002-0.184-0.077-0.363-0.209-0.492c-0.131-0.13-0.311-0.203-0.495-0.201l-6.887,0.054
	c-0.183,0.001-0.363,0.077-0.492,0.208c-0.129,0.131-0.202,0.312-0.2,0.496l0.009,1.12l-4.164,0.032
	c-0.091,0.001-0.18,0.039-0.243,0.104c-0.065,0.065-0.101,0.154-0.101,0.246l0.009,1.171l-2.197,0.017l0.017,2.225l21.829-0.17
	L-165.362,77.86z"/>
<rect x="-187.202" y="74.572" class="st9" width="21.868" height="24"/>
<rect x="153.727" y="-66.196" class="st10" width="34.924" height="19.551"/>
<g>
	<path class="st11" d="M166.704-55.782v4.238h-0.884v-1.066c-0.416,0.702-1.222,1.132-2.354,1.132c-1.547,0-2.496-0.807-2.496-1.989
		c0-1.054,0.676-1.938,2.639-1.938h2.171v-0.416c0-1.17-0.663-1.807-1.938-1.807c-0.884,0-1.716,0.312-2.275,0.806l-0.416-0.688
		c0.689-0.585,1.703-0.924,2.782-0.924C165.703-58.435,166.704-57.55,166.704-55.782z M165.781-53.598v-1.118h-2.146
		c-1.326,0-1.755,0.52-1.755,1.222c0,0.793,0.637,1.287,1.729,1.287C164.65-52.207,165.417-52.701,165.781-53.598z"/>
	<path class="st11" d="M174.803-58.382v6.838h-0.884v-1.248c-0.481,0.832-1.365,1.313-2.458,1.313c-1.742,0-2.886-0.976-2.886-2.938
		v-3.965h0.923v3.874c0,1.456,0.754,2.197,2.054,2.197c1.43,0,2.327-0.924,2.327-2.483v-3.588H174.803z"/>
	<path class="st11" d="M176.103-52.324l0.416-0.728c0.546,0.429,1.469,0.767,2.431,0.767c1.3,0,1.833-0.441,1.833-1.118
		c0-1.78-4.433-0.377-4.433-3.081c0-1.118,0.962-1.95,2.704-1.95c0.884,0,1.846,0.247,2.418,0.638l-0.403,0.74
		c-0.598-0.416-1.313-0.585-2.015-0.585c-1.235,0-1.781,0.481-1.781,1.132c0,1.846,4.434,0.455,4.434,3.081
		c0,1.183-1.04,1.95-2.821,1.95C177.754-51.479,176.662-51.843,176.103-52.324z"/>
</g>
<polygon class="st6" points="153.977,-66.321 153.977,-46.321 153.977,-46.071 154.227,-46.071 223.076,-46.071 223.326,-46.071 
	223.326,-46.321 223.326,-66.321 223.326,-66.571 223.076,-66.571 154.227,-66.571 153.977,-66.571 "/>
<rect x="153.727" y="-66.821" class="st9" width="69.849" height="21"/>
<rect x="-250.67" y="140.51" class="st11" width="1014" height="21"/>
<path class="st3" d="M376.491,140.51c-2.209,0-4,1.791-4,4v12.382c0,2.209,1.791,4,4,4h77.131c2.209,0,4-1.791,4-4V144.51
	c0-2.209-1.791-4-4-4H376.491z"/>
<rect x="-250.42" y="140.76" class="st12" width="1013.5" height="20.5"/>
<path class="st13" d="M747.186,143.37v1.481c0,0.397,0.187,0.771,0.505,1.009l6.367,4.762c0.258,0.194,0.258,0.583,0,0.776
	l-6.367,4.762c-0.318,0.238-0.505,0.612-0.505,1.01v1.48c0,0.41,0.467,0.644,0.795,0.399l10.111-7.563
	c0.318-0.237,0.318-0.714,0-0.952l-10.11-7.562C747.653,142.726,747.186,142.961,747.186,143.37"/>
<path class="st13" d="M-234.817,158.65v-1.481c0-0.397-0.187-0.771-0.505-1.009l-6.367-4.762c-0.258-0.194-0.258-0.583,0-0.776
	l6.367-4.762c0.318-0.238,0.505-0.612,0.505-1.01v-1.48c0-0.41-0.467-0.644-0.795-0.399l-10.111,7.563
	c-0.318,0.237-0.318,0.714,0,0.952l10.11,7.562C-235.284,159.294-234.817,159.059-234.817,158.65"/>
<rect x="-250.67" y="140.51" class="st9" width="1014" height="21"/>
<rect x="805.102" y="-104.036" class="st11" width="21" height="702.123"/>
<path class="st3" d="M805.102,309.926c0,2.209,1.791,4,4,4h12.382c2.209,0,4-1.791,4-4V231.64c0-2.209-1.791-4-4-4h-12.382
	c-2.209,0-4,1.791-4,4V309.926z"/>
<rect x="805.352" y="-103.787" class="st12" width="20.5" height="701.624"/>
<path class="st13" d="M807.962-90.501h1.481c0.397,0,0.771-0.19,1.009-0.512l4.762-6.453c0.194-0.262,0.583-0.262,0.776,0
	l4.762,6.453c0.238,0.322,0.612,0.512,1.01,0.512h1.48c0.41,0,0.644-0.474,0.399-0.806l-7.563-10.248
	c-0.237-0.322-0.714-0.322-0.952,0l-7.562,10.248C807.318-90.975,807.553-90.501,807.962-90.501"/>
<path class="st13" d="M823.242,583.751h-1.481c-0.397,0-0.771,0.19-1.009,0.512l-4.762,6.453c-0.194,0.262-0.583,0.262-0.776,0
	l-4.762-6.453c-0.238-0.322-0.612-0.512-1.01-0.512h-1.48c-0.41,0-0.644,0.474-0.399,0.806l7.563,10.248
	c0.237,0.322,0.714,0.322,0.952,0l7.562-10.248C823.886,584.225,823.651,583.751,823.242,583.751"/>
<rect x="805.102" y="-104.037" class="st9" width="21" height="702.124"/>
<line class="st7" x1="84.127" y1="8.09" x2="71.11" y2="8.09"/>
<line class="st7" x1="84.127" y1="13.178" x2="71.11" y2="13.178"/>
<line class="st7" x1="84.127" y1="18.266" x2="71.11" y2="18.266"/>
<text transform="matrix(1 0 0 1 66.5388 7.959)" class="st5" style="font-family:'Montserrat-Bold'; font-size:3px;">1</text>
<text transform="matrix(1 0 0 1 66.5388 12.9746)" class="st5" style="font-family:'Montserrat-Bold'; font-size:3px;">2</text>
<text transform="matrix(1 0 0 1 66.5388 17.9902)" class="st5" style="font-family:'Montserrat-Bold'; font-size:3px;">3</text>
<polygon class="st6" points="62.083,0.5 62.083,26.5 62.083,26.75 62.333,26.75 88.333,26.75 88.583,26.75 88.583,26.5 88.583,0.5 
	88.583,0.25 88.333,0.25 62.333,0.25 62.083,0.25 "/>
<polygon class="st6" points="30.592,0.5 30.592,26.5 30.592,26.75 30.842,26.75 56.842,26.75 57.092,26.75 57.092,26.5 57.092,0.5 
	57.092,0.25 56.842,0.25 30.842,0.25 30.592,0.25 "/>
<polygon class="st6" points="0.25,0.5 0.25,26.5 0.25,26.75 0.5,26.75 26.5,26.75 26.75,26.75 26.75,26.5 26.75,0.5 26.75,0.25 
	26.5,0.25 0.5,0.25 0.25,0.25 "/>
<path class="st7" d="M52.124,18.625H39.108 M52.124,13.492H39.108 M52.124,8.36H39.108"/>
<path class="st5" d="M37.021,14.077c0.161-0.156,0.241-0.349,0.241-0.581c0-0.15-0.037-0.288-0.11-0.414
	c-0.073-0.125-0.172-0.224-0.297-0.297c-0.126-0.073-0.264-0.11-0.415-0.11c-0.15,0-0.288,0.037-0.41,0.11
	c-0.122,0.073-0.221,0.172-0.294,0.297c-0.072,0.126-0.11,0.264-0.11,0.414c0,0.232,0.08,0.425,0.238,0.581
	c0.157,0.156,0.35,0.234,0.576,0.234C36.667,14.311,36.86,14.233,37.021,14.077"/>
<path class="st5" d="M36.444,9.442c0.489,0,0.885-0.396,0.885-0.885c0-0.488-0.396-0.885-0.885-0.885
	c-0.488,0-0.885,0.397-0.885,0.885C35.559,9.046,35.956,9.442,36.444,9.442"/>
<path class="st5" d="M37.021,19.094c0.161-0.156,0.241-0.349,0.241-0.581c0-0.15-0.037-0.288-0.11-0.414
	c-0.073-0.125-0.172-0.224-0.297-0.297c-0.126-0.073-0.264-0.11-0.415-0.11c-0.15,0-0.288,0.037-0.41,0.11
	c-0.122,0.073-0.221,0.172-0.294,0.297c-0.072,0.126-0.11,0.264-0.11,0.414c0,0.232,0.08,0.425,0.238,0.581
	c0.157,0.156,0.35,0.234,0.576,0.234C36.667,19.328,36.86,19.25,37.021,19.094"/>
<path class="st7" d="M21.782,18.632H8.766 M21.782,13.499H8.766 M21.782,8.367H8.766"/>
<rect x="5.218" y="7.598" class="st5" width="1.77" height="1.77"/>
<rect x="5.218" y="12.614" class="st5" width="1.77" height="1.77"/>
<rect x="5.218" y="17.632" class="st5" width="1.77" height="1.77"/>
<rect x="343.74" y="-67.289" class="st2" width="245" height="57.75"/>
<text transform="matrix(1 0 0 1 418.4373 -41.0939)"><tspan x="0" y="0" class="st5" style="font-family:'Montserrat-Regular'; font-size:13px;">N</tspan><tspan x="10.478" y="0" class="st5" style="font-family:'Montserrat-Regular'; font-size:13px;">e</tspan><tspan x="18.135" y="0" class="st5" style="font-family:'Montserrat-Regular'; font-size:13px;">u</tspan><tspan x="26.753" y="0" class="st5" style="font-family:'Montserrat-Regular'; font-size:13px;">e </tspan><tspan x="38.011" y="0" class="st5" style="font-family:'Montserrat-Regular'; font-size:13px; letter-spacing:-1;">T</tspan><tspan x="44.381" y="0" class="st5" style="font-family:'Montserrat-Regular'; font-size:13px;">e</tspan><tspan x="51.882" y="0" class="st5" style="font-family:'Montserrat-Regular'; font-size:13px;">x</tspan><tspan x="59.097" y="0" class="st5" style="font-family:'Montserrat-Regular'; font-size:13px;">t</tspan><tspan x="64.128" y="0" class="st5" style="font-family:'Montserrat-Regular'; font-size:13px;">b</tspan><tspan x="72.942" y="0" class="st5" style="font-family:'Montserrat-Regular'; font-size:13px;">o</tspan><tspan x="80.742" y="0" class="st5" style="font-family:'Montserrat-Regular'; font-size:13px;">x </tspan></text>
<path class="st14" d="M466.24-19.331c3.707,0,6.713-3.005,6.713-6.712c0-3.708-3.006-6.713-6.713-6.713
	c-3.707,0-6.712,3.005-6.712,6.713C459.528-22.336,462.533-19.331,466.24-19.331z"/>
<rect x="343.74" y="-67.289" class="st9" width="245" height="57.75"/>
<line class="st15" x1="466.24" y1="-29.577" x2="466.24" y2="-22.508"/>
<line class="st15" x1="462.705" y1="-26.012" x2="469.773" y2="-26.012"/>
<path class="st14" d="M355.278,20.505c3.707,0,6.713-3.005,6.713-6.712c0-3.708-3.006-6.713-6.713-6.713
	c-3.707,0-6.712,3.005-6.712,6.713C348.566,17.5,351.571,20.505,355.278,20.505z"/>
<line class="st15" x1="355.278" y1="10.258" x2="355.278" y2="17.327"/>
<line class="st15" x1="351.744" y1="13.824" x2="358.812" y2="13.824"/>
<g>
	<path class="st16" d="M-140.614,35.64h-3.138v-1.85h8.544v1.85h-3.138v7.956h-2.269V35.64z"/>
	<path class="st16" d="M-133.993,33.79h2.269v9.806h-2.269V33.79z"/>
	<path class="st16" d="M-120.899,37.349c0,2.185-1.639,3.544-4.258,3.544h-1.975v2.703h-2.269V33.79h4.244
		C-122.538,33.79-120.899,35.15-120.899,37.349z M-123.196,37.349c0-1.079-0.701-1.709-2.087-1.709h-1.849v3.403h1.849
		C-123.897,39.043-123.196,38.413-123.196,37.349z"/>
	<path class="st16" d="M-110.777,37.349c0,2.185-1.639,3.544-4.258,3.544h-1.975v2.703h-2.269V33.79h4.244
		C-112.416,33.79-110.777,35.15-110.777,37.349z M-113.074,37.349c0-1.079-0.701-1.709-2.087-1.709h-1.849v3.403h1.849
		C-113.775,39.043-113.074,38.413-113.074,37.349z"/>
</g>
<path class="st16" d="M-177.242,29.319L-177.242,29.319c-1.054,2.474-1.96,4.602-2.889,6.784h5.729
	C-175.346,33.847-176.228,31.739-177.242,29.319 M-173.749,46.909L-173.749,46.909c-0.346-1.15-0.211-1.759,1.044-1.8
	c0.976-0.033,1.343-0.74,1.02-1.64c-0.507-1.414-1.072-2.81-1.681-4.183c-0.109-0.245-0.55-0.478-0.843-0.484
	c-2.129-0.041-4.261-0.046-6.39,0.005c-0.305,0.008-0.741,0.315-0.877,0.599c-0.558,1.155-1.057,2.342-1.512,3.542
	c-0.57,1.504-0.268,2.026,1.348,2.192c0.783,0.081,1.206,0.319,1.022,1.126c-0.056,0.243-0.355,0.61-0.547,0.613
	c-2.524,0.042-5.049,0.028-7.596,0.028c-0.214-0.956-0.321-1.631,0.868-1.885c0.569-0.122,1.219-0.609,1.515-1.117
	c0.755-1.293,1.377-2.67,1.972-4.049c2.401-5.559,4.761-11.135,7.172-16.689c0.173-0.398,0.634-0.67,0.96-1
	c0.319,0.343,0.766,0.632,0.937,1.037c2.56,6.048,5.079,12.114,7.622,18.17c0.326,0.776,0.705,1.534,1.106,2.275
	c0.507,0.939,1.332,1.389,2.379,1.595c0.265,0.052,0.519,0.638,0.586,1.013c0.032,0.175-0.39,0.621-0.611,0.624
	C-167.407,46.922-170.56,46.909-173.749,46.909"/>
<path class="st5" d="M-80.004,39.371c2.682-0.014,4.762-2.036,4.751-4.621c-0.01-2.367-2.203-4.406-4.733-4.399
	c-2.703,0.008-4.848,2.038-4.825,4.568C-84.788,37.383-82.628,39.384-80.004,39.371 M-74.449,39.384L-74.449,39.384
	c0.393-0.231,0.569-0.207,0.91,0.115c1.249,1.181,2.501,2.361,3.751,3.541c0.086,0.08,0.173,0.159,0.252,0.246
	c0.216,0.237,0.217,0.464-0.012,0.692c-0.249,0.248-0.509,0.488-0.767,0.727c-0.302,0.28-0.548,0.287-0.855,0
	c-1.177-1.103-2.348-2.211-3.522-3.318c-0.132-0.124-0.263-0.25-0.396-0.373c-0.368-0.34-0.394-0.487-0.153-0.896
	c-0.368-0.336-0.737-0.673-1.128-1.029c-1.472,1.07-3.153,1.471-5.011,1.06c-1.415-0.313-2.544-1.054-3.377-2.178
	c-1.65-2.23-1.286-5.335,0.823-7.11c2.222-1.87,5.521-1.904,7.68-0.117c2.217,1.835,2.765,5.106,0.696,7.583
	C-75.188,38.68-74.819,39.031-74.449,39.384"/>
<path class="st17" d="M-80.004,39.371c2.682-0.014,4.762-2.036,4.751-4.621c-0.01-2.367-2.203-4.406-4.733-4.399
	c-2.703,0.008-4.848,2.038-4.825,4.568C-84.788,37.383-82.628,39.384-80.004,39.371z M-74.449,39.384L-74.449,39.384
	c0.393-0.231,0.569-0.207,0.91,0.115c1.249,1.181,2.501,2.361,3.751,3.541c0.086,0.08,0.173,0.159,0.252,0.246
	c0.216,0.237,0.217,0.464-0.012,0.692c-0.249,0.248-0.509,0.488-0.767,0.727c-0.302,0.28-0.548,0.287-0.855,0
	c-1.177-1.103-2.348-2.211-3.522-3.318c-0.132-0.124-0.263-0.25-0.396-0.373c-0.368-0.34-0.394-0.487-0.153-0.896
	c-0.368-0.336-0.737-0.673-1.128-1.029c-1.472,1.07-3.153,1.471-5.011,1.06c-1.415-0.313-2.544-1.054-3.377-2.178
	c-1.65-2.23-1.286-5.335,0.823-7.11c2.222-1.87,5.521-1.904,7.68-0.117c2.217,1.835,2.765,5.106,0.696,7.583
	C-75.188,38.68-74.819,39.031-74.449,39.384z"/>
<path class="st5" d="M-16.289,29.79l2.966,2.98v-2.758c0-0.096-0.055-0.229-0.123-0.297l-3.807-3.826
	c-0.068-0.067-0.178-0.067-0.245,0l-3.93,3.949v2.758c0,0.096,0.055,0.119,0.122,0.051l2.844-2.857
	c0.068-0.068,0.122-0.046,0.122,0.05v7.829h0v2.168c0,0.096-0.055,0.118-0.123,0.05l-2.966-2.98v2.758
	c0,0.096,0.055,0.229,0.123,0.297l3.807,3.826c0.068,0.067,0.178,0.067,0.245,0l3.93-3.949v-2.758c0-0.096-0.055-0.119-0.122-0.051
	l-2.844,2.857c-0.068,0.068-0.122,0.046-0.122-0.05v-7.829h0V29.84C-16.412,29.744-16.357,29.722-16.289,29.79z"/>
<line class="st18" x1="-52.428" y1="43.027" x2="-24.595" y2="43.027"/>
<line class="st18" x1="-52.428" y1="34.731" x2="-24.595" y2="34.731"/>
<line class="st18" x1="-52.428" y1="26.738" x2="-24.595" y2="26.738"/>
<line class="st18" x1="-38.086" y1="61.998" x2="-38.086" y2="82.998"/>
<path class="st5" d="M-30.626,75.841L-30.626,75.841h2.695l-2.603-2.569c-0.138-0.135-0.093-0.245,0.101-0.245h7.006V71.62
	c0-0.193-0.157-0.35-0.35-0.35h-6.656c-0.194,0-0.239-0.11-0.101-0.246l2.603-2.569h-2.345c-0.193,0-0.462,0.111-0.599,0.246
	l-3.245,3.201c-0.137,0.136-0.137,0.356,0,0.492L-30.626,75.841z"/>
<path class="st5" d="M-46.397,68.63L-46.397,68.63h-2.695l2.603,2.569c0.138,0.135,0.093,0.245-0.101,0.245h-7.006v1.407
	c0,0.193,0.157,0.35,0.35,0.35h6.656c0.194,0,0.239,0.11,0.101,0.246l-2.603,2.569h2.345c0.193,0,0.462-0.111,0.599-0.246
	l3.245-3.201c0.137-0.136,0.137-0.356,0-0.492L-46.397,68.63z"/>
<line class="st19" x1="278.2" y1="-57.115" x2="242.177" y2="-57.115"/>
<path class="st20" d="M269.697-53.969c2.045,0,3.703-1.658,3.703-3.703c0-2.045-1.658-3.703-3.703-3.703s-3.703,1.658-3.703,3.703
	C265.994-55.627,267.652-53.969,269.697-53.969"/>
<g>
	<path class="st5" d="M292.896-56.914c0,3.12-1.82,4.836-4.459,4.836c-0.91,0-1.781-0.195-2.392-0.585l0.624-1.274
		c0.494,0.325,1.092,0.442,1.729,0.442c1.716,0,2.795-1.066,2.795-3.133v-0.014c-0.546,0.638-1.417,0.949-2.431,0.949
		c-1.794,0-3.133-1.092-3.133-2.795c0-1.807,1.469-2.951,3.328-2.951C291.44-61.438,292.896-59.839,292.896-56.914z M290.933-58.578
		c0-0.858-0.676-1.534-1.885-1.534c-1.053,0-1.781,0.598-1.781,1.547s0.715,1.547,1.82,1.547
		C290.179-57.018,290.933-57.681,290.933-58.578z"/>
	<path class="st5" d="M300.761-55.003c0,1.599-1.157,2.925-3.602,2.925c-1.287,0-2.587-0.39-3.419-1.053l0.715-1.313
		c0.663,0.546,1.651,0.897,2.678,0.897c1.209,0,1.924-0.533,1.924-1.392c0-0.871-0.559-1.417-2.444-1.417h-2.197l0.468-4.953h5.343
		v1.417h-3.913l-0.195,2.106h0.871C299.682-57.785,300.761-56.615,300.761-55.003z"/>
	<path class="st5" d="M305.18-58.903c0-1.495,0.871-2.496,2.171-2.496s2.184,0.988,2.184,2.496s-0.884,2.496-2.184,2.496
		S305.18-57.408,305.18-58.903z M308.469-58.903c0-1.014-0.416-1.586-1.118-1.586c-0.676,0-1.118,0.585-1.118,1.586
		s0.442,1.586,1.118,1.586C308.053-57.317,308.469-57.889,308.469-58.903z M312.812-61.308h1.274l-6.214,9.101h-1.274
		L312.812-61.308z M311.148-54.613c0-1.495,0.871-2.496,2.171-2.496c1.3,0,2.184,1.001,2.184,2.496s-0.884,2.496-2.184,2.496
		C312.018-52.117,311.148-53.118,311.148-54.613z M314.437-54.613c0-1.001-0.429-1.586-1.118-1.586s-1.118,0.572-1.118,1.586
		c0,1.015,0.429,1.586,1.118,1.586S314.437-53.612,314.437-54.613z"/>
</g>
<rect x="256.137" y="-2.972" class="st11" width="13.149" height="16.764"/>
<polygon class="st21" points="256.136,13.792 256.136,13.792 269.285,13.792 269.285,-2.972 256.136,-2.972 "/>
<rect x="248.465" y="-3.443" class="st9" width="21.291" height="24"/>
<line class="st22" x1="252.962" y1="4.723" x2="252.962" y2="15.11"/>
<line class="st23" x1="255.594" y1="16.999" x2="265.243" y2="16.999"/>
<path class="st21" d="M266.119,16.999h0.877 M252.962,16.055v0.944h0.877 M252.962,1.89v0.944"/>
<polyline class="st21" points="248.935,4.979 248.935,20.087 262.969,20.087 "/>
<rect x="248.465" y="-3.443" class="st9" width="21.291" height="24"/>
<rect x="287.711" y="-3.041" class="st11" width="14.674" height="18.705"/>
<polygon class="st24" points="287.711,15.664 287.711,15.664 302.384,15.664 302.384,-3.041 287.711,-3.041 "/>
<rect x="287.309" y="-3.443" class="st9" width="19.884" height="24"/>
<rect x="292.118" y="1.45" class="st5" width="14.674" height="18.705"/>
<polygon class="st25" points="292.117,20.155 292.117,20.155 306.79,20.155 306.79,1.45 292.117,1.45 "/>
<rect x="287.309" y="-3.443" class="st9" width="19.884" height="24"/>
<rect x="188.818" y="0.506" class="st10" width="34.924" height="19.551"/>
<text transform="matrix(1 0 0 1 195.8183 15.1576)"><tspan x="0" y="0" class="st11" style="font-family:'Montserrat-Regular'; font-size:13px;">e</tspan><tspan x="7.41" y="0" class="st11" style="font-family:'Montserrat-Regular'; font-size:13px;">i</tspan><tspan x="10.335" y="0" class="st11" style="font-family:'Montserrat-Regular'; font-size:13px;">n</tspan></text>
<polygon class="st6" points="153.81,0.381 153.81,20.381 153.81,20.631 154.06,20.631 222.909,20.631 223.159,20.631 
	223.159,20.381 223.159,0.381 223.159,0.131 222.909,0.131 154.06,0.131 153.81,0.131 "/>
<rect x="153.56" y="-0.119" class="st9" width="70.183" height="21"/>
<line class="st26" x1="294.874" y1="90.02" x2="294.874" y2="114.28"/>
<path class="st5" d="M302.971,105.839L302.971,105.839h2.592l-2.494-2.46c-0.138-0.135-0.093-0.245,0.101-0.245h6.725v-1.339
	c0-0.193-0.157-0.35-0.35-0.35h-6.725l2.743-2.705h-2.242c-0.193,0-0.462,0.11-0.599,0.245l-3.102,3.059
	c-0.137,0.135-0.137,0.355,0,0.491L302.971,105.839z"/>
<line class="st26" x1="267.929" y1="114.113" x2="267.929" y2="89.853"/>
<path class="st5" d="M259.832,98.295L259.832,98.295h-2.592l2.494,2.46c0.138,0.135,0.093,0.245-0.101,0.245h-6.725v1.339
	c0,0.193,0.157,0.35,0.35,0.35h6.725l-2.743,2.705h2.242c0.193,0,0.462-0.11,0.599-0.245l3.102-3.059
	c0.137-0.135,0.137-0.355,0-0.491L259.832,98.295z"/>
<line class="st26" x1="78.187" y1="97.892" x2="102.447" y2="97.892"/>
<path class="st5" d="M93.838,89.834L93.838,89.834v-2.592l-2.46,2.494c-0.135,0.138-0.245,0.093-0.245-0.101V82.91h-1.339
	c-0.193,0-0.35,0.157-0.35,0.35v6.725l-2.705-2.743v2.242c0,0.193,0.11,0.462,0.245,0.599l3.059,3.102
	c0.135,0.137,0.355,0.137,0.491,0L93.838,89.834z"/>
<path class="st5" d="M86.906,104.986L86.906,104.986v2.592l2.46-2.494c0.135-0.138,0.245-0.093,0.245,0.101v6.725h1.339
	c0.193,0,0.35-0.157,0.35-0.35v-6.725l2.705,2.743v-2.242c0-0.193-0.11-0.462-0.245-0.599l-3.059-3.102
	c-0.135-0.137-0.355-0.137-0.491,0L86.906,104.986z"/>
<line class="st26" x1="134.633" y1="110.702" x2="134.633" y2="86.442"/>
<path class="st5" d="M126.575,95.051L126.575,95.051h-2.592l2.494,2.46c0.138,0.135,0.093,0.245-0.101,0.245h-6.725v1.339
	c0,0.193,0.157,0.35,0.35,0.35h6.725l-2.743,2.705h2.242c0.193,0,0.462-0.11,0.599-0.245l3.102-3.059
	c0.137-0.135,0.137-0.355,0-0.491L126.575,95.051z"/>
<path class="st5" d="M141.727,101.983L141.727,101.983h2.592l-2.494-2.46c-0.138-0.135-0.093-0.245,0.101-0.245h6.725v-1.339
	c0-0.193-0.157-0.35-0.35-0.35h-6.725l2.743-2.705h-2.242c-0.193,0-0.462,0.11-0.599,0.245l-3.102,3.059
	c-0.137,0.135-0.137,0.355,0,0.491L141.727,101.983z"/>
<line class="st26" x1="166.774" y1="98.175" x2="191.034" y2="98.175"/>
<path class="st5" d="M175.494,105.269L175.494,105.269v2.592l2.46-2.494c0.135-0.138,0.245-0.093,0.245,0.101v6.725h1.339
	c0.193,0,0.35-0.157,0.35-0.35v-6.725l2.705,2.743v-2.242c0-0.193-0.11-0.462-0.245-0.599l-3.059-3.102
	c-0.135-0.137-0.355-0.137-0.491,0L175.494,105.269z"/>
<line class="st26" x1="211.886" y1="109.43" x2="236.146" y2="109.43"/>
<path class="st5" d="M227.704,101.042L227.704,101.042V98.45l-2.46,2.494c-0.135,0.138-0.245,0.093-0.245-0.101v-6.725h-1.339
	c-0.193,0-0.35,0.157-0.35,0.35v6.725l-2.705-2.743v2.242c0,0.193,0.11,0.462,0.245,0.599l3.059,3.102
	c0.135,0.137,0.355,0.137,0.491,0L227.704,101.042z"/>
<rect x="357.749" y="82.504" class="st11" width="15.769" height="20.056"/>
<line class="st27" x1="360.706" y1="102.561" x2="371.547" y2="102.561"/>
<line class="st28" x1="373.518" y1="99.552" x2="373.518" y2="84.51"/>
<line class="st27" x1="370.562" y1="82.504" x2="359.721" y2="82.504"/>
<line class="st28" x1="357.749" y1="85.513" x2="357.749" y2="100.555"/>
<path class="st21" d="M357.749,101.558v1.003h0.986 M358.735,82.505h-0.986v1.003 M373.518,83.508v-1.003h-0.985 M372.533,102.561
	h0.985v-1.003"/>
<polygon class="st11" points="346.513,112.561 346.513,112.561 362.282,112.561 362.282,92.505 346.513,92.505 "/>
<line class="st27" x1="349.47" y1="112.561" x2="360.311" y2="112.561"/>
<line class="st28" x1="362.282" y1="109.552" x2="362.282" y2="94.51"/>
<line class="st27" x1="359.326" y1="92.504" x2="348.485" y2="92.504"/>
<line class="st28" x1="346.513" y1="95.513" x2="346.513" y2="110.555"/>
<path class="st21" d="M346.513,111.558v1.003h0.986 M347.499,92.505h-0.986v1.003 M362.282,93.508v-1.003h-0.985 M361.297,112.561
	h0.985v-1.003"/>
<polygon class="st11" points="337.039,120.561 337.039,120.561 352.808,120.561 352.808,100.505 337.039,100.505 "/>
<polygon class="st21" points="337.039,120.561 337.039,120.561 352.808,120.561 352.808,100.505 337.039,100.505 "/>
<g>
	<polygon class="st11" points="410.876,106.866 410.876,106.866 426.645,106.866 426.645,86.81 410.876,86.81 	"/>
	<polygon class="st21" points="410.876,106.866 410.876,106.866 426.645,106.866 426.645,86.81 410.876,86.81 	"/>
	<line class="st29" x1="407.112" y1="95.365" x2="407.112" y2="108.869"/>
	<line class="st30" x1="410.249" y1="110.67" x2="421.752" y2="110.67"/>
	<path class="st21" d="M422.797,110.669h1.046 M407.112,109.769v0.9h1.046 M407.112,92.664v0.9"/>
</g>
<g>
	<g>
		<rect x="483.416" y="75.09" class="st11" width="15.769" height="20.056"/>
		<polygon class="st21" points="483.416,95.146 483.416,95.146 499.185,95.146 499.185,75.09 483.416,75.09 		"/>
		<polygon class="st11" points="472.179,105.146 472.179,105.146 487.948,105.146 487.948,85.09 472.179,85.09 		"/>
		<line class="st27" x1="475.136" y1="105.146" x2="485.977" y2="105.146"/>
		<line class="st28" x1="487.948" y1="102.137" x2="487.948" y2="87.095"/>
		<line class="st27" x1="484.992" y1="85.09" x2="474.151" y2="85.09"/>
		<line class="st28" x1="472.179" y1="88.098" x2="472.179" y2="103.14"/>
		<path class="st21" d="M472.179,104.143v1.003h0.986 M473.165,85.09h-0.986v1.003 M487.948,86.093V85.09h-0.985 M486.963,105.146
			h0.985v-1.003"/>
		<polygon class="st11" points="462.706,113.146 462.706,113.146 478.475,113.146 478.475,93.09 462.706,93.09 		"/>
		<line class="st27" x1="465.663" y1="113.146" x2="476.504" y2="113.146"/>
		<line class="st28" x1="478.475" y1="110.137" x2="478.475" y2="95.095"/>
		<line class="st27" x1="475.518" y1="93.09" x2="464.677" y2="93.09"/>
		<line class="st28" x1="462.706" y1="96.098" x2="462.706" y2="111.14"/>
		<path class="st21" d="M462.705,112.143v1.003h0.986 M463.691,93.09h-0.986v1.003 M478.474,94.093V93.09h-0.985 M477.489,113.146
			h0.985v-1.003"/>
	</g>
	<line class="st27" x1="538.829" y1="108.631" x2="549.67" y2="108.631"/>
	<line class="st28" x1="551.641" y1="105.623" x2="551.641" y2="90.581"/>
	<line class="st27" x1="548.685" y1="88.575" x2="537.844" y2="88.575"/>
	<line class="st28" x1="535.872" y1="91.583" x2="535.872" y2="106.625"/>
	<path class="st21" d="M535.872,107.628v1.003h0.986 M536.858,88.575h-0.986v1.003 M551.641,89.578v-1.003h-0.985 M550.656,108.631
		h0.985v-1.003"/>
	<polyline class="st21" points="532.108,94.429 532.108,112.434 548.839,112.434 	"/>
</g>
<g>
	<defs>
		<rect id="SVGID_1_" x="-223.166" y="202.467" width="241.682" height="1"/>
	</defs>
	<clipPath id="SVGID_00000059307407436171262950000009318097927287544218_">
		<use xlink:href="#SVGID_1_"  style="overflow:visible;"/>
	</clipPath>
	
		<line style="clip-path:url(#SVGID_00000059307407436171262950000009318097927287544218_);fill:none;stroke:#B2B2B2;stroke-linecap:round;stroke-linejoin:round;stroke-dasharray:0,3.009;" x1="-219.658" y1="202.967" x2="16.512" y2="202.967"/>
	
		<path style="clip-path:url(#SVGID_00000059307407436171262950000009318097927287544218_);fill:none;stroke:#B2B2B2;stroke-linecap:round;stroke-linejoin:round;" d="
		M18.016,202.967L18.016,202.967 M-222.666,202.967L-222.666,202.967"/>
</g>
<circle class="st33" cx="-176.268" cy="-18.244" r="12.75"/>
<polygon class="st3" points="-32.876,-33.268 -45.876,-33.268 -39.508,-22.793 "/>
<polygon class="st5" points="-24.852,95.274 -35.327,101.642 -24.852,108.274 "/>
<polygon class="st5" points="-53.899,108.274 -43.424,101.906 -53.899,95.274 "/>
<polygon class="st5" points="28.654,95.274 18.179,101.642 28.654,108.274 "/>
<polygon class="st5" points="-6.523,108.274 3.952,101.906 -6.523,95.274 "/>
<rect x="153.727" y="-33.257" class="st10" width="34.924" height="19.551"/>
<polygon class="st6" points="153.977,-33.382 153.977,-13.382 153.977,-13.132 154.227,-13.132 223.076,-13.132 223.326,-13.132 
	223.326,-13.382 223.326,-33.382 223.326,-33.632 223.076,-33.632 154.227,-33.632 153.977,-33.632 "/>
<rect x="153.727" y="-33.882" class="st9" width="69.849" height="21"/>
<rect x="189.091" y="32.772" class="st10" width="34.924" height="19.551"/>
<polygon class="st6" points="154.083,32.647 154.083,52.647 154.083,52.897 154.333,52.897 223.182,52.897 223.432,52.897 
	223.432,52.647 223.432,32.647 223.432,32.397 223.182,32.397 154.333,32.397 154.083,32.397 "/>
<rect x="153.833" y="32.147" class="st9" width="70.183" height="21"/>
<line class="st19" x1="277.122" y1="-37.327" x2="241.099" y2="-37.327"/>
<path class="st20" d="M268.619-34.181c2.045,0,3.703-1.658,3.703-3.703c0-2.045-1.658-3.703-3.703-3.703s-3.703,1.658-3.703,3.703
	C264.916-35.839,266.574-34.181,268.619-34.181"/>
<line class="st19" x1="585.446" y1="-6.548" x2="549.423" y2="-6.548"/>
<path class="st20" d="M576.943-3.402c2.045,0,3.703-1.658,3.703-3.703s-1.658-3.703-3.703-3.703c-2.045,0-3.703,1.658-3.703,3.703
	S574.898-3.402,576.943-3.402"/>
</svg>
