<?xml version="1.0" encoding="utf-8"?>
<!-- Generator: Adobe Illustrator 26.0.3, SVG Export Plug-In . SVG Version: 6.00 Build 0)  -->
<svg version="1.1" id="Ebene_1" xmlns="http://www.w3.org/2000/svg" xmlns:xlink="http://www.w3.org/1999/xlink" x="0px" y="0px"
	 width="27px" height="27px" viewBox="0 0 27 27" style="enable-background:new 0 0 27 27;" xml:space="preserve">
<style type="text/css">
	.st0{fill:none;stroke:#C5C5C5;stroke-width:3;stroke-linecap:round;stroke-linejoin:round;}
	.st1{fill:#FFAEFF;stroke:#4F4D4D;stroke-width:0.5;}
	.st2{fill:#F8F8F8;}
	.st3{fill:#0E689A;}
	.st4{fill:none;stroke:#B2B1B1;stroke-width:0.65;stroke-miterlimit:10;}
	.st5{fill:#B2B1B1;}
	.st6{fill:none;stroke:#B2B2B2;stroke-width:0.5;stroke-miterlimit:10;}
	.st7{fill:none;stroke:#B2B1B1;stroke-width:0.3;stroke-miterlimit:10;}
	.st8{fill:none;stroke:#FFFFFF;stroke-width:0.021;}
	.st9{fill:none;}
	.st10{fill:#0E6899;}
	.st11{fill:#FFFFFF;}
	.st12{fill:none;stroke:#C5C5C5;stroke-width:0.5;stroke-linecap:round;stroke-linejoin:round;}
	.st13{fill:#C5C5C5;}
	.st14{fill:none;stroke:#B2B1B1;stroke-width:0.5;}
	.st15{fill:none;stroke:#B2B1B1;stroke-width:1.2;}
	.st16{fill:#B2B2B2;}
	.st17{fill:none;stroke:#FFFFFF;stroke-width:0.001;}
	.st18{fill:none;stroke:#B2B1B1;stroke-width:1.712;}
	.st19{fill:none;stroke:#B2B1B1;stroke-width:2;}
	.st20{fill:#AD5E7A;}
	.st21{fill:none;stroke:#B2B1B1;stroke-width:0.941;}
	.st22{fill:none;stroke:#B2B1B1;stroke-width:0.941;stroke-dasharray:1.889,1.889;}
	.st23{fill:none;stroke:#B2B1B1;stroke-width:0.941;stroke-dasharray:1.754,1.754;}
	.st24{fill:none;stroke:#B2B1B1;stroke-width:0.804;}
	.st25{fill:none;stroke:#FFFFFF;stroke-width:0.804;}
	.st26{fill:none;stroke:#B2B1B1;stroke-width:2.5;}
	.st27{fill:none;stroke:#B2B1B1;stroke-width:0.941;stroke-dasharray:1.971,1.971;}
	.st28{fill:none;stroke:#B2B1B1;stroke-width:0.941;stroke-dasharray:2.006,2.006;}
	.st29{fill:none;stroke:#B2B1B1;stroke-width:0.941;stroke-dasharray:1.801,1.801;}
	.st30{fill:none;stroke:#B2B1B1;stroke-width:0.941;stroke-dasharray:2.091,2.091;}
	
		.st31{clip-path:url(#SVGID_00000001633069032902594160000002490330423518699411_);fill:none;stroke:#B2B2B2;stroke-linecap:round;stroke-linejoin:round;stroke-dasharray:0,3.009;}
	
		.st32{clip-path:url(#SVGID_00000001633069032902594160000002490330423518699411_);fill:none;stroke:#B2B2B2;stroke-linecap:round;stroke-linejoin:round;}
	.st33{fill:none;stroke:#4F4D4D;stroke-width:0.5;}
</style>
<polyline class="st0" points="1743.949,974.943 1737.699,965.943 1730.949,974.943 "/>
<circle class="st1" cx="-247.944" cy="12.195" r="12.75"/>
<rect x="-215.483" y="1.18" class="st2" width="119.902" height="21"/>
<polygon class="st3" points="-104.654,6.442 -117.654,6.442 -111.286,16.917 "/>
<g>
	<g>
		<line class="st4" x1="8.358" y1="18.7" x2="18.641" y2="18.7"/>
		<g>
			<path class="st5" d="M9.646,13.475V8.3h1.3v5.122c0,2.016,0.923,2.926,2.561,2.926c1.638,0,2.574-0.91,2.574-2.926V8.3h1.261
				v5.175c0,2.639-1.443,4.029-3.848,4.029C11.102,17.504,9.646,16.113,9.646,13.475z"/>
		</g>
	</g>
	<polygon class="st6" points="0.25,0.5 0.25,26.5 0.25,26.75 0.5,26.75 26.5,26.75 26.75,26.75 26.75,26.5 26.75,0.5 26.75,0.25 
		26.5,0.25 0.5,0.25 0.25,0.25 	"/>
</g>
<g>
	<g>
		<path class="st5" d="M-21.104,8.573h1.3l-1.82,9.101h-1.3L-21.104,8.573z"/>
	</g>
	<polygon class="st6" points="-34.614,0.124 -34.614,26.124 -34.614,26.374 -34.364,26.374 -8.364,26.374 -8.114,26.374 
		-8.114,26.124 -8.114,0.124 -8.114,-0.126 -8.364,-0.126 -34.364,-0.126 -34.614,-0.126 	"/>
</g>
<g>
	<g>
		<path class="st5" d="M-54.252,15.242c0,1.573-1.248,2.483-3.64,2.483h-4.706V8.625h4.446c2.275,0,3.445,0.949,3.445,2.366
			c0,0.91-0.468,1.612-1.209,2.002C-54.902,13.319-54.252,14.099-54.252,15.242z M-60.505,10.211v2.146h2.093
			c1.027,0,1.586-0.364,1.586-1.079s-0.559-1.066-1.586-1.066H-60.505z M-56.371,15.022c0-0.767-0.585-1.131-1.677-1.131h-2.457
			v2.249h2.457C-56.956,16.14-56.371,15.802-56.371,15.022z"/>
	</g>
	<polygon class="st6" points="-71.675,0.175 -71.675,26.175 -71.675,26.425 -71.425,26.425 -45.425,26.425 -45.175,26.425 
		-45.175,26.175 -45.175,0.175 -45.175,-0.075 -45.425,-0.075 -71.425,-0.075 -71.675,-0.075 	"/>
</g>
<path class="st7" d="M-17.487,42.129"/>
<path class="st7" d="M-19.995,43.383"/>
<path class="st7" d="M-19.995,44.637"/>
<path class="st7" d="M-19.995,45.891"/>
<path class="st7" d="M-17.487,47.145"/>
<path class="st7" d="M-17.487,48.399"/>
<path class="st7" d="M-19.995,49.653"/>
<path class="st7" d="M-19.995,52.161"/>
<path class="st7" d="M-17.487,54.669"/>
<path class="st7" d="M-36.952,47.145"/>
<path class="st7" d="M-36.952,42.129"/>
<path class="st7" d="M-36.952,54.669"/>
<path class="st7" d="M-36.952,48.399"/>
<g>
	<path class="st7" d="M-34.89,49.653"/>
	<path class="st7" d="M-34.89,45.891"/>
	<path class="st7" d="M-34.89,44.637"/>
	<path class="st7" d="M-34.89,43.383"/>
	<line class="st7" x1="-37.327" y1="53.874" x2="-17.863" y2="53.874"/>
	<line class="st7" x1="-37.327" y1="52.598" x2="-22.433" y2="52.598"/>
	<line class="st7" x1="-37.327" y1="51.322" x2="-22.433" y2="51.322"/>
	<line class="st7" x1="-37.327" y1="50.046" x2="-22.433" y2="50.046"/>
	<line class="st7" x1="-37.327" y1="48.77" x2="-17.863" y2="48.77"/>
	<line class="st7" x1="-37.327" y1="47.494" x2="-17.863" y2="47.494"/>
	<line class="st7" x1="-37.254" y1="46.218" x2="-22.36" y2="46.218"/>
	<line class="st7" x1="-37.327" y1="44.943" x2="-17.863" y2="44.943"/>
	<line class="st7" x1="-37.327" y1="43.667" x2="-22.433" y2="43.667"/>
	<line class="st7" x1="-37.327" y1="42.39" x2="-22.433" y2="42.39"/>
	<line class="st7" x1="-37.327" y1="41.115" x2="-17.863" y2="41.115"/>
</g>
<polygon class="st6" points="-40.654,34.82 -40.654,60.813 -40.654,61.063 -40.404,61.063 -14.411,61.063 -14.161,61.063 
	-14.161,60.813 -14.161,34.82 -14.161,34.57 -14.411,34.57 -40.404,34.57 -40.654,34.57 "/>
<g>
	<line class="st7" x1="13.393" y1="41.432" x2="-6.071" y2="41.432"/>
	<line class="st7" x1="10.885" y1="42.708" x2="-4.009" y2="42.708"/>
	<line class="st7" x1="10.885" y1="43.985" x2="-4.009" y2="43.985"/>
	<line class="st7" x1="10.885" y1="45.263" x2="-4.009" y2="45.263"/>
	<line class="st7" x1="13.393" y1="46.539" x2="-6.071" y2="46.539"/>
	<line class="st7" x1="13.393" y1="47.816" x2="-6.071" y2="47.816"/>
	<line class="st7" x1="10.885" y1="49.094" x2="-4.009" y2="49.094"/>
	<line class="st7" x1="13.393" y1="50.371" x2="-6.071" y2="50.371"/>
	<line class="st7" x1="10.885" y1="51.648" x2="-4.009" y2="51.648"/>
	<line class="st7" x1="10.885" y1="52.925" x2="-4.009" y2="52.925"/>
	<line class="st7" x1="13.393" y1="54.202" x2="-6.071" y2="54.202"/>
</g>
<polygon class="st6" points="-9.586,34.82 -9.586,60.813 -9.586,61.063 -9.336,61.063 16.657,61.063 16.907,61.063 16.907,60.813 
	16.907,34.82 16.907,34.57 16.657,34.57 -9.336,34.57 -9.586,34.57 "/>
<polygon class="st6" points="21.483,34.82 21.483,60.813 21.483,61.063 21.733,61.063 47.726,61.063 47.976,61.063 47.976,60.813 
	47.976,34.82 47.976,34.57 47.726,34.57 21.733,34.57 21.483,34.57 "/>
<path class="st7" d="M24.81,53.504"/>
<path class="st7" d="M24.81,48.488"/>
<path class="st7" d="M24.81,47.234"/>
<path class="st7" d="M24.81,40.965"/>
<path class="st7" d="M42.212,45.98"/>
<path class="st7" d="M44.274,48.488"/>
<path class="st7" d="M42.212,49.742"/>
<path class="st7" d="M44.274,53.504"/>
<path class="st7" d="M44.274,40.965"/>
<path class="st7" d="M44.274,47.234"/>
<path class="st7" d="M42.212,50.996"/>
<path class="st7" d="M42.212,52.25"/>
<g>
	<path class="st7" d="M27.13,51.928"/>
	<path class="st7" d="M27.13,50.674"/>
	<path class="st7" d="M27.13,49.42"/>
	<path class="st7" d="M27.13,45.658"/>
	<path class="st7" d="M27.13,43.15"/>
	<line class="st7" x1="44.462" y1="41.437" x2="24.998" y2="41.437"/>
	<line class="st7" x1="44.462" y1="42.712" x2="29.568" y2="42.712"/>
	<line class="st7" x1="44.462" y1="43.988" x2="29.568" y2="43.988"/>
	<line class="st7" x1="44.462" y1="45.265" x2="29.568" y2="45.265"/>
	<line class="st7" x1="44.462" y1="46.541" x2="24.998" y2="46.541"/>
	<line class="st7" x1="44.462" y1="47.816" x2="24.998" y2="47.816"/>
	<line class="st7" x1="44.388" y1="49.092" x2="29.494" y2="49.092"/>
	<line class="st7" x1="44.462" y1="50.368" x2="24.998" y2="50.368"/>
	<line class="st7" x1="44.462" y1="51.644" x2="29.568" y2="51.644"/>
	<line class="st7" x1="44.462" y1="52.921" x2="29.568" y2="52.921"/>
	<line class="st7" x1="44.462" y1="54.196" x2="24.998" y2="54.196"/>
</g>
<polygon class="st6" points="-71.425,34.827 -71.425,60.82 -71.425,61.07 -71.175,61.07 -45.182,61.07 -44.932,61.07 -44.932,60.82 
	-44.932,34.827 -44.932,34.577 -45.182,34.577 -71.175,34.577 -71.425,34.577 "/>
<path class="st7" d="M-48.259,42.129"/>
<path class="st7" d="M-48.259,47.145"/>
<path class="st7" d="M-48.259,48.399"/>
<path class="st7" d="M-48.259,54.669"/>
<path class="st7" d="M-65.661,49.653"/>
<path class="st7" d="M-67.723,47.145"/>
<path class="st7" d="M-65.661,45.891"/>
<path class="st7" d="M-67.723,42.129"/>
<path class="st7" d="M-67.723,54.669"/>
<path class="st7" d="M-67.723,48.399"/>
<path class="st7" d="M-65.661,44.637"/>
<path class="st7" d="M-65.661,43.383"/>
<g>
	<path class="st7" d="M-50.766,43.383"/>
	<path class="st7" d="M-50.766,44.637"/>
	<path class="st7" d="M-50.766,45.891"/>
	<path class="st7" d="M-50.766,49.653"/>
	<path class="st7" d="M-50.766,52.161"/>
	<line class="st7" x1="-68.099" y1="53.874" x2="-48.635" y2="53.874"/>
	<line class="st7" x1="-68.099" y1="52.598" x2="-48.635" y2="52.598"/>
	<line class="st7" x1="-68.099" y1="51.322" x2="-48.635" y2="51.322"/>
	<line class="st7" x1="-68.099" y1="50.046" x2="-48.635" y2="50.046"/>
	<line class="st7" x1="-68.099" y1="48.77" x2="-48.635" y2="48.77"/>
	<line class="st7" x1="-68.099" y1="47.494" x2="-48.635" y2="47.494"/>
	<line class="st7" x1="-68.025" y1="46.218" x2="-48.561" y2="46.218"/>
	<line class="st7" x1="-68.099" y1="44.943" x2="-48.635" y2="44.943"/>
	<line class="st7" x1="-68.099" y1="43.667" x2="-48.635" y2="43.667"/>
	<line class="st7" x1="-68.099" y1="42.39" x2="-48.635" y2="42.39"/>
	<line class="st7" x1="-68.099" y1="41.115" x2="-48.635" y2="41.115"/>
</g>
<path class="st5" d="M-240.982,149.975l-1.915,13.335c-0.058,0.402-0.431,0.682-0.834,0.624c-0.402-0.058-0.682-0.431-0.624-0.833
	l1.915-13.336c0.058-0.402,0.431-0.681,0.834-0.623C-241.204,149.2-240.924,149.572-240.982,149.975 M-247.799,164.05
	c-0.407,0.003-0.74-0.324-0.742-0.73l-0.106-13.472c-0.003-0.407,0.324-0.739,0.73-0.742c0.408-0.003,0.74,0.324,0.743,0.731
	l0.105,13.471C-247.066,163.715-247.393,164.047-247.799,164.05 M-251.87,163.997c-0.401,0.064-0.779-0.209-0.842-0.61
	l-2.124-13.304c-0.064-0.402,0.209-0.779,0.612-0.843c0.401-0.064,0.778,0.209,0.842,0.611l2.123,13.303
	C-251.195,163.556-251.468,163.933-251.87,163.997 M-238.087,147.589c-0.141-0.169-0.353-0.266-0.573-0.264l-18.538,0.144
	c-0.22,0.002-0.429,0.101-0.568,0.272c-0.14,0.17-0.196,0.393-0.155,0.609l3.092,16.141c0.068,0.351,0.376,0.605,0.734,0.602
	l12.497-0.098c0.356-0.002,0.66-0.258,0.724-0.608l2.949-16.188C-237.885,147.983-237.946,147.758-238.087,147.589"/>
<path class="st8" d="M-240.982,149.975l-1.915,13.335c-0.058,0.402-0.431,0.682-0.834,0.624c-0.402-0.058-0.682-0.431-0.624-0.833
	l1.915-13.336c0.058-0.402,0.431-0.681,0.834-0.623C-241.204,149.2-240.924,149.572-240.982,149.975z M-247.799,164.05
	c-0.407,0.003-0.74-0.324-0.742-0.73l-0.106-13.472c-0.003-0.407,0.324-0.739,0.73-0.742c0.408-0.003,0.74,0.324,0.743,0.731
	l0.105,13.471C-247.066,163.715-247.393,164.047-247.799,164.05z M-251.87,163.997c-0.401,0.064-0.779-0.209-0.842-0.61
	l-2.124-13.304c-0.064-0.402,0.209-0.779,0.612-0.843c0.401-0.064,0.778,0.209,0.842,0.611l2.123,13.303
	C-251.195,163.556-251.468,163.933-251.87,163.997z M-238.087,147.589c-0.141-0.169-0.353-0.266-0.573-0.264l-18.538,0.144
	c-0.22,0.002-0.429,0.101-0.568,0.272c-0.14,0.17-0.196,0.393-0.155,0.609l3.092,16.141c0.068,0.351,0.376,0.605,0.734,0.602
	l12.497-0.098c0.356-0.002,0.66-0.258,0.724-0.608l2.949-16.188C-237.885,147.983-237.946,147.758-238.087,147.589z"/>
<path class="st5" d="M-250.775,142.982L-250.775,142.982l-0.004-0.421l5.49-0.043l0.004,0.421L-250.775,142.982z M-237.038,144.392
	L-237.038,144.392l-2.025,0.016l-0.009-1.171c-0.001-0.091-0.038-0.18-0.103-0.244c-0.065-0.064-0.155-0.1-0.246-0.1l-4.467,0.035
	l-0.009-1.12c-0.002-0.184-0.077-0.363-0.209-0.492c-0.131-0.13-0.311-0.203-0.495-0.201l-6.887,0.054
	c-0.183,0.001-0.363,0.077-0.492,0.208c-0.129,0.131-0.202,0.312-0.2,0.496l0.009,1.12l-4.164,0.032
	c-0.091,0.001-0.18,0.039-0.243,0.104c-0.065,0.065-0.101,0.154-0.101,0.246l0.009,1.171l-2.197,0.017l0.017,2.225l21.829-0.17
	L-237.038,144.392z"/>
<path class="st8" d="M-250.775,142.982L-250.775,142.982l-0.004-0.421l5.49-0.043l0.004,0.421L-250.775,142.982z M-237.038,144.392
	L-237.038,144.392l-2.025,0.016l-0.009-1.171c-0.001-0.091-0.038-0.18-0.103-0.244c-0.065-0.064-0.155-0.1-0.246-0.1l-4.467,0.035
	l-0.009-1.12c-0.002-0.184-0.077-0.363-0.209-0.492c-0.131-0.13-0.311-0.203-0.495-0.201l-6.887,0.054
	c-0.183,0.001-0.363,0.077-0.492,0.208c-0.129,0.131-0.202,0.312-0.2,0.496l0.009,1.12l-4.164,0.032
	c-0.091,0.001-0.18,0.039-0.243,0.104c-0.065,0.065-0.101,0.154-0.101,0.246l0.009,1.171l-2.197,0.017l0.017,2.225l21.829-0.17
	L-237.038,144.392z"/>
<rect x="-258.878" y="141.104" class="st9" width="21.868" height="24"/>
<rect x="82.052" y="0.336" class="st10" width="34.924" height="19.551"/>
<g>
	<path class="st11" d="M95.029,10.749v4.238h-0.884v-1.066c-0.416,0.702-1.222,1.132-2.354,1.132c-1.547,0-2.496-0.807-2.496-1.989
		c0-1.054,0.676-1.938,2.639-1.938h2.171V10.71c0-1.17-0.663-1.807-1.938-1.807c-0.884,0-1.716,0.312-2.275,0.806l-0.416-0.688
		c0.689-0.585,1.703-0.924,2.782-0.924C94.028,8.097,95.029,8.982,95.029,10.749z M94.106,12.934v-1.118h-2.146
		c-1.326,0-1.755,0.52-1.755,1.222c0,0.793,0.637,1.287,1.729,1.287C92.975,14.324,93.742,13.83,94.106,12.934z"/>
	<path class="st11" d="M103.128,8.15v6.838h-0.884v-1.248c-0.481,0.832-1.365,1.313-2.458,1.313c-1.742,0-2.886-0.976-2.886-2.938
		V8.15h0.923v3.874c0,1.456,0.754,2.197,2.054,2.197c1.43,0,2.327-0.924,2.327-2.483V8.15H103.128z"/>
	<path class="st11" d="M104.427,14.207l0.416-0.728c0.546,0.429,1.469,0.767,2.431,0.767c1.3,0,1.833-0.441,1.833-1.118
		c0-1.78-4.433-0.377-4.433-3.081c0-1.118,0.962-1.95,2.704-1.95c0.884,0,1.846,0.247,2.418,0.638l-0.403,0.74
		c-0.598-0.416-1.313-0.585-2.015-0.585c-1.235,0-1.781,0.481-1.781,1.132c0,1.846,4.434,0.455,4.434,3.081
		c0,1.183-1.04,1.95-2.821,1.95C106.079,15.053,104.987,14.689,104.427,14.207z"/>
</g>
<polygon class="st6" points="82.302,0.211 82.302,20.211 82.302,20.461 82.552,20.461 151.401,20.461 151.651,20.461 
	151.651,20.211 151.651,0.211 151.651,-0.039 151.401,-0.039 82.552,-0.039 82.302,-0.039 "/>
<rect x="82.052" y="-0.289" class="st9" width="69.849" height="21"/>
<rect x="-322.345" y="207.041" class="st11" width="1014" height="21"/>
<path class="st3" d="M304.816,207.041c-2.209,0-4,1.791-4,4v12.382c0,2.209,1.791,4,4,4h77.131c2.209,0,4-1.791,4-4v-12.382
	c0-2.209-1.791-4-4-4H304.816z"/>
<rect x="-322.095" y="207.291" class="st12" width="1013.5" height="20.5"/>
<path class="st13" d="M675.51,209.901v1.481c0,0.397,0.187,0.771,0.505,1.009l6.367,4.762c0.258,0.194,0.258,0.583,0,0.776
	l-6.367,4.762c-0.318,0.238-0.505,0.612-0.505,1.01v1.48c0,0.41,0.467,0.644,0.795,0.399l10.111-7.563
	c0.318-0.237,0.318-0.714,0-0.952l-10.11-7.562C675.977,209.257,675.51,209.492,675.51,209.901"/>
<path class="st13" d="M-306.493,225.181V223.7c0-0.397-0.187-0.771-0.505-1.009l-6.367-4.762c-0.258-0.194-0.258-0.583,0-0.776
	l6.367-4.762c0.318-0.238,0.505-0.612,0.505-1.01v-1.48c0-0.41-0.467-0.644-0.795-0.399l-10.111,7.563
	c-0.318,0.237-0.318,0.714,0,0.952l10.11,7.562C-306.96,225.825-306.493,225.59-306.493,225.181"/>
<rect x="-322.345" y="207.041" class="st9" width="1014" height="21"/>
<rect x="733.427" y="-37.504" class="st11" width="21" height="702.123"/>
<path class="st3" d="M733.427,376.457c0,2.209,1.791,4,4,4h12.382c2.209,0,4-1.791,4-4v-78.286c0-2.209-1.791-4-4-4h-12.382
	c-2.209,0-4,1.791-4,4V376.457z"/>
<rect x="733.677" y="-37.255" class="st12" width="20.5" height="701.624"/>
<path class="st13" d="M736.287-23.969h1.481c0.397,0,0.771-0.19,1.009-0.512l4.762-6.453c0.194-0.262,0.583-0.262,0.776,0
	l4.762,6.453c0.238,0.322,0.612,0.512,1.01,0.512h1.48c0.41,0,0.644-0.474,0.399-0.806l-7.563-10.248
	c-0.237-0.322-0.714-0.322-0.952,0l-7.562,10.248C735.643-24.443,735.878-23.969,736.287-23.969"/>
<path class="st13" d="M751.567,650.283h-1.481c-0.397,0-0.771,0.19-1.009,0.512l-4.762,6.453c-0.194,0.262-0.583,0.262-0.776,0
	l-4.762-6.453c-0.238-0.322-0.612-0.512-1.01-0.512h-1.48c-0.41,0-0.644,0.474-0.399,0.806l7.563,10.248
	c0.237,0.322,0.714,0.322,0.952,0l7.562-10.248C752.211,650.757,751.976,650.283,751.567,650.283"/>
<rect x="733.427" y="-37.505" class="st9" width="21" height="702.124"/>
<line class="st7" x1="12.451" y1="74.622" x2="-0.566" y2="74.622"/>
<line class="st7" x1="12.451" y1="79.71" x2="-0.566" y2="79.71"/>
<line class="st7" x1="12.451" y1="84.798" x2="-0.566" y2="84.798"/>
<text transform="matrix(1 0 0 1 -5.1364 74.4906)" class="st5" style="font-family:'Montserrat-Bold'; font-size:3px;">1</text>
<text transform="matrix(1 0 0 1 -5.1364 79.5062)" class="st5" style="font-family:'Montserrat-Bold'; font-size:3px;">2</text>
<text transform="matrix(1 0 0 1 -5.1364 84.5218)" class="st5" style="font-family:'Montserrat-Bold'; font-size:3px;">3</text>
<polygon class="st6" points="-9.593,67.032 -9.593,93.032 -9.593,93.282 -9.343,93.282 16.657,93.282 16.907,93.282 16.907,93.032 
	16.907,67.032 16.907,66.782 16.657,66.782 -9.343,66.782 -9.593,66.782 "/>
<polygon class="st6" points="-41.084,67.032 -41.084,93.032 -41.084,93.282 -40.834,93.282 -14.834,93.282 -14.584,93.282 
	-14.584,93.032 -14.584,67.032 -14.584,66.782 -14.834,66.782 -40.834,66.782 -41.084,66.782 "/>
<polygon class="st6" points="-71.425,67.032 -71.425,93.032 -71.425,93.282 -71.175,93.282 -45.175,93.282 -44.925,93.282 
	-44.925,93.032 -44.925,67.032 -44.925,66.782 -45.175,66.782 -71.175,66.782 -71.425,66.782 "/>
<path class="st7" d="M-19.552,85.157h-13.016 M-19.552,80.024h-13.016 M-19.552,74.892h-13.016"/>
<path class="st5" d="M-34.654,80.608c0.161-0.156,0.241-0.349,0.241-0.581c0-0.15-0.037-0.288-0.11-0.414
	c-0.073-0.125-0.172-0.224-0.297-0.297c-0.126-0.073-0.264-0.11-0.415-0.11c-0.15,0-0.288,0.037-0.41,0.11
	c-0.122,0.073-0.221,0.172-0.294,0.297c-0.072,0.126-0.11,0.264-0.11,0.414c0,0.232,0.08,0.425,0.238,0.581
	c0.157,0.156,0.35,0.234,0.576,0.234C-35.008,80.842-34.815,80.764-34.654,80.608"/>
<path class="st5" d="M-35.231,75.974c0.489,0,0.885-0.396,0.885-0.885c0-0.488-0.396-0.885-0.885-0.885
	c-0.488,0-0.885,0.397-0.885,0.885C-36.116,75.578-35.719,75.974-35.231,75.974"/>
<path class="st5" d="M-34.654,85.625c0.161-0.156,0.241-0.349,0.241-0.581c0-0.15-0.037-0.288-0.11-0.414
	c-0.073-0.125-0.172-0.224-0.297-0.297c-0.126-0.073-0.264-0.11-0.415-0.11c-0.15,0-0.288,0.037-0.41,0.11
	c-0.122,0.073-0.221,0.172-0.294,0.297c-0.072,0.126-0.11,0.264-0.11,0.414c0,0.232,0.08,0.425,0.238,0.581
	c0.157,0.156,0.35,0.234,0.576,0.234C-35.008,85.859-34.815,85.781-34.654,85.625"/>
<path class="st7" d="M-49.893,85.164h-13.016 M-49.893,80.031h-13.016 M-49.893,74.899h-13.016"/>
<rect x="-66.457" y="74.13" class="st5" width="1.77" height="1.77"/>
<rect x="-66.457" y="79.146" class="st5" width="1.77" height="1.77"/>
<rect x="-66.457" y="84.164" class="st5" width="1.77" height="1.77"/>
<rect x="272.064" y="-0.758" class="st2" width="245" height="57.75"/>
<text transform="matrix(1 0 0 1 346.7621 25.4377)"><tspan x="0" y="0" class="st5" style="font-family:'Montserrat-Regular'; font-size:13px;">N</tspan><tspan x="10.478" y="0" class="st5" style="font-family:'Montserrat-Regular'; font-size:13px;">e</tspan><tspan x="18.135" y="0" class="st5" style="font-family:'Montserrat-Regular'; font-size:13px;">u</tspan><tspan x="26.753" y="0" class="st5" style="font-family:'Montserrat-Regular'; font-size:13px;">e </tspan><tspan x="38.011" y="0" class="st5" style="font-family:'Montserrat-Regular'; font-size:13px; letter-spacing:-1;">T</tspan><tspan x="44.381" y="0" class="st5" style="font-family:'Montserrat-Regular'; font-size:13px;">e</tspan><tspan x="51.882" y="0" class="st5" style="font-family:'Montserrat-Regular'; font-size:13px;">x</tspan><tspan x="59.097" y="0" class="st5" style="font-family:'Montserrat-Regular'; font-size:13px;">t</tspan><tspan x="64.128" y="0" class="st5" style="font-family:'Montserrat-Regular'; font-size:13px;">b</tspan><tspan x="72.942" y="0" class="st5" style="font-family:'Montserrat-Regular'; font-size:13px;">o</tspan><tspan x="80.742" y="0" class="st5" style="font-family:'Montserrat-Regular'; font-size:13px;">x </tspan></text>
<path class="st14" d="M394.564,47.201c3.707,0,6.713-3.005,6.713-6.712c0-3.708-3.006-6.713-6.713-6.713
	c-3.707,0-6.712,3.005-6.712,6.713C387.852,44.196,390.857,47.201,394.564,47.201z"/>
<rect x="272.064" y="-0.758" class="st9" width="245" height="57.75"/>
<line class="st15" x1="394.564" y1="36.954" x2="394.564" y2="44.023"/>
<line class="st15" x1="391.03" y1="40.52" x2="398.098" y2="40.52"/>
<path class="st14" d="M283.603,87.036c3.707,0,6.713-3.005,6.713-6.712c0-3.708-3.006-6.713-6.713-6.713
	c-3.707,0-6.712,3.005-6.712,6.713C276.891,84.031,279.896,87.036,283.603,87.036z"/>
<line class="st15" x1="283.603" y1="76.79" x2="283.603" y2="83.859"/>
<line class="st15" x1="280.069" y1="80.355" x2="287.137" y2="80.355"/>
<g>
	<path class="st16" d="M-212.289,102.172h-3.138v-1.85h8.544v1.85h-3.138v7.956h-2.269V102.172z"/>
	<path class="st16" d="M-205.669,100.322h2.269v9.806h-2.269V100.322z"/>
	<path class="st16" d="M-192.574,103.881c0,2.185-1.639,3.544-4.258,3.544h-1.975v2.703h-2.269v-9.806h4.244
		C-194.213,100.322-192.574,101.681-192.574,103.881z M-194.871,103.881c0-1.079-0.701-1.709-2.087-1.709h-1.849v3.403h1.849
		C-195.572,105.575-194.871,104.945-194.871,103.881z"/>
	<path class="st16" d="M-182.452,103.881c0,2.185-1.639,3.544-4.258,3.544h-1.975v2.703h-2.269v-9.806h4.244
		C-184.091,100.322-182.452,101.681-182.452,103.881z M-184.749,103.881c0-1.079-0.701-1.709-2.087-1.709h-1.849v3.403h1.849
		C-185.45,105.575-184.749,104.945-184.749,103.881z"/>
</g>
<path class="st16" d="M-248.917,95.851L-248.917,95.851c-1.054,2.474-1.96,4.602-2.889,6.784h5.729
	C-247.021,100.379-247.903,98.271-248.917,95.851 M-245.424,113.441L-245.424,113.441c-0.346-1.15-0.211-1.759,1.044-1.8
	c0.976-0.033,1.343-0.74,1.02-1.64c-0.507-1.414-1.072-2.81-1.681-4.183c-0.109-0.245-0.55-0.478-0.843-0.484
	c-2.129-0.041-4.261-0.046-6.39,0.005c-0.305,0.008-0.741,0.315-0.877,0.599c-0.558,1.155-1.057,2.342-1.512,3.542
	c-0.57,1.504-0.268,2.026,1.348,2.192c0.783,0.081,1.206,0.319,1.022,1.126c-0.056,0.243-0.355,0.61-0.547,0.613
	c-2.524,0.042-5.049,0.028-7.596,0.028c-0.214-0.956-0.321-1.631,0.868-1.885c0.569-0.122,1.219-0.609,1.515-1.117
	c0.755-1.293,1.377-2.67,1.972-4.049c2.401-5.559,4.761-11.135,7.172-16.689c0.173-0.398,0.634-0.67,0.96-1
	c0.319,0.343,0.766,0.632,0.937,1.037c2.56,6.048,5.079,12.114,7.622,18.17c0.326,0.776,0.705,1.534,1.106,2.275
	c0.507,0.939,1.332,1.389,2.379,1.595c0.265,0.052,0.519,0.638,0.586,1.013c0.032,0.175-0.39,0.621-0.611,0.624
	C-239.082,113.454-242.235,113.441-245.424,113.441"/>
<path class="st5" d="M-151.679,105.903c2.682-0.014,4.762-2.036,4.751-4.621c-0.01-2.367-2.203-4.406-4.733-4.399
	c-2.703,0.008-4.848,2.038-4.825,4.568C-156.463,103.915-154.303,105.916-151.679,105.903 M-146.124,105.916L-146.124,105.916
	c0.393-0.231,0.569-0.207,0.91,0.115c1.249,1.181,2.501,2.361,3.751,3.541c0.086,0.08,0.173,0.159,0.252,0.246
	c0.216,0.237,0.217,0.464-0.012,0.692c-0.249,0.248-0.509,0.488-0.767,0.727c-0.302,0.28-0.548,0.287-0.855,0
	c-1.177-1.103-2.348-2.211-3.522-3.318c-0.132-0.124-0.263-0.25-0.396-0.373c-0.368-0.34-0.394-0.487-0.153-0.896
	c-0.368-0.336-0.737-0.673-1.128-1.029c-1.472,1.07-3.153,1.471-5.011,1.06c-1.415-0.313-2.544-1.054-3.377-2.178
	c-1.65-2.23-1.286-5.335,0.823-7.11c2.222-1.87,5.521-1.904,7.68-0.117c2.217,1.835,2.765,5.106,0.696,7.583
	C-146.863,105.212-146.494,105.563-146.124,105.916"/>
<path class="st17" d="M-151.679,105.903c2.682-0.014,4.762-2.036,4.751-4.621c-0.01-2.367-2.203-4.406-4.733-4.399
	c-2.703,0.008-4.848,2.038-4.825,4.568C-156.463,103.915-154.303,105.916-151.679,105.903z M-146.124,105.916L-146.124,105.916
	c0.393-0.231,0.569-0.207,0.91,0.115c1.249,1.181,2.501,2.361,3.751,3.541c0.086,0.08,0.173,0.159,0.252,0.246
	c0.216,0.237,0.217,0.464-0.012,0.692c-0.249,0.248-0.509,0.488-0.767,0.727c-0.302,0.28-0.548,0.287-0.855,0
	c-1.177-1.103-2.348-2.211-3.522-3.318c-0.132-0.124-0.263-0.25-0.396-0.373c-0.368-0.34-0.394-0.487-0.153-0.896
	c-0.368-0.336-0.737-0.673-1.128-1.029c-1.472,1.07-3.153,1.471-5.011,1.06c-1.415-0.313-2.544-1.054-3.377-2.178
	c-1.65-2.23-1.286-5.335,0.823-7.11c2.222-1.87,5.521-1.904,7.68-0.117c2.217,1.835,2.765,5.106,0.696,7.583
	C-146.863,105.212-146.494,105.563-146.124,105.916z"/>
<path class="st5" d="M-87.964,96.322l2.966,2.98v-2.758c0-0.096-0.055-0.229-0.123-0.297l-3.807-3.826
	c-0.068-0.067-0.178-0.067-0.245,0l-3.93,3.949v2.758c0,0.096,0.055,0.119,0.122,0.051l2.844-2.857
	c0.068-0.068,0.122-0.046,0.122,0.05v7.829h0v2.168c0,0.096-0.055,0.118-0.123,0.05l-2.966-2.98v2.758
	c0,0.096,0.055,0.229,0.123,0.297l3.807,3.826c0.068,0.067,0.178,0.067,0.245,0l3.93-3.949v-2.758c0-0.096-0.055-0.119-0.122-0.051
	l-2.844,2.857c-0.068,0.068-0.122,0.046-0.122-0.05V98.54h0v-2.168C-88.087,96.276-88.032,96.254-87.964,96.322z"/>
<line class="st18" x1="-124.103" y1="109.558" x2="-96.27" y2="109.558"/>
<line class="st18" x1="-124.103" y1="101.262" x2="-96.27" y2="101.262"/>
<line class="st18" x1="-124.103" y1="93.27" x2="-96.27" y2="93.27"/>
<line class="st18" x1="-109.762" y1="128.53" x2="-109.762" y2="149.53"/>
<path class="st5" d="M-102.302,142.373L-102.302,142.373h2.695l-2.603-2.569c-0.138-0.135-0.093-0.245,0.101-0.245h7.006v-1.407
	c0-0.193-0.157-0.35-0.35-0.35h-6.656c-0.194,0-0.239-0.11-0.101-0.246l2.603-2.569h-2.345c-0.193,0-0.462,0.111-0.599,0.246
	l-3.245,3.201c-0.137,0.136-0.137,0.356,0,0.492L-102.302,142.373z"/>
<path class="st5" d="M-118.072,135.161L-118.072,135.161h-2.695l2.603,2.569c0.138,0.135,0.093,0.245-0.101,0.245h-7.006v1.407
	c0,0.193,0.157,0.35,0.35,0.35h6.656c0.194,0,0.239,0.11,0.101,0.246l-2.603,2.569h2.345c0.193,0,0.462-0.111,0.599-0.246
	l3.245-3.201c0.137-0.136,0.137-0.356,0-0.492L-118.072,135.161z"/>
<line class="st19" x1="206.525" y1="9.417" x2="170.502" y2="9.417"/>
<path class="st20" d="M198.022,12.563c2.045,0,3.703-1.658,3.703-3.703s-1.658-3.703-3.703-3.703s-3.703,1.658-3.703,3.703
	S195.977,12.563,198.022,12.563"/>
<g>
	<path class="st5" d="M221.22,9.618c0,3.12-1.82,4.836-4.459,4.836c-0.91,0-1.781-0.195-2.392-0.585l0.624-1.274
		c0.494,0.325,1.092,0.442,1.729,0.442c1.716,0,2.795-1.066,2.795-3.133V9.89c-0.546,0.638-1.417,0.949-2.431,0.949
		c-1.794,0-3.133-1.092-3.133-2.795c0-1.807,1.469-2.951,3.328-2.951C219.764,5.093,221.22,6.693,221.22,9.618z M219.257,7.954
		c0-0.858-0.676-1.534-1.885-1.534c-1.053,0-1.781,0.598-1.781,1.547s0.715,1.547,1.82,1.547
		C218.504,9.513,219.257,8.85,219.257,7.954z"/>
	<path class="st5" d="M229.086,11.529c0,1.599-1.157,2.925-3.602,2.925c-1.287,0-2.587-0.39-3.419-1.053l0.715-1.313
		c0.663,0.546,1.651,0.897,2.678,0.897c1.209,0,1.924-0.533,1.924-1.392c0-0.871-0.559-1.417-2.444-1.417h-2.197l0.468-4.953h5.343
		V6.64h-3.913l-0.195,2.106h0.871C228.007,8.747,229.086,9.917,229.086,11.529z"/>
	<path class="st5" d="M233.505,7.629c0-1.495,0.871-2.496,2.171-2.496s2.184,0.988,2.184,2.496s-0.884,2.496-2.184,2.496
		S233.505,9.124,233.505,7.629z M236.794,7.629c0-1.014-0.416-1.586-1.118-1.586c-0.676,0-1.118,0.585-1.118,1.586
		s0.442,1.586,1.118,1.586C236.378,9.215,236.794,8.642,236.794,7.629z M241.136,5.223h1.274l-6.214,9.101h-1.274L241.136,5.223z
		 M239.472,11.919c0-1.495,0.871-2.496,2.171-2.496c1.3,0,2.184,1.001,2.184,2.496s-0.884,2.496-2.184,2.496
		C240.343,14.415,239.472,13.414,239.472,11.919z M242.761,11.919c0-1.001-0.429-1.586-1.118-1.586s-1.118,0.572-1.118,1.586
		c0,1.015,0.429,1.586,1.118,1.586S242.761,12.92,242.761,11.919z"/>
</g>
<rect x="184.462" y="63.56" class="st11" width="13.149" height="16.764"/>
<polygon class="st21" points="184.461,80.324 184.461,80.324 197.61,80.324 197.61,63.56 184.461,63.56 "/>
<rect x="176.79" y="63.089" class="st9" width="21.291" height="24"/>
<line class="st22" x1="181.287" y1="71.255" x2="181.287" y2="81.642"/>
<line class="st23" x1="183.919" y1="83.531" x2="193.568" y2="83.531"/>
<path class="st21" d="M194.444,83.531h0.877 M181.287,82.587v0.944h0.877 M181.287,68.422v0.944"/>
<polyline class="st21" points="177.26,71.51 177.26,86.618 191.294,86.618 "/>
<rect x="176.79" y="63.089" class="st9" width="21.291" height="24"/>
<rect x="216.035" y="63.491" class="st11" width="14.674" height="18.705"/>
<polygon class="st24" points="216.036,82.196 216.036,82.196 230.709,82.196 230.709,63.491 216.036,63.491 "/>
<rect x="215.633" y="63.089" class="st9" width="19.884" height="24"/>
<rect x="220.442" y="67.982" class="st5" width="14.674" height="18.705"/>
<polygon class="st25" points="220.442,86.687 220.442,86.687 235.115,86.687 235.115,67.982 220.442,67.982 "/>
<rect x="215.633" y="63.089" class="st9" width="19.884" height="24"/>
<rect x="117.143" y="67.038" class="st10" width="34.924" height="19.551"/>
<text transform="matrix(1 0 0 1 124.143 81.6892)"><tspan x="0" y="0" class="st11" style="font-family:'Montserrat-Regular'; font-size:13px;">e</tspan><tspan x="7.41" y="0" class="st11" style="font-family:'Montserrat-Regular'; font-size:13px;">i</tspan><tspan x="10.335" y="0" class="st11" style="font-family:'Montserrat-Regular'; font-size:13px;">n</tspan></text>
<polygon class="st6" points="82.135,66.913 82.135,86.913 82.135,87.163 82.385,87.163 151.234,87.163 151.484,87.163 
	151.484,86.913 151.484,66.913 151.484,66.663 151.234,66.663 82.385,66.663 82.135,66.663 "/>
<rect x="81.885" y="66.413" class="st9" width="70.183" height="21"/>
<line class="st26" x1="223.199" y1="156.552" x2="223.199" y2="180.812"/>
<path class="st5" d="M231.296,172.37L231.296,172.37h2.592l-2.494-2.46c-0.138-0.135-0.093-0.245,0.101-0.245h6.725v-1.339
	c0-0.193-0.157-0.35-0.35-0.35h-6.725l2.743-2.705h-2.242c-0.193,0-0.462,0.11-0.599,0.245l-3.102,3.059
	c-0.137,0.135-0.137,0.355,0,0.491L231.296,172.37z"/>
<line class="st26" x1="196.254" y1="180.645" x2="196.254" y2="156.385"/>
<path class="st5" d="M188.157,164.827L188.157,164.827h-2.592l2.494,2.46c0.138,0.135,0.093,0.245-0.101,0.245h-6.725v1.339
	c0,0.193,0.157,0.35,0.35,0.35h6.725l-2.743,2.705h2.242c0.193,0,0.462-0.11,0.599-0.245l3.102-3.059
	c0.137-0.135,0.137-0.355,0-0.491L188.157,164.827z"/>
<line class="st26" x1="6.511" y1="164.423" x2="30.771" y2="164.423"/>
<path class="st5" d="M22.163,156.366L22.163,156.366v-2.592l-2.46,2.494c-0.135,0.138-0.245,0.093-0.245-0.101v-6.725h-1.339
	c-0.193,0-0.35,0.157-0.35,0.35v6.725l-2.705-2.743v2.242c0,0.193,0.11,0.462,0.245,0.599l3.059,3.102
	c0.135,0.137,0.355,0.137,0.491,0L22.163,156.366z"/>
<path class="st5" d="M15.23,171.518L15.23,171.518v2.592l2.46-2.494c0.135-0.138,0.245-0.093,0.245,0.101v6.725h1.339
	c0.193,0,0.35-0.157,0.35-0.35v-6.725l2.705,2.743v-2.242c0-0.193-0.11-0.462-0.245-0.599l-3.059-3.102
	c-0.135-0.137-0.355-0.137-0.491,0L15.23,171.518z"/>
<line class="st26" x1="62.958" y1="177.234" x2="62.958" y2="152.974"/>
<path class="st5" d="M54.9,161.583L54.9,161.583h-2.592l2.494,2.46c0.138,0.135,0.093,0.245-0.101,0.245h-6.725v1.339
	c0,0.193,0.157,0.35,0.35,0.35h6.725l-2.743,2.705h2.242c0.193,0,0.462-0.11,0.599-0.245l3.102-3.059
	c0.137-0.135,0.137-0.355,0-0.491L54.9,161.583z"/>
<path class="st5" d="M70.052,168.515L70.052,168.515h2.592l-2.494-2.46c-0.138-0.135-0.093-0.245,0.101-0.245h6.725v-1.339
	c0-0.193-0.157-0.35-0.35-0.35h-6.725l2.743-2.705h-2.242c-0.193,0-0.462,0.11-0.599,0.245l-3.102,3.059
	c-0.137,0.135-0.137,0.355,0,0.491L70.052,168.515z"/>
<line class="st26" x1="95.099" y1="164.707" x2="119.359" y2="164.707"/>
<path class="st5" d="M103.818,171.801L103.818,171.801v2.592l2.46-2.494c0.135-0.138,0.245-0.093,0.245,0.101v6.725h1.339
	c0.193,0,0.35-0.157,0.35-0.35v-6.725l2.705,2.743v-2.242c0-0.193-0.11-0.462-0.245-0.599l-3.059-3.102
	c-0.135-0.137-0.355-0.137-0.491,0L103.818,171.801z"/>
<line class="st26" x1="140.21" y1="175.962" x2="164.47" y2="175.962"/>
<path class="st5" d="M156.029,167.573L156.029,167.573v-2.592l-2.46,2.494c-0.135,0.138-0.245,0.093-0.245-0.101v-6.725h-1.339
	c-0.193,0-0.35,0.157-0.35,0.35v6.725l-2.705-2.743v2.242c0,0.193,0.11,0.462,0.245,0.599l3.059,3.102
	c0.135,0.137,0.355,0.137,0.491,0L156.029,167.573z"/>
<rect x="286.074" y="149.036" class="st11" width="15.769" height="20.056"/>
<line class="st27" x1="289.031" y1="169.092" x2="299.872" y2="169.092"/>
<line class="st28" x1="301.843" y1="166.084" x2="301.843" y2="151.042"/>
<line class="st27" x1="298.886" y1="149.036" x2="288.045" y2="149.036"/>
<line class="st28" x1="286.074" y1="152.044" x2="286.074" y2="167.086"/>
<path class="st21" d="M286.074,168.089v1.003h0.986 M287.06,149.036h-0.986v1.003 M301.843,150.039v-1.003h-0.985 M300.858,169.092
	h0.985v-1.003"/>
<polygon class="st11" points="274.838,179.092 274.838,179.092 290.607,179.092 290.607,159.036 274.838,159.036 "/>
<line class="st27" x1="277.795" y1="179.092" x2="288.636" y2="179.092"/>
<line class="st28" x1="290.607" y1="176.084" x2="290.607" y2="161.042"/>
<line class="st27" x1="287.651" y1="159.036" x2="276.81" y2="159.036"/>
<line class="st28" x1="274.838" y1="162.044" x2="274.838" y2="177.086"/>
<path class="st21" d="M274.838,178.089v1.003h0.986 M275.824,159.036h-0.986v1.003 M290.607,160.039v-1.003h-0.985 M289.622,179.092
	h0.985v-1.003"/>
<polygon class="st11" points="265.364,187.092 265.364,187.092 281.133,187.092 281.133,167.036 265.364,167.036 "/>
<polygon class="st21" points="265.364,187.092 265.364,187.092 281.133,187.092 281.133,167.036 265.364,167.036 "/>
<g>
	<polygon class="st11" points="339.201,173.398 339.201,173.398 354.97,173.398 354.97,153.342 339.201,153.342 	"/>
	<polygon class="st21" points="339.201,173.398 339.201,173.398 354.97,173.398 354.97,153.342 339.201,153.342 	"/>
	<line class="st29" x1="335.436" y1="161.896" x2="335.436" y2="175.4"/>
	<line class="st30" x1="338.574" y1="177.201" x2="350.077" y2="177.201"/>
	<path class="st21" d="M351.121,177.201h1.046 M335.436,176.301v0.9h1.046 M335.436,159.196v0.9"/>
</g>
<g>
	<g>
		<rect x="411.741" y="141.621" class="st11" width="15.769" height="20.056"/>
		<polygon class="st21" points="411.74,161.677 411.74,161.677 427.509,161.677 427.509,141.621 411.74,141.621 		"/>
		<polygon class="st11" points="400.504,171.677 400.504,171.677 416.273,171.677 416.273,151.621 400.504,151.621 		"/>
		<line class="st27" x1="403.461" y1="171.677" x2="414.302" y2="171.677"/>
		<line class="st28" x1="416.273" y1="168.669" x2="416.273" y2="153.627"/>
		<line class="st27" x1="413.317" y1="151.621" x2="402.476" y2="151.621"/>
		<line class="st28" x1="400.504" y1="154.63" x2="400.504" y2="169.672"/>
		<path class="st21" d="M400.504,170.674v1.003h0.986 M401.49,151.621h-0.986v1.003 M416.273,152.624v-1.003h-0.985
			 M415.288,171.677h0.985v-1.003"/>
		<polygon class="st11" points="391.03,179.677 391.03,179.677 406.799,179.677 406.799,159.621 391.03,159.621 		"/>
		<line class="st27" x1="393.987" y1="179.677" x2="404.828" y2="179.677"/>
		<line class="st28" x1="406.799" y1="176.669" x2="406.799" y2="161.627"/>
		<line class="st27" x1="403.843" y1="159.621" x2="393.002" y2="159.621"/>
		<line class="st28" x1="391.03" y1="162.63" x2="391.03" y2="177.672"/>
		<path class="st21" d="M391.03,178.674v1.003h0.986 M392.016,159.621h-0.986v1.003 M406.799,160.624v-1.003h-0.985
			 M405.814,179.677h0.985v-1.003"/>
	</g>
	<line class="st27" x1="467.154" y1="175.163" x2="477.995" y2="175.163"/>
	<line class="st28" x1="479.966" y1="172.154" x2="479.966" y2="157.112"/>
	<line class="st27" x1="477.009" y1="155.106" x2="466.168" y2="155.106"/>
	<line class="st28" x1="464.197" y1="158.115" x2="464.197" y2="173.157"/>
	<path class="st21" d="M464.197,174.16v1.003h0.986 M465.183,155.107h-0.986v1.003 M479.966,156.11v-1.003h-0.985 M478.981,175.163
		h0.985v-1.003"/>
	<polyline class="st21" points="460.433,160.961 460.433,178.966 477.164,178.966 	"/>
</g>
<g>
	<defs>
		<rect id="SVGID_1_" x="-294.842" y="268.999" width="241.682" height="1"/>
	</defs>
	<clipPath id="SVGID_00000122709732702611451240000010694259387277413309_">
		<use xlink:href="#SVGID_1_"  style="overflow:visible;"/>
	</clipPath>
	
		<line style="clip-path:url(#SVGID_00000122709732702611451240000010694259387277413309_);fill:none;stroke:#B2B2B2;stroke-linecap:round;stroke-linejoin:round;stroke-dasharray:0,3.009;" x1="-291.333" y1="269.499" x2="-55.163" y2="269.499"/>
	
		<path style="clip-path:url(#SVGID_00000122709732702611451240000010694259387277413309_);fill:none;stroke:#B2B2B2;stroke-linecap:round;stroke-linejoin:round;" d="
		M-53.66,269.499L-53.66,269.499 M-294.342,269.499L-294.342,269.499"/>
</g>
<circle class="st33" cx="-247.944" cy="48.287" r="12.75"/>
<polygon class="st3" points="-104.551,33.264 -117.551,33.264 -111.183,43.739 "/>
<polygon class="st5" points="-96.527,161.806 -107.002,168.174 -96.527,174.806 "/>
<polygon class="st5" points="-125.574,174.806 -115.099,168.438 -125.574,161.806 "/>
<polygon class="st5" points="-43.021,161.806 -53.496,168.174 -43.021,174.806 "/>
<polygon class="st5" points="-78.198,174.806 -67.723,168.438 -78.198,161.806 "/>
<rect x="82.052" y="33.275" class="st10" width="34.924" height="19.551"/>
<polygon class="st6" points="82.302,33.15 82.302,53.15 82.302,53.4 82.552,53.4 151.401,53.4 151.651,53.4 151.651,53.15 
	151.651,33.15 151.651,32.9 151.401,32.9 82.552,32.9 82.302,32.9 "/>
<rect x="82.052" y="32.65" class="st9" width="69.849" height="21"/>
<rect x="117.415" y="99.303" class="st10" width="34.924" height="19.551"/>
<polygon class="st6" points="82.407,99.178 82.407,119.178 82.407,119.428 82.657,119.428 151.506,119.428 151.756,119.428 
	151.756,119.178 151.756,99.178 151.756,98.928 151.506,98.928 82.657,98.928 82.407,98.928 "/>
<rect x="82.157" y="98.678" class="st9" width="70.183" height="21"/>
<line class="st19" x1="205.447" y1="29.204" x2="169.424" y2="29.204"/>
<path class="st20" d="M196.944,32.351c2.045,0,3.703-1.658,3.703-3.703s-1.658-3.703-3.703-3.703s-3.703,1.658-3.703,3.703
	S194.899,32.351,196.944,32.351"/>
<line class="st19" x1="513.771" y1="59.984" x2="477.748" y2="59.984"/>
<path class="st20" d="M505.268,63.13c2.045,0,3.703-1.658,3.703-3.703c0-2.045-1.658-3.703-3.703-3.703
	c-2.045,0-3.703,1.658-3.703,3.703C501.565,61.472,503.223,63.13,505.268,63.13"/>
</svg>
