<?xml version="1.0" encoding="utf-8"?>
<!-- Generator: Adobe Illustrator 26.5.0, SVG Export Plug-In . SVG Version: 6.00 Build 0)  -->
<svg version="1.1" id="Ebene_1" xmlns="http://www.w3.org/2000/svg" x="0px" y="0px"
     width="25.3px" height="24.7px" viewBox="0 0 25.3 24.7" style="enable-background:new 0 0 25.3 24.7;"
     xml:space="preserve">
<polyline style="fill:none;stroke:#C5C5C5;stroke-width:3;stroke-linecap:round;stroke-linejoin:round;" points="1973.7,821.3
	1967.4,812.3 1960.7,821.3 "/>
    <path style="fill:#C5C5C5;" d="M981.3,496.6h-1.5c-0.4,0-0.8,0.2-1,0.5l-4.8,6.5c-0.2,0.3-0.6,0.3-0.8,0l-4.8-6.5
	c-0.2-0.3-0.6-0.5-1-0.5h-1.5c-0.4,0-0.6,0.5-0.4,0.8l7.6,10.2c0.2,0.3,0.7,0.3,1,0l7.6-10.2C982,497.1,981.7,496.6,981.3,496.6"/>
    <path style="fill:#B2B2B2;" d="M11.7,7.2L11.7,7.2c-1.1,2.5-2,4.6-2.9,6.8h5.7C13.5,11.7,12.7,9.6,11.7,7.2 M15.1,24.7L15.1,24.7
	c-0.3-1.1-0.2-1.8,1-1.8c1,0,1.3-0.7,1-1.6c-0.5-1.4-1.1-2.8-1.7-4.2c-0.1-0.2-0.6-0.5-0.8-0.5c-2.1,0-4.3,0-6.4,0
	c-0.3,0-0.7,0.3-0.9,0.6c-0.6,1.2-1.1,2.3-1.5,3.5c-0.6,1.5-0.3,2,1.3,2.2c0.8,0.1,1.2,0.3,1,1.1c-0.1,0.2-0.4,0.6-0.5,0.6
	c-2.5,0-5,0-7.6,0c-0.2-1-0.3-1.6,0.9-1.9c0.6-0.1,1.2-0.6,1.5-1.1c0.8-1.3,1.4-2.7,2-4C6.9,12.1,9.3,6.6,11.7,1
	c0.2-0.4,0.6-0.7,1-1c0.3,0.3,0.8,0.6,0.9,1c2.6,6,5.1,12.1,7.6,18.2c0.3,0.8,0.7,1.5,1.1,2.3c0.5,0.9,1.3,1.4,2.4,1.6
	c0.3,0.1,0.5,0.6,0.6,1c0,0.2-0.4,0.6-0.6,0.6C21.5,24.8,18.3,24.7,15.1,24.7"/>
</svg>
