<?xml version="1.0" encoding="utf-8"?>
<!-- Generator: Adobe Illustrator 26.0.3, SVG Export Plug-In . SVG Version: 6.00 Build 0)  -->
<svg version="1.1" id="Ebene_1" xmlns="http://www.w3.org/2000/svg" xmlns:xlink="http://www.w3.org/1999/xlink" x="0px" y="0px"
	 width="21.868px" height="24px" viewBox="0 0 21.868 24" style="enable-background:new 0 0 21.868 24;" xml:space="preserve">
<style type="text/css">
	.st0{fill:none;stroke:#C5C5C5;stroke-width:3;stroke-linecap:round;stroke-linejoin:round;}
	.st1{fill:#FFAEFF;stroke:#4F4D4D;stroke-width:0.5;}
	.st2{fill:#F8F8F8;}
	.st3{fill:#0E689A;}
	.st4{fill:#B2B1B1;}
	.st5{fill:none;stroke:#B2B1B1;stroke-width:0.65;stroke-miterlimit:10;}
	.st6{fill:none;stroke:#B2B2B2;stroke-width:0.5;stroke-miterlimit:10;}
	.st7{fill:none;stroke:#B2B1B1;stroke-width:0.3;stroke-miterlimit:10;}
	.st8{fill:none;stroke:#FFFFFF;stroke-width:0.021;}
	.st9{fill:none;}
	.st10{fill:#0E6899;}
	.st11{fill:#FFFFFF;}
	.st12{fill:none;stroke:#C5C5C5;stroke-width:0.5;stroke-linecap:round;stroke-linejoin:round;}
	.st13{fill:#C5C5C5;}
	.st14{fill:none;stroke:#B2B1B1;stroke-width:0.5;}
	.st15{fill:none;stroke:#B2B1B1;stroke-width:1.2;}
	.st16{fill:#B2B2B2;}
	.st17{fill:none;stroke:#FFFFFF;stroke-width:0.001;}
	.st18{fill:none;stroke:#B2B1B1;stroke-width:1.712;}
	.st19{fill:none;stroke:#B2B1B1;stroke-width:2;}
	.st20{fill:#AD5E7A;}
	.st21{fill:none;stroke:#B2B1B1;stroke-width:0.941;}
	.st22{fill:none;stroke:#B2B1B1;stroke-width:0.941;stroke-dasharray:1.889,1.889;}
	.st23{fill:none;stroke:#B2B1B1;stroke-width:0.941;stroke-dasharray:1.754,1.754;}
	.st24{fill:none;stroke:#B2B1B1;stroke-width:0.804;}
	.st25{fill:none;stroke:#FFFFFF;stroke-width:0.804;}
	.st26{fill:none;stroke:#B2B1B1;stroke-width:2.5;}
	.st27{fill:none;stroke:#B2B1B1;stroke-width:0.941;stroke-dasharray:1.971,1.971;}
	.st28{fill:none;stroke:#B2B1B1;stroke-width:0.941;stroke-dasharray:2.006,2.006;}
	.st29{fill:none;stroke:#B2B1B1;stroke-width:0.941;stroke-dasharray:1.801,1.801;}
	.st30{fill:none;stroke:#B2B1B1;stroke-width:0.941;stroke-dasharray:2.091,2.091;}
	
		.st31{clip-path:url(#SVGID_00000021095059504414172130000014494130455875184794_);fill:none;stroke:#B2B2B2;stroke-linecap:round;stroke-linejoin:round;stroke-dasharray:0,3.009;}
	
		.st32{clip-path:url(#SVGID_00000021095059504414172130000014494130455875184794_);fill:none;stroke:#B2B2B2;stroke-linecap:round;stroke-linejoin:round;}
	.st33{fill:none;stroke:#4F4D4D;stroke-width:0.5;}
</style>
<polyline class="st0" points="2002.827,833.839 1996.577,824.839 1989.827,833.839 "/>
<circle class="st1" cx="10.934" cy="-128.909" r="12.75"/>
<rect x="43.395" y="-139.924" class="st2" width="119.902" height="21"/>
<polygon class="st3" points="154.224,-134.662 141.224,-134.662 147.592,-124.187 "/>
<g>
	<path class="st4" d="M237.774-132.531h1.3l-1.82,9.101h-1.3L237.774-132.531z"/>
</g>
<g>
	<line class="st5" x1="267.236" y1="-122.404" x2="277.519" y2="-122.404"/>
	<g>
		<path class="st4" d="M268.524-127.629v-5.175h1.3v5.122c0,2.016,0.923,2.926,2.561,2.926c1.638,0,2.574-0.91,2.574-2.926v-5.122
			h1.261v5.175c0,2.639-1.443,4.029-3.848,4.029C269.98-123.6,268.524-124.991,268.524-127.629z"/>
	</g>
</g>
<g>
	<path class="st4" d="M204.626-125.862c0,1.573-1.248,2.483-3.64,2.483h-4.706v-9.101h4.446c2.275,0,3.445,0.949,3.445,2.366
		c0,0.91-0.468,1.612-1.209,2.002C203.976-127.785,204.626-127.005,204.626-125.862z M198.373-130.893v2.146h2.093
		c1.027,0,1.586-0.364,1.586-1.079s-0.559-1.066-1.586-1.066H198.373z M202.506-126.082c0-0.767-0.585-1.131-1.677-1.131h-2.457
		v2.249h2.457C201.921-124.964,202.506-125.302,202.506-126.082z"/>
</g>
<polygon class="st6" points="259.128,-140.604 259.128,-114.604 259.128,-114.354 259.378,-114.354 285.378,-114.354 
	285.628,-114.354 285.628,-114.604 285.628,-140.604 285.628,-140.854 285.378,-140.854 259.378,-140.854 259.128,-140.854 "/>
<polygon class="st6" points="224.264,-140.98 224.264,-114.98 224.264,-114.73 224.514,-114.73 250.514,-114.73 250.764,-114.73 
	250.764,-114.98 250.764,-140.98 250.764,-141.23 250.514,-141.23 224.514,-141.23 224.264,-141.23 "/>
<polygon class="st6" points="187.202,-140.929 187.202,-114.929 187.202,-114.679 187.452,-114.679 213.452,-114.679 
	213.702,-114.679 213.702,-114.929 213.702,-140.929 213.702,-141.179 213.452,-141.179 187.452,-141.179 187.202,-141.179 "/>
<path class="st7" d="M241.39-98.975"/>
<path class="st7" d="M238.882-97.721"/>
<path class="st7" d="M238.882-96.467"/>
<path class="st7" d="M238.882-95.213"/>
<path class="st7" d="M241.39-93.959"/>
<path class="st7" d="M241.39-92.705"/>
<path class="st7" d="M238.882-91.451"/>
<path class="st7" d="M238.882-88.943"/>
<path class="st7" d="M241.39-86.435"/>
<path class="st7" d="M221.926-93.959"/>
<path class="st7" d="M221.926-98.975"/>
<path class="st7" d="M221.926-86.435"/>
<path class="st7" d="M221.926-92.705"/>
<g>
	<path class="st7" d="M223.988-91.451"/>
	<path class="st7" d="M223.988-95.213"/>
	<path class="st7" d="M223.988-96.467"/>
	<path class="st7" d="M223.988-97.721"/>
	<line class="st7" x1="221.55" y1="-87.23" x2="241.014" y2="-87.23"/>
	<line class="st7" x1="221.55" y1="-88.506" x2="236.444" y2="-88.506"/>
	<line class="st7" x1="221.55" y1="-89.782" x2="236.444" y2="-89.782"/>
	<line class="st7" x1="221.55" y1="-91.058" x2="236.444" y2="-91.058"/>
	<line class="st7" x1="221.55" y1="-92.334" x2="241.014" y2="-92.334"/>
	<line class="st7" x1="221.55" y1="-93.61" x2="241.014" y2="-93.61"/>
	<line class="st7" x1="221.624" y1="-94.886" x2="236.518" y2="-94.886"/>
	<line class="st7" x1="221.55" y1="-96.161" x2="241.014" y2="-96.161"/>
	<line class="st7" x1="221.55" y1="-97.437" x2="236.444" y2="-97.437"/>
	<line class="st7" x1="221.55" y1="-98.714" x2="236.444" y2="-98.714"/>
	<line class="st7" x1="221.55" y1="-99.989" x2="241.014" y2="-99.989"/>
</g>
<polygon class="st6" points="218.223,-106.284 218.223,-80.291 218.223,-80.041 218.473,-80.041 244.466,-80.041 244.716,-80.041 
	244.716,-80.291 244.716,-106.284 244.716,-106.534 244.466,-106.534 218.473,-106.534 218.223,-106.534 "/>
<g>
	<line class="st7" x1="272.271" y1="-99.672" x2="252.807" y2="-99.672"/>
	<line class="st7" x1="269.763" y1="-98.396" x2="254.869" y2="-98.396"/>
	<line class="st7" x1="269.763" y1="-97.119" x2="254.869" y2="-97.119"/>
	<line class="st7" x1="269.763" y1="-95.841" x2="254.869" y2="-95.841"/>
	<line class="st7" x1="272.271" y1="-94.565" x2="252.807" y2="-94.565"/>
	<line class="st7" x1="272.271" y1="-93.288" x2="252.807" y2="-93.288"/>
	<line class="st7" x1="269.763" y1="-92.01" x2="254.869" y2="-92.01"/>
	<line class="st7" x1="272.271" y1="-90.733" x2="252.807" y2="-90.733"/>
	<line class="st7" x1="269.763" y1="-89.456" x2="254.869" y2="-89.456"/>
	<line class="st7" x1="269.763" y1="-88.179" x2="254.869" y2="-88.179"/>
	<line class="st7" x1="272.271" y1="-86.902" x2="252.807" y2="-86.902"/>
</g>
<polygon class="st6" points="249.292,-106.284 249.292,-80.291 249.292,-80.041 249.542,-80.041 275.535,-80.041 275.785,-80.041 
	275.785,-80.291 275.785,-106.284 275.785,-106.534 275.535,-106.534 249.542,-106.534 249.292,-106.534 "/>
<polygon class="st6" points="280.361,-106.284 280.361,-80.291 280.361,-80.041 280.611,-80.041 306.604,-80.041 306.854,-80.041 
	306.854,-80.291 306.854,-106.284 306.854,-106.534 306.604,-106.534 280.611,-106.534 280.361,-106.534 "/>
<path class="st7" d="M283.688-87.6"/>
<path class="st7" d="M283.688-92.616"/>
<path class="st7" d="M283.688-93.87"/>
<path class="st7" d="M283.688-100.139"/>
<path class="st7" d="M301.09-95.124"/>
<path class="st7" d="M303.152-92.616"/>
<path class="st7" d="M301.09-91.362"/>
<path class="st7" d="M303.152-87.6"/>
<path class="st7" d="M303.152-100.139"/>
<path class="st7" d="M303.152-93.87"/>
<path class="st7" d="M301.09-90.108"/>
<path class="st7" d="M301.09-88.854"/>
<g>
	<path class="st7" d="M286.007-89.176"/>
	<path class="st7" d="M286.007-90.43"/>
	<path class="st7" d="M286.007-91.684"/>
	<path class="st7" d="M286.007-95.446"/>
	<path class="st7" d="M286.007-97.954"/>
	<line class="st7" x1="303.339" y1="-99.667" x2="283.875" y2="-99.667"/>
	<line class="st7" x1="303.339" y1="-98.391" x2="288.445" y2="-98.391"/>
	<line class="st7" x1="303.339" y1="-97.116" x2="288.445" y2="-97.116"/>
	<line class="st7" x1="303.339" y1="-95.839" x2="288.445" y2="-95.839"/>
	<line class="st7" x1="303.339" y1="-94.563" x2="283.875" y2="-94.563"/>
	<line class="st7" x1="303.339" y1="-93.287" x2="283.875" y2="-93.287"/>
	<line class="st7" x1="303.266" y1="-92.012" x2="288.372" y2="-92.012"/>
	<line class="st7" x1="303.339" y1="-90.736" x2="283.875" y2="-90.736"/>
	<line class="st7" x1="303.339" y1="-89.46" x2="288.445" y2="-89.46"/>
	<line class="st7" x1="303.339" y1="-88.183" x2="288.445" y2="-88.183"/>
	<line class="st7" x1="303.339" y1="-86.908" x2="283.875" y2="-86.908"/>
</g>
<polygon class="st6" points="187.452,-106.277 187.452,-80.284 187.452,-80.034 187.702,-80.034 213.695,-80.034 213.945,-80.034 
	213.945,-80.284 213.945,-106.277 213.945,-106.527 213.695,-106.527 187.702,-106.527 187.452,-106.527 "/>
<path class="st7" d="M210.619-98.975"/>
<path class="st7" d="M210.619-93.959"/>
<path class="st7" d="M210.619-92.705"/>
<path class="st7" d="M210.619-86.435"/>
<path class="st7" d="M193.217-91.451"/>
<path class="st7" d="M191.155-93.959"/>
<path class="st7" d="M193.217-95.213"/>
<path class="st7" d="M191.155-98.975"/>
<path class="st7" d="M191.155-86.435"/>
<path class="st7" d="M191.155-92.705"/>
<path class="st7" d="M193.217-96.467"/>
<path class="st7" d="M193.217-97.721"/>
<g>
	<path class="st7" d="M208.111-97.721"/>
	<path class="st7" d="M208.111-96.467"/>
	<path class="st7" d="M208.111-95.213"/>
	<path class="st7" d="M208.111-91.451"/>
	<path class="st7" d="M208.111-88.943"/>
	<line class="st7" x1="190.779" y1="-87.23" x2="210.243" y2="-87.23"/>
	<line class="st7" x1="190.779" y1="-88.506" x2="210.243" y2="-88.506"/>
	<line class="st7" x1="190.779" y1="-89.782" x2="210.243" y2="-89.782"/>
	<line class="st7" x1="190.779" y1="-91.058" x2="210.243" y2="-91.058"/>
	<line class="st7" x1="190.779" y1="-92.334" x2="210.243" y2="-92.334"/>
	<line class="st7" x1="190.779" y1="-93.61" x2="210.243" y2="-93.61"/>
	<line class="st7" x1="190.852" y1="-94.886" x2="210.316" y2="-94.886"/>
	<line class="st7" x1="190.779" y1="-96.161" x2="210.243" y2="-96.161"/>
	<line class="st7" x1="190.779" y1="-97.437" x2="210.243" y2="-97.437"/>
	<line class="st7" x1="190.779" y1="-98.714" x2="210.243" y2="-98.714"/>
	<line class="st7" x1="190.779" y1="-99.989" x2="210.243" y2="-99.989"/>
</g>
<path class="st4" d="M17.896,8.871l-1.915,13.335c-0.058,0.402-0.431,0.682-0.834,0.624c-0.402-0.058-0.682-0.431-0.624-0.833
	l1.915-13.336c0.058-0.402,0.431-0.681,0.834-0.623C17.674,8.096,17.954,8.468,17.896,8.871 M11.079,22.946
	c-0.407,0.003-0.74-0.324-0.742-0.73L10.231,8.744c-0.003-0.407,0.324-0.739,0.73-0.742c0.408-0.003,0.74,0.324,0.743,0.731
	l0.105,13.471C11.812,22.611,11.485,22.943,11.079,22.946 M7.008,22.893c-0.401,0.064-0.779-0.209-0.842-0.61L4.042,8.979
	C3.978,8.577,4.251,8.2,4.654,8.136c0.401-0.064,0.778,0.209,0.842,0.611L7.619,22.05C7.683,22.452,7.41,22.829,7.008,22.893
	 M20.791,6.485c-0.141-0.169-0.353-0.266-0.573-0.264L1.68,6.365C1.46,6.367,1.251,6.466,1.112,6.637
	c-0.14,0.17-0.196,0.393-0.155,0.609l3.092,16.141c0.068,0.351,0.376,0.605,0.734,0.602l12.497-0.098
	c0.356-0.002,0.66-0.258,0.724-0.608l2.949-16.188C20.993,6.879,20.932,6.654,20.791,6.485"/>
<path class="st8" d="M17.896,8.871l-1.915,13.335c-0.058,0.402-0.431,0.682-0.834,0.624c-0.402-0.058-0.682-0.431-0.624-0.833
	l1.915-13.336c0.058-0.402,0.431-0.681,0.834-0.623C17.674,8.096,17.954,8.468,17.896,8.871z M11.079,22.946
	c-0.407,0.003-0.74-0.324-0.742-0.73L10.231,8.744c-0.003-0.407,0.324-0.739,0.73-0.742c0.408-0.003,0.74,0.324,0.743,0.731
	l0.105,13.471C11.812,22.611,11.485,22.943,11.079,22.946z M7.008,22.893c-0.401,0.064-0.779-0.209-0.842-0.61L4.042,8.979
	C3.978,8.577,4.251,8.2,4.654,8.136c0.401-0.064,0.778,0.209,0.842,0.611L7.619,22.05C7.683,22.452,7.41,22.829,7.008,22.893z
	 M20.791,6.485c-0.141-0.169-0.353-0.266-0.573-0.264L1.68,6.365C1.46,6.367,1.251,6.466,1.112,6.637
	c-0.14,0.17-0.196,0.393-0.155,0.609l3.092,16.141c0.068,0.351,0.376,0.605,0.734,0.602l12.497-0.098
	c0.356-0.002,0.66-0.258,0.724-0.608l2.949-16.188C20.993,6.879,20.932,6.654,20.791,6.485z"/>
<path class="st4" d="M8.103,1.878L8.103,1.878L8.099,1.457l5.49-0.043l0.004,0.421L8.103,1.878z M21.84,3.288L21.84,3.288
	l-2.025,0.016l-0.009-1.171c-0.001-0.091-0.038-0.18-0.103-0.244c-0.065-0.064-0.155-0.1-0.246-0.1L14.99,1.824l-0.009-1.12
	c-0.002-0.184-0.077-0.363-0.209-0.492c-0.131-0.13-0.311-0.203-0.495-0.201L7.39,0.065C7.207,0.066,7.027,0.142,6.898,0.273
	c-0.129,0.131-0.202,0.312-0.2,0.496l0.009,1.12L2.543,1.921C2.452,1.922,2.363,1.96,2.3,2.025C2.235,2.09,2.199,2.179,2.199,2.271
	l0.009,1.171L0.011,3.459l0.017,2.225l21.829-0.17L21.84,3.288z"/>
<path class="st8" d="M8.103,1.878L8.103,1.878L8.099,1.457l5.49-0.043l0.004,0.421L8.103,1.878z M21.84,3.288L21.84,3.288
	l-2.025,0.016l-0.009-1.171c-0.001-0.091-0.038-0.18-0.103-0.244c-0.065-0.064-0.155-0.1-0.246-0.1L14.99,1.824l-0.009-1.12
	c-0.002-0.184-0.077-0.363-0.209-0.492c-0.131-0.13-0.311-0.203-0.495-0.201L7.39,0.065C7.207,0.066,7.027,0.142,6.898,0.273
	c-0.129,0.131-0.202,0.312-0.2,0.496l0.009,1.12L2.543,1.921C2.452,1.922,2.363,1.96,2.3,2.025C2.235,2.09,2.199,2.179,2.199,2.271
	l0.009,1.171L0.011,3.459l0.017,2.225l21.829-0.17L21.84,3.288z"/>
<rect class="st9" width="21.868" height="24"/>
<rect x="340.929" y="-140.768" class="st10" width="34.924" height="19.551"/>
<g>
	<path class="st11" d="M353.907-130.355v4.238h-0.884v-1.066c-0.416,0.702-1.222,1.132-2.354,1.132
		c-1.547,0-2.496-0.807-2.496-1.989c0-1.054,0.676-1.938,2.639-1.938h2.171v-0.416c0-1.17-0.663-1.807-1.938-1.807
		c-0.884,0-1.716,0.312-2.275,0.806l-0.416-0.688c0.689-0.585,1.703-0.924,2.782-0.924
		C352.906-133.007,353.907-132.122,353.907-130.355z M352.984-128.17v-1.118h-2.146c-1.326,0-1.755,0.52-1.755,1.222
		c0,0.793,0.637,1.287,1.729,1.287C351.853-126.78,352.62-127.274,352.984-128.17z"/>
	<path class="st11" d="M362.006-132.954v6.838h-0.884v-1.248c-0.481,0.832-1.365,1.313-2.458,1.313
		c-1.742,0-2.886-0.976-2.886-2.938v-3.965h0.923v3.874c0,1.456,0.754,2.197,2.054,2.197c1.43,0,2.327-0.924,2.327-2.483v-3.588
		H362.006z"/>
	<path class="st11" d="M363.305-126.897l0.416-0.728c0.546,0.429,1.469,0.767,2.431,0.767c1.3,0,1.833-0.441,1.833-1.118
		c0-1.78-4.433-0.377-4.433-3.081c0-1.118,0.962-1.95,2.704-1.95c0.884,0,1.846,0.247,2.418,0.638l-0.403,0.74
		c-0.598-0.416-1.313-0.585-2.015-0.585c-1.235,0-1.781,0.481-1.781,1.132c0,1.846,4.434,0.455,4.434,3.081
		c0,1.183-1.04,1.95-2.821,1.95C364.957-126.051,363.864-126.415,363.305-126.897z"/>
</g>
<polygon class="st6" points="341.179,-140.893 341.179,-120.893 341.179,-120.643 341.429,-120.643 410.278,-120.643 
	410.528,-120.643 410.528,-120.893 410.528,-140.893 410.528,-141.143 410.278,-141.143 341.429,-141.143 341.179,-141.143 "/>
<rect x="340.929" y="-141.393" class="st9" width="69.849" height="21"/>
<rect x="-63.468" y="65.937" class="st11" width="1014" height="21"/>
<path class="st3" d="M563.693,65.937c-2.209,0-4,1.791-4,4v12.382c0,2.209,1.791,4,4,4h77.131c2.209,0,4-1.791,4-4V69.937
	c0-2.209-1.791-4-4-4H563.693z"/>
<rect x="-63.218" y="66.187" class="st12" width="1013.5" height="20.5"/>
<path class="st13" d="M934.388,68.797v1.481c0,0.397,0.187,0.771,0.505,1.009l6.367,4.762c0.258,0.194,0.258,0.583,0,0.776
	l-6.367,4.762c-0.318,0.238-0.505,0.612-0.505,1.01v1.48c0,0.41,0.467,0.644,0.795,0.399l10.111-7.563
	c0.318-0.237,0.318-0.714,0-0.952l-10.11-7.562C934.855,68.153,934.388,68.388,934.388,68.797"/>
<path class="st13" d="M-47.615,84.077v-1.481c0-0.397-0.187-0.771-0.505-1.009l-6.367-4.762c-0.258-0.194-0.258-0.583,0-0.776
	l6.367-4.762c0.318-0.238,0.505-0.612,0.505-1.01v-1.48c0-0.41-0.467-0.644-0.795-0.399l-10.111,7.563
	c-0.318,0.237-0.318,0.714,0,0.952l10.11,7.562C-48.082,84.721-47.615,84.486-47.615,84.077"/>
<rect x="-63.468" y="65.937" class="st9" width="1014" height="21"/>
<rect x="992.305" y="-178.608" class="st11" width="21" height="702.123"/>
<path class="st3" d="M992.305,235.353c0,2.209,1.791,4,4,4h12.382c2.209,0,4-1.791,4-4v-78.286c0-2.209-1.791-4-4-4h-12.382
	c-2.209,0-4,1.791-4,4V235.353z"/>
<rect x="992.555" y="-178.359" class="st12" width="20.5" height="701.624"/>
<path class="st13" d="M995.165-165.073h1.481c0.397,0,0.771-0.19,1.009-0.512l4.762-6.453c0.194-0.262,0.583-0.262,0.776,0
	l4.762,6.453c0.238,0.322,0.612,0.512,1.01,0.512h1.48c0.41,0,0.644-0.474,0.399-0.806l-7.563-10.248
	c-0.237-0.322-0.714-0.322-0.952,0l-7.562,10.248C994.521-165.547,994.756-165.073,995.165-165.073"/>
<path class="st13" d="M1010.445,509.179h-1.481c-0.397,0-0.771,0.19-1.009,0.512l-4.762,6.453c-0.194,0.262-0.583,0.262-0.776,0
	l-4.762-6.453c-0.238-0.322-0.612-0.512-1.01-0.512h-1.48c-0.41,0-0.644,0.474-0.399,0.806l7.563,10.248
	c0.237,0.322,0.714,0.322,0.952,0l7.562-10.248C1011.089,509.653,1010.854,509.179,1010.445,509.179"/>
<rect x="992.305" y="-178.609" class="st9" width="21" height="702.124"/>
<line class="st7" x1="271.329" y1="-66.482" x2="258.312" y2="-66.482"/>
<line class="st7" x1="271.329" y1="-61.394" x2="258.312" y2="-61.394"/>
<line class="st7" x1="271.329" y1="-56.306" x2="258.312" y2="-56.306"/>
<text transform="matrix(1 0 0 1 253.7413 -66.6134)" class="st4" style="font-family:'Montserrat-Bold'; font-size:3px;">1</text>
<text transform="matrix(1 0 0 1 253.7413 -61.5978)" class="st4" style="font-family:'Montserrat-Bold'; font-size:3px;">2</text>
<text transform="matrix(1 0 0 1 253.7413 -56.5821)" class="st4" style="font-family:'Montserrat-Bold'; font-size:3px;">3</text>
<polygon class="st6" points="249.285,-74.072 249.285,-48.072 249.285,-47.822 249.535,-47.822 275.535,-47.822 275.785,-47.822 
	275.785,-48.072 275.785,-74.072 275.785,-74.322 275.535,-74.322 249.535,-74.322 249.285,-74.322 "/>
<polygon class="st6" points="217.794,-74.072 217.794,-48.072 217.794,-47.822 218.044,-47.822 244.044,-47.822 244.294,-47.822 
	244.294,-48.072 244.294,-74.072 244.294,-74.322 244.044,-74.322 218.044,-74.322 217.794,-74.322 "/>
<polygon class="st6" points="187.452,-74.072 187.452,-48.072 187.452,-47.822 187.702,-47.822 213.702,-47.822 213.952,-47.822 
	213.952,-48.072 213.952,-74.072 213.952,-74.322 213.702,-74.322 187.702,-74.322 187.452,-74.322 "/>
<path class="st7" d="M239.326-55.947H226.31 M239.326-61.08H226.31 M239.326-66.212H226.31"/>
<path class="st4" d="M224.224-60.496c0.161-0.156,0.241-0.349,0.241-0.581c0-0.15-0.037-0.288-0.11-0.414
	c-0.073-0.125-0.172-0.224-0.297-0.297c-0.126-0.073-0.264-0.11-0.415-0.11c-0.15,0-0.288,0.037-0.41,0.11
	c-0.122,0.073-0.221,0.172-0.294,0.297c-0.072,0.126-0.11,0.264-0.11,0.414c0,0.232,0.08,0.425,0.238,0.581
	c0.157,0.156,0.35,0.234,0.576,0.234C223.87-60.262,224.063-60.34,224.224-60.496"/>
<path class="st4" d="M223.647-65.13c0.489,0,0.885-0.396,0.885-0.885c0-0.488-0.396-0.885-0.885-0.885
	c-0.488,0-0.885,0.397-0.885,0.885C222.762-65.526,223.159-65.13,223.647-65.13"/>
<path class="st4" d="M224.224-55.479c0.161-0.156,0.241-0.349,0.241-0.581c0-0.15-0.037-0.288-0.11-0.414
	c-0.073-0.125-0.172-0.224-0.297-0.297c-0.126-0.073-0.264-0.11-0.415-0.11c-0.15,0-0.288,0.037-0.41,0.11
	c-0.122,0.073-0.221,0.172-0.294,0.297c-0.072,0.126-0.11,0.264-0.11,0.414c0,0.232,0.08,0.425,0.238,0.581
	c0.157,0.156,0.35,0.234,0.576,0.234C223.87-55.245,224.063-55.323,224.224-55.479"/>
<path class="st7" d="M208.984-55.94h-13.016 M208.984-61.073h-13.016 M208.984-66.205h-13.016"/>
<rect x="192.42" y="-66.974" class="st4" width="1.77" height="1.77"/>
<rect x="192.42" y="-61.958" class="st4" width="1.77" height="1.77"/>
<rect x="192.42" y="-56.94" class="st4" width="1.77" height="1.77"/>
<rect x="530.942" y="-141.862" class="st2" width="245" height="57.75"/>
<text transform="matrix(1 0 0 1 605.6398 -115.6663)"><tspan x="0" y="0" class="st4" style="font-family:'Montserrat-Regular'; font-size:13px;">N</tspan><tspan x="10.478" y="0" class="st4" style="font-family:'Montserrat-Regular'; font-size:13px;">e</tspan><tspan x="18.135" y="0" class="st4" style="font-family:'Montserrat-Regular'; font-size:13px;">u</tspan><tspan x="26.753" y="0" class="st4" style="font-family:'Montserrat-Regular'; font-size:13px;">e </tspan><tspan x="38.011" y="0" class="st4" style="font-family:'Montserrat-Regular'; font-size:13px; letter-spacing:-1;">T</tspan><tspan x="44.381" y="0" class="st4" style="font-family:'Montserrat-Regular'; font-size:13px;">e</tspan><tspan x="51.882" y="0" class="st4" style="font-family:'Montserrat-Regular'; font-size:13px;">x</tspan><tspan x="59.097" y="0" class="st4" style="font-family:'Montserrat-Regular'; font-size:13px;">t</tspan><tspan x="64.128" y="0" class="st4" style="font-family:'Montserrat-Regular'; font-size:13px;">b</tspan><tspan x="72.942" y="0" class="st4" style="font-family:'Montserrat-Regular'; font-size:13px;">o</tspan><tspan x="80.742" y="0" class="st4" style="font-family:'Montserrat-Regular'; font-size:13px;">x </tspan></text>
<path class="st14" d="M653.442-93.903c3.707,0,6.713-3.005,6.713-6.712c0-3.708-3.006-6.713-6.713-6.713
	c-3.707,0-6.712,3.005-6.712,6.713C646.73-96.908,649.735-93.903,653.442-93.903z"/>
<rect x="530.942" y="-141.862" class="st9" width="245" height="57.75"/>
<line class="st15" x1="653.442" y1="-104.15" x2="653.442" y2="-97.081"/>
<line class="st15" x1="649.908" y1="-100.584" x2="656.976" y2="-100.584"/>
<path class="st14" d="M542.481-54.068c3.707,0,6.713-3.005,6.713-6.712c0-3.708-3.006-6.713-6.713-6.713
	c-3.707,0-6.712,3.005-6.712,6.713C535.769-57.073,538.774-54.068,542.481-54.068z"/>
<line class="st15" x1="542.481" y1="-64.314" x2="542.481" y2="-57.245"/>
<line class="st15" x1="538.947" y1="-60.749" x2="546.015" y2="-60.749"/>
<g>
	<path class="st16" d="M46.588-38.932h-3.138v-1.85h8.544v1.85h-3.138v7.956h-2.269V-38.932z"/>
	<path class="st16" d="M53.209-40.782h2.269v9.806h-2.269V-40.782z"/>
	<path class="st16" d="M66.303-37.223c0,2.185-1.639,3.544-4.258,3.544H60.07v2.703h-2.269v-9.806h4.244
		C64.665-40.782,66.303-39.423,66.303-37.223z M64.006-37.223c0-1.079-0.701-1.709-2.087-1.709H60.07v3.403h1.849
		C63.306-35.529,64.006-36.159,64.006-37.223z"/>
	<path class="st16" d="M76.425-37.223c0,2.185-1.639,3.544-4.258,3.544h-1.975v2.703h-2.269v-9.806h4.244
		C74.787-40.782,76.425-39.423,76.425-37.223z M74.128-37.223c0-1.079-0.701-1.709-2.087-1.709h-1.849v3.403h1.849
		C73.428-35.529,74.128-36.159,74.128-37.223z"/>
</g>
<path class="st16" d="M9.961-45.253L9.961-45.253c-1.054,2.474-1.96,4.602-2.889,6.784h5.729
	C11.857-40.725,10.975-42.833,9.961-45.253 M13.454-27.663L13.454-27.663c-0.346-1.15-0.211-1.759,1.044-1.8
	c0.976-0.033,1.343-0.74,1.02-1.64c-0.507-1.414-1.072-2.81-1.681-4.183c-0.109-0.245-0.55-0.478-0.843-0.484
	c-2.129-0.041-4.261-0.046-6.39,0.005c-0.305,0.008-0.741,0.315-0.877,0.599c-0.558,1.155-1.057,2.342-1.512,3.542
	c-0.57,1.504-0.268,2.026,1.348,2.192c0.783,0.081,1.206,0.319,1.022,1.126c-0.056,0.243-0.355,0.61-0.547,0.613
	c-2.524,0.042-5.049,0.028-7.596,0.028c-0.214-0.956-0.321-1.631,0.868-1.885c0.569-0.122,1.219-0.609,1.515-1.117
	c0.755-1.293,1.377-2.67,1.972-4.049c2.401-5.559,4.761-11.135,7.172-16.689c0.173-0.398,0.634-0.67,0.96-1
	c0.319,0.343,0.766,0.632,0.937,1.037c2.56,6.048,5.079,12.114,7.622,18.17c0.326,0.776,0.705,1.534,1.106,2.275
	c0.507,0.939,1.332,1.389,2.379,1.595c0.265,0.052,0.519,0.638,0.586,1.013c0.032,0.175-0.39,0.621-0.611,0.624
	C19.796-27.65,16.643-27.663,13.454-27.663"/>
<path class="st4" d="M107.199-35.201c2.682-0.014,4.762-2.036,4.751-4.621c-0.01-2.367-2.203-4.406-4.733-4.399
	c-2.703,0.008-4.848,2.038-4.825,4.568C102.415-37.189,104.575-35.188,107.199-35.201 M112.754-35.188L112.754-35.188
	c0.393-0.231,0.569-0.207,0.91,0.115c1.249,1.181,2.501,2.361,3.751,3.541c0.086,0.08,0.173,0.159,0.252,0.246
	c0.216,0.237,0.217,0.464-0.012,0.692c-0.249,0.248-0.509,0.488-0.767,0.727c-0.302,0.28-0.548,0.287-0.855,0
	c-1.177-1.103-2.348-2.211-3.522-3.318c-0.132-0.124-0.263-0.25-0.396-0.373c-0.368-0.34-0.394-0.487-0.153-0.896
	c-0.368-0.336-0.737-0.673-1.128-1.029c-1.472,1.07-3.153,1.471-5.011,1.06c-1.415-0.313-2.544-1.054-3.377-2.178
	c-1.65-2.23-1.286-5.335,0.823-7.11c2.222-1.87,5.521-1.904,7.68-0.117c2.217,1.835,2.765,5.106,0.696,7.583
	C112.015-35.892,112.384-35.541,112.754-35.188"/>
<path class="st17" d="M107.199-35.201c2.682-0.014,4.762-2.036,4.751-4.621c-0.01-2.367-2.203-4.406-4.733-4.399
	c-2.703,0.008-4.848,2.038-4.825,4.568C102.415-37.189,104.575-35.188,107.199-35.201z M112.754-35.188L112.754-35.188
	c0.393-0.231,0.569-0.207,0.91,0.115c1.249,1.181,2.501,2.361,3.751,3.541c0.086,0.08,0.173,0.159,0.252,0.246
	c0.216,0.237,0.217,0.464-0.012,0.692c-0.249,0.248-0.509,0.488-0.767,0.727c-0.302,0.28-0.548,0.287-0.855,0
	c-1.177-1.103-2.348-2.211-3.522-3.318c-0.132-0.124-0.263-0.25-0.396-0.373c-0.368-0.34-0.394-0.487-0.153-0.896
	c-0.368-0.336-0.737-0.673-1.128-1.029c-1.472,1.07-3.153,1.471-5.011,1.06c-1.415-0.313-2.544-1.054-3.377-2.178
	c-1.65-2.23-1.286-5.335,0.823-7.11c2.222-1.87,5.521-1.904,7.68-0.117c2.217,1.835,2.765,5.106,0.696,7.583
	C112.015-35.892,112.384-35.541,112.754-35.188z"/>
<path class="st4" d="M170.913-44.782l2.966,2.98v-2.758c0-0.096-0.055-0.229-0.123-0.297l-3.807-3.826
	c-0.068-0.067-0.178-0.067-0.245,0l-3.93,3.949v2.758c0,0.096,0.055,0.119,0.122,0.051l2.844-2.857
	c0.068-0.068,0.122-0.046,0.122,0.05v7.829h0v2.168c0,0.096-0.055,0.118-0.123,0.05l-2.966-2.98v2.758
	c0,0.096,0.055,0.229,0.123,0.297l3.807,3.826c0.068,0.067,0.178,0.067,0.245,0l3.93-3.949v-2.758c0-0.096-0.055-0.119-0.122-0.051
	l-2.844,2.857c-0.068,0.068-0.122,0.046-0.122-0.05v-7.829h0v-2.168C170.79-44.828,170.845-44.85,170.913-44.782z"/>
<line class="st18" x1="134.774" y1="-31.546" x2="162.607" y2="-31.546"/>
<line class="st18" x1="134.774" y1="-39.842" x2="162.607" y2="-39.842"/>
<line class="st18" x1="134.774" y1="-47.834" x2="162.607" y2="-47.834"/>
<line class="st18" x1="149.116" y1="-12.574" x2="149.116" y2="8.426"/>
<path class="st4" d="M156.576,1.269L156.576,1.269h2.695L156.668-1.3c-0.138-0.135-0.093-0.245,0.101-0.245h7.006v-1.407
	c0-0.193-0.157-0.35-0.35-0.35h-6.656c-0.194,0-0.239-0.11-0.101-0.246l2.603-2.569h-2.345c-0.193,0-0.462,0.111-0.599,0.246
	l-3.245,3.201c-0.137,0.136-0.137,0.356,0,0.492L156.576,1.269z"/>
<path class="st4" d="M140.806-5.943L140.806-5.943h-2.695l2.603,2.569c0.138,0.135,0.093,0.245-0.101,0.245h-7.006v1.407
	c0,0.193,0.157,0.35,0.35,0.35h6.656c0.194,0,0.239,0.11,0.101,0.246l-2.603,2.569h2.345c0.193,0,0.462-0.111,0.599-0.246
	l3.245-3.201c0.137-0.136,0.137-0.356,0-0.492L140.806-5.943z"/>
<line class="st19" x1="465.402" y1="-131.687" x2="429.379" y2="-131.687"/>
<path class="st20" d="M456.899-128.541c2.045,0,3.703-1.658,3.703-3.703s-1.658-3.703-3.703-3.703c-2.045,0-3.703,1.658-3.703,3.703
	S454.854-128.541,456.899-128.541"/>
<g>
	<path class="st4" d="M480.098-131.486c0,3.12-1.82,4.836-4.459,4.836c-0.91,0-1.781-0.195-2.392-0.585l0.624-1.274
		c0.494,0.325,1.092,0.442,1.729,0.442c1.716,0,2.795-1.066,2.795-3.133v-0.014c-0.546,0.638-1.417,0.949-2.431,0.949
		c-1.794,0-3.133-1.092-3.133-2.795c0-1.807,1.469-2.951,3.328-2.951C478.642-136.01,480.098-134.411,480.098-131.486z
		 M478.135-133.15c0-0.858-0.676-1.534-1.885-1.534c-1.053,0-1.781,0.598-1.781,1.547s0.715,1.547,1.82,1.547
		C477.381-131.591,478.135-132.254,478.135-133.15z"/>
	<path class="st4" d="M487.963-129.575c0,1.599-1.157,2.925-3.602,2.925c-1.287,0-2.587-0.39-3.419-1.053l0.715-1.313
		c0.663,0.546,1.651,0.897,2.678,0.897c1.209,0,1.924-0.533,1.924-1.392c0-0.871-0.559-1.417-2.444-1.417h-2.197l0.468-4.953h5.343
		v1.417h-3.913l-0.195,2.106h0.871C486.884-132.357,487.963-131.187,487.963-129.575z"/>
	<path class="st4" d="M492.383-133.475c0-1.495,0.871-2.496,2.171-2.496s2.184,0.988,2.184,2.496s-0.884,2.496-2.184,2.496
		S492.383-131.98,492.383-133.475z M495.672-133.475c0-1.014-0.416-1.586-1.118-1.586c-0.676,0-1.118,0.585-1.118,1.586
		s0.442,1.586,1.118,1.586C495.256-131.889,495.672-132.462,495.672-133.475z M500.014-135.881h1.274l-6.214,9.101H493.8
		L500.014-135.881z M498.35-129.185c0-1.495,0.871-2.496,2.171-2.496c1.3,0,2.184,1.001,2.184,2.496
		c0,1.495-0.884,2.496-2.184,2.496C499.221-126.689,498.35-127.69,498.35-129.185z M501.639-129.185
		c0-1.001-0.429-1.586-1.118-1.586s-1.118,0.572-1.118,1.586c0,1.015,0.429,1.586,1.118,1.586S501.639-128.184,501.639-129.185z"/>
</g>
<rect x="443.34" y="-77.544" class="st11" width="13.149" height="16.764"/>
<polygon class="st21" points="443.339,-60.78 443.339,-60.78 456.488,-60.78 456.488,-77.544 443.339,-77.544 "/>
<rect x="435.668" y="-78.015" class="st9" width="21.291" height="24"/>
<line class="st22" x1="440.165" y1="-69.849" x2="440.165" y2="-59.462"/>
<line class="st23" x1="442.796" y1="-57.573" x2="452.445" y2="-57.573"/>
<path class="st21" d="M453.322-57.573h0.877 M440.165-58.517v0.944h0.877 M440.165-72.682v0.944"/>
<polyline class="st21" points="436.138,-69.594 436.138,-54.486 450.172,-54.486 "/>
<rect x="435.668" y="-78.015" class="st9" width="21.291" height="24"/>
<rect x="474.913" y="-77.613" class="st11" width="14.674" height="18.705"/>
<polygon class="st24" points="474.913,-58.908 474.913,-58.908 489.586,-58.908 489.586,-77.613 474.913,-77.613 "/>
<rect x="474.511" y="-78.015" class="st9" width="19.884" height="24"/>
<rect x="479.32" y="-73.122" class="st4" width="14.674" height="18.705"/>
<polygon class="st25" points="479.32,-54.417 479.32,-54.417 493.993,-54.417 493.993,-73.122 479.32,-73.122 "/>
<rect x="474.511" y="-78.015" class="st9" width="19.884" height="24"/>
<rect x="376.02" y="-74.066" class="st10" width="34.924" height="19.551"/>
<text transform="matrix(1 0 0 1 383.0207 -59.4147)"><tspan x="0" y="0" class="st11" style="font-family:'Montserrat-Regular'; font-size:13px;">e</tspan><tspan x="7.41" y="0" class="st11" style="font-family:'Montserrat-Regular'; font-size:13px;">i</tspan><tspan x="10.335" y="0" class="st11" style="font-family:'Montserrat-Regular'; font-size:13px;">n</tspan></text>
<polygon class="st6" points="341.012,-74.191 341.012,-54.191 341.012,-53.941 341.262,-53.941 410.111,-53.941 410.361,-53.941 
	410.361,-54.191 410.361,-74.191 410.361,-74.441 410.111,-74.441 341.262,-74.441 341.012,-74.441 "/>
<rect x="340.762" y="-74.691" class="st9" width="70.183" height="21"/>
<line class="st26" x1="482.076" y1="15.448" x2="482.076" y2="39.708"/>
<path class="st4" d="M490.174,31.266L490.174,31.266h2.592l-2.494-2.46c-0.138-0.135-0.093-0.245,0.101-0.245h6.725v-1.339
	c0-0.193-0.157-0.35-0.35-0.35h-6.725l2.743-2.705h-2.242c-0.193,0-0.462,0.11-0.599,0.245l-3.102,3.059
	c-0.137,0.135-0.137,0.355,0,0.491L490.174,31.266z"/>
<line class="st26" x1="455.131" y1="39.541" x2="455.131" y2="15.281"/>
<path class="st4" d="M447.034,23.723L447.034,23.723h-2.592l2.494,2.46c0.138,0.135,0.093,0.245-0.101,0.245h-6.725v1.339
	c0,0.193,0.157,0.35,0.35,0.35h6.725l-2.743,2.705h2.242c0.193,0,0.462-0.11,0.599-0.245l3.102-3.059
	c0.137-0.135,0.137-0.355,0-0.491L447.034,23.723z"/>
<line class="st26" x1="265.389" y1="23.32" x2="289.649" y2="23.32"/>
<path class="st4" d="M281.04,15.262L281.04,15.262V12.67l-2.46,2.494c-0.135,0.138-0.245,0.093-0.245-0.101V8.338h-1.339
	c-0.193,0-0.35,0.157-0.35,0.35v6.725l-2.705-2.743v2.242c0,0.193,0.11,0.462,0.245,0.599l3.059,3.102
	c0.135,0.137,0.355,0.137,0.491,0L281.04,15.262z"/>
<path class="st4" d="M274.108,30.414L274.108,30.414v2.592l2.46-2.494c0.135-0.138,0.245-0.093,0.245,0.101v6.725h1.339
	c0.193,0,0.35-0.157,0.35-0.35v-6.725l2.705,2.743v-2.242c0-0.193-0.11-0.462-0.245-0.599l-3.059-3.102
	c-0.135-0.137-0.355-0.137-0.491,0L274.108,30.414z"/>
<line class="st26" x1="321.835" y1="36.13" x2="321.835" y2="11.87"/>
<path class="st4" d="M313.778,20.479L313.778,20.479h-2.592l2.494,2.46c0.138,0.135,0.093,0.245-0.101,0.245h-6.725v1.339
	c0,0.193,0.157,0.35,0.35,0.35h6.725l-2.743,2.705h2.242c0.193,0,0.462-0.11,0.599-0.245l3.102-3.059
	c0.137-0.135,0.137-0.355,0-0.491L313.778,20.479z"/>
<path class="st4" d="M328.93,27.411L328.93,27.411h2.592l-2.494-2.46c-0.138-0.135-0.093-0.245,0.101-0.245h6.725v-1.339
	c0-0.193-0.157-0.35-0.35-0.35h-6.725l2.743-2.705h-2.242c-0.193,0-0.462,0.11-0.599,0.245l-3.102,3.059
	c-0.137,0.135-0.137,0.355,0,0.491L328.93,27.411z"/>
<line class="st26" x1="353.977" y1="23.603" x2="378.237" y2="23.603"/>
<path class="st4" d="M362.696,30.697L362.696,30.697v2.592l2.46-2.494c0.135-0.138,0.245-0.093,0.245,0.101v6.725h1.339
	c0.193,0,0.35-0.157,0.35-0.35v-6.725l2.705,2.743v-2.242c0-0.193-0.11-0.462-0.245-0.599l-3.059-3.102
	c-0.135-0.137-0.355-0.137-0.491,0L362.696,30.697z"/>
<line class="st26" x1="399.088" y1="34.858" x2="423.348" y2="34.858"/>
<path class="st4" d="M414.907,26.469L414.907,26.469v-2.592l-2.46,2.494c-0.135,0.138-0.245,0.093-0.245-0.101v-6.725h-1.339
	c-0.193,0-0.35,0.157-0.35,0.35v6.725l-2.705-2.743v2.242c0,0.193,0.11,0.462,0.245,0.599l3.059,3.102
	c0.135,0.137,0.355,0.137,0.491,0L414.907,26.469z"/>
<rect x="544.952" y="7.932" class="st11" width="15.769" height="20.056"/>
<line class="st27" x1="547.909" y1="27.988" x2="558.75" y2="27.988"/>
<line class="st28" x1="560.721" y1="24.98" x2="560.721" y2="9.938"/>
<line class="st27" x1="557.764" y1="7.932" x2="546.923" y2="7.932"/>
<line class="st28" x1="544.952" y1="10.94" x2="544.952" y2="25.982"/>
<path class="st21" d="M544.951,26.985v1.003h0.986 M545.937,7.932h-0.986v1.003 M560.72,8.935V7.932h-0.985 M559.735,27.988h0.985
	v-1.003"/>
<polygon class="st11" points="533.716,37.988 533.716,37.988 549.485,37.988 549.485,17.932 533.716,17.932 "/>
<line class="st27" x1="536.673" y1="37.988" x2="547.514" y2="37.988"/>
<line class="st28" x1="549.485" y1="34.98" x2="549.485" y2="19.938"/>
<line class="st27" x1="546.528" y1="17.932" x2="535.687" y2="17.932"/>
<line class="st28" x1="533.716" y1="20.94" x2="533.716" y2="35.982"/>
<path class="st21" d="M533.716,36.985v1.003h0.986 M534.702,17.932h-0.986v1.003 M549.484,18.935v-1.003H548.5 M548.5,37.988h0.985
	v-1.003"/>
<polygon class="st11" points="524.242,45.988 524.242,45.988 540.011,45.988 540.011,25.932 524.242,25.932 "/>
<polygon class="st21" points="524.242,45.988 524.242,45.988 540.011,45.988 540.011,25.932 524.242,25.932 "/>
<g>
	<polygon class="st11" points="598.078,32.294 598.078,32.294 613.847,32.294 613.847,12.238 598.078,12.238 	"/>
	<polygon class="st21" points="598.078,32.294 598.078,32.294 613.847,32.294 613.847,12.238 598.078,12.238 	"/>
	<line class="st29" x1="594.314" y1="20.792" x2="594.314" y2="34.296"/>
	<line class="st30" x1="597.451" y1="36.097" x2="608.954" y2="36.097"/>
	<path class="st21" d="M609.999,36.097h1.046 M594.314,35.197v0.9h1.046 M594.314,18.092v0.9"/>
</g>
<g>
	<g>
		<rect x="670.618" y="0.517" class="st11" width="15.769" height="20.056"/>
		<polygon class="st21" points="670.618,20.573 670.618,20.573 686.387,20.573 686.387,0.517 670.618,0.517 		"/>
		<polygon class="st11" points="659.382,30.573 659.382,30.573 675.151,30.573 675.151,10.517 659.382,10.517 		"/>
		<line class="st27" x1="662.339" y1="30.573" x2="673.18" y2="30.573"/>
		<line class="st28" x1="675.151" y1="27.565" x2="675.151" y2="12.523"/>
		<line class="st27" x1="672.194" y1="10.517" x2="661.353" y2="10.517"/>
		<line class="st28" x1="659.382" y1="13.526" x2="659.382" y2="28.568"/>
		<path class="st21" d="M659.381,29.57v1.003h0.986 M660.367,10.517h-0.986v1.003 M675.15,11.52v-1.003h-0.985 M674.165,30.573
			h0.985V29.57"/>
		<polygon class="st11" points="649.908,38.573 649.908,38.573 665.677,38.573 665.677,18.517 649.908,18.517 		"/>
		<line class="st27" x1="652.865" y1="38.573" x2="663.706" y2="38.573"/>
		<line class="st28" x1="665.677" y1="35.565" x2="665.677" y2="20.523"/>
		<line class="st27" x1="662.721" y1="18.517" x2="651.88" y2="18.517"/>
		<line class="st28" x1="649.908" y1="21.526" x2="649.908" y2="36.568"/>
		<path class="st21" d="M649.908,37.57v1.003h0.986 M650.894,18.517h-0.986v1.003 M665.677,19.52v-1.003h-0.985 M664.692,38.573
			h0.985V37.57"/>
	</g>
	<line class="st27" x1="726.032" y1="34.059" x2="736.873" y2="34.059"/>
	<line class="st28" x1="738.844" y1="31.05" x2="738.844" y2="16.008"/>
	<line class="st27" x1="735.887" y1="14.003" x2="725.046" y2="14.003"/>
	<line class="st28" x1="723.075" y1="17.011" x2="723.075" y2="32.053"/>
	<path class="st21" d="M723.074,33.056v1.003h0.986 M724.06,14.003h-0.986v1.003 M738.843,15.006v-1.003h-0.985 M737.858,34.059
		h0.985v-1.003"/>
	<polyline class="st21" points="719.31,19.857 719.31,37.862 736.042,37.862 	"/>
</g>
<g>
	<defs>
		<rect id="SVGID_1_" x="-35.964" y="127.895" width="241.682" height="1"/>
	</defs>
	<clipPath id="SVGID_00000065037089665177706180000004151491287154806172_">
		<use xlink:href="#SVGID_1_"  style="overflow:visible;"/>
	</clipPath>
	
		<line style="clip-path:url(#SVGID_00000065037089665177706180000004151491287154806172_);fill:none;stroke:#B2B2B2;stroke-linecap:round;stroke-linejoin:round;stroke-dasharray:0,3.009;" x1="-32.456" y1="128.395" x2="203.714" y2="128.395"/>
	
		<path style="clip-path:url(#SVGID_00000065037089665177706180000004151491287154806172_);fill:none;stroke:#B2B2B2;stroke-linecap:round;stroke-linejoin:round;" d="
		M205.218,128.395L205.218,128.395 M-35.464,128.395L-35.464,128.395"/>
</g>
<circle class="st33" cx="10.934" cy="-92.817" r="12.75"/>
<polygon class="st3" points="154.327,-107.84 141.327,-107.84 147.695,-97.365 "/>
<polygon class="st4" points="162.35,20.702 151.875,27.07 162.35,33.702 "/>
<polygon class="st4" points="133.303,33.702 143.778,27.334 133.303,20.702 "/>
<polygon class="st4" points="215.857,20.702 205.382,27.07 215.857,33.702 "/>
<polygon class="st4" points="180.68,33.702 191.155,27.334 180.68,20.702 "/>
<rect x="340.929" y="-107.829" class="st10" width="34.924" height="19.551"/>
<polygon class="st6" points="341.179,-107.954 341.179,-87.954 341.179,-87.704 341.429,-87.704 410.278,-87.704 410.528,-87.704 
	410.528,-87.954 410.528,-107.954 410.528,-108.204 410.278,-108.204 341.429,-108.204 341.179,-108.204 "/>
<rect x="340.929" y="-108.454" class="st9" width="69.849" height="21"/>
<rect x="376.293" y="-41.801" class="st10" width="34.924" height="19.551"/>
<polygon class="st6" points="341.285,-41.926 341.285,-21.926 341.285,-21.676 341.535,-21.676 410.384,-21.676 410.634,-21.676 
	410.634,-21.926 410.634,-41.926 410.634,-42.176 410.384,-42.176 341.535,-42.176 341.285,-42.176 "/>
<rect x="341.035" y="-42.426" class="st9" width="70.183" height="21"/>
<line class="st19" x1="464.324" y1="-111.9" x2="428.302" y2="-111.9"/>
<path class="st20" d="M455.822-108.753c2.045,0,3.703-1.658,3.703-3.703c0-2.045-1.658-3.703-3.703-3.703
	c-2.045,0-3.703,1.658-3.703,3.703C452.118-110.411,453.776-108.753,455.822-108.753"/>
</svg>
