<?xml version="1.0" encoding="utf-8"?>
<!-- Generator: Adobe Illustrator 26.0.3, SVG Export Plug-In . SVG Version: 6.00 Build 0)  -->
<svg version="1.1" id="Ebene_1" xmlns="http://www.w3.org/2000/svg" xmlns:xlink="http://www.w3.org/1999/xlink" x="0px" y="0px"
	 width="27px" height="27px" viewBox="0 0 27 27" style="enable-background:new 0 0 27 27;" xml:space="preserve">
<style type="text/css">
	.st0{fill:none;stroke:#C5C5C5;stroke-width:3;stroke-linecap:round;stroke-linejoin:round;}
	.st1{fill:#FFAEFF;stroke:#4F4D4D;stroke-width:0.5;}
	.st2{fill:#F8F8F8;}
	.st3{fill:#0E689A;}
	.st4{fill:none;stroke:#B2B1B1;stroke-width:0.65;stroke-miterlimit:10;}
	.st5{fill:#B2B1B1;}
	.st6{fill:none;stroke:#B2B2B2;stroke-width:0.5;stroke-miterlimit:10;}
	.st7{fill:none;stroke:#B2B1B1;stroke-width:0.3;stroke-miterlimit:10;}
	.st8{fill:none;stroke:#FFFFFF;stroke-width:0.021;}
	.st9{fill:none;}
	.st10{fill:#0E6899;}
	.st11{fill:#FFFFFF;}
	.st12{fill:none;stroke:#C5C5C5;stroke-width:0.5;stroke-linecap:round;stroke-linejoin:round;}
	.st13{fill:#C5C5C5;}
	.st14{fill:none;stroke:#B2B1B1;stroke-width:0.5;}
	.st15{fill:none;stroke:#B2B1B1;stroke-width:1.2;}
	.st16{fill:#B2B2B2;}
	.st17{fill:none;stroke:#FFFFFF;stroke-width:0.001;}
	.st18{fill:none;stroke:#B2B1B1;stroke-width:1.712;}
	.st19{fill:none;stroke:#B2B1B1;stroke-width:2;}
	.st20{fill:#AD5E7A;}
	.st21{fill:none;stroke:#B2B1B1;stroke-width:0.941;}
	.st22{fill:none;stroke:#B2B1B1;stroke-width:0.941;stroke-dasharray:1.889,1.889;}
	.st23{fill:none;stroke:#B2B1B1;stroke-width:0.941;stroke-dasharray:1.754,1.754;}
	.st24{fill:none;stroke:#B2B1B1;stroke-width:0.804;}
	.st25{fill:none;stroke:#FFFFFF;stroke-width:0.804;}
	.st26{fill:none;stroke:#B2B1B1;stroke-width:2.5;}
	.st27{fill:none;stroke:#B2B1B1;stroke-width:0.941;stroke-dasharray:1.971,1.971;}
	.st28{fill:none;stroke:#B2B1B1;stroke-width:0.941;stroke-dasharray:2.006,2.006;}
	.st29{fill:none;stroke:#B2B1B1;stroke-width:0.941;stroke-dasharray:1.801,1.801;}
	.st30{fill:none;stroke:#B2B1B1;stroke-width:0.941;stroke-dasharray:2.091,2.091;}
	
		.st31{clip-path:url(#SVGID_00000075857667417192447750000014827102884170908808_);fill:none;stroke:#B2B2B2;stroke-linecap:round;stroke-linejoin:round;stroke-dasharray:0,3.009;}
	
		.st32{clip-path:url(#SVGID_00000075857667417192447750000014827102884170908808_);fill:none;stroke:#B2B2B2;stroke-linecap:round;stroke-linejoin:round;}
	.st33{fill:none;stroke:#4F4D4D;stroke-width:0.5;}
</style>
<polyline class="st0" points="1753.792,908.412 1747.542,899.412 1740.792,908.412 "/>
<circle class="st1" cx="-238.101" cy="-54.337" r="12.75"/>
<rect x="-205.64" y="-65.352" class="st2" width="119.902" height="21"/>
<polygon class="st3" points="-94.811,-60.089 -107.811,-60.089 -101.443,-49.614 "/>
<g>
	<g>
		<line class="st4" x1="18.201" y1="-47.831" x2="28.484" y2="-47.831"/>
		<g>
			<path class="st5" d="M19.488-53.057v-5.175h1.3v5.122c0,2.016,0.923,2.926,2.561,2.926c1.638,0,2.574-0.91,2.574-2.926v-5.122
				h1.261v5.175c0,2.639-1.443,4.029-3.848,4.029C20.944-49.028,19.488-50.418,19.488-53.057z"/>
		</g>
	</g>
	<polygon class="st6" points="10.093,-66.032 10.093,-40.032 10.093,-39.782 10.343,-39.782 36.343,-39.782 36.593,-39.782 
		36.593,-40.032 36.593,-66.032 36.593,-66.282 36.343,-66.282 10.343,-66.282 10.093,-66.282 	"/>
</g>
<g>
	<g>
		<path class="st5" d="M-11.261-57.958h1.3l-1.82,9.101h-1.3L-11.261-57.958z"/>
	</g>
	<polygon class="st6" points="-24.772,-66.408 -24.772,-40.408 -24.772,-40.158 -24.522,-40.158 1.478,-40.158 1.728,-40.158 
		1.728,-40.408 1.728,-66.408 1.728,-66.658 1.478,-66.658 -24.522,-66.658 -24.772,-66.658 	"/>
</g>
<g>
	<g>
		<path class="st5" d="M-44.41-51.289c0,1.573-1.248,2.483-3.64,2.483h-4.706v-9.101h4.446c2.275,0,3.445,0.949,3.445,2.366
			c0,0.91-0.468,1.612-1.209,2.002C-45.06-53.213-44.41-52.433-44.41-51.289z M-50.663-56.321v2.146h2.093
			c1.027,0,1.586-0.364,1.586-1.079s-0.559-1.066-1.586-1.066H-50.663z M-46.529-51.51c0-0.767-0.585-1.131-1.677-1.131h-2.457
			v2.249h2.457C-47.114-50.392-46.529-50.73-46.529-51.51z"/>
	</g>
	<polygon class="st6" points="-61.833,-66.356 -61.833,-40.356 -61.833,-40.106 -61.583,-40.106 -35.583,-40.106 -35.333,-40.106 
		-35.333,-40.356 -35.333,-66.356 -35.333,-66.606 -35.583,-66.606 -61.583,-66.606 -61.833,-66.606 	"/>
</g>
<path class="st7" d="M-7.645-24.402"/>
<path class="st7" d="M-10.153-23.149"/>
<path class="st7" d="M-10.153-21.895"/>
<path class="st7" d="M-10.153-20.64"/>
<path class="st7" d="M-7.645-19.386"/>
<path class="st7" d="M-7.645-18.132"/>
<path class="st7" d="M-10.153-16.879"/>
<path class="st7" d="M-10.153-14.371"/>
<path class="st7" d="M-7.645-11.863"/>
<g>
	<path class="st7" d="M-27.109-19.386"/>
	<path class="st7" d="M-27.109-24.402"/>
	<path class="st7" d="M-27.109-11.863"/>
	<path class="st7" d="M-27.109-18.132"/>
	<g>
		<path class="st7" d="M-25.047-16.879"/>
		<path class="st7" d="M-25.047-20.64"/>
		<path class="st7" d="M-25.047-21.895"/>
		<path class="st7" d="M-25.047-23.149"/>
		<line class="st7" x1="-27.485" y1="-12.658" x2="-8.021" y2="-12.658"/>
		<line class="st7" x1="-27.485" y1="-13.933" x2="-12.591" y2="-13.933"/>
		<line class="st7" x1="-27.485" y1="-15.209" x2="-12.591" y2="-15.209"/>
		<line class="st7" x1="-27.485" y1="-16.485" x2="-12.591" y2="-16.485"/>
		<line class="st7" x1="-27.485" y1="-17.761" x2="-8.021" y2="-17.761"/>
		<line class="st7" x1="-27.485" y1="-19.037" x2="-8.021" y2="-19.037"/>
		<line class="st7" x1="-27.412" y1="-20.313" x2="-12.518" y2="-20.313"/>
		<line class="st7" x1="-27.485" y1="-21.589" x2="-8.021" y2="-21.589"/>
		<line class="st7" x1="-27.485" y1="-22.865" x2="-12.591" y2="-22.865"/>
		<line class="st7" x1="-27.485" y1="-24.141" x2="-12.591" y2="-24.141"/>
		<line class="st7" x1="-27.485" y1="-25.417" x2="-8.021" y2="-25.417"/>
	</g>
	<polygon class="st6" points="-30.812,-31.712 -30.812,-5.719 -30.812,-5.469 -30.562,-5.469 -4.569,-5.469 -4.319,-5.469 
		-4.319,-5.719 -4.319,-31.712 -4.319,-31.962 -4.569,-31.962 -30.562,-31.962 -30.812,-31.962 	"/>
</g>
<g>
	<g>
		<line class="st7" x1="23.236" y1="-25.1" x2="3.771" y2="-25.1"/>
		<line class="st7" x1="20.727" y1="-23.823" x2="5.833" y2="-23.823"/>
		<line class="st7" x1="20.727" y1="-22.546" x2="5.833" y2="-22.546"/>
		<line class="st7" x1="20.727" y1="-21.269" x2="5.833" y2="-21.269"/>
		<line class="st7" x1="23.236" y1="-19.992" x2="3.771" y2="-19.992"/>
		<line class="st7" x1="23.236" y1="-18.715" x2="3.771" y2="-18.715"/>
		<line class="st7" x1="20.727" y1="-17.438" x2="5.833" y2="-17.438"/>
		<line class="st7" x1="23.236" y1="-16.161" x2="3.771" y2="-16.161"/>
		<line class="st7" x1="20.727" y1="-14.884" x2="5.833" y2="-14.884"/>
		<line class="st7" x1="20.727" y1="-13.607" x2="5.833" y2="-13.607"/>
		<line class="st7" x1="23.236" y1="-12.33" x2="3.771" y2="-12.33"/>
	</g>
	<polygon class="st6" points="0.257,-31.712 0.257,-5.719 0.257,-5.469 0.507,-5.469 26.5,-5.469 26.75,-5.469 26.75,-5.719 
		26.75,-31.712 26.75,-31.962 26.5,-31.962 0.507,-31.962 0.257,-31.962 	"/>
</g>
<polygon class="st6" points="31.326,-31.712 31.326,-5.719 31.326,-5.469 31.576,-5.469 57.569,-5.469 57.819,-5.469 57.819,-5.719 
	57.819,-31.712 57.819,-31.962 57.569,-31.962 31.576,-31.962 31.326,-31.962 "/>
<path class="st7" d="M34.653-13.027"/>
<path class="st7" d="M34.653-18.044"/>
<path class="st7" d="M34.653-19.297"/>
<path class="st7" d="M34.653-25.567"/>
<path class="st7" d="M52.055-20.551"/>
<path class="st7" d="M54.117-18.044"/>
<path class="st7" d="M52.055-16.79"/>
<path class="st7" d="M54.117-13.027"/>
<path class="st7" d="M54.117-25.567"/>
<path class="st7" d="M54.117-19.297"/>
<path class="st7" d="M52.055-15.535"/>
<path class="st7" d="M52.055-14.281"/>
<g>
	<path class="st7" d="M36.972-14.604"/>
	<path class="st7" d="M36.972-15.858"/>
	<path class="st7" d="M36.972-17.112"/>
	<path class="st7" d="M36.972-20.874"/>
	<path class="st7" d="M36.972-23.382"/>
	<line class="st7" x1="54.304" y1="-25.094" x2="34.84" y2="-25.094"/>
	<line class="st7" x1="54.304" y1="-23.819" x2="39.41" y2="-23.819"/>
	<line class="st7" x1="54.304" y1="-22.543" x2="39.41" y2="-22.543"/>
	<line class="st7" x1="54.304" y1="-21.267" x2="39.41" y2="-21.267"/>
	<line class="st7" x1="54.304" y1="-19.991" x2="34.84" y2="-19.991"/>
	<line class="st7" x1="54.304" y1="-18.715" x2="34.84" y2="-18.715"/>
	<line class="st7" x1="54.231" y1="-17.439" x2="39.337" y2="-17.439"/>
	<line class="st7" x1="54.304" y1="-16.163" x2="34.84" y2="-16.163"/>
	<line class="st7" x1="54.304" y1="-14.887" x2="39.41" y2="-14.887"/>
	<line class="st7" x1="54.304" y1="-13.611" x2="39.41" y2="-13.611"/>
	<line class="st7" x1="54.304" y1="-12.336" x2="34.84" y2="-12.336"/>
</g>
<polygon class="st6" points="-61.583,-31.705 -61.583,-5.712 -61.583,-5.462 -61.333,-5.462 -35.34,-5.462 -35.09,-5.462 
	-35.09,-5.712 -35.09,-31.705 -35.09,-31.955 -35.34,-31.955 -61.333,-31.955 -61.583,-31.955 "/>
<path class="st7" d="M-38.416-24.402"/>
<path class="st7" d="M-38.416-19.386"/>
<path class="st7" d="M-38.416-18.132"/>
<path class="st7" d="M-38.416-11.863"/>
<path class="st7" d="M-55.818-16.879"/>
<path class="st7" d="M-57.88-19.386"/>
<path class="st7" d="M-55.818-20.64"/>
<path class="st7" d="M-57.88-24.402"/>
<path class="st7" d="M-57.88-11.863"/>
<path class="st7" d="M-57.88-18.132"/>
<path class="st7" d="M-55.818-21.895"/>
<path class="st7" d="M-55.818-23.149"/>
<g>
	<path class="st7" d="M-40.924-23.149"/>
	<path class="st7" d="M-40.924-21.895"/>
	<path class="st7" d="M-40.924-20.64"/>
	<path class="st7" d="M-40.924-16.879"/>
	<path class="st7" d="M-40.924-14.371"/>
	<line class="st7" x1="-58.256" y1="-12.658" x2="-38.792" y2="-12.658"/>
	<line class="st7" x1="-58.256" y1="-13.933" x2="-38.792" y2="-13.933"/>
	<line class="st7" x1="-58.256" y1="-15.209" x2="-38.792" y2="-15.209"/>
	<line class="st7" x1="-58.256" y1="-16.485" x2="-38.792" y2="-16.485"/>
	<line class="st7" x1="-58.256" y1="-17.761" x2="-38.792" y2="-17.761"/>
	<line class="st7" x1="-58.256" y1="-19.037" x2="-38.792" y2="-19.037"/>
	<line class="st7" x1="-58.183" y1="-20.313" x2="-38.719" y2="-20.313"/>
	<line class="st7" x1="-58.256" y1="-21.589" x2="-38.792" y2="-21.589"/>
	<line class="st7" x1="-58.256" y1="-22.865" x2="-38.792" y2="-22.865"/>
	<line class="st7" x1="-58.256" y1="-24.141" x2="-38.792" y2="-24.141"/>
	<line class="st7" x1="-58.256" y1="-25.417" x2="-38.792" y2="-25.417"/>
</g>
<path class="st5" d="M-231.14,83.444l-1.915,13.335c-0.058,0.402-0.431,0.682-0.834,0.624c-0.402-0.058-0.682-0.431-0.624-0.833
	l1.915-13.336c0.058-0.402,0.431-0.681,0.834-0.623C-231.362,82.669-231.082,83.041-231.14,83.444 M-237.957,97.519
	c-0.407,0.003-0.74-0.324-0.742-0.73l-0.106-13.472c-0.003-0.407,0.324-0.739,0.73-0.742c0.408-0.003,0.74,0.324,0.743,0.731
	l0.105,13.471C-237.224,97.184-237.551,97.516-237.957,97.519 M-242.028,97.466c-0.401,0.064-0.779-0.209-0.842-0.61l-2.124-13.304
	c-0.064-0.402,0.209-0.779,0.612-0.843c0.401-0.064,0.778,0.209,0.842,0.611l2.123,13.303
	C-241.353,97.025-241.626,97.402-242.028,97.466 M-228.245,81.058c-0.141-0.169-0.353-0.266-0.573-0.264l-18.538,0.144
	c-0.22,0.002-0.429,0.101-0.568,0.272c-0.14,0.17-0.196,0.393-0.155,0.609l3.092,16.141c0.068,0.351,0.376,0.605,0.734,0.602
	l12.497-0.098c0.356-0.002,0.66-0.258,0.724-0.608l2.949-16.188C-228.043,81.452-228.104,81.227-228.245,81.058"/>
<path class="st8" d="M-231.14,83.444l-1.915,13.335c-0.058,0.402-0.431,0.682-0.834,0.624c-0.402-0.058-0.682-0.431-0.624-0.833
	l1.915-13.336c0.058-0.402,0.431-0.681,0.834-0.623C-231.362,82.669-231.082,83.041-231.14,83.444z M-237.957,97.519
	c-0.407,0.003-0.74-0.324-0.742-0.73l-0.106-13.472c-0.003-0.407,0.324-0.739,0.73-0.742c0.408-0.003,0.74,0.324,0.743,0.731
	l0.105,13.471C-237.224,97.184-237.551,97.516-237.957,97.519z M-242.028,97.466c-0.401,0.064-0.779-0.209-0.842-0.61l-2.124-13.304
	c-0.064-0.402,0.209-0.779,0.612-0.843c0.401-0.064,0.778,0.209,0.842,0.611l2.123,13.303
	C-241.353,97.025-241.626,97.402-242.028,97.466z M-228.245,81.058c-0.141-0.169-0.353-0.266-0.573-0.264l-18.538,0.144
	c-0.22,0.002-0.429,0.101-0.568,0.272c-0.14,0.17-0.196,0.393-0.155,0.609l3.092,16.141c0.068,0.351,0.376,0.605,0.734,0.602
	l12.497-0.098c0.356-0.002,0.66-0.258,0.724-0.608l2.949-16.188C-228.043,81.452-228.104,81.227-228.245,81.058z"/>
<path class="st5" d="M-240.932,76.45L-240.932,76.45l-0.004-0.421l5.49-0.043l0.004,0.421L-240.932,76.45z M-227.195,77.86
	L-227.195,77.86l-2.025,0.016l-0.009-1.171c-0.001-0.091-0.038-0.18-0.103-0.244c-0.065-0.064-0.155-0.1-0.246-0.1l-4.467,0.035
	l-0.009-1.12c-0.002-0.184-0.077-0.363-0.209-0.492c-0.131-0.13-0.311-0.203-0.495-0.201l-6.887,0.054
	c-0.183,0.001-0.363,0.077-0.492,0.208c-0.129,0.131-0.202,0.312-0.2,0.496l0.009,1.12l-4.164,0.032
	c-0.091,0.001-0.18,0.039-0.243,0.104c-0.065,0.065-0.101,0.154-0.101,0.246l0.009,1.171l-2.197,0.017l0.017,2.225l21.829-0.17
	L-227.195,77.86z"/>
<path class="st8" d="M-240.932,76.45L-240.932,76.45l-0.004-0.421l5.49-0.043l0.004,0.421L-240.932,76.45z M-227.195,77.86
	L-227.195,77.86l-2.025,0.016l-0.009-1.171c-0.001-0.091-0.038-0.18-0.103-0.244c-0.065-0.064-0.155-0.1-0.246-0.1l-4.467,0.035
	l-0.009-1.12c-0.002-0.184-0.077-0.363-0.209-0.492c-0.131-0.13-0.311-0.203-0.495-0.201l-6.887,0.054
	c-0.183,0.001-0.363,0.077-0.492,0.208c-0.129,0.131-0.202,0.312-0.2,0.496l0.009,1.12l-4.164,0.032
	c-0.091,0.001-0.18,0.039-0.243,0.104c-0.065,0.065-0.101,0.154-0.101,0.246l0.009,1.171l-2.197,0.017l0.017,2.225l21.829-0.17
	L-227.195,77.86z"/>
<rect x="-249.035" y="74.572" class="st9" width="21.868" height="24"/>
<rect x="91.894" y="-66.196" class="st10" width="34.924" height="19.551"/>
<g>
	<path class="st11" d="M104.872-55.782v4.238h-0.884v-1.066c-0.416,0.702-1.222,1.132-2.354,1.132c-1.547,0-2.496-0.807-2.496-1.989
		c0-1.054,0.676-1.938,2.639-1.938h2.171v-0.416c0-1.17-0.663-1.807-1.938-1.807c-0.884,0-1.716,0.312-2.275,0.806l-0.416-0.688
		c0.689-0.585,1.703-0.924,2.782-0.924C103.871-58.435,104.872-57.55,104.872-55.782z M103.949-53.598v-1.118h-2.146
		c-1.326,0-1.755,0.52-1.755,1.222c0,0.793,0.637,1.287,1.729,1.287C102.817-52.207,103.584-52.701,103.949-53.598z"/>
	<path class="st11" d="M112.971-58.382v6.838h-0.884v-1.248c-0.481,0.832-1.365,1.313-2.458,1.313c-1.742,0-2.886-0.976-2.886-2.938
		v-3.965h0.923v3.874c0,1.456,0.754,2.197,2.054,2.197c1.43,0,2.327-0.924,2.327-2.483v-3.588H112.971z"/>
	<path class="st11" d="M114.27-52.324l0.416-0.728c0.546,0.429,1.469,0.767,2.431,0.767c1.3,0,1.833-0.441,1.833-1.118
		c0-1.78-4.433-0.377-4.433-3.081c0-1.118,0.962-1.95,2.704-1.95c0.884,0,1.846,0.247,2.418,0.638l-0.403,0.74
		c-0.598-0.416-1.313-0.585-2.015-0.585c-1.235,0-1.781,0.481-1.781,1.132c0,1.846,4.434,0.455,4.434,3.081
		c0,1.183-1.04,1.95-2.821,1.95C115.921-51.479,114.829-51.843,114.27-52.324z"/>
</g>
<polygon class="st6" points="92.144,-66.321 92.144,-46.321 92.144,-46.071 92.394,-46.071 161.243,-46.071 161.493,-46.071 
	161.493,-46.321 161.493,-66.321 161.493,-66.571 161.243,-66.571 92.394,-66.571 92.144,-66.571 "/>
<rect x="91.894" y="-66.821" class="st9" width="69.849" height="21"/>
<rect x="-312.503" y="140.51" class="st11" width="1014" height="21"/>
<path class="st3" d="M314.658,140.51c-2.209,0-4,1.791-4,4v12.382c0,2.209,1.791,4,4,4h77.131c2.209,0,4-1.791,4-4V144.51
	c0-2.209-1.791-4-4-4H314.658z"/>
<rect x="-312.253" y="140.76" class="st12" width="1013.5" height="20.5"/>
<path class="st13" d="M685.353,143.37v1.481c0,0.397,0.187,0.771,0.505,1.009l6.367,4.762c0.258,0.194,0.258,0.583,0,0.776
	l-6.367,4.762c-0.318,0.238-0.505,0.612-0.505,1.01v1.48c0,0.41,0.467,0.644,0.795,0.399l10.111-7.563
	c0.318-0.237,0.318-0.714,0-0.952l-10.11-7.562C685.82,142.726,685.353,142.961,685.353,143.37"/>
<path class="st13" d="M-296.65,158.65v-1.481c0-0.397-0.187-0.771-0.505-1.009l-6.367-4.762c-0.258-0.194-0.258-0.583,0-0.776
	l6.367-4.762c0.318-0.238,0.505-0.612,0.505-1.01v-1.48c0-0.41-0.467-0.644-0.795-0.399l-10.111,7.563
	c-0.318,0.237-0.318,0.714,0,0.952l10.11,7.562C-297.117,159.294-296.65,159.059-296.65,158.65"/>
<rect x="-312.503" y="140.51" class="st9" width="1014" height="21"/>
<rect x="743.27" y="-104.036" class="st11" width="21" height="702.123"/>
<path class="st3" d="M743.27,309.926c0,2.209,1.791,4,4,4h12.382c2.209,0,4-1.791,4-4V231.64c0-2.209-1.791-4-4-4H747.27
	c-2.209,0-4,1.791-4,4V309.926z"/>
<rect x="743.52" y="-103.787" class="st12" width="20.5" height="701.624"/>
<path class="st13" d="M746.13-90.501h1.481c0.397,0,0.771-0.19,1.009-0.512l4.762-6.453c0.194-0.262,0.583-0.262,0.776,0
	l4.762,6.453c0.238,0.322,0.612,0.512,1.01,0.512h1.48c0.41,0,0.644-0.474,0.399-0.806l-7.563-10.248
	c-0.237-0.322-0.714-0.322-0.952,0l-7.562,10.248C745.486-90.975,745.721-90.501,746.13-90.501"/>
<path class="st13" d="M761.41,583.751h-1.481c-0.397,0-0.771,0.19-1.009,0.512l-4.762,6.453c-0.194,0.262-0.583,0.262-0.776,0
	l-4.762-6.453c-0.238-0.322-0.612-0.512-1.01-0.512h-1.48c-0.41,0-0.644,0.474-0.399,0.806l7.563,10.248
	c0.237,0.322,0.714,0.322,0.952,0l7.562-10.248C762.054,584.225,761.819,583.751,761.41,583.751"/>
<rect x="743.27" y="-104.037" class="st9" width="21" height="702.124"/>
<g>
	<g>
		<line class="st7" x1="22.295" y1="18.943" x2="9.278" y2="18.943"/>
		<line class="st7" x1="22.295" y1="8.767" x2="9.278" y2="8.767"/>
		<line class="st7" x1="22.295" y1="13.855" x2="9.278" y2="13.855"/>
		<g>
			<path class="st5" d="M5.636,7.297v2.104H5.149V7.688H4.729V7.297H5.636z"/>
		</g>
		<g>
			<path class="st5" d="M6.397,14.265v0.396h-1.59v-0.315l0.812-0.767c0.187-0.178,0.22-0.286,0.22-0.388
				c0-0.165-0.114-0.262-0.337-0.262c-0.18,0-0.333,0.069-0.436,0.21L4.71,12.912c0.163-0.238,0.457-0.392,0.836-0.392
				c0.469,0,0.781,0.241,0.781,0.623c0,0.204-0.057,0.391-0.352,0.664l-0.484,0.457H6.397z"/>
		</g>
		<g>
			<path class="st5" d="M6.379,19.023c0,0.354-0.273,0.68-0.872,0.68c-0.295,0-0.599-0.081-0.803-0.226l0.189-0.373
				c0.159,0.121,0.382,0.189,0.601,0.189c0.244,0,0.394-0.099,0.394-0.271c0-0.159-0.117-0.258-0.394-0.258H5.272v-0.322l0.433-0.49
				H4.81v-0.391h1.473v0.316L5.808,18.42C6.187,18.479,6.379,18.714,6.379,19.023z"/>
		</g>
	</g>
	<polygon class="st6" points="0.25,0.5 0.25,26.5 0.25,26.75 0.5,26.75 26.5,26.75 26.75,26.75 26.75,26.5 26.75,0.5 26.75,0.25 
		26.5,0.25 0.5,0.25 0.25,0.25 	"/>
</g>
<polygon class="st6" points="-61.583,0.5 -61.583,26.5 -61.583,26.75 -61.333,26.75 -35.333,26.75 -35.083,26.75 -35.083,26.5 
	-35.083,0.5 -35.083,0.25 -35.333,0.25 -61.333,0.25 -61.583,0.25 "/>
<g>
	<polygon class="st6" points="-31.241,0.5 -31.241,26.5 -31.241,26.75 -30.991,26.75 -4.991,26.75 -4.741,26.75 -4.741,26.5 
		-4.741,0.5 -4.741,0.25 -4.991,0.25 -30.991,0.25 -31.241,0.25 	"/>
	<path class="st7" d="M-9.709,18.625h-13.016 M-9.709,13.492h-13.016 M-9.709,8.36h-13.016"/>
	<path class="st5" d="M-24.811,14.077c0.161-0.156,0.241-0.349,0.241-0.581c0-0.15-0.037-0.288-0.11-0.414
		c-0.073-0.125-0.172-0.224-0.297-0.297c-0.126-0.073-0.264-0.11-0.415-0.11c-0.15,0-0.288,0.037-0.41,0.11
		c-0.122,0.073-0.221,0.172-0.294,0.297c-0.072,0.126-0.11,0.264-0.11,0.414c0,0.232,0.08,0.425,0.238,0.581
		c0.157,0.156,0.35,0.234,0.576,0.234C-25.165,14.311-24.972,14.233-24.811,14.077"/>
	<path class="st5" d="M-25.388,9.442c0.489,0,0.885-0.396,0.885-0.885c0-0.488-0.396-0.885-0.885-0.885
		c-0.488,0-0.885,0.397-0.885,0.885C-26.273,9.046-25.876,9.442-25.388,9.442"/>
	<path class="st5" d="M-24.811,19.094c0.161-0.156,0.241-0.349,0.241-0.581c0-0.15-0.037-0.288-0.11-0.414
		c-0.073-0.125-0.172-0.224-0.297-0.297c-0.126-0.073-0.264-0.11-0.415-0.11c-0.15,0-0.288,0.037-0.41,0.11
		c-0.122,0.073-0.221,0.172-0.294,0.297c-0.072,0.126-0.11,0.264-0.11,0.414c0,0.232,0.08,0.425,0.238,0.581
		c0.157,0.156,0.35,0.234,0.576,0.234C-25.165,19.328-24.972,19.25-24.811,19.094"/>
</g>
<path class="st7" d="M-40.051,18.632h-13.016 M-40.051,13.499h-13.016 M-40.051,8.367h-13.016"/>
<rect x="-56.615" y="7.598" class="st5" width="1.77" height="1.77"/>
<rect x="-56.615" y="12.614" class="st5" width="1.77" height="1.77"/>
<rect x="-56.615" y="17.632" class="st5" width="1.77" height="1.77"/>
<rect x="281.907" y="-67.289" class="st2" width="245" height="57.75"/>
<text transform="matrix(1 0 0 1 356.6046 -41.0939)"><tspan x="0" y="0" class="st5" style="font-family:'Montserrat-Regular'; font-size:13px;">N</tspan><tspan x="10.478" y="0" class="st5" style="font-family:'Montserrat-Regular'; font-size:13px;">e</tspan><tspan x="18.135" y="0" class="st5" style="font-family:'Montserrat-Regular'; font-size:13px;">u</tspan><tspan x="26.753" y="0" class="st5" style="font-family:'Montserrat-Regular'; font-size:13px;">e </tspan><tspan x="38.011" y="0" class="st5" style="font-family:'Montserrat-Regular'; font-size:13px; letter-spacing:-1;">T</tspan><tspan x="44.381" y="0" class="st5" style="font-family:'Montserrat-Regular'; font-size:13px;">e</tspan><tspan x="51.882" y="0" class="st5" style="font-family:'Montserrat-Regular'; font-size:13px;">x</tspan><tspan x="59.097" y="0" class="st5" style="font-family:'Montserrat-Regular'; font-size:13px;">t</tspan><tspan x="64.128" y="0" class="st5" style="font-family:'Montserrat-Regular'; font-size:13px;">b</tspan><tspan x="72.942" y="0" class="st5" style="font-family:'Montserrat-Regular'; font-size:13px;">o</tspan><tspan x="80.742" y="0" class="st5" style="font-family:'Montserrat-Regular'; font-size:13px;">x </tspan></text>
<path class="st14" d="M404.407-19.331c3.707,0,6.713-3.005,6.713-6.712c0-3.708-3.006-6.713-6.713-6.713
	c-3.707,0-6.712,3.005-6.712,6.713C397.695-22.336,400.7-19.331,404.407-19.331z"/>
<rect x="281.907" y="-67.289" class="st9" width="245" height="57.75"/>
<line class="st15" x1="404.407" y1="-29.577" x2="404.407" y2="-22.508"/>
<line class="st15" x1="400.873" y1="-26.012" x2="407.941" y2="-26.012"/>
<path class="st14" d="M293.446,20.505c3.707,0,6.713-3.005,6.713-6.712c0-3.708-3.006-6.713-6.713-6.713s-6.712,3.005-6.712,6.713
	C286.734,17.5,289.739,20.505,293.446,20.505z"/>
<line class="st15" x1="293.446" y1="10.258" x2="293.446" y2="17.327"/>
<line class="st15" x1="289.911" y1="13.824" x2="296.979" y2="13.824"/>
<g>
	<path class="st16" d="M-202.447,35.64h-3.138v-1.85h8.544v1.85h-3.138v7.956h-2.269V35.64z"/>
	<path class="st16" d="M-195.826,33.79h2.269v9.806h-2.269V33.79z"/>
	<path class="st16" d="M-182.732,37.349c0,2.185-1.639,3.544-4.258,3.544h-1.975v2.703h-2.269V33.79h4.244
		C-184.371,33.79-182.732,35.15-182.732,37.349z M-185.029,37.349c0-1.079-0.701-1.709-2.087-1.709h-1.849v3.403h1.849
		C-185.729,39.043-185.029,38.413-185.029,37.349z"/>
	<path class="st16" d="M-172.61,37.349c0,2.185-1.639,3.544-4.258,3.544h-1.975v2.703h-2.269V33.79h4.244
		C-174.249,33.79-172.61,35.15-172.61,37.349z M-174.907,37.349c0-1.079-0.701-1.709-2.087-1.709h-1.849v3.403h1.849
		C-175.607,39.043-174.907,38.413-174.907,37.349z"/>
</g>
<path class="st16" d="M-239.074,29.319L-239.074,29.319c-1.054,2.474-1.96,4.602-2.889,6.784h5.729
	C-237.178,33.847-238.06,31.739-239.074,29.319 M-235.581,46.909L-235.581,46.909c-0.346-1.15-0.211-1.759,1.044-1.8
	c0.976-0.033,1.343-0.74,1.02-1.64c-0.507-1.414-1.072-2.81-1.681-4.183c-0.109-0.245-0.55-0.478-0.843-0.484
	c-2.129-0.041-4.261-0.046-6.39,0.005c-0.305,0.008-0.741,0.315-0.877,0.599c-0.558,1.155-1.057,2.342-1.512,3.542
	c-0.57,1.504-0.268,2.026,1.348,2.192c0.783,0.081,1.206,0.319,1.022,1.126c-0.056,0.243-0.355,0.61-0.547,0.613
	c-2.524,0.042-5.049,0.028-7.596,0.028c-0.214-0.956-0.321-1.631,0.868-1.885c0.569-0.122,1.219-0.609,1.515-1.117
	c0.755-1.293,1.377-2.67,1.972-4.049c2.401-5.559,4.761-11.135,7.172-16.689c0.173-0.398,0.634-0.67,0.96-1
	c0.319,0.343,0.766,0.632,0.937,1.037c2.56,6.048,5.079,12.114,7.622,18.17c0.326,0.776,0.705,1.534,1.106,2.275
	c0.507,0.939,1.332,1.389,2.379,1.595c0.265,0.052,0.519,0.638,0.586,1.013c0.032,0.175-0.39,0.621-0.611,0.624
	C-229.239,46.922-232.392,46.909-235.581,46.909"/>
<path class="st5" d="M-141.836,39.371c2.682-0.014,4.762-2.036,4.751-4.621c-0.01-2.367-2.203-4.406-4.733-4.399
	c-2.703,0.008-4.848,2.038-4.825,4.568C-146.62,37.383-144.46,39.384-141.836,39.371 M-136.281,39.384L-136.281,39.384
	c0.393-0.231,0.569-0.207,0.91,0.115c1.249,1.181,2.501,2.361,3.751,3.541c0.086,0.08,0.173,0.159,0.252,0.246
	c0.216,0.237,0.217,0.464-0.012,0.692c-0.249,0.248-0.509,0.488-0.767,0.727c-0.302,0.28-0.548,0.287-0.855,0
	c-1.177-1.103-2.348-2.211-3.522-3.318c-0.132-0.124-0.263-0.25-0.396-0.373c-0.368-0.34-0.394-0.487-0.153-0.896
	c-0.368-0.336-0.737-0.673-1.128-1.029c-1.472,1.07-3.153,1.471-5.011,1.06c-1.415-0.313-2.544-1.054-3.377-2.178
	c-1.65-2.23-1.286-5.335,0.823-7.11c2.222-1.87,5.521-1.904,7.68-0.117c2.217,1.835,2.765,5.106,0.696,7.583
	C-137.02,38.68-136.651,39.031-136.281,39.384"/>
<path class="st17" d="M-141.836,39.371c2.682-0.014,4.762-2.036,4.751-4.621c-0.01-2.367-2.203-4.406-4.733-4.399
	c-2.703,0.008-4.848,2.038-4.825,4.568C-146.62,37.383-144.46,39.384-141.836,39.371z M-136.281,39.384L-136.281,39.384
	c0.393-0.231,0.569-0.207,0.91,0.115c1.249,1.181,2.501,2.361,3.751,3.541c0.086,0.08,0.173,0.159,0.252,0.246
	c0.216,0.237,0.217,0.464-0.012,0.692c-0.249,0.248-0.509,0.488-0.767,0.727c-0.302,0.28-0.548,0.287-0.855,0
	c-1.177-1.103-2.348-2.211-3.522-3.318c-0.132-0.124-0.263-0.25-0.396-0.373c-0.368-0.34-0.394-0.487-0.153-0.896
	c-0.368-0.336-0.737-0.673-1.128-1.029c-1.472,1.07-3.153,1.471-5.011,1.06c-1.415-0.313-2.544-1.054-3.377-2.178
	c-1.65-2.23-1.286-5.335,0.823-7.11c2.222-1.87,5.521-1.904,7.68-0.117c2.217,1.835,2.765,5.106,0.696,7.583
	C-137.02,38.68-136.651,39.031-136.281,39.384z"/>
<path class="st5" d="M-78.122,29.79l2.966,2.98v-2.758c0-0.096-0.055-0.229-0.123-0.297l-3.807-3.826
	c-0.068-0.067-0.178-0.067-0.245,0l-3.93,3.949v2.758c0,0.096,0.055,0.119,0.122,0.051l2.844-2.857
	c0.068-0.068,0.122-0.046,0.122,0.05v7.829h0v2.168c0,0.096-0.055,0.118-0.123,0.05l-2.966-2.98v2.758
	c0,0.096,0.055,0.229,0.123,0.297l3.807,3.826c0.068,0.067,0.178,0.067,0.245,0l3.93-3.949v-2.758c0-0.096-0.055-0.119-0.122-0.051
	l-2.844,2.857c-0.068,0.068-0.122,0.046-0.122-0.05v-7.829h0V29.84C-78.245,29.744-78.19,29.722-78.122,29.79z"/>
<line class="st18" x1="-114.261" y1="43.027" x2="-86.428" y2="43.027"/>
<line class="st18" x1="-114.261" y1="34.731" x2="-86.428" y2="34.731"/>
<line class="st18" x1="-114.261" y1="26.738" x2="-86.428" y2="26.738"/>
<line class="st18" x1="-99.919" y1="61.998" x2="-99.919" y2="82.998"/>
<path class="st5" d="M-92.459,75.841L-92.459,75.841h2.695l-2.603-2.569c-0.138-0.135-0.093-0.245,0.101-0.245h7.006V71.62
	c0-0.193-0.157-0.35-0.35-0.35h-6.656c-0.194,0-0.239-0.11-0.101-0.246l2.603-2.569h-2.345c-0.193,0-0.462,0.111-0.599,0.246
	l-3.245,3.201c-0.137,0.136-0.137,0.356,0,0.492L-92.459,75.841z"/>
<path class="st5" d="M-108.229,68.63L-108.229,68.63h-2.695l2.603,2.569c0.138,0.135,0.093,0.245-0.101,0.245h-7.006v1.407
	c0,0.193,0.157,0.35,0.35,0.35h6.656c0.194,0,0.239,0.11,0.101,0.246l-2.603,2.569h2.345c0.193,0,0.462-0.111,0.599-0.246
	l3.245-3.201c0.137-0.136,0.137-0.356,0-0.492L-108.229,68.63z"/>
<line class="st19" x1="216.367" y1="-57.115" x2="180.344" y2="-57.115"/>
<path class="st20" d="M207.864-53.969c2.045,0,3.703-1.658,3.703-3.703c0-2.045-1.658-3.703-3.703-3.703s-3.703,1.658-3.703,3.703
	C204.161-55.627,205.819-53.969,207.864-53.969"/>
<g>
	<path class="st5" d="M231.063-56.914c0,3.12-1.82,4.836-4.459,4.836c-0.91,0-1.781-0.195-2.392-0.585l0.624-1.274
		c0.494,0.325,1.092,0.442,1.729,0.442c1.716,0,2.795-1.066,2.795-3.133v-0.014c-0.546,0.638-1.417,0.949-2.431,0.949
		c-1.794,0-3.133-1.092-3.133-2.795c0-1.807,1.469-2.951,3.328-2.951C229.607-61.438,231.063-59.839,231.063-56.914z M229.1-58.578
		c0-0.858-0.676-1.534-1.885-1.534c-1.053,0-1.781,0.598-1.781,1.547s0.715,1.547,1.82,1.547
		C228.346-57.018,229.1-57.681,229.1-58.578z"/>
	<path class="st5" d="M238.928-55.003c0,1.599-1.157,2.925-3.602,2.925c-1.287,0-2.587-0.39-3.419-1.053l0.715-1.313
		c0.663,0.546,1.651,0.897,2.678,0.897c1.209,0,1.924-0.533,1.924-1.392c0-0.871-0.559-1.417-2.444-1.417h-2.197l0.468-4.953h5.343
		v1.417h-3.913l-0.195,2.106h0.871C237.849-57.785,238.928-56.615,238.928-55.003z"/>
	<path class="st5" d="M243.348-58.903c0-1.495,0.871-2.496,2.171-2.496s2.184,0.988,2.184,2.496s-0.884,2.496-2.184,2.496
		S243.348-57.408,243.348-58.903z M246.637-58.903c0-1.014-0.416-1.586-1.118-1.586c-0.676,0-1.118,0.585-1.118,1.586
		s0.442,1.586,1.118,1.586C246.221-57.317,246.637-57.889,246.637-58.903z M250.979-61.308h1.274l-6.214,9.101h-1.274
		L250.979-61.308z M249.315-54.613c0-1.495,0.871-2.496,2.171-2.496c1.3,0,2.184,1.001,2.184,2.496s-0.884,2.496-2.184,2.496
		C250.186-52.117,249.315-53.118,249.315-54.613z M252.604-54.613c0-1.001-0.429-1.586-1.118-1.586s-1.118,0.572-1.118,1.586
		c0,1.015,0.429,1.586,1.118,1.586S252.604-53.612,252.604-54.613z"/>
</g>
<rect x="194.304" y="-2.972" class="st11" width="13.149" height="16.764"/>
<polygon class="st21" points="194.304,13.792 194.304,13.792 207.453,13.792 207.453,-2.972 194.304,-2.972 "/>
<rect x="186.632" y="-3.443" class="st9" width="21.291" height="24"/>
<line class="st22" x1="191.13" y1="4.723" x2="191.13" y2="15.11"/>
<line class="st23" x1="193.761" y1="16.999" x2="203.41" y2="16.999"/>
<path class="st21" d="M204.287,16.999h0.877 M191.13,16.055v0.944h0.877 M191.13,1.89v0.944"/>
<polyline class="st21" points="187.103,4.979 187.103,20.087 201.137,20.087 "/>
<rect x="186.632" y="-3.443" class="st9" width="21.291" height="24"/>
<rect x="225.878" y="-3.041" class="st11" width="14.674" height="18.705"/>
<polygon class="st24" points="225.878,15.664 225.878,15.664 240.551,15.664 240.551,-3.041 225.878,-3.041 "/>
<rect x="225.476" y="-3.443" class="st9" width="19.884" height="24"/>
<rect x="230.285" y="1.45" class="st5" width="14.674" height="18.705"/>
<polygon class="st25" points="230.285,20.155 230.285,20.155 244.958,20.155 244.958,1.45 230.285,1.45 "/>
<rect x="225.476" y="-3.443" class="st9" width="19.884" height="24"/>
<rect x="126.985" y="0.506" class="st10" width="34.924" height="19.551"/>
<text transform="matrix(1 0 0 1 133.9856 15.1576)"><tspan x="0" y="0" class="st11" style="font-family:'Montserrat-Regular'; font-size:13px;">e</tspan><tspan x="7.41" y="0" class="st11" style="font-family:'Montserrat-Regular'; font-size:13px;">i</tspan><tspan x="10.335" y="0" class="st11" style="font-family:'Montserrat-Regular'; font-size:13px;">n</tspan></text>
<polygon class="st6" points="91.977,0.381 91.977,20.381 91.977,20.631 92.227,20.631 161.076,20.631 161.326,20.631 
	161.326,20.381 161.326,0.381 161.326,0.131 161.076,0.131 92.227,0.131 91.977,0.131 "/>
<rect x="91.727" y="-0.119" class="st9" width="70.183" height="21"/>
<line class="st26" x1="233.041" y1="90.02" x2="233.041" y2="114.28"/>
<path class="st5" d="M241.139,105.839L241.139,105.839h2.592l-2.494-2.46c-0.138-0.135-0.093-0.245,0.101-0.245h6.725v-1.339
	c0-0.193-0.157-0.35-0.35-0.35h-6.725l2.743-2.705h-2.242c-0.193,0-0.462,0.11-0.599,0.245l-3.102,3.059
	c-0.137,0.135-0.137,0.355,0,0.491L241.139,105.839z"/>
<line class="st26" x1="206.096" y1="114.113" x2="206.096" y2="89.853"/>
<path class="st5" d="M197.999,98.295L197.999,98.295h-2.592l2.494,2.46c0.138,0.135,0.093,0.245-0.101,0.245h-6.725v1.339
	c0,0.193,0.157,0.35,0.35,0.35h6.725l-2.743,2.705h2.242c0.193,0,0.462-0.11,0.599-0.245l3.102-3.059
	c0.137-0.135,0.137-0.355,0-0.491L197.999,98.295z"/>
<line class="st26" x1="16.354" y1="97.892" x2="40.614" y2="97.892"/>
<path class="st5" d="M32.005,89.834L32.005,89.834v-2.592l-2.46,2.494c-0.135,0.138-0.245,0.093-0.245-0.101V82.91h-1.339
	c-0.193,0-0.35,0.157-0.35,0.35v6.725l-2.705-2.743v2.242c0,0.193,0.11,0.462,0.245,0.599l3.059,3.102
	c0.135,0.137,0.355,0.137,0.491,0L32.005,89.834z"/>
<path class="st5" d="M25.073,104.986L25.073,104.986v2.592l2.46-2.494c0.135-0.138,0.245-0.093,0.245,0.101v6.725h1.339
	c0.193,0,0.35-0.157,0.35-0.35v-6.725l2.705,2.743v-2.242c0-0.193-0.11-0.462-0.245-0.599l-3.059-3.102
	c-0.135-0.137-0.355-0.137-0.491,0L25.073,104.986z"/>
<line class="st26" x1="72.8" y1="110.702" x2="72.8" y2="86.442"/>
<path class="st5" d="M64.743,95.051L64.743,95.051h-2.592l2.494,2.46c0.138,0.135,0.093,0.245-0.101,0.245h-6.725v1.339
	c0,0.193,0.157,0.35,0.35,0.35h6.725l-2.743,2.705h2.242c0.193,0,0.462-0.11,0.599-0.245l3.102-3.059
	c0.137-0.135,0.137-0.355,0-0.491L64.743,95.051z"/>
<path class="st5" d="M79.895,101.983L79.895,101.983h2.592l-2.494-2.46c-0.138-0.135-0.093-0.245,0.101-0.245h6.725v-1.339
	c0-0.193-0.157-0.35-0.35-0.35h-6.725l2.743-2.705h-2.242c-0.193,0-0.462,0.11-0.599,0.245l-3.102,3.059
	c-0.137,0.135-0.137,0.355,0,0.491L79.895,101.983z"/>
<line class="st26" x1="104.942" y1="98.175" x2="129.202" y2="98.175"/>
<path class="st5" d="M113.661,105.269L113.661,105.269v2.592l2.46-2.494c0.135-0.138,0.245-0.093,0.245,0.101v6.725h1.339
	c0.193,0,0.35-0.157,0.35-0.35v-6.725l2.705,2.743v-2.242c0-0.193-0.11-0.462-0.245-0.599l-3.059-3.102
	c-0.135-0.137-0.355-0.137-0.491,0L113.661,105.269z"/>
<line class="st26" x1="150.053" y1="109.43" x2="174.313" y2="109.43"/>
<path class="st5" d="M165.871,101.042L165.871,101.042V98.45l-2.46,2.494c-0.135,0.138-0.245,0.093-0.245-0.101v-6.725h-1.339
	c-0.193,0-0.35,0.157-0.35,0.35v6.725l-2.705-2.743v2.242c0,0.193,0.11,0.462,0.245,0.599l3.059,3.102
	c0.135,0.137,0.355,0.137,0.491,0L165.871,101.042z"/>
<rect x="295.917" y="82.504" class="st11" width="15.769" height="20.056"/>
<line class="st27" x1="298.874" y1="102.561" x2="309.715" y2="102.561"/>
<line class="st28" x1="311.686" y1="99.552" x2="311.686" y2="84.51"/>
<line class="st27" x1="308.729" y1="82.504" x2="297.888" y2="82.504"/>
<line class="st28" x1="295.916" y1="85.513" x2="295.916" y2="100.555"/>
<path class="st21" d="M295.916,101.558v1.003h0.986 M296.902,82.505h-0.986v1.003 M311.685,83.508v-1.003H310.7 M310.7,102.561
	h0.985v-1.003"/>
<polygon class="st11" points="284.681,112.561 284.681,112.561 300.45,112.561 300.45,92.505 284.681,92.505 "/>
<line class="st27" x1="287.638" y1="112.561" x2="298.479" y2="112.561"/>
<line class="st28" x1="300.45" y1="109.552" x2="300.45" y2="94.51"/>
<line class="st27" x1="297.493" y1="92.504" x2="286.652" y2="92.504"/>
<line class="st28" x1="284.681" y1="95.513" x2="284.681" y2="110.555"/>
<path class="st21" d="M284.68,111.558v1.003h0.986 M285.666,92.505h-0.986v1.003 M300.449,93.508v-1.003h-0.985 M299.464,112.561
	h0.985v-1.003"/>
<polygon class="st11" points="275.207,120.561 275.207,120.561 290.976,120.561 290.976,100.505 275.207,100.505 "/>
<polygon class="st21" points="275.207,120.561 275.207,120.561 290.976,120.561 290.976,100.505 275.207,100.505 "/>
<g>
	<polygon class="st11" points="349.043,106.866 349.043,106.866 364.812,106.866 364.812,86.81 349.043,86.81 	"/>
	<polygon class="st21" points="349.043,106.866 349.043,106.866 364.812,106.866 364.812,86.81 349.043,86.81 	"/>
	<line class="st29" x1="345.279" y1="95.365" x2="345.279" y2="108.869"/>
	<line class="st30" x1="348.416" y1="110.67" x2="359.919" y2="110.67"/>
	<path class="st21" d="M360.964,110.669h1.046 M345.279,109.769v0.9h1.046 M345.279,92.664v0.9"/>
</g>
<g>
	<g>
		<rect x="421.583" y="75.09" class="st11" width="15.769" height="20.056"/>
		<polygon class="st21" points="421.583,95.146 421.583,95.146 437.352,95.146 437.352,75.09 421.583,75.09 		"/>
		<polygon class="st11" points="410.347,105.146 410.347,105.146 426.116,105.146 426.116,85.09 410.347,85.09 		"/>
		<line class="st27" x1="413.304" y1="105.146" x2="424.145" y2="105.146"/>
		<line class="st28" x1="426.116" y1="102.137" x2="426.116" y2="87.095"/>
		<line class="st27" x1="423.159" y1="85.09" x2="412.318" y2="85.09"/>
		<line class="st28" x1="410.347" y1="88.098" x2="410.347" y2="103.14"/>
		<path class="st21" d="M410.346,104.143v1.003h0.986 M411.332,85.09h-0.986v1.003 M426.115,86.093V85.09h-0.985 M425.13,105.146
			h0.985v-1.003"/>
		<polygon class="st11" points="400.873,113.146 400.873,113.146 416.642,113.146 416.642,93.09 400.873,93.09 		"/>
		<line class="st27" x1="403.83" y1="113.146" x2="414.671" y2="113.146"/>
		<line class="st28" x1="416.642" y1="110.137" x2="416.642" y2="95.095"/>
		<line class="st27" x1="413.685" y1="93.09" x2="402.844" y2="93.09"/>
		<line class="st28" x1="400.873" y1="96.098" x2="400.873" y2="111.14"/>
		<path class="st21" d="M400.873,112.143v1.003h0.986 M401.859,93.09h-0.986v1.003 M416.642,94.093V93.09h-0.985 M415.657,113.146
			h0.985v-1.003"/>
	</g>
	<line class="st27" x1="476.997" y1="108.631" x2="487.838" y2="108.631"/>
	<line class="st28" x1="489.809" y1="105.623" x2="489.809" y2="90.581"/>
	<line class="st27" x1="486.852" y1="88.575" x2="476.011" y2="88.575"/>
	<line class="st28" x1="474.04" y1="91.583" x2="474.04" y2="106.625"/>
	<path class="st21" d="M474.039,107.628v1.003h0.986 M475.025,88.575h-0.986v1.003 M489.808,89.578v-1.003h-0.985 M488.823,108.631
		h0.985v-1.003"/>
	<polyline class="st21" points="470.275,94.429 470.275,112.434 487.006,112.434 	"/>
</g>
<g>
	<defs>
		<rect id="SVGID_1_" x="-284.999" y="202.467" width="241.682" height="1"/>
	</defs>
	<clipPath id="SVGID_00000124850669142366314340000014384048117483286185_">
		<use xlink:href="#SVGID_1_"  style="overflow:visible;"/>
	</clipPath>
	
		<line style="clip-path:url(#SVGID_00000124850669142366314340000014384048117483286185_);fill:none;stroke:#B2B2B2;stroke-linecap:round;stroke-linejoin:round;stroke-dasharray:0,3.009;" x1="-281.491" y1="202.967" x2="-45.321" y2="202.967"/>
	
		<path style="clip-path:url(#SVGID_00000124850669142366314340000014384048117483286185_);fill:none;stroke:#B2B2B2;stroke-linecap:round;stroke-linejoin:round;" d="
		M-43.817,202.967L-43.817,202.967 M-284.499,202.967L-284.499,202.967"/>
</g>
<circle class="st33" cx="-238.101" cy="-18.244" r="12.75"/>
<polygon class="st3" points="-94.708,-33.268 -107.708,-33.268 -101.34,-22.793 "/>
<polygon class="st5" points="-86.685,95.274 -97.16,101.642 -86.685,108.274 "/>
<polygon class="st5" points="-115.732,108.274 -105.257,101.906 -115.732,95.274 "/>
<polygon class="st5" points="-33.179,95.274 -43.654,101.642 -33.179,108.274 "/>
<polygon class="st5" points="-68.355,108.274 -57.88,101.906 -68.355,95.274 "/>
<rect x="91.894" y="-33.257" class="st10" width="34.924" height="19.551"/>
<polygon class="st6" points="92.144,-33.382 92.144,-13.382 92.144,-13.132 92.394,-13.132 161.243,-13.132 161.493,-13.132 
	161.493,-13.382 161.493,-33.382 161.493,-33.632 161.243,-33.632 92.394,-33.632 92.144,-33.632 "/>
<rect x="91.894" y="-33.882" class="st9" width="69.849" height="21"/>
<rect x="127.258" y="32.772" class="st10" width="34.924" height="19.551"/>
<polygon class="st6" points="92.25,32.647 92.25,52.647 92.25,52.897 92.5,52.897 161.349,52.897 161.599,52.897 161.599,52.647 
	161.599,32.647 161.599,32.397 161.349,32.397 92.5,32.397 92.25,32.397 "/>
<rect x="92" y="32.147" class="st9" width="70.183" height="21"/>
<line class="st19" x1="215.289" y1="-37.327" x2="179.266" y2="-37.327"/>
<path class="st20" d="M206.786-34.181c2.045,0,3.703-1.658,3.703-3.703c0-2.045-1.658-3.703-3.703-3.703s-3.703,1.658-3.703,3.703
	C203.083-35.839,204.741-34.181,206.786-34.181"/>
<line class="st19" x1="523.614" y1="-6.548" x2="487.591" y2="-6.548"/>
<path class="st20" d="M515.11-3.402c2.045,0,3.703-1.658,3.703-3.703s-1.658-3.703-3.703-3.703c-2.045,0-3.703,1.658-3.703,3.703
	S513.065-3.402,515.11-3.402"/>
</svg>
