<?xml version="1.0" encoding="utf-8"?>
<!-- Generator: Adobe Illustrator 26.2.1, SVG Export Plug-In . SVG Version: 6.00 Build 0)  -->
<svg version="1.1" id="Ebene_1" xmlns="http://www.w3.org/2000/svg" xmlns:xlink="http://www.w3.org/1999/xlink" x="0px" y="0px"
	 width="54.2px" height="53.1px" viewBox="0 0 54.2 53.1" enable-background="new 0 0 54.2 53.1" xml:space="preserve">
<path fill="#0F699B" d="M25,15.3L25,15.3c-2.3,5.3-4.2,9.9-6.2,14.6h12.3C29.1,25.1,27.2,20.5,25,15.3 M32.5,53.1L32.5,53.1
	c-0.7-2.5-0.5-3.8,2.2-3.9c2.1-0.1,2.9-1.6,2.2-3.5c-1.1-3-2.3-6-3.6-9c-0.2-0.5-1.2-1-1.8-1c-4.6-0.1-9.1-0.1-13.7,0
	c-0.7,0-1.6,0.7-1.9,1.3c-1.2,2.5-2.3,5-3.2,7.6c-1.2,3.2-0.6,4.3,2.9,4.7c1.7,0.2,2.6,0.7,2.2,2.4C17.6,52.2,17,53,16.6,53
	c-5.4,0.1-10.8,0.1-16.3,0.1c-0.5-2-0.7-3.5,1.9-4c1.2-0.3,2.6-1.3,3.3-2.4c1.6-2.8,3-5.7,4.2-8.7C14.8,26,19.9,14.1,25,2.1
	c0.4-0.9,1.4-1.4,2.1-2.1c0.7,0.7,1.6,1.4,2,2.2c5.5,13,10.9,26,16.4,39c0.7,1.7,1.5,3.3,2.4,4.9c1.1,2,2.9,3,5.1,3.4
	c0.6,0.1,1.1,1.4,1.3,2.2c0.1,0.4-0.8,1.3-1.3,1.3C46.1,53.1,39.3,53.1,32.5,53.1"/>
</svg>
