<?xml version="1.0" encoding="utf-8"?>
<!-- Generator: Adobe Illustrator 26.2.1, SVG Export Plug-In . SVG Version: 6.00 Build 0)  -->
<svg version="1.1" id="Ebene_1" xmlns="http://www.w3.org/2000/svg" xmlns:xlink="http://www.w3.org/1999/xlink" x="0px" y="0px"
	 width="33px" height="9.9px" viewBox="0 0 33 9.9" enable-background="new 0 0 33 9.9" xml:space="preserve">
<g>
	<path fill="#B2B2B2" d="M3.1,1.9H0V0h8.5v1.9H5.4v8H3.1V1.9L3.1,1.9z"/>
	<path fill="#B2B2B2" d="M9.7,0.1H12v9.8H9.7V0.1z"/>
	<path fill="#B2B2B2" d="M22.8,3.6c0,2.2-1.6,3.5-4.3,3.5h-2v2.7h-2.2V0h4.2C21.2,0.1,22.8,1.4,22.8,3.6z M20.5,3.6
		c0-1.1-0.7-1.7-2.1-1.7h-1.8v3.4h1.8C19.8,5.3,20.5,4.7,20.5,3.6z"/>
	<path fill="#B2B2B2" d="M33,3.6c0,2.2-1.6,3.5-4.3,3.5h-2v2.7h-2.3V0h4.2C31.3,0.1,33,1.4,33,3.6z M30.7,3.6c0-1.1-0.7-1.7-2.1-1.7
		h-1.8v3.4h1.8C30,5.3,30.7,4.7,30.7,3.6z"/>
</g>
</svg>
