<?xml version="1.0" encoding="utf-8"?>
<!-- Generator: Adobe Illustrator 26.5.0, SVG Export Plug-In . SVG Version: 6.00 Build 0)  -->
<svg version="1.1" id="Ebene_1" xmlns="http://www.w3.org/2000/svg" x="0px" y="0px"
     width="25.3px" height="24.7px" viewBox="0 0 25.3 24.7" style="enable-background:new 0 0 25.3 24.7;"
     xml:space="preserve">
<polyline style="fill:none;stroke:#C5C5C5;stroke-width:3;stroke-linecap:round;stroke-linejoin:round;" points="1942.2,821.3
	1935.9,812.3 1929.2,821.3 "/>
    <path style="fill:#C5C5C5;" d="M949.8,496.6h-1.5c-0.4,0-0.8,0.2-1,0.5l-4.8,6.5c-0.2,0.3-0.6,0.3-0.8,0l-4.8-6.5
	c-0.2-0.3-0.6-0.5-1-0.5h-1.5c-0.4,0-0.6,0.5-0.4,0.8l7.6,10.2c0.2,0.3,0.7,0.3,1,0l7.6-10.2C950.5,497.1,950.2,496.6,949.8,496.6"
    />
    <g>
	<path style="fill:#B2B2B2;" d="M2.4,1.4H0V0h6.6v1.4H4.2v6.1H2.4V1.4z"/>
        <path style="fill:#B2B2B2;" d="M7.5,0h1.7v7.5H7.5L7.5,0z"/>
        <path style="fill:#B2B2B2;" d="M17.5,2.7c0,1.7-1.2,2.7-3.2,2.7h-1.5v2.1H11V0h3.2C16.2,0,17.5,1,17.5,2.7z M15.8,2.7
		c0-0.8-0.5-1.3-1.6-1.3h-1.4V4h1.4C15.2,4,15.8,3.6,15.8,2.7z"/>
        <path style="fill:#B2B2B2;" d="M25.3,2.7c0,1.7-1.2,2.7-3.2,2.7h-1.5v2.1h-1.7V0H22C24,0,25.3,1,25.3,2.7z M23.5,2.7
		c0-0.8-0.5-1.3-1.6-1.3h-1.4V4h1.4C22.9,4,23.5,3.6,23.5,2.7z"/>
</g>
</svg>
