<?xml version="1.0" encoding="utf-8"?>
<!-- Generator: Adobe Illustrator 26.0.3, SVG Export Plug-In . SVG Version: 6.00 Build 0)  -->
<svg version="1.1" id="Ebene_1" xmlns="http://www.w3.org/2000/svg" xmlns:xlink="http://www.w3.org/1999/xlink" x="0px" y="0px"
	 width="73.326px" height="9.36px" viewBox="0 0 73.326 9.36" style="enable-background:new 0 0 73.326 9.36;" xml:space="preserve"
	>
<style type="text/css">
	.st0{fill:none;stroke:#C5C5C5;stroke-width:3;stroke-linecap:round;stroke-linejoin:round;}
	.st1{fill:#FFAEFF;stroke:#4F4D4D;stroke-width:0.5;}
	.st2{fill:#F8F8F8;}
	.st3{fill:#0E689A;}
	.st4{fill:none;stroke:#B2B1B1;stroke-width:0.65;stroke-miterlimit:10;}
	.st5{fill:#B2B1B1;}
	.st6{fill:none;stroke:#B2B2B2;stroke-width:0.5;stroke-miterlimit:10;}
	.st7{fill:none;stroke:#B2B1B1;stroke-width:0.3;stroke-miterlimit:10;}
	.st8{fill:none;stroke:#FFFFFF;stroke-width:0.021;}
	.st9{fill:none;}
	.st10{fill:#0E6899;}
	.st11{fill:#FFFFFF;}
	.st12{fill:none;stroke:#C5C5C5;stroke-width:0.5;stroke-linecap:round;stroke-linejoin:round;}
	.st13{fill:#C5C5C5;}
	.st14{fill:none;stroke:#B2B1B1;stroke-width:0.5;}
	.st15{fill:none;stroke:#B2B1B1;stroke-width:1.2;}
	.st16{fill:#B2B2B2;}
	.st17{fill:none;stroke:#FFFFFF;stroke-width:0.001;}
	.st18{fill:none;stroke:#B2B1B1;stroke-width:1.712;}
	.st19{fill:none;stroke:#B2B1B1;stroke-width:2;}
	.st20{fill:#AD5E7A;}
	.st21{fill:none;stroke:#B2B1B1;stroke-width:0.941;}
	.st22{fill:none;stroke:#B2B1B1;stroke-width:0.941;stroke-dasharray:1.889,1.889;}
	.st23{fill:none;stroke:#B2B1B1;stroke-width:0.941;stroke-dasharray:1.754,1.754;}
	.st24{fill:none;stroke:#B2B1B1;stroke-width:0.804;}
	.st25{fill:none;stroke:#FFFFFF;stroke-width:0.804;}
	.st26{fill:none;stroke:#B2B1B1;stroke-width:2.5;}
	.st27{fill:none;stroke:#B2B1B1;stroke-width:0.941;stroke-dasharray:1.971,1.971;}
	.st28{fill:none;stroke:#B2B1B1;stroke-width:0.941;stroke-dasharray:2.006,2.006;}
	.st29{fill:none;stroke:#B2B1B1;stroke-width:0.941;stroke-dasharray:1.801,1.801;}
	.st30{fill:none;stroke:#B2B1B1;stroke-width:0.941;stroke-dasharray:2.091,2.091;}
	
		.st31{clip-path:url(#SVGID_00000124868346265694310400000013463144035741840541_);fill:none;stroke:#B2B2B2;stroke-linecap:round;stroke-linejoin:round;stroke-dasharray:0,3.009;}
	
		.st32{clip-path:url(#SVGID_00000124868346265694310400000013463144035741840541_);fill:none;stroke:#B2B2B2;stroke-linecap:round;stroke-linejoin:round;}
	.st33{fill:none;stroke:#4F4D4D;stroke-width:0.5;}
</style>
<polyline class="st0" points="1573.448,969.85 1567.198,960.85 1560.448,969.85 "/>
<circle class="st1" cx="-418.445" cy="7.101" r="12.75"/>
<rect x="-385.984" y="-3.914" class="st2" width="119.902" height="21"/>
<polygon class="st3" points="-275.155,1.349 -288.155,1.349 -281.787,11.824 "/>
<g>
	<g>
		<line class="st4" x1="-162.143" y1="13.607" x2="-151.86" y2="13.607"/>
		<g>
			<path class="st5" d="M-160.856,8.381V3.206h1.3v5.122c0,2.016,0.923,2.926,2.561,2.926c1.638,0,2.574-0.91,2.574-2.926V3.206
				h1.261v5.175c0,2.639-1.443,4.029-3.848,4.029C-159.4,12.41-160.856,11.02-160.856,8.381z"/>
		</g>
	</g>
	<polygon class="st6" points="-170.252,-4.593 -170.252,21.407 -170.252,21.657 -170.002,21.657 -144.002,21.657 -143.752,21.657 
		-143.752,21.407 -143.752,-4.593 -143.752,-4.843 -144.002,-4.843 -170.002,-4.843 -170.252,-4.843 	"/>
</g>
<g>
	<g>
		<path class="st5" d="M-191.605,3.48h1.3l-1.82,9.101h-1.3L-191.605,3.48z"/>
	</g>
	<polygon class="st6" points="-205.116,-4.97 -205.116,21.03 -205.116,21.28 -204.866,21.28 -178.866,21.28 -178.616,21.28 
		-178.616,21.03 -178.616,-4.97 -178.616,-5.22 -178.866,-5.22 -204.866,-5.22 -205.116,-5.22 	"/>
</g>
<g>
	<g>
		<path class="st5" d="M-224.754,10.149c0,1.573-1.248,2.483-3.64,2.483h-4.706V3.532h4.446c2.275,0,3.445,0.949,3.445,2.366
			c0,0.91-0.468,1.612-1.209,2.002C-225.404,8.225-224.754,9.005-224.754,10.149z M-231.007,5.118v2.146h2.093
			c1.027,0,1.586-0.364,1.586-1.079s-0.559-1.066-1.586-1.066H-231.007z M-226.873,9.928c0-0.767-0.585-1.131-1.677-1.131h-2.457
			v2.249h2.457C-227.458,11.046-226.873,10.708-226.873,9.928z"/>
	</g>
	<polygon class="st6" points="-242.177,-4.918 -242.177,21.082 -242.177,21.332 -241.927,21.332 -215.927,21.332 -215.677,21.332 
		-215.677,21.082 -215.677,-4.918 -215.677,-5.168 -215.927,-5.168 -241.927,-5.168 -242.177,-5.168 	"/>
</g>
<path class="st7" d="M-187.989,37.036"/>
<path class="st7" d="M-190.497,38.29"/>
<path class="st7" d="M-190.497,39.543"/>
<path class="st7" d="M-190.497,40.798"/>
<path class="st7" d="M-187.989,42.052"/>
<path class="st7" d="M-187.989,43.306"/>
<path class="st7" d="M-190.497,44.56"/>
<path class="st7" d="M-190.497,47.067"/>
<path class="st7" d="M-187.989,49.575"/>
<g>
	<path class="st7" d="M-207.453,42.052"/>
	<path class="st7" d="M-207.453,37.036"/>
	<path class="st7" d="M-207.453,49.575"/>
	<path class="st7" d="M-207.453,43.306"/>
	<g>
		<path class="st7" d="M-205.391,44.56"/>
		<path class="st7" d="M-205.391,40.798"/>
		<path class="st7" d="M-205.391,39.543"/>
		<path class="st7" d="M-205.391,38.29"/>
		<line class="st7" x1="-207.829" y1="48.78" x2="-188.365" y2="48.78"/>
		<line class="st7" x1="-207.829" y1="47.505" x2="-192.935" y2="47.505"/>
		<line class="st7" x1="-207.829" y1="46.229" x2="-192.935" y2="46.229"/>
		<line class="st7" x1="-207.829" y1="44.953" x2="-192.935" y2="44.953"/>
		<line class="st7" x1="-207.829" y1="43.677" x2="-188.365" y2="43.677"/>
		<line class="st7" x1="-207.829" y1="42.401" x2="-188.365" y2="42.401"/>
		<line class="st7" x1="-207.756" y1="41.125" x2="-192.862" y2="41.125"/>
		<line class="st7" x1="-207.829" y1="39.849" x2="-188.365" y2="39.849"/>
		<line class="st7" x1="-207.829" y1="38.573" x2="-192.935" y2="38.573"/>
		<line class="st7" x1="-207.829" y1="37.297" x2="-192.935" y2="37.297"/>
		<line class="st7" x1="-207.829" y1="36.021" x2="-188.365" y2="36.021"/>
	</g>
	<polygon class="st6" points="-211.156,29.727 -211.156,55.72 -211.156,55.97 -210.906,55.97 -184.913,55.97 -184.663,55.97 
		-184.663,55.72 -184.663,29.727 -184.663,29.477 -184.913,29.477 -210.906,29.477 -211.156,29.477 	"/>
</g>
<g>
	<g>
		<line class="st7" x1="-157.109" y1="36.338" x2="-176.573" y2="36.338"/>
		<line class="st7" x1="-159.617" y1="37.615" x2="-174.511" y2="37.615"/>
		<line class="st7" x1="-159.617" y1="38.892" x2="-174.511" y2="38.892"/>
		<line class="st7" x1="-159.617" y1="40.169" x2="-174.511" y2="40.169"/>
		<line class="st7" x1="-157.109" y1="41.446" x2="-176.573" y2="41.446"/>
		<line class="st7" x1="-157.109" y1="42.723" x2="-176.573" y2="42.723"/>
		<line class="st7" x1="-159.617" y1="44" x2="-174.511" y2="44"/>
		<line class="st7" x1="-157.109" y1="45.277" x2="-176.573" y2="45.277"/>
		<line class="st7" x1="-159.617" y1="46.554" x2="-174.511" y2="46.554"/>
		<line class="st7" x1="-159.617" y1="47.831" x2="-174.511" y2="47.831"/>
		<line class="st7" x1="-157.109" y1="49.108" x2="-176.573" y2="49.108"/>
	</g>
	<polygon class="st6" points="-180.087,29.727 -180.087,55.72 -180.087,55.97 -179.837,55.97 -153.844,55.97 -153.594,55.97 
		-153.594,55.72 -153.594,29.727 -153.594,29.477 -153.844,29.477 -179.837,29.477 -180.087,29.477 	"/>
</g>
<polygon class="st6" points="-149.018,29.727 -149.018,55.72 -149.018,55.97 -148.768,55.97 -122.775,55.97 -122.525,55.97 
	-122.525,55.72 -122.525,29.727 -122.525,29.477 -122.775,29.477 -148.768,29.477 -149.018,29.477 "/>
<path class="st7" d="M-145.692,48.411"/>
<path class="st7" d="M-145.692,43.395"/>
<path class="st7" d="M-145.692,42.141"/>
<path class="st7" d="M-145.692,35.871"/>
<path class="st7" d="M-128.289,40.887"/>
<path class="st7" d="M-126.227,43.395"/>
<path class="st7" d="M-128.289,44.648"/>
<path class="st7" d="M-126.227,48.411"/>
<path class="st7" d="M-126.227,35.871"/>
<path class="st7" d="M-126.227,42.141"/>
<path class="st7" d="M-128.289,45.903"/>
<path class="st7" d="M-128.289,47.157"/>
<g>
	<path class="st7" d="M-143.372,46.834"/>
	<path class="st7" d="M-143.372,45.581"/>
	<path class="st7" d="M-143.372,44.326"/>
	<path class="st7" d="M-143.372,40.564"/>
	<path class="st7" d="M-143.372,38.057"/>
	<line class="st7" x1="-126.04" y1="36.344" x2="-145.504" y2="36.344"/>
	<line class="st7" x1="-126.04" y1="37.619" x2="-140.934" y2="37.619"/>
	<line class="st7" x1="-126.04" y1="38.895" x2="-140.934" y2="38.895"/>
	<line class="st7" x1="-126.04" y1="40.171" x2="-140.934" y2="40.171"/>
	<line class="st7" x1="-126.04" y1="41.447" x2="-145.504" y2="41.447"/>
	<line class="st7" x1="-126.04" y1="42.723" x2="-145.504" y2="42.723"/>
	<line class="st7" x1="-126.113" y1="43.999" x2="-141.007" y2="43.999"/>
	<line class="st7" x1="-126.04" y1="45.275" x2="-145.504" y2="45.275"/>
	<line class="st7" x1="-126.04" y1="46.551" x2="-140.934" y2="46.551"/>
	<line class="st7" x1="-126.04" y1="47.827" x2="-140.934" y2="47.827"/>
	<line class="st7" x1="-126.04" y1="49.102" x2="-145.504" y2="49.102"/>
</g>
<polygon class="st6" points="-241.927,29.733 -241.927,55.726 -241.927,55.976 -241.677,55.976 -215.684,55.976 -215.434,55.976 
	-215.434,55.726 -215.434,29.733 -215.434,29.483 -215.684,29.483 -241.677,29.483 -241.927,29.483 "/>
<path class="st7" d="M-218.76,37.036"/>
<path class="st7" d="M-218.76,42.052"/>
<path class="st7" d="M-218.76,43.306"/>
<path class="st7" d="M-218.76,49.575"/>
<path class="st7" d="M-236.162,44.56"/>
<path class="st7" d="M-238.224,42.052"/>
<path class="st7" d="M-236.162,40.798"/>
<path class="st7" d="M-238.224,37.036"/>
<path class="st7" d="M-238.224,49.575"/>
<path class="st7" d="M-238.224,43.306"/>
<path class="st7" d="M-236.162,39.543"/>
<path class="st7" d="M-236.162,38.29"/>
<g>
	<path class="st7" d="M-221.268,38.29"/>
	<path class="st7" d="M-221.268,39.543"/>
	<path class="st7" d="M-221.268,40.798"/>
	<path class="st7" d="M-221.268,44.56"/>
	<path class="st7" d="M-221.268,47.067"/>
	<line class="st7" x1="-238.6" y1="48.78" x2="-219.136" y2="48.78"/>
	<line class="st7" x1="-238.6" y1="47.505" x2="-219.136" y2="47.505"/>
	<line class="st7" x1="-238.6" y1="46.229" x2="-219.136" y2="46.229"/>
	<line class="st7" x1="-238.6" y1="44.953" x2="-219.136" y2="44.953"/>
	<line class="st7" x1="-238.6" y1="43.677" x2="-219.136" y2="43.677"/>
	<line class="st7" x1="-238.6" y1="42.401" x2="-219.136" y2="42.401"/>
	<line class="st7" x1="-238.527" y1="41.125" x2="-219.063" y2="41.125"/>
	<line class="st7" x1="-238.6" y1="39.849" x2="-219.136" y2="39.849"/>
	<line class="st7" x1="-238.6" y1="38.573" x2="-219.136" y2="38.573"/>
	<line class="st7" x1="-238.6" y1="37.297" x2="-219.136" y2="37.297"/>
	<line class="st7" x1="-238.6" y1="36.021" x2="-219.136" y2="36.021"/>
</g>
<path class="st5" d="M-411.484,144.882l-1.915,13.335c-0.058,0.402-0.431,0.682-0.834,0.624c-0.402-0.058-0.682-0.431-0.624-0.833
	l1.915-13.336c0.058-0.402,0.431-0.681,0.834-0.623C-411.706,144.107-411.426,144.479-411.484,144.882 M-418.301,158.957
	c-0.407,0.003-0.74-0.324-0.742-0.73l-0.106-13.472c-0.003-0.407,0.324-0.739,0.73-0.742c0.408-0.003,0.74,0.324,0.743,0.731
	l0.105,13.471C-417.568,158.622-417.895,158.954-418.301,158.957 M-422.372,158.904c-0.401,0.064-0.779-0.209-0.842-0.61
	l-2.124-13.304c-0.064-0.402,0.209-0.779,0.612-0.843c0.401-0.064,0.778,0.209,0.842,0.611l2.123,13.303
	C-421.697,158.463-421.97,158.84-422.372,158.904 M-408.589,142.496c-0.141-0.169-0.353-0.266-0.573-0.264l-18.538,0.144
	c-0.22,0.002-0.429,0.101-0.568,0.272c-0.14,0.17-0.196,0.393-0.155,0.609l3.092,16.141c0.068,0.351,0.376,0.605,0.734,0.602
	l12.497-0.098c0.356-0.002,0.66-0.258,0.724-0.608l2.949-16.188C-408.387,142.89-408.448,142.665-408.589,142.496"/>
<path class="st8" d="M-411.484,144.882l-1.915,13.335c-0.058,0.402-0.431,0.682-0.834,0.624c-0.402-0.058-0.682-0.431-0.624-0.833
	l1.915-13.336c0.058-0.402,0.431-0.681,0.834-0.623C-411.706,144.107-411.426,144.479-411.484,144.882z M-418.301,158.957
	c-0.407,0.003-0.74-0.324-0.742-0.73l-0.106-13.472c-0.003-0.407,0.324-0.739,0.73-0.742c0.408-0.003,0.74,0.324,0.743,0.731
	l0.105,13.471C-417.568,158.622-417.895,158.954-418.301,158.957z M-422.372,158.904c-0.401,0.064-0.779-0.209-0.842-0.61
	l-2.124-13.304c-0.064-0.402,0.209-0.779,0.612-0.843c0.401-0.064,0.778,0.209,0.842,0.611l2.123,13.303
	C-421.697,158.463-421.97,158.84-422.372,158.904z M-408.589,142.496c-0.141-0.169-0.353-0.266-0.573-0.264l-18.538,0.144
	c-0.22,0.002-0.429,0.101-0.568,0.272c-0.14,0.17-0.196,0.393-0.155,0.609l3.092,16.141c0.068,0.351,0.376,0.605,0.734,0.602
	l12.497-0.098c0.356-0.002,0.66-0.258,0.724-0.608l2.949-16.188C-408.387,142.89-408.448,142.665-408.589,142.496z"/>
<path class="st5" d="M-421.276,137.889L-421.276,137.889l-0.004-0.421l5.49-0.043l0.004,0.421L-421.276,137.889z M-407.539,139.299
	L-407.539,139.299l-2.025,0.016l-0.009-1.171c-0.001-0.091-0.038-0.18-0.103-0.244c-0.065-0.064-0.155-0.1-0.246-0.1l-4.467,0.035
	l-0.009-1.12c-0.002-0.184-0.077-0.363-0.209-0.492c-0.131-0.13-0.311-0.203-0.495-0.201l-6.887,0.054
	c-0.183,0.001-0.363,0.077-0.492,0.208s-0.202,0.312-0.2,0.496l0.009,1.12l-4.164,0.032c-0.091,0.001-0.18,0.039-0.243,0.104
	c-0.065,0.065-0.101,0.154-0.101,0.246l0.009,1.171l-2.197,0.017l0.017,2.225l21.829-0.17L-407.539,139.299z"/>
<path class="st8" d="M-421.276,137.889L-421.276,137.889l-0.004-0.421l5.49-0.043l0.004,0.421L-421.276,137.889z M-407.539,139.299
	L-407.539,139.299l-2.025,0.016l-0.009-1.171c-0.001-0.091-0.038-0.18-0.103-0.244c-0.065-0.064-0.155-0.1-0.246-0.1l-4.467,0.035
	l-0.009-1.12c-0.002-0.184-0.077-0.363-0.209-0.492c-0.131-0.13-0.311-0.203-0.495-0.201l-6.887,0.054
	c-0.183,0.001-0.363,0.077-0.492,0.208s-0.202,0.312-0.2,0.496l0.009,1.12l-4.164,0.032c-0.091,0.001-0.18,0.039-0.243,0.104
	c-0.065,0.065-0.101,0.154-0.101,0.246l0.009,1.171l-2.197,0.017l0.017,2.225l21.829-0.17L-407.539,139.299z"/>
<rect x="-429.379" y="136.01" class="st9" width="21.868" height="24"/>
<rect x="-88.45" y="-4.757" class="st10" width="34.924" height="19.551"/>
<g>
	<path class="st11" d="M-75.473,5.656v4.238h-0.884V8.828c-0.416,0.702-1.222,1.132-2.354,1.132c-1.547,0-2.496-0.807-2.496-1.989
		c0-1.054,0.676-1.938,2.639-1.938h2.171V5.617c0-1.17-0.663-1.807-1.938-1.807c-0.884,0-1.716,0.312-2.275,0.806l-0.416-0.688
		c0.689-0.585,1.703-0.924,2.782-0.924C-76.473,3.003-75.473,3.888-75.473,5.656z M-76.395,7.84V6.722h-2.146
		c-1.326,0-1.755,0.52-1.755,1.222c0,0.793,0.637,1.287,1.729,1.287C-77.527,9.231-76.76,8.737-76.395,7.84z"/>
	<path class="st11" d="M-67.373,3.056v6.838h-0.884V8.646c-0.481,0.832-1.365,1.313-2.458,1.313c-1.742,0-2.886-0.976-2.886-2.938
		V3.056h0.923V6.93c0,1.456,0.754,2.197,2.054,2.197c1.43,0,2.327-0.924,2.327-2.483V3.056H-67.373z"/>
	<path class="st11" d="M-66.074,9.114l0.416-0.728c0.546,0.429,1.469,0.767,2.431,0.767c1.3,0,1.833-0.441,1.833-1.118
		c0-1.78-4.433-0.377-4.433-3.081c0-1.118,0.962-1.95,2.704-1.95c0.884,0,1.846,0.247,2.418,0.638l-0.403,0.74
		c-0.598-0.416-1.313-0.585-2.015-0.585c-1.235,0-1.781,0.481-1.781,1.132c0,1.846,4.434,0.455,4.434,3.081
		c0,1.183-1.04,1.95-2.821,1.95C-64.423,9.959-65.515,9.595-66.074,9.114z"/>
</g>
<polygon class="st6" points="-88.2,-4.882 -88.2,15.118 -88.2,15.368 -87.95,15.368 -19.101,15.368 -18.851,15.368 -18.851,15.118 
	-18.851,-4.882 -18.851,-5.132 -19.101,-5.132 -87.95,-5.132 -88.2,-5.132 "/>
<rect x="-88.45" y="-5.382" class="st9" width="69.849" height="21"/>
<rect x="-492.847" y="201.948" class="st11" width="1014" height="21"/>
<path class="st3" d="M134.314,201.948c-2.209,0-4,1.791-4,4v12.382c0,2.209,1.791,4,4,4h77.131c2.209,0,4-1.791,4-4v-12.382
	c0-2.209-1.791-4-4-4H134.314z"/>
<rect x="-492.597" y="202.198" class="st12" width="1013.5" height="20.5"/>
<path class="st13" d="M505.009,204.808v1.481c0,0.397,0.187,0.771,0.505,1.009l6.367,4.762c0.258,0.194,0.258,0.583,0,0.776
	l-6.367,4.762c-0.318,0.238-0.505,0.612-0.505,1.01v1.48c0,0.41,0.467,0.644,0.795,0.399l10.111-7.563
	c0.318-0.237,0.318-0.714,0-0.952l-10.11-7.562C505.476,204.164,505.009,204.399,505.009,204.808"/>
<path class="st13" d="M-476.994,220.088v-1.481c0-0.397-0.187-0.771-0.505-1.009l-6.367-4.762c-0.258-0.194-0.258-0.583,0-0.776
	l6.367-4.762c0.318-0.238,0.505-0.612,0.505-1.01v-1.48c0-0.41-0.467-0.644-0.795-0.399l-10.111,7.563
	c-0.318,0.237-0.318,0.714,0,0.952l10.11,7.562C-477.461,220.732-476.994,220.497-476.994,220.088"/>
<rect x="-492.847" y="201.948" class="st9" width="1014" height="21"/>
<rect x="562.926" y="-42.598" class="st11" width="21" height="702.123"/>
<path class="st3" d="M562.926,371.364c0,2.209,1.791,4,4,4h12.382c2.209,0,4-1.791,4-4v-78.286c0-2.209-1.791-4-4-4h-12.382
	c-2.209,0-4,1.791-4,4V371.364z"/>
<rect x="563.176" y="-42.349" class="st12" width="20.5" height="701.624"/>
<path class="st13" d="M565.786-29.062h1.481c0.397,0,0.771-0.19,1.009-0.512l4.762-6.453c0.194-0.262,0.583-0.262,0.776,0
	l4.762,6.453c0.238,0.322,0.612,0.512,1.01,0.512h1.48c0.41,0,0.644-0.474,0.399-0.806l-7.563-10.248
	c-0.237-0.322-0.714-0.322-0.952,0l-7.562,10.248C565.142-29.536,565.377-29.062,565.786-29.062"/>
<path class="st13" d="M581.066,645.189h-1.481c-0.397,0-0.771,0.19-1.009,0.512l-4.762,6.453c-0.194,0.262-0.583,0.262-0.776,0
	l-4.762-6.453c-0.238-0.322-0.612-0.512-1.01-0.512h-1.48c-0.41,0-0.644,0.474-0.399,0.806l7.563,10.248
	c0.237,0.322,0.714,0.322,0.952,0l7.562-10.248C581.71,645.663,581.475,645.189,581.066,645.189"/>
<rect x="562.926" y="-42.599" class="st9" width="21" height="702.124"/>
<g>
	<g>
		<line class="st7" x1="-158.049" y1="80.381" x2="-171.066" y2="80.381"/>
		<line class="st7" x1="-158.049" y1="70.205" x2="-171.066" y2="70.205"/>
		<line class="st7" x1="-158.049" y1="75.293" x2="-171.066" y2="75.293"/>
		<g>
			<path class="st5" d="M-174.708,68.735v2.104h-0.487v-1.714h-0.421v-0.391H-174.708z"/>
		</g>
		<g>
			<path class="st5" d="M-173.947,75.703v0.396h-1.59v-0.315l0.812-0.767c0.187-0.178,0.22-0.286,0.22-0.388
				c0-0.165-0.114-0.262-0.337-0.262c-0.18,0-0.333,0.069-0.436,0.21l-0.355-0.228c0.163-0.238,0.457-0.392,0.836-0.392
				c0.469,0,0.781,0.241,0.781,0.623c0,0.204-0.057,0.391-0.352,0.664l-0.484,0.457H-173.947z"/>
		</g>
		<g>
			<path class="st5" d="M-173.965,80.461c0,0.354-0.273,0.68-0.872,0.68c-0.295,0-0.599-0.081-0.803-0.226l0.189-0.373
				c0.159,0.121,0.382,0.189,0.601,0.189c0.244,0,0.394-0.099,0.394-0.271c0-0.159-0.117-0.258-0.394-0.258h-0.223v-0.322
				l0.433-0.49h-0.896v-0.391h1.473v0.316l-0.475,0.541C-174.158,79.917-173.965,80.152-173.965,80.461z"/>
		</g>
	</g>
	<polygon class="st6" points="-180.094,61.938 -180.094,87.938 -180.094,88.188 -179.844,88.188 -153.844,88.188 -153.594,88.188 
		-153.594,87.938 -153.594,61.938 -153.594,61.688 -153.844,61.688 -179.844,61.688 -180.094,61.688 	"/>
</g>
<polygon class="st6" points="-241.927,61.938 -241.927,87.938 -241.927,88.188 -241.677,88.188 -215.677,88.188 -215.427,88.188 
	-215.427,87.938 -215.427,61.938 -215.427,61.688 -215.677,61.688 -241.677,61.688 -241.927,61.688 "/>
<g>
	<polygon class="st6" points="-211.585,61.938 -211.585,87.938 -211.585,88.188 -211.335,88.188 -185.335,88.188 -185.085,88.188 
		-185.085,87.938 -185.085,61.938 -185.085,61.688 -185.335,61.688 -211.335,61.688 -211.585,61.688 	"/>
	<path class="st7" d="M-190.053,80.063h-13.016 M-190.053,74.93h-13.016 M-190.053,69.798h-13.016"/>
	<path class="st5" d="M-205.155,75.515c0.161-0.156,0.241-0.349,0.241-0.581c0-0.15-0.037-0.288-0.11-0.414
		c-0.073-0.125-0.172-0.224-0.297-0.297c-0.126-0.073-0.264-0.11-0.415-0.11c-0.15,0-0.288,0.037-0.41,0.11
		c-0.122,0.073-0.221,0.172-0.294,0.297c-0.072,0.126-0.11,0.264-0.11,0.414c0,0.232,0.08,0.425,0.238,0.581
		c0.157,0.156,0.35,0.234,0.576,0.234C-205.509,75.749-205.316,75.671-205.155,75.515"/>
	<path class="st5" d="M-205.732,70.881c0.489,0,0.885-0.396,0.885-0.885c0-0.488-0.396-0.885-0.885-0.885
		c-0.488,0-0.885,0.397-0.885,0.885C-206.617,70.485-206.22,70.881-205.732,70.881"/>
	<path class="st5" d="M-205.155,80.532c0.161-0.156,0.241-0.349,0.241-0.581c0-0.15-0.037-0.288-0.11-0.414
		c-0.073-0.125-0.172-0.224-0.297-0.297c-0.126-0.073-0.264-0.11-0.415-0.11c-0.15,0-0.288,0.037-0.41,0.11
		c-0.122,0.073-0.221,0.172-0.294,0.297c-0.072,0.126-0.11,0.264-0.11,0.414c0,0.232,0.08,0.425,0.238,0.581
		c0.157,0.156,0.35,0.234,0.576,0.234C-205.509,80.766-205.316,80.688-205.155,80.532"/>
</g>
<path class="st7" d="M-220.395,80.07h-13.016 M-220.395,74.937h-13.016 M-220.395,69.805h-13.016"/>
<rect x="-236.959" y="69.036" class="st5" width="1.77" height="1.77"/>
<rect x="-236.959" y="74.052" class="st5" width="1.77" height="1.77"/>
<rect x="-236.959" y="79.07" class="st5" width="1.77" height="1.77"/>
<rect x="101.563" y="-5.851" class="st2" width="245" height="57.75"/>
<text transform="matrix(1 0 0 1 176.2606 20.3442)"><tspan x="0" y="0" class="st5" style="font-family:'Montserrat-Regular'; font-size:13px;">N</tspan><tspan x="10.478" y="0" class="st5" style="font-family:'Montserrat-Regular'; font-size:13px;">e</tspan><tspan x="18.135" y="0" class="st5" style="font-family:'Montserrat-Regular'; font-size:13px;">u</tspan><tspan x="26.753" y="0" class="st5" style="font-family:'Montserrat-Regular'; font-size:13px;">e </tspan><tspan x="38.011" y="0" class="st5" style="font-family:'Montserrat-Regular'; font-size:13px; letter-spacing:-1;">T</tspan><tspan x="44.381" y="0" class="st5" style="font-family:'Montserrat-Regular'; font-size:13px;">e</tspan><tspan x="51.882" y="0" class="st5" style="font-family:'Montserrat-Regular'; font-size:13px;">x</tspan><tspan x="59.097" y="0" class="st5" style="font-family:'Montserrat-Regular'; font-size:13px;">t</tspan><tspan x="64.128" y="0" class="st5" style="font-family:'Montserrat-Regular'; font-size:13px;">b</tspan><tspan x="72.942" y="0" class="st5" style="font-family:'Montserrat-Regular'; font-size:13px;">o</tspan><tspan x="80.742" y="0" class="st5" style="font-family:'Montserrat-Regular'; font-size:13px;">x </tspan></text>
<path class="st14" d="M224.063,42.107c3.707,0,6.713-3.005,6.713-6.712c0-3.708-3.006-6.713-6.713-6.713
	c-3.707,0-6.712,3.005-6.712,6.713C217.351,39.102,220.356,42.107,224.063,42.107z"/>
<rect x="101.563" y="-5.851" class="st9" width="245" height="57.75"/>
<line class="st15" x1="224.063" y1="31.861" x2="224.063" y2="38.93"/>
<line class="st15" x1="220.529" y1="35.426" x2="227.597" y2="35.426"/>
<path class="st14" d="M113.102,81.943c3.707,0,6.713-3.005,6.713-6.712c0-3.708-3.006-6.713-6.713-6.713
	c-3.707,0-6.712,3.005-6.712,6.713C106.39,78.938,109.395,81.943,113.102,81.943z"/>
<line class="st15" x1="113.102" y1="71.696" x2="113.102" y2="78.765"/>
<line class="st15" x1="109.567" y1="75.262" x2="116.635" y2="75.262"/>
<g>
	<path class="st16" d="M-382.791,97.078h-3.138v-1.85h8.544v1.85h-3.138v7.956h-2.269V97.078z"/>
	<path class="st16" d="M-376.17,95.228h2.269v9.806h-2.269V95.228z"/>
	<path class="st16" d="M-363.076,98.787c0,2.185-1.639,3.544-4.258,3.544h-1.975v2.703h-2.269v-9.806h4.244
		C-364.715,95.228-363.076,96.588-363.076,98.787z M-365.373,98.787c0-1.079-0.701-1.709-2.087-1.709h-1.849v3.403h1.849
		C-366.074,100.481-365.373,99.852-365.373,98.787z"/>
	<path class="st16" d="M-352.954,98.787c0,2.185-1.639,3.544-4.258,3.544h-1.975v2.703h-2.269v-9.806h4.244
		C-354.593,95.228-352.954,96.588-352.954,98.787z M-355.251,98.787c0-1.079-0.701-1.709-2.087-1.709h-1.849v3.403h1.849
		C-355.952,100.481-355.251,99.852-355.251,98.787z"/>
</g>
<path class="st16" d="M-419.418,90.757L-419.418,90.757c-1.054,2.474-1.96,4.602-2.889,6.784h5.729
	C-417.522,95.285-418.404,93.177-419.418,90.757 M-415.925,108.347L-415.925,108.347c-0.346-1.15-0.211-1.759,1.044-1.8
	c0.976-0.033,1.343-0.74,1.02-1.64c-0.507-1.414-1.072-2.81-1.681-4.183c-0.109-0.245-0.55-0.478-0.843-0.484
	c-2.129-0.041-4.261-0.046-6.39,0.005c-0.305,0.008-0.741,0.315-0.877,0.599c-0.558,1.155-1.057,2.342-1.512,3.542
	c-0.57,1.504-0.268,2.026,1.348,2.192c0.783,0.081,1.206,0.319,1.022,1.126c-0.056,0.243-0.355,0.61-0.547,0.613
	c-2.524,0.042-5.049,0.028-7.596,0.028c-0.214-0.956-0.321-1.631,0.868-1.885c0.569-0.122,1.219-0.609,1.515-1.117
	c0.755-1.293,1.377-2.67,1.972-4.049c2.401-5.559,4.761-11.135,7.172-16.689c0.173-0.398,0.634-0.67,0.96-1
	c0.319,0.343,0.766,0.632,0.937,1.037c2.56,6.048,5.079,12.114,7.622,18.17c0.326,0.776,0.705,1.534,1.106,2.275
	c0.507,0.939,1.332,1.389,2.379,1.595c0.265,0.052,0.519,0.638,0.586,1.013c0.032,0.175-0.39,0.621-0.611,0.624
	C-409.583,108.36-412.736,108.347-415.925,108.347"/>
<path class="st5" d="M-322.18,100.809c2.682-0.014,4.762-2.036,4.751-4.621c-0.01-2.367-2.203-4.406-4.733-4.399
	c-2.703,0.008-4.848,2.038-4.825,4.568C-326.964,98.821-324.804,100.822-322.18,100.809 M-316.625,100.822L-316.625,100.822
	c0.393-0.231,0.569-0.207,0.91,0.115c1.249,1.181,2.501,2.361,3.751,3.541c0.086,0.08,0.173,0.159,0.252,0.246
	c0.216,0.237,0.217,0.464-0.012,0.692c-0.249,0.248-0.509,0.488-0.767,0.727c-0.302,0.28-0.548,0.287-0.855,0
	c-1.177-1.103-2.348-2.211-3.522-3.318c-0.132-0.124-0.263-0.25-0.396-0.373c-0.368-0.34-0.394-0.487-0.153-0.896
	c-0.368-0.336-0.737-0.673-1.128-1.029c-1.472,1.07-3.153,1.471-5.011,1.06c-1.415-0.313-2.544-1.054-3.377-2.178
	c-1.65-2.23-1.286-5.335,0.823-7.11c2.222-1.87,5.521-1.904,7.68-0.117c2.217,1.835,2.765,5.106,0.696,7.583
	C-317.364,100.118-316.995,100.469-316.625,100.822"/>
<path class="st17" d="M-322.18,100.809c2.682-0.014,4.762-2.036,4.751-4.621c-0.01-2.367-2.203-4.406-4.733-4.399
	c-2.703,0.008-4.848,2.038-4.825,4.568C-326.964,98.821-324.804,100.822-322.18,100.809z M-316.625,100.822L-316.625,100.822
	c0.393-0.231,0.569-0.207,0.91,0.115c1.249,1.181,2.501,2.361,3.751,3.541c0.086,0.08,0.173,0.159,0.252,0.246
	c0.216,0.237,0.217,0.464-0.012,0.692c-0.249,0.248-0.509,0.488-0.767,0.727c-0.302,0.28-0.548,0.287-0.855,0
	c-1.177-1.103-2.348-2.211-3.522-3.318c-0.132-0.124-0.263-0.25-0.396-0.373c-0.368-0.34-0.394-0.487-0.153-0.896
	c-0.368-0.336-0.737-0.673-1.128-1.029c-1.472,1.07-3.153,1.471-5.011,1.06c-1.415-0.313-2.544-1.054-3.377-2.178
	c-1.65-2.23-1.286-5.335,0.823-7.11c2.222-1.87,5.521-1.904,7.68-0.117c2.217,1.835,2.765,5.106,0.696,7.583
	C-317.364,100.118-316.995,100.469-316.625,100.822z"/>
<path class="st5" d="M-258.466,91.229l2.966,2.98v-2.758c0-0.096-0.055-0.229-0.123-0.297l-3.807-3.826
	c-0.068-0.067-0.178-0.067-0.245,0l-3.93,3.949v2.758c0,0.096,0.055,0.119,0.122,0.051l2.844-2.857
	c0.068-0.068,0.122-0.046,0.122,0.05v7.829h0v2.168c0,0.096-0.055,0.118-0.123,0.05l-2.966-2.98v2.758
	c0,0.096,0.055,0.229,0.123,0.297l3.807,3.826c0.068,0.067,0.178,0.067,0.245,0l3.93-3.949V98.52c0-0.096-0.055-0.119-0.122-0.051
	l-2.844,2.857c-0.068,0.068-0.122,0.046-0.122-0.05v-7.829h0v-2.168C-258.589,91.183-258.534,91.161-258.466,91.229z"/>
<line class="st18" x1="-294.605" y1="104.465" x2="-266.772" y2="104.465"/>
<line class="st18" x1="-294.605" y1="96.169" x2="-266.772" y2="96.169"/>
<line class="st18" x1="-294.605" y1="88.177" x2="-266.772" y2="88.177"/>
<line class="st18" x1="-280.263" y1="123.436" x2="-280.263" y2="144.436"/>
<path class="st5" d="M-272.803,137.279L-272.803,137.279h2.695l-2.603-2.569c-0.138-0.135-0.093-0.245,0.101-0.245h7.006v-1.407
	c0-0.193-0.157-0.35-0.35-0.35h-6.656c-0.194,0-0.239-0.11-0.101-0.246l2.603-2.569h-2.345c-0.193,0-0.462,0.111-0.599,0.246
	l-3.245,3.201c-0.137,0.136-0.137,0.356,0,0.492L-272.803,137.279z"/>
<path class="st5" d="M-288.574,130.068L-288.574,130.068h-2.695l2.603,2.569c0.138,0.135,0.093,0.245-0.101,0.245h-7.006v1.407
	c0,0.193,0.157,0.35,0.35,0.35h6.656c0.194,0,0.239,0.11,0.101,0.246l-2.603,2.569h2.345c0.193,0,0.462-0.111,0.599-0.246
	l3.245-3.201c0.137-0.136,0.137-0.356,0-0.492L-288.574,130.068z"/>
<line class="st19" x1="36.023" y1="4.323" x2="0" y2="4.323"/>
<path class="st20" d="M27.52,7.469c2.045,0,3.703-1.658,3.703-3.703s-1.658-3.703-3.703-3.703s-3.703,1.658-3.703,3.703
	S25.475,7.469,27.52,7.469"/>
<g>
	<path class="st5" d="M50.719,4.524c0,3.12-1.82,4.836-4.459,4.836c-0.91,0-1.781-0.195-2.392-0.585l0.624-1.274
		c0.494,0.325,1.092,0.442,1.729,0.442c1.716,0,2.795-1.066,2.795-3.133V4.797c-0.546,0.638-1.417,0.949-2.431,0.949
		c-1.794,0-3.133-1.092-3.133-2.795C43.452,1.145,44.921,0,46.78,0C49.263,0,50.719,1.6,50.719,4.524z M48.756,2.86
		c0-0.858-0.676-1.534-1.885-1.534c-1.053,0-1.781,0.598-1.781,1.547s0.715,1.547,1.82,1.547C48.002,4.42,48.756,3.757,48.756,2.86z
		"/>
	<path class="st5" d="M58.584,6.436c0,1.599-1.157,2.925-3.602,2.925c-1.287,0-2.587-0.39-3.419-1.053l0.715-1.313
		c0.663,0.546,1.651,0.897,2.678,0.897c1.209,0,1.924-0.533,1.924-1.392c0-0.871-0.559-1.417-2.444-1.417H52.24l0.468-4.953h5.343
		v1.417h-3.913l-0.195,2.106h0.871C57.505,3.653,58.584,4.823,58.584,6.436z"/>
	<path class="st5" d="M63.004,2.535c0-1.495,0.871-2.496,2.171-2.496s2.184,0.988,2.184,2.496s-0.884,2.496-2.184,2.496
		S63.004,4.03,63.004,2.535z M66.293,2.535c0-1.014-0.416-1.586-1.118-1.586c-0.676,0-1.118,0.585-1.118,1.586
		s0.442,1.586,1.118,1.586C65.877,4.121,66.293,3.549,66.293,2.535z M70.635,0.13h1.274L65.694,9.23h-1.274L70.635,0.13z
		 M68.971,6.825c0-1.495,0.871-2.496,2.171-2.496c1.3,0,2.184,1.001,2.184,2.496s-0.884,2.496-2.184,2.496
		C69.841,9.321,68.971,8.32,68.971,6.825z M72.26,6.825c0-1.001-0.429-1.586-1.118-1.586s-1.118,0.572-1.118,1.586
		c0,1.015,0.429,1.586,1.118,1.586S72.26,7.826,72.26,6.825z"/>
</g>
<rect x="13.96" y="58.467" class="st11" width="13.149" height="16.764"/>
<polygon class="st21" points="13.96,75.23 13.96,75.23 27.109,75.23 27.109,58.466 13.96,58.466 "/>
<rect x="6.288" y="57.996" class="st9" width="21.291" height="24"/>
<line class="st22" x1="10.786" y1="66.162" x2="10.786" y2="76.549"/>
<line class="st23" x1="13.417" y1="78.437" x2="23.066" y2="78.437"/>
<path class="st21" d="M23.943,78.438h0.877 M10.786,77.494v0.944h0.877 M10.786,63.329v0.944"/>
<polyline class="st21" points="6.759,66.417 6.759,81.525 20.793,81.525 "/>
<rect x="6.288" y="57.996" class="st9" width="21.291" height="24"/>
<rect x="45.534" y="58.398" class="st11" width="14.674" height="18.705"/>
<polygon class="st24" points="45.534,77.102 45.534,77.102 60.207,77.102 60.207,58.397 45.534,58.397 "/>
<rect x="45.132" y="57.996" class="st9" width="19.884" height="24"/>
<rect x="49.941" y="62.889" class="st5" width="14.674" height="18.705"/>
<polygon class="st25" points="49.94,81.594 49.94,81.594 64.613,81.594 64.613,62.889 49.94,62.889 "/>
<rect x="45.132" y="57.996" class="st9" width="19.884" height="24"/>
<rect x="-53.359" y="61.944" class="st10" width="34.924" height="19.551"/>
<g>
	<path class="st11" d="M-39.118,73.463h-5.72c0.104,1.43,1.196,2.379,2.691,2.379c0.832,0,1.573-0.299,2.093-0.897l0.52,0.599
		c-0.611,0.728-1.56,1.118-2.639,1.118c-2.132,0-3.588-1.456-3.588-3.484s1.417-3.472,3.341-3.472c1.924,0,3.315,1.417,3.315,3.472
		C-39.104,73.255-39.118,73.358-39.118,73.463z M-44.838,72.773h4.849c-0.117-1.339-1.092-2.275-2.431-2.275
		C-43.745,70.498-44.721,71.435-44.838,72.773z"/>
	<path class="st11" d="M-37.87,67.6c0-0.352,0.299-0.65,0.676-0.65s0.676,0.286,0.676,0.637c0,0.378-0.286,0.677-0.676,0.677
		C-37.571,68.263-37.87,67.964-37.87,67.6z M-37.662,69.758h0.923v6.838h-0.923V69.758z"/>
	<path class="st11" d="M-28.445,72.631v3.965h-0.923v-3.874c0-1.443-0.754-2.185-2.054-2.185c-1.469,0-2.392,0.91-2.392,2.471v3.588
		h-0.923v-6.838h0.884v1.261c0.494-0.832,1.417-1.313,2.6-1.313C-29.589,69.705-28.445,70.667-28.445,72.631z"/>
</g>
<polygon class="st6" points="-88.367,61.819 -88.367,81.819 -88.367,82.069 -88.117,82.069 -19.268,82.069 -19.018,82.069 
	-19.018,81.819 -19.018,61.819 -19.018,61.569 -19.268,61.569 -88.117,61.569 -88.367,61.569 "/>
<rect x="-88.617" y="61.319" class="st9" width="70.183" height="21"/>
<line class="st26" x1="52.697" y1="151.458" x2="52.697" y2="175.719"/>
<path class="st5" d="M60.795,167.277L60.795,167.277h2.592l-2.494-2.46c-0.138-0.135-0.093-0.245,0.101-0.245h6.725v-1.339
	c0-0.193-0.157-0.35-0.35-0.35h-6.725l2.743-2.705h-2.242c-0.193,0-0.462,0.11-0.599,0.245l-3.102,3.059
	c-0.137,0.135-0.137,0.355,0,0.491L60.795,167.277z"/>
<line class="st26" x1="25.752" y1="175.552" x2="25.752" y2="151.292"/>
<path class="st5" d="M17.655,159.733L17.655,159.733h-2.592l2.494,2.46c0.138,0.135,0.093,0.245-0.101,0.245h-6.725v1.339
	c0,0.193,0.157,0.35,0.35,0.35h6.725l-2.743,2.705h2.242c0.193,0,0.462-0.11,0.599-0.245l3.102-3.059
	c0.137-0.135,0.137-0.355,0-0.491L17.655,159.733z"/>
<line class="st26" x1="-163.99" y1="159.33" x2="-139.73" y2="159.33"/>
<path class="st5" d="M-148.339,151.272L-148.339,151.272v-2.592l-2.46,2.494c-0.135,0.138-0.245,0.093-0.245-0.101v-6.725h-1.339
	c-0.193,0-0.35,0.157-0.35,0.35v6.725l-2.705-2.743v2.242c0,0.193,0.11,0.462,0.245,0.599l3.059,3.102
	c0.135,0.137,0.355,0.137,0.491,0L-148.339,151.272z"/>
<path class="st5" d="M-155.271,166.424L-155.271,166.424v2.592l2.46-2.494c0.135-0.138,0.245-0.093,0.245,0.101v6.725h1.339
	c0.193,0,0.35-0.157,0.35-0.35v-6.725l2.705,2.743v-2.242c0-0.193-0.11-0.462-0.245-0.599l-3.059-3.102
	c-0.135-0.137-0.355-0.137-0.491,0L-155.271,166.424z"/>
<line class="st26" x1="-107.544" y1="172.14" x2="-107.544" y2="147.88"/>
<path class="st5" d="M-115.601,156.489L-115.601,156.489h-2.592l2.494,2.46c0.138,0.135,0.093,0.245-0.101,0.245h-6.725v1.339
	c0,0.193,0.157,0.35,0.35,0.35h6.725l-2.743,2.705h2.242c0.193,0,0.462-0.11,0.599-0.245l3.102-3.059
	c0.137-0.135,0.137-0.355,0-0.491L-115.601,156.489z"/>
<path class="st5" d="M-100.449,163.422L-100.449,163.422h2.592l-2.494-2.46c-0.138-0.135-0.093-0.245,0.101-0.245h6.725v-1.339
	c0-0.193-0.157-0.35-0.35-0.35h-6.725l2.743-2.705h-2.242c-0.193,0-0.462,0.11-0.599,0.245l-3.102,3.059
	c-0.137,0.135-0.137,0.355,0,0.491L-100.449,163.422z"/>
<line class="st26" x1="-75.402" y1="159.613" x2="-51.142" y2="159.613"/>
<path class="st5" d="M-66.683,166.707L-66.683,166.707v2.592l2.46-2.494c0.135-0.138,0.245-0.093,0.245,0.101v6.725h1.339
	c0.193,0,0.35-0.157,0.35-0.35v-6.725l2.705,2.743v-2.242c0-0.193-0.11-0.462-0.245-0.599l-3.059-3.102
	c-0.135-0.137-0.355-0.137-0.491,0L-66.683,166.707z"/>
<line class="st26" x1="-30.291" y1="170.868" x2="-6.031" y2="170.868"/>
<path class="st5" d="M-14.473,162.48L-14.473,162.48v-2.592l-2.46,2.494c-0.135,0.138-0.245,0.093-0.245-0.101v-6.725h-1.339
	c-0.193,0-0.35,0.157-0.35,0.35v6.725l-2.705-2.743v2.242c0,0.193,0.11,0.462,0.245,0.599l3.059,3.102
	c0.135,0.137,0.355,0.137,0.491,0L-14.473,162.48z"/>
<rect x="115.573" y="143.942" class="st11" width="15.769" height="20.056"/>
<line class="st27" x1="118.529" y1="163.999" x2="129.37" y2="163.999"/>
<line class="st28" x1="131.341" y1="160.99" x2="131.341" y2="145.948"/>
<line class="st27" x1="128.385" y1="143.943" x2="117.544" y2="143.943"/>
<line class="st28" x1="115.572" y1="146.951" x2="115.572" y2="161.993"/>
<path class="st21" d="M115.572,162.996v1.003h0.986 M116.558,143.943h-0.986v1.003 M131.341,144.946v-1.003h-0.985 M130.356,163.999
	h0.985v-1.003"/>
<polygon class="st11" points="104.337,173.999 104.337,173.999 120.106,173.999 120.106,153.943 104.337,153.943 "/>
<line class="st27" x1="107.294" y1="173.999" x2="118.135" y2="173.999"/>
<line class="st28" x1="120.106" y1="170.99" x2="120.106" y2="155.948"/>
<line class="st27" x1="117.149" y1="153.943" x2="106.308" y2="153.943"/>
<line class="st28" x1="104.337" y1="156.951" x2="104.337" y2="171.993"/>
<path class="st21" d="M104.336,172.996v1.003h0.986 M105.322,153.943h-0.986v1.003 M120.105,154.946v-1.003h-0.985 M119.12,173.999
	h0.985v-1.003"/>
<polygon class="st11" points="94.862,181.999 94.862,181.999 110.631,181.999 110.631,161.943 94.862,161.943 "/>
<polygon class="st21" points="94.862,181.999 94.862,181.999 110.631,181.999 110.631,161.943 94.862,161.943 "/>
<g>
	<polygon class="st11" points="168.699,168.304 168.699,168.304 184.468,168.304 184.468,148.248 168.699,148.248 	"/>
	<polygon class="st21" points="168.699,168.304 168.699,168.304 184.468,168.304 184.468,148.248 168.699,148.248 	"/>
	<line class="st29" x1="164.935" y1="156.803" x2="164.935" y2="170.307"/>
	<line class="st30" x1="168.072" y1="172.108" x2="179.575" y2="172.108"/>
	<path class="st21" d="M180.62,172.107h1.046 M164.935,171.207v0.9h1.046 M164.935,154.102v0.9"/>
</g>
<g>
	<g>
		<rect x="241.239" y="136.528" class="st11" width="15.769" height="20.056"/>
		<polygon class="st21" points="241.239,156.584 241.239,156.584 257.008,156.584 257.008,136.528 241.239,136.528 		"/>
		<polygon class="st11" points="230.003,166.584 230.003,166.584 245.771,166.584 245.771,146.528 230.003,146.528 		"/>
		<line class="st27" x1="232.96" y1="166.584" x2="243.8" y2="166.584"/>
		<line class="st28" x1="245.771" y1="163.575" x2="245.771" y2="148.533"/>
		<line class="st27" x1="242.815" y1="146.528" x2="231.974" y2="146.528"/>
		<line class="st28" x1="230.003" y1="149.536" x2="230.003" y2="164.578"/>
		<path class="st21" d="M230.002,165.581v1.003h0.986 M230.988,146.528h-0.986v1.003 M245.771,147.531v-1.003h-0.985
			 M244.786,166.584h0.985v-1.003"/>
		<polygon class="st11" points="220.529,174.584 220.529,174.584 236.298,174.584 236.298,154.528 220.529,154.528 		"/>
		<line class="st27" x1="223.486" y1="174.584" x2="234.327" y2="174.584"/>
		<line class="st28" x1="236.298" y1="171.575" x2="236.298" y2="156.533"/>
		<line class="st27" x1="233.341" y1="154.528" x2="222.5" y2="154.528"/>
		<line class="st28" x1="220.529" y1="157.536" x2="220.529" y2="172.578"/>
		<path class="st21" d="M220.529,173.581v1.003h0.986 M221.515,154.528h-0.986v1.003 M236.298,155.531v-1.003h-0.985
			 M235.313,174.584h0.985v-1.003"/>
	</g>
	<line class="st27" x1="296.652" y1="170.069" x2="307.493" y2="170.069"/>
	<line class="st28" x1="309.464" y1="167.061" x2="309.464" y2="152.019"/>
	<line class="st27" x1="306.508" y1="150.013" x2="295.667" y2="150.013"/>
	<line class="st28" x1="293.695" y1="153.021" x2="293.695" y2="168.063"/>
	<path class="st21" d="M293.695,169.066v1.003h0.986 M294.681,150.013h-0.986v1.003 M309.464,151.016v-1.003h-0.985
		 M308.479,170.069h0.985v-1.003"/>
	<polyline class="st21" points="289.931,155.867 289.931,173.872 306.662,173.872 	"/>
</g>
<g>
	<defs>
		<rect id="SVGID_1_" x="-465.343" y="263.905" width="241.682" height="1"/>
	</defs>
	<clipPath id="SVGID_00000019641054860859289880000005072358022769589914_">
		<use xlink:href="#SVGID_1_"  style="overflow:visible;"/>
	</clipPath>
	
		<line style="clip-path:url(#SVGID_00000019641054860859289880000005072358022769589914_);fill:none;stroke:#B2B2B2;stroke-linecap:round;stroke-linejoin:round;stroke-dasharray:0,3.009;" x1="-461.835" y1="264.405" x2="-225.665" y2="264.405"/>
	
		<path style="clip-path:url(#SVGID_00000019641054860859289880000005072358022769589914_);fill:none;stroke:#B2B2B2;stroke-linecap:round;stroke-linejoin:round;" d="
		M-224.161,264.405L-224.161,264.405 M-464.843,264.405L-464.843,264.405"/>
</g>
<circle class="st33" cx="-418.445" cy="43.194" r="12.75"/>
<polygon class="st3" points="-275.052,28.171 -288.052,28.171 -281.684,38.646 "/>
<polygon class="st5" points="-267.029,156.712 -277.504,163.08 -267.029,169.712 "/>
<polygon class="st5" points="-296.076,169.712 -285.601,163.344 -296.076,156.712 "/>
<polygon class="st5" points="-213.523,156.712 -223.998,163.08 -213.523,169.712 "/>
<polygon class="st5" points="-248.699,169.712 -238.224,163.344 -248.699,156.712 "/>
<rect x="-88.45" y="28.182" class="st10" width="34.924" height="19.551"/>
<polygon class="st6" points="-88.2,28.057 -88.2,48.057 -88.2,48.307 -87.95,48.307 -19.101,48.307 -18.851,48.307 -18.851,48.057 
	-18.851,28.057 -18.851,27.807 -19.101,27.807 -87.95,27.807 -88.2,27.807 "/>
<rect x="-88.45" y="27.557" class="st9" width="69.849" height="21"/>
<rect x="-53.086" y="94.21" class="st10" width="34.924" height="19.551"/>
<polygon class="st6" points="-88.094,94.085 -88.094,114.085 -88.094,114.335 -87.844,114.335 -18.995,114.335 -18.745,114.335 
	-18.745,114.085 -18.745,94.085 -18.745,93.835 -18.995,93.835 -87.844,93.835 -88.094,93.835 "/>
<rect x="-88.344" y="93.585" class="st9" width="70.183" height="21"/>
<line class="st19" x1="34.945" y1="24.111" x2="-1.078" y2="24.111"/>
<path class="st20" d="M26.442,27.257c2.045,0,3.703-1.658,3.703-3.703s-1.658-3.703-3.703-3.703s-3.703,1.658-3.703,3.703
	S24.397,27.257,26.442,27.257"/>
<line class="st19" x1="343.269" y1="54.89" x2="307.246" y2="54.89"/>
<path class="st20" d="M334.766,58.037c2.045,0,3.703-1.658,3.703-3.703c0-2.045-1.658-3.703-3.703-3.703s-3.703,1.658-3.703,3.703
	C331.063,56.379,332.721,58.037,334.766,58.037"/>
</svg>
