<?xml version="1.0" encoding="utf-8"?>
<!-- Generator: Adobe Illustrator 26.0.3, SVG Export Plug-In . SVG Version: 6.00 Build 0)  -->
<svg version="1.1" id="Ebene_1" xmlns="http://www.w3.org/2000/svg" xmlns:xlink="http://www.w3.org/1999/xlink" x="0px" y="0px"
	 width="36.023px" height="7.406px" viewBox="0 0 36.023 7.406" style="enable-background:new 0 0 36.023 7.406;"
	 xml:space="preserve">
<style type="text/css">
	.st0{fill:none;stroke:#C5C5C5;stroke-width:3;stroke-linecap:round;stroke-linejoin:round;}
	.st1{fill:#FFAEFF;stroke:#4F4D4D;stroke-width:0.5;}
	.st2{fill:#F8F8F8;}
	.st3{fill:#0E689A;}
	.st4{fill:none;stroke:#B2B1B1;stroke-width:0.65;stroke-miterlimit:10;}
	.st5{fill:#B2B1B1;}
	.st6{fill:none;stroke:#B2B2B2;stroke-width:0.5;stroke-miterlimit:10;}
	.st7{fill:none;stroke:#B2B1B1;stroke-width:0.3;stroke-miterlimit:10;}
	.st8{fill:none;stroke:#FFFFFF;stroke-width:0.021;}
	.st9{fill:none;}
	.st10{fill:#0E6899;}
	.st11{fill:#FFFFFF;}
	.st12{fill:none;stroke:#C5C5C5;stroke-width:0.5;stroke-linecap:round;stroke-linejoin:round;}
	.st13{fill:#C5C5C5;}
	.st14{fill:none;stroke:#B2B1B1;stroke-width:0.5;}
	.st15{fill:none;stroke:#B2B1B1;stroke-width:1.2;}
	.st16{fill:#B2B2B2;}
	.st17{fill:none;stroke:#FFFFFF;stroke-width:0.001;}
	.st18{fill:none;stroke:#B2B1B1;stroke-width:1.712;}
	.st19{fill:none;stroke:#B2B1B1;stroke-width:2;}
	.st20{fill:#AD5E7A;}
	.st21{fill:none;stroke:#B2B1B1;stroke-width:0.941;}
	.st22{fill:none;stroke:#B2B1B1;stroke-width:0.941;stroke-dasharray:1.889,1.889;}
	.st23{fill:none;stroke:#B2B1B1;stroke-width:0.941;stroke-dasharray:1.754,1.754;}
	.st24{fill:none;stroke:#B2B1B1;stroke-width:0.804;}
	.st25{fill:none;stroke:#FFFFFF;stroke-width:0.804;}
	.st26{fill:none;stroke:#B2B1B1;stroke-width:2.5;}
	.st27{fill:none;stroke:#B2B1B1;stroke-width:0.941;stroke-dasharray:1.971,1.971;}
	.st28{fill:none;stroke:#B2B1B1;stroke-width:0.941;stroke-dasharray:2.006,2.006;}
	.st29{fill:none;stroke:#B2B1B1;stroke-width:0.941;stroke-dasharray:1.801,1.801;}
	.st30{fill:none;stroke:#B2B1B1;stroke-width:0.941;stroke-dasharray:2.091,2.091;}
	
		.st31{clip-path:url(#SVGID_00000098902200187839260040000016568905470911605946_);fill:none;stroke:#B2B2B2;stroke-linecap:round;stroke-linejoin:round;stroke-dasharray:0,3.009;}
	
		.st32{clip-path:url(#SVGID_00000098902200187839260040000016568905470911605946_);fill:none;stroke:#B2B2B2;stroke-linecap:round;stroke-linejoin:round;}
	.st33{fill:none;stroke:#4F4D4D;stroke-width:0.5;}
</style>
<polyline class="st0" points="1574.526,949.999 1568.276,940.999 1561.526,949.999 "/>
<circle class="st1" cx="-417.367" cy="-12.75" r="12.75"/>
<rect x="-384.907" y="-23.765" class="st2" width="119.902" height="21"/>
<polygon class="st3" points="-274.078,-18.502 -287.078,-18.502 -280.71,-8.027 "/>
<g>
	<g>
		<line class="st4" x1="-161.065" y1="-6.244" x2="-150.782" y2="-6.244"/>
		<g>
			<path class="st5" d="M-159.778-11.47v-5.175h1.3v5.122c0,2.016,0.923,2.926,2.561,2.926c1.638,0,2.574-0.91,2.574-2.926v-5.122
				h1.261v5.175c0,2.639-1.443,4.029-3.848,4.029C-158.322-7.441-159.778-8.831-159.778-11.47z"/>
		</g>
	</g>
	<polygon class="st6" points="-169.174,-24.445 -169.174,1.555 -169.174,1.805 -168.924,1.805 -142.924,1.805 -142.674,1.805 
		-142.674,1.555 -142.674,-24.445 -142.674,-24.695 -142.924,-24.695 -168.924,-24.695 -169.174,-24.695 	"/>
</g>
<g>
	<g>
		<path class="st5" d="M-190.528-16.371h1.3l-1.82,9.101h-1.3L-190.528-16.371z"/>
	</g>
	<polygon class="st6" points="-204.038,-24.821 -204.038,1.179 -204.038,1.429 -203.788,1.429 -177.788,1.429 -177.538,1.429 
		-177.538,1.179 -177.538,-24.821 -177.538,-25.071 -177.788,-25.071 -203.788,-25.071 -204.038,-25.071 	"/>
</g>
<g>
	<g>
		<path class="st5" d="M-223.676-9.702c0,1.573-1.248,2.483-3.64,2.483h-4.706v-9.101h4.446c2.275,0,3.445,0.949,3.445,2.366
			c0,0.91-0.468,1.612-1.209,2.002C-224.326-11.626-223.676-10.846-223.676-9.702z M-229.929-14.733v2.146h2.093
			c1.027,0,1.586-0.364,1.586-1.079s-0.559-1.066-1.586-1.066H-229.929z M-225.795-9.923c0-0.767-0.585-1.131-1.677-1.131h-2.457
			v2.249h2.457C-226.38-8.805-225.795-9.143-225.795-9.923z"/>
	</g>
	<polygon class="st6" points="-241.099,-24.769 -241.099,1.231 -241.099,1.481 -240.849,1.481 -214.849,1.481 -214.599,1.481 
		-214.599,1.231 -214.599,-24.769 -214.599,-25.019 -214.849,-25.019 -240.849,-25.019 -241.099,-25.019 	"/>
</g>
<path class="st7" d="M-186.911,17.185"/>
<path class="st7" d="M-189.419,18.438"/>
<path class="st7" d="M-189.419,19.692"/>
<path class="st7" d="M-189.419,20.947"/>
<path class="st7" d="M-186.911,22.201"/>
<path class="st7" d="M-186.911,23.455"/>
<path class="st7" d="M-189.419,24.708"/>
<path class="st7" d="M-189.419,27.216"/>
<path class="st7" d="M-186.911,29.724"/>
<g>
	<path class="st7" d="M-206.376,22.201"/>
	<path class="st7" d="M-206.376,17.185"/>
	<path class="st7" d="M-206.376,29.724"/>
	<path class="st7" d="M-206.376,23.455"/>
	<g>
		<path class="st7" d="M-204.313,24.708"/>
		<path class="st7" d="M-204.313,20.947"/>
		<path class="st7" d="M-204.313,19.692"/>
		<path class="st7" d="M-204.313,18.438"/>
		<line class="st7" x1="-206.751" y1="28.929" x2="-187.287" y2="28.929"/>
		<line class="st7" x1="-206.751" y1="27.654" x2="-191.857" y2="27.654"/>
		<line class="st7" x1="-206.751" y1="26.378" x2="-191.857" y2="26.378"/>
		<line class="st7" x1="-206.751" y1="25.102" x2="-191.857" y2="25.102"/>
		<line class="st7" x1="-206.751" y1="23.826" x2="-187.287" y2="23.826"/>
		<line class="st7" x1="-206.751" y1="22.55" x2="-187.287" y2="22.55"/>
		<line class="st7" x1="-206.678" y1="21.274" x2="-191.784" y2="21.274"/>
		<line class="st7" x1="-206.751" y1="19.998" x2="-187.287" y2="19.998"/>
		<line class="st7" x1="-206.751" y1="18.722" x2="-191.857" y2="18.722"/>
		<line class="st7" x1="-206.751" y1="17.446" x2="-191.857" y2="17.446"/>
		<line class="st7" x1="-206.751" y1="16.17" x2="-187.287" y2="16.17"/>
	</g>
	<polygon class="st6" points="-210.078,9.875 -210.078,35.868 -210.078,36.118 -209.828,36.118 -183.835,36.118 -183.585,36.118 
		-183.585,35.868 -183.585,9.875 -183.585,9.625 -183.835,9.625 -209.828,9.625 -210.078,9.625 	"/>
</g>
<g>
	<g>
		<line class="st7" x1="-156.031" y1="16.487" x2="-175.495" y2="16.487"/>
		<line class="st7" x1="-158.539" y1="17.764" x2="-173.433" y2="17.764"/>
		<line class="st7" x1="-158.539" y1="19.041" x2="-173.433" y2="19.041"/>
		<line class="st7" x1="-158.539" y1="20.318" x2="-173.433" y2="20.318"/>
		<line class="st7" x1="-156.031" y1="21.595" x2="-175.495" y2="21.595"/>
		<line class="st7" x1="-156.031" y1="22.872" x2="-175.495" y2="22.872"/>
		<line class="st7" x1="-158.539" y1="24.149" x2="-173.433" y2="24.149"/>
		<line class="st7" x1="-156.031" y1="25.426" x2="-175.495" y2="25.426"/>
		<line class="st7" x1="-158.539" y1="26.703" x2="-173.433" y2="26.703"/>
		<line class="st7" x1="-158.539" y1="27.98" x2="-173.433" y2="27.98"/>
		<line class="st7" x1="-156.031" y1="29.257" x2="-175.495" y2="29.257"/>
	</g>
	<polygon class="st6" points="-179.009,9.875 -179.009,35.868 -179.009,36.118 -178.759,36.118 -152.766,36.118 -152.516,36.118 
		-152.516,35.868 -152.516,9.875 -152.516,9.625 -152.766,9.625 -178.759,9.625 -179.009,9.625 	"/>
</g>
<polygon class="st6" points="-147.941,9.875 -147.941,35.868 -147.941,36.118 -147.691,36.118 -121.698,36.118 -121.448,36.118 
	-121.448,35.868 -121.448,9.875 -121.448,9.625 -121.698,9.625 -147.691,9.625 -147.941,9.625 "/>
<path class="st7" d="M-144.614,28.56"/>
<path class="st7" d="M-144.614,23.543"/>
<path class="st7" d="M-144.614,22.29"/>
<path class="st7" d="M-144.614,16.02"/>
<path class="st7" d="M-127.212,21.036"/>
<path class="st7" d="M-125.15,23.543"/>
<path class="st7" d="M-127.212,24.797"/>
<path class="st7" d="M-125.15,28.56"/>
<path class="st7" d="M-125.15,16.02"/>
<path class="st7" d="M-125.15,22.29"/>
<path class="st7" d="M-127.212,26.052"/>
<path class="st7" d="M-127.212,27.306"/>
<g>
	<path class="st7" d="M-142.294,26.983"/>
	<path class="st7" d="M-142.294,25.729"/>
	<path class="st7" d="M-142.294,24.475"/>
	<path class="st7" d="M-142.294,20.713"/>
	<path class="st7" d="M-142.294,18.205"/>
	<line class="st7" x1="-124.962" y1="16.493" x2="-144.426" y2="16.493"/>
	<line class="st7" x1="-124.962" y1="17.768" x2="-139.856" y2="17.768"/>
	<line class="st7" x1="-124.962" y1="19.044" x2="-139.856" y2="19.044"/>
	<line class="st7" x1="-124.962" y1="20.32" x2="-139.856" y2="20.32"/>
	<line class="st7" x1="-124.962" y1="21.596" x2="-144.426" y2="21.596"/>
	<line class="st7" x1="-124.962" y1="22.872" x2="-144.426" y2="22.872"/>
	<line class="st7" x1="-125.035" y1="24.148" x2="-139.929" y2="24.148"/>
	<line class="st7" x1="-124.962" y1="25.424" x2="-144.426" y2="25.424"/>
	<line class="st7" x1="-124.962" y1="26.7" x2="-139.856" y2="26.7"/>
	<line class="st7" x1="-124.962" y1="27.976" x2="-139.856" y2="27.976"/>
	<line class="st7" x1="-124.962" y1="29.251" x2="-144.426" y2="29.251"/>
</g>
<polygon class="st6" points="-240.849,9.882 -240.849,35.875 -240.849,36.125 -240.599,36.125 -214.606,36.125 -214.356,36.125 
	-214.356,35.875 -214.356,9.882 -214.356,9.632 -214.606,9.632 -240.599,9.632 -240.849,9.632 "/>
<path class="st7" d="M-217.682,17.185"/>
<path class="st7" d="M-217.682,22.201"/>
<path class="st7" d="M-217.682,23.455"/>
<path class="st7" d="M-217.682,29.724"/>
<path class="st7" d="M-235.085,24.708"/>
<path class="st7" d="M-237.147,22.201"/>
<path class="st7" d="M-235.085,20.947"/>
<path class="st7" d="M-237.147,17.185"/>
<path class="st7" d="M-237.147,29.724"/>
<path class="st7" d="M-237.147,23.455"/>
<path class="st7" d="M-235.085,19.692"/>
<path class="st7" d="M-235.085,18.438"/>
<g>
	<path class="st7" d="M-220.19,18.438"/>
	<path class="st7" d="M-220.19,19.692"/>
	<path class="st7" d="M-220.19,20.947"/>
	<path class="st7" d="M-220.19,24.708"/>
	<path class="st7" d="M-220.19,27.216"/>
	<line class="st7" x1="-237.522" y1="28.929" x2="-218.058" y2="28.929"/>
	<line class="st7" x1="-237.522" y1="27.654" x2="-218.058" y2="27.654"/>
	<line class="st7" x1="-237.522" y1="26.378" x2="-218.058" y2="26.378"/>
	<line class="st7" x1="-237.522" y1="25.102" x2="-218.058" y2="25.102"/>
	<line class="st7" x1="-237.522" y1="23.826" x2="-218.058" y2="23.826"/>
	<line class="st7" x1="-237.522" y1="22.55" x2="-218.058" y2="22.55"/>
	<line class="st7" x1="-237.449" y1="21.274" x2="-217.985" y2="21.274"/>
	<line class="st7" x1="-237.522" y1="19.998" x2="-218.058" y2="19.998"/>
	<line class="st7" x1="-237.522" y1="18.722" x2="-218.058" y2="18.722"/>
	<line class="st7" x1="-237.522" y1="17.446" x2="-218.058" y2="17.446"/>
	<line class="st7" x1="-237.522" y1="16.17" x2="-218.058" y2="16.17"/>
</g>
<path class="st5" d="M-410.406,125.031l-1.915,13.335c-0.058,0.402-0.431,0.682-0.834,0.624c-0.402-0.058-0.682-0.431-0.624-0.833
	l1.915-13.336c0.058-0.402,0.431-0.681,0.834-0.623C-410.628,124.256-410.348,124.628-410.406,125.031 M-417.223,139.106
	c-0.407,0.003-0.74-0.324-0.742-0.73l-0.106-13.472c-0.003-0.407,0.324-0.739,0.73-0.742c0.408-0.003,0.74,0.324,0.743,0.731
	l0.105,13.471C-416.49,138.771-416.817,139.103-417.223,139.106 M-421.294,139.053c-0.401,0.064-0.779-0.209-0.842-0.61
	l-2.124-13.304c-0.064-0.402,0.209-0.779,0.612-0.843c0.401-0.064,0.778,0.209,0.842,0.611l2.123,13.303
	C-420.619,138.612-420.892,138.989-421.294,139.053 M-407.511,122.645c-0.141-0.169-0.353-0.266-0.573-0.264l-18.538,0.144
	c-0.22,0.002-0.429,0.101-0.568,0.272c-0.14,0.17-0.196,0.393-0.155,0.609l3.092,16.141c0.068,0.351,0.376,0.605,0.734,0.602
	l12.497-0.098c0.356-0.002,0.66-0.258,0.724-0.608l2.949-16.188C-407.309,123.039-407.37,122.814-407.511,122.645"/>
<path class="st8" d="M-410.406,125.031l-1.915,13.335c-0.058,0.402-0.431,0.682-0.834,0.624c-0.402-0.058-0.682-0.431-0.624-0.833
	l1.915-13.336c0.058-0.402,0.431-0.681,0.834-0.623C-410.628,124.256-410.348,124.628-410.406,125.031z M-417.223,139.106
	c-0.407,0.003-0.74-0.324-0.742-0.73l-0.106-13.472c-0.003-0.407,0.324-0.739,0.73-0.742c0.408-0.003,0.74,0.324,0.743,0.731
	l0.105,13.471C-416.49,138.771-416.817,139.103-417.223,139.106z M-421.294,139.053c-0.401,0.064-0.779-0.209-0.842-0.61
	l-2.124-13.304c-0.064-0.402,0.209-0.779,0.612-0.843c0.401-0.064,0.778,0.209,0.842,0.611l2.123,13.303
	C-420.619,138.612-420.892,138.989-421.294,139.053z M-407.511,122.645c-0.141-0.169-0.353-0.266-0.573-0.264l-18.538,0.144
	c-0.22,0.002-0.429,0.101-0.568,0.272c-0.14,0.17-0.196,0.393-0.155,0.609l3.092,16.141c0.068,0.351,0.376,0.605,0.734,0.602
	l12.497-0.098c0.356-0.002,0.66-0.258,0.724-0.608l2.949-16.188C-407.309,123.039-407.37,122.814-407.511,122.645z"/>
<path class="st5" d="M-420.198,118.038L-420.198,118.038l-0.004-0.421l5.49-0.043l0.004,0.421L-420.198,118.038z M-406.461,119.448
	L-406.461,119.448l-2.025,0.016l-0.009-1.171c-0.001-0.091-0.038-0.18-0.103-0.244c-0.065-0.064-0.155-0.1-0.246-0.1l-4.467,0.035
	l-0.009-1.12c-0.002-0.184-0.077-0.363-0.209-0.492c-0.131-0.13-0.311-0.203-0.495-0.201l-6.887,0.054
	c-0.183,0.001-0.363,0.077-0.492,0.208c-0.129,0.131-0.202,0.312-0.2,0.496l0.009,1.12l-4.164,0.032
	c-0.091,0.001-0.18,0.039-0.243,0.104c-0.065,0.065-0.101,0.154-0.101,0.246l0.009,1.171l-2.197,0.017l0.017,2.225l21.829-0.17
	L-406.461,119.448z"/>
<path class="st8" d="M-420.198,118.038L-420.198,118.038l-0.004-0.421l5.49-0.043l0.004,0.421L-420.198,118.038z M-406.461,119.448
	L-406.461,119.448l-2.025,0.016l-0.009-1.171c-0.001-0.091-0.038-0.18-0.103-0.244c-0.065-0.064-0.155-0.1-0.246-0.1l-4.467,0.035
	l-0.009-1.12c-0.002-0.184-0.077-0.363-0.209-0.492c-0.131-0.13-0.311-0.203-0.495-0.201l-6.887,0.054
	c-0.183,0.001-0.363,0.077-0.492,0.208c-0.129,0.131-0.202,0.312-0.2,0.496l0.009,1.12l-4.164,0.032
	c-0.091,0.001-0.18,0.039-0.243,0.104c-0.065,0.065-0.101,0.154-0.101,0.246l0.009,1.171l-2.197,0.017l0.017,2.225l21.829-0.17
	L-406.461,119.448z"/>
<rect x="-428.302" y="116.159" class="st9" width="21.868" height="24"/>
<rect x="-87.372" y="-24.608" class="st10" width="34.924" height="19.551"/>
<g>
	<path class="st11" d="M-74.395-14.195v4.238h-0.884v-1.066c-0.416,0.702-1.222,1.132-2.354,1.132c-1.547,0-2.496-0.807-2.496-1.989
		c0-1.054,0.676-1.938,2.639-1.938h2.171v-0.416c0-1.17-0.663-1.807-1.938-1.807c-0.884,0-1.716,0.312-2.275,0.806l-0.416-0.688
		c0.689-0.585,1.703-0.924,2.782-0.924C-75.396-16.848-74.395-15.963-74.395-14.195z M-75.318-12.011v-1.118h-2.146
		c-1.326,0-1.755,0.52-1.755,1.222c0,0.793,0.637,1.287,1.729,1.287C-76.449-10.62-75.682-11.114-75.318-12.011z"/>
	<path class="st11" d="M-66.296-16.795v6.838h-0.884v-1.248c-0.481,0.832-1.365,1.313-2.458,1.313c-1.742,0-2.886-0.976-2.886-2.938
		v-3.965h0.923v3.874c0,1.456,0.754,2.197,2.054,2.197c1.43,0,2.327-0.924,2.327-2.483v-3.588H-66.296z"/>
	<path class="st11" d="M-64.996-10.737l0.416-0.728c0.546,0.429,1.469,0.767,2.431,0.767c1.3,0,1.833-0.441,1.833-1.118
		c0-1.78-4.433-0.377-4.433-3.081c0-1.118,0.962-1.95,2.704-1.95c0.884,0,1.846,0.247,2.418,0.638l-0.403,0.74
		c-0.598-0.416-1.313-0.585-2.015-0.585c-1.235,0-1.781,0.481-1.781,1.132c0,1.846,4.434,0.455,4.434,3.081
		c0,1.183-1.04,1.95-2.821,1.95C-63.345-9.892-64.437-10.256-64.996-10.737z"/>
</g>
<polygon class="st6" points="-87.122,-24.733 -87.122,-4.733 -87.122,-4.483 -86.872,-4.483 -18.023,-4.483 -17.773,-4.483 
	-17.773,-4.733 -17.773,-24.733 -17.773,-24.983 -18.023,-24.983 -86.872,-24.983 -87.122,-24.983 "/>
<rect x="-87.372" y="-25.233" class="st9" width="69.849" height="21"/>
<rect x="-491.769" y="182.097" class="st11" width="1014" height="21"/>
<path class="st3" d="M135.392,182.097c-2.209,0-4,1.791-4,4v12.382c0,2.209,1.791,4,4,4h77.131c2.209,0,4-1.791,4-4v-12.382
	c0-2.209-1.791-4-4-4H135.392z"/>
<rect x="-491.519" y="182.347" class="st12" width="1013.5" height="20.5"/>
<path class="st13" d="M506.087,184.957v1.481c0,0.397,0.187,0.771,0.505,1.009l6.367,4.762c0.258,0.194,0.258,0.583,0,0.776
	l-6.367,4.762c-0.318,0.238-0.505,0.612-0.505,1.01v1.48c0,0.41,0.467,0.644,0.795,0.399l10.111-7.563
	c0.318-0.237,0.318-0.714,0-0.952l-10.11-7.562C506.554,184.313,506.087,184.548,506.087,184.957"/>
<path class="st13" d="M-475.916,200.237v-1.481c0-0.397-0.187-0.771-0.505-1.009l-6.367-4.762c-0.258-0.194-0.258-0.583,0-0.776
	l6.367-4.762c0.318-0.238,0.505-0.612,0.505-1.01v-1.48c0-0.41-0.467-0.644-0.795-0.399l-10.111,7.563
	c-0.318,0.237-0.318,0.714,0,0.952l10.11,7.562C-476.383,200.881-475.916,200.646-475.916,200.237"/>
<rect x="-491.769" y="182.097" class="st9" width="1014" height="21"/>
<rect x="564.003" y="-62.449" class="st11" width="21" height="702.123"/>
<path class="st3" d="M564.003,351.513c0,2.209,1.791,4,4,4h12.382c2.209,0,4-1.791,4-4v-78.286c0-2.209-1.791-4-4-4h-12.382
	c-2.209,0-4,1.791-4,4V351.513z"/>
<rect x="564.253" y="-62.2" class="st12" width="20.5" height="701.624"/>
<path class="st13" d="M566.863-48.913h1.481c0.397,0,0.771-0.19,1.009-0.512l4.762-6.453c0.194-0.262,0.583-0.262,0.776,0
	l4.762,6.453c0.238,0.322,0.612,0.512,1.01,0.512h1.48c0.41,0,0.644-0.474,0.399-0.806l-7.563-10.248
	c-0.237-0.322-0.714-0.322-0.952,0l-7.562,10.248C566.219-49.387,566.454-48.913,566.863-48.913"/>
<path class="st13" d="M582.143,625.338h-1.481c-0.397,0-0.771,0.19-1.009,0.512l-4.762,6.453c-0.194,0.262-0.583,0.262-0.776,0
	l-4.762-6.453c-0.238-0.322-0.612-0.512-1.01-0.512h-1.48c-0.41,0-0.644,0.474-0.399,0.806l7.563,10.248
	c0.237,0.322,0.714,0.322,0.952,0l7.562-10.248C582.787,625.812,582.552,625.338,582.143,625.338"/>
<rect x="564.003" y="-62.45" class="st9" width="21" height="702.124"/>
<g>
	<g>
		<line class="st7" x1="-156.971" y1="60.53" x2="-169.988" y2="60.53"/>
		<line class="st7" x1="-156.971" y1="50.354" x2="-169.988" y2="50.354"/>
		<line class="st7" x1="-156.971" y1="55.442" x2="-169.988" y2="55.442"/>
		<g>
			<path class="st5" d="M-173.63,48.884v2.104h-0.487v-1.714h-0.421v-0.391H-173.63z"/>
		</g>
		<g>
			<path class="st5" d="M-172.869,55.852v0.396h-1.59v-0.315l0.812-0.767c0.187-0.178,0.22-0.286,0.22-0.388
				c0-0.165-0.114-0.262-0.337-0.262c-0.18,0-0.333,0.069-0.436,0.21l-0.355-0.228c0.163-0.238,0.457-0.392,0.836-0.392
				c0.469,0,0.781,0.241,0.781,0.623c0,0.204-0.057,0.391-0.352,0.664l-0.484,0.457H-172.869z"/>
		</g>
		<g>
			<path class="st5" d="M-172.887,60.61c0,0.354-0.273,0.68-0.872,0.68c-0.295,0-0.599-0.081-0.803-0.226l0.189-0.373
				c0.159,0.121,0.382,0.189,0.601,0.189c0.244,0,0.394-0.099,0.394-0.271c0-0.159-0.117-0.258-0.394-0.258h-0.223V60.03l0.433-0.49
				h-0.896v-0.391h1.473v0.316l-0.475,0.541C-173.08,60.066-172.887,60.301-172.887,60.61z"/>
		</g>
	</g>
	<polygon class="st6" points="-179.016,42.087 -179.016,68.087 -179.016,68.337 -178.766,68.337 -152.766,68.337 -152.516,68.337 
		-152.516,68.087 -152.516,42.087 -152.516,41.837 -152.766,41.837 -178.766,41.837 -179.016,41.837 	"/>
</g>
<polygon class="st6" points="-240.849,42.087 -240.849,68.087 -240.849,68.337 -240.599,68.337 -214.599,68.337 -214.349,68.337 
	-214.349,68.087 -214.349,42.087 -214.349,41.837 -214.599,41.837 -240.599,41.837 -240.849,41.837 "/>
<g>
	<polygon class="st6" points="-210.507,42.087 -210.507,68.087 -210.507,68.337 -210.257,68.337 -184.257,68.337 -184.007,68.337 
		-184.007,68.087 -184.007,42.087 -184.007,41.837 -184.257,41.837 -210.257,41.837 -210.507,41.837 	"/>
	<path class="st7" d="M-188.975,60.212h-13.016 M-188.975,55.079h-13.016 M-188.975,49.947h-13.016"/>
	<path class="st5" d="M-204.078,55.664c0.161-0.156,0.241-0.349,0.241-0.581c0-0.15-0.037-0.288-0.11-0.414
		c-0.073-0.125-0.172-0.224-0.297-0.297c-0.126-0.073-0.264-0.11-0.415-0.11c-0.15,0-0.288,0.037-0.41,0.11
		c-0.122,0.073-0.221,0.172-0.294,0.297c-0.072,0.126-0.11,0.264-0.11,0.414c0,0.232,0.08,0.425,0.238,0.581
		c0.157,0.156,0.35,0.234,0.576,0.234C-204.432,55.898-204.239,55.82-204.078,55.664"/>
	<path class="st5" d="M-204.655,51.029c0.489,0,0.885-0.396,0.885-0.885c0-0.488-0.396-0.885-0.885-0.885
		c-0.488,0-0.885,0.397-0.885,0.885C-205.54,50.633-205.143,51.029-204.655,51.029"/>
	<path class="st5" d="M-204.078,60.681c0.161-0.156,0.241-0.349,0.241-0.581c0-0.15-0.037-0.288-0.11-0.414
		c-0.073-0.125-0.172-0.224-0.297-0.297c-0.126-0.073-0.264-0.11-0.415-0.11c-0.15,0-0.288,0.037-0.41,0.11
		c-0.122,0.073-0.221,0.172-0.294,0.297c-0.072,0.126-0.11,0.264-0.11,0.414c0,0.232,0.08,0.425,0.238,0.581
		c0.157,0.156,0.35,0.234,0.576,0.234C-204.432,60.915-204.239,60.837-204.078,60.681"/>
</g>
<path class="st7" d="M-219.317,60.219h-13.016 M-219.317,55.086h-13.016 M-219.317,49.954h-13.016"/>
<rect x="-235.881" y="49.185" class="st5" width="1.77" height="1.77"/>
<rect x="-235.881" y="54.201" class="st5" width="1.77" height="1.77"/>
<rect x="-235.881" y="59.219" class="st5" width="1.77" height="1.77"/>
<rect x="102.641" y="-25.702" class="st2" width="245" height="57.75"/>
<text transform="matrix(1 0 0 1 177.3383 0.4932)"><tspan x="0" y="0" class="st5" style="font-family:'Montserrat-Regular'; font-size:13px;">N</tspan><tspan x="10.478" y="0" class="st5" style="font-family:'Montserrat-Regular'; font-size:13px;">e</tspan><tspan x="18.135" y="0" class="st5" style="font-family:'Montserrat-Regular'; font-size:13px;">u</tspan><tspan x="26.753" y="0" class="st5" style="font-family:'Montserrat-Regular'; font-size:13px;">e </tspan><tspan x="38.011" y="0" class="st5" style="font-family:'Montserrat-Regular'; font-size:13px; letter-spacing:-1;">T</tspan><tspan x="44.381" y="0" class="st5" style="font-family:'Montserrat-Regular'; font-size:13px;">e</tspan><tspan x="51.882" y="0" class="st5" style="font-family:'Montserrat-Regular'; font-size:13px;">x</tspan><tspan x="59.097" y="0" class="st5" style="font-family:'Montserrat-Regular'; font-size:13px;">t</tspan><tspan x="64.128" y="0" class="st5" style="font-family:'Montserrat-Regular'; font-size:13px;">b</tspan><tspan x="72.942" y="0" class="st5" style="font-family:'Montserrat-Regular'; font-size:13px;">o</tspan><tspan x="80.742" y="0" class="st5" style="font-family:'Montserrat-Regular'; font-size:13px;">x </tspan></text>
<path class="st14" d="M225.141,22.256c3.707,0,6.713-3.005,6.713-6.712c0-3.708-3.006-6.713-6.713-6.713
	c-3.707,0-6.712,3.005-6.712,6.713C218.429,19.251,221.434,22.256,225.141,22.256z"/>
<rect x="102.641" y="-25.702" class="st9" width="245" height="57.75"/>
<line class="st15" x1="225.141" y1="12.01" x2="225.141" y2="19.079"/>
<line class="st15" x1="221.606" y1="15.575" x2="228.674" y2="15.575"/>
<path class="st14" d="M114.179,62.092c3.707,0,6.713-3.005,6.713-6.712c0-3.708-3.006-6.713-6.713-6.713
	c-3.707,0-6.712,3.005-6.712,6.713C107.467,59.087,110.472,62.092,114.179,62.092z"/>
<line class="st15" x1="114.179" y1="51.845" x2="114.179" y2="58.914"/>
<line class="st15" x1="110.645" y1="55.411" x2="117.713" y2="55.411"/>
<g>
	<path class="st16" d="M-381.713,77.227h-3.138v-1.85h8.544v1.85h-3.138v7.956h-2.269V77.227z"/>
	<path class="st16" d="M-375.093,75.377h2.269v9.806h-2.269V75.377z"/>
	<path class="st16" d="M-361.998,78.936c0,2.185-1.639,3.544-4.258,3.544h-1.975v2.703h-2.269v-9.806h4.244
		C-363.637,75.377-361.998,76.737-361.998,78.936z M-364.295,78.936c0-1.079-0.701-1.709-2.087-1.709h-1.849v3.403h1.849
		C-364.996,80.63-364.295,80-364.295,78.936z"/>
	<path class="st16" d="M-351.876,78.936c0,2.185-1.639,3.544-4.258,3.544h-1.975v2.703h-2.269v-9.806h4.244
		C-353.515,75.377-351.876,76.737-351.876,78.936z M-354.173,78.936c0-1.079-0.701-1.709-2.087-1.709h-1.849v3.403h1.849
		C-354.874,80.63-354.173,80-354.173,78.936z"/>
</g>
<path class="st16" d="M-418.341,70.906L-418.341,70.906c-1.054,2.474-1.96,4.602-2.889,6.784h5.729
	C-416.445,75.434-417.327,73.326-418.341,70.906 M-414.848,88.496L-414.848,88.496c-0.346-1.15-0.211-1.759,1.044-1.8
	c0.976-0.033,1.343-0.74,1.02-1.64c-0.507-1.414-1.072-2.81-1.681-4.183c-0.109-0.245-0.55-0.478-0.843-0.484
	c-2.129-0.041-4.261-0.046-6.39,0.005c-0.305,0.008-0.741,0.315-0.877,0.599c-0.558,1.155-1.057,2.342-1.512,3.542
	c-0.57,1.504-0.268,2.026,1.348,2.192c0.783,0.081,1.206,0.319,1.022,1.126c-0.056,0.243-0.355,0.61-0.547,0.613
	c-2.524,0.042-5.049,0.028-7.596,0.028c-0.214-0.956-0.321-1.631,0.868-1.885c0.569-0.122,1.219-0.609,1.515-1.117
	c0.755-1.293,1.377-2.67,1.972-4.049c2.401-5.559,4.761-11.135,7.172-16.689c0.173-0.398,0.634-0.67,0.96-1
	c0.319,0.343,0.766,0.632,0.937,1.037c2.56,6.048,5.079,12.114,7.622,18.17c0.326,0.776,0.705,1.534,1.106,2.275
	c0.507,0.939,1.332,1.389,2.379,1.595c0.265,0.052,0.519,0.638,0.586,1.013c0.032,0.175-0.39,0.621-0.611,0.624
	C-408.506,88.509-411.659,88.496-414.848,88.496"/>
<path class="st5" d="M-321.103,80.958c2.682-0.014,4.762-2.036,4.751-4.621c-0.01-2.367-2.203-4.406-4.733-4.399
	c-2.703,0.008-4.848,2.038-4.825,4.568C-325.887,78.97-323.727,80.971-321.103,80.958 M-315.548,80.971L-315.548,80.971
	c0.393-0.231,0.569-0.207,0.91,0.115c1.249,1.181,2.501,2.361,3.751,3.541c0.086,0.08,0.173,0.159,0.252,0.246
	c0.216,0.237,0.217,0.464-0.012,0.692c-0.249,0.248-0.509,0.488-0.767,0.727c-0.302,0.28-0.548,0.287-0.855,0
	c-1.177-1.103-2.348-2.211-3.522-3.318c-0.132-0.124-0.263-0.25-0.396-0.373c-0.368-0.34-0.394-0.487-0.153-0.896
	c-0.368-0.336-0.737-0.673-1.128-1.029c-1.472,1.07-3.153,1.471-5.011,1.06c-1.415-0.313-2.544-1.054-3.377-2.178
	c-1.65-2.23-1.286-5.335,0.823-7.11c2.222-1.87,5.521-1.904,7.68-0.117c2.217,1.835,2.765,5.106,0.696,7.583
	C-316.287,80.267-315.918,80.618-315.548,80.971"/>
<path class="st17" d="M-321.103,80.958c2.682-0.014,4.762-2.036,4.751-4.621c-0.01-2.367-2.203-4.406-4.733-4.399
	c-2.703,0.008-4.848,2.038-4.825,4.568C-325.887,78.97-323.727,80.971-321.103,80.958z M-315.548,80.971L-315.548,80.971
	c0.393-0.231,0.569-0.207,0.91,0.115c1.249,1.181,2.501,2.361,3.751,3.541c0.086,0.08,0.173,0.159,0.252,0.246
	c0.216,0.237,0.217,0.464-0.012,0.692c-0.249,0.248-0.509,0.488-0.767,0.727c-0.302,0.28-0.548,0.287-0.855,0
	c-1.177-1.103-2.348-2.211-3.522-3.318c-0.132-0.124-0.263-0.25-0.396-0.373c-0.368-0.34-0.394-0.487-0.153-0.896
	c-0.368-0.336-0.737-0.673-1.128-1.029c-1.472,1.07-3.153,1.471-5.011,1.06c-1.415-0.313-2.544-1.054-3.377-2.178
	c-1.65-2.23-1.286-5.335,0.823-7.11c2.222-1.87,5.521-1.904,7.68-0.117c2.217,1.835,2.765,5.106,0.696,7.583
	C-316.287,80.267-315.918,80.618-315.548,80.971z"/>
<path class="st5" d="M-257.388,71.378l2.966,2.98V71.6c0-0.096-0.055-0.229-0.123-0.297l-3.807-3.826
	c-0.068-0.067-0.178-0.067-0.245,0l-3.93,3.949v2.758c0,0.096,0.055,0.119,0.122,0.051l2.844-2.857
	c0.068-0.068,0.122-0.046,0.122,0.05v7.829h0v2.168c0,0.096-0.055,0.118-0.123,0.05l-2.966-2.98v2.758
	c0,0.096,0.055,0.229,0.123,0.297l3.807,3.826c0.068,0.067,0.178,0.067,0.245,0l3.93-3.949v-2.758c0-0.096-0.055-0.119-0.122-0.051
	l-2.844,2.857c-0.068,0.068-0.122,0.046-0.122-0.05v-7.829h0v-2.168C-257.511,71.332-257.456,71.309-257.388,71.378z"/>
<line class="st18" x1="-293.527" y1="84.614" x2="-265.694" y2="84.614"/>
<line class="st18" x1="-293.527" y1="76.318" x2="-265.694" y2="76.318"/>
<line class="st18" x1="-293.527" y1="68.326" x2="-265.694" y2="68.326"/>
<line class="st18" x1="-279.185" y1="103.585" x2="-279.185" y2="124.585"/>
<path class="st5" d="M-271.725,117.428L-271.725,117.428h2.695l-2.603-2.569c-0.138-0.135-0.093-0.245,0.101-0.245h7.006v-1.407
	c0-0.193-0.157-0.35-0.35-0.35h-6.656c-0.194,0-0.239-0.11-0.101-0.246l2.603-2.569h-2.345c-0.193,0-0.462,0.111-0.599,0.246
	l-3.245,3.201c-0.137,0.136-0.137,0.356,0,0.492L-271.725,117.428z"/>
<path class="st5" d="M-287.496,110.217L-287.496,110.217h-2.695l2.603,2.569c0.138,0.135,0.093,0.245-0.101,0.245h-7.006v1.407
	c0,0.193,0.157,0.35,0.35,0.35h6.656c0.194,0,0.239,0.11,0.101,0.246l-2.603,2.569h2.345c0.193,0,0.462-0.111,0.599-0.246
	l3.245-3.201c0.137-0.136,0.137-0.356,0-0.492L-287.496,110.217z"/>
<line class="st19" x1="37.101" y1="-15.528" x2="1.078" y2="-15.528"/>
<path class="st20" d="M28.598-12.382c2.045,0,3.703-1.658,3.703-3.703s-1.658-3.703-3.703-3.703s-3.703,1.658-3.703,3.703
	S26.553-12.382,28.598-12.382"/>
<g>
	<path class="st5" d="M51.797-15.327c0,3.12-1.82,4.836-4.459,4.836c-0.91,0-1.781-0.195-2.392-0.585l0.624-1.274
		c0.494,0.325,1.092,0.442,1.729,0.442c1.716,0,2.795-1.066,2.795-3.133v-0.014c-0.546,0.638-1.417,0.949-2.431,0.949
		c-1.794,0-3.133-1.092-3.133-2.795c0-1.807,1.469-2.951,3.328-2.951C50.341-19.851,51.797-18.251,51.797-15.327z M49.834-16.991
		c0-0.858-0.676-1.534-1.885-1.534c-1.053,0-1.781,0.598-1.781,1.547s0.715,1.547,1.82,1.547
		C49.08-15.431,49.834-16.094,49.834-16.991z"/>
	<path class="st5" d="M59.662-13.416c0,1.599-1.157,2.925-3.602,2.925c-1.287,0-2.587-0.39-3.419-1.053l0.715-1.313
		c0.663,0.546,1.651,0.897,2.678,0.897c1.209,0,1.924-0.533,1.924-1.392c0-0.871-0.559-1.417-2.444-1.417h-2.197l0.468-4.953h5.343
		v1.417h-3.913l-0.195,2.106h0.871C58.583-16.198,59.662-15.028,59.662-13.416z"/>
	<path class="st5" d="M64.081-17.316c0-1.495,0.871-2.496,2.171-2.496s2.184,0.988,2.184,2.496s-0.884,2.496-2.184,2.496
		S64.081-15.821,64.081-17.316z M67.37-17.316c0-1.014-0.416-1.586-1.118-1.586c-0.676,0-1.118,0.585-1.118,1.586
		s0.442,1.586,1.118,1.586C66.954-15.73,67.37-16.302,67.37-17.316z M71.713-19.721h1.274l-6.214,9.101h-1.274L71.713-19.721z
		 M70.049-13.026c0-1.495,0.871-2.496,2.171-2.496c1.3,0,2.184,1.001,2.184,2.496s-0.884,2.496-2.184,2.496
		C70.919-10.53,70.049-11.531,70.049-13.026z M73.338-13.026c0-1.001-0.429-1.586-1.118-1.586s-1.118,0.572-1.118,1.586
		c0,1.015,0.429,1.586,1.118,1.586S73.338-12.025,73.338-13.026z"/>
</g>
<rect x="15.038" y="38.615" class="st11" width="13.149" height="16.764"/>
<polygon class="st21" points="15.037,55.379 15.037,55.379 28.186,55.379 28.186,38.615 15.037,38.615 "/>
<rect x="7.366" y="38.144" class="st9" width="21.291" height="24"/>
<line class="st22" x1="11.863" y1="46.31" x2="11.863" y2="56.697"/>
<line class="st23" x1="14.495" y1="58.586" x2="24.144" y2="58.586"/>
<path class="st21" d="M25.02,58.586h0.877 M11.863,57.642v0.944h0.877 M11.863,43.477v0.944"/>
<polyline class="st21" points="7.836,46.566 7.836,61.674 21.87,61.674 "/>
<rect x="7.366" y="38.144" class="st9" width="21.291" height="24"/>
<rect x="46.612" y="38.546" class="st11" width="14.674" height="18.705"/>
<polygon class="st24" points="46.612,57.251 46.612,57.251 61.285,57.251 61.285,38.546 46.612,38.546 "/>
<rect x="46.21" y="38.144" class="st9" width="19.884" height="24"/>
<rect x="51.019" y="43.037" class="st5" width="14.674" height="18.705"/>
<polygon class="st25" points="51.018,61.742 51.018,61.742 65.691,61.742 65.691,43.037 51.018,43.037 "/>
<rect x="46.21" y="38.144" class="st9" width="19.884" height="24"/>
<rect x="-52.281" y="42.093" class="st10" width="34.924" height="19.551"/>
<g>
	<path class="st11" d="M-38.04,53.612h-5.72c0.104,1.43,1.196,2.379,2.691,2.379c0.832,0,1.573-0.299,2.093-0.897l0.52,0.599
		c-0.611,0.728-1.56,1.118-2.639,1.118c-2.132,0-3.588-1.456-3.588-3.484s1.417-3.472,3.341-3.472c1.924,0,3.315,1.417,3.315,3.472
		C-38.027,53.404-38.04,53.507-38.04,53.612z M-43.76,52.922h4.849c-0.117-1.339-1.092-2.275-2.431-2.275
		C-42.668,50.647-43.643,51.583-43.76,52.922z"/>
	<path class="st11" d="M-36.792,47.748c0-0.352,0.299-0.65,0.676-0.65s0.676,0.286,0.676,0.637c0,0.378-0.286,0.677-0.676,0.677
		C-36.493,48.412-36.792,48.113-36.792,47.748z M-36.584,49.907h0.923v6.838h-0.923V49.907z"/>
	<path class="st11" d="M-27.367,52.78v3.965h-0.923v-3.874c0-1.443-0.754-2.185-2.054-2.185c-1.469,0-2.392,0.91-2.392,2.471v3.588
		h-0.923v-6.838h0.884v1.261c0.494-0.832,1.417-1.313,2.6-1.313C-28.511,49.854-27.367,50.816-27.367,52.78z"/>
</g>
<polygon class="st6" points="-87.289,41.968 -87.289,61.968 -87.289,62.218 -87.039,62.218 -18.19,62.218 -17.94,62.218 
	-17.94,61.968 -17.94,41.968 -17.94,41.718 -18.19,41.718 -87.039,41.718 -87.289,41.718 "/>
<rect x="-87.539" y="41.468" class="st9" width="70.183" height="21"/>
<line class="st26" x1="53.775" y1="131.607" x2="53.775" y2="155.867"/>
<path class="st5" d="M61.872,147.426L61.872,147.426h2.592l-2.494-2.46c-0.138-0.135-0.093-0.245,0.101-0.245h6.725v-1.339
	c0-0.193-0.157-0.35-0.35-0.35h-6.725l2.743-2.705h-2.242c-0.193,0-0.462,0.11-0.599,0.245l-3.102,3.059
	c-0.137,0.135-0.137,0.355,0,0.491L61.872,147.426z"/>
<line class="st26" x1="26.83" y1="155.701" x2="26.83" y2="131.441"/>
<path class="st5" d="M18.733,139.882L18.733,139.882h-2.592l2.494,2.46c0.138,0.135,0.093,0.245-0.101,0.245h-6.725v1.339
	c0,0.193,0.157,0.35,0.35,0.35h6.725l-2.743,2.705h2.242c0.193,0,0.462-0.11,0.599-0.245l3.102-3.059
	c0.137-0.135,0.137-0.355,0-0.491L18.733,139.882z"/>
<line class="st26" x1="-162.912" y1="139.479" x2="-138.652" y2="139.479"/>
<path class="st5" d="M-147.261,131.421L-147.261,131.421v-2.592l-2.46,2.494c-0.135,0.138-0.245,0.093-0.245-0.101v-6.725h-1.339
	c-0.193,0-0.35,0.157-0.35,0.35v6.725l-2.705-2.743v2.242c0,0.193,0.11,0.462,0.245,0.599l3.059,3.102
	c0.135,0.137,0.355,0.137,0.491,0L-147.261,131.421z"/>
<path class="st5" d="M-154.193,146.573L-154.193,146.573v2.592l2.46-2.494c0.135-0.138,0.245-0.093,0.245,0.101v6.725h1.339
	c0.193,0,0.35-0.157,0.35-0.35v-6.725l2.705,2.743v-2.242c0-0.193-0.11-0.462-0.245-0.599l-3.059-3.102
	c-0.135-0.137-0.355-0.137-0.491,0L-154.193,146.573z"/>
<line class="st26" x1="-106.466" y1="152.289" x2="-106.466" y2="128.029"/>
<path class="st5" d="M-114.524,136.638L-114.524,136.638h-2.592l2.494,2.46c0.138,0.135,0.093,0.245-0.101,0.245h-6.725v1.339
	c0,0.193,0.157,0.35,0.35,0.35h6.725l-2.743,2.705h2.242c0.193,0,0.462-0.11,0.599-0.245l3.102-3.059
	c0.137-0.135,0.137-0.355,0-0.491L-114.524,136.638z"/>
<path class="st5" d="M-99.372,143.571L-99.372,143.571h2.592l-2.494-2.46c-0.138-0.135-0.093-0.245,0.101-0.245h6.725v-1.339
	c0-0.193-0.157-0.35-0.35-0.35h-6.725l2.743-2.705h-2.242c-0.193,0-0.462,0.11-0.599,0.245l-3.102,3.059
	c-0.137,0.135-0.137,0.355,0,0.491L-99.372,143.571z"/>
<line class="st26" x1="-74.325" y1="139.762" x2="-50.065" y2="139.762"/>
<path class="st5" d="M-65.605,146.856L-65.605,146.856v2.592l2.46-2.494c0.135-0.138,0.245-0.093,0.245,0.101v6.725h1.339
	c0.193,0,0.35-0.157,0.35-0.35v-6.725l2.705,2.743v-2.242c0-0.193-0.11-0.462-0.245-0.599l-3.059-3.102
	c-0.135-0.137-0.355-0.137-0.491,0L-65.605,146.856z"/>
<line class="st26" x1="-29.213" y1="151.017" x2="-4.953" y2="151.017"/>
<path class="st5" d="M-13.395,142.629L-13.395,142.629v-2.592l-2.46,2.494c-0.135,0.138-0.245,0.093-0.245-0.101v-6.725h-1.339
	c-0.193,0-0.35,0.157-0.35,0.35v6.725l-2.705-2.743v2.242c0,0.193,0.11,0.462,0.245,0.599l3.059,3.102
	c0.135,0.137,0.355,0.137,0.491,0L-13.395,142.629z"/>
<rect x="116.65" y="124.091" class="st11" width="15.769" height="20.056"/>
<line class="st27" x1="119.607" y1="144.148" x2="130.448" y2="144.148"/>
<line class="st28" x1="132.419" y1="141.139" x2="132.419" y2="126.097"/>
<line class="st27" x1="129.463" y1="124.091" x2="118.622" y2="124.091"/>
<line class="st28" x1="116.65" y1="127.1" x2="116.65" y2="142.142"/>
<path class="st21" d="M116.65,143.145v1.003h0.986 M117.636,124.092h-0.986v1.003 M132.419,125.095v-1.003h-0.985 M131.434,144.148
	h0.985v-1.003"/>
<polygon class="st11" points="105.414,154.148 105.414,154.148 121.183,154.148 121.183,134.092 105.414,134.092 "/>
<line class="st27" x1="108.371" y1="154.148" x2="119.212" y2="154.148"/>
<line class="st28" x1="121.183" y1="151.139" x2="121.183" y2="136.097"/>
<line class="st27" x1="118.227" y1="134.091" x2="107.386" y2="134.091"/>
<line class="st28" x1="105.414" y1="137.1" x2="105.414" y2="152.142"/>
<path class="st21" d="M105.414,153.145v1.003h0.986 M106.4,134.092h-0.986v1.003 M121.183,135.095v-1.003h-0.985 M120.198,154.148
	h0.985v-1.003"/>
<polygon class="st11" points="95.94,162.148 95.94,162.148 111.709,162.148 111.709,142.092 95.94,142.092 "/>
<polygon class="st21" points="95.94,162.148 95.94,162.148 111.709,162.148 111.709,142.092 95.94,142.092 "/>
<g>
	<polygon class="st11" points="169.777,148.453 169.777,148.453 185.546,148.453 185.546,128.397 169.777,128.397 	"/>
	<polygon class="st21" points="169.777,148.453 169.777,148.453 185.546,148.453 185.546,128.397 169.777,128.397 	"/>
	<line class="st29" x1="166.013" y1="136.952" x2="166.013" y2="150.456"/>
	<line class="st30" x1="169.15" y1="152.257" x2="180.653" y2="152.257"/>
	<path class="st21" d="M181.698,152.256h1.046 M166.013,151.356v0.9h1.046 M166.013,134.251v0.9"/>
</g>
<g>
	<g>
		<rect x="242.317" y="116.677" class="st11" width="15.769" height="20.056"/>
		<polygon class="st21" points="242.317,136.733 242.317,136.733 258.086,136.733 258.086,116.677 242.317,116.677 		"/>
		<polygon class="st11" points="231.08,146.733 231.08,146.733 246.849,146.733 246.849,126.677 231.08,126.677 		"/>
		<line class="st27" x1="234.037" y1="146.733" x2="244.878" y2="146.733"/>
		<line class="st28" x1="246.849" y1="143.724" x2="246.849" y2="128.682"/>
		<line class="st27" x1="243.893" y1="126.677" x2="233.052" y2="126.677"/>
		<line class="st28" x1="231.08" y1="129.685" x2="231.08" y2="144.727"/>
		<path class="st21" d="M231.08,145.73v1.003h0.986 M232.066,126.677h-0.986v1.003 M246.849,127.68v-1.003h-0.985 M245.864,146.733
			h0.985v-1.003"/>
		<polygon class="st11" points="221.607,154.733 221.607,154.733 237.376,154.733 237.376,134.677 221.607,134.677 		"/>
		<line class="st27" x1="224.564" y1="154.733" x2="235.405" y2="154.733"/>
		<line class="st28" x1="237.376" y1="151.724" x2="237.376" y2="136.682"/>
		<line class="st27" x1="234.419" y1="134.677" x2="223.578" y2="134.677"/>
		<line class="st28" x1="221.607" y1="137.685" x2="221.607" y2="152.727"/>
		<path class="st21" d="M221.606,153.73v1.003h0.986 M222.592,134.677h-0.986v1.003 M237.375,135.68v-1.003h-0.985 M236.39,154.733
			h0.985v-1.003"/>
	</g>
	<line class="st27" x1="297.73" y1="150.218" x2="308.571" y2="150.218"/>
	<line class="st28" x1="310.542" y1="147.21" x2="310.542" y2="132.168"/>
	<line class="st27" x1="307.586" y1="130.162" x2="296.745" y2="130.162"/>
	<line class="st28" x1="294.773" y1="133.17" x2="294.773" y2="148.212"/>
	<path class="st21" d="M294.773,149.215v1.003h0.986 M295.759,130.162h-0.986v1.003 M310.542,131.165v-1.003h-0.985
		 M309.557,150.218h0.985v-1.003"/>
	<polyline class="st21" points="291.009,136.016 291.009,154.021 307.74,154.021 	"/>
</g>
<g>
	<defs>
		<rect id="SVGID_1_" x="-464.266" y="244.054" width="241.682" height="1"/>
	</defs>
	<clipPath id="SVGID_00000005225595780180928050000012140602274904139916_">
		<use xlink:href="#SVGID_1_"  style="overflow:visible;"/>
	</clipPath>
	
		<line style="clip-path:url(#SVGID_00000005225595780180928050000012140602274904139916_);fill:none;stroke:#B2B2B2;stroke-linecap:round;stroke-linejoin:round;stroke-dasharray:0,3.009;" x1="-460.757" y1="244.554" x2="-224.587" y2="244.554"/>
	
		<path style="clip-path:url(#SVGID_00000005225595780180928050000012140602274904139916_);fill:none;stroke:#B2B2B2;stroke-linecap:round;stroke-linejoin:round;" d="
		M-223.084,244.554L-223.084,244.554 M-463.766,244.554L-463.766,244.554"/>
</g>
<circle class="st33" cx="-417.367" cy="23.343" r="12.75"/>
<polygon class="st3" points="-273.975,8.32 -286.975,8.32 -280.607,18.795 "/>
<polygon class="st5" points="-265.951,136.861 -276.426,143.229 -265.951,149.861 "/>
<polygon class="st5" points="-294.998,149.861 -284.523,143.493 -294.998,136.861 "/>
<polygon class="st5" points="-212.445,136.861 -222.92,143.229 -212.445,149.861 "/>
<polygon class="st5" points="-247.622,149.861 -237.147,143.493 -247.622,136.861 "/>
<rect x="-87.372" y="8.33" class="st10" width="34.924" height="19.551"/>
<polygon class="st6" points="-87.122,8.205 -87.122,28.205 -87.122,28.455 -86.872,28.455 -18.023,28.455 -17.773,28.455 
	-17.773,28.205 -17.773,8.205 -17.773,7.955 -18.023,7.955 -86.872,7.955 -87.122,7.955 "/>
<rect x="-87.372" y="7.705" class="st9" width="69.849" height="21"/>
<rect x="-52.008" y="74.359" class="st10" width="34.924" height="19.551"/>
<polygon class="st6" points="-87.016,74.234 -87.016,94.234 -87.016,94.484 -86.766,94.484 -17.917,94.484 -17.667,94.484 
	-17.667,94.234 -17.667,74.234 -17.667,73.984 -17.917,73.984 -86.766,73.984 -87.016,73.984 "/>
<rect x="-87.266" y="73.734" class="st9" width="70.183" height="21"/>
<line class="st19" x1="36.023" y1="4.26" x2="0" y2="4.26"/>
<path class="st20" d="M27.52,7.406c2.045,0,3.703-1.658,3.703-3.703S29.565,0,27.52,0s-3.703,1.658-3.703,3.703
	S25.475,7.406,27.52,7.406"/>
<line class="st19" x1="344.347" y1="35.039" x2="308.324" y2="35.039"/>
<path class="st20" d="M335.844,38.185c2.045,0,3.703-1.658,3.703-3.703c0-2.045-1.658-3.703-3.703-3.703s-3.703,1.658-3.703,3.703
	C332.141,36.527,333.799,38.185,335.844,38.185"/>
</svg>
