<?xml version="1.0" encoding="utf-8"?>
<!-- Generator: Adobe Illustrator 26.2.1, SVG Export Plug-In . SVG Version: 6.00 Build 0)  -->
<svg version="1.1" id="Ebene_1" xmlns="http://www.w3.org/2000/svg" xmlns:xlink="http://www.w3.org/1999/xlink" x="0px" y="0px"
	 width="27px" height="27px" viewBox="0 0 27 27" enable-background="new 0 0 27 27" xml:space="preserve">
<g>
	<line fill="none" stroke="#B2B1B1" stroke-width="0.65" stroke-miterlimit="10" x1="8.35" y1="18.65" x2="18.65" y2="18.65"/>
	<g>
		<path fill="#B2B1B1" d="M9.65,13.45v-5.2h1.3v5.1c0,2,0.9,2.9,2.6,2.9s2.6-0.9,2.6-2.9v-5.1h1.3v5.2c0,2.6-1.4,4-3.8,4
			C11.05,17.45,9.65,16.15,9.65,13.45z"/>
	</g>
</g>
<polygon fill="none" stroke="#B2B2B2" stroke-width="0.5" stroke-miterlimit="10" points="0.25,0.45 0.25,26.45 0.25,26.75 
	0.45,26.75 26.45,26.75 26.75,26.75 26.75,26.45 26.75,0.45 26.75,0.25 26.45,0.25 0.45,0.25 0.25,0.25 "/>
</svg>
