<?xml version="1.0" encoding="utf-8"?>
<!-- Generator: Adobe Illustrator 26.2.1, SVG Export Plug-In . SVG Version: 6.00 Build 0)  -->
<svg version="1.1" id="Ebene_1" xmlns="http://www.w3.org/2000/svg" xmlns:xlink="http://www.w3.org/1999/xlink" x="0px" y="0px"
	 width="328.695px" height="329.068px" viewBox="0 0 328.695 329.068" enable-background="new 0 0 328.695 329.068"
	 xml:space="preserve">
<g>
	<path fill="#B1B1B1" d="M164.683,27.665c-42.002,0-84.004-0.003-126.007,0.002c-10.355,0.001-11.275,0.89-11.276,10.971
		c-0.005,59.323-0.004,118.646-0.001,177.969c0.001,9.985,1.225,11.237,11.139,11.238c83.787,0.007,167.575,0.007,251.362,0.001
		c9.833,0,11.413-1.526,11.415-11.148c0.012-59.539,0.012-119.079-0.001-178.618c-0.002-9.13-1.307-10.404-10.624-10.407
		C248.688,27.658,206.686,27.666,164.683,27.665 M0.006,164.586C0.007,119.118-0.001,73.65,0.011,28.183
		C0.016,10.219,10.067,0.042,28.16,0.032c90.936-0.047,181.871-0.043,272.807,0.014c17.47,0.011,27.705,10.468,27.709,28.056
		c0.022,90.935,0.026,181.87,0.004,272.804c-0.004,17.922-10.254,28.131-28.3,28.138c-90.718,0.031-181.435,0.033-272.153,0.001
		c-18.165-0.006-28.205-10.043-28.214-28.056C-0.011,255.521,0.005,210.054,0.006,164.586"/>
	<path fill="#B1B1B1" d="M126.438,208.948c-24.01,0.001-48.02,0.059-72.029-0.09c-2.358-0.015-6.238-0.768-6.709-2.12
		c-0.734-2.107,0.225-5.405,1.54-7.537c23.831-38.635,47.812-77.177,71.794-115.719c3.885-6.245,6.441-6.327,10.232-0.245
		c24.125,38.709,48.225,77.434,72.205,116.234c1.239,2.005,2.544,5.766,1.614,6.895c-1.4,1.702-4.742,2.46-7.267,2.479
		C174.025,209.017,150.232,208.947,126.438,208.948"/>
	<path fill="#B1B1B1" d="M256.799,209.029L256.799,209.029c-18.598,5.259-28.953-3.896-36.377-19.804
		c-3.807-8.157-9.341-15.538-14.38-23.078c-2.675-4.001-2.825-7.168,0.538-10.947c6.03-6.776,11.694-13.882,17.4-20.94
		c3.44-4.255,6.456-4.448,9.714,0.221c15.332,21.969,30.781,43.856,46.025,65.886c1.163,1.68,2.065,4.831,1.252,6.235
		c-0.853,1.476-3.891,2.218-6.021,2.323C268.913,209.222,262.851,209.029,256.799,209.029"/>
	<path fill="#B1B1B1" d="M259.147,72.992c-0.098,12.404-10.004,22.17-22.312,21.997c-12.259-0.171-22.148-10.383-21.862-22.575
		c0.28-11.94,10.246-21.716,22.137-21.716C249.426,50.698,259.245,60.631,259.147,72.992"/>
</g>
</svg>
