<?xml version="1.0" encoding="utf-8"?>
<!-- Generator: Adobe Illustrator 26.2.1, SVG Export Plug-In . SVG Version: 6.00 Build 0)  -->
<svg version="1.1" id="Ebene_1" xmlns="http://www.w3.org/2000/svg" xmlns:xlink="http://www.w3.org/1999/xlink" x="0px" y="0px"
	 width="217.616px" height="200.618px" viewBox="0 0 217.616 200.618" enable-background="new 0 0 217.616 200.618"
	 xml:space="preserve">
<path fill="#b2b2b2" d="M118.525,45.35c0,4.83-3.916,8.746-8.746,8.746s-8.746-3.916-8.746-8.746V8.746
	c0-4.831,3.916-8.746,8.746-8.746s8.746,3.915,8.746,8.746V45.35z"/>
<path fill="#b2b2b2" d="M155.186,12.685c-3.023,0-5.961,1.568-7.577,4.373L129.302,48.76c-2.413,4.181-0.979,9.531,3.202,11.946
	c1.378,0.795,2.881,1.173,4.364,1.173c3.022,0,5.962-1.569,7.583-4.373l18.303-31.701c2.417-4.183,0.983-9.532-3.202-11.947
	C158.174,13.063,156.67,12.685,155.186,12.685"/>
<g opacity="0.88">
	<g>
		<defs>
			<rect id="SVGID_1_" x="138.709" y="39.371" width="67.194" height="43.796"/>
		</defs>
		<clipPath id="SVGID_00000146472473410208237360000013794776640021781926_">
			<use xlink:href="#SVGID_1_"  overflow="visible"/>
		</clipPath>
		<path clip-path="url(#SVGID_00000146472473410208237360000013794776640021781926_)" fill="#b2b2b2" d="M160.826,80.995
			c-4.18,2.414-9.53,0.981-11.943-3.202c-2.417-4.183-0.984-9.533,3.201-11.947l31.697-18.301c4.185-2.416,9.535-0.984,11.947,3.2
			c2.418,4.183,0.984,9.532-3.201,11.947L160.826,80.995z"/>
	</g>
</g>
<g opacity="0.88">
	<g>
		<defs>
			<rect id="SVGID_00000107562477941665261710000000990204650959950763_" x="145.519" y="85.033" width="72.097" height="25.494"/>
		</defs>
		<clipPath id="SVGID_00000089533061093129057750000008356279648891792037_">
			<use xlink:href="#SVGID_00000107562477941665261710000000990204650959950763_"  overflow="visible"/>
		</clipPath>
		<path clip-path="url(#SVGID_00000089533061093129057750000008356279648891792037_)" fill="#b2b2b2" d="M163.265,109.527
			c-4.83-0.001-8.746-3.917-8.746-8.746c0-4.831,3.92-8.746,8.746-8.748l36.605,0.002c4.83,0,8.746,3.916,8.746,8.745
			c0,4.831-3.916,8.746-8.746,8.748L163.265,109.527z"/>
	</g>
</g>
<g opacity="0.75">
	<g>
		<defs>
			<rect id="SVGID_00000159448031564342088010000004133936586567218090_" x="137.737" y="112.132" width="67.196" height="43.797"/>
		</defs>
		<clipPath id="SVGID_00000034799481203659757700000014104849487293578676_">
			<use xlink:href="#SVGID_00000159448031564342088010000004133936586567218090_"  overflow="visible"/>
		</clipPath>
		<path clip-path="url(#SVGID_00000034799481203659757700000014104849487293578676_)" fill="#b2b2b2" d="M151.11,135.452
			c-4.18-2.414-5.614-7.763-3.201-11.944c2.417-4.186,7.767-5.618,11.947-3.205l31.701,18.304c4.185,2.415,5.619,7.765,3.202,11.947
			c-2.413,4.184-7.763,5.614-11.948,3.203L151.11,135.452z"/>
	</g>
</g>
<g opacity="0.75">
	<g>
		<defs>
			<rect id="SVGID_00000149341209004326736330000015288795810451093431_" x="117.45" y="131.711" width="53.796" height="57.194"/>
		</defs>
		<clipPath id="SVGID_00000176765632370389237970000015982825963549420447_">
			<use xlink:href="#SVGID_00000149341209004326736330000015288795810451093431_"  overflow="visible"/>
		</clipPath>
		<path clip-path="url(#SVGID_00000176765632370389237970000015982825963549420447_)" fill="#b2b2b2" d="M127.622,151.829
			c-2.413-4.181-0.979-9.53,3.201-11.945c4.185-2.415,9.535-0.981,11.948,3.198l18.302,31.702c2.413,4.184,0.984,9.533-3.201,11.948
			c-4.185,2.415-9.534,0.979-11.947-3.201L127.622,151.829z"/>
	</g>
</g>
<g opacity="0.57">
	<g>
		<defs>
			<rect id="SVGID_00000170271522696637628980000007233515751253184400_" x="90.087" y="138.523" width="35.497" height="62.095"/>
		</defs>
		<clipPath id="SVGID_00000134231896127484219780000009648974344573033610_">
			<use xlink:href="#SVGID_00000170271522696637628980000007233515751253184400_"  overflow="visible"/>
		</clipPath>
		<path clip-path="url(#SVGID_00000134231896127484219780000009648974344573033610_)" fill="#b2b2b2" d="M99.092,154.268
			c0-4.83,3.916-8.745,8.746-8.745s8.746,3.916,8.746,8.743v36.606c0,4.83-3.916,8.746-8.746,8.746s-8.75-3.918-8.75-8.746
			L99.092,154.268z"/>
	</g>
</g>
<g opacity="0.57">
	<g>
		<defs>
			<rect id="SVGID_00000049925432766295349260000003048359573163365510_" x="44.687" y="130.74" width="53.799" height="57.195"/>
		</defs>
		<clipPath id="SVGID_00000090984753440633935060000005889489102702700475_">
			<use xlink:href="#SVGID_00000049925432766295349260000003048359573163365510_"  overflow="visible"/>
		</clipPath>
		<path clip-path="url(#SVGID_00000090984753440633935060000005889489102702700475_)" fill="#b2b2b2" d="M73.165,142.113
			c2.413-4.182,7.763-5.615,11.947-3.199c4.181,2.414,5.615,7.765,3.202,11.944l-18.307,31.703
			c-2.413,4.182-7.763,5.616-11.943,3.201c-4.185-2.415-5.619-7.768-3.206-11.948L73.165,142.113z"/>
	</g>
</g>
<g opacity="0.33">
	<g>
		<defs>
			<rect id="SVGID_00000152231363282104114850000016288255567812070795_" x="11.713" y="110.45" width="67.194" height="43.798"/>
		</defs>
		<clipPath id="SVGID_00000046340007061638364450000001958397905450470797_">
			<use xlink:href="#SVGID_00000152231363282104114850000016288255567812070795_"  overflow="visible"/>
		</clipPath>
		<path clip-path="url(#SVGID_00000046340007061638364450000001958397905450470797_)" fill="#b2b2b2" d="M56.786,118.623
			c4.185-2.414,9.535-0.98,11.947,3.203c2.418,4.184,0.979,9.532-3.201,11.946l-31.701,18.302c-4.185,2.416-9.53,0.984-11.943-3.201
			c-2.417-4.183-0.984-9.534,3.197-11.947L56.786,118.623z"/>
	</g>
</g>
<g opacity="0.33">
	<g>
		<defs>
			<rect id="SVGID_00000159429205411861084510000018200131496536017559_" y="83.09" width="72.093" height="25.494"/>
		</defs>
		<clipPath id="SVGID_00000116943145182492059610000011055828792099740822_">
			<use xlink:href="#SVGID_00000159429205411861084510000018200131496536017559_"  overflow="visible"/>
		</clipPath>
		<path clip-path="url(#SVGID_00000116943145182492059610000011055828792099740822_)" fill="#b2b2b2" d="M54.351,90.091
			c4.826,0,8.742,3.918,8.742,8.747c0,4.832-3.921,8.746-8.742,8.746H17.742c-4.826,0-8.742-3.916-8.742-8.744
			c0-4.832,3.916-8.75,8.742-8.75L54.351,90.091z"/>
	</g>
</g>
<path fill="#b2b2b2" d="M66.502,64.165c4.18,2.415,5.619,7.765,3.201,11.948c-2.413,4.184-7.767,5.614-11.943,3.202L26.059,61.012
	c-4.185-2.416-5.619-7.764-3.206-11.946c2.417-4.184,7.767-5.62,11.948-3.205L66.502,64.165z"/>
<path fill="#b2b2b2" d="M89.99,47.789c2.417,4.18,0.983,9.532-3.201,11.945c-4.181,2.418-9.531,0.98-11.944-3.198L56.543,24.835
	c-2.413-4.183-0.983-9.532,3.201-11.946c4.181-2.416,9.535-0.985,11.948,3.197L89.99,47.789z"/>
</svg>
