<?xml version="1.0" encoding="utf-8"?>
<!-- Generator: Adobe Illustrator 26.2.1, SVG Export Plug-In . SVG Version: 6.00 Build 0)  -->
<svg version="1.1" id="Ebene_1" xmlns="http://www.w3.org/2000/svg" xmlns:xlink="http://www.w3.org/1999/xlink" x="0px" y="0px"
	 width="31.054px" height="17.382px" viewBox="0 0 31.054 17.382" enable-background="new 0 0 31.054 17.382" xml:space="preserve">
<path fill="#006599" d="M25.193,0.778L25.193,0.778l1.414,5.667l-1.596-0.958c-1.346-0.815-2.738-1.656-4.334-2.146
	c-4.338-1.437-9.361-0.644-13.101,2.064c-1.704,1.219-3.184,2.924-4.422,5.071L0,15.726l2.756,1.656l3.171-5.278
	c1.016-1.785,2.194-3.135,3.527-4.089c2.925-2.118,6.838-2.739,10.246-1.611c1.249,0.384,2.415,1.089,3.649,1.835l1.602,0.962
	l-5.668,1.412l0.778,3.12l10.993-2.74L28.313,0L25.193,0.778z"/>
</svg>
