<?xml version="1.0" encoding="utf-8"?>
<!-- Generator: Adobe Illustrator 26.2.1, SVG Export Plug-In . SVG Version: 6.00 Build 0)  -->
<svg version="1.1" id="Ebene_1" xmlns="http://www.w3.org/2000/svg" xmlns:xlink="http://www.w3.org/1999/xlink" x="0px" y="0px"
	 width="31.054px" height="17.382px" viewBox="0 0 31.054 17.382" enable-background="new 0 0 31.054 17.382" xml:space="preserve">
<path fill="#006599" d="M5.861,0.778L5.861,0.778L4.447,6.445l1.596-0.958c1.346-0.815,2.738-1.656,4.334-2.146
	c4.338-1.437,9.361-0.644,13.101,2.064c1.704,1.219,3.184,2.924,4.422,5.071l3.154,5.25l-2.756,1.656l-3.171-5.278
	c-1.016-1.785-2.194-3.135-3.527-4.089c-2.925-2.118-6.838-2.739-10.246-1.611c-1.249,0.384-2.415,1.089-3.649,1.835L6.103,9.201
	l5.668,1.412l-0.778,3.12L0,10.993L2.741,0L5.861,0.778z"/>
</svg>
