<?xml version="1.0" encoding="utf-8"?>
<!-- Generator: Adobe Illustrator 26.2.1, SVG Export Plug-In . SVG Version: 6.00 Build 0)  -->
<svg version="1.1" id="Ebene_1" xmlns="http://www.w3.org/2000/svg" xmlns:xlink="http://www.w3.org/1999/xlink" x="0px" y="0px"
	 width="37.441px" height="38.941px" viewBox="0 0 37.441 38.941" enable-background="new 0 0 37.441 38.941" xml:space="preserve">
<rect x="21.171" y="0.47" fill="#FFFFFF" width="15.8" height="20.1"/>
<line fill="none" stroke="#B2B1B1" stroke-width="0.941" stroke-dasharray="1.971,1.971" x1="24.07" y1="20.471" x2="34.971" y2="20.471"/>
<line fill="none" stroke="#B2B1B1" stroke-width="0.941" stroke-dasharray="2.006,2.006" x1="36.971" y1="17.471" x2="36.971" y2="2.47"/>
<line fill="none" stroke="#B2B1B1" stroke-width="0.941" stroke-dasharray="1.971,1.971" x1="33.971" y1="0.47" x2="23.171" y2="0.47"/>
<line fill="none" stroke="#B2B1B1" stroke-width="0.941" stroke-dasharray="2.006,2.006" x1="21.171" y1="3.47" x2="21.171" y2="18.471"/>
<path fill="none" stroke="#B2B1B1" stroke-width="0.941" d="M21.171,19.471v1h1 M22.171,0.47h-1v1 M36.971,1.47v-1h-1
	 M35.971,20.471h1v-1"/>
<polygon fill="#FFFFFF" points="9.871,30.471 9.871,30.471 25.671,30.471 25.671,10.47 9.871,10.47 "/>
<line fill="none" stroke="#B2B1B1" stroke-width="0.941" stroke-dasharray="1.971,1.971" x1="12.871" y1="30.471" x2="23.671" y2="30.471"/>
<line fill="none" stroke="#B2B1B1" stroke-width="0.941" stroke-dasharray="2.006,2.006" x1="25.671" y1="27.471" x2="25.671" y2="12.47"/>
<line fill="none" stroke="#B2B1B1" stroke-width="0.941" stroke-dasharray="1.971,1.971" x1="22.77" y1="10.47" x2="11.871" y2="10.47"/>
<line fill="none" stroke="#B2B1B1" stroke-width="0.941" stroke-dasharray="2.006,2.006" x1="9.871" y1="13.47" x2="9.871" y2="28.471"/>
<path fill="none" stroke="#B2B1B1" stroke-width="0.941" d="M9.871,29.471v1h1 M10.871,10.47h-1v1 M25.671,11.47v-1h-1
	 M24.671,30.471h1v-1"/>
<polygon fill="#FFFFFF" points="0.47,38.471 0.47,38.471 16.171,38.471 16.171,18.471 0.47,18.471 "/>
<polygon fill="none" stroke="#B2B1B1" stroke-width="0.941" points="0.47,38.471 0.47,38.471 16.171,38.471 16.171,18.471 
	0.47,18.471 "/>
</svg>
