<?xml version="1.0" encoding="utf-8"?>
<!-- Generator: Adobe Illustrator 26.2.1, SVG Export Plug-In . SVG Version: 6.00 Build 0)  -->
<svg version="1.1" id="Ebene_1" xmlns="http://www.w3.org/2000/svg" xmlns:xlink="http://www.w3.org/1999/xlink" x="0px" y="0px"
	 width="39.1px" height="18.15px" viewBox="0 0 39.1 18.15" enable-background="new 0 0 39.1 18.15" xml:space="preserve">
<path fill="#B2B1B1" d="M36.1,3.975l3,3v-2.8c0-0.1-0.1-0.2-0.1-0.3l-3.8-3.8c-0.1-0.1-0.2-0.1-0.2,0l-3.9,3.9v2.8
	c0,0.1,0.1,0.1,0.1,0.1l2.8-2.9c0.1-0.1,0.1,0,0.1,0.1v7.8l0,0v2.2c0,0.1-0.1,0.1-0.1,0.1l-3-3v2.8c0,0.1,0.1,0.2,0.1,0.3l3.8,3.8
	c0.1,0.1,0.2,0.1,0.2,0l3.9-3.9v-2.8c0-0.1-0.1-0.1-0.1-0.1l-2.8,2.9c-0.1,0.1-0.1,0-0.1-0.1v-7.8l0,0v-2.2
	C36,3.875,36.1,3.875,36.1,3.975z"/>
<line fill="none" stroke="#B2B1B1" stroke-width="1.712" x1="0" y1="17.175" x2="27.8" y2="17.175"/>
<line fill="none" stroke="#B2B1B1" stroke-width="1.712" x1="0" y1="8.875" x2="27.8" y2="8.875"/>
<line fill="none" stroke="#B2B1B1" stroke-width="1.712" x1="0" y1="0.875" x2="27.8" y2="0.875"/>
</svg>
