<?xml version="1.0" encoding="utf-8"?>
<!-- Generator: Adobe Illustrator 26.2.1, SVG Export Plug-In . SVG Version: 6.00 Build 0)  -->
<svg version="1.1" id="Ebene_1" xmlns="http://www.w3.org/2000/svg" xmlns:xlink="http://www.w3.org/1999/xlink" x="0px" y="0px"
	 width="27px" height="27px" viewBox="0 0 27 27" enable-background="new 0 0 27 27" xml:space="preserve">
<g>
	<line fill="none" stroke="#B2B1B1" stroke-width="0.3" stroke-miterlimit="10" x1="23.25" y1="7.15" x2="3.75" y2="7.15"/>
	<line fill="none" stroke="#B2B1B1" stroke-width="0.3" stroke-miterlimit="10" x1="20.75" y1="8.45" x2="5.85" y2="8.45"/>
	<line fill="none" stroke="#B2B1B1" stroke-width="0.3" stroke-miterlimit="10" x1="20.75" y1="9.65" x2="5.85" y2="9.65"/>
	<line fill="none" stroke="#B2B1B1" stroke-width="0.3" stroke-miterlimit="10" x1="20.75" y1="10.95" x2="5.85" y2="10.95"/>
	<line fill="none" stroke="#B2B1B1" stroke-width="0.3" stroke-miterlimit="10" x1="23.25" y1="12.25" x2="3.75" y2="12.25"/>
	<line fill="none" stroke="#B2B1B1" stroke-width="0.3" stroke-miterlimit="10" x1="23.25" y1="13.55" x2="3.75" y2="13.55"/>
	<line fill="none" stroke="#B2B1B1" stroke-width="0.3" stroke-miterlimit="10" x1="20.75" y1="14.75" x2="5.85" y2="14.75"/>
	<line fill="none" stroke="#B2B1B1" stroke-width="0.3" stroke-miterlimit="10" x1="23.25" y1="16.05" x2="3.75" y2="16.05"/>
	<line fill="none" stroke="#B2B1B1" stroke-width="0.3" stroke-miterlimit="10" x1="20.75" y1="17.35" x2="5.85" y2="17.35"/>
	<line fill="none" stroke="#B2B1B1" stroke-width="0.3" stroke-miterlimit="10" x1="20.75" y1="18.65" x2="5.85" y2="18.65"/>
	<line fill="none" stroke="#B2B1B1" stroke-width="0.3" stroke-miterlimit="10" x1="23.25" y1="19.85" x2="3.75" y2="19.85"/>
</g>
<polygon fill="none" stroke="#B2B2B2" stroke-width="0.5" stroke-miterlimit="10" points="0.25,0.55 0.25,26.55 0.25,26.75 
	0.55,26.75 26.55,26.75 26.75,26.75 26.75,26.55 26.75,0.55 26.75,0.25 26.55,0.25 0.55,0.25 0.25,0.25 "/>
</svg>
