<?xml version="1.0" encoding="utf-8"?>
<!-- Generator: Adobe Illustrator 26.2.1, SVG Export Plug-In . SVG Version: 6.00 Build 0)  -->
<svg version="1.1" id="Ebene_1" xmlns="http://www.w3.org/2000/svg" xmlns:xlink="http://www.w3.org/1999/xlink" x="0px" y="0px"
	 width="18.803px" height="18.975px" viewBox="0 0 18.803 18.975" enable-background="new 0 0 18.803 18.975" xml:space="preserve">
<path fill="#FFFFFF" d="M2.413,8.766c3.086,0,5.795-0.003,8.504,0.002c0.549,0.001,1.232-0.096,1.216,0.737
	c-0.017,0.839-0.715,0.691-1.251,0.692C8.179,10.204,5.475,10.2,2.505,10.2c0.96,0.971,1.774,1.792,2.586,2.615
	c0.261,0.264,0.535,0.518,0.77,0.803c0.278,0.336,0.245,0.688-0.072,0.989c-0.326,0.31-0.677,0.289-0.986-0.018
	c-1.526-1.516-3.053-3.032-4.56-4.568c-0.439-0.447-0.22-0.87,0.164-1.252C1.828,7.357,3.246,5.941,4.66,4.522
	C5.015,4.165,5.386,3.966,5.806,4.39c0.409,0.411,0.252,0.8-0.11,1.155C4.675,6.547,3.653,7.55,2.413,8.766 M18.799,9.522
	c0,2.19,0.012,4.379-0.004,6.569c-0.013,1.817-0.989,2.833-2.808,2.864c-2.189,0.037-4.38,0.012-6.57,0.013
	c-0.509,0-1.038-0.055-1.061-0.7c-0.027-0.722,0.523-0.777,1.083-0.775c2.078,0.006,4.157,0.007,6.236,0.001
	c1.338-0.004,1.607-0.277,1.609-1.641c0.004-4.268,0.006-8.536-0.001-12.804c-0.002-1.288-0.284-1.563-1.57-1.567
	c-2.079-0.007-4.158-0.005-6.236,0C8.929,1.484,8.353,1.471,8.356,0.746C8.359,0.019,8.95,0.01,9.489,0.01
	c2.153-0.001,4.306-0.025,6.458,0.007c1.869,0.027,2.842,1.051,2.85,2.936C18.806,5.143,18.799,7.332,18.799,9.522"/>
</svg>
